# MagicaVoxel @ Ephtracy

# group
o 

# material
mtllib cave_decorations-12.mtl
usemtl palette

# normals
vn -1 0 0
vn 1 0 0
vn 0 0 1
vn 0 0 -1
vn 0 -1 0
vn 0 1 0

# texcoords
vt 0.841797 0.5
vt 0.869141 0.5

# verts
v -0.55 -3.15 0.25
v -0.55 -3.15 -0.25
v -0.55 -2.85 0.25
v -0.55 -2.85 -0.25
v -0.45 -3.15 0.35
v -0.45 -3.15 0.25
v -0.45 -3.15 -0.25
v -0.45 -3.15 -0.35
v -0.45 -2.85 0.35
v -0.45 -2.85 0.25
v -0.45 -2.85 -0.25
v -0.45 -2.85 -0.35
v -0.45 -2.75 0.25
v -0.45 -2.75 -0.25
v -0.35 -3.15 0.45
v -0.35 -3.15 0.35
v -0.35 -3.15 -0.35
v -0.35 -3.15 -0.45
v -0.35 -2.95 -0.35
v -0.35 -2.95 -0.45
v -0.35 -2.85 0.45
v -0.35 -2.85 0.35
v -0.35 -2.85 0.25
v -0.35 -2.85 -0.25
v -0.35 -2.85 -0.35
v -0.35 -2.85 -0.45
v -0.35 -2.75 0.35
v -0.35 -2.75 0.25
v -0.35 -2.75 0.15
v -0.35 -2.75 -0.15
v -0.35 -2.75 -0.25
v -0.35 -2.75 -0.35
v -0.35 -2.05 0.15
v -0.35 -2.05 -0.05
v -0.35 -1.95 -0.05
v -0.35 -1.95 -0.15
v -0.35 -0.55 -0.05
v -0.35 -0.55 -0.15
v -0.35 -0.05 -0.05
v -0.35 -0.05 -0.15
v -0.35 0.45 -0.05
v -0.35 0.45 -0.15
v -0.35 0.75 0.05
v -0.35 0.75 -0.05
v -0.35 0.85 0.15
v -0.35 0.85 0.05
v -0.35 1.65 0.15
v -0.35 1.65 0.05
v -0.35 1.75 0.05
v -0.35 1.75 -0.05
v -0.35 2.25 0.05
v -0.35 2.25 -0.05
v -0.35 2.35 0.15
v -0.35 2.35 0.05
v -0.35 2.35 -0.05
v -0.35 2.35 -0.15
v -0.35 2.75 0.05
v -0.35 2.75 -0.05
v -0.35 3.15 0.15
v -0.35 3.15 0.05
v -0.25 -3.15 0.55
v -0.25 -3.15 0.45
v -0.25 -3.15 -0.45
v -0.25 -3.15 -0.55
v -0.25 -2.95 -0.45
v -0.25 -2.95 -0.55
v -0.25 -2.85 0.55
v -0.25 -2.85 0.45
v -0.25 -2.85 0.35
v -0.25 -2.85 -0.35
v -0.25 -2.85 -0.45
v -0.25 -2.85 -0.55
v -0.25 -2.75 0.45
v -0.25 -2.75 0.35
v -0.25 -2.75 0.25
v -0.25 -2.75 0.15
v -0.25 -2.75 -0.15
v -0.25 -2.75 -0.25
v -0.25 -2.75 -0.35
v -0.25 -2.75 -0.45
v -0.25 -2.65 0.25
v -0.25 -2.65 0.15
v -0.25 -2.45 -0.15
v -0.25 -2.45 -0.25
v -0.25 -2.25 0.25
v -0.25 -2.25 0.15
v -0.25 -2.15 0.25
v -0.25 -2.15 0.15
v -0.25 -2.05 0.15
v -0.25 -1.95 -0.15
v -0.25 -0.55 -0.15
v -0.25 -0.05 -0.15
v -0.25 0.45 -0.15
v -0.25 0.85 0.15
v -0.25 1.15 0.25
v -0.25 1.15 0.15
v -0.25 1.25 0.25
v -0.25 1.25 0.15
v -0.25 1.45 -0.15
v -0.25 1.45 -0.25
v -0.25 1.65 0.15
v -0.25 2.35 0.15
v -0.25 2.75 0.25
v -0.25 2.75 0.15
v -0.25 3.05 0.25
v -0.25 3.05 0.15
v -0.15 -2.75 0.35
v -0.15 -2.75 0.25
v -0.15 -2.75 -0.25
v -0.15 -2.75 -0.35
v -0.15 -2.65 0.25
v -0.15 -2.45 -0.25
v -0.15 -2.35 -0.25
v -0.15 -2.35 -0.35
v -0.15 -2.25 0.25
v -0.15 -2.15 0.25
v -0.15 -0.75 -0.25
v -0.15 -0.75 -0.35
v -0.15 -0.15 -0.25
v -0.15 -0.15 -0.35
v -0.15 0.65 -0.25
v -0.15 0.65 -0.35
v -0.15 1.15 0.25
v -0.15 1.25 0.25
v -0.15 2.75 0.25
v -0.15 2.95 0.35
v -0.15 2.95 0.25
v -0.25 1.85 -0.05
v -0.25 1.85 -0.15
v -0.25 2.25 0.05
v -0.25 2.25 -0.05
v -0.25 2.35 -0.05
v -0.25 2.35 -0.15
v -0.25 2.55 0.05
v -0.25 2.65 0.15
v -0.25 2.65 0.05
v -0.25 2.75 0.15
v -0.25 2.75 0.05
v -0.25 2.75 -0.05
v -0.25 3.05 0.15
v -0.25 3.15 0.15
v -0.25 3.15 0.05
v -0.15 1.05 -0.15
v -0.15 1.05 -0.25
v -0.15 1.45 -0.05
v -0.15 1.45 -0.15
v -0.15 1.45 -0.25
v -0.15 1.75 -0.05
v -0.15 1.85 0.05
v -0.15 1.85 -0.05
v -0.15 1.85 -0.15
v -0.15 2.25 0.15
v -0.15 2.25 0.05
v -0.15 2.25 -0.05
v -0.15 2.55 0.15
v -0.15 2.55 0.05
v -0.15 2.65 0.25
v -0.15 2.65 0.15
v -0.15 2.65 0.05
v -0.15 2.75 0.25
v -0.15 2.75 0.15
v -0.15 2.95 0.25
v -0.15 3.05 0.25
v -0.15 3.05 0.15
v -0.05 0.15 -0.25
v -0.05 0.15 -0.35
v -0.05 0.55 -0.15
v -0.05 0.55 -0.25
v -0.05 0.65 -0.25
v -0.05 0.65 -0.35
v -0.05 0.95 -0.05
v -0.05 0.95 -0.15
v -0.05 1.05 -0.15
v -0.05 1.05 -0.25
v -0.05 1.35 0.05
v -0.05 1.35 -0.05
v -0.05 1.45 -0.05
v -0.05 1.45 -0.15
v -0.05 1.75 0.15
v -0.05 1.75 0.05
v -0.05 1.75 -0.05
v -0.05 1.85 0.05
v -0.05 1.85 -0.05
v -0.05 2.15 0.25
v -0.05 2.15 0.15
v -0.05 2.25 0.15
v -0.05 2.25 0.05
v -0.05 2.55 0.35
v -0.05 2.55 0.25
v -0.05 2.65 0.25
v -0.05 2.65 0.15
v -0.05 2.95 0.35
v -0.05 2.95 0.25
v 0.05 -0.25 -0.25
v 0.05 -0.25 -0.35
v 0.05 0.05 -0.25
v 0.05 0.05 -0.35
v 0.05 0.15 -0.15
v 0.05 0.15 -0.25
v 0.05 0.15 -0.35
v 0.05 0.55 -0.05
v 0.05 0.55 -0.15
v 0.05 0.55 -0.25
v 0.05 0.95 0.05
v 0.05 0.95 -0.05
v 0.05 0.95 -0.15
v 0.05 1.35 0.15
v 0.05 1.35 0.05
v 0.05 1.35 -0.05
v 0.05 1.65 0.25
v 0.05 1.65 0.15
v 0.05 1.75 0.15
v 0.05 1.75 0.05
v 0.05 2.05 0.35
v 0.05 2.05 0.25
v 0.05 2.15 0.25
v 0.05 2.15 0.15
v 0.05 2.55 0.35
v 0.05 2.55 0.25
v 0.15 -2.75 0.35
v 0.15 -2.75 0.25
v 0.15 -2.75 -0.25
v 0.15 -2.75 -0.35
v 0.15 -2.45 -0.25
v 0.15 -2.05 -0.25
v 0.15 -2.05 -0.35
v 0.15 -1.75 -0.25
v 0.15 -1.65 0.25
v 0.15 -1.55 0.35
v 0.15 -1.55 0.25
v 0.15 -1.25 -0.25
v 0.15 -1.05 -0.25
v 0.15 -1.05 -0.35
v 0.15 -0.45 -0.25
v 0.15 -0.35 -0.15
v 0.15 -0.35 -0.25
v 0.15 -0.25 -0.15
v 0.15 -0.25 -0.25
v 0.15 -0.25 -0.35
v 0.15 0.05 -0.05
v 0.15 0.05 -0.15
v 0.15 0.15 -0.05
v 0.15 0.15 -0.15
v 0.15 0.15 -0.25
v 0.15 0.25 0.35
v 0.15 0.25 0.25
v 0.15 0.45 0.05
v 0.15 0.45 -0.05
v 0.15 0.55 0.05
v 0.15 0.55 -0.05
v 0.15 0.55 -0.15
v 0.15 0.65 0.05
v 0.15 0.85 0.15
v 0.15 0.85 0.05
v 0.15 0.95 0.05
v 0.15 0.95 -0.05
v 0.15 1.25 0.25
v 0.15 1.25 0.15
v 0.15 1.35 0.15
v 0.15 1.35 0.05
v 0.15 1.65 0.25
v 0.15 1.65 0.15
v 0.15 2.05 0.35
v 0.15 2.05 0.25
v 0.25 -3.15 0.55
v 0.25 -3.15 0.45
v 0.25 -3.15 -0.45
v 0.25 -3.15 -0.55
v 0.25 -3.05 -0.45
v 0.25 -2.95 -0.45
v 0.25 -2.95 -0.55
v 0.25 -2.85 0.55
v 0.25 -2.85 0.45
v 0.25 -2.85 0.35
v 0.25 -2.85 -0.35
v 0.25 -2.85 -0.45
v 0.25 -2.85 -0.55
v 0.25 -2.75 0.45
v 0.25 -2.75 0.35
v 0.25 -2.75 0.25
v 0.25 -2.75 0.15
v 0.25 -2.75 -0.15
v 0.25 -2.75 -0.25
v 0.25 -2.75 -0.35
v 0.25 -2.75 -0.45
v 0.25 -2.65 0.15
v 0.25 -2.45 -0.15
v 0.25 -2.45 -0.25
v 0.25 -2.25 -0.15
v 0.25 -1.95 0.15
v 0.25 -1.75 -0.15
v 0.25 -1.75 -0.25
v 0.25 -1.65 0.25
v 0.25 -1.65 0.15
v 0.25 -1.25 -0.15
v 0.25 -1.25 -0.25
v 0.25 -1.05 0.15
v 0.25 -0.65 -0.15
v 0.25 -0.45 -0.15
v 0.25 -0.45 -0.25
v 0.25 -0.35 -0.05
v 0.25 -0.35 -0.15
v 0.25 -0.35 -0.25
v 0.25 -0.25 -0.05
v 0.25 -0.25 -0.15
v 0.25 -0.05 -0.05
v 0.25 0.05 0.05
v 0.25 0.05 -0.05
v 0.25 0.05 -0.15
v 0.25 0.15 0.15
v 0.25 0.15 0.05
v 0.25 0.25 0.25
v 0.25 0.25 0.15
v 0.25 0.35 0.15
v 0.25 0.35 0.05
v 0.25 0.45 0.05
v 0.25 0.45 -0.05
v 0.25 0.55 0.15
v 0.25 0.55 0.05
v 0.25 0.65 0.15
v 0.25 0.65 0.05
v 0.25 0.85 0.15
v 0.25 0.85 0.05
v 0.25 1.25 0.25
v 0.25 1.25 0.15
v 0.35 -3.15 0.45
v 0.35 -3.15 0.35
v 0.35 -3.15 -0.35
v 0.35 -3.15 -0.45
v 0.35 -3.05 -0.35
v 0.35 -3.05 -0.45
v 0.35 -2.85 0.45
v 0.35 -2.85 0.35
v 0.35 -2.85 0.25
v 0.35 -2.85 -0.25
v 0.35 -2.85 -0.35
v 0.35 -2.85 -0.45
v 0.35 -2.75 0.35
v 0.35 -2.75 0.25
v 0.35 -2.75 0.15
v 0.35 -2.75 0.05
v 0.35 -2.75 -0.05
v 0.35 -2.75 -0.15
v 0.35 -2.75 -0.25
v 0.35 -2.75 -0.35
v 0.35 -2.65 0.15
v 0.35 -2.65 0.05
v 0.35 -2.25 0.05
v 0.35 -2.25 -0.15
v 0.35 -1.95 0.15
v 0.35 -1.95 0.05
v 0.35 -1.05 0.15
v 0.35 -1.05 0.05
v 0.35 -0.75 0.05
v 0.35 -0.75 -0.05
v 0.35 -0.65 -0.05
v 0.35 -0.65 -0.15
v 0.35 -0.35 -0.05
v 0.35 -0.35 -0.15
v 0.35 -0.05 0.05
v 0.35 -0.05 -0.05
v 0.35 0.05 0.05
v 0.35 0.05 -0.05
v 0.35 0.15 0.15
v 0.35 0.15 0.05
v 0.35 0.35 0.15
v 0.35 0.35 0.05
v 0.45 -3.15 0.35
v 0.45 -3.15 0.25
v 0.45 -3.15 -0.25
v 0.45 -3.15 -0.35
v 0.45 -3.05 -0.25
v 0.45 -3.05 -0.35
v 0.45 -2.85 0.35
v 0.45 -2.85 0.25
v 0.45 -2.85 0.15
v 0.45 -2.85 -0.05
v 0.45 -2.85 -0.25
v 0.45 -2.85 -0.35
v 0.45 -2.75 0.25
v 0.45 -2.75 0.15
v 0.45 -2.75 -0.05
v 0.45 -2.75 -0.25
v 0.55 -3.15 0.25
v 0.55 -3.15 -0.25
v 0.55 -2.85 0.25
v 0.55 -2.85 -0.25
v -0.25 -3.15 0.55
v -0.25 -2.85 0.55
v -0.05 -2.95 0.55
v -0.05 -2.85 0.55
v 0.05 -3.05 0.55
v 0.05 -2.95 0.55
v 0.15 -3.15 0.55
v 0.15 -3.05 0.55
v 0.25 -3.15 0.55
v 0.25 -2.85 0.55
v -0.35 -3.15 0.45
v -0.35 -2.85 0.45
v -0.25 -3.15 0.45
v -0.25 -2.85 0.45
v -0.25 -2.75 0.45
v -0.15 -2.85 0.45
v -0.15 -2.75 0.45
v -0.05 -2.85 0.45
v 0.25 -3.15 0.45
v 0.25 -2.85 0.45
v 0.25 -2.75 0.45
v 0.35 -3.15 0.45
v 0.35 -2.85 0.45
v -0.45 -3.15 0.35
v -0.45 -2.85 0.35
v -0.35 -3.15 0.35
v -0.35 -2.85 0.35
v -0.35 -2.75 0.35
v -0.25 -2.85 0.35
v -0.25 -2.75 0.35
v -0.15 -2.75 0.35
v -0.15 2.95 0.35
v -0.05 -1.45 0.35
v -0.05 -0.75 0.35
v -0.05 -0.15 0.35
v -0.05 0.15 0.35
v -0.05 2.55 0.35
v -0.05 2.95 0.35
v 0.05 -1.55 0.35
v 0.05 -1.45 0.35
v 0.05 -0.75 0.35
v 0.05 -0.15 0.35
v 0.05 0.15 0.35
v 0.05 0.25 0.35
v 0.05 2.05 0.35
v 0.05 2.55 0.35
v 0.15 -2.75 0.35
v 0.15 -1.55 0.35
v 0.15 0.25 0.35
v 0.15 2.05 0.35
v 0.25 -2.85 0.35
v 0.25 -2.75 0.35
v 0.35 -3.15 0.35
v 0.35 -2.85 0.35
v 0.35 -2.75 0.35
v 0.45 -3.15 0.35
v 0.45 -2.85 0.35
v -0.55 -3.15 0.25
v -0.55 -2.85 0.25
v -0.45 -3.15 0.25
v -0.45 -2.85 0.25
v -0.45 -2.75 0.25
v -0.35 -2.85 0.25
v -0.35 -2.75 0.25
v -0.25 -2.75 0.25
v -0.25 -2.65 0.25
v -0.25 -2.25 0.25
v -0.25 -2.15 0.25
v -0.25 1.15 0.25
v -0.25 1.25 0.25
v -0.25 2.75 0.25
v -0.25 3.05 0.25
v -0.15 -2.75 0.25
v -0.15 -2.65 0.25
v -0.15 -2.25 0.25
v -0.15 -2.15 0.25
v -0.15 1.15 0.25
v -0.15 1.25 0.25
v -0.15 2.75 0.25
v -0.15 2.95 0.25
v -0.15 3.05 0.25
v 0.15 -2.75 0.25
v 0.15 -1.65 0.25
v 0.15 -1.55 0.25
v 0.15 0.25 0.25
v 0.15 1.25 0.25
v 0.25 -2.75 0.25
v 0.25 -1.65 0.25
v 0.25 0.25 0.25
v 0.25 1.25 0.25
v 0.35 -2.85 0.25
v 0.35 -2.75 0.25
v 0.45 -3.15 0.25
v 0.45 -2.85 0.25
v 0.45 -2.75 0.25
v 0.55 -3.15 0.25
v 0.55 -2.85 0.25
v -0.35 -2.75 0.15
v -0.35 -2.05 0.15
v -0.35 0.85 0.15
v -0.35 1.65 0.15
v -0.35 2.35 0.15
v -0.35 3.15 0.15
v -0.25 -2.75 0.15
v -0.25 -2.65 0.15
v -0.25 -2.25 0.15
v -0.25 -2.15 0.15
v -0.25 -2.05 0.15
v -0.25 0.85 0.15
v -0.25 1.15 0.15
v -0.25 1.25 0.15
v -0.25 1.65 0.15
v -0.25 2.35 0.15
v -0.25 2.75 0.15
v -0.25 3.05 0.15
v -0.25 3.15 0.15
v 0.25 -2.75 0.15
v 0.25 -2.65 0.15
v 0.25 -1.95 0.15
v 0.25 -1.65 0.15
v 0.25 -1.05 0.15
v 0.25 0.15 0.15
v 0.25 0.25 0.15
v 0.25 0.35 0.15
v 0.35 -2.75 0.15
v 0.35 -2.65 0.15
v 0.35 -1.95 0.15
v 0.35 -1.05 0.15
v 0.35 0.15 0.15
v 0.35 0.35 0.15
v -0.15 2.65 0.25
v -0.15 2.75 0.25
v -0.15 2.95 0.25
v -0.05 2.15 0.25
v -0.05 2.55 0.25
v -0.05 2.65 0.25
v -0.05 2.95 0.25
v 0.05 1.65 0.25
v 0.05 2.05 0.25
v 0.05 2.15 0.25
v 0.05 2.55 0.25
v 0.15 1.65 0.25
v 0.15 2.05 0.25
v -0.25 2.65 0.15
v -0.25 2.75 0.15
v -0.25 3.05 0.15
v -0.15 2.25 0.15
v -0.15 2.55 0.15
v -0.15 2.65 0.15
v -0.15 2.75 0.15
v -0.15 3.05 0.15
v -0.05 1.75 0.15
v -0.05 2.15 0.15
v -0.05 2.25 0.15
v -0.05 2.65 0.15
v 0.05 1.35 0.15
v 0.05 1.65 0.15
v 0.05 1.75 0.15
v 0.05 2.15 0.15
v 0.15 0.85 0.15
v 0.15 1.25 0.15
v 0.15 1.35 0.15
v 0.15 1.65 0.15
v 0.25 0.85 0.15
v 0.25 1.25 0.15
v -0.35 2.75 0.05
v -0.35 3.15 0.05
v -0.25 2.25 0.05
v -0.25 2.55 0.05
v -0.25 2.65 0.05
v -0.25 2.75 0.05
v -0.25 3.15 0.05
v -0.15 1.85 0.05
v -0.15 2.25 0.05
v -0.15 2.55 0.05
v -0.15 2.65 0.05
v -0.05 1.35 0.05
v -0.05 1.75 0.05
v -0.05 1.85 0.05
v -0.05 2.25 0.05
v 0.05 0.95 0.05
v 0.05 1.35 0.05
v 0.05 1.75 0.05
v 0.15 0.45 0.05
v 0.15 0.55 0.05
v 0.15 0.65 0.05
v 0.15 0.85 0.05
v 0.15 0.95 0.05
v 0.15 1.35 0.05
v 0.25 0.05 0.05
v 0.25 0.15 0.05
v 0.25 0.35 0.05
v 0.25 0.45 0.05
v 0.25 0.55 0.05
v 0.25 0.65 0.05
v 0.25 0.85 0.05
v 0.35 0.05 0.05
v 0.35 0.15 0.05
v 0.35 0.35 0.05
v -0.35 2.35 -0.05
v -0.35 2.75 -0.05
v -0.25 1.85 -0.05
v -0.25 2.25 -0.05
v -0.25 2.35 -0.05
v -0.25 2.75 -0.05
v -0.15 1.45 -0.05
v -0.15 1.75 -0.05
v -0.15 1.85 -0.05
v -0.15 2.25 -0.05
v -0.05 0.95 -0.05
v -0.05 1.35 -0.05
v -0.05 1.45 -0.05
v -0.05 1.75 -0.05
v -0.05 1.85 -0.05
v 0.05 0.55 -0.05
v 0.05 0.95 -0.05
v 0.05 1.35 -0.05
v 0.15 0.05 -0.05
v 0.15 0.15 -0.05
v 0.15 0.45 -0.05
v 0.15 0.55 -0.05
v 0.15 0.95 -0.05
v 0.25 -0.35 -0.05
v 0.25 -0.25 -0.05
v 0.25 -0.05 -0.05
v 0.25 0.05 -0.05
v 0.25 0.45 -0.05
v 0.35 -0.35 -0.05
v 0.35 -0.05 -0.05
v 0.35 0.05 -0.05
v -0.35 -2.75 -0.15
v -0.35 -1.95 -0.15
v -0.35 -0.55 -0.15
v -0.35 -0.05 -0.15
v -0.35 0.45 -0.15
v -0.35 2.35 -0.15
v -0.25 -2.75 -0.15
v -0.25 -2.45 -0.15
v -0.25 -1.95 -0.15
v -0.25 -0.55 -0.15
v -0.25 -0.05 -0.15
v -0.25 0.45 -0.15
v -0.25 1.45 -0.15
v -0.25 1.85 -0.15
v -0.25 2.35 -0.15
v -0.15 1.05 -0.15
v -0.15 1.45 -0.15
v -0.15 1.85 -0.15
v -0.05 0.55 -0.15
v -0.05 0.95 -0.15
v -0.05 1.05 -0.15
v -0.05 1.45 -0.15
v 0.05 0.15 -0.15
v 0.05 0.55 -0.15
v 0.05 0.95 -0.15
v 0.15 -0.35 -0.15
v 0.15 -0.25 -0.15
v 0.15 0.05 -0.15
v 0.15 0.15 -0.15
v 0.15 0.55 -0.15
v 0.25 -2.75 -0.15
v 0.25 -2.45 -0.15
v 0.25 -2.25 -0.15
v 0.25 -1.75 -0.15
v 0.25 -1.25 -0.15
v 0.25 -0.65 -0.15
v 0.25 -0.45 -0.15
v 0.25 -0.35 -0.15
v 0.25 -0.25 -0.15
v 0.25 0.05 -0.15
v 0.35 -2.75 -0.15
v 0.35 -2.25 -0.15
v 0.35 -0.65 -0.15
v 0.35 -0.35 -0.15
v -0.55 -3.15 -0.25
v -0.55 -2.85 -0.25
v -0.45 -3.15 -0.25
v -0.45 -2.85 -0.25
v -0.45 -2.75 -0.25
v -0.35 -2.85 -0.25
v -0.35 -2.75 -0.25
v -0.25 -2.75 -0.25
v -0.25 -2.45 -0.25
v -0.25 1.45 -0.25
v -0.15 -2.75 -0.25
v -0.15 -2.45 -0.25
v -0.15 -2.35 -0.25
v -0.15 -0.75 -0.25
v -0.15 -0.15 -0.25
v -0.15 0.65 -0.25
v -0.15 1.05 -0.25
v -0.15 1.45 -0.25
v -0.05 0.15 -0.25
v -0.05 0.55 -0.25
v -0.05 0.65 -0.25
v -0.05 1.05 -0.25
v 0.05 -0.25 -0.25
v 0.05 0.05 -0.25
v 0.05 0.15 -0.25
v 0.05 0.55 -0.25
v 0.15 -2.75 -0.25
v 0.15 -2.45 -0.25
v 0.15 -2.05 -0.25
v 0.15 -1.75 -0.25
v 0.15 -1.25 -0.25
v 0.15 -1.05 -0.25
v 0.15 -0.45 -0.25
v 0.15 -0.35 -0.25
v 0.15 -0.25 -0.25
v 0.15 0.15 -0.25
v 0.25 -2.75 -0.25
v 0.25 -2.45 -0.25
v 0.25 -1.75 -0.25
v 0.25 -1.25 -0.25
v 0.25 -0.45 -0.25
v 0.25 -0.35 -0.25
v 0.35 -2.85 -0.25
v 0.35 -2.75 -0.25
v 0.45 -3.15 -0.25
v 0.45 -3.05 -0.25
v 0.45 -2.85 -0.25
v 0.45 -2.75 -0.25
v 0.55 -3.15 -0.25
v 0.55 -2.85 -0.25
v -0.45 -3.15 -0.35
v -0.45 -2.85 -0.35
v -0.35 -3.15 -0.35
v -0.35 -2.95 -0.35
v -0.35 -2.85 -0.35
v -0.35 -2.75 -0.35
v -0.25 -2.85 -0.35
v -0.25 -2.75 -0.35
v -0.15 -2.75 -0.35
v -0.15 -2.35 -0.35
v -0.15 -0.75 -0.35
v -0.15 -0.15 -0.35
v -0.15 0.65 -0.35
v -0.05 -2.35 -0.35
v -0.05 -2.05 -0.35
v -0.05 -0.85 -0.35
v -0.05 -0.75 -0.35
v -0.05 -0.15 -0.35
v -0.05 0.05 -0.35
v -0.05 0.15 -0.35
v -0.05 0.65 -0.35
v 0.05 -1.05 -0.35
v 0.05 -0.85 -0.35
v 0.05 -0.25 -0.35
v 0.05 0.05 -0.35
v 0.05 0.15 -0.35
v 0.15 -2.75 -0.35
v 0.15 -2.05 -0.35
v 0.15 -1.05 -0.35
v 0.15 -0.25 -0.35
v 0.25 -2.85 -0.35
v 0.25 -2.75 -0.35
v 0.35 -3.15 -0.35
v 0.35 -3.05 -0.35
v 0.35 -2.85 -0.35
v 0.35 -2.75 -0.35
v 0.45 -3.15 -0.35
v 0.45 -3.05 -0.35
v 0.45 -2.85 -0.35
v -0.35 -3.15 -0.45
v -0.35 -2.95 -0.45
v -0.35 -2.85 -0.45
v -0.25 -3.15 -0.45
v -0.25 -2.95 -0.45
v -0.25 -2.85 -0.45
v -0.25 -2.75 -0.45
v 0.25 -3.15 -0.45
v 0.25 -3.05 -0.45
v 0.25 -2.95 -0.45
v 0.25 -2.85 -0.45
v 0.25 -2.75 -0.45
v 0.35 -3.15 -0.45
v 0.35 -3.05 -0.45
v 0.35 -2.85 -0.45
v -0.25 -3.15 -0.55
v -0.25 -2.95 -0.55
v -0.25 -2.85 -0.55
v 0.25 -3.15 -0.55
v 0.25 -2.95 -0.55
v 0.25 -2.85 -0.55
v -0.25 -3.15 0.55
v 0.15 -3.15 0.55
v 0.25 -3.15 0.55
v -0.35 -3.15 0.45
v -0.25 -3.15 0.45
v 0.25 -3.15 0.45
v 0.35 -3.15 0.45
v -0.45 -3.15 0.35
v -0.35 -3.15 0.35
v 0.35 -3.15 0.35
v 0.45 -3.15 0.35
v -0.55 -3.15 0.25
v -0.45 -3.15 0.25
v 0.45 -3.15 0.25
v 0.55 -3.15 0.25
v 0.15 -3.15 0.15
v 0.25 -3.15 0.15
v 0.25 -3.15 0.05
v 0.35 -3.15 0.05
v 0.35 -3.15 -0.15
v 0.45 -3.15 -0.15
v -0.55 -3.15 -0.25
v -0.45 -3.15 -0.25
v 0.45 -3.15 -0.25
v 0.55 -3.15 -0.25
v -0.45 -3.15 -0.35
v -0.35 -3.15 -0.35
v 0.35 -3.15 -0.35
v 0.45 -3.15 -0.35
v -0.35 -3.15 -0.45
v -0.25 -3.15 -0.45
v 0.25 -3.15 -0.45
v 0.35 -3.15 -0.45
v -0.25 -3.15 -0.55
v 0.25 -3.15 -0.55
v -0.25 -2.85 0.55
v -0.05 -2.85 0.55
v 0.25 -2.85 0.55
v -0.35 -2.85 0.45
v -0.25 -2.85 0.45
v -0.15 -2.85 0.45
v -0.05 -2.85 0.45
v 0.25 -2.85 0.45
v 0.35 -2.85 0.45
v -0.45 -2.85 0.35
v -0.35 -2.85 0.35
v -0.25 -2.85 0.35
v 0.25 -2.85 0.35
v 0.35 -2.85 0.35
v 0.45 -2.85 0.35
v -0.55 -2.85 0.25
v -0.45 -2.85 0.25
v -0.35 -2.85 0.25
v 0.35 -2.85 0.25
v 0.45 -2.85 0.25
v 0.55 -2.85 0.25
v 0.45 -2.85 0.15
v 0.45 -2.85 -0.05
v -0.55 -2.85 -0.25
v -0.45 -2.85 -0.25
v -0.35 -2.85 -0.25
v 0.35 -2.85 -0.25
v 0.45 -2.85 -0.25
v 0.55 -2.85 -0.25
v -0.45 -2.85 -0.35
v -0.35 -2.85 -0.35
v -0.25 -2.85 -0.35
v 0.25 -2.85 -0.35
v 0.35 -2.85 -0.35
v 0.45 -2.85 -0.35
v -0.35 -2.85 -0.45
v -0.25 -2.85 -0.45
v 0.25 -2.85 -0.45
v 0.35 -2.85 -0.45
v -0.25 -2.85 -0.55
v 0.25 -2.85 -0.55
v -0.25 -2.75 0.45
v -0.15 -2.75 0.45
v 0.25 -2.75 0.45
v -0.35 -2.75 0.35
v -0.25 -2.75 0.35
v -0.15 -2.75 0.35
v 0.15 -2.75 0.35
v 0.25 -2.75 0.35
v 0.35 -2.75 0.35
v -0.45 -2.75 0.25
v -0.35 -2.75 0.25
v -0.25 -2.75 0.25
v -0.15 -2.75 0.25
v 0.15 -2.75 0.25
v 0.25 -2.75 0.25
v 0.35 -2.75 0.25
v 0.45 -2.75 0.25
v -0.35 -2.75 0.15
v -0.25 -2.75 0.15
v 0.25 -2.75 0.15
v 0.35 -2.75 0.15
v 0.45 -2.75 0.15
v 0.35 -2.75 0.05
v 0.35 -2.75 -0.05
v 0.45 -2.75 -0.05
v -0.35 -2.75 -0.15
v -0.25 -2.75 -0.15
v 0.25 -2.75 -0.15
v 0.35 -2.75 -0.15
v -0.45 -2.75 -0.25
v -0.35 -2.75 -0.25
v -0.25 -2.75 -0.25
v -0.15 -2.75 -0.25
v 0.15 -2.75 -0.25
v 0.25 -2.75 -0.25
v 0.35 -2.75 -0.25
v 0.45 -2.75 -0.25
v -0.35 -2.75 -0.35
v -0.25 -2.75 -0.35
v -0.15 -2.75 -0.35
v 0.15 -2.75 -0.35
v 0.25 -2.75 -0.35
v 0.35 -2.75 -0.35
v -0.25 -2.75 -0.45
v 0.25 -2.75 -0.45
v 0.25 -0.35 -0.05
v 0.35 -0.35 -0.05
v 0.15 -0.35 -0.15
v 0.25 -0.35 -0.15
v 0.35 -0.35 -0.15
v 0.15 -0.35 -0.25
v 0.25 -0.35 -0.25
v 0.05 -0.25 -0.25
v 0.15 -0.25 -0.25
v 0.05 -0.25 -0.35
v 0.15 -0.25 -0.35
v 0.25 0.05 0.05
v 0.35 0.05 0.05
v 0.15 0.05 -0.05
v 0.25 0.05 -0.05
v 0.35 0.05 -0.05
v 0.15 0.05 -0.15
v 0.25 0.05 -0.15
v 0.05 0.15 -0.15
v 0.15 0.15 -0.15
v -0.05 0.15 -0.25
v 0.05 0.15 -0.25
v 0.15 0.15 -0.25
v -0.05 0.15 -0.35
v 0.05 0.15 -0.35
v 0.25 0.35 0.15
v 0.35 0.35 0.15
v 0.25 0.35 0.05
v 0.35 0.35 0.05
v 0.15 0.45 0.05
v 0.25 0.45 0.05
v 0.15 0.45 -0.05
v 0.25 0.45 -0.05
v 0.05 0.55 -0.05
v 0.15 0.55 -0.05
v -0.05 0.55 -0.15
v 0.05 0.55 -0.15
v 0.15 0.55 -0.15
v -0.05 0.55 -0.25
v 0.05 0.55 -0.25
v -0.15 0.65 -0.25
v -0.05 0.65 -0.25
v -0.15 0.65 -0.35
v -0.05 0.65 -0.35
v 0.15 0.85 0.15
v 0.25 0.85 0.15
v 0.15 0.85 0.05
v 0.25 0.85 0.05
v 0.05 0.95 0.05
v 0.15 0.95 0.05
v -0.05 0.95 -0.05
v 0.05 0.95 -0.05
v 0.15 0.95 -0.05
v -0.05 0.95 -0.15
v 0.05 0.95 -0.15
v -0.15 1.05 -0.15
v -0.05 1.05 -0.15
v -0.15 1.05 -0.25
v -0.05 1.05 -0.25
v 0.15 1.25 0.25
v 0.25 1.25 0.25
v 0.15 1.25 0.15
v 0.25 1.25 0.15
v 0.05 1.35 0.15
v 0.15 1.35 0.15
v -0.05 1.35 0.05
v 0.05 1.35 0.05
v 0.15 1.35 0.05
v -0.05 1.35 -0.05
v 0.05 1.35 -0.05
v -0.15 1.45 -0.05
v -0.05 1.45 -0.05
v -0.25 1.45 -0.15
v -0.15 1.45 -0.15
v -0.05 1.45 -0.15
v -0.25 1.45 -0.25
v -0.15 1.45 -0.25
v 0.05 1.65 0.25
v 0.15 1.65 0.25
v 0.05 1.65 0.15
v 0.15 1.65 0.15
v -0.05 1.75 0.15
v 0.05 1.75 0.15
v -0.05 1.75 0.05
v 0.05 1.75 0.05
v -0.15 1.85 0.05
v -0.05 1.85 0.05
v -0.25 1.85 -0.05
v -0.15 1.85 -0.05
v -0.05 1.85 -0.05
v -0.25 1.85 -0.15
v -0.15 1.85 -0.15
v 0.05 2.05 0.35
v 0.15 2.05 0.35
v 0.05 2.05 0.25
v 0.15 2.05 0.25
v -0.05 2.15 0.25
v 0.05 2.15 0.25
v -0.05 2.15 0.15
v 0.05 2.15 0.15
v -0.15 2.25 0.15
v -0.05 2.25 0.15
v -0.25 2.25 0.05
v -0.15 2.25 0.05
v -0.05 2.25 0.05
v -0.25 2.25 -0.05
v -0.15 2.25 -0.05
v -0.35 2.35 -0.05
v -0.25 2.35 -0.05
v -0.35 2.35 -0.15
v -0.25 2.35 -0.15
v -0.05 2.55 0.35
v 0.05 2.55 0.35
v -0.05 2.55 0.25
v 0.05 2.55 0.25
v -0.15 2.65 0.25
v -0.05 2.65 0.25
v -0.25 2.65 0.15
v -0.15 2.65 0.15
v -0.05 2.65 0.15
v -0.25 2.65 0.05
v -0.15 2.65 0.05
v -0.35 2.75 0.05
v -0.25 2.75 0.05
v -0.35 2.75 -0.05
v -0.25 2.75 -0.05
v -0.15 2.95 0.35
v -0.05 2.95 0.35
v -0.15 2.95 0.25
v -0.05 2.95 0.25
v -0.25 3.05 0.25
v -0.15 3.05 0.25
v -0.25 3.05 0.15
v -0.15 3.05 0.15
v -0.35 3.15 0.15
v -0.25 3.15 0.15
v -0.35 3.15 0.05
v -0.25 3.15 0.05

# faces
f 3/1/1 2/1/1 1/1/1
f 4/1/1 2/1/1 3/1/1
f 9/1/1 6/1/1 5/1/1
f 10/1/1 6/1/1 9/1/1
f 11/1/1 8/1/1 7/1/1
f 12/1/1 8/1/1 11/1/1
f 13/1/1 11/1/1 10/1/1
f 14/1/1 11/1/1 13/1/1
f 19/1/1 18/1/1 17/1/1
f 20/1/1 18/1/1 19/1/1
f 21/1/1 16/1/1 15/1/1
f 22/1/1 16/1/1 21/1/1
f 25/2/1 20/2/1 19/2/1
f 26/2/1 20/2/1 25/2/1
f 27/1/1 23/1/1 22/1/1
f 28/1/1 23/1/1 27/1/1
f 31/2/1 25/2/1 24/2/1
f 32/2/1 25/2/1 31/2/1
f 33/1/1 30/1/1 29/1/1
f 34/1/1 30/1/1 33/1/1
f 35/2/1 34/2/1 33/2/1
f 35/1/1 30/1/1 34/1/1
f 36/1/1 30/1/1 35/1/1
f 37/2/1 35/2/1 33/2/1
f 37/2/1 36/2/1 35/2/1
f 38/2/1 36/2/1 37/2/1
f 39/2/1 37/2/1 33/2/1
f 39/1/1 38/1/1 37/1/1
f 40/1/1 38/1/1 39/1/1
f 41/2/1 39/2/1 33/2/1
f 41/2/1 40/2/1 39/2/1
f 42/2/1 40/2/1 41/2/1
f 43/2/1 41/2/1 33/2/1
f 44/1/1 42/1/1 41/1/1
f 44/2/1 41/2/1 43/2/1
f 45/2/1 43/2/1 33/2/1
f 46/1/1 44/1/1 43/1/1
f 46/2/1 43/2/1 45/2/1
f 47/1/1 46/1/1 45/1/1
f 48/1/1 44/1/1 46/1/1
f 48/1/1 46/1/1 47/1/1
f 49/2/1 48/2/1 47/2/1
f 49/1/1 44/1/1 48/1/1
f 50/1/1 42/1/1 44/1/1
f 50/1/1 44/1/1 49/1/1
f 51/2/1 49/2/1 47/2/1
f 51/2/1 50/2/1 49/2/1
f 52/1/1 42/1/1 50/1/1
f 52/2/1 50/2/1 51/2/1
f 53/2/1 51/2/1 47/2/1
f 54/1/1 52/1/1 51/1/1
f 54/2/1 51/2/1 53/2/1
f 55/1/1 42/1/1 52/1/1
f 55/1/1 52/1/1 54/1/1
f 56/1/1 42/1/1 55/1/1
f 57/1/1 54/1/1 53/1/1
f 57/1/1 55/1/1 54/1/1
f 58/1/1 55/1/1 57/1/1
f 59/1/1 57/1/1 53/1/1
f 60/1/1 57/1/1 59/1/1
f 65/1/1 64/1/1 63/1/1
f 66/1/1 64/1/1 65/1/1
f 67/1/1 62/1/1 61/1/1
f 68/1/1 62/1/1 67/1/1
f 71/2/1 66/2/1 65/2/1
f 72/2/1 66/2/1 71/2/1
f 73/1/1 69/1/1 68/1/1
f 74/1/1 69/1/1 73/1/1
f 79/2/1 71/2/1 70/2/1
f 80/2/1 71/2/1 79/2/1
f 81/1/1 76/1/1 75/1/1
f 82/1/1 76/1/1 81/1/1
f 83/2/1 78/2/1 77/2/1
f 84/2/1 78/2/1 83/2/1
f 85/2/1 82/2/1 81/2/1
f 86/2/1 82/2/1 85/2/1
f 87/1/1 86/1/1 85/1/1
f 88/1/1 86/1/1 87/1/1
f 89/2/1 88/2/1 87/2/1
f 90/1/1 84/1/1 83/1/1
f 91/1/1 84/1/1 90/1/1
f 92/1/1 84/1/1 91/1/1
f 93/1/1 84/1/1 92/1/1
f 94/2/1 89/2/1 87/2/1
f 95/2/1 94/2/1 87/2/1
f 96/2/1 94/2/1 95/2/1
f 97/1/1 96/1/1 95/1/1
f 98/1/1 96/1/1 97/1/1
f 99/1/1 84/1/1 93/1/1
f 100/1/1 84/1/1 99/1/1
f 101/2/1 98/2/1 97/2/1
f 102/2/1 101/2/1 97/2/1
f 103/2/1 102/2/1 97/2/1
f 104/2/1 102/2/1 103/2/1
f 105/1/1 104/1/1 103/1/1
f 106/1/1 104/1/1 105/1/1
f 111/2/1 108/2/1 107/2/1
f 112/2/1 110/2/1 109/2/1
f 113/2/1 110/2/1 112/2/1
f 114/2/1 110/2/1 113/2/1
f 115/2/1 111/2/1 107/2/1
f 116/2/1 115/2/1 107/2/1
f 117/1/1 114/1/1 113/1/1
f 118/1/1 114/1/1 117/1/1
f 119/2/1 118/2/1 117/2/1
f 120/2/1 118/2/1 119/2/1
f 121/1/1 120/1/1 119/1/1
f 122/1/1 120/1/1 121/1/1
f 123/2/1 116/2/1 107/2/1
f 124/2/1 123/2/1 107/2/1
f 125/2/1 124/2/1 107/2/1
f 126/2/1 125/2/1 107/2/1
f 127/2/1 125/2/1 126/2/1
f 128/1/2 129/1/2 131/1/2
f 131/1/2 129/1/2 132/1/2
f 130/1/2 131/1/2 132/1/2
f 132/1/2 129/1/2 133/1/2
f 130/1/2 132/1/2 134/1/2
f 134/1/2 132/1/2 136/1/2
f 135/1/2 136/1/2 137/1/2
f 136/1/2 132/1/2 138/1/2
f 137/1/2 136/1/2 138/1/2
f 138/1/2 132/1/2 139/1/2
f 137/1/2 138/1/2 140/1/2
f 140/1/2 138/1/2 141/1/2
f 141/1/2 138/1/2 142/1/2
f 143/1/2 144/1/2 146/1/2
f 146/1/2 144/1/2 147/1/2
f 145/1/2 146/1/2 148/1/2
f 148/1/2 146/1/2 150/1/2
f 150/1/2 146/1/2 151/1/2
f 149/2/2 150/2/2 153/2/2
f 153/2/2 150/2/2 154/2/2
f 152/2/2 153/2/2 155/2/2
f 155/2/2 153/2/2 156/2/2
f 155/1/2 156/1/2 158/1/2
f 158/1/2 156/1/2 159/1/2
f 157/2/2 158/2/2 160/2/2
f 160/2/2 158/2/2 161/2/2
f 160/1/2 161/1/2 162/1/2
f 162/1/2 161/1/2 163/1/2
f 163/1/2 161/1/2 164/1/2
f 165/1/2 166/1/2 168/1/2
f 168/1/2 166/1/2 169/1/2
f 167/1/2 168/1/2 169/1/2
f 169/1/2 166/1/2 170/1/2
f 167/1/2 169/1/2 172/1/2
f 172/1/2 169/1/2 173/1/2
f 171/1/2 172/1/2 173/1/2
f 173/1/2 169/1/2 174/1/2
f 171/1/2 173/1/2 176/1/2
f 176/1/2 173/1/2 177/1/2
f 175/1/2 176/1/2 177/1/2
f 177/1/2 173/1/2 178/1/2
f 175/1/2 177/1/2 180/1/2
f 180/1/2 177/1/2 181/1/2
f 179/2/2 180/2/2 182/2/2
f 180/2/2 181/2/2 182/2/2
f 182/2/2 181/2/2 183/2/2
f 179/2/2 182/2/2 185/2/2
f 185/2/2 182/2/2 186/2/2
f 184/2/2 185/2/2 186/2/2
f 186/2/2 182/2/2 187/2/2
f 184/2/2 186/2/2 189/2/2
f 189/2/2 186/2/2 190/2/2
f 188/2/2 189/2/2 190/2/2
f 190/2/2 186/2/2 191/2/2
f 188/2/2 190/2/2 192/2/2
f 192/2/2 190/2/2 193/2/2
f 194/2/2 195/2/2 196/2/2
f 196/2/2 195/2/2 197/2/2
f 196/1/2 197/1/2 199/1/2
f 199/1/2 197/1/2 200/1/2
f 198/1/2 199/1/2 202/1/2
f 202/1/2 199/1/2 203/1/2
f 201/1/2 202/1/2 205/1/2
f 205/1/2 202/1/2 206/1/2
f 204/1/2 205/1/2 208/1/2
f 208/1/2 205/1/2 209/1/2
f 207/2/2 208/2/2 211/2/2
f 211/2/2 208/2/2 212/2/2
f 210/2/2 211/2/2 212/2/2
f 212/2/2 208/2/2 213/2/2
f 210/2/2 212/2/2 215/2/2
f 215/2/2 212/2/2 216/2/2
f 214/2/2 215/2/2 216/2/2
f 216/2/2 212/2/2 217/2/2
f 214/2/2 216/2/2 218/2/2
f 218/2/2 216/2/2 219/2/2
f 222/2/2 223/2/2 224/2/2
f 224/2/2 223/2/2 225/2/2
f 225/2/2 223/2/2 226/2/2
f 225/1/2 226/1/2 227/1/2
f 220/2/2 221/2/2 228/2/2
f 220/2/2 228/2/2 229/2/2
f 229/2/2 228/2/2 230/2/2
f 227/1/2 226/1/2 231/1/2
f 231/1/2 226/1/2 232/1/2
f 232/1/2 226/1/2 233/1/2
f 232/2/2 233/2/2 234/2/2
f 234/2/2 233/2/2 236/2/2
f 235/2/2 236/2/2 237/2/2
f 236/2/2 233/2/2 238/2/2
f 237/2/2 236/2/2 238/2/2
f 238/2/2 233/2/2 239/2/2
f 237/2/2 238/2/2 241/2/2
f 240/2/2 241/2/2 242/2/2
f 241/2/2 238/2/2 243/2/2
f 242/2/2 241/2/2 243/2/2
f 243/2/2 238/2/2 244/2/2
f 229/1/2 230/1/2 245/1/2
f 245/1/2 230/1/2 246/1/2
f 242/1/2 243/1/2 248/1/2
f 247/1/2 248/1/2 249/1/2
f 248/1/2 243/1/2 250/1/2
f 249/1/2 248/1/2 250/1/2
f 250/1/2 243/1/2 251/1/2
f 249/1/2 250/1/2 252/1/2
f 252/1/2 250/1/2 254/1/2
f 254/1/2 250/1/2 255/1/2
f 253/2/2 254/2/2 255/2/2
f 255/1/2 250/1/2 256/1/2
f 245/2/2 246/2/2 257/2/2
f 253/2/2 255/2/2 258/2/2
f 258/2/2 255/2/2 259/2/2
f 257/2/2 258/2/2 259/2/2
f 259/2/2 255/2/2 260/2/2
f 245/2/2 257/2/2 261/2/2
f 257/2/2 259/2/2 261/2/2
f 261/2/2 259/2/2 262/2/2
f 245/2/2 261/2/2 263/2/2
f 263/2/2 261/2/2 264/2/2
f 267/1/2 268/1/2 269/1/2
f 269/1/2 268/1/2 270/1/2
f 270/1/2 268/1/2 271/1/2
f 265/2/2 266/2/2 272/2/2
f 272/2/2 266/2/2 273/2/2
f 270/2/2 271/2/2 276/2/2
f 276/2/2 271/2/2 277/2/2
f 273/2/2 274/2/2 278/2/2
f 278/2/2 274/2/2 279/2/2
f 275/2/2 276/2/2 284/2/2
f 284/2/2 276/2/2 285/2/2
f 280/2/2 281/2/2 286/2/2
f 282/1/2 283/1/2 287/1/2
f 287/1/2 283/1/2 288/1/2
f 287/2/2 288/2/2 289/2/2
f 280/2/2 286/2/2 290/2/2
f 289/2/2 288/2/2 291/2/2
f 291/2/2 288/2/2 292/2/2
f 280/2/2 290/2/2 293/2/2
f 293/2/2 290/2/2 294/2/2
f 291/1/2 292/1/2 295/1/2
f 295/1/2 292/1/2 296/1/2
f 293/1/2 294/1/2 297/1/2
f 295/2/2 296/2/2 298/2/2
f 298/2/2 296/2/2 299/2/2
f 299/2/2 296/2/2 300/2/2
f 299/1/2 300/1/2 302/1/2
f 302/1/2 300/1/2 303/1/2
f 301/1/2 302/1/2 304/1/2
f 304/1/2 302/1/2 305/1/2
f 304/2/2 305/2/2 306/2/2
f 306/2/2 305/2/2 308/2/2
f 308/2/2 305/2/2 309/2/2
f 293/1/2 297/1/2 310/1/2
f 307/2/2 308/2/2 311/2/2
f 293/1/2 310/1/2 312/1/2
f 312/1/2 310/1/2 313/1/2
f 312/2/2 313/2/2 314/2/2
f 311/2/2 308/2/2 315/2/2
f 315/2/2 308/2/2 316/2/2
f 314/2/2 315/2/2 316/2/2
f 316/2/2 308/2/2 317/2/2
f 312/2/2 314/2/2 318/2/2
f 314/2/2 316/2/2 318/2/2
f 318/2/2 316/2/2 319/2/2
f 312/2/2 318/2/2 320/2/2
f 318/1/2 319/1/2 320/1/2
f 320/1/2 319/1/2 321/1/2
f 312/2/2 320/2/2 322/2/2
f 320/2/2 321/2/2 322/2/2
f 322/2/2 321/2/2 323/2/2
f 312/2/2 322/2/2 324/2/2
f 324/2/2 322/2/2 325/2/2
f 328/1/2 329/1/2 330/1/2
f 330/1/2 329/1/2 331/1/2
f 326/2/2 327/2/2 332/2/2
f 332/2/2 327/2/2 333/2/2
f 330/2/2 331/2/2 336/2/2
f 336/2/2 331/2/2 337/2/2
f 333/2/2 334/2/2 338/2/2
f 338/2/2 334/2/2 339/2/2
f 335/2/2 336/2/2 344/2/2
f 344/2/2 336/2/2 345/2/2
f 340/2/2 341/2/2 346/2/2
f 342/1/2 343/1/2 347/1/2
f 346/2/2 341/2/2 347/2/2
f 341/1/2 342/1/2 347/1/2
f 346/1/2 347/1/2 348/1/2
f 347/1/2 343/1/2 348/1/2
f 348/1/2 343/1/2 349/1/2
f 346/1/2 348/1/2 350/1/2
f 348/2/2 349/2/2 351/2/2
f 350/1/2 348/1/2 351/1/2
f 350/2/2 351/2/2 352/2/2
f 351/2/2 349/2/2 353/2/2
f 352/2/2 351/2/2 353/2/2
f 352/1/2 353/1/2 354/1/2
f 353/2/2 349/2/2 354/2/2
f 354/2/2 349/2/2 355/2/2
f 354/1/2 355/1/2 356/1/2
f 355/2/2 349/2/2 356/2/2
f 356/2/2 349/2/2 357/2/2
f 354/1/2 356/1/2 358/1/2
f 356/1/2 357/1/2 358/1/2
f 358/1/2 357/1/2 359/1/2
f 352/1/2 354/1/2 360/1/2
f 354/1/2 358/1/2 360/1/2
f 360/1/2 358/1/2 361/1/2
f 352/1/2 360/1/2 362/1/2
f 360/2/2 361/2/2 362/2/2
f 362/2/2 361/2/2 363/2/2
f 352/1/2 362/1/2 364/1/2
f 364/1/2 362/1/2 365/1/2
f 364/2/2 365/2/2 366/2/2
f 366/2/2 365/2/2 367/2/2
f 370/1/2 371/1/2 372/1/2
f 372/1/2 371/1/2 373/1/2
f 368/2/2 369/2/2 374/2/2
f 374/2/2 369/2/2 375/2/2
f 372/2/2 373/2/2 378/2/2
f 378/2/2 373/2/2 379/2/2
f 375/2/2 376/2/2 380/2/2
f 376/1/2 377/1/2 381/1/2
f 380/2/2 376/2/2 381/2/2
f 377/2/2 378/2/2 382/2/2
f 381/1/2 377/1/2 382/1/2
f 382/2/2 378/2/2 383/2/2
f 384/2/2 385/2/2 386/2/2
f 386/2/2 385/2/2 387/2/2
f 390/1/3 389/1/3 388/1/3
f 391/1/3 389/1/3 390/1/3
f 392/1/3 390/1/3 388/1/3
f 393/2/3 391/2/3 390/2/3
f 393/1/3 390/1/3 392/1/3
f 394/1/3 392/1/3 388/1/3
f 395/2/3 393/2/3 392/2/3
f 395/1/3 392/1/3 394/1/3
f 396/2/3 395/2/3 394/2/3
f 397/2/3 391/2/3 393/2/3
f 397/2/3 395/2/3 396/2/3
f 397/2/3 393/2/3 395/2/3
f 400/1/3 399/1/3 398/1/3
f 401/1/3 399/1/3 400/1/3
f 403/1/3 402/1/3 401/1/3
f 404/1/3 402/1/3 403/1/3
f 405/2/3 404/2/3 403/2/3
f 407/2/3 404/2/3 405/2/3
f 408/2/3 404/2/3 407/2/3
f 409/2/3 407/2/3 406/2/3
f 410/2/3 407/2/3 409/2/3
f 413/1/3 412/1/3 411/1/3
f 414/1/3 412/1/3 413/1/3
f 416/1/3 415/1/3 414/1/3
f 417/1/3 415/1/3 416/1/3
f 420/2/3 419/2/3 418/2/3
f 421/2/3 419/2/3 420/2/3
f 422/2/3 419/2/3 421/2/3
f 423/2/3 419/2/3 422/2/3
f 424/2/3 419/2/3 423/2/3
f 425/2/3 419/2/3 424/2/3
f 426/2/3 420/2/3 418/2/3
f 427/1/3 421/1/3 420/1/3
f 427/2/3 420/2/3 426/2/3
f 428/2/3 422/2/3 421/2/3
f 428/1/3 421/1/3 427/1/3
f 429/1/3 423/1/3 422/1/3
f 429/2/3 422/2/3 428/2/3
f 430/2/3 424/2/3 423/2/3
f 430/1/3 423/1/3 429/1/3
f 431/2/3 424/2/3 430/2/3
f 432/2/3 424/2/3 431/2/3
f 433/2/3 424/2/3 432/2/3
f 434/2/3 426/2/3 418/2/3
f 435/1/3 427/1/3 426/1/3
f 435/2/3 426/2/3 434/2/3
f 435/1/3 428/1/3 427/1/3
f 435/1/3 429/1/3 428/1/3
f 435/1/3 431/1/3 430/1/3
f 435/1/3 430/1/3 429/1/3
f 436/2/3 432/2/3 431/2/3
f 436/1/3 431/1/3 435/1/3
f 437/2/3 432/2/3 436/2/3
f 441/2/3 439/2/3 438/2/3
f 442/2/3 439/2/3 441/2/3
f 443/2/3 441/2/3 440/2/3
f 444/2/3 441/2/3 443/2/3
f 447/1/3 446/1/3 445/1/3
f 448/1/3 446/1/3 447/1/3
f 450/1/3 449/1/3 448/1/3
f 451/1/3 449/1/3 450/1/3
f 460/1/3 453/1/3 452/1/3
f 461/2/3 454/2/3 453/2/3
f 461/1/3 453/1/3 460/1/3
f 462/1/3 455/1/3 454/1/3
f 462/2/3 454/2/3 461/2/3
f 463/2/3 456/2/3 455/2/3
f 463/1/3 455/1/3 462/1/3
f 464/1/3 457/1/3 456/1/3
f 464/2/3 456/2/3 463/2/3
f 465/2/3 458/2/3 457/2/3
f 465/1/3 457/1/3 464/1/3
f 466/1/3 459/1/3 458/1/3
f 466/2/3 458/2/3 465/2/3
f 467/1/3 459/1/3 466/1/3
f 468/1/3 459/1/3 467/1/3
f 474/2/3 470/2/3 469/2/3
f 475/1/3 471/1/3 470/1/3
f 475/2/3 470/2/3 474/2/3
f 475/1/3 472/1/3 471/1/3
f 476/2/3 473/2/3 472/2/3
f 476/1/3 472/1/3 475/1/3
f 477/2/3 473/2/3 476/2/3
f 481/2/3 479/2/3 478/2/3
f 482/2/3 479/2/3 481/2/3
f 483/2/3 481/2/3 480/2/3
f 484/2/3 481/2/3 483/2/3
f 491/1/3 486/1/3 485/1/3
f 492/1/3 486/1/3 491/1/3
f 493/1/3 486/1/3 492/1/3
f 494/1/3 486/1/3 493/1/3
f 495/2/3 487/2/3 486/2/3
f 495/1/3 486/1/3 494/1/3
f 496/1/3 488/1/3 487/1/3
f 496/2/3 487/2/3 495/2/3
f 497/1/3 488/1/3 496/1/3
f 498/1/3 488/1/3 497/1/3
f 499/2/3 489/2/3 488/2/3
f 499/1/3 488/1/3 498/1/3
f 500/1/3 490/1/3 489/1/3
f 500/2/3 489/2/3 499/2/3
f 501/1/3 490/1/3 500/1/3
f 502/1/3 490/1/3 501/1/3
f 503/1/3 490/1/3 502/1/3
f 512/2/3 505/2/3 504/2/3
f 513/1/3 506/1/3 505/1/3
f 513/2/3 505/2/3 512/2/3
f 514/2/3 507/2/3 506/2/3
f 514/1/3 506/1/3 513/1/3
f 514/2/3 508/2/3 507/2/3
f 515/1/3 509/1/3 508/1/3
f 515/2/3 508/2/3 514/2/3
f 516/2/3 511/2/3 510/2/3
f 516/1/3 509/1/3 515/1/3
f 516/2/3 510/2/3 509/2/3
f 517/2/3 511/2/3 516/2/3
f 518/2/4 519/2/4 523/2/4
f 519/2/4 520/2/4 523/2/4
f 523/2/4 520/2/4 524/2/4
f 521/2/4 522/2/4 527/2/4
f 527/2/4 522/2/4 528/2/4
f 525/2/4 526/2/4 529/2/4
f 529/2/4 526/2/4 530/2/4
f 531/2/4 532/2/4 536/2/4
f 532/1/4 533/1/4 537/1/4
f 536/2/4 532/2/4 537/2/4
f 537/1/4 533/1/4 538/1/4
f 534/2/4 535/2/4 541/2/4
f 535/2/4 536/2/4 541/2/4
f 541/2/4 536/2/4 542/2/4
f 539/2/4 540/2/4 545/2/4
f 545/2/4 540/2/4 546/2/4
f 543/2/4 544/2/4 549/2/4
f 549/2/4 544/2/4 550/2/4
f 547/2/4 548/2/4 551/2/4
f 551/2/4 548/2/4 552/2/4
f 553/1/4 554/1/4 558/1/4
f 558/1/4 554/1/4 559/1/4
f 555/2/4 556/2/4 561/2/4
f 556/1/4 557/1/4 562/1/4
f 561/2/4 556/2/4 562/2/4
f 562/1/4 557/1/4 563/1/4
f 560/2/4 561/2/4 566/2/4
f 566/2/4 561/2/4 567/2/4
f 564/2/4 565/2/4 569/2/4
f 569/2/4 565/2/4 570/2/4
f 568/2/4 569/2/4 575/2/4
f 575/2/4 569/2/4 576/2/4
f 571/2/4 572/2/4 580/2/4
f 572/1/4 573/1/4 581/1/4
f 580/2/4 572/2/4 581/2/4
f 573/2/4 574/2/4 582/2/4
f 581/1/4 573/1/4 582/1/4
f 582/2/4 574/2/4 583/2/4
f 577/1/4 578/1/4 584/1/4
f 578/2/4 579/2/4 585/2/4
f 584/1/4 578/1/4 585/1/4
f 585/2/4 579/2/4 586/2/4
f 587/1/4 588/1/4 591/1/4
f 591/1/4 588/1/4 592/1/4
f 589/2/4 590/2/4 595/2/4
f 595/2/4 590/2/4 596/2/4
f 593/1/4 594/1/4 599/1/4
f 594/2/4 595/2/4 600/2/4
f 599/1/4 594/1/4 600/1/4
f 600/2/4 595/2/4 601/2/4
f 597/1/4 598/1/4 603/1/4
f 603/1/4 598/1/4 604/1/4
f 602/1/4 603/1/4 608/1/4
f 608/1/4 603/1/4 609/1/4
f 606/2/4 607/2/4 613/2/4
f 605/2/4 606/2/4 613/2/4
f 613/2/4 607/2/4 614/2/4
f 611/1/4 612/1/4 615/1/4
f 610/1/4 611/1/4 615/1/4
f 612/2/4 613/2/4 616/2/4
f 615/1/4 612/1/4 616/1/4
f 616/2/4 613/2/4 617/2/4
f 618/1/4 619/1/4 624/1/4
f 624/1/4 619/1/4 625/1/4
f 619/2/4 620/2/4 626/2/4
f 625/1/4 619/1/4 626/1/4
f 620/1/4 621/1/4 627/1/4
f 626/2/4 620/2/4 627/2/4
f 621/2/4 622/2/4 628/2/4
f 627/1/4 621/1/4 628/1/4
f 622/1/4 623/1/4 629/1/4
f 628/2/4 622/2/4 629/2/4
f 629/1/4 623/1/4 630/1/4
f 630/1/4 623/1/4 631/1/4
f 631/1/4 623/1/4 632/1/4
f 630/1/4 631/1/4 634/1/4
f 634/1/4 631/1/4 635/1/4
f 633/1/4 634/1/4 638/1/4
f 638/1/4 634/1/4 639/1/4
f 636/1/4 637/1/4 641/1/4
f 641/1/4 637/1/4 642/1/4
f 640/1/4 641/1/4 646/1/4
f 646/1/4 641/1/4 647/1/4
f 643/1/4 644/1/4 655/1/4
f 644/2/4 645/2/4 656/2/4
f 655/1/4 644/1/4 656/1/4
f 656/2/4 645/2/4 657/2/4
f 648/1/4 649/1/4 658/1/4
f 649/1/4 650/1/4 658/1/4
f 650/2/4 651/2/4 659/2/4
f 658/1/4 650/1/4 659/1/4
f 651/2/4 652/2/4 659/2/4
f 652/2/4 653/2/4 659/2/4
f 654/1/4 655/1/4 660/1/4
f 659/2/4 653/2/4 660/2/4
f 653/1/4 654/1/4 660/1/4
f 660/1/4 655/1/4 661/1/4
f 662/1/4 663/1/4 664/1/4
f 664/1/4 663/1/4 665/1/4
f 665/1/4 666/1/4 667/1/4
f 667/1/4 666/1/4 668/1/4
f 669/2/4 670/2/4 672/2/4
f 670/1/4 671/1/4 673/1/4
f 672/2/4 670/2/4 673/2/4
f 673/1/4 671/1/4 674/1/4
f 674/1/4 671/1/4 675/1/4
f 675/1/4 671/1/4 676/1/4
f 676/1/4 671/1/4 677/1/4
f 677/1/4 671/1/4 678/1/4
f 678/1/4 671/1/4 679/1/4
f 677/1/4 678/1/4 682/1/4
f 682/1/4 678/1/4 683/1/4
f 680/1/4 681/1/4 686/1/4
f 686/1/4 681/1/4 687/1/4
f 684/2/4 685/2/4 696/2/4
f 685/2/4 686/2/4 696/2/4
f 696/2/4 686/2/4 697/2/4
f 688/1/4 689/1/4 698/1/4
f 689/2/4 690/2/4 699/2/4
f 698/1/4 689/1/4 699/1/4
f 690/2/4 691/2/4 699/2/4
f 691/1/4 692/1/4 700/1/4
f 699/2/4 691/2/4 700/2/4
f 693/2/4 694/2/4 701/2/4
f 700/1/4 692/1/4 701/1/4
f 692/2/4 693/2/4 701/2/4
f 694/1/4 695/1/4 702/1/4
f 701/2/4 694/2/4 702/2/4
f 702/1/4 695/1/4 703/1/4
f 704/2/4 705/2/4 708/2/4
f 708/2/4 705/2/4 709/2/4
f 706/2/4 707/2/4 710/2/4
f 707/2/4 708/2/4 710/2/4
f 710/2/4 708/2/4 711/2/4
f 712/1/4 713/1/4 714/1/4
f 714/1/4 713/1/4 715/1/4
f 715/1/4 713/1/4 716/1/4
f 716/2/4 717/2/4 718/2/4
f 718/2/4 717/2/4 719/2/4
f 720/2/4 721/2/4 725/2/4
f 721/1/4 722/1/4 725/1/4
f 725/1/4 722/1/4 726/1/4
f 726/1/4 722/1/4 727/1/4
f 722/2/4 723/2/4 728/2/4
f 727/1/4 722/1/4 728/1/4
f 723/1/4 724/1/4 729/1/4
f 728/2/4 723/2/4 729/2/4
f 729/1/4 724/1/4 730/1/4
f 730/1/4 724/1/4 731/1/4
f 731/1/4 724/1/4 732/1/4
f 726/1/4 727/1/4 733/1/4
f 727/2/4 728/2/4 734/2/4
f 733/1/4 727/1/4 734/1/4
f 728/2/4 729/2/4 734/2/4
f 729/2/4 730/2/4 734/2/4
f 734/2/4 730/2/4 735/2/4
f 730/1/4 731/1/4 736/1/4
f 735/2/4 730/2/4 736/2/4
f 736/1/4 731/1/4 737/1/4
f 720/2/4 725/2/4 738/2/4
f 725/2/4 726/2/4 738/2/4
f 726/1/4 733/1/4 739/1/4
f 738/2/4 726/2/4 739/2/4
f 733/2/4 734/2/4 740/2/4
f 739/1/4 733/1/4 740/1/4
f 734/2/4 735/2/4 740/2/4
f 740/2/4 735/2/4 741/2/4
f 742/2/4 743/2/4 746/2/4
f 746/2/4 743/2/4 747/2/4
f 744/1/4 745/1/4 748/1/4
f 745/2/4 746/2/4 749/2/4
f 748/1/4 745/1/4 749/1/4
f 749/2/4 746/2/4 750/2/4
f 751/1/4 752/1/4 754/1/4
f 752/2/4 753/2/4 755/2/4
f 754/1/4 752/1/4 755/1/4
f 755/2/4 753/2/4 756/2/4
f 756/2/4 757/2/4 761/2/4
f 761/2/4 757/2/4 762/2/4
f 758/1/4 759/1/4 763/1/4
f 759/2/4 760/2/4 764/2/4
f 763/1/4 759/1/4 764/1/4
f 760/2/4 761/2/4 764/2/4
f 764/2/4 761/2/4 765/2/4
f 766/1/4 767/1/4 769/1/4
f 767/2/4 768/2/4 770/2/4
f 769/1/4 767/1/4 770/1/4
f 770/2/4 768/2/4 771/2/4
f 776/1/5 773/1/5 772/1/5
f 777/2/5 774/2/5 773/2/5
f 780/1/5 776/1/5 775/1/5
f 781/2/5 778/2/5 777/2/5
f 784/1/5 780/1/5 779/1/5
f 785/2/5 782/2/5 781/2/5
f 787/1/5 784/1/5 783/1/5
f 787/2/5 786/2/5 785/2/5
f 787/2/5 785/2/5 781/2/5
f 787/1/5 780/1/5 784/1/5
f 787/1/5 773/1/5 776/1/5
f 787/2/5 781/2/5 777/2/5
f 787/1/5 776/1/5 780/1/5
f 787/2/5 777/2/5 773/2/5
f 788/2/5 786/2/5 787/2/5
f 789/1/5 788/1/5 787/1/5
f 789/2/5 786/2/5 788/2/5
f 790/2/5 786/2/5 789/2/5
f 791/1/5 790/1/5 789/1/5
f 791/2/5 786/2/5 790/2/5
f 792/2/5 786/2/5 791/2/5
f 793/1/5 787/1/5 783/1/5
f 793/1/5 789/1/5 787/1/5
f 793/1/5 792/1/5 791/1/5
f 793/1/5 791/1/5 789/1/5
f 794/1/5 792/1/5 793/1/5
f 795/2/5 786/2/5 792/2/5
f 795/1/5 792/1/5 794/1/5
f 796/2/5 786/2/5 795/2/5
f 797/1/5 795/1/5 794/1/5
f 798/1/5 795/1/5 797/1/5
f 799/1/5 795/1/5 798/1/5
f 800/1/5 795/1/5 799/1/5
f 801/1/5 799/1/5 798/1/5
f 802/1/5 799/1/5 801/1/5
f 803/1/5 799/1/5 802/1/5
f 804/1/5 799/1/5 803/1/5
f 805/1/5 803/1/5 802/1/5
f 806/1/5 803/1/5 805/1/5
f 807/1/6 808/1/6 811/1/6
f 811/1/6 808/1/6 812/1/6
f 808/2/6 809/2/6 813/2/6
f 812/1/6 808/1/6 813/1/6
f 813/2/6 809/2/6 814/2/6
f 810/1/6 811/1/6 817/1/6
f 817/1/6 811/1/6 818/1/6
f 814/2/6 815/2/6 819/2/6
f 819/2/6 815/2/6 820/2/6
f 816/1/6 817/1/6 823/1/6
f 823/1/6 817/1/6 824/1/6
f 820/2/6 821/2/6 825/2/6
f 825/2/6 821/2/6 826/2/6
f 826/2/6 827/2/6 828/2/6
f 828/2/6 827/2/6 829/2/6
f 822/1/6 823/1/6 830/1/6
f 830/1/6 823/1/6 831/1/6
f 829/2/6 827/2/6 834/2/6
f 834/2/6 827/2/6 835/2/6
f 831/1/6 832/1/6 836/1/6
f 836/1/6 832/1/6 837/1/6
f 833/2/6 834/2/6 840/2/6
f 840/2/6 834/2/6 841/2/6
f 837/2/6 838/2/6 842/2/6
f 842/2/6 838/2/6 843/2/6
f 839/2/6 840/2/6 844/2/6
f 844/2/6 840/2/6 845/2/6
f 843/2/6 844/2/6 846/2/6
f 846/2/6 844/2/6 847/2/6
f 848/1/6 849/1/6 852/1/6
f 849/2/6 850/2/6 853/2/6
f 852/1/6 849/1/6 853/1/6
f 853/2/6 850/2/6 854/2/6
f 854/2/6 850/2/6 855/2/6
f 851/1/6 852/1/6 858/1/6
f 852/1/6 853/1/6 858/1/6
f 858/1/6 853/1/6 859/1/6
f 859/1/6 853/1/6 860/1/6
f 854/2/6 855/2/6 861/2/6
f 855/2/6 856/2/6 861/2/6
f 861/2/6 856/2/6 862/2/6
f 862/2/6 856/2/6 863/2/6
f 858/1/6 859/1/6 865/1/6
f 857/1/6 858/1/6 865/1/6
f 865/1/6 859/1/6 866/1/6
f 863/2/6 864/2/6 867/2/6
f 862/2/6 863/2/6 867/2/6
f 867/2/6 864/2/6 868/2/6
f 868/2/6 864/2/6 869/2/6
f 868/1/6 869/1/6 870/1/6
f 870/1/6 869/1/6 871/1/6
f 871/1/6 869/1/6 872/1/6
f 857/1/6 865/1/6 873/1/6
f 871/2/6 872/2/6 876/2/6
f 857/1/6 873/1/6 877/1/6
f 873/2/6 874/2/6 878/2/6
f 877/1/6 873/1/6 878/1/6
f 878/2/6 874/2/6 879/2/6
f 875/2/6 876/2/6 882/2/6
f 876/2/6 872/2/6 883/2/6
f 882/2/6 876/2/6 883/2/6
f 883/2/6 872/2/6 884/2/6
f 879/2/6 880/2/6 885/2/6
f 878/2/6 879/2/6 885/2/6
f 885/2/6 880/2/6 886/2/6
f 886/2/6 880/2/6 887/2/6
f 881/2/6 882/2/6 888/2/6
f 882/2/6 883/2/6 888/2/6
f 888/2/6 883/2/6 889/2/6
f 889/2/6 883/2/6 890/2/6
f 886/2/6 887/2/6 891/2/6
f 888/2/6 889/2/6 891/2/6
f 887/2/6 888/2/6 891/2/6
f 891/2/6 889/2/6 892/2/6
f 893/1/6 894/1/6 896/1/6
f 896/1/6 894/1/6 897/1/6
f 895/1/6 896/1/6 898/1/6
f 898/1/6 896/1/6 899/1/6
f 900/2/6 901/2/6 902/2/6
f 902/2/6 901/2/6 903/2/6
f 904/2/6 905/2/6 907/2/6
f 907/2/6 905/2/6 908/2/6
f 906/2/6 907/2/6 909/2/6
f 909/2/6 907/2/6 910/2/6
f 911/2/6 912/2/6 914/2/6
f 914/2/6 912/2/6 915/2/6
f 913/1/6 914/1/6 916/1/6
f 916/1/6 914/1/6 917/1/6
f 918/2/6 919/2/6 920/2/6
f 920/2/6 919/2/6 921/2/6
f 922/2/6 923/2/6 924/2/6
f 924/2/6 923/2/6 925/2/6
f 926/1/6 927/1/6 929/1/6
f 929/1/6 927/1/6 930/1/6
f 928/1/6 929/1/6 931/1/6
f 931/1/6 929/1/6 932/1/6
f 933/1/6 934/1/6 935/1/6
f 935/1/6 934/1/6 936/1/6
f 937/2/6 938/2/6 939/2/6
f 939/2/6 938/2/6 940/2/6
f 941/1/6 942/1/6 944/1/6
f 944/1/6 942/1/6 945/1/6
f 943/1/6 944/1/6 946/1/6
f 946/1/6 944/1/6 947/1/6
f 948/1/6 949/1/6 950/1/6
f 950/1/6 949/1/6 951/1/6
f 952/2/6 953/2/6 954/2/6
f 954/2/6 953/2/6 955/2/6
f 956/2/6 957/2/6 959/2/6
f 959/2/6 957/2/6 960/2/6
f 958/1/6 959/1/6 961/1/6
f 961/1/6 959/1/6 962/1/6
f 963/1/6 964/1/6 966/1/6
f 966/1/6 964/1/6 967/1/6
f 965/1/6 966/1/6 968/1/6
f 968/1/6 966/1/6 969/1/6
f 970/2/6 971/2/6 972/2/6
f 972/2/6 971/2/6 973/2/6
f 974/2/6 975/2/6 976/2/6
f 976/2/6 975/2/6 977/2/6
f 978/2/6 979/2/6 981/2/6
f 981/2/6 979/2/6 982/2/6
f 980/1/6 981/1/6 983/1/6
f 983/1/6 981/1/6 984/1/6
f 985/2/6 986/2/6 987/2/6
f 987/2/6 986/2/6 988/2/6
f 989/2/6 990/2/6 991/2/6
f 991/2/6 990/2/6 992/2/6
f 993/2/6 994/2/6 996/2/6
f 996/2/6 994/2/6 997/2/6
f 995/2/6 996/2/6 998/2/6
f 998/2/6 996/2/6 999/2/6
f 1000/1/6 1001/1/6 1002/1/6
f 1002/1/6 1001/1/6 1003/1/6
f 1004/2/6 1005/2/6 1006/2/6
f 1006/2/6 1005/2/6 1007/2/6
f 1008/2/6 1009/2/6 1011/2/6
f 1011/2/6 1009/2/6 1012/2/6
f 1010/1/6 1011/1/6 1013/1/6
f 1013/1/6 1011/1/6 1014/1/6
f 1015/1/6 1016/1/6 1017/1/6
f 1017/1/6 1016/1/6 1018/1/6
f 1019/2/6 1020/2/6 1021/2/6
f 1021/2/6 1020/2/6 1022/2/6
f 1023/1/6 1024/1/6 1025/1/6
f 1025/1/6 1024/1/6 1026/1/6
f 1027/1/6 1028/1/6 1029/1/6
f 1029/1/6 1028/1/6 1030/1/6
