# MagicaVoxel @ Ephtracy

# group
o 

# material
mtllib cave_decorations-17.mtl
usemtl palette

# normals
vn -1 0 0
vn 1 0 0
vn 0 0 1
vn 0 0 -1
vn 0 -1 0
vn 0 1 0

# texcoords
vt 0.841797 0.5
vt 0.869141 0.5

# verts
v -1.45 -0.15 -1.45
v -1.45 -0.15 -1.55
v -1.45 -0.05 -1.35
v -1.45 -0.05 -1.45
v -1.45 0.05 -1.35
v -1.45 0.05 -1.55
v -1.45 0.15 -1.35
v -1.45 0.15 -1.55
v -1.35 -0.15 -1.35
v -1.35 -0.15 -1.45
v -1.35 -0.05 -1.25
v -1.35 -0.05 -1.35
v -1.35 -0.05 -1.45
v -1.35 0.05 -1.35
v -1.35 0.15 -1.25
v -1.35 0.15 -1.35
v -1.25 -0.15 -1.25
v -1.25 -0.15 -1.35
v -1.25 -0.05 -1.15
v -1.25 -0.05 -1.25
v -1.25 -0.05 -1.35
v -1.25 0.05 -1.15
v -1.25 0.05 -1.25
v -1.25 0.15 -1.15
v -1.25 0.15 -1.25
v -1.15 -0.15 -1.15
v -1.15 -0.15 -1.25
v -1.15 -0.05 -1.05
v -1.15 -0.05 -1.15
v -1.15 -0.05 -1.25
v -1.15 0.05 -1.05
v -1.15 0.05 -1.15
v -1.15 0.15 -1.05
v -1.15 0.15 -1.15
v -1.05 -0.15 -0.25
v -1.05 -0.15 -0.45
v -1.05 -0.15 -1.05
v -1.05 -0.15 -1.15
v -1.05 -0.05 -0.35
v -1.05 -0.05 -0.45
v -1.05 -0.05 -0.95
v -1.05 -0.05 -1.05
v -1.05 -0.05 -1.15
v -1.05 0.05 -0.25
v -1.05 0.05 -0.35
v -1.05 0.05 -0.45
v -1.05 0.05 -1.05
v -1.05 0.15 -0.25
v -1.05 0.15 -0.45
v -1.05 0.15 -0.95
v -1.05 0.15 -1.05
v -0.95 -0.15 -0.95
v -0.95 -0.15 -1.05
v -0.95 -0.05 -0.95
v -0.95 -0.05 -1.05
v -0.85 -0.15 -0.45
v -0.85 -0.15 -0.55
v -0.85 -0.15 -0.85
v -0.85 -0.15 -0.95
v -0.85 -0.05 -0.35
v -0.85 -0.05 -0.45
v -0.85 -0.05 -0.55
v -0.85 0.05 -0.35
v -0.85 0.05 -0.45
v -0.85 0.05 -0.55
v -0.85 0.15 -0.45
v -0.85 0.15 -0.55
v -0.85 0.15 -0.85
v -0.85 0.15 -0.95
v -0.75 -0.15 -0.75
v -0.75 -0.15 -0.85
v -0.75 -0.05 -0.45
v -0.75 -0.05 -0.55
v -0.75 0.05 -0.45
v -0.75 0.05 -0.55
v -0.75 0.15 -0.75
v -0.75 0.15 -0.85
v -0.65 -0.15 -0.55
v -0.65 -0.15 -0.75
v -0.65 0.05 -0.55
v -0.65 0.15 -0.55
v -0.65 0.15 -0.75
v -0.55 -0.15 -0.35
v -0.55 -0.15 -0.45
v -0.55 0.05 -0.45
v -0.55 0.15 -0.35
v -0.55 0.15 -0.45
v -0.35 -0.15 -0.35
v -0.35 -0.15 -0.45
v -0.35 -0.05 -0.35
v -0.35 -0.05 -0.45
v -0.35 0.15 -0.35
v -0.35 0.15 -0.45
v -0.25 -0.15 1.05
v -0.25 -0.15 0.95
v -0.25 -0.05 1.05
v -0.25 -0.05 0.95
v -0.25 -0.05 0.85
v -0.25 0.05 1.05
v -0.25 0.05 0.85
v -0.15 -0.15 0.95
v -0.15 -0.15 0.75
v -0.15 -0.15 -0.25
v -0.15 -0.15 -0.35
v -0.15 -0.05 0.95
v -0.15 -0.05 0.85
v -0.15 -0.05 0.75
v -0.15 -0.05 0.65
v -0.15 -0.05 -0.25
v -0.15 -0.05 -0.35
v -0.15 0.05 1.05
v -0.15 0.05 0.85
v -0.15 0.05 0.65
v -0.15 0.15 1.05
v -0.15 0.15 0.85
v -0.15 0.15 -0.25
v -0.15 0.15 -0.35
v -0.0500001 -0.15 0.75
v -0.0500001 -0.15 0.65
v -0.0500001 -0.15 -0.0500001
v -0.0500001 -0.15 -0.25
v -0.0500001 -0.05 0.75
v -0.0500001 -0.05 0.65
v -0.0500001 -0.05 0.55
v -0.0500001 -0.05 -0.15
v -0.0500001 -0.05 -0.25
v -0.0500001 0.05 0.85
v -0.0500001 0.05 0.75
v -0.0500001 0.05 0.65
v -0.0500001 0.05 0.55
v -0.0500001 0.05 -0.0500001
v -0.0500001 0.05 -0.15
v -0.0500001 0.15 0.85
v -0.0500001 0.15 0.75
v -0.0500001 0.15 0.65
v -0.0500001 0.15 -0.15
v -0.0500001 0.15 -0.25
v 0.05 -0.15 0.65
v 0.05 -0.15 0.55
v 0.05 -0.15 0.05
v 0.05 -0.15 -0.0500001
v 0.05 -0.05 0.65
v 0.05 -0.05 0.55
v 0.05 -0.05 0.45
v 0.05 0.05 0.65
v 0.05 0.05 0.55
v 0.05 0.05 0.45
v 0.05 0.05 0.05
v 0.05 0.05 -0.0500001
v 0.05 0.05 -0.15
v 0.05 0.15 0.65
v 0.05 0.15 0.55
v 0.05 0.15 -0.0500001
v 0.05 0.15 -0.15
v 0.15 -0.15 1.55
v 0.15 -0.15 1.45
v 0.15 -0.15 1.35
v 0.15 -0.15 0.55
v 0.15 -0.15 0.45
v 0.15 -0.05 1.45
v 0.15 -0.05 1.35
v 0.15 -0.05 0.55
v 0.15 -0.05 0.45
v 0.15 0.05 1.55
v 0.15 0.05 1.35
v 0.15 0.05 0.05
v 0.15 0.05 -0.0500001
v 0.15 0.15 1.55
v 0.15 0.15 1.35
v 0.15 0.15 0.05
v 0.15 0.15 -0.0500001
v 0.25 -0.15 0.15
v 0.25 -0.15 0.05
v 0.25 0.05 0.15
v 0.25 0.05 0.05
v 0.35 -0.05 0.25
v 0.35 -0.05 0.15
v 0.35 0.05 0.55
v 0.35 0.05 0.45
v 0.35 0.05 0.15
v 0.35 0.05 0.05
v 0.35 0.15 0.55
v 0.35 0.15 0.45
v 0.35 0.15 0.25
v 0.35 0.15 0.05
v 0.45 -0.15 0.25
v 0.45 -0.15 0.15
v 0.45 -0.05 0.25
v 0.45 -0.05 0.15
v 0.55 -0.15 1.45
v 0.55 -0.15 1.35
v 0.55 -0.15 0.75
v 0.55 -0.15 0.65
v 0.55 -0.05 0.45
v 0.55 -0.05 0.25
v 0.55 0.05 1.45
v 0.55 0.05 1.35
v 0.55 0.05 0.45
v 0.55 0.05 0.25
v 0.55 0.15 1.45
v 0.55 0.15 1.35
v 0.55 0.15 0.75
v 0.55 0.15 0.65
v 0.65 -0.15 1.35
v 0.65 -0.15 1.25
v 0.65 -0.15 0.85
v 0.65 -0.15 0.75
v 0.65 -0.15 0.45
v 0.65 -0.15 0.25
v 0.65 -0.05 1.35
v 0.65 -0.05 1.25
v 0.65 -0.05 0.45
v 0.65 -0.05 0.25
v 0.65 0.05 1.35
v 0.65 0.05 0.85
v 0.65 0.05 0.75
v 0.65 0.05 0.45
v 0.65 0.05 0.25
v 0.65 0.15 1.35
v 0.65 0.15 1.25
v 0.65 0.15 0.85
v 0.65 0.15 0.75
v 0.65 0.15 0.45
v 0.65 0.15 0.25
v 0.75 -0.15 1.25
v 0.75 -0.15 1.15
v 0.75 -0.15 0.95
v 0.75 -0.15 0.85
v 0.75 -0.05 1.25
v 0.75 -0.05 1.15
v 0.75 0.05 0.95
v 0.75 0.05 0.85
v 0.75 0.15 1.25
v 0.75 0.15 1.15
v 0.75 0.15 0.95
v 0.75 0.15 0.85
v 0.85 -0.15 1.15
v 0.85 -0.15 0.95
v 0.85 -0.05 1.15
v 0.85 -0.05 0.95
v 0.85 0.05 0.95
v 0.85 0.15 1.15
v 0.85 0.15 0.95
v 1.05 -0.15 1.25
v 1.05 -0.15 1.05
v 1.05 0.05 1.25
v 1.05 0.05 1.15
v 1.05 0.05 1.05
v 1.05 0.15 1.15
v 1.05 0.15 1.05
v 1.15 -0.15 1.35
v 1.15 -0.15 1.25
v 1.15 0.05 1.35
v 1.15 0.05 1.25
v 1.15 0.05 1.15
v 1.15 0.15 1.25
v 1.15 0.15 1.15
v 1.25 0.05 1.35
v 1.25 0.05 1.25
v 1.25 0.15 1.35
v 1.25 0.15 1.25
v -1.35 -0.15 -1.45
v -1.35 -0.15 -1.55
v -1.35 -0.05 -1.45
v -1.35 -0.05 -1.55
v -1.35 0.05 -1.45
v -1.35 0.05 -1.55
v -1.35 0.15 -1.45
v -1.35 0.15 -1.55
v -1.25 -0.05 -1.45
v -1.25 -0.05 -1.55
v -1.25 0.05 -1.45
v -1.25 0.05 -1.55
v -1.15 -0.15 -1.35
v -1.15 -0.15 -1.45
v -1.15 -0.05 -1.35
v -1.15 -0.05 -1.45
v -1.15 0.05 -1.35
v -1.15 0.05 -1.45
v -1.15 0.15 -1.35
v -1.15 0.15 -1.45
v -1.05 -0.15 -1.25
v -1.05 -0.15 -1.35
v -1.05 -0.05 -1.25
v -1.05 -0.05 -1.35
v -1.05 -0.05 -1.45
v -1.05 0.05 -1.35
v -1.05 0.05 -1.45
v -0.95 -0.15 -0.25
v -0.95 -0.15 -0.35
v -0.95 -0.05 -0.35
v -0.95 0.05 -0.25
v -0.95 0.05 -0.35
v -0.95 0.05 -1.25
v -0.95 0.05 -1.35
v -0.95 0.15 -0.25
v -0.95 0.15 -0.35
v -0.95 0.15 -1.25
v -0.95 0.15 -1.35
v -0.85 -0.15 -1.15
v -0.85 -0.15 -1.25
v -0.85 -0.05 -1.15
v -0.85 -0.05 -1.25
v -0.85 -0.05 -1.35
v -0.85 0.05 -1.15
v -0.85 0.05 -1.25
v -0.85 0.05 -1.35
v -0.85 0.15 -1.15
v -0.85 0.15 -1.25
v -0.75 -0.15 -0.35
v -0.75 -0.15 -0.45
v -0.75 -0.15 -1.05
v -0.75 -0.15 -1.15
v -0.75 -0.05 -1.05
v -0.75 -0.05 -1.15
v -0.75 -0.05 -1.25
v -0.75 0.05 -0.35
v -0.75 0.05 -0.45
v -0.75 0.05 -1.05
v -0.75 0.05 -1.15
v -0.75 0.05 -1.25
v -0.75 0.15 -0.35
v -0.75 0.15 -0.45
v -0.75 0.15 -1.05
v -0.75 0.15 -1.15
v -0.65 -0.15 -0.95
v -0.65 -0.15 -1.05
v -0.65 -0.05 -0.95
v -0.65 -0.05 -1.05
v -0.65 -0.05 -1.15
v -0.65 0.05 -0.95
v -0.65 0.05 -1.05
v -0.65 0.05 -1.15
v -0.65 0.15 -0.95
v -0.65 0.15 -1.05
v -0.55 -0.15 -0.85
v -0.55 -0.15 -0.95
v -0.55 -0.05 -0.85
v -0.55 -0.05 -0.95
v -0.55 -0.05 -1.05
v -0.55 0.05 -0.95
v -0.55 0.05 -1.05
v -0.45 -0.15 -0.35
v -0.45 -0.15 -0.45
v -0.45 0.05 -0.85
v -0.45 0.05 -0.95
v -0.45 0.15 -0.35
v -0.45 0.15 -0.45
v -0.45 0.15 -0.85
v -0.45 0.15 -0.95
v -0.35 -0.15 -0.75
v -0.35 -0.15 -0.85
v -0.35 -0.05 -0.75
v -0.35 -0.05 -0.85
v -0.35 -0.05 -0.95
v -0.35 0.05 -0.75
v -0.35 0.05 -0.85
v -0.35 0.05 -0.95
v -0.35 0.15 -0.75
v -0.35 0.15 -0.85
v -0.25 -0.15 -0.65
v -0.25 -0.15 -0.75
v -0.25 -0.05 -0.65
v -0.25 -0.05 -0.75
v -0.25 -0.05 -0.85
v -0.25 0.05 -0.65
v -0.25 0.05 -0.75
v -0.25 0.05 -0.85
v -0.25 0.15 -0.65
v -0.25 0.15 -0.75
v -0.15 -0.15 -0.55
v -0.15 -0.15 -0.65
v -0.15 -0.05 -0.55
v -0.15 -0.05 -0.65
v -0.15 -0.05 -0.75
v -0.15 0.05 -0.55
v -0.15 0.05 -0.65
v -0.15 0.05 -0.75
v -0.15 0.15 -0.55
v -0.15 0.15 -0.65
v -0.0500001 -0.15 1.05
v -0.0500001 -0.15 0.95
v -0.0500001 -0.15 -0.45
v -0.0500001 -0.15 -0.55
v -0.0500001 -0.05 -0.45
v -0.0500001 -0.05 -0.55
v -0.0500001 -0.05 -0.65
v -0.0500001 0.05 1.05
v -0.0500001 0.05 0.95
v -0.0500001 0.05 -0.45
v -0.0500001 0.05 -0.55
v -0.0500001 0.05 -0.65
v -0.0500001 0.15 1.05
v -0.0500001 0.15 0.95
v -0.0500001 0.15 -0.45
v -0.0500001 0.15 -0.55
v 0.05 -0.15 0.95
v 0.05 -0.15 0.85
v 0.05 0.05 0.95
v 0.05 0.05 0.85
v 0.05 0.15 0.95
v 0.05 0.15 0.85
v 0.15 -0.15 0.85
v 0.15 -0.15 0.65
v 0.15 -0.15 -0.35
v 0.15 -0.15 -0.45
v 0.15 -0.05 -0.35
v 0.15 -0.05 -0.45
v 0.15 -0.05 -0.55
v 0.15 0.05 0.85
v 0.15 0.05 0.65
v 0.15 0.05 -0.35
v 0.15 0.05 -0.45
v 0.15 0.05 -0.55
v 0.15 0.15 0.85
v 0.15 0.15 0.65
v 0.15 0.15 -0.35
v 0.15 0.15 -0.45
v 0.25 -0.15 1.45
v 0.25 -0.15 1.35
v 0.25 -0.15 -0.25
v 0.25 -0.15 -0.35
v 0.25 -0.05 1.45
v 0.25 -0.05 1.35
v 0.25 -0.05 -0.25
v 0.25 -0.05 -0.35
v 0.25 -0.05 -0.45
v 0.25 0.05 1.45
v 0.25 0.05 1.35
v 0.25 0.05 -0.25
v 0.25 0.05 -0.35
v 0.25 0.05 -0.45
v 0.25 0.15 1.45
v 0.25 0.15 1.35
v 0.25 0.15 -0.25
v 0.25 0.15 -0.35
v 0.35 -0.15 -0.15
v 0.35 -0.15 -0.25
v 0.35 -0.05 -0.15
v 0.35 -0.05 -0.25
v 0.35 -0.05 -0.35
v 0.35 0.05 -0.15
v 0.35 0.05 -0.25
v 0.35 0.05 -0.35
v 0.35 0.15 -0.15
v 0.35 0.15 -0.25
v 0.45 -0.05 -0.15
v 0.45 -0.05 -0.25
v 0.45 0.05 -0.0500001
v 0.45 0.05 -0.15
v 0.45 0.05 -0.25
v 0.45 0.15 -0.0500001
v 0.45 0.15 -0.15
v 0.55 -0.15 -0.0500001
v 0.55 -0.15 -0.15
v 0.55 -0.05 -0.0500001
v 0.55 -0.05 -0.15
v 0.55 0.05 1.55
v 0.55 0.05 1.45
v 0.55 0.05 0.05
v 0.55 0.05 -0.0500001
v 0.55 0.15 1.55
v 0.55 0.15 1.45
v 0.55 0.15 0.05
v 0.55 0.15 -0.0500001
v 0.65 -0.15 0.05
v 0.65 -0.15 -0.0500001
v 0.65 -0.05 0.05
v 0.65 -0.05 -0.0500001
v 0.65 -0.05 -0.15
v 0.65 0.05 -0.0500001
v 0.65 0.05 -0.15
v 0.75 -0.15 1.55
v 0.75 -0.15 1.45
v 0.75 -0.15 0.15
v 0.75 -0.15 0.05
v 0.75 -0.05 1.55
v 0.75 -0.05 1.45
v 0.75 -0.05 0.15
v 0.75 -0.05 0.05
v 0.75 -0.05 -0.0500001
v 0.75 0.05 1.55
v 0.75 0.05 1.45
v 0.75 0.05 1.35
v 0.75 0.05 0.15
v 0.75 0.05 0.05
v 0.75 0.05 -0.0500001
v 0.75 0.15 1.45
v 0.75 0.15 1.35
v 0.75 0.15 0.15
v 0.75 0.15 0.05
v 0.85 -0.15 1.45
v 0.85 -0.15 1.35
v 0.85 -0.05 1.45
v 0.85 -0.05 1.35
v 0.85 -0.05 0.15
v 0.85 -0.05 0.05
v 0.85 0.05 1.45
v 0.85 0.05 1.35
v 0.85 0.05 1.25
v 0.85 0.05 0.25
v 0.85 0.05 0.15
v 0.85 0.05 0.05
v 0.85 0.15 1.35
v 0.85 0.15 1.25
v 0.85 0.15 0.25
v 0.85 0.15 0.15
v 0.95 -0.15 1.35
v 0.95 -0.15 1.15
v 0.95 -0.15 1.05
v 0.95 -0.15 0.25
v 0.95 -0.15 0.15
v 0.95 -0.05 1.15
v 0.95 -0.05 1.05
v 0.95 -0.05 0.25
v 0.95 -0.05 0.15
v 0.95 0.05 1.35
v 0.95 0.05 1.25
v 0.95 0.05 1.15
v 0.95 0.05 1.05
v 0.95 0.05 0.35
v 0.95 0.05 0.25
v 0.95 0.15 1.25
v 0.95 0.15 1.15
v 0.95 0.15 1.05
v 0.95 0.15 0.35
v 0.95 0.15 0.25
v 1.05 -0.15 0.95
v 1.05 -0.15 0.75
v 1.05 -0.15 0.35
v 1.05 -0.15 0.25
v 1.05 -0.05 0.35
v 1.05 -0.05 0.25
v 1.05 -0.05 0.15
v 1.05 0.05 0.95
v 1.05 0.05 0.75
v 1.05 0.05 0.65
v 1.05 0.05 0.45
v 1.05 0.05 0.35
v 1.05 0.05 0.25
v 1.05 0.05 0.15
v 1.05 0.15 0.95
v 1.05 0.15 0.65
v 1.05 0.15 0.45
v 1.05 0.15 0.35
v 1.15 -0.15 1.05
v 1.15 -0.15 0.95
v 1.15 -0.15 0.75
v 1.15 -0.15 0.55
v 1.15 -0.15 0.45
v 1.15 -0.15 0.35
v 1.15 -0.05 0.45
v 1.15 -0.05 0.35
v 1.15 -0.05 0.25
v 1.15 0.05 1.05
v 1.15 0.05 0.95
v 1.15 0.05 0.75
v 1.15 0.05 0.65
v 1.15 0.05 0.55
v 1.15 0.05 0.45
v 1.15 0.05 0.35
v 1.15 0.05 0.25
v 1.15 0.15 1.05
v 1.15 0.15 0.95
v 1.15 0.15 0.65
v 1.15 0.15 0.45
v 1.25 -0.15 1.15
v 1.25 -0.15 1.05
v 1.25 -0.15 0.55
v 1.25 -0.15 0.45
v 1.25 -0.05 0.55
v 1.25 -0.05 0.45
v 1.25 -0.05 0.35
v 1.25 0.05 1.15
v 1.25 0.05 1.05
v 1.25 0.05 0.45
v 1.25 0.05 0.35
v 1.25 0.15 1.15
v 1.25 0.15 1.05
v 1.35 -0.15 1.25
v 1.35 -0.15 1.15
v 1.35 -0.05 0.55
v 1.35 -0.05 0.45
v 1.35 0.05 1.25
v 1.35 0.05 1.15
v 1.35 0.05 0.55
v 1.35 0.05 0.45
v 1.35 0.15 1.25
v 1.35 0.15 1.15
v 1.45 -0.15 1.35
v 1.45 -0.15 1.25
v 1.45 0.05 1.35
v 1.45 0.05 1.25
v 1.45 0.15 1.35
v 1.45 0.15 1.25
v 0.15 -0.15 1.55
v 0.15 0.05 1.55
v 0.15 0.15 1.55
v 0.55 0.05 1.55
v 0.55 0.15 1.55
v 0.65 -0.05 1.55
v 0.65 0.05 1.55
v 0.75 -0.15 1.55
v 0.75 -0.05 1.55
v 0.75 0.05 1.55
v 0.55 0.05 1.45
v 0.55 0.15 1.45
v 0.65 0.05 1.45
v 0.65 0.15 1.45
v 0.75 -0.15 1.45
v 0.75 -0.05 1.45
v 0.75 0.05 1.45
v 0.75 0.15 1.45
v 0.85 -0.15 1.45
v 0.85 -0.05 1.45
v 0.85 0.05 1.45
v 0.75 0.05 1.35
v 0.75 0.15 1.35
v 0.85 -0.15 1.35
v 0.85 -0.05 1.35
v 0.85 0.05 1.35
v 0.85 0.15 1.35
v 0.95 -0.15 1.35
v 0.95 0.05 1.35
v 1.15 -0.15 1.35
v 1.15 0.05 1.35
v 1.25 0.05 1.35
v 1.25 0.15 1.35
v 1.45 -0.15 1.35
v 1.45 0.05 1.35
v 1.45 0.15 1.35
v 0.85 0.05 1.25
v 0.85 0.15 1.25
v 0.95 0.05 1.25
v 0.95 0.15 1.25
v 1.05 -0.15 1.25
v 1.05 0.05 1.25
v 1.15 -0.15 1.25
v 1.15 0.05 1.25
v 1.15 0.15 1.25
v 1.25 0.05 1.25
v 1.25 0.15 1.25
v 1.05 0.05 1.15
v 1.05 0.15 1.15
v 1.15 0.05 1.15
v 1.15 0.15 1.15
v -0.25 -0.15 1.05
v -0.25 -0.05 1.05
v -0.25 0.05 1.05
v -0.15 -0.15 1.05
v -0.15 -0.05 1.05
v -0.15 0.05 1.05
v -0.15 0.15 1.05
v -0.0500001 -0.15 1.05
v -0.0500001 0.05 1.05
v -0.0500001 0.15 1.05
v 0.95 -0.15 1.05
v 0.95 -0.05 1.05
v 0.95 0.05 1.05
v 0.95 0.15 1.05
v 1.05 -0.15 1.05
v 1.05 0.05 1.05
v 1.05 0.15 1.05
v -0.0500001 -0.15 0.95
v -0.0500001 0.05 0.95
v -0.0500001 0.15 0.95
v 0.05 -0.15 0.95
v 0.05 0.05 0.95
v 0.05 0.15 0.95
v 0.75 -0.15 0.95
v 0.75 0.05 0.95
v 0.75 0.15 0.95
v 0.85 -0.15 0.95
v 0.85 -0.05 0.95
v 0.85 0.05 0.95
v 0.85 0.15 0.95
v 0.05 -0.15 0.85
v 0.05 0.05 0.85
v 0.05 0.15 0.85
v 0.15 -0.15 0.85
v 0.15 0.05 0.85
v 0.15 0.15 0.85
v 0.65 -0.15 0.85
v 0.65 0.05 0.85
v 0.65 0.15 0.85
v 0.75 -0.15 0.85
v 0.75 0.05 0.85
v 0.75 0.15 0.85
v 0.55 -0.15 0.75
v 0.55 0.15 0.75
v 0.65 -0.15 0.75
v 0.65 0.05 0.75
v 0.65 0.15 0.75
v 1.05 -0.15 0.75
v 1.05 0.05 0.75
v 1.15 -0.15 0.75
v 1.15 0.05 0.75
v 0.15 -0.15 0.65
v 0.15 0.05 0.65
v 0.15 0.15 0.65
v 0.45 0.05 0.65
v 0.45 0.15 0.65
v 0.55 -0.15 0.65
v 0.55 0.15 0.65
v 1.05 0.05 0.65
v 1.05 0.15 0.65
v 1.15 0.05 0.65
v 1.15 0.15 0.65
v 1.15 -0.15 0.55
v 1.15 0.05 0.55
v 1.25 -0.15 0.55
v 1.25 -0.05 0.55
v 1.35 -0.05 0.55
v 1.35 0.05 0.55
v 0.35 -0.05 0.25
v 0.35 0.15 0.25
v 0.45 -0.15 0.25
v 0.45 -0.05 0.25
v 0.55 -0.05 0.25
v 0.55 0.05 0.25
v 0.65 -0.15 0.25
v 0.65 -0.05 0.25
v 0.65 0.05 0.25
v 0.65 0.15 0.25
v 0.25 -0.15 0.15
v 0.25 0.05 0.15
v 0.35 -0.05 0.15
v 0.35 0.05 0.15
v 0.45 -0.15 0.15
v 0.45 -0.05 0.15
v 0.05 -0.15 0.05
v 0.05 0.05 0.05
v 0.15 -0.15 0.05
v 0.15 0.05 0.05
v 0.15 0.15 0.05
v 0.25 -0.15 0.05
v 0.25 0.05 0.05
v 0.35 0.05 0.05
v 0.35 0.15 0.05
v -0.0500001 -0.15 -0.0500001
v -0.0500001 0.05 -0.0500001
v 0.05 -0.15 -0.0500001
v 0.05 0.05 -0.0500001
v 0.05 0.15 -0.0500001
v 0.15 0.05 -0.0500001
v 0.15 0.15 -0.0500001
v -0.0500001 0.05 -0.15
v -0.0500001 0.15 -0.15
v 0.05 0.05 -0.15
v 0.05 0.15 -0.15
v -1.05 -0.15 -0.25
v -1.05 0.05 -0.25
v -1.05 0.15 -0.25
v -0.95 -0.15 -0.25
v -0.95 0.05 -0.25
v -0.95 0.15 -0.25
v -0.15 -0.15 -0.25
v -0.15 -0.05 -0.25
v -0.15 0.15 -0.25
v -0.0500001 -0.15 -0.25
v -0.0500001 -0.05 -0.25
v -0.0500001 0.15 -0.25
v -0.95 -0.15 -0.35
v -0.95 -0.05 -0.35
v -0.95 0.05 -0.35
v -0.95 0.15 -0.35
v -0.85 -0.05 -0.35
v -0.85 0.05 -0.35
v -0.75 -0.15 -0.35
v -0.75 0.05 -0.35
v -0.75 0.15 -0.35
v -0.55 -0.15 -0.35
v -0.55 0.15 -0.35
v -0.45 -0.15 -0.35
v -0.45 0.15 -0.35
v -0.35 -0.15 -0.35
v -0.35 -0.05 -0.35
v -0.35 0.15 -0.35
v -0.15 -0.15 -0.35
v -0.15 -0.05 -0.35
v -0.15 0.15 -0.35
v -0.75 -0.15 -0.45
v -0.75 0.05 -0.45
v -0.75 0.15 -0.45
v -0.55 -0.15 -0.45
v -0.55 0.05 -0.45
v -0.55 0.15 -0.45
v -0.45 -0.15 -0.45
v -0.45 0.15 -0.45
v -0.35 -0.15 -0.45
v -0.35 -0.05 -0.45
v -0.35 0.15 -0.45
v -0.75 -0.15 -0.75
v -0.75 0.15 -0.75
v -0.65 -0.15 -0.75
v -0.65 0.15 -0.75
v -0.85 -0.15 -0.85
v -0.85 0.15 -0.85
v -0.75 -0.15 -0.85
v -0.75 0.15 -0.85
v -1.05 -0.05 -0.95
v -1.05 0.15 -0.95
v -0.95 -0.15 -0.95
v -0.95 -0.05 -0.95
v -0.85 -0.15 -0.95
v -0.85 0.15 -0.95
v -1.15 -0.05 -1.05
v -1.15 0.05 -1.05
v -1.15 0.15 -1.05
v -1.05 -0.15 -1.05
v -1.05 -0.05 -1.05
v -1.05 0.05 -1.05
v -1.05 0.15 -1.05
v -0.95 -0.15 -1.05
v -0.95 -0.05 -1.05
v -1.25 -0.05 -1.15
v -1.25 0.05 -1.15
v -1.25 0.15 -1.15
v -1.15 -0.15 -1.15
v -1.15 -0.05 -1.15
v -1.15 0.05 -1.15
v -1.15 0.15 -1.15
v -1.05 -0.15 -1.15
v -1.05 -0.05 -1.15
v -1.35 -0.05 -1.25
v -1.35 0.15 -1.25
v -1.25 -0.15 -1.25
v -1.25 -0.05 -1.25
v -1.25 0.05 -1.25
v -1.25 0.15 -1.25
v -1.15 -0.15 -1.25
v -1.15 -0.05 -1.25
v -1.45 -0.05 -1.35
v -1.45 0.05 -1.35
v -1.45 0.15 -1.35
v -1.35 -0.15 -1.35
v -1.35 -0.05 -1.35
v -1.35 0.05 -1.35
v -1.35 0.15 -1.35
v -1.25 -0.15 -1.35
v -1.25 -0.05 -1.35
v -1.45 -0.15 -1.45
v -1.45 -0.05 -1.45
v -1.35 -0.15 -1.45
v -1.35 -0.05 -1.45
v 0.25 -0.15 1.45
v 0.25 -0.05 1.45
v 0.25 0.05 1.45
v 0.25 0.15 1.45
v 0.55 -0.15 1.45
v 0.55 0.05 1.45
v 0.55 0.15 1.45
v 0.15 -0.15 1.35
v 0.15 -0.05 1.35
v 0.15 0.05 1.35
v 0.15 0.15 1.35
v 0.25 -0.15 1.35
v 0.25 -0.05 1.35
v 0.25 0.05 1.35
v 0.25 0.15 1.35
v 0.55 -0.15 1.35
v 0.55 0.05 1.35
v 0.55 0.15 1.35
v 0.65 -0.15 1.35
v 0.65 -0.05 1.35
v 0.65 0.05 1.35
v 0.65 0.15 1.35
v 0.65 -0.15 1.25
v 0.65 -0.05 1.25
v 0.65 0.15 1.25
v 0.75 -0.15 1.25
v 0.75 -0.05 1.25
v 0.75 0.15 1.25
v 1.35 -0.15 1.25
v 1.35 0.05 1.25
v 1.35 0.15 1.25
v 1.45 -0.15 1.25
v 1.45 0.05 1.25
v 1.45 0.15 1.25
v 0.75 -0.15 1.15
v 0.75 -0.05 1.15
v 0.75 0.15 1.15
v 0.85 -0.15 1.15
v 0.85 -0.05 1.15
v 0.85 0.15 1.15
v 1.25 -0.15 1.15
v 1.25 0.05 1.15
v 1.25 0.15 1.15
v 1.35 -0.15 1.15
v 1.35 0.05 1.15
v 1.35 0.15 1.15
v 1.15 -0.15 1.05
v 1.15 0.05 1.05
v 1.15 0.15 1.05
v 1.25 -0.15 1.05
v 1.25 0.05 1.05
v 1.25 0.15 1.05
v -0.25 -0.15 0.95
v -0.25 -0.05 0.95
v -0.15 -0.15 0.95
v -0.15 -0.05 0.95
v 1.05 -0.15 0.95
v 1.05 0.05 0.95
v 1.05 0.15 0.95
v 1.15 -0.15 0.95
v 1.15 0.05 0.95
v 1.15 0.15 0.95
v -0.25 -0.05 0.85
v -0.25 0.05 0.85
v -0.15 -0.05 0.85
v -0.15 0.05 0.85
v -0.15 0.15 0.85
v -0.0500001 0.05 0.85
v -0.0500001 0.15 0.85
v -0.15 -0.15 0.75
v -0.15 -0.05 0.75
v -0.0500001 -0.15 0.75
v -0.0500001 -0.05 0.75
v -0.15 -0.05 0.65
v -0.15 0.05 0.65
v -0.0500001 -0.15 0.65
v -0.0500001 -0.05 0.65
v -0.0500001 0.05 0.65
v -0.0500001 0.15 0.65
v 0.05 -0.15 0.65
v 0.05 -0.05 0.65
v 0.05 0.05 0.65
v 0.05 0.15 0.65
v -0.0500001 -0.05 0.55
v -0.0500001 0.05 0.55
v 0.05 -0.15 0.55
v 0.05 -0.05 0.55
v 0.05 0.05 0.55
v 0.05 0.15 0.55
v 0.15 -0.15 0.55
v 0.15 -0.05 0.55
v 0.15 0.05 0.55
v 0.15 0.15 0.55
v 0.35 0.05 0.55
v 0.35 0.15 0.55
v 0.05 -0.05 0.45
v 0.05 0.05 0.45
v 0.15 -0.15 0.45
v 0.15 -0.05 0.45
v 0.35 0.05 0.45
v 0.35 0.15 0.45
v 0.45 0.05 0.45
v 0.45 0.15 0.45
v 0.55 -0.05 0.45
v 0.55 0.05 0.45
v 0.65 -0.15 0.45
v 0.65 -0.05 0.45
v 0.65 0.05 0.45
v 0.65 0.15 0.45
v 1.05 0.05 0.45
v 1.05 0.15 0.45
v 1.15 -0.15 0.45
v 1.15 -0.05 0.45
v 1.15 0.05 0.45
v 1.15 0.15 0.45
v 1.25 -0.15 0.45
v 1.25 -0.05 0.45
v 1.25 0.05 0.45
v 1.35 -0.05 0.45
v 1.35 0.05 0.45
v 0.95 0.05 0.35
v 0.95 0.15 0.35
v 1.05 -0.15 0.35
v 1.05 -0.05 0.35
v 1.05 0.05 0.35
v 1.05 0.15 0.35
v 1.15 -0.15 0.35
v 1.15 -0.05 0.35
v 1.15 0.05 0.35
v 1.25 -0.05 0.35
v 1.25 0.05 0.35
v 0.85 0.05 0.25
v 0.85 0.15 0.25
v 0.95 -0.15 0.25
v 0.95 -0.05 0.25
v 0.95 0.05 0.25
v 0.95 0.15 0.25
v 1.05 -0.15 0.25
v 1.05 -0.05 0.25
v 1.05 0.05 0.25
v 1.15 -0.05 0.25
v 1.15 0.05 0.25
v 0.75 -0.15 0.15
v 0.75 -0.05 0.15
v 0.75 0.05 0.15
v 0.75 0.15 0.15
v 0.85 -0.05 0.15
v 0.85 0.05 0.15
v 0.85 0.15 0.15
v 0.95 -0.15 0.15
v 0.95 -0.05 0.15
v 0.95 0.05 0.15
v 1.05 -0.05 0.15
v 1.05 0.05 0.15
v 0.55 0.05 0.05
v 0.55 0.15 0.05
v 0.65 -0.15 0.05
v 0.65 -0.05 0.05
v 0.75 -0.15 0.05
v 0.75 -0.05 0.05
v 0.75 0.05 0.05
v 0.75 0.15 0.05
v 0.85 -0.05 0.05
v 0.85 0.05 0.05
v 0.45 0.05 -0.0500001
v 0.45 0.15 -0.0500001
v 0.55 -0.15 -0.0500001
v 0.55 -0.05 -0.0500001
v 0.55 0.05 -0.0500001
v 0.55 0.15 -0.0500001
v 0.65 -0.15 -0.0500001
v 0.65 -0.05 -0.0500001
v 0.65 0.05 -0.0500001
v 0.75 -0.05 -0.0500001
v 0.75 0.05 -0.0500001
v 0.35 -0.15 -0.15
v 0.35 -0.05 -0.15
v 0.35 0.05 -0.15
v 0.35 0.15 -0.15
v 0.45 -0.15 -0.15
v 0.45 -0.05 -0.15
v 0.45 0.05 -0.15
v 0.45 0.15 -0.15
v 0.55 -0.15 -0.15
v 0.55 -0.05 -0.15
v 0.65 -0.05 -0.15
v 0.65 0.05 -0.15
v 0.25 -0.15 -0.25
v 0.25 -0.05 -0.25
v 0.25 0.05 -0.25
v 0.25 0.15 -0.25
v 0.35 -0.15 -0.25
v 0.35 -0.05 -0.25
v 0.35 0.05 -0.25
v 0.35 0.15 -0.25
v 0.45 -0.05 -0.25
v 0.45 0.05 -0.25
v -1.05 -0.05 -0.35
v -1.05 0.05 -0.35
v -0.95 -0.05 -0.35
v -0.95 0.05 -0.35
v 0.15 -0.15 -0.35
v 0.15 -0.05 -0.35
v 0.15 0.05 -0.35
v 0.15 0.15 -0.35
v 0.25 -0.15 -0.35
v 0.25 -0.05 -0.35
v 0.25 0.05 -0.35
v 0.25 0.15 -0.35
v 0.35 -0.05 -0.35
v 0.35 0.05 -0.35
v -1.05 -0.15 -0.45
v -1.05 -0.05 -0.45
v -1.05 0.05 -0.45
v -1.05 0.15 -0.45
v -0.85 -0.15 -0.45
v -0.85 -0.05 -0.45
v -0.85 0.05 -0.45
v -0.85 0.15 -0.45
v -0.75 -0.05 -0.45
v -0.75 0.05 -0.45
v -0.0500001 -0.15 -0.45
v -0.0500001 -0.05 -0.45
v -0.0500001 0.05 -0.45
v -0.0500001 0.15 -0.45
v 0.15 -0.15 -0.45
v 0.15 -0.05 -0.45
v 0.15 0.05 -0.45
v 0.15 0.15 -0.45
v 0.25 -0.05 -0.45
v 0.25 0.05 -0.45
v -0.85 -0.15 -0.55
v -0.85 -0.05 -0.55
v -0.85 0.05 -0.55
v -0.85 0.15 -0.55
v -0.75 -0.05 -0.55
v -0.75 0.05 -0.55
v -0.65 -0.15 -0.55
v -0.65 0.05 -0.55
v -0.65 0.15 -0.55
v -0.15 -0.15 -0.55
v -0.15 -0.05 -0.55
v -0.15 0.05 -0.55
v -0.15 0.15 -0.55
v -0.0500001 -0.15 -0.55
v -0.0500001 -0.05 -0.55
v -0.0500001 0.05 -0.55
v -0.0500001 0.15 -0.55
v 0.15 -0.05 -0.55
v 0.15 0.05 -0.55
v -0.25 -0.15 -0.65
v -0.25 -0.05 -0.65
v -0.25 0.05 -0.65
v -0.25 0.15 -0.65
v -0.15 -0.15 -0.65
v -0.15 -0.05 -0.65
v -0.15 0.05 -0.65
v -0.15 0.15 -0.65
v -0.0500001 -0.05 -0.65
v -0.0500001 0.05 -0.65
v -0.35 -0.15 -0.75
v -0.35 -0.05 -0.75
v -0.35 0.05 -0.75
v -0.35 0.15 -0.75
v -0.25 -0.15 -0.75
v -0.25 -0.05 -0.75
v -0.25 0.05 -0.75
v -0.25 0.15 -0.75
v -0.15 -0.05 -0.75
v -0.15 0.05 -0.75
v -0.55 -0.15 -0.85
v -0.55 -0.05 -0.85
v -0.45 -0.15 -0.85
v -0.45 -0.05 -0.85
v -0.45 0.05 -0.85
v -0.45 0.15 -0.85
v -0.35 -0.15 -0.85
v -0.35 -0.05 -0.85
v -0.35 0.05 -0.85
v -0.35 0.15 -0.85
v -0.25 -0.05 -0.85
v -0.25 0.05 -0.85
v -0.65 -0.15 -0.95
v -0.65 -0.05 -0.95
v -0.65 0.05 -0.95
v -0.65 0.15 -0.95
v -0.55 -0.15 -0.95
v -0.55 -0.05 -0.95
v -0.55 0.05 -0.95
v -0.45 0.05 -0.95
v -0.45 0.15 -0.95
v -0.35 -0.05 -0.95
v -0.35 0.05 -0.95
v -0.75 -0.15 -1.05
v -0.75 -0.05 -1.05
v -0.75 0.05 -1.05
v -0.75 0.15 -1.05
v -0.65 -0.15 -1.05
v -0.65 -0.05 -1.05
v -0.65 0.05 -1.05
v -0.65 0.15 -1.05
v -0.55 -0.05 -1.05
v -0.55 0.05 -1.05
v -0.85 -0.15 -1.15
v -0.85 -0.05 -1.15
v -0.85 0.05 -1.15
v -0.85 0.15 -1.15
v -0.75 -0.15 -1.15
v -0.75 -0.05 -1.15
v -0.75 0.05 -1.15
v -0.75 0.15 -1.15
v -0.65 -0.05 -1.15
v -0.65 0.05 -1.15
v -1.05 -0.15 -1.25
v -1.05 -0.05 -1.25
v -0.95 0.05 -1.25
v -0.95 0.15 -1.25
v -0.85 -0.15 -1.25
v -0.85 -0.05 -1.25
v -0.85 0.05 -1.25
v -0.85 0.15 -1.25
v -0.75 -0.05 -1.25
v -0.75 0.05 -1.25
v -1.15 -0.15 -1.35
v -1.15 -0.05 -1.35
v -1.15 0.05 -1.35
v -1.15 0.15 -1.35
v -1.05 -0.15 -1.35
v -1.05 -0.05 -1.35
v -1.05 0.05 -1.35
v -0.95 0.05 -1.35
v -0.95 0.15 -1.35
v -0.85 -0.05 -1.35
v -0.85 0.05 -1.35
v -1.35 -0.15 -1.45
v -1.35 -0.05 -1.45
v -1.35 0.05 -1.45
v -1.35 0.15 -1.45
v -1.25 -0.15 -1.45
v -1.25 -0.05 -1.45
v -1.25 0.05 -1.45
v -1.15 -0.15 -1.45
v -1.15 -0.05 -1.45
v -1.15 0.05 -1.45
v -1.15 0.15 -1.45
v -1.05 -0.05 -1.45
v -1.05 0.05 -1.45
v -1.45 -0.15 -1.55
v -1.45 0.05 -1.55
v -1.45 0.15 -1.55
v -1.35 -0.15 -1.55
v -1.35 -0.05 -1.55
v -1.35 0.05 -1.55
v -1.35 0.15 -1.55
v -1.25 -0.05 -1.55
v -1.25 0.05 -1.55
v 0.15 -0.15 1.55
v 0.75 -0.15 1.55
v 0.15 -0.15 1.45
v 0.25 -0.15 1.45
v 0.55 -0.15 1.45
v 0.65 -0.15 1.45
v 0.75 -0.15 1.45
v 0.85 -0.15 1.45
v 0.15 -0.15 1.35
v 0.25 -0.15 1.35
v 0.55 -0.15 1.35
v 0.65 -0.15 1.35
v 0.75 -0.15 1.35
v 0.85 -0.15 1.35
v 0.95 -0.15 1.35
v 1.15 -0.15 1.35
v 1.45 -0.15 1.35
v 0.65 -0.15 1.25
v 0.75 -0.15 1.25
v 0.85 -0.15 1.25
v 1.05 -0.15 1.25
v 1.15 -0.15 1.25
v 1.35 -0.15 1.25
v 1.45 -0.15 1.25
v 0.75 -0.15 1.15
v 0.85 -0.15 1.15
v 0.95 -0.15 1.15
v 1.25 -0.15 1.15
v 1.35 -0.15 1.15
v -0.25 -0.15 1.05
v -0.15 -0.15 1.05
v -0.0500001 -0.15 1.05
v 0.95 -0.15 1.05
v 1.05 -0.15 1.05
v 1.15 -0.15 1.05
v 1.25 -0.15 1.05
v -0.25 -0.15 0.95
v -0.15 -0.15 0.95
v -0.0500001 -0.15 0.95
v 0.05 -0.15 0.95
v 0.75 -0.15 0.95
v 0.85 -0.15 0.95
v 0.95 -0.15 0.95
v 1.05 -0.15 0.95
v 1.15 -0.15 0.95
v 0.05 -0.15 0.85
v 0.15 -0.15 0.85
v 0.65 -0.15 0.85
v 0.75 -0.15 0.85
v 0.85 -0.15 0.85
v -0.15 -0.15 0.75
v -0.0500001 -0.15 0.75
v 0.55 -0.15 0.75
v 0.65 -0.15 0.75
v 0.75 -0.15 0.75
v 1.05 -0.15 0.75
v 1.15 -0.15 0.75
v -0.0500001 -0.15 0.65
v 0.05 -0.15 0.65
v 0.15 -0.15 0.65
v 0.55 -0.15 0.65
v 0.05 -0.15 0.55
v 0.15 -0.15 0.55
v 1.15 -0.15 0.55
v 1.25 -0.15 0.55
v 0.15 -0.15 0.45
v 0.65 -0.15 0.45
v 1.05 -0.15 0.45
v 1.15 -0.15 0.45
v 1.25 -0.15 0.45
v 0.95 -0.15 0.35
v 1.05 -0.15 0.35
v 1.15 -0.15 0.35
v 0.45 -0.15 0.25
v 0.65 -0.15 0.25
v 0.75 -0.15 0.25
v 0.95 -0.15 0.25
v 1.05 -0.15 0.25
v 0.25 -0.15 0.15
v 0.45 -0.15 0.15
v 0.75 -0.15 0.15
v 0.95 -0.15 0.15
v 0.05 -0.15 0.05
v 0.15 -0.15 0.05
v 0.25 -0.15 0.05
v 0.65 -0.15 0.05
v 0.75 -0.15 0.05
v -0.0500001 -0.15 -0.0500001
v 0.05 -0.15 -0.0500001
v 0.15 -0.15 -0.0500001
v 0.45 -0.15 -0.0500001
v 0.55 -0.15 -0.0500001
v 0.65 -0.15 -0.0500001
v 0.25 -0.15 -0.15
v 0.35 -0.15 -0.15
v 0.45 -0.15 -0.15
v 0.55 -0.15 -0.15
v -1.05 -0.15 -0.25
v -0.95 -0.15 -0.25
v -0.15 -0.15 -0.25
v -0.0500001 -0.15 -0.25
v 0.05 -0.15 -0.25
v 0.25 -0.15 -0.25
v 0.35 -0.15 -0.25
v -0.95 -0.15 -0.35
v -0.75 -0.15 -0.35
v -0.55 -0.15 -0.35
v -0.45 -0.15 -0.35
v -0.35 -0.15 -0.35
v -0.15 -0.15 -0.35
v -0.0500001 -0.15 -0.35
v 0.15 -0.15 -0.35
v 0.25 -0.15 -0.35
v -1.05 -0.15 -0.45
v -0.85 -0.15 -0.45
v -0.75 -0.15 -0.45
v -0.55 -0.15 -0.45
v -0.45 -0.15 -0.45
v -0.35 -0.15 -0.45
v -0.15 -0.15 -0.45
v -0.0500001 -0.15 -0.45
v 0.15 -0.15 -0.45
v -0.85 -0.15 -0.55
v -0.65 -0.15 -0.55
v -0.15 -0.15 -0.55
v -0.0500001 -0.15 -0.55
v -0.25 -0.15 -0.65
v -0.15 -0.15 -0.65
v -0.75 -0.15 -0.75
v -0.65 -0.15 -0.75
v -0.45 -0.15 -0.75
v -0.35 -0.15 -0.75
v -0.25 -0.15 -0.75
v -0.85 -0.15 -0.85
v -0.75 -0.15 -0.85
v -0.55 -0.15 -0.85
v -0.45 -0.15 -0.85
v -0.35 -0.15 -0.85
v -0.95 -0.15 -0.95
v -0.85 -0.15 -0.95
v -0.65 -0.15 -0.95
v -0.55 -0.15 -0.95
v -1.05 -0.15 -1.05
v -0.95 -0.15 -1.05
v -0.75 -0.15 -1.05
v -0.65 -0.15 -1.05
v -1.15 -0.15 -1.15
v -1.05 -0.15 -1.15
v -0.95 -0.15 -1.15
v -0.85 -0.15 -1.15
v -0.75 -0.15 -1.15
v -1.25 -0.15 -1.25
v -1.15 -0.15 -1.25
v -1.05 -0.15 -1.25
v -0.85 -0.15 -1.25
v -1.35 -0.15 -1.35
v -1.25 -0.15 -1.35
v -1.15 -0.15 -1.35
v -1.05 -0.15 -1.35
v -1.45 -0.15 -1.45
v -1.35 -0.15 -1.45
v -1.25 -0.15 -1.45
v -1.15 -0.15 -1.45
v -1.45 -0.15 -1.55
v -1.35 -0.15 -1.55
v -0.25 -0.05 0.95
v -0.15 -0.05 0.95
v -0.25 -0.05 0.85
v -0.15 -0.05 0.85
v -0.15 -0.05 0.75
v -0.0500001 -0.05 0.75
v -0.15 -0.05 0.65
v -0.0500001 -0.05 0.65
v 0.05 -0.05 0.65
v -0.0500001 -0.05 0.55
v 0.05 -0.05 0.55
v 0.15 -0.05 0.55
v 1.25 -0.05 0.55
v 1.35 -0.05 0.55
v 0.05 -0.05 0.45
v 0.15 -0.05 0.45
v 0.55 -0.05 0.45
v 0.65 -0.05 0.45
v 1.15 -0.05 0.45
v 1.25 -0.05 0.45
v 1.35 -0.05 0.45
v 1.05 -0.05 0.35
v 1.15 -0.05 0.35
v 1.25 -0.05 0.35
v 0.35 -0.05 0.25
v 0.45 -0.05 0.25
v 0.55 -0.05 0.25
v 0.65 -0.05 0.25
v 0.95 -0.05 0.25
v 1.05 -0.05 0.25
v 1.15 -0.05 0.25
v 0.35 -0.05 0.15
v 0.45 -0.05 0.15
v 0.75 -0.05 0.15
v 0.85 -0.05 0.15
v 0.95 -0.05 0.15
v 1.05 -0.05 0.15
v 0.65 -0.05 0.05
v 0.75 -0.05 0.05
v 0.85 -0.05 0.05
v 0.55 -0.05 -0.0500001
v 0.65 -0.05 -0.0500001
v 0.75 -0.05 -0.0500001
v 0.35 -0.05 -0.15
v 0.45 -0.05 -0.15
v 0.55 -0.05 -0.15
v 0.65 -0.05 -0.15
v 0.25 -0.05 -0.25
v 0.35 -0.05 -0.25
v 0.45 -0.05 -0.25
v 0.15 -0.05 -0.35
v 0.25 -0.05 -0.35
v 0.35 -0.05 -0.35
v -0.0500001 -0.05 -0.45
v 0.15 -0.05 -0.45
v 0.25 -0.05 -0.45
v -0.15 -0.05 -0.55
v -0.0500001 -0.05 -0.55
v 0.15 -0.05 -0.55
v -0.25 -0.05 -0.65
v -0.15 -0.05 -0.65
v -0.0500001 -0.05 -0.65
v -0.35 -0.05 -0.75
v -0.25 -0.05 -0.75
v -0.15 -0.05 -0.75
v -0.55 -0.05 -0.85
v -0.45 -0.05 -0.85
v -0.35 -0.05 -0.85
v -0.25 -0.05 -0.85
v -1.05 -0.05 -0.95
v -0.95 -0.05 -0.95
v -0.65 -0.05 -0.95
v -0.55 -0.05 -0.95
v -0.35 -0.05 -0.95
v -1.15 -0.05 -1.05
v -1.05 -0.05 -1.05
v -0.95 -0.05 -1.05
v -0.75 -0.05 -1.05
v -0.65 -0.05 -1.05
v -0.55 -0.05 -1.05
v -1.25 -0.05 -1.15
v -1.15 -0.05 -1.15
v -1.05 -0.05 -1.15
v -0.85 -0.05 -1.15
v -0.75 -0.05 -1.15
v -0.65 -0.05 -1.15
v -1.35 -0.05 -1.25
v -1.25 -0.05 -1.25
v -1.15 -0.05 -1.25
v -1.05 -0.05 -1.25
v -0.85 -0.05 -1.25
v -0.75 -0.05 -1.25
v -1.45 -0.05 -1.35
v -1.35 -0.05 -1.35
v -1.25 -0.05 -1.35
v -1.15 -0.05 -1.35
v -1.05 -0.05 -1.35
v -0.85 -0.05 -1.35
v -1.45 -0.05 -1.45
v -1.35 -0.05 -1.45
v -1.25 -0.05 -1.45
v -1.15 -0.05 -1.45
v -1.05 -0.05 -1.45
v -1.35 -0.05 -1.55
v -1.25 -0.05 -1.55
v -1.05 0.05 -0.35
v -0.95 0.05 -0.35
v -0.85 0.05 -0.35
v -1.05 0.05 -0.45
v -0.85 0.05 -0.45
v -0.75 0.05 -0.45
v -0.85 0.05 -0.55
v -0.75 0.05 -0.55
v -1.05 -0.05 -0.35
v -0.95 -0.05 -0.35
v -0.85 -0.05 -0.35
v -1.05 -0.05 -0.45
v -0.85 -0.05 -0.45
v -0.75 -0.05 -0.45
v -0.85 -0.05 -0.55
v -0.75 -0.05 -0.55
v 0.55 0.05 1.55
v 0.65 0.05 1.55
v 0.75 0.05 1.55
v 0.55 0.05 1.45
v 0.65 0.05 1.45
v 0.75 0.05 1.45
v 0.85 0.05 1.45
v 0.75 0.05 1.35
v 0.85 0.05 1.35
v 0.95 0.05 1.35
v 1.15 0.05 1.35
v 1.25 0.05 1.35
v 0.85 0.05 1.25
v 0.95 0.05 1.25
v 1.05 0.05 1.25
v 1.15 0.05 1.25
v 1.25 0.05 1.25
v 1.05 0.05 1.15
v 1.15 0.05 1.15
v -0.25 0.05 1.05
v -0.15 0.05 1.05
v -0.25 0.05 0.85
v -0.15 0.05 0.85
v -0.0500001 0.05 0.85
v -0.0500001 0.05 0.75
v 1.05 0.05 0.75
v 1.15 0.05 0.75
v -0.15 0.05 0.65
v -0.0500001 0.05 0.65
v 0.05 0.05 0.65
v 1.05 0.05 0.65
v 1.15 0.05 0.65
v -0.0500001 0.05 0.55
v 0.05 0.05 0.55
v 0.15 0.05 0.55
v 0.35 0.05 0.55
v 1.15 0.05 0.55
v 1.35 0.05 0.55
v 0.05 0.05 0.45
v 0.35 0.05 0.45
v 0.55 0.05 0.45
v 0.65 0.05 0.45
v 1.05 0.05 0.45
v 1.15 0.05 0.45
v 1.25 0.05 0.45
v 1.35 0.05 0.45
v 0.95 0.05 0.35
v 1.05 0.05 0.35
v 1.15 0.05 0.35
v 1.25 0.05 0.35
v 0.55 0.05 0.25
v 0.65 0.05 0.25
v 0.85 0.05 0.25
v 0.95 0.05 0.25
v 1.05 0.05 0.25
v 1.15 0.05 0.25
v 0.25 0.05 0.15
v 0.35 0.05 0.15
v 0.75 0.05 0.15
v 0.85 0.05 0.15
v 0.95 0.05 0.15
v 1.05 0.05 0.15
v 0.05 0.05 0.05
v 0.15 0.05 0.05
v 0.25 0.05 0.05
v 0.35 0.05 0.05
v 0.55 0.05 0.05
v 0.75 0.05 0.05
v 0.85 0.05 0.05
v -0.0500001 0.05 -0.0500001
v 0.05 0.05 -0.0500001
v 0.15 0.05 -0.0500001
v 0.45 0.05 -0.0500001
v 0.55 0.05 -0.0500001
v 0.65 0.05 -0.0500001
v 0.75 0.05 -0.0500001
v -0.0500001 0.05 -0.15
v 0.05 0.05 -0.15
v 0.35 0.05 -0.15
v 0.45 0.05 -0.15
v 0.65 0.05 -0.15
v 0.25 0.05 -0.25
v 0.35 0.05 -0.25
v 0.45 0.05 -0.25
v 0.15 0.05 -0.35
v 0.25 0.05 -0.35
v 0.35 0.05 -0.35
v -0.0500001 0.05 -0.45
v 0.15 0.05 -0.45
v 0.25 0.05 -0.45
v -0.15 0.05 -0.55
v -0.0500001 0.05 -0.55
v 0.15 0.05 -0.55
v -0.25 0.05 -0.65
v -0.15 0.05 -0.65
v -0.0500001 0.05 -0.65
v -0.35 0.05 -0.75
v -0.25 0.05 -0.75
v -0.15 0.05 -0.75
v -0.45 0.05 -0.85
v -0.35 0.05 -0.85
v -0.25 0.05 -0.85
v -0.65 0.05 -0.95
v -0.55 0.05 -0.95
v -0.45 0.05 -0.95
v -0.35 0.05 -0.95
v -0.75 0.05 -1.05
v -0.65 0.05 -1.05
v -0.55 0.05 -1.05
v -0.85 0.05 -1.15
v -0.75 0.05 -1.15
v -0.65 0.05 -1.15
v -0.95 0.05 -1.25
v -0.85 0.05 -1.25
v -0.75 0.05 -1.25
v -1.15 0.05 -1.35
v -1.05 0.05 -1.35
v -0.95 0.05 -1.35
v -0.85 0.05 -1.35
v -1.35 0.05 -1.45
v -1.25 0.05 -1.45
v -1.15 0.05 -1.45
v -1.05 0.05 -1.45
v -1.35 0.05 -1.55
v -1.25 0.05 -1.55
v 0.15 0.15 1.55
v 0.55 0.15 1.55
v 0.25 0.15 1.45
v 0.55 0.15 1.45
v 0.65 0.15 1.45
v 0.75 0.15 1.45
v 0.15 0.15 1.35
v 0.25 0.15 1.35
v 0.55 0.15 1.35
v 0.65 0.15 1.35
v 0.75 0.15 1.35
v 0.85 0.15 1.35
v 1.25 0.15 1.35
v 1.45 0.15 1.35
v 0.65 0.15 1.25
v 0.75 0.15 1.25
v 0.85 0.15 1.25
v 0.95 0.15 1.25
v 1.15 0.15 1.25
v 1.25 0.15 1.25
v 1.35 0.15 1.25
v 1.45 0.15 1.25
v 0.75 0.15 1.15
v 0.85 0.15 1.15
v 0.95 0.15 1.15
v 1.05 0.15 1.15
v 1.15 0.15 1.15
v 1.25 0.15 1.15
v 1.35 0.15 1.15
v -0.15 0.15 1.05
v -0.0500001 0.15 1.05
v 0.95 0.15 1.05
v 1.05 0.15 1.05
v 1.15 0.15 1.05
v 1.25 0.15 1.05
v -0.0500001 0.15 0.95
v 0.05 0.15 0.95
v 0.75 0.15 0.95
v 0.85 0.15 0.95
v 0.95 0.15 0.95
v 1.05 0.15 0.95
v 1.15 0.15 0.95
v -0.15 0.15 0.85
v -0.0500001 0.15 0.85
v 0.05 0.15 0.85
v 0.15 0.15 0.85
v 0.65 0.15 0.85
v 0.75 0.15 0.85
v 0.85 0.15 0.85
v -0.0500001 0.15 0.75
v 0.05 0.15 0.75
v 0.55 0.15 0.75
v 0.65 0.15 0.75
v 0.75 0.15 0.75
v -0.0500001 0.15 0.65
v 0.05 0.15 0.65
v 0.15 0.15 0.65
v 0.45 0.15 0.65
v 0.55 0.15 0.65
v 0.65 0.15 0.65
v 0.85 0.15 0.65
v 1.05 0.15 0.65
v 1.15 0.15 0.65
v 0.05 0.15 0.55
v 0.15 0.15 0.55
v 0.35 0.15 0.55
v 0.95 0.15 0.55
v 1.05 0.15 0.55
v 0.35 0.15 0.45
v 0.45 0.15 0.45
v 0.65 0.15 0.45
v 0.85 0.15 0.45
v 0.95 0.15 0.45
v 1.05 0.15 0.45
v 1.15 0.15 0.45
v 0.75 0.15 0.35
v 0.85 0.15 0.35
v 0.95 0.15 0.35
v 1.05 0.15 0.35
v 0.35 0.15 0.25
v 0.65 0.15 0.25
v 0.75 0.15 0.25
v 0.85 0.15 0.25
v 0.95 0.15 0.25
v 0.45 0.15 0.15
v 0.65 0.15 0.15
v 0.75 0.15 0.15
v 0.85 0.15 0.15
v 0.15 0.15 0.05
v 0.35 0.15 0.05
v 0.45 0.15 0.05
v 0.55 0.15 0.05
v 0.75 0.15 0.05
v 0.05 0.15 -0.0500001
v 0.15 0.15 -0.0500001
v 0.25 0.15 -0.0500001
v 0.35 0.15 -0.0500001
v 0.45 0.15 -0.0500001
v 0.55 0.15 -0.0500001
v -0.0500001 0.15 -0.15
v 0.05 0.15 -0.15
v 0.15 0.15 -0.15
v 0.25 0.15 -0.15
v 0.35 0.15 -0.15
v 0.45 0.15 -0.15
v -1.05 0.15 -0.25
v -0.95 0.15 -0.25
v -0.15 0.15 -0.25
v -0.0500001 0.15 -0.25
v 0.05 0.15 -0.25
v 0.15 0.15 -0.25
v 0.25 0.15 -0.25
v 0.35 0.15 -0.25
v -0.95 0.15 -0.35
v -0.75 0.15 -0.35
v -0.55 0.15 -0.35
v -0.45 0.15 -0.35
v -0.35 0.15 -0.35
v -0.15 0.15 -0.35
v 0.05 0.15 -0.35
v 0.15 0.15 -0.35
v 0.25 0.15 -0.35
v -1.05 0.15 -0.45
v -0.85 0.15 -0.45
v -0.75 0.15 -0.45
v -0.55 0.15 -0.45
v -0.45 0.15 -0.45
v -0.35 0.15 -0.45
v -0.25 0.15 -0.45
v -0.15 0.15 -0.45
v -0.0500001 0.15 -0.45
v 0.15 0.15 -0.45
v -0.85 0.15 -0.55
v -0.65 0.15 -0.55
v -0.45 0.15 -0.55
v -0.35 0.15 -0.55
v -0.25 0.15 -0.55
v -0.15 0.15 -0.55
v -0.0500001 0.15 -0.55
v -0.45 0.15 -0.65
v -0.35 0.15 -0.65
v -0.25 0.15 -0.65
v -0.15 0.15 -0.65
v -0.75 0.15 -0.75
v -0.65 0.15 -0.75
v -0.55 0.15 -0.75
v -0.45 0.15 -0.75
v -0.35 0.15 -0.75
v -0.25 0.15 -0.75
v -0.85 0.15 -0.85
v -0.75 0.15 -0.85
v -0.55 0.15 -0.85
v -0.45 0.15 -0.85
v -0.35 0.15 -0.85
v -1.05 0.15 -0.95
v -0.85 0.15 -0.95
v -0.75 0.15 -0.95
v -0.65 0.15 -0.95
v -0.45 0.15 -0.95
v -1.15 0.15 -1.05
v -1.05 0.15 -1.05
v -0.95 0.15 -1.05
v -0.85 0.15 -1.05
v -0.75 0.15 -1.05
v -0.65 0.15 -1.05
v -1.25 0.15 -1.15
v -1.15 0.15 -1.15
v -1.05 0.15 -1.15
v -0.95 0.15 -1.15
v -0.85 0.15 -1.15
v -0.75 0.15 -1.15
v -1.35 0.15 -1.25
v -1.25 0.15 -1.25
v -1.05 0.15 -1.25
v -0.95 0.15 -1.25
v -0.85 0.15 -1.25
v -1.45 0.15 -1.35
v -1.35 0.15 -1.35
v -1.25 0.15 -1.35
v -1.15 0.15 -1.35
v -0.95 0.15 -1.35
v -1.35 0.15 -1.45
v -1.15 0.15 -1.45
v -1.45 0.15 -1.55
v -1.35 0.15 -1.55

# faces
f 4/2/1 2/2/1 1/2/1
f 5/2/1 4/2/1 3/2/1
f 6/2/1 2/2/1 4/2/1
f 6/2/1 4/2/1 5/2/1
f 7/1/1 6/1/1 5/1/1
f 8/1/1 6/1/1 7/1/1
f 12/2/1 10/2/1 9/2/1
f 13/2/1 10/2/1 12/2/1
f 14/2/1 12/2/1 11/2/1
f 15/2/1 14/2/1 11/2/1
f 16/2/1 14/2/1 15/2/1
f 20/2/1 18/2/1 17/2/1
f 21/2/1 18/2/1 20/2/1
f 22/1/1 20/1/1 19/1/1
f 23/1/1 20/1/1 22/1/1
f 24/2/1 23/2/1 22/2/1
f 25/2/1 23/2/1 24/2/1
f 29/1/1 27/1/1 26/1/1
f 30/1/1 27/1/1 29/1/1
f 31/1/1 29/1/1 28/1/1
f 32/1/1 29/1/1 31/1/1
f 33/2/1 32/2/1 31/2/1
f 34/2/1 32/2/1 33/2/1
f 39/2/1 36/2/1 35/2/1
f 40/2/1 36/2/1 39/2/1
f 42/1/1 38/1/1 37/1/1
f 43/1/1 38/1/1 42/1/1
f 44/2/1 39/2/1 35/2/1
f 45/2/1 39/2/1 44/2/1
f 47/2/1 42/2/1 41/2/1
f 48/1/1 46/1/1 45/1/1
f 48/1/1 45/1/1 44/1/1
f 49/1/1 46/1/1 48/1/1
f 50/2/1 47/2/1 41/2/1
f 51/2/1 47/2/1 50/2/1
f 54/2/1 53/2/1 52/2/1
f 55/2/1 53/2/1 54/2/1
f 61/2/1 57/2/1 56/2/1
f 62/2/1 57/2/1 61/2/1
f 63/2/1 61/2/1 60/2/1
f 64/2/1 61/2/1 63/2/1
f 66/1/1 65/1/1 64/1/1
f 67/1/1 65/1/1 66/1/1
f 68/2/1 59/2/1 58/2/1
f 69/2/1 59/2/1 68/2/1
f 74/2/1 73/2/1 72/2/1
f 75/2/1 73/2/1 74/2/1
f 76/2/1 71/2/1 70/2/1
f 77/2/1 71/2/1 76/2/1
f 80/2/1 79/2/1 78/2/1
f 81/2/1 79/2/1 80/2/1
f 82/2/1 79/2/1 81/2/1
f 85/2/1 84/2/1 83/2/1
f 86/2/1 85/2/1 83/2/1
f 87/2/1 85/2/1 86/2/1
f 90/1/1 89/1/1 88/1/1
f 91/1/1 89/1/1 90/1/1
f 92/2/1 91/2/1 90/2/1
f 93/2/1 91/2/1 92/2/1
f 96/1/1 95/1/1 94/1/1
f 97/1/1 95/1/1 96/1/1
f 99/2/1 97/2/1 96/2/1
f 99/2/1 98/2/1 97/2/1
f 100/2/1 98/2/1 99/2/1
f 105/2/1 102/2/1 101/2/1
f 106/2/1 102/2/1 105/2/1
f 107/2/1 102/2/1 106/2/1
f 109/1/1 104/1/1 103/1/1
f 110/1/1 104/1/1 109/1/1
f 112/2/1 108/2/1 107/2/1
f 112/2/1 107/2/1 106/2/1
f 113/2/1 108/2/1 112/2/1
f 114/1/1 112/1/1 111/1/1
f 115/1/1 112/1/1 114/1/1
f 116/2/1 110/2/1 109/2/1
f 117/2/1 110/2/1 116/2/1
f 122/2/1 119/2/1 118/2/1
f 123/2/1 119/2/1 122/2/1
f 125/1/1 121/1/1 120/1/1
f 126/1/1 121/1/1 125/1/1
f 129/2/1 124/2/1 123/2/1
f 130/2/1 124/2/1 129/2/1
f 131/1/1 125/1/1 120/1/1
f 132/2/1 126/2/1 125/2/1
f 132/1/1 125/1/1 131/1/1
f 133/1/1 128/1/1 127/1/1
f 134/2/1 129/2/1 128/2/1
f 134/1/1 128/1/1 133/1/1
f 135/2/1 129/2/1 134/2/1
f 136/2/1 126/2/1 132/2/1
f 137/2/1 126/2/1 136/2/1
f 142/2/1 139/2/1 138/2/1
f 143/2/1 139/2/1 142/2/1
f 146/2/1 144/2/1 143/2/1
f 147/2/1 144/2/1 146/2/1
f 148/1/1 141/1/1 140/1/1
f 149/1/1 141/1/1 148/1/1
f 151/2/1 146/2/1 145/2/1
f 152/2/1 146/2/1 151/2/1
f 153/2/1 150/2/1 149/2/1
f 154/2/1 150/2/1 153/2/1
f 160/2/1 156/2/1 155/2/1
f 160/1/1 157/1/1 156/1/1
f 161/1/1 157/1/1 160/1/1
f 162/2/1 159/2/1 158/2/1
f 163/2/1 159/2/1 162/2/1
f 164/2/1 161/2/1 160/2/1
f 164/2/1 160/2/1 155/2/1
f 165/2/1 161/2/1 164/2/1
f 168/1/1 165/1/1 164/1/1
f 169/1/1 165/1/1 168/1/1
f 170/2/1 167/2/1 166/2/1
f 171/2/1 167/2/1 170/2/1
f 174/2/1 173/2/1 172/2/1
f 175/2/1 173/2/1 174/2/1
f 180/2/1 177/2/1 176/2/1
f 182/1/1 179/1/1 178/1/1
f 183/1/1 179/1/1 182/1/1
f 184/2/1 181/2/1 180/2/1
f 184/2/1 180/2/1 176/2/1
f 185/2/1 181/2/1 184/2/1
f 188/2/1 187/2/1 186/2/1
f 189/2/1 187/2/1 188/2/1
f 196/1/1 191/1/1 190/1/1
f 197/1/1 191/1/1 196/1/1
f 198/2/1 195/2/1 194/2/1
f 199/2/1 195/2/1 198/2/1
f 200/2/1 197/2/1 196/2/1
f 201/2/1 197/2/1 200/2/1
f 202/2/1 193/2/1 192/2/1
f 203/2/1 193/2/1 202/2/1
f 210/1/1 205/1/1 204/1/1
f 211/1/1 205/1/1 210/1/1
f 212/2/1 209/2/1 208/2/1
f 213/2/1 209/2/1 212/2/1
f 214/2/1 211/2/1 210/2/1
f 215/1/1 207/1/1 206/1/1
f 216/1/1 207/1/1 215/1/1
f 219/2/1 211/2/1 214/2/1
f 220/2/1 211/2/1 219/2/1
f 221/2/1 216/2/1 215/2/1
f 222/2/1 216/2/1 221/2/1
f 223/2/1 218/2/1 217/2/1
f 224/2/1 218/2/1 223/2/1
f 229/1/1 226/1/1 225/1/1
f 230/1/1 226/1/1 229/1/1
f 231/1/1 228/1/1 227/1/1
f 232/1/1 228/1/1 231/1/1
f 233/2/1 230/2/1 229/2/1
f 234/2/1 230/2/1 233/2/1
f 235/2/1 232/2/1 231/2/1
f 236/2/1 232/2/1 235/2/1
f 239/1/1 238/1/1 237/1/1
f 240/1/1 238/1/1 239/1/1
f 241/2/1 240/2/1 239/2/1
f 242/2/1 241/2/1 239/2/1
f 243/2/1 241/2/1 242/2/1
f 246/2/1 245/2/1 244/2/1
f 247/2/1 245/2/1 246/2/1
f 248/2/1 245/2/1 247/2/1
f 249/1/1 248/1/1 247/1/1
f 250/1/1 248/1/1 249/1/1
f 253/2/1 252/2/1 251/2/1
f 254/2/1 252/2/1 253/2/1
f 256/1/1 255/1/1 254/1/1
f 257/1/1 255/1/1 256/1/1
f 260/1/1 259/1/1 258/1/1
f 261/1/1 259/1/1 260/1/1
f 262/2/2 263/2/2 264/2/2
f 264/2/2 263/2/2 265/2/2
f 266/1/2 267/1/2 268/1/2
f 268/1/2 267/1/2 269/1/2
f 270/2/2 271/2/2 272/2/2
f 272/2/2 271/2/2 273/2/2
f 274/1/2 275/1/2 276/1/2
f 276/1/2 275/1/2 277/1/2
f 278/1/2 279/1/2 280/1/2
f 280/1/2 279/1/2 281/1/2
f 282/1/2 283/1/2 284/1/2
f 284/1/2 283/1/2 285/1/2
f 285/2/2 286/2/2 287/2/2
f 287/2/2 286/2/2 288/2/2
f 289/2/2 290/2/2 291/2/2
f 289/2/2 291/2/2 292/2/2
f 292/2/2 291/2/2 293/2/2
f 292/1/2 293/1/2 296/1/2
f 296/1/2 293/1/2 297/1/2
f 294/1/2 295/1/2 298/1/2
f 298/1/2 295/1/2 299/1/2
f 300/2/2 301/2/2 302/2/2
f 302/2/2 301/2/2 303/2/2
f 303/2/2 304/2/2 306/2/2
f 306/2/2 304/2/2 307/2/2
f 305/1/2 306/1/2 308/1/2
f 308/1/2 306/1/2 309/1/2
f 312/2/2 313/2/2 314/2/2
f 314/2/2 313/2/2 315/2/2
f 310/2/2 311/2/2 317/2/2
f 317/2/2 311/2/2 318/2/2
f 315/2/2 316/2/2 320/2/2
f 320/2/2 316/2/2 321/2/2
f 317/1/2 318/1/2 322/1/2
f 322/1/2 318/1/2 323/1/2
f 319/1/2 320/1/2 324/1/2
f 324/1/2 320/1/2 325/1/2
f 326/2/2 327/2/2 328/2/2
f 328/2/2 327/2/2 329/2/2
f 329/2/2 330/2/2 332/2/2
f 332/2/2 330/2/2 333/2/2
f 331/1/2 332/1/2 334/1/2
f 334/1/2 332/1/2 335/1/2
f 336/2/2 337/2/2 338/2/2
f 338/2/2 337/2/2 339/2/2
f 339/2/2 340/2/2 341/2/2
f 341/2/2 340/2/2 342/2/2
f 343/2/2 344/2/2 347/2/2
f 347/2/2 344/2/2 348/2/2
f 345/1/2 346/1/2 349/1/2
f 349/1/2 346/1/2 350/1/2
f 351/1/2 352/1/2 353/1/2
f 353/1/2 352/1/2 354/1/2
f 354/2/2 355/2/2 357/2/2
f 357/2/2 355/2/2 358/2/2
f 356/1/2 357/1/2 359/1/2
f 359/1/2 357/1/2 360/1/2
f 361/2/2 362/2/2 363/2/2
f 363/2/2 362/2/2 364/2/2
f 364/2/2 365/2/2 367/2/2
f 367/2/2 365/2/2 368/2/2
f 366/1/2 367/1/2 369/1/2
f 369/1/2 367/1/2 370/1/2
f 371/2/2 372/2/2 373/2/2
f 373/2/2 372/2/2 374/2/2
f 374/2/2 375/2/2 377/2/2
f 377/2/2 375/2/2 378/2/2
f 376/1/2 377/1/2 379/1/2
f 379/1/2 377/1/2 380/1/2
f 383/2/2 384/2/2 385/2/2
f 385/2/2 384/2/2 386/2/2
f 381/2/2 382/2/2 388/2/2
f 388/2/2 382/2/2 389/2/2
f 386/2/2 387/2/2 391/2/2
f 391/2/2 387/2/2 392/2/2
f 388/1/2 389/1/2 393/1/2
f 393/1/2 389/1/2 394/1/2
f 390/1/2 391/1/2 395/1/2
f 395/1/2 391/1/2 396/1/2
f 397/2/2 398/2/2 399/2/2
f 399/2/2 398/2/2 400/2/2
f 399/1/2 400/1/2 401/1/2
f 401/1/2 400/1/2 402/1/2
f 405/2/2 406/2/2 407/2/2
f 407/2/2 406/2/2 408/2/2
f 403/2/2 404/2/2 410/2/2
f 410/2/2 404/2/2 411/2/2
f 408/2/2 409/2/2 413/2/2
f 413/2/2 409/2/2 414/2/2
f 410/1/2 411/1/2 415/1/2
f 415/1/2 411/1/2 416/1/2
f 412/1/2 413/1/2 417/1/2
f 417/1/2 413/1/2 418/1/2
f 419/1/2 420/1/2 423/1/2
f 423/1/2 420/1/2 424/1/2
f 421/2/2 422/2/2 425/2/2
f 425/2/2 422/2/2 426/2/2
f 423/2/2 424/2/2 428/2/2
f 428/2/2 424/2/2 429/2/2
f 426/2/2 427/2/2 431/2/2
f 431/2/2 427/2/2 432/2/2
f 428/1/2 429/1/2 433/1/2
f 433/1/2 429/1/2 434/1/2
f 430/1/2 431/1/2 435/1/2
f 435/1/2 431/1/2 436/1/2
f 437/1/2 438/1/2 439/1/2
f 439/1/2 438/1/2 440/1/2
f 440/2/2 441/2/2 443/2/2
f 443/2/2 441/2/2 444/2/2
f 442/1/2 443/1/2 445/1/2
f 445/1/2 443/1/2 446/1/2
f 447/2/2 448/2/2 450/2/2
f 450/2/2 448/2/2 451/2/2
f 449/1/2 450/1/2 452/1/2
f 452/1/2 450/1/2 453/1/2
f 454/1/2 455/1/2 456/1/2
f 456/1/2 455/1/2 457/1/2
f 458/1/2 459/1/2 462/1/2
f 462/1/2 459/1/2 463/1/2
f 460/1/2 461/1/2 464/1/2
f 464/1/2 461/1/2 465/1/2
f 466/2/2 467/2/2 468/2/2
f 468/2/2 467/2/2 469/2/2
f 469/2/2 470/2/2 471/2/2
f 471/2/2 470/2/2 472/2/2
f 473/2/2 474/2/2 477/2/2
f 477/2/2 474/2/2 478/2/2
f 475/2/2 476/2/2 479/2/2
f 479/2/2 476/2/2 480/2/2
f 477/1/2 478/1/2 482/1/2
f 482/1/2 478/1/2 483/1/2
f 480/2/2 481/2/2 486/2/2
f 486/2/2 481/2/2 487/2/2
f 483/1/2 484/1/2 488/1/2
f 488/1/2 484/1/2 489/1/2
f 485/1/2 486/1/2 490/1/2
f 490/1/2 486/1/2 491/1/2
f 492/2/2 493/2/2 494/2/2
f 494/2/2 493/2/2 495/2/2
f 494/1/2 495/1/2 498/1/2
f 498/1/2 495/1/2 499/1/2
f 496/2/2 497/2/2 502/2/2
f 502/2/2 497/2/2 503/2/2
f 499/1/2 500/1/2 504/1/2
f 504/1/2 500/1/2 505/1/2
f 501/1/2 502/1/2 506/1/2
f 506/1/2 502/1/2 507/1/2
f 508/2/2 509/2/2 513/2/2
f 509/1/2 510/1/2 513/1/2
f 513/1/2 510/1/2 514/1/2
f 511/1/2 512/1/2 515/1/2
f 515/1/2 512/1/2 516/1/2
f 513/2/2 514/2/2 517/2/2
f 508/2/2 513/2/2 517/2/2
f 517/2/2 514/2/2 518/2/2
f 518/2/2 514/2/2 519/2/2
f 519/2/2 514/2/2 520/2/2
f 518/1/2 519/1/2 523/1/2
f 519/2/2 520/2/2 524/2/2
f 523/1/2 519/1/2 524/1/2
f 524/2/2 520/2/2 525/2/2
f 521/1/2 522/1/2 526/1/2
f 526/1/2 522/1/2 527/1/2
f 530/1/2 531/1/2 532/1/2
f 532/1/2 531/1/2 533/1/2
f 528/2/2 529/2/2 535/2/2
f 535/2/2 529/2/2 536/2/2
f 533/1/2 534/1/2 540/1/2
f 540/1/2 534/1/2 541/1/2
f 535/2/2 536/2/2 542/2/2
f 536/2/2 537/2/2 542/2/2
f 542/2/2 537/2/2 543/2/2
f 538/1/2 539/1/2 544/1/2
f 544/1/2 539/1/2 545/1/2
f 550/1/2 551/1/2 552/1/2
f 552/1/2 551/1/2 553/1/2
f 546/2/2 547/2/2 555/2/2
f 555/2/2 547/2/2 556/2/2
f 548/2/2 549/2/2 557/2/2
f 557/2/2 549/2/2 558/2/2
f 558/2/2 549/2/2 559/2/2
f 553/1/2 554/1/2 561/1/2
f 561/1/2 554/1/2 562/1/2
f 555/1/2 556/1/2 563/1/2
f 563/1/2 556/1/2 564/1/2
f 559/1/2 560/1/2 565/1/2
f 558/1/2 559/1/2 565/1/2
f 565/1/2 560/1/2 566/1/2
f 569/2/2 570/2/2 571/2/2
f 571/2/2 570/2/2 572/2/2
f 567/2/2 568/2/2 574/2/2
f 574/2/2 568/2/2 575/2/2
f 572/2/2 573/2/2 576/2/2
f 576/2/2 573/2/2 577/2/2
f 574/1/2 575/1/2 578/1/2
f 578/1/2 575/1/2 579/1/2
f 580/2/2 581/2/2 584/2/2
f 584/2/2 581/2/2 585/2/2
f 582/2/2 583/2/2 586/2/2
f 586/2/2 583/2/2 587/2/2
f 584/1/2 585/1/2 588/1/2
f 588/1/2 585/1/2 589/1/2
f 590/2/2 591/2/2 592/2/2
f 592/2/2 591/2/2 593/2/2
f 592/1/2 593/1/2 594/1/2
f 594/1/2 593/1/2 595/1/2
f 599/2/3 597/2/3 596/2/3
f 599/1/3 598/1/3 597/1/3
f 600/1/3 598/1/3 599/1/3
f 601/2/3 599/2/3 596/2/3
f 602/2/3 599/2/3 601/2/3
f 603/2/3 601/2/3 596/2/3
f 604/1/3 602/1/3 601/1/3
f 604/2/3 601/2/3 603/2/3
f 605/1/3 602/1/3 604/1/3
f 608/2/3 607/2/3 606/2/3
f 609/2/3 607/2/3 608/2/3
f 612/1/3 609/1/3 608/1/3
f 613/1/3 609/1/3 612/1/3
f 614/2/3 611/2/3 610/2/3
f 615/1/3 612/1/3 611/1/3
f 615/2/3 611/2/3 614/2/3
f 616/1/3 612/1/3 615/1/3
f 621/1/3 618/1/3 617/1/3
f 622/1/3 618/1/3 621/1/3
f 623/2/3 620/2/3 619/2/3
f 623/2/3 621/2/3 620/2/3
f 624/2/3 621/2/3 623/2/3
f 627/2/3 626/2/3 625/2/3
f 629/2/3 627/2/3 625/2/3
f 630/1/3 628/1/3 627/1/3
f 630/2/3 627/2/3 629/2/3
f 631/1/3 628/1/3 630/1/3
f 634/1/3 633/1/3 632/1/3
f 635/1/3 633/1/3 634/1/3
f 638/2/3 637/2/3 636/2/3
f 639/2/3 637/2/3 638/2/3
f 641/1/3 640/1/3 639/1/3
f 642/1/3 640/1/3 641/1/3
f 645/1/3 644/1/3 643/1/3
f 646/1/3 644/1/3 645/1/3
f 650/1/3 648/1/3 647/1/3
f 651/2/3 649/2/3 648/2/3
f 651/1/3 648/1/3 650/1/3
f 652/2/3 649/2/3 651/2/3
f 654/2/3 651/2/3 650/2/3
f 654/2/3 652/2/3 651/2/3
f 655/1/3 653/1/3 652/1/3
f 655/2/3 652/2/3 654/2/3
f 656/1/3 653/1/3 655/1/3
f 661/2/3 658/2/3 657/2/3
f 661/2/3 659/2/3 658/2/3
f 662/1/3 660/1/3 659/1/3
f 662/2/3 659/2/3 661/2/3
f 663/1/3 660/1/3 662/1/3
f 667/2/3 665/2/3 664/2/3
f 668/1/3 666/1/3 665/1/3
f 668/2/3 665/2/3 667/2/3
f 669/1/3 666/1/3 668/1/3
f 673/1/3 671/1/3 670/1/3
f 674/1/3 671/1/3 673/1/3
f 675/2/3 672/2/3 671/2/3
f 675/1/3 671/1/3 674/1/3
f 676/2/3 672/2/3 675/2/3
f 680/2/3 678/2/3 677/2/3
f 681/1/3 679/1/3 678/1/3
f 681/2/3 678/2/3 680/2/3
f 682/1/3 679/1/3 681/1/3
f 686/1/3 684/1/3 683/1/3
f 687/2/3 685/2/3 684/2/3
f 687/1/3 684/1/3 686/1/3
f 688/2/3 685/2/3 687/2/3
f 691/2/3 690/2/3 689/2/3
f 692/2/3 690/2/3 691/2/3
f 693/2/3 690/2/3 692/2/3
f 696/2/3 695/2/3 694/2/3
f 697/2/3 695/2/3 696/2/3
f 701/2/3 699/2/3 698/2/3
f 701/1/3 700/1/3 699/1/3
f 702/1/3 700/1/3 701/1/3
f 703/2/3 701/2/3 698/2/3
f 703/2/3 702/2/3 701/2/3
f 704/2/3 702/2/3 703/2/3
f 707/1/3 706/1/3 705/1/3
f 708/1/3 706/1/3 707/1/3
f 711/2/3 710/2/3 709/2/3
f 712/2/3 710/2/3 711/2/3
f 713/2/3 710/2/3 712/2/3
f 714/2/3 710/2/3 713/2/3
f 718/2/3 716/2/3 715/2/3
f 719/2/3 716/2/3 718/2/3
f 719/2/3 718/2/3 717/2/3
f 720/2/3 716/2/3 719/2/3
f 721/2/3 719/2/3 717/2/3
f 722/2/3 719/2/3 721/2/3
f 723/2/3 716/2/3 720/2/3
f 724/2/3 716/2/3 723/2/3
f 727/2/3 726/2/3 725/2/3
f 728/2/3 726/2/3 727/2/3
f 729/2/3 727/2/3 725/2/3
f 730/2/3 727/2/3 729/2/3
f 733/1/3 732/1/3 731/1/3
f 734/1/3 732/1/3 733/1/3
f 736/2/3 734/2/3 733/2/3
f 736/2/3 735/2/3 734/2/3
f 737/2/3 735/2/3 736/2/3
f 738/2/3 735/2/3 737/2/3
f 739/2/3 735/2/3 738/2/3
f 742/1/3 741/1/3 740/1/3
f 743/1/3 741/1/3 742/1/3
f 745/2/3 744/2/3 743/2/3
f 746/2/3 744/2/3 745/2/3
f 749/2/3 748/2/3 747/2/3
f 750/2/3 748/2/3 749/2/3
f 754/2/3 752/2/3 751/2/3
f 755/1/3 753/1/3 752/1/3
f 755/2/3 752/2/3 754/2/3
f 756/1/3 753/1/3 755/1/3
f 760/1/3 758/1/3 757/1/3
f 761/2/3 759/2/3 758/2/3
f 761/1/3 758/1/3 760/1/3
f 762/2/3 759/2/3 761/2/3
f 767/2/3 764/2/3 763/2/3
f 768/1/3 766/1/3 765/1/3
f 769/2/3 767/2/3 763/2/3
f 769/2/3 768/2/3 767/2/3
f 770/1/3 766/1/3 768/1/3
f 770/2/3 768/2/3 769/2/3
f 771/1/3 766/1/3 770/1/3
f 774/2/3 773/2/3 772/2/3
f 775/2/3 773/2/3 774/2/3
f 779/1/3 777/1/3 776/1/3
f 780/2/3 778/2/3 777/2/3
f 780/1/3 777/1/3 779/1/3
f 781/2/3 778/2/3 780/2/3
f 785/2/3 783/2/3 782/2/3
f 786/1/3 784/1/3 783/1/3
f 786/2/3 783/2/3 785/2/3
f 787/1/3 784/1/3 786/1/3
f 790/2/3 789/2/3 788/2/3
f 791/2/3 789/2/3 790/2/3
f 792/2/3 789/2/3 791/2/3
f 795/2/3 794/2/3 793/2/3
f 796/2/3 794/2/3 795/2/3
f 799/2/3 798/2/3 797/2/3
f 800/2/3 798/2/3 799/2/3
f 804/2/3 802/2/3 801/2/3
f 805/2/3 804/2/3 803/2/3
f 806/2/3 802/2/3 804/2/3
f 806/2/3 804/2/3 805/2/3
f 811/1/3 808/1/3 807/1/3
f 812/2/3 809/2/3 808/2/3
f 812/1/3 808/1/3 811/1/3
f 813/2/3 809/2/3 812/2/3
f 814/1/3 811/1/3 810/1/3
f 815/1/3 811/1/3 814/1/3
f 820/1/3 817/1/3 816/1/3
f 821/2/3 818/2/3 817/2/3
f 821/1/3 817/1/3 820/1/3
f 822/2/3 818/2/3 821/2/3
f 823/1/3 820/1/3 819/1/3
f 824/1/3 820/1/3 823/1/3
f 828/2/3 826/2/3 825/2/3
f 829/2/3 826/2/3 828/2/3
f 830/2/3 826/2/3 829/2/3
f 831/2/3 828/2/3 827/2/3
f 832/2/3 828/2/3 831/2/3
f 837/2/3 834/2/3 833/2/3
f 838/1/3 835/1/3 834/1/3
f 838/2/3 834/2/3 837/2/3
f 839/1/3 835/1/3 838/1/3
f 840/2/3 837/2/3 836/2/3
f 841/2/3 837/2/3 840/2/3
f 844/2/3 843/2/3 842/2/3
f 845/2/3 843/2/3 844/2/3
f 846/2/4 847/2/4 850/2/4
f 847/2/4 848/2/4 850/2/4
f 848/1/4 849/1/4 851/1/4
f 850/2/4 848/2/4 851/2/4
f 851/1/4 849/1/4 852/1/4
f 853/1/4 854/1/4 857/1/4
f 854/2/4 855/2/4 858/2/4
f 857/1/4 854/1/4 858/1/4
f 855/1/4 856/1/4 859/1/4
f 858/2/4 855/2/4 859/2/4
f 859/1/4 856/1/4 860/1/4
f 861/1/4 862/1/4 864/1/4
f 864/1/4 862/1/4 865/1/4
f 862/2/4 863/2/4 866/2/4
f 865/1/4 862/1/4 866/1/4
f 866/2/4 863/2/4 867/2/4
f 868/1/4 869/1/4 871/1/4
f 869/2/4 870/2/4 872/2/4
f 871/1/4 869/1/4 872/1/4
f 872/2/4 870/2/4 873/2/4
f 874/2/4 875/2/4 877/2/4
f 875/1/4 876/1/4 878/1/4
f 877/2/4 875/2/4 878/2/4
f 878/1/4 876/1/4 879/1/4
f 880/1/4 881/1/4 883/1/4
f 881/2/4 882/2/4 884/2/4
f 883/1/4 881/1/4 884/1/4
f 884/2/4 882/2/4 885/2/4
f 886/2/4 887/2/4 889/2/4
f 887/1/4 888/1/4 890/1/4
f 889/2/4 887/2/4 890/2/4
f 890/1/4 888/1/4 891/1/4
f 892/2/4 893/2/4 895/2/4
f 893/1/4 894/1/4 896/1/4
f 895/2/4 893/2/4 896/2/4
f 896/1/4 894/1/4 897/1/4
f 898/1/4 899/1/4 900/1/4
f 900/1/4 899/1/4 901/1/4
f 902/2/4 903/2/4 905/2/4
f 903/1/4 904/1/4 906/1/4
f 905/2/4 903/2/4 906/2/4
f 906/1/4 904/1/4 907/1/4
f 908/2/4 909/2/4 910/2/4
f 910/2/4 909/2/4 911/2/4
f 911/1/4 912/1/4 913/1/4
f 913/1/4 912/1/4 914/1/4
f 915/2/4 916/2/4 917/2/4
f 917/2/4 916/2/4 918/2/4
f 919/2/4 920/2/4 922/2/4
f 922/2/4 920/2/4 923/2/4
f 921/2/4 922/2/4 925/2/4
f 925/2/4 922/2/4 926/2/4
f 923/2/4 924/2/4 927/2/4
f 927/2/4 924/2/4 928/2/4
f 929/2/4 930/2/4 932/2/4
f 932/2/4 930/2/4 933/2/4
f 931/2/4 932/2/4 935/2/4
f 935/2/4 932/2/4 936/2/4
f 933/2/4 934/2/4 937/2/4
f 937/2/4 934/2/4 938/2/4
f 937/1/4 938/1/4 939/1/4
f 939/1/4 938/1/4 940/1/4
f 941/2/4 942/2/4 944/2/4
f 944/2/4 942/2/4 945/2/4
f 943/2/4 944/2/4 945/2/4
f 943/2/4 945/2/4 947/2/4
f 945/1/4 946/1/4 947/1/4
f 947/1/4 946/1/4 948/1/4
f 943/2/4 947/2/4 949/2/4
f 947/2/4 948/2/4 949/2/4
f 949/2/4 948/2/4 950/2/4
f 943/2/4 949/2/4 951/2/4
f 951/2/4 949/2/4 952/2/4
f 950/2/4 948/2/4 953/2/4
f 953/2/4 948/2/4 954/2/4
f 955/1/4 956/1/4 959/1/4
f 959/1/4 956/1/4 960/1/4
f 957/2/4 958/2/4 961/2/4
f 961/2/4 958/2/4 962/2/4
f 962/2/4 963/2/4 964/2/4
f 964/2/4 963/2/4 965/2/4
f 966/1/4 967/1/4 970/1/4
f 970/1/4 967/1/4 971/1/4
f 968/1/4 969/1/4 972/1/4
f 972/1/4 969/1/4 973/1/4
f 973/2/4 974/2/4 975/2/4
f 975/2/4 974/2/4 976/2/4
f 977/1/4 978/1/4 981/1/4
f 981/1/4 978/1/4 982/1/4
f 979/1/4 980/1/4 983/1/4
f 983/1/4 980/1/4 984/1/4
f 984/1/4 985/1/4 986/1/4
f 986/1/4 985/1/4 987/1/4
f 988/1/4 989/1/4 992/1/4
f 990/1/4 991/1/4 993/1/4
f 993/1/4 991/1/4 994/1/4
f 988/1/4 992/1/4 995/1/4
f 992/2/4 993/2/4 996/2/4
f 995/1/4 992/1/4 996/1/4
f 996/2/4 993/2/4 997/2/4
f 996/1/4 997/1/4 998/1/4
f 998/1/4 997/1/4 999/1/4
f 1002/2/4 1003/2/4 1004/2/4
f 1004/2/4 1003/2/4 1005/2/4
f 1000/1/4 1001/1/4 1006/1/4
f 1006/1/4 1001/1/4 1007/1/4
f 1005/2/4 1006/2/4 1008/2/4
f 1008/2/4 1006/2/4 1009/2/4
f 1010/1/4 1011/1/4 1014/1/4
f 1014/1/4 1011/1/4 1015/1/4
f 1012/2/4 1013/2/4 1016/2/4
f 1016/2/4 1013/2/4 1017/2/4
f 1017/2/4 1018/2/4 1019/2/4
f 1019/2/4 1018/2/4 1020/2/4
f 1021/2/4 1022/2/4 1025/2/4
f 1025/2/4 1022/2/4 1026/2/4
f 1023/1/4 1024/1/4 1027/1/4
f 1027/1/4 1024/1/4 1028/1/4
f 1025/1/4 1026/1/4 1029/1/4
f 1026/2/4 1027/2/4 1030/2/4
f 1029/1/4 1026/1/4 1030/1/4
f 1030/2/4 1027/2/4 1031/2/4
f 1031/2/4 1027/2/4 1032/2/4
f 1033/1/4 1034/1/4 1037/1/4
f 1037/1/4 1034/1/4 1038/1/4
f 1035/1/4 1036/1/4 1039/1/4
f 1039/1/4 1036/1/4 1040/1/4
f 1038/2/4 1039/2/4 1041/2/4
f 1041/2/4 1039/2/4 1042/2/4
f 1043/2/4 1044/2/4 1045/2/4
f 1045/2/4 1044/2/4 1046/2/4
f 1047/2/4 1048/2/4 1051/2/4
f 1051/2/4 1048/2/4 1052/2/4
f 1049/1/4 1050/1/4 1053/1/4
f 1053/1/4 1050/1/4 1054/1/4
f 1052/2/4 1053/2/4 1055/2/4
f 1055/2/4 1053/2/4 1056/2/4
f 1057/2/4 1058/2/4 1061/2/4
f 1061/2/4 1058/2/4 1062/2/4
f 1059/1/4 1060/1/4 1063/1/4
f 1063/1/4 1060/1/4 1064/1/4
f 1062/2/4 1063/2/4 1065/2/4
f 1065/2/4 1063/2/4 1066/2/4
f 1067/2/4 1068/2/4 1071/2/4
f 1071/2/4 1068/2/4 1072/2/4
f 1069/1/4 1070/1/4 1073/1/4
f 1073/1/4 1070/1/4 1074/1/4
f 1072/2/4 1073/2/4 1075/2/4
f 1075/2/4 1073/2/4 1076/2/4
f 1077/2/4 1078/2/4 1081/2/4
f 1079/1/4 1080/1/4 1082/1/4
f 1077/2/4 1081/2/4 1083/2/4
f 1081/2/4 1082/2/4 1083/2/4
f 1082/1/4 1080/1/4 1084/1/4
f 1083/2/4 1082/2/4 1084/2/4
f 1084/1/4 1080/1/4 1085/1/4
f 1086/2/4 1087/2/4 1090/2/4
f 1090/2/4 1087/2/4 1091/2/4
f 1088/1/4 1089/1/4 1092/1/4
f 1092/1/4 1089/1/4 1093/1/4
f 1091/2/4 1092/2/4 1094/2/4
f 1094/2/4 1092/2/4 1095/2/4
f 1096/2/4 1097/2/4 1100/2/4
f 1100/2/4 1097/2/4 1101/2/4
f 1098/1/4 1099/1/4 1102/1/4
f 1102/1/4 1099/1/4 1103/1/4
f 1101/2/4 1102/2/4 1104/2/4
f 1104/2/4 1102/2/4 1105/2/4
f 1106/2/4 1107/2/4 1110/2/4
f 1110/2/4 1107/2/4 1111/2/4
f 1108/1/4 1109/1/4 1112/1/4
f 1112/1/4 1109/1/4 1113/1/4
f 1111/2/4 1112/2/4 1114/2/4
f 1114/2/4 1112/2/4 1115/2/4
f 1116/2/4 1117/2/4 1118/2/4
f 1118/2/4 1117/2/4 1119/2/4
f 1118/1/4 1119/1/4 1122/1/4
f 1122/1/4 1119/1/4 1123/1/4
f 1120/1/4 1121/1/4 1124/1/4
f 1124/1/4 1121/1/4 1125/1/4
f 1123/2/4 1124/2/4 1126/2/4
f 1126/2/4 1124/2/4 1127/2/4
f 1128/2/4 1129/2/4 1132/2/4
f 1132/2/4 1129/2/4 1133/2/4
f 1130/1/4 1131/1/4 1134/1/4
f 1133/2/4 1134/2/4 1135/2/4
f 1134/1/4 1131/1/4 1135/1/4
f 1135/1/4 1131/1/4 1136/1/4
f 1133/2/4 1135/2/4 1137/2/4
f 1137/2/4 1135/2/4 1138/2/4
f 1139/2/4 1140/2/4 1143/2/4
f 1143/2/4 1140/2/4 1144/2/4
f 1141/1/4 1142/1/4 1145/1/4
f 1145/1/4 1142/1/4 1146/1/4
f 1144/2/4 1145/2/4 1147/2/4
f 1147/2/4 1145/2/4 1148/2/4
f 1149/2/4 1150/2/4 1153/2/4
f 1153/2/4 1150/2/4 1154/2/4
f 1151/1/4 1152/1/4 1155/1/4
f 1155/1/4 1152/1/4 1156/1/4
f 1154/2/4 1155/2/4 1157/2/4
f 1157/2/4 1155/2/4 1158/2/4
f 1159/2/4 1160/2/4 1163/2/4
f 1163/2/4 1160/2/4 1164/2/4
f 1161/1/4 1162/1/4 1165/1/4
f 1165/1/4 1162/1/4 1166/1/4
f 1164/2/4 1165/2/4 1167/2/4
f 1167/2/4 1165/2/4 1168/2/4
f 1169/1/4 1170/1/4 1173/1/4
f 1173/1/4 1170/1/4 1174/1/4
f 1171/1/4 1172/1/4 1175/1/4
f 1174/2/4 1175/2/4 1176/2/4
f 1175/1/4 1172/1/4 1176/1/4
f 1176/1/4 1172/1/4 1177/1/4
f 1174/2/4 1176/2/4 1178/2/4
f 1178/2/4 1176/2/4 1179/2/4
f 1180/2/4 1181/2/4 1184/2/4
f 1184/2/4 1181/2/4 1185/2/4
f 1182/1/4 1183/1/4 1186/1/4
f 1184/1/4 1185/1/4 1187/1/4
f 1185/2/4 1186/2/4 1188/2/4
f 1187/1/4 1185/1/4 1188/1/4
f 1186/1/4 1183/1/4 1189/1/4
f 1188/2/4 1186/2/4 1189/2/4
f 1189/1/4 1183/1/4 1190/1/4
f 1188/2/4 1189/2/4 1191/2/4
f 1191/2/4 1189/2/4 1192/2/4
f 1193/2/4 1194/2/4 1196/2/4
f 1196/2/4 1194/2/4 1197/2/4
f 1194/1/4 1195/1/4 1198/1/4
f 1197/2/4 1194/2/4 1198/2/4
f 1198/1/4 1195/1/4 1199/1/4
f 1197/2/4 1198/2/4 1200/2/4
f 1200/2/4 1198/2/4 1201/2/4
f 1204/2/5 1203/2/5 1202/2/5
f 1205/2/5 1203/2/5 1204/2/5
f 1206/2/5 1203/2/5 1205/2/5
f 1207/2/5 1203/2/5 1206/2/5
f 1208/2/5 1203/2/5 1207/2/5
f 1210/1/5 1205/1/5 1204/1/5
f 1211/1/5 1205/1/5 1210/1/5
f 1212/1/5 1207/1/5 1206/1/5
f 1213/2/5 1209/2/5 1208/2/5
f 1213/1/5 1207/1/5 1212/1/5
f 1213/2/5 1208/2/5 1207/2/5
f 1214/2/5 1209/2/5 1213/2/5
f 1215/2/5 1209/2/5 1214/2/5
f 1219/1/5 1214/1/5 1213/1/5
f 1220/2/5 1216/2/5 1215/2/5
f 1220/1/5 1214/1/5 1219/1/5
f 1220/2/5 1215/2/5 1214/2/5
f 1221/2/5 1216/2/5 1220/2/5
f 1223/2/5 1218/2/5 1217/2/5
f 1224/2/5 1218/2/5 1223/2/5
f 1225/2/5 1218/2/5 1224/2/5
f 1226/1/5 1221/1/5 1220/1/5
f 1227/2/5 1216/2/5 1221/2/5
f 1227/1/5 1221/1/5 1226/1/5
f 1228/2/5 1216/2/5 1227/2/5
f 1229/2/5 1224/2/5 1223/2/5
f 1229/2/5 1223/2/5 1222/2/5
f 1230/2/5 1224/2/5 1229/2/5
f 1234/1/5 1228/1/5 1227/1/5
f 1235/2/5 1229/2/5 1222/2/5
f 1236/2/5 1229/2/5 1235/2/5
f 1237/2/5 1229/2/5 1236/2/5
f 1238/1/5 1232/1/5 1231/1/5
f 1239/2/5 1233/2/5 1232/2/5
f 1239/1/5 1232/1/5 1238/1/5
f 1240/2/5 1233/2/5 1239/2/5
f 1243/1/5 1234/1/5 1227/1/5
f 1244/2/5 1235/2/5 1234/2/5
f 1244/2/5 1236/2/5 1235/2/5
f 1244/1/5 1234/1/5 1243/1/5
f 1245/2/5 1236/2/5 1244/2/5
f 1246/2/5 1236/2/5 1245/2/5
f 1247/2/5 1241/2/5 1240/2/5
f 1247/2/5 1240/2/5 1239/2/5
f 1250/1/5 1243/1/5 1242/1/5
f 1251/2/5 1245/2/5 1244/2/5
f 1251/2/5 1244/2/5 1243/2/5
f 1251/1/5 1243/1/5 1250/1/5
f 1252/2/5 1248/2/5 1247/2/5
f 1252/2/5 1247/2/5 1239/2/5
f 1253/2/5 1248/2/5 1252/2/5
f 1255/1/5 1250/1/5 1249/1/5
f 1256/2/5 1251/2/5 1250/2/5
f 1256/1/5 1250/1/5 1255/1/5
f 1257/2/5 1245/2/5 1251/2/5
f 1257/2/5 1251/2/5 1256/2/5
f 1259/2/5 1248/2/5 1253/2/5
f 1260/2/5 1248/2/5 1259/2/5
f 1261/2/5 1248/2/5 1260/2/5
f 1262/2/5 1256/2/5 1255/2/5
f 1262/2/5 1258/2/5 1257/2/5
f 1262/2/5 1255/2/5 1254/2/5
f 1262/2/5 1257/2/5 1256/2/5
f 1263/2/5 1261/2/5 1260/2/5
f 1263/2/5 1262/2/5 1261/2/5
f 1264/2/5 1262/2/5 1263/2/5
f 1265/2/5 1258/2/5 1262/2/5
f 1265/2/5 1262/2/5 1264/2/5
f 1267/2/5 1265/2/5 1264/2/5
f 1267/2/5 1266/2/5 1265/2/5
f 1268/2/5 1266/2/5 1267/2/5
f 1269/2/5 1266/2/5 1268/2/5
f 1270/2/5 1266/2/5 1269/2/5
f 1271/2/5 1266/2/5 1270/2/5
f 1272/2/5 1269/2/5 1268/2/5
f 1273/1/5 1270/1/5 1269/1/5
f 1273/2/5 1269/2/5 1272/2/5
f 1274/1/5 1270/1/5 1273/1/5
f 1276/2/5 1272/2/5 1268/2/5
f 1277/2/5 1272/2/5 1276/2/5
f 1278/1/5 1273/1/5 1272/1/5
f 1278/2/5 1272/2/5 1277/2/5
f 1279/1/5 1273/1/5 1278/1/5
f 1281/2/5 1277/2/5 1276/2/5
f 1281/2/5 1276/2/5 1275/2/5
f 1282/1/5 1278/1/5 1277/1/5
f 1282/2/5 1277/2/5 1281/2/5
f 1283/1/5 1278/1/5 1282/1/5
f 1286/2/5 1281/2/5 1280/2/5
f 1286/2/5 1282/2/5 1281/2/5
f 1287/2/5 1282/2/5 1286/2/5
f 1288/2/5 1282/2/5 1287/2/5
f 1290/1/5 1285/1/5 1284/1/5
f 1291/2/5 1286/2/5 1285/2/5
f 1291/2/5 1287/2/5 1286/2/5
f 1291/1/5 1285/1/5 1290/1/5
f 1292/2/5 1287/2/5 1291/2/5
f 1293/2/5 1287/2/5 1292/2/5
f 1294/2/5 1287/2/5 1293/2/5
f 1295/2/5 1291/2/5 1290/2/5
f 1295/2/5 1292/2/5 1291/2/5
f 1296/2/5 1292/2/5 1295/2/5
f 1297/1/5 1293/1/5 1292/1/5
f 1297/2/5 1292/2/5 1296/2/5
f 1298/1/5 1293/1/5 1297/1/5
f 1302/1/5 1290/1/5 1289/1/5
f 1303/2/5 1295/2/5 1290/2/5
f 1303/1/5 1290/1/5 1302/1/5
f 1304/1/5 1296/1/5 1295/1/5
f 1304/2/5 1295/2/5 1303/2/5
f 1305/1/5 1296/1/5 1304/1/5
f 1306/2/5 1300/2/5 1299/2/5
f 1311/1/5 1302/1/5 1301/1/5
f 1312/2/5 1303/2/5 1302/2/5
f 1312/2/5 1304/2/5 1303/2/5
f 1312/1/5 1302/1/5 1311/1/5
f 1313/2/5 1304/2/5 1312/2/5
f 1314/2/5 1304/2/5 1313/2/5
f 1315/2/5 1306/2/5 1299/2/5
f 1315/2/5 1307/2/5 1306/2/5
f 1316/2/5 1307/2/5 1315/2/5
f 1317/2/5 1307/2/5 1316/2/5
f 1318/2/5 1309/2/5 1308/2/5
f 1319/2/5 1309/2/5 1318/2/5
f 1320/1/5 1311/1/5 1310/1/5
f 1321/2/5 1313/2/5 1312/2/5
f 1321/2/5 1312/2/5 1311/2/5
f 1321/1/5 1311/1/5 1320/1/5
f 1322/2/5 1313/2/5 1321/2/5
f 1323/2/5 1313/2/5 1322/2/5
f 1324/2/5 1319/2/5 1318/2/5
f 1324/2/5 1317/2/5 1316/2/5
f 1324/2/5 1322/2/5 1321/2/5
f 1324/2/5 1321/2/5 1320/2/5
f 1324/2/5 1318/2/5 1317/2/5
f 1324/2/5 1320/2/5 1319/2/5
f 1325/2/5 1322/2/5 1324/2/5
f 1326/2/5 1322/2/5 1325/2/5
f 1327/2/5 1322/2/5 1326/2/5
f 1328/2/5 1326/2/5 1325/2/5
f 1329/2/5 1326/2/5 1328/2/5
f 1331/2/5 1328/2/5 1325/2/5
f 1332/2/5 1328/2/5 1331/2/5
f 1333/2/5 1328/2/5 1332/2/5
f 1334/2/5 1328/2/5 1333/2/5
f 1336/2/5 1331/2/5 1330/2/5
f 1336/2/5 1332/2/5 1331/2/5
f 1337/2/5 1332/2/5 1336/2/5
f 1338/1/5 1333/1/5 1332/1/5
f 1338/2/5 1332/2/5 1337/2/5
f 1339/1/5 1333/1/5 1338/1/5
f 1341/2/5 1337/2/5 1336/2/5
f 1341/2/5 1336/2/5 1335/2/5
f 1342/2/5 1337/2/5 1341/2/5
f 1343/2/5 1337/2/5 1342/2/5
f 1345/2/5 1341/2/5 1340/2/5
f 1345/2/5 1342/2/5 1341/2/5
f 1346/2/5 1342/2/5 1345/2/5
f 1347/2/5 1342/2/5 1346/2/5
f 1349/1/5 1345/1/5 1344/1/5
f 1350/2/5 1346/2/5 1345/2/5
f 1350/1/5 1345/1/5 1349/1/5
f 1351/2/5 1346/2/5 1350/2/5
f 1352/2/5 1346/2/5 1351/2/5
f 1354/1/5 1349/1/5 1348/1/5
f 1355/2/5 1350/2/5 1349/2/5
f 1355/2/5 1351/2/5 1350/2/5
f 1355/1/5 1349/1/5 1354/1/5
f 1356/2/5 1351/2/5 1355/2/5
f 1358/2/5 1354/2/5 1353/2/5
f 1359/1/5 1355/1/5 1354/1/5
f 1359/2/5 1354/2/5 1358/2/5
f 1360/1/5 1355/1/5 1359/1/5
f 1362/2/5 1358/2/5 1357/2/5
f 1363/1/5 1359/1/5 1358/1/5
f 1363/2/5 1358/2/5 1362/2/5
f 1364/1/5 1359/1/5 1363/1/5
f 1365/2/5 1362/2/5 1361/2/5
f 1366/2/5 1362/2/5 1365/2/5
f 1369/2/5 1368/2/5 1367/2/5
f 1370/2/5 1368/2/5 1369/2/5
f 1373/2/5 1372/2/5 1371/2/5
f 1374/2/5 1372/2/5 1373/2/5
f 1376/2/5 1375/2/5 1374/2/5
f 1377/2/5 1375/2/5 1376/2/5
f 1381/2/5 1378/2/5 1377/2/5
f 1382/2/5 1378/2/5 1381/2/5
f 1386/2/5 1380/2/5 1379/2/5
f 1387/2/5 1380/2/5 1386/2/5
f 1389/2/5 1386/2/5 1385/2/5
f 1390/2/5 1386/2/5 1389/2/5
f 1393/2/5 1384/2/5 1383/2/5
f 1394/2/5 1384/2/5 1393/2/5
f 1396/1/5 1389/1/5 1388/1/5
f 1397/1/5 1389/1/5 1396/1/5
f 1398/2/5 1392/2/5 1391/2/5
f 1399/2/5 1392/2/5 1398/2/5
f 1402/1/5 1396/1/5 1395/1/5
f 1403/1/5 1396/1/5 1402/1/5
f 1405/2/5 1401/2/5 1400/2/5
f 1406/2/5 1401/2/5 1405/2/5
f 1408/2/5 1405/2/5 1404/2/5
f 1409/2/5 1405/2/5 1408/2/5
f 1412/2/5 1408/2/5 1407/2/5
f 1413/2/5 1408/2/5 1412/2/5
f 1415/2/5 1411/2/5 1410/2/5
f 1416/2/5 1411/2/5 1415/2/5
f 1418/2/5 1415/2/5 1414/2/5
f 1419/2/5 1415/2/5 1418/2/5
f 1421/2/5 1418/2/5 1417/2/5
f 1422/2/5 1418/2/5 1421/2/5
f 1424/2/5 1421/2/5 1420/2/5
f 1425/2/5 1421/2/5 1424/2/5
f 1427/2/5 1424/2/5 1423/2/5
f 1428/2/5 1424/2/5 1427/2/5
f 1430/2/5 1427/2/5 1426/2/5
f 1431/2/5 1427/2/5 1430/2/5
f 1434/2/5 1430/2/5 1429/2/5
f 1435/2/5 1430/2/5 1434/2/5
f 1439/2/5 1433/2/5 1432/2/5
f 1439/2/5 1434/2/5 1433/2/5
f 1440/2/5 1434/2/5 1439/2/5
f 1442/2/5 1437/2/5 1436/2/5
f 1443/2/5 1437/2/5 1442/2/5
f 1445/2/5 1439/2/5 1438/2/5
f 1446/2/5 1439/2/5 1445/2/5
f 1448/1/5 1442/1/5 1441/1/5
f 1449/1/5 1442/1/5 1448/1/5
f 1451/2/5 1445/2/5 1444/2/5
f 1452/2/5 1445/2/5 1451/2/5
f 1454/1/5 1448/1/5 1447/1/5
f 1455/1/5 1448/1/5 1454/1/5
f 1457/2/5 1451/2/5 1450/2/5
f 1458/2/5 1451/2/5 1457/2/5
f 1460/2/5 1454/2/5 1453/2/5
f 1461/2/5 1454/2/5 1460/2/5
f 1463/2/5 1457/2/5 1456/2/5
f 1464/2/5 1457/2/5 1463/2/5
f 1465/2/5 1460/2/5 1459/2/5
f 1466/2/5 1460/2/5 1465/2/5
f 1468/2/5 1463/2/5 1462/2/5
f 1469/2/5 1463/2/5 1468/2/5
f 1470/2/5 1467/2/5 1466/2/5
f 1471/2/5 1467/2/5 1470/2/5
f 1475/1/5 1473/1/5 1472/1/5
f 1475/1/5 1474/1/5 1473/1/5
f 1476/1/5 1474/1/5 1475/1/5
f 1478/1/5 1477/1/5 1476/1/5
f 1479/1/5 1477/1/5 1478/1/5
f 1480/2/6 1481/2/6 1483/2/6
f 1481/2/6 1482/2/6 1483/2/6
f 1483/2/6 1482/2/6 1484/2/6
f 1484/2/6 1485/2/6 1486/2/6
f 1486/2/6 1485/2/6 1487/2/6
f 1488/2/6 1489/2/6 1491/2/6
f 1489/1/6 1490/1/6 1492/1/6
f 1491/2/6 1489/2/6 1492/2/6
f 1492/1/6 1490/1/6 1493/1/6
f 1493/1/6 1494/1/6 1495/1/6
f 1495/1/6 1494/1/6 1496/1/6
f 1496/2/6 1497/2/6 1500/2/6
f 1500/2/6 1497/2/6 1501/2/6
f 1498/2/6 1499/2/6 1503/2/6
f 1503/2/6 1499/2/6 1504/2/6
f 1502/2/6 1503/2/6 1505/2/6
f 1505/2/6 1503/2/6 1506/2/6
f 1507/2/6 1508/2/6 1509/2/6
f 1509/2/6 1508/2/6 1510/2/6
f 1510/2/6 1511/2/6 1512/2/6
f 1510/2/6 1512/2/6 1515/2/6
f 1515/2/6 1512/2/6 1516/2/6
f 1513/2/6 1514/2/6 1518/2/6
f 1518/2/6 1514/2/6 1519/2/6
f 1516/2/6 1517/2/6 1520/2/6
f 1520/2/6 1517/2/6 1521/2/6
f 1522/2/6 1523/2/6 1526/2/6
f 1521/2/6 1522/2/6 1526/2/6
f 1526/2/6 1523/2/6 1527/2/6
f 1524/2/6 1525/2/6 1531/2/6
f 1531/2/6 1525/2/6 1532/2/6
f 1532/2/6 1525/2/6 1533/2/6
f 1530/2/6 1531/2/6 1535/2/6
f 1531/2/6 1532/2/6 1535/2/6
f 1535/2/6 1532/2/6 1536/2/6
f 1536/2/6 1532/2/6 1537/2/6
f 1528/2/6 1529/2/6 1538/2/6
f 1538/2/6 1529/2/6 1539/2/6
f 1534/2/6 1535/2/6 1541/2/6
f 1535/1/6 1536/1/6 1542/1/6
f 1541/2/6 1535/2/6 1542/2/6
f 1542/1/6 1536/1/6 1543/1/6
f 1540/2/6 1541/2/6 1547/2/6
f 1541/1/6 1542/1/6 1548/1/6
f 1547/2/6 1541/2/6 1548/2/6
f 1548/1/6 1542/1/6 1549/1/6
f 1544/2/6 1545/2/6 1552/2/6
f 1552/2/6 1545/2/6 1553/2/6
f 1546/2/6 1547/2/6 1555/2/6
f 1555/2/6 1547/2/6 1556/2/6
f 1550/1/6 1551/1/6 1558/1/6
f 1558/1/6 1551/1/6 1559/1/6
f 1554/2/6 1555/2/6 1561/2/6
f 1561/2/6 1555/2/6 1562/2/6
f 1562/2/6 1555/2/6 1563/2/6
f 1557/1/6 1558/1/6 1564/1/6
f 1564/1/6 1558/1/6 1565/1/6
f 1561/2/6 1562/2/6 1567/2/6
f 1560/2/6 1561/2/6 1567/2/6
f 1567/2/6 1562/2/6 1568/2/6
f 1566/2/6 1567/2/6 1570/2/6
f 1570/2/6 1567/2/6 1571/2/6
f 1569/2/6 1570/2/6 1573/2/6
f 1573/2/6 1570/2/6 1574/2/6
f 1572/2/6 1573/2/6 1576/2/6
f 1576/2/6 1573/2/6 1577/2/6
f 1575/2/6 1576/2/6 1579/2/6
f 1579/2/6 1576/2/6 1580/2/6
f 1578/2/6 1579/2/6 1582/2/6
f 1582/2/6 1579/2/6 1583/2/6
f 1581/2/6 1582/2/6 1585/2/6
f 1585/2/6 1582/2/6 1586/2/6
f 1584/2/6 1585/2/6 1588/2/6
f 1588/2/6 1585/2/6 1589/2/6
f 1587/2/6 1588/2/6 1592/2/6
f 1592/2/6 1588/2/6 1593/2/6
f 1590/2/6 1591/2/6 1595/2/6
f 1595/2/6 1591/2/6 1596/2/6
f 1594/2/6 1595/2/6 1598/2/6
f 1598/2/6 1595/2/6 1599/2/6
f 1597/2/6 1598/2/6 1601/2/6
f 1601/2/6 1598/2/6 1602/2/6
f 1600/2/6 1601/2/6 1605/2/6
f 1605/2/6 1601/2/6 1606/2/6
f 1603/2/6 1604/2/6 1609/2/6
f 1609/2/6 1604/2/6 1610/2/6
f 1607/2/6 1608/2/6 1611/2/6
f 1611/2/6 1608/2/6 1612/2/6
f 1613/1/6 1614/1/6 1615/1/6
f 1615/1/6 1614/1/6 1616/1/6
f 1613/1/6 1615/1/6 1619/1/6
f 1619/1/6 1615/1/6 1620/1/6
f 1616/2/6 1617/2/6 1621/2/6
f 1617/1/6 1618/1/6 1622/1/6
f 1621/2/6 1617/2/6 1622/2/6
f 1622/1/6 1618/1/6 1623/1/6
f 1622/2/6 1623/2/6 1627/2/6
f 1623/1/6 1624/1/6 1628/1/6
f 1627/2/6 1623/2/6 1628/2/6
f 1628/1/6 1624/1/6 1629/1/6
f 1625/1/6 1626/1/6 1632/1/6
f 1632/1/6 1626/1/6 1633/1/6
f 1633/1/6 1626/1/6 1634/1/6
f 1628/2/6 1629/2/6 1635/2/6
f 1629/1/6 1630/1/6 1636/1/6
f 1635/2/6 1629/2/6 1636/2/6
f 1636/1/6 1630/1/6 1637/1/6
f 1632/1/6 1633/1/6 1639/1/6
f 1631/1/6 1632/1/6 1639/1/6
f 1639/1/6 1633/1/6 1640/1/6
f 1640/1/6 1633/1/6 1641/1/6
f 1636/2/6 1637/2/6 1644/2/6
f 1638/1/6 1639/1/6 1645/1/6
f 1639/1/6 1640/1/6 1645/1/6
f 1645/1/6 1640/1/6 1646/1/6
f 1646/1/6 1640/1/6 1647/1/6
f 1642/1/6 1643/1/6 1648/1/6
f 1636/2/6 1644/2/6 1651/2/6
f 1644/1/6 1645/1/6 1652/1/6
f 1645/1/6 1646/1/6 1652/1/6
f 1651/2/6 1644/2/6 1652/2/6
f 1652/1/6 1646/1/6 1653/1/6
f 1653/1/6 1646/1/6 1654/1/6
f 1648/1/6 1649/1/6 1655/1/6
f 1642/1/6 1648/1/6 1655/1/6
f 1655/1/6 1649/1/6 1656/1/6
f 1656/1/6 1649/1/6 1657/1/6
f 1650/2/6 1651/2/6 1660/2/6
f 1652/2/6 1653/2/6 1660/2/6
f 1651/2/6 1652/2/6 1660/2/6
f 1660/2/6 1653/2/6 1661/2/6
f 1657/1/6 1658/1/6 1662/1/6
f 1656/1/6 1657/1/6 1662/1/6
f 1662/1/6 1658/1/6 1663/1/6
f 1659/2/6 1660/2/6 1665/2/6
f 1660/1/6 1661/1/6 1666/1/6
f 1665/2/6 1660/2/6 1666/2/6
f 1662/2/6 1663/2/6 1667/2/6
f 1663/1/6 1658/1/6 1668/1/6
f 1667/2/6 1663/2/6 1668/2/6
f 1668/1/6 1658/1/6 1669/1/6
f 1664/2/6 1665/2/6 1671/2/6
f 1665/1/6 1666/1/6 1672/1/6
f 1671/2/6 1665/2/6 1672/2/6
f 1661/2/6 1653/2/6 1673/2/6
f 1672/1/6 1666/1/6 1673/1/6
f 1666/1/6 1661/1/6 1673/1/6
f 1673/2/6 1653/2/6 1674/2/6
f 1668/2/6 1669/2/6 1676/2/6
f 1669/1/6 1670/1/6 1677/1/6
f 1676/2/6 1669/2/6 1677/2/6
f 1677/1/6 1670/1/6 1678/1/6
f 1671/2/6 1672/2/6 1679/2/6
f 1670/2/6 1671/2/6 1679/2/6
f 1673/2/6 1674/2/6 1679/2/6
f 1672/2/6 1673/2/6 1679/2/6
f 1674/1/6 1675/1/6 1680/1/6
f 1679/2/6 1674/2/6 1680/2/6
f 1678/1/6 1670/1/6 1681/1/6
f 1670/2/6 1679/2/6 1682/2/6
f 1681/1/6 1670/1/6 1682/1/6
f 1682/2/6 1679/2/6 1683/2/6
f 1683/2/6 1679/2/6 1684/2/6
f 1679/1/6 1680/1/6 1685/1/6
f 1684/2/6 1679/2/6 1685/2/6
f 1680/1/6 1675/1/6 1686/1/6
f 1685/1/6 1680/1/6 1686/1/6
f 1686/1/6 1675/1/6 1687/1/6
f 1683/2/6 1684/2/6 1688/2/6
f 1684/1/6 1685/1/6 1689/1/6
f 1688/2/6 1684/2/6 1689/2/6
f 1685/1/6 1686/1/6 1689/1/6
f 1689/1/6 1686/1/6 1690/1/6
f 1690/1/6 1686/1/6 1691/1/6
f 1683/2/6 1688/2/6 1693/2/6
f 1688/1/6 1689/1/6 1694/1/6
f 1689/1/6 1690/1/6 1694/1/6
f 1693/2/6 1688/2/6 1694/2/6
f 1694/1/6 1690/1/6 1695/1/6
f 1695/1/6 1690/1/6 1696/1/6
f 1692/2/6 1693/2/6 1697/2/6
f 1693/1/6 1694/1/6 1698/1/6
f 1697/2/6 1693/2/6 1698/2/6
f 1694/1/6 1695/1/6 1698/1/6
f 1698/1/6 1695/1/6 1699/1/6
f 1699/1/6 1695/1/6 1700/1/6
f 1692/2/6 1697/2/6 1702/2/6
f 1697/1/6 1698/1/6 1703/1/6
f 1698/1/6 1699/1/6 1703/1/6
f 1702/2/6 1697/2/6 1703/2/6
f 1703/1/6 1699/1/6 1704/1/6
f 1704/1/6 1699/1/6 1705/1/6
f 1701/2/6 1702/2/6 1707/2/6
f 1707/2/6 1702/2/6 1708/2/6
f 1702/1/6 1703/1/6 1709/1/6
f 1708/2/6 1702/2/6 1709/2/6
f 1703/1/6 1704/1/6 1709/1/6
f 1709/1/6 1704/1/6 1710/1/6
f 1710/1/6 1704/1/6 1711/1/6
f 1707/2/6 1708/2/6 1713/2/6
f 1706/2/6 1707/2/6 1713/2/6
f 1713/2/6 1708/2/6 1714/2/6
f 1709/1/6 1710/1/6 1715/1/6
f 1714/2/6 1708/2/6 1715/2/6
f 1708/1/6 1709/1/6 1715/1/6
f 1715/1/6 1710/1/6 1716/1/6
f 1716/1/6 1710/1/6 1717/1/6
f 1713/2/6 1714/2/6 1721/2/6
f 1712/2/6 1713/2/6 1721/2/6
f 1721/2/6 1714/2/6 1722/2/6
f 1714/1/6 1715/1/6 1723/1/6
f 1722/2/6 1714/2/6 1723/2/6
f 1715/1/6 1716/1/6 1723/1/6
f 1723/1/6 1716/1/6 1724/1/6
f 1724/1/6 1716/1/6 1725/1/6
f 1718/1/6 1719/1/6 1726/1/6
f 1721/2/6 1722/2/6 1731/2/6
f 1720/2/6 1721/2/6 1731/2/6
f 1722/1/6 1723/1/6 1732/1/6
f 1723/1/6 1724/1/6 1732/1/6
f 1731/2/6 1722/2/6 1732/2/6
f 1732/1/6 1724/1/6 1733/1/6
f 1733/1/6 1724/1/6 1734/1/6
f 1726/1/6 1727/1/6 1735/1/6
f 1718/1/6 1726/1/6 1735/1/6
f 1735/1/6 1727/1/6 1736/1/6
f 1736/1/6 1727/1/6 1737/1/6
f 1728/2/6 1729/2/6 1738/2/6
f 1738/2/6 1729/2/6 1739/2/6
f 1730/2/6 1731/2/6 1740/2/6
f 1740/2/6 1731/2/6 1741/2/6
f 1732/1/6 1733/1/6 1742/1/6
f 1741/2/6 1731/2/6 1742/2/6
f 1731/1/6 1732/1/6 1742/1/6
f 1742/1/6 1733/1/6 1743/1/6
f 1743/1/6 1733/1/6 1744/1/6
f 1736/1/6 1737/1/6 1745/1/6
f 1738/1/6 1739/1/6 1745/1/6
f 1737/1/6 1738/1/6 1745/1/6
f 1745/1/6 1739/1/6 1746/1/6
f 1740/2/6 1741/2/6 1747/2/6
f 1746/1/6 1739/1/6 1747/1/6
f 1739/2/6 1740/2/6 1747/2/6
f 1747/2/6 1741/2/6 1748/2/6
f 1742/1/6 1743/1/6 1749/1/6
f 1748/2/6 1741/2/6 1749/2/6
f 1741/1/6 1742/1/6 1749/1/6
f 1749/1/6 1743/1/6 1750/1/6
f 1750/1/6 1743/1/6 1751/1/6
f 1747/2/6 1748/2/6 1752/2/6
f 1746/2/6 1747/2/6 1752/2/6
f 1749/1/6 1750/1/6 1753/1/6
f 1752/2/6 1748/2/6 1753/2/6
f 1748/1/6 1749/1/6 1753/1/6
f 1753/1/6 1750/1/6 1754/1/6
f 1754/1/6 1750/1/6 1755/1/6
f 1746/2/6 1752/2/6 1757/2/6
f 1757/2/6 1752/2/6 1758/2/6
f 1752/1/6 1753/1/6 1759/1/6
f 1758/2/6 1752/2/6 1759/2/6
f 1753/1/6 1754/1/6 1759/1/6
f 1759/1/6 1754/1/6 1760/1/6
f 1760/1/6 1754/1/6 1761/1/6
f 1757/2/6 1758/2/6 1763/2/6
f 1756/2/6 1757/2/6 1763/2/6
f 1759/1/6 1760/1/6 1764/1/6
f 1758/1/6 1759/1/6 1764/1/6
f 1763/2/6 1758/2/6 1764/2/6
f 1764/1/6 1760/1/6 1765/1/6
f 1765/1/6 1760/1/6 1766/1/6
f 1762/2/6 1763/2/6 1768/2/6
f 1763/1/6 1764/1/6 1769/1/6
f 1764/1/6 1765/1/6 1769/1/6
f 1768/2/6 1763/2/6 1769/2/6
f 1769/1/6 1765/1/6 1770/1/6
f 1770/1/6 1765/1/6 1771/1/6
f 1767/2/6 1768/2/6 1773/2/6
f 1773/2/6 1768/2/6 1774/2/6
f 1768/1/6 1769/1/6 1775/1/6
f 1774/2/6 1768/2/6 1775/2/6
f 1769/1/6 1770/1/6 1775/1/6
f 1775/1/6 1770/1/6 1776/1/6
f 1776/1/6 1770/1/6 1777/1/6
f 1773/2/6 1774/2/6 1779/2/6
f 1772/2/6 1773/2/6 1779/2/6
f 1779/2/6 1774/2/6 1780/2/6
f 1775/1/6 1776/1/6 1781/1/6
f 1780/2/6 1774/2/6 1781/2/6
f 1774/1/6 1775/1/6 1781/1/6
f 1781/1/6 1776/1/6 1782/1/6
f 1782/1/6 1776/1/6 1783/1/6
f 1779/2/6 1780/2/6 1785/2/6
f 1778/2/6 1779/2/6 1785/2/6
f 1781/1/6 1782/1/6 1786/1/6
f 1780/1/6 1781/1/6 1786/1/6
f 1785/2/6 1780/2/6 1786/2/6
f 1786/1/6 1782/1/6 1787/1/6
f 1787/1/6 1782/1/6 1788/1/6
f 1784/2/6 1785/2/6 1790/2/6
f 1785/1/6 1786/1/6 1791/1/6
f 1786/1/6 1787/1/6 1791/1/6
f 1790/2/6 1785/2/6 1791/2/6
f 1791/1/6 1787/1/6 1792/1/6
f 1792/1/6 1787/1/6 1793/1/6
f 1789/1/6 1790/1/6 1794/1/6
f 1790/1/6 1791/1/6 1794/1/6
f 1791/1/6 1792/1/6 1794/1/6
f 1794/1/6 1792/1/6 1795/1/6
f 1789/1/6 1794/1/6 1796/1/6
f 1796/1/6 1794/1/6 1797/1/6
