# MagicaVoxel @ Ephtracy

# group
o 

# material
mtllib cave_decorations-11.mtl
usemtl palette

# normals
vn -1 0 0
vn 1 0 0
vn 0 0 1
vn 0 0 -1
vn 0 -1 0
vn 0 1 0

# texcoords
vt 0.841797 0.5
vt 0.869141 0.5

# verts
v -0.55 3.05 0.25
v -0.55 3.05 -0.25
v -0.55 3.35 0.25
v -0.55 3.35 -0.25
v -0.45 2.95 0.25
v -0.45 2.95 -0.15
v -0.45 2.95 -0.25
v -0.45 3.05 0.35
v -0.45 3.05 0.25
v -0.45 3.05 -0.15
v -0.45 3.05 -0.25
v -0.45 3.05 -0.35
v -0.45 3.15 0.35
v -0.45 3.15 0.25
v -0.45 3.35 0.35
v -0.45 3.35 0.25
v -0.45 3.35 -0.25
v -0.45 3.35 -0.35
v -0.35 -0.65 -0.05
v -0.35 -0.65 -0.15
v -0.35 -0.25 0.05
v -0.35 -0.25 -0.05
v -0.35 0.15 0.15
v -0.35 0.15 0.05
v -0.35 0.25 0.05
v -0.35 0.25 -0.05
v -0.35 0.35 -0.05
v -0.35 0.35 -0.15
v -0.35 1.05 -0.05
v -0.35 1.05 -0.15
v -0.35 1.25 0.05
v -0.35 1.25 -0.05
v -0.35 1.35 0.15
v -0.35 1.35 0.05
v -0.35 2.15 0.15
v -0.35 2.15 -0.05
v -0.35 2.25 -0.05
v -0.35 2.25 -0.15
v -0.35 2.95 0.35
v -0.35 2.95 0.25
v -0.35 2.95 0.15
v -0.35 2.95 -0.15
v -0.35 2.95 -0.25
v -0.35 2.95 -0.35
v -0.35 3.05 0.45
v -0.35 3.05 0.35
v -0.35 3.05 0.25
v -0.35 3.05 -0.25
v -0.35 3.05 -0.35
v -0.35 3.05 -0.45
v -0.35 3.15 0.35
v -0.35 3.35 0.45
v -0.35 3.35 0.35
v -0.35 3.35 -0.35
v -0.35 3.35 -0.45
v -0.25 -1.55 -0.15
v -0.25 -1.55 -0.25
v -0.25 -1.15 -0.05
v -0.25 -1.15 -0.15
v -0.25 -0.95 -0.15
v -0.25 -0.95 -0.25
v -0.25 -0.75 0.05
v -0.25 -0.75 -0.05
v -0.25 -0.65 -0.05
v -0.25 -0.65 -0.15
v -0.25 -0.55 -0.15
v -0.25 -0.55 -0.25
v -0.25 -0.35 0.15
v -0.25 -0.35 0.05
v -0.25 -0.25 0.05
v -0.25 -0.25 -0.05
v -0.25 0.05 0.25
v -0.25 0.05 0.15
v -0.25 0.15 0.15
v -0.25 0.15 0.05
v -0.25 0.35 -0.15
v -0.25 1.05 -0.15
v -0.25 1.35 0.15
v -0.25 2.15 0.15
v -0.25 2.25 -0.15
v -0.25 2.35 -0.15
v -0.25 2.35 -0.25
v -0.25 2.95 0.45
v -0.25 2.95 0.35
v -0.25 2.95 0.25
v -0.25 2.95 0.15
v -0.25 2.95 -0.15
v -0.25 2.95 -0.25
v -0.25 2.95 -0.35
v -0.25 2.95 -0.45
v -0.25 3.05 0.55
v -0.25 3.05 0.45
v -0.25 3.05 0.35
v -0.25 3.05 -0.35
v -0.25 3.05 -0.45
v -0.25 3.05 -0.55
v -0.25 3.35 0.55
v -0.25 3.35 0.45
v -0.25 3.35 -0.45
v -0.25 3.35 -0.55
v -0.15 -2.35 -0.25
v -0.15 -2.35 -0.35
v -0.15 -1.95 -0.15
v -0.15 -1.95 -0.25
v -0.15 -1.55 -0.05
v -0.15 -1.55 -0.15
v -0.15 -1.55 -0.25
v -0.15 -1.35 -0.25
v -0.15 -1.35 -0.35
v -0.15 -1.15 0.05
v -0.15 -1.15 -0.05
v -0.15 -1.15 -0.15
v -0.15 -0.95 -0.25
v -0.15 -0.75 0.15
v -0.15 -0.75 0.05
v -0.15 -0.75 -0.05
v -0.15 -0.55 -0.25
v -0.15 -0.35 0.25
v -0.15 -0.35 0.15
v -0.15 -0.35 0.05
v -0.15 -0.25 -0.25
v -0.15 -0.25 -0.35
v -0.15 -0.05 0.35
v -0.15 -0.05 0.25
v -0.15 0.05 0.25
v -0.15 0.05 0.15
v -0.15 0.75 -0.25
v -0.15 0.75 -0.35
v -0.15 1.45 -0.25
v -0.15 1.45 -0.35
v -0.15 2.35 -0.25
v -0.15 2.95 0.35
v -0.15 2.95 0.25
v -0.15 2.95 -0.25
v -0.15 2.95 -0.35
v -0.05 -2.85 -0.25
v -0.05 -2.85 -0.35
v -0.05 -2.45 -0.15
v -0.05 -2.45 -0.25
v -0.05 -2.35 -0.25
v -0.05 -2.35 -0.35
v -0.05 -2.05 -0.05
v -0.05 -2.05 -0.15
v -0.05 -1.95 -0.15
v -0.05 -1.95 -0.25
v -0.05 -1.65 0.05
v -0.05 -1.65 -0.05
v -0.05 -1.55 -0.05
v -0.05 -1.55 -0.15
v -0.05 -1.25 0.15
v -0.05 -1.25 0.05
v -0.05 -1.15 0.05
v -0.05 -1.15 -0.05
v -0.05 -0.85 0.25
v -0.05 -0.85 0.15
v -0.05 -0.75 0.15
v -0.05 -0.75 0.05
v -0.05 -0.45 0.35
v -0.05 -0.45 0.25
v -0.05 -0.35 0.25
v -0.05 -0.35 0.15
v -0.05 -0.05 0.35
v -0.05 -0.05 0.25
v 0.05 -3.25 -0.25
v 0.05 -3.25 -0.35
v 0.05 -2.85 -0.15
v 0.05 -2.85 -0.25
v 0.05 -2.85 -0.35
v 0.05 -2.75 -0.15
v 0.05 -2.75 -0.25
v 0.05 -2.45 -0.05
v 0.05 -2.45 -0.15
v 0.05 -2.45 -0.25
v 0.05 -2.05 0.05
v 0.05 -2.05 -0.05
v 0.05 -2.05 -0.15
v 0.05 -1.65 0.15
v 0.05 -1.65 0.05
v 0.05 -1.65 -0.05
v 0.05 -1.35 0.25
v 0.05 -1.35 0.15
v 0.05 -1.25 0.15
v 0.05 -1.25 0.05
v 0.05 -0.95 0.35
v 0.05 -0.95 0.25
v 0.05 -0.85 0.25
v 0.05 -0.85 0.15
v 0.05 -0.45 0.35
v 0.05 -0.45 0.25
v 0.15 -3.35 -0.15
v 0.15 -3.35 -0.25
v 0.15 -3.25 -0.25
v 0.15 -2.95 -0.05
v 0.15 -2.95 -0.15
v 0.15 -2.85 -0.15
v 0.15 -2.85 -0.25
v 0.15 -2.75 -0.15
v 0.15 -2.55 0.05
v 0.15 -2.55 -0.05
v 0.15 -2.55 -0.15
v 0.15 -2.45 0.05
v 0.15 -2.45 -0.05
v 0.15 -2.45 -0.15
v 0.15 -2.15 0.15
v 0.15 -2.15 0.05
v 0.15 -2.15 -0.05
v 0.15 -2.05 0.05
v 0.15 -2.05 -0.05
v 0.15 -1.75 0.25
v 0.15 -1.75 0.15
v 0.15 -1.65 0.15
v 0.15 -1.65 0.05
v 0.15 -1.35 0.25
v 0.15 -1.35 0.15
v 0.25 -3.35 -0.05
v 0.25 -3.35 -0.15
v 0.25 -3.15 -0.05
v 0.25 -3.15 -0.15
v 0.25 -2.95 0.05
v 0.25 -2.95 -0.05
v 0.25 -2.95 -0.15
v 0.25 -2.65 0.15
v 0.25 -2.65 0.05
v 0.25 -2.55 0.05
v 0.25 -2.55 -0.05
v 0.25 -2.45 0.15
v 0.25 -2.45 0.05
v 0.25 -2.25 0.15
v 0.25 -2.25 0.05
v 0.25 -2.15 0.15
v 0.25 -2.15 0.05
v 0.15 -3.25 -0.25
v 0.15 -3.25 -0.35
v 0.15 -2.85 -0.25
v 0.15 -2.85 -0.35
v 0.15 -2.65 -0.25
v 0.15 -1.95 -0.25
v 0.15 -1.85 -0.25
v 0.15 -1.85 -0.35
v 0.15 -1.15 -0.25
v 0.15 -0.95 0.35
v 0.15 -0.95 0.25
v 0.15 -0.75 0.25
v 0.15 -0.75 -0.25
v 0.15 -0.75 -0.35
v 0.15 -0.65 -0.25
v 0.15 -0.65 -0.35
v 0.15 -0.45 -0.25
v 0.15 -0.05 -0.25
v 0.15 -0.05 -0.35
v 0.15 0.05 -0.25
v 0.15 0.25 -0.25
v 0.15 0.35 -0.25
v 0.15 0.35 -0.35
v 0.15 0.45 0.25
v 0.15 0.55 0.35
v 0.15 0.55 0.25
v 0.15 0.95 0.35
v 0.15 0.95 0.25
v 0.15 0.95 -0.25
v 0.15 1.35 -0.25
v 0.15 1.85 -0.25
v 0.15 1.85 -0.35
v 0.15 2.05 -0.25
v 0.15 2.15 -0.25
v 0.15 2.15 -0.35
v 0.15 2.55 0.35
v 0.15 2.55 0.25
v 0.15 2.85 -0.25
v 0.15 2.85 -0.35
v 0.15 2.95 0.35
v 0.15 2.95 0.25
v 0.15 2.95 -0.25
v 0.15 2.95 -0.35
v 0.25 -3.35 -0.15
v 0.25 -3.35 -0.25
v 0.25 -3.15 -0.15
v 0.25 -2.65 -0.15
v 0.25 -2.65 -0.25
v 0.25 -2.45 -0.15
v 0.25 -2.15 -0.15
v 0.25 -1.95 -0.15
v 0.25 -1.95 -0.25
v 0.25 -1.75 0.25
v 0.25 -1.75 0.15
v 0.25 -1.45 -0.15
v 0.25 -1.25 0.25
v 0.25 -1.25 0.15
v 0.25 -1.15 -0.15
v 0.25 -1.15 -0.25
v 0.25 -0.75 0.25
v 0.25 -0.75 0.15
v 0.25 -0.45 -0.15
v 0.25 -0.45 -0.25
v 0.25 -0.25 -0.15
v 0.25 -0.15 0.15
v 0.25 0.05 -0.15
v 0.25 0.05 -0.25
v 0.25 0.25 -0.15
v 0.25 0.25 -0.25
v 0.25 0.45 0.25
v 0.25 0.45 0.15
v 0.25 0.65 -0.15
v 0.25 0.95 -0.15
v 0.25 0.95 -0.25
v 0.25 1.35 -0.15
v 0.25 1.35 -0.25
v 0.25 1.55 -0.15
v 0.25 1.65 0.15
v 0.25 1.85 -0.15
v 0.25 1.85 -0.25
v 0.25 2.05 -0.15
v 0.25 2.05 -0.25
v 0.25 2.25 0.15
v 0.25 2.45 -0.15
v 0.25 2.65 -0.15
v 0.25 2.75 0.15
v 0.25 2.95 0.45
v 0.25 2.95 0.35
v 0.25 2.95 0.25
v 0.25 2.95 0.15
v 0.25 2.95 -0.15
v 0.25 2.95 -0.25
v 0.25 2.95 -0.35
v 0.25 2.95 -0.45
v 0.25 3.05 0.55
v 0.25 3.05 0.45
v 0.25 3.05 0.35
v 0.25 3.05 -0.35
v 0.25 3.05 -0.45
v 0.25 3.05 -0.55
v 0.25 3.35 0.55
v 0.25 3.35 0.45
v 0.25 3.35 -0.45
v 0.25 3.35 -0.55
v 0.35 -3.35 -0.05
v 0.35 -3.35 -0.15
v 0.35 -3.15 -0.05
v 0.35 -3.15 -0.15
v 0.35 -2.95 0.05
v 0.35 -2.95 -0.05
v 0.35 -2.65 0.15
v 0.35 -2.65 0.05
v 0.35 -2.45 0.15
v 0.35 -2.45 -0.15
v 0.35 -2.25 0.15
v 0.35 -2.25 -0.05
v 0.35 -2.15 -0.05
v 0.35 -2.15 -0.15
v 0.35 -1.75 0.15
v 0.35 -1.75 0.05
v 0.35 -1.65 0.05
v 0.35 -1.65 -0.05
v 0.35 -1.45 -0.05
v 0.35 -1.45 -0.15
v 0.35 -0.25 0.05
v 0.35 -0.25 -0.15
v 0.35 -0.15 0.15
v 0.35 -0.15 0.05
v 0.35 0.45 0.15
v 0.35 0.45 0.05
v 0.35 0.55 0.05
v 0.35 0.55 -0.05
v 0.35 0.65 -0.05
v 0.35 0.65 -0.15
v 0.35 1.55 0.05
v 0.35 1.55 -0.15
v 0.35 1.65 0.15
v 0.35 1.65 0.05
v 0.35 2.25 0.15
v 0.35 2.25 0.05
v 0.35 2.35 0.05
v 0.35 2.35 -0.05
v 0.35 2.45 -0.05
v 0.35 2.45 -0.15
v 0.35 2.65 0.05
v 0.35 2.65 -0.15
v 0.35 2.75 0.15
v 0.35 2.75 0.05
v 0.35 2.95 0.35
v 0.35 2.95 0.25
v 0.35 2.95 0.15
v 0.35 2.95 -0.15
v 0.35 2.95 -0.25
v 0.35 2.95 -0.35
v 0.35 3.05 0.45
v 0.35 3.05 0.35
v 0.35 3.05 0.25
v 0.35 3.05 -0.25
v 0.35 3.05 -0.35
v 0.35 3.05 -0.45
v 0.35 3.35 0.45
v 0.35 3.35 0.35
v 0.35 3.35 -0.35
v 0.35 3.35 -0.45
v 0.45 2.95 0.25
v 0.45 2.95 0.15
v 0.45 2.95 -0.25
v 0.45 3.05 0.35
v 0.45 3.05 0.25
v 0.45 3.05 0.15
v 0.45 3.05 -0.25
v 0.45 3.05 -0.35
v 0.45 3.25 -0.25
v 0.45 3.35 0.35
v 0.45 3.35 0.25
v 0.45 3.35 -0.25
v 0.45 3.35 -0.35
v 0.55 3.05 0.25
v 0.55 3.05 0.15
v 0.55 3.05 -0.25
v 0.55 3.15 0.15
v 0.55 3.15 0.05
v 0.55 3.25 0.05
v 0.55 3.25 -0.25
v 0.55 3.35 0.25
v 0.55 3.35 -0.25
v -0.25 3.05 0.55
v -0.25 3.35 0.55
v 0.15 3.05 0.55
v 0.15 3.35 0.55
v 0.25 3.05 0.55
v 0.25 3.35 0.55
v -0.35 3.05 0.45
v -0.35 3.35 0.45
v -0.25 2.95 0.45
v -0.25 3.05 0.45
v -0.25 3.35 0.45
v 0.15 2.95 0.45
v 0.15 3.05 0.45
v 0.25 2.95 0.45
v 0.25 3.05 0.45
v 0.25 3.35 0.45
v 0.35 3.05 0.45
v 0.35 3.35 0.45
v -0.45 3.05 0.35
v -0.45 3.15 0.35
v -0.45 3.35 0.35
v -0.35 2.95 0.35
v -0.35 3.05 0.35
v -0.35 3.15 0.35
v -0.35 3.35 0.35
v -0.25 2.95 0.35
v -0.25 3.05 0.35
v -0.15 -0.05 0.35
v -0.15 2.95 0.35
v -0.05 -0.45 0.35
v -0.05 -0.05 0.35
v -0.05 0.65 0.35
v -0.05 0.75 0.35
v -0.05 2.65 0.35
v -0.05 2.75 0.35
v 0.05 -0.95 0.35
v 0.05 -0.45 0.35
v 0.05 0.55 0.35
v 0.05 0.65 0.35
v 0.05 0.75 0.35
v 0.05 0.95 0.35
v 0.05 2.55 0.35
v 0.05 2.65 0.35
v 0.05 2.75 0.35
v 0.05 2.95 0.35
v 0.15 -0.95 0.35
v 0.15 0.55 0.35
v 0.15 0.95 0.35
v 0.15 2.55 0.35
v 0.15 2.95 0.35
v 0.25 2.95 0.35
v 0.25 3.05 0.35
v 0.35 2.95 0.35
v 0.35 3.05 0.35
v 0.35 3.35 0.35
v 0.45 3.05 0.35
v 0.45 3.35 0.35
v -0.55 3.05 0.25
v -0.55 3.35 0.25
v -0.45 2.95 0.25
v -0.45 3.05 0.25
v -0.45 3.15 0.25
v -0.45 3.35 0.25
v -0.35 2.95 0.25
v -0.35 3.05 0.25
v -0.25 0.05 0.25
v -0.25 2.95 0.25
v -0.15 -0.35 0.25
v -0.15 -0.05 0.25
v -0.15 0.05 0.25
v -0.15 2.95 0.25
v -0.05 -0.85 0.25
v -0.05 -0.45 0.25
v -0.05 -0.35 0.25
v -0.05 -0.05 0.25
v 0.05 -1.35 0.25
v 0.05 -0.95 0.25
v 0.05 -0.85 0.25
v 0.05 -0.45 0.25
v 0.15 -1.75 0.25
v 0.15 -1.35 0.25
v 0.15 -1.25 0.25
v 0.15 -0.95 0.25
v 0.15 -0.75 0.25
v 0.15 0.45 0.25
v 0.15 0.55 0.25
v 0.15 0.95 0.25
v 0.15 2.55 0.25
v 0.15 2.95 0.25
v 0.25 -1.75 0.25
v 0.25 -1.25 0.25
v 0.25 -0.75 0.25
v 0.25 0.45 0.25
v 0.25 2.95 0.25
v 0.35 2.95 0.25
v 0.35 3.05 0.25
v 0.45 2.95 0.25
v 0.45 3.05 0.25
v 0.45 3.35 0.25
v 0.55 3.05 0.25
v 0.55 3.35 0.25
v -0.35 0.15 0.15
v -0.35 1.35 0.15
v -0.35 2.15 0.15
v -0.35 2.95 0.15
v -0.25 -0.35 0.15
v -0.25 0.05 0.15
v -0.25 0.15 0.15
v -0.25 1.35 0.15
v -0.25 2.15 0.15
v -0.25 2.95 0.15
v -0.15 -0.75 0.15
v -0.15 -0.35 0.15
v -0.15 0.05 0.15
v -0.05 -1.25 0.15
v -0.05 -0.85 0.15
v -0.05 -0.75 0.15
v -0.05 -0.35 0.15
v 0.05 -1.65 0.15
v 0.05 -1.35 0.15
v 0.05 -1.25 0.15
v 0.05 -0.85 0.15
v 0.15 -2.15 0.15
v 0.15 -1.75 0.15
v 0.15 -1.65 0.15
v 0.15 -1.35 0.15
v 0.25 -2.65 0.15
v 0.25 -2.45 0.15
v 0.25 -2.25 0.15
v 0.25 -2.15 0.15
v 0.25 -1.75 0.15
v 0.25 -1.25 0.15
v 0.25 -0.75 0.15
v 0.25 -0.15 0.15
v 0.25 0.45 0.15
v 0.25 1.65 0.15
v 0.25 2.25 0.15
v 0.25 2.75 0.15
v 0.25 2.95 0.15
v 0.35 -2.65 0.15
v 0.35 -2.45 0.15
v 0.35 -2.25 0.15
v 0.35 -1.75 0.15
v 0.35 -0.15 0.15
v 0.35 0.45 0.15
v 0.35 1.65 0.15
v 0.35 2.25 0.15
v 0.35 2.75 0.15
v 0.35 2.95 0.15
v -0.35 -0.25 0.05
v -0.35 0.15 0.05
v -0.25 -0.75 0.05
v -0.25 -0.35 0.05
v -0.25 -0.25 0.05
v -0.25 0.15 0.05
v -0.15 -1.15 0.05
v -0.15 -0.75 0.05
v -0.15 -0.35 0.05
v -0.05 -1.65 0.05
v -0.05 -1.25 0.05
v -0.05 -1.15 0.05
v -0.05 -0.75 0.05
v 0.05 -2.05 0.05
v 0.05 -1.65 0.05
v 0.05 -1.25 0.05
v 0.15 -2.55 0.05
v 0.15 -2.45 0.05
v 0.15 -2.15 0.05
v 0.15 -2.05 0.05
v 0.15 -1.65 0.05
v 0.25 -2.95 0.05
v 0.25 -2.65 0.05
v 0.25 -2.55 0.05
v 0.25 -2.45 0.05
v 0.25 -2.25 0.05
v 0.25 -2.15 0.05
v 0.35 -2.95 0.05
v 0.35 -2.65 0.05
v -0.35 -0.65 -0.05
v -0.35 -0.25 -0.05
v -0.25 -1.15 -0.05
v -0.25 -0.75 -0.05
v -0.25 -0.65 -0.05
v -0.25 -0.25 -0.05
v -0.15 -1.55 -0.05
v -0.15 -1.15 -0.05
v -0.15 -0.75 -0.05
v -0.05 -2.05 -0.05
v -0.05 -1.65 -0.05
v -0.05 -1.55 -0.05
v -0.05 -1.15 -0.05
v 0.05 -2.45 -0.05
v 0.05 -2.05 -0.05
v 0.05 -1.65 -0.05
v 0.15 -2.95 -0.05
v 0.15 -2.55 -0.05
v 0.15 -2.45 -0.05
v 0.15 -2.15 -0.05
v 0.15 -2.05 -0.05
v 0.25 -3.35 -0.05
v 0.25 -3.15 -0.05
v 0.25 -2.95 -0.05
v 0.25 -2.55 -0.05
v 0.35 -3.35 -0.05
v 0.35 -3.15 -0.05
v 0.35 -2.95 -0.05
v -0.25 -1.55 -0.15
v -0.25 -1.15 -0.15
v -0.15 -1.95 -0.15
v -0.15 -1.55 -0.15
v -0.15 -1.15 -0.15
v -0.05 -2.45 -0.15
v -0.05 -2.05 -0.15
v -0.05 -1.95 -0.15
v -0.05 -1.55 -0.15
v 0.05 -2.85 -0.15
v 0.05 -2.75 -0.15
v 0.05 -2.45 -0.15
v 0.05 -2.05 -0.15
v 0.15 -3.35 -0.15
v 0.15 -2.95 -0.15
v 0.15 -2.85 -0.15
v 0.15 -2.75 -0.15
v 0.15 -2.55 -0.15
v 0.15 -2.45 -0.15
v 0.25 -3.35 -0.15
v 0.25 -3.15 -0.15
v 0.25 -2.95 -0.15
v -0.15 -2.35 -0.25
v -0.15 -1.95 -0.25
v -0.05 -2.85 -0.25
v -0.05 -2.45 -0.25
v -0.05 -2.35 -0.25
v -0.05 -1.95 -0.25
v 0.05 -3.25 -0.25
v 0.05 -2.85 -0.25
v 0.05 -2.75 -0.25
v 0.05 -2.45 -0.25
v 0.15 -3.25 -0.25
v 0.15 -2.85 -0.25
v -0.35 -0.65 -0.15
v -0.35 0.35 -0.15
v -0.35 1.05 -0.15
v -0.35 2.25 -0.15
v -0.35 2.95 -0.15
v -0.25 -0.65 -0.15
v -0.25 -0.55 -0.15
v -0.25 0.35 -0.15
v -0.25 1.05 -0.15
v -0.25 2.25 -0.15
v -0.25 2.35 -0.15
v -0.25 2.95 -0.15
v 0.25 -3.35 -0.15
v 0.25 -3.15 -0.15
v 0.25 -2.65 -0.15
v 0.25 -2.45 -0.15
v 0.25 -2.15 -0.15
v 0.25 -1.95 -0.15
v 0.25 -1.45 -0.15
v 0.25 -1.15 -0.15
v 0.25 -0.45 -0.15
v 0.25 -0.25 -0.15
v 0.25 0.05 -0.15
v 0.25 0.25 -0.15
v 0.25 0.65 -0.15
v 0.25 0.95 -0.15
v 0.25 1.35 -0.15
v 0.25 1.55 -0.15
v 0.25 1.85 -0.15
v 0.25 2.05 -0.15
v 0.25 2.45 -0.15
v 0.25 2.65 -0.15
v 0.25 2.95 -0.15
v 0.35 -3.35 -0.15
v 0.35 -3.15 -0.15
v 0.35 -2.45 -0.15
v 0.35 -2.15 -0.15
v 0.35 -1.45 -0.15
v 0.35 -0.25 -0.15
v 0.35 0.65 -0.15
v 0.35 1.55 -0.15
v 0.35 2.45 -0.15
v 0.35 2.65 -0.15
v 0.35 2.95 -0.15
v -0.55 3.05 -0.25
v -0.55 3.35 -0.25
v -0.45 2.95 -0.25
v -0.45 3.05 -0.25
v -0.45 3.35 -0.25
v -0.35 2.95 -0.25
v -0.35 3.05 -0.25
v -0.25 -1.55 -0.25
v -0.25 -0.95 -0.25
v -0.25 -0.55 -0.25
v -0.25 2.35 -0.25
v -0.25 2.95 -0.25
v -0.15 -1.55 -0.25
v -0.15 -1.35 -0.25
v -0.15 -0.95 -0.25
v -0.15 -0.55 -0.25
v -0.15 -0.25 -0.25
v -0.15 0.75 -0.25
v -0.15 1.45 -0.25
v -0.15 2.35 -0.25
v -0.15 2.95 -0.25
v 0.15 -3.35 -0.25
v 0.15 -3.25 -0.25
v 0.15 -2.85 -0.25
v 0.15 -2.65 -0.25
v 0.15 -1.95 -0.25
v 0.15 -1.85 -0.25
v 0.15 -1.15 -0.25
v 0.15 -0.75 -0.25
v 0.15 -0.65 -0.25
v 0.15 -0.45 -0.25
v 0.15 -0.05 -0.25
v 0.15 0.05 -0.25
v 0.15 0.25 -0.25
v 0.15 0.35 -0.25
v 0.15 0.95 -0.25
v 0.15 1.35 -0.25
v 0.15 1.85 -0.25
v 0.15 2.05 -0.25
v 0.15 2.15 -0.25
v 0.15 2.85 -0.25
v 0.15 2.95 -0.25
v 0.25 -3.35 -0.25
v 0.25 -2.65 -0.25
v 0.25 -1.95 -0.25
v 0.25 -1.15 -0.25
v 0.25 -0.45 -0.25
v 0.25 0.05 -0.25
v 0.25 0.25 -0.25
v 0.25 0.95 -0.25
v 0.25 1.35 -0.25
v 0.25 1.85 -0.25
v 0.25 2.05 -0.25
v 0.25 2.95 -0.25
v 0.35 2.95 -0.25
v 0.35 3.05 -0.25
v 0.45 2.95 -0.25
v 0.45 3.05 -0.25
v 0.45 3.25 -0.25
v 0.45 3.35 -0.25
v 0.55 3.05 -0.25
v 0.55 3.25 -0.25
v 0.55 3.35 -0.25
v -0.45 3.05 -0.35
v -0.45 3.35 -0.35
v -0.35 2.95 -0.35
v -0.35 3.05 -0.35
v -0.35 3.35 -0.35
v -0.25 2.95 -0.35
v -0.25 3.05 -0.35
v -0.15 -2.35 -0.35
v -0.15 -1.35 -0.35
v -0.15 -0.25 -0.35
v -0.15 0.75 -0.35
v -0.15 1.45 -0.35
v -0.15 2.95 -0.35
v -0.05 -2.85 -0.35
v -0.05 -2.35 -0.35
v -0.05 -1.65 -0.35
v -0.05 -1.35 -0.35
v -0.05 -0.25 -0.35
v -0.05 -0.05 -0.35
v -0.05 0.45 -0.35
v -0.05 0.75 -0.35
v -0.05 1.45 -0.35
v -0.05 1.85 -0.35
v -0.05 2.25 -0.35
v -0.05 2.85 -0.35
v 0.05 -3.25 -0.35
v 0.05 -2.85 -0.35
v 0.05 -1.85 -0.35
v 0.05 -1.65 -0.35
v 0.05 -0.75 -0.35
v 0.05 -0.65 -0.35
v 0.05 0.35 -0.35
v 0.05 0.45 -0.35
v 0.05 2.15 -0.35
v 0.05 2.25 -0.35
v 0.15 -3.25 -0.35
v 0.15 -2.85 -0.35
v 0.15 -1.85 -0.35
v 0.15 -0.75 -0.35
v 0.15 -0.65 -0.35
v 0.15 -0.05 -0.35
v 0.15 0.35 -0.35
v 0.15 1.85 -0.35
v 0.15 2.15 -0.35
v 0.15 2.85 -0.35
v 0.15 2.95 -0.35
v 0.25 2.95 -0.35
v 0.25 3.05 -0.35
v 0.35 2.95 -0.35
v 0.35 3.05 -0.35
v 0.35 3.35 -0.35
v 0.45 3.05 -0.35
v 0.45 3.35 -0.35
v -0.35 3.05 -0.45
v -0.35 3.35 -0.45
v -0.25 2.95 -0.45
v -0.25 3.05 -0.45
v -0.25 3.35 -0.45
v 0.05 3.05 -0.45
v 0.15 2.95 -0.45
v 0.15 3.05 -0.45
v 0.25 2.95 -0.45
v 0.25 3.05 -0.45
v 0.25 3.35 -0.45
v 0.35 3.05 -0.45
v 0.35 3.35 -0.45
v -0.25 3.05 -0.55
v -0.25 3.35 -0.55
v 0.05 3.05 -0.55
v 0.05 3.35 -0.55
v 0.25 3.05 -0.55
v 0.25 3.35 -0.55
v 0.25 -3.35 -0.05
v 0.35 -3.35 -0.05
v 0.15 -3.35 -0.15
v 0.25 -3.35 -0.15
v 0.35 -3.35 -0.15
v 0.15 -3.35 -0.25
v 0.25 -3.35 -0.25
v 0.05 -3.25 -0.25
v 0.15 -3.25 -0.25
v 0.05 -3.25 -0.35
v 0.15 -3.25 -0.35
v 0.25 -2.95 0.05
v 0.35 -2.95 0.05
v 0.15 -2.95 -0.05
v 0.25 -2.95 -0.05
v 0.35 -2.95 -0.05
v 0.15 -2.95 -0.15
v 0.25 -2.95 -0.15
v 0.05 -2.85 -0.15
v 0.15 -2.85 -0.15
v -0.05 -2.85 -0.25
v 0.05 -2.85 -0.25
v 0.15 -2.85 -0.25
v -0.05 -2.85 -0.35
v 0.05 -2.85 -0.35
v 0.25 -2.65 0.15
v 0.35 -2.65 0.15
v 0.25 -2.65 0.05
v 0.35 -2.65 0.05
v 0.15 -2.55 0.05
v 0.25 -2.55 0.05
v 0.15 -2.55 -0.05
v 0.25 -2.55 -0.05
v 0.05 -2.45 -0.05
v 0.15 -2.45 -0.05
v -0.05 -2.45 -0.15
v 0.05 -2.45 -0.15
v 0.15 -2.45 -0.15
v -0.05 -2.45 -0.25
v 0.05 -2.45 -0.25
v -0.15 -2.35 -0.25
v -0.05 -2.35 -0.25
v -0.15 -2.35 -0.35
v -0.05 -2.35 -0.35
v 0.15 -2.15 0.15
v 0.25 -2.15 0.15
v 0.15 -2.15 0.05
v 0.25 -2.15 0.05
v 0.05 -2.05 0.05
v 0.15 -2.05 0.05
v -0.05 -2.05 -0.05
v 0.05 -2.05 -0.05
v 0.15 -2.05 -0.05
v -0.05 -2.05 -0.15
v 0.05 -2.05 -0.15
v -0.15 -1.95 -0.15
v -0.05 -1.95 -0.15
v -0.15 -1.95 -0.25
v -0.05 -1.95 -0.25
v 0.15 -1.75 0.25
v 0.25 -1.75 0.25
v 0.15 -1.75 0.15
v 0.25 -1.75 0.15
v 0.05 -1.65 0.15
v 0.15 -1.65 0.15
v -0.05 -1.65 0.05
v 0.05 -1.65 0.05
v 0.15 -1.65 0.05
v -0.05 -1.65 -0.05
v 0.05 -1.65 -0.05
v -0.15 -1.55 -0.05
v -0.05 -1.55 -0.05
v -0.25 -1.55 -0.15
v -0.15 -1.55 -0.15
v -0.05 -1.55 -0.15
v -0.25 -1.55 -0.25
v -0.15 -1.55 -0.25
v 0.05 -1.35 0.25
v 0.15 -1.35 0.25
v 0.05 -1.35 0.15
v 0.15 -1.35 0.15
v -0.05 -1.25 0.15
v 0.05 -1.25 0.15
v -0.05 -1.25 0.05
v 0.05 -1.25 0.05
v -0.15 -1.15 0.05
v -0.05 -1.15 0.05
v -0.25 -1.15 -0.05
v -0.15 -1.15 -0.05
v -0.05 -1.15 -0.05
v -0.25 -1.15 -0.15
v -0.15 -1.15 -0.15
v 0.05 -0.95 0.35
v 0.15 -0.95 0.35
v 0.05 -0.95 0.25
v 0.15 -0.95 0.25
v -0.05 -0.85 0.25
v 0.05 -0.85 0.25
v -0.05 -0.85 0.15
v 0.05 -0.85 0.15
v -0.15 -0.75 0.15
v -0.05 -0.75 0.15
v -0.25 -0.75 0.05
v -0.15 -0.75 0.05
v -0.05 -0.75 0.05
v -0.25 -0.75 -0.05
v -0.15 -0.75 -0.05
v -0.35 -0.65 -0.05
v -0.25 -0.65 -0.05
v -0.35 -0.65 -0.15
v -0.25 -0.65 -0.15
v -0.05 -0.45 0.35
v 0.05 -0.45 0.35
v -0.05 -0.45 0.25
v 0.05 -0.45 0.25
v -0.15 -0.35 0.25
v -0.05 -0.35 0.25
v -0.25 -0.35 0.15
v -0.15 -0.35 0.15
v -0.05 -0.35 0.15
v -0.25 -0.35 0.05
v -0.15 -0.35 0.05
v -0.35 -0.25 0.05
v -0.25 -0.25 0.05
v -0.35 -0.25 -0.05
v -0.25 -0.25 -0.05
v -0.15 -0.05 0.35
v -0.05 -0.05 0.35
v -0.15 -0.05 0.25
v -0.05 -0.05 0.25
v -0.25 0.05 0.25
v -0.15 0.05 0.25
v -0.25 0.05 0.15
v -0.15 0.05 0.15
v -0.35 0.15 0.15
v -0.25 0.15 0.15
v -0.35 0.15 0.05
v -0.25 0.15 0.05
v -0.25 2.95 0.45
v 0.15 2.95 0.45
v 0.25 2.95 0.45
v -0.35 2.95 0.35
v -0.25 2.95 0.35
v -0.15 2.95 0.35
v 0.05 2.95 0.35
v 0.15 2.95 0.35
v 0.25 2.95 0.35
v 0.35 2.95 0.35
v -0.45 2.95 0.25
v -0.35 2.95 0.25
v -0.25 2.95 0.25
v -0.15 2.95 0.25
v 0.15 2.95 0.25
v 0.25 2.95 0.25
v 0.35 2.95 0.25
v 0.45 2.95 0.25
v -0.35 2.95 0.15
v -0.25 2.95 0.15
v 0.25 2.95 0.15
v 0.35 2.95 0.15
v 0.45 2.95 0.15
v -0.45 2.95 -0.15
v -0.35 2.95 -0.15
v -0.25 2.95 -0.15
v 0.25 2.95 -0.15
v 0.35 2.95 -0.15
v -0.45 2.95 -0.25
v -0.35 2.95 -0.25
v -0.25 2.95 -0.25
v -0.15 2.95 -0.25
v 0.15 2.95 -0.25
v 0.25 2.95 -0.25
v 0.35 2.95 -0.25
v 0.45 2.95 -0.25
v -0.35 2.95 -0.35
v -0.25 2.95 -0.35
v -0.15 2.95 -0.35
v 0.15 2.95 -0.35
v 0.25 2.95 -0.35
v 0.35 2.95 -0.35
v -0.25 2.95 -0.45
v 0.15 2.95 -0.45
v 0.25 2.95 -0.45
v -0.25 3.05 0.55
v 0.15 3.05 0.55
v 0.25 3.05 0.55
v -0.35 3.05 0.45
v -0.25 3.05 0.45
v 0.15 3.05 0.45
v 0.25 3.05 0.45
v 0.35 3.05 0.45
v -0.45 3.05 0.35
v -0.35 3.05 0.35
v -0.25 3.05 0.35
v 0.25 3.05 0.35
v 0.35 3.05 0.35
v 0.45 3.05 0.35
v -0.55 3.05 0.25
v -0.45 3.05 0.25
v -0.35 3.05 0.25
v 0.35 3.05 0.25
v 0.45 3.05 0.25
v 0.55 3.05 0.25
v 0.45 3.05 0.15
v 0.55 3.05 0.15
v -0.45 3.05 -0.15
v -0.55 3.05 -0.25
v -0.45 3.05 -0.25
v -0.35 3.05 -0.25
v 0.35 3.05 -0.25
v 0.45 3.05 -0.25
v 0.55 3.05 -0.25
v -0.45 3.05 -0.35
v -0.35 3.05 -0.35
v -0.25 3.05 -0.35
v 0.25 3.05 -0.35
v 0.35 3.05 -0.35
v 0.45 3.05 -0.35
v -0.35 3.05 -0.45
v -0.25 3.05 -0.45
v 0.05 3.05 -0.45
v 0.15 3.05 -0.45
v 0.25 3.05 -0.45
v 0.35 3.05 -0.45
v -0.25 3.05 -0.55
v 0.05 3.05 -0.55
v 0.25 3.05 -0.55
v -0.25 3.35 0.55
v 0.15 3.35 0.55
v 0.25 3.35 0.55
v -0.35 3.35 0.45
v -0.25 3.35 0.45
v 0.25 3.35 0.45
v 0.35 3.35 0.45
v -0.45 3.35 0.35
v -0.35 3.35 0.35
v -0.25 3.35 0.35
v 0.05 3.35 0.35
v 0.15 3.35 0.35
v 0.35 3.35 0.35
v 0.45 3.35 0.35
v -0.55 3.35 0.25
v -0.45 3.35 0.25
v -0.25 3.35 0.25
v 0.05 3.35 0.25
v 0.45 3.35 0.25
v 0.55 3.35 0.25
v 0.35 3.35 -0.15
v 0.45 3.35 -0.15
v -0.55 3.35 -0.25
v -0.45 3.35 -0.25
v 0.25 3.35 -0.25
v 0.35 3.35 -0.25
v 0.45 3.35 -0.25
v 0.55 3.35 -0.25
v -0.45 3.35 -0.35
v -0.35 3.35 -0.35
v 0.15 3.35 -0.35
v 0.25 3.35 -0.35
v 0.35 3.35 -0.35
v 0.45 3.35 -0.35
v -0.35 3.35 -0.45
v -0.25 3.35 -0.45
v 0.05 3.35 -0.45
v 0.15 3.35 -0.45
v 0.25 3.35 -0.45
v 0.35 3.35 -0.45
v -0.25 3.35 -0.55
v 0.05 3.35 -0.55
v 0.25 3.35 -0.55

# faces
f 3/1/1 2/1/1 1/1/1
f 4/1/1 2/1/1 3/1/1
f 9/2/1 6/2/1 5/2/1
f 10/1/1 7/1/1 6/1/1
f 10/2/1 6/2/1 9/2/1
f 11/1/1 7/1/1 10/1/1
f 13/2/1 9/2/1 8/2/1
f 14/2/1 9/2/1 13/2/1
f 15/1/1 14/1/1 13/1/1
f 16/1/1 14/1/1 15/1/1
f 17/1/1 12/1/1 11/1/1
f 18/1/1 12/1/1 17/1/1
f 22/1/1 20/1/1 19/1/1
f 24/1/1 22/1/1 21/1/1
f 25/1/1 22/1/1 24/1/1
f 25/2/1 24/2/1 23/2/1
f 26/1/1 20/1/1 22/1/1
f 26/1/1 22/1/1 25/1/1
f 27/2/1 26/2/1 25/2/1
f 27/1/1 20/1/1 26/1/1
f 28/1/1 20/1/1 27/1/1
f 29/2/1 27/2/1 25/2/1
f 29/2/1 28/2/1 27/2/1
f 30/2/1 28/2/1 29/2/1
f 31/2/1 25/2/1 23/2/1
f 31/2/1 29/2/1 25/2/1
f 32/1/1 30/1/1 29/1/1
f 32/2/1 29/2/1 31/2/1
f 33/2/1 31/2/1 23/2/1
f 34/1/1 32/1/1 31/1/1
f 34/2/1 31/2/1 33/2/1
f 35/1/1 34/1/1 33/1/1
f 36/1/1 30/1/1 32/1/1
f 36/1/1 34/1/1 35/1/1
f 36/1/1 32/1/1 34/1/1
f 37/2/1 36/2/1 35/2/1
f 37/1/1 30/1/1 36/1/1
f 38/1/1 30/1/1 37/1/1
f 41/2/1 37/2/1 35/2/1
f 41/2/1 38/2/1 37/2/1
f 42/2/1 38/2/1 41/2/1
f 46/2/1 40/2/1 39/2/1
f 47/2/1 40/2/1 46/2/1
f 48/1/1 44/1/1 43/1/1
f 49/1/1 44/1/1 48/1/1
f 51/2/1 46/2/1 45/2/1
f 52/2/1 51/2/1 45/2/1
f 53/2/1 51/2/1 52/2/1
f 54/1/1 50/1/1 49/1/1
f 55/1/1 50/1/1 54/1/1
f 59/1/1 57/1/1 56/1/1
f 60/1/1 57/1/1 59/1/1
f 60/1/1 59/1/1 58/1/1
f 61/1/1 57/1/1 60/1/1
f 63/1/1 60/1/1 58/1/1
f 64/1/1 60/1/1 63/1/1
f 64/1/1 63/1/1 62/1/1
f 65/2/1 61/2/1 60/2/1
f 65/1/1 60/1/1 64/1/1
f 66/2/1 61/2/1 65/2/1
f 67/2/1 61/2/1 66/2/1
f 69/1/1 64/1/1 62/1/1
f 70/1/1 64/1/1 69/1/1
f 70/1/1 69/1/1 68/1/1
f 71/1/1 64/1/1 70/1/1
f 73/1/1 70/1/1 68/1/1
f 74/1/1 70/1/1 73/1/1
f 74/2/1 73/2/1 72/2/1
f 75/1/1 70/1/1 74/1/1
f 76/1/1 67/1/1 66/1/1
f 77/1/1 67/1/1 76/1/1
f 78/2/1 74/2/1 72/2/1
f 79/2/1 78/2/1 72/2/1
f 80/1/1 67/1/1 77/1/1
f 81/1/1 67/1/1 80/1/1
f 82/1/1 67/1/1 81/1/1
f 85/2/1 79/2/1 72/2/1
f 86/2/1 79/2/1 85/2/1
f 87/2/1 82/2/1 81/2/1
f 88/2/1 82/2/1 87/2/1
f 92/2/1 84/2/1 83/2/1
f 93/2/1 84/2/1 92/2/1
f 94/1/1 90/1/1 89/1/1
f 95/1/1 90/1/1 94/1/1
f 97/2/1 92/2/1 91/2/1
f 98/2/1 92/2/1 97/2/1
f 99/1/1 96/1/1 95/1/1
f 100/1/1 96/1/1 99/1/1
f 104/1/1 102/1/1 101/1/1
f 106/1/1 104/1/1 103/1/1
f 107/1/1 102/1/1 104/1/1
f 107/1/1 104/1/1 106/1/1
f 108/1/1 102/1/1 107/1/1
f 109/1/1 102/1/1 108/1/1
f 111/1/1 106/1/1 105/1/1
f 112/1/1 106/1/1 111/1/1
f 113/2/1 109/2/1 108/2/1
f 115/2/1 111/2/1 110/2/1
f 116/2/1 111/2/1 115/2/1
f 117/2/1 109/2/1 113/2/1
f 119/2/1 115/2/1 114/2/1
f 120/2/1 115/2/1 119/2/1
f 121/2/1 109/2/1 117/2/1
f 122/2/1 109/2/1 121/2/1
f 124/2/1 119/2/1 118/2/1
f 125/2/1 119/2/1 124/2/1
f 125/2/1 124/2/1 123/2/1
f 126/2/1 119/2/1 125/2/1
f 127/1/1 122/1/1 121/1/1
f 128/1/1 122/1/1 127/1/1
f 129/2/1 128/2/1 127/2/1
f 130/2/1 128/2/1 129/2/1
f 131/1/1 130/1/1 129/1/1
f 132/2/1 125/2/1 123/2/1
f 133/2/1 125/2/1 132/2/1
f 134/1/1 130/1/1 131/1/1
f 135/1/1 130/1/1 134/1/1
f 139/1/1 137/1/1 136/1/1
f 140/1/1 137/1/1 139/1/1
f 140/1/1 139/1/1 138/1/1
f 141/1/1 137/1/1 140/1/1
f 143/1/1 140/1/1 138/1/1
f 144/1/1 140/1/1 143/1/1
f 144/1/1 143/1/1 142/1/1
f 145/1/1 140/1/1 144/1/1
f 147/1/1 144/1/1 142/1/1
f 148/1/1 144/1/1 147/1/1
f 148/1/1 147/1/1 146/1/1
f 149/1/1 144/1/1 148/1/1
f 151/1/1 148/1/1 146/1/1
f 152/1/1 148/1/1 151/1/1
f 152/2/1 151/2/1 150/2/1
f 153/1/1 148/1/1 152/1/1
f 155/2/1 152/2/1 150/2/1
f 156/2/1 152/2/1 155/2/1
f 156/2/1 155/2/1 154/2/1
f 157/2/1 152/2/1 156/2/1
f 159/2/1 156/2/1 154/2/1
f 160/2/1 156/2/1 159/2/1
f 160/2/1 159/2/1 158/2/1
f 161/2/1 156/2/1 160/2/1
f 162/2/1 160/2/1 158/2/1
f 163/2/1 160/2/1 162/2/1
f 167/2/1 165/2/1 164/2/1
f 168/2/1 165/2/1 167/2/1
f 169/2/1 167/2/1 166/2/1
f 170/2/1 167/2/1 169/2/1
f 172/1/1 170/1/1 169/1/1
f 173/1/1 170/1/1 172/1/1
f 175/1/1 172/1/1 171/1/1
f 176/1/1 172/1/1 175/1/1
f 178/1/1 175/1/1 174/1/1
f 179/1/1 175/1/1 178/1/1
f 181/2/1 178/2/1 177/2/1
f 182/2/1 178/2/1 181/2/1
f 182/2/1 181/2/1 180/2/1
f 183/2/1 178/2/1 182/2/1
f 185/2/1 182/2/1 180/2/1
f 186/2/1 182/2/1 185/2/1
f 186/2/1 185/2/1 184/2/1
f 187/2/1 182/2/1 186/2/1
f 188/2/1 186/2/1 184/2/1
f 189/2/1 186/2/1 188/2/1
f 192/2/1 191/2/1 190/2/1
f 194/2/1 192/2/1 190/2/1
f 195/2/1 192/2/1 194/2/1
f 195/2/1 194/2/1 193/2/1
f 196/2/1 192/2/1 195/2/1
f 197/2/1 195/2/1 193/2/1
f 199/2/1 197/2/1 193/2/1
f 200/2/1 197/2/1 199/2/1
f 201/2/1 199/2/1 198/2/1
f 202/1/1 200/1/1 199/1/1
f 202/2/1 199/2/1 201/2/1
f 203/1/1 200/1/1 202/1/1
f 205/1/1 202/1/1 201/1/1
f 206/1/1 202/1/1 205/1/1
f 207/2/1 205/2/1 204/2/1
f 207/2/1 206/2/1 205/2/1
f 208/2/1 206/2/1 207/2/1
f 210/2/1 207/2/1 204/2/1
f 211/2/1 207/2/1 210/2/1
f 211/2/1 210/2/1 209/2/1
f 212/2/1 207/2/1 211/2/1
f 213/2/1 211/2/1 209/2/1
f 214/2/1 211/2/1 213/2/1
f 217/1/1 216/1/1 215/1/1
f 218/1/1 216/1/1 217/1/1
f 220/2/1 218/2/1 217/2/1
f 221/2/1 218/2/1 220/2/1
f 223/2/1 220/2/1 219/2/1
f 224/2/1 220/2/1 223/2/1
f 224/2/1 223/2/1 222/2/1
f 225/2/1 220/2/1 224/2/1
f 226/2/1 224/2/1 222/2/1
f 227/2/1 224/2/1 226/2/1
f 228/1/1 227/1/1 226/1/1
f 229/1/1 227/1/1 228/1/1
f 230/2/1 229/2/1 228/2/1
f 231/2/1 229/2/1 230/2/1
f 232/2/2 233/2/2 234/2/2
f 234/2/2 233/2/2 235/2/2
f 234/1/2 235/1/2 236/1/2
f 236/1/2 235/1/2 237/1/2
f 237/1/2 235/1/2 238/1/2
f 238/1/2 235/1/2 239/1/2
f 238/2/2 239/2/2 240/2/2
f 241/2/2 242/2/2 243/2/2
f 240/2/2 239/2/2 244/2/2
f 244/2/2 239/2/2 245/2/2
f 244/1/2 245/1/2 246/1/2
f 246/1/2 245/1/2 247/1/2
f 246/2/2 247/2/2 248/2/2
f 248/2/2 247/2/2 249/2/2
f 249/2/2 247/2/2 250/2/2
f 249/1/2 250/1/2 251/1/2
f 251/1/2 250/1/2 252/1/2
f 252/1/2 250/1/2 253/1/2
f 253/1/2 250/1/2 254/1/2
f 241/2/2 243/2/2 255/2/2
f 241/2/2 255/2/2 256/2/2
f 256/2/2 255/2/2 257/2/2
f 256/1/2 257/1/2 258/1/2
f 258/1/2 257/1/2 259/1/2
f 253/2/2 254/2/2 260/2/2
f 260/2/2 254/2/2 261/2/2
f 261/2/2 254/2/2 262/2/2
f 262/2/2 254/2/2 263/2/2
f 262/1/2 263/1/2 264/1/2
f 264/1/2 263/1/2 265/1/2
f 265/1/2 263/1/2 266/1/2
f 258/2/2 259/2/2 267/2/2
f 267/2/2 259/2/2 268/2/2
f 265/2/2 266/2/2 269/2/2
f 269/2/2 266/2/2 270/2/2
f 267/1/2 268/1/2 271/1/2
f 271/1/2 268/1/2 272/1/2
f 269/1/2 270/1/2 273/1/2
f 273/1/2 270/1/2 274/1/2
f 275/2/2 276/2/2 277/2/2
f 277/2/2 276/2/2 278/2/2
f 278/2/2 276/2/2 279/2/2
f 278/1/2 279/1/2 280/1/2
f 280/1/2 279/1/2 281/1/2
f 281/1/2 279/1/2 282/1/2
f 282/1/2 279/1/2 283/1/2
f 282/2/2 283/2/2 286/2/2
f 284/2/2 285/2/2 287/2/2
f 287/2/2 285/2/2 288/2/2
f 286/2/2 283/2/2 289/2/2
f 289/2/2 283/2/2 290/2/2
f 287/1/2 288/1/2 291/1/2
f 291/1/2 288/1/2 292/1/2
f 289/1/2 290/1/2 293/1/2
f 293/1/2 290/1/2 294/1/2
f 293/2/2 294/2/2 295/2/2
f 291/2/2 292/2/2 296/2/2
f 295/2/2 294/2/2 297/2/2
f 297/2/2 294/2/2 298/2/2
f 297/1/2 298/1/2 299/1/2
f 299/1/2 298/1/2 300/1/2
f 291/2/2 296/2/2 301/2/2
f 301/2/2 296/2/2 302/2/2
f 299/2/2 300/2/2 303/2/2
f 303/2/2 300/2/2 304/2/2
f 304/2/2 300/2/2 305/2/2
f 304/1/2 305/1/2 306/1/2
f 306/1/2 305/1/2 307/1/2
f 306/2/2 307/2/2 308/2/2
f 301/1/2 302/1/2 309/1/2
f 308/2/2 307/2/2 310/2/2
f 310/2/2 307/2/2 311/2/2
f 310/1/2 311/1/2 312/1/2
f 312/1/2 311/1/2 313/1/2
f 301/1/2 309/1/2 314/1/2
f 312/2/2 313/2/2 315/2/2
f 315/2/2 313/2/2 316/2/2
f 301/1/2 314/1/2 317/1/2
f 301/1/2 317/1/2 320/1/2
f 320/1/2 317/1/2 321/1/2
f 316/2/2 313/2/2 322/2/2
f 322/2/2 313/2/2 323/2/2
f 318/1/2 319/1/2 327/1/2
f 327/1/2 319/1/2 328/1/2
f 324/2/2 325/2/2 329/2/2
f 329/2/2 325/2/2 330/2/2
f 326/1/2 327/1/2 332/1/2
f 332/1/2 327/1/2 333/1/2
f 330/2/2 331/2/2 334/2/2
f 334/2/2 331/2/2 335/2/2
f 336/1/2 337/1/2 338/1/2
f 338/1/2 337/1/2 339/1/2
f 338/2/2 339/2/2 341/2/2
f 340/2/2 341/2/2 343/2/2
f 342/2/2 343/2/2 344/2/2
f 341/2/2 339/2/2 345/2/2
f 344/2/2 343/2/2 345/2/2
f 343/2/2 341/2/2 345/2/2
f 344/1/2 345/1/2 346/1/2
f 346/1/2 345/1/2 347/1/2
f 346/2/2 347/2/2 348/2/2
f 347/1/2 345/1/2 348/1/2
f 348/1/2 345/1/2 349/1/2
f 346/2/2 348/2/2 350/2/2
f 348/2/2 349/2/2 350/2/2
f 350/2/2 349/2/2 351/2/2
f 350/1/2 351/1/2 352/1/2
f 351/2/2 349/2/2 352/2/2
f 352/2/2 349/2/2 353/2/2
f 352/1/2 353/1/2 354/1/2
f 353/2/2 349/2/2 354/2/2
f 354/2/2 349/2/2 355/2/2
f 350/1/2 352/1/2 356/1/2
f 352/1/2 354/1/2 356/1/2
f 354/1/2 355/1/2 356/1/2
f 356/1/2 355/1/2 357/1/2
f 350/1/2 356/1/2 358/1/2
f 356/2/2 357/2/2 359/2/2
f 358/1/2 356/1/2 359/1/2
f 358/2/2 359/2/2 360/2/2
f 359/2/2 357/2/2 361/2/2
f 360/2/2 359/2/2 361/2/2
f 360/1/2 361/1/2 362/1/2
f 361/2/2 357/2/2 362/2/2
f 362/2/2 357/2/2 363/2/2
f 362/1/2 363/1/2 364/1/2
f 363/2/2 357/2/2 364/2/2
f 364/2/2 357/2/2 365/2/2
f 360/1/2 362/1/2 366/1/2
f 362/1/2 364/1/2 366/1/2
f 364/1/2 365/1/2 366/1/2
f 366/1/2 365/1/2 367/1/2
f 360/1/2 366/1/2 368/1/2
f 366/2/2 367/2/2 369/2/2
f 368/1/2 366/1/2 369/1/2
f 368/2/2 369/2/2 370/2/2
f 369/2/2 367/2/2 371/2/2
f 370/2/2 369/2/2 371/2/2
f 370/1/2 371/1/2 372/1/2
f 371/2/2 367/2/2 372/2/2
f 372/2/2 367/2/2 373/2/2
f 372/1/2 373/1/2 374/1/2
f 373/2/2 367/2/2 374/2/2
f 374/2/2 367/2/2 375/2/2
f 370/1/2 372/1/2 376/1/2
f 372/1/2 374/1/2 376/1/2
f 374/1/2 375/1/2 376/1/2
f 376/1/2 375/1/2 377/1/2
f 370/1/2 376/1/2 378/1/2
f 376/2/2 377/2/2 379/2/2
f 378/1/2 376/1/2 379/1/2
f 378/2/2 379/2/2 382/2/2
f 379/2/2 377/2/2 383/2/2
f 382/2/2 379/2/2 383/2/2
f 380/1/2 381/1/2 387/1/2
f 387/1/2 381/1/2 388/1/2
f 384/2/2 385/2/2 389/2/2
f 389/2/2 385/2/2 390/2/2
f 386/1/2 387/1/2 392/1/2
f 392/1/2 387/1/2 393/1/2
f 390/2/2 391/2/2 394/2/2
f 394/2/2 391/2/2 395/2/2
f 396/1/2 397/1/2 400/1/2
f 397/2/2 398/2/2 401/2/2
f 400/1/2 397/1/2 401/1/2
f 401/2/2 398/2/2 402/2/2
f 402/2/2 403/2/2 404/2/2
f 399/1/2 400/1/2 405/1/2
f 405/1/2 400/1/2 406/1/2
f 404/2/2 403/2/2 407/2/2
f 407/2/2 403/2/2 408/2/2
f 409/1/2 410/1/2 412/1/2
f 410/2/2 411/2/2 412/2/2
f 412/2/2 411/2/2 413/2/2
f 412/1/2 413/1/2 414/1/2
f 413/2/2 411/2/2 414/2/2
f 414/2/2 411/2/2 415/2/2
f 409/1/2 412/1/2 416/1/2
f 412/1/2 414/1/2 416/1/2
f 414/1/2 415/1/2 416/1/2
f 416/1/2 415/1/2 417/1/2
f 420/2/3 419/2/3 418/2/3
f 421/2/3 419/2/3 420/2/3
f 422/1/3 421/1/3 420/1/3
f 423/1/3 421/1/3 422/1/3
f 427/2/3 425/2/3 424/2/3
f 428/2/3 425/2/3 427/2/3
f 429/2/3 427/2/3 426/2/3
f 430/2/3 427/2/3 429/2/3
f 431/1/3 430/1/3 429/1/3
f 432/1/3 430/1/3 431/1/3
f 434/1/3 433/1/3 432/1/3
f 435/1/3 433/1/3 434/1/3
f 440/2/3 437/2/3 436/2/3
f 441/1/3 438/1/3 437/1/3
f 441/2/3 437/2/3 440/2/3
f 442/1/3 438/1/3 441/1/3
f 443/2/3 440/2/3 439/2/3
f 444/2/3 440/2/3 443/2/3
f 448/2/3 446/2/3 445/2/3
f 449/2/3 446/2/3 448/2/3
f 450/2/3 446/2/3 449/2/3
f 451/2/3 446/2/3 450/2/3
f 452/2/3 446/2/3 451/2/3
f 454/2/3 448/2/3 447/2/3
f 454/2/3 449/2/3 448/2/3
f 455/2/3 449/2/3 454/2/3
f 456/1/3 450/1/3 449/1/3
f 456/2/3 449/2/3 455/2/3
f 457/2/3 451/2/3 450/2/3
f 457/1/3 450/1/3 456/1/3
f 458/2/3 451/2/3 457/2/3
f 459/2/3 451/2/3 458/2/3
f 460/1/3 452/1/3 451/1/3
f 460/2/3 451/2/3 459/2/3
f 461/2/3 446/2/3 452/2/3
f 461/1/3 452/1/3 460/1/3
f 462/2/3 446/2/3 461/2/3
f 463/2/3 455/2/3 454/2/3
f 463/2/3 454/2/3 453/2/3
f 464/1/3 456/1/3 455/1/3
f 464/2/3 455/2/3 463/2/3
f 464/1/3 457/1/3 456/1/3
f 464/1/3 458/1/3 457/1/3
f 465/2/3 459/2/3 458/2/3
f 465/1/3 458/1/3 464/1/3
f 466/1/3 460/1/3 459/1/3
f 466/2/3 459/2/3 465/2/3
f 466/1/3 462/1/3 461/1/3
f 466/1/3 461/1/3 460/1/3
f 467/1/3 462/1/3 466/1/3
f 470/1/3 469/1/3 468/1/3
f 471/1/3 469/1/3 470/1/3
f 473/1/3 472/1/3 471/1/3
f 474/1/3 472/1/3 473/1/3
f 478/1/3 476/1/3 475/1/3
f 479/1/3 476/1/3 478/1/3
f 480/1/3 476/1/3 479/1/3
f 481/2/3 478/2/3 477/2/3
f 482/2/3 478/2/3 481/2/3
f 487/2/3 484/2/3 483/2/3
f 488/2/3 484/2/3 487/2/3
f 491/2/3 486/2/3 485/2/3
f 492/2/3 486/2/3 491/2/3
f 495/2/3 490/2/3 489/2/3
f 496/2/3 490/2/3 495/2/3
f 498/2/3 494/2/3 493/2/3
f 499/2/3 494/2/3 498/2/3
f 500/2/3 494/2/3 499/2/3
f 507/2/3 498/2/3 497/2/3
f 507/2/3 499/2/3 498/2/3
f 508/1/3 501/1/3 500/1/3
f 508/2/3 499/2/3 507/2/3
f 508/1/3 500/1/3 499/1/3
f 509/2/3 502/2/3 501/2/3
f 509/1/3 501/1/3 508/1/3
f 510/1/3 504/1/3 503/1/3
f 510/2/3 502/2/3 509/2/3
f 510/1/3 506/1/3 505/1/3
f 510/1/3 503/1/3 502/1/3
f 510/1/3 505/1/3 504/1/3
f 511/1/3 506/1/3 510/1/3
f 514/1/3 513/1/3 512/1/3
f 515/1/3 513/1/3 514/1/3
f 517/1/3 516/1/3 515/1/3
f 518/1/3 516/1/3 517/1/3
f 525/2/3 520/2/3 519/2/3
f 526/1/3 521/1/3 520/1/3
f 526/2/3 520/2/3 525/2/3
f 527/2/3 522/2/3 521/2/3
f 527/1/3 521/1/3 526/1/3
f 528/2/3 522/2/3 527/2/3
f 530/1/3 524/1/3 523/1/3
f 531/1/3 524/1/3 530/1/3
f 534/2/3 530/2/3 529/2/3
f 535/2/3 530/2/3 534/2/3
f 538/2/3 533/2/3 532/2/3
f 539/2/3 533/2/3 538/2/3
f 542/2/3 537/2/3 536/2/3
f 543/2/3 537/2/3 542/2/3
f 547/2/3 541/2/3 540/2/3
f 548/2/3 541/2/3 547/2/3
f 557/2/3 545/2/3 544/2/3
f 558/1/3 546/1/3 545/1/3
f 558/2/3 545/2/3 557/2/3
f 559/2/3 548/2/3 547/2/3
f 559/1/3 546/1/3 558/1/3
f 559/2/3 547/2/3 546/2/3
f 560/1/3 551/1/3 550/1/3
f 560/2/3 548/2/3 559/2/3
f 560/1/3 550/1/3 549/1/3
f 560/1/3 549/1/3 548/1/3
f 561/2/3 552/2/3 551/2/3
f 561/1/3 551/1/3 560/1/3
f 562/1/3 553/1/3 552/1/3
f 562/2/3 552/2/3 561/2/3
f 563/2/3 554/2/3 553/2/3
f 563/1/3 553/1/3 562/1/3
f 564/1/3 555/1/3 554/1/3
f 564/2/3 554/2/3 563/2/3
f 565/2/3 556/2/3 555/2/3
f 565/1/3 555/1/3 564/1/3
f 566/2/3 556/2/3 565/2/3
f 571/1/3 568/1/3 567/1/3
f 572/1/3 568/1/3 571/1/3
f 574/1/3 570/1/3 569/1/3
f 575/1/3 570/1/3 574/1/3
f 578/2/3 574/2/3 573/2/3
f 579/2/3 574/2/3 578/2/3
f 581/1/3 577/1/3 576/1/3
f 582/1/3 577/1/3 581/1/3
f 586/1/3 581/1/3 580/1/3
f 587/1/3 581/1/3 586/1/3
f 590/2/3 584/2/3 583/2/3
f 591/1/3 585/1/3 584/1/3
f 591/2/3 584/2/3 590/2/3
f 592/1/3 585/1/3 591/1/3
f 593/1/3 585/1/3 592/1/3
f 594/2/3 589/2/3 588/2/3
f 595/2/3 589/2/3 594/2/3
f 600/1/3 597/1/3 596/1/3
f 601/1/3 597/1/3 600/1/3
f 603/1/3 599/1/3 598/1/3
f 604/1/3 599/1/3 603/1/3
f 607/1/3 603/1/3 602/1/3
f 608/1/3 603/1/3 607/1/3
f 610/1/3 606/1/3 605/1/3
f 611/1/3 606/1/3 610/1/3
f 614/1/3 610/1/3 609/1/3
f 615/1/3 610/1/3 614/1/3
f 616/1/3 610/1/3 615/1/3
f 619/2/3 613/2/3 612/2/3
f 620/2/3 613/2/3 619/2/3
f 621/1/3 618/1/3 617/1/3
f 622/2/3 619/2/3 618/2/3
f 622/1/3 618/1/3 621/1/3
f 623/2/3 619/2/3 622/2/3
f 627/1/3 625/1/3 624/1/3
f 628/1/3 625/1/3 627/1/3
f 631/1/3 627/1/3 626/1/3
f 632/1/3 627/1/3 631/1/3
f 635/1/3 630/1/3 629/1/3
f 636/1/3 630/1/3 635/1/3
f 639/2/3 634/2/3 633/2/3
f 640/1/3 635/1/3 634/1/3
f 640/2/3 634/2/3 639/2/3
f 641/1/3 635/1/3 640/1/3
f 642/1/3 635/1/3 641/1/3
f 643/2/3 638/2/3 637/2/3
f 644/2/3 638/2/3 643/2/3
f 645/2/3 638/2/3 644/2/3
f 650/1/3 647/1/3 646/1/3
f 651/1/3 647/1/3 650/1/3
f 653/1/3 649/1/3 648/1/3
f 654/1/3 649/1/3 653/1/3
f 655/1/3 649/1/3 654/1/3
f 656/2/3 653/2/3 652/2/3
f 657/2/3 653/2/3 656/2/3
f 658/1/4 659/1/4 663/1/4
f 663/1/4 659/1/4 664/1/4
f 659/2/4 660/2/4 665/2/4
f 664/1/4 659/1/4 665/1/4
f 660/1/4 661/1/4 666/1/4
f 665/2/4 660/2/4 666/2/4
f 661/2/4 662/2/4 667/2/4
f 666/1/4 661/1/4 667/1/4
f 667/2/4 662/2/4 668/2/4
f 668/2/4 662/2/4 669/2/4
f 670/1/4 671/1/4 691/1/4
f 671/2/4 672/2/4 692/2/4
f 691/1/4 671/1/4 692/1/4
f 672/2/4 673/2/4 692/2/4
f 673/1/4 674/1/4 693/1/4
f 692/2/4 673/2/4 693/2/4
f 674/2/4 675/2/4 694/2/4
f 693/1/4 674/1/4 694/1/4
f 675/2/4 676/2/4 694/2/4
f 676/1/4 677/1/4 695/1/4
f 694/2/4 676/2/4 695/2/4
f 677/1/4 678/1/4 695/1/4
f 678/1/4 679/1/4 695/1/4
f 679/2/4 680/2/4 696/2/4
f 695/1/4 679/1/4 696/1/4
f 680/2/4 681/2/4 696/2/4
f 681/2/4 682/2/4 696/2/4
f 684/1/4 685/1/4 697/1/4
f 696/2/4 682/2/4 697/2/4
f 683/1/4 684/1/4 697/1/4
f 682/1/4 683/1/4 697/1/4
f 687/2/4 688/2/4 698/2/4
f 697/1/4 685/1/4 698/1/4
f 686/2/4 687/2/4 698/2/4
f 685/2/4 686/2/4 698/2/4
f 688/1/4 689/1/4 699/1/4
f 698/2/4 688/2/4 699/2/4
f 689/2/4 690/2/4 700/2/4
f 699/1/4 689/1/4 700/1/4
f 700/2/4 690/2/4 701/2/4
f 702/1/4 703/1/4 705/1/4
f 705/1/4 703/1/4 706/1/4
f 704/1/4 705/1/4 707/1/4
f 707/1/4 705/1/4 708/1/4
f 709/1/4 710/1/4 714/1/4
f 714/1/4 710/1/4 715/1/4
f 710/2/4 711/2/4 716/2/4
f 715/1/4 710/1/4 716/1/4
f 711/1/4 712/1/4 717/1/4
f 716/2/4 711/2/4 717/2/4
f 717/1/4 712/1/4 718/1/4
f 718/1/4 712/1/4 719/1/4
f 719/1/4 712/1/4 720/1/4
f 712/2/4 713/2/4 721/2/4
f 720/1/4 712/1/4 721/1/4
f 721/2/4 713/2/4 722/2/4
f 723/2/4 724/2/4 744/2/4
f 724/2/4 725/2/4 744/2/4
f 725/2/4 726/2/4 744/2/4
f 726/1/4 727/1/4 745/1/4
f 744/2/4 726/2/4 745/2/4
f 727/2/4 728/2/4 746/2/4
f 745/1/4 727/1/4 746/1/4
f 728/2/4 729/2/4 746/2/4
f 729/1/4 730/1/4 747/1/4
f 746/2/4 729/2/4 747/2/4
f 730/1/4 731/1/4 747/1/4
f 731/1/4 732/1/4 747/1/4
f 732/2/4 733/2/4 748/2/4
f 747/1/4 732/1/4 748/1/4
f 733/2/4 734/2/4 748/2/4
f 734/1/4 735/1/4 749/1/4
f 748/2/4 734/2/4 749/2/4
f 736/2/4 737/2/4 750/2/4
f 749/1/4 735/1/4 750/1/4
f 735/2/4 736/2/4 750/2/4
f 737/1/4 738/1/4 751/1/4
f 750/2/4 737/2/4 751/2/4
f 738/2/4 739/2/4 752/2/4
f 751/1/4 738/1/4 752/1/4
f 739/1/4 740/1/4 753/1/4
f 752/2/4 739/2/4 753/2/4
f 742/2/4 743/2/4 754/2/4
f 753/1/4 740/1/4 754/1/4
f 741/2/4 742/2/4 754/2/4
f 740/2/4 741/2/4 754/2/4
f 754/2/4 743/2/4 755/2/4
f 756/2/4 757/2/4 758/2/4
f 758/2/4 757/2/4 759/2/4
f 759/2/4 760/2/4 762/2/4
f 760/1/4 761/1/4 763/1/4
f 762/2/4 760/2/4 763/2/4
f 763/1/4 761/1/4 764/1/4
f 765/1/4 766/1/4 768/1/4
f 768/1/4 766/1/4 769/1/4
f 767/1/4 768/1/4 770/1/4
f 770/1/4 768/1/4 771/1/4
f 772/1/4 773/1/4 779/1/4
f 779/1/4 773/1/4 780/1/4
f 773/2/4 774/2/4 781/2/4
f 780/1/4 773/1/4 781/1/4
f 774/1/4 775/1/4 782/1/4
f 781/2/4 774/2/4 782/2/4
f 782/1/4 775/1/4 783/1/4
f 783/1/4 775/1/4 784/1/4
f 775/2/4 776/2/4 785/2/4
f 784/1/4 775/1/4 785/1/4
f 776/1/4 777/1/4 786/1/4
f 785/2/4 776/2/4 786/2/4
f 786/1/4 777/1/4 787/1/4
f 787/1/4 777/1/4 788/1/4
f 788/1/4 777/1/4 789/1/4
f 779/1/4 780/1/4 791/1/4
f 778/1/4 779/1/4 791/1/4
f 791/1/4 780/1/4 792/1/4
f 780/2/4 781/2/4 793/2/4
f 792/1/4 780/1/4 793/1/4
f 781/2/4 782/2/4 793/2/4
f 782/2/4 783/2/4 793/2/4
f 793/2/4 783/2/4 794/2/4
f 794/2/4 783/2/4 795/2/4
f 783/1/4 784/1/4 796/1/4
f 784/2/4 785/2/4 797/2/4
f 796/1/4 784/1/4 797/1/4
f 785/2/4 786/2/4 797/2/4
f 786/2/4 787/2/4 797/2/4
f 787/1/4 788/1/4 798/1/4
f 788/2/4 789/2/4 799/2/4
f 798/1/4 788/1/4 799/1/4
f 790/2/4 791/2/4 800/2/4
f 791/1/4 792/1/4 801/1/4
f 800/2/4 791/2/4 801/2/4
f 793/2/4 794/2/4 802/2/4
f 801/1/4 792/1/4 802/1/4
f 792/2/4 793/2/4 802/2/4
f 794/1/4 795/1/4 803/1/4
f 802/2/4 794/2/4 803/2/4
f 795/2/4 783/2/4 804/2/4
f 803/1/4 795/1/4 804/1/4
f 783/1/4 796/1/4 805/1/4
f 804/2/4 783/2/4 805/2/4
f 796/2/4 797/2/4 806/2/4
f 805/1/4 796/1/4 806/1/4
f 787/1/4 798/1/4 807/1/4
f 806/2/4 797/2/4 807/2/4
f 797/2/4 787/2/4 807/2/4
f 798/2/4 799/2/4 808/2/4
f 807/1/4 798/1/4 808/1/4
f 789/1/4 777/1/4 809/1/4
f 808/2/4 799/2/4 809/2/4
f 799/2/4 789/2/4 809/2/4
f 809/1/4 777/1/4 810/1/4
f 811/2/4 812/2/4 813/2/4
f 813/2/4 812/2/4 814/2/4
f 814/2/4 815/2/4 816/2/4
f 816/2/4 815/2/4 817/2/4
f 818/1/4 819/1/4 821/1/4
f 821/1/4 819/1/4 822/1/4
f 820/1/4 821/1/4 823/1/4
f 820/1/4 823/1/4 824/1/4
f 824/1/4 823/1/4 825/1/4
f 824/2/4 825/2/4 826/2/4
f 826/2/4 825/2/4 827/2/4
f 827/2/4 828/2/4 829/2/4
f 829/2/4 828/2/4 830/2/4
f 831/1/4 832/1/4 833/1/4
f 833/1/4 832/1/4 834/1/4
f 833/2/4 834/2/4 835/2/4
f 835/2/4 834/2/4 836/2/4
f 840/1/5 838/1/5 837/1/5
f 841/1/5 838/1/5 840/1/5
f 842/2/5 840/2/5 839/2/5
f 843/2/5 840/2/5 842/2/5
f 846/2/5 845/2/5 844/2/5
f 847/2/5 845/2/5 846/2/5
f 851/2/5 849/2/5 848/2/5
f 852/2/5 849/2/5 851/2/5
f 853/2/5 851/2/5 850/2/5
f 854/2/5 851/2/5 853/2/5
f 858/2/5 856/2/5 855/2/5
f 859/2/5 856/2/5 858/2/5
f 860/1/5 858/1/5 857/1/5
f 861/1/5 858/1/5 860/1/5
f 864/2/5 863/2/5 862/2/5
f 865/2/5 863/2/5 864/2/5
f 868/2/5 867/2/5 866/2/5
f 869/2/5 867/2/5 868/2/5
f 873/1/5 871/1/5 870/1/5
f 874/1/5 871/1/5 873/1/5
f 875/1/5 873/1/5 872/1/5
f 876/1/5 873/1/5 875/1/5
f 879/1/5 878/1/5 877/1/5
f 880/1/5 878/1/5 879/1/5
f 883/2/5 882/2/5 881/2/5
f 884/2/5 882/2/5 883/2/5
f 888/1/5 886/1/5 885/1/5
f 889/1/5 886/1/5 888/1/5
f 890/1/5 888/1/5 887/1/5
f 891/1/5 888/1/5 890/1/5
f 894/1/5 893/1/5 892/1/5
f 895/1/5 893/1/5 894/1/5
f 898/2/5 897/2/5 896/2/5
f 899/2/5 897/2/5 898/2/5
f 903/2/5 901/2/5 900/2/5
f 904/2/5 901/2/5 903/2/5
f 905/1/5 903/1/5 902/1/5
f 906/1/5 903/1/5 905/1/5
f 910/1/5 908/1/5 907/1/5
f 911/1/5 908/1/5 910/1/5
f 912/1/5 910/1/5 909/1/5
f 913/1/5 910/1/5 912/1/5
f 916/2/5 915/2/5 914/2/5
f 917/2/5 915/2/5 916/2/5
f 920/2/5 919/2/5 918/2/5
f 921/2/5 919/2/5 920/2/5
f 925/2/5 923/2/5 922/2/5
f 926/2/5 923/2/5 925/2/5
f 927/1/5 925/1/5 924/1/5
f 928/1/5 925/1/5 927/1/5
f 931/2/5 930/2/5 929/2/5
f 932/2/5 930/2/5 931/2/5
f 935/2/5 934/2/5 933/2/5
f 936/2/5 934/2/5 935/2/5
f 940/2/5 938/2/5 937/2/5
f 941/2/5 938/2/5 940/2/5
f 942/1/5 940/1/5 939/1/5
f 943/1/5 940/1/5 942/1/5
f 946/1/5 945/1/5 944/1/5
f 947/1/5 945/1/5 946/1/5
f 950/2/5 949/2/5 948/2/5
f 951/2/5 949/2/5 950/2/5
f 955/2/5 953/2/5 952/2/5
f 956/2/5 953/2/5 955/2/5
f 957/1/5 955/1/5 954/1/5
f 958/1/5 955/1/5 957/1/5
f 961/1/5 960/1/5 959/1/5
f 962/1/5 960/1/5 961/1/5
f 965/2/5 964/2/5 963/2/5
f 966/2/5 964/2/5 965/2/5
f 969/2/5 968/2/5 967/2/5
f 970/2/5 968/2/5 969/2/5
f 973/2/5 972/2/5 971/2/5
f 974/2/5 972/2/5 973/2/5
f 979/2/5 976/2/5 975/2/5
f 980/2/5 976/2/5 979/2/5
f 981/2/5 976/2/5 980/2/5
f 982/1/5 977/1/5 976/1/5
f 982/2/5 976/2/5 981/2/5
f 983/1/5 977/1/5 982/1/5
f 986/2/5 979/2/5 978/2/5
f 986/2/5 980/2/5 979/2/5
f 987/2/5 980/2/5 986/2/5
f 988/2/5 980/2/5 987/2/5
f 989/1/5 984/1/5 983/1/5
f 989/1/5 983/1/5 982/1/5
f 990/1/5 984/1/5 989/1/5
f 991/1/5 984/1/5 990/1/5
f 993/2/5 987/2/5 986/2/5
f 993/2/5 986/2/5 985/2/5
f 994/2/5 987/2/5 993/2/5
f 995/1/5 992/1/5 991/1/5
f 995/1/5 991/1/5 990/1/5
f 996/1/5 992/1/5 995/1/5
f 997/1/5 992/1/5 996/1/5
f 998/2/5 993/2/5 985/2/5
f 999/2/5 993/2/5 998/2/5
f 1002/2/5 997/2/5 996/2/5
f 1003/1/5 1000/1/5 999/1/5
f 1003/1/5 999/1/5 998/1/5
f 1004/1/5 1000/1/5 1003/1/5
f 1005/1/5 1000/1/5 1004/1/5
f 1008/2/5 1002/2/5 1001/2/5
f 1009/2/5 997/2/5 1002/2/5
f 1009/2/5 1002/2/5 1008/2/5
f 1010/2/5 997/2/5 1009/2/5
f 1011/1/5 1006/1/5 1005/1/5
f 1011/1/5 1005/1/5 1004/1/5
f 1012/1/5 1006/1/5 1011/1/5
f 1013/1/5 1006/1/5 1012/1/5
f 1014/1/5 1008/1/5 1007/1/5
f 1015/2/5 1009/2/5 1008/2/5
f 1015/1/5 1008/1/5 1014/1/5
f 1016/2/5 1009/2/5 1015/2/5
f 1017/1/5 1013/1/5 1012/1/5
f 1017/1/5 1014/1/5 1013/1/5
f 1018/2/5 1015/2/5 1014/2/5
f 1018/1/5 1014/1/5 1017/1/5
f 1019/2/5 1015/2/5 1018/2/5
f 1024/2/5 1021/2/5 1020/2/5
f 1025/1/5 1022/1/5 1021/1/5
f 1025/2/5 1021/2/5 1024/2/5
f 1026/1/5 1022/1/5 1025/1/5
f 1029/2/5 1024/2/5 1023/2/5
f 1030/2/5 1024/2/5 1029/2/5
f 1031/1/5 1027/1/5 1026/1/5
f 1032/1/5 1027/1/5 1031/1/5
f 1035/2/5 1029/2/5 1028/2/5
f 1036/2/5 1029/2/5 1035/2/5
f 1037/1/5 1033/1/5 1032/1/5
f 1038/1/5 1033/1/5 1037/1/5
f 1040/1/5 1039/1/5 1038/1/5
f 1041/1/5 1039/1/5 1040/1/5
f 1042/1/5 1035/1/5 1034/1/5
f 1043/1/5 1042/1/5 1034/1/5
f 1044/1/5 1042/1/5 1043/1/5
f 1047/2/5 1041/2/5 1040/2/5
f 1048/2/5 1041/2/5 1047/2/5
f 1049/1/5 1045/1/5 1044/1/5
f 1050/1/5 1045/1/5 1049/1/5
f 1053/2/5 1047/2/5 1046/2/5
f 1054/2/5 1047/2/5 1053/2/5
f 1055/1/5 1051/1/5 1050/1/5
f 1056/1/5 1051/1/5 1055/1/5
f 1059/2/5 1053/2/5 1052/2/5
f 1060/2/5 1053/2/5 1059/2/5
f 1061/1/5 1057/1/5 1056/1/5
f 1062/2/5 1058/2/5 1057/2/5
f 1062/1/5 1057/1/5 1061/1/5
f 1062/2/5 1059/2/5 1058/2/5
f 1063/2/5 1059/2/5 1062/2/5
f 1064/2/6 1065/2/6 1068/2/6
f 1065/1/6 1066/1/6 1069/1/6
f 1067/2/6 1068/2/6 1072/2/6
f 1068/2/6 1065/2/6 1073/2/6
f 1072/2/6 1068/2/6 1073/2/6
f 1073/2/6 1065/2/6 1074/2/6
f 1069/1/6 1070/1/6 1075/1/6
f 1074/2/6 1065/2/6 1075/2/6
f 1065/1/6 1069/1/6 1075/1/6
f 1075/1/6 1070/1/6 1076/1/6
f 1071/1/6 1072/1/6 1079/1/6
f 1072/1/6 1073/1/6 1079/1/6
f 1073/2/6 1074/2/6 1080/2/6
f 1079/1/6 1073/1/6 1080/1/6
f 1076/1/6 1077/1/6 1081/1/6
f 1080/2/6 1074/2/6 1081/2/6
f 1075/1/6 1076/1/6 1081/1/6
f 1074/1/6 1075/1/6 1081/1/6
f 1081/1/6 1077/1/6 1082/1/6
f 1078/1/6 1079/1/6 1084/1/6
f 1082/1/6 1083/1/6 1084/1/6
f 1081/1/6 1082/1/6 1084/1/6
f 1080/1/6 1081/1/6 1084/1/6
f 1079/1/6 1080/1/6 1084/1/6
f 1084/1/6 1083/1/6 1085/1/6
f 1078/1/6 1084/1/6 1086/1/6
f 1086/1/6 1084/1/6 1087/1/6
f 1087/1/6 1084/1/6 1088/1/6
f 1084/2/6 1085/2/6 1089/2/6
f 1088/1/6 1084/1/6 1089/1/6
f 1085/1/6 1083/1/6 1090/1/6
f 1089/2/6 1085/2/6 1090/2/6
f 1090/1/6 1083/1/6 1091/1/6
f 1087/1/6 1088/1/6 1092/1/6
f 1092/1/6 1088/1/6 1093/1/6
f 1093/1/6 1088/1/6 1094/1/6
f 1088/2/6 1089/2/6 1095/2/6
f 1094/1/6 1088/1/6 1095/1/6
f 1089/2/6 1090/2/6 1095/2/6
f 1095/2/6 1090/2/6 1096/2/6
f 1096/2/6 1090/2/6 1097/2/6
f 1093/1/6 1094/1/6 1098/1/6
f 1098/1/6 1094/1/6 1099/1/6
f 1099/1/6 1094/1/6 1100/1/6
f 1095/2/6 1096/2/6 1101/2/6
f 1100/1/6 1094/1/6 1101/1/6
f 1094/2/6 1095/2/6 1101/2/6
f 1101/2/6 1096/2/6 1102/2/6
f 1102/2/6 1096/2/6 1103/2/6
f 1099/1/6 1100/1/6 1104/1/6
f 1101/2/6 1102/2/6 1105/2/6
f 1104/1/6 1100/1/6 1105/1/6
f 1100/2/6 1101/2/6 1105/2/6
f 1105/2/6 1102/2/6 1106/2/6
