# MagicaVoxel @ Ephtracy

# group
o 

# material
mtllib escalera-0.mtl
usemtl palette

# normals
vn -1 0 0
vn 1 0 0
vn 0 0 1
vn 0 0 -1
vn 0 -1 0
vn 0 1 0

# texcoords
vt 0.935547 0.5
vt 0.943359 0.5
vt 0.947266 0.5
vt 0.951172 0.5
vt 0.958984 0.5
vt 0.994141 0.5

# verts
v -17 1 -1.7
v -17 1 -1.8
v -17 1 -1.9
v -17 1 -2
v -17 1.1 -1.7
v -17 1.1 -1.8
v -17 1.1 -1.9
v -17 1.1 -2
v -16.9 1.1 -1.7
v -16.9 1.1 -1.8
v -16.9 1.1 -1.9
v -16.9 1.1 -2
v -16.9 1.2 -1.7
v -16.9 1.2 -2
v -16.8 1.2 -1.7
v -16.8 1.2 -1.8
v -16.8 1.2 -1.9
v -16.8 1.2 -2
v -16.8 1.3 -1.7
v -16.8 1.3 -1.8
v -16.8 1.3 -1.9
v -16.8 1.3 -2
v -16.7 1.3 -1.7
v -16.7 1.3 -1.8
v -16.7 1.3 -1.9
v -16.7 1.3 -2
v -16.7 1.4 -1.7
v -16.7 1.4 -1.8
v -16.7 1.4 -1.9
v -16.7 1.4 -2
v -16.6 1.4 -1.7
v -16.6 1.4 -1.8
v -16.6 1.4 -1.9
v -16.6 1.4 -2
v -16.6 1.5 -1.7
v -16.6 1.5 -1.8
v -16.6 1.5 -1.9
v -16.6 1.5 -2
v -16.5 1.5 -1.7
v -16.5 1.5 -1.8
v -16.5 1.5 -1.9
v -16.5 1.5 -2
v -16.5 1.6 -1.7
v -16.5 1.6 -1.8
v -16.5 1.6 -1.9
v -16.5 1.6 -2
v -16.4 1.6 -1.7
v -16.4 1.6 -1.8
v -16.4 1.6 -1.9
v -16.4 1.6 -2
v -16.4 1.7 -1.7
v -16.4 1.7 -1.8
v -16.4 1.7 -1.9
v -16.4 1.7 -2
v -16.3 1.7 -1.7
v -16.3 1.7 -1.8
v -16.3 1.7 -1.9
v -16.3 1.7 -2
v -16.3 1.8 -1.7
v -16.3 1.8 -1.8
v -16.3 1.8 -1.9
v -16.3 1.8 -2
v -16.2 1.8 -1.7
v -16.2 1.8 -1.8
v -16.2 1.8 -1.9
v -16.2 1.8 -2
v -16.2 1.9 -1.7
v -16.2 1.9 -1.8
v -16.2 1.9 -1.9
v -16.2 1.9 -2
v -16.1 1.9 -1.7
v -16.1 1.9 -1.8
v -16.1 1.9 -1.9
v -16.1 1.9 -2
v -16.1 2 -1.7
v -16.1 2 -1.8
v -16.1 2 -1.9
v -16.1 2 -2
v -16 2 -1.7
v -16 2 -1.8
v -16 2 -1.9
v -16 2 -2
v -16 2.1 -1.7
v -16 2.1 -1.8
v -16 2.1 -1.9
v -16 2.1 -2
v -15.9 2.1 -1.7
v -15.9 2.1 -1.8
v -15.9 2.1 -1.9
v -15.9 2.1 -2
v -15.9 2.2 -1.7
v -15.9 2.2 -1.8
v -15.9 2.2 -1.9
v -15.9 2.2 -2
v -15.8 2.2 -1.7
v -15.8 2.2 -1.8
v -15.8 2.2 -1.9
v -15.8 2.2 -2
v -15.8 2.3 -1.7
v -15.8 2.3 -1.8
v -15.8 2.3 -1.9
v -15.8 2.3 -2
v -15.7 2.3 -1.7
v -15.7 2.3 -1.8
v -15.7 2.3 -1.9
v -15.7 2.3 -2
v -15.7 2.4 -1.7
v -15.7 2.4 -1.8
v -15.7 2.4 -1.9
v -15.7 2.4 -2
v -15.6 2.4 -1.7
v -15.6 2.4 -1.8
v -15.6 2.4 -1.9
v -15.6 2.4 -2
v -15.6 2.5 -1.7
v -15.6 2.5 -1.8
v -15.6 2.5 -1.9
v -15.6 2.5 -2
v -15.5 2.5 -1.7
v -15.5 2.5 -1.8
v -15.5 2.5 -1.9
v -15.5 2.5 -2
v -15.5 2.6 -1.7
v -15.5 2.6 -1.8
v -15.5 2.6 -1.9
v -15.5 2.6 -2
v -15.4 2.6 -1.7
v -15.4 2.6 -1.8
v -15.4 2.6 -1.9
v -15.4 2.6 -2
v -15.4 2.7 -1.7
v -15.4 2.7 -1.8
v -15.4 2.7 -1.9
v -15.4 2.7 -2
v -15.3 2.7 -1.7
v -15.3 2.7 -1.8
v -15.3 2.7 -1.9
v -15.3 2.7 -2
v -15.3 2.8 -1.7
v -15.3 2.8 -1.8
v -15.3 2.8 -1.9
v -15.3 2.8 -2
v -15.2 2.8 -1.7
v -15.2 2.8 -1.8
v -15.2 2.8 -1.9
v -15.2 2.8 -2
v -15.2 2.9 -1.7
v -15.2 2.9 -1.8
v -15.2 2.9 -1.9
v -15.2 2.9 -2
v -15.1 2.9 -1.7
v -15.1 2.9 -1.8
v -15.1 2.9 -1.9
v -15.1 2.9 -2
v -15.1 3 -1.7
v -15.1 3 -1.8
v -15.1 3 -1.9
v -15.1 3 -2
v -15 3 -1.7
v -15 3 -1.8
v -15 3 -1.9
v -15 3 -2
v -15 3.1 -1.7
v -15 3.1 -1.8
v -15 3.1 -1.9
v -15 3.1 -2
v -14.9 3.1 -1.7
v -14.9 3.1 -1.8
v -14.9 3.1 -1.9
v -14.9 3.1 -2
v -14.9 3.2 -1.7
v -14.9 3.2 -1.8
v -14.9 3.2 -1.9
v -14.9 3.2 -2
v -14.8 3.2 -1.7
v -14.8 3.2 -1.8
v -14.8 3.2 -1.9
v -14.8 3.2 -2
v -14.8 3.3 -1.7
v -14.8 3.3 -1.8
v -14.8 3.3 -1.9
v -14.8 3.3 -2
v -14.7 3.3 -1.7
v -14.7 3.3 -1.8
v -14.7 3.3 -1.9
v -14.7 3.3 -2
v -14.7 3.4 -1.7
v -14.7 3.4 -1.8
v -14.7 3.4 -1.9
v -14.7 3.4 -2
v -14.6 3.4 -1.7
v -14.6 3.4 -1.8
v -14.6 3.4 -1.9
v -14.6 3.4 -2
v -14.6 3.5 -1.7
v -14.6 3.5 -1.8
v -14.6 3.5 -1.9
v -14.6 3.5 -2
v -14.5 3.5 -1.7
v -14.5 3.5 -1.8
v -14.5 3.5 -1.9
v -14.5 3.5 -2
v -14.5 3.6 -1.7
v -14.5 3.6 -1.8
v -14.5 3.6 -1.9
v -14.5 3.6 -2
v -14.4 3.6 -1.7
v -14.4 3.6 -1.8
v -14.4 3.6 -1.9
v -14.4 3.6 -2
v -14.4 3.7 -1.7
v -14.4 3.7 -1.8
v -14.4 3.7 -1.9
v -14.4 3.7 -2
v -14.3 3.7 -1.7
v -14.3 3.7 -1.8
v -14.3 3.7 -1.9
v -14.3 3.7 -2
v -14.3 3.8 -1.7
v -14.3 3.8 -1.8
v -14.3 3.8 -1.9
v -14.3 3.8 -2
v -14.2 3.8 -1.7
v -14.2 3.8 -1.8
v -14.2 3.8 -1.9
v -14.2 3.8 -2
v -14.2 3.9 -1.7
v -14.2 3.9 -1.8
v -14.2 3.9 -1.9
v -14.2 3.9 -2
v -14.1 3.9 -1.7
v -14.1 3.9 -1.8
v -14.1 3.9 -1.9
v -14.1 3.9 -2
v -14.1 4 -1.7
v -14.1 4 -2
v -16.9 1 -1.7
v -16.9 1 -1.8
v -16.9 1 -1.9
v -16.9 1 -2
v -16.9 1.1 -1.7
v -16.9 1.1 -1.8
v -16.9 1.1 -1.9
v -16.9 1.1 -2
v -16.8 1.1 -1.7
v -16.8 1.1 -2
v -16.8 1.2 -1.7
v -16.8 1.2 -1.8
v -16.8 1.2 -1.9
v -16.8 1.2 -2
v -16.7 1.2 -1.7
v -16.7 1.2 -1.8
v -16.7 1.2 -1.9
v -16.7 1.2 -2
v -16.7 1.3 -1.7
v -16.7 1.3 -1.8
v -16.7 1.3 -1.9
v -16.7 1.3 -2
v -16.6 1.3 -1.7
v -16.6 1.3 -1.8
v -16.6 1.3 -1.9
v -16.6 1.3 -2
v -16.6 1.4 -1.7
v -16.6 1.4 -1.8
v -16.6 1.4 -1.9
v -16.6 1.4 -2
v -16.5 1.4 -1.7
v -16.5 1.4 -1.8
v -16.5 1.4 -1.9
v -16.5 1.4 -2
v -16.5 1.5 -1.7
v -16.5 1.5 -1.8
v -16.5 1.5 -1.9
v -16.5 1.5 -2
v -16.4 1.5 -1.7
v -16.4 1.5 -1.8
v -16.4 1.5 -1.9
v -16.4 1.5 -2
v -16.4 1.6 -1.7
v -16.4 1.6 -1.8
v -16.4 1.6 -1.9
v -16.4 1.6 -2
v -16.3 1.6 -1.7
v -16.3 1.6 -1.8
v -16.3 1.6 -1.9
v -16.3 1.6 -2
v -16.3 1.7 -1.7
v -16.3 1.7 -1.8
v -16.3 1.7 -1.9
v -16.3 1.7 -2
v -16.2 1.7 -1.7
v -16.2 1.7 -1.8
v -16.2 1.7 -1.9
v -16.2 1.7 -2
v -16.2 1.8 -1.7
v -16.2 1.8 -1.8
v -16.2 1.8 -1.9
v -16.2 1.8 -2
v -16.1 1.8 -1.7
v -16.1 1.8 -1.8
v -16.1 1.8 -1.9
v -16.1 1.8 -2
v -16.1 1.9 -1.7
v -16.1 1.9 -1.8
v -16.1 1.9 -1.9
v -16.1 1.9 -2
v -16 1.9 -1.7
v -16 1.9 -1.8
v -16 1.9 -1.9
v -16 1.9 -2
v -16 2 -1.7
v -16 2 -1.8
v -16 2 -1.9
v -16 2 -2
v -15.9 2 -1.7
v -15.9 2 -1.8
v -15.9 2 -1.9
v -15.9 2 -2
v -15.9 2.1 -1.7
v -15.9 2.1 -1.8
v -15.9 2.1 -1.9
v -15.9 2.1 -2
v -15.8 2.1 -1.7
v -15.8 2.1 -1.8
v -15.8 2.1 -1.9
v -15.8 2.1 -2
v -15.8 2.2 -1.7
v -15.8 2.2 -1.8
v -15.8 2.2 -1.9
v -15.8 2.2 -2
v -15.7 2.2 -1.7
v -15.7 2.2 -1.8
v -15.7 2.2 -1.9
v -15.7 2.2 -2
v -15.7 2.3 -1.7
v -15.7 2.3 -1.8
v -15.7 2.3 -1.9
v -15.7 2.3 -2
v -15.6 2.3 -1.7
v -15.6 2.3 -1.8
v -15.6 2.3 -1.9
v -15.6 2.3 -2
v -15.6 2.4 -1.7
v -15.6 2.4 -1.8
v -15.6 2.4 -1.9
v -15.6 2.4 -2
v -15.5 2.4 -1.7
v -15.5 2.4 -1.8
v -15.5 2.4 -1.9
v -15.5 2.4 -2
v -15.5 2.5 -1.7
v -15.5 2.5 -1.8
v -15.5 2.5 -1.9
v -15.5 2.5 -2
v -15.4 2.5 -1.7
v -15.4 2.5 -1.8
v -15.4 2.5 -1.9
v -15.4 2.5 -2
v -15.4 2.6 -1.7
v -15.4 2.6 -1.8
v -15.4 2.6 -1.9
v -15.4 2.6 -2
v -15.3 2.6 -1.7
v -15.3 2.6 -1.8
v -15.3 2.6 -1.9
v -15.3 2.6 -2
v -15.3 2.7 -1.7
v -15.3 2.7 -1.8
v -15.3 2.7 -1.9
v -15.3 2.7 -2
v -15.2 2.7 -1.7
v -15.2 2.7 -1.8
v -15.2 2.7 -1.9
v -15.2 2.7 -2
v -15.2 2.8 -1.7
v -15.2 2.8 -1.8
v -15.2 2.8 -1.9
v -15.2 2.8 -2
v -15.1 2.8 -1.7
v -15.1 2.8 -1.8
v -15.1 2.8 -1.9
v -15.1 2.8 -2
v -15.1 2.9 -1.7
v -15.1 2.9 -1.8
v -15.1 2.9 -1.9
v -15.1 2.9 -2
v -15 2.9 -1.7
v -15 2.9 -1.8
v -15 2.9 -1.9
v -15 2.9 -2
v -15 3 -1.7
v -15 3 -1.8
v -15 3 -1.9
v -15 3 -2
v -14.9 3 -1.7
v -14.9 3 -1.8
v -14.9 3 -1.9
v -14.9 3 -2
v -14.9 3.1 -1.7
v -14.9 3.1 -1.8
v -14.9 3.1 -1.9
v -14.9 3.1 -2
v -14.8 3.1 -1.7
v -14.8 3.1 -1.8
v -14.8 3.1 -1.9
v -14.8 3.1 -2
v -14.8 3.2 -1.7
v -14.8 3.2 -1.8
v -14.8 3.2 -1.9
v -14.8 3.2 -2
v -14.7 3.2 -1.7
v -14.7 3.2 -1.8
v -14.7 3.2 -1.9
v -14.7 3.2 -2
v -14.7 3.3 -1.7
v -14.7 3.3 -1.8
v -14.7 3.3 -1.9
v -14.7 3.3 -2
v -14.6 3.3 -1.8
v -14.6 3.3 -1.9
v -14.6 3.3 -2
v -14.6 3.4 -1.8
v -14.6 3.4 -1.9
v -14.6 3.4 -2
v -14.5 3.3 -1.7
v -14.5 3.3 -1.8
v -14.5 3.4 -1.7
v -14.5 3.4 -1.8
v -14.5 3.4 -1.9
v -14.5 3.4 -2
v -14.5 3.5 -1.8
v -14.5 3.5 -1.9
v -14.5 3.5 -2
v -14.4 3.4 -1.7
v -14.4 3.4 -1.8
v -14.4 3.5 -1.7
v -14.4 3.5 -1.8
v -14.4 3.5 -1.9
v -14.4 3.5 -2
v -14.4 3.6 -1.7
v -14.4 3.6 -1.8
v -14.4 3.6 -1.9
v -14.4 3.6 -2
v -14.3 3.6 -1.7
v -14.3 3.6 -1.8
v -14.3 3.6 -1.9
v -14.3 3.6 -2
v -14.3 3.7 -1.7
v -14.3 3.7 -1.8
v -14.3 3.7 -1.9
v -14.3 3.7 -2
v -14.2 3.7 -1.7
v -14.2 3.7 -1.8
v -14.2 3.7 -1.9
v -14.2 3.7 -2
v -14.2 3.8 -1.7
v -14.2 3.8 -1.8
v -14.2 3.8 -1.9
v -14.2 3.8 -2
v -14.1 3.8 -1.7
v -14.1 3.8 -1.8
v -14.1 3.8 -1.9
v -14.1 3.8 -2
v -14.1 3.9 -1.7
v -14.1 3.9 -1.8
v -14.1 3.9 -1.9
v -14.1 3.9 -2
v -14 3.9 -1.7
v -14 3.9 -2
v -14 4 -1.7
v -14 4 -2
v -17 1 -1.7
v -17 1.1 -1.7
v -16.9 1 -1.7
v -16.9 1.1 -1.7
v -16.9 1.2 -1.7
v -16.8 1.1 -1.7
v -16.8 1.2 -1.7
v -16.8 1.3 -1.7
v -16.7 1.2 -1.7
v -16.7 1.3 -1.7
v -16.7 1.4 -1.7
v -16.6 1.3 -1.7
v -16.6 1.4 -1.7
v -16.6 1.5 -1.7
v -16.5 1.4 -1.7
v -16.5 1.5 -1.7
v -16.5 1.6 -1.7
v -16.4 1.5 -1.7
v -16.4 1.6 -1.7
v -16.4 1.7 -1.7
v -16.3 1.6 -1.7
v -16.3 1.7 -1.7
v -16.3 1.8 -1.7
v -16.2 1.7 -1.7
v -16.2 1.8 -1.7
v -16.2 1.9 -1.7
v -16.1 1.8 -1.7
v -16.1 1.9 -1.7
v -16.1 2 -1.7
v -16 1.9 -1.7
v -16 2 -1.7
v -16 2.1 -1.7
v -15.9 2 -1.7
v -15.9 2.1 -1.7
v -15.9 2.2 -1.7
v -15.8 2.1 -1.7
v -15.8 2.2 -1.7
v -15.8 2.3 -1.7
v -15.7 2.2 -1.7
v -15.7 2.3 -1.7
v -15.7 2.4 -1.7
v -15.6 2.3 -1.7
v -15.6 2.4 -1.7
v -15.6 2.5 -1.7
v -15.5 2.4 -1.7
v -15.5 2.5 -1.7
v -15.5 2.6 -1.7
v -15.4 2.5 -1.7
v -15.4 2.6 -1.7
v -15.4 2.7 -1.7
v -15.3 2.6 -1.7
v -15.3 2.7 -1.7
v -15.3 2.8 -1.7
v -15.2 2.7 -1.7
v -15.2 2.8 -1.7
v -15.2 2.9 -1.7
v -15.1 2.8 -1.7
v -15.1 2.9 -1.7
v -15.1 3 -1.7
v -15 2.9 -1.7
v -15 3 -1.7
v -15 3.1 -1.7
v -14.9 3 -1.7
v -14.9 3.1 -1.7
v -14.9 3.2 -1.7
v -14.8 3.1 -1.7
v -14.8 3.2 -1.7
v -14.8 3.3 -1.7
v -14.7 3.2 -1.7
v -14.7 3.3 -1.7
v -14.7 3.4 -1.7
v -14.6 3.4 -1.7
v -14.6 3.5 -1.7
v -14.5 3.3 -1.7
v -14.5 3.4 -1.7
v -14.5 3.5 -1.7
v -14.5 3.6 -1.7
v -14.4 3.4 -1.7
v -14.4 3.5 -1.7
v -14.4 3.6 -1.7
v -14.4 3.7 -1.7
v -14.3 3.6 -1.7
v -14.3 3.7 -1.7
v -14.3 3.8 -1.7
v -14.2 3.7 -1.7
v -14.2 3.8 -1.7
v -14.2 3.9 -1.7
v -14.1 3.8 -1.7
v -14.1 3.9 -1.7
v -14.1 4 -1.7
v -14 3.9 -1.7
v -14 4 -1.7
v -14.6 3.3 -1.8
v -14.6 3.4 -1.8
v -14.5 3.3 -1.8
v -14.5 3.4 -1.8
v -14.5 3.5 -1.8
v -14.4 3.4 -1.8
v -14.4 3.5 -1.8
v -17 1 -2
v -17 1.1 -2
v -16.9 1 -2
v -16.9 1.1 -2
v -16.9 1.2 -2
v -16.8 1.1 -2
v -16.8 1.2 -2
v -16.8 1.3 -2
v -16.7 1.2 -2
v -16.7 1.3 -2
v -16.7 1.4 -2
v -16.6 1.3 -2
v -16.6 1.4 -2
v -16.6 1.5 -2
v -16.5 1.4 -2
v -16.5 1.5 -2
v -16.5 1.6 -2
v -16.4 1.5 -2
v -16.4 1.6 -2
v -16.4 1.7 -2
v -16.3 1.6 -2
v -16.3 1.7 -2
v -16.3 1.8 -2
v -16.2 1.7 -2
v -16.2 1.8 -2
v -16.2 1.9 -2
v -16.1 1.8 -2
v -16.1 1.9 -2
v -16.1 2 -2
v -16 1.9 -2
v -16 2 -2
v -16 2.1 -2
v -15.9 2 -2
v -15.9 2.1 -2
v -15.9 2.2 -2
v -15.8 2.1 -2
v -15.8 2.2 -2
v -15.8 2.3 -2
v -15.7 2.2 -2
v -15.7 2.3 -2
v -15.7 2.4 -2
v -15.6 2.3 -2
v -15.6 2.4 -2
v -15.6 2.5 -2
v -15.5 2.4 -2
v -15.5 2.5 -2
v -15.5 2.6 -2
v -15.4 2.5 -2
v -15.4 2.6 -2
v -15.4 2.7 -2
v -15.3 2.6 -2
v -15.3 2.7 -2
v -15.3 2.8 -2
v -15.2 2.7 -2
v -15.2 2.8 -2
v -15.2 2.9 -2
v -15.1 2.8 -2
v -15.1 2.9 -2
v -15.1 3 -2
v -15 2.9 -2
v -15 3 -2
v -15 3.1 -2
v -14.9 3 -2
v -14.9 3.1 -2
v -14.9 3.2 -2
v -14.8 3.1 -2
v -14.8 3.2 -2
v -14.8 3.3 -2
v -14.7 3.2 -2
v -14.7 3.3 -2
v -14.7 3.4 -2
v -14.6 3.3 -2
v -14.6 3.4 -2
v -14.6 3.5 -2
v -14.5 3.4 -2
v -14.5 3.5 -2
v -14.5 3.6 -2
v -14.4 3.5 -2
v -14.4 3.6 -2
v -14.4 3.7 -2
v -14.3 3.6 -2
v -14.3 3.7 -2
v -14.3 3.8 -2
v -14.2 3.7 -2
v -14.2 3.8 -2
v -14.2 3.9 -2
v -14.1 3.8 -2
v -14.1 3.9 -2
v -14.1 4 -2
v -14 3.9 -2
v -14 4 -2
v -17 1 -1.7
v -16.9 1 -1.7
v -17 1 -1.8
v -16.9 1 -1.8
v -17 1 -1.9
v -16.9 1 -1.9
v -17 1 -2
v -16.9 1 -2
v -16.9 1.1 -1.7
v -16.8 1.1 -1.7
v -16.9 1.1 -1.8
v -16.9 1.1 -1.9
v -16.9 1.1 -2
v -16.8 1.1 -2
v -16.8 1.2 -1.7
v -16.7 1.2 -1.7
v -16.8 1.2 -1.8
v -16.7 1.2 -1.8
v -16.8 1.2 -1.9
v -16.7 1.2 -1.9
v -16.8 1.2 -2
v -16.7 1.2 -2
v -16.7 1.3 -1.7
v -16.6 1.3 -1.7
v -16.7 1.3 -1.8
v -16.6 1.3 -1.8
v -16.7 1.3 -1.9
v -16.6 1.3 -1.9
v -16.7 1.3 -2
v -16.6 1.3 -2
v -16.6 1.4 -1.7
v -16.5 1.4 -1.7
v -16.6 1.4 -1.8
v -16.5 1.4 -1.8
v -16.6 1.4 -1.9
v -16.5 1.4 -1.9
v -16.6 1.4 -2
v -16.5 1.4 -2
v -16.5 1.5 -1.7
v -16.4 1.5 -1.7
v -16.5 1.5 -1.8
v -16.4 1.5 -1.8
v -16.5 1.5 -1.9
v -16.4 1.5 -1.9
v -16.5 1.5 -2
v -16.4 1.5 -2
v -16.4 1.6 -1.7
v -16.3 1.6 -1.7
v -16.4 1.6 -1.8
v -16.3 1.6 -1.8
v -16.4 1.6 -1.9
v -16.3 1.6 -1.9
v -16.4 1.6 -2
v -16.3 1.6 -2
v -16.3 1.7 -1.7
v -16.2 1.7 -1.7
v -16.3 1.7 -1.8
v -16.2 1.7 -1.8
v -16.3 1.7 -1.9
v -16.2 1.7 -1.9
v -16.3 1.7 -2
v -16.2 1.7 -2
v -16.2 1.8 -1.7
v -16.1 1.8 -1.7
v -16.2 1.8 -1.8
v -16.1 1.8 -1.8
v -16.2 1.8 -1.9
v -16.1 1.8 -1.9
v -16.2 1.8 -2
v -16.1 1.8 -2
v -16.1 1.9 -1.7
v -16 1.9 -1.7
v -16.1 1.9 -1.8
v -16 1.9 -1.8
v -16.1 1.9 -1.9
v -16 1.9 -1.9
v -16.1 1.9 -2
v -16 1.9 -2
v -16 2 -1.7
v -15.9 2 -1.7
v -16 2 -1.8
v -15.9 2 -1.8
v -16 2 -1.9
v -15.9 2 -1.9
v -16 2 -2
v -15.9 2 -2
v -15.9 2.1 -1.7
v -15.8 2.1 -1.7
v -15.9 2.1 -1.8
v -15.8 2.1 -1.8
v -15.9 2.1 -1.9
v -15.8 2.1 -1.9
v -15.9 2.1 -2
v -15.8 2.1 -2
v -15.8 2.2 -1.7
v -15.7 2.2 -1.7
v -15.8 2.2 -1.8
v -15.7 2.2 -1.8
v -15.8 2.2 -1.9
v -15.7 2.2 -1.9
v -15.8 2.2 -2
v -15.7 2.2 -2
v -15.7 2.3 -1.7
v -15.6 2.3 -1.7
v -15.7 2.3 -1.8
v -15.6 2.3 -1.8
v -15.7 2.3 -1.9
v -15.6 2.3 -1.9
v -15.7 2.3 -2
v -15.6 2.3 -2
v -15.6 2.4 -1.7
v -15.5 2.4 -1.7
v -15.6 2.4 -1.8
v -15.5 2.4 -1.8
v -15.6 2.4 -1.9
v -15.5 2.4 -1.9
v -15.6 2.4 -2
v -15.5 2.4 -2
v -15.5 2.5 -1.7
v -15.4 2.5 -1.7
v -15.5 2.5 -1.8
v -15.4 2.5 -1.8
v -15.5 2.5 -1.9
v -15.4 2.5 -1.9
v -15.5 2.5 -2
v -15.4 2.5 -2
v -15.4 2.6 -1.7
v -15.3 2.6 -1.7
v -15.4 2.6 -1.8
v -15.3 2.6 -1.8
v -15.4 2.6 -1.9
v -15.3 2.6 -1.9
v -15.4 2.6 -2
v -15.3 2.6 -2
v -15.3 2.7 -1.7
v -15.2 2.7 -1.7
v -15.3 2.7 -1.8
v -15.2 2.7 -1.8
v -15.3 2.7 -1.9
v -15.2 2.7 -1.9
v -15.3 2.7 -2
v -15.2 2.7 -2
v -15.2 2.8 -1.7
v -15.1 2.8 -1.7
v -15.2 2.8 -1.8
v -15.1 2.8 -1.8
v -15.2 2.8 -1.9
v -15.1 2.8 -1.9
v -15.2 2.8 -2
v -15.1 2.8 -2
v -15.1 2.9 -1.7
v -15 2.9 -1.7
v -15.1 2.9 -1.8
v -15 2.9 -1.8
v -15.1 2.9 -1.9
v -15 2.9 -1.9
v -15.1 2.9 -2
v -15 2.9 -2
v -15 3 -1.7
v -14.9 3 -1.7
v -15 3 -1.8
v -14.9 3 -1.8
v -15 3 -1.9
v -14.9 3 -1.9
v -15 3 -2
v -14.9 3 -2
v -14.9 3.1 -1.7
v -14.8 3.1 -1.7
v -14.9 3.1 -1.8
v -14.8 3.1 -1.8
v -14.9 3.1 -1.9
v -14.8 3.1 -1.9
v -14.9 3.1 -2
v -14.8 3.1 -2
v -14.8 3.2 -1.7
v -14.7 3.2 -1.7
v -14.8 3.2 -1.8
v -14.7 3.2 -1.8
v -14.8 3.2 -1.9
v -14.7 3.2 -1.9
v -14.8 3.2 -2
v -14.7 3.2 -2
v -14.7 3.3 -1.7
v -14.5 3.3 -1.7
v -14.7 3.3 -1.8
v -14.6 3.3 -1.8
v -14.5 3.3 -1.8
v -14.7 3.3 -1.9
v -14.6 3.3 -1.9
v -14.7 3.3 -2
v -14.6 3.3 -2
v -14.5 3.4 -1.7
v -14.4 3.4 -1.7
v -14.6 3.4 -1.8
v -14.5 3.4 -1.8
v -14.4 3.4 -1.8
v -14.6 3.4 -1.9
v -14.5 3.4 -1.9
v -14.6 3.4 -2
v -14.5 3.4 -2
v -14.5 3.5 -1.8
v -14.4 3.5 -1.8
v -14.5 3.5 -1.9
v -14.4 3.5 -1.9
v -14.5 3.5 -2
v -14.4 3.5 -2
v -14.4 3.6 -1.7
v -14.3 3.6 -1.7
v -14.4 3.6 -1.8
v -14.3 3.6 -1.8
v -14.4 3.6 -1.9
v -14.3 3.6 -1.9
v -14.4 3.6 -2
v -14.3 3.6 -2
v -14.3 3.7 -1.7
v -14.2 3.7 -1.7
v -14.3 3.7 -1.8
v -14.2 3.7 -1.8
v -14.3 3.7 -1.9
v -14.2 3.7 -1.9
v -14.3 3.7 -2
v -14.2 3.7 -2
v -14.2 3.8 -1.7
v -14.1 3.8 -1.7
v -14.2 3.8 -1.8
v -14.1 3.8 -1.8
v -14.2 3.8 -1.9
v -14.1 3.8 -1.9
v -14.2 3.8 -2
v -14.1 3.8 -2
v -14.1 3.9 -1.7
v -14 3.9 -1.7
v -14.1 3.9 -1.8
v -14.1 3.9 -1.9
v -14.1 3.9 -2
v -14 3.9 -2
v -17 1.1 -1.7
v -16.9 1.1 -1.7
v -17 1.1 -1.8
v -16.9 1.1 -1.8
v -17 1.1 -1.9
v -16.9 1.1 -1.9
v -17 1.1 -2
v -16.9 1.1 -2
v -16.9 1.2 -1.7
v -16.8 1.2 -1.7
v -16.8 1.2 -1.8
v -16.8 1.2 -1.9
v -16.9 1.2 -2
v -16.8 1.2 -2
v -16.8 1.3 -1.7
v -16.7 1.3 -1.7
v -16.8 1.3 -1.8
v -16.7 1.3 -1.8
v -16.8 1.3 -1.9
v -16.7 1.3 -1.9
v -16.8 1.3 -2
v -16.7 1.3 -2
v -16.7 1.4 -1.7
v -16.6 1.4 -1.7
v -16.7 1.4 -1.8
v -16.6 1.4 -1.8
v -16.7 1.4 -1.9
v -16.6 1.4 -1.9
v -16.7 1.4 -2
v -16.6 1.4 -2
v -16.6 1.5 -1.7
v -16.5 1.5 -1.7
v -16.6 1.5 -1.8
v -16.5 1.5 -1.8
v -16.6 1.5 -1.9
v -16.5 1.5 -1.9
v -16.6 1.5 -2
v -16.5 1.5 -2
v -16.5 1.6 -1.7
v -16.4 1.6 -1.7
v -16.5 1.6 -1.8
v -16.4 1.6 -1.8
v -16.5 1.6 -1.9
v -16.4 1.6 -1.9
v -16.5 1.6 -2
v -16.4 1.6 -2
v -16.4 1.7 -1.7
v -16.3 1.7 -1.7
v -16.4 1.7 -1.8
v -16.3 1.7 -1.8
v -16.4 1.7 -1.9
v -16.3 1.7 -1.9
v -16.4 1.7 -2
v -16.3 1.7 -2
v -16.3 1.8 -1.7
v -16.2 1.8 -1.7
v -16.3 1.8 -1.8
v -16.2 1.8 -1.8
v -16.3 1.8 -1.9
v -16.2 1.8 -1.9
v -16.3 1.8 -2
v -16.2 1.8 -2
v -16.2 1.9 -1.7
v -16.1 1.9 -1.7
v -16.2 1.9 -1.8
v -16.1 1.9 -1.8
v -16.2 1.9 -1.9
v -16.1 1.9 -1.9
v -16.2 1.9 -2
v -16.1 1.9 -2
v -16.1 2 -1.7
v -16 2 -1.7
v -16.1 2 -1.8
v -16 2 -1.8
v -16.1 2 -1.9
v -16 2 -1.9
v -16.1 2 -2
v -16 2 -2
v -16 2.1 -1.7
v -15.9 2.1 -1.7
v -16 2.1 -1.8
v -15.9 2.1 -1.8
v -16 2.1 -1.9
v -15.9 2.1 -1.9
v -16 2.1 -2
v -15.9 2.1 -2
v -15.9 2.2 -1.7
v -15.8 2.2 -1.7
v -15.9 2.2 -1.8
v -15.8 2.2 -1.8
v -15.9 2.2 -1.9
v -15.8 2.2 -1.9
v -15.9 2.2 -2
v -15.8 2.2 -2
v -15.8 2.3 -1.7
v -15.7 2.3 -1.7
v -15.8 2.3 -1.8
v -15.7 2.3 -1.8
v -15.8 2.3 -1.9
v -15.7 2.3 -1.9
v -15.8 2.3 -2
v -15.7 2.3 -2
v -15.7 2.4 -1.7
v -15.6 2.4 -1.7
v -15.7 2.4 -1.8
v -15.6 2.4 -1.8
v -15.7 2.4 -1.9
v -15.6 2.4 -1.9
v -15.7 2.4 -2
v -15.6 2.4 -2
v -15.6 2.5 -1.7
v -15.5 2.5 -1.7
v -15.6 2.5 -1.8
v -15.5 2.5 -1.8
v -15.6 2.5 -1.9
v -15.5 2.5 -1.9
v -15.6 2.5 -2
v -15.5 2.5 -2
v -15.5 2.6 -1.7
v -15.4 2.6 -1.7
v -15.5 2.6 -1.8
v -15.4 2.6 -1.8
v -15.5 2.6 -1.9
v -15.4 2.6 -1.9
v -15.5 2.6 -2
v -15.4 2.6 -2
v -15.4 2.7 -1.7
v -15.3 2.7 -1.7
v -15.4 2.7 -1.8
v -15.3 2.7 -1.8
v -15.4 2.7 -1.9
v -15.3 2.7 -1.9
v -15.4 2.7 -2
v -15.3 2.7 -2
v -15.3 2.8 -1.7
v -15.2 2.8 -1.7
v -15.3 2.8 -1.8
v -15.2 2.8 -1.8
v -15.3 2.8 -1.9
v -15.2 2.8 -1.9
v -15.3 2.8 -2
v -15.2 2.8 -2
v -15.2 2.9 -1.7
v -15.1 2.9 -1.7
v -15.2 2.9 -1.8
v -15.1 2.9 -1.8
v -15.2 2.9 -1.9
v -15.1 2.9 -1.9
v -15.2 2.9 -2
v -15.1 2.9 -2
v -15.1 3 -1.7
v -15 3 -1.7
v -15.1 3 -1.8
v -15 3 -1.8
v -15.1 3 -1.9
v -15 3 -1.9
v -15.1 3 -2
v -15 3 -2
v -15 3.1 -1.7
v -14.9 3.1 -1.7
v -15 3.1 -1.8
v -14.9 3.1 -1.8
v -15 3.1 -1.9
v -14.9 3.1 -1.9
v -15 3.1 -2
v -14.9 3.1 -2
v -14.9 3.2 -1.7
v -14.8 3.2 -1.7
v -14.9 3.2 -1.8
v -14.8 3.2 -1.8
v -14.9 3.2 -1.9
v -14.8 3.2 -1.9
v -14.9 3.2 -2
v -14.8 3.2 -2
v -14.8 3.3 -1.7
v -14.7 3.3 -1.7
v -14.8 3.3 -1.8
v -14.7 3.3 -1.8
v -14.8 3.3 -1.9
v -14.7 3.3 -1.9
v -14.8 3.3 -2
v -14.7 3.3 -2
v -14.7 3.4 -1.7
v -14.6 3.4 -1.7
v -14.7 3.4 -1.8
v -14.6 3.4 -1.8
v -14.7 3.4 -1.9
v -14.6 3.4 -1.9
v -14.7 3.4 -2
v -14.6 3.4 -2
v -14.6 3.5 -1.7
v -14.5 3.5 -1.7
v -14.6 3.5 -1.8
v -14.5 3.5 -1.8
v -14.6 3.5 -1.9
v -14.5 3.5 -1.9
v -14.6 3.5 -2
v -14.5 3.5 -2
v -14.5 3.6 -1.7
v -14.4 3.6 -1.7
v -14.5 3.6 -1.8
v -14.4 3.6 -1.8
v -14.5 3.6 -1.9
v -14.4 3.6 -1.9
v -14.5 3.6 -2
v -14.4 3.6 -2
v -14.4 3.7 -1.7
v -14.3 3.7 -1.7
v -14.4 3.7 -1.8
v -14.3 3.7 -1.8
v -14.4 3.7 -1.9
v -14.3 3.7 -1.9
v -14.4 3.7 -2
v -14.3 3.7 -2
v -14.3 3.8 -1.7
v -14.2 3.8 -1.7
v -14.3 3.8 -1.8
v -14.2 3.8 -1.8
v -14.3 3.8 -1.9
v -14.2 3.8 -1.9
v -14.3 3.8 -2
v -14.2 3.8 -2
v -14.2 3.9 -1.7
v -14.1 3.9 -1.7
v -14.2 3.9 -1.8
v -14.1 3.9 -1.8
v -14.2 3.9 -1.9
v -14.1 3.9 -1.9
v -14.2 3.9 -2
v -14.1 3.9 -2
v -14.1 4 -1.7
v -14 4 -1.7
v -14.1 4 -2
v -14 4 -2

# faces
f 5/1/1 2/1/1 1/1/1
f 6/5/1 3/5/1 2/5/1
f 6/1/1 2/1/1 5/1/1
f 7/1/1 4/1/1 3/1/1
f 7/5/1 3/5/1 6/5/1
f 8/1/1 4/1/1 7/1/1
f 13/6/1 10/6/1 9/6/1
f 13/6/1 12/6/1 11/6/1
f 13/6/1 11/6/1 10/6/1
f 14/6/1 12/6/1 13/6/1
f 19/3/1 16/3/1 15/3/1
f 20/6/1 17/6/1 16/6/1
f 20/3/1 16/3/1 19/3/1
f 21/3/1 18/3/1 17/3/1
f 21/6/1 17/6/1 20/6/1
f 22/3/1 18/3/1 21/3/1
f 27/2/1 24/2/1 23/2/1
f 28/6/1 25/6/1 24/6/1
f 28/2/1 24/2/1 27/2/1
f 29/2/1 26/2/1 25/2/1
f 29/6/1 25/6/1 28/6/1
f 30/2/1 26/2/1 29/2/1
f 35/4/1 32/4/1 31/4/1
f 36/6/1 33/6/1 32/6/1
f 36/4/1 32/4/1 35/4/1
f 37/4/1 34/4/1 33/4/1
f 37/6/1 33/6/1 36/6/1
f 38/4/1 34/4/1 37/4/1
f 43/4/1 40/4/1 39/4/1
f 44/6/1 41/6/1 40/6/1
f 44/4/1 40/4/1 43/4/1
f 45/4/1 42/4/1 41/4/1
f 45/6/1 41/6/1 44/6/1
f 46/4/1 42/4/1 45/4/1
f 51/4/1 48/4/1 47/4/1
f 52/6/1 49/6/1 48/6/1
f 52/4/1 48/4/1 51/4/1
f 53/4/1 50/4/1 49/4/1
f 53/6/1 49/6/1 52/6/1
f 54/4/1 50/4/1 53/4/1
f 59/2/1 56/2/1 55/2/1
f 60/6/1 57/6/1 56/6/1
f 60/2/1 56/2/1 59/2/1
f 61/4/1 58/4/1 57/4/1
f 61/6/1 57/6/1 60/6/1
f 62/4/1 58/4/1 61/4/1
f 67/3/1 64/3/1 63/3/1
f 68/6/1 65/6/1 64/6/1
f 68/3/1 64/3/1 67/3/1
f 69/4/1 66/4/1 65/4/1
f 69/6/1 65/6/1 68/6/1
f 70/4/1 66/4/1 69/4/1
f 75/2/1 72/2/1 71/2/1
f 76/6/1 73/6/1 72/6/1
f 76/2/1 72/2/1 75/2/1
f 77/2/1 74/2/1 73/2/1
f 77/6/1 73/6/1 76/6/1
f 78/2/1 74/2/1 77/2/1
f 83/4/1 80/4/1 79/4/1
f 84/6/1 81/6/1 80/6/1
f 84/4/1 80/4/1 83/4/1
f 85/4/1 82/4/1 81/4/1
f 85/6/1 81/6/1 84/6/1
f 86/4/1 82/4/1 85/4/1
f 91/2/1 88/2/1 87/2/1
f 92/6/1 89/6/1 88/6/1
f 92/2/1 88/2/1 91/2/1
f 93/3/1 90/3/1 89/3/1
f 93/6/1 89/6/1 92/6/1
f 94/3/1 90/3/1 93/3/1
f 99/2/1 96/2/1 95/2/1
f 100/6/1 97/6/1 96/6/1
f 100/2/1 96/2/1 99/2/1
f 101/4/1 98/4/1 97/4/1
f 101/6/1 97/6/1 100/6/1
f 102/4/1 98/4/1 101/4/1
f 107/2/1 104/2/1 103/2/1
f 108/6/1 105/6/1 104/6/1
f 108/2/1 104/2/1 107/2/1
f 109/2/1 106/2/1 105/2/1
f 109/6/1 105/6/1 108/6/1
f 110/2/1 106/2/1 109/2/1
f 115/4/1 112/4/1 111/4/1
f 116/6/1 113/6/1 112/6/1
f 116/4/1 112/4/1 115/4/1
f 117/3/1 114/3/1 113/3/1
f 117/6/1 113/6/1 116/6/1
f 118/3/1 114/3/1 117/3/1
f 123/3/1 120/3/1 119/3/1
f 124/6/1 121/6/1 120/6/1
f 124/3/1 120/3/1 123/3/1
f 125/4/1 122/4/1 121/4/1
f 125/6/1 121/6/1 124/6/1
f 126/4/1 122/4/1 125/4/1
f 131/3/1 128/3/1 127/3/1
f 132/6/1 129/6/1 128/6/1
f 132/3/1 128/3/1 131/3/1
f 133/3/1 130/3/1 129/3/1
f 133/6/1 129/6/1 132/6/1
f 134/3/1 130/3/1 133/3/1
f 139/2/1 136/2/1 135/2/1
f 140/6/1 137/6/1 136/6/1
f 140/2/1 136/2/1 139/2/1
f 141/3/1 138/3/1 137/3/1
f 141/6/1 137/6/1 140/6/1
f 142/3/1 138/3/1 141/3/1
f 147/2/1 144/2/1 143/2/1
f 148/6/1 145/6/1 144/6/1
f 148/2/1 144/2/1 147/2/1
f 149/2/1 146/2/1 145/2/1
f 149/6/1 145/6/1 148/6/1
f 150/2/1 146/2/1 149/2/1
f 155/3/1 152/3/1 151/3/1
f 156/6/1 153/6/1 152/6/1
f 156/3/1 152/3/1 155/3/1
f 157/2/1 154/2/1 153/2/1
f 157/6/1 153/6/1 156/6/1
f 158/2/1 154/2/1 157/2/1
f 163/2/1 160/2/1 159/2/1
f 164/6/1 161/6/1 160/6/1
f 164/2/1 160/2/1 163/2/1
f 165/3/1 162/3/1 161/3/1
f 165/6/1 161/6/1 164/6/1
f 166/3/1 162/3/1 165/3/1
f 171/4/1 168/4/1 167/4/1
f 172/6/1 169/6/1 168/6/1
f 172/4/1 168/4/1 171/4/1
f 173/4/1 170/4/1 169/4/1
f 173/6/1 169/6/1 172/6/1
f 174/4/1 170/4/1 173/4/1
f 179/4/1 176/4/1 175/4/1
f 180/6/1 177/6/1 176/6/1
f 180/4/1 176/4/1 179/4/1
f 181/3/1 178/3/1 177/3/1
f 181/6/1 177/6/1 180/6/1
f 182/3/1 178/3/1 181/3/1
f 187/4/1 184/4/1 183/4/1
f 188/6/1 185/6/1 184/6/1
f 188/4/1 184/4/1 187/4/1
f 189/3/1 186/3/1 185/3/1
f 189/6/1 185/6/1 188/6/1
f 190/3/1 186/3/1 189/3/1
f 195/4/1 192/4/1 191/4/1
f 196/6/1 193/6/1 192/6/1
f 196/4/1 192/4/1 195/4/1
f 197/4/1 194/4/1 193/4/1
f 197/6/1 193/6/1 196/6/1
f 198/4/1 194/4/1 197/4/1
f 203/2/1 200/2/1 199/2/1
f 204/6/1 201/6/1 200/6/1
f 204/2/1 200/2/1 203/2/1
f 205/4/1 202/4/1 201/4/1
f 205/6/1 201/6/1 204/6/1
f 206/4/1 202/4/1 205/4/1
f 211/2/1 208/2/1 207/2/1
f 212/6/1 209/6/1 208/6/1
f 212/2/1 208/2/1 211/2/1
f 213/4/1 210/4/1 209/4/1
f 213/6/1 209/6/1 212/6/1
f 214/4/1 210/4/1 213/4/1
f 219/2/1 216/2/1 215/2/1
f 220/6/1 217/6/1 216/6/1
f 220/2/1 216/2/1 219/2/1
f 221/4/1 218/4/1 217/4/1
f 221/6/1 217/6/1 220/6/1
f 222/4/1 218/4/1 221/4/1
f 227/3/1 224/3/1 223/3/1
f 228/6/1 225/6/1 224/6/1
f 228/3/1 224/3/1 227/3/1
f 229/4/1 226/4/1 225/4/1
f 229/6/1 225/6/1 228/6/1
f 230/4/1 226/4/1 229/4/1
f 235/6/1 232/6/1 231/6/1
f 235/6/1 234/6/1 233/6/1
f 235/6/1 233/6/1 232/6/1
f 236/6/1 234/6/1 235/6/1
f 237/1/2 238/1/2 241/1/2
f 238/5/2 239/5/2 242/5/2
f 241/1/2 238/1/2 242/1/2
f 239/1/2 240/1/2 243/1/2
f 242/5/2 239/5/2 243/5/2
f 243/1/2 240/1/2 244/1/2
f 245/6/2 246/6/2 247/6/2
f 247/6/2 246/6/2 248/6/2
f 248/6/2 246/6/2 249/6/2
f 249/6/2 246/6/2 250/6/2
f 251/3/2 252/3/2 255/3/2
f 252/6/2 253/6/2 256/6/2
f 255/3/2 252/3/2 256/3/2
f 253/3/2 254/3/2 257/3/2
f 256/6/2 253/6/2 257/6/2
f 257/3/2 254/3/2 258/3/2
f 259/2/2 260/2/2 263/2/2
f 260/6/2 261/6/2 264/6/2
f 263/2/2 260/2/2 264/2/2
f 261/2/2 262/2/2 265/2/2
f 264/6/2 261/6/2 265/6/2
f 265/2/2 262/2/2 266/2/2
f 267/4/2 268/4/2 271/4/2
f 268/6/2 269/6/2 272/6/2
f 271/4/2 268/4/2 272/4/2
f 269/4/2 270/4/2 273/4/2
f 272/6/2 269/6/2 273/6/2
f 273/4/2 270/4/2 274/4/2
f 275/4/2 276/4/2 279/4/2
f 276/6/2 277/6/2 280/6/2
f 279/4/2 276/4/2 280/4/2
f 277/4/2 278/4/2 281/4/2
f 280/6/2 277/6/2 281/6/2
f 281/4/2 278/4/2 282/4/2
f 283/4/2 284/4/2 287/4/2
f 284/6/2 285/6/2 288/6/2
f 287/4/2 284/4/2 288/4/2
f 285/4/2 286/4/2 289/4/2
f 288/6/2 285/6/2 289/6/2
f 289/4/2 286/4/2 290/4/2
f 291/2/2 292/2/2 295/2/2
f 292/6/2 293/6/2 296/6/2
f 295/2/2 292/2/2 296/2/2
f 293/4/2 294/4/2 297/4/2
f 296/6/2 293/6/2 297/6/2
f 297/4/2 294/4/2 298/4/2
f 299/3/2 300/3/2 303/3/2
f 300/6/2 301/6/2 304/6/2
f 303/3/2 300/3/2 304/3/2
f 301/4/2 302/4/2 305/4/2
f 304/6/2 301/6/2 305/6/2
f 305/4/2 302/4/2 306/4/2
f 307/2/2 308/2/2 311/2/2
f 308/6/2 309/6/2 312/6/2
f 311/2/2 308/2/2 312/2/2
f 309/2/2 310/2/2 313/2/2
f 312/6/2 309/6/2 313/6/2
f 313/2/2 310/2/2 314/2/2
f 315/4/2 316/4/2 319/4/2
f 316/6/2 317/6/2 320/6/2
f 319/4/2 316/4/2 320/4/2
f 317/4/2 318/4/2 321/4/2
f 320/6/2 317/6/2 321/6/2
f 321/4/2 318/4/2 322/4/2
f 323/2/2 324/2/2 327/2/2
f 324/6/2 325/6/2 328/6/2
f 327/2/2 324/2/2 328/2/2
f 325/3/2 326/3/2 329/3/2
f 328/6/2 325/6/2 329/6/2
f 329/3/2 326/3/2 330/3/2
f 331/2/2 332/2/2 335/2/2
f 332/6/2 333/6/2 336/6/2
f 335/2/2 332/2/2 336/2/2
f 333/4/2 334/4/2 337/4/2
f 336/6/2 333/6/2 337/6/2
f 337/4/2 334/4/2 338/4/2
f 339/2/2 340/2/2 343/2/2
f 340/6/2 341/6/2 344/6/2
f 343/2/2 340/2/2 344/2/2
f 341/2/2 342/2/2 345/2/2
f 344/6/2 341/6/2 345/6/2
f 345/2/2 342/2/2 346/2/2
f 347/4/2 348/4/2 351/4/2
f 348/6/2 349/6/2 352/6/2
f 351/4/2 348/4/2 352/4/2
f 349/3/2 350/3/2 353/3/2
f 352/6/2 349/6/2 353/6/2
f 353/3/2 350/3/2 354/3/2
f 355/3/2 356/3/2 359/3/2
f 356/6/2 357/6/2 360/6/2
f 359/3/2 356/3/2 360/3/2
f 357/4/2 358/4/2 361/4/2
f 360/6/2 357/6/2 361/6/2
f 361/4/2 358/4/2 362/4/2
f 363/3/2 364/3/2 367/3/2
f 364/6/2 365/6/2 368/6/2
f 367/3/2 364/3/2 368/3/2
f 365/3/2 366/3/2 369/3/2
f 368/6/2 365/6/2 369/6/2
f 369/3/2 366/3/2 370/3/2
f 371/2/2 372/2/2 375/2/2
f 372/6/2 373/6/2 376/6/2
f 375/2/2 372/2/2 376/2/2
f 373/3/2 374/3/2 377/3/2
f 376/6/2 373/6/2 377/6/2
f 377/3/2 374/3/2 378/3/2
f 379/2/2 380/2/2 383/2/2
f 380/6/2 381/6/2 384/6/2
f 383/2/2 380/2/2 384/2/2
f 381/2/2 382/2/2 385/2/2
f 384/6/2 381/6/2 385/6/2
f 385/2/2 382/2/2 386/2/2
f 387/3/2 388/3/2 391/3/2
f 388/6/2 389/6/2 392/6/2
f 391/3/2 388/3/2 392/3/2
f 389/2/2 390/2/2 393/2/2
f 392/6/2 389/6/2 393/6/2
f 393/2/2 390/2/2 394/2/2
f 395/2/2 396/2/2 399/2/2
f 396/6/2 397/6/2 400/6/2
f 399/2/2 396/2/2 400/2/2
f 397/3/2 398/3/2 401/3/2
f 400/6/2 397/6/2 401/6/2
f 401/3/2 398/3/2 402/3/2
f 403/4/2 404/4/2 407/4/2
f 404/6/2 405/6/2 408/6/2
f 407/4/2 404/4/2 408/4/2
f 405/4/2 406/4/2 409/4/2
f 408/6/2 405/6/2 409/6/2
f 409/4/2 406/4/2 410/4/2
f 411/4/2 412/4/2 415/4/2
f 412/6/2 413/6/2 416/6/2
f 415/4/2 412/4/2 416/4/2
f 413/3/2 414/3/2 417/3/2
f 416/6/2 413/6/2 417/6/2
f 417/3/2 414/3/2 418/3/2
f 419/6/2 420/6/2 422/6/2
f 420/3/2 421/3/2 423/3/2
f 422/6/2 420/6/2 423/6/2
f 423/3/2 421/3/2 424/3/2
f 425/4/2 426/4/2 427/4/2
f 427/4/2 426/4/2 428/4/2
f 428/6/2 429/6/2 431/6/2
f 429/4/2 430/4/2 432/4/2
f 431/6/2 429/6/2 432/6/2
f 432/4/2 430/4/2 433/4/2
f 434/4/2 435/4/2 436/4/2
f 436/4/2 435/4/2 437/4/2
f 436/2/2 437/2/2 440/2/2
f 437/6/2 438/6/2 441/6/2
f 440/2/2 437/2/2 441/2/2
f 438/4/2 439/4/2 442/4/2
f 441/6/2 438/6/2 442/6/2
f 442/4/2 439/4/2 443/4/2
f 444/2/2 445/2/2 448/2/2
f 445/6/2 446/6/2 449/6/2
f 448/2/2 445/2/2 449/2/2
f 446/4/2 447/4/2 450/4/2
f 449/6/2 446/6/2 450/6/2
f 450/4/2 447/4/2 451/4/2
f 452/2/2 453/2/2 456/2/2
f 453/6/2 454/6/2 457/6/2
f 456/2/2 453/2/2 457/2/2
f 454/4/2 455/4/2 458/4/2
f 457/6/2 454/6/2 458/6/2
f 458/4/2 455/4/2 459/4/2
f 460/3/2 461/3/2 464/3/2
f 461/6/2 462/6/2 465/6/2
f 464/3/2 461/3/2 465/3/2
f 462/4/2 463/4/2 466/4/2
f 465/6/2 462/6/2 466/6/2
f 466/4/2 463/4/2 467/4/2
f 468/6/2 469/6/2 470/6/2
f 470/6/2 469/6/2 471/6/2
f 474/1/3 473/1/3 472/1/3
f 475/1/3 473/1/3 474/1/3
f 477/6/3 476/6/3 475/6/3
f 478/6/3 476/6/3 477/6/3
f 480/3/3 479/3/3 478/3/3
f 481/3/3 479/3/3 480/3/3
f 483/2/3 482/2/3 481/2/3
f 484/2/3 482/2/3 483/2/3
f 486/4/3 485/4/3 484/4/3
f 487/4/3 485/4/3 486/4/3
f 489/4/3 488/4/3 487/4/3
f 490/4/3 488/4/3 489/4/3
f 492/4/3 491/4/3 490/4/3
f 493/4/3 491/4/3 492/4/3
f 495/2/3 494/2/3 493/2/3
f 496/2/3 494/2/3 495/2/3
f 498/3/3 497/3/3 496/3/3
f 499/3/3 497/3/3 498/3/3
f 501/2/3 500/2/3 499/2/3
f 502/2/3 500/2/3 501/2/3
f 504/4/3 503/4/3 502/4/3
f 505/4/3 503/4/3 504/4/3
f 507/2/3 506/2/3 505/2/3
f 508/2/3 506/2/3 507/2/3
f 510/2/3 509/2/3 508/2/3
f 511/2/3 509/2/3 510/2/3
f 513/2/3 512/2/3 511/2/3
f 514/2/3 512/2/3 513/2/3
f 516/4/3 515/4/3 514/4/3
f 517/4/3 515/4/3 516/4/3
f 519/3/3 518/3/3 517/3/3
f 520/3/3 518/3/3 519/3/3
f 522/3/3 521/3/3 520/3/3
f 523/3/3 521/3/3 522/3/3
f 525/2/3 524/2/3 523/2/3
f 526/2/3 524/2/3 525/2/3
f 528/2/3 527/2/3 526/2/3
f 529/2/3 527/2/3 528/2/3
f 531/3/3 530/3/3 529/3/3
f 532/3/3 530/3/3 531/3/3
f 534/2/3 533/2/3 532/2/3
f 535/2/3 533/2/3 534/2/3
f 537/4/3 536/4/3 535/4/3
f 538/4/3 536/4/3 537/4/3
f 540/4/3 539/4/3 538/4/3
f 541/4/3 539/4/3 540/4/3
f 543/4/3 542/4/3 541/4/3
f 545/4/3 543/4/3 541/4/3
f 545/4/3 544/4/3 543/4/3
f 546/4/3 544/4/3 545/4/3
f 547/4/3 544/4/3 546/4/3
f 549/4/3 547/4/3 546/4/3
f 550/2/3 548/2/3 547/2/3
f 550/4/3 547/4/3 549/4/3
f 551/2/3 548/2/3 550/2/3
f 553/2/3 552/2/3 551/2/3
f 554/2/3 552/2/3 553/2/3
f 556/2/3 555/2/3 554/2/3
f 557/2/3 555/2/3 556/2/3
f 559/3/3 558/3/3 557/3/3
f 560/3/3 558/3/3 559/3/3
f 562/6/3 561/6/3 560/6/3
f 563/6/3 561/6/3 562/6/3
f 564/4/4 565/4/4 566/4/4
f 566/4/4 565/4/4 567/4/4
f 567/4/4 568/4/4 569/4/4
f 569/4/4 568/4/4 570/4/4
f 571/1/4 572/1/4 573/1/4
f 573/1/4 572/1/4 574/1/4
f 574/6/4 575/6/4 576/6/4
f 576/6/4 575/6/4 577/6/4
f 577/3/4 578/3/4 579/3/4
f 579/3/4 578/3/4 580/3/4
f 580/2/4 581/2/4 582/2/4
f 582/2/4 581/2/4 583/2/4
f 583/4/4 584/4/4 585/4/4
f 585/4/4 584/4/4 586/4/4
f 586/4/4 587/4/4 588/4/4
f 588/4/4 587/4/4 589/4/4
f 589/4/4 590/4/4 591/4/4
f 591/4/4 590/4/4 592/4/4
f 592/4/4 593/4/4 594/4/4
f 594/4/4 593/4/4 595/4/4
f 595/4/4 596/4/4 597/4/4
f 597/4/4 596/4/4 598/4/4
f 598/2/4 599/2/4 600/2/4
f 600/2/4 599/2/4 601/2/4
f 601/4/4 602/4/4 603/4/4
f 603/4/4 602/4/4 604/4/4
f 604/3/4 605/3/4 606/3/4
f 606/3/4 605/3/4 607/3/4
f 607/4/4 608/4/4 609/4/4
f 609/4/4 608/4/4 610/4/4
f 610/2/4 611/2/4 612/2/4
f 612/2/4 611/2/4 613/2/4
f 613/3/4 614/3/4 615/3/4
f 615/3/4 614/3/4 616/3/4
f 616/4/4 617/4/4 618/4/4
f 618/4/4 617/4/4 619/4/4
f 619/3/4 620/3/4 621/3/4
f 621/3/4 620/3/4 622/3/4
f 622/3/4 623/3/4 624/3/4
f 624/3/4 623/3/4 625/3/4
f 625/2/4 626/2/4 627/2/4
f 627/2/4 626/2/4 628/2/4
f 628/2/4 629/2/4 630/2/4
f 630/2/4 629/2/4 631/2/4
f 631/3/4 632/3/4 633/3/4
f 633/3/4 632/3/4 634/3/4
f 634/4/4 635/4/4 636/4/4
f 636/4/4 635/4/4 637/4/4
f 637/3/4 638/3/4 639/3/4
f 639/3/4 638/3/4 640/3/4
f 640/3/4 641/3/4 642/3/4
f 642/3/4 641/3/4 643/3/4
f 643/4/4 644/4/4 645/4/4
f 645/4/4 644/4/4 646/4/4
f 646/4/4 647/4/4 648/4/4
f 648/4/4 647/4/4 649/4/4
f 649/4/4 650/4/4 651/4/4
f 651/4/4 650/4/4 652/4/4
f 652/4/4 653/4/4 654/4/4
f 654/4/4 653/4/4 655/4/4
f 655/4/4 656/4/4 657/4/4
f 657/4/4 656/4/4 658/4/4
f 658/6/4 659/6/4 660/6/4
f 660/6/4 659/6/4 661/6/4
f 664/1/5 663/1/5 662/1/5
f 665/1/5 663/1/5 664/1/5
f 666/5/5 665/5/5 664/5/5
f 667/5/5 665/5/5 666/5/5
f 668/1/5 667/1/5 666/1/5
f 669/1/5 667/1/5 668/1/5
f 672/6/5 671/6/5 670/6/5
f 673/6/5 671/6/5 672/6/5
f 674/6/5 671/6/5 673/6/5
f 675/6/5 671/6/5 674/6/5
f 678/3/5 677/3/5 676/3/5
f 679/3/5 677/3/5 678/3/5
f 680/6/5 679/6/5 678/6/5
f 681/6/5 679/6/5 680/6/5
f 682/3/5 681/3/5 680/3/5
f 683/3/5 681/3/5 682/3/5
f 686/2/5 685/2/5 684/2/5
f 687/2/5 685/2/5 686/2/5
f 688/6/5 687/6/5 686/6/5
f 689/6/5 687/6/5 688/6/5
f 690/2/5 689/2/5 688/2/5
f 691/2/5 689/2/5 690/2/5
f 694/4/5 693/4/5 692/4/5
f 695/4/5 693/4/5 694/4/5
f 696/6/5 695/6/5 694/6/5
f 697/6/5 695/6/5 696/6/5
f 698/4/5 697/4/5 696/4/5
f 699/4/5 697/4/5 698/4/5
f 702/4/5 701/4/5 700/4/5
f 703/4/5 701/4/5 702/4/5
f 704/6/5 703/6/5 702/6/5
f 705/6/5 703/6/5 704/6/5
f 706/4/5 705/4/5 704/4/5
f 707/4/5 705/4/5 706/4/5
f 710/4/5 709/4/5 708/4/5
f 711/4/5 709/4/5 710/4/5
f 712/6/5 711/6/5 710/6/5
f 713/6/5 711/6/5 712/6/5
f 714/4/5 713/4/5 712/4/5
f 715/4/5 713/4/5 714/4/5
f 718/2/5 717/2/5 716/2/5
f 719/2/5 717/2/5 718/2/5
f 720/6/5 719/6/5 718/6/5
f 721/6/5 719/6/5 720/6/5
f 722/4/5 721/4/5 720/4/5
f 723/4/5 721/4/5 722/4/5
f 726/3/5 725/3/5 724/3/5
f 727/3/5 725/3/5 726/3/5
f 728/6/5 727/6/5 726/6/5
f 729/6/5 727/6/5 728/6/5
f 730/4/5 729/4/5 728/4/5
f 731/4/5 729/4/5 730/4/5
f 734/2/5 733/2/5 732/2/5
f 735/2/5 733/2/5 734/2/5
f 736/6/5 735/6/5 734/6/5
f 737/6/5 735/6/5 736/6/5
f 738/2/5 737/2/5 736/2/5
f 739/2/5 737/2/5 738/2/5
f 742/4/5 741/4/5 740/4/5
f 743/4/5 741/4/5 742/4/5
f 744/6/5 743/6/5 742/6/5
f 745/6/5 743/6/5 744/6/5
f 746/4/5 745/4/5 744/4/5
f 747/4/5 745/4/5 746/4/5
f 750/2/5 749/2/5 748/2/5
f 751/2/5 749/2/5 750/2/5
f 752/6/5 751/6/5 750/6/5
f 753/6/5 751/6/5 752/6/5
f 754/3/5 753/3/5 752/3/5
f 755/3/5 753/3/5 754/3/5
f 758/2/5 757/2/5 756/2/5
f 759/2/5 757/2/5 758/2/5
f 760/6/5 759/6/5 758/6/5
f 761/6/5 759/6/5 760/6/5
f 762/4/5 761/4/5 760/4/5
f 763/4/5 761/4/5 762/4/5
f 766/2/5 765/2/5 764/2/5
f 767/2/5 765/2/5 766/2/5
f 768/6/5 767/6/5 766/6/5
f 769/6/5 767/6/5 768/6/5
f 770/2/5 769/2/5 768/2/5
f 771/2/5 769/2/5 770/2/5
f 774/4/5 773/4/5 772/4/5
f 775/4/5 773/4/5 774/4/5
f 776/6/5 775/6/5 774/6/5
f 777/6/5 775/6/5 776/6/5
f 778/3/5 777/3/5 776/3/5
f 779/3/5 777/3/5 778/3/5
f 782/3/5 781/3/5 780/3/5
f 783/3/5 781/3/5 782/3/5
f 784/6/5 783/6/5 782/6/5
f 785/6/5 783/6/5 784/6/5
f 786/4/5 785/4/5 784/4/5
f 787/4/5 785/4/5 786/4/5
f 790/3/5 789/3/5 788/3/5
f 791/3/5 789/3/5 790/3/5
f 792/6/5 791/6/5 790/6/5
f 793/6/5 791/6/5 792/6/5
f 794/3/5 793/3/5 792/3/5
f 795/3/5 793/3/5 794/3/5
f 798/2/5 797/2/5 796/2/5
f 799/2/5 797/2/5 798/2/5
f 800/6/5 799/6/5 798/6/5
f 801/6/5 799/6/5 800/6/5
f 802/3/5 801/3/5 800/3/5
f 803/3/5 801/3/5 802/3/5
f 806/2/5 805/2/5 804/2/5
f 807/2/5 805/2/5 806/2/5
f 808/6/5 807/6/5 806/6/5
f 809/6/5 807/6/5 808/6/5
f 810/2/5 809/2/5 808/2/5
f 811/2/5 809/2/5 810/2/5
f 814/3/5 813/3/5 812/3/5
f 815/3/5 813/3/5 814/3/5
f 816/6/5 815/6/5 814/6/5
f 817/6/5 815/6/5 816/6/5
f 818/2/5 817/2/5 816/2/5
f 819/2/5 817/2/5 818/2/5
f 822/2/5 821/2/5 820/2/5
f 823/2/5 821/2/5 822/2/5
f 824/6/5 823/6/5 822/6/5
f 825/6/5 823/6/5 824/6/5
f 826/3/5 825/3/5 824/3/5
f 827/3/5 825/3/5 826/3/5
f 830/4/5 829/4/5 828/4/5
f 831/4/5 829/4/5 830/4/5
f 832/6/5 831/6/5 830/6/5
f 833/6/5 831/6/5 832/6/5
f 834/4/5 833/4/5 832/4/5
f 835/4/5 833/4/5 834/4/5
f 838/4/5 837/4/5 836/4/5
f 839/4/5 837/4/5 838/4/5
f 840/6/5 839/6/5 838/6/5
f 841/6/5 839/6/5 840/6/5
f 842/3/5 841/3/5 840/3/5
f 843/3/5 841/3/5 842/3/5
f 846/4/5 845/4/5 844/4/5
f 847/4/5 845/4/5 846/4/5
f 848/4/5 845/4/5 847/4/5
f 849/6/5 847/6/5 846/6/5
f 850/6/5 847/6/5 849/6/5
f 851/3/5 850/3/5 849/3/5
f 852/3/5 850/3/5 851/3/5
f 856/4/5 854/4/5 853/4/5
f 857/4/5 854/4/5 856/4/5
f 858/6/5 856/6/5 855/6/5
f 859/6/5 856/6/5 858/6/5
f 860/4/5 859/4/5 858/4/5
f 861/4/5 859/4/5 860/4/5
f 864/6/5 863/6/5 862/6/5
f 865/6/5 863/6/5 864/6/5
f 866/4/5 865/4/5 864/4/5
f 867/4/5 865/4/5 866/4/5
f 870/2/5 869/2/5 868/2/5
f 871/2/5 869/2/5 870/2/5
f 872/6/5 871/6/5 870/6/5
f 873/6/5 871/6/5 872/6/5
f 874/4/5 873/4/5 872/4/5
f 875/4/5 873/4/5 874/4/5
f 878/2/5 877/2/5 876/2/5
f 879/2/5 877/2/5 878/2/5
f 880/6/5 879/6/5 878/6/5
f 881/6/5 879/6/5 880/6/5
f 882/4/5 881/4/5 880/4/5
f 883/4/5 881/4/5 882/4/5
f 886/3/5 885/3/5 884/3/5
f 887/3/5 885/3/5 886/3/5
f 888/6/5 887/6/5 886/6/5
f 889/6/5 887/6/5 888/6/5
f 890/4/5 889/4/5 888/4/5
f 891/4/5 889/4/5 890/4/5
f 894/6/5 893/6/5 892/6/5
f 895/6/5 893/6/5 894/6/5
f 896/6/5 893/6/5 895/6/5
f 897/6/5 893/6/5 896/6/5
f 898/1/6 899/1/6 900/1/6
f 900/1/6 899/1/6 901/1/6
f 900/5/6 901/5/6 902/5/6
f 902/5/6 901/5/6 903/5/6
f 902/1/6 903/1/6 904/1/6
f 904/1/6 903/1/6 905/1/6
f 906/6/6 907/6/6 908/6/6
f 906/6/6 908/6/6 909/6/6
f 906/6/6 909/6/6 910/6/6
f 910/6/6 909/6/6 911/6/6
f 912/3/6 913/3/6 914/3/6
f 914/3/6 913/3/6 915/3/6
f 914/6/6 915/6/6 916/6/6
f 916/6/6 915/6/6 917/6/6
f 916/3/6 917/3/6 918/3/6
f 918/3/6 917/3/6 919/3/6
f 920/2/6 921/2/6 922/2/6
f 922/2/6 921/2/6 923/2/6
f 922/6/6 923/6/6 924/6/6
f 924/6/6 923/6/6 925/6/6
f 924/2/6 925/2/6 926/2/6
f 926/2/6 925/2/6 927/2/6
f 928/4/6 929/4/6 930/4/6
f 930/4/6 929/4/6 931/4/6
f 930/6/6 931/6/6 932/6/6
f 932/6/6 931/6/6 933/6/6
f 932/4/6 933/4/6 934/4/6
f 934/4/6 933/4/6 935/4/6
f 936/4/6 937/4/6 938/4/6
f 938/4/6 937/4/6 939/4/6
f 938/6/6 939/6/6 940/6/6
f 940/6/6 939/6/6 941/6/6
f 940/4/6 941/4/6 942/4/6
f 942/4/6 941/4/6 943/4/6
f 944/4/6 945/4/6 946/4/6
f 946/4/6 945/4/6 947/4/6
f 946/6/6 947/6/6 948/6/6
f 948/6/6 947/6/6 949/6/6
f 948/4/6 949/4/6 950/4/6
f 950/4/6 949/4/6 951/4/6
f 952/2/6 953/2/6 954/2/6
f 954/2/6 953/2/6 955/2/6
f 954/6/6 955/6/6 956/6/6
f 956/6/6 955/6/6 957/6/6
f 956/4/6 957/4/6 958/4/6
f 958/4/6 957/4/6 959/4/6
f 960/3/6 961/3/6 962/3/6
f 962/3/6 961/3/6 963/3/6
f 962/6/6 963/6/6 964/6/6
f 964/6/6 963/6/6 965/6/6
f 964/4/6 965/4/6 966/4/6
f 966/4/6 965/4/6 967/4/6
f 968/2/6 969/2/6 970/2/6
f 970/2/6 969/2/6 971/2/6
f 970/6/6 971/6/6 972/6/6
f 972/6/6 971/6/6 973/6/6
f 972/2/6 973/2/6 974/2/6
f 974/2/6 973/2/6 975/2/6
f 976/4/6 977/4/6 978/4/6
f 978/4/6 977/4/6 979/4/6
f 978/6/6 979/6/6 980/6/6
f 980/6/6 979/6/6 981/6/6
f 980/4/6 981/4/6 982/4/6
f 982/4/6 981/4/6 983/4/6
f 984/2/6 985/2/6 986/2/6
f 986/2/6 985/2/6 987/2/6
f 986/6/6 987/6/6 988/6/6
f 988/6/6 987/6/6 989/6/6
f 988/3/6 989/3/6 990/3/6
f 990/3/6 989/3/6 991/3/6
f 992/2/6 993/2/6 994/2/6
f 994/2/6 993/2/6 995/2/6
f 994/6/6 995/6/6 996/6/6
f 996/6/6 995/6/6 997/6/6
f 996/4/6 997/4/6 998/4/6
f 998/4/6 997/4/6 999/4/6
f 1000/2/6 1001/2/6 1002/2/6
f 1002/2/6 1001/2/6 1003/2/6
f 1002/6/6 1003/6/6 1004/6/6
f 1004/6/6 1003/6/6 1005/6/6
f 1004/2/6 1005/2/6 1006/2/6
f 1006/2/6 1005/2/6 1007/2/6
f 1008/4/6 1009/4/6 1010/4/6
f 1010/4/6 1009/4/6 1011/4/6
f 1010/6/6 1011/6/6 1012/6/6
f 1012/6/6 1011/6/6 1013/6/6
f 1012/3/6 1013/3/6 1014/3/6
f 1014/3/6 1013/3/6 1015/3/6
f 1016/3/6 1017/3/6 1018/3/6
f 1018/3/6 1017/3/6 1019/3/6
f 1018/6/6 1019/6/6 1020/6/6
f 1020/6/6 1019/6/6 1021/6/6
f 1020/4/6 1021/4/6 1022/4/6
f 1022/4/6 1021/4/6 1023/4/6
f 1024/3/6 1025/3/6 1026/3/6
f 1026/3/6 1025/3/6 1027/3/6
f 1026/6/6 1027/6/6 1028/6/6
f 1028/6/6 1027/6/6 1029/6/6
f 1028/3/6 1029/3/6 1030/3/6
f 1030/3/6 1029/3/6 1031/3/6
f 1032/2/6 1033/2/6 1034/2/6
f 1034/2/6 1033/2/6 1035/2/6
f 1034/6/6 1035/6/6 1036/6/6
f 1036/6/6 1035/6/6 1037/6/6
f 1036/3/6 1037/3/6 1038/3/6
f 1038/3/6 1037/3/6 1039/3/6
f 1040/2/6 1041/2/6 1042/2/6
f 1042/2/6 1041/2/6 1043/2/6
f 1042/6/6 1043/6/6 1044/6/6
f 1044/6/6 1043/6/6 1045/6/6
f 1044/2/6 1045/2/6 1046/2/6
f 1046/2/6 1045/2/6 1047/2/6
f 1048/3/6 1049/3/6 1050/3/6
f 1050/3/6 1049/3/6 1051/3/6
f 1050/6/6 1051/6/6 1052/6/6
f 1052/6/6 1051/6/6 1053/6/6
f 1052/2/6 1053/2/6 1054/2/6
f 1054/2/6 1053/2/6 1055/2/6
f 1056/2/6 1057/2/6 1058/2/6
f 1058/2/6 1057/2/6 1059/2/6
f 1058/6/6 1059/6/6 1060/6/6
f 1060/6/6 1059/6/6 1061/6/6
f 1060/3/6 1061/3/6 1062/3/6
f 1062/3/6 1061/3/6 1063/3/6
f 1064/4/6 1065/4/6 1066/4/6
f 1066/4/6 1065/4/6 1067/4/6
f 1066/6/6 1067/6/6 1068/6/6
f 1068/6/6 1067/6/6 1069/6/6
f 1068/4/6 1069/4/6 1070/4/6
f 1070/4/6 1069/4/6 1071/4/6
f 1072/4/6 1073/4/6 1074/4/6
f 1074/4/6 1073/4/6 1075/4/6
f 1074/6/6 1075/6/6 1076/6/6
f 1076/6/6 1075/6/6 1077/6/6
f 1076/3/6 1077/3/6 1078/3/6
f 1078/3/6 1077/3/6 1079/3/6
f 1080/4/6 1081/4/6 1082/4/6
f 1082/4/6 1081/4/6 1083/4/6
f 1082/6/6 1083/6/6 1084/6/6
f 1084/6/6 1083/6/6 1085/6/6
f 1084/3/6 1085/3/6 1086/3/6
f 1086/3/6 1085/3/6 1087/3/6
f 1088/4/6 1089/4/6 1090/4/6
f 1090/4/6 1089/4/6 1091/4/6
f 1090/6/6 1091/6/6 1092/6/6
f 1092/6/6 1091/6/6 1093/6/6
f 1092/4/6 1093/4/6 1094/4/6
f 1094/4/6 1093/4/6 1095/4/6
f 1096/2/6 1097/2/6 1098/2/6
f 1098/2/6 1097/2/6 1099/2/6
f 1098/6/6 1099/6/6 1100/6/6
f 1100/6/6 1099/6/6 1101/6/6
f 1100/4/6 1101/4/6 1102/4/6
f 1102/4/6 1101/4/6 1103/4/6
f 1104/2/6 1105/2/6 1106/2/6
f 1106/2/6 1105/2/6 1107/2/6
f 1106/6/6 1107/6/6 1108/6/6
f 1108/6/6 1107/6/6 1109/6/6
f 1108/4/6 1109/4/6 1110/4/6
f 1110/4/6 1109/4/6 1111/4/6
f 1112/2/6 1113/2/6 1114/2/6
f 1114/2/6 1113/2/6 1115/2/6
f 1114/6/6 1115/6/6 1116/6/6
f 1116/6/6 1115/6/6 1117/6/6
f 1116/4/6 1117/4/6 1118/4/6
f 1118/4/6 1117/4/6 1119/4/6
f 1120/3/6 1121/3/6 1122/3/6
f 1122/3/6 1121/3/6 1123/3/6
f 1122/6/6 1123/6/6 1124/6/6
f 1124/6/6 1123/6/6 1125/6/6
f 1124/4/6 1125/4/6 1126/4/6
f 1126/4/6 1125/4/6 1127/4/6
f 1128/6/6 1129/6/6 1130/6/6
f 1130/6/6 1129/6/6 1131/6/6
