# MagicaVoxel @ Ephtracy

# group
o 

# material
mtllib Hand-0.mtl
usemtl palette

# normals
vn -1 0 0
vn 1 0 0
vn 0 0 1
vn 0 0 -1
vn 0 -1 0
vn 0 1 0

# texcoords
vt 0.0683594 0.5
vt 0.966797 0.5

# verts
v 13 1.4 0.1
v 13 1.4 -0.1
v 13 1.6 0.1
v 13 1.6 -0.1
v 13 1.7 0.1
v 13 1.7 -0.1
v 13 1.9 0.1
v 13 1.9 -0.1
v 13 2 0.1
v 13 2 -0.1
v 13 2.2 0.1
v 13 2.2 -0.1
v 13.1 1.4 0.2
v 13.1 1.4 0.1
v 13.1 1.4 -0.1
v 13.1 1.4 -0.2
v 13.1 1.6 0.2
v 13.1 1.6 0.1
v 13.1 1.6 -0.1
v 13.1 1.6 -0.2
v 13.1 1.7 0.2
v 13.1 1.7 0.1
v 13.1 1.7 -0.1
v 13.1 1.7 -0.2
v 13.1 1.9 0.2
v 13.1 1.9 0.1
v 13.1 1.9 -0.1
v 13.1 1.9 -0.2
v 13.1 2 0.2
v 13.1 2 0.1
v 13.1 2 -0.1
v 13.1 2 -0.2
v 13.1 2.2 0.2
v 13.1 2.2 0.1
v 13.1 2.2 -0.1
v 13.1 2.2 -0.2
v 13.1 2.3 0.1
v 13.1 2.3 -0.2
v 13.1 2.5 0.1
v 13.1 2.5 -0.2
v 13.2 1.4 0.3
v 13.2 1.4 0.2
v 13.2 1.4 -0.2
v 13.2 1.4 -0.3
v 13.2 1.6 0.3
v 13.2 1.6 0.2
v 13.2 1.6 0.1
v 13.2 1.6 -0.2
v 13.2 1.6 -0.3
v 13.2 1.7 0.3
v 13.2 1.7 0.2
v 13.2 1.7 0.1
v 13.2 1.7 -0.2
v 13.2 1.7 -0.3
v 13.2 1.9 0.3
v 13.2 1.9 0.2
v 13.2 1.9 0.1
v 13.2 1.9 -0.2
v 13.2 1.9 -0.3
v 13.2 2 0.3
v 13.2 2 0.2
v 13.2 2 0.1
v 13.2 2 -0.2
v 13.2 2 -0.3
v 13.2 2.2 0.3
v 13.2 2.2 0.2
v 13.2 2.2 0.1
v 13.2 2.2 -0.2
v 13.2 2.2 -0.3
v 13.2 2.3 0.2
v 13.2 2.3 0.1
v 13.2 2.3 -0.2
v 13.2 2.3 -0.3
v 13.2 2.5 0.2
v 13.2 2.5 0.1
v 13.2 2.5 -0.2
v 13.2 2.5 -0.3
v 13.3 1.2 -0.2
v 13.3 1.2 -0.4
v 13.3 1.4 -0.2
v 13.3 1.4 -0.3
v 13.3 1.6 0.2
v 13.3 1.6 0.1
v 13.3 1.6 -0.2
v 13.3 1.6 -0.3
v 13.3 1.6 -0.4
v 13.3 1.7 0.2
v 13.3 1.7 0.1
v 13.3 1.7 -0.2
v 13.3 1.7 -0.3
v 13.3 1.7 -0.4
v 13.3 1.9 0.2
v 13.3 1.9 0.1
v 13.3 1.9 -0.2
v 13.3 1.9 -0.3
v 13.3 1.9 -0.4
v 13.3 2 0.2
v 13.3 2 0.1
v 13.3 2 -0.2
v 13.3 2 -0.3
v 13.3 2 -0.4
v 13.3 2.2 0.2
v 13.3 2.2 0.1
v 13.3 2.2 -0.2
v 13.3 2.2 -0.3
v 13.3 2.2 -0.4
v 13.3 2.3 0.3
v 13.3 2.3 0.2
v 13.3 2.3 0.1
v 13.3 2.3 -0.2
v 13.3 2.3 -0.3
v 13.3 2.3 -0.4
v 13.3 2.5 0.3
v 13.3 2.5 0.2
v 13.3 2.5 -0.3
v 13.3 2.5 -0.4
v 13.4 1.2 -0.1
v 13.4 1.2 -0.2
v 13.4 1.5 -0.1
v 13.4 1.5 -0.2
v 13.4 1.6 0.3
v 13.4 1.6 0.2
v 13.4 1.7 0.3
v 13.4 1.7 0.2
v 13.4 1.9 0.3
v 13.4 1.9 0.2
v 13.4 2 0.3
v 13.4 2 0.2
v 13.4 2.2 0.3
v 13.4 2.2 0.2
v 13.4 2.3 0.3
v 13.4 2.3 0.2
v 13.5 1.2 0
v 13.5 1.2 -0.1
v 13.5 1.4 0
v 13.5 1.5 0
v 13.5 1.5 -0.1
v 13.6 1.2 0.1
v 13.6 1.2 0
v 13.6 1.4 0.1
v 13.6 1.4 0
v 14.1 1.4 0.4
v 14.1 1.4 -0.5
v 14.1 1.5 0.3
v 14.1 1.5 -0.1
v 14.1 2.4 0.3
v 14.1 2.4 -0.1
v 14.1 2.5 0.4
v 14.1 2.5 -0.5
v 16.4 1.4 0.4
v 16.4 1.4 0.2
v 16.4 2.5 0.4
v 16.4 2.5 0.2
v 13.3 1.4 0
v 13.3 1.4 -0.2
v 13.3 1.5 0
v 13.3 1.5 -0.2
v 13.5 1.2 -0.3
v 13.5 1.2 -0.4
v 13.5 1.4 -0.1
v 13.5 1.4 -0.3
v 13.5 1.6 -0.3
v 13.5 1.6 -0.4
v 13.5 1.7 -0.3
v 13.5 1.7 -0.4
v 13.5 1.9 -0.3
v 13.5 1.9 -0.4
v 13.5 2 -0.3
v 13.5 2 -0.4
v 13.5 2.2 -0.3
v 13.5 2.2 -0.4
v 13.5 2.3 -0.3
v 13.5 2.3 -0.4
v 13.5 2.5 -0.1
v 13.5 2.5 -0.4
v 13.6 1.2 -0.2
v 13.6 1.2 -0.3
v 13.6 1.4 -0.2
v 13.6 1.4 -0.3
v 13.7 1.2 -0.1
v 13.7 1.2 -0.2
v 13.7 1.4 -0.1
v 13.7 1.4 -0.2
v 13.8 1.2 0.1
v 13.8 1.2 -0.1
v 13.8 1.4 0.1
v 13.8 1.4 -0.1
v 13.9 1.4 0.3
v 13.9 1.4 -0.1
v 13.9 1.5 0.3
v 13.9 1.5 -0.1
v 13.9 2.4 0.3
v 13.9 2.4 -0.1
v 13.9 2.5 0.3
v 13.9 2.5 -0.1
v 14.2 1.4 0.4
v 14.2 1.4 0.2
v 14.2 2.5 0.4
v 14.2 2.5 0.2
v 17.5 1.4 0.4
v 17.5 1.4 -0.5
v 17.5 2.5 0.4
v 17.5 2.5 -0.5
v 14.1 1.4 0.4
v 14.1 2.5 0.4
v 14.2 1.4 0.4
v 14.2 2.5 0.4
v 16.4 1.4 0.4
v 16.4 2.5 0.4
v 17.5 1.4 0.4
v 17.5 2.5 0.4
v 13.2 1.4 0.3
v 13.2 1.6 0.3
v 13.2 1.7 0.3
v 13.2 1.9 0.3
v 13.2 2 0.3
v 13.2 2.2 0.3
v 13.3 2.3 0.3
v 13.3 2.5 0.3
v 13.4 1.6 0.3
v 13.4 1.7 0.3
v 13.4 1.9 0.3
v 13.4 2 0.3
v 13.4 2.2 0.3
v 13.4 2.3 0.3
v 13.9 1.4 0.3
v 13.9 1.5 0.3
v 13.9 2.4 0.3
v 13.9 2.5 0.3
v 14.1 1.5 0.3
v 14.1 2.4 0.3
v 13.1 1.4 0.2
v 13.1 1.6 0.2
v 13.1 1.7 0.2
v 13.1 1.9 0.2
v 13.1 2 0.2
v 13.1 2.2 0.2
v 13.2 1.4 0.2
v 13.2 1.6 0.2
v 13.2 1.7 0.2
v 13.2 1.9 0.2
v 13.2 2 0.2
v 13.2 2.2 0.2
v 13.2 2.3 0.2
v 13.2 2.5 0.2
v 13.3 1.6 0.2
v 13.3 1.7 0.2
v 13.3 1.9 0.2
v 13.3 2 0.2
v 13.3 2.2 0.2
v 13.3 2.3 0.2
v 13.3 2.5 0.2
v 13.4 1.6 0.2
v 13.4 1.7 0.2
v 13.4 1.9 0.2
v 13.4 2 0.2
v 13.4 2.2 0.2
v 13.4 2.3 0.2
v 14.2 1.4 0.2
v 14.2 2.5 0.2
v 16.4 1.4 0.2
v 16.4 2.5 0.2
v 13 1.4 0.1
v 13 1.6 0.1
v 13 1.7 0.1
v 13 1.9 0.1
v 13 2 0.1
v 13 2.2 0.1
v 13.1 1.4 0.1
v 13.1 1.6 0.1
v 13.1 1.7 0.1
v 13.1 1.9 0.1
v 13.1 2 0.1
v 13.1 2.2 0.1
v 13.1 2.3 0.1
v 13.1 2.5 0.1
v 13.2 1.6 0.1
v 13.2 1.7 0.1
v 13.2 1.9 0.1
v 13.2 2 0.1
v 13.2 2.2 0.1
v 13.2 2.3 0.1
v 13.2 2.5 0.1
v 13.3 1.6 0.1
v 13.3 1.7 0.1
v 13.3 1.9 0.1
v 13.3 2 0.1
v 13.3 2.2 0.1
v 13.3 2.3 0.1
v 13.6 1.2 0.1
v 13.6 1.4 0.1
v 13.8 1.2 0.1
v 13.8 1.4 0.1
v 13.5 1.2 0
v 13.5 1.4 0
v 13.6 1.2 0
v 13.6 1.4 0
v 13.4 1.2 -0.1
v 13.4 1.5 -0.1
v 13.5 1.2 -0.1
v 13.5 1.5 -0.1
v 13.3 1.2 -0.2
v 13.3 1.4 -0.2
v 13.3 1.5 -0.2
v 13.4 1.2 -0.2
v 13.4 1.5 -0.2
v 13.3 1.4 0
v 13.3 1.5 0
v 13.5 1.4 0
v 13.5 1.5 0
v 13 1.4 -0.1
v 13 1.6 -0.1
v 13 1.7 -0.1
v 13 1.9 -0.1
v 13 2 -0.1
v 13 2.2 -0.1
v 13.1 1.4 -0.1
v 13.1 1.6 -0.1
v 13.1 1.7 -0.1
v 13.1 1.9 -0.1
v 13.1 2 -0.1
v 13.1 2.2 -0.1
v 13.5 1.4 -0.1
v 13.5 2.5 -0.1
v 13.7 1.2 -0.1
v 13.7 1.4 -0.1
v 13.8 1.2 -0.1
v 13.8 1.4 -0.1
v 13.9 1.4 -0.1
v 13.9 1.5 -0.1
v 13.9 2.4 -0.1
v 13.9 2.5 -0.1
v 14.1 1.5 -0.1
v 14.1 2.4 -0.1
v 13.1 1.4 -0.2
v 13.1 1.6 -0.2
v 13.1 1.7 -0.2
v 13.1 1.9 -0.2
v 13.1 2 -0.2
v 13.1 2.2 -0.2
v 13.1 2.3 -0.2
v 13.1 2.5 -0.2
v 13.2 1.4 -0.2
v 13.2 1.6 -0.2
v 13.2 1.7 -0.2
v 13.2 1.9 -0.2
v 13.2 2 -0.2
v 13.2 2.2 -0.2
v 13.2 2.3 -0.2
v 13.2 2.5 -0.2
v 13.3 1.6 -0.2
v 13.3 1.7 -0.2
v 13.3 1.9 -0.2
v 13.3 2 -0.2
v 13.3 2.2 -0.2
v 13.3 2.3 -0.2
v 13.6 1.2 -0.2
v 13.6 1.4 -0.2
v 13.7 1.2 -0.2
v 13.7 1.4 -0.2
v 13.2 1.4 -0.3
v 13.2 1.6 -0.3
v 13.2 1.7 -0.3
v 13.2 1.9 -0.3
v 13.2 2 -0.3
v 13.2 2.2 -0.3
v 13.2 2.3 -0.3
v 13.2 2.5 -0.3
v 13.3 1.4 -0.3
v 13.3 1.6 -0.3
v 13.3 1.7 -0.3
v 13.3 1.9 -0.3
v 13.3 2 -0.3
v 13.3 2.2 -0.3
v 13.3 2.3 -0.3
v 13.3 2.5 -0.3
v 13.5 1.2 -0.3
v 13.5 1.4 -0.3
v 13.5 1.6 -0.3
v 13.5 1.7 -0.3
v 13.5 1.9 -0.3
v 13.5 2 -0.3
v 13.5 2.2 -0.3
v 13.5 2.3 -0.3
v 13.6 1.2 -0.3
v 13.6 1.4 -0.3
v 13.3 1.2 -0.4
v 13.3 1.6 -0.4
v 13.3 1.7 -0.4
v 13.3 1.9 -0.4
v 13.3 2 -0.4
v 13.3 2.2 -0.4
v 13.3 2.3 -0.4
v 13.3 2.5 -0.4
v 13.5 1.2 -0.4
v 13.5 1.6 -0.4
v 13.5 1.7 -0.4
v 13.5 1.9 -0.4
v 13.5 2 -0.4
v 13.5 2.2 -0.4
v 13.5 2.3 -0.4
v 13.5 2.5 -0.4
v 14.1 1.4 -0.5
v 14.1 2.5 -0.5
v 17.5 1.4 -0.5
v 17.5 2.5 -0.5
v 13.6 1.2 0.1
v 13.8 1.2 0.1
v 13.5 1.2 0
v 13.6 1.2 0
v 13.4 1.2 -0.1
v 13.5 1.2 -0.1
v 13.7 1.2 -0.1
v 13.8 1.2 -0.1
v 13.3 1.2 -0.2
v 13.4 1.2 -0.2
v 13.6 1.2 -0.2
v 13.7 1.2 -0.2
v 13.5 1.2 -0.3
v 13.6 1.2 -0.3
v 13.3 1.2 -0.4
v 13.5 1.2 -0.4
v 14.1 1.4 0.4
v 14.2 1.4 0.4
v 16.4 1.4 0.4
v 17.5 1.4 0.4
v 13.2 1.4 0.3
v 13.9 1.4 0.3
v 13.1 1.4 0.2
v 13.2 1.4 0.2
v 14.2 1.4 0.2
v 16.4 1.4 0.2
v 13 1.4 0.1
v 13.1 1.4 0.1
v 13.6 1.4 0.1
v 13.8 1.4 0.1
v 13.3 1.4 0
v 13.5 1.4 0
v 13.6 1.4 0
v 13 1.4 -0.1
v 13.1 1.4 -0.1
v 13.8 1.4 -0.1
v 13.9 1.4 -0.1
v 13.1 1.4 -0.2
v 13.2 1.4 -0.2
v 13.3 1.4 -0.2
v 13.2 1.4 -0.3
v 13.3 1.4 -0.3
v 14.1 1.4 -0.5
v 17.5 1.4 -0.5
v 13.9 1.5 0.3
v 14.1 1.5 0.3
v 13.3 1.5 0
v 13.5 1.5 0
v 13.4 1.5 -0.1
v 13.5 1.5 -0.1
v 13.9 1.5 -0.1
v 14.1 1.5 -0.1
v 13.3 1.5 -0.2
v 13.4 1.5 -0.2
v 13.2 1.7 0.3
v 13.4 1.7 0.3
v 13.1 1.7 0.2
v 13.2 1.7 0.2
v 13.3 1.7 0.2
v 13.4 1.7 0.2
v 13 1.7 0.1
v 13.1 1.7 0.1
v 13.2 1.7 0.1
v 13.3 1.7 0.1
v 13 1.7 -0.1
v 13.1 1.7 -0.1
v 13.1 1.7 -0.2
v 13.2 1.7 -0.2
v 13.3 1.7 -0.2
v 13.2 1.7 -0.3
v 13.3 1.7 -0.3
v 13.5 1.7 -0.3
v 13.3 1.7 -0.4
v 13.5 1.7 -0.4
v 13.2 2 0.3
v 13.4 2 0.3
v 13.1 2 0.2
v 13.2 2 0.2
v 13.3 2 0.2
v 13.4 2 0.2
v 13 2 0.1
v 13.1 2 0.1
v 13.2 2 0.1
v 13.3 2 0.1
v 13 2 -0.1
v 13.1 2 -0.1
v 13.1 2 -0.2
v 13.2 2 -0.2
v 13.3 2 -0.2
v 13.2 2 -0.3
v 13.3 2 -0.3
v 13.5 2 -0.3
v 13.3 2 -0.4
v 13.5 2 -0.4
v 13.3 2.3 0.3
v 13.4 2.3 0.3
v 13.2 2.3 0.2
v 13.3 2.3 0.2
v 13.4 2.3 0.2
v 13.1 2.3 0.1
v 13.2 2.3 0.1
v 13.3 2.3 0.1
v 13.1 2.3 -0.2
v 13.2 2.3 -0.2
v 13.3 2.3 -0.2
v 13.2 2.3 -0.3
v 13.3 2.3 -0.3
v 13.5 2.3 -0.3
v 13.3 2.3 -0.4
v 13.5 2.3 -0.4
v 13.5 1.4 -0.1
v 13.7 1.4 -0.1
v 13.6 1.4 -0.2
v 13.7 1.4 -0.2
v 13.5 1.4 -0.3
v 13.6 1.4 -0.3
v 13.2 1.6 0.3
v 13.4 1.6 0.3
v 13.1 1.6 0.2
v 13.2 1.6 0.2
v 13.3 1.6 0.2
v 13.4 1.6 0.2
v 13 1.6 0.1
v 13.1 1.6 0.1
v 13.2 1.6 0.1
v 13.3 1.6 0.1
v 13 1.6 -0.1
v 13.1 1.6 -0.1
v 13.1 1.6 -0.2
v 13.2 1.6 -0.2
v 13.3 1.6 -0.2
v 13.2 1.6 -0.3
v 13.3 1.6 -0.3
v 13.5 1.6 -0.3
v 13.3 1.6 -0.4
v 13.5 1.6 -0.4
v 13.2 1.9 0.3
v 13.4 1.9 0.3
v 13.1 1.9 0.2
v 13.2 1.9 0.2
v 13.3 1.9 0.2
v 13.4 1.9 0.2
v 13 1.9 0.1
v 13.1 1.9 0.1
v 13.2 1.9 0.1
v 13.3 1.9 0.1
v 13 1.9 -0.1
v 13.1 1.9 -0.1
v 13.1 1.9 -0.2
v 13.2 1.9 -0.2
v 13.3 1.9 -0.2
v 13.2 1.9 -0.3
v 13.3 1.9 -0.3
v 13.5 1.9 -0.3
v 13.3 1.9 -0.4
v 13.5 1.9 -0.4
v 13.2 2.2 0.3
v 13.4 2.2 0.3
v 13.1 2.2 0.2
v 13.2 2.2 0.2
v 13.3 2.2 0.2
v 13.4 2.2 0.2
v 13 2.2 0.1
v 13.1 2.2 0.1
v 13.2 2.2 0.1
v 13.3 2.2 0.1
v 13 2.2 -0.1
v 13.1 2.2 -0.1
v 13.1 2.2 -0.2
v 13.2 2.2 -0.2
v 13.3 2.2 -0.2
v 13.2 2.2 -0.3
v 13.3 2.2 -0.3
v 13.5 2.2 -0.3
v 13.3 2.2 -0.4
v 13.5 2.2 -0.4
v 13.9 2.4 0.3
v 14.1 2.4 0.3
v 13.9 2.4 -0.1
v 14.1 2.4 -0.1
v 14.1 2.5 0.4
v 14.2 2.5 0.4
v 16.4 2.5 0.4
v 17.5 2.5 0.4
v 13.3 2.5 0.3
v 13.9 2.5 0.3
v 13.2 2.5 0.2
v 13.3 2.5 0.2
v 14.2 2.5 0.2
v 16.4 2.5 0.2
v 13.1 2.5 0.1
v 13.2 2.5 0.1
v 13.5 2.5 -0.1
v 13.9 2.5 -0.1
v 13.1 2.5 -0.2
v 13.2 2.5 -0.2
v 13.2 2.5 -0.3
v 13.3 2.5 -0.3
v 13.3 2.5 -0.4
v 13.5 2.5 -0.4
v 14.1 2.5 -0.5
v 17.5 2.5 -0.5

# faces
f 3/1/1 2/1/1 1/1/1
f 4/1/1 2/1/1 3/1/1
f 7/1/1 6/1/1 5/1/1
f 8/1/1 6/1/1 7/1/1
f 11/1/1 10/1/1 9/1/1
f 12/1/1 10/1/1 11/1/1
f 17/1/1 14/1/1 13/1/1
f 18/1/1 14/1/1 17/1/1
f 19/1/1 16/1/1 15/1/1
f 20/1/1 16/1/1 19/1/1
f 25/1/1 22/1/1 21/1/1
f 26/1/1 22/1/1 25/1/1
f 27/1/1 24/1/1 23/1/1
f 28/1/1 24/1/1 27/1/1
f 33/1/1 30/1/1 29/1/1
f 34/1/1 30/1/1 33/1/1
f 35/1/1 32/1/1 31/1/1
f 36/1/1 32/1/1 35/1/1
f 39/1/1 38/1/1 37/1/1
f 40/1/1 38/1/1 39/1/1
f 45/1/1 42/1/1 41/1/1
f 46/1/1 42/1/1 45/1/1
f 48/1/1 44/1/1 43/1/1
f 49/1/1 44/1/1 48/1/1
f 52/1/1 48/1/1 47/1/1
f 53/1/1 48/1/1 52/1/1
f 55/1/1 51/1/1 50/1/1
f 56/1/1 51/1/1 55/1/1
f 58/1/1 54/1/1 53/1/1
f 59/1/1 54/1/1 58/1/1
f 62/1/1 58/1/1 57/1/1
f 63/1/1 58/1/1 62/1/1
f 65/1/1 61/1/1 60/1/1
f 66/1/1 61/1/1 65/1/1
f 68/1/1 64/1/1 63/1/1
f 69/1/1 64/1/1 68/1/1
f 71/1/1 68/1/1 67/1/1
f 72/1/1 68/1/1 71/1/1
f 74/1/1 71/1/1 70/1/1
f 75/1/1 71/1/1 74/1/1
f 76/1/1 73/1/1 72/1/1
f 77/1/1 73/1/1 76/1/1
f 80/1/1 79/1/1 78/1/1
f 81/1/1 79/1/1 80/1/1
f 85/1/1 79/1/1 81/1/1
f 86/1/1 79/1/1 85/1/1
f 87/1/1 83/1/1 82/1/1
f 88/1/1 83/1/1 87/1/1
f 89/1/1 85/1/1 84/1/1
f 90/1/1 85/1/1 89/1/1
f 95/1/1 91/1/1 90/1/1
f 96/1/1 91/1/1 95/1/1
f 97/1/1 93/1/1 92/1/1
f 98/1/1 93/1/1 97/1/1
f 99/1/1 95/1/1 94/1/1
f 100/1/1 95/1/1 99/1/1
f 105/1/1 101/1/1 100/1/1
f 106/1/1 101/1/1 105/1/1
f 108/1/1 103/1/1 102/1/1
f 109/1/1 103/1/1 108/1/1
f 110/1/1 105/1/1 104/1/1
f 111/1/1 105/1/1 110/1/1
f 113/1/1 108/1/1 107/1/1
f 114/1/1 108/1/1 113/1/1
f 115/1/1 112/1/1 111/1/1
f 116/1/1 112/1/1 115/1/1
f 119/1/1 118/1/1 117/1/1
f 120/1/1 118/1/1 119/1/1
f 123/1/1 122/1/1 121/1/1
f 124/1/1 122/1/1 123/1/1
f 127/1/1 126/1/1 125/1/1
f 128/1/1 126/1/1 127/1/1
f 131/1/1 130/1/1 129/1/1
f 132/1/1 130/1/1 131/1/1
f 135/1/1 134/1/1 133/1/1
f 136/1/1 134/1/1 135/1/1
f 137/1/1 134/1/1 136/1/1
f 140/1/1 139/1/1 138/1/1
f 141/1/1 139/1/1 140/1/1
f 144/2/1 143/2/1 142/2/1
f 145/2/1 143/2/1 144/2/1
f 146/2/1 144/2/1 142/2/1
f 147/2/1 143/2/1 145/2/1
f 148/2/1 146/2/1 142/2/1
f 148/2/1 147/2/1 146/2/1
f 149/2/1 143/2/1 147/2/1
f 149/2/1 147/2/1 148/2/1
f 152/2/1 151/2/1 150/2/1
f 153/2/1 151/2/1 152/2/1
f 154/1/2 155/1/2 156/1/2
f 156/1/2 155/1/2 157/1/2
f 158/1/2 159/1/2 161/1/2
f 161/1/2 159/1/2 162/1/2
f 160/1/2 161/1/2 162/1/2
f 162/1/2 159/1/2 163/1/2
f 160/1/2 162/1/2 164/1/2
f 160/1/2 164/1/2 166/1/2
f 164/1/2 165/1/2 166/1/2
f 166/1/2 165/1/2 167/1/2
f 160/1/2 166/1/2 168/1/2
f 160/1/2 168/1/2 170/1/2
f 168/1/2 169/1/2 170/1/2
f 170/1/2 169/1/2 171/1/2
f 160/1/2 170/1/2 172/1/2
f 160/1/2 172/1/2 174/1/2
f 172/1/2 173/1/2 174/1/2
f 174/1/2 173/1/2 175/1/2
f 176/1/2 177/1/2 178/1/2
f 178/1/2 177/1/2 179/1/2
f 180/1/2 181/1/2 182/1/2
f 182/1/2 181/1/2 183/1/2
f 184/1/2 185/1/2 186/1/2
f 186/1/2 185/1/2 187/1/2
f 188/1/2 189/1/2 190/1/2
f 190/1/2 189/1/2 191/1/2
f 192/1/2 193/1/2 194/1/2
f 194/1/2 193/1/2 195/1/2
f 196/2/2 197/2/2 198/2/2
f 198/2/2 197/2/2 199/2/2
f 200/2/2 201/2/2 202/2/2
f 202/2/2 201/2/2 203/2/2
f 206/2/3 205/2/3 204/2/3
f 207/2/3 205/2/3 206/2/3
f 210/2/3 209/2/3 208/2/3
f 211/2/3 209/2/3 210/2/3
f 220/1/3 213/1/3 212/1/3
f 221/1/3 215/1/3 214/1/3
f 222/1/3 215/1/3 221/1/3
f 223/1/3 217/1/3 216/1/3
f 224/1/3 217/1/3 223/1/3
f 225/1/3 219/1/3 218/1/3
f 226/1/3 224/1/3 223/1/3
f 226/1/3 225/1/3 224/1/3
f 226/1/3 220/1/3 212/1/3
f 226/1/3 222/1/3 221/1/3
f 226/1/3 223/1/3 222/1/3
f 226/1/3 221/1/3 220/1/3
f 227/1/3 225/1/3 226/1/3
f 228/1/3 219/1/3 225/1/3
f 228/1/3 225/1/3 227/1/3
f 229/1/3 219/1/3 228/1/3
f 230/1/3 228/1/3 227/1/3
f 231/1/3 228/1/3 230/1/3
f 238/1/3 233/1/3 232/1/3
f 239/1/3 233/1/3 238/1/3
f 240/1/3 235/1/3 234/1/3
f 241/1/3 235/1/3 240/1/3
f 242/1/3 237/1/3 236/1/3
f 243/1/3 237/1/3 242/1/3
f 251/1/3 245/1/3 244/1/3
f 252/1/3 245/1/3 251/1/3
f 253/1/3 247/1/3 246/1/3
f 254/1/3 247/1/3 253/1/3
f 255/1/3 249/1/3 248/1/3
f 256/1/3 249/1/3 255/1/3
f 257/1/3 251/1/3 250/1/3
f 258/1/3 251/1/3 257/1/3
f 261/2/3 260/2/3 259/2/3
f 262/2/3 260/2/3 261/2/3
f 269/1/3 264/1/3 263/1/3
f 270/1/3 264/1/3 269/1/3
f 271/1/3 266/1/3 265/1/3
f 272/1/3 266/1/3 271/1/3
f 273/1/3 268/1/3 267/1/3
f 274/1/3 268/1/3 273/1/3
f 282/1/3 276/1/3 275/1/3
f 283/1/3 276/1/3 282/1/3
f 284/1/3 278/1/3 277/1/3
f 285/1/3 278/1/3 284/1/3
f 286/1/3 280/1/3 279/1/3
f 287/1/3 280/1/3 286/1/3
f 288/1/3 282/1/3 281/1/3
f 289/1/3 282/1/3 288/1/3
f 292/1/3 291/1/3 290/1/3
f 293/1/3 291/1/3 292/1/3
f 296/1/3 295/1/3 294/1/3
f 297/1/3 295/1/3 296/1/3
f 300/1/3 299/1/3 298/1/3
f 301/1/3 299/1/3 300/1/3
f 305/1/3 303/1/3 302/1/3
f 305/1/3 304/1/3 303/1/3
f 306/1/3 304/1/3 305/1/3
f 307/1/4 308/1/4 309/1/4
f 309/1/4 308/1/4 310/1/4
f 311/1/4 312/1/4 317/1/4
f 317/1/4 312/1/4 318/1/4
f 313/1/4 314/1/4 319/1/4
f 319/1/4 314/1/4 320/1/4
f 315/1/4 316/1/4 321/1/4
f 321/1/4 316/1/4 322/1/4
f 323/1/4 324/1/4 326/1/4
f 325/1/4 326/1/4 327/1/4
f 326/1/4 324/1/4 328/1/4
f 327/1/4 326/1/4 328/1/4
f 328/1/4 324/1/4 329/1/4
f 329/1/4 324/1/4 330/1/4
f 330/1/4 324/1/4 331/1/4
f 331/1/4 324/1/4 332/1/4
f 330/1/4 331/1/4 333/1/4
f 333/1/4 331/1/4 334/1/4
f 335/1/4 336/1/4 343/1/4
f 343/1/4 336/1/4 344/1/4
f 337/1/4 338/1/4 345/1/4
f 345/1/4 338/1/4 346/1/4
f 339/1/4 340/1/4 347/1/4
f 347/1/4 340/1/4 348/1/4
f 341/1/4 342/1/4 349/1/4
f 349/1/4 342/1/4 350/1/4
f 344/1/4 345/1/4 351/1/4
f 351/1/4 345/1/4 352/1/4
f 346/1/4 347/1/4 353/1/4
f 353/1/4 347/1/4 354/1/4
f 348/1/4 349/1/4 355/1/4
f 355/1/4 349/1/4 356/1/4
f 357/1/4 358/1/4 359/1/4
f 359/1/4 358/1/4 360/1/4
f 361/1/4 362/1/4 369/1/4
f 369/1/4 362/1/4 370/1/4
f 363/1/4 364/1/4 371/1/4
f 371/1/4 364/1/4 372/1/4
f 365/1/4 366/1/4 373/1/4
f 373/1/4 366/1/4 374/1/4
f 367/1/4 368/1/4 375/1/4
f 375/1/4 368/1/4 376/1/4
f 370/1/4 371/1/4 379/1/4
f 379/1/4 371/1/4 380/1/4
f 372/1/4 373/1/4 381/1/4
f 381/1/4 373/1/4 382/1/4
f 374/1/4 375/1/4 383/1/4
f 383/1/4 375/1/4 384/1/4
f 377/1/4 378/1/4 385/1/4
f 385/1/4 378/1/4 386/1/4
f 387/1/4 388/1/4 395/1/4
f 395/1/4 388/1/4 396/1/4
f 389/1/4 390/1/4 397/1/4
f 397/1/4 390/1/4 398/1/4
f 391/1/4 392/1/4 399/1/4
f 399/1/4 392/1/4 400/1/4
f 393/1/4 394/1/4 401/1/4
f 401/1/4 394/1/4 402/1/4
f 403/2/4 404/2/4 405/2/4
f 405/2/4 404/2/4 406/2/4
f 410/1/5 408/1/5 407/1/5
f 412/1/5 410/1/5 409/1/5
f 413/1/5 408/1/5 410/1/5
f 413/1/5 410/1/5 412/1/5
f 414/1/5 408/1/5 413/1/5
f 416/1/5 412/1/5 411/1/5
f 416/1/5 413/1/5 412/1/5
f 417/1/5 413/1/5 416/1/5
f 418/1/5 413/1/5 417/1/5
f 419/1/5 416/1/5 415/1/5
f 419/1/5 417/1/5 416/1/5
f 420/1/5 417/1/5 419/1/5
f 421/1/5 419/1/5 415/1/5
f 422/1/5 419/1/5 421/1/5
f 430/1/5 428/1/5 427/1/5
f 431/2/5 424/2/5 423/2/5
f 432/2/5 426/2/5 425/2/5
f 434/1/5 430/1/5 429/1/5
f 435/1/5 428/1/5 430/1/5
f 435/1/5 430/1/5 434/1/5
f 436/1/5 428/1/5 435/1/5
f 437/1/5 434/1/5 433/1/5
f 437/1/5 435/1/5 434/1/5
f 438/1/5 435/1/5 437/1/5
f 439/1/5 435/1/5 438/1/5
f 440/1/5 437/1/5 433/1/5
f 441/1/5 437/1/5 440/1/5
f 442/1/5 428/1/5 436/1/5
f 443/1/5 428/1/5 442/1/5
f 444/1/5 437/1/5 441/1/5
f 445/1/5 437/1/5 444/1/5
f 446/1/5 437/1/5 445/1/5
f 447/1/5 446/1/5 445/1/5
f 448/1/5 446/1/5 447/1/5
f 449/2/5 432/2/5 431/2/5
f 449/2/5 431/2/5 423/2/5
f 450/2/5 426/2/5 432/2/5
f 450/2/5 432/2/5 449/2/5
f 455/1/5 454/1/5 453/1/5
f 456/1/5 454/1/5 455/1/5
f 457/1/5 452/1/5 451/1/5
f 458/1/5 452/1/5 457/1/5
f 459/1/5 455/1/5 453/1/5
f 460/1/5 455/1/5 459/1/5
f 464/1/5 462/1/5 461/1/5
f 465/1/5 462/1/5 464/1/5
f 466/1/5 462/1/5 465/1/5
f 468/1/5 464/1/5 463/1/5
f 468/1/5 465/1/5 464/1/5
f 469/1/5 465/1/5 468/1/5
f 470/1/5 465/1/5 469/1/5
f 471/1/5 468/1/5 467/1/5
f 471/1/5 469/1/5 468/1/5
f 472/1/5 469/1/5 471/1/5
f 473/1/5 469/1/5 472/1/5
f 474/1/5 469/1/5 473/1/5
f 476/1/5 475/1/5 474/1/5
f 477/1/5 475/1/5 476/1/5
f 479/1/5 478/1/5 477/1/5
f 480/1/5 478/1/5 479/1/5
f 484/1/5 482/1/5 481/1/5
f 485/1/5 482/1/5 484/1/5
f 486/1/5 482/1/5 485/1/5
f 488/1/5 484/1/5 483/1/5
f 488/1/5 485/1/5 484/1/5
f 489/1/5 485/1/5 488/1/5
f 490/1/5 485/1/5 489/1/5
f 491/1/5 488/1/5 487/1/5
f 491/1/5 489/1/5 488/1/5
f 492/1/5 489/1/5 491/1/5
f 493/1/5 489/1/5 492/1/5
f 494/1/5 489/1/5 493/1/5
f 496/1/5 495/1/5 494/1/5
f 497/1/5 495/1/5 496/1/5
f 499/1/5 498/1/5 497/1/5
f 500/1/5 498/1/5 499/1/5
f 504/1/5 502/1/5 501/1/5
f 505/1/5 502/1/5 504/1/5
f 507/1/5 504/1/5 503/1/5
f 508/1/5 504/1/5 507/1/5
f 509/1/5 507/1/5 506/1/5
f 510/1/5 507/1/5 509/1/5
f 512/1/5 511/1/5 510/1/5
f 513/1/5 511/1/5 512/1/5
f 515/1/5 514/1/5 513/1/5
f 516/1/5 514/1/5 515/1/5
f 517/1/6 518/1/6 519/1/6
f 519/1/6 518/1/6 520/1/6
f 517/1/6 519/1/6 521/1/6
f 521/1/6 519/1/6 522/1/6
f 523/1/6 524/1/6 526/1/6
f 526/1/6 524/1/6 527/1/6
f 527/1/6 524/1/6 528/1/6
f 525/1/6 526/1/6 530/1/6
f 526/1/6 527/1/6 530/1/6
f 530/1/6 527/1/6 531/1/6
f 531/1/6 527/1/6 532/1/6
f 529/1/6 530/1/6 533/1/6
f 530/1/6 531/1/6 533/1/6
f 533/1/6 531/1/6 534/1/6
f 534/1/6 531/1/6 535/1/6
f 535/1/6 531/1/6 536/1/6
f 536/1/6 537/1/6 538/1/6
f 538/1/6 537/1/6 539/1/6
f 539/1/6 540/1/6 541/1/6
f 541/1/6 540/1/6 542/1/6
f 543/1/6 544/1/6 546/1/6
f 546/1/6 544/1/6 547/1/6
f 547/1/6 544/1/6 548/1/6
f 545/1/6 546/1/6 550/1/6
f 546/1/6 547/1/6 550/1/6
f 550/1/6 547/1/6 551/1/6
f 551/1/6 547/1/6 552/1/6
f 549/1/6 550/1/6 553/1/6
f 550/1/6 551/1/6 553/1/6
f 553/1/6 551/1/6 554/1/6
f 554/1/6 551/1/6 555/1/6
f 555/1/6 551/1/6 556/1/6
f 556/1/6 557/1/6 558/1/6
f 558/1/6 557/1/6 559/1/6
f 559/1/6 560/1/6 561/1/6
f 561/1/6 560/1/6 562/1/6
f 563/1/6 564/1/6 566/1/6
f 566/1/6 564/1/6 567/1/6
f 567/1/6 564/1/6 568/1/6
f 565/1/6 566/1/6 570/1/6
f 566/1/6 567/1/6 570/1/6
f 570/1/6 567/1/6 571/1/6
f 571/1/6 567/1/6 572/1/6
f 569/1/6 570/1/6 573/1/6
f 570/1/6 571/1/6 573/1/6
f 573/1/6 571/1/6 574/1/6
f 574/1/6 571/1/6 575/1/6
f 575/1/6 571/1/6 576/1/6
f 576/1/6 577/1/6 578/1/6
f 578/1/6 577/1/6 579/1/6
f 579/1/6 580/1/6 581/1/6
f 581/1/6 580/1/6 582/1/6
f 583/1/6 584/1/6 585/1/6
f 585/1/6 584/1/6 586/1/6
f 591/1/6 592/1/6 594/1/6
f 587/2/6 588/2/6 595/2/6
f 589/2/6 590/2/6 596/2/6
f 593/1/6 594/1/6 598/1/6
f 594/1/6 592/1/6 599/1/6
f 597/1/6 598/1/6 599/1/6
f 598/1/6 594/1/6 599/1/6
f 599/1/6 592/1/6 600/1/6
f 597/1/6 599/1/6 601/1/6
f 601/1/6 599/1/6 602/1/6
f 602/1/6 599/1/6 603/1/6
f 603/1/6 599/1/6 604/1/6
f 604/1/6 599/1/6 605/1/6
f 605/1/6 599/1/6 606/1/6
f 595/2/6 596/2/6 607/2/6
f 587/2/6 595/2/6 607/2/6
f 596/2/6 590/2/6 608/2/6
f 607/2/6 596/2/6 608/2/6
