# MagicaVoxel @ Ephtracy

# group
o 

# material
mtllib Hand-2.mtl
usemtl palette

# normals
vn -1 0 0
vn 1 0 0
vn 0 0 1
vn 0 0 -1
vn 0 -1 0
vn 0 1 0

# texcoords
vt 0.966797 0.5
vt 0.994141 0.5

# verts
v 0.8 5.9 -1.4
v 0.8 5.9 -1.5
v 0.8 6.5 -1.4
v 0.8 6.5 -1.5
v 3 5.9 -1.4
v 3 5.9 -1.5
v 3 6.5 -1.4
v 3 6.5 -1.5
v 0.8 5.9 -1.4
v 0.8 6.5 -1.4
v 0.9 5.9 -1.4
v 0.9 6.4 -1.4
v 2.9 5.9 -1.4
v 2.9 6.4 -1.4
v 3 5.9 -1.4
v 3 6.5 -1.4
v 0.8 5.9 -1.5
v 0.8 6.5 -1.5
v 0.9 5.9 -1.5
v 0.9 6.4 -1.5
v 2.9 5.9 -1.5
v 2.9 6.4 -1.5
v 3 5.9 -1.5
v 3 6.5 -1.5
v 0.8 5.9 -1.4
v 0.9 5.9 -1.4
v 2.9 5.9 -1.4
v 3 5.9 -1.4
v 0.8 5.9 -1.5
v 0.9 5.9 -1.5
v 2.9 5.9 -1.5
v 3 5.9 -1.5
v 0.8 6.5 -1.4
v 3 6.5 -1.4
v 0.8 6.5 -1.5
v 3 6.5 -1.5

# faces
f 3/1/1 2/1/1 1/1/1
f 4/1/1 2/1/1 3/1/1
f 5/1/2 6/1/2 7/1/2
f 7/1/2 6/1/2 8/1/2
f 11/1/3 10/1/3 9/1/3
f 12/1/3 10/1/3 11/1/3
f 13/2/3 12/2/3 11/2/3
f 14/1/3 10/1/3 12/1/3
f 14/2/3 12/2/3 13/2/3
f 15/1/3 14/1/3 13/1/3
f 16/1/3 10/1/3 14/1/3
f 16/1/3 14/1/3 15/1/3
f 17/1/4 18/1/4 19/1/4
f 19/1/4 18/1/4 20/1/4
f 19/2/4 20/2/4 21/2/4
f 20/1/4 18/1/4 22/1/4
f 21/2/4 20/2/4 22/2/4
f 21/1/4 22/1/4 23/1/4
f 22/1/4 18/1/4 24/1/4
f 23/1/4 22/1/4 24/1/4
f 29/1/5 26/1/5 25/1/5
f 30/2/5 27/2/5 26/2/5
f 30/1/5 26/1/5 29/1/5
f 31/1/5 28/1/5 27/1/5
f 31/2/5 27/2/5 30/2/5
f 32/1/5 28/1/5 31/1/5
f 33/1/6 34/1/6 35/1/6
f 35/1/6 34/1/6 36/1/6
