# MagicaVoxel @ Ephtracy

# group
o 

# material
mtllib Hand-5.mtl
usemtl palette

# normals
vn -1 0 0
vn 1 0 0
vn 0 0 1
vn 0 0 -1
vn 0 -1 0
vn 0 1 0

# texcoords
vt 0.0683594 0.5
vt 0.966797 0.5
vt 0.994141 0.5

# verts
v -10.2 0.9 -1
v -10.2 0.9 -1.2
v -10.2 1.1 -1
v -10.2 1.1 -1.2
v -10.2 1.2 -1
v -10.2 1.2 -1.2
v -10.2 1.4 -1
v -10.2 1.4 -1.2
v -10.2 1.5 -1
v -10.2 1.5 -1.2
v -10.2 1.7 -1
v -10.2 1.7 -1.2
v -10.1 0.9 -0.9
v -10.1 0.9 -1
v -10.1 0.9 -1.2
v -10.1 0.9 -1.3
v -10.1 1.1 -0.9
v -10.1 1.1 -1
v -10.1 1.1 -1.2
v -10.1 1.1 -1.3
v -10.1 1.2 -0.9
v -10.1 1.2 -1
v -10.1 1.2 -1.2
v -10.1 1.2 -1.3
v -10.1 1.4 -0.9
v -10.1 1.4 -1
v -10.1 1.4 -1.2
v -10.1 1.4 -1.3
v -10.1 1.5 -0.9
v -10.1 1.5 -1
v -10.1 1.5 -1.2
v -10.1 1.5 -1.3
v -10.1 1.7 -0.9
v -10.1 1.7 -1
v -10.1 1.7 -1.2
v -10.1 1.7 -1.3
v -10.1 1.8 -1
v -10.1 1.8 -1.3
v -10.1 2 -1
v -10.1 2 -1.3
v -10 0.9 -0.8
v -10 0.9 -0.9
v -10 0.9 -1.3
v -10 0.9 -1.4
v -10 1.1 -0.8
v -10 1.1 -0.9
v -10 1.1 -1
v -10 1.1 -1.3
v -10 1.1 -1.4
v -10 1.2 -0.8
v -10 1.2 -0.9
v -10 1.2 -1
v -10 1.2 -1.3
v -10 1.2 -1.4
v -10 1.4 -0.8
v -10 1.4 -0.9
v -10 1.4 -1
v -10 1.4 -1.3
v -10 1.4 -1.4
v -10 1.5 -0.8
v -10 1.5 -0.9
v -10 1.5 -1
v -10 1.5 -1.3
v -10 1.5 -1.4
v -10 1.7 -0.8
v -10 1.7 -0.9
v -10 1.7 -1
v -10 1.7 -1.3
v -10 1.7 -1.4
v -10 1.8 -0.9
v -10 1.8 -1
v -10 1.8 -1.3
v -10 1.8 -1.4
v -10 2 -0.9
v -10 2 -1
v -10 2 -1.3
v -10 2 -1.4
v -9.9 0.7 -1.3
v -9.9 0.7 -1.5
v -9.9 0.9 -1.3
v -9.9 0.9 -1.4
v -9.9 1.1 -0.9
v -9.9 1.1 -1
v -9.9 1.1 -1.3
v -9.9 1.1 -1.4
v -9.9 1.1 -1.5
v -9.9 1.2 -0.9
v -9.9 1.2 -1
v -9.9 1.2 -1.3
v -9.9 1.2 -1.4
v -9.9 1.2 -1.5
v -9.9 1.4 -0.9
v -9.9 1.4 -1
v -9.9 1.4 -1.3
v -9.9 1.4 -1.4
v -9.9 1.4 -1.5
v -9.9 1.5 -0.9
v -9.9 1.5 -1
v -9.9 1.5 -1.3
v -9.9 1.5 -1.4
v -9.9 1.5 -1.5
v -9.9 1.7 -0.9
v -9.9 1.7 -1
v -9.9 1.7 -1.3
v -9.9 1.7 -1.4
v -9.9 1.7 -1.5
v -9.9 1.8 -0.8
v -9.9 1.8 -0.9
v -9.9 1.8 -1
v -9.9 1.8 -1.3
v -9.9 1.8 -1.4
v -9.9 1.8 -1.5
v -9.9 2 -0.8
v -9.9 2 -0.9
v -9.9 2 -1.4
v -9.9 2 -1.5
v -9.8 0.7 -1.2
v -9.8 0.7 -1.3
v -9.8 1 -1.2
v -9.8 1 -1.3
v -9.8 1.1 -0.8
v -9.8 1.1 -0.9
v -9.8 1.2 -0.8
v -9.8 1.2 -0.9
v -9.8 1.4 -0.8
v -9.8 1.4 -0.9
v -9.8 1.5 -0.8
v -9.8 1.5 -0.9
v -9.8 1.7 -0.8
v -9.8 1.7 -0.9
v -9.8 1.8 -0.8
v -9.8 1.8 -0.9
v -9.7 0.7 -1.1
v -9.7 0.7 -1.2
v -9.7 0.9 -1.1
v -9.7 1 -1.1
v -9.7 1 -1.2
v -9.6 0.7 -1
v -9.6 0.7 -1.1
v -9.6 0.9 -1
v -9.6 0.9 -1.1
v -9.1 0.9 -0.7
v -9.1 0.9 -1.6
v -9.1 1 -0.8
v -9.1 1 -1.2
v -9.1 1.9 -0.8
v -9.1 1.9 -1.2
v -9.1 2 -0.7
v -9.1 2 -1.6
v -9 0.6 -0.6
v -9 0.6 -0.7
v -9 0.9 -0.7
v -9 2 -0.7
v -9 2.5 -0.6
v -9 2.5 -0.7
v -6.5 0.9 -0.6
v -6.5 0.9 -0.7
v -6.5 2 -0.6
v -6.5 2 -0.7
v -6.3 0.9 -0.5
v -6.3 0.9 -0.6
v -6.3 2 -0.5
v -6.3 2 -0.6
v -9.9 0.9 -1.1
v -9.9 0.9 -1.3
v -9.9 1 -1.1
v -9.9 1 -1.3
v -9.7 0.7 -1.4
v -9.7 0.7 -1.5
v -9.7 0.9 -1.2
v -9.7 0.9 -1.4
v -9.7 1.1 -1.4
v -9.7 1.1 -1.5
v -9.7 1.2 -1.4
v -9.7 1.2 -1.5
v -9.7 1.4 -1.4
v -9.7 1.4 -1.5
v -9.7 1.5 -1.4
v -9.7 1.5 -1.5
v -9.7 1.7 -1.4
v -9.7 1.7 -1.5
v -9.7 1.8 -1.4
v -9.7 1.8 -1.5
v -9.7 2 -1.2
v -9.7 2 -1.5
v -9.6 0.7 -1.3
v -9.6 0.7 -1.4
v -9.6 0.9 -1.3
v -9.6 0.9 -1.4
v -9.5 0.7 -1.2
v -9.5 0.7 -1.3
v -9.5 0.9 -1.2
v -9.5 0.9 -1.3
v -9.4 0.7 -1
v -9.4 0.7 -1.2
v -9.4 0.9 -1
v -9.4 0.9 -1.2
v -9.3 0.9 -0.8
v -9.3 0.9 -1.2
v -9.3 1 -0.8
v -9.3 1 -1.2
v -9.3 1.9 -0.8
v -9.3 1.9 -1.2
v -9.3 2 -0.8
v -9.3 2 -1.2
v -6.8 0.6 -0.6
v -6.8 0.6 -0.7
v -6.8 0.9 -0.7
v -6.8 2 -0.7
v -6.8 2.5 -0.6
v -6.8 2.5 -0.7
v -6.5 0.9 -1.4
v -6.5 0.9 -1.6
v -6.5 2 -1.4
v -6.5 2 -1.6
v -6.3 0.9 -1.3
v -6.3 0.9 -1.4
v -6.3 2 -1.3
v -6.3 2 -1.4
v -5.9 0.9 -1.1
v -5.9 0.9 -1.3
v -5.9 2 -1.1
v -5.9 2 -1.3
v -5.8 0.9 -0.5
v -5.8 0.9 -1.1
v -5.8 2 -0.5
v -5.8 2 -1.1
v -6.3 0.9 -0.5
v -6.3 2 -0.5
v -5.8 0.9 -0.5
v -5.8 2 -0.5
v -9 0.6 -0.6
v -9 2.5 -0.6
v -8.9 0.7 -0.6
v -8.9 2.4 -0.6
v -6.9 0.7 -0.6
v -6.9 2.4 -0.6
v -6.8 0.6 -0.6
v -6.8 2.5 -0.6
v -6.5 0.9 -0.6
v -6.5 2 -0.6
v -6.3 0.9 -0.6
v -6.3 2 -0.6
v -9.1 0.9 -0.7
v -9.1 2 -0.7
v -9 0.9 -0.7
v -9 2 -0.7
v -6.8 0.9 -0.7
v -6.8 2 -0.7
v -6.5 0.9 -0.7
v -6.5 2 -0.7
v -10 0.9 -0.8
v -10 1.1 -0.8
v -10 1.2 -0.8
v -10 1.4 -0.8
v -10 1.5 -0.8
v -10 1.7 -0.8
v -9.9 1.8 -0.8
v -9.9 2 -0.8
v -9.8 1.1 -0.8
v -9.8 1.2 -0.8
v -9.8 1.4 -0.8
v -9.8 1.5 -0.8
v -9.8 1.7 -0.8
v -9.8 1.8 -0.8
v -9.3 0.9 -0.8
v -9.3 1 -0.8
v -9.3 1.9 -0.8
v -9.3 2 -0.8
v -9.1 1 -0.8
v -9.1 1.9 -0.8
v -10.1 0.9 -0.9
v -10.1 1.1 -0.9
v -10.1 1.2 -0.9
v -10.1 1.4 -0.9
v -10.1 1.5 -0.9
v -10.1 1.7 -0.9
v -10 0.9 -0.9
v -10 1.1 -0.9
v -10 1.2 -0.9
v -10 1.4 -0.9
v -10 1.5 -0.9
v -10 1.7 -0.9
v -10 1.8 -0.9
v -10 2 -0.9
v -9.9 1.1 -0.9
v -9.9 1.2 -0.9
v -9.9 1.4 -0.9
v -9.9 1.5 -0.9
v -9.9 1.7 -0.9
v -9.9 1.8 -0.9
v -9.9 2 -0.9
v -9.8 1.1 -0.9
v -9.8 1.2 -0.9
v -9.8 1.4 -0.9
v -9.8 1.5 -0.9
v -9.8 1.7 -0.9
v -9.8 1.8 -0.9
v -10.2 0.9 -1
v -10.2 1.1 -1
v -10.2 1.2 -1
v -10.2 1.4 -1
v -10.2 1.5 -1
v -10.2 1.7 -1
v -10.1 0.9 -1
v -10.1 1.1 -1
v -10.1 1.2 -1
v -10.1 1.4 -1
v -10.1 1.5 -1
v -10.1 1.7 -1
v -10.1 1.8 -1
v -10.1 2 -1
v -10 1.1 -1
v -10 1.2 -1
v -10 1.4 -1
v -10 1.5 -1
v -10 1.7 -1
v -10 1.8 -1
v -10 2 -1
v -9.9 1.1 -1
v -9.9 1.2 -1
v -9.9 1.4 -1
v -9.9 1.5 -1
v -9.9 1.7 -1
v -9.9 1.8 -1
v -9.6 0.7 -1
v -9.6 0.9 -1
v -9.4 0.7 -1
v -9.4 0.9 -1
v -9.7 0.7 -1.1
v -9.7 0.9 -1.1
v -9.6 0.7 -1.1
v -9.6 0.9 -1.1
v -9.8 0.7 -1.2
v -9.8 1 -1.2
v -9.7 0.7 -1.2
v -9.7 1 -1.2
v -9.9 0.7 -1.3
v -9.9 0.9 -1.3
v -9.9 1 -1.3
v -9.8 0.7 -1.3
v -9.8 1 -1.3
v -9 0.6 -0.7
v -9 0.9 -0.7
v -9 2 -0.7
v -9 2.5 -0.7
v -8.9 0.7 -0.7
v -8.9 0.9 -0.7
v -8.9 2 -0.7
v -8.9 2.4 -0.7
v -6.9 0.7 -0.7
v -6.9 0.9 -0.7
v -6.9 2 -0.7
v -6.9 2.4 -0.7
v -6.8 0.6 -0.7
v -6.8 0.9 -0.7
v -6.8 2 -0.7
v -6.8 2.5 -0.7
v -9.9 0.9 -1.1
v -9.9 1 -1.1
v -9.7 0.9 -1.1
v -9.7 1 -1.1
v -5.9 0.9 -1.1
v -5.9 2 -1.1
v -5.8 0.9 -1.1
v -5.8 2 -1.1
v -10.2 0.9 -1.2
v -10.2 1.1 -1.2
v -10.2 1.2 -1.2
v -10.2 1.4 -1.2
v -10.2 1.5 -1.2
v -10.2 1.7 -1.2
v -10.1 0.9 -1.2
v -10.1 1.1 -1.2
v -10.1 1.2 -1.2
v -10.1 1.4 -1.2
v -10.1 1.5 -1.2
v -10.1 1.7 -1.2
v -9.7 0.9 -1.2
v -9.7 2 -1.2
v -9.5 0.7 -1.2
v -9.5 0.9 -1.2
v -9.4 0.7 -1.2
v -9.4 0.9 -1.2
v -9.3 0.9 -1.2
v -9.3 1 -1.2
v -9.3 1.9 -1.2
v -9.3 2 -1.2
v -9.1 1 -1.2
v -9.1 1.9 -1.2
v -10.1 0.9 -1.3
v -10.1 1.1 -1.3
v -10.1 1.2 -1.3
v -10.1 1.4 -1.3
v -10.1 1.5 -1.3
v -10.1 1.7 -1.3
v -10.1 1.8 -1.3
v -10.1 2 -1.3
v -10 0.9 -1.3
v -10 1.1 -1.3
v -10 1.2 -1.3
v -10 1.4 -1.3
v -10 1.5 -1.3
v -10 1.7 -1.3
v -10 1.8 -1.3
v -10 2 -1.3
v -9.9 1.1 -1.3
v -9.9 1.2 -1.3
v -9.9 1.4 -1.3
v -9.9 1.5 -1.3
v -9.9 1.7 -1.3
v -9.9 1.8 -1.3
v -9.6 0.7 -1.3
v -9.6 0.9 -1.3
v -9.5 0.7 -1.3
v -9.5 0.9 -1.3
v -6.3 0.9 -1.3
v -6.3 2 -1.3
v -5.9 0.9 -1.3
v -5.9 2 -1.3
v -10 0.9 -1.4
v -10 1.1 -1.4
v -10 1.2 -1.4
v -10 1.4 -1.4
v -10 1.5 -1.4
v -10 1.7 -1.4
v -10 1.8 -1.4
v -10 2 -1.4
v -9.9 0.9 -1.4
v -9.9 1.1 -1.4
v -9.9 1.2 -1.4
v -9.9 1.4 -1.4
v -9.9 1.5 -1.4
v -9.9 1.7 -1.4
v -9.9 1.8 -1.4
v -9.9 2 -1.4
v -9.7 0.7 -1.4
v -9.7 0.9 -1.4
v -9.7 1.1 -1.4
v -9.7 1.2 -1.4
v -9.7 1.4 -1.4
v -9.7 1.5 -1.4
v -9.7 1.7 -1.4
v -9.7 1.8 -1.4
v -9.6 0.7 -1.4
v -9.6 0.9 -1.4
v -6.5 0.9 -1.4
v -6.5 2 -1.4
v -6.3 0.9 -1.4
v -6.3 2 -1.4
v -9.9 0.7 -1.5
v -9.9 1.1 -1.5
v -9.9 1.2 -1.5
v -9.9 1.4 -1.5
v -9.9 1.5 -1.5
v -9.9 1.7 -1.5
v -9.9 1.8 -1.5
v -9.9 2 -1.5
v -9.7 0.7 -1.5
v -9.7 1.1 -1.5
v -9.7 1.2 -1.5
v -9.7 1.4 -1.5
v -9.7 1.5 -1.5
v -9.7 1.7 -1.5
v -9.7 1.8 -1.5
v -9.7 2 -1.5
v -9.1 0.9 -1.6
v -9.1 2 -1.6
v -6.5 0.9 -1.6
v -6.5 2 -1.6
v -9 0.6 -0.6
v -6.8 0.6 -0.6
v -9 0.6 -0.7
v -6.8 0.6 -0.7
v -9.6 0.7 -1
v -9.4 0.7 -1
v -9.7 0.7 -1.1
v -9.6 0.7 -1.1
v -9.8 0.7 -1.2
v -9.7 0.7 -1.2
v -9.5 0.7 -1.2
v -9.4 0.7 -1.2
v -9.9 0.7 -1.3
v -9.8 0.7 -1.3
v -9.6 0.7 -1.3
v -9.5 0.7 -1.3
v -9.7 0.7 -1.4
v -9.6 0.7 -1.4
v -9.9 0.7 -1.5
v -9.7 0.7 -1.5
v -6.3 0.9 -0.5
v -5.8 0.9 -0.5
v -6.5 0.9 -0.6
v -6.3 0.9 -0.6
v -9.1 0.9 -0.7
v -9 0.9 -0.7
v -8.9 0.9 -0.7
v -6.9 0.9 -0.7
v -6.8 0.9 -0.7
v -6.5 0.9 -0.7
v -10 0.9 -0.8
v -9.3 0.9 -0.8
v -10.1 0.9 -0.9
v -10 0.9 -0.9
v -10.2 0.9 -1
v -10.1 0.9 -1
v -9.6 0.9 -1
v -9.4 0.9 -1
v -9.9 0.9 -1.1
v -9.7 0.9 -1.1
v -9.6 0.9 -1.1
v -5.9 0.9 -1.1
v -5.8 0.9 -1.1
v -10.2 0.9 -1.2
v -10.1 0.9 -1.2
v -9.4 0.9 -1.2
v -9.3 0.9 -1.2
v -10.1 0.9 -1.3
v -10 0.9 -1.3
v -9.9 0.9 -1.3
v -6.3 0.9 -1.3
v -5.9 0.9 -1.3
v -10 0.9 -1.4
v -9.9 0.9 -1.4
v -6.5 0.9 -1.4
v -6.3 0.9 -1.4
v -9.1 0.9 -1.6
v -6.5 0.9 -1.6
v -9.3 1 -0.8
v -9.1 1 -0.8
v -9.9 1 -1.1
v -9.7 1 -1.1
v -9.8 1 -1.2
v -9.7 1 -1.2
v -9.3 1 -1.2
v -9.1 1 -1.2
v -9.9 1 -1.3
v -9.8 1 -1.3
v -10 1.2 -0.8
v -9.8 1.2 -0.8
v -10.1 1.2 -0.9
v -10 1.2 -0.9
v -9.9 1.2 -0.9
v -9.8 1.2 -0.9
v -10.2 1.2 -1
v -10.1 1.2 -1
v -10 1.2 -1
v -9.9 1.2 -1
v -10.2 1.2 -1.2
v -10.1 1.2 -1.2
v -10.1 1.2 -1.3
v -10 1.2 -1.3
v -9.9 1.2 -1.3
v -10 1.2 -1.4
v -9.9 1.2 -1.4
v -9.7 1.2 -1.4
v -9.9 1.2 -1.5
v -9.7 1.2 -1.5
v -10 1.5 -0.8
v -9.8 1.5 -0.8
v -10.1 1.5 -0.9
v -10 1.5 -0.9
v -9.9 1.5 -0.9
v -9.8 1.5 -0.9
v -10.2 1.5 -1
v -10.1 1.5 -1
v -10 1.5 -1
v -9.9 1.5 -1
v -10.2 1.5 -1.2
v -10.1 1.5 -1.2
v -10.1 1.5 -1.3
v -10 1.5 -1.3
v -9.9 1.5 -1.3
v -10 1.5 -1.4
v -9.9 1.5 -1.4
v -9.7 1.5 -1.4
v -9.9 1.5 -1.5
v -9.7 1.5 -1.5
v -9.9 1.8 -0.8
v -9.8 1.8 -0.8
v -10 1.8 -0.9
v -9.9 1.8 -0.9
v -9.8 1.8 -0.9
v -10.1 1.8 -1
v -10 1.8 -1
v -9.9 1.8 -1
v -10.1 1.8 -1.3
v -10 1.8 -1.3
v -9.9 1.8 -1.3
v -10 1.8 -1.4
v -9.9 1.8 -1.4
v -9.7 1.8 -1.4
v -9.9 1.8 -1.5
v -9.7 1.8 -1.5
v -9.7 0.9 -1.2
v -9.5 0.9 -1.2
v -9.6 0.9 -1.3
v -9.5 0.9 -1.3
v -9.7 0.9 -1.4
v -9.6 0.9 -1.4
v -10 1.1 -0.8
v -9.8 1.1 -0.8
v -10.1 1.1 -0.9
v -10 1.1 -0.9
v -9.9 1.1 -0.9
v -9.8 1.1 -0.9
v -10.2 1.1 -1
v -10.1 1.1 -1
v -10 1.1 -1
v -9.9 1.1 -1
v -10.2 1.1 -1.2
v -10.1 1.1 -1.2
v -10.1 1.1 -1.3
v -10 1.1 -1.3
v -9.9 1.1 -1.3
v -10 1.1 -1.4
v -9.9 1.1 -1.4
v -9.7 1.1 -1.4
v -9.9 1.1 -1.5
v -9.7 1.1 -1.5
v -10 1.4 -0.8
v -9.8 1.4 -0.8
v -10.1 1.4 -0.9
v -10 1.4 -0.9
v -9.9 1.4 -0.9
v -9.8 1.4 -0.9
v -10.2 1.4 -1
v -10.1 1.4 -1
v -10 1.4 -1
v -9.9 1.4 -1
v -10.2 1.4 -1.2
v -10.1 1.4 -1.2
v -10.1 1.4 -1.3
v -10 1.4 -1.3
v -9.9 1.4 -1.3
v -10 1.4 -1.4
v -9.9 1.4 -1.4
v -9.7 1.4 -1.4
v -9.9 1.4 -1.5
v -9.7 1.4 -1.5
v -10 1.7 -0.8
v -9.8 1.7 -0.8
v -10.1 1.7 -0.9
v -10 1.7 -0.9
v -9.9 1.7 -0.9
v -9.8 1.7 -0.9
v -10.2 1.7 -1
v -10.1 1.7 -1
v -10 1.7 -1
v -9.9 1.7 -1
v -10.2 1.7 -1.2
v -10.1 1.7 -1.2
v -10.1 1.7 -1.3
v -10 1.7 -1.3
v -9.9 1.7 -1.3
v -10 1.7 -1.4
v -9.9 1.7 -1.4
v -9.7 1.7 -1.4
v -9.9 1.7 -1.5
v -9.7 1.7 -1.5
v -9.3 1.9 -0.8
v -9.1 1.9 -0.8
v -9.3 1.9 -1.2
v -9.1 1.9 -1.2
v -6.3 2 -0.5
v -5.8 2 -0.5
v -6.5 2 -0.6
v -6.3 2 -0.6
v -9.1 2 -0.7
v -9 2 -0.7
v -8.9 2 -0.7
v -6.9 2 -0.7
v -6.8 2 -0.7
v -6.5 2 -0.7
v -9.9 2 -0.8
v -9.3 2 -0.8
v -10 2 -0.9
v -9.9 2 -0.9
v -10.1 2 -1
v -10 2 -1
v -5.9 2 -1.1
v -5.8 2 -1.1
v -9.7 2 -1.2
v -9.3 2 -1.2
v -10.1 2 -1.3
v -10 2 -1.3
v -6.3 2 -1.3
v -5.9 2 -1.3
v -10 2 -1.4
v -9.9 2 -1.4
v -6.5 2 -1.4
v -6.3 2 -1.4
v -9.9 2 -1.5
v -9.7 2 -1.5
v -9.1 2 -1.6
v -6.5 2 -1.6
v -9 2.5 -0.6
v -6.8 2.5 -0.6
v -9 2.5 -0.7
v -6.8 2.5 -0.7

# faces
f 3/1/1 2/1/1 1/1/1
f 4/1/1 2/1/1 3/1/1
f 7/1/1 6/1/1 5/1/1
f 8/1/1 6/1/1 7/1/1
f 11/1/1 10/1/1 9/1/1
f 12/1/1 10/1/1 11/1/1
f 17/1/1 14/1/1 13/1/1
f 18/1/1 14/1/1 17/1/1
f 19/1/1 16/1/1 15/1/1
f 20/1/1 16/1/1 19/1/1
f 25/1/1 22/1/1 21/1/1
f 26/1/1 22/1/1 25/1/1
f 27/1/1 24/1/1 23/1/1
f 28/1/1 24/1/1 27/1/1
f 33/1/1 30/1/1 29/1/1
f 34/1/1 30/1/1 33/1/1
f 35/1/1 32/1/1 31/1/1
f 36/1/1 32/1/1 35/1/1
f 39/1/1 38/1/1 37/1/1
f 40/1/1 38/1/1 39/1/1
f 45/1/1 42/1/1 41/1/1
f 46/1/1 42/1/1 45/1/1
f 48/1/1 44/1/1 43/1/1
f 49/1/1 44/1/1 48/1/1
f 52/1/1 48/1/1 47/1/1
f 53/1/1 48/1/1 52/1/1
f 55/1/1 51/1/1 50/1/1
f 56/1/1 51/1/1 55/1/1
f 58/1/1 54/1/1 53/1/1
f 59/1/1 54/1/1 58/1/1
f 62/1/1 58/1/1 57/1/1
f 63/1/1 58/1/1 62/1/1
f 65/1/1 61/1/1 60/1/1
f 66/1/1 61/1/1 65/1/1
f 68/1/1 64/1/1 63/1/1
f 69/1/1 64/1/1 68/1/1
f 71/1/1 68/1/1 67/1/1
f 72/1/1 68/1/1 71/1/1
f 74/1/1 71/1/1 70/1/1
f 75/1/1 71/1/1 74/1/1
f 76/1/1 73/1/1 72/1/1
f 77/1/1 73/1/1 76/1/1
f 80/1/1 79/1/1 78/1/1
f 81/1/1 79/1/1 80/1/1
f 85/1/1 79/1/1 81/1/1
f 86/1/1 79/1/1 85/1/1
f 87/1/1 83/1/1 82/1/1
f 88/1/1 83/1/1 87/1/1
f 89/1/1 85/1/1 84/1/1
f 90/1/1 85/1/1 89/1/1
f 95/1/1 91/1/1 90/1/1
f 96/1/1 91/1/1 95/1/1
f 97/1/1 93/1/1 92/1/1
f 98/1/1 93/1/1 97/1/1
f 99/1/1 95/1/1 94/1/1
f 100/1/1 95/1/1 99/1/1
f 105/1/1 101/1/1 100/1/1
f 106/1/1 101/1/1 105/1/1
f 108/1/1 103/1/1 102/1/1
f 109/1/1 103/1/1 108/1/1
f 110/1/1 105/1/1 104/1/1
f 111/1/1 105/1/1 110/1/1
f 113/1/1 108/1/1 107/1/1
f 114/1/1 108/1/1 113/1/1
f 115/1/1 112/1/1 111/1/1
f 116/1/1 112/1/1 115/1/1
f 119/1/1 118/1/1 117/1/1
f 120/1/1 118/1/1 119/1/1
f 123/1/1 122/1/1 121/1/1
f 124/1/1 122/1/1 123/1/1
f 127/1/1 126/1/1 125/1/1
f 128/1/1 126/1/1 127/1/1
f 131/1/1 130/1/1 129/1/1
f 132/1/1 130/1/1 131/1/1
f 135/1/1 134/1/1 133/1/1
f 136/1/1 134/1/1 135/1/1
f 137/1/1 134/1/1 136/1/1
f 140/1/1 139/1/1 138/1/1
f 141/1/1 139/1/1 140/1/1
f 144/2/1 143/2/1 142/2/1
f 145/2/1 143/2/1 144/2/1
f 146/2/1 144/2/1 142/2/1
f 147/2/1 143/2/1 145/2/1
f 148/2/1 146/2/1 142/2/1
f 148/2/1 147/2/1 146/2/1
f 149/2/1 143/2/1 147/2/1
f 149/2/1 147/2/1 148/2/1
f 152/2/1 151/2/1 150/2/1
f 153/2/1 152/2/1 150/2/1
f 154/2/1 153/2/1 150/2/1
f 155/2/1 153/2/1 154/2/1
f 158/2/1 157/2/1 156/2/1
f 159/2/1 157/2/1 158/2/1
f 162/2/1 161/2/1 160/2/1
f 163/2/1 161/2/1 162/2/1
f 164/1/2 165/1/2 166/1/2
f 166/1/2 165/1/2 167/1/2
f 168/1/2 169/1/2 171/1/2
f 171/1/2 169/1/2 172/1/2
f 170/1/2 171/1/2 172/1/2
f 172/1/2 169/1/2 173/1/2
f 170/1/2 172/1/2 174/1/2
f 170/1/2 174/1/2 176/1/2
f 174/1/2 175/1/2 176/1/2
f 176/1/2 175/1/2 177/1/2
f 170/1/2 176/1/2 178/1/2
f 170/1/2 178/1/2 180/1/2
f 178/1/2 179/1/2 180/1/2
f 180/1/2 179/1/2 181/1/2
f 170/1/2 180/1/2 182/1/2
f 170/1/2 182/1/2 184/1/2
f 182/1/2 183/1/2 184/1/2
f 184/1/2 183/1/2 185/1/2
f 186/1/2 187/1/2 188/1/2
f 188/1/2 187/1/2 189/1/2
f 190/1/2 191/1/2 192/1/2
f 192/1/2 191/1/2 193/1/2
f 194/1/2 195/1/2 196/1/2
f 196/1/2 195/1/2 197/1/2
f 198/1/2 199/1/2 200/1/2
f 200/1/2 199/1/2 201/1/2
f 202/1/2 203/1/2 204/1/2
f 204/1/2 203/1/2 205/1/2
f 206/2/2 207/2/2 208/2/2
f 206/2/2 208/2/2 209/2/2
f 206/2/2 209/2/2 210/2/2
f 210/2/2 209/2/2 211/2/2
f 212/2/2 213/2/2 214/2/2
f 214/2/2 213/2/2 215/2/2
f 216/2/2 217/2/2 218/2/2
f 218/2/2 217/2/2 219/2/2
f 220/2/2 221/2/2 222/2/2
f 222/2/2 221/2/2 223/2/2
f 224/2/2 225/2/2 226/2/2
f 226/2/2 225/2/2 227/2/2
f 230/2/3 229/2/3 228/2/3
f 231/2/3 229/2/3 230/2/3
f 234/2/3 233/2/3 232/2/3
f 235/2/3 233/2/3 234/2/3
f 236/2/3 234/2/3 232/2/3
f 236/3/3 235/3/3 234/3/3
f 237/2/3 233/2/3 235/2/3
f 237/3/3 235/3/3 236/3/3
f 238/2/3 236/2/3 232/2/3
f 238/2/3 237/2/3 236/2/3
f 239/2/3 233/2/3 237/2/3
f 239/2/3 237/2/3 238/2/3
f 242/2/3 241/2/3 240/2/3
f 243/2/3 241/2/3 242/2/3
f 246/2/3 245/2/3 244/2/3
f 247/2/3 245/2/3 246/2/3
f 250/2/3 249/2/3 248/2/3
f 251/2/3 249/2/3 250/2/3
f 260/1/3 253/1/3 252/1/3
f 261/1/3 255/1/3 254/1/3
f 262/1/3 255/1/3 261/1/3
f 263/1/3 257/1/3 256/1/3
f 264/1/3 257/1/3 263/1/3
f 265/1/3 259/1/3 258/1/3
f 266/1/3 264/1/3 263/1/3
f 266/1/3 265/1/3 264/1/3
f 266/1/3 260/1/3 252/1/3
f 266/1/3 262/1/3 261/1/3
f 266/1/3 263/1/3 262/1/3
f 266/1/3 261/1/3 260/1/3
f 267/1/3 265/1/3 266/1/3
f 268/1/3 259/1/3 265/1/3
f 268/1/3 265/1/3 267/1/3
f 269/1/3 259/1/3 268/1/3
f 270/1/3 268/1/3 267/1/3
f 271/1/3 268/1/3 270/1/3
f 278/1/3 273/1/3 272/1/3
f 279/1/3 273/1/3 278/1/3
f 280/1/3 275/1/3 274/1/3
f 281/1/3 275/1/3 280/1/3
f 282/1/3 277/1/3 276/1/3
f 283/1/3 277/1/3 282/1/3
f 291/1/3 285/1/3 284/1/3
f 292/1/3 285/1/3 291/1/3
f 293/1/3 287/1/3 286/1/3
f 294/1/3 287/1/3 293/1/3
f 295/1/3 289/1/3 288/1/3
f 296/1/3 289/1/3 295/1/3
f 297/1/3 291/1/3 290/1/3
f 298/1/3 291/1/3 297/1/3
f 305/1/3 300/1/3 299/1/3
f 306/1/3 300/1/3 305/1/3
f 307/1/3 302/1/3 301/1/3
f 308/1/3 302/1/3 307/1/3
f 309/1/3 304/1/3 303/1/3
f 310/1/3 304/1/3 309/1/3
f 318/1/3 312/1/3 311/1/3
f 319/1/3 312/1/3 318/1/3
f 320/1/3 314/1/3 313/1/3
f 321/1/3 314/1/3 320/1/3
f 322/1/3 316/1/3 315/1/3
f 323/1/3 316/1/3 322/1/3
f 324/1/3 318/1/3 317/1/3
f 325/1/3 318/1/3 324/1/3
f 328/1/3 327/1/3 326/1/3
f 329/1/3 327/1/3 328/1/3
f 332/1/3 331/1/3 330/1/3
f 333/1/3 331/1/3 332/1/3
f 336/1/3 335/1/3 334/1/3
f 337/1/3 335/1/3 336/1/3
f 341/1/3 339/1/3 338/1/3
f 341/1/3 340/1/3 339/1/3
f 342/1/3 340/1/3 341/1/3
f 343/2/4 344/2/4 347/2/4
f 347/2/4 344/2/4 348/2/4
f 345/2/4 346/2/4 349/2/4
f 349/2/4 346/2/4 350/2/4
f 347/3/4 348/3/4 351/3/4
f 343/2/4 347/2/4 351/2/4
f 351/3/4 348/3/4 352/3/4
f 349/3/4 350/3/4 353/3/4
f 350/2/4 346/2/4 354/2/4
f 353/3/4 350/3/4 354/3/4
f 351/2/4 352/2/4 355/2/4
f 343/2/4 351/2/4 355/2/4
f 355/2/4 352/2/4 356/2/4
f 353/2/4 354/2/4 357/2/4
f 354/2/4 346/2/4 358/2/4
f 357/2/4 354/2/4 358/2/4
f 359/1/4 360/1/4 361/1/4
f 361/1/4 360/1/4 362/1/4
f 363/2/4 364/2/4 365/2/4
f 365/2/4 364/2/4 366/2/4
f 367/1/4 368/1/4 373/1/4
f 373/1/4 368/1/4 374/1/4
f 369/1/4 370/1/4 375/1/4
f 375/1/4 370/1/4 376/1/4
f 371/1/4 372/1/4 377/1/4
f 377/1/4 372/1/4 378/1/4
f 379/1/4 380/1/4 382/1/4
f 381/1/4 382/1/4 383/1/4
f 382/1/4 380/1/4 384/1/4
f 383/1/4 382/1/4 384/1/4
f 384/1/4 380/1/4 385/1/4
f 385/1/4 380/1/4 386/1/4
f 386/1/4 380/1/4 387/1/4
f 387/1/4 380/1/4 388/1/4
f 386/1/4 387/1/4 389/1/4
f 389/1/4 387/1/4 390/1/4
f 391/1/4 392/1/4 399/1/4
f 399/1/4 392/1/4 400/1/4
f 393/1/4 394/1/4 401/1/4
f 401/1/4 394/1/4 402/1/4
f 395/1/4 396/1/4 403/1/4
f 403/1/4 396/1/4 404/1/4
f 397/1/4 398/1/4 405/1/4
f 405/1/4 398/1/4 406/1/4
f 400/1/4 401/1/4 407/1/4
f 407/1/4 401/1/4 408/1/4
f 402/1/4 403/1/4 409/1/4
f 409/1/4 403/1/4 410/1/4
f 404/1/4 405/1/4 411/1/4
f 411/1/4 405/1/4 412/1/4
f 413/1/4 414/1/4 415/1/4
f 415/1/4 414/1/4 416/1/4
f 417/2/4 418/2/4 419/2/4
f 419/2/4 418/2/4 420/2/4
f 421/1/4 422/1/4 429/1/4
f 429/1/4 422/1/4 430/1/4
f 423/1/4 424/1/4 431/1/4
f 431/1/4 424/1/4 432/1/4
f 425/1/4 426/1/4 433/1/4
f 433/1/4 426/1/4 434/1/4
f 427/1/4 428/1/4 435/1/4
f 435/1/4 428/1/4 436/1/4
f 430/1/4 431/1/4 439/1/4
f 439/1/4 431/1/4 440/1/4
f 432/1/4 433/1/4 441/1/4
f 441/1/4 433/1/4 442/1/4
f 434/1/4 435/1/4 443/1/4
f 443/1/4 435/1/4 444/1/4
f 437/1/4 438/1/4 445/1/4
f 445/1/4 438/1/4 446/1/4
f 447/2/4 448/2/4 449/2/4
f 449/2/4 448/2/4 450/2/4
f 451/1/4 452/1/4 459/1/4
f 459/1/4 452/1/4 460/1/4
f 453/1/4 454/1/4 461/1/4
f 461/1/4 454/1/4 462/1/4
f 455/1/4 456/1/4 463/1/4
f 463/1/4 456/1/4 464/1/4
f 457/1/4 458/1/4 465/1/4
f 465/1/4 458/1/4 466/1/4
f 467/2/4 468/2/4 469/2/4
f 469/2/4 468/2/4 470/2/4
f 473/2/5 472/2/5 471/2/5
f 474/2/5 472/2/5 473/2/5
f 478/1/5 476/1/5 475/1/5
f 480/1/5 478/1/5 477/1/5
f 481/1/5 476/1/5 478/1/5
f 481/1/5 478/1/5 480/1/5
f 482/1/5 476/1/5 481/1/5
f 484/1/5 480/1/5 479/1/5
f 484/1/5 481/1/5 480/1/5
f 485/1/5 481/1/5 484/1/5
f 486/1/5 481/1/5 485/1/5
f 487/1/5 484/1/5 483/1/5
f 487/1/5 485/1/5 484/1/5
f 488/1/5 485/1/5 487/1/5
f 489/1/5 487/1/5 483/1/5
f 490/1/5 487/1/5 489/1/5
f 494/2/5 492/2/5 491/2/5
f 500/2/5 494/2/5 493/2/5
f 504/1/5 502/1/5 501/1/5
f 506/1/5 504/1/5 503/1/5
f 507/1/5 502/1/5 504/1/5
f 507/1/5 504/1/5 506/1/5
f 508/1/5 502/1/5 507/1/5
f 509/1/5 506/1/5 505/1/5
f 509/1/5 507/1/5 506/1/5
f 510/1/5 507/1/5 509/1/5
f 511/1/5 507/1/5 510/1/5
f 512/2/5 492/2/5 494/2/5
f 512/2/5 499/2/5 498/2/5
f 512/2/5 496/2/5 495/2/5
f 512/2/5 497/2/5 496/2/5
f 512/2/5 498/2/5 497/2/5
f 512/2/5 494/2/5 500/2/5
f 512/2/5 500/2/5 499/2/5
f 513/2/5 492/2/5 512/2/5
f 514/1/5 509/1/5 505/1/5
f 515/1/5 509/1/5 514/1/5
f 516/1/5 502/1/5 508/1/5
f 517/1/5 502/1/5 516/1/5
f 518/1/5 509/1/5 515/1/5
f 519/1/5 509/1/5 518/1/5
f 520/1/5 509/1/5 519/1/5
f 521/2/5 512/2/5 495/2/5
f 522/2/5 512/2/5 521/2/5
f 523/1/5 520/1/5 519/1/5
f 524/1/5 520/1/5 523/1/5
f 525/2/5 521/2/5 495/2/5
f 526/2/5 521/2/5 525/2/5
f 527/2/5 525/2/5 495/2/5
f 528/2/5 525/2/5 527/2/5
f 533/1/5 532/1/5 531/1/5
f 534/1/5 532/1/5 533/1/5
f 535/1/5 530/1/5 529/1/5
f 536/1/5 530/1/5 535/1/5
f 537/1/5 533/1/5 531/1/5
f 538/1/5 533/1/5 537/1/5
f 542/1/5 540/1/5 539/1/5
f 543/1/5 540/1/5 542/1/5
f 544/1/5 540/1/5 543/1/5
f 546/1/5 542/1/5 541/1/5
f 546/1/5 543/1/5 542/1/5
f 547/1/5 543/1/5 546/1/5
f 548/1/5 543/1/5 547/1/5
f 549/1/5 546/1/5 545/1/5
f 549/1/5 547/1/5 546/1/5
f 550/1/5 547/1/5 549/1/5
f 551/1/5 547/1/5 550/1/5
f 552/1/5 547/1/5 551/1/5
f 554/1/5 553/1/5 552/1/5
f 555/1/5 553/1/5 554/1/5
f 557/1/5 556/1/5 555/1/5
f 558/1/5 556/1/5 557/1/5
f 562/1/5 560/1/5 559/1/5
f 563/1/5 560/1/5 562/1/5
f 564/1/5 560/1/5 563/1/5
f 566/1/5 562/1/5 561/1/5
f 566/1/5 563/1/5 562/1/5
f 567/1/5 563/1/5 566/1/5
f 568/1/5 563/1/5 567/1/5
f 569/1/5 566/1/5 565/1/5
f 569/1/5 567/1/5 566/1/5
f 570/1/5 567/1/5 569/1/5
f 571/1/5 567/1/5 570/1/5
f 572/1/5 567/1/5 571/1/5
f 574/1/5 573/1/5 572/1/5
f 575/1/5 573/1/5 574/1/5
f 577/1/5 576/1/5 575/1/5
f 578/1/5 576/1/5 577/1/5
f 582/1/5 580/1/5 579/1/5
f 583/1/5 580/1/5 582/1/5
f 585/1/5 582/1/5 581/1/5
f 586/1/5 582/1/5 585/1/5
f 587/1/5 585/1/5 584/1/5
f 588/1/5 585/1/5 587/1/5
f 590/1/5 589/1/5 588/1/5
f 591/1/5 589/1/5 590/1/5
f 593/1/5 592/1/5 591/1/5
f 594/1/5 592/1/5 593/1/5
f 595/1/6 596/1/6 597/1/6
f 597/1/6 596/1/6 598/1/6
f 595/1/6 597/1/6 599/1/6
f 599/1/6 597/1/6 600/1/6
f 601/1/6 602/1/6 604/1/6
f 604/1/6 602/1/6 605/1/6
f 605/1/6 602/1/6 606/1/6
f 603/1/6 604/1/6 608/1/6
f 604/1/6 605/1/6 608/1/6
f 608/1/6 605/1/6 609/1/6
f 609/1/6 605/1/6 610/1/6
f 607/1/6 608/1/6 611/1/6
f 608/1/6 609/1/6 611/1/6
f 611/1/6 609/1/6 612/1/6
f 612/1/6 609/1/6 613/1/6
f 613/1/6 609/1/6 614/1/6
f 614/1/6 615/1/6 616/1/6
f 616/1/6 615/1/6 617/1/6
f 617/1/6 618/1/6 619/1/6
f 619/1/6 618/1/6 620/1/6
f 621/1/6 622/1/6 624/1/6
f 624/1/6 622/1/6 625/1/6
f 625/1/6 622/1/6 626/1/6
f 623/1/6 624/1/6 628/1/6
f 624/1/6 625/1/6 628/1/6
f 628/1/6 625/1/6 629/1/6
f 629/1/6 625/1/6 630/1/6
f 627/1/6 628/1/6 631/1/6
f 628/1/6 629/1/6 631/1/6
f 631/1/6 629/1/6 632/1/6
f 632/1/6 629/1/6 633/1/6
f 633/1/6 629/1/6 634/1/6
f 634/1/6 635/1/6 636/1/6
f 636/1/6 635/1/6 637/1/6
f 637/1/6 638/1/6 639/1/6
f 639/1/6 638/1/6 640/1/6
f 641/1/6 642/1/6 644/1/6
f 644/1/6 642/1/6 645/1/6
f 645/1/6 642/1/6 646/1/6
f 643/1/6 644/1/6 648/1/6
f 644/1/6 645/1/6 648/1/6
f 648/1/6 645/1/6 649/1/6
f 649/1/6 645/1/6 650/1/6
f 647/1/6 648/1/6 651/1/6
f 648/1/6 649/1/6 651/1/6
f 651/1/6 649/1/6 652/1/6
f 652/1/6 649/1/6 653/1/6
f 653/1/6 649/1/6 654/1/6
f 654/1/6 655/1/6 656/1/6
f 656/1/6 655/1/6 657/1/6
f 657/1/6 658/1/6 659/1/6
f 659/1/6 658/1/6 660/1/6
f 661/1/6 662/1/6 663/1/6
f 663/1/6 662/1/6 664/1/6
f 665/2/6 666/2/6 668/2/6
f 667/2/6 668/2/6 674/2/6
f 675/1/6 676/1/6 678/1/6
f 677/1/6 678/1/6 680/1/6
f 668/2/6 666/2/6 681/2/6
f 672/2/6 673/2/6 681/2/6
f 669/2/6 670/2/6 681/2/6
f 670/2/6 671/2/6 681/2/6
f 671/2/6 672/2/6 681/2/6
f 674/2/6 668/2/6 681/2/6
f 673/2/6 674/2/6 681/2/6
f 681/2/6 666/2/6 682/2/6
f 679/1/6 680/1/6 683/1/6
f 680/1/6 678/1/6 683/1/6
f 678/1/6 676/1/6 683/1/6
f 683/1/6 676/1/6 684/1/6
f 679/1/6 683/1/6 685/1/6
f 685/1/6 683/1/6 686/1/6
f 669/2/6 681/2/6 687/2/6
f 687/2/6 681/2/6 688/2/6
f 686/1/6 683/1/6 689/1/6
f 689/1/6 683/1/6 690/1/6
f 669/2/6 687/2/6 691/2/6
f 691/2/6 687/2/6 692/2/6
f 690/1/6 683/1/6 693/1/6
f 693/1/6 683/1/6 694/1/6
f 669/2/6 691/2/6 695/2/6
f 695/2/6 691/2/6 696/2/6
f 697/2/6 698/2/6 699/2/6
f 699/2/6 698/2/6 700/2/6
