# MagicaVoxel @ Ephtracy

# group
o 

# material
mtllib spaceship_inside-3.mtl
usemtl palette

# normals
vn -1 0 0
vn 1 0 0
vn 0 0 1
vn 0 0 -1
vn 0 -1 0
vn 0 1 0

# texcoords
vt 0.876953 0.5
vt 0.990234 0.5
vt 0.994141 0.5

# verts
v -2 -0.15 2
v -2 -0.15 -2
v -2 0.15 2
v -2 0.15 -2
v 1.9 -0.05 1.9
v 1.9 -0.05 -1.9
v 1.9 0.15 1.9
v 1.9 0.15 -1.9
v -1.9 -0.05 1.9
v -1.9 -0.05 -1
v -1.9 -0.05 -1.7
v -1.9 -0.05 -1.9
v -1.9 0.15 1.9
v -1.9 0.15 -1.9
v 2 -0.15 2
v 2 -0.15 -2
v 2 0.15 2
v 2 0.15 -2
v -2 -0.15 2
v -2 0.15 2
v 2 -0.15 2
v 2 0.15 2
v -1.9 -0.05 -1.9
v -1.9 0.15 -1.9
v 1.9 -0.05 -1.9
v 1.9 0.15 -1.9
v -1.9 -0.05 1.9
v -1.9 0.15 1.9
v 1.9 -0.05 1.9
v 1.9 0.15 1.9
v -2 -0.15 -2
v -2 0.15 -2
v 2 -0.15 -2
v 2 0.15 -2
v -2 -0.15 2
v 2 -0.15 2
v -1.8 -0.15 1.8
v -1.7 -0.15 1.8
v -1.6 -0.15 1.8
v -1.5 -0.15 1.8
v 1.3 -0.15 1.6
v 1.4 -0.15 1.6
v -1.6 -0.15 1.5
v -1.5 -0.15 1.5
v 1.3 -0.15 1.5
v 1.4 -0.15 1.5
v 1.5 -0.15 1.5
v -1.8 -0.15 1.4
v -1.7 -0.15 1.4
v 0.6 -0.15 1.4
v 1.4 -0.15 1.4
v 1.5 -0.15 1.4
v 1.6 -0.15 1.4
v 0.6 -0.15 1.3
v 1.4 -0.15 1.3
v 1.5 -0.15 1.3
v 1.6 -0.15 1.3
v 1.3 -0.15 1.2
v 1.4 -0.15 1.2
v 1.5 -0.15 1.2
v 1.3 -0.15 1.1
v 1.4 -0.15 1.1
v 1.2 -0.15 1
v 1.3 -0.15 1
v 1.6 -0.15 0.9
v 1.7 -0.15 0.9
v 1.4 -0.15 0.8
v 1.5 -0.15 0.8
v 1.2 -0.15 0.5
v 1.3 -0.15 0.5
v 1.4 -0.15 0.5
v 1.5 -0.15 0.5
v 1.6 -0.15 0.5
v 1.7 -0.15 0.5
v -1.8 -0.15 -0.9
v -1.6 -0.15 -0.9
v 1.7 -0.15 -0.9
v 1.8 -0.15 -0.9
v -1.9 -0.15 -1
v -1.8 -0.15 -1
v -1.6 -0.15 -1
v -1.4 -0.15 -1
v 1.1 -0.15 -1
v 1.2 -0.15 -1
v -1.6 -0.15 -1.1
v -1.4 -0.15 -1.1
v -1.2 -0.15 -1.1
v -1.4 -0.15 -1.2
v -1.2 -0.15 -1.2
v -1 -0.15 -1.2
v 1.5 -0.15 -1.2
v 1.6 -0.15 -1.2
v -1.8 -0.15 -1.3
v -1.7 -0.15 -1.3
v -1.6 -0.15 -1.3
v -1.3 -0.15 -1.3
v -1.2 -0.15 -1.3
v -1 -0.15 -1.3
v -0.9 -0.15 -1.3
v -1.8 -0.15 -1.4
v -1.7 -0.15 -1.4
v -1.6 -0.15 -1.4
v -1.3 -0.15 -1.4
v -1.2 -0.15 -1.4
v -1 -0.15 -1.4
v -0.9 -0.15 -1.4
v -1.4 -0.15 -1.5
v -1.2 -0.15 -1.5
v -1 -0.15 -1.5
v 1.3 -0.15 -1.5
v 1.4 -0.15 -1.5
v -1.6 -0.15 -1.6
v -1.4 -0.15 -1.6
v -1.2 -0.15 -1.6
v -1.9 -0.15 -1.7
v -1.8 -0.15 -1.7
v -1.6 -0.15 -1.7
v -1.4 -0.15 -1.7
v -1.8 -0.15 -1.8
v -1.6 -0.15 -1.8
v 1.1 -0.15 -1.8
v 1.2 -0.15 -1.8
v 1.3 -0.15 -1.8
v 1.4 -0.15 -1.8
v 1.5 -0.15 -1.8
v 1.6 -0.15 -1.8
v 1.7 -0.15 -1.8
v 1.8 -0.15 -1.8
v -2 -0.15 -2
v 2 -0.15 -2
v -1.9 -0.05 1.9
v 1.9 -0.05 1.9
v -1.8 -0.05 1.8
v -1.7 -0.05 1.8
v -1.6 -0.05 1.8
v -1.5 -0.05 1.8
v 1.3 -0.05 1.6
v 1.4 -0.05 1.6
v -1.6 -0.05 1.5
v -1.5 -0.05 1.5
v 1.3 -0.05 1.5
v 1.4 -0.05 1.5
v 1.5 -0.05 1.5
v -1.8 -0.05 1.4
v -1.7 -0.05 1.4
v 0.6 -0.05 1.4
v 1.4 -0.05 1.4
v 1.5 -0.05 1.4
v 1.6 -0.05 1.4
v 0.6 -0.05 1.3
v 1.4 -0.05 1.3
v 1.5 -0.05 1.3
v 1.6 -0.05 1.3
v 1.3 -0.05 1.2
v 1.4 -0.05 1.2
v 1.5 -0.05 1.2
v 1.3 -0.05 1.1
v 1.4 -0.05 1.1
v 1.2 -0.05 1
v 1.3 -0.05 1
v 1.6 -0.05 0.9
v 1.7 -0.05 0.9
v 1.4 -0.05 0.8
v 1.5 -0.05 0.8
v 1.2 -0.05 0.5
v 1.3 -0.05 0.5
v 1.4 -0.05 0.5
v 1.5 -0.05 0.5
v 1.6 -0.05 0.5
v 1.7 -0.05 0.5
v -1.8 -0.05 -0.9
v -1.6 -0.05 -0.9
v 1.7 -0.05 -0.9
v 1.8 -0.05 -0.9
v -1.9 -0.05 -1
v -1.8 -0.05 -1
v -1.6 -0.05 -1
v -1.4 -0.05 -1
v 1.1 -0.05 -1
v 1.2 -0.05 -1
v -1.6 -0.05 -1.1
v -1.4 -0.05 -1.1
v -1.2 -0.05 -1.1
v -1.4 -0.05 -1.2
v -1.2 -0.05 -1.2
v -1 -0.05 -1.2
v 1.5 -0.05 -1.2
v 1.6 -0.05 -1.2
v -1.8 -0.05 -1.3
v -1.7 -0.05 -1.3
v -1.6 -0.05 -1.3
v -1.3 -0.05 -1.3
v -1.2 -0.05 -1.3
v -1 -0.05 -1.3
v -0.9 -0.05 -1.3
v -1.8 -0.05 -1.4
v -1.7 -0.05 -1.4
v -1.6 -0.05 -1.4
v -1.3 -0.05 -1.4
v -1.2 -0.05 -1.4
v -1 -0.05 -1.4
v -0.9 -0.05 -1.4
v -1.4 -0.05 -1.5
v -1.2 -0.05 -1.5
v -1 -0.05 -1.5
v 1.3 -0.05 -1.5
v 1.4 -0.05 -1.5
v -1.6 -0.05 -1.6
v -1.4 -0.05 -1.6
v -1.2 -0.05 -1.6
v -1.9 -0.05 -1.7
v -1.8 -0.05 -1.7
v -1.6 -0.05 -1.7
v -1.4 -0.05 -1.7
v -1.8 -0.05 -1.8
v -1.6 -0.05 -1.8
v 1.1 -0.05 -1.8
v 1.2 -0.05 -1.8
v 1.3 -0.05 -1.8
v 1.4 -0.05 -1.8
v 1.5 -0.05 -1.8
v 1.6 -0.05 -1.8
v 1.7 -0.05 -1.8
v 1.8 -0.05 -1.8
v -1.9 -0.05 -1.9
v 1.9 -0.05 -1.9
v -2 0.15 2
v 2 0.15 2
v -1.9 0.15 1.9
v 1.9 0.15 1.9
v -1.9 0.15 -1.9
v 1.9 0.15 -1.9
v -2 0.15 -2
v 2 0.15 -2

# faces
f 3/2/1 2/2/1 1/2/1
f 4/2/1 2/2/1 3/2/1
f 7/2/1 6/2/1 5/2/1
f 8/2/1 6/2/1 7/2/1
f 9/2/2 10/2/2 13/2/2
f 11/2/2 12/2/2 13/2/2
f 10/2/2 11/2/2 13/2/2
f 13/2/2 12/2/2 14/2/2
f 15/2/2 16/2/2 17/2/2
f 17/2/2 16/2/2 18/2/2
f 21/2/3 20/2/3 19/2/3
f 22/2/3 20/2/3 21/2/3
f 25/2/3 24/2/3 23/2/3
f 26/2/3 24/2/3 25/2/3
f 27/2/4 28/2/4 29/2/4
f 29/2/4 28/2/4 30/2/4
f 31/2/4 32/2/4 33/2/4
f 33/2/4 32/2/4 34/2/4
f 37/2/5 36/2/5 35/2/5
f 38/2/5 36/2/5 37/2/5
f 39/2/5 36/2/5 38/2/5
f 40/2/5 36/2/5 39/2/5
f 41/2/5 36/2/5 40/2/5
f 42/2/5 36/2/5 41/2/5
f 43/2/5 39/2/5 38/2/5
f 43/3/5 40/3/5 39/3/5
f 44/2/5 41/2/5 40/2/5
f 44/3/5 40/3/5 43/3/5
f 45/3/5 42/3/5 41/3/5
f 45/2/5 41/2/5 44/2/5
f 46/2/5 36/2/5 42/2/5
f 46/3/5 42/3/5 45/3/5
f 47/2/5 36/2/5 46/2/5
f 48/2/5 37/2/5 35/2/5
f 48/3/5 38/3/5 37/3/5
f 49/2/5 45/2/5 44/2/5
f 49/3/5 38/3/5 48/3/5
f 49/2/5 44/2/5 43/2/5
f 49/2/5 46/2/5 45/2/5
f 49/2/5 43/2/5 38/2/5
f 50/2/5 46/2/5 49/2/5
f 51/3/5 47/3/5 46/3/5
f 51/2/5 46/2/5 50/2/5
f 52/2/5 36/2/5 47/2/5
f 52/3/5 47/3/5 51/3/5
f 53/2/5 36/2/5 52/2/5
f 54/3/5 51/3/5 50/3/5
f 54/2/5 50/2/5 49/2/5
f 54/3/5 53/3/5 52/3/5
f 54/3/5 52/3/5 51/3/5
f 54/2/5 49/2/5 48/2/5
f 55/3/5 53/3/5 54/3/5
f 56/3/5 53/3/5 55/3/5
f 57/2/5 36/2/5 53/2/5
f 57/3/5 53/3/5 56/3/5
f 58/2/5 55/2/5 54/2/5
f 59/3/5 56/3/5 55/3/5
f 59/2/5 55/2/5 58/2/5
f 60/2/5 57/2/5 56/2/5
f 60/3/5 56/3/5 59/3/5
f 61/2/5 58/2/5 54/2/5
f 61/3/5 59/3/5 58/3/5
f 62/2/5 60/2/5 59/2/5
f 62/3/5 59/3/5 61/3/5
f 63/2/5 61/2/5 54/2/5
f 63/2/5 62/2/5 61/2/5
f 64/2/5 62/2/5 63/2/5
f 65/2/5 57/2/5 60/2/5
f 65/2/5 62/2/5 64/2/5
f 65/2/5 36/2/5 57/2/5
f 65/2/5 60/2/5 62/2/5
f 66/2/5 36/2/5 65/2/5
f 67/2/5 65/2/5 64/2/5
f 68/2/5 65/2/5 67/2/5
f 69/3/5 64/3/5 63/3/5
f 69/2/5 63/2/5 54/2/5
f 70/2/5 67/2/5 64/2/5
f 70/3/5 64/3/5 69/3/5
f 71/3/5 68/3/5 67/3/5
f 71/2/5 67/2/5 70/2/5
f 72/2/5 65/2/5 68/2/5
f 72/3/5 68/3/5 71/3/5
f 73/3/5 66/3/5 65/3/5
f 73/2/5 65/2/5 72/2/5
f 74/2/5 36/2/5 66/2/5
f 74/3/5 66/3/5 73/3/5
f 75/2/5 71/2/5 70/2/5
f 75/2/5 48/2/5 35/2/5
f 75/2/5 74/2/5 73/2/5
f 75/2/5 69/2/5 54/2/5
f 75/2/5 72/2/5 71/2/5
f 75/2/5 73/2/5 72/2/5
f 75/2/5 70/2/5 69/2/5
f 75/2/5 54/2/5 48/2/5
f 76/2/5 74/2/5 75/2/5
f 77/2/5 36/2/5 74/2/5
f 77/2/5 74/2/5 76/2/5
f 78/2/5 36/2/5 77/2/5
f 79/2/5 75/2/5 35/2/5
f 80/3/5 76/3/5 75/3/5
f 80/2/5 75/2/5 79/2/5
f 81/2/5 77/2/5 76/2/5
f 81/3/5 76/3/5 80/3/5
f 82/2/5 77/2/5 81/2/5
f 83/2/5 77/2/5 82/2/5
f 84/2/5 77/2/5 83/2/5
f 85/2/5 81/2/5 80/2/5
f 85/3/5 82/3/5 81/3/5
f 86/2/5 83/2/5 82/2/5
f 86/3/5 82/3/5 85/3/5
f 87/2/5 83/2/5 86/2/5
f 88/2/5 86/2/5 85/2/5
f 88/3/5 87/3/5 86/3/5
f 89/2/5 83/2/5 87/2/5
f 89/3/5 87/3/5 88/3/5
f 90/2/5 83/2/5 89/2/5
f 91/2/5 77/2/5 84/2/5
f 92/2/5 77/2/5 91/2/5
f 93/3/5 80/3/5 79/3/5
f 93/2/5 85/2/5 80/2/5
f 93/2/5 88/2/5 85/2/5
f 93/2/5 89/2/5 88/2/5
f 94/2/5 89/2/5 93/2/5
f 95/2/5 89/2/5 94/2/5
f 96/2/5 89/2/5 95/2/5
f 97/3/5 90/3/5 89/3/5
f 97/2/5 89/2/5 96/2/5
f 98/2/5 83/2/5 90/2/5
f 98/3/5 90/3/5 97/3/5
f 99/2/5 83/2/5 98/2/5
f 100/3/5 93/3/5 79/3/5
f 100/1/5 94/1/5 93/1/5
f 101/2/5 95/2/5 94/2/5
f 101/1/5 94/1/5 100/1/5
f 102/1/5 96/1/5 95/1/5
f 102/2/5 95/2/5 101/2/5
f 103/2/5 97/2/5 96/2/5
f 103/1/5 96/1/5 102/1/5
f 103/2/5 98/2/5 97/2/5
f 104/2/5 98/2/5 103/2/5
f 105/3/5 99/3/5 98/3/5
f 105/2/5 98/2/5 104/2/5
f 106/2/5 83/2/5 99/2/5
f 106/3/5 99/3/5 105/3/5
f 107/2/5 102/2/5 101/2/5
f 107/2/5 101/2/5 100/2/5
f 107/2/5 104/2/5 103/2/5
f 107/2/5 103/2/5 102/2/5
f 108/3/5 105/3/5 104/3/5
f 108/2/5 104/2/5 107/2/5
f 109/2/5 106/2/5 105/2/5
f 109/3/5 105/3/5 108/3/5
f 110/2/5 91/2/5 84/2/5
f 111/2/5 91/2/5 110/2/5
f 112/2/5 107/2/5 100/2/5
f 113/3/5 108/3/5 107/3/5
f 113/2/5 107/2/5 112/2/5
f 114/2/5 109/2/5 108/2/5
f 114/3/5 108/3/5 113/3/5
f 115/2/5 79/2/5 35/2/5
f 115/3/5 100/3/5 79/3/5
f 116/2/5 112/2/5 100/2/5
f 116/3/5 100/3/5 115/3/5
f 117/3/5 113/3/5 112/3/5
f 117/2/5 112/2/5 116/2/5
f 118/2/5 114/2/5 113/2/5
f 118/3/5 113/3/5 117/3/5
f 119/3/5 117/3/5 116/3/5
f 119/2/5 116/2/5 115/2/5
f 120/2/5 118/2/5 117/2/5
f 120/3/5 117/3/5 119/3/5
f 121/2/5 109/2/5 114/2/5
f 121/2/5 118/2/5 120/2/5
f 121/2/5 83/2/5 106/2/5
f 121/3/5 84/3/5 83/3/5
f 121/2/5 106/2/5 109/2/5
f 121/2/5 114/2/5 118/2/5
f 122/2/5 110/2/5 84/2/5
f 122/3/5 84/3/5 121/3/5
f 123/3/5 111/3/5 110/3/5
f 123/2/5 110/2/5 122/2/5
f 124/2/5 91/2/5 111/2/5
f 124/3/5 111/3/5 123/3/5
f 125/3/5 92/3/5 91/3/5
f 125/2/5 91/2/5 124/2/5
f 126/2/5 77/2/5 92/2/5
f 126/3/5 92/3/5 125/3/5
f 127/3/5 78/3/5 77/3/5
f 127/2/5 77/2/5 126/2/5
f 128/2/5 36/2/5 78/2/5
f 128/3/5 78/3/5 127/3/5
f 129/2/5 120/2/5 119/2/5
f 129/2/5 127/2/5 126/2/5
f 129/2/5 128/2/5 127/2/5
f 129/2/5 123/2/5 122/2/5
f 129/2/5 115/2/5 35/2/5
f 129/2/5 119/2/5 115/2/5
f 129/2/5 124/2/5 123/2/5
f 129/2/5 121/2/5 120/2/5
f 129/2/5 122/2/5 121/2/5
f 129/2/5 126/2/5 125/2/5
f 129/2/5 125/2/5 124/2/5
f 130/2/5 36/2/5 128/2/5
f 130/2/5 128/2/5 129/2/5
f 131/2/6 132/2/6 133/2/6
f 133/2/6 132/2/6 134/2/6
f 134/2/6 132/2/6 135/2/6
f 135/2/6 132/2/6 136/2/6
f 136/2/6 132/2/6 137/2/6
f 137/2/6 132/2/6 138/2/6
f 134/2/6 135/2/6 139/2/6
f 135/3/6 136/3/6 139/3/6
f 136/2/6 137/2/6 140/2/6
f 139/3/6 136/3/6 140/3/6
f 137/3/6 138/3/6 141/3/6
f 140/2/6 137/2/6 141/2/6
f 138/2/6 132/2/6 142/2/6
f 141/3/6 138/3/6 142/3/6
f 142/2/6 132/2/6 143/2/6
f 131/2/6 133/2/6 144/2/6
f 133/3/6 134/3/6 144/3/6
f 140/2/6 141/2/6 145/2/6
f 144/3/6 134/3/6 145/3/6
f 139/2/6 140/2/6 145/2/6
f 141/2/6 142/2/6 145/2/6
f 134/2/6 139/2/6 145/2/6
f 145/2/6 142/2/6 146/2/6
f 142/3/6 143/3/6 147/3/6
f 146/2/6 142/2/6 147/2/6
f 143/2/6 132/2/6 148/2/6
f 147/3/6 143/3/6 148/3/6
f 148/2/6 132/2/6 149/2/6
f 146/3/6 147/3/6 150/3/6
f 145/2/6 146/2/6 150/2/6
f 148/3/6 149/3/6 150/3/6
f 147/3/6 148/3/6 150/3/6
f 144/2/6 145/2/6 150/2/6
f 150/3/6 149/3/6 151/3/6
f 151/3/6 149/3/6 152/3/6
f 149/2/6 132/2/6 153/2/6
f 152/3/6 149/3/6 153/3/6
f 150/2/6 151/2/6 154/2/6
f 151/3/6 152/3/6 155/3/6
f 154/2/6 151/2/6 155/2/6
f 152/2/6 153/2/6 156/2/6
f 155/3/6 152/3/6 156/3/6
f 150/2/6 154/2/6 157/2/6
f 154/3/6 155/3/6 157/3/6
f 155/2/6 156/2/6 158/2/6
f 157/3/6 155/3/6 158/3/6
f 150/2/6 157/2/6 159/2/6
f 157/2/6 158/2/6 159/2/6
f 159/2/6 158/2/6 160/2/6
f 156/2/6 153/2/6 161/2/6
f 160/2/6 158/2/6 161/2/6
f 153/2/6 132/2/6 161/2/6
f 158/2/6 156/2/6 161/2/6
f 161/2/6 132/2/6 162/2/6
f 160/2/6 161/2/6 163/2/6
f 163/2/6 161/2/6 164/2/6
f 159/3/6 160/3/6 165/3/6
f 150/2/6 159/2/6 165/2/6
f 160/2/6 163/2/6 166/2/6
f 165/3/6 160/3/6 166/3/6
f 163/3/6 164/3/6 167/3/6
f 166/2/6 163/2/6 167/2/6
f 164/2/6 161/2/6 168/2/6
f 167/3/6 164/3/6 168/3/6
f 161/3/6 162/3/6 169/3/6
f 168/2/6 161/2/6 169/2/6
f 162/2/6 132/2/6 170/2/6
f 169/3/6 162/3/6 170/3/6
f 166/2/6 167/2/6 171/2/6
f 131/2/6 144/2/6 171/2/6
f 169/2/6 170/2/6 171/2/6
f 150/2/6 165/2/6 171/2/6
f 167/2/6 168/2/6 171/2/6
f 168/2/6 169/2/6 171/2/6
f 165/2/6 166/2/6 171/2/6
f 144/2/6 150/2/6 171/2/6
f 171/2/6 170/2/6 172/2/6
f 170/2/6 132/2/6 173/2/6
f 172/2/6 170/2/6 173/2/6
f 173/2/6 132/2/6 174/2/6
f 131/2/6 171/2/6 175/2/6
f 171/3/6 172/3/6 176/3/6
f 175/2/6 171/2/6 176/2/6
f 172/2/6 173/2/6 177/2/6
f 176/3/6 172/3/6 177/3/6
f 177/2/6 173/2/6 178/2/6
f 178/2/6 173/2/6 179/2/6
f 179/2/6 173/2/6 180/2/6
f 176/2/6 177/2/6 181/2/6
f 177/3/6 178/3/6 181/3/6
f 178/2/6 179/2/6 182/2/6
f 181/3/6 178/3/6 182/3/6
f 182/2/6 179/2/6 183/2/6
f 181/2/6 182/2/6 184/2/6
f 182/3/6 183/3/6 184/3/6
f 183/2/6 179/2/6 185/2/6
f 184/3/6 183/3/6 185/3/6
f 185/2/6 179/2/6 186/2/6
f 180/2/6 173/2/6 187/2/6
f 187/2/6 173/2/6 188/2/6
f 175/3/6 176/3/6 189/3/6
f 176/2/6 181/2/6 189/2/6
f 181/2/6 184/2/6 189/2/6
f 184/2/6 185/2/6 189/2/6
f 189/2/6 185/2/6 190/2/6
f 190/2/6 185/2/6 191/2/6
f 191/2/6 185/2/6 192/2/6
f 185/3/6 186/3/6 193/3/6
f 192/2/6 185/2/6 193/2/6
f 186/2/6 179/2/6 194/2/6
f 193/3/6 186/3/6 194/3/6
f 194/2/6 179/2/6 195/2/6
f 175/3/6 189/3/6 196/3/6
f 189/1/6 190/1/6 196/1/6
f 190/2/6 191/2/6 197/2/6
f 196/1/6 190/1/6 197/1/6
f 191/1/6 192/1/6 198/1/6
f 197/2/6 191/2/6 198/2/6
f 192/2/6 193/2/6 199/2/6
f 198/1/6 192/1/6 199/1/6
f 193/2/6 194/2/6 199/2/6
f 199/2/6 194/2/6 200/2/6
f 194/3/6 195/3/6 201/3/6
f 200/2/6 194/2/6 201/2/6
f 195/2/6 179/2/6 202/2/6
f 201/3/6 195/3/6 202/3/6
f 197/2/6 198/2/6 203/2/6
f 196/2/6 197/2/6 203/2/6
f 199/2/6 200/2/6 203/2/6
f 198/2/6 199/2/6 203/2/6
f 200/3/6 201/3/6 204/3/6
f 203/2/6 200/2/6 204/2/6
f 201/2/6 202/2/6 205/2/6
f 204/3/6 201/3/6 205/3/6
f 180/2/6 187/2/6 206/2/6
f 206/2/6 187/2/6 207/2/6
f 196/2/6 203/2/6 208/2/6
f 203/3/6 204/3/6 209/3/6
f 208/2/6 203/2/6 209/2/6
f 204/2/6 205/2/6 210/2/6
f 209/3/6 204/3/6 210/3/6
f 175/3/6 196/3/6 211/3/6
f 196/2/6 208/2/6 212/2/6
f 211/3/6 196/3/6 212/3/6
f 208/3/6 209/3/6 213/3/6
f 212/2/6 208/2/6 213/2/6
f 209/2/6 210/2/6 214/2/6
f 213/3/6 209/3/6 214/3/6
f 211/2/6 212/2/6 215/2/6
f 212/3/6 213/3/6 215/3/6
f 213/2/6 214/2/6 216/2/6
f 215/3/6 213/3/6 216/3/6
f 202/2/6 179/2/6 217/2/6
f 216/2/6 214/2/6 217/2/6
f 179/3/6 180/3/6 217/3/6
f 205/2/6 202/2/6 217/2/6
f 210/2/6 205/2/6 217/2/6
f 214/2/6 210/2/6 217/2/6
f 180/2/6 206/2/6 218/2/6
f 217/3/6 180/3/6 218/3/6
f 206/3/6 207/3/6 219/3/6
f 218/2/6 206/2/6 219/2/6
f 207/2/6 187/2/6 220/2/6
f 219/3/6 207/3/6 220/3/6
f 187/3/6 188/3/6 221/3/6
f 220/2/6 187/2/6 221/2/6
f 188/2/6 173/2/6 222/2/6
f 221/3/6 188/3/6 222/3/6
f 173/3/6 174/3/6 223/3/6
f 222/2/6 173/2/6 223/2/6
f 174/2/6 132/2/6 224/2/6
f 223/3/6 174/3/6 224/3/6
f 222/2/6 223/2/6 225/2/6
f 220/2/6 221/2/6 225/2/6
f 223/2/6 224/2/6 225/2/6
f 216/2/6 217/2/6 225/2/6
f 218/2/6 219/2/6 225/2/6
f 221/2/6 222/2/6 225/2/6
f 217/2/6 218/2/6 225/2/6
f 219/2/6 220/2/6 225/2/6
f 211/2/6 215/2/6 225/2/6
f 215/2/6 216/2/6 225/2/6
f 224/2/6 132/2/6 226/2/6
f 225/2/6 224/2/6 226/2/6
f 227/2/6 228/2/6 229/2/6
f 229/2/6 228/2/6 230/2/6
f 227/2/6 229/2/6 231/2/6
f 230/2/6 228/2/6 232/2/6
f 227/2/6 231/2/6 233/2/6
f 231/2/6 232/2/6 233/2/6
f 232/2/6 228/2/6 234/2/6
f 233/2/6 232/2/6 234/2/6
