# MagicaVoxel @ Ephtracy

# group
o 

# material
mtllib spaceship_inside-5.mtl
usemtl palette

# normals
vn -1 0 0
vn 1 0 0
vn 0 0 1
vn 0 0 -1
vn 0 -1 0
vn 0 1 0

# texcoords
vt 0.853516 0.5
vt 0.962891 0.5
vt 0.970703 0.5
vt 0.974609 0.5
vt 0.978516 0.5
vt 0.986328 0.5

# verts
v -0.55 -0.5 0.35
v -0.55 -0.5 -0.35
v -0.55 0.1 0.35
v -0.55 0.1 -0.35
v -0.45 -0.7 0.35
v -0.45 -0.7 -0.35
v -0.45 -0.6 0.35
v -0.45 -0.6 -0.35
v -0.45 -0.5 0.45
v -0.45 -0.5 0.35
v -0.45 -0.5 -0.35
v -0.45 -0.5 -0.45
v -0.45 0.1 0.45
v -0.45 0.1 0.35
v -0.45 0.1 -0.35
v -0.45 0.1 -0.45
v -0.45 0.2 0.35
v -0.45 0.2 -0.35
v -0.35 -0.7 0.45
v -0.35 -0.7 0.35
v -0.35 -0.7 -0.35
v -0.35 -0.7 -0.45
v -0.35 -0.6 0.45
v -0.35 -0.6 0.35
v -0.35 -0.6 -0.35
v -0.35 -0.6 -0.45
v -0.35 -0.5 0.55
v -0.35 -0.5 0.45
v -0.35 -0.5 0.35
v -0.35 -0.5 -0.35
v -0.35 -0.5 -0.45
v -0.35 -0.5 -0.55
v -0.35 0.1 0.55
v -0.35 0.1 0.45
v -0.35 0.1 0.35
v -0.35 0.1 -0.35
v -0.35 0.1 -0.45
v -0.35 0.1 -0.55
v -0.35 0.2 0.45
v -0.35 0.2 0.35
v -0.35 0.2 -0.35
v -0.35 0.2 -0.45
v -0.35 0.3 0.35
v -0.35 0.3 -0.35
v -0.25 -0.7 0.55
v -0.25 -0.7 0.45
v -0.25 -0.7 -0.45
v -0.25 -0.7 -0.55
v -0.25 -0.6 0.55
v -0.25 -0.6 0.45
v -0.25 -0.6 -0.45
v -0.25 -0.6 -0.55
v -0.25 -0.5 0.65
v -0.25 -0.5 0.55
v -0.25 -0.5 0.45
v -0.25 -0.5 -0.45
v -0.25 -0.5 -0.55
v -0.25 -0.5 -0.65
v -0.25 0.1 0.65
v -0.25 0.1 0.55
v -0.25 0.1 0.45
v -0.25 0.1 -0.45
v -0.25 0.1 -0.55
v -0.25 0.1 -0.65
v -0.25 0.2 0.55
v -0.25 0.2 0.45
v -0.25 0.2 0.35
v -0.25 0.2 -0.35
v -0.25 0.2 -0.45
v -0.25 0.2 -0.55
v -0.25 0.3 0.45
v -0.25 0.3 0.35
v -0.25 0.3 -0.35
v -0.25 0.3 -0.45
v -0.25 0.4 0.35
v -0.25 0.4 -0.35
v -0.05 0.3 0.45
v -0.05 0.3 0.35
v -0.05 0.4 0.35
v -0.05 0.6 0.45
v -0.05 0.6 0.35
v -0.05 0.7 0.45
v -0.05 0.7 0.35
v 0.15 0.1 0.45
v 0.15 0.1 0.35
v 0.15 0.1 -0.35
v 0.15 0.1 -0.45
v 0.15 0.2 0.45
v 0.15 0.2 0.35
v 0.15 0.2 0.25
v 0.15 0.2 -0.35
v 0.15 0.2 -0.45
v 0.15 0.3 0.35
v 0.15 0.3 0.25
v 0.25 -0.7 0.45
v 0.25 -0.7 0.35
v 0.25 -0.7 -0.35
v 0.25 -0.7 -0.45
v 0.25 -0.6 0.45
v 0.25 -0.6 0.35
v 0.25 -0.6 -0.35
v 0.25 -0.6 -0.45
v 0.25 -0.5 0.55
v 0.25 -0.5 0.45
v 0.25 -0.5 0.35
v 0.25 -0.5 -0.35
v 0.25 -0.5 -0.45
v 0.25 -0.5 -0.55
v 0.25 -0.4 0.55
v 0.25 -0.4 0.45
v 0.25 -0.4 -0.45
v 0.25 -0.4 -0.55
v 0.25 0 0.55
v 0.25 0 0.45
v 0.25 0 -0.45
v 0.25 0 -0.55
v 0.25 0.1 0.55
v 0.25 0.1 0.45
v 0.25 0.1 0.35
v 0.25 0.1 0.25
v 0.25 0.1 -0.25
v 0.25 0.1 -0.35
v 0.25 0.1 -0.45
v 0.25 0.1 -0.55
v 0.25 0.2 0.35
v 0.25 0.2 0.25
v 0.25 0.2 -0.25
v 0.25 0.3 0.25
v 0.25 0.3 -0.25
v 0.25 0.3 -0.35
v 0.35 -0.7 0.35
v 0.35 -0.7 -0.35
v 0.35 -0.6 0.35
v 0.35 -0.6 -0.35
v 0.35 -0.5 0.45
v 0.35 -0.5 0.35
v 0.35 -0.5 -0.35
v 0.35 -0.5 -0.45
v 0.35 -0.4 0.45
v 0.35 -0.4 0.35
v 0.35 -0.4 -0.35
v 0.35 -0.4 -0.45
v 0.35 -0.3 0.45
v 0.35 -0.3 0.35
v 0.35 -0.3 -0.35
v 0.35 -0.3 -0.45
v 0.35 0 0.45
v 0.35 0 0.35
v 0.35 0 -0.35
v 0.35 0 -0.45
v 0.35 0.1 0.45
v 0.35 0.1 0.35
v 0.35 0.1 -0.35
v 0.35 0.1 -0.45
v 0.45 -0.5 0.35
v 0.45 -0.5 -0.35
v 0.45 -0.4 0.35
v 0.45 -0.4 -0.35
v -0.45 -0.5 0.35
v -0.45 -0.5 -0.35
v -0.45 0.1 0.35
v -0.45 0.1 -0.35
v -0.35 -0.7 0.35
v -0.35 -0.7 -0.35
v -0.35 -0.6 0.35
v -0.35 -0.6 -0.35
v -0.35 -0.5 0.45
v -0.35 -0.5 0.35
v -0.35 -0.5 -0.35
v -0.35 -0.5 -0.45
v -0.35 0.1 0.45
v -0.35 0.1 0.35
v -0.35 0.1 0.25
v -0.35 0.1 -0.25
v -0.35 0.1 -0.35
v -0.35 0.1 -0.45
v -0.35 0.2 0.25
v -0.35 0.2 -0.25
v -0.25 -0.7 0.45
v -0.25 -0.7 0.35
v -0.25 -0.7 -0.35
v -0.25 -0.7 -0.45
v -0.25 -0.6 0.45
v -0.25 -0.6 0.35
v -0.25 -0.6 -0.35
v -0.25 -0.6 -0.45
v -0.25 -0.5 0.55
v -0.25 -0.5 0.45
v -0.25 -0.5 0.35
v -0.25 -0.5 -0.35
v -0.25 -0.5 -0.45
v -0.25 -0.5 -0.55
v -0.25 0.1 0.55
v -0.25 0.1 0.45
v -0.25 0.1 0.35
v -0.25 0.1 0.25
v -0.25 0.1 -0.25
v -0.25 0.1 -0.35
v -0.25 0.1 -0.45
v -0.25 0.1 -0.55
v -0.25 0.2 0.25
v -0.25 0.2 -0.25
v -0.25 0.3 0.35
v -0.25 0.3 -0.35
v -0.15 0.1 0.45
v -0.15 0.1 0.35
v -0.15 0.1 -0.35
v -0.15 0.1 -0.45
v -0.15 0.2 0.45
v -0.15 0.2 0.35
v -0.15 0.2 -0.35
v -0.15 0.2 -0.45
v 0.05 0.3 0.45
v 0.05 0.3 0.35
v 0.05 0.4 0.35
v 0.05 0.6 0.45
v 0.05 0.6 0.35
v 0.05 0.7 0.45
v 0.05 0.7 0.35
v 0.25 -0.7 0.55
v 0.25 -0.7 0.45
v 0.25 -0.7 -0.45
v 0.25 -0.7 -0.55
v 0.25 -0.6 0.55
v 0.25 -0.6 0.45
v 0.25 -0.6 -0.45
v 0.25 -0.6 -0.55
v 0.25 -0.5 0.65
v 0.25 -0.5 0.55
v 0.25 -0.5 0.45
v 0.25 -0.5 -0.45
v 0.25 -0.5 -0.55
v 0.25 -0.5 -0.65
v 0.25 -0.4 0.55
v 0.25 -0.4 -0.55
v 0.25 0 0.55
v 0.25 0 -0.55
v 0.25 0.1 0.65
v 0.25 0.1 0.55
v 0.25 0.1 0.45
v 0.25 0.1 -0.45
v 0.25 0.1 -0.55
v 0.25 0.1 -0.65
v 0.25 0.2 0.55
v 0.25 0.2 0.45
v 0.25 0.2 0.35
v 0.25 0.2 -0.35
v 0.25 0.2 -0.45
v 0.25 0.2 -0.55
v 0.25 0.3 0.45
v 0.25 0.3 0.35
v 0.25 0.3 0.25
v 0.25 0.3 -0.25
v 0.25 0.3 -0.35
v 0.25 0.3 -0.45
v 0.25 0.4 0.35
v 0.25 0.4 -0.35
v 0.35 -0.7 0.45
v 0.35 -0.7 0.35
v 0.35 -0.7 -0.35
v 0.35 -0.7 -0.45
v 0.35 -0.6 0.45
v 0.35 -0.6 0.35
v 0.35 -0.6 -0.35
v 0.35 -0.6 -0.45
v 0.35 -0.5 0.55
v 0.35 -0.5 0.45
v 0.35 -0.5 0.35
v 0.35 -0.5 -0.35
v 0.35 -0.5 -0.45
v 0.35 -0.5 -0.55
v 0.35 -0.4 0.55
v 0.35 -0.4 0.45
v 0.35 -0.4 -0.45
v 0.35 -0.4 -0.55
v 0.35 -0.3 0.45
v 0.35 -0.3 -0.45
v 0.35 0 0.55
v 0.35 0 0.45
v 0.35 0 -0.45
v 0.35 0 -0.55
v 0.35 0.1 0.55
v 0.35 0.1 0.45
v 0.35 0.1 0.35
v 0.35 0.1 -0.35
v 0.35 0.1 -0.45
v 0.35 0.1 -0.55
v 0.35 0.2 0.45
v 0.35 0.2 0.35
v 0.35 0.2 0.25
v 0.35 0.2 -0.25
v 0.35 0.2 -0.35
v 0.35 0.2 -0.45
v 0.35 0.3 0.35
v 0.35 0.3 0.25
v 0.35 0.3 -0.25
v 0.35 0.3 -0.35
v 0.45 -0.7 0.35
v 0.45 -0.7 -0.35
v 0.45 -0.6 0.35
v 0.45 -0.6 -0.35
v 0.45 -0.5 0.45
v 0.45 -0.5 0.35
v 0.45 -0.5 -0.35
v 0.45 -0.5 -0.45
v 0.45 -0.4 0.45
v 0.45 -0.4 0.35
v 0.45 -0.4 -0.35
v 0.45 -0.4 -0.45
v 0.45 -0.3 0.45
v 0.45 -0.3 0.35
v 0.45 -0.3 -0.35
v 0.45 -0.3 -0.45
v 0.45 0 0.45
v 0.45 0 0.35
v 0.45 0 -0.35
v 0.45 0 -0.45
v 0.45 0.1 0.45
v 0.45 0.1 0.35
v 0.45 0.1 0.25
v 0.45 0.1 -0.25
v 0.45 0.1 -0.35
v 0.45 0.1 -0.45
v 0.45 0.2 0.35
v 0.45 0.2 0.25
v 0.45 0.2 -0.25
v 0.45 0.2 -0.35
v 0.55 -0.5 0.35
v 0.55 -0.5 -0.35
v 0.55 -0.4 0.35
v 0.55 -0.4 -0.35
v -0.25 -0.5 0.65
v -0.25 0.1 0.65
v 0.25 -0.5 0.65
v 0.25 0.1 0.65
v -0.35 -0.5 0.55
v -0.35 0.1 0.55
v -0.25 -0.7 0.55
v -0.25 -0.6 0.55
v -0.25 -0.5 0.55
v -0.25 0.1 0.55
v -0.25 0.2 0.55
v 0.25 -0.7 0.55
v 0.25 -0.6 0.55
v 0.25 -0.5 0.55
v 0.25 -0.4 0.55
v 0.25 0 0.55
v 0.25 0.1 0.55
v 0.25 0.2 0.55
v 0.35 -0.5 0.55
v 0.35 -0.4 0.55
v 0.35 0 0.55
v 0.35 0.1 0.55
v -0.45 -0.5 0.45
v -0.45 0.1 0.45
v -0.35 -0.7 0.45
v -0.35 -0.6 0.45
v -0.35 -0.5 0.45
v -0.35 0.1 0.45
v -0.35 0.2 0.45
v -0.25 -0.7 0.45
v -0.25 -0.6 0.45
v -0.25 -0.5 0.45
v -0.25 0.1 0.45
v -0.25 0.2 0.45
v -0.25 0.3 0.45
v -0.05 0.3 0.45
v -0.05 0.6 0.45
v -0.05 0.7 0.45
v 0.05 0.3 0.45
v 0.05 0.6 0.45
v 0.05 0.7 0.45
v 0.25 -0.7 0.45
v 0.25 -0.6 0.45
v 0.25 -0.5 0.45
v 0.25 0.1 0.45
v 0.25 0.2 0.45
v 0.25 0.3 0.45
v 0.35 -0.7 0.45
v 0.35 -0.6 0.45
v 0.35 -0.5 0.45
v 0.35 -0.4 0.45
v 0.35 -0.3 0.45
v 0.35 0 0.45
v 0.35 0.1 0.45
v 0.35 0.2 0.45
v 0.45 -0.5 0.45
v 0.45 -0.4 0.45
v 0.45 -0.3 0.45
v 0.45 0 0.45
v 0.45 0.1 0.45
v -0.55 -0.5 0.35
v -0.55 0.1 0.35
v -0.45 -0.7 0.35
v -0.45 -0.6 0.35
v -0.45 -0.5 0.35
v -0.45 0.1 0.35
v -0.45 0.2 0.35
v -0.35 -0.7 0.35
v -0.35 -0.6 0.35
v -0.35 -0.5 0.35
v -0.35 0.1 0.35
v -0.35 0.2 0.35
v -0.35 0.3 0.35
v -0.25 0.2 0.35
v -0.25 0.3 0.35
v -0.25 0.4 0.35
v -0.05 0.3 0.35
v -0.05 0.4 0.35
v 0.05 0.3 0.35
v 0.05 0.4 0.35
v 0.25 0.2 0.35
v 0.25 0.3 0.35
v 0.25 0.4 0.35
v 0.35 -0.7 0.35
v 0.35 -0.6 0.35
v 0.35 -0.5 0.35
v 0.35 0.1 0.35
v 0.35 0.2 0.35
v 0.35 0.3 0.35
v 0.45 -0.7 0.35
v 0.45 -0.6 0.35
v 0.45 -0.5 0.35
v 0.45 -0.4 0.35
v 0.45 0.1 0.35
v 0.45 0.2 0.35
v 0.55 -0.5 0.35
v 0.55 -0.4 0.35
v -0.35 0.1 -0.25
v -0.35 0.2 -0.25
v -0.25 0.1 -0.25
v -0.25 0.2 -0.25
v 0.25 0.1 -0.25
v 0.25 0.2 -0.25
v 0.35 0.1 -0.25
v 0.35 0.2 -0.25
v 0.45 0.1 -0.25
v 0.45 0.2 -0.25
v -0.45 -0.5 -0.35
v -0.45 0.1 -0.35
v -0.35 -0.7 -0.35
v -0.35 -0.6 -0.35
v -0.35 -0.5 -0.35
v -0.35 0.1 -0.35
v -0.25 -0.7 -0.35
v -0.25 -0.6 -0.35
v -0.25 -0.5 -0.35
v -0.25 0.1 -0.35
v -0.25 0.3 -0.35
v -0.15 0.1 -0.35
v -0.15 0.2 -0.35
v 0.15 0.1 -0.35
v 0.15 0.2 -0.35
v 0.25 -0.7 -0.35
v 0.25 -0.6 -0.35
v 0.25 -0.5 -0.35
v 0.25 0.1 -0.35
v 0.25 0.3 -0.35
v 0.35 -0.7 -0.35
v 0.35 -0.6 -0.35
v 0.35 -0.5 -0.35
v 0.35 -0.4 -0.35
v 0.35 -0.3 -0.35
v 0.35 0 -0.35
v 0.35 0.1 -0.35
v 0.45 -0.5 -0.35
v 0.45 -0.4 -0.35
v 0.45 -0.3 -0.35
v 0.45 0 -0.35
v 0.45 0.1 -0.35
v -0.35 -0.5 -0.45
v -0.35 0.1 -0.45
v -0.25 -0.7 -0.45
v -0.25 -0.6 -0.45
v -0.25 -0.5 -0.45
v -0.25 0.1 -0.45
v -0.15 0.1 -0.45
v -0.15 0.2 -0.45
v 0.15 0.1 -0.45
v 0.15 0.2 -0.45
v 0.25 -0.7 -0.45
v 0.25 -0.6 -0.45
v 0.25 -0.5 -0.45
v 0.25 -0.4 -0.45
v 0.25 0 -0.45
v 0.25 0.1 -0.45
v 0.35 -0.5 -0.45
v 0.35 -0.4 -0.45
v 0.35 -0.3 -0.45
v 0.35 0 -0.45
v 0.35 0.1 -0.45
v -0.25 -0.5 -0.55
v -0.25 0.1 -0.55
v 0.25 -0.5 -0.55
v 0.25 -0.4 -0.55
v 0.25 0 -0.55
v 0.25 0.1 -0.55
v -0.25 -0.5 0.55
v -0.25 0.1 0.55
v 0.25 -0.5 0.55
v 0.25 -0.4 0.55
v 0.25 0 0.55
v 0.25 0.1 0.55
v -0.35 -0.5 0.45
v -0.35 0.1 0.45
v -0.25 -0.7 0.45
v -0.25 -0.6 0.45
v -0.25 -0.5 0.45
v -0.25 0.1 0.45
v -0.15 0.1 0.45
v -0.15 0.2 0.45
v 0.15 0.1 0.45
v 0.15 0.2 0.45
v 0.25 -0.7 0.45
v 0.25 -0.6 0.45
v 0.25 -0.5 0.45
v 0.25 -0.4 0.45
v 0.25 0 0.45
v 0.25 0.1 0.45
v 0.35 -0.5 0.45
v 0.35 -0.4 0.45
v 0.35 -0.3 0.45
v 0.35 0 0.45
v 0.35 0.1 0.45
v -0.45 -0.5 0.35
v -0.45 0.1 0.35
v -0.35 -0.7 0.35
v -0.35 -0.6 0.35
v -0.35 -0.5 0.35
v -0.35 0.1 0.35
v -0.25 -0.7 0.35
v -0.25 -0.6 0.35
v -0.25 -0.5 0.35
v -0.25 0.1 0.35
v -0.25 0.3 0.35
v -0.15 0.1 0.35
v -0.15 0.2 0.35
v -0.05 0.4 0.35
v -0.05 0.6 0.35
v -0.05 0.7 0.35
v 0.05 0.4 0.35
v 0.05 0.6 0.35
v 0.05 0.7 0.35
v 0.15 0.1 0.35
v 0.15 0.2 0.35
v 0.15 0.3 0.35
v 0.25 -0.7 0.35
v 0.25 -0.6 0.35
v 0.25 -0.5 0.35
v 0.25 0.1 0.35
v 0.25 0.2 0.35
v 0.35 -0.7 0.35
v 0.35 -0.6 0.35
v 0.35 -0.5 0.35
v 0.35 -0.4 0.35
v 0.35 -0.3 0.35
v 0.35 0 0.35
v 0.35 0.1 0.35
v 0.45 -0.5 0.35
v 0.45 -0.4 0.35
v 0.45 -0.3 0.35
v 0.45 0 0.35
v 0.45 0.1 0.35
v -0.35 0.1 0.25
v -0.35 0.2 0.25
v -0.25 0.1 0.25
v -0.25 0.2 0.25
v 0.15 0.2 0.25
v 0.15 0.3 0.25
v 0.25 0.1 0.25
v 0.25 0.2 0.25
v 0.25 0.3 0.25
v 0.35 0.1 0.25
v 0.35 0.2 0.25
v 0.45 0.1 0.25
v 0.45 0.2 0.25
v -0.55 -0.5 -0.35
v -0.55 0.1 -0.35
v -0.45 -0.7 -0.35
v -0.45 -0.6 -0.35
v -0.45 -0.5 -0.35
v -0.45 0.1 -0.35
v -0.45 0.2 -0.35
v -0.35 -0.7 -0.35
v -0.35 -0.6 -0.35
v -0.35 -0.5 -0.35
v -0.35 0.1 -0.35
v -0.35 0.2 -0.35
v -0.35 0.3 -0.35
v -0.25 0.2 -0.35
v -0.25 0.3 -0.35
v -0.25 0.4 -0.35
v 0.25 0.2 -0.35
v 0.25 0.3 -0.35
v 0.25 0.4 -0.35
v 0.35 -0.7 -0.35
v 0.35 -0.6 -0.35
v 0.35 -0.5 -0.35
v 0.35 0.1 -0.35
v 0.35 0.2 -0.35
v 0.35 0.3 -0.35
v 0.45 -0.7 -0.35
v 0.45 -0.6 -0.35
v 0.45 -0.5 -0.35
v 0.45 -0.4 -0.35
v 0.45 0.1 -0.35
v 0.45 0.2 -0.35
v 0.55 -0.5 -0.35
v 0.55 -0.4 -0.35
v -0.45 -0.5 -0.45
v -0.45 0.1 -0.45
v -0.35 -0.7 -0.45
v -0.35 -0.6 -0.45
v -0.35 -0.5 -0.45
v -0.35 0.1 -0.45
v -0.35 0.2 -0.45
v -0.25 -0.7 -0.45
v -0.25 -0.6 -0.45
v -0.25 -0.5 -0.45
v -0.25 0.1 -0.45
v -0.25 0.2 -0.45
v -0.25 0.3 -0.45
v 0.25 -0.7 -0.45
v 0.25 -0.6 -0.45
v 0.25 -0.5 -0.45
v 0.25 0.1 -0.45
v 0.25 0.2 -0.45
v 0.25 0.3 -0.45
v 0.35 -0.7 -0.45
v 0.35 -0.6 -0.45
v 0.35 -0.5 -0.45
v 0.35 -0.4 -0.45
v 0.35 -0.3 -0.45
v 0.35 0 -0.45
v 0.35 0.1 -0.45
v 0.35 0.2 -0.45
v 0.45 -0.5 -0.45
v 0.45 -0.4 -0.45
v 0.45 -0.3 -0.45
v 0.45 0 -0.45
v 0.45 0.1 -0.45
v -0.35 -0.5 -0.55
v -0.35 0.1 -0.55
v -0.25 -0.7 -0.55
v -0.25 -0.6 -0.55
v -0.25 -0.5 -0.55
v -0.25 0.1 -0.55
v -0.25 0.2 -0.55
v 0.25 -0.7 -0.55
v 0.25 -0.6 -0.55
v 0.25 -0.5 -0.55
v 0.25 -0.4 -0.55
v 0.25 0 -0.55
v 0.25 0.1 -0.55
v 0.25 0.2 -0.55
v 0.35 -0.5 -0.55
v 0.35 -0.4 -0.55
v 0.35 0 -0.55
v 0.35 0.1 -0.55
v -0.25 -0.5 -0.65
v -0.25 0.1 -0.65
v 0.25 -0.5 -0.65
v 0.25 0.1 -0.65
v -0.25 -0.7 0.55
v 0.25 -0.7 0.55
v -0.35 -0.7 0.45
v -0.25 -0.7 0.45
v 0.25 -0.7 0.45
v 0.35 -0.7 0.45
v -0.45 -0.7 0.35
v -0.35 -0.7 0.35
v -0.25 -0.7 0.35
v 0.25 -0.7 0.35
v 0.35 -0.7 0.35
v 0.45 -0.7 0.35
v -0.45 -0.7 -0.35
v -0.35 -0.7 -0.35
v -0.25 -0.7 -0.35
v 0.25 -0.7 -0.35
v 0.35 -0.7 -0.35
v 0.45 -0.7 -0.35
v -0.35 -0.7 -0.45
v -0.25 -0.7 -0.45
v 0.25 -0.7 -0.45
v 0.35 -0.7 -0.45
v -0.25 -0.7 -0.55
v 0.25 -0.7 -0.55
v -0.25 -0.5 0.65
v 0.25 -0.5 0.65
v -0.35 -0.5 0.55
v -0.25 -0.5 0.55
v 0.25 -0.5 0.55
v 0.35 -0.5 0.55
v -0.45 -0.5 0.45
v -0.35 -0.5 0.45
v -0.25 -0.5 0.45
v 0.25 -0.5 0.45
v 0.35 -0.5 0.45
v 0.45 -0.5 0.45
v -0.55 -0.5 0.35
v -0.45 -0.5 0.35
v -0.35 -0.5 0.35
v 0.35 -0.5 0.35
v 0.45 -0.5 0.35
v 0.55 -0.5 0.35
v -0.55 -0.5 -0.35
v -0.45 -0.5 -0.35
v -0.35 -0.5 -0.35
v 0.35 -0.5 -0.35
v 0.45 -0.5 -0.35
v 0.55 -0.5 -0.35
v -0.45 -0.5 -0.45
v -0.35 -0.5 -0.45
v -0.25 -0.5 -0.45
v 0.25 -0.5 -0.45
v 0.35 -0.5 -0.45
v 0.45 -0.5 -0.45
v -0.35 -0.5 -0.55
v -0.25 -0.5 -0.55
v 0.25 -0.5 -0.55
v 0.35 -0.5 -0.55
v -0.25 -0.5 -0.65
v 0.25 -0.5 -0.65
v 0.35 0 0.45
v 0.45 0 0.45
v 0.35 0 0.35
v 0.45 0 0.35
v 0.35 0 -0.35
v 0.45 0 -0.35
v 0.35 0 -0.45
v 0.45 0 -0.45
v -0.25 0.1 0.55
v 0.25 0.1 0.55
v -0.35 0.1 0.45
v -0.25 0.1 0.45
v -0.15 0.1 0.45
v 0.15 0.1 0.45
v 0.25 0.1 0.45
v 0.35 0.1 0.45
v -0.45 0.1 0.35
v -0.35 0.1 0.35
v -0.25 0.1 0.35
v -0.15 0.1 0.35
v 0.15 0.1 0.35
v 0.25 0.1 0.35
v 0.35 0.1 0.35
v 0.45 0.1 0.35
v -0.35 0.1 0.25
v -0.25 0.1 0.25
v 0.25 0.1 0.25
v 0.35 0.1 0.25
v 0.45 0.1 0.25
v -0.35 0.1 -0.25
v -0.25 0.1 -0.25
v 0.25 0.1 -0.25
v 0.35 0.1 -0.25
v 0.45 0.1 -0.25
v -0.45 0.1 -0.35
v -0.35 0.1 -0.35
v -0.25 0.1 -0.35
v -0.15 0.1 -0.35
v 0.15 0.1 -0.35
v 0.25 0.1 -0.35
v 0.35 0.1 -0.35
v 0.45 0.1 -0.35
v -0.35 0.1 -0.45
v -0.25 0.1 -0.45
v -0.15 0.1 -0.45
v 0.15 0.1 -0.45
v 0.25 0.1 -0.45
v 0.35 0.1 -0.45
v -0.25 0.1 -0.55
v 0.25 0.1 -0.55
v -0.15 0.2 0.45
v 0.15 0.2 0.45
v -0.15 0.2 0.35
v 0.15 0.2 0.35
v 0.25 0.2 0.35
v -0.35 0.2 0.25
v -0.25 0.2 0.25
v 0.15 0.2 0.25
v 0.25 0.2 0.25
v 0.35 0.2 0.25
v -0.35 0.2 -0.25
v -0.25 0.2 -0.25
v 0.25 0.2 -0.25
v 0.35 0.2 -0.25
v -0.15 0.2 -0.35
v 0.15 0.2 -0.35
v -0.15 0.2 -0.45
v 0.15 0.2 -0.45
v -0.25 0.3 0.35
v 0.15 0.3 0.35
v -0.15 0.3 0.25
v 0.15 0.3 0.25
v 0.25 0.3 0.25
v -0.15 0.3 -0.25
v 0.15 0.3 -0.25
v 0.25 0.3 -0.25
v -0.25 0.3 -0.35
v 0.25 0.3 -0.35
v -0.25 -0.5 0.55
v 0.25 -0.5 0.55
v -0.35 -0.5 0.45
v -0.25 -0.5 0.45
v 0.25 -0.5 0.45
v 0.35 -0.5 0.45
v -0.45 -0.5 0.35
v -0.35 -0.5 0.35
v -0.25 -0.5 0.35
v 0.25 -0.5 0.35
v 0.35 -0.5 0.35
v 0.45 -0.5 0.35
v -0.45 -0.5 -0.35
v -0.35 -0.5 -0.35
v -0.25 -0.5 -0.35
v 0.25 -0.5 -0.35
v 0.35 -0.5 -0.35
v 0.45 -0.5 -0.35
v -0.35 -0.5 -0.45
v -0.25 -0.5 -0.45
v 0.25 -0.5 -0.45
v 0.35 -0.5 -0.45
v -0.25 -0.5 -0.55
v 0.25 -0.5 -0.55
v 0.45 -0.4 0.35
v 0.55 -0.4 0.35
v 0.45 -0.4 -0.35
v 0.55 -0.4 -0.35
v 0.35 -0.3 0.45
v 0.45 -0.3 0.45
v 0.35 -0.3 0.35
v 0.45 -0.3 0.35
v 0.35 -0.3 -0.35
v 0.45 -0.3 -0.35
v 0.35 -0.3 -0.45
v 0.45 -0.3 -0.45
v -0.25 0.1 0.65
v 0.25 0.1 0.65
v -0.35 0.1 0.55
v -0.25 0.1 0.55
v 0.25 0.1 0.55
v 0.35 0.1 0.55
v -0.45 0.1 0.45
v -0.35 0.1 0.45
v -0.25 0.1 0.45
v 0.25 0.1 0.45
v 0.35 0.1 0.45
v 0.45 0.1 0.45
v -0.55 0.1 0.35
v -0.45 0.1 0.35
v -0.35 0.1 0.35
v 0.35 0.1 0.35
v 0.45 0.1 0.35
v -0.55 0.1 -0.35
v -0.45 0.1 -0.35
v -0.35 0.1 -0.35
v 0.35 0.1 -0.35
v 0.45 0.1 -0.35
v -0.45 0.1 -0.45
v -0.35 0.1 -0.45
v -0.25 0.1 -0.45
v 0.25 0.1 -0.45
v 0.35 0.1 -0.45
v 0.45 0.1 -0.45
v -0.35 0.1 -0.55
v -0.25 0.1 -0.55
v 0.25 0.1 -0.55
v 0.35 0.1 -0.55
v -0.25 0.1 -0.65
v 0.25 0.1 -0.65
v -0.25 0.2 0.55
v 0.25 0.2 0.55
v -0.35 0.2 0.45
v -0.25 0.2 0.45
v 0.25 0.2 0.45
v 0.35 0.2 0.45
v -0.45 0.2 0.35
v -0.35 0.2 0.35
v -0.25 0.2 0.35
v 0.25 0.2 0.35
v 0.35 0.2 0.35
v 0.45 0.2 0.35
v 0.35 0.2 0.25
v 0.45 0.2 0.25
v 0.35 0.2 -0.25
v 0.45 0.2 -0.25
v -0.45 0.2 -0.35
v -0.35 0.2 -0.35
v -0.25 0.2 -0.35
v 0.25 0.2 -0.35
v 0.35 0.2 -0.35
v 0.45 0.2 -0.35
v -0.35 0.2 -0.45
v -0.25 0.2 -0.45
v 0.25 0.2 -0.45
v 0.35 0.2 -0.45
v -0.25 0.2 -0.55
v 0.25 0.2 -0.55
v -0.25 0.3 0.45
v -0.05 0.3 0.45
v 0.05 0.3 0.45
v 0.25 0.3 0.45
v -0.35 0.3 0.35
v -0.25 0.3 0.35
v -0.05 0.3 0.35
v 0.05 0.3 0.35
v 0.25 0.3 0.35
v 0.35 0.3 0.35
v 0.25 0.3 0.25
v 0.35 0.3 0.25
v 0.25 0.3 -0.25
v 0.35 0.3 -0.25
v -0.35 0.3 -0.35
v -0.25 0.3 -0.35
v 0.25 0.3 -0.35
v 0.35 0.3 -0.35
v -0.25 0.3 -0.45
v 0.25 0.3 -0.45
v -0.25 0.4 0.35
v -0.05 0.4 0.35
v 0.05 0.4 0.35
v 0.25 0.4 0.35
v -0.15 0.4 0.25
v 0.15 0.4 0.25
v -0.15 0.4 -0.25
v 0.15 0.4 -0.25
v -0.25 0.4 -0.35
v 0.25 0.4 -0.35
v -0.05 0.7 0.45
v 0.05 0.7 0.45
v -0.05 0.7 0.35
v 0.05 0.7 0.35

# faces
f 3/3/1 2/3/1 1/3/1
f 4/3/1 2/3/1 3/3/1
f 7/6/1 6/6/1 5/6/1
f 8/6/1 6/6/1 7/6/1
f 10/3/1 8/3/1 7/3/1
f 11/3/1 8/3/1 10/3/1
f 13/3/1 10/3/1 9/3/1
f 14/3/1 10/3/1 13/3/1
f 15/3/1 12/3/1 11/3/1
f 16/3/1 12/3/1 15/3/1
f 17/3/1 15/3/1 14/3/1
f 18/3/1 15/3/1 17/3/1
f 23/6/1 20/6/1 19/6/1
f 24/6/1 20/6/1 23/6/1
f 25/6/1 22/6/1 21/6/1
f 26/6/1 22/6/1 25/6/1
f 28/3/1 24/3/1 23/3/1
f 29/3/1 24/3/1 28/3/1
f 30/3/1 26/3/1 25/3/1
f 31/3/1 26/3/1 30/3/1
f 33/3/1 28/3/1 27/3/1
f 34/3/1 28/3/1 33/3/1
f 37/3/1 32/3/1 31/3/1
f 38/3/1 32/3/1 37/3/1
f 39/3/1 35/3/1 34/3/1
f 40/3/1 35/3/1 39/3/1
f 41/3/1 37/3/1 36/3/1
f 42/3/1 37/3/1 41/3/1
f 43/3/1 41/3/1 40/3/1
f 44/3/1 41/3/1 43/3/1
f 49/6/1 46/6/1 45/6/1
f 50/6/1 46/6/1 49/6/1
f 51/6/1 48/6/1 47/6/1
f 52/6/1 48/6/1 51/6/1
f 54/3/1 50/3/1 49/3/1
f 55/3/1 50/3/1 54/3/1
f 56/3/1 52/3/1 51/3/1
f 57/3/1 52/3/1 56/3/1
f 59/3/1 54/3/1 53/3/1
f 60/3/1 54/3/1 59/3/1
f 63/3/1 58/3/1 57/3/1
f 64/3/1 58/3/1 63/3/1
f 65/3/1 61/3/1 60/3/1
f 66/3/1 61/3/1 65/3/1
f 69/3/1 63/3/1 62/3/1
f 70/3/1 63/3/1 69/3/1
f 71/3/1 67/3/1 66/3/1
f 72/3/1 67/3/1 71/3/1
f 73/3/1 69/3/1 68/3/1
f 74/3/1 69/3/1 73/3/1
f 75/3/1 73/3/1 72/3/1
f 76/3/1 73/3/1 75/3/1
f 79/4/1 78/4/1 77/4/1
f 80/4/1 79/4/1 77/4/1
f 81/4/1 79/4/1 80/4/1
f 82/1/1 81/1/1 80/1/1
f 83/1/1 81/1/1 82/1/1
f 88/3/1 85/3/1 84/3/1
f 89/3/1 85/3/1 88/3/1
f 91/3/1 87/3/1 86/3/1
f 92/3/1 87/3/1 91/3/1
f 93/3/1 90/3/1 89/3/1
f 94/3/1 90/3/1 93/3/1
f 99/6/1 96/6/1 95/6/1
f 100/6/1 96/6/1 99/6/1
f 101/6/1 98/6/1 97/6/1
f 102/6/1 98/6/1 101/6/1
f 104/3/1 100/3/1 99/3/1
f 105/3/1 100/3/1 104/3/1
f 106/3/1 102/3/1 101/3/1
f 107/3/1 102/3/1 106/3/1
f 109/3/1 104/3/1 103/3/1
f 110/3/1 104/3/1 109/3/1
f 111/3/1 108/3/1 107/3/1
f 112/3/1 108/3/1 111/3/1
f 113/5/1 110/5/1 109/5/1
f 114/5/1 110/5/1 113/5/1
f 115/5/1 112/5/1 111/5/1
f 116/5/1 112/5/1 115/5/1
f 117/3/1 114/3/1 113/3/1
f 118/3/1 114/3/1 117/3/1
f 123/3/1 116/3/1 115/3/1
f 124/3/1 116/3/1 123/3/1
f 125/3/1 120/3/1 119/3/1
f 126/3/1 120/3/1 125/3/1
f 127/3/1 122/3/1 121/3/1
f 128/5/1 127/5/1 126/5/1
f 129/3/1 122/3/1 127/3/1
f 129/5/1 127/5/1 128/5/1
f 130/3/1 122/3/1 129/3/1
f 133/6/1 132/6/1 131/6/1
f 134/6/1 132/6/1 133/6/1
f 136/3/1 134/3/1 133/3/1
f 137/3/1 134/3/1 136/3/1
f 139/3/1 136/3/1 135/3/1
f 140/3/1 136/3/1 139/3/1
f 141/3/1 138/3/1 137/3/1
f 142/3/1 138/3/1 141/3/1
f 143/5/1 140/5/1 139/5/1
f 144/5/1 140/5/1 143/5/1
f 145/5/1 142/5/1 141/5/1
f 146/5/1 142/5/1 145/5/1
f 151/5/1 148/5/1 147/5/1
f 152/5/1 148/5/1 151/5/1
f 153/5/1 150/5/1 149/5/1
f 154/5/1 150/5/1 153/5/1
f 157/5/1 156/5/1 155/5/1
f 158/5/1 156/5/1 157/5/1
f 159/3/2 160/3/2 161/3/2
f 161/3/2 160/3/2 162/3/2
f 163/6/2 164/6/2 165/6/2
f 165/6/2 164/6/2 166/6/2
f 165/3/2 166/3/2 168/3/2
f 168/3/2 166/3/2 169/3/2
f 167/3/2 168/3/2 171/3/2
f 171/3/2 168/3/2 172/3/2
f 169/3/2 170/3/2 175/3/2
f 175/3/2 170/3/2 176/3/2
f 173/3/2 174/3/2 177/3/2
f 177/3/2 174/3/2 178/3/2
f 179/6/2 180/6/2 183/6/2
f 183/6/2 180/6/2 184/6/2
f 181/6/2 182/6/2 185/6/2
f 185/6/2 182/6/2 186/6/2
f 183/3/2 184/3/2 188/3/2
f 188/3/2 184/3/2 189/3/2
f 185/3/2 186/3/2 190/3/2
f 190/3/2 186/3/2 191/3/2
f 187/3/2 188/3/2 193/3/2
f 193/3/2 188/3/2 194/3/2
f 191/3/2 192/3/2 199/3/2
f 199/3/2 192/3/2 200/3/2
f 195/3/2 196/3/2 201/3/2
f 197/3/2 198/3/2 202/3/2
f 195/3/2 201/3/2 203/3/2
f 201/3/2 202/3/2 203/3/2
f 202/3/2 198/3/2 204/3/2
f 203/3/2 202/3/2 204/3/2
f 205/3/2 206/3/2 209/3/2
f 209/3/2 206/3/2 210/3/2
f 207/3/2 208/3/2 211/3/2
f 211/3/2 208/3/2 212/3/2
f 213/4/2 214/4/2 215/4/2
f 213/4/2 215/4/2 216/4/2
f 216/4/2 215/4/2 217/4/2
f 216/1/2 217/1/2 218/1/2
f 218/1/2 217/1/2 219/1/2
f 220/6/2 221/6/2 224/6/2
f 224/6/2 221/6/2 225/6/2
f 222/6/2 223/6/2 226/6/2
f 226/6/2 223/6/2 227/6/2
f 224/3/2 225/3/2 229/3/2
f 229/3/2 225/3/2 230/3/2
f 226/3/2 227/3/2 231/3/2
f 231/3/2 227/3/2 232/3/2
f 228/3/2 229/3/2 234/3/2
f 232/3/2 233/3/2 235/3/2
f 228/3/2 234/3/2 236/3/2
f 235/3/2 233/3/2 237/3/2
f 228/3/2 236/3/2 238/3/2
f 238/3/2 236/3/2 239/3/2
f 237/3/2 233/3/2 242/3/2
f 242/3/2 233/3/2 243/3/2
f 239/3/2 240/3/2 244/3/2
f 244/3/2 240/3/2 245/3/2
f 241/3/2 242/3/2 248/3/2
f 248/3/2 242/3/2 249/3/2
f 245/3/2 246/3/2 250/3/2
f 250/3/2 246/3/2 251/3/2
f 247/3/2 248/3/2 254/3/2
f 254/3/2 248/3/2 255/3/2
f 252/3/2 253/3/2 256/3/2
f 253/3/2 254/3/2 256/3/2
f 251/3/2 252/3/2 256/3/2
f 256/3/2 254/3/2 257/3/2
f 258/6/2 259/6/2 262/6/2
f 262/6/2 259/6/2 263/6/2
f 260/6/2 261/6/2 264/6/2
f 264/6/2 261/6/2 265/6/2
f 262/3/2 263/3/2 267/3/2
f 267/3/2 263/3/2 268/3/2
f 264/3/2 265/3/2 269/3/2
f 269/3/2 265/3/2 270/3/2
f 266/3/2 267/3/2 272/3/2
f 272/3/2 267/3/2 273/3/2
f 270/3/2 271/3/2 274/3/2
f 274/3/2 271/3/2 275/3/2
f 272/5/2 273/5/2 276/5/2
f 274/5/2 275/5/2 277/5/2
f 272/5/2 276/5/2 278/5/2
f 278/5/2 276/5/2 279/5/2
f 277/5/2 275/5/2 280/5/2
f 280/5/2 275/5/2 281/5/2
f 278/3/2 279/3/2 282/3/2
f 282/3/2 279/3/2 283/3/2
f 280/3/2 281/3/2 286/3/2
f 286/3/2 281/3/2 287/3/2
f 283/3/2 284/3/2 288/3/2
f 288/3/2 284/3/2 289/3/2
f 285/3/2 286/3/2 292/3/2
f 292/3/2 286/3/2 293/3/2
f 289/3/2 290/3/2 294/3/2
f 290/5/2 291/5/2 295/5/2
f 294/3/2 290/3/2 295/3/2
f 291/3/2 292/3/2 296/3/2
f 295/5/2 291/5/2 296/5/2
f 296/3/2 292/3/2 297/3/2
f 298/6/2 299/6/2 300/6/2
f 300/6/2 299/6/2 301/6/2
f 300/3/2 301/3/2 303/3/2
f 303/3/2 301/3/2 304/3/2
f 302/3/2 303/3/2 306/3/2
f 306/3/2 303/3/2 307/3/2
f 304/3/2 305/3/2 308/3/2
f 308/3/2 305/3/2 309/3/2
f 306/5/2 307/5/2 310/5/2
f 310/5/2 307/5/2 311/5/2
f 308/5/2 309/5/2 312/5/2
f 312/5/2 309/5/2 313/5/2
f 314/5/2 315/5/2 318/5/2
f 318/5/2 315/5/2 319/5/2
f 316/5/2 317/5/2 322/5/2
f 322/5/2 317/5/2 323/5/2
f 319/5/2 320/5/2 324/5/2
f 324/5/2 320/5/2 325/5/2
f 321/5/2 322/5/2 326/5/2
f 326/5/2 322/5/2 327/5/2
f 328/5/2 329/5/2 330/5/2
f 330/5/2 329/5/2 331/5/2
f 334/3/3 333/3/3 332/3/3
f 335/3/3 333/3/3 334/3/3
f 340/3/3 337/3/3 336/3/3
f 341/3/3 337/3/3 340/3/3
f 343/6/3 339/6/3 338/6/3
f 344/3/3 340/3/3 339/3/3
f 344/6/3 339/6/3 343/6/3
f 345/3/3 340/3/3 344/3/3
f 348/3/3 342/3/3 341/3/3
f 349/3/3 342/3/3 348/3/3
f 350/3/3 346/3/3 345/3/3
f 351/5/3 347/5/3 346/5/3
f 351/3/3 346/3/3 350/3/3
f 352/3/3 348/3/3 347/3/3
f 352/5/3 347/5/3 351/5/3
f 353/3/3 348/3/3 352/3/3
f 358/3/3 355/3/3 354/3/3
f 359/3/3 355/3/3 358/3/3
f 361/6/3 357/6/3 356/6/3
f 362/3/3 358/3/3 357/3/3
f 362/6/3 357/6/3 361/6/3
f 363/3/3 358/3/3 362/3/3
f 364/3/3 360/3/3 359/3/3
f 365/3/3 360/3/3 364/3/3
f 367/3/3 366/3/3 365/3/3
f 370/3/3 367/3/3 365/3/3
f 370/4/3 368/4/3 367/4/3
f 371/1/3 369/1/3 368/1/3
f 371/4/3 368/4/3 370/4/3
f 372/1/3 369/1/3 371/1/3
f 377/3/3 370/3/3 365/3/3
f 378/3/3 370/3/3 377/3/3
f 379/6/3 374/6/3 373/6/3
f 380/3/3 375/3/3 374/3/3
f 380/6/3 374/6/3 379/6/3
f 381/3/3 375/3/3 380/3/3
f 385/3/3 377/3/3 376/3/3
f 386/3/3 377/3/3 385/3/3
f 387/3/3 382/3/3 381/3/3
f 388/5/3 383/5/3 382/5/3
f 388/3/3 382/3/3 387/3/3
f 389/5/3 383/5/3 388/5/3
f 390/5/3 385/5/3 384/5/3
f 391/5/3 385/5/3 390/5/3
f 396/3/3 393/3/3 392/3/3
f 397/3/3 393/3/3 396/3/3
f 399/6/3 395/6/3 394/6/3
f 400/3/3 396/3/3 395/3/3
f 400/6/3 395/6/3 399/6/3
f 401/3/3 396/3/3 400/3/3
f 402/3/3 398/3/3 397/3/3
f 403/3/3 398/3/3 402/3/3
f 405/3/3 404/3/3 403/3/3
f 406/3/3 404/3/3 405/3/3
f 408/3/3 407/3/3 406/3/3
f 409/3/3 407/3/3 408/3/3
f 413/3/3 411/3/3 410/3/3
f 414/3/3 411/3/3 413/3/3
f 419/3/3 413/3/3 412/3/3
f 420/3/3 413/3/3 419/3/3
f 421/6/3 416/6/3 415/6/3
f 422/3/3 417/3/3 416/3/3
f 422/6/3 416/6/3 421/6/3
f 423/3/3 417/3/3 422/3/3
f 425/5/3 419/5/3 418/5/3
f 426/5/3 419/5/3 425/5/3
f 427/5/3 424/5/3 423/5/3
f 428/5/3 424/5/3 427/5/3
f 431/3/3 430/3/3 429/3/3
f 432/3/3 430/3/3 431/3/3
f 435/3/3 434/3/3 433/3/3
f 436/3/3 434/3/3 435/3/3
f 437/5/3 436/5/3 435/5/3
f 438/5/3 436/5/3 437/5/3
f 443/3/3 440/3/3 439/3/3
f 444/3/3 440/3/3 443/3/3
f 445/6/3 442/6/3 441/6/3
f 446/3/3 443/3/3 442/3/3
f 446/6/3 442/6/3 445/6/3
f 447/3/3 443/3/3 446/3/3
f 450/3/3 449/3/3 448/3/3
f 451/3/3 449/3/3 450/3/3
f 453/3/3 449/3/3 451/3/3
f 457/3/3 453/3/3 452/3/3
f 458/3/3 449/3/3 453/3/3
f 458/3/3 453/3/3 457/3/3
f 459/6/3 455/6/3 454/6/3
f 460/3/3 456/3/3 455/3/3
f 460/6/3 455/6/3 459/6/3
f 461/3/3 456/3/3 460/3/3
f 466/3/3 462/3/3 461/3/3
f 467/5/3 463/5/3 462/5/3
f 467/3/3 462/3/3 466/3/3
f 468/5/3 463/5/3 467/5/3
f 469/5/3 465/5/3 464/5/3
f 470/5/3 465/5/3 469/5/3
f 475/3/3 472/3/3 471/3/3
f 476/3/3 472/3/3 475/3/3
f 479/3/3 478/3/3 477/3/3
f 480/3/3 478/3/3 479/3/3
f 481/6/3 474/6/3 473/6/3
f 482/3/3 475/3/3 474/3/3
f 482/6/3 474/6/3 481/6/3
f 483/3/3 475/3/3 482/3/3
f 487/3/3 484/3/3 483/3/3
f 488/5/3 485/5/3 484/5/3
f 488/3/3 484/3/3 487/3/3
f 489/5/3 485/5/3 488/5/3
f 490/3/3 486/3/3 485/3/3
f 490/5/3 485/5/3 489/5/3
f 491/3/3 486/3/3 490/3/3
f 494/3/3 493/3/3 492/3/3
f 495/3/3 493/3/3 494/3/3
f 496/3/3 493/3/3 495/3/3
f 497/3/3 493/3/3 496/3/3
f 498/3/4 499/3/4 500/3/4
f 500/3/4 499/3/4 501/3/4
f 501/3/4 499/3/4 502/3/4
f 502/3/4 499/3/4 503/3/4
f 504/3/4 505/3/4 508/3/4
f 508/3/4 505/3/4 509/3/4
f 510/3/4 511/3/4 512/3/4
f 512/3/4 511/3/4 513/3/4
f 506/6/4 507/6/4 514/6/4
f 507/3/4 508/3/4 515/3/4
f 514/6/4 507/6/4 515/6/4
f 515/3/4 508/3/4 516/3/4
f 516/3/4 517/3/4 520/3/4
f 517/5/4 518/5/4 521/5/4
f 520/3/4 517/3/4 521/3/4
f 521/5/4 518/5/4 522/5/4
f 518/3/4 519/3/4 523/3/4
f 522/5/4 518/5/4 523/5/4
f 523/3/4 519/3/4 524/3/4
f 525/3/4 526/3/4 529/3/4
f 529/3/4 526/3/4 530/3/4
f 527/6/4 528/6/4 531/6/4
f 528/3/4 529/3/4 532/3/4
f 531/6/4 528/6/4 532/6/4
f 532/3/4 529/3/4 533/3/4
f 534/3/4 535/3/4 536/3/4
f 536/3/4 535/3/4 537/3/4
f 538/4/4 539/4/4 541/4/4
f 539/1/4 540/1/4 542/1/4
f 541/4/4 539/4/4 542/4/4
f 542/1/4 540/1/4 543/1/4
f 537/3/4 535/3/4 545/3/4
f 545/3/4 535/3/4 546/3/4
f 544/3/4 545/3/4 550/3/4
f 550/3/4 545/3/4 551/3/4
f 547/6/4 548/6/4 552/6/4
f 548/3/4 549/3/4 553/3/4
f 552/6/4 548/6/4 553/6/4
f 553/3/4 549/3/4 554/3/4
f 554/3/4 555/3/4 559/3/4
f 555/5/4 556/5/4 560/5/4
f 559/3/4 555/3/4 560/3/4
f 560/5/4 556/5/4 561/5/4
f 557/5/4 558/5/4 562/5/4
f 562/5/4 558/5/4 563/5/4
f 564/3/4 565/3/4 566/3/4
f 566/3/4 565/3/4 567/3/4
f 568/3/4 569/3/4 571/3/4
f 571/3/4 569/3/4 572/3/4
f 570/3/4 571/3/4 573/3/4
f 573/3/4 571/3/4 574/3/4
f 573/5/4 574/5/4 575/5/4
f 575/5/4 574/5/4 576/5/4
f 577/3/4 578/3/4 581/3/4
f 581/3/4 578/3/4 582/3/4
f 579/6/4 580/6/4 584/6/4
f 580/3/4 581/3/4 585/3/4
f 584/6/4 580/6/4 585/6/4
f 585/3/4 581/3/4 586/3/4
f 582/3/4 583/3/4 587/3/4
f 587/3/4 583/3/4 588/3/4
f 588/3/4 589/3/4 590/3/4
f 590/3/4 589/3/4 591/3/4
f 591/3/4 592/3/4 594/3/4
f 594/3/4 592/3/4 595/3/4
f 593/3/4 594/3/4 600/3/4
f 600/3/4 594/3/4 601/3/4
f 596/6/4 597/6/4 602/6/4
f 597/3/4 598/3/4 603/3/4
f 602/6/4 597/6/4 603/6/4
f 603/3/4 598/3/4 604/3/4
f 599/5/4 600/5/4 606/5/4
f 606/5/4 600/5/4 607/5/4
f 604/5/4 605/5/4 608/5/4
f 608/5/4 605/5/4 609/5/4
f 610/3/4 611/3/4 614/3/4
f 614/3/4 611/3/4 615/3/4
f 612/6/4 613/6/4 617/6/4
f 613/3/4 614/3/4 618/3/4
f 617/6/4 613/6/4 618/6/4
f 618/3/4 614/3/4 619/3/4
f 615/3/4 616/3/4 620/3/4
f 620/3/4 616/3/4 621/3/4
f 621/3/4 622/3/4 627/3/4
f 627/3/4 622/3/4 628/3/4
f 623/6/4 624/6/4 629/6/4
f 624/3/4 625/3/4 630/3/4
f 629/6/4 624/6/4 630/6/4
f 630/3/4 625/3/4 631/3/4
f 626/3/4 627/3/4 635/3/4
f 635/3/4 627/3/4 636/3/4
f 631/3/4 632/3/4 637/3/4
f 632/5/4 633/5/4 638/5/4
f 637/3/4 632/3/4 638/3/4
f 638/5/4 633/5/4 639/5/4
f 634/5/4 635/5/4 640/5/4
f 640/5/4 635/5/4 641/5/4
f 642/3/4 643/3/4 646/3/4
f 646/3/4 643/3/4 647/3/4
f 644/6/4 645/6/4 649/6/4
f 645/3/4 646/3/4 650/3/4
f 649/6/4 645/6/4 650/6/4
f 650/3/4 646/3/4 651/3/4
f 647/3/4 648/3/4 654/3/4
f 654/3/4 648/3/4 655/3/4
f 651/3/4 652/3/4 656/3/4
f 652/5/4 653/5/4 657/5/4
f 656/3/4 652/3/4 657/3/4
f 653/3/4 654/3/4 658/3/4
f 657/5/4 653/5/4 658/5/4
f 658/3/4 654/3/4 659/3/4
f 660/3/4 661/3/4 662/3/4
f 662/3/4 661/3/4 663/3/4
f 667/6/5 665/6/5 664/6/5
f 668/6/5 665/6/5 667/6/5
f 671/6/5 667/6/5 666/6/5
f 672/6/5 667/6/5 671/6/5
f 673/6/5 669/6/5 668/6/5
f 674/6/5 669/6/5 673/6/5
f 676/6/5 671/6/5 670/6/5
f 677/6/5 671/6/5 676/6/5
f 680/6/5 675/6/5 674/6/5
f 681/6/5 675/6/5 680/6/5
f 682/6/5 678/6/5 677/6/5
f 683/6/5 678/6/5 682/6/5
f 684/6/5 680/6/5 679/6/5
f 685/6/5 680/6/5 684/6/5
f 686/6/5 684/6/5 683/6/5
f 687/6/5 684/6/5 686/6/5
f 691/3/5 689/3/5 688/3/5
f 692/3/5 689/3/5 691/3/5
f 695/3/5 691/3/5 690/3/5
f 696/3/5 691/3/5 695/3/5
f 697/3/5 693/3/5 692/3/5
f 698/3/5 693/3/5 697/3/5
f 701/3/5 695/3/5 694/3/5
f 702/3/5 695/3/5 701/3/5
f 703/3/5 699/3/5 698/3/5
f 704/3/5 699/3/5 703/3/5
f 706/3/5 701/3/5 700/3/5
f 707/3/5 701/3/5 706/3/5
f 710/5/5 705/5/5 704/5/5
f 711/5/5 705/5/5 710/5/5
f 712/3/5 708/3/5 707/3/5
f 713/3/5 708/3/5 712/3/5
f 716/3/5 710/3/5 709/3/5
f 717/3/5 710/3/5 716/3/5
f 718/3/5 714/3/5 713/3/5
f 719/3/5 714/3/5 718/3/5
f 720/3/5 716/3/5 715/3/5
f 721/3/5 716/3/5 720/3/5
f 722/3/5 720/3/5 719/3/5
f 723/3/5 720/3/5 722/3/5
f 726/5/5 725/5/5 724/5/5
f 727/5/5 725/5/5 726/5/5
f 730/5/5 729/5/5 728/5/5
f 731/5/5 729/5/5 730/5/5
f 735/3/5 733/3/5 732/3/5
f 736/3/5 733/3/5 735/3/5
f 737/3/5 733/3/5 736/3/5
f 738/3/5 733/3/5 737/3/5
f 741/3/5 735/3/5 734/3/5
f 741/3/5 736/3/5 735/3/5
f 742/3/5 736/3/5 741/3/5
f 743/3/5 736/3/5 742/3/5
f 744/3/5 738/3/5 737/3/5
f 744/3/5 739/3/5 738/3/5
f 745/3/5 739/3/5 744/3/5
f 746/3/5 739/3/5 745/3/5
f 748/3/5 742/3/5 741/3/5
f 748/3/5 741/3/5 740/3/5
f 749/3/5 742/3/5 748/3/5
f 750/3/5 746/3/5 745/3/5
f 751/5/5 747/5/5 746/5/5
f 751/3/5 746/3/5 750/3/5
f 752/5/5 747/5/5 751/5/5
f 753/3/5 748/3/5 740/3/5
f 758/3/5 753/3/5 740/3/5
f 758/3/5 754/3/5 753/3/5
f 759/3/5 754/3/5 758/3/5
f 760/3/5 754/3/5 759/3/5
f 763/3/5 756/3/5 755/3/5
f 764/5/5 757/5/5 756/5/5
f 764/3/5 756/3/5 763/3/5
f 765/5/5 757/5/5 764/5/5
f 766/3/5 761/3/5 760/3/5
f 766/3/5 760/3/5 759/3/5
f 767/3/5 761/3/5 766/3/5
f 768/3/5 761/3/5 767/3/5
f 769/3/5 763/3/5 762/3/5
f 769/3/5 764/3/5 763/3/5
f 770/3/5 764/3/5 769/3/5
f 771/3/5 764/3/5 770/3/5
f 772/3/5 768/3/5 767/3/5
f 772/3/5 770/3/5 769/3/5
f 772/3/5 769/3/5 768/3/5
f 773/3/5 770/3/5 772/3/5
f 776/3/5 775/3/5 774/3/5
f 777/3/5 775/3/5 776/3/5
f 781/3/5 778/3/5 777/3/5
f 782/3/5 778/3/5 781/3/5
f 784/3/5 780/3/5 779/3/5
f 785/3/5 780/3/5 784/3/5
f 786/5/5 783/5/5 782/5/5
f 787/5/5 783/5/5 786/5/5
f 790/3/5 789/3/5 788/3/5
f 791/3/5 789/3/5 790/3/5
f 794/3/5 793/3/5 792/3/5
f 795/3/5 793/3/5 794/3/5
f 797/3/5 794/3/5 792/3/5
f 797/2/5 795/2/5 794/2/5
f 798/3/5 796/3/5 795/3/5
f 798/2/5 795/2/5 797/2/5
f 799/3/5 796/3/5 798/3/5
f 800/3/5 797/3/5 792/3/5
f 800/3/5 798/3/5 797/3/5
f 800/3/5 799/3/5 798/3/5
f 801/3/5 799/3/5 800/3/5
f 802/3/6 803/3/6 805/3/6
f 805/3/6 803/3/6 806/3/6
f 804/3/6 805/3/6 809/3/6
f 809/3/6 805/3/6 810/3/6
f 806/3/6 807/3/6 811/3/6
f 811/3/6 807/3/6 812/3/6
f 808/3/6 809/3/6 814/3/6
f 814/3/6 809/3/6 815/3/6
f 812/3/6 813/3/6 818/3/6
f 818/3/6 813/3/6 819/3/6
f 815/3/6 816/3/6 820/3/6
f 820/3/6 816/3/6 821/3/6
f 817/3/6 818/3/6 822/3/6
f 822/3/6 818/3/6 823/3/6
f 821/3/6 822/3/6 824/3/6
f 824/3/6 822/3/6 825/3/6
f 826/5/6 827/5/6 828/5/6
f 828/5/6 827/5/6 829/5/6
f 830/5/6 831/5/6 832/5/6
f 832/5/6 831/5/6 833/5/6
f 834/5/6 835/5/6 836/5/6
f 836/5/6 835/5/6 837/5/6
f 838/3/6 839/3/6 841/3/6
f 841/3/6 839/3/6 842/3/6
f 840/3/6 841/3/6 845/3/6
f 845/3/6 841/3/6 846/3/6
f 842/3/6 843/3/6 847/3/6
f 847/3/6 843/3/6 848/3/6
f 844/3/6 845/3/6 851/3/6
f 851/3/6 845/3/6 852/3/6
f 848/5/6 849/5/6 853/5/6
f 853/5/6 849/5/6 854/5/6
f 850/3/6 851/3/6 855/3/6
f 855/3/6 851/3/6 856/3/6
f 856/3/6 857/3/6 860/3/6
f 860/3/6 857/3/6 861/3/6
f 858/5/6 859/5/6 864/5/6
f 864/5/6 859/5/6 865/5/6
f 861/3/6 862/3/6 866/3/6
f 866/3/6 862/3/6 867/3/6
f 863/3/6 864/3/6 868/3/6
f 868/3/6 864/3/6 869/3/6
f 867/3/6 868/3/6 870/3/6
f 870/3/6 868/3/6 871/3/6
f 872/3/6 873/3/6 875/3/6
f 875/3/6 873/3/6 876/3/6
f 874/3/6 875/3/6 879/3/6
f 879/3/6 875/3/6 880/3/6
f 876/3/6 877/3/6 881/3/6
f 881/3/6 877/3/6 882/3/6
f 882/5/6 883/5/6 884/5/6
f 884/5/6 883/5/6 885/5/6
f 878/3/6 879/3/6 888/3/6
f 888/3/6 879/3/6 889/3/6
f 886/5/6 887/5/6 892/5/6
f 892/5/6 887/5/6 893/5/6
f 889/3/6 890/3/6 894/3/6
f 894/3/6 890/3/6 895/3/6
f 891/3/6 892/3/6 896/3/6
f 896/3/6 892/3/6 897/3/6
f 895/3/6 896/3/6 898/3/6
f 898/3/6 896/3/6 899/3/6
f 900/3/6 901/3/6 905/3/6
f 905/3/6 901/3/6 906/3/6
f 902/3/6 903/3/6 907/3/6
f 907/3/6 903/3/6 908/3/6
f 908/3/6 909/3/6 910/3/6
f 910/3/6 909/3/6 911/3/6
f 910/5/6 911/5/6 912/5/6
f 912/5/6 911/5/6 913/5/6
f 904/3/6 905/3/6 914/3/6
f 914/3/6 905/3/6 915/3/6
f 912/3/6 913/3/6 916/3/6
f 916/3/6 913/3/6 917/3/6
f 915/3/6 916/3/6 918/3/6
f 918/3/6 916/3/6 919/3/6
f 920/3/6 921/3/6 924/3/6
f 922/3/6 923/3/6 924/3/6
f 921/3/6 922/3/6 924/3/6
f 924/3/6 923/3/6 925/3/6
f 920/3/6 924/3/6 926/3/6
f 924/2/6 925/2/6 926/2/6
f 925/3/6 923/3/6 927/3/6
f 926/2/6 925/2/6 927/2/6
f 920/3/6 926/3/6 928/3/6
f 926/3/6 927/3/6 928/3/6
f 927/3/6 923/3/6 929/3/6
f 928/3/6 927/3/6 929/3/6
f 930/1/6 931/1/6 932/1/6
f 932/1/6 931/1/6 933/1/6
