# MagicaVoxel @ Ephtracy

# group
o 

# material
mtllib spaceship_inside-8.mtl
usemtl palette

# normals
vn -1 0 0
vn 1 0 0
vn 0 0 1
vn 0 0 -1
vn 0 -1 0
vn 0 1 0

# texcoords
vt 0.978516 0.5
vt 0.986328 0.5
vt 0.990234 0.5

# verts
v -0.55 -1.9 0.1
v -0.55 -1.9 -0.1
v -0.55 -1.8 0.2
v -0.55 -1.8 0.1
v -0.55 -1.8 -0.1
v -0.55 -1.8 -0.2
v -0.55 -1.6 0.2
v -0.55 -1.6 0.1
v -0.55 -1.6 -0.1
v -0.55 -1.6 -0.2
v -0.55 -1.5 0.1
v -0.55 -1.5 -0.1
v 0.05 -1.6 0.2
v 0.05 -1.6 0.1
v 0.05 -1.6 -0.1
v 0.05 -1.6 -0.2
v 0.05 -1.5 0.2
v 0.05 -1.5 0.1
v 0.05 -1.5 -0.1
v 0.05 -1.5 -0.2
v 0.05 -1.4 0.1
v 0.05 -1.4 -0.1
v 0.15 -1.5 0.2
v 0.15 -1.5 0.1
v 0.15 -1.5 -0.1
v 0.15 -1.5 -0.2
v 0.15 -1.4 0.2
v 0.15 -1.4 0.1
v 0.15 -1.4 -0.1
v 0.15 -1.4 -0.2
v 0.15 -1.3 0.1
v 0.15 -1.3 -0.1
v 0.15 -1.2 0.1
v 0.15 -1.2 -0.1
v 0.15 -1.1 0.1
v 0.15 -1.1 -0.1
v 0.15 -1 0.1
v 0.15 -1 -0.1
v 0.15 -0.9 0.1
v 0.15 -0.9 -0.1
v 0.15 -0.8 0.1
v 0.15 -0.8 -0.1
v 0.15 -0.7 0.1
v 0.15 -0.7 -0.1
v 0.15 -0.6 0.1
v 0.15 -0.6 -0.1
v 0.15 -0.5 0.1
v 0.15 -0.5 -0.1
v 0.15 -0.4 0.1
v 0.15 -0.4 -0.1
v 0.15 -0.3 0.1
v 0.15 -0.3 -0.1
v 0.15 -0.2 0.1
v 0.15 -0.2 -0.1
v 0.15 -0.1 0.1
v 0.15 -0.1 -0.1
v 0.15 0 0.1
v 0.15 0 -0.1
v 0.15 0.1 0.1
v 0.15 0.1 -0.1
v 0.15 0.2 0.1
v 0.15 0.2 -0.1
v 0.15 0.3 0.1
v 0.15 0.3 -0.1
v 0.15 0.4 0.1
v 0.15 0.4 -0.1
v 0.15 0.5 0.1
v 0.15 0.5 -0.1
v 0.15 0.6 0.1
v 0.15 0.6 -0.1
v 0.15 0.7 0.1
v 0.15 0.7 -0.1
v 0.15 0.8 0.1
v 0.15 0.8 -0.1
v 0.15 0.9 0.1
v 0.15 0.9 -0.1
v 0.15 1 0.1
v 0.15 1 -0.1
v 0.15 1.1 0.1
v 0.15 1.1 -0.1
v 0.15 1.2 0.1
v 0.15 1.2 -0.1
v 0.15 1.3 0.1
v 0.15 1.3 -0.1
v 0.15 1.4 0.1
v 0.15 1.4 -0.1
v 0.15 1.5 0.1
v 0.15 1.5 -0.1
v 0.15 1.6 0.1
v 0.15 1.6 -0.1
v 0.15 1.7 0.1
v 0.15 1.7 -0.1
v 0.15 1.8 0.1
v 0.15 1.8 -0.1
v 0.15 1.9 0.1
v 0.15 1.9 -0.1
v 0.25 -1.4 0.2
v 0.25 -1.4 0.1
v 0.25 -1.4 -0.1
v 0.25 -1.4 -0.2
v 0.25 -1.3 0.2
v 0.25 -1.3 0.1
v 0.25 -1.3 -0.1
v 0.25 -1.3 -0.2
v 0.25 -1.2 0.2
v 0.25 -1.2 0.1
v 0.25 -1.2 -0.1
v 0.25 -1.2 -0.2
v 0.25 -1.1 0.2
v 0.25 -1.1 0.1
v 0.25 -1.1 -0.1
v 0.25 -1.1 -0.2
v 0.25 -1 0.2
v 0.25 -1 0.1
v 0.25 -1 -0.1
v 0.25 -1 -0.2
v 0.25 -0.9 0.2
v 0.25 -0.9 0.1
v 0.25 -0.9 -0.1
v 0.25 -0.9 -0.2
v 0.25 -0.8 0.2
v 0.25 -0.8 0.1
v 0.25 -0.8 -0.1
v 0.25 -0.8 -0.2
v 0.25 -0.7 0.2
v 0.25 -0.7 0.1
v 0.25 -0.7 -0.1
v 0.25 -0.7 -0.2
v 0.25 -0.6 0.2
v 0.25 -0.6 0.1
v 0.25 -0.6 -0.1
v 0.25 -0.6 -0.2
v 0.25 -0.5 0.2
v 0.25 -0.5 0.1
v 0.25 -0.5 -0.1
v 0.25 -0.5 -0.2
v 0.25 -0.4 0.2
v 0.25 -0.4 0.1
v 0.25 -0.4 -0.1
v 0.25 -0.4 -0.2
v 0.25 -0.3 0.2
v 0.25 -0.3 0.1
v 0.25 -0.3 -0.1
v 0.25 -0.3 -0.2
v 0.25 -0.2 0.2
v 0.25 -0.2 0.1
v 0.25 -0.2 -0.1
v 0.25 -0.2 -0.2
v 0.25 -0.1 0.2
v 0.25 -0.1 0.1
v 0.25 -0.1 -0.1
v 0.25 -0.1 -0.2
v 0.25 0 0.2
v 0.25 0 0.1
v 0.25 0 -0.1
v 0.25 0 -0.2
v 0.25 0.1 0.2
v 0.25 0.1 0.1
v 0.25 0.1 -0.1
v 0.25 0.1 -0.2
v 0.25 0.2 0.2
v 0.25 0.2 0.1
v 0.25 0.2 -0.1
v 0.25 0.2 -0.2
v 0.25 0.3 0.2
v 0.25 0.3 0.1
v 0.25 0.3 -0.1
v 0.25 0.3 -0.2
v 0.25 0.4 0.2
v 0.25 0.4 0.1
v 0.25 0.4 -0.1
v 0.25 0.4 -0.2
v 0.25 0.5 0.2
v 0.25 0.5 0.1
v 0.25 0.5 -0.1
v 0.25 0.5 -0.2
v 0.25 0.6 0.2
v 0.25 0.6 0.1
v 0.25 0.6 -0.1
v 0.25 0.6 -0.2
v 0.25 0.7 0.2
v 0.25 0.7 0.1
v 0.25 0.7 -0.1
v 0.25 0.7 -0.2
v 0.25 0.8 0.2
v 0.25 0.8 0.1
v 0.25 0.8 -0.1
v 0.25 0.8 -0.2
v 0.25 0.9 0.2
v 0.25 0.9 0.1
v 0.25 0.9 -0.1
v 0.25 0.9 -0.2
v 0.25 1 0.2
v 0.25 1 0.1
v 0.25 1 -0.1
v 0.25 1 -0.2
v 0.25 1.1 0.2
v 0.25 1.1 0.1
v 0.25 1.1 -0.1
v 0.25 1.1 -0.2
v 0.25 1.2 0.2
v 0.25 1.2 0.1
v 0.25 1.2 -0.1
v 0.25 1.2 -0.2
v 0.25 1.3 0.2
v 0.25 1.3 0.1
v 0.25 1.3 -0.1
v 0.25 1.3 -0.2
v 0.25 1.4 0.2
v 0.25 1.4 0.1
v 0.25 1.4 -0.1
v 0.25 1.4 -0.2
v 0.25 1.5 0.2
v 0.25 1.5 0.1
v 0.25 1.5 -0.1
v 0.25 1.5 -0.2
v 0.25 1.6 0.2
v 0.25 1.6 0.1
v 0.25 1.6 -0.1
v 0.25 1.6 -0.2
v 0.25 1.7 0.2
v 0.25 1.7 0.1
v 0.25 1.7 -0.1
v 0.25 1.7 -0.2
v 0.25 1.8 0.2
v 0.25 1.8 0.1
v 0.25 1.8 -0.1
v 0.25 1.8 -0.2
v 0.25 1.9 0.2
v 0.25 1.9 0.1
v 0.25 1.9 -0.1
v 0.25 1.9 -0.2
v 0.35 -1.9 0.1
v 0.35 -1.9 -0.1
v 0.35 -1.8 0.2
v 0.35 -1.8 0.1
v 0.35 -1.8 -0.1
v 0.35 -1.8 -0.2
v 0.35 -1.7 0.2
v 0.35 -1.7 0.1
v 0.35 -1.7 -0.1
v 0.35 -1.7 -0.2
v 0.45 -1.8 0.1
v 0.45 -1.8 -0.1
v 0.45 -1.7 0.2
v 0.45 -1.7 0.1
v 0.45 -1.7 -0.1
v 0.45 -1.7 -0.2
v 0.45 -1.6 0.2
v 0.45 -1.6 0.1
v 0.45 -1.6 -0.1
v 0.45 -1.6 -0.2
v 0.45 -1.5 0.2
v 0.45 -1.5 0.1
v 0.45 -1.5 -0.1
v 0.45 -1.5 -0.2
v 0.45 -1.4 0.2
v 0.45 -1.4 0.1
v 0.45 -1.4 -0.1
v 0.45 -1.4 -0.2
v 0.45 -1.3 0.2
v 0.45 -1.3 0.1
v 0.45 -1.3 -0.1
v 0.45 -1.3 -0.2
v 0.45 -1.2 0.2
v 0.45 -1.2 0.1
v 0.45 -1.2 -0.1
v 0.45 -1.2 -0.2
v 0.45 -1.1 0.2
v 0.45 -1.1 0.1
v 0.45 -1.1 -0.1
v 0.45 -1.1 -0.2
v 0.45 -1 0.2
v 0.45 -1 0.1
v 0.45 -1 -0.1
v 0.45 -1 -0.2
v 0.45 -0.9 0.2
v 0.45 -0.9 0.1
v 0.45 -0.9 -0.1
v 0.45 -0.9 -0.2
v 0.45 -0.8 0.2
v 0.45 -0.8 0.1
v 0.45 -0.8 -0.1
v 0.45 -0.8 -0.2
v 0.45 -0.7 0.2
v 0.45 -0.7 0.1
v 0.45 -0.7 -0.1
v 0.45 -0.7 -0.2
v 0.45 -0.6 0.2
v 0.45 -0.6 0.1
v 0.45 -0.6 -0.1
v 0.45 -0.6 -0.2
v 0.45 -0.5 0.2
v 0.45 -0.5 0.1
v 0.45 -0.5 -0.1
v 0.45 -0.5 -0.2
v 0.45 -0.4 0.2
v 0.45 -0.4 0.1
v 0.45 -0.4 -0.1
v 0.45 -0.4 -0.2
v 0.45 -0.3 0.2
v 0.45 -0.3 0.1
v 0.45 -0.3 -0.1
v 0.45 -0.3 -0.2
v 0.45 -0.2 0.2
v 0.45 -0.2 0.1
v 0.45 -0.2 -0.1
v 0.45 -0.2 -0.2
v 0.45 -0.1 0.2
v 0.45 -0.1 0.1
v 0.45 -0.1 -0.1
v 0.45 -0.1 -0.2
v 0.45 0 0.2
v 0.45 0 0.1
v 0.45 0 -0.1
v 0.45 0 -0.2
v 0.45 0.1 0.2
v 0.45 0.1 0.1
v 0.45 0.1 -0.1
v 0.45 0.1 -0.2
v 0.45 0.2 0.2
v 0.45 0.2 0.1
v 0.45 0.2 -0.1
v 0.45 0.2 -0.2
v 0.45 0.3 0.2
v 0.45 0.3 0.1
v 0.45 0.3 -0.1
v 0.45 0.3 -0.2
v 0.45 0.4 0.2
v 0.45 0.4 0.1
v 0.45 0.4 -0.1
v 0.45 0.4 -0.2
v 0.45 0.5 0.2
v 0.45 0.5 0.1
v 0.45 0.5 -0.1
v 0.45 0.5 -0.2
v 0.45 0.6 0.2
v 0.45 0.6 0.1
v 0.45 0.6 -0.1
v 0.45 0.6 -0.2
v 0.45 0.7 0.2
v 0.45 0.7 0.1
v 0.45 0.7 -0.1
v 0.45 0.7 -0.2
v 0.45 0.8 0.2
v 0.45 0.8 0.1
v 0.45 0.8 -0.1
v 0.45 0.8 -0.2
v 0.45 0.9 0.2
v 0.45 0.9 0.1
v 0.45 0.9 -0.1
v 0.45 0.9 -0.2
v 0.45 1 0.2
v 0.45 1 0.1
v 0.45 1 -0.1
v 0.45 1 -0.2
v 0.45 1.1 0.2
v 0.45 1.1 0.1
v 0.45 1.1 -0.1
v 0.45 1.1 -0.2
v 0.45 1.2 0.2
v 0.45 1.2 0.1
v 0.45 1.2 -0.1
v 0.45 1.2 -0.2
v 0.45 1.3 0.2
v 0.45 1.3 0.1
v 0.45 1.3 -0.1
v 0.45 1.3 -0.2
v 0.45 1.4 0.2
v 0.45 1.4 0.1
v 0.45 1.4 -0.1
v 0.45 1.4 -0.2
v 0.45 1.5 0.2
v 0.45 1.5 0.1
v 0.45 1.5 -0.1
v 0.45 1.5 -0.2
v 0.45 1.6 0.2
v 0.45 1.6 0.1
v 0.45 1.6 -0.1
v 0.45 1.6 -0.2
v 0.45 1.7 0.2
v 0.45 1.7 0.1
v 0.45 1.7 -0.1
v 0.45 1.7 -0.2
v 0.45 1.8 0.2
v 0.45 1.8 0.1
v 0.45 1.8 -0.1
v 0.45 1.8 -0.2
v 0.45 1.9 0.2
v 0.45 1.9 0.1
v 0.45 1.9 -0.1
v 0.45 1.9 -0.2
v 0.55 -1.7 0.1
v 0.55 -1.7 -0.1
v 0.55 -1.6 0.1
v 0.55 -1.6 -0.1
v 0.55 -1.5 0.1
v 0.55 -1.5 -0.1
v 0.55 -1.4 0.1
v 0.55 -1.4 -0.1
v 0.55 -1.3 0.1
v 0.55 -1.3 -0.1
v 0.55 -1.2 0.1
v 0.55 -1.2 -0.1
v 0.55 -1.1 0.1
v 0.55 -1.1 -0.1
v 0.55 -1 0.1
v 0.55 -1 -0.1
v 0.55 -0.9 0.1
v 0.55 -0.9 -0.1
v 0.55 -0.8 0.1
v 0.55 -0.8 -0.1
v 0.55 -0.7 0.1
v 0.55 -0.7 -0.1
v 0.55 -0.6 0.1
v 0.55 -0.6 -0.1
v 0.55 -0.5 0.1
v 0.55 -0.5 -0.1
v 0.55 -0.4 0.1
v 0.55 -0.4 -0.1
v 0.55 -0.3 0.1
v 0.55 -0.3 -0.1
v 0.55 -0.2 0.1
v 0.55 -0.2 -0.1
v 0.55 -0.1 0.1
v 0.55 -0.1 -0.1
v 0.55 0 0.1
v 0.55 0 -0.1
v 0.55 0.1 0.1
v 0.55 0.1 -0.1
v 0.55 0.2 0.1
v 0.55 0.2 -0.1
v 0.55 0.3 0.1
v 0.55 0.3 -0.1
v 0.55 0.4 0.1
v 0.55 0.4 -0.1
v 0.55 0.5 0.1
v 0.55 0.5 -0.1
v 0.55 0.6 0.1
v 0.55 0.6 -0.1
v 0.55 0.7 0.1
v 0.55 0.7 -0.1
v 0.55 0.8 0.1
v 0.55 0.8 -0.1
v 0.55 0.9 0.1
v 0.55 0.9 -0.1
v 0.55 1 0.1
v 0.55 1 -0.1
v 0.55 1.1 0.1
v 0.55 1.1 -0.1
v 0.55 1.2 0.1
v 0.55 1.2 -0.1
v 0.55 1.3 0.1
v 0.55 1.3 -0.1
v 0.55 1.4 0.1
v 0.55 1.4 -0.1
v 0.55 1.5 0.1
v 0.55 1.5 -0.1
v 0.55 1.6 0.1
v 0.55 1.6 -0.1
v 0.55 1.7 0.1
v 0.55 1.7 -0.1
v 0.55 1.8 0.1
v 0.55 1.8 -0.1
v 0.55 1.9 0.1
v 0.55 1.9 -0.1
v -0.55 -1.8 0.2
v -0.55 -1.6 0.2
v -0.45 -1.8 0.2
v -0.45 -1.6 0.2
v -0.35 -1.8 0.2
v -0.35 -1.6 0.2
v -0.25 -1.8 0.2
v -0.25 -1.6 0.2
v -0.15 -1.8 0.2
v -0.15 -1.6 0.2
v -0.05 -1.8 0.2
v -0.05 -1.6 0.2
v 0.05 -1.8 0.2
v 0.05 -1.6 0.2
v 0.05 -1.5 0.2
v 0.15 -1.8 0.2
v 0.15 -1.5 0.2
v 0.15 -1.4 0.2
v 0.25 -1.8 0.2
v 0.25 -1.5 0.2
v 0.25 -1.4 0.2
v 0.25 -1.3 0.2
v 0.25 -1.2 0.2
v 0.25 -1.1 0.2
v 0.25 -1 0.2
v 0.25 -0.9 0.2
v 0.25 -0.8 0.2
v 0.25 -0.7 0.2
v 0.25 -0.6 0.2
v 0.25 -0.5 0.2
v 0.25 -0.4 0.2
v 0.25 -0.3 0.2
v 0.25 -0.2 0.2
v 0.25 -0.1 0.2
v 0.25 0 0.2
v 0.25 0.1 0.2
v 0.25 0.2 0.2
v 0.25 0.3 0.2
v 0.25 0.4 0.2
v 0.25 0.5 0.2
v 0.25 0.6 0.2
v 0.25 0.7 0.2
v 0.25 0.8 0.2
v 0.25 0.9 0.2
v 0.25 1 0.2
v 0.25 1.1 0.2
v 0.25 1.2 0.2
v 0.25 1.3 0.2
v 0.25 1.4 0.2
v 0.25 1.5 0.2
v 0.25 1.6 0.2
v 0.25 1.7 0.2
v 0.25 1.8 0.2
v 0.25 1.9 0.2
v 0.35 -1.8 0.2
v 0.35 -1.7 0.2
v 0.35 -1.6 0.2
v 0.45 -1.7 0.2
v 0.45 -1.6 0.2
v 0.45 -1.5 0.2
v 0.45 -1.4 0.2
v 0.45 -1.3 0.2
v 0.45 -1.2 0.2
v 0.45 -1.1 0.2
v 0.45 -1 0.2
v 0.45 -0.9 0.2
v 0.45 -0.8 0.2
v 0.45 -0.7 0.2
v 0.45 -0.6 0.2
v 0.45 -0.5 0.2
v 0.45 -0.4 0.2
v 0.45 -0.3 0.2
v 0.45 -0.2 0.2
v 0.45 -0.1 0.2
v 0.45 0 0.2
v 0.45 0.1 0.2
v 0.45 0.2 0.2
v 0.45 0.3 0.2
v 0.45 0.4 0.2
v 0.45 0.5 0.2
v 0.45 0.6 0.2
v 0.45 0.7 0.2
v 0.45 0.8 0.2
v 0.45 0.9 0.2
v 0.45 1 0.2
v 0.45 1.1 0.2
v 0.45 1.2 0.2
v 0.45 1.3 0.2
v 0.45 1.4 0.2
v 0.45 1.5 0.2
v 0.45 1.6 0.2
v 0.45 1.7 0.2
v 0.45 1.8 0.2
v 0.45 1.9 0.2
v -0.55 -1.9 0.1
v -0.55 -1.8 0.1
v -0.55 -1.6 0.1
v -0.55 -1.5 0.1
v -0.45 -1.9 0.1
v -0.45 -1.8 0.1
v -0.45 -1.6 0.1
v -0.45 -1.5 0.1
v -0.35 -1.9 0.1
v -0.35 -1.8 0.1
v -0.35 -1.6 0.1
v -0.35 -1.5 0.1
v -0.25 -1.9 0.1
v -0.25 -1.8 0.1
v -0.25 -1.6 0.1
v -0.25 -1.5 0.1
v -0.15 -1.9 0.1
v -0.15 -1.8 0.1
v -0.15 -1.6 0.1
v -0.15 -1.5 0.1
v -0.05 -1.9 0.1
v -0.05 -1.8 0.1
v -0.05 -1.6 0.1
v -0.05 -1.5 0.1
v 0.05 -1.9 0.1
v 0.05 -1.8 0.1
v 0.05 -1.6 0.1
v 0.05 -1.5 0.1
v 0.05 -1.4 0.1
v 0.15 -1.9 0.1
v 0.15 -1.8 0.1
v 0.15 -1.5 0.1
v 0.15 -1.4 0.1
v 0.15 -1.3 0.1
v 0.15 -1.2 0.1
v 0.15 -1.1 0.1
v 0.15 -1 0.1
v 0.15 -0.9 0.1
v 0.15 -0.8 0.1
v 0.15 -0.7 0.1
v 0.15 -0.6 0.1
v 0.15 -0.5 0.1
v 0.15 -0.4 0.1
v 0.15 -0.3 0.1
v 0.15 -0.2 0.1
v 0.15 -0.1 0.1
v 0.15 0 0.1
v 0.15 0.1 0.1
v 0.15 0.2 0.1
v 0.15 0.3 0.1
v 0.15 0.4 0.1
v 0.15 0.5 0.1
v 0.15 0.6 0.1
v 0.15 0.7 0.1
v 0.15 0.8 0.1
v 0.15 0.9 0.1
v 0.15 1 0.1
v 0.15 1.1 0.1
v 0.15 1.2 0.1
v 0.15 1.3 0.1
v 0.15 1.4 0.1
v 0.15 1.5 0.1
v 0.15 1.6 0.1
v 0.15 1.7 0.1
v 0.15 1.8 0.1
v 0.15 1.9 0.1
v 0.25 -1.9 0.1
v 0.25 -1.8 0.1
v 0.25 -1.4 0.1
v 0.25 -1.3 0.1
v 0.25 -1.2 0.1
v 0.25 -1.1 0.1
v 0.25 -1 0.1
v 0.25 -0.9 0.1
v 0.25 -0.8 0.1
v 0.25 -0.7 0.1
v 0.25 -0.6 0.1
v 0.25 -0.5 0.1
v 0.25 -0.4 0.1
v 0.25 -0.3 0.1
v 0.25 -0.2 0.1
v 0.25 -0.1 0.1
v 0.25 0 0.1
v 0.25 0.1 0.1
v 0.25 0.2 0.1
v 0.25 0.3 0.1
v 0.25 0.4 0.1
v 0.25 0.5 0.1
v 0.25 0.6 0.1
v 0.25 0.7 0.1
v 0.25 0.8 0.1
v 0.25 0.9 0.1
v 0.25 1 0.1
v 0.25 1.1 0.1
v 0.25 1.2 0.1
v 0.25 1.3 0.1
v 0.25 1.4 0.1
v 0.25 1.5 0.1
v 0.25 1.6 0.1
v 0.25 1.7 0.1
v 0.25 1.8 0.1
v 0.25 1.9 0.1
v 0.35 -1.9 0.1
v 0.35 -1.8 0.1
v 0.35 -1.7 0.1
v 0.45 -1.8 0.1
v 0.45 -1.7 0.1
v 0.45 -1.6 0.1
v 0.45 -1.5 0.1
v 0.45 -1.4 0.1
v 0.45 -1.3 0.1
v 0.45 -1.2 0.1
v 0.45 -1.1 0.1
v 0.45 -1 0.1
v 0.45 -0.9 0.1
v 0.45 -0.8 0.1
v 0.45 -0.7 0.1
v 0.45 -0.6 0.1
v 0.45 -0.5 0.1
v 0.45 -0.4 0.1
v 0.45 -0.3 0.1
v 0.45 -0.2 0.1
v 0.45 -0.1 0.1
v 0.45 0 0.1
v 0.45 0.1 0.1
v 0.45 0.2 0.1
v 0.45 0.3 0.1
v 0.45 0.4 0.1
v 0.45 0.5 0.1
v 0.45 0.6 0.1
v 0.45 0.7 0.1
v 0.45 0.8 0.1
v 0.45 0.9 0.1
v 0.45 1 0.1
v 0.45 1.1 0.1
v 0.45 1.2 0.1
v 0.45 1.3 0.1
v 0.45 1.4 0.1
v 0.45 1.5 0.1
v 0.45 1.6 0.1
v 0.45 1.7 0.1
v 0.45 1.8 0.1
v 0.45 1.9 0.1
v 0.55 -1.7 0.1
v 0.55 -1.6 0.1
v 0.55 -1.5 0.1
v 0.55 -1.4 0.1
v 0.55 -1.3 0.1
v 0.55 -1.2 0.1
v 0.55 -1.1 0.1
v 0.55 -1 0.1
v 0.55 -0.9 0.1
v 0.55 -0.8 0.1
v 0.55 -0.7 0.1
v 0.55 -0.6 0.1
v 0.55 -0.5 0.1
v 0.55 -0.4 0.1
v 0.55 -0.3 0.1
v 0.55 -0.2 0.1
v 0.55 -0.1 0.1
v 0.55 0 0.1
v 0.55 0.1 0.1
v 0.55 0.2 0.1
v 0.55 0.3 0.1
v 0.55 0.4 0.1
v 0.55 0.5 0.1
v 0.55 0.6 0.1
v 0.55 0.7 0.1
v 0.55 0.8 0.1
v 0.55 0.9 0.1
v 0.55 1 0.1
v 0.55 1.1 0.1
v 0.55 1.2 0.1
v 0.55 1.3 0.1
v 0.55 1.4 0.1
v 0.55 1.5 0.1
v 0.55 1.6 0.1
v 0.55 1.7 0.1
v 0.55 1.8 0.1
v 0.55 1.9 0.1
v -0.55 -1.9 -0.1
v -0.55 -1.8 -0.1
v -0.55 -1.6 -0.1
v -0.55 -1.5 -0.1
v -0.45 -1.9 -0.1
v -0.45 -1.8 -0.1
v -0.45 -1.6 -0.1
v -0.45 -1.5 -0.1
v -0.35 -1.9 -0.1
v -0.35 -1.8 -0.1
v -0.35 -1.6 -0.1
v -0.35 -1.5 -0.1
v -0.25 -1.9 -0.1
v -0.25 -1.8 -0.1
v -0.25 -1.6 -0.1
v -0.25 -1.5 -0.1
v -0.15 -1.9 -0.1
v -0.15 -1.8 -0.1
v -0.15 -1.6 -0.1
v -0.15 -1.5 -0.1
v -0.05 -1.9 -0.1
v -0.05 -1.8 -0.1
v -0.05 -1.6 -0.1
v -0.05 -1.5 -0.1
v 0.05 -1.9 -0.1
v 0.05 -1.8 -0.1
v 0.05 -1.6 -0.1
v 0.05 -1.5 -0.1
v 0.05 -1.4 -0.1
v 0.15 -1.9 -0.1
v 0.15 -1.8 -0.1
v 0.15 -1.5 -0.1
v 0.15 -1.4 -0.1
v 0.15 -1.3 -0.1
v 0.15 -1.2 -0.1
v 0.15 -1.1 -0.1
v 0.15 -1 -0.1
v 0.15 -0.9 -0.1
v 0.15 -0.8 -0.1
v 0.15 -0.7 -0.1
v 0.15 -0.6 -0.1
v 0.15 -0.5 -0.1
v 0.15 -0.4 -0.1
v 0.15 -0.3 -0.1
v 0.15 -0.2 -0.1
v 0.15 -0.1 -0.1
v 0.15 0 -0.1
v 0.15 0.1 -0.1
v 0.15 0.2 -0.1
v 0.15 0.3 -0.1
v 0.15 0.4 -0.1
v 0.15 0.5 -0.1
v 0.15 0.6 -0.1
v 0.15 0.7 -0.1
v 0.15 0.8 -0.1
v 0.15 0.9 -0.1
v 0.15 1 -0.1
v 0.15 1.1 -0.1
v 0.15 1.2 -0.1
v 0.15 1.3 -0.1
v 0.15 1.4 -0.1
v 0.15 1.5 -0.1
v 0.15 1.6 -0.1
v 0.15 1.7 -0.1
v 0.15 1.8 -0.1
v 0.15 1.9 -0.1
v 0.25 -1.9 -0.1
v 0.25 -1.8 -0.1
v 0.25 -1.4 -0.1
v 0.25 -1.3 -0.1
v 0.25 -1.2 -0.1
v 0.25 -1.1 -0.1
v 0.25 -1 -0.1
v 0.25 -0.9 -0.1
v 0.25 -0.8 -0.1
v 0.25 -0.7 -0.1
v 0.25 -0.6 -0.1
v 0.25 -0.5 -0.1
v 0.25 -0.4 -0.1
v 0.25 -0.3 -0.1
v 0.25 -0.2 -0.1
v 0.25 -0.1 -0.1
v 0.25 0 -0.1
v 0.25 0.1 -0.1
v 0.25 0.2 -0.1
v 0.25 0.3 -0.1
v 0.25 0.4 -0.1
v 0.25 0.5 -0.1
v 0.25 0.6 -0.1
v 0.25 0.7 -0.1
v 0.25 0.8 -0.1
v 0.25 0.9 -0.1
v 0.25 1 -0.1
v 0.25 1.1 -0.1
v 0.25 1.2 -0.1
v 0.25 1.3 -0.1
v 0.25 1.4 -0.1
v 0.25 1.5 -0.1
v 0.25 1.6 -0.1
v 0.25 1.7 -0.1
v 0.25 1.8 -0.1
v 0.25 1.9 -0.1
v 0.35 -1.9 -0.1
v 0.35 -1.8 -0.1
v 0.35 -1.7 -0.1
v 0.45 -1.8 -0.1
v 0.45 -1.7 -0.1
v 0.45 -1.6 -0.1
v 0.45 -1.5 -0.1
v 0.45 -1.4 -0.1
v 0.45 -1.3 -0.1
v 0.45 -1.2 -0.1
v 0.45 -1.1 -0.1
v 0.45 -1 -0.1
v 0.45 -0.9 -0.1
v 0.45 -0.8 -0.1
v 0.45 -0.7 -0.1
v 0.45 -0.6 -0.1
v 0.45 -0.5 -0.1
v 0.45 -0.4 -0.1
v 0.45 -0.3 -0.1
v 0.45 -0.2 -0.1
v 0.45 -0.1 -0.1
v 0.45 0 -0.1
v 0.45 0.1 -0.1
v 0.45 0.2 -0.1
v 0.45 0.3 -0.1
v 0.45 0.4 -0.1
v 0.45 0.5 -0.1
v 0.45 0.6 -0.1
v 0.45 0.7 -0.1
v 0.45 0.8 -0.1
v 0.45 0.9 -0.1
v 0.45 1 -0.1
v 0.45 1.1 -0.1
v 0.45 1.2 -0.1
v 0.45 1.3 -0.1
v 0.45 1.4 -0.1
v 0.45 1.5 -0.1
v 0.45 1.6 -0.1
v 0.45 1.7 -0.1
v 0.45 1.8 -0.1
v 0.45 1.9 -0.1
v 0.55 -1.7 -0.1
v 0.55 -1.6 -0.1
v 0.55 -1.5 -0.1
v 0.55 -1.4 -0.1
v 0.55 -1.3 -0.1
v 0.55 -1.2 -0.1
v 0.55 -1.1 -0.1
v 0.55 -1 -0.1
v 0.55 -0.9 -0.1
v 0.55 -0.8 -0.1
v 0.55 -0.7 -0.1
v 0.55 -0.6 -0.1
v 0.55 -0.5 -0.1
v 0.55 -0.4 -0.1
v 0.55 -0.3 -0.1
v 0.55 -0.2 -0.1
v 0.55 -0.1 -0.1
v 0.55 0 -0.1
v 0.55 0.1 -0.1
v 0.55 0.2 -0.1
v 0.55 0.3 -0.1
v 0.55 0.4 -0.1
v 0.55 0.5 -0.1
v 0.55 0.6 -0.1
v 0.55 0.7 -0.1
v 0.55 0.8 -0.1
v 0.55 0.9 -0.1
v 0.55 1 -0.1
v 0.55 1.1 -0.1
v 0.55 1.2 -0.1
v 0.55 1.3 -0.1
v 0.55 1.4 -0.1
v 0.55 1.5 -0.1
v 0.55 1.6 -0.1
v 0.55 1.7 -0.1
v 0.55 1.8 -0.1
v 0.55 1.9 -0.1
v -0.55 -1.8 -0.2
v -0.55 -1.6 -0.2
v -0.45 -1.8 -0.2
v -0.45 -1.6 -0.2
v -0.35 -1.8 -0.2
v -0.35 -1.6 -0.2
v -0.25 -1.8 -0.2
v -0.25 -1.6 -0.2
v -0.15 -1.8 -0.2
v -0.15 -1.6 -0.2
v -0.05 -1.8 -0.2
v -0.05 -1.6 -0.2
v 0.05 -1.8 -0.2
v 0.05 -1.6 -0.2
v 0.05 -1.5 -0.2
v 0.15 -1.8 -0.2
v 0.15 -1.5 -0.2
v 0.15 -1.4 -0.2
v 0.25 -1.8 -0.2
v 0.25 -1.5 -0.2
v 0.25 -1.4 -0.2
v 0.25 -1.3 -0.2
v 0.25 -1.2 -0.2
v 0.25 -1.1 -0.2
v 0.25 -1 -0.2
v 0.25 -0.9 -0.2
v 0.25 -0.8 -0.2
v 0.25 -0.7 -0.2
v 0.25 -0.6 -0.2
v 0.25 -0.5 -0.2
v 0.25 -0.4 -0.2
v 0.25 -0.3 -0.2
v 0.25 -0.2 -0.2
v 0.25 -0.1 -0.2
v 0.25 0 -0.2
v 0.25 0.1 -0.2
v 0.25 0.2 -0.2
v 0.25 0.3 -0.2
v 0.25 0.4 -0.2
v 0.25 0.5 -0.2
v 0.25 0.6 -0.2
v 0.25 0.7 -0.2
v 0.25 0.8 -0.2
v 0.25 0.9 -0.2
v 0.25 1 -0.2
v 0.25 1.1 -0.2
v 0.25 1.2 -0.2
v 0.25 1.3 -0.2
v 0.25 1.4 -0.2
v 0.25 1.5 -0.2
v 0.25 1.6 -0.2
v 0.25 1.7 -0.2
v 0.25 1.8 -0.2
v 0.25 1.9 -0.2
v 0.35 -1.8 -0.2
v 0.35 -1.7 -0.2
v 0.35 -1.6 -0.2
v 0.45 -1.7 -0.2
v 0.45 -1.6 -0.2
v 0.45 -1.5 -0.2
v 0.45 -1.4 -0.2
v 0.45 -1.3 -0.2
v 0.45 -1.2 -0.2
v 0.45 -1.1 -0.2
v 0.45 -1 -0.2
v 0.45 -0.9 -0.2
v 0.45 -0.8 -0.2
v 0.45 -0.7 -0.2
v 0.45 -0.6 -0.2
v 0.45 -0.5 -0.2
v 0.45 -0.4 -0.2
v 0.45 -0.3 -0.2
v 0.45 -0.2 -0.2
v 0.45 -0.1 -0.2
v 0.45 0 -0.2
v 0.45 0.1 -0.2
v 0.45 0.2 -0.2
v 0.45 0.3 -0.2
v 0.45 0.4 -0.2
v 0.45 0.5 -0.2
v 0.45 0.6 -0.2
v 0.45 0.7 -0.2
v 0.45 0.8 -0.2
v 0.45 0.9 -0.2
v 0.45 1 -0.2
v 0.45 1.1 -0.2
v 0.45 1.2 -0.2
v 0.45 1.3 -0.2
v 0.45 1.4 -0.2
v 0.45 1.5 -0.2
v 0.45 1.6 -0.2
v 0.45 1.7 -0.2
v 0.45 1.8 -0.2
v 0.45 1.9 -0.2
v -0.55 -1.9 0.1
v -0.45 -1.9 0.1
v -0.35 -1.9 0.1
v -0.25 -1.9 0.1
v -0.15 -1.9 0.1
v -0.05 -1.9 0.1
v 0.05 -1.9 0.1
v 0.15 -1.9 0.1
v 0.25 -1.9 0.1
v 0.35 -1.9 0.1
v -0.55 -1.9 -0.1
v -0.45 -1.9 -0.1
v -0.35 -1.9 -0.1
v -0.25 -1.9 -0.1
v -0.15 -1.9 -0.1
v -0.05 -1.9 -0.1
v 0.05 -1.9 -0.1
v 0.15 -1.9 -0.1
v 0.25 -1.9 -0.1
v 0.35 -1.9 -0.1
v -0.55 -1.8 0.2
v -0.45 -1.8 0.2
v -0.35 -1.8 0.2
v -0.25 -1.8 0.2
v -0.15 -1.8 0.2
v -0.05 -1.8 0.2
v 0.05 -1.8 0.2
v 0.15 -1.8 0.2
v 0.25 -1.8 0.2
v 0.35 -1.8 0.2
v -0.55 -1.8 0.1
v -0.45 -1.8 0.1
v -0.35 -1.8 0.1
v -0.25 -1.8 0.1
v -0.15 -1.8 0.1
v -0.05 -1.8 0.1
v 0.05 -1.8 0.1
v 0.15 -1.8 0.1
v 0.25 -1.8 0.1
v 0.35 -1.8 0.1
v 0.45 -1.8 0.1
v -0.55 -1.8 -0.1
v -0.45 -1.8 -0.1
v -0.35 -1.8 -0.1
v -0.25 -1.8 -0.1
v -0.15 -1.8 -0.1
v -0.05 -1.8 -0.1
v 0.05 -1.8 -0.1
v 0.15 -1.8 -0.1
v 0.25 -1.8 -0.1
v 0.35 -1.8 -0.1
v 0.45 -1.8 -0.1
v -0.55 -1.8 -0.2
v -0.45 -1.8 -0.2
v -0.35 -1.8 -0.2
v -0.25 -1.8 -0.2
v -0.15 -1.8 -0.2
v -0.05 -1.8 -0.2
v 0.05 -1.8 -0.2
v 0.15 -1.8 -0.2
v 0.25 -1.8 -0.2
v 0.35 -1.8 -0.2
v 0.35 -1.7 0.2
v 0.45 -1.7 0.2
v 0.35 -1.7 0.1
v 0.45 -1.7 0.1
v 0.55 -1.7 0.1
v 0.35 -1.7 -0.1
v 0.45 -1.7 -0.1
v 0.55 -1.7 -0.1
v 0.35 -1.7 -0.2
v 0.45 -1.7 -0.2
v -0.55 -1.6 0.2
v -0.45 -1.6 0.2
v -0.35 -1.6 0.2
v -0.25 -1.6 0.2
v -0.15 -1.6 0.2
v -0.05 -1.6 0.2
v 0.05 -1.6 0.2
v -0.55 -1.6 0.1
v -0.45 -1.6 0.1
v -0.35 -1.6 0.1
v -0.25 -1.6 0.1
v -0.15 -1.6 0.1
v -0.05 -1.6 0.1
v 0.05 -1.6 0.1
v -0.55 -1.6 -0.1
v -0.45 -1.6 -0.1
v -0.35 -1.6 -0.1
v -0.25 -1.6 -0.1
v -0.15 -1.6 -0.1
v -0.05 -1.6 -0.1
v 0.05 -1.6 -0.1
v -0.55 -1.6 -0.2
v -0.45 -1.6 -0.2
v -0.35 -1.6 -0.2
v -0.25 -1.6 -0.2
v -0.15 -1.6 -0.2
v -0.05 -1.6 -0.2
v 0.05 -1.6 -0.2
v 0.05 -1.5 0.2
v 0.15 -1.5 0.2
v -0.55 -1.5 0.1
v -0.45 -1.5 0.1
v -0.35 -1.5 0.1
v -0.25 -1.5 0.1
v -0.15 -1.5 0.1
v -0.05 -1.5 0.1
v 0.05 -1.5 0.1
v 0.15 -1.5 0.1
v -0.55 -1.5 -0.1
v -0.45 -1.5 -0.1
v -0.35 -1.5 -0.1
v -0.25 -1.5 -0.1
v -0.15 -1.5 -0.1
v -0.05 -1.5 -0.1
v 0.05 -1.5 -0.1
v 0.15 -1.5 -0.1
v 0.05 -1.5 -0.2
v 0.15 -1.5 -0.2
v 0.15 -1.4 0.2
v 0.25 -1.4 0.2
v 0.05 -1.4 0.1
v 0.15 -1.4 0.1
v 0.25 -1.4 0.1
v 0.05 -1.4 -0.1
v 0.15 -1.4 -0.1
v 0.25 -1.4 -0.1
v 0.15 -1.4 -0.2
v 0.25 -1.4 -0.2
v 0.25 1.9 0.2
v 0.45 1.9 0.2
v 0.15 1.9 0.1
v 0.25 1.9 0.1
v 0.45 1.9 0.1
v 0.55 1.9 0.1
v 0.15 1.9 -0.1
v 0.25 1.9 -0.1
v 0.45 1.9 -0.1
v 0.55 1.9 -0.1
v 0.25 1.9 -0.2
v 0.45 1.9 -0.2

# faces
f 4/3/1 2/3/1 1/3/1
f 5/3/1 2/3/1 4/3/1
f 7/3/1 4/3/1 3/3/1
f 7/3/1 6/3/1 5/3/1
f 7/3/1 5/3/1 4/3/1
f 8/3/1 6/3/1 7/3/1
f 9/3/1 6/3/1 8/3/1
f 10/3/1 6/3/1 9/3/1
f 11/3/1 9/3/1 8/3/1
f 12/3/1 9/3/1 11/3/1
f 17/3/1 14/3/1 13/3/1
f 18/3/1 14/3/1 17/3/1
f 19/3/1 16/3/1 15/3/1
f 20/3/1 16/3/1 19/3/1
f 21/3/1 19/3/1 18/3/1
f 22/3/1 19/3/1 21/3/1
f 27/3/1 24/3/1 23/3/1
f 28/3/1 24/3/1 27/3/1
f 29/3/1 26/3/1 25/3/1
f 30/3/1 26/3/1 29/3/1
f 31/3/1 29/3/1 28/3/1
f 32/3/1 29/3/1 31/3/1
f 33/2/1 32/2/1 31/2/1
f 34/2/1 32/2/1 33/2/1
f 35/3/1 34/3/1 33/3/1
f 36/3/1 34/3/1 35/3/1
f 37/2/1 36/2/1 35/2/1
f 38/2/1 36/2/1 37/2/1
f 39/3/1 38/3/1 37/3/1
f 40/3/1 38/3/1 39/3/1
f 41/2/1 40/2/1 39/2/1
f 42/2/1 40/2/1 41/2/1
f 43/3/1 42/3/1 41/3/1
f 44/3/1 42/3/1 43/3/1
f 45/2/1 44/2/1 43/2/1
f 46/2/1 44/2/1 45/2/1
f 47/3/1 46/3/1 45/3/1
f 48/3/1 46/3/1 47/3/1
f 49/2/1 48/2/1 47/2/1
f 50/2/1 48/2/1 49/2/1
f 51/3/1 50/3/1 49/3/1
f 52/3/1 50/3/1 51/3/1
f 53/2/1 52/2/1 51/2/1
f 54/2/1 52/2/1 53/2/1
f 55/3/1 54/3/1 53/3/1
f 56/3/1 54/3/1 55/3/1
f 57/2/1 56/2/1 55/2/1
f 58/2/1 56/2/1 57/2/1
f 59/3/1 58/3/1 57/3/1
f 60/3/1 58/3/1 59/3/1
f 61/2/1 60/2/1 59/2/1
f 62/2/1 60/2/1 61/2/1
f 63/3/1 62/3/1 61/3/1
f 64/3/1 62/3/1 63/3/1
f 65/2/1 64/2/1 63/2/1
f 66/2/1 64/2/1 65/2/1
f 67/3/1 66/3/1 65/3/1
f 68/3/1 66/3/1 67/3/1
f 69/2/1 68/2/1 67/2/1
f 70/2/1 68/2/1 69/2/1
f 71/3/1 70/3/1 69/3/1
f 72/3/1 70/3/1 71/3/1
f 73/2/1 72/2/1 71/2/1
f 74/2/1 72/2/1 73/2/1
f 75/3/1 74/3/1 73/3/1
f 76/3/1 74/3/1 75/3/1
f 77/2/1 76/2/1 75/2/1
f 78/2/1 76/2/1 77/2/1
f 79/3/1 78/3/1 77/3/1
f 80/3/1 78/3/1 79/3/1
f 81/2/1 80/2/1 79/2/1
f 82/2/1 80/2/1 81/2/1
f 83/3/1 82/3/1 81/3/1
f 84/3/1 82/3/1 83/3/1
f 85/2/1 84/2/1 83/2/1
f 86/2/1 84/2/1 85/2/1
f 87/3/1 86/3/1 85/3/1
f 88/3/1 86/3/1 87/3/1
f 89/2/1 88/2/1 87/2/1
f 90/2/1 88/2/1 89/2/1
f 91/3/1 90/3/1 89/3/1
f 92/3/1 90/3/1 91/3/1
f 93/2/1 92/2/1 91/2/1
f 94/2/1 92/2/1 93/2/1
f 95/3/1 94/3/1 93/3/1
f 96/3/1 94/3/1 95/3/1
f 101/3/1 98/3/1 97/3/1
f 102/3/1 98/3/1 101/3/1
f 103/3/1 100/3/1 99/3/1
f 104/3/1 100/3/1 103/3/1
f 105/2/1 102/2/1 101/2/1
f 106/2/1 102/2/1 105/2/1
f 107/2/1 104/2/1 103/2/1
f 108/2/1 104/2/1 107/2/1
f 109/3/1 106/3/1 105/3/1
f 110/3/1 106/3/1 109/3/1
f 111/3/1 108/3/1 107/3/1
f 112/3/1 108/3/1 111/3/1
f 113/2/1 110/2/1 109/2/1
f 114/2/1 110/2/1 113/2/1
f 115/2/1 112/2/1 111/2/1
f 116/2/1 112/2/1 115/2/1
f 117/3/1 114/3/1 113/3/1
f 118/3/1 114/3/1 117/3/1
f 119/3/1 116/3/1 115/3/1
f 120/3/1 116/3/1 119/3/1
f 121/2/1 118/2/1 117/2/1
f 122/2/1 118/2/1 121/2/1
f 123/2/1 120/2/1 119/2/1
f 124/2/1 120/2/1 123/2/1
f 125/3/1 122/3/1 121/3/1
f 126/3/1 122/3/1 125/3/1
f 127/3/1 124/3/1 123/3/1
f 128/3/1 124/3/1 127/3/1
f 129/2/1 126/2/1 125/2/1
f 130/2/1 126/2/1 129/2/1
f 131/2/1 128/2/1 127/2/1
f 132/2/1 128/2/1 131/2/1
f 133/3/1 130/3/1 129/3/1
f 134/3/1 130/3/1 133/3/1
f 135/3/1 132/3/1 131/3/1
f 136/3/1 132/3/1 135/3/1
f 137/2/1 134/2/1 133/2/1
f 138/2/1 134/2/1 137/2/1
f 139/2/1 136/2/1 135/2/1
f 140/2/1 136/2/1 139/2/1
f 141/3/1 138/3/1 137/3/1
f 142/3/1 138/3/1 141/3/1
f 143/3/1 140/3/1 139/3/1
f 144/3/1 140/3/1 143/3/1
f 145/2/1 142/2/1 141/2/1
f 146/2/1 142/2/1 145/2/1
f 147/2/1 144/2/1 143/2/1
f 148/2/1 144/2/1 147/2/1
f 149/3/1 146/3/1 145/3/1
f 150/3/1 146/3/1 149/3/1
f 151/3/1 148/3/1 147/3/1
f 152/3/1 148/3/1 151/3/1
f 153/2/1 150/2/1 149/2/1
f 154/2/1 150/2/1 153/2/1
f 155/2/1 152/2/1 151/2/1
f 156/2/1 152/2/1 155/2/1
f 157/3/1 154/3/1 153/3/1
f 158/3/1 154/3/1 157/3/1
f 159/3/1 156/3/1 155/3/1
f 160/3/1 156/3/1 159/3/1
f 161/2/1 158/2/1 157/2/1
f 162/2/1 158/2/1 161/2/1
f 163/2/1 160/2/1 159/2/1
f 164/2/1 160/2/1 163/2/1
f 165/3/1 162/3/1 161/3/1
f 166/3/1 162/3/1 165/3/1
f 167/3/1 164/3/1 163/3/1
f 168/3/1 164/3/1 167/3/1
f 169/2/1 166/2/1 165/2/1
f 170/2/1 166/2/1 169/2/1
f 171/2/1 168/2/1 167/2/1
f 172/2/1 168/2/1 171/2/1
f 173/3/1 170/3/1 169/3/1
f 174/3/1 170/3/1 173/3/1
f 175/3/1 172/3/1 171/3/1
f 176/3/1 172/3/1 175/3/1
f 177/2/1 174/2/1 173/2/1
f 178/2/1 174/2/1 177/2/1
f 179/2/1 176/2/1 175/2/1
f 180/2/1 176/2/1 179/2/1
f 181/3/1 178/3/1 177/3/1
f 182/3/1 178/3/1 181/3/1
f 183/3/1 180/3/1 179/3/1
f 184/3/1 180/3/1 183/3/1
f 185/2/1 182/2/1 181/2/1
f 186/2/1 182/2/1 185/2/1
f 187/2/1 184/2/1 183/2/1
f 188/2/1 184/2/1 187/2/1
f 189/3/1 186/3/1 185/3/1
f 190/3/1 186/3/1 189/3/1
f 191/3/1 188/3/1 187/3/1
f 192/3/1 188/3/1 191/3/1
f 193/2/1 190/2/1 189/2/1
f 194/2/1 190/2/1 193/2/1
f 195/2/1 192/2/1 191/2/1
f 196/2/1 192/2/1 195/2/1
f 197/3/1 194/3/1 193/3/1
f 198/3/1 194/3/1 197/3/1
f 199/3/1 196/3/1 195/3/1
f 200/3/1 196/3/1 199/3/1
f 201/2/1 198/2/1 197/2/1
f 202/2/1 198/2/1 201/2/1
f 203/2/1 200/2/1 199/2/1
f 204/2/1 200/2/1 203/2/1
f 205/3/1 202/3/1 201/3/1
f 206/3/1 202/3/1 205/3/1
f 207/3/1 204/3/1 203/3/1
f 208/3/1 204/3/1 207/3/1
f 209/2/1 206/2/1 205/2/1
f 210/2/1 206/2/1 209/2/1
f 211/2/1 208/2/1 207/2/1
f 212/2/1 208/2/1 211/2/1
f 213/3/1 210/3/1 209/3/1
f 214/3/1 210/3/1 213/3/1
f 215/3/1 212/3/1 211/3/1
f 216/3/1 212/3/1 215/3/1
f 217/2/1 214/2/1 213/2/1
f 218/2/1 214/2/1 217/2/1
f 219/2/1 216/2/1 215/2/1
f 220/2/1 216/2/1 219/2/1
f 221/3/1 218/3/1 217/3/1
f 222/3/1 218/3/1 221/3/1
f 223/3/1 220/3/1 219/3/1
f 224/3/1 220/3/1 223/3/1
f 225/2/1 222/2/1 221/2/1
f 226/2/1 222/2/1 225/2/1
f 227/2/1 224/2/1 223/2/1
f 228/2/1 224/2/1 227/2/1
f 229/3/1 226/3/1 225/3/1
f 230/3/1 226/3/1 229/3/1
f 231/3/1 228/3/1 227/3/1
f 232/3/1 228/3/1 231/3/1
f 233/3/2 234/3/2 236/3/2
f 236/3/2 234/3/2 237/3/2
f 235/3/2 236/3/2 239/3/2
f 239/3/2 236/3/2 240/3/2
f 237/3/2 238/3/2 241/3/2
f 241/3/2 238/3/2 242/3/2
f 243/2/2 244/2/2 246/2/2
f 246/2/2 244/2/2 247/2/2
f 245/2/2 246/2/2 249/2/2
f 249/2/2 246/2/2 250/2/2
f 247/2/2 248/2/2 251/2/2
f 251/2/2 248/2/2 252/2/2
f 249/3/2 250/3/2 253/3/2
f 253/3/2 250/3/2 254/3/2
f 251/3/2 252/3/2 255/3/2
f 255/3/2 252/3/2 256/3/2
f 253/2/2 254/2/2 257/2/2
f 257/2/2 254/2/2 258/2/2
f 255/2/2 256/2/2 259/2/2
f 259/2/2 256/2/2 260/2/2
f 257/3/2 258/3/2 261/3/2
f 261/3/2 258/3/2 262/3/2
f 259/3/2 260/3/2 263/3/2
f 263/3/2 260/3/2 264/3/2
f 261/2/2 262/2/2 265/2/2
f 265/2/2 262/2/2 266/2/2
f 263/2/2 264/2/2 267/2/2
f 267/2/2 264/2/2 268/2/2
f 265/3/2 266/3/2 269/3/2
f 269/3/2 266/3/2 270/3/2
f 267/3/2 268/3/2 271/3/2
f 271/3/2 268/3/2 272/3/2
f 269/2/2 270/2/2 273/2/2
f 273/2/2 270/2/2 274/2/2
f 271/2/2 272/2/2 275/2/2
f 275/2/2 272/2/2 276/2/2
f 273/3/2 274/3/2 277/3/2
f 277/3/2 274/3/2 278/3/2
f 275/3/2 276/3/2 279/3/2
f 279/3/2 276/3/2 280/3/2
f 277/2/2 278/2/2 281/2/2
f 281/2/2 278/2/2 282/2/2
f 279/2/2 280/2/2 283/2/2
f 283/2/2 280/2/2 284/2/2
f 281/3/2 282/3/2 285/3/2
f 285/3/2 282/3/2 286/3/2
f 283/3/2 284/3/2 287/3/2
f 287/3/2 284/3/2 288/3/2
f 285/2/2 286/2/2 289/2/2
f 289/2/2 286/2/2 290/2/2
f 287/2/2 288/2/2 291/2/2
f 291/2/2 288/2/2 292/2/2
f 289/3/2 290/3/2 293/3/2
f 293/3/2 290/3/2 294/3/2
f 291/3/2 292/3/2 295/3/2
f 295/3/2 292/3/2 296/3/2
f 293/2/2 294/2/2 297/2/2
f 297/2/2 294/2/2 298/2/2
f 295/2/2 296/2/2 299/2/2
f 299/2/2 296/2/2 300/2/2
f 297/3/2 298/3/2 301/3/2
f 301/3/2 298/3/2 302/3/2
f 299/3/2 300/3/2 303/3/2
f 303/3/2 300/3/2 304/3/2
f 301/2/2 302/2/2 305/2/2
f 305/2/2 302/2/2 306/2/2
f 303/2/2 304/2/2 307/2/2
f 307/2/2 304/2/2 308/2/2
f 305/3/2 306/3/2 309/3/2
f 309/3/2 306/3/2 310/3/2
f 307/3/2 308/3/2 311/3/2
f 311/3/2 308/3/2 312/3/2
f 309/2/2 310/2/2 313/2/2
f 313/2/2 310/2/2 314/2/2
f 311/2/2 312/2/2 315/2/2
f 315/2/2 312/2/2 316/2/2
f 313/3/2 314/3/2 317/3/2
f 317/3/2 314/3/2 318/3/2
f 315/3/2 316/3/2 319/3/2
f 319/3/2 316/3/2 320/3/2
f 317/2/2 318/2/2 321/2/2
f 321/2/2 318/2/2 322/2/2
f 319/2/2 320/2/2 323/2/2
f 323/2/2 320/2/2 324/2/2
f 321/3/2 322/3/2 325/3/2
f 325/3/2 322/3/2 326/3/2
f 323/3/2 324/3/2 327/3/2
f 327/3/2 324/3/2 328/3/2
f 325/2/2 326/2/2 329/2/2
f 329/2/2 326/2/2 330/2/2
f 327/2/2 328/2/2 331/2/2
f 331/2/2 328/2/2 332/2/2
f 329/3/2 330/3/2 333/3/2
f 333/3/2 330/3/2 334/3/2
f 331/3/2 332/3/2 335/3/2
f 335/3/2 332/3/2 336/3/2
f 333/2/2 334/2/2 337/2/2
f 337/2/2 334/2/2 338/2/2
f 335/2/2 336/2/2 339/2/2
f 339/2/2 336/2/2 340/2/2
f 337/3/2 338/3/2 341/3/2
f 341/3/2 338/3/2 342/3/2
f 339/3/2 340/3/2 343/3/2
f 343/3/2 340/3/2 344/3/2
f 341/2/2 342/2/2 345/2/2
f 345/2/2 342/2/2 346/2/2
f 343/2/2 344/2/2 347/2/2
f 347/2/2 344/2/2 348/2/2
f 345/3/2 346/3/2 349/3/2
f 349/3/2 346/3/2 350/3/2
f 347/3/2 348/3/2 351/3/2
f 351/3/2 348/3/2 352/3/2
f 349/2/2 350/2/2 353/2/2
f 353/2/2 350/2/2 354/2/2
f 351/2/2 352/2/2 355/2/2
f 355/2/2 352/2/2 356/2/2
f 353/3/2 354/3/2 357/3/2
f 357/3/2 354/3/2 358/3/2
f 355/3/2 356/3/2 359/3/2
f 359/3/2 356/3/2 360/3/2
f 357/2/2 358/2/2 361/2/2
f 361/2/2 358/2/2 362/2/2
f 359/2/2 360/2/2 363/2/2
f 363/2/2 360/2/2 364/2/2
f 361/3/2 362/3/2 365/3/2
f 365/3/2 362/3/2 366/3/2
f 363/3/2 364/3/2 367/3/2
f 367/3/2 364/3/2 368/3/2
f 365/2/2 366/2/2 369/2/2
f 369/2/2 366/2/2 370/2/2
f 367/2/2 368/2/2 371/2/2
f 371/2/2 368/2/2 372/2/2
f 369/3/2 370/3/2 373/3/2
f 373/3/2 370/3/2 374/3/2
f 371/3/2 372/3/2 375/3/2
f 375/3/2 372/3/2 376/3/2
f 373/2/2 374/2/2 377/2/2
f 377/2/2 374/2/2 378/2/2
f 375/2/2 376/2/2 379/2/2
f 379/2/2 376/2/2 380/2/2
f 377/3/2 378/3/2 381/3/2
f 381/3/2 378/3/2 382/3/2
f 379/3/2 380/3/2 383/3/2
f 383/3/2 380/3/2 384/3/2
f 381/2/2 382/2/2 385/2/2
f 385/2/2 382/2/2 386/2/2
f 383/2/2 384/2/2 387/2/2
f 387/2/2 384/2/2 388/2/2
f 385/3/2 386/3/2 389/3/2
f 389/3/2 386/3/2 390/3/2
f 387/3/2 388/3/2 391/3/2
f 391/3/2 388/3/2 392/3/2
f 393/2/2 394/2/2 395/2/2
f 395/2/2 394/2/2 396/2/2
f 395/3/2 396/3/2 397/3/2
f 397/3/2 396/3/2 398/3/2
f 397/2/2 398/2/2 399/2/2
f 399/2/2 398/2/2 400/2/2
f 399/3/2 400/3/2 401/3/2
f 401/3/2 400/3/2 402/3/2
f 401/2/2 402/2/2 403/2/2
f 403/2/2 402/2/2 404/2/2
f 403/3/2 404/3/2 405/3/2
f 405/3/2 404/3/2 406/3/2
f 405/2/2 406/2/2 407/2/2
f 407/2/2 406/2/2 408/2/2
f 407/3/2 408/3/2 409/3/2
f 409/3/2 408/3/2 410/3/2
f 409/2/2 410/2/2 411/2/2
f 411/2/2 410/2/2 412/2/2
f 411/3/2 412/3/2 413/3/2
f 413/3/2 412/3/2 414/3/2
f 413/2/2 414/2/2 415/2/2
f 415/2/2 414/2/2 416/2/2
f 415/3/2 416/3/2 417/3/2
f 417/3/2 416/3/2 418/3/2
f 417/2/2 418/2/2 419/2/2
f 419/2/2 418/2/2 420/2/2
f 419/3/2 420/3/2 421/3/2
f 421/3/2 420/3/2 422/3/2
f 421/2/2 422/2/2 423/2/2
f 423/2/2 422/2/2 424/2/2
f 423/3/2 424/3/2 425/3/2
f 425/3/2 424/3/2 426/3/2
f 425/2/2 426/2/2 427/2/2
f 427/2/2 426/2/2 428/2/2
f 427/3/2 428/3/2 429/3/2
f 429/3/2 428/3/2 430/3/2
f 429/2/2 430/2/2 431/2/2
f 431/2/2 430/2/2 432/2/2
f 431/3/2 432/3/2 433/3/2
f 433/3/2 432/3/2 434/3/2
f 433/2/2 434/2/2 435/2/2
f 435/2/2 434/2/2 436/2/2
f 435/3/2 436/3/2 437/3/2
f 437/3/2 436/3/2 438/3/2
f 437/2/2 438/2/2 439/2/2
f 439/2/2 438/2/2 440/2/2
f 439/3/2 440/3/2 441/3/2
f 441/3/2 440/3/2 442/3/2
f 441/2/2 442/2/2 443/2/2
f 443/2/2 442/2/2 444/2/2
f 443/3/2 444/3/2 445/3/2
f 445/3/2 444/3/2 446/3/2
f 445/2/2 446/2/2 447/2/2
f 447/2/2 446/2/2 448/2/2
f 447/3/2 448/3/2 449/3/2
f 449/3/2 448/3/2 450/3/2
f 449/2/2 450/2/2 451/2/2
f 451/2/2 450/2/2 452/2/2
f 451/3/2 452/3/2 453/3/2
f 453/3/2 452/3/2 454/3/2
f 453/2/2 454/2/2 455/2/2
f 455/2/2 454/2/2 456/2/2
f 455/3/2 456/3/2 457/3/2
f 457/3/2 456/3/2 458/3/2
f 457/2/2 458/2/2 459/2/2
f 459/2/2 458/2/2 460/2/2
f 459/3/2 460/3/2 461/3/2
f 461/3/2 460/3/2 462/3/2
f 461/2/2 462/2/2 463/2/2
f 463/2/2 462/2/2 464/2/2
f 463/3/2 464/3/2 465/3/2
f 465/3/2 464/3/2 466/3/2
f 469/3/3 468/3/3 467/3/3
f 470/3/3 468/3/3 469/3/3
f 471/2/3 470/2/3 469/2/3
f 472/2/3 470/2/3 471/2/3
f 473/3/3 472/3/3 471/3/3
f 474/3/3 472/3/3 473/3/3
f 475/2/3 474/2/3 473/2/3
f 476/2/3 474/2/3 475/2/3
f 477/3/3 476/3/3 475/3/3
f 478/3/3 476/3/3 477/3/3
f 479/2/3 478/2/3 477/2/3
f 480/2/3 478/2/3 479/2/3
f 482/3/3 480/3/3 479/3/3
f 482/3/3 481/3/3 480/3/3
f 483/3/3 481/3/3 482/3/3
f 485/2/3 483/2/3 482/2/3
f 486/3/3 484/3/3 483/3/3
f 486/2/3 483/2/3 485/2/3
f 487/3/3 484/3/3 486/3/3
f 521/3/3 486/3/3 485/3/3
f 522/3/3 486/3/3 521/3/3
f 523/3/3 486/3/3 522/3/3
f 524/2/3 523/2/3 522/2/3
f 525/3/3 486/3/3 523/3/3
f 525/2/3 523/2/3 524/2/3
f 526/2/3 487/2/3 486/2/3
f 526/3/3 486/3/3 525/3/3
f 527/3/3 488/3/3 487/3/3
f 527/2/3 487/2/3 526/2/3
f 528/2/3 489/2/3 488/2/3
f 528/3/3 488/3/3 527/3/3
f 529/3/3 490/3/3 489/3/3
f 529/2/3 489/2/3 528/2/3
f 530/2/3 491/2/3 490/2/3
f 530/3/3 490/3/3 529/3/3
f 531/3/3 492/3/3 491/3/3
f 531/2/3 491/2/3 530/2/3
f 532/2/3 493/2/3 492/2/3
f 532/3/3 492/3/3 531/3/3
f 533/3/3 494/3/3 493/3/3
f 533/2/3 493/2/3 532/2/3
f 534/2/3 495/2/3 494/2/3
f 534/3/3 494/3/3 533/3/3
f 535/3/3 496/3/3 495/3/3
f 535/2/3 495/2/3 534/2/3
f 536/2/3 497/2/3 496/2/3
f 536/3/3 496/3/3 535/3/3
f 537/3/3 498/3/3 497/3/3
f 537/2/3 497/2/3 536/2/3
f 538/2/3 499/2/3 498/2/3
f 538/3/3 498/3/3 537/3/3
f 539/3/3 500/3/3 499/3/3
f 539/2/3 499/2/3 538/2/3
f 540/2/3 501/2/3 500/2/3
f 540/3/3 500/3/3 539/3/3
f 541/3/3 502/3/3 501/3/3
f 541/2/3 501/2/3 540/2/3
f 542/2/3 503/2/3 502/2/3
f 542/3/3 502/3/3 541/3/3
f 543/3/3 504/3/3 503/3/3
f 543/2/3 503/2/3 542/2/3
f 544/2/3 505/2/3 504/2/3
f 544/3/3 504/3/3 543/3/3
f 545/3/3 506/3/3 505/3/3
f 545/2/3 505/2/3 544/2/3
f 546/2/3 507/2/3 506/2/3
f 546/3/3 506/3/3 545/3/3
f 547/3/3 508/3/3 507/3/3
f 547/2/3 507/2/3 546/2/3
f 548/2/3 509/2/3 508/2/3
f 548/3/3 508/3/3 547/3/3
f 549/3/3 510/3/3 509/3/3
f 549/2/3 509/2/3 548/2/3
f 550/2/3 511/2/3 510/2/3
f 550/3/3 510/3/3 549/3/3
f 551/3/3 512/3/3 511/3/3
f 551/2/3 511/2/3 550/2/3
f 552/2/3 513/2/3 512/2/3
f 552/3/3 512/3/3 551/3/3
f 553/3/3 514/3/3 513/3/3
f 553/2/3 513/2/3 552/2/3
f 554/2/3 515/2/3 514/2/3
f 554/3/3 514/3/3 553/3/3
f 555/3/3 516/3/3 515/3/3
f 555/2/3 515/2/3 554/2/3
f 556/2/3 517/2/3 516/2/3
f 556/3/3 516/3/3 555/3/3
f 557/3/3 518/3/3 517/3/3
f 557/2/3 517/2/3 556/2/3
f 558/2/3 519/2/3 518/2/3
f 558/3/3 518/3/3 557/3/3
f 559/3/3 520/3/3 519/3/3
f 559/2/3 519/2/3 558/2/3
f 560/3/3 520/3/3 559/3/3
f 565/3/3 562/3/3 561/3/3
f 566/3/3 562/3/3 565/3/3
f 567/3/3 564/3/3 563/3/3
f 568/3/3 564/3/3 567/3/3
f 569/2/3 566/2/3 565/2/3
f 570/2/3 566/2/3 569/2/3
f 571/2/3 568/2/3 567/2/3
f 572/2/3 568/2/3 571/2/3
f 573/3/3 570/3/3 569/3/3
f 574/3/3 570/3/3 573/3/3
f 575/3/3 572/3/3 571/3/3
f 576/3/3 572/3/3 575/3/3
f 577/2/3 574/2/3 573/2/3
f 578/2/3 574/2/3 577/2/3
f 579/2/3 576/2/3 575/2/3
f 580/2/3 576/2/3 579/2/3
f 581/3/3 578/3/3 577/3/3
f 582/3/3 578/3/3 581/3/3
f 583/3/3 580/3/3 579/3/3
f 584/3/3 580/3/3 583/3/3
f 585/2/3 582/2/3 581/2/3
f 586/2/3 582/2/3 585/2/3
f 587/2/3 584/2/3 583/2/3
f 588/2/3 584/2/3 587/2/3
f 590/3/3 586/3/3 585/3/3
f 591/3/3 586/3/3 590/3/3
f 592/3/3 589/3/3 588/3/3
f 593/3/3 589/3/3 592/3/3
f 627/2/3 591/2/3 590/2/3
f 628/2/3 591/2/3 627/2/3
f 629/3/3 594/3/3 593/3/3
f 630/2/3 595/2/3 594/2/3
f 630/3/3 594/3/3 629/3/3
f 631/3/3 596/3/3 595/3/3
f 631/2/3 595/2/3 630/2/3
f 632/2/3 597/2/3 596/2/3
f 632/3/3 596/3/3 631/3/3
f 633/3/3 598/3/3 597/3/3
f 633/2/3 597/2/3 632/2/3
f 634/2/3 599/2/3 598/2/3
f 634/3/3 598/3/3 633/3/3
f 635/3/3 600/3/3 599/3/3
f 635/2/3 599/2/3 634/2/3
f 636/2/3 601/2/3 600/2/3
f 636/3/3 600/3/3 635/3/3
f 637/3/3 602/3/3 601/3/3
f 637/2/3 601/2/3 636/2/3
f 638/2/3 603/2/3 602/2/3
f 638/3/3 602/3/3 637/3/3
f 639/3/3 604/3/3 603/3/3
f 639/2/3 603/2/3 638/2/3
f 640/2/3 605/2/3 604/2/3
f 640/3/3 604/3/3 639/3/3
f 641/3/3 606/3/3 605/3/3
f 641/2/3 605/2/3 640/2/3
f 642/2/3 607/2/3 606/2/3
f 642/3/3 606/3/3 641/3/3
f 643/3/3 608/3/3 607/3/3
f 643/2/3 607/2/3 642/2/3
f 644/2/3 609/2/3 608/2/3
f 644/3/3 608/3/3 643/3/3
f 645/3/3 610/3/3 609/3/3
f 645/2/3 609/2/3 644/2/3
f 646/2/3 611/2/3 610/2/3
f 646/3/3 610/3/3 645/3/3
f 647/3/3 612/3/3 611/3/3
f 647/2/3 611/2/3 646/2/3
f 648/2/3 613/2/3 612/2/3
f 648/3/3 612/3/3 647/3/3
f 649/3/3 614/3/3 613/3/3
f 649/2/3 613/2/3 648/2/3
f 650/2/3 615/2/3 614/2/3
f 650/3/3 614/3/3 649/3/3
f 651/3/3 616/3/3 615/3/3
f 651/2/3 615/2/3 650/2/3
f 652/2/3 617/2/3 616/2/3
f 652/3/3 616/3/3 651/3/3
f 653/3/3 618/3/3 617/3/3
f 653/2/3 617/2/3 652/2/3
f 654/2/3 619/2/3 618/2/3
f 654/3/3 618/3/3 653/3/3
f 655/3/3 620/3/3 619/3/3
f 655/2/3 619/2/3 654/2/3
f 656/2/3 621/2/3 620/2/3
f 656/3/3 620/3/3 655/3/3
f 657/3/3 622/3/3 621/3/3
f 657/2/3 621/2/3 656/2/3
f 658/2/3 623/2/3 622/2/3
f 658/3/3 622/3/3 657/3/3
f 659/3/3 624/3/3 623/3/3
f 659/2/3 623/2/3 658/2/3
f 660/2/3 625/2/3 624/2/3
f 660/3/3 624/3/3 659/3/3
f 661/3/3 626/3/3 625/3/3
f 661/2/3 625/2/3 660/2/3
f 662/3/3 626/3/3 661/3/3
f 663/3/3 628/3/3 627/3/3
f 664/3/3 628/3/3 663/3/3
f 666/2/3 665/2/3 664/2/3
f 667/2/3 665/2/3 666/2/3
f 704/2/3 668/2/3 667/2/3
f 705/3/3 669/3/3 668/3/3
f 705/2/3 668/2/3 704/2/3
f 706/2/3 670/2/3 669/2/3
f 706/3/3 669/3/3 705/3/3
f 707/3/3 671/3/3 670/3/3
f 707/2/3 670/2/3 706/2/3
f 708/2/3 672/2/3 671/2/3
f 708/3/3 671/3/3 707/3/3
f 709/3/3 673/3/3 672/3/3
f 709/2/3 672/2/3 708/2/3
f 710/2/3 674/2/3 673/2/3
f 710/3/3 673/3/3 709/3/3
f 711/3/3 675/3/3 674/3/3
f 711/2/3 674/2/3 710/2/3
f 712/2/3 676/2/3 675/2/3
f 712/3/3 675/3/3 711/3/3
f 713/3/3 677/3/3 676/3/3
f 713/2/3 676/2/3 712/2/3
f 714/2/3 678/2/3 677/2/3
f 714/3/3 677/3/3 713/3/3
f 715/3/3 679/3/3 678/3/3
f 715/2/3 678/2/3 714/2/3
f 716/2/3 680/2/3 679/2/3
f 716/3/3 679/3/3 715/3/3
f 717/3/3 681/3/3 680/3/3
f 717/2/3 680/2/3 716/2/3
f 718/2/3 682/2/3 681/2/3
f 718/3/3 681/3/3 717/3/3
f 719/3/3 683/3/3 682/3/3
f 719/2/3 682/2/3 718/2/3
f 720/2/3 684/2/3 683/2/3
f 720/3/3 683/3/3 719/3/3
f 721/3/3 685/3/3 684/3/3
f 721/2/3 684/2/3 720/2/3
f 722/2/3 686/2/3 685/2/3
f 722/3/3 685/3/3 721/3/3
f 723/3/3 687/3/3 686/3/3
f 723/2/3 686/2/3 722/2/3
f 724/2/3 688/2/3 687/2/3
f 724/3/3 687/3/3 723/3/3
f 725/3/3 689/3/3 688/3/3
f 725/2/3 688/2/3 724/2/3
f 726/2/3 690/2/3 689/2/3
f 726/3/3 689/3/3 725/3/3
f 727/3/3 691/3/3 690/3/3
f 727/2/3 690/2/3 726/2/3
f 728/2/3 692/2/3 691/2/3
f 728/3/3 691/3/3 727/3/3
f 729/3/3 693/3/3 692/3/3
f 729/2/3 692/2/3 728/2/3
f 730/2/3 694/2/3 693/2/3
f 730/3/3 693/3/3 729/3/3
f 731/3/3 695/3/3 694/3/3
f 731/2/3 694/2/3 730/2/3
f 732/2/3 696/2/3 695/2/3
f 732/3/3 695/3/3 731/3/3
f 733/3/3 697/3/3 696/3/3
f 733/2/3 696/2/3 732/2/3
f 734/2/3 698/2/3 697/2/3
f 734/3/3 697/3/3 733/3/3
f 735/3/3 699/3/3 698/3/3
f 735/2/3 698/2/3 734/2/3
f 736/2/3 700/2/3 699/2/3
f 736/3/3 699/3/3 735/3/3
f 737/3/3 701/3/3 700/3/3
f 737/2/3 700/2/3 736/2/3
f 738/2/3 702/2/3 701/2/3
f 738/3/3 701/3/3 737/3/3
f 739/3/3 703/3/3 702/3/3
f 739/2/3 702/2/3 738/2/3
f 740/3/3 703/3/3 739/3/3
f 741/3/4 742/3/4 745/3/4
f 745/3/4 742/3/4 746/3/4
f 743/3/4 744/3/4 747/3/4
f 747/3/4 744/3/4 748/3/4
f 745/2/4 746/2/4 749/2/4
f 749/2/4 746/2/4 750/2/4
f 747/2/4 748/2/4 751/2/4
f 751/2/4 748/2/4 752/2/4
f 749/3/4 750/3/4 753/3/4
f 753/3/4 750/3/4 754/3/4
f 751/3/4 752/3/4 755/3/4
f 755/3/4 752/3/4 756/3/4
f 753/2/4 754/2/4 757/2/4
f 757/2/4 754/2/4 758/2/4
f 755/2/4 756/2/4 759/2/4
f 759/2/4 756/2/4 760/2/4
f 757/3/4 758/3/4 761/3/4
f 761/3/4 758/3/4 762/3/4
f 759/3/4 760/3/4 763/3/4
f 763/3/4 760/3/4 764/3/4
f 761/2/4 762/2/4 765/2/4
f 765/2/4 762/2/4 766/2/4
f 763/2/4 764/2/4 767/2/4
f 767/2/4 764/2/4 768/2/4
f 765/3/4 766/3/4 770/3/4
f 770/3/4 766/3/4 771/3/4
f 768/3/4 769/3/4 772/3/4
f 772/3/4 769/3/4 773/3/4
f 770/2/4 771/2/4 807/2/4
f 807/2/4 771/2/4 808/2/4
f 773/3/4 774/3/4 809/3/4
f 774/2/4 775/2/4 810/2/4
f 809/3/4 774/3/4 810/3/4
f 775/3/4 776/3/4 811/3/4
f 810/2/4 775/2/4 811/2/4
f 776/2/4 777/2/4 812/2/4
f 811/3/4 776/3/4 812/3/4
f 777/3/4 778/3/4 813/3/4
f 812/2/4 777/2/4 813/2/4
f 778/2/4 779/2/4 814/2/4
f 813/3/4 778/3/4 814/3/4
f 779/3/4 780/3/4 815/3/4
f 814/2/4 779/2/4 815/2/4
f 780/2/4 781/2/4 816/2/4
f 815/3/4 780/3/4 816/3/4
f 781/3/4 782/3/4 817/3/4
f 816/2/4 781/2/4 817/2/4
f 782/2/4 783/2/4 818/2/4
f 817/3/4 782/3/4 818/3/4
f 783/3/4 784/3/4 819/3/4
f 818/2/4 783/2/4 819/2/4
f 784/2/4 785/2/4 820/2/4
f 819/3/4 784/3/4 820/3/4
f 785/3/4 786/3/4 821/3/4
f 820/2/4 785/2/4 821/2/4
f 786/2/4 787/2/4 822/2/4
f 821/3/4 786/3/4 822/3/4
f 787/3/4 788/3/4 823/3/4
f 822/2/4 787/2/4 823/2/4
f 788/2/4 789/2/4 824/2/4
f 823/3/4 788/3/4 824/3/4
f 789/3/4 790/3/4 825/3/4
f 824/2/4 789/2/4 825/2/4
f 790/2/4 791/2/4 826/2/4
f 825/3/4 790/3/4 826/3/4
f 791/3/4 792/3/4 827/3/4
f 826/2/4 791/2/4 827/2/4
f 792/2/4 793/2/4 828/2/4
f 827/3/4 792/3/4 828/3/4
f 793/3/4 794/3/4 829/3/4
f 828/2/4 793/2/4 829/2/4
f 794/2/4 795/2/4 830/2/4
f 829/3/4 794/3/4 830/3/4
f 795/3/4 796/3/4 831/3/4
f 830/2/4 795/2/4 831/2/4
f 796/2/4 797/2/4 832/2/4
f 831/3/4 796/3/4 832/3/4
f 797/3/4 798/3/4 833/3/4
f 832/2/4 797/2/4 833/2/4
f 798/2/4 799/2/4 834/2/4
f 833/3/4 798/3/4 834/3/4
f 799/3/4 800/3/4 835/3/4
f 834/2/4 799/2/4 835/2/4
f 800/2/4 801/2/4 836/2/4
f 835/3/4 800/3/4 836/3/4
f 801/3/4 802/3/4 837/3/4
f 836/2/4 801/2/4 837/2/4
f 802/2/4 803/2/4 838/2/4
f 837/3/4 802/3/4 838/3/4
f 803/3/4 804/3/4 839/3/4
f 838/2/4 803/2/4 839/2/4
f 804/2/4 805/2/4 840/2/4
f 839/3/4 804/3/4 840/3/4
f 805/3/4 806/3/4 841/3/4
f 840/2/4 805/2/4 841/2/4
f 841/3/4 806/3/4 842/3/4
f 807/3/4 808/3/4 843/3/4
f 843/3/4 808/3/4 844/3/4
f 844/2/4 845/2/4 846/2/4
f 846/2/4 845/2/4 847/2/4
f 847/2/4 848/2/4 884/2/4
f 848/3/4 849/3/4 885/3/4
f 884/2/4 848/2/4 885/2/4
f 849/2/4 850/2/4 886/2/4
f 885/3/4 849/3/4 886/3/4
f 850/3/4 851/3/4 887/3/4
f 886/2/4 850/2/4 887/2/4
f 851/2/4 852/2/4 888/2/4
f 887/3/4 851/3/4 888/3/4
f 852/3/4 853/3/4 889/3/4
f 888/2/4 852/2/4 889/2/4
f 853/2/4 854/2/4 890/2/4
f 889/3/4 853/3/4 890/3/4
f 854/3/4 855/3/4 891/3/4
f 890/2/4 854/2/4 891/2/4
f 855/2/4 856/2/4 892/2/4
f 891/3/4 855/3/4 892/3/4
f 856/3/4 857/3/4 893/3/4
f 892/2/4 856/2/4 893/2/4
f 857/2/4 858/2/4 894/2/4
f 893/3/4 857/3/4 894/3/4
f 858/3/4 859/3/4 895/3/4
f 894/2/4 858/2/4 895/2/4
f 859/2/4 860/2/4 896/2/4
f 895/3/4 859/3/4 896/3/4
f 860/3/4 861/3/4 897/3/4
f 896/2/4 860/2/4 897/2/4
f 861/2/4 862/2/4 898/2/4
f 897/3/4 861/3/4 898/3/4
f 862/3/4 863/3/4 899/3/4
f 898/2/4 862/2/4 899/2/4
f 863/2/4 864/2/4 900/2/4
f 899/3/4 863/3/4 900/3/4
f 864/3/4 865/3/4 901/3/4
f 900/2/4 864/2/4 901/2/4
f 865/2/4 866/2/4 902/2/4
f 901/3/4 865/3/4 902/3/4
f 866/3/4 867/3/4 903/3/4
f 902/2/4 866/2/4 903/2/4
f 867/2/4 868/2/4 904/2/4
f 903/3/4 867/3/4 904/3/4
f 868/3/4 869/3/4 905/3/4
f 904/2/4 868/2/4 905/2/4
f 869/2/4 870/2/4 906/2/4
f 905/3/4 869/3/4 906/3/4
f 870/3/4 871/3/4 907/3/4
f 906/2/4 870/2/4 907/2/4
f 871/2/4 872/2/4 908/2/4
f 907/3/4 871/3/4 908/3/4
f 872/3/4 873/3/4 909/3/4
f 908/2/4 872/2/4 909/2/4
f 873/2/4 874/2/4 910/2/4
f 909/3/4 873/3/4 910/3/4
f 874/3/4 875/3/4 911/3/4
f 910/2/4 874/2/4 911/2/4
f 875/2/4 876/2/4 912/2/4
f 911/3/4 875/3/4 912/3/4
f 876/3/4 877/3/4 913/3/4
f 912/2/4 876/2/4 913/2/4
f 877/2/4 878/2/4 914/2/4
f 913/3/4 877/3/4 914/3/4
f 878/3/4 879/3/4 915/3/4
f 914/2/4 878/2/4 915/2/4
f 879/2/4 880/2/4 916/2/4
f 915/3/4 879/3/4 916/3/4
f 880/3/4 881/3/4 917/3/4
f 916/2/4 880/2/4 917/2/4
f 881/2/4 882/2/4 918/2/4
f 917/3/4 881/3/4 918/3/4
f 882/3/4 883/3/4 919/3/4
f 918/2/4 882/2/4 919/2/4
f 919/3/4 883/3/4 920/3/4
f 921/3/4 922/3/4 923/3/4
f 923/3/4 922/3/4 924/3/4
f 923/2/4 924/2/4 925/2/4
f 925/2/4 924/2/4 926/2/4
f 925/3/4 926/3/4 927/3/4
f 927/3/4 926/3/4 928/3/4
f 927/2/4 928/2/4 929/2/4
f 929/2/4 928/2/4 930/2/4
f 929/3/4 930/3/4 931/3/4
f 931/3/4 930/3/4 932/3/4
f 931/2/4 932/2/4 933/2/4
f 933/2/4 932/2/4 934/2/4
f 933/3/4 934/3/4 936/3/4
f 934/3/4 935/3/4 936/3/4
f 936/3/4 935/3/4 937/3/4
f 936/2/4 937/2/4 939/2/4
f 937/3/4 938/3/4 940/3/4
f 939/2/4 937/2/4 940/2/4
f 940/3/4 938/3/4 941/3/4
f 939/3/4 940/3/4 975/3/4
f 975/3/4 940/3/4 976/3/4
f 976/3/4 940/3/4 977/3/4
f 976/2/4 977/2/4 978/2/4
f 977/3/4 940/3/4 979/3/4
f 978/2/4 977/2/4 979/2/4
f 940/2/4 941/2/4 980/2/4
f 979/3/4 940/3/4 980/3/4
f 941/3/4 942/3/4 981/3/4
f 980/2/4 941/2/4 981/2/4
f 942/2/4 943/2/4 982/2/4
f 981/3/4 942/3/4 982/3/4
f 943/3/4 944/3/4 983/3/4
f 982/2/4 943/2/4 983/2/4
f 944/2/4 945/2/4 984/2/4
f 983/3/4 944/3/4 984/3/4
f 945/3/4 946/3/4 985/3/4
f 984/2/4 945/2/4 985/2/4
f 946/2/4 947/2/4 986/2/4
f 985/3/4 946/3/4 986/3/4
f 947/3/4 948/3/4 987/3/4
f 986/2/4 947/2/4 987/2/4
f 948/2/4 949/2/4 988/2/4
f 987/3/4 948/3/4 988/3/4
f 949/3/4 950/3/4 989/3/4
f 988/2/4 949/2/4 989/2/4
f 950/2/4 951/2/4 990/2/4
f 989/3/4 950/3/4 990/3/4
f 951/3/4 952/3/4 991/3/4
f 990/2/4 951/2/4 991/2/4
f 952/2/4 953/2/4 992/2/4
f 991/3/4 952/3/4 992/3/4
f 953/3/4 954/3/4 993/3/4
f 992/2/4 953/2/4 993/2/4
f 954/2/4 955/2/4 994/2/4
f 993/3/4 954/3/4 994/3/4
f 955/3/4 956/3/4 995/3/4
f 994/2/4 955/2/4 995/2/4
f 956/2/4 957/2/4 996/2/4
f 995/3/4 956/3/4 996/3/4
f 957/3/4 958/3/4 997/3/4
f 996/2/4 957/2/4 997/2/4
f 958/2/4 959/2/4 998/2/4
f 997/3/4 958/3/4 998/3/4
f 959/3/4 960/3/4 999/3/4
f 998/2/4 959/2/4 999/2/4
f 960/2/4 961/2/4 1000/2/4
f 999/3/4 960/3/4 1000/3/4
f 961/3/4 962/3/4 1001/3/4
f 1000/2/4 961/2/4 1001/2/4
f 962/2/4 963/2/4 1002/2/4
f 1001/3/4 962/3/4 1002/3/4
f 963/3/4 964/3/4 1003/3/4
f 1002/2/4 963/2/4 1003/2/4
f 964/2/4 965/2/4 1004/2/4
f 1003/3/4 964/3/4 1004/3/4
f 965/3/4 966/3/4 1005/3/4
f 1004/2/4 965/2/4 1005/2/4
f 966/2/4 967/2/4 1006/2/4
f 1005/3/4 966/3/4 1006/3/4
f 967/3/4 968/3/4 1007/3/4
f 1006/2/4 967/2/4 1007/2/4
f 968/2/4 969/2/4 1008/2/4
f 1007/3/4 968/3/4 1008/3/4
f 969/3/4 970/3/4 1009/3/4
f 1008/2/4 969/2/4 1009/2/4
f 970/2/4 971/2/4 1010/2/4
f 1009/3/4 970/3/4 1010/3/4
f 971/3/4 972/3/4 1011/3/4
f 1010/2/4 971/2/4 1011/2/4
f 972/2/4 973/2/4 1012/2/4
f 1011/3/4 972/3/4 1012/3/4
f 973/3/4 974/3/4 1013/3/4
f 1012/2/4 973/2/4 1013/2/4
f 1013/3/4 974/3/4 1014/3/4
f 1025/3/5 1016/3/5 1015/3/5
f 1026/2/5 1017/2/5 1016/2/5
f 1026/3/5 1016/3/5 1025/3/5
f 1027/3/5 1018/3/5 1017/3/5
f 1027/2/5 1017/2/5 1026/2/5
f 1028/2/5 1019/2/5 1018/2/5
f 1028/3/5 1018/3/5 1027/3/5
f 1029/3/5 1020/3/5 1019/3/5
f 1029/2/5 1019/2/5 1028/2/5
f 1030/2/5 1021/2/5 1020/2/5
f 1030/3/5 1020/3/5 1029/3/5
f 1031/3/5 1022/3/5 1021/3/5
f 1031/2/5 1021/2/5 1030/2/5
f 1032/2/5 1023/2/5 1022/2/5
f 1032/3/5 1022/3/5 1031/3/5
f 1033/3/5 1024/3/5 1023/3/5
f 1033/2/5 1023/2/5 1032/2/5
f 1034/3/5 1024/3/5 1033/3/5
f 1045/3/5 1036/3/5 1035/3/5
f 1046/2/5 1037/2/5 1036/2/5
f 1046/3/5 1036/3/5 1045/3/5
f 1047/3/5 1038/3/5 1037/3/5
f 1047/2/5 1037/2/5 1046/2/5
f 1048/2/5 1039/2/5 1038/2/5
f 1048/3/5 1038/3/5 1047/3/5
f 1049/3/5 1040/3/5 1039/3/5
f 1049/2/5 1039/2/5 1048/2/5
f 1050/2/5 1041/2/5 1040/2/5
f 1050/3/5 1040/3/5 1049/3/5
f 1051/3/5 1042/3/5 1041/3/5
f 1051/2/5 1041/2/5 1050/2/5
f 1052/2/5 1043/2/5 1042/2/5
f 1052/3/5 1042/3/5 1051/3/5
f 1053/3/5 1044/3/5 1043/3/5
f 1053/2/5 1043/2/5 1052/2/5
f 1054/3/5 1044/3/5 1053/3/5
f 1065/2/5 1055/2/5 1054/2/5
f 1066/2/5 1055/2/5 1065/2/5
f 1067/3/5 1057/3/5 1056/3/5
f 1068/2/5 1058/2/5 1057/2/5
f 1068/3/5 1057/3/5 1067/3/5
f 1069/3/5 1059/3/5 1058/3/5
f 1069/2/5 1058/2/5 1068/2/5
f 1070/2/5 1060/2/5 1059/2/5
f 1070/3/5 1059/3/5 1069/3/5
f 1071/3/5 1061/3/5 1060/3/5
f 1071/2/5 1060/2/5 1070/2/5
f 1072/2/5 1062/2/5 1061/2/5
f 1072/3/5 1061/3/5 1071/3/5
f 1073/3/5 1063/3/5 1062/3/5
f 1073/2/5 1062/2/5 1072/2/5
f 1074/2/5 1064/2/5 1063/2/5
f 1074/3/5 1063/3/5 1073/3/5
f 1075/3/5 1065/3/5 1064/3/5
f 1075/2/5 1064/2/5 1074/2/5
f 1076/3/5 1065/3/5 1075/3/5
f 1079/2/5 1078/2/5 1077/2/5
f 1080/2/5 1078/2/5 1079/2/5
f 1083/2/5 1081/2/5 1080/2/5
f 1084/2/5 1081/2/5 1083/2/5
f 1085/2/5 1083/2/5 1082/2/5
f 1086/2/5 1083/2/5 1085/2/5
f 1087/3/6 1088/3/6 1094/3/6
f 1088/2/6 1089/2/6 1095/2/6
f 1094/3/6 1088/3/6 1095/3/6
f 1089/3/6 1090/3/6 1096/3/6
f 1095/2/6 1089/2/6 1096/2/6
f 1090/2/6 1091/2/6 1097/2/6
f 1096/3/6 1090/3/6 1097/3/6
f 1091/3/6 1092/3/6 1098/3/6
f 1097/2/6 1091/2/6 1098/2/6
f 1092/2/6 1093/2/6 1099/2/6
f 1098/3/6 1092/3/6 1099/3/6
f 1099/2/6 1093/2/6 1100/2/6
f 1101/3/6 1102/3/6 1108/3/6
f 1102/2/6 1103/2/6 1109/2/6
f 1108/3/6 1102/3/6 1109/3/6
f 1103/3/6 1104/3/6 1110/3/6
f 1109/2/6 1103/2/6 1110/2/6
f 1104/2/6 1105/2/6 1111/2/6
f 1110/3/6 1104/3/6 1111/3/6
f 1105/3/6 1106/3/6 1112/3/6
f 1111/2/6 1105/2/6 1112/2/6
f 1106/2/6 1107/2/6 1113/2/6
f 1112/3/6 1106/3/6 1113/3/6
f 1113/2/6 1107/2/6 1114/2/6
f 1115/3/6 1116/3/6 1123/3/6
f 1123/3/6 1116/3/6 1124/3/6
f 1117/3/6 1118/3/6 1125/3/6
f 1118/2/6 1119/2/6 1126/2/6
f 1125/3/6 1118/3/6 1126/3/6
f 1119/3/6 1120/3/6 1127/3/6
f 1126/2/6 1119/2/6 1127/2/6
f 1120/2/6 1121/2/6 1128/2/6
f 1127/3/6 1120/3/6 1128/3/6
f 1121/3/6 1122/3/6 1129/3/6
f 1128/2/6 1121/2/6 1129/2/6
f 1122/2/6 1123/2/6 1130/2/6
f 1129/3/6 1122/3/6 1130/3/6
f 1130/2/6 1123/2/6 1131/2/6
f 1131/3/6 1132/3/6 1133/3/6
f 1133/3/6 1132/3/6 1134/3/6
f 1135/3/6 1136/3/6 1138/3/6
f 1138/3/6 1136/3/6 1139/3/6
f 1137/3/6 1138/3/6 1140/3/6
f 1140/3/6 1138/3/6 1141/3/6
f 1141/3/6 1142/3/6 1143/3/6
f 1143/3/6 1142/3/6 1144/3/6
f 1145/3/6 1146/3/6 1148/3/6
f 1148/3/6 1146/3/6 1149/3/6
f 1147/3/6 1148/3/6 1151/3/6
f 1149/3/6 1150/3/6 1151/3/6
f 1148/3/6 1149/3/6 1151/3/6
f 1151/3/6 1150/3/6 1152/3/6
f 1152/3/6 1150/3/6 1153/3/6
f 1153/3/6 1150/3/6 1154/3/6
f 1152/3/6 1153/3/6 1155/3/6
f 1155/3/6 1153/3/6 1156/3/6
