# MagicaVoxel @ Ephtracy

# group
o 

# material
mtllib spaceship_inside-7.mtl
usemtl palette

# normals
vn -1 0 0
vn 1 0 0
vn 0 0 1
vn 0 0 -1
vn 0 -1 0
vn 0 1 0

# texcoords
vt 0.00585938 0.5
vt 0.00976563 0.5
vt 0.978516 0.5
vt 0.986328 0.5
vt 0.990234 0.5

# verts
v -0.55 -1.9 0.1
v -0.55 -1.9 -0.1
v -0.55 -1.8 0.2
v -0.55 -1.8 0.1
v -0.55 -1.8 -0.1
v -0.55 -1.8 -0.2
v -0.55 -1.6 0.2
v -0.55 -1.6 0.1
v -0.55 -1.6 -0.1
v -0.55 -1.6 -0.2
v -0.55 -1.5 0.1
v -0.55 -1.5 -0.1
v 0.05 -1.6 0.2
v 0.05 -1.6 0.1
v 0.05 -1.6 -0.1
v 0.05 -1.6 -0.2
v 0.05 -1.5 0.2
v 0.05 -1.5 0.1
v 0.05 -1.5 -0.1
v 0.05 -1.5 -0.2
v 0.05 -1.4 0.1
v 0.05 -1.4 -0.1
v 0.15 -1.5 0.2
v 0.15 -1.5 0.1
v 0.15 -1.5 -0.1
v 0.15 -1.5 -0.2
v 0.15 -1.4 0.2
v 0.15 -1.4 0.1
v 0.15 -1.4 -0.1
v 0.15 -1.4 -0.2
v 0.15 -1.3 0.1
v 0.15 -1.3 -0.1
v 0.15 -1.2 0.1
v 0.15 -1.2 -0.1
v 0.15 -1.1 0.1
v 0.15 -1.1 -0.1
v 0.15 -1 0.1
v 0.15 -1 -0.1
v 0.15 -0.9 0.1
v 0.15 -0.9 -0.1
v 0.15 -0.8 0.1
v 0.15 -0.8 -0.1
v 0.15 -0.7 0.1
v 0.15 -0.7 -0.1
v 0.15 -0.6 0.1
v 0.15 -0.6 -0.1
v 0.15 -0.5 0.1
v 0.15 -0.5 -0.1
v 0.15 -0.4 0.1
v 0.15 -0.4 -0.1
v 0.15 -0.3 0.1
v 0.15 -0.3 -0.1
v 0.15 -0.2 0.1
v 0.15 -0.2 -0.1
v 0.15 -0.1 0.1
v 0.15 -0.1 -0.1
v 0.15 0 0.1
v 0.15 0 -0.1
v 0.15 0.1 0.1
v 0.15 0.1 -0.1
v 0.15 0.2 0.1
v 0.15 0.2 -0.1
v 0.15 0.7 0.1
v 0.15 0.7 0
v 0.15 0.8 0.1
v 0.15 0.8 0
v 0.15 0.8 -0.1
v 0.15 0.9 0.1
v 0.15 0.9 0
v 0.15 0.9 -0.1
v 0.15 1 0.1
v 0.15 1 -0.1
v 0.15 1.1 0.1
v 0.15 1.1 -0.1
v 0.15 1.2 0.1
v 0.15 1.2 -0.1
v 0.15 1.3 0.1
v 0.15 1.3 -0.1
v 0.15 1.4 0.1
v 0.15 1.4 -0.1
v 0.15 1.5 0.1
v 0.15 1.5 -0.1
v 0.15 1.6 0.1
v 0.15 1.6 -0.1
v 0.15 1.7 0.1
v 0.15 1.7 -0.1
v 0.15 1.8 0.1
v 0.15 1.8 -0.1
v 0.15 1.9 0.1
v 0.15 1.9 -0.1
v 0.25 -1.4 0.2
v 0.25 -1.4 0.1
v 0.25 -1.4 -0.1
v 0.25 -1.4 -0.2
v 0.25 -1.3 0.2
v 0.25 -1.3 0.1
v 0.25 -1.3 -0.1
v 0.25 -1.3 -0.2
v 0.25 -1.2 0.2
v 0.25 -1.2 0.1
v 0.25 -1.2 -0.1
v 0.25 -1.2 -0.2
v 0.25 -1.1 0.2
v 0.25 -1.1 0.1
v 0.25 -1.1 -0.1
v 0.25 -1.1 -0.2
v 0.25 -1 0.2
v 0.25 -1 0.1
v 0.25 -1 -0.1
v 0.25 -1 -0.2
v 0.25 -0.9 0.2
v 0.25 -0.9 0.1
v 0.25 -0.9 -0.1
v 0.25 -0.9 -0.2
v 0.25 -0.8 0.2
v 0.25 -0.8 0.1
v 0.25 -0.8 -0.1
v 0.25 -0.8 -0.2
v 0.25 -0.7 0.2
v 0.25 -0.7 0.1
v 0.25 -0.7 -0.1
v 0.25 -0.7 -0.2
v 0.25 -0.6 0.2
v 0.25 -0.6 0.1
v 0.25 -0.6 -0.1
v 0.25 -0.6 -0.2
v 0.25 -0.5 0.2
v 0.25 -0.5 0.1
v 0.25 -0.5 -0.1
v 0.25 -0.5 -0.2
v 0.25 -0.4 0.2
v 0.25 -0.4 0.1
v 0.25 -0.4 -0.1
v 0.25 -0.4 -0.2
v 0.25 -0.3 0.2
v 0.25 -0.3 0.1
v 0.25 -0.3 -0.1
v 0.25 -0.3 -0.2
v 0.25 -0.2 0.2
v 0.25 -0.2 0.1
v 0.25 -0.2 -0.1
v 0.25 -0.2 -0.2
v 0.25 -0.1 0.2
v 0.25 -0.1 0.1
v 0.25 -0.1 -0.1
v 0.25 -0.1 -0.2
v 0.25 0 0.2
v 0.25 0 0.1
v 0.25 0 -0.1
v 0.25 0 -0.2
v 0.25 0.1 0.2
v 0.25 0.1 0.1
v 0.25 0.1 -0.1
v 0.25 0.1 -0.2
v 0.25 0.2 0.2
v 0.25 0.2 0.1
v 0.25 0.2 -0.1
v 0.25 0.6 0.2
v 0.25 0.6 0.1
v 0.25 0.7 0.2
v 0.25 0.7 0.1
v 0.25 0.7 -0.1
v 0.25 0.7 -0.2
v 0.25 0.8 0.2
v 0.25 0.8 0.1
v 0.25 0.8 -0.1
v 0.25 0.9 0.2
v 0.25 0.9 0.1
v 0.25 0.9 -0.1
v 0.25 0.9 -0.2
v 0.25 1 0.2
v 0.25 1 0.1
v 0.25 1 -0.1
v 0.25 1 -0.2
v 0.25 1.1 0.2
v 0.25 1.1 0.1
v 0.25 1.1 -0.1
v 0.25 1.1 -0.2
v 0.25 1.2 0.2
v 0.25 1.2 0.1
v 0.25 1.2 -0.1
v 0.25 1.2 -0.2
v 0.25 1.3 0.2
v 0.25 1.3 0.1
v 0.25 1.3 -0.1
v 0.25 1.3 -0.2
v 0.25 1.4 0.2
v 0.25 1.4 0.1
v 0.25 1.4 -0.1
v 0.25 1.4 -0.2
v 0.25 1.5 0.2
v 0.25 1.5 0.1
v 0.25 1.5 -0.1
v 0.25 1.5 -0.2
v 0.25 1.6 0.2
v 0.25 1.6 0.1
v 0.25 1.6 -0.1
v 0.25 1.6 -0.2
v 0.25 1.7 0.2
v 0.25 1.7 0.1
v 0.25 1.7 -0.1
v 0.25 1.7 -0.2
v 0.25 1.8 0.2
v 0.25 1.8 0.1
v 0.25 1.8 -0.1
v 0.25 1.8 -0.2
v 0.25 1.9 0.2
v 0.25 1.9 0.1
v 0.25 1.9 -0.1
v 0.25 1.9 -0.2
v 0.35 -1.9 0.1
v 0.35 -1.9 -0.1
v 0.35 -1.8 0.2
v 0.35 -1.8 0.1
v 0.35 -1.8 -0.1
v 0.35 -1.8 -0.2
v 0.35 -1.7 0.2
v 0.35 -1.7 0.1
v 0.35 -1.7 -0.1
v 0.35 -1.7 -0.2
v 0.45 -1.8 0.1
v 0.45 -1.8 -0.1
v 0.45 -1.7 0.2
v 0.45 -1.7 0.1
v 0.45 -1.7 -0.1
v 0.45 -1.7 -0.2
v 0.45 -1.6 0.2
v 0.45 -1.6 0.1
v 0.45 -1.6 -0.1
v 0.45 -1.6 -0.2
v 0.45 -1.5 0.2
v 0.45 -1.5 0.1
v 0.45 -1.5 -0.1
v 0.45 -1.5 -0.2
v 0.45 -1.4 0.2
v 0.45 -1.4 0.1
v 0.45 -1.4 -0.1
v 0.45 -1.4 -0.2
v 0.45 -1.3 0.2
v 0.45 -1.3 0.1
v 0.45 -1.3 -0.1
v 0.45 -1.3 -0.2
v 0.45 -1.2 0.2
v 0.45 -1.2 0.1
v 0.45 -1.2 -0.1
v 0.45 -1.2 -0.2
v 0.45 -1.1 0.2
v 0.45 -1.1 0.1
v 0.45 -1.1 -0.1
v 0.45 -1.1 -0.2
v 0.45 -1 0.2
v 0.45 -1 0.1
v 0.45 -1 -0.1
v 0.45 -1 -0.2
v 0.45 -0.9 0.2
v 0.45 -0.9 0.1
v 0.45 -0.9 -0.1
v 0.45 -0.9 -0.2
v 0.45 -0.8 0.2
v 0.45 -0.8 0.1
v 0.45 -0.8 -0.1
v 0.45 -0.8 -0.2
v 0.45 -0.7 0.2
v 0.45 -0.7 0.1
v 0.45 -0.7 -0.1
v 0.45 -0.7 -0.2
v 0.45 -0.6 0.2
v 0.45 -0.6 0.1
v 0.45 -0.6 -0.1
v 0.45 -0.6 -0.2
v 0.45 -0.5 0.2
v 0.45 -0.5 0.1
v 0.45 -0.5 -0.1
v 0.45 -0.5 -0.2
v 0.45 -0.4 0.2
v 0.45 -0.4 0.1
v 0.45 -0.4 -0.1
v 0.45 -0.4 -0.2
v 0.45 -0.3 0.2
v 0.45 -0.3 0.1
v 0.45 -0.3 -0.1
v 0.45 -0.3 -0.2
v 0.45 -0.2 0.2
v 0.45 -0.2 0.1
v 0.45 -0.2 -0.1
v 0.45 -0.2 -0.2
v 0.45 -0.1 0.2
v 0.45 -0.1 0.1
v 0.45 -0.1 -0.1
v 0.45 -0.1 -0.2
v 0.45 0 0.2
v 0.45 0 0.1
v 0.45 0 -0.1
v 0.45 0 -0.2
v 0.45 0.1 0.2
v 0.45 0.1 0.1
v 0.45 0.2 0.2
v 0.45 0.2 0.1
v 0.45 0.5 0.1
v 0.45 0.5 -0.1
v 0.45 0.6 0.2
v 0.45 0.6 0.1
v 0.45 0.6 -0.1
v 0.45 0.6 -0.2
v 0.45 0.7 0.2
v 0.45 0.7 0.1
v 0.45 0.7 -0.1
v 0.45 0.7 -0.2
v 0.45 0.8 0.2
v 0.45 0.8 0.1
v 0.45 0.8 -0.1
v 0.45 0.8 -0.2
v 0.45 0.9 0.2
v 0.45 0.9 0.1
v 0.45 0.9 -0.1
v 0.45 0.9 -0.2
v 0.45 1 0.2
v 0.45 1 0.1
v 0.45 1 -0.1
v 0.45 1 -0.2
v 0.45 1.1 0.2
v 0.45 1.1 0.1
v 0.45 1.1 -0.1
v 0.45 1.1 -0.2
v 0.45 1.2 0.2
v 0.45 1.2 0.1
v 0.45 1.2 -0.1
v 0.45 1.2 -0.2
v 0.45 1.3 0.2
v 0.45 1.3 0.1
v 0.45 1.3 -0.1
v 0.45 1.3 -0.2
v 0.45 1.4 0.2
v 0.45 1.4 0.1
v 0.45 1.4 -0.1
v 0.45 1.4 -0.2
v 0.45 1.5 0.2
v 0.45 1.5 0.1
v 0.45 1.5 -0.1
v 0.45 1.5 -0.2
v 0.45 1.6 0.2
v 0.45 1.6 0.1
v 0.45 1.6 -0.1
v 0.45 1.6 -0.2
v 0.45 1.7 0.2
v 0.45 1.7 0.1
v 0.45 1.7 -0.1
v 0.45 1.7 -0.2
v 0.45 1.8 0.2
v 0.45 1.8 0.1
v 0.45 1.8 -0.1
v 0.45 1.8 -0.2
v 0.45 1.9 0.2
v 0.45 1.9 0.1
v 0.45 1.9 -0.1
v 0.45 1.9 -0.2
v 0.55 -1.7 0.1
v 0.55 -1.7 -0.1
v 0.55 -1.6 0.1
v 0.55 -1.6 -0.1
v 0.55 -1.5 0.1
v 0.55 -1.5 -0.1
v 0.55 -1.4 0.1
v 0.55 -1.4 -0.1
v 0.55 -1.3 0.1
v 0.55 -1.3 -0.1
v 0.55 -1.2 0.1
v 0.55 -1.2 -0.1
v 0.55 -1.1 0.1
v 0.55 -1.1 -0.1
v 0.55 -1 0.1
v 0.55 -1 -0.1
v 0.55 -0.9 0.1
v 0.55 -0.9 -0.1
v 0.55 -0.8 0.1
v 0.55 -0.8 -0.1
v 0.55 -0.7 0.1
v 0.55 -0.7 -0.1
v 0.55 -0.6 0.1
v 0.55 -0.6 -0.1
v 0.55 -0.5 0.1
v 0.55 -0.5 -0.1
v 0.55 -0.4 0.1
v 0.55 -0.4 -0.1
v 0.55 -0.3 0.1
v 0.55 -0.3 -0.1
v 0.55 -0.2 0.1
v 0.55 -0.2 -0.1
v 0.55 -0.1 0.1
v 0.55 -0.1 0
v 0.55 -0.1 -0.1
v 0.55 0 0.1
v 0.55 0 0
v 0.55 0 -0.1
v 0.55 0.1 0.1
v 0.55 0.1 0
v 0.55 0.5 0.1
v 0.55 0.5 -0.1
v 0.55 0.6 0.1
v 0.55 0.6 -0.1
v 0.55 0.7 0.1
v 0.55 0.7 -0.1
v 0.55 0.8 0.1
v 0.55 0.8 -0.1
v 0.55 0.9 0.1
v 0.55 0.9 -0.1
v 0.55 1 0.1
v 0.55 1 -0.1
v 0.55 1.1 0.1
v 0.55 1.1 -0.1
v 0.55 1.2 0.1
v 0.55 1.2 -0.1
v 0.55 1.3 0.1
v 0.55 1.3 -0.1
v 0.55 1.4 0.1
v 0.55 1.4 -0.1
v 0.55 1.5 0.1
v 0.55 1.5 -0.1
v 0.55 1.6 0.1
v 0.55 1.6 -0.1
v 0.55 1.7 0.1
v 0.55 1.7 -0.1
v 0.55 1.8 0.1
v 0.55 1.8 -0.1
v 0.55 1.9 0.1
v 0.55 1.9 -0.1
v -0.55 -1.8 0.2
v -0.55 -1.6 0.2
v -0.45 -1.8 0.2
v -0.45 -1.6 0.2
v -0.35 -1.8 0.2
v -0.35 -1.6 0.2
v -0.25 -1.8 0.2
v -0.25 -1.6 0.2
v -0.15 -1.8 0.2
v -0.15 -1.6 0.2
v -0.05 -1.8 0.2
v -0.05 -1.6 0.2
v 0.05 -1.8 0.2
v 0.05 -1.6 0.2
v 0.05 -1.5 0.2
v 0.15 -1.8 0.2
v 0.15 -1.5 0.2
v 0.15 -1.4 0.2
v 0.25 -1.8 0.2
v 0.25 -1.5 0.2
v 0.25 -1.4 0.2
v 0.25 -1.3 0.2
v 0.25 -1.2 0.2
v 0.25 -1.1 0.2
v 0.25 -1 0.2
v 0.25 -0.9 0.2
v 0.25 -0.8 0.2
v 0.25 -0.7 0.2
v 0.25 -0.6 0.2
v 0.25 -0.5 0.2
v 0.25 -0.4 0.2
v 0.25 -0.3 0.2
v 0.25 -0.2 0.2
v 0.25 -0.1 0.2
v 0.25 0 0.2
v 0.25 0.1 0.2
v 0.25 0.2 0.2
v 0.25 0.6 0.2
v 0.25 0.7 0.2
v 0.25 0.8 0.2
v 0.25 0.9 0.2
v 0.25 1 0.2
v 0.25 1.1 0.2
v 0.25 1.2 0.2
v 0.25 1.3 0.2
v 0.25 1.4 0.2
v 0.25 1.5 0.2
v 0.25 1.6 0.2
v 0.25 1.7 0.2
v 0.25 1.8 0.2
v 0.25 1.9 0.2
v 0.35 -1.8 0.2
v 0.35 -1.7 0.2
v 0.35 -1.6 0.2
v 0.45 -1.7 0.2
v 0.45 -1.6 0.2
v 0.45 -1.5 0.2
v 0.45 -1.4 0.2
v 0.45 -1.3 0.2
v 0.45 -1.2 0.2
v 0.45 -1.1 0.2
v 0.45 -1 0.2
v 0.45 -0.9 0.2
v 0.45 -0.8 0.2
v 0.45 -0.7 0.2
v 0.45 -0.6 0.2
v 0.45 -0.5 0.2
v 0.45 -0.4 0.2
v 0.45 -0.3 0.2
v 0.45 -0.2 0.2
v 0.45 -0.1 0.2
v 0.45 0 0.2
v 0.45 0.1 0.2
v 0.45 0.2 0.2
v 0.45 0.6 0.2
v 0.45 0.7 0.2
v 0.45 0.8 0.2
v 0.45 0.9 0.2
v 0.45 1 0.2
v 0.45 1.1 0.2
v 0.45 1.2 0.2
v 0.45 1.3 0.2
v 0.45 1.4 0.2
v 0.45 1.5 0.2
v 0.45 1.6 0.2
v 0.45 1.7 0.2
v 0.45 1.8 0.2
v 0.45 1.9 0.2
v -0.55 -1.9 0.1
v -0.55 -1.8 0.1
v -0.55 -1.6 0.1
v -0.55 -1.5 0.1
v -0.45 -1.9 0.1
v -0.45 -1.8 0.1
v -0.45 -1.6 0.1
v -0.45 -1.5 0.1
v -0.35 -1.9 0.1
v -0.35 -1.8 0.1
v -0.35 -1.6 0.1
v -0.35 -1.5 0.1
v -0.25 -1.9 0.1
v -0.25 -1.8 0.1
v -0.25 -1.6 0.1
v -0.25 -1.5 0.1
v -0.15 -1.9 0.1
v -0.15 -1.8 0.1
v -0.15 -1.6 0.1
v -0.15 -1.5 0.1
v -0.05 -1.9 0.1
v -0.05 -1.8 0.1
v -0.05 -1.6 0.1
v -0.05 -1.5 0.1
v 0.05 -1.9 0.1
v 0.05 -1.8 0.1
v 0.05 -1.6 0.1
v 0.05 -1.5 0.1
v 0.05 -1.4 0.1
v 0.15 -1.9 0.1
v 0.15 -1.8 0.1
v 0.15 -1.5 0.1
v 0.15 -1.4 0.1
v 0.15 -1.3 0.1
v 0.15 -1.2 0.1
v 0.15 -1.1 0.1
v 0.15 -1 0.1
v 0.15 -0.9 0.1
v 0.15 -0.8 0.1
v 0.15 -0.7 0.1
v 0.15 -0.6 0.1
v 0.15 -0.5 0.1
v 0.15 -0.4 0.1
v 0.15 -0.3 0.1
v 0.15 -0.2 0.1
v 0.15 -0.1 0.1
v 0.15 0 0.1
v 0.15 0.1 0.1
v 0.15 0.2 0.1
v 0.15 0.7 0.1
v 0.15 0.8 0.1
v 0.15 0.9 0.1
v 0.15 1 0.1
v 0.15 1.1 0.1
v 0.15 1.2 0.1
v 0.15 1.3 0.1
v 0.15 1.4 0.1
v 0.15 1.5 0.1
v 0.15 1.6 0.1
v 0.15 1.7 0.1
v 0.15 1.8 0.1
v 0.15 1.9 0.1
v 0.25 -1.9 0.1
v 0.25 -1.8 0.1
v 0.25 -1.4 0.1
v 0.25 -1.3 0.1
v 0.25 -1.2 0.1
v 0.25 -1.1 0.1
v 0.25 -1 0.1
v 0.25 -0.9 0.1
v 0.25 -0.8 0.1
v 0.25 -0.7 0.1
v 0.25 -0.6 0.1
v 0.25 -0.5 0.1
v 0.25 -0.4 0.1
v 0.25 -0.3 0.1
v 0.25 -0.2 0.1
v 0.25 -0.1 0.1
v 0.25 0 0.1
v 0.25 0.1 0.1
v 0.25 0.2 0.1
v 0.25 0.6 0.1
v 0.25 0.7 0.1
v 0.25 0.8 0.1
v 0.25 0.9 0.1
v 0.25 1 0.1
v 0.25 1.1 0.1
v 0.25 1.2 0.1
v 0.25 1.3 0.1
v 0.25 1.4 0.1
v 0.25 1.5 0.1
v 0.25 1.6 0.1
v 0.25 1.7 0.1
v 0.25 1.8 0.1
v 0.25 1.9 0.1
v 0.35 -1.9 0.1
v 0.35 -1.8 0.1
v 0.35 -1.7 0.1
v 0.45 -1.8 0.1
v 0.45 -1.7 0.1
v 0.45 -1.6 0.1
v 0.45 -1.5 0.1
v 0.45 -1.4 0.1
v 0.45 -1.3 0.1
v 0.45 -1.2 0.1
v 0.45 -1.1 0.1
v 0.45 -1 0.1
v 0.45 -0.9 0.1
v 0.45 -0.8 0.1
v 0.45 -0.7 0.1
v 0.45 -0.6 0.1
v 0.45 -0.5 0.1
v 0.45 -0.4 0.1
v 0.45 -0.3 0.1
v 0.45 -0.2 0.1
v 0.45 -0.1 0.1
v 0.45 0 0.1
v 0.45 0.1 0.1
v 0.45 0.2 0.1
v 0.45 0.5 0.1
v 0.45 0.6 0.1
v 0.45 0.7 0.1
v 0.45 0.8 0.1
v 0.45 0.9 0.1
v 0.45 1 0.1
v 0.45 1.1 0.1
v 0.45 1.2 0.1
v 0.45 1.3 0.1
v 0.45 1.4 0.1
v 0.45 1.5 0.1
v 0.45 1.6 0.1
v 0.45 1.7 0.1
v 0.45 1.8 0.1
v 0.45 1.9 0.1
v 0.55 -1.7 0.1
v 0.55 -1.6 0.1
v 0.55 -1.5 0.1
v 0.55 -1.4 0.1
v 0.55 -1.3 0.1
v 0.55 -1.2 0.1
v 0.55 -1.1 0.1
v 0.55 -1 0.1
v 0.55 -0.9 0.1
v 0.55 -0.8 0.1
v 0.55 -0.7 0.1
v 0.55 -0.6 0.1
v 0.55 -0.5 0.1
v 0.55 -0.4 0.1
v 0.55 -0.3 0.1
v 0.55 -0.2 0.1
v 0.55 -0.1 0.1
v 0.55 0 0.1
v 0.55 0.1 0.1
v 0.55 0.5 0.1
v 0.55 0.6 0.1
v 0.55 0.7 0.1
v 0.55 0.8 0.1
v 0.55 0.9 0.1
v 0.55 1 0.1
v 0.55 1.1 0.1
v 0.55 1.2 0.1
v 0.55 1.3 0.1
v 0.55 1.4 0.1
v 0.55 1.5 0.1
v 0.55 1.6 0.1
v 0.55 1.7 0.1
v 0.55 1.8 0.1
v 0.55 1.9 0.1
v -0.55 -1.9 -0.1
v -0.55 -1.8 -0.1
v -0.55 -1.6 -0.1
v -0.55 -1.5 -0.1
v -0.45 -1.9 -0.1
v -0.45 -1.8 -0.1
v -0.45 -1.6 -0.1
v -0.45 -1.5 -0.1
v -0.35 -1.9 -0.1
v -0.35 -1.8 -0.1
v -0.35 -1.6 -0.1
v -0.35 -1.5 -0.1
v -0.25 -1.9 -0.1
v -0.25 -1.8 -0.1
v -0.25 -1.6 -0.1
v -0.25 -1.5 -0.1
v -0.15 -1.9 -0.1
v -0.15 -1.8 -0.1
v -0.15 -1.6 -0.1
v -0.15 -1.5 -0.1
v -0.05 -1.9 -0.1
v -0.05 -1.8 -0.1
v -0.05 -1.6 -0.1
v -0.05 -1.5 -0.1
v 0.05 -1.9 -0.1
v 0.05 -1.8 -0.1
v 0.05 -1.6 -0.1
v 0.05 -1.5 -0.1
v 0.05 -1.4 -0.1
v 0.15 -1.9 -0.1
v 0.15 -1.8 -0.1
v 0.15 -1.5 -0.1
v 0.15 -1.4 -0.1
v 0.15 -1.3 -0.1
v 0.15 -1.2 -0.1
v 0.15 -1.1 -0.1
v 0.15 -1 -0.1
v 0.15 -0.9 -0.1
v 0.15 -0.8 -0.1
v 0.15 -0.7 -0.1
v 0.15 -0.6 -0.1
v 0.15 -0.5 -0.1
v 0.15 -0.4 -0.1
v 0.15 -0.3 -0.1
v 0.15 -0.2 -0.1
v 0.15 -0.1 -0.1
v 0.15 0 -0.1
v 0.15 0.1 -0.1
v 0.15 0.2 -0.1
v 0.15 0.8 -0.1
v 0.15 0.9 -0.1
v 0.15 1 -0.1
v 0.15 1.1 -0.1
v 0.15 1.2 -0.1
v 0.15 1.3 -0.1
v 0.15 1.4 -0.1
v 0.15 1.5 -0.1
v 0.15 1.6 -0.1
v 0.15 1.7 -0.1
v 0.15 1.8 -0.1
v 0.15 1.9 -0.1
v 0.25 -1.9 -0.1
v 0.25 -1.8 -0.1
v 0.25 -1.4 -0.1
v 0.25 -1.3 -0.1
v 0.25 -1.2 -0.1
v 0.25 -1.1 -0.1
v 0.25 -1 -0.1
v 0.25 -0.9 -0.1
v 0.25 -0.8 -0.1
v 0.25 -0.7 -0.1
v 0.25 -0.6 -0.1
v 0.25 -0.5 -0.1
v 0.25 -0.4 -0.1
v 0.25 -0.3 -0.1
v 0.25 -0.2 -0.1
v 0.25 -0.1 -0.1
v 0.25 0 -0.1
v 0.25 0.1 -0.1
v 0.25 0.2 -0.1
v 0.25 0.7 -0.1
v 0.25 0.8 -0.1
v 0.25 0.9 -0.1
v 0.25 1 -0.1
v 0.25 1.1 -0.1
v 0.25 1.2 -0.1
v 0.25 1.3 -0.1
v 0.25 1.4 -0.1
v 0.25 1.5 -0.1
v 0.25 1.6 -0.1
v 0.25 1.7 -0.1
v 0.25 1.8 -0.1
v 0.25 1.9 -0.1
v 0.35 -1.9 -0.1
v 0.35 -1.8 -0.1
v 0.35 -1.7 -0.1
v 0.45 -1.8 -0.1
v 0.45 -1.7 -0.1
v 0.45 -1.6 -0.1
v 0.45 -1.5 -0.1
v 0.45 -1.4 -0.1
v 0.45 -1.3 -0.1
v 0.45 -1.2 -0.1
v 0.45 -1.1 -0.1
v 0.45 -1 -0.1
v 0.45 -0.9 -0.1
v 0.45 -0.8 -0.1
v 0.45 -0.7 -0.1
v 0.45 -0.6 -0.1
v 0.45 -0.5 -0.1
v 0.45 -0.4 -0.1
v 0.45 -0.3 -0.1
v 0.45 -0.2 -0.1
v 0.45 -0.1 -0.1
v 0.45 0 -0.1
v 0.45 0.5 -0.1
v 0.45 0.6 -0.1
v 0.45 0.7 -0.1
v 0.45 0.8 -0.1
v 0.45 0.9 -0.1
v 0.45 1 -0.1
v 0.45 1.1 -0.1
v 0.45 1.2 -0.1
v 0.45 1.3 -0.1
v 0.45 1.4 -0.1
v 0.45 1.5 -0.1
v 0.45 1.6 -0.1
v 0.45 1.7 -0.1
v 0.45 1.8 -0.1
v 0.45 1.9 -0.1
v 0.55 -1.7 -0.1
v 0.55 -1.6 -0.1
v 0.55 -1.5 -0.1
v 0.55 -1.4 -0.1
v 0.55 -1.3 -0.1
v 0.55 -1.2 -0.1
v 0.55 -1.1 -0.1
v 0.55 -1 -0.1
v 0.55 -0.9 -0.1
v 0.55 -0.8 -0.1
v 0.55 -0.7 -0.1
v 0.55 -0.6 -0.1
v 0.55 -0.5 -0.1
v 0.55 -0.4 -0.1
v 0.55 -0.3 -0.1
v 0.55 -0.2 -0.1
v 0.55 -0.1 -0.1
v 0.55 0 -0.1
v 0.55 0.5 -0.1
v 0.55 0.6 -0.1
v 0.55 0.7 -0.1
v 0.55 0.8 -0.1
v 0.55 0.9 -0.1
v 0.55 1 -0.1
v 0.55 1.1 -0.1
v 0.55 1.2 -0.1
v 0.55 1.3 -0.1
v 0.55 1.4 -0.1
v 0.55 1.5 -0.1
v 0.55 1.6 -0.1
v 0.55 1.7 -0.1
v 0.55 1.8 -0.1
v 0.55 1.9 -0.1
v -0.55 -1.8 -0.2
v -0.55 -1.6 -0.2
v -0.45 -1.8 -0.2
v -0.45 -1.6 -0.2
v -0.35 -1.8 -0.2
v -0.35 -1.6 -0.2
v -0.25 -1.8 -0.2
v -0.25 -1.6 -0.2
v -0.15 -1.8 -0.2
v -0.15 -1.6 -0.2
v -0.05 -1.8 -0.2
v -0.05 -1.6 -0.2
v 0.05 -1.8 -0.2
v 0.05 -1.6 -0.2
v 0.05 -1.5 -0.2
v 0.15 -1.8 -0.2
v 0.15 -1.5 -0.2
v 0.15 -1.4 -0.2
v 0.25 -1.8 -0.2
v 0.25 -1.5 -0.2
v 0.25 -1.4 -0.2
v 0.25 -1.3 -0.2
v 0.25 -1.2 -0.2
v 0.25 -1.1 -0.2
v 0.25 -1 -0.2
v 0.25 -0.9 -0.2
v 0.25 -0.8 -0.2
v 0.25 -0.7 -0.2
v 0.25 -0.6 -0.2
v 0.25 -0.5 -0.2
v 0.25 -0.4 -0.2
v 0.25 -0.3 -0.2
v 0.25 -0.2 -0.2
v 0.25 -0.1 -0.2
v 0.25 0 -0.2
v 0.25 0.1 -0.2
v 0.25 0.7 -0.2
v 0.25 0.9 -0.2
v 0.25 1 -0.2
v 0.25 1.1 -0.2
v 0.25 1.2 -0.2
v 0.25 1.3 -0.2
v 0.25 1.4 -0.2
v 0.25 1.5 -0.2
v 0.25 1.6 -0.2
v 0.25 1.7 -0.2
v 0.25 1.8 -0.2
v 0.25 1.9 -0.2
v 0.35 -1.8 -0.2
v 0.35 -1.7 -0.2
v 0.35 -1.6 -0.2
v 0.35 -0.1 -0.2
v 0.35 0 -0.2
v 0.35 0.1 -0.2
v 0.35 0.6 -0.2
v 0.35 0.7 -0.2
v 0.35 0.8 -0.2
v 0.35 0.9 -0.2
v 0.45 -1.7 -0.2
v 0.45 -1.6 -0.2
v 0.45 -1.5 -0.2
v 0.45 -1.4 -0.2
v 0.45 -1.3 -0.2
v 0.45 -1.2 -0.2
v 0.45 -1.1 -0.2
v 0.45 -1 -0.2
v 0.45 -0.9 -0.2
v 0.45 -0.8 -0.2
v 0.45 -0.7 -0.2
v 0.45 -0.6 -0.2
v 0.45 -0.5 -0.2
v 0.45 -0.4 -0.2
v 0.45 -0.3 -0.2
v 0.45 -0.2 -0.2
v 0.45 -0.1 -0.2
v 0.45 0 -0.2
v 0.45 0.6 -0.2
v 0.45 0.7 -0.2
v 0.45 0.8 -0.2
v 0.45 0.9 -0.2
v 0.45 1 -0.2
v 0.45 1.1 -0.2
v 0.45 1.2 -0.2
v 0.45 1.3 -0.2
v 0.45 1.4 -0.2
v 0.45 1.5 -0.2
v 0.45 1.6 -0.2
v 0.45 1.7 -0.2
v 0.45 1.8 -0.2
v 0.45 1.9 -0.2
v -0.55 -1.9 0.1
v -0.45 -1.9 0.1
v -0.35 -1.9 0.1
v -0.25 -1.9 0.1
v -0.15 -1.9 0.1
v -0.05 -1.9 0.1
v 0.05 -1.9 0.1
v 0.15 -1.9 0.1
v 0.25 -1.9 0.1
v 0.35 -1.9 0.1
v -0.55 -1.9 -0.1
v -0.45 -1.9 -0.1
v -0.35 -1.9 -0.1
v -0.25 -1.9 -0.1
v -0.15 -1.9 -0.1
v -0.05 -1.9 -0.1
v 0.05 -1.9 -0.1
v 0.15 -1.9 -0.1
v 0.25 -1.9 -0.1
v 0.35 -1.9 -0.1
v -0.55 -1.8 0.2
v -0.45 -1.8 0.2
v -0.35 -1.8 0.2
v -0.25 -1.8 0.2
v -0.15 -1.8 0.2
v -0.05 -1.8 0.2
v 0.05 -1.8 0.2
v 0.15 -1.8 0.2
v 0.25 -1.8 0.2
v 0.35 -1.8 0.2
v -0.55 -1.8 0.1
v -0.45 -1.8 0.1
v -0.35 -1.8 0.1
v -0.25 -1.8 0.1
v -0.15 -1.8 0.1
v -0.05 -1.8 0.1
v 0.05 -1.8 0.1
v 0.15 -1.8 0.1
v 0.25 -1.8 0.1
v 0.35 -1.8 0.1
v 0.45 -1.8 0.1
v -0.55 -1.8 -0.1
v -0.45 -1.8 -0.1
v -0.35 -1.8 -0.1
v -0.25 -1.8 -0.1
v -0.15 -1.8 -0.1
v -0.05 -1.8 -0.1
v 0.05 -1.8 -0.1
v 0.15 -1.8 -0.1
v 0.25 -1.8 -0.1
v 0.35 -1.8 -0.1
v 0.45 -1.8 -0.1
v -0.55 -1.8 -0.2
v -0.45 -1.8 -0.2
v -0.35 -1.8 -0.2
v -0.25 -1.8 -0.2
v -0.15 -1.8 -0.2
v -0.05 -1.8 -0.2
v 0.05 -1.8 -0.2
v 0.15 -1.8 -0.2
v 0.25 -1.8 -0.2
v 0.35 -1.8 -0.2
v 0.35 -1.7 0.2
v 0.45 -1.7 0.2
v 0.35 -1.7 0.1
v 0.45 -1.7 0.1
v 0.55 -1.7 0.1
v 0.35 -1.7 -0.1
v 0.45 -1.7 -0.1
v 0.55 -1.7 -0.1
v 0.35 -1.7 -0.2
v 0.45 -1.7 -0.2
v -0.55 -1.6 0.2
v -0.45 -1.6 0.2
v -0.35 -1.6 0.2
v -0.25 -1.6 0.2
v -0.15 -1.6 0.2
v -0.05 -1.6 0.2
v 0.05 -1.6 0.2
v -0.55 -1.6 0.1
v -0.45 -1.6 0.1
v -0.35 -1.6 0.1
v -0.25 -1.6 0.1
v -0.15 -1.6 0.1
v -0.05 -1.6 0.1
v 0.05 -1.6 0.1
v -0.55 -1.6 -0.1
v -0.45 -1.6 -0.1
v -0.35 -1.6 -0.1
v -0.25 -1.6 -0.1
v -0.15 -1.6 -0.1
v -0.05 -1.6 -0.1
v 0.05 -1.6 -0.1
v -0.55 -1.6 -0.2
v -0.45 -1.6 -0.2
v -0.35 -1.6 -0.2
v -0.25 -1.6 -0.2
v -0.15 -1.6 -0.2
v -0.05 -1.6 -0.2
v 0.05 -1.6 -0.2
v 0.05 -1.5 0.2
v 0.15 -1.5 0.2
v -0.55 -1.5 0.1
v -0.45 -1.5 0.1
v -0.35 -1.5 0.1
v -0.25 -1.5 0.1
v -0.15 -1.5 0.1
v -0.05 -1.5 0.1
v 0.05 -1.5 0.1
v 0.15 -1.5 0.1
v -0.55 -1.5 -0.1
v -0.45 -1.5 -0.1
v -0.35 -1.5 -0.1
v -0.25 -1.5 -0.1
v -0.15 -1.5 -0.1
v -0.05 -1.5 -0.1
v 0.05 -1.5 -0.1
v 0.15 -1.5 -0.1
v 0.05 -1.5 -0.2
v 0.15 -1.5 -0.2
v 0.15 -1.4 0.2
v 0.25 -1.4 0.2
v 0.05 -1.4 0.1
v 0.15 -1.4 0.1
v 0.25 -1.4 0.1
v 0.05 -1.4 -0.1
v 0.15 -1.4 -0.1
v 0.25 -1.4 -0.1
v 0.15 -1.4 -0.2
v 0.25 -1.4 -0.2
v 0.25 1.9 0.2
v 0.45 1.9 0.2
v 0.15 1.9 0.1
v 0.25 1.9 0.1
v 0.45 1.9 0.1
v 0.55 1.9 0.1
v 0.15 1.9 -0.1
v 0.25 1.9 -0.1
v 0.45 1.9 -0.1
v 0.55 1.9 -0.1
v 0.25 1.9 -0.2
v 0.45 1.9 -0.2

# faces
f 4/5/1 2/5/1 1/5/1
f 5/5/1 2/5/1 4/5/1
f 7/5/1 4/5/1 3/5/1
f 7/5/1 6/5/1 5/5/1
f 7/5/1 5/5/1 4/5/1
f 8/5/1 6/5/1 7/5/1
f 9/5/1 6/5/1 8/5/1
f 10/5/1 6/5/1 9/5/1
f 11/5/1 9/5/1 8/5/1
f 12/5/1 9/5/1 11/5/1
f 17/5/1 14/5/1 13/5/1
f 18/5/1 14/5/1 17/5/1
f 19/5/1 16/5/1 15/5/1
f 20/5/1 16/5/1 19/5/1
f 21/5/1 19/5/1 18/5/1
f 22/5/1 19/5/1 21/5/1
f 27/5/1 24/5/1 23/5/1
f 28/5/1 24/5/1 27/5/1
f 29/5/1 26/5/1 25/5/1
f 30/5/1 26/5/1 29/5/1
f 31/5/1 29/5/1 28/5/1
f 32/5/1 29/5/1 31/5/1
f 33/4/1 32/4/1 31/4/1
f 34/4/1 32/4/1 33/4/1
f 35/5/1 34/5/1 33/5/1
f 36/5/1 34/5/1 35/5/1
f 37/4/1 36/4/1 35/4/1
f 38/4/1 36/4/1 37/4/1
f 39/5/1 38/5/1 37/5/1
f 40/5/1 38/5/1 39/5/1
f 41/4/1 40/4/1 39/4/1
f 42/4/1 40/4/1 41/4/1
f 43/5/1 42/5/1 41/5/1
f 44/5/1 42/5/1 43/5/1
f 45/4/1 44/4/1 43/4/1
f 46/4/1 44/4/1 45/4/1
f 47/5/1 46/5/1 45/5/1
f 48/5/1 46/5/1 47/5/1
f 49/4/1 48/4/1 47/4/1
f 50/4/1 48/4/1 49/4/1
f 51/5/1 50/5/1 49/5/1
f 52/5/1 50/5/1 51/5/1
f 53/4/1 52/4/1 51/4/1
f 54/4/1 52/4/1 53/4/1
f 55/5/1 54/5/1 53/5/1
f 56/5/1 54/5/1 55/5/1
f 57/4/1 56/4/1 55/4/1
f 58/4/1 56/4/1 57/4/1
f 59/5/1 58/5/1 57/5/1
f 60/5/1 58/5/1 59/5/1
f 61/2/1 60/2/1 59/2/1
f 62/2/1 60/2/1 61/2/1
f 63/1/1 62/1/1 61/1/1
f 64/1/1 62/1/1 63/1/1
f 65/2/1 64/2/1 63/2/1
f 66/1/1 62/1/1 64/1/1
f 66/2/1 64/2/1 65/2/1
f 67/1/1 62/1/1 66/1/1
f 68/5/1 66/5/1 65/5/1
f 69/2/1 67/2/1 66/2/1
f 69/5/1 66/5/1 68/5/1
f 70/2/1 67/2/1 69/2/1
f 71/4/1 69/4/1 68/4/1
f 71/4/1 70/4/1 69/4/1
f 72/4/1 70/4/1 71/4/1
f 73/5/1 72/5/1 71/5/1
f 74/5/1 72/5/1 73/5/1
f 75/4/1 74/4/1 73/4/1
f 76/4/1 74/4/1 75/4/1
f 77/5/1 76/5/1 75/5/1
f 78/5/1 76/5/1 77/5/1
f 79/4/1 78/4/1 77/4/1
f 80/4/1 78/4/1 79/4/1
f 81/5/1 80/5/1 79/5/1
f 82/5/1 80/5/1 81/5/1
f 83/4/1 82/4/1 81/4/1
f 84/4/1 82/4/1 83/4/1
f 85/5/1 84/5/1 83/5/1
f 86/5/1 84/5/1 85/5/1
f 87/4/1 86/4/1 85/4/1
f 88/4/1 86/4/1 87/4/1
f 89/5/1 88/5/1 87/5/1
f 90/5/1 88/5/1 89/5/1
f 95/5/1 92/5/1 91/5/1
f 96/5/1 92/5/1 95/5/1
f 97/5/1 94/5/1 93/5/1
f 98/5/1 94/5/1 97/5/1
f 99/4/1 96/4/1 95/4/1
f 100/4/1 96/4/1 99/4/1
f 101/4/1 98/4/1 97/4/1
f 102/4/1 98/4/1 101/4/1
f 103/5/1 100/5/1 99/5/1
f 104/5/1 100/5/1 103/5/1
f 105/5/1 102/5/1 101/5/1
f 106/5/1 102/5/1 105/5/1
f 107/4/1 104/4/1 103/4/1
f 108/4/1 104/4/1 107/4/1
f 109/4/1 106/4/1 105/4/1
f 110/4/1 106/4/1 109/4/1
f 111/5/1 108/5/1 107/5/1
f 112/5/1 108/5/1 111/5/1
f 113/5/1 110/5/1 109/5/1
f 114/5/1 110/5/1 113/5/1
f 115/4/1 112/4/1 111/4/1
f 116/4/1 112/4/1 115/4/1
f 117/4/1 114/4/1 113/4/1
f 118/4/1 114/4/1 117/4/1
f 119/5/1 116/5/1 115/5/1
f 120/5/1 116/5/1 119/5/1
f 121/5/1 118/5/1 117/5/1
f 122/5/1 118/5/1 121/5/1
f 123/4/1 120/4/1 119/4/1
f 124/4/1 120/4/1 123/4/1
f 125/4/1 122/4/1 121/4/1
f 126/4/1 122/4/1 125/4/1
f 127/5/1 124/5/1 123/5/1
f 128/5/1 124/5/1 127/5/1
f 129/5/1 126/5/1 125/5/1
f 130/5/1 126/5/1 129/5/1
f 131/4/1 128/4/1 127/4/1
f 132/4/1 128/4/1 131/4/1
f 133/4/1 130/4/1 129/4/1
f 134/4/1 130/4/1 133/4/1
f 135/5/1 132/5/1 131/5/1
f 136/5/1 132/5/1 135/5/1
f 137/5/1 134/5/1 133/5/1
f 138/5/1 134/5/1 137/5/1
f 139/4/1 136/4/1 135/4/1
f 140/4/1 136/4/1 139/4/1
f 141/4/1 138/4/1 137/4/1
f 142/4/1 138/4/1 141/4/1
f 143/5/1 140/5/1 139/5/1
f 144/5/1 140/5/1 143/5/1
f 145/5/1 142/5/1 141/5/1
f 146/5/1 142/5/1 145/5/1
f 147/4/1 144/4/1 143/4/1
f 148/4/1 144/4/1 147/4/1
f 149/4/1 146/4/1 145/4/1
f 150/4/1 146/4/1 149/4/1
f 151/5/1 148/5/1 147/5/1
f 152/5/1 148/5/1 151/5/1
f 153/2/1 150/2/1 149/2/1
f 154/2/1 150/2/1 153/2/1
f 155/2/1 152/2/1 151/2/1
f 156/2/1 152/2/1 155/2/1
f 157/1/1 154/1/1 153/1/1
f 158/1/1 156/1/1 155/1/1
f 159/1/1 156/1/1 158/1/1
f 160/2/1 159/2/1 158/2/1
f 161/2/1 159/2/1 160/2/1
f 162/1/1 154/1/1 157/1/1
f 163/1/1 154/1/1 162/1/1
f 164/4/1 161/4/1 160/4/1
f 165/4/1 161/4/1 164/4/1
f 166/2/1 163/2/1 162/2/1
f 167/5/1 165/5/1 164/5/1
f 168/5/1 165/5/1 167/5/1
f 169/2/1 163/2/1 166/2/1
f 170/2/1 163/2/1 169/2/1
f 171/4/1 168/4/1 167/4/1
f 172/4/1 168/4/1 171/4/1
f 173/4/1 170/4/1 169/4/1
f 174/4/1 170/4/1 173/4/1
f 175/5/1 172/5/1 171/5/1
f 176/5/1 172/5/1 175/5/1
f 177/5/1 174/5/1 173/5/1
f 178/5/1 174/5/1 177/5/1
f 179/4/1 176/4/1 175/4/1
f 180/4/1 176/4/1 179/4/1
f 181/4/1 178/4/1 177/4/1
f 182/4/1 178/4/1 181/4/1
f 183/5/1 180/5/1 179/5/1
f 184/5/1 180/5/1 183/5/1
f 185/5/1 182/5/1 181/5/1
f 186/5/1 182/5/1 185/5/1
f 187/4/1 184/4/1 183/4/1
f 188/4/1 184/4/1 187/4/1
f 189/4/1 186/4/1 185/4/1
f 190/4/1 186/4/1 189/4/1
f 191/5/1 188/5/1 187/5/1
f 192/5/1 188/5/1 191/5/1
f 193/5/1 190/5/1 189/5/1
f 194/5/1 190/5/1 193/5/1
f 195/4/1 192/4/1 191/4/1
f 196/4/1 192/4/1 195/4/1
f 197/4/1 194/4/1 193/4/1
f 198/4/1 194/4/1 197/4/1
f 199/5/1 196/5/1 195/5/1
f 200/5/1 196/5/1 199/5/1
f 201/5/1 198/5/1 197/5/1
f 202/5/1 198/5/1 201/5/1
f 203/4/1 200/4/1 199/4/1
f 204/4/1 200/4/1 203/4/1
f 205/4/1 202/4/1 201/4/1
f 206/4/1 202/4/1 205/4/1
f 207/5/1 204/5/1 203/5/1
f 208/5/1 204/5/1 207/5/1
f 209/5/1 206/5/1 205/5/1
f 210/5/1 206/5/1 209/5/1
f 211/5/2 212/5/2 214/5/2
f 214/5/2 212/5/2 215/5/2
f 213/5/2 214/5/2 217/5/2
f 217/5/2 214/5/2 218/5/2
f 215/5/2 216/5/2 219/5/2
f 219/5/2 216/5/2 220/5/2
f 221/4/2 222/4/2 224/4/2
f 224/4/2 222/4/2 225/4/2
f 223/4/2 224/4/2 227/4/2
f 227/4/2 224/4/2 228/4/2
f 225/4/2 226/4/2 229/4/2
f 229/4/2 226/4/2 230/4/2
f 227/5/2 228/5/2 231/5/2
f 231/5/2 228/5/2 232/5/2
f 229/5/2 230/5/2 233/5/2
f 233/5/2 230/5/2 234/5/2
f 231/4/2 232/4/2 235/4/2
f 235/4/2 232/4/2 236/4/2
f 233/4/2 234/4/2 237/4/2
f 237/4/2 234/4/2 238/4/2
f 235/5/2 236/5/2 239/5/2
f 239/5/2 236/5/2 240/5/2
f 237/5/2 238/5/2 241/5/2
f 241/5/2 238/5/2 242/5/2
f 239/4/2 240/4/2 243/4/2
f 243/4/2 240/4/2 244/4/2
f 241/4/2 242/4/2 245/4/2
f 245/4/2 242/4/2 246/4/2
f 243/5/2 244/5/2 247/5/2
f 247/5/2 244/5/2 248/5/2
f 245/5/2 246/5/2 249/5/2
f 249/5/2 246/5/2 250/5/2
f 247/4/2 248/4/2 251/4/2
f 251/4/2 248/4/2 252/4/2
f 249/4/2 250/4/2 253/4/2
f 253/4/2 250/4/2 254/4/2
f 251/5/2 252/5/2 255/5/2
f 255/5/2 252/5/2 256/5/2
f 253/5/2 254/5/2 257/5/2
f 257/5/2 254/5/2 258/5/2
f 255/4/2 256/4/2 259/4/2
f 259/4/2 256/4/2 260/4/2
f 257/4/2 258/4/2 261/4/2
f 261/4/2 258/4/2 262/4/2
f 259/5/2 260/5/2 263/5/2
f 263/5/2 260/5/2 264/5/2
f 261/5/2 262/5/2 265/5/2
f 265/5/2 262/5/2 266/5/2
f 263/4/2 264/4/2 267/4/2
f 267/4/2 264/4/2 268/4/2
f 265/4/2 266/4/2 269/4/2
f 269/4/2 266/4/2 270/4/2
f 267/5/2 268/5/2 271/5/2
f 271/5/2 268/5/2 272/5/2
f 269/5/2 270/5/2 273/5/2
f 273/5/2 270/5/2 274/5/2
f 271/4/2 272/4/2 275/4/2
f 275/4/2 272/4/2 276/4/2
f 273/4/2 274/4/2 277/4/2
f 277/4/2 274/4/2 278/4/2
f 275/5/2 276/5/2 279/5/2
f 279/5/2 276/5/2 280/5/2
f 277/5/2 278/5/2 281/5/2
f 281/5/2 278/5/2 282/5/2
f 279/4/2 280/4/2 283/4/2
f 283/4/2 280/4/2 284/4/2
f 281/4/2 282/4/2 285/4/2
f 285/4/2 282/4/2 286/4/2
f 283/5/2 284/5/2 287/5/2
f 287/5/2 284/5/2 288/5/2
f 285/5/2 286/5/2 289/5/2
f 289/5/2 286/5/2 290/5/2
f 287/4/2 288/4/2 291/4/2
f 291/4/2 288/4/2 292/4/2
f 289/2/2 290/2/2 293/2/2
f 293/2/2 290/2/2 294/2/2
f 291/5/2 292/5/2 295/5/2
f 295/5/2 292/5/2 296/5/2
f 295/2/2 296/2/2 297/2/2
f 297/2/2 296/2/2 298/2/2
f 297/1/2 298/1/2 299/1/2
f 293/1/2 294/1/2 300/1/2
f 297/1/2 299/1/2 301/1/2
f 301/1/2 299/1/2 302/1/2
f 300/1/2 294/1/2 303/1/2
f 303/1/2 294/1/2 304/1/2
f 301/2/2 302/2/2 305/2/2
f 305/2/2 302/2/2 306/2/2
f 303/2/2 304/2/2 307/2/2
f 307/2/2 304/2/2 308/2/2
f 305/4/2 306/4/2 309/4/2
f 309/4/2 306/4/2 310/4/2
f 307/4/2 308/4/2 311/4/2
f 311/4/2 308/4/2 312/4/2
f 309/5/2 310/5/2 313/5/2
f 313/5/2 310/5/2 314/5/2
f 311/5/2 312/5/2 315/5/2
f 315/5/2 312/5/2 316/5/2
f 313/4/2 314/4/2 317/4/2
f 317/4/2 314/4/2 318/4/2
f 315/4/2 316/4/2 319/4/2
f 319/4/2 316/4/2 320/4/2
f 317/5/2 318/5/2 321/5/2
f 321/5/2 318/5/2 322/5/2
f 319/5/2 320/5/2 323/5/2
f 323/5/2 320/5/2 324/5/2
f 321/4/2 322/4/2 325/4/2
f 325/4/2 322/4/2 326/4/2
f 323/4/2 324/4/2 327/4/2
f 327/4/2 324/4/2 328/4/2
f 325/5/2 326/5/2 329/5/2
f 329/5/2 326/5/2 330/5/2
f 327/5/2 328/5/2 331/5/2
f 331/5/2 328/5/2 332/5/2
f 329/4/2 330/4/2 333/4/2
f 333/4/2 330/4/2 334/4/2
f 331/4/2 332/4/2 335/4/2
f 335/4/2 332/4/2 336/4/2
f 333/5/2 334/5/2 337/5/2
f 337/5/2 334/5/2 338/5/2
f 335/5/2 336/5/2 339/5/2
f 339/5/2 336/5/2 340/5/2
f 337/4/2 338/4/2 341/4/2
f 341/4/2 338/4/2 342/4/2
f 339/4/2 340/4/2 343/4/2
f 343/4/2 340/4/2 344/4/2
f 341/5/2 342/5/2 345/5/2
f 345/5/2 342/5/2 346/5/2
f 343/5/2 344/5/2 347/5/2
f 347/5/2 344/5/2 348/5/2
f 345/4/2 346/4/2 349/4/2
f 349/4/2 346/4/2 350/4/2
f 347/4/2 348/4/2 351/4/2
f 351/4/2 348/4/2 352/4/2
f 349/5/2 350/5/2 353/5/2
f 353/5/2 350/5/2 354/5/2
f 351/5/2 352/5/2 355/5/2
f 355/5/2 352/5/2 356/5/2
f 357/4/2 358/4/2 359/4/2
f 359/4/2 358/4/2 360/4/2
f 359/5/2 360/5/2 361/5/2
f 361/5/2 360/5/2 362/5/2
f 361/4/2 362/4/2 363/4/2
f 363/4/2 362/4/2 364/4/2
f 363/5/2 364/5/2 365/5/2
f 365/5/2 364/5/2 366/5/2
f 365/4/2 366/4/2 367/4/2
f 367/4/2 366/4/2 368/4/2
f 367/5/2 368/5/2 369/5/2
f 369/5/2 368/5/2 370/5/2
f 369/4/2 370/4/2 371/4/2
f 371/4/2 370/4/2 372/4/2
f 371/5/2 372/5/2 373/5/2
f 373/5/2 372/5/2 374/5/2
f 373/4/2 374/4/2 375/4/2
f 375/4/2 374/4/2 376/4/2
f 375/5/2 376/5/2 377/5/2
f 377/5/2 376/5/2 378/5/2
f 377/4/2 378/4/2 379/4/2
f 379/4/2 378/4/2 380/4/2
f 379/5/2 380/5/2 381/5/2
f 381/5/2 380/5/2 382/5/2
f 381/4/2 382/4/2 383/4/2
f 383/4/2 382/4/2 384/4/2
f 383/5/2 384/5/2 385/5/2
f 385/5/2 384/5/2 386/5/2
f 385/4/2 386/4/2 387/4/2
f 387/4/2 386/4/2 388/4/2
f 387/5/2 388/5/2 389/5/2
f 389/5/2 388/5/2 390/5/2
f 390/5/2 388/5/2 391/5/2
f 389/4/2 390/4/2 392/4/2
f 390/2/2 391/2/2 393/2/2
f 392/4/2 390/4/2 393/4/2
f 393/2/2 391/2/2 394/2/2
f 392/2/2 393/2/2 395/2/2
f 393/1/2 394/1/2 396/1/2
f 395/2/2 393/2/2 396/2/2
f 395/1/2 396/1/2 397/1/2
f 396/1/2 394/1/2 398/1/2
f 397/1/2 396/1/2 398/1/2
f 397/2/2 398/2/2 399/2/2
f 399/2/2 398/2/2 400/2/2
f 399/5/2 400/5/2 401/5/2
f 401/5/2 400/5/2 402/5/2
f 401/4/2 402/4/2 403/4/2
f 403/4/2 402/4/2 404/4/2
f 403/5/2 404/5/2 405/5/2
f 405/5/2 404/5/2 406/5/2
f 405/4/2 406/4/2 407/4/2
f 407/4/2 406/4/2 408/4/2
f 407/5/2 408/5/2 409/5/2
f 409/5/2 408/5/2 410/5/2
f 409/4/2 410/4/2 411/4/2
f 411/4/2 410/4/2 412/4/2
f 411/5/2 412/5/2 413/5/2
f 413/5/2 412/5/2 414/5/2
f 413/4/2 414/4/2 415/4/2
f 415/4/2 414/4/2 416/4/2
f 415/5/2 416/5/2 417/5/2
f 417/5/2 416/5/2 418/5/2
f 417/4/2 418/4/2 419/4/2
f 419/4/2 418/4/2 420/4/2
f 419/5/2 420/5/2 421/5/2
f 421/5/2 420/5/2 422/5/2
f 421/4/2 422/4/2 423/4/2
f 423/4/2 422/4/2 424/4/2
f 423/5/2 424/5/2 425/5/2
f 425/5/2 424/5/2 426/5/2
f 429/5/3 428/5/3 427/5/3
f 430/5/3 428/5/3 429/5/3
f 431/4/3 430/4/3 429/4/3
f 432/4/3 430/4/3 431/4/3
f 433/5/3 432/5/3 431/5/3
f 434/5/3 432/5/3 433/5/3
f 435/4/3 434/4/3 433/4/3
f 436/4/3 434/4/3 435/4/3
f 437/5/3 436/5/3 435/5/3
f 438/5/3 436/5/3 437/5/3
f 439/4/3 438/4/3 437/4/3
f 440/4/3 438/4/3 439/4/3
f 442/5/3 440/5/3 439/5/3
f 442/5/3 441/5/3 440/5/3
f 443/5/3 441/5/3 442/5/3
f 445/4/3 443/4/3 442/4/3
f 446/5/3 444/5/3 443/5/3
f 446/4/3 443/4/3 445/4/3
f 447/5/3 444/5/3 446/5/3
f 478/5/3 446/5/3 445/5/3
f 479/5/3 446/5/3 478/5/3
f 480/5/3 446/5/3 479/5/3
f 481/4/3 480/4/3 479/4/3
f 482/5/3 446/5/3 480/5/3
f 482/4/3 480/4/3 481/4/3
f 483/4/3 447/4/3 446/4/3
f 483/5/3 446/5/3 482/5/3
f 484/5/3 448/5/3 447/5/3
f 484/4/3 447/4/3 483/4/3
f 485/4/3 449/4/3 448/4/3
f 485/5/3 448/5/3 484/5/3
f 486/5/3 450/5/3 449/5/3
f 486/4/3 449/4/3 485/4/3
f 487/4/3 451/4/3 450/4/3
f 487/5/3 450/5/3 486/5/3
f 488/5/3 452/5/3 451/5/3
f 488/4/3 451/4/3 487/4/3
f 489/4/3 453/4/3 452/4/3
f 489/5/3 452/5/3 488/5/3
f 490/5/3 454/5/3 453/5/3
f 490/4/3 453/4/3 489/4/3
f 491/4/3 455/4/3 454/4/3
f 491/5/3 454/5/3 490/5/3
f 492/5/3 456/5/3 455/5/3
f 492/4/3 455/4/3 491/4/3
f 493/4/3 457/4/3 456/4/3
f 493/5/3 456/5/3 492/5/3
f 494/5/3 458/5/3 457/5/3
f 494/4/3 457/4/3 493/4/3
f 495/4/3 459/4/3 458/4/3
f 495/5/3 458/5/3 494/5/3
f 496/5/3 460/5/3 459/5/3
f 496/4/3 459/4/3 495/4/3
f 497/4/3 461/4/3 460/4/3
f 497/5/3 460/5/3 496/5/3
f 498/5/3 462/5/3 461/5/3
f 498/4/3 461/4/3 497/4/3
f 499/2/3 463/2/3 462/2/3
f 499/5/3 462/5/3 498/5/3
f 500/1/3 464/1/3 463/1/3
f 500/2/3 463/2/3 499/2/3
f 501/2/3 465/2/3 464/2/3
f 501/1/3 464/1/3 500/1/3
f 502/4/3 466/4/3 465/4/3
f 502/2/3 465/2/3 501/2/3
f 503/5/3 467/5/3 466/5/3
f 503/4/3 466/4/3 502/4/3
f 504/4/3 468/4/3 467/4/3
f 504/5/3 467/5/3 503/5/3
f 505/5/3 469/5/3 468/5/3
f 505/4/3 468/4/3 504/4/3
f 506/4/3 470/4/3 469/4/3
f 506/5/3 469/5/3 505/5/3
f 507/5/3 471/5/3 470/5/3
f 507/4/3 470/4/3 506/4/3
f 508/4/3 472/4/3 471/4/3
f 508/5/3 471/5/3 507/5/3
f 509/5/3 473/5/3 472/5/3
f 509/4/3 472/4/3 508/4/3
f 510/4/3 474/4/3 473/4/3
f 510/5/3 473/5/3 509/5/3
f 511/5/3 475/5/3 474/5/3
f 511/4/3 474/4/3 510/4/3
f 512/4/3 476/4/3 475/4/3
f 512/5/3 475/5/3 511/5/3
f 513/5/3 477/5/3 476/5/3
f 513/4/3 476/4/3 512/4/3
f 514/5/3 477/5/3 513/5/3
f 519/5/3 516/5/3 515/5/3
f 520/5/3 516/5/3 519/5/3
f 521/5/3 518/5/3 517/5/3
f 522/5/3 518/5/3 521/5/3
f 523/4/3 520/4/3 519/4/3
f 524/4/3 520/4/3 523/4/3
f 525/4/3 522/4/3 521/4/3
f 526/4/3 522/4/3 525/4/3
f 527/5/3 524/5/3 523/5/3
f 528/5/3 524/5/3 527/5/3
f 529/5/3 526/5/3 525/5/3
f 530/5/3 526/5/3 529/5/3
f 531/4/3 528/4/3 527/4/3
f 532/4/3 528/4/3 531/4/3
f 533/4/3 530/4/3 529/4/3
f 534/4/3 530/4/3 533/4/3
f 535/5/3 532/5/3 531/5/3
f 536/5/3 532/5/3 535/5/3
f 537/5/3 534/5/3 533/5/3
f 538/5/3 534/5/3 537/5/3
f 539/4/3 536/4/3 535/4/3
f 540/4/3 536/4/3 539/4/3
f 541/4/3 538/4/3 537/4/3
f 542/4/3 538/4/3 541/4/3
f 544/5/3 540/5/3 539/5/3
f 545/5/3 540/5/3 544/5/3
f 546/5/3 543/5/3 542/5/3
f 547/5/3 543/5/3 546/5/3
f 577/4/3 545/4/3 544/4/3
f 578/4/3 545/4/3 577/4/3
f 579/5/3 548/5/3 547/5/3
f 580/4/3 549/4/3 548/4/3
f 580/5/3 548/5/3 579/5/3
f 581/5/3 550/5/3 549/5/3
f 581/4/3 549/4/3 580/4/3
f 582/4/3 551/4/3 550/4/3
f 582/5/3 550/5/3 581/5/3
f 583/5/3 552/5/3 551/5/3
f 583/4/3 551/4/3 582/4/3
f 584/4/3 553/4/3 552/4/3
f 584/5/3 552/5/3 583/5/3
f 585/5/3 554/5/3 553/5/3
f 585/4/3 553/4/3 584/4/3
f 586/4/3 555/4/3 554/4/3
f 586/5/3 554/5/3 585/5/3
f 587/5/3 556/5/3 555/5/3
f 587/4/3 555/4/3 586/4/3
f 588/4/3 557/4/3 556/4/3
f 588/5/3 556/5/3 587/5/3
f 589/5/3 558/5/3 557/5/3
f 589/4/3 557/4/3 588/4/3
f 590/4/3 559/4/3 558/4/3
f 590/5/3 558/5/3 589/5/3
f 591/5/3 560/5/3 559/5/3
f 591/4/3 559/4/3 590/4/3
f 592/4/3 561/4/3 560/4/3
f 592/5/3 560/5/3 591/5/3
f 593/5/3 562/5/3 561/5/3
f 593/4/3 561/4/3 592/4/3
f 594/2/3 563/2/3 562/2/3
f 594/5/3 562/5/3 593/5/3
f 595/1/3 564/1/3 563/1/3
f 595/2/3 563/2/3 594/2/3
f 596/1/3 564/1/3 595/1/3
f 597/2/3 565/2/3 564/2/3
f 597/1/3 564/1/3 596/1/3
f 598/5/3 566/5/3 565/5/3
f 598/2/3 565/2/3 597/2/3
f 599/4/3 567/4/3 566/4/3
f 599/5/3 566/5/3 598/5/3
f 600/5/3 568/5/3 567/5/3
f 600/4/3 567/4/3 599/4/3
f 601/4/3 569/4/3 568/4/3
f 601/5/3 568/5/3 600/5/3
f 602/5/3 570/5/3 569/5/3
f 602/4/3 569/4/3 601/4/3
f 603/4/3 571/4/3 570/4/3
f 603/5/3 570/5/3 602/5/3
f 604/5/3 572/5/3 571/5/3
f 604/4/3 571/4/3 603/4/3
f 605/4/3 573/4/3 572/4/3
f 605/5/3 572/5/3 604/5/3
f 606/5/3 574/5/3 573/5/3
f 606/4/3 573/4/3 605/4/3
f 607/4/3 575/4/3 574/4/3
f 607/5/3 574/5/3 606/5/3
f 608/5/3 576/5/3 575/5/3
f 608/4/3 575/4/3 607/4/3
f 609/5/3 576/5/3 608/5/3
f 610/5/3 578/5/3 577/5/3
f 611/5/3 578/5/3 610/5/3
f 613/4/3 612/4/3 611/4/3
f 614/4/3 612/4/3 613/4/3
f 649/4/3 615/4/3 614/4/3
f 650/5/3 616/5/3 615/5/3
f 650/4/3 615/4/3 649/4/3
f 651/4/3 617/4/3 616/4/3
f 651/5/3 616/5/3 650/5/3
f 652/5/3 618/5/3 617/5/3
f 652/4/3 617/4/3 651/4/3
f 653/4/3 619/4/3 618/4/3
f 653/5/3 618/5/3 652/5/3
f 654/5/3 620/5/3 619/5/3
f 654/4/3 619/4/3 653/4/3
f 655/4/3 621/4/3 620/4/3
f 655/5/3 620/5/3 654/5/3
f 656/5/3 622/5/3 621/5/3
f 656/4/3 621/4/3 655/4/3
f 657/4/3 623/4/3 622/4/3
f 657/5/3 622/5/3 656/5/3
f 658/5/3 624/5/3 623/5/3
f 658/4/3 623/4/3 657/4/3
f 659/4/3 625/4/3 624/4/3
f 659/5/3 624/5/3 658/5/3
f 660/5/3 626/5/3 625/5/3
f 660/4/3 625/4/3 659/4/3
f 661/4/3 627/4/3 626/4/3
f 661/5/3 626/5/3 660/5/3
f 662/5/3 628/5/3 627/5/3
f 662/4/3 627/4/3 661/4/3
f 663/4/3 629/4/3 628/4/3
f 663/5/3 628/5/3 662/5/3
f 664/5/3 630/5/3 629/5/3
f 664/4/3 629/4/3 663/4/3
f 665/4/3 631/4/3 630/4/3
f 665/5/3 630/5/3 664/5/3
f 666/2/3 632/2/3 631/2/3
f 666/4/3 631/4/3 665/4/3
f 667/1/3 633/1/3 632/1/3
f 667/2/3 632/2/3 666/2/3
f 667/1/3 634/1/3 633/1/3
f 668/2/3 635/2/3 634/2/3
f 668/1/3 634/1/3 667/1/3
f 669/5/3 636/5/3 635/5/3
f 669/2/3 635/2/3 668/2/3
f 670/4/3 637/4/3 636/4/3
f 670/5/3 636/5/3 669/5/3
f 671/5/3 638/5/3 637/5/3
f 671/4/3 637/4/3 670/4/3
f 672/4/3 639/4/3 638/4/3
f 672/5/3 638/5/3 671/5/3
f 673/5/3 640/5/3 639/5/3
f 673/4/3 639/4/3 672/4/3
f 674/4/3 641/4/3 640/4/3
f 674/5/3 640/5/3 673/5/3
f 675/5/3 642/5/3 641/5/3
f 675/4/3 641/4/3 674/4/3
f 676/4/3 643/4/3 642/4/3
f 676/5/3 642/5/3 675/5/3
f 677/5/3 644/5/3 643/5/3
f 677/4/3 643/4/3 676/4/3
f 678/4/3 645/4/3 644/4/3
f 678/5/3 644/5/3 677/5/3
f 679/5/3 646/5/3 645/5/3
f 679/4/3 645/4/3 678/4/3
f 680/4/3 647/4/3 646/4/3
f 680/5/3 646/5/3 679/5/3
f 681/5/3 648/5/3 647/5/3
f 681/4/3 647/4/3 680/4/3
f 682/5/3 648/5/3 681/5/3
f 683/5/4 684/5/4 687/5/4
f 687/5/4 684/5/4 688/5/4
f 685/5/4 686/5/4 689/5/4
f 689/5/4 686/5/4 690/5/4
f 687/4/4 688/4/4 691/4/4
f 691/4/4 688/4/4 692/4/4
f 689/4/4 690/4/4 693/4/4
f 693/4/4 690/4/4 694/4/4
f 691/5/4 692/5/4 695/5/4
f 695/5/4 692/5/4 696/5/4
f 693/5/4 694/5/4 697/5/4
f 697/5/4 694/5/4 698/5/4
f 695/4/4 696/4/4 699/4/4
f 699/4/4 696/4/4 700/4/4
f 697/4/4 698/4/4 701/4/4
f 701/4/4 698/4/4 702/4/4
f 699/5/4 700/5/4 703/5/4
f 703/5/4 700/5/4 704/5/4
f 701/5/4 702/5/4 705/5/4
f 705/5/4 702/5/4 706/5/4
f 703/4/4 704/4/4 707/4/4
f 707/4/4 704/4/4 708/4/4
f 705/4/4 706/4/4 709/4/4
f 709/4/4 706/4/4 710/4/4
f 707/5/4 708/5/4 712/5/4
f 712/5/4 708/5/4 713/5/4
f 710/5/4 711/5/4 714/5/4
f 714/5/4 711/5/4 715/5/4
f 712/4/4 713/4/4 744/4/4
f 744/4/4 713/4/4 745/4/4
f 715/5/4 716/5/4 746/5/4
f 716/4/4 717/4/4 747/4/4
f 746/5/4 716/5/4 747/5/4
f 717/5/4 718/5/4 748/5/4
f 747/4/4 717/4/4 748/4/4
f 718/4/4 719/4/4 749/4/4
f 748/5/4 718/5/4 749/5/4
f 719/5/4 720/5/4 750/5/4
f 749/4/4 719/4/4 750/4/4
f 720/4/4 721/4/4 751/4/4
f 750/5/4 720/5/4 751/5/4
f 721/5/4 722/5/4 752/5/4
f 751/4/4 721/4/4 752/4/4
f 722/4/4 723/4/4 753/4/4
f 752/5/4 722/5/4 753/5/4
f 723/5/4 724/5/4 754/5/4
f 753/4/4 723/4/4 754/4/4
f 724/4/4 725/4/4 755/4/4
f 754/5/4 724/5/4 755/5/4
f 725/5/4 726/5/4 756/5/4
f 755/4/4 725/4/4 756/4/4
f 726/4/4 727/4/4 757/4/4
f 756/5/4 726/5/4 757/5/4
f 727/5/4 728/5/4 758/5/4
f 757/4/4 727/4/4 758/4/4
f 728/4/4 729/4/4 759/4/4
f 758/5/4 728/5/4 759/5/4
f 729/5/4 730/5/4 760/5/4
f 759/4/4 729/4/4 760/4/4
f 730/2/4 731/2/4 761/2/4
f 760/5/4 730/5/4 761/5/4
f 731/1/4 732/1/4 762/1/4
f 761/2/4 731/2/4 762/2/4
f 762/1/4 732/1/4 763/1/4
f 732/2/4 733/2/4 764/2/4
f 763/1/4 732/1/4 764/1/4
f 733/4/4 734/4/4 765/4/4
f 764/2/4 733/2/4 765/2/4
f 734/5/4 735/5/4 766/5/4
f 765/4/4 734/4/4 766/4/4
f 735/4/4 736/4/4 767/4/4
f 766/5/4 735/5/4 767/5/4
f 736/5/4 737/5/4 768/5/4
f 767/4/4 736/4/4 768/4/4
f 737/4/4 738/4/4 769/4/4
f 768/5/4 737/5/4 769/5/4
f 738/5/4 739/5/4 770/5/4
f 769/4/4 738/4/4 770/4/4
f 739/4/4 740/4/4 771/4/4
f 770/5/4 739/5/4 771/5/4
f 740/5/4 741/5/4 772/5/4
f 771/4/4 740/4/4 772/4/4
f 741/4/4 742/4/4 773/4/4
f 772/5/4 741/5/4 773/5/4
f 742/5/4 743/5/4 774/5/4
f 773/4/4 742/4/4 774/4/4
f 774/5/4 743/5/4 775/5/4
f 744/5/4 745/5/4 776/5/4
f 776/5/4 745/5/4 777/5/4
f 777/4/4 778/4/4 779/4/4
f 779/4/4 778/4/4 780/4/4
f 780/4/4 781/4/4 813/4/4
f 781/5/4 782/5/4 814/5/4
f 813/4/4 781/4/4 814/4/4
f 782/4/4 783/4/4 815/4/4
f 814/5/4 782/5/4 815/5/4
f 783/5/4 784/5/4 816/5/4
f 815/4/4 783/4/4 816/4/4
f 784/4/4 785/4/4 817/4/4
f 816/5/4 784/5/4 817/5/4
f 785/5/4 786/5/4 818/5/4
f 817/4/4 785/4/4 818/4/4
f 786/4/4 787/4/4 819/4/4
f 818/5/4 786/5/4 819/5/4
f 787/5/4 788/5/4 820/5/4
f 819/4/4 787/4/4 820/4/4
f 788/4/4 789/4/4 821/4/4
f 820/5/4 788/5/4 821/5/4
f 789/5/4 790/5/4 822/5/4
f 821/4/4 789/4/4 822/4/4
f 790/4/4 791/4/4 823/4/4
f 822/5/4 790/5/4 823/5/4
f 791/5/4 792/5/4 824/5/4
f 823/4/4 791/4/4 824/4/4
f 792/4/4 793/4/4 825/4/4
f 824/5/4 792/5/4 825/5/4
f 793/5/4 794/5/4 826/5/4
f 825/4/4 793/4/4 826/4/4
f 794/4/4 795/4/4 827/4/4
f 826/5/4 794/5/4 827/5/4
f 795/5/4 796/5/4 828/5/4
f 827/4/4 795/4/4 828/4/4
f 796/2/4 797/2/4 829/2/4
f 828/5/4 796/5/4 829/5/4
f 797/1/4 798/1/4 830/1/4
f 829/2/4 797/2/4 830/2/4
f 798/2/4 799/2/4 831/2/4
f 830/1/4 798/1/4 831/1/4
f 799/5/4 800/5/4 832/5/4
f 831/2/4 799/2/4 832/2/4
f 800/4/4 801/4/4 833/4/4
f 832/5/4 800/5/4 833/5/4
f 801/5/4 802/5/4 834/5/4
f 833/4/4 801/4/4 834/4/4
f 802/4/4 803/4/4 835/4/4
f 834/5/4 802/5/4 835/5/4
f 803/5/4 804/5/4 836/5/4
f 835/4/4 803/4/4 836/4/4
f 804/4/4 805/4/4 837/4/4
f 836/5/4 804/5/4 837/5/4
f 805/5/4 806/5/4 838/5/4
f 837/4/4 805/4/4 838/4/4
f 806/4/4 807/4/4 839/4/4
f 838/5/4 806/5/4 839/5/4
f 807/5/4 808/5/4 840/5/4
f 839/4/4 807/4/4 840/4/4
f 808/4/4 809/4/4 841/4/4
f 840/5/4 808/5/4 841/5/4
f 809/5/4 810/5/4 842/5/4
f 841/4/4 809/4/4 842/4/4
f 810/4/4 811/4/4 843/4/4
f 842/5/4 810/5/4 843/5/4
f 811/5/4 812/5/4 844/5/4
f 843/4/4 811/4/4 844/4/4
f 844/5/4 812/5/4 845/5/4
f 846/5/4 847/5/4 848/5/4
f 848/5/4 847/5/4 849/5/4
f 848/4/4 849/4/4 850/4/4
f 850/4/4 849/4/4 851/4/4
f 850/5/4 851/5/4 852/5/4
f 852/5/4 851/5/4 853/5/4
f 852/4/4 853/4/4 854/4/4
f 854/4/4 853/4/4 855/4/4
f 854/5/4 855/5/4 856/5/4
f 856/5/4 855/5/4 857/5/4
f 856/4/4 857/4/4 858/4/4
f 858/4/4 857/4/4 859/4/4
f 858/5/4 859/5/4 861/5/4
f 859/5/4 860/5/4 861/5/4
f 861/5/4 860/5/4 862/5/4
f 861/4/4 862/4/4 864/4/4
f 862/5/4 863/5/4 865/5/4
f 864/4/4 862/4/4 865/4/4
f 865/5/4 863/5/4 866/5/4
f 864/5/4 865/5/4 894/5/4
f 894/5/4 865/5/4 895/5/4
f 895/5/4 865/5/4 896/5/4
f 878/5/4 879/5/4 897/5/4
f 879/4/4 880/4/4 897/4/4
f 880/2/4 881/2/4 898/2/4
f 897/4/4 880/4/4 898/4/4
f 881/1/4 882/1/4 899/1/4
f 898/2/4 881/2/4 899/2/4
f 899/1/4 882/1/4 900/1/4
f 882/2/4 883/2/4 901/2/4
f 900/1/4 882/1/4 901/1/4
f 901/2/4 883/2/4 902/2/4
f 883/4/4 884/4/4 903/4/4
f 902/2/4 883/2/4 903/2/4
f 895/4/4 896/4/4 904/4/4
f 896/5/4 865/5/4 905/5/4
f 904/4/4 896/4/4 905/4/4
f 865/4/4 866/4/4 906/4/4
f 905/5/4 865/5/4 906/5/4
f 866/5/4 867/5/4 907/5/4
f 906/4/4 866/4/4 907/4/4
f 867/4/4 868/4/4 908/4/4
f 907/5/4 867/5/4 908/5/4
f 868/5/4 869/5/4 909/5/4
f 908/4/4 868/4/4 909/4/4
f 869/4/4 870/4/4 910/4/4
f 909/5/4 869/5/4 910/5/4
f 870/5/4 871/5/4 911/5/4
f 910/4/4 870/4/4 911/4/4
f 871/4/4 872/4/4 912/4/4
f 911/5/4 871/5/4 912/5/4
f 872/5/4 873/5/4 913/5/4
f 912/4/4 872/4/4 913/4/4
f 873/4/4 874/4/4 914/4/4
f 913/5/4 873/5/4 914/5/4
f 874/5/4 875/5/4 915/5/4
f 914/4/4 874/4/4 915/4/4
f 875/4/4 876/4/4 916/4/4
f 915/5/4 875/5/4 916/5/4
f 876/5/4 877/5/4 917/5/4
f 916/4/4 876/4/4 917/4/4
f 877/4/4 878/4/4 918/4/4
f 917/5/4 877/5/4 918/5/4
f 878/5/4 897/5/4 919/5/4
f 918/4/4 878/4/4 919/4/4
f 897/2/4 898/2/4 920/2/4
f 919/5/4 897/5/4 920/5/4
f 899/1/4 900/1/4 921/1/4
f 920/2/4 898/2/4 921/2/4
f 898/1/4 899/1/4 921/1/4
f 900/2/4 901/2/4 922/2/4
f 921/1/4 900/1/4 922/1/4
f 901/4/4 902/4/4 923/4/4
f 922/2/4 901/2/4 923/2/4
f 902/5/4 903/5/4 924/5/4
f 923/4/4 902/4/4 924/4/4
f 903/4/4 884/4/4 925/4/4
f 924/5/4 903/5/4 925/5/4
f 884/5/4 885/5/4 926/5/4
f 925/4/4 884/4/4 926/4/4
f 885/4/4 886/4/4 927/4/4
f 926/5/4 885/5/4 927/5/4
f 886/5/4 887/5/4 928/5/4
f 927/4/4 886/4/4 928/4/4
f 887/4/4 888/4/4 929/4/4
f 928/5/4 887/5/4 929/5/4
f 888/5/4 889/5/4 930/5/4
f 929/4/4 888/4/4 930/4/4
f 889/4/4 890/4/4 931/4/4
f 930/5/4 889/5/4 931/5/4
f 890/5/4 891/5/4 932/5/4
f 931/4/4 890/4/4 932/4/4
f 891/4/4 892/4/4 933/4/4
f 932/5/4 891/5/4 933/5/4
f 892/5/4 893/5/4 934/5/4
f 933/4/4 892/4/4 934/4/4
f 934/5/4 893/5/4 935/5/4
f 946/5/5 937/5/5 936/5/5
f 947/4/5 938/4/5 937/4/5
f 947/5/5 937/5/5 946/5/5
f 948/5/5 939/5/5 938/5/5
f 948/4/5 938/4/5 947/4/5
f 949/4/5 940/4/5 939/4/5
f 949/5/5 939/5/5 948/5/5
f 950/5/5 941/5/5 940/5/5
f 950/4/5 940/4/5 949/4/5
f 951/4/5 942/4/5 941/4/5
f 951/5/5 941/5/5 950/5/5
f 952/5/5 943/5/5 942/5/5
f 952/4/5 942/4/5 951/4/5
f 953/4/5 944/4/5 943/4/5
f 953/5/5 943/5/5 952/5/5
f 954/5/5 945/5/5 944/5/5
f 954/4/5 944/4/5 953/4/5
f 955/5/5 945/5/5 954/5/5
f 966/5/5 957/5/5 956/5/5
f 967/4/5 958/4/5 957/4/5
f 967/5/5 957/5/5 966/5/5
f 968/5/5 959/5/5 958/5/5
f 968/4/5 958/4/5 967/4/5
f 969/4/5 960/4/5 959/4/5
f 969/5/5 959/5/5 968/5/5
f 970/5/5 961/5/5 960/5/5
f 970/4/5 960/4/5 969/4/5
f 971/4/5 962/4/5 961/4/5
f 971/5/5 961/5/5 970/5/5
f 972/5/5 963/5/5 962/5/5
f 972/4/5 962/4/5 971/4/5
f 973/4/5 964/4/5 963/4/5
f 973/5/5 963/5/5 972/5/5
f 974/5/5 965/5/5 964/5/5
f 974/4/5 964/4/5 973/4/5
f 975/5/5 965/5/5 974/5/5
f 986/4/5 976/4/5 975/4/5
f 987/4/5 976/4/5 986/4/5
f 988/5/5 978/5/5 977/5/5
f 989/4/5 979/4/5 978/4/5
f 989/5/5 978/5/5 988/5/5
f 990/5/5 980/5/5 979/5/5
f 990/4/5 979/4/5 989/4/5
f 991/4/5 981/4/5 980/4/5
f 991/5/5 980/5/5 990/5/5
f 992/5/5 982/5/5 981/5/5
f 992/4/5 981/4/5 991/4/5
f 993/4/5 983/4/5 982/4/5
f 993/5/5 982/5/5 992/5/5
f 994/5/5 984/5/5 983/5/5
f 994/4/5 983/4/5 993/4/5
f 995/4/5 985/4/5 984/4/5
f 995/5/5 984/5/5 994/5/5
f 996/5/5 986/5/5 985/5/5
f 996/4/5 985/4/5 995/4/5
f 997/5/5 986/5/5 996/5/5
f 1000/4/5 999/4/5 998/4/5
f 1001/4/5 999/4/5 1000/4/5
f 1004/4/5 1002/4/5 1001/4/5
f 1005/4/5 1002/4/5 1004/4/5
f 1006/4/5 1004/4/5 1003/4/5
f 1007/4/5 1004/4/5 1006/4/5
f 1008/5/6 1009/5/6 1015/5/6
f 1009/4/6 1010/4/6 1016/4/6
f 1015/5/6 1009/5/6 1016/5/6
f 1010/5/6 1011/5/6 1017/5/6
f 1016/4/6 1010/4/6 1017/4/6
f 1011/4/6 1012/4/6 1018/4/6
f 1017/5/6 1011/5/6 1018/5/6
f 1012/5/6 1013/5/6 1019/5/6
f 1018/4/6 1012/4/6 1019/4/6
f 1013/4/6 1014/4/6 1020/4/6
f 1019/5/6 1013/5/6 1020/5/6
f 1020/4/6 1014/4/6 1021/4/6
f 1022/5/6 1023/5/6 1029/5/6
f 1023/4/6 1024/4/6 1030/4/6
f 1029/5/6 1023/5/6 1030/5/6
f 1024/5/6 1025/5/6 1031/5/6
f 1030/4/6 1024/4/6 1031/4/6
f 1025/4/6 1026/4/6 1032/4/6
f 1031/5/6 1025/5/6 1032/5/6
f 1026/5/6 1027/5/6 1033/5/6
f 1032/4/6 1026/4/6 1033/4/6
f 1027/4/6 1028/4/6 1034/4/6
f 1033/5/6 1027/5/6 1034/5/6
f 1034/4/6 1028/4/6 1035/4/6
f 1036/5/6 1037/5/6 1044/5/6
f 1044/5/6 1037/5/6 1045/5/6
f 1038/5/6 1039/5/6 1046/5/6
f 1039/4/6 1040/4/6 1047/4/6
f 1046/5/6 1039/5/6 1047/5/6
f 1040/5/6 1041/5/6 1048/5/6
f 1047/4/6 1040/4/6 1048/4/6
f 1041/4/6 1042/4/6 1049/4/6
f 1048/5/6 1041/5/6 1049/5/6
f 1042/5/6 1043/5/6 1050/5/6
f 1049/4/6 1042/4/6 1050/4/6
f 1043/4/6 1044/4/6 1051/4/6
f 1050/5/6 1043/5/6 1051/5/6
f 1051/4/6 1044/4/6 1052/4/6
f 1052/5/6 1053/5/6 1054/5/6
f 1054/5/6 1053/5/6 1055/5/6
f 1056/5/6 1057/5/6 1059/5/6
f 1059/5/6 1057/5/6 1060/5/6
f 1058/5/6 1059/5/6 1061/5/6
f 1061/5/6 1059/5/6 1062/5/6
f 1062/5/6 1063/5/6 1064/5/6
f 1064/5/6 1063/5/6 1065/5/6
f 1066/5/6 1067/5/6 1069/5/6
f 1069/5/6 1067/5/6 1070/5/6
f 1068/5/6 1069/5/6 1072/5/6
f 1070/5/6 1071/5/6 1072/5/6
f 1069/5/6 1070/5/6 1072/5/6
f 1072/5/6 1071/5/6 1073/5/6
f 1073/5/6 1071/5/6 1074/5/6
f 1074/5/6 1071/5/6 1075/5/6
f 1073/5/6 1074/5/6 1076/5/6
f 1076/5/6 1074/5/6 1077/5/6
