# MagicaVoxel @ Ephtracy

# group
o 

# material
mtllib spaceship_inside-10.mtl
usemtl palette

# normals
vn -1 0 0
vn 1 0 0
vn 0 0 1
vn 0 0 -1
vn 0 -1 0
vn 0 1 0

# texcoords
vt 0.0683594 0.5
vt 0.0917969 0.5
vt 0.115234 0.5
vt 0.181641 0.5
vt 0.294922 0.5
vt 0.419922 0.5
vt 0.439453 0.5
vt 0.849609 0.5
vt 0.865234 0.5
vt 0.869141 0.5
vt 0.873047 0.5
vt 0.958984 0.5
vt 0.970703 0.5
vt 0.978516 0.5
vt 0.982422 0.5
vt 0.990234 0.5

# verts
v -1.5 -1 0.15
v -1.5 -1 -0.15
v -1.5 1 0.15
v -1.5 1 -0.15
v -1.3 -0.7 0.05
v -1.3 -0.7 -0.15
v -1.3 0 0.05
v -1.3 0 -0.15
v -1.3 0.2 0.05
v -1.3 0.2 -0.15
v -1.3 0.3 0.05
v -1.3 0.3 -0.15
v -1.3 0.6 0.05
v -1.3 0.6 -0.15
v -1.3 0.7 0.05
v -1.3 0.7 -0.15
v -1.2 -0.5 0.15
v -1.2 -0.5 0.05
v -1.2 -0.4 0.15
v -1.2 -0.4 0.05
v -1.2 0.1 0.05
v -1.2 0.1 -0.15
v -1.2 0.2 0.15
v -1.2 0.2 0.05
v -1.2 0.2 -0.15
v -1.2 0.3 0.15
v -1.2 0.3 0.05
v -1.2 0.3 -0.15
v -1.2 0.4 0.05
v -1.2 0.4 -0.15
v -1.2 0.5 0.05
v -1.2 0.5 -0.15
v -1.2 0.6 0.05
v -1.2 0.6 -0.15
v -1.2 0.7 0.05
v -1.2 0.7 -0.15
v -1.2 0.8 0.05
v -1.2 0.8 -0.15
v -1.1 -0.6 0.05
v -1.1 -0.6 -0.05
v -1.1 -0.5 0.05
v -1.1 -0.5 -0.05
v -1.1 -0.4 0.05
v -1.1 -0.4 -0.05
v -1.1 -0.1 0.05
v -1.1 -0.1 -0.05
v -1.1 0.6 0.05
v -1.1 0.6 -0.05
v -1.1 0.7 0.05
v -1.1 0.7 -0.05
v -1.1 0.9 0.05
v -1.1 0.9 -0.05
v -1.1 1 0.05
v -1.1 1 -0.05
v -0.9 -0.7 0.05
v -0.9 -0.7 -0.15
v -0.9 0 0.05
v -0.9 0 -0.15
v -0.9 0.2 0.05
v -0.9 0.2 -0.15
v -0.9 0.3 0.05
v -0.9 0.3 -0.15
v -0.9 0.6 0.05
v -0.9 0.6 -0.15
v -0.9 0.7 0.05
v -0.9 0.7 -0.15
v -0.8 -0.2 0.15
v -0.8 -0.2 0.05
v -0.8 -0.1 0.15
v -0.8 -0.1 0.05
v -0.8 0.1 0.05
v -0.8 0.1 -0.15
v -0.8 0.2 0.15
v -0.8 0.2 0.05
v -0.8 0.2 -0.15
v -0.8 0.3 0.15
v -0.8 0.3 0.05
v -0.8 0.3 -0.15
v -0.8 0.4 0.05
v -0.8 0.4 -0.15
v -0.8 0.5 0.05
v -0.8 0.5 -0.15
v -0.8 0.6 0.05
v -0.8 0.6 -0.15
v -0.8 0.7 0.05
v -0.8 0.7 -0.15
v -0.8 0.8 0.05
v -0.8 0.8 -0.15
v -0.7 -0.6 0.05
v -0.7 -0.6 -0.05
v -0.7 -0.2 0.05
v -0.7 -0.2 -0.05
v -0.7 0.6 0.05
v -0.7 0.6 -0.05
v -0.7 0.7 0.05
v -0.7 0.7 -0.05
v -0.7 0.9 0.05
v -0.7 0.9 -0.05
v -0.7 1 0.05
v -0.7 1 -0.05
v -0.5 -0.7 0.05
v -0.5 -0.7 -0.15
v -0.5 0 0.05
v -0.5 0 -0.15
v -0.5 0.2 0.05
v -0.5 0.2 -0.15
v -0.5 0.3 0.05
v -0.5 0.3 -0.15
v -0.5 0.6 0.05
v -0.5 0.6 -0.15
v -0.5 0.7 0.05
v -0.5 0.7 -0.15
v -0.4 -0.4 0.15
v -0.4 -0.4 0.05
v -0.4 -0.3 0.15
v -0.4 -0.3 0.05
v -0.4 0.1 0.05
v -0.4 0.1 -0.15
v -0.4 0.2 0.05
v -0.4 0.2 -0.15
v -0.4 0.3 0.05
v -0.4 0.3 -0.15
v -0.4 0.4 0.05
v -0.4 0.4 -0.15
v -0.4 0.5 0.05
v -0.4 0.5 -0.15
v -0.4 0.6 0.05
v -0.4 0.6 -0.15
v -0.4 0.7 0.05
v -0.4 0.7 -0.15
v -0.4 0.8 0.05
v -0.4 0.8 -0.15
v -0.3 -0.6 0.05
v -0.3 -0.6 -0.05
v -0.3 -0.4 0.05
v -0.3 -0.4 -0.05
v -0.3 -0.3 0.05
v -0.3 -0.3 -0.05
v -0.3 -0.1 0.05
v -0.3 -0.1 -0.05
v -0.3 0.2 0.05
v -0.3 0.2 -0.05
v -0.3 0.3 0.05
v -0.3 0.3 -0.05
v -0.3 0.6 0.05
v -0.3 0.6 -0.05
v -0.3 0.7 0.05
v -0.3 0.7 -0.05
v -0.3 0.9 0.05
v -0.3 0.9 -0.05
v -0.3 1 0.05
v -0.3 1 -0.05
v -0.1 -0.4 -0.05
v -0.1 -0.4 -0.15
v -0.1 -0.3 -0.05
v -0.1 -0.3 -0.15
v -0.1 0.2 0.05
v -0.1 0.2 -0.15
v -0.1 0.3 0.05
v -0.1 0.3 -0.15
v -0.1 0.6 0.05
v -0.1 0.6 -0.15
v -0.1 0.7 0.05
v -0.1 0.7 -0.15
v 0 -0.5 -0.05
v 0 -0.5 -0.15
v 0 -0.4 0.05
v 0 -0.4 -0.05
v 0 -0.4 -0.15
v 0 -0.3 0.05
v 0 -0.3 -0.05
v 0 -0.3 -0.15
v 0 -0.2 -0.05
v 0 -0.2 -0.15
v 0 0.1 0.05
v 0 0.1 -0.15
v 0 0.2 0.05
v 0 0.2 -0.15
v 0 0.3 0.05
v 0 0.3 -0.15
v 0 0.4 0.05
v 0 0.4 -0.15
v 0 0.5 0.05
v 0 0.5 -0.15
v 0 0.6 0.15
v 0 0.6 0.05
v 0 0.6 -0.15
v 0 0.7 0.15
v 0 0.7 0.05
v 0 0.7 -0.15
v 0 0.8 0.05
v 0 0.8 -0.15
v 0.1 -0.6 -0.05
v 0.1 -0.6 -0.15
v 0.1 -0.5 0.05
v 0.1 -0.5 -0.05
v 0.1 -0.5 -0.15
v 0.1 -0.4 0.05
v 0.1 -0.4 -0.05
v 0.1 -0.3 0.05
v 0.1 -0.3 -0.05
v 0.1 -0.2 0.05
v 0.1 -0.2 -0.05
v 0.1 -0.2 -0.15
v 0.1 -0.1 -0.05
v 0.1 -0.1 -0.15
v 0.1 0.2 0.05
v 0.1 0.2 -0.05
v 0.1 0.3 0.05
v 0.1 0.3 -0.05
v 0.1 0.9 0.05
v 0.1 0.9 -0.05
v 0.1 1 0.05
v 0.1 1 -0.05
v 0.3 0 0.05
v 0.3 0 -0.05
v 0.3 0.1 0.05
v 0.3 0.1 -0.05
v 0.3 0.2 0.05
v 0.3 0.2 -0.05
v 0.3 0.3 0.05
v 0.3 0.3 -0.05
v 0.3 0.4 0.05
v 0.3 0.4 -0.05
v 0.3 0.7 0.05
v 0.3 0.7 -0.05
v 0.3 0.8 0.05
v 0.3 0.8 -0.05
v 0.3 0.9 0.05
v 0.3 0.9 -0.05
v 0.5 -0.6 -0.05
v 0.5 -0.6 -0.15
v 0.5 -0.4 -0.05
v 0.5 -0.4 -0.15
v 0.5 -0.3 -0.05
v 0.5 -0.3 -0.15
v 0.5 -0.1 -0.05
v 0.5 -0.1 -0.15
v 0.5 0.7 -0.05
v 0.5 0.7 -0.15
v 0.5 0.8 -0.05
v 0.5 0.8 -0.15
v 0.5 0.9 -0.05
v 0.5 0.9 -0.15
v 0.6 -0.7 -0.05
v 0.6 -0.7 -0.15
v 0.6 -0.6 -0.05
v 0.6 -0.6 -0.15
v 0.6 -0.1 -0.05
v 0.6 -0.1 -0.15
v 0.6 0 -0.05
v 0.6 0 -0.15
v 0.6 0.3 -0.05
v 0.6 0.3 -0.15
v 0.6 0.4 -0.05
v 0.6 0.4 -0.15
v 0.7 -0.8 -0.05
v 0.7 -0.8 -0.15
v 0.7 -0.7 -0.05
v 0.7 -0.7 -0.15
v 0.7 0 -0.05
v 0.7 0 -0.15
v 0.7 0.1 -0.05
v 0.7 0.1 -0.15
v 0.8 -0.4 0.05
v 0.8 -0.4 -0.05
v 0.8 -0.3 0.05
v 0.8 -0.3 -0.05
v 0.8 0.6 -0.05
v 0.8 0.6 -0.15
v 0.8 0.7 -0.05
v 0.8 0.7 -0.15
v 0.9 -0.5 0.05
v 0.9 -0.5 -0.05
v 0.9 -0.4 0.15
v 0.9 -0.4 0.05
v 0.9 -0.4 -0.05
v 0.9 -0.3 0.15
v 0.9 -0.3 0.05
v 0.9 -0.3 -0.05
v 0.9 -0.2 0.05
v 0.9 -0.2 -0.05
v 1.1 0.7 0.05
v 1.1 0.7 -0.05
v 1.1 0.7 -0.15
v 1.1 0.8 0.05
v 1.1 0.8 -0.15
v 1.2 0.8 0.05
v 1.2 0.8 -0.05
v 1.2 0.9 0.05
v 1.2 0.9 -0.05
v 1.4 -0.9 0.15
v 1.4 -0.9 -0.15
v 1.4 -0.6 -0.05
v 1.4 -0.6 -0.15
v 1.4 -0.4 -0.05
v 1.4 -0.3 -0.05
v 1.4 -0.1 -0.05
v 1.4 -0.1 -0.15
v 1.4 0.9 0.15
v 1.4 0.9 -0.15
v -1.4 -0.9 0.15
v -1.4 -0.9 -0.15
v -1.4 0.9 0.15
v -1.4 0.9 -0.15
v -1.2 -0.6 0.05
v -1.2 -0.6 -0.05
v -1.2 -0.5 0.05
v -1.2 -0.5 -0.05
v -1.2 -0.4 0.05
v -1.2 -0.4 -0.05
v -1.2 -0.1 0.05
v -1.2 -0.1 -0.05
v -1.2 0.6 0.05
v -1.2 0.6 -0.05
v -1.2 0.7 0.05
v -1.2 0.7 -0.05
v -1.2 0.9 0.05
v -1.2 0.9 -0.05
v -1.2 1 0.05
v -1.2 1 -0.05
v -1.1 -0.5 0.15
v -1.1 -0.5 0.05
v -1.1 -0.4 0.15
v -1.1 -0.4 0.05
v -1.1 0.1 0.05
v -1.1 0.1 -0.15
v -1.1 0.2 0.15
v -1.1 0.2 0.05
v -1.1 0.2 -0.15
v -1.1 0.3 0.15
v -1.1 0.3 0.05
v -1.1 0.3 -0.15
v -1.1 0.4 0.05
v -1.1 0.4 -0.15
v -1.1 0.5 0.05
v -1.1 0.5 -0.15
v -1.1 0.6 0.05
v -1.1 0.6 -0.15
v -1.1 0.7 0.05
v -1.1 0.7 -0.15
v -1.1 0.8 0.05
v -1.1 0.8 -0.15
v -1 -0.7 0.05
v -1 -0.7 -0.15
v -1 0 0.05
v -1 0 -0.15
v -1 0.2 0.05
v -1 0.2 -0.15
v -1 0.3 0.05
v -1 0.3 -0.15
v -1 0.6 0.05
v -1 0.6 -0.15
v -1 0.7 0.05
v -1 0.7 -0.15
v -0.8 -0.6 0.05
v -0.8 -0.6 -0.05
v -0.8 -0.2 0.05
v -0.8 -0.2 -0.05
v -0.8 0.6 0.05
v -0.8 0.6 -0.05
v -0.8 0.7 0.05
v -0.8 0.7 -0.05
v -0.8 0.9 0.05
v -0.8 0.9 -0.05
v -0.8 1 0.05
v -0.8 1 -0.05
v -0.7 -0.2 0.15
v -0.7 -0.2 0.05
v -0.7 -0.1 0.15
v -0.7 -0.1 0.05
v -0.7 0.1 0.05
v -0.7 0.1 -0.15
v -0.7 0.2 0.15
v -0.7 0.2 0.05
v -0.7 0.2 -0.15
v -0.7 0.3 0.15
v -0.7 0.3 0.05
v -0.7 0.3 -0.15
v -0.7 0.4 0.05
v -0.7 0.4 -0.15
v -0.7 0.5 0.05
v -0.7 0.5 -0.15
v -0.7 0.6 0.05
v -0.7 0.6 -0.15
v -0.7 0.7 0.05
v -0.7 0.7 -0.15
v -0.7 0.8 0.05
v -0.7 0.8 -0.15
v -0.6 -0.7 0.05
v -0.6 -0.7 -0.15
v -0.6 0 0.05
v -0.6 0 -0.15
v -0.6 0.2 0.05
v -0.6 0.2 -0.15
v -0.6 0.3 0.05
v -0.6 0.3 -0.15
v -0.6 0.6 0.05
v -0.6 0.6 -0.15
v -0.6 0.7 0.05
v -0.6 0.7 -0.15
v -0.4 -0.6 0.05
v -0.4 -0.6 -0.05
v -0.4 -0.4 0.05
v -0.4 -0.4 -0.05
v -0.4 -0.3 0.05
v -0.4 -0.3 -0.05
v -0.4 -0.1 0.05
v -0.4 -0.1 -0.05
v -0.4 0.2 0.05
v -0.4 0.2 -0.05
v -0.4 0.3 0.05
v -0.4 0.3 -0.05
v -0.4 0.6 0.05
v -0.4 0.6 -0.05
v -0.4 0.7 0.05
v -0.4 0.7 -0.05
v -0.4 0.9 0.05
v -0.4 0.9 -0.05
v -0.4 1 0.05
v -0.4 1 -0.05
v -0.3 -0.4 0.15
v -0.3 -0.4 0.05
v -0.3 -0.3 0.15
v -0.3 -0.3 0.05
v -0.3 0.1 0.05
v -0.3 0.1 -0.15
v -0.3 0.2 0.05
v -0.3 0.2 -0.15
v -0.3 0.3 0.05
v -0.3 0.3 -0.15
v -0.3 0.4 0.05
v -0.3 0.4 -0.15
v -0.3 0.5 0.05
v -0.3 0.5 -0.15
v -0.3 0.6 0.05
v -0.3 0.6 -0.15
v -0.3 0.7 0.05
v -0.3 0.7 -0.15
v -0.3 0.8 0.05
v -0.3 0.8 -0.15
v -0.2 -0.7 0.05
v -0.2 -0.7 -0.15
v -0.2 0 0.05
v -0.2 0 -0.15
v -0.2 0.2 0.05
v -0.2 0.2 -0.15
v -0.2 0.3 0.05
v -0.2 0.3 -0.15
v -0.2 0.6 0.05
v -0.2 0.6 -0.15
v -0.2 0.7 0.05
v -0.2 0.7 -0.15
v 0 0.2 0.05
v 0 0.2 -0.05
v 0 0.3 0.05
v 0 0.3 -0.05
v 0 0.9 0.05
v 0 0.9 -0.05
v 0 1 0.05
v 0 1 -0.05
v 0.1 0.1 0.05
v 0.1 0.1 -0.15
v 0.1 0.2 0.05
v 0.1 0.2 -0.15
v 0.1 0.3 0.05
v 0.1 0.3 -0.15
v 0.1 0.4 0.05
v 0.1 0.4 -0.15
v 0.1 0.5 0.05
v 0.1 0.5 -0.15
v 0.1 0.6 0.15
v 0.1 0.6 0.05
v 0.1 0.6 -0.15
v 0.1 0.7 0.15
v 0.1 0.7 0.05
v 0.1 0.7 -0.15
v 0.1 0.8 0.05
v 0.1 0.8 -0.15
v 0.2 -0.6 -0.05
v 0.2 -0.6 -0.15
v 0.2 -0.5 0.05
v 0.2 -0.5 -0.05
v 0.2 -0.5 -0.15
v 0.2 -0.4 0.05
v 0.2 -0.4 -0.05
v 0.2 -0.3 0.05
v 0.2 -0.3 -0.05
v 0.2 -0.2 0.05
v 0.2 -0.2 -0.05
v 0.2 -0.2 -0.15
v 0.2 -0.1 -0.05
v 0.2 -0.1 -0.15
v 0.2 0.2 0.05
v 0.2 0.2 -0.15
v 0.2 0.3 0.05
v 0.2 0.3 -0.15
v 0.2 0.6 0.05
v 0.2 0.6 -0.15
v 0.2 0.7 0.05
v 0.2 0.7 -0.15
v 0.3 -0.5 -0.05
v 0.3 -0.5 -0.15
v 0.3 -0.4 0.05
v 0.3 -0.4 -0.05
v 0.3 -0.4 -0.15
v 0.3 -0.3 0.05
v 0.3 -0.3 -0.05
v 0.3 -0.3 -0.15
v 0.3 -0.2 -0.05
v 0.3 -0.2 -0.15
v 0.4 -0.4 -0.05
v 0.4 -0.4 -0.15
v 0.4 -0.3 -0.05
v 0.4 -0.3 -0.15
v 0.4 0 0.05
v 0.4 0 -0.05
v 0.4 0.1 0.05
v 0.4 0.1 -0.05
v 0.4 0.2 0.05
v 0.4 0.2 -0.05
v 0.4 0.3 0.05
v 0.4 0.3 -0.05
v 0.4 0.4 0.05
v 0.4 0.4 -0.05
v 0.4 0.7 0.05
v 0.4 0.7 -0.05
v 0.4 0.8 0.05
v 0.4 0.8 -0.05
v 0.4 0.9 0.05
v 0.4 0.9 -0.05
v 0.6 0.8 -0.05
v 0.6 0.8 -0.15
v 0.6 0.9 -0.05
v 0.6 0.9 -0.15
v 0.9 0.7 -0.05
v 0.9 0.7 -0.15
v 0.9 0.8 -0.05
v 0.9 0.8 -0.15
v 1 -0.5 0.05
v 1 -0.5 -0.05
v 1 -0.4 0.15
v 1 -0.4 0.05
v 1 -0.4 -0.05
v 1 -0.3 0.15
v 1 -0.3 0.05
v 1 -0.3 -0.05
v 1 -0.2 0.05
v 1 -0.2 -0.05
v 1.2 -0.8 -0.05
v 1.2 -0.8 -0.15
v 1.2 -0.7 -0.05
v 1.2 -0.7 -0.15
v 1.2 0 -0.05
v 1.2 0 -0.15
v 1.2 0.1 -0.05
v 1.2 0.1 -0.15
v 1.2 0.6 -0.05
v 1.2 0.6 -0.15
v 1.2 0.7 -0.05
v 1.2 0.7 -0.15
v 1.3 -0.7 -0.05
v 1.3 -0.7 -0.15
v 1.3 -0.6 -0.05
v 1.3 -0.6 -0.15
v 1.3 -0.4 0.05
v 1.3 -0.4 -0.05
v 1.3 -0.3 0.05
v 1.3 -0.3 -0.05
v 1.3 -0.1 -0.05
v 1.3 -0.1 -0.15
v 1.3 0 -0.05
v 1.3 0 -0.15
v 1.3 0.3 -0.05
v 1.3 0.3 -0.15
v 1.3 0.4 -0.05
v 1.3 0.4 -0.15
v 1.3 0.7 0.05
v 1.3 0.7 -0.05
v 1.3 0.7 -0.15
v 1.3 0.8 0.05
v 1.3 0.8 -0.05
v 1.3 0.8 -0.15
v 1.3 0.9 0.05
v 1.3 0.9 -0.05
v 1.5 -1 0.15
v 1.5 -1 -0.15
v 1.5 1 0.15
v 1.5 1 -0.15
v -1.5 -1 0.15
v -1.5 1 0.15
v -1.4 -0.9 0.15
v -1.4 0.9 0.15
v -1.2 -0.5 0.15
v -1.2 -0.4 0.15
v -1.2 0.2 0.15
v -1.2 0.3 0.15
v -1.1 -0.5 0.15
v -1.1 -0.4 0.15
v -1.1 0.2 0.15
v -1.1 0.3 0.15
v -0.8 -0.2 0.15
v -0.8 -0.1 0.15
v -0.8 0.2 0.15
v -0.8 0.3 0.15
v -0.7 -0.2 0.15
v -0.7 -0.1 0.15
v -0.7 0.2 0.15
v -0.7 0.3 0.15
v -0.4 -0.4 0.15
v -0.4 -0.3 0.15
v -0.3 -0.4 0.15
v -0.3 -0.3 0.15
v 0 0.6 0.15
v 0 0.7 0.15
v 0.1 0.6 0.15
v 0.1 0.7 0.15
v 0.9 -0.4 0.15
v 0.9 -0.3 0.15
v 1 -0.4 0.15
v 1 -0.3 0.15
v 1.4 -0.9 0.15
v 1.4 0.9 0.15
v 1.5 -1 0.15
v 1.5 1 0.15
v -1.3 -0.7 0.05
v -1.3 0 0.05
v -1.3 0.2 0.05
v -1.3 0.3 0.05
v -1.3 0.6 0.05
v -1.3 0.7 0.05
v -1.2 -0.6 0.05
v -1.2 -0.5 0.05
v -1.2 -0.4 0.05
v -1.2 -0.1 0.05
v -1.2 0.1 0.05
v -1.2 0.2 0.05
v -1.2 0.3 0.05
v -1.2 0.4 0.05
v -1.2 0.5 0.05
v -1.2 0.6 0.05
v -1.2 0.7 0.05
v -1.2 0.8 0.05
v -1.1 -0.6 0.05
v -1.1 -0.5 0.05
v -1.1 -0.4 0.05
v -1.1 -0.1 0.05
v -1.1 0.1 0.05
v -1.1 0.2 0.05
v -1.1 0.3 0.05
v -1.1 0.4 0.05
v -1.1 0.5 0.05
v -1.1 0.6 0.05
v -1.1 0.7 0.05
v -1.1 0.8 0.05
v -1 -0.7 0.05
v -1 0 0.05
v -1 0.2 0.05
v -1 0.3 0.05
v -1 0.6 0.05
v -1 0.7 0.05
v -0.9 -0.7 0.05
v -0.9 0 0.05
v -0.9 0.2 0.05
v -0.9 0.3 0.05
v -0.9 0.6 0.05
v -0.9 0.7 0.05
v -0.8 -0.6 0.05
v -0.8 -0.2 0.05
v -0.8 -0.1 0.05
v -0.8 0.1 0.05
v -0.8 0.2 0.05
v -0.8 0.3 0.05
v -0.8 0.4 0.05
v -0.8 0.5 0.05
v -0.8 0.6 0.05
v -0.8 0.7 0.05
v -0.8 0.8 0.05
v -0.7 -0.6 0.05
v -0.7 -0.2 0.05
v -0.7 -0.1 0.05
v -0.7 0.1 0.05
v -0.7 0.2 0.05
v -0.7 0.3 0.05
v -0.7 0.4 0.05
v -0.7 0.5 0.05
v -0.7 0.6 0.05
v -0.7 0.7 0.05
v -0.7 0.8 0.05
v -0.6 -0.7 0.05
v -0.6 0 0.05
v -0.6 0.2 0.05
v -0.6 0.3 0.05
v -0.6 0.6 0.05
v -0.6 0.7 0.05
v -0.5 -0.7 0.05
v -0.5 0 0.05
v -0.5 0.2 0.05
v -0.5 0.3 0.05
v -0.5 0.6 0.05
v -0.5 0.7 0.05
v -0.4 -0.6 0.05
v -0.4 -0.4 0.05
v -0.4 -0.3 0.05
v -0.4 -0.1 0.05
v -0.4 0.1 0.05
v -0.4 0.2 0.05
v -0.4 0.3 0.05
v -0.4 0.4 0.05
v -0.4 0.5 0.05
v -0.4 0.6 0.05
v -0.4 0.7 0.05
v -0.4 0.8 0.05
v -0.3 -0.6 0.05
v -0.3 -0.4 0.05
v -0.3 -0.3 0.05
v -0.3 -0.1 0.05
v -0.3 0.1 0.05
v -0.3 0.2 0.05
v -0.3 0.3 0.05
v -0.3 0.4 0.05
v -0.3 0.5 0.05
v -0.3 0.6 0.05
v -0.3 0.7 0.05
v -0.3 0.8 0.05
v -0.2 -0.7 0.05
v -0.2 0 0.05
v -0.2 0.2 0.05
v -0.2 0.3 0.05
v -0.2 0.6 0.05
v -0.2 0.7 0.05
v -0.1 0.2 0.05
v -0.1 0.3 0.05
v -0.1 0.6 0.05
v -0.1 0.7 0.05
v 0 -0.4 0.05
v 0 -0.3 0.05
v 0 0.1 0.05
v 0 0.2 0.05
v 0 0.3 0.05
v 0 0.4 0.05
v 0 0.5 0.05
v 0 0.6 0.05
v 0 0.7 0.05
v 0 0.8 0.05
v 0.1 -0.5 0.05
v 0.1 -0.4 0.05
v 0.1 -0.3 0.05
v 0.1 -0.2 0.05
v 0.1 0.1 0.05
v 0.1 0.2 0.05
v 0.1 0.3 0.05
v 0.1 0.4 0.05
v 0.1 0.5 0.05
v 0.1 0.6 0.05
v 0.1 0.7 0.05
v 0.1 0.8 0.05
v 0.2 -0.5 0.05
v 0.2 -0.4 0.05
v 0.2 -0.3 0.05
v 0.2 -0.2 0.05
v 0.2 0.2 0.05
v 0.2 0.3 0.05
v 0.2 0.6 0.05
v 0.2 0.7 0.05
v 0.3 -0.4 0.05
v 0.3 -0.3 0.05
v 0.3 0 0.05
v 0.3 0.1 0.05
v 0.3 0.2 0.05
v 0.3 0.3 0.05
v 0.3 0.4 0.05
v 0.3 0.7 0.05
v 0.3 0.8 0.05
v 0.3 0.9 0.05
v 0.4 0 0.05
v 0.4 0.1 0.05
v 0.4 0.2 0.05
v 0.4 0.3 0.05
v 0.4 0.4 0.05
v 0.4 0.7 0.05
v 0.4 0.8 0.05
v 0.4 0.9 0.05
v 0.8 -0.4 0.05
v 0.8 -0.3 0.05
v 0.9 -0.5 0.05
v 0.9 -0.4 0.05
v 0.9 -0.3 0.05
v 0.9 -0.2 0.05
v 1 -0.5 0.05
v 1 -0.4 0.05
v 1 -0.3 0.05
v 1 -0.2 0.05
v 1.1 0.7 0.05
v 1.1 0.8 0.05
v 1.2 0.7 0.05
v 1.2 0.8 0.05
v 1.2 0.9 0.05
v 1.3 -0.4 0.05
v 1.3 -0.3 0.05
v 1.3 0.7 0.05
v 1.3 0.8 0.05
v 1.3 0.9 0.05
v -1.2 -0.6 -0.05
v -1.2 -0.5 -0.05
v -1.2 -0.4 -0.05
v -1.2 -0.1 -0.05
v -1.2 0.6 -0.05
v -1.2 0.7 -0.05
v -1.2 0.9 -0.05
v -1.2 1 -0.05
v -1.1 -0.6 -0.05
v -1.1 -0.5 -0.05
v -1.1 -0.4 -0.05
v -1.1 -0.1 -0.05
v -1.1 0.6 -0.05
v -1.1 0.7 -0.05
v -1.1 0.9 -0.05
v -1.1 1 -0.05
v -0.8 -0.6 -0.05
v -0.8 -0.2 -0.05
v -0.8 0.6 -0.05
v -0.8 0.7 -0.05
v -0.8 0.9 -0.05
v -0.8 1 -0.05
v -0.7 -0.6 -0.05
v -0.7 -0.2 -0.05
v -0.7 0.6 -0.05
v -0.7 0.7 -0.05
v -0.7 0.9 -0.05
v -0.7 1 -0.05
v -0.4 -0.6 -0.05
v -0.4 -0.4 -0.05
v -0.4 -0.3 -0.05
v -0.4 -0.1 -0.05
v -0.4 0.2 -0.05
v -0.4 0.3 -0.05
v -0.4 0.6 -0.05
v -0.4 0.7 -0.05
v -0.4 0.9 -0.05
v -0.4 1 -0.05
v -0.3 -0.6 -0.05
v -0.3 -0.4 -0.05
v -0.3 -0.3 -0.05
v -0.3 -0.1 -0.05
v -0.3 0.2 -0.05
v -0.3 0.3 -0.05
v -0.3 0.6 -0.05
v -0.3 0.7 -0.05
v -0.3 0.9 -0.05
v -0.3 1 -0.05
v -0.1 -0.4 -0.05
v -0.1 -0.3 -0.05
v 0 -0.5 -0.05
v 0 -0.4 -0.05
v 0 -0.3 -0.05
v 0 -0.2 -0.05
v 0 0.2 -0.05
v 0 0.3 -0.05
v 0 0.9 -0.05
v 0 1 -0.05
v 0.1 -0.6 -0.05
v 0.1 -0.5 -0.05
v 0.1 -0.4 -0.05
v 0.1 -0.3 -0.05
v 0.1 -0.2 -0.05
v 0.1 -0.1 -0.05
v 0.1 0.2 -0.05
v 0.1 0.3 -0.05
v 0.1 0.9 -0.05
v 0.1 1 -0.05
v 0.2 -0.6 -0.05
v 0.2 -0.5 -0.05
v 0.2 -0.4 -0.05
v 0.2 -0.3 -0.05
v 0.2 -0.2 -0.05
v 0.2 -0.1 -0.05
v 0.3 -0.5 -0.05
v 0.3 -0.4 -0.05
v 0.3 -0.3 -0.05
v 0.3 -0.2 -0.05
v 0.4 -0.4 -0.05
v 0.4 -0.3 -0.05
v 0.5 -0.6 -0.05
v 0.5 -0.4 -0.05
v 0.5 -0.3 -0.05
v 0.5 -0.1 -0.05
v 0.5 0.7 -0.05
v 0.5 0.8 -0.05
v 0.5 0.9 -0.05
v 0.6 -0.7 -0.05
v 0.6 -0.6 -0.05
v 0.6 -0.4 -0.05
v 0.6 -0.3 -0.05
v 0.6 -0.1 -0.05
v 0.6 0 -0.05
v 0.6 0.3 -0.05
v 0.6 0.4 -0.05
v 0.6 0.8 -0.05
v 0.6 0.9 -0.05
v 0.7 -0.8 -0.05
v 0.7 -0.7 -0.05
v 0.7 -0.6 -0.05
v 0.7 -0.1 -0.05
v 0.7 0 -0.05
v 0.7 0.1 -0.05
v 0.7 0.7 -0.05
v 0.7 0.8 -0.05
v 0.8 -0.4 -0.05
v 0.8 -0.3 -0.05
v 0.8 0.6 -0.05
v 0.8 0.7 -0.05
v 0.9 -0.8 -0.05
v 0.9 -0.7 -0.05
v 0.9 -0.5 -0.05
v 0.9 -0.4 -0.05
v 0.9 -0.3 -0.05
v 0.9 -0.2 -0.05
v 0.9 0 -0.05
v 0.9 0.1 -0.05
v 0.9 0.7 -0.05
v 0.9 0.8 -0.05
v 1 -0.8 -0.05
v 1 -0.7 -0.05
v 1 -0.5 -0.05
v 1 -0.4 -0.05
v 1 -0.3 -0.05
v 1 -0.2 -0.05
v 1 0 -0.05
v 1 0.1 -0.05
v 1 0.6 -0.05
v 1 0.7 -0.05
v 1.1 0.6 -0.05
v 1.1 0.7 -0.05
v 1.2 -0.8 -0.05
v 1.2 -0.7 -0.05
v 1.2 -0.6 -0.05
v 1.2 -0.1 -0.05
v 1.2 0 -0.05
v 1.2 0.1 -0.05
v 1.2 0.6 -0.05
v 1.2 0.7 -0.05
v 1.3 -0.7 -0.05
v 1.3 -0.6 -0.05
v 1.3 -0.4 -0.05
v 1.3 -0.3 -0.05
v 1.3 -0.1 -0.05
v 1.3 0 -0.05
v 1.3 0.3 -0.05
v 1.3 0.4 -0.05
v 1.4 -0.6 -0.05
v 1.4 -0.4 -0.05
v 1.4 -0.3 -0.05
v 1.4 -0.1 -0.05
v -1.2 0.9 0.05
v -1.2 1 0.05
v -1.1 0.9 0.05
v -1.1 1 0.05
v -0.8 0.9 0.05
v -0.8 1 0.05
v -0.7 0.9 0.05
v -0.7 1 0.05
v -0.4 0.9 0.05
v -0.4 1 0.05
v -0.3 0.9 0.05
v -0.3 1 0.05
v 0 0.9 0.05
v 0 1 0.05
v 0.1 0.9 0.05
v 0.1 1 0.05
v 0.3 0 -0.05
v 0.3 0.1 -0.05
v 0.3 0.2 -0.05
v 0.3 0.3 -0.05
v 0.3 0.4 -0.05
v 0.3 0.7 -0.05
v 0.3 0.8 -0.05
v 0.3 0.9 -0.05
v 0.4 0 -0.05
v 0.4 0.1 -0.05
v 0.4 0.2 -0.05
v 0.4 0.3 -0.05
v 0.4 0.4 -0.05
v 0.4 0.7 -0.05
v 0.4 0.8 -0.05
v 0.4 0.9 -0.05
v 1.2 0.8 -0.05
v 1.2 0.9 -0.05
v 1.3 0.8 -0.05
v 1.3 0.9 -0.05
v -1.5 -1 -0.15
v -1.5 1 -0.15
v -1.4 -0.9 -0.15
v -1.4 0.9 -0.15
v -1.3 -0.7 -0.15
v -1.3 0 -0.15
v -1.3 0.2 -0.15
v -1.3 0.3 -0.15
v -1.3 0.6 -0.15
v -1.3 0.7 -0.15
v -1.2 -0.6 -0.15
v -1.2 -0.1 -0.15
v -1.2 0.1 -0.15
v -1.2 0.2 -0.15
v -1.2 0.3 -0.15
v -1.2 0.4 -0.15
v -1.2 0.5 -0.15
v -1.2 0.6 -0.15
v -1.2 0.7 -0.15
v -1.2 0.8 -0.15
v -1.1 -0.6 -0.15
v -1.1 -0.1 -0.15
v -1.1 0.1 -0.15
v -1.1 0.2 -0.15
v -1.1 0.3 -0.15
v -1.1 0.4 -0.15
v -1.1 0.5 -0.15
v -1.1 0.6 -0.15
v -1.1 0.7 -0.15
v -1.1 0.8 -0.15
v -1 -0.7 -0.15
v -1 0 -0.15
v -1 0.2 -0.15
v -1 0.3 -0.15
v -1 0.6 -0.15
v -1 0.7 -0.15
v -0.9 -0.7 -0.15
v -0.9 0 -0.15
v -0.9 0.2 -0.15
v -0.9 0.3 -0.15
v -0.9 0.6 -0.15
v -0.9 0.7 -0.15
v -0.8 -0.6 -0.15
v -0.8 -0.1 -0.15
v -0.8 0.1 -0.15
v -0.8 0.2 -0.15
v -0.8 0.3 -0.15
v -0.8 0.4 -0.15
v -0.8 0.5 -0.15
v -0.8 0.6 -0.15
v -0.8 0.7 -0.15
v -0.8 0.8 -0.15
v -0.7 -0.6 -0.15
v -0.7 -0.1 -0.15
v -0.7 0.1 -0.15
v -0.7 0.2 -0.15
v -0.7 0.3 -0.15
v -0.7 0.4 -0.15
v -0.7 0.5 -0.15
v -0.7 0.6 -0.15
v -0.7 0.7 -0.15
v -0.7 0.8 -0.15
v -0.6 -0.7 -0.15
v -0.6 0 -0.15
v -0.6 0.2 -0.15
v -0.6 0.3 -0.15
v -0.6 0.6 -0.15
v -0.6 0.7 -0.15
v -0.5 -0.7 -0.15
v -0.5 0 -0.15
v -0.5 0.2 -0.15
v -0.5 0.3 -0.15
v -0.5 0.6 -0.15
v -0.5 0.7 -0.15
v -0.4 -0.6 -0.15
v -0.4 -0.1 -0.15
v -0.4 0.1 -0.15
v -0.4 0.2 -0.15
v -0.4 0.3 -0.15
v -0.4 0.4 -0.15
v -0.4 0.5 -0.15
v -0.4 0.6 -0.15
v -0.4 0.7 -0.15
v -0.4 0.8 -0.15
v -0.3 -0.6 -0.15
v -0.3 -0.1 -0.15
v -0.3 0.1 -0.15
v -0.3 0.2 -0.15
v -0.3 0.3 -0.15
v -0.3 0.4 -0.15
v -0.3 0.5 -0.15
v -0.3 0.6 -0.15
v -0.3 0.7 -0.15
v -0.3 0.8 -0.15
v -0.2 -0.7 -0.15
v -0.2 0 -0.15
v -0.2 0.2 -0.15
v -0.2 0.3 -0.15
v -0.2 0.6 -0.15
v -0.2 0.7 -0.15
v -0.1 -0.4 -0.15
v -0.1 -0.3 -0.15
v -0.1 0.2 -0.15
v -0.1 0.3 -0.15
v -0.1 0.6 -0.15
v -0.1 0.7 -0.15
v 0 -0.5 -0.15
v 0 -0.4 -0.15
v 0 -0.3 -0.15
v 0 -0.2 -0.15
v 0 0.1 -0.15
v 0 0.2 -0.15
v 0 0.3 -0.15
v 0 0.4 -0.15
v 0 0.5 -0.15
v 0 0.6 -0.15
v 0 0.7 -0.15
v 0 0.8 -0.15
v 0.1 -0.6 -0.15
v 0.1 -0.5 -0.15
v 0.1 -0.4 -0.15
v 0.1 -0.3 -0.15
v 0.1 -0.2 -0.15
v 0.1 -0.1 -0.15
v 0.1 0.1 -0.15
v 0.1 0.2 -0.15
v 0.1 0.3 -0.15
v 0.1 0.4 -0.15
v 0.1 0.5 -0.15
v 0.1 0.6 -0.15
v 0.1 0.7 -0.15
v 0.1 0.8 -0.15
v 0.2 -0.6 -0.15
v 0.2 -0.5 -0.15
v 0.2 -0.4 -0.15
v 0.2 -0.3 -0.15
v 0.2 -0.2 -0.15
v 0.2 -0.1 -0.15
v 0.2 0.2 -0.15
v 0.2 0.3 -0.15
v 0.2 0.6 -0.15
v 0.2 0.7 -0.15
v 0.3 -0.5 -0.15
v 0.3 -0.4 -0.15
v 0.3 -0.3 -0.15
v 0.3 -0.2 -0.15
v 0.4 -0.4 -0.15
v 0.4 -0.3 -0.15
v 0.5 -0.6 -0.15
v 0.5 -0.4 -0.15
v 0.5 -0.3 -0.15
v 0.5 -0.1 -0.15
v 0.5 0.7 -0.15
v 0.5 0.8 -0.15
v 0.5 0.9 -0.15
v 0.6 -0.7 -0.15
v 0.6 -0.6 -0.15
v 0.6 -0.4 -0.15
v 0.6 -0.3 -0.15
v 0.6 -0.1 -0.15
v 0.6 0 -0.15
v 0.6 0.3 -0.15
v 0.6 0.4 -0.15
v 0.6 0.8 -0.15
v 0.6 0.9 -0.15
v 0.7 -0.8 -0.15
v 0.7 -0.7 -0.15
v 0.7 -0.6 -0.15
v 0.7 -0.1 -0.15
v 0.7 0 -0.15
v 0.7 0.1 -0.15
v 0.7 0.7 -0.15
v 0.7 0.8 -0.15
v 0.8 0.6 -0.15
v 0.8 0.7 -0.15
v 0.9 -0.8 -0.15
v 0.9 -0.7 -0.15
v 0.9 0 -0.15
v 0.9 0.1 -0.15
v 0.9 0.7 -0.15
v 0.9 0.8 -0.15
v 1 -0.8 -0.15
v 1 -0.7 -0.15
v 1 0 -0.15
v 1 0.1 -0.15
v 1 0.6 -0.15
v 1 0.7 -0.15
v 1.1 0.6 -0.15
v 1.1 0.7 -0.15
v 1.1 0.8 -0.15
v 1.2 -0.8 -0.15
v 1.2 -0.7 -0.15
v 1.2 -0.6 -0.15
v 1.2 -0.1 -0.15
v 1.2 0 -0.15
v 1.2 0.1 -0.15
v 1.2 0.6 -0.15
v 1.2 0.7 -0.15
v 1.3 -0.7 -0.15
v 1.3 -0.6 -0.15
v 1.3 -0.4 -0.15
v 1.3 -0.3 -0.15
v 1.3 -0.1 -0.15
v 1.3 0 -0.15
v 1.3 0.3 -0.15
v 1.3 0.4 -0.15
v 1.3 0.7 -0.15
v 1.3 0.8 -0.15
v 1.4 -0.9 -0.15
v 1.4 -0.6 -0.15
v 1.4 -0.4 -0.15
v 1.4 -0.3 -0.15
v 1.4 -0.1 -0.15
v 1.4 0.9 -0.15
v 1.5 -1 -0.15
v 1.5 1 -0.15
v -1.5 -1 0.15
v 1.5 -1 0.15
v -1.5 -1 -0.15
v 1.5 -1 -0.15
v 0.7 -0.8 -0.05
v 0.9 -0.8 -0.05
v 1 -0.8 -0.05
v 1.2 -0.8 -0.05
v 0.7 -0.8 -0.15
v 0.9 -0.8 -0.15
v 1 -0.8 -0.15
v 1.2 -0.8 -0.15
v -1.3 -0.7 0.05
v -1 -0.7 0.05
v -0.9 -0.7 0.05
v -0.6 -0.7 0.05
v -0.5 -0.7 0.05
v -0.2 -0.7 0.05
v 0.6 -0.7 -0.05
v 0.7 -0.7 -0.05
v 1.2 -0.7 -0.05
v 1.3 -0.7 -0.05
v -1.3 -0.7 -0.15
v -1 -0.7 -0.15
v -0.9 -0.7 -0.15
v -0.6 -0.7 -0.15
v -0.5 -0.7 -0.15
v -0.2 -0.7 -0.15
v 0.6 -0.7 -0.15
v 0.7 -0.7 -0.15
v 1.2 -0.7 -0.15
v 1.3 -0.7 -0.15
v 0.1 -0.6 -0.05
v 0.2 -0.6 -0.05
v 0.5 -0.6 -0.05
v 0.6 -0.6 -0.05
v 1.3 -0.6 -0.05
v 1.4 -0.6 -0.05
v 0.1 -0.6 -0.15
v 0.2 -0.6 -0.15
v 0.5 -0.6 -0.15
v 0.6 -0.6 -0.15
v 1.3 -0.6 -0.15
v 1.4 -0.6 -0.15
v -1.2 -0.5 0.15
v -1.1 -0.5 0.15
v -1.2 -0.5 0.05
v -1.1 -0.5 0.05
v 0.1 -0.5 0.05
v 0.2 -0.5 0.05
v 0.9 -0.5 0.05
v 1 -0.5 0.05
v -1.2 -0.5 -0.05
v -1.1 -0.5 -0.05
v 0 -0.5 -0.05
v 0.1 -0.5 -0.05
v 0.2 -0.5 -0.05
v 0.3 -0.5 -0.05
v 0.9 -0.5 -0.05
v 1 -0.5 -0.05
v 0 -0.5 -0.15
v 0.1 -0.5 -0.15
v 0.2 -0.5 -0.15
v 0.3 -0.5 -0.15
v -0.4 -0.4 0.15
v -0.3 -0.4 0.15
v 0.9 -0.4 0.15
v 1 -0.4 0.15
v -0.4 -0.4 0.05
v -0.3 -0.4 0.05
v 0 -0.4 0.05
v 0.1 -0.4 0.05
v 0.2 -0.4 0.05
v 0.3 -0.4 0.05
v 0.8 -0.4 0.05
v 0.9 -0.4 0.05
v 1 -0.4 0.05
v 1.3 -0.4 0.05
v -0.4 -0.4 -0.05
v -0.3 -0.4 -0.05
v -0.1 -0.4 -0.05
v 0 -0.4 -0.05
v 0.1 -0.4 -0.05
v 0.2 -0.4 -0.05
v 0.3 -0.4 -0.05
v 0.4 -0.4 -0.05
v 0.8 -0.4 -0.05
v 0.9 -0.4 -0.05
v 1 -0.4 -0.05
v 1.3 -0.4 -0.05
v -0.1 -0.4 -0.15
v 0 -0.4 -0.15
v 0.3 -0.4 -0.15
v 0.4 -0.4 -0.15
v -0.8 -0.2 0.15
v -0.7 -0.2 0.15
v -0.8 -0.2 0.05
v -0.7 -0.2 0.05
v -0.8 -0.2 -0.05
v -0.7 -0.2 -0.05
v -1.2 -0.1 0.05
v -1.1 -0.1 0.05
v -0.4 -0.1 0.05
v -0.3 -0.1 0.05
v -1.2 -0.1 -0.05
v -1.1 -0.1 -0.05
v -0.4 -0.1 -0.05
v -0.3 -0.1 -0.05
v 0.3 0 0.05
v 0.4 0 0.05
v 0.3 0 -0.05
v 0.4 0 -0.05
v -1.2 0.1 0.05
v -1.1 0.1 0.05
v -0.8 0.1 0.05
v -0.7 0.1 0.05
v -0.4 0.1 0.05
v -0.3 0.1 0.05
v 0 0.1 0.05
v 0.1 0.1 0.05
v -1.2 0.1 -0.15
v -1.1 0.1 -0.15
v -0.8 0.1 -0.15
v -0.7 0.1 -0.15
v -0.4 0.1 -0.15
v -0.3 0.1 -0.15
v 0 0.1 -0.15
v 0.1 0.1 -0.15
v -1.2 0.2 0.15
v -1.1 0.2 0.15
v -0.8 0.2 0.15
v -0.7 0.2 0.15
v -1.3 0.2 0.05
v -1.2 0.2 0.05
v -1.1 0.2 0.05
v -1 0.2 0.05
v -0.9 0.2 0.05
v -0.8 0.2 0.05
v -0.7 0.2 0.05
v -0.6 0.2 0.05
v -0.5 0.2 0.05
v -0.4 0.2 0.05
v -0.3 0.2 0.05
v -0.2 0.2 0.05
v -0.1 0.2 0.05
v 0 0.2 0.05
v 0.1 0.2 0.05
v 0.2 0.2 0.05
v -1.3 0.2 -0.15
v -1.2 0.2 -0.15
v -1.1 0.2 -0.15
v -1 0.2 -0.15
v -0.9 0.2 -0.15
v -0.8 0.2 -0.15
v -0.7 0.2 -0.15
v -0.6 0.2 -0.15
v -0.5 0.2 -0.15
v -0.4 0.2 -0.15
v -0.3 0.2 -0.15
v -0.2 0.2 -0.15
v -0.1 0.2 -0.15
v 0 0.2 -0.15
v 0.1 0.2 -0.15
v 0.2 0.2 -0.15
v -0.4 0.3 0.05
v -0.3 0.3 0.05
v 0 0.3 0.05
v 0.1 0.3 0.05
v -0.4 0.3 -0.05
v -0.3 0.3 -0.05
v 0 0.3 -0.05
v 0.1 0.3 -0.05
v 0.6 0.3 -0.05
v 1.3 0.3 -0.05
v 0.6 0.3 -0.15
v 1.3 0.3 -0.15
v -1.2 0.5 0.05
v -1.1 0.5 0.05
v -0.8 0.5 0.05
v -0.7 0.5 0.05
v -0.4 0.5 0.05
v -0.3 0.5 0.05
v 0 0.5 0.05
v 0.1 0.5 0.05
v -1.2 0.5 -0.15
v -1.1 0.5 -0.15
v -0.8 0.5 -0.15
v -0.7 0.5 -0.15
v -0.4 0.5 -0.15
v -0.3 0.5 -0.15
v 0 0.5 -0.15
v 0.1 0.5 -0.15
v 0 0.6 0.15
v 0.1 0.6 0.15
v -1.3 0.6 0.05
v -1.2 0.6 0.05
v -1.1 0.6 0.05
v -1 0.6 0.05
v -0.9 0.6 0.05
v -0.8 0.6 0.05
v -0.7 0.6 0.05
v -0.6 0.6 0.05
v -0.5 0.6 0.05
v -0.4 0.6 0.05
v -0.3 0.6 0.05
v -0.2 0.6 0.05
v -0.1 0.6 0.05
v 0 0.6 0.05
v 0.1 0.6 0.05
v 0.2 0.6 0.05
v 0.8 0.6 -0.05
v 1 0.6 -0.05
v 1.1 0.6 -0.05
v 1.2 0.6 -0.05
v -1.3 0.6 -0.15
v -1.2 0.6 -0.15
v -1.1 0.6 -0.15
v -1 0.6 -0.15
v -0.9 0.6 -0.15
v -0.8 0.6 -0.15
v -0.7 0.6 -0.15
v -0.6 0.6 -0.15
v -0.5 0.6 -0.15
v -0.4 0.6 -0.15
v -0.3 0.6 -0.15
v -0.2 0.6 -0.15
v -0.1 0.6 -0.15
v 0 0.6 -0.15
v 0.1 0.6 -0.15
v 0.2 0.6 -0.15
v 0.8 0.6 -0.15
v 1 0.6 -0.15
v 1.1 0.6 -0.15
v 1.2 0.6 -0.15
v -1.2 0.7 0.05
v -1.1 0.7 0.05
v -0.8 0.7 0.05
v -0.7 0.7 0.05
v -0.4 0.7 0.05
v -0.3 0.7 0.05
v 1.1 0.7 0.05
v 1.2 0.7 0.05
v 1.3 0.7 0.05
v -1.2 0.7 -0.05
v -1.1 0.7 -0.05
v -0.8 0.7 -0.05
v -0.7 0.7 -0.05
v -0.4 0.7 -0.05
v -0.3 0.7 -0.05
v 0.5 0.7 -0.05
v 0.7 0.7 -0.05
v 0.8 0.7 -0.05
v 1.1 0.7 -0.05
v 1.2 0.7 -0.05
v 1.3 0.7 -0.05
v 0.5 0.7 -0.15
v 0.7 0.7 -0.15
v 0.8 0.7 -0.15
v 1.2 0.7 -0.15
v 1.3 0.7 -0.15
v -1.4 0.9 0.15
v 1.4 0.9 0.15
v -1.2 0.9 0.05
v -1.1 0.9 0.05
v -0.8 0.9 0.05
v -0.7 0.9 0.05
v -0.4 0.9 0.05
v -0.3 0.9 0.05
v 0 0.9 0.05
v 0.1 0.9 0.05
v 0.3 0.9 0.05
v 0.4 0.9 0.05
v 1.2 0.9 0.05
v 1.3 0.9 0.05
v -1.2 0.9 -0.05
v -1.1 0.9 -0.05
v -0.8 0.9 -0.05
v -0.7 0.9 -0.05
v -0.4 0.9 -0.05
v -0.3 0.9 -0.05
v 0 0.9 -0.05
v 0.1 0.9 -0.05
v 0.3 0.9 -0.05
v 0.4 0.9 -0.05
v 0.5 0.9 -0.05
v 0.6 0.9 -0.05
v 1.2 0.9 -0.05
v 1.3 0.9 -0.05
v -1.4 0.9 -0.15
v 0.5 0.9 -0.15
v 0.6 0.9 -0.15
v 1.4 0.9 -0.15
v -1.4 -0.9 0.15
v 1.4 -0.9 0.15
v -1.4 -0.9 -0.15
v 1.4 -0.9 -0.15
v -1.2 -0.6 0.05
v -1.1 -0.6 0.05
v -0.8 -0.6 0.05
v -0.7 -0.6 0.05
v -0.4 -0.6 0.05
v -0.3 -0.6 0.05
v -1.2 -0.6 -0.05
v -1.1 -0.6 -0.05
v -0.8 -0.6 -0.05
v -0.7 -0.6 -0.05
v -0.4 -0.6 -0.05
v -0.3 -0.6 -0.05
v -1.2 -0.4 0.15
v -1.1 -0.4 0.15
v -1.2 -0.4 0.05
v -1.1 -0.4 0.05
v -1.2 -0.4 -0.05
v -1.1 -0.4 -0.05
v -0.4 -0.3 0.15
v -0.3 -0.3 0.15
v 0.9 -0.3 0.15
v 1 -0.3 0.15
v -0.4 -0.3 0.05
v -0.3 -0.3 0.05
v 0 -0.3 0.05
v 0.1 -0.3 0.05
v 0.2 -0.3 0.05
v 0.3 -0.3 0.05
v 0.8 -0.3 0.05
v 0.9 -0.3 0.05
v 1 -0.3 0.05
v 1.3 -0.3 0.05
v -0.4 -0.3 -0.05
v -0.3 -0.3 -0.05
v -0.1 -0.3 -0.05
v 0 -0.3 -0.05
v 0.1 -0.3 -0.05
v 0.2 -0.3 -0.05
v 0.3 -0.3 -0.05
v 0.4 -0.3 -0.05
v 0.8 -0.3 -0.05
v 0.9 -0.3 -0.05
v 1 -0.3 -0.05
v 1.3 -0.3 -0.05
v -0.1 -0.3 -0.15
v 0 -0.3 -0.15
v 0.3 -0.3 -0.15
v 0.4 -0.3 -0.15
v 0.1 -0.2 0.05
v 0.2 -0.2 0.05
v 0.9 -0.2 0.05
v 1 -0.2 0.05
v 0 -0.2 -0.05
v 0.1 -0.2 -0.05
v 0.2 -0.2 -0.05
v 0.3 -0.2 -0.05
v 0.9 -0.2 -0.05
v 1 -0.2 -0.05
v 0 -0.2 -0.15
v 0.1 -0.2 -0.15
v 0.2 -0.2 -0.15
v 0.3 -0.2 -0.15
v -0.8 -0.1 0.15
v -0.7 -0.1 0.15
v -0.8 -0.1 0.05
v -0.7 -0.1 0.05
v 0.1 -0.1 -0.05
v 0.2 -0.1 -0.05
v 0.5 -0.1 -0.05
v 0.6 -0.1 -0.05
v 1.3 -0.1 -0.05
v 1.4 -0.1 -0.05
v 0.1 -0.1 -0.15
v 0.2 -0.1 -0.15
v 0.5 -0.1 -0.15
v 0.6 -0.1 -0.15
v 1.3 -0.1 -0.15
v 1.4 -0.1 -0.15
v -1.3 0 0.05
v -1 0 0.05
v -0.9 0 0.05
v -0.6 0 0.05
v -0.5 0 0.05
v -0.2 0 0.05
v 0.6 0 -0.05
v 0.7 0 -0.05
v 1.2 0 -0.05
v 1.3 0 -0.05
v -1.3 0 -0.15
v -1 0 -0.15
v -0.9 0 -0.15
v -0.6 0 -0.15
v -0.5 0 -0.15
v -0.2 0 -0.15
v 0.6 0 -0.15
v 0.7 0 -0.15
v 1.2 0 -0.15
v 1.3 0 -0.15
v 0.7 0.1 -0.05
v 0.9 0.1 -0.05
v 1 0.1 -0.05
v 1.2 0.1 -0.05
v 0.7 0.1 -0.15
v 0.9 0.1 -0.15
v 1 0.1 -0.15
v 1.2 0.1 -0.15
v -0.4 0.2 0.05
v -0.3 0.2 0.05
v 0 0.2 0.05
v 0.1 0.2 0.05
v -0.4 0.2 -0.05
v -0.3 0.2 -0.05
v 0 0.2 -0.05
v 0.1 0.2 -0.05
v -1.2 0.3 0.15
v -1.1 0.3 0.15
v -0.8 0.3 0.15
v -0.7 0.3 0.15
v -1.3 0.3 0.05
v -1.2 0.3 0.05
v -1.1 0.3 0.05
v -1 0.3 0.05
v -0.9 0.3 0.05
v -0.8 0.3 0.05
v -0.7 0.3 0.05
v -0.6 0.3 0.05
v -0.5 0.3 0.05
v -0.4 0.3 0.05
v -0.3 0.3 0.05
v -0.2 0.3 0.05
v -0.1 0.3 0.05
v 0 0.3 0.05
v 0.1 0.3 0.05
v 0.2 0.3 0.05
v -1.3 0.3 -0.15
v -1.2 0.3 -0.15
v -1.1 0.3 -0.15
v -1 0.3 -0.15
v -0.9 0.3 -0.15
v -0.8 0.3 -0.15
v -0.7 0.3 -0.15
v -0.6 0.3 -0.15
v -0.5 0.3 -0.15
v -0.4 0.3 -0.15
v -0.3 0.3 -0.15
v -0.2 0.3 -0.15
v -0.1 0.3 -0.15
v 0 0.3 -0.15
v 0.1 0.3 -0.15
v 0.2 0.3 -0.15
v -1.2 0.4 0.05
v -1.1 0.4 0.05
v -0.8 0.4 0.05
v -0.7 0.4 0.05
v -0.4 0.4 0.05
v -0.3 0.4 0.05
v 0 0.4 0.05
v 0.1 0.4 0.05
v 0.6 0.4 -0.05
v 1.3 0.4 -0.05
v -1.2 0.4 -0.15
v -1.1 0.4 -0.15
v -0.8 0.4 -0.15
v -0.7 0.4 -0.15
v -0.4 0.4 -0.15
v -0.3 0.4 -0.15
v 0 0.4 -0.15
v 0.1 0.4 -0.15
v 0.6 0.4 -0.15
v 1.3 0.4 -0.15
v -1.2 0.6 0.05
v -1.1 0.6 0.05
v -0.8 0.6 0.05
v -0.7 0.6 0.05
v -0.4 0.6 0.05
v -0.3 0.6 0.05
v -1.2 0.6 -0.05
v -1.1 0.6 -0.05
v -0.8 0.6 -0.05
v -0.7 0.6 -0.05
v -0.4 0.6 -0.05
v -0.3 0.6 -0.05
v 0 0.7 0.15
v 0.1 0.7 0.15
v -1.3 0.7 0.05
v -1.2 0.7 0.05
v -1.1 0.7 0.05
v -1 0.7 0.05
v -0.9 0.7 0.05
v -0.8 0.7 0.05
v -0.7 0.7 0.05
v -0.6 0.7 0.05
v -0.5 0.7 0.05
v -0.4 0.7 0.05
v -0.3 0.7 0.05
v -0.2 0.7 0.05
v -0.1 0.7 0.05
v 0 0.7 0.05
v 0.1 0.7 0.05
v 0.2 0.7 0.05
v 0.9 0.7 -0.05
v 1 0.7 -0.05
v 1.1 0.7 -0.05
v -1.3 0.7 -0.15
v -1.2 0.7 -0.15
v -1.1 0.7 -0.15
v -1 0.7 -0.15
v -0.9 0.7 -0.15
v -0.8 0.7 -0.15
v -0.7 0.7 -0.15
v -0.6 0.7 -0.15
v -0.5 0.7 -0.15
v -0.4 0.7 -0.15
v -0.3 0.7 -0.15
v -0.2 0.7 -0.15
v -0.1 0.7 -0.15
v 0 0.7 -0.15
v 0.1 0.7 -0.15
v 0.2 0.7 -0.15
v 0.9 0.7 -0.15
v 1 0.7 -0.15
v 1.1 0.7 -0.15
v -1.2 0.8 0.05
v -1.1 0.8 0.05
v -0.8 0.8 0.05
v -0.7 0.8 0.05
v -0.4 0.8 0.05
v -0.3 0.8 0.05
v 0 0.8 0.05
v 0.1 0.8 0.05
v 1.1 0.8 0.05
v 1.2 0.8 0.05
v 0.6 0.8 -0.05
v 0.7 0.8 -0.05
v 0.9 0.8 -0.05
v 1.2 0.8 -0.05
v 1.3 0.8 -0.05
v -1.2 0.8 -0.15
v -1.1 0.8 -0.15
v -0.8 0.8 -0.15
v -0.7 0.8 -0.15
v -0.4 0.8 -0.15
v -0.3 0.8 -0.15
v 0 0.8 -0.15
v 0.1 0.8 -0.15
v 0.6 0.8 -0.15
v 0.7 0.8 -0.15
v 0.9 0.8 -0.15
v 1.1 0.8 -0.15
v 1.3 0.8 -0.15
v -1.5 1 0.15
v 1.5 1 0.15
v -1.2 1 0.05
v -1.1 1 0.05
v -0.8 1 0.05
v -0.7 1 0.05
v -0.4 1 0.05
v -0.3 1 0.05
v 0 1 0.05
v 0.1 1 0.05
v -1.2 1 -0.05
v -1.1 1 -0.05
v -0.8 1 -0.05
v -0.7 1 -0.05
v -0.4 1 -0.05
v -0.3 1 -0.05
v 0 1 -0.05
v 0.1 1 -0.05
v -1.5 1 -0.15
v 1.5 1 -0.15

# faces
f 3/12/1 2/12/1 1/12/1
f 4/12/1 2/12/1 3/12/1
f 7/13/1 6/13/1 5/13/1
f 8/13/1 6/13/1 7/13/1
f 11/15/1 10/15/1 9/15/1
f 12/15/1 10/15/1 11/15/1
f 15/15/1 14/15/1 13/15/1
f 16/15/1 14/15/1 15/15/1
f 19/8/1 18/8/1 17/8/1
f 20/8/1 18/8/1 19/8/1
f 24/15/1 22/15/1 21/15/1
f 25/15/1 22/15/1 24/15/1
f 26/8/1 24/8/1 23/8/1
f 27/8/1 24/8/1 26/8/1
f 29/15/1 28/15/1 27/15/1
f 30/15/1 28/15/1 29/15/1
f 33/15/1 32/15/1 31/15/1
f 34/15/1 32/15/1 33/15/1
f 37/15/1 36/15/1 35/15/1
f 38/15/1 36/15/1 37/15/1
f 41/13/1 40/13/1 39/13/1
f 42/13/1 40/13/1 41/13/1
f 45/13/1 44/13/1 43/13/1
f 46/13/1 44/13/1 45/13/1
f 49/15/1 48/15/1 47/15/1
f 50/15/1 48/15/1 49/15/1
f 53/12/1 52/12/1 51/12/1
f 54/12/1 52/12/1 53/12/1
f 57/13/1 56/13/1 55/13/1
f 58/13/1 56/13/1 57/13/1
f 61/15/1 60/15/1 59/15/1
f 62/15/1 60/15/1 61/15/1
f 65/15/1 64/15/1 63/15/1
f 66/15/1 64/15/1 65/15/1
f 69/8/1 68/8/1 67/8/1
f 70/8/1 68/8/1 69/8/1
f 74/15/1 72/15/1 71/15/1
f 75/15/1 72/15/1 74/15/1
f 76/8/1 74/8/1 73/8/1
f 77/8/1 74/8/1 76/8/1
f 79/15/1 78/15/1 77/15/1
f 80/15/1 78/15/1 79/15/1
f 83/15/1 82/15/1 81/15/1
f 84/15/1 82/15/1 83/15/1
f 87/15/1 86/15/1 85/15/1
f 88/15/1 86/15/1 87/15/1
f 91/13/1 90/13/1 89/13/1
f 92/13/1 90/13/1 91/13/1
f 95/15/1 94/15/1 93/15/1
f 96/15/1 94/15/1 95/15/1
f 99/12/1 98/12/1 97/12/1
f 100/12/1 98/12/1 99/12/1
f 103/13/1 102/13/1 101/13/1
f 104/13/1 102/13/1 103/13/1
f 107/15/1 106/15/1 105/15/1
f 108/15/1 106/15/1 107/15/1
f 111/15/1 110/15/1 109/15/1
f 112/15/1 110/15/1 111/15/1
f 115/8/1 114/8/1 113/8/1
f 116/8/1 114/8/1 115/8/1
f 119/15/1 118/15/1 117/15/1
f 120/15/1 118/15/1 119/15/1
f 123/15/1 122/15/1 121/15/1
f 124/15/1 122/15/1 123/15/1
f 127/15/1 126/15/1 125/15/1
f 128/15/1 126/15/1 127/15/1
f 131/15/1 130/15/1 129/15/1
f 132/15/1 130/15/1 131/15/1
f 135/13/1 134/13/1 133/13/1
f 136/13/1 134/13/1 135/13/1
f 139/13/1 138/13/1 137/13/1
f 140/13/1 138/13/1 139/13/1
f 143/15/1 142/15/1 141/15/1
f 144/15/1 142/15/1 143/15/1
f 147/15/1 146/15/1 145/15/1
f 148/15/1 146/15/1 147/15/1
f 151/12/1 150/12/1 149/12/1
f 152/12/1 150/12/1 151/12/1
f 155/9/1 154/9/1 153/9/1
f 156/9/1 154/9/1 155/9/1
f 159/15/1 158/15/1 157/15/1
f 160/15/1 158/15/1 159/15/1
f 163/15/1 162/15/1 161/15/1
f 164/15/1 162/15/1 163/15/1
f 168/9/1 166/9/1 165/9/1
f 169/9/1 166/9/1 168/9/1
f 170/8/1 168/8/1 167/8/1
f 171/8/1 168/8/1 170/8/1
f 173/9/1 172/9/1 171/9/1
f 174/9/1 172/9/1 173/9/1
f 177/15/1 176/15/1 175/15/1
f 178/15/1 176/15/1 177/15/1
f 181/15/1 180/15/1 179/15/1
f 182/15/1 180/15/1 181/15/1
f 186/15/1 184/15/1 183/15/1
f 187/15/1 184/15/1 186/15/1
f 188/8/1 186/8/1 185/8/1
f 189/8/1 186/8/1 188/8/1
f 191/15/1 190/15/1 189/15/1
f 192/15/1 190/15/1 191/15/1
f 196/9/1 194/9/1 193/9/1
f 197/9/1 194/9/1 196/9/1
f 198/8/1 196/8/1 195/8/1
f 199/8/1 196/8/1 198/8/1
f 202/8/1 201/8/1 200/8/1
f 203/8/1 201/8/1 202/8/1
f 205/9/1 204/9/1 203/9/1
f 206/9/1 204/9/1 205/9/1
f 209/15/1 208/15/1 207/15/1
f 210/15/1 208/15/1 209/15/1
f 213/12/1 212/12/1 211/12/1
f 214/12/1 212/12/1 213/12/1
f 217/8/1 216/8/1 215/8/1
f 218/8/1 216/8/1 217/8/1
f 219/15/1 218/15/1 217/15/1
f 220/15/1 218/15/1 219/15/1
f 221/14/1 220/14/1 219/14/1
f 222/14/1 220/14/1 221/14/1
f 223/15/1 222/15/1 221/15/1
f 224/15/1 222/15/1 223/15/1
f 225/14/1 224/14/1 223/14/1
f 226/14/1 224/14/1 225/14/1
f 227/15/1 226/15/1 225/15/1
f 228/15/1 226/15/1 227/15/1
f 229/14/1 228/14/1 227/14/1
f 230/14/1 228/14/1 229/14/1
f 233/13/1 232/13/1 231/13/1
f 234/13/1 232/13/1 233/13/1
f 235/4/1 234/4/1 233/4/1
f 236/4/1 234/4/1 235/4/1
f 237/13/1 236/13/1 235/13/1
f 238/13/1 236/13/1 237/13/1
f 241/15/1 240/15/1 239/15/1
f 242/15/1 240/15/1 241/15/1
f 243/14/1 242/14/1 241/14/1
f 244/14/1 242/14/1 243/14/1
f 247/5/1 246/5/1 245/5/1
f 248/5/1 246/5/1 247/5/1
f 251/1/1 250/1/1 249/1/1
f 252/1/1 250/1/1 251/1/1
f 255/16/1 254/16/1 253/16/1
f 256/16/1 254/16/1 255/16/1
f 259/13/1 258/13/1 257/13/1
f 260/13/1 258/13/1 259/13/1
f 263/13/1 262/13/1 261/13/1
f 264/13/1 262/13/1 263/13/1
f 267/15/1 266/15/1 265/15/1
f 268/15/1 266/15/1 267/15/1
f 271/15/1 270/15/1 269/15/1
f 272/15/1 270/15/1 271/15/1
f 276/15/1 274/15/1 273/15/1
f 277/15/1 274/15/1 276/15/1
f 278/15/1 276/15/1 275/15/1
f 279/15/1 276/15/1 278/15/1
f 281/15/1 280/15/1 279/15/1
f 282/15/1 280/15/1 281/15/1
f 286/15/1 284/15/1 283/15/1
f 286/15/1 285/15/1 284/15/1
f 287/15/1 285/15/1 286/15/1
f 290/15/1 289/15/1 288/15/1
f 291/15/1 289/15/1 290/15/1
f 294/12/1 293/12/1 292/12/1
f 295/12/1 293/12/1 294/12/1
f 296/12/1 294/12/1 292/12/1
f 297/12/1 296/12/1 292/12/1
f 298/12/1 297/12/1 292/12/1
f 300/12/1 298/12/1 292/12/1
f 300/12/1 299/12/1 298/12/1
f 301/12/1 299/12/1 300/12/1
f 302/12/2 303/12/2 304/12/2
f 304/12/2 303/12/2 305/12/2
f 306/13/2 307/13/2 308/13/2
f 308/13/2 307/13/2 309/13/2
f 310/13/2 311/13/2 312/13/2
f 312/13/2 311/13/2 313/13/2
f 314/15/2 315/15/2 316/15/2
f 316/15/2 315/15/2 317/15/2
f 318/12/2 319/12/2 320/12/2
f 320/12/2 319/12/2 321/12/2
f 322/8/2 323/8/2 324/8/2
f 324/8/2 323/8/2 325/8/2
f 326/15/2 327/15/2 329/15/2
f 329/15/2 327/15/2 330/15/2
f 328/8/2 329/8/2 331/8/2
f 331/8/2 329/8/2 332/8/2
f 332/15/2 333/15/2 334/15/2
f 334/15/2 333/15/2 335/15/2
f 336/15/2 337/15/2 338/15/2
f 338/15/2 337/15/2 339/15/2
f 340/15/2 341/15/2 342/15/2
f 342/15/2 341/15/2 343/15/2
f 344/13/2 345/13/2 346/13/2
f 346/13/2 345/13/2 347/13/2
f 348/15/2 349/15/2 350/15/2
f 350/15/2 349/15/2 351/15/2
f 352/15/2 353/15/2 354/15/2
f 354/15/2 353/15/2 355/15/2
f 356/13/2 357/13/2 358/13/2
f 358/13/2 357/13/2 359/13/2
f 360/15/2 361/15/2 362/15/2
f 362/15/2 361/15/2 363/15/2
f 364/12/2 365/12/2 366/12/2
f 366/12/2 365/12/2 367/12/2
f 368/8/2 369/8/2 370/8/2
f 370/8/2 369/8/2 371/8/2
f 372/15/2 373/15/2 375/15/2
f 375/15/2 373/15/2 376/15/2
f 374/8/2 375/8/2 377/8/2
f 377/8/2 375/8/2 378/8/2
f 378/15/2 379/15/2 380/15/2
f 380/15/2 379/15/2 381/15/2
f 382/15/2 383/15/2 384/15/2
f 384/15/2 383/15/2 385/15/2
f 386/15/2 387/15/2 388/15/2
f 388/15/2 387/15/2 389/15/2
f 390/13/2 391/13/2 392/13/2
f 392/13/2 391/13/2 393/13/2
f 394/15/2 395/15/2 396/15/2
f 396/15/2 395/15/2 397/15/2
f 398/15/2 399/15/2 400/15/2
f 400/15/2 399/15/2 401/15/2
f 402/13/2 403/13/2 404/13/2
f 404/13/2 403/13/2 405/13/2
f 406/13/2 407/13/2 408/13/2
f 408/13/2 407/13/2 409/13/2
f 410/15/2 411/15/2 412/15/2
f 412/15/2 411/15/2 413/15/2
f 414/15/2 415/15/2 416/15/2
f 416/15/2 415/15/2 417/15/2
f 418/12/2 419/12/2 420/12/2
f 420/12/2 419/12/2 421/12/2
f 422/8/2 423/8/2 424/8/2
f 424/8/2 423/8/2 425/8/2
f 426/15/2 427/15/2 428/15/2
f 428/15/2 427/15/2 429/15/2
f 430/15/2 431/15/2 432/15/2
f 432/15/2 431/15/2 433/15/2
f 434/15/2 435/15/2 436/15/2
f 436/15/2 435/15/2 437/15/2
f 438/15/2 439/15/2 440/15/2
f 440/15/2 439/15/2 441/15/2
f 442/13/2 443/13/2 444/13/2
f 444/13/2 443/13/2 445/13/2
f 446/15/2 447/15/2 448/15/2
f 448/15/2 447/15/2 449/15/2
f 450/15/2 451/15/2 452/15/2
f 452/15/2 451/15/2 453/15/2
f 454/15/2 455/15/2 456/15/2
f 456/15/2 455/15/2 457/15/2
f 458/12/2 459/12/2 460/12/2
f 460/12/2 459/12/2 461/12/2
f 462/15/2 463/15/2 464/15/2
f 464/15/2 463/15/2 465/15/2
f 466/15/2 467/15/2 468/15/2
f 468/15/2 467/15/2 469/15/2
f 470/15/2 471/15/2 473/15/2
f 473/15/2 471/15/2 474/15/2
f 472/8/2 473/8/2 475/8/2
f 475/8/2 473/8/2 476/8/2
f 476/15/2 477/15/2 478/15/2
f 478/15/2 477/15/2 479/15/2
f 480/9/2 481/9/2 483/9/2
f 483/9/2 481/9/2 484/9/2
f 482/8/2 483/8/2 485/8/2
f 485/8/2 483/8/2 486/8/2
f 487/8/2 488/8/2 489/8/2
f 489/8/2 488/8/2 490/8/2
f 490/9/2 491/9/2 492/9/2
f 492/9/2 491/9/2 493/9/2
f 494/15/2 495/15/2 496/15/2
f 496/15/2 495/15/2 497/15/2
f 498/15/2 499/15/2 500/15/2
f 500/15/2 499/15/2 501/15/2
f 502/9/2 503/9/2 505/9/2
f 505/9/2 503/9/2 506/9/2
f 504/8/2 505/8/2 507/8/2
f 507/8/2 505/8/2 508/8/2
f 508/9/2 509/9/2 510/9/2
f 510/9/2 509/9/2 511/9/2
f 512/9/2 513/9/2 514/9/2
f 514/9/2 513/9/2 515/9/2
f 516/8/2 517/8/2 518/8/2
f 518/8/2 517/8/2 519/8/2
f 518/15/2 519/15/2 520/15/2
f 520/15/2 519/15/2 521/15/2
f 520/14/2 521/14/2 522/14/2
f 522/14/2 521/14/2 523/14/2
f 522/15/2 523/15/2 524/15/2
f 524/15/2 523/15/2 525/15/2
f 524/14/2 525/14/2 526/14/2
f 526/14/2 525/14/2 527/14/2
f 526/15/2 527/15/2 528/15/2
f 528/15/2 527/15/2 529/15/2
f 528/14/2 529/14/2 530/14/2
f 530/14/2 529/14/2 531/14/2
f 532/14/2 533/14/2 534/14/2
f 534/14/2 533/14/2 535/14/2
f 536/14/2 537/14/2 538/14/2
f 538/14/2 537/14/2 539/14/2
f 540/15/2 541/15/2 543/15/2
f 543/15/2 541/15/2 544/15/2
f 542/15/2 543/15/2 545/15/2
f 545/15/2 543/15/2 546/15/2
f 546/15/2 547/15/2 548/15/2
f 548/15/2 547/15/2 549/15/2
f 550/13/2 551/13/2 552/13/2
f 552/13/2 551/13/2 553/13/2
f 554/13/2 555/13/2 556/13/2
f 556/13/2 555/13/2 557/13/2
f 558/15/2 559/15/2 560/15/2
f 560/15/2 559/15/2 561/15/2
f 562/10/2 563/10/2 564/10/2
f 564/10/2 563/10/2 565/10/2
f 566/15/2 567/15/2 568/15/2
f 568/15/2 567/15/2 569/15/2
f 570/3/2 571/3/2 572/3/2
f 572/3/2 571/3/2 573/3/2
f 574/16/2 575/16/2 576/16/2
f 576/16/2 575/16/2 577/16/2
f 578/14/2 579/14/2 581/14/2
f 579/15/2 580/15/2 582/15/2
f 581/14/2 579/14/2 582/14/2
f 582/15/2 580/15/2 583/15/2
f 581/15/2 582/15/2 584/15/2
f 584/15/2 582/15/2 585/15/2
f 586/12/2 587/12/2 588/12/2
f 588/12/2 587/12/2 589/12/2
f 592/12/3 591/12/3 590/12/3
f 593/12/3 591/12/3 592/12/3
f 598/8/3 595/8/3 594/8/3
f 599/8/3 595/8/3 598/8/3
f 600/8/3 597/8/3 596/8/3
f 601/8/3 597/8/3 600/8/3
f 606/8/3 603/8/3 602/8/3
f 607/8/3 603/8/3 606/8/3
f 608/8/3 605/8/3 604/8/3
f 609/8/3 605/8/3 608/8/3
f 612/8/3 611/8/3 610/8/3
f 613/8/3 611/8/3 612/8/3
f 616/8/3 615/8/3 614/8/3
f 617/8/3 615/8/3 616/8/3
f 620/15/3 619/15/3 618/15/3
f 621/15/3 619/15/3 620/15/3
f 622/12/3 592/12/3 590/12/3
f 623/12/3 591/12/3 593/12/3
f 624/12/3 622/12/3 590/12/3
f 624/12/3 623/12/3 622/12/3
f 625/12/3 591/12/3 623/12/3
f 625/12/3 623/12/3 624/12/3
f 632/13/3 627/13/3 626/13/3
f 633/13/3 627/13/3 632/13/3
f 634/13/3 627/13/3 633/13/3
f 635/13/3 627/13/3 634/13/3
f 637/15/3 629/15/3 628/15/3
f 638/15/3 629/15/3 637/15/3
f 641/15/3 631/15/3 630/15/3
f 642/15/3 631/15/3 641/15/3
f 644/13/3 632/13/3 626/13/3
f 647/13/3 627/13/3 635/13/3
f 648/15/3 637/15/3 636/15/3
f 649/15/3 637/15/3 648/15/3
f 650/15/3 639/15/3 638/15/3
f 651/15/3 639/15/3 650/15/3
f 652/15/3 641/15/3 640/15/3
f 653/15/3 641/15/3 652/15/3
f 654/15/3 643/15/3 642/15/3
f 655/15/3 643/15/3 654/15/3
f 656/13/3 646/13/3 645/13/3
f 656/13/3 647/13/3 646/13/3
f 656/13/3 644/13/3 626/13/3
f 656/13/3 645/13/3 644/13/3
f 657/13/3 627/13/3 647/13/3
f 657/13/3 647/13/3 656/13/3
f 658/15/3 650/15/3 649/15/3
f 659/15/3 650/15/3 658/15/3
f 660/15/3 654/15/3 653/15/3
f 661/15/3 654/15/3 660/15/3
f 668/13/3 663/13/3 662/13/3
f 669/13/3 663/13/3 668/13/3
f 670/13/3 663/13/3 669/13/3
f 672/15/3 665/15/3 664/15/3
f 673/15/3 665/15/3 672/15/3
f 676/15/3 667/15/3 666/15/3
f 677/15/3 667/15/3 676/15/3
f 679/13/3 668/13/3 662/13/3
f 681/13/3 663/13/3 670/13/3
f 682/15/3 672/15/3 671/15/3
f 683/15/3 672/15/3 682/15/3
f 684/15/3 674/15/3 673/15/3
f 685/15/3 674/15/3 684/15/3
f 686/15/3 676/15/3 675/15/3
f 687/15/3 676/15/3 686/15/3
f 688/15/3 678/15/3 677/15/3
f 689/15/3 678/15/3 688/15/3
f 690/13/3 680/13/3 679/13/3
f 690/13/3 681/13/3 680/13/3
f 690/13/3 679/13/3 662/13/3
f 691/13/3 663/13/3 681/13/3
f 691/13/3 681/13/3 690/13/3
f 692/15/3 684/15/3 683/15/3
f 693/15/3 684/15/3 692/15/3
f 694/15/3 688/15/3 687/15/3
f 695/15/3 688/15/3 694/15/3
f 702/13/3 697/13/3 696/13/3
f 703/13/3 697/13/3 702/13/3
f 704/13/3 697/13/3 703/13/3
f 705/13/3 697/13/3 704/13/3
f 707/15/3 699/15/3 698/15/3
f 708/15/3 699/15/3 707/15/3
f 711/15/3 701/15/3 700/15/3
f 712/15/3 701/15/3 711/15/3
f 714/13/3 702/13/3 696/13/3
f 717/13/3 697/13/3 705/13/3
f 718/15/3 707/15/3 706/15/3
f 719/15/3 707/15/3 718/15/3
f 720/15/3 709/15/3 708/15/3
f 721/15/3 709/15/3 720/15/3
f 722/15/3 711/15/3 710/15/3
f 723/15/3 711/15/3 722/15/3
f 724/15/3 713/15/3 712/15/3
f 725/15/3 713/15/3 724/15/3
f 726/13/3 716/13/3 715/13/3
f 726/13/3 717/13/3 716/13/3
f 726/13/3 714/13/3 696/13/3
f 726/13/3 715/13/3 714/13/3
f 727/13/3 697/13/3 717/13/3
f 727/13/3 717/13/3 726/13/3
f 728/15/3 720/15/3 719/15/3
f 729/15/3 720/15/3 728/15/3
f 730/15/3 724/15/3 723/15/3
f 731/15/3 724/15/3 730/15/3
f 739/15/3 733/15/3 732/15/3
f 740/15/3 733/15/3 739/15/3
f 743/15/3 735/15/3 734/15/3
f 744/15/3 735/15/3 743/15/3
f 747/8/3 737/8/3 736/8/3
f 748/8/3 737/8/3 747/8/3
f 750/15/3 739/15/3 738/15/3
f 751/15/3 739/15/3 750/15/3
f 752/15/3 741/15/3 740/15/3
f 753/15/3 741/15/3 752/15/3
f 754/15/3 743/15/3 742/15/3
f 755/15/3 743/15/3 754/15/3
f 756/15/3 745/15/3 744/15/3
f 757/15/3 745/15/3 756/15/3
f 758/8/3 749/8/3 748/8/3
f 758/8/3 747/8/3 746/8/3
f 758/8/3 748/8/3 747/8/3
f 759/8/3 749/8/3 758/8/3
f 760/8/3 749/8/3 759/8/3
f 761/8/3 749/8/3 760/8/3
f 762/15/3 752/15/3 751/15/3
f 763/15/3 752/15/3 762/15/3
f 764/15/3 756/15/3 755/15/3
f 765/15/3 756/15/3 764/15/3
f 766/8/3 760/8/3 759/8/3
f 767/8/3 760/8/3 766/8/3
f 776/8/3 769/8/3 768/8/3
f 777/15/3 770/15/3 769/15/3
f 777/8/3 769/8/3 776/8/3
f 778/14/3 771/14/3 770/14/3
f 778/15/3 770/15/3 777/15/3
f 779/15/3 772/15/3 771/15/3
f 779/14/3 771/14/3 778/14/3
f 780/14/3 773/14/3 772/14/3
f 780/15/3 772/15/3 779/15/3
f 781/15/3 774/15/3 773/15/3
f 781/14/3 773/14/3 780/14/3
f 782/14/3 775/14/3 774/14/3
f 782/15/3 774/15/3 781/15/3
f 783/14/3 775/14/3 782/14/3
f 787/15/3 785/15/3 784/15/3
f 788/15/3 785/15/3 787/15/3
f 790/15/3 787/15/3 786/15/3
f 791/15/3 787/15/3 790/15/3
f 792/15/3 789/15/3 788/15/3
f 793/15/3 789/15/3 792/15/3
f 796/15/3 795/15/3 794/15/3
f 797/15/3 795/15/3 796/15/3
f 799/15/3 792/15/3 791/15/3
f 800/15/3 792/15/3 799/15/3
f 801/14/3 797/14/3 796/14/3
f 802/15/3 798/15/3 797/15/3
f 802/14/3 797/14/3 801/14/3
f 803/15/3 798/15/3 802/15/3
f 812/12/3 805/12/3 804/12/3
f 813/12/3 805/12/3 812/12/3
f 814/12/3 807/12/3 806/12/3
f 815/12/3 807/12/3 814/12/3
f 816/11/3 809/11/3 808/11/3
f 817/11/3 809/11/3 816/11/3
f 818/12/3 811/12/3 810/12/3
f 819/12/3 811/12/3 818/12/3
f 826/12/3 821/12/3 820/12/3
f 827/12/3 821/12/3 826/12/3
f 828/11/3 823/11/3 822/11/3
f 829/11/3 823/11/3 828/11/3
f 830/12/3 825/12/3 824/12/3
f 831/12/3 825/12/3 830/12/3
f 842/12/3 833/12/3 832/12/3
f 843/12/3 833/12/3 842/12/3
f 844/12/3 835/12/3 834/12/3
f 845/12/3 835/12/3 844/12/3
f 846/11/3 837/11/3 836/11/3
f 847/11/3 837/11/3 846/11/3
f 848/11/3 839/11/3 838/11/3
f 849/11/3 839/11/3 848/11/3
f 850/12/3 841/12/3 840/12/3
f 851/12/3 841/12/3 850/12/3
f 855/9/3 853/9/3 852/9/3
f 856/9/3 853/9/3 855/9/3
f 863/9/3 855/9/3 854/9/3
f 864/9/3 855/9/3 863/9/3
f 865/9/3 857/9/3 856/9/3
f 866/9/3 857/9/3 865/9/3
f 868/11/3 859/11/3 858/11/3
f 869/11/3 859/11/3 868/11/3
f 870/12/3 861/12/3 860/12/3
f 871/12/3 861/12/3 870/12/3
f 872/9/3 863/9/3 862/9/3
f 873/9/3 863/9/3 872/9/3
f 876/9/3 867/9/3 866/9/3
f 877/9/3 867/9/3 876/9/3
f 878/9/3 874/9/3 873/9/3
f 879/9/3 874/9/3 878/9/3
f 880/9/3 876/9/3 875/9/3
f 881/9/3 876/9/3 880/9/3
f 882/9/3 880/9/3 879/9/3
f 883/9/3 880/9/3 882/9/3
f 892/13/3 885/13/3 884/13/3
f 893/4/3 886/4/3 885/4/3
f 893/13/3 885/13/3 892/13/3
f 894/13/3 887/13/3 886/13/3
f 894/4/3 886/4/3 893/4/3
f 895/13/3 887/13/3 894/13/3
f 899/14/3 890/14/3 889/14/3
f 899/15/3 889/15/3 888/15/3
f 900/14/3 890/14/3 899/14/3
f 902/5/3 892/5/3 891/5/3
f 903/13/3 893/13/3 892/13/3
f 903/13/3 894/13/3 893/13/3
f 903/5/3 892/5/3 902/5/3
f 903/13/3 895/13/3 894/13/3
f 904/1/3 896/1/3 895/1/3
f 904/13/3 895/13/3 903/13/3
f 905/1/3 896/1/3 904/1/3
f 907/15/3 899/15/3 888/15/3
f 908/15/3 899/15/3 907/15/3
f 909/13/3 902/13/3 901/13/3
f 909/13/3 903/13/3 902/13/3
f 909/13/3 906/13/3 905/13/3
f 909/13/3 904/13/3 903/13/3
f 909/13/3 905/13/3 904/13/3
f 910/13/3 906/13/3 909/13/3
f 912/14/3 908/14/3 907/14/3
f 913/13/3 909/13/3 901/13/3
f 914/13/3 909/13/3 913/13/3
f 915/13/3 909/13/3 914/13/3
f 916/13/3 909/13/3 915/13/3
f 917/13/3 906/13/3 910/13/3
f 918/13/3 906/13/3 917/13/3
f 919/13/3 906/13/3 918/13/3
f 920/13/3 906/13/3 919/13/3
f 921/15/3 912/15/3 911/15/3
f 921/14/3 908/14/3 912/14/3
f 922/14/3 908/14/3 921/14/3
f 923/7/3 914/7/3 913/7/3
f 924/13/3 915/13/3 914/13/3
f 924/7/3 914/7/3 923/7/3
f 925/13/3 915/13/3 924/13/3
f 928/13/3 919/13/3 918/13/3
f 929/2/3 920/2/3 919/2/3
f 929/13/3 919/13/3 928/13/3
f 930/2/3 920/2/3 929/2/3
f 931/15/3 921/15/3 911/15/3
f 932/15/3 921/15/3 931/15/3
f 933/14/3 932/14/3 931/14/3
f 934/14/3 932/14/3 933/14/3
f 935/13/3 926/13/3 925/13/3
f 935/13/3 924/13/3 923/13/3
f 935/13/3 925/13/3 924/13/3
f 936/13/3 926/13/3 935/13/3
f 937/13/3 926/13/3 936/13/3
f 938/13/3 928/13/3 927/13/3
f 938/13/3 930/13/3 929/13/3
f 938/13/3 929/13/3 928/13/3
f 939/13/3 930/13/3 938/13/3
f 940/13/3 930/13/3 939/13/3
f 941/15/3 934/15/3 933/15/3
f 942/15/3 934/15/3 941/15/3
f 943/10/3 937/10/3 936/10/3
f 944/13/3 926/13/3 937/13/3
f 944/10/3 937/10/3 943/10/3
f 945/13/3 926/13/3 944/13/3
f 946/13/3 938/13/3 927/13/3
f 947/3/3 939/3/3 938/3/3
f 947/13/3 938/13/3 946/13/3
f 948/3/3 939/3/3 947/3/3
f 949/16/3 898/16/3 897/16/3
f 950/16/3 898/16/3 949/16/3
f 951/13/3 945/13/3 944/13/3
f 952/6/3 946/6/3 945/6/3
f 952/13/3 945/13/3 951/13/3
f 953/13/3 947/13/3 946/13/3
f 953/6/3 946/6/3 952/6/3
f 954/13/3 947/13/3 953/13/3
f 955/12/4 956/12/4 957/12/4
f 957/12/4 956/12/4 958/12/4
f 959/12/4 960/12/4 961/12/4
f 961/12/4 960/12/4 962/12/4
f 963/12/4 964/12/4 965/12/4
f 965/12/4 964/12/4 966/12/4
f 967/12/4 968/12/4 969/12/4
f 969/12/4 968/12/4 970/12/4
f 971/8/4 972/8/4 979/8/4
f 972/15/4 973/15/4 980/15/4
f 979/8/4 972/8/4 980/8/4
f 973/14/4 974/14/4 981/14/4
f 980/15/4 973/15/4 981/15/4
f 974/15/4 975/15/4 982/15/4
f 981/14/4 974/14/4 982/14/4
f 975/14/4 976/14/4 983/14/4
f 982/15/4 975/15/4 983/15/4
f 976/15/4 977/15/4 984/15/4
f 983/14/4 976/14/4 984/14/4
f 977/14/4 978/14/4 985/14/4
f 984/15/4 977/15/4 985/15/4
f 985/14/4 978/14/4 986/14/4
f 987/15/4 988/15/4 989/15/4
f 989/15/4 988/15/4 990/15/4
f 991/12/4 992/12/4 993/12/4
f 993/12/4 992/12/4 994/12/4
f 995/13/4 996/13/4 1001/13/4
f 1001/13/4 996/13/4 1002/13/4
f 997/15/4 998/15/4 1004/15/4
f 1004/15/4 998/15/4 1005/15/4
f 999/15/4 1000/15/4 1008/15/4
f 1008/15/4 1000/15/4 1009/15/4
f 995/13/4 1001/13/4 1011/13/4
f 1001/12/4 1002/12/4 1011/12/4
f 1002/13/4 996/13/4 1012/13/4
f 1011/12/4 1002/12/4 1012/12/4
f 1003/15/4 1004/15/4 1013/15/4
f 1004/11/4 1005/11/4 1014/11/4
f 1013/15/4 1004/15/4 1014/15/4
f 1005/15/4 1006/15/4 1015/15/4
f 1014/11/4 1005/11/4 1015/11/4
f 1015/15/4 1006/15/4 1016/15/4
f 1007/15/4 1008/15/4 1017/15/4
f 1008/11/4 1009/11/4 1018/11/4
f 1017/15/4 1008/15/4 1018/15/4
f 1009/15/4 1010/15/4 1019/15/4
f 1018/11/4 1009/11/4 1019/11/4
f 1019/15/4 1010/15/4 1020/15/4
f 995/13/4 1011/13/4 1021/13/4
f 1011/13/4 1012/13/4 1021/13/4
f 1012/13/4 996/13/4 1022/13/4
f 1021/13/4 1012/13/4 1022/13/4
f 1014/15/4 1015/15/4 1023/15/4
f 1023/15/4 1015/15/4 1024/15/4
f 1018/15/4 1019/15/4 1025/15/4
f 1025/15/4 1019/15/4 1026/15/4
f 1027/13/4 1028/13/4 1033/13/4
f 1033/13/4 1028/13/4 1034/13/4
f 1029/15/4 1030/15/4 1036/15/4
f 1036/15/4 1030/15/4 1037/15/4
f 1031/15/4 1032/15/4 1040/15/4
f 1040/15/4 1032/15/4 1041/15/4
f 1027/13/4 1033/13/4 1043/13/4
f 1033/12/4 1034/12/4 1043/12/4
f 1034/13/4 1028/13/4 1044/13/4
f 1043/12/4 1034/12/4 1044/12/4
f 1035/15/4 1036/15/4 1045/15/4
f 1036/11/4 1037/11/4 1046/11/4
f 1045/15/4 1036/15/4 1046/15/4
f 1037/15/4 1038/15/4 1047/15/4
f 1046/11/4 1037/11/4 1047/11/4
f 1047/15/4 1038/15/4 1048/15/4
f 1039/15/4 1040/15/4 1049/15/4
f 1040/11/4 1041/11/4 1050/11/4
f 1049/15/4 1040/15/4 1050/15/4
f 1041/15/4 1042/15/4 1051/15/4
f 1050/11/4 1041/11/4 1051/11/4
f 1051/15/4 1042/15/4 1052/15/4
f 1027/13/4 1043/13/4 1053/13/4
f 1043/13/4 1044/13/4 1053/13/4
f 1044/13/4 1028/13/4 1054/13/4
f 1053/13/4 1044/13/4 1054/13/4
f 1046/15/4 1047/15/4 1055/15/4
f 1055/15/4 1047/15/4 1056/15/4
f 1050/15/4 1051/15/4 1057/15/4
f 1057/15/4 1051/15/4 1058/15/4
f 1059/13/4 1060/13/4 1065/13/4
f 1065/13/4 1060/13/4 1066/13/4
f 1061/15/4 1062/15/4 1068/15/4
f 1068/15/4 1062/15/4 1069/15/4
f 1063/15/4 1064/15/4 1072/15/4
f 1072/15/4 1064/15/4 1073/15/4
f 1059/13/4 1065/13/4 1075/13/4
f 1065/12/4 1066/12/4 1075/12/4
f 1066/13/4 1060/13/4 1076/13/4
f 1075/12/4 1066/12/4 1076/12/4
f 1067/15/4 1068/15/4 1077/15/4
f 1068/11/4 1069/11/4 1078/11/4
f 1077/15/4 1068/15/4 1078/15/4
f 1069/15/4 1070/15/4 1079/15/4
f 1078/11/4 1069/11/4 1079/11/4
f 1079/15/4 1070/15/4 1080/15/4
f 1071/15/4 1072/15/4 1081/15/4
f 1072/11/4 1073/11/4 1082/11/4
f 1081/15/4 1072/15/4 1082/15/4
f 1073/15/4 1074/15/4 1083/15/4
f 1082/11/4 1073/11/4 1083/11/4
f 1083/15/4 1074/15/4 1084/15/4
f 1059/13/4 1075/13/4 1085/13/4
f 1075/13/4 1076/13/4 1085/13/4
f 1076/13/4 1060/13/4 1086/13/4
f 1085/13/4 1076/13/4 1086/13/4
f 1078/15/4 1079/15/4 1087/15/4
f 1087/15/4 1079/15/4 1088/15/4
f 1082/15/4 1083/15/4 1089/15/4
f 1089/15/4 1083/15/4 1090/15/4
f 1091/9/4 1092/9/4 1098/9/4
f 1098/9/4 1092/9/4 1099/9/4
f 1093/15/4 1094/15/4 1102/15/4
f 1102/15/4 1094/15/4 1103/15/4
f 1095/15/4 1096/15/4 1106/15/4
f 1106/15/4 1096/15/4 1107/15/4
f 1097/9/4 1098/9/4 1110/9/4
f 1098/8/4 1099/8/4 1111/8/4
f 1110/9/4 1098/9/4 1111/9/4
f 1099/9/4 1100/9/4 1112/9/4
f 1111/8/4 1099/8/4 1112/8/4
f 1112/9/4 1100/9/4 1113/9/4
f 1101/15/4 1102/15/4 1115/15/4
f 1102/11/4 1103/11/4 1116/11/4
f 1115/15/4 1102/15/4 1116/15/4
f 1103/15/4 1104/15/4 1117/15/4
f 1116/11/4 1103/11/4 1117/11/4
f 1117/15/4 1104/15/4 1118/15/4
f 1105/15/4 1106/15/4 1119/15/4
f 1106/11/4 1107/11/4 1120/11/4
f 1119/15/4 1106/15/4 1120/15/4
f 1107/15/4 1108/15/4 1121/15/4
f 1120/11/4 1107/11/4 1121/11/4
f 1121/15/4 1108/15/4 1122/15/4
f 1109/9/4 1110/9/4 1123/9/4
f 1110/8/4 1111/8/4 1124/8/4
f 1123/9/4 1110/9/4 1124/9/4
f 1112/8/4 1113/8/4 1124/8/4
f 1111/8/4 1112/8/4 1124/8/4
f 1124/8/4 1113/8/4 1125/8/4
f 1125/8/4 1113/8/4 1126/8/4
f 1113/9/4 1114/9/4 1127/9/4
f 1126/8/4 1113/8/4 1127/8/4
f 1127/9/4 1114/9/4 1128/9/4
f 1116/15/4 1117/15/4 1129/15/4
f 1129/15/4 1117/15/4 1130/15/4
f 1120/15/4 1121/15/4 1131/15/4
f 1131/15/4 1121/15/4 1132/15/4
f 1124/9/4 1125/9/4 1133/9/4
f 1125/8/4 1126/8/4 1134/8/4
f 1133/9/4 1125/9/4 1134/9/4
f 1126/9/4 1127/9/4 1135/9/4
f 1134/8/4 1126/8/4 1135/8/4
f 1135/9/4 1127/9/4 1136/9/4
f 1134/9/4 1135/9/4 1137/9/4
f 1137/9/4 1135/9/4 1138/9/4
f 994/12/4 992/12/4 1145/12/4
f 1139/13/4 1140/13/4 1147/13/4
f 1140/4/4 1141/4/4 1148/4/4
f 1147/13/4 1140/13/4 1148/13/4
f 1141/13/4 1142/13/4 1149/13/4
f 1148/4/4 1141/4/4 1149/4/4
f 1149/13/4 1142/13/4 1150/13/4
f 1143/15/4 1144/15/4 1154/15/4
f 1144/14/4 1145/14/4 1154/14/4
f 1145/12/4 992/12/4 1155/12/4
f 1154/14/4 1145/14/4 1155/14/4
f 1146/5/4 1147/5/4 1157/5/4
f 1147/13/4 1148/13/4 1158/13/4
f 1148/13/4 1149/13/4 1158/13/4
f 1157/5/4 1147/5/4 1158/5/4
f 1149/13/4 1150/13/4 1158/13/4
f 1150/1/4 1151/1/4 1159/1/4
f 1158/13/4 1150/13/4 1159/13/4
f 1159/1/4 1151/1/4 1160/1/4
f 1143/15/4 1154/15/4 1162/15/4
f 1162/15/4 1154/15/4 1163/15/4
f 1162/14/4 1163/14/4 1165/14/4
f 1157/13/4 1158/13/4 1166/13/4
f 1156/13/4 1157/13/4 1166/13/4
f 1160/13/4 1161/13/4 1166/13/4
f 1158/13/4 1159/13/4 1166/13/4
f 1159/13/4 1160/13/4 1166/13/4
f 1166/13/4 1161/13/4 1167/13/4
f 1167/13/4 1161/13/4 1168/13/4
f 1168/13/4 1161/13/4 1169/13/4
f 1164/15/4 1165/15/4 1170/15/4
f 1165/14/4 1163/14/4 1170/14/4
f 1170/14/4 1163/14/4 1171/14/4
f 1166/7/4 1167/7/4 1172/7/4
f 1167/13/4 1168/13/4 1173/13/4
f 1172/7/4 1167/7/4 1173/7/4
f 1168/2/4 1169/2/4 1174/2/4
f 1173/13/4 1168/13/4 1174/13/4
f 1174/2/4 1169/2/4 1175/2/4
f 1164/15/4 1170/15/4 1176/15/4
f 1176/15/4 1170/15/4 1177/15/4
f 1176/14/4 1177/14/4 1178/14/4
f 1178/14/4 1177/14/4 1179/14/4
f 1172/13/4 1173/13/4 1181/13/4
f 1174/13/4 1175/13/4 1181/13/4
f 1173/13/4 1174/13/4 1181/13/4
f 1181/13/4 1175/13/4 1182/13/4
f 1182/13/4 1175/13/4 1183/13/4
f 1183/13/4 1175/13/4 1184/13/4
f 1184/13/4 1175/13/4 1185/13/4
f 1185/13/4 1175/13/4 1186/13/4
f 1179/15/4 1180/15/4 1187/15/4
f 1178/15/4 1179/15/4 1187/15/4
f 1187/15/4 1180/15/4 1188/15/4
f 1182/10/4 1183/10/4 1189/10/4
f 1183/13/4 1184/13/4 1190/13/4
f 1189/10/4 1183/10/4 1190/10/4
f 1190/13/4 1184/13/4 1191/13/4
f 1191/13/4 1184/13/4 1192/13/4
f 1184/3/4 1185/3/4 1193/3/4
f 1192/13/4 1184/13/4 1193/13/4
f 1193/3/4 1185/3/4 1194/3/4
f 1152/16/4 1153/16/4 1195/16/4
f 1195/16/4 1153/16/4 1196/16/4
f 1188/15/4 1180/15/4 1197/15/4
f 1197/15/4 1180/15/4 1198/15/4
f 991/12/4 993/12/4 1199/12/4
f 1190/13/4 1191/13/4 1200/13/4
f 1191/6/4 1192/6/4 1201/6/4
f 1200/13/4 1191/13/4 1201/13/4
f 1192/13/4 1193/13/4 1202/13/4
f 1201/6/4 1192/6/4 1202/6/4
f 1202/13/4 1193/13/4 1203/13/4
f 1155/12/4 992/12/4 1204/12/4
f 1202/12/4 1203/12/4 1205/12/4
f 1203/12/4 1204/12/4 1205/12/4
f 1201/12/4 1202/12/4 1205/12/4
f 991/12/4 1199/12/4 1205/12/4
f 1200/12/4 1201/12/4 1205/12/4
f 1199/12/4 1200/12/4 1205/12/4
f 1204/12/4 992/12/4 1206/12/4
f 1205/12/4 1204/12/4 1206/12/4
f 1209/12/5 1208/12/5 1207/12/5
f 1210/12/5 1208/12/5 1209/12/5
f 1215/13/5 1212/13/5 1211/13/5
f 1216/7/5 1213/7/5 1212/7/5
f 1216/13/5 1212/13/5 1215/13/5
f 1217/13/5 1214/13/5 1213/13/5
f 1217/7/5 1213/7/5 1216/7/5
f 1218/13/5 1214/13/5 1217/13/5
f 1229/13/5 1220/13/5 1219/13/5
f 1230/13/5 1220/13/5 1229/13/5
f 1231/13/5 1222/13/5 1221/13/5
f 1232/13/5 1222/13/5 1231/13/5
f 1233/13/5 1224/13/5 1223/13/5
f 1234/13/5 1224/13/5 1233/13/5
f 1235/5/5 1226/5/5 1225/5/5
f 1236/5/5 1226/5/5 1235/5/5
f 1237/10/5 1228/10/5 1227/10/5
f 1238/10/5 1228/10/5 1237/10/5
f 1245/9/5 1240/9/5 1239/9/5
f 1246/9/5 1240/9/5 1245/9/5
f 1247/13/5 1242/13/5 1241/13/5
f 1248/13/5 1242/13/5 1247/13/5
f 1249/13/5 1244/13/5 1243/13/5
f 1250/13/5 1244/13/5 1249/13/5
f 1253/8/5 1252/8/5 1251/8/5
f 1254/8/5 1252/8/5 1253/8/5
f 1259/8/5 1254/8/5 1253/8/5
f 1260/8/5 1254/8/5 1259/8/5
f 1262/8/5 1256/8/5 1255/8/5
f 1263/8/5 1256/8/5 1262/8/5
f 1265/15/5 1258/15/5 1257/15/5
f 1266/15/5 1258/15/5 1265/15/5
f 1267/9/5 1262/9/5 1261/9/5
f 1268/9/5 1262/9/5 1267/9/5
f 1269/9/5 1264/9/5 1263/9/5
f 1270/9/5 1264/9/5 1269/9/5
f 1275/8/5 1272/8/5 1271/8/5
f 1276/8/5 1272/8/5 1275/8/5
f 1282/15/5 1274/15/5 1273/15/5
f 1283/15/5 1274/15/5 1282/15/5
f 1285/8/5 1276/8/5 1275/8/5
f 1286/8/5 1276/8/5 1285/8/5
f 1288/8/5 1278/8/5 1277/8/5
f 1289/8/5 1278/8/5 1288/8/5
f 1290/8/5 1280/8/5 1279/8/5
f 1291/8/5 1280/8/5 1290/8/5
f 1293/15/5 1282/15/5 1281/15/5
f 1294/15/5 1282/15/5 1293/15/5
f 1295/15/5 1284/15/5 1283/15/5
f 1296/15/5 1284/15/5 1295/15/5
f 1297/9/5 1288/9/5 1287/9/5
f 1298/9/5 1288/9/5 1297/9/5
f 1299/9/5 1292/9/5 1291/9/5
f 1300/9/5 1292/9/5 1299/9/5
f 1303/8/5 1302/8/5 1301/8/5
f 1304/8/5 1302/8/5 1303/8/5
f 1305/8/5 1304/8/5 1303/8/5
f 1306/8/5 1304/8/5 1305/8/5
f 1311/13/5 1308/13/5 1307/13/5
f 1312/13/5 1308/13/5 1311/13/5
f 1313/13/5 1310/13/5 1309/13/5
f 1314/13/5 1310/13/5 1313/13/5
f 1317/8/5 1316/8/5 1315/8/5
f 1318/8/5 1316/8/5 1317/8/5
f 1327/15/5 1320/15/5 1319/15/5
f 1328/15/5 1320/15/5 1327/15/5
f 1329/15/5 1322/15/5 1321/15/5
f 1330/15/5 1322/15/5 1329/15/5
f 1331/15/5 1324/15/5 1323/15/5
f 1332/15/5 1324/15/5 1331/15/5
f 1333/15/5 1326/15/5 1325/15/5
f 1334/15/5 1326/15/5 1333/15/5
f 1340/8/5 1336/8/5 1335/8/5
f 1341/8/5 1336/8/5 1340/8/5
f 1344/8/5 1338/8/5 1337/8/5
f 1345/8/5 1338/8/5 1344/8/5
f 1355/15/5 1340/15/5 1339/15/5
f 1356/15/5 1340/15/5 1355/15/5
f 1357/15/5 1342/15/5 1341/15/5
f 1358/15/5 1342/15/5 1357/15/5
f 1359/15/5 1344/15/5 1343/15/5
f 1360/15/5 1344/15/5 1359/15/5
f 1361/15/5 1346/15/5 1345/15/5
f 1362/15/5 1346/15/5 1361/15/5
f 1363/15/5 1348/15/5 1347/15/5
f 1364/15/5 1348/15/5 1363/15/5
f 1365/15/5 1350/15/5 1349/15/5
f 1366/15/5 1350/15/5 1365/15/5
f 1367/15/5 1352/15/5 1351/15/5
f 1368/15/5 1352/15/5 1367/15/5
f 1369/15/5 1354/15/5 1353/15/5
f 1370/15/5 1354/15/5 1369/15/5
f 1375/15/5 1372/15/5 1371/15/5
f 1376/15/5 1372/15/5 1375/15/5
f 1377/15/5 1374/15/5 1373/15/5
f 1378/15/5 1374/15/5 1377/15/5
f 1381/16/5 1380/16/5 1379/16/5
f 1382/16/5 1380/16/5 1381/16/5
f 1391/15/5 1384/15/5 1383/15/5
f 1392/15/5 1384/15/5 1391/15/5
f 1393/15/5 1386/15/5 1385/15/5
f 1394/15/5 1386/15/5 1393/15/5
f 1395/15/5 1388/15/5 1387/15/5
f 1396/15/5 1388/15/5 1395/15/5
f 1397/15/5 1390/15/5 1389/15/5
f 1398/15/5 1390/15/5 1397/15/5
f 1414/8/5 1400/8/5 1399/8/5
f 1415/8/5 1400/8/5 1414/8/5
f 1421/15/5 1402/15/5 1401/15/5
f 1422/15/5 1402/15/5 1421/15/5
f 1423/15/5 1404/15/5 1403/15/5
f 1424/15/5 1404/15/5 1423/15/5
f 1425/15/5 1406/15/5 1405/15/5
f 1426/15/5 1406/15/5 1425/15/5
f 1427/15/5 1408/15/5 1407/15/5
f 1428/15/5 1408/15/5 1427/15/5
f 1429/15/5 1410/15/5 1409/15/5
f 1430/15/5 1410/15/5 1429/15/5
f 1431/15/5 1412/15/5 1411/15/5
f 1432/15/5 1412/15/5 1431/15/5
f 1433/15/5 1414/15/5 1413/15/5
f 1434/15/5 1414/15/5 1433/15/5
f 1435/15/5 1416/15/5 1415/15/5
f 1436/15/5 1416/15/5 1435/15/5
f 1437/15/5 1418/15/5 1417/15/5
f 1438/14/5 1419/14/5 1418/14/5
f 1438/15/5 1418/15/5 1437/15/5
f 1439/15/5 1420/15/5 1419/15/5
f 1439/14/5 1419/14/5 1438/14/5
f 1440/15/5 1420/15/5 1439/15/5
f 1450/15/5 1442/15/5 1441/15/5
f 1451/15/5 1442/15/5 1450/15/5
f 1452/15/5 1444/15/5 1443/15/5
f 1453/15/5 1444/15/5 1452/15/5
f 1454/15/5 1446/15/5 1445/15/5
f 1455/15/5 1446/15/5 1454/15/5
f 1459/15/5 1448/15/5 1447/15/5
f 1460/14/5 1449/14/5 1448/14/5
f 1460/15/5 1448/15/5 1459/15/5
f 1461/14/5 1449/14/5 1460/14/5
f 1462/15/5 1457/15/5 1456/15/5
f 1463/14/5 1458/14/5 1457/14/5
f 1463/15/5 1457/15/5 1462/15/5
f 1464/14/5 1458/14/5 1463/14/5
f 1465/15/5 1461/15/5 1460/15/5
f 1466/15/5 1461/15/5 1465/15/5
f 1469/12/5 1468/12/5 1467/12/5
f 1470/12/5 1468/12/5 1469/12/5
f 1471/12/5 1468/12/5 1470/12/5
f 1472/12/5 1468/12/5 1471/12/5
f 1473/12/5 1468/12/5 1472/12/5
f 1474/12/5 1468/12/5 1473/12/5
f 1475/12/5 1468/12/5 1474/12/5
f 1476/12/5 1468/12/5 1475/12/5
f 1477/12/5 1468/12/5 1476/12/5
f 1478/12/5 1468/12/5 1477/12/5
f 1479/12/5 1468/12/5 1478/12/5
f 1480/12/5 1468/12/5 1479/12/5
f 1481/12/5 1469/12/5 1467/12/5
f 1482/12/5 1471/12/5 1470/12/5
f 1483/12/5 1471/12/5 1482/12/5
f 1484/12/5 1473/12/5 1472/12/5
f 1485/12/5 1473/12/5 1484/12/5
f 1486/12/5 1475/12/5 1474/12/5
f 1487/12/5 1475/12/5 1486/12/5
f 1488/12/5 1477/12/5 1476/12/5
f 1489/12/5 1477/12/5 1488/12/5
f 1490/12/5 1479/12/5 1478/12/5
f 1491/12/5 1479/12/5 1490/12/5
f 1492/12/5 1479/12/5 1491/12/5
f 1493/12/5 1479/12/5 1492/12/5
f 1494/12/5 1468/12/5 1480/12/5
f 1495/12/5 1489/12/5 1488/12/5
f 1495/12/5 1481/12/5 1467/12/5
f 1495/12/5 1487/12/5 1486/12/5
f 1495/12/5 1483/12/5 1482/12/5
f 1495/12/5 1491/12/5 1490/12/5
f 1495/12/5 1490/12/5 1489/12/5
f 1495/12/5 1485/12/5 1484/12/5
f 1495/12/5 1488/12/5 1487/12/5
f 1495/12/5 1482/12/5 1481/12/5
f 1495/12/5 1486/12/5 1485/12/5
f 1495/12/5 1484/12/5 1483/12/5
f 1496/12/5 1491/12/5 1495/12/5
f 1497/12/5 1493/12/5 1492/12/5
f 1497/12/5 1494/12/5 1493/12/5
f 1498/12/5 1468/12/5 1494/12/5
f 1498/12/5 1494/12/5 1497/12/5
f 1499/12/6 1500/12/6 1501/12/6
f 1501/12/6 1500/12/6 1502/12/6
f 1503/13/6 1504/13/6 1509/13/6
f 1509/13/6 1504/13/6 1510/13/6
f 1505/13/6 1506/13/6 1511/13/6
f 1511/13/6 1506/13/6 1512/13/6
f 1507/13/6 1508/13/6 1513/13/6
f 1513/13/6 1508/13/6 1514/13/6
f 1515/8/6 1516/8/6 1517/8/6
f 1517/8/6 1516/8/6 1518/8/6
f 1517/8/6 1518/8/6 1519/8/6
f 1519/8/6 1518/8/6 1520/8/6
f 1521/8/6 1522/8/6 1525/8/6
f 1525/8/6 1522/8/6 1526/8/6
f 1523/15/6 1524/15/6 1532/15/6
f 1532/15/6 1524/15/6 1533/15/6
f 1525/8/6 1526/8/6 1535/8/6
f 1535/8/6 1526/8/6 1536/8/6
f 1527/8/6 1528/8/6 1538/8/6
f 1538/8/6 1528/8/6 1539/8/6
f 1529/8/6 1530/8/6 1540/8/6
f 1540/8/6 1530/8/6 1541/8/6
f 1531/15/6 1532/15/6 1543/15/6
f 1543/15/6 1532/15/6 1544/15/6
f 1533/15/6 1534/15/6 1545/15/6
f 1545/15/6 1534/15/6 1546/15/6
f 1537/9/6 1538/9/6 1547/9/6
f 1547/9/6 1538/9/6 1548/9/6
f 1541/9/6 1542/9/6 1549/9/6
f 1549/9/6 1542/9/6 1550/9/6
f 1551/8/6 1552/8/6 1556/8/6
f 1556/8/6 1552/8/6 1557/8/6
f 1553/15/6 1554/15/6 1559/15/6
f 1559/15/6 1554/15/6 1560/15/6
f 1555/9/6 1556/9/6 1561/9/6
f 1561/9/6 1556/9/6 1562/9/6
f 1557/9/6 1558/9/6 1563/9/6
f 1563/9/6 1558/9/6 1564/9/6
f 1565/8/6 1566/8/6 1567/8/6
f 1567/8/6 1566/8/6 1568/8/6
f 1569/9/6 1570/9/6 1575/9/6
f 1575/9/6 1570/9/6 1576/9/6
f 1571/13/6 1572/13/6 1577/13/6
f 1577/13/6 1572/13/6 1578/13/6
f 1573/13/6 1574/13/6 1579/13/6
f 1579/13/6 1574/13/6 1580/13/6
f 1581/13/6 1582/13/6 1591/13/6
f 1591/13/6 1582/13/6 1592/13/6
f 1583/13/6 1584/13/6 1593/13/6
f 1593/13/6 1584/13/6 1594/13/6
f 1585/13/6 1586/13/6 1595/13/6
f 1595/13/6 1586/13/6 1596/13/6
f 1587/1/6 1588/1/6 1597/1/6
f 1597/1/6 1588/1/6 1598/1/6
f 1589/3/6 1590/3/6 1599/3/6
f 1599/3/6 1590/3/6 1600/3/6
f 1601/13/6 1602/13/6 1605/13/6
f 1602/2/6 1603/2/6 1606/2/6
f 1605/13/6 1602/13/6 1606/13/6
f 1603/13/6 1604/13/6 1607/13/6
f 1606/2/6 1603/2/6 1607/2/6
f 1607/13/6 1604/13/6 1608/13/6
f 1609/15/6 1610/15/6 1613/15/6
f 1613/15/6 1610/15/6 1614/15/6
f 1611/15/6 1612/15/6 1615/15/6
f 1615/15/6 1612/15/6 1616/15/6
f 1617/8/6 1618/8/6 1622/8/6
f 1622/8/6 1618/8/6 1623/8/6
f 1619/8/6 1620/8/6 1626/8/6
f 1626/8/6 1620/8/6 1627/8/6
f 1621/15/6 1622/15/6 1637/15/6
f 1637/15/6 1622/15/6 1638/15/6
f 1623/15/6 1624/15/6 1639/15/6
f 1639/15/6 1624/15/6 1640/15/6
f 1625/15/6 1626/15/6 1641/15/6
f 1641/15/6 1626/15/6 1642/15/6
f 1627/15/6 1628/15/6 1643/15/6
f 1643/15/6 1628/15/6 1644/15/6
f 1629/15/6 1630/15/6 1645/15/6
f 1645/15/6 1630/15/6 1646/15/6
f 1631/15/6 1632/15/6 1647/15/6
f 1647/15/6 1632/15/6 1648/15/6
f 1633/15/6 1634/15/6 1649/15/6
f 1649/15/6 1634/15/6 1650/15/6
f 1635/15/6 1636/15/6 1651/15/6
f 1651/15/6 1636/15/6 1652/15/6
f 1653/15/6 1654/15/6 1663/15/6
f 1663/15/6 1654/15/6 1664/15/6
f 1655/15/6 1656/15/6 1665/15/6
f 1665/15/6 1656/15/6 1666/15/6
f 1657/15/6 1658/15/6 1667/15/6
f 1667/15/6 1658/15/6 1668/15/6
f 1659/15/6 1660/15/6 1669/15/6
f 1669/15/6 1660/15/6 1670/15/6
f 1661/16/6 1662/16/6 1671/16/6
f 1671/16/6 1662/16/6 1672/16/6
f 1673/15/6 1674/15/6 1679/15/6
f 1679/15/6 1674/15/6 1680/15/6
f 1675/15/6 1676/15/6 1681/15/6
f 1681/15/6 1676/15/6 1682/15/6
f 1677/15/6 1678/15/6 1683/15/6
f 1683/15/6 1678/15/6 1684/15/6
f 1685/8/6 1686/8/6 1700/8/6
f 1700/8/6 1686/8/6 1701/8/6
f 1687/15/6 1688/15/6 1706/15/6
f 1706/15/6 1688/15/6 1707/15/6
f 1689/15/6 1690/15/6 1708/15/6
f 1708/15/6 1690/15/6 1709/15/6
f 1691/15/6 1692/15/6 1710/15/6
f 1710/15/6 1692/15/6 1711/15/6
f 1693/15/6 1694/15/6 1712/15/6
f 1712/15/6 1694/15/6 1713/15/6
f 1695/15/6 1696/15/6 1714/15/6
f 1714/15/6 1696/15/6 1715/15/6
f 1697/15/6 1698/15/6 1716/15/6
f 1716/15/6 1698/15/6 1717/15/6
f 1699/15/6 1700/15/6 1718/15/6
f 1718/15/6 1700/15/6 1719/15/6
f 1701/15/6 1702/15/6 1720/15/6
f 1720/15/6 1702/15/6 1721/15/6
f 1703/15/6 1704/15/6 1722/15/6
f 1704/14/6 1705/14/6 1723/14/6
f 1722/15/6 1704/15/6 1723/15/6
f 1723/14/6 1705/14/6 1724/14/6
f 1733/15/6 1734/15/6 1738/15/6
f 1725/15/6 1726/15/6 1740/15/6
f 1740/15/6 1726/15/6 1741/15/6
f 1727/15/6 1728/15/6 1742/15/6
f 1742/15/6 1728/15/6 1743/15/6
f 1729/15/6 1730/15/6 1744/15/6
f 1744/15/6 1730/15/6 1745/15/6
f 1731/15/6 1732/15/6 1746/15/6
f 1746/15/6 1732/15/6 1747/15/6
f 1735/15/6 1736/15/6 1748/15/6
f 1736/14/6 1737/14/6 1749/14/6
f 1748/15/6 1736/15/6 1749/15/6
f 1749/14/6 1737/14/6 1750/14/6
f 1738/15/6 1739/15/6 1751/15/6
f 1733/15/6 1738/15/6 1751/15/6
f 1751/15/6 1739/15/6 1752/15/6
f 1753/12/6 1754/12/6 1755/12/6
f 1755/12/6 1754/12/6 1756/12/6
f 1756/12/6 1754/12/6 1757/12/6
f 1757/12/6 1754/12/6 1758/12/6
f 1758/12/6 1754/12/6 1759/12/6
f 1759/12/6 1754/12/6 1760/12/6
f 1760/12/6 1754/12/6 1761/12/6
f 1761/12/6 1754/12/6 1762/12/6
f 1753/12/6 1755/12/6 1763/12/6
f 1756/12/6 1757/12/6 1764/12/6
f 1764/12/6 1757/12/6 1765/12/6
f 1758/12/6 1759/12/6 1766/12/6
f 1766/12/6 1759/12/6 1767/12/6
f 1760/12/6 1761/12/6 1768/12/6
f 1768/12/6 1761/12/6 1769/12/6
f 1762/12/6 1754/12/6 1770/12/6
f 1768/12/6 1769/12/6 1771/12/6
f 1769/12/6 1770/12/6 1771/12/6
f 1766/12/6 1767/12/6 1771/12/6
f 1753/12/6 1763/12/6 1771/12/6
f 1767/12/6 1768/12/6 1771/12/6
f 1764/12/6 1765/12/6 1771/12/6
f 1765/12/6 1766/12/6 1771/12/6
f 1763/12/6 1764/12/6 1771/12/6
f 1770/12/6 1754/12/6 1772/12/6
f 1771/12/6 1770/12/6 1772/12/6
