# MagicaVoxel @ Ephtracy

# group
o 

# material
mtllib computer-0.mtl
usemtl palette

# normals
vn -1 0 0
vn 1 0 0
vn 0 0 1
vn 0 0 -1
vn 0 -1 0
vn 0 1 0

# texcoords
vt 0.0136719 0.5
vt 0.958984 0.5

# verts
v -20.7 0 -12.8
v -20.7 0 -13.2
v -20.7 0.1 -12.8
v -20.7 0.1 -13.2
v -20.6 0.1 -12.9
v -20.6 0.1 -13.1
v -20.6 0.2 -12.9
v -20.6 0.2 -13.1
v -20.5 0.2 -12.9
v -20.5 0.2 -13.1
v -20.5 0.4 -12.9
v -20.5 0.4 -13.1
v -20.4 0.4 -12.9
v -20.4 0.4 -13.1
v -20.4 0.7 -12.9
v -20.4 0.7 -13.1
v -20.3 0.7 -12.9
v -20.3 0.7 -13.1
v -20.3 1 -12.9
v -20.3 1 -13.1
v -20.2 0.7 -12.3
v -20.2 0.7 -12.9
v -20.2 0.7 -13.1
v -20.2 0.7 -13.7
v -20.2 1 -12.9
v -20.2 1 -13.1
v -20.2 1.4 -12.3
v -20.2 1.4 -13.7
v -20.1 0.6 -12.2
v -20.1 0.6 -13.8
v -20.1 0.7 -12.3
v -20.1 0.7 -13.7
v -20.1 1.4 -12.3
v -20.1 1.4 -13.7
v -20.1 1.5 -12.2
v -20.1 1.5 -13.8
v -20.3 0.1 -12.9
v -20.3 0.1 -13.1
v -20.3 0.4 -12.9
v -20.3 0.4 -13.1
v -20.2 0 -12.8
v -20.2 0 -13.2
v -20.2 0.1 -12.8
v -20.2 0.1 -13.2
v -20.2 0.4 -12.9
v -20.2 0.4 -13.1
v -20.2 0.7 -12.9
v -20.2 0.7 -13.1
v -20 0.6 -12.2
v -20 0.6 -13.8
v -20 0.7 -12.3
v -20 0.7 -13.7
v -20 1.4 -12.3
v -20 1.4 -13.7
v -20 1.5 -12.2
v -20 1.5 -13.8
v -20.1 0.6 -12.2
v -20.1 1.5 -12.2
v -20 0.6 -12.2
v -20 1.5 -12.2
v -20.2 0.7 -12.3
v -20.2 1.4 -12.3
v -20.1 0.7 -12.3
v -20.1 1.4 -12.3
v -20.7 0 -12.8
v -20.7 0.1 -12.8
v -20.2 0 -12.8
v -20.2 0.1 -12.8
v -20.6 0.1 -12.9
v -20.6 0.2 -12.9
v -20.5 0.2 -12.9
v -20.5 0.4 -12.9
v -20.4 0.4 -12.9
v -20.4 0.7 -12.9
v -20.3 0.1 -12.9
v -20.3 0.4 -12.9
v -20.3 0.7 -12.9
v -20.3 1 -12.9
v -20.2 0.4 -12.9
v -20.2 0.7 -12.9
v -20.2 1 -12.9
v -20.6 0.1 -13.1
v -20.6 0.2 -13.1
v -20.5 0.2 -13.1
v -20.5 0.4 -13.1
v -20.4 0.4 -13.1
v -20.4 0.7 -13.1
v -20.3 0.1 -13.1
v -20.3 0.4 -13.1
v -20.3 0.7 -13.1
v -20.3 1 -13.1
v -20.2 0.4 -13.1
v -20.2 0.7 -13.1
v -20.2 1 -13.1
v -20.7 0 -13.2
v -20.7 0.1 -13.2
v -20.2 0 -13.2
v -20.2 0.1 -13.2
v -20.2 0.7 -13.7
v -20.2 1.4 -13.7
v -20.1 0.7 -13.7
v -20.1 1.4 -13.7
v -20.1 0.6 -13.8
v -20.1 1.5 -13.8
v -20 0.6 -13.8
v -20 1.5 -13.8
v -20.7 0 -12.8
v -20.2 0 -12.8
v -20.7 0 -13.2
v -20.2 0 -13.2
v -20.3 0.4 -12.9
v -20.2 0.4 -12.9
v -20.3 0.4 -13.1
v -20.2 0.4 -13.1
v -20.1 0.6 -12.2
v -20 0.6 -12.2
v -20.1 0.6 -13.8
v -20 0.6 -13.8
v -20.2 0.7 -12.3
v -20.1 0.7 -12.3
v -20.2 0.7 -12.9
v -20.2 0.7 -13.1
v -20.2 0.7 -13.7
v -20.1 0.7 -13.7
v -20.7 0.1 -12.8
v -20.2 0.1 -12.8
v -20.6 0.1 -12.9
v -20.3 0.1 -12.9
v -20.6 0.1 -13.1
v -20.3 0.1 -13.1
v -20.7 0.1 -13.2
v -20.2 0.1 -13.2
v -20.6 0.2 -12.9
v -20.5 0.2 -12.9
v -20.6 0.2 -13.1
v -20.5 0.2 -13.1
v -20.5 0.4 -12.9
v -20.4 0.4 -12.9
v -20.5 0.4 -13.1
v -20.4 0.4 -13.1
v -20.4 0.7 -12.9
v -20.3 0.7 -12.9
v -20.4 0.7 -13.1
v -20.3 0.7 -13.1
v -20.3 1 -12.9
v -20.2 1 -12.9
v -20.3 1 -13.1
v -20.2 1 -13.1
v -20.2 1.4 -12.3
v -20.1 1.4 -12.3
v -20.2 1.4 -13.7
v -20.1 1.4 -13.7
v -20.1 1.5 -12.2
v -20 1.5 -12.2
v -20.1 1.5 -13.8
v -20 1.5 -13.8

# faces
f 3/2/1 2/2/1 1/2/1
f 4/2/1 2/2/1 3/2/1
f 7/2/1 6/2/1 5/2/1
f 8/2/1 6/2/1 7/2/1
f 11/2/1 10/2/1 9/2/1
f 12/2/1 10/2/1 11/2/1
f 15/2/1 14/2/1 13/2/1
f 16/2/1 14/2/1 15/2/1
f 19/2/1 18/2/1 17/2/1
f 20/2/1 18/2/1 19/2/1
f 25/2/1 22/2/1 21/2/1
f 26/2/1 24/2/1 23/2/1
f 27/2/1 25/2/1 21/2/1
f 27/2/1 26/2/1 25/2/1
f 28/2/1 24/2/1 26/2/1
f 28/2/1 26/2/1 27/2/1
f 31/2/1 30/2/1 29/2/1
f 32/2/1 30/2/1 31/2/1
f 33/2/1 31/2/1 29/2/1
f 34/2/1 30/2/1 32/2/1
f 35/2/1 33/2/1 29/2/1
f 35/2/1 34/2/1 33/2/1
f 36/2/1 30/2/1 34/2/1
f 36/2/1 34/2/1 35/2/1
f 37/2/2 38/2/2 39/2/2
f 39/2/2 38/2/2 40/2/2
f 41/2/2 42/2/2 43/2/2
f 43/2/2 42/2/2 44/2/2
f 45/2/2 46/2/2 47/2/2
f 47/2/2 46/2/2 48/2/2
f 49/2/2 50/2/2 51/2/2
f 51/2/2 50/2/2 52/2/2
f 49/2/2 51/2/2 53/2/2
f 51/1/2 52/1/2 53/1/2
f 52/2/2 50/2/2 54/2/2
f 53/1/2 52/1/2 54/1/2
f 49/2/2 53/2/2 55/2/2
f 53/2/2 54/2/2 55/2/2
f 54/2/2 50/2/2 56/2/2
f 55/2/2 54/2/2 56/2/2
f 59/2/3 58/2/3 57/2/3
f 60/2/3 58/2/3 59/2/3
f 63/2/3 62/2/3 61/2/3
f 64/2/3 62/2/3 63/2/3
f 67/2/3 66/2/3 65/2/3
f 68/2/3 66/2/3 67/2/3
f 71/2/3 70/2/3 69/2/3
f 73/2/3 72/2/3 71/2/3
f 75/2/3 71/2/3 69/2/3
f 75/2/3 74/2/3 73/2/3
f 75/2/3 73/2/3 71/2/3
f 76/2/3 74/2/3 75/2/3
f 77/2/3 74/2/3 76/2/3
f 79/2/3 78/2/3 77/2/3
f 79/2/3 77/2/3 76/2/3
f 80/2/3 78/2/3 79/2/3
f 81/2/3 78/2/3 80/2/3
f 82/2/4 83/2/4 84/2/4
f 84/2/4 85/2/4 86/2/4
f 82/2/4 84/2/4 88/2/4
f 86/2/4 87/2/4 88/2/4
f 84/2/4 86/2/4 88/2/4
f 88/2/4 87/2/4 89/2/4
f 89/2/4 87/2/4 90/2/4
f 90/2/4 91/2/4 92/2/4
f 89/2/4 90/2/4 92/2/4
f 92/2/4 91/2/4 93/2/4
f 93/2/4 91/2/4 94/2/4
f 95/2/4 96/2/4 97/2/4
f 97/2/4 96/2/4 98/2/4
f 99/2/4 100/2/4 101/2/4
f 101/2/4 100/2/4 102/2/4
f 103/2/4 104/2/4 105/2/4
f 105/2/4 104/2/4 106/2/4
f 109/2/5 108/2/5 107/2/5
f 110/2/5 108/2/5 109/2/5
f 113/2/5 112/2/5 111/2/5
f 114/2/5 112/2/5 113/2/5
f 117/2/5 116/2/5 115/2/5
f 118/2/5 116/2/5 117/2/5
f 121/2/5 120/2/5 119/2/5
f 122/2/5 120/2/5 121/2/5
f 123/2/5 120/2/5 122/2/5
f 124/2/5 120/2/5 123/2/5
f 125/2/6 126/2/6 127/2/6
f 127/2/6 126/2/6 128/2/6
f 125/2/6 127/2/6 129/2/6
f 128/2/6 126/2/6 130/2/6
f 125/2/6 129/2/6 131/2/6
f 129/2/6 130/2/6 131/2/6
f 130/2/6 126/2/6 132/2/6
f 131/2/6 130/2/6 132/2/6
f 133/2/6 134/2/6 135/2/6
f 135/2/6 134/2/6 136/2/6
f 137/2/6 138/2/6 139/2/6
f 139/2/6 138/2/6 140/2/6
f 141/2/6 142/2/6 143/2/6
f 143/2/6 142/2/6 144/2/6
f 145/2/6 146/2/6 147/2/6
f 147/2/6 146/2/6 148/2/6
f 149/2/6 150/2/6 151/2/6
f 151/2/6 150/2/6 152/2/6
f 153/2/6 154/2/6 155/2/6
f 155/2/6 154/2/6 156/2/6
