# MagicaVoxel @ Ephtracy

# group
o 

# material
mtllib spaceship_inside-13.mtl
usemtl palette

# normals
vn -1 0 0
vn 1 0 0
vn 0 0 1
vn 0 0 -1
vn 0 -1 0
vn 0 1 0

# texcoords
vt 0.423828 0.5
vt 0.728516 0.5
vt 0.841797 0.5
vt 0.943359 0.5
vt 0.958984 0.5

# verts
v -0.05 -0.55 1
v -0.05 -0.55 -1
v -0.05 -0.45 0.9
v -0.05 -0.45 -0.9
v -0.05 -0.35 0.8
v -0.05 -0.35 0.2
v -0.05 -0.35 0
v -0.05 -0.35 -0.1
v -0.05 -0.35 -0.4
v -0.05 -0.35 -0.7
v -0.05 -0.25 0.7
v -0.05 -0.25 0.3
v -0.05 -0.25 -0.4
v -0.05 -0.25 -0.7
v -0.05 -0.15 0
v -0.05 -0.15 -0.1
v -0.05 -0.15 -0.4
v -0.05 -0.15 -0.8
v -0.05 -0.05 0.1
v -0.05 -0.05 -0.2
v -0.05 -0.05 -0.4
v -0.05 -0.05 -0.8
v -0.05 0.05 0.7
v -0.05 0.05 0.3
v -0.05 0.05 0.1
v -0.05 0.05 -0.2
v -0.05 0.05 -0.4
v -0.05 0.05 -0.7
v -0.05 0.15 0
v -0.05 0.15 -0.1
v -0.05 0.15 -0.4
v -0.05 0.15 -0.7
v -0.05 0.25 0.7
v -0.05 0.25 0.3
v -0.05 0.25 -0.4
v -0.05 0.25 -0.8
v -0.05 0.35 0.8
v -0.05 0.35 0.2
v -0.05 0.35 0
v -0.05 0.35 -0.1
v -0.05 0.35 -0.4
v -0.05 0.35 -0.8
v -0.05 0.45 0.9
v -0.05 0.45 -0.9
v -0.05 0.55 1
v -0.05 0.55 -1
v 0.05 -0.55 1
v 0.05 -0.55 -1
v 0.05 -0.45 0.9
v 0.05 -0.45 -0.9
v 0.05 -0.35 0.8
v 0.05 -0.35 0.2
v 0.05 -0.35 0
v 0.05 -0.35 -0.1
v 0.05 -0.35 -0.4
v 0.05 -0.35 -0.7
v 0.05 -0.25 0.7
v 0.05 -0.25 0.3
v 0.05 -0.25 -0.4
v 0.05 -0.25 -0.7
v 0.05 -0.15 0
v 0.05 -0.15 -0.1
v 0.05 -0.15 -0.4
v 0.05 -0.15 -0.8
v 0.05 -0.05 0.1
v 0.05 -0.05 -0.2
v 0.05 -0.05 -0.4
v 0.05 -0.05 -0.8
v 0.05 0.05 0.7
v 0.05 0.05 0.3
v 0.05 0.05 0.1
v 0.05 0.05 -0.2
v 0.05 0.05 -0.4
v 0.05 0.05 -0.7
v 0.05 0.15 0
v 0.05 0.15 -0.1
v 0.05 0.15 -0.4
v 0.05 0.15 -0.7
v 0.05 0.25 0.7
v 0.05 0.25 0.3
v 0.05 0.25 -0.4
v 0.05 0.25 -0.8
v 0.05 0.35 0.8
v 0.05 0.35 0.2
v 0.05 0.35 0
v 0.05 0.35 -0.1
v 0.05 0.35 -0.4
v 0.05 0.35 -0.8
v 0.05 0.45 0.9
v 0.05 0.45 -0.9
v 0.05 0.55 1
v 0.05 0.55 -1
v -0.05 -0.55 1
v -0.05 0.55 1
v 0.05 -0.55 1
v 0.05 0.55 1
v -0.05 -0.55 -1
v -0.05 0.55 -1
v 0.05 -0.55 -1
v 0.05 0.55 -1
v -0.05 -0.55 1
v 0.05 -0.55 1
v -0.05 -0.55 -1
v 0.05 -0.55 -1
v -0.05 0.55 1
v 0.05 0.55 1
v -0.05 0.55 -1
v 0.05 0.55 -1

# faces
f 3/5/1 2/5/1 1/5/1
f 4/5/1 2/5/1 3/5/1
f 5/4/1 4/4/1 3/4/1
f 6/4/1 4/4/1 5/4/1
f 7/4/1 4/4/1 6/4/1
f 8/4/1 4/4/1 7/4/1
f 9/4/1 4/4/1 8/4/1
f 10/4/1 4/4/1 9/4/1
f 11/2/1 6/2/1 5/2/1
f 12/2/1 6/2/1 11/2/1
f 13/4/1 9/4/1 8/4/1
f 13/2/1 10/2/1 9/2/1
f 14/4/1 4/4/1 10/4/1
f 14/2/1 10/2/1 13/2/1
f 15/4/1 7/4/1 6/4/1
f 15/2/1 8/2/1 7/2/1
f 16/4/1 13/4/1 8/4/1
f 16/2/1 8/2/1 15/2/1
f 16/4/1 14/4/1 13/4/1
f 17/4/1 14/4/1 16/4/1
f 18/4/1 4/4/1 14/4/1
f 18/4/1 14/4/1 17/4/1
f 19/4/1 15/4/1 6/4/1
f 19/4/1 17/4/1 16/4/1
f 19/4/1 16/4/1 15/4/1
f 20/4/1 17/4/1 19/4/1
f 21/2/1 18/2/1 17/2/1
f 21/4/1 17/4/1 20/4/1
f 22/4/1 4/4/1 18/4/1
f 22/2/1 18/2/1 21/2/1
f 23/2/1 11/2/1 5/2/1
f 23/1/1 12/1/1 11/1/1
f 24/2/1 6/2/1 12/2/1
f 24/1/1 12/1/1 23/1/1
f 25/3/1 20/3/1 19/3/1
f 25/4/1 19/4/1 6/4/1
f 26/4/1 21/4/1 20/4/1
f 26/3/1 20/3/1 25/3/1
f 26/4/1 22/4/1 21/4/1
f 27/4/1 22/4/1 26/4/1
f 28/4/1 22/4/1 27/4/1
f 29/4/1 26/4/1 25/4/1
f 29/4/1 27/4/1 26/4/1
f 30/4/1 27/4/1 29/4/1
f 31/2/1 28/2/1 27/2/1
f 31/4/1 27/4/1 30/4/1
f 32/4/1 22/4/1 28/4/1
f 32/2/1 28/2/1 31/2/1
f 33/2/1 23/2/1 5/2/1
f 33/4/1 24/4/1 23/4/1
f 34/2/1 6/2/1 24/2/1
f 34/4/1 24/4/1 33/4/1
f 35/4/1 32/4/1 31/4/1
f 35/4/1 31/4/1 30/4/1
f 36/4/1 4/4/1 22/4/1
f 36/4/1 32/4/1 35/4/1
f 36/4/1 22/4/1 32/4/1
f 37/4/1 5/4/1 3/4/1
f 37/2/1 33/2/1 5/2/1
f 37/2/1 34/2/1 33/2/1
f 38/4/1 25/4/1 6/4/1
f 38/2/1 34/2/1 37/2/1
f 38/4/1 29/4/1 25/4/1
f 38/2/1 6/2/1 34/2/1
f 39/2/1 30/2/1 29/2/1
f 39/4/1 29/4/1 38/4/1
f 40/4/1 35/4/1 30/4/1
f 40/2/1 30/2/1 39/2/1
f 41/2/1 36/2/1 35/2/1
f 41/4/1 35/4/1 40/4/1
f 42/4/1 4/4/1 36/4/1
f 42/2/1 36/2/1 41/2/1
f 43/5/1 3/5/1 1/5/1
f 43/4/1 41/4/1 40/4/1
f 43/4/1 42/4/1 41/4/1
f 43/4/1 38/4/1 37/4/1
f 43/4/1 39/4/1 38/4/1
f 43/4/1 40/4/1 39/4/1
f 43/4/1 37/4/1 3/4/1
f 44/4/1 4/4/1 42/4/1
f 44/4/1 42/4/1 43/4/1
f 44/5/1 2/5/1 4/5/1
f 45/5/1 43/5/1 1/5/1
f 45/5/1 44/5/1 43/5/1
f 46/5/1 2/5/1 44/5/1
f 46/5/1 44/5/1 45/5/1
f 47/5/2 48/5/2 49/5/2
f 49/5/2 48/5/2 50/5/2
f 49/4/2 50/4/2 51/4/2
f 51/4/2 50/4/2 52/4/2
f 52/4/2 50/4/2 53/4/2
f 53/4/2 50/4/2 54/4/2
f 54/4/2 50/4/2 55/4/2
f 55/4/2 50/4/2 56/4/2
f 51/2/2 52/2/2 57/2/2
f 57/2/2 52/2/2 58/2/2
f 54/4/2 55/4/2 59/4/2
f 55/2/2 56/2/2 59/2/2
f 56/4/2 50/4/2 60/4/2
f 59/2/2 56/2/2 60/2/2
f 52/4/2 53/4/2 61/4/2
f 53/2/2 54/2/2 61/2/2
f 54/4/2 59/4/2 62/4/2
f 61/2/2 54/2/2 62/2/2
f 59/4/2 60/4/2 62/4/2
f 62/4/2 60/4/2 63/4/2
f 60/4/2 50/4/2 64/4/2
f 63/4/2 60/4/2 64/4/2
f 52/4/2 61/4/2 65/4/2
f 62/4/2 63/4/2 65/4/2
f 61/4/2 62/4/2 65/4/2
f 65/4/2 63/4/2 66/4/2
f 63/2/2 64/2/2 67/2/2
f 66/4/2 63/4/2 67/4/2
f 64/4/2 50/4/2 68/4/2
f 67/2/2 64/2/2 68/2/2
f 51/2/2 57/2/2 69/2/2
f 57/1/2 58/1/2 69/1/2
f 58/2/2 52/2/2 70/2/2
f 69/1/2 58/1/2 70/1/2
f 65/3/2 66/3/2 71/3/2
f 52/4/2 65/4/2 71/4/2
f 66/4/2 67/4/2 72/4/2
f 71/3/2 66/3/2 72/3/2
f 67/4/2 68/4/2 72/4/2
f 72/4/2 68/4/2 73/4/2
f 73/4/2 68/4/2 74/4/2
f 71/4/2 72/4/2 75/4/2
f 72/4/2 73/4/2 75/4/2
f 75/4/2 73/4/2 76/4/2
f 73/2/2 74/2/2 77/2/2
f 76/4/2 73/4/2 77/4/2
f 74/4/2 68/4/2 78/4/2
f 77/2/2 74/2/2 78/2/2
f 51/2/2 69/2/2 79/2/2
f 69/4/2 70/4/2 79/4/2
f 70/2/2 52/2/2 80/2/2
f 79/4/2 70/4/2 80/4/2
f 77/4/2 78/4/2 81/4/2
f 76/4/2 77/4/2 81/4/2
f 68/4/2 50/4/2 82/4/2
f 81/4/2 78/4/2 82/4/2
f 78/4/2 68/4/2 82/4/2
f 49/4/2 51/4/2 83/4/2
f 51/2/2 79/2/2 83/2/2
f 79/2/2 80/2/2 83/2/2
f 52/4/2 71/4/2 84/4/2
f 83/2/2 80/2/2 84/2/2
f 71/4/2 75/4/2 84/4/2
f 80/2/2 52/2/2 84/2/2
f 75/2/2 76/2/2 85/2/2
f 84/4/2 75/4/2 85/4/2
f 76/4/2 81/4/2 86/4/2
f 85/2/2 76/2/2 86/2/2
f 81/2/2 82/2/2 87/2/2
f 86/4/2 81/4/2 87/4/2
f 82/4/2 50/4/2 88/4/2
f 87/2/2 82/2/2 88/2/2
f 47/5/2 49/5/2 89/5/2
f 86/4/2 87/4/2 89/4/2
f 87/4/2 88/4/2 89/4/2
f 83/4/2 84/4/2 89/4/2
f 84/4/2 85/4/2 89/4/2
f 85/4/2 86/4/2 89/4/2
f 49/4/2 83/4/2 89/4/2
f 88/4/2 50/4/2 90/4/2
f 89/4/2 88/4/2 90/4/2
f 50/5/2 48/5/2 90/5/2
f 47/5/2 89/5/2 91/5/2
f 89/5/2 90/5/2 91/5/2
f 90/5/2 48/5/2 92/5/2
f 91/5/2 90/5/2 92/5/2
f 95/5/3 94/5/3 93/5/3
f 96/5/3 94/5/3 95/5/3
f 97/5/4 98/5/4 99/5/4
f 99/5/4 98/5/4 100/5/4
f 103/5/5 102/5/5 101/5/5
f 104/5/5 102/5/5 103/5/5
f 105/5/6 106/5/6 107/5/6
f 107/5/6 106/5/6 108/5/6
