# MagicaVoxel @ Ephtracy

# group
o 

# material
mtllib spaceship_inside-14.mtl
usemtl palette

# normals
vn -1 0 0
vn 1 0 0
vn 0 0 1
vn 0 0 -1
vn 0 -1 0
vn 0 1 0

# texcoords
vt 0.306641 0.5
vt 0.728516 0.5
vt 0.775391 0.5
vt 0.943359 0.5
vt 0.958984 0.5

# verts
v -0.05 -0.55 1
v -0.05 -0.55 -1
v -0.05 -0.45 0.9
v -0.05 -0.45 0.2
v -0.05 -0.45 0.1
v -0.05 -0.45 0
v -0.05 -0.45 -0.1
v -0.05 -0.45 -0.4
v -0.05 -0.45 -0.6
v -0.05 -0.45 -0.9
v -0.05 -0.35 0.8
v -0.05 -0.35 0.7
v -0.05 -0.35 0.5
v -0.05 -0.35 0.3
v -0.05 -0.35 0.2
v -0.05 -0.35 0.1
v -0.05 -0.35 0
v -0.05 -0.35 -0.1
v -0.05 -0.35 -0.4
v -0.05 -0.35 -0.6
v -0.05 -0.25 0.8
v -0.05 -0.25 0.7
v -0.05 -0.25 0.5
v -0.05 -0.25 0.4
v -0.05 -0.25 0.2
v -0.05 -0.25 0.1
v -0.05 -0.25 0
v -0.05 -0.25 -0.1
v -0.05 -0.25 -0.2
v -0.05 -0.25 -0.3
v -0.05 -0.25 -0.4
v -0.05 -0.25 -0.7
v -0.05 -0.15 0.8
v -0.05 -0.15 0.6
v -0.05 -0.15 0.2
v -0.05 -0.15 0.1
v -0.05 -0.15 0
v -0.05 -0.15 -0.1
v -0.05 -0.15 -0.4
v -0.05 -0.15 -0.7
v -0.05 -0.05 0.8
v -0.05 -0.05 0.6
v -0.05 -0.05 0.4
v -0.05 -0.05 0.3
v -0.05 -0.05 0.2
v -0.05 -0.05 0.1
v -0.05 -0.05 0
v -0.05 -0.05 -0.1
v -0.05 -0.05 -0.2
v -0.05 -0.05 -0.3
v -0.05 -0.05 -0.4
v -0.05 -0.05 -0.8
v -0.05 0.05 0.8
v -0.05 0.05 0.5
v -0.05 0.05 0.2
v -0.05 0.05 0.1
v -0.05 0.05 0
v -0.05 0.05 -0.1
v -0.05 0.05 -0.4
v -0.05 0.05 -0.8
v -0.05 0.15 0.8
v -0.05 0.15 0.5
v -0.05 0.15 0.1
v -0.05 0.15 0
v -0.05 0.25 0.8
v -0.05 0.25 0.3
v -0.05 0.25 0
v -0.05 0.25 -0.8
v -0.05 0.35 0.8
v -0.05 0.35 0.3
v -0.05 0.35 0
v -0.05 0.35 -0.8
v -0.05 0.45 0.9
v -0.05 0.45 -0.9
v -0.05 0.55 1
v -0.05 0.55 -1
v 0.05 -0.55 1
v 0.05 -0.55 -1
v 0.05 -0.45 0.9
v 0.05 -0.45 0.2
v 0.05 -0.45 0.1
v 0.05 -0.45 0
v 0.05 -0.45 -0.1
v 0.05 -0.45 -0.4
v 0.05 -0.45 -0.6
v 0.05 -0.45 -0.9
v 0.05 -0.35 0.8
v 0.05 -0.35 0.7
v 0.05 -0.35 0.5
v 0.05 -0.35 0.3
v 0.05 -0.35 0.2
v 0.05 -0.35 0.1
v 0.05 -0.35 0
v 0.05 -0.35 -0.1
v 0.05 -0.35 -0.4
v 0.05 -0.35 -0.6
v 0.05 -0.25 0.8
v 0.05 -0.25 0.7
v 0.05 -0.25 0.5
v 0.05 -0.25 0.4
v 0.05 -0.25 0.2
v 0.05 -0.25 0.1
v 0.05 -0.25 0
v 0.05 -0.25 -0.1
v 0.05 -0.25 -0.2
v 0.05 -0.25 -0.3
v 0.05 -0.25 -0.4
v 0.05 -0.25 -0.7
v 0.05 -0.15 0.8
v 0.05 -0.15 0.6
v 0.05 -0.15 0.2
v 0.05 -0.15 0.1
v 0.05 -0.15 0
v 0.05 -0.15 -0.1
v 0.05 -0.15 -0.4
v 0.05 -0.15 -0.7
v 0.05 -0.05 0.8
v 0.05 -0.05 0.6
v 0.05 -0.05 0.4
v 0.05 -0.05 0.3
v 0.05 -0.05 0.2
v 0.05 -0.05 0.1
v 0.05 -0.05 0
v 0.05 -0.05 -0.1
v 0.05 -0.05 -0.2
v 0.05 -0.05 -0.3
v 0.05 -0.05 -0.4
v 0.05 -0.05 -0.8
v 0.05 0.05 0.8
v 0.05 0.05 0.5
v 0.05 0.05 0.2
v 0.05 0.05 0.1
v 0.05 0.05 0
v 0.05 0.05 -0.1
v 0.05 0.05 -0.4
v 0.05 0.05 -0.8
v 0.05 0.15 0.8
v 0.05 0.15 0.5
v 0.05 0.15 0.1
v 0.05 0.15 0
v 0.05 0.25 0.8
v 0.05 0.25 0.3
v 0.05 0.25 0
v 0.05 0.25 -0.8
v 0.05 0.35 0.8
v 0.05 0.35 0.3
v 0.05 0.35 0
v 0.05 0.35 -0.8
v 0.05 0.45 0.9
v 0.05 0.45 -0.9
v 0.05 0.55 1
v 0.05 0.55 -1
v -0.05 -0.55 1
v -0.05 0.55 1
v 0.05 -0.55 1
v 0.05 0.55 1
v -0.05 -0.55 -1
v -0.05 0.55 -1
v 0.05 -0.55 -1
v 0.05 0.55 -1
v -0.05 -0.55 1
v 0.05 -0.55 1
v -0.05 -0.55 -1
v 0.05 -0.55 -1
v -0.05 0.55 1
v 0.05 0.55 1
v -0.05 0.55 -1
v 0.05 0.55 -1

# faces
f 3/5/1 2/5/1 1/5/1
f 4/5/1 2/5/1 3/5/1
f 5/5/1 2/5/1 4/5/1
f 6/5/1 2/5/1 5/5/1
f 7/5/1 2/5/1 6/5/1
f 8/5/1 2/5/1 7/5/1
f 9/5/1 2/5/1 8/5/1
f 10/5/1 2/5/1 9/5/1
f 11/4/1 4/4/1 3/4/1
f 12/4/1 4/4/1 11/4/1
f 13/4/1 4/4/1 12/4/1
f 14/4/1 4/4/1 13/4/1
f 15/1/1 5/1/1 4/1/1
f 15/4/1 4/4/1 14/4/1
f 16/4/1 6/4/1 5/4/1
f 16/1/1 5/1/1 15/1/1
f 17/1/1 7/1/1 6/1/1
f 17/4/1 6/4/1 16/4/1
f 18/4/1 8/4/1 7/4/1
f 18/1/1 7/1/1 17/1/1
f 19/2/1 9/2/1 8/2/1
f 19/4/1 8/4/1 18/4/1
f 20/4/1 10/4/1 9/4/1
f 20/2/1 9/2/1 19/2/1
f 21/4/1 11/4/1 3/4/1
f 21/2/1 12/2/1 11/2/1
f 22/4/1 13/4/1 12/4/1
f 22/2/1 12/2/1 21/2/1
f 23/2/1 14/2/1 13/2/1
f 23/4/1 13/4/1 22/4/1
f 24/2/1 14/2/1 23/2/1
f 25/4/1 15/4/1 14/4/1
f 25/4/1 16/4/1 15/4/1
f 26/1/1 17/1/1 16/1/1
f 26/4/1 16/4/1 25/4/1
f 27/4/1 18/4/1 17/4/1
f 27/1/1 17/1/1 26/1/1
f 27/4/1 19/4/1 18/4/1
f 27/4/1 20/4/1 19/4/1
f 28/4/1 20/4/1 27/4/1
f 29/4/1 20/4/1 28/4/1
f 30/4/1 20/4/1 29/4/1
f 31/4/1 20/4/1 30/4/1
f 32/4/1 10/4/1 20/4/1
f 32/4/1 20/4/1 31/4/1
f 33/4/1 22/4/1 21/4/1
f 33/4/1 24/4/1 23/4/1
f 33/4/1 23/4/1 22/4/1
f 33/4/1 21/4/1 3/4/1
f 34/4/1 24/4/1 33/4/1
f 35/4/1 25/4/1 14/4/1
f 35/1/1 26/1/1 25/1/1
f 36/4/1 27/4/1 26/4/1
f 36/1/1 26/1/1 35/1/1
f 37/1/1 28/1/1 27/1/1
f 37/4/1 27/4/1 36/4/1
f 38/4/1 29/4/1 28/4/1
f 38/1/1 28/1/1 37/1/1
f 39/2/1 32/2/1 31/2/1
f 39/4/1 31/4/1 30/4/1
f 40/4/1 10/4/1 32/4/1
f 40/2/1 32/2/1 39/2/1
f 41/2/1 34/2/1 33/2/1
f 41/4/1 33/4/1 3/4/1
f 42/4/1 24/4/1 34/4/1
f 42/2/1 34/2/1 41/2/1
f 43/2/1 14/2/1 24/2/1
f 43/4/1 24/4/1 42/4/1
f 44/4/1 35/4/1 14/4/1
f 44/2/1 14/2/1 43/2/1
f 44/4/1 36/4/1 35/4/1
f 45/4/1 36/4/1 44/4/1
f 46/1/1 37/1/1 36/1/1
f 46/4/1 36/4/1 45/4/1
f 47/4/1 38/4/1 37/4/1
f 47/1/1 37/1/1 46/1/1
f 48/4/1 29/4/1 38/4/1
f 48/4/1 38/4/1 47/4/1
f 49/2/1 30/2/1 29/2/1
f 49/4/1 29/4/1 48/4/1
f 50/4/1 39/4/1 30/4/1
f 50/2/1 30/2/1 49/2/1
f 50/4/1 40/4/1 39/4/1
f 51/4/1 40/4/1 50/4/1
f 52/4/1 10/4/1 40/4/1
f 52/4/1 40/4/1 51/4/1
f 53/4/1 42/4/1 41/4/1
f 53/4/1 41/4/1 3/4/1
f 53/4/1 45/4/1 44/4/1
f 53/4/1 43/4/1 42/4/1
f 53/4/1 44/4/1 43/4/1
f 54/4/1 45/4/1 53/4/1
f 55/1/1 46/1/1 45/1/1
f 55/4/1 45/4/1 54/4/1
f 56/4/1 47/4/1 46/4/1
f 56/1/1 46/1/1 55/1/1
f 57/1/1 48/1/1 47/1/1
f 57/4/1 47/4/1 56/4/1
f 58/4/1 49/4/1 48/4/1
f 58/1/1 48/1/1 57/1/1
f 58/4/1 51/4/1 50/4/1
f 58/4/1 50/4/1 49/4/1
f 59/3/1 52/3/1 51/3/1
f 59/4/1 51/4/1 58/4/1
f 60/4/1 10/4/1 52/4/1
f 60/3/1 52/3/1 59/3/1
f 61/4/1 53/4/1 3/4/1
f 61/2/1 54/2/1 53/2/1
f 62/4/1 55/4/1 54/4/1
f 62/2/1 54/2/1 61/2/1
f 62/4/1 56/4/1 55/4/1
f 63/1/1 57/1/1 56/1/1
f 63/4/1 56/4/1 62/4/1
f 64/4/1 59/4/1 58/4/1
f 64/1/1 57/1/1 63/1/1
f 64/4/1 58/4/1 57/4/1
f 64/4/1 60/4/1 59/4/1
f 65/4/1 62/4/1 61/4/1
f 65/4/1 63/4/1 62/4/1
f 65/4/1 64/4/1 63/4/1
f 65/4/1 61/4/1 3/4/1
f 66/4/1 64/4/1 65/4/1
f 67/4/1 60/4/1 64/4/1
f 67/4/1 64/4/1 66/4/1
f 68/4/1 10/4/1 60/4/1
f 68/4/1 60/4/1 67/4/1
f 69/2/1 66/2/1 65/2/1
f 69/4/1 65/4/1 3/4/1
f 70/4/1 67/4/1 66/4/1
f 70/2/1 66/2/1 69/2/1
f 71/2/1 68/2/1 67/2/1
f 71/4/1 67/4/1 70/4/1
f 72/4/1 10/4/1 68/4/1
f 72/2/1 68/2/1 71/2/1
f 73/5/1 3/5/1 1/5/1
f 73/4/1 71/4/1 70/4/1
f 73/4/1 72/4/1 71/4/1
f 73/4/1 70/4/1 69/4/1
f 73/4/1 69/4/1 3/4/1
f 74/4/1 10/4/1 72/4/1
f 74/4/1 72/4/1 73/4/1
f 74/5/1 2/5/1 10/5/1
f 75/5/1 73/5/1 1/5/1
f 75/5/1 74/5/1 73/5/1
f 76/5/1 2/5/1 74/5/1
f 76/5/1 74/5/1 75/5/1
f 77/5/2 78/5/2 79/5/2
f 79/5/2 78/5/2 80/5/2
f 80/5/2 78/5/2 81/5/2
f 81/5/2 78/5/2 82/5/2
f 82/5/2 78/5/2 83/5/2
f 83/5/2 78/5/2 84/5/2
f 84/5/2 78/5/2 85/5/2
f 85/5/2 78/5/2 86/5/2
f 79/4/2 80/4/2 87/4/2
f 87/4/2 80/4/2 88/4/2
f 88/4/2 80/4/2 89/4/2
f 89/4/2 80/4/2 90/4/2
f 80/1/2 81/1/2 91/1/2
f 90/4/2 80/4/2 91/4/2
f 81/4/2 82/4/2 92/4/2
f 91/1/2 81/1/2 92/1/2
f 82/1/2 83/1/2 93/1/2
f 92/4/2 82/4/2 93/4/2
f 83/4/2 84/4/2 94/4/2
f 93/1/2 83/1/2 94/1/2
f 84/2/2 85/2/2 95/2/2
f 94/4/2 84/4/2 95/4/2
f 85/4/2 86/4/2 96/4/2
f 95/2/2 85/2/2 96/2/2
f 79/4/2 87/4/2 97/4/2
f 87/2/2 88/2/2 97/2/2
f 88/4/2 89/4/2 98/4/2
f 97/2/2 88/2/2 98/2/2
f 89/2/2 90/2/2 99/2/2
f 98/4/2 89/4/2 99/4/2
f 99/2/2 90/2/2 100/2/2
f 90/4/2 91/4/2 101/4/2
f 91/4/2 92/4/2 101/4/2
f 92/1/2 93/1/2 102/1/2
f 101/4/2 92/4/2 102/4/2
f 93/4/2 94/4/2 103/4/2
f 102/1/2 93/1/2 103/1/2
f 94/4/2 95/4/2 103/4/2
f 95/4/2 96/4/2 103/4/2
f 103/4/2 96/4/2 104/4/2
f 104/4/2 96/4/2 105/4/2
f 105/4/2 96/4/2 106/4/2
f 106/4/2 96/4/2 107/4/2
f 96/4/2 86/4/2 108/4/2
f 107/4/2 96/4/2 108/4/2
f 97/4/2 98/4/2 109/4/2
f 99/4/2 100/4/2 109/4/2
f 98/4/2 99/4/2 109/4/2
f 79/4/2 97/4/2 109/4/2
f 109/4/2 100/4/2 110/4/2
f 90/4/2 101/4/2 111/4/2
f 101/1/2 102/1/2 111/1/2
f 102/4/2 103/4/2 112/4/2
f 111/1/2 102/1/2 112/1/2
f 103/1/2 104/1/2 113/1/2
f 112/4/2 103/4/2 113/4/2
f 104/4/2 105/4/2 114/4/2
f 113/1/2 104/1/2 114/1/2
f 107/2/2 108/2/2 115/2/2
f 106/4/2 107/4/2 115/4/2
f 108/4/2 86/4/2 116/4/2
f 115/2/2 108/2/2 116/2/2
f 109/2/2 110/2/2 117/2/2
f 79/4/2 109/4/2 117/4/2
f 110/4/2 100/4/2 118/4/2
f 117/2/2 110/2/2 118/2/2
f 100/2/2 90/2/2 119/2/2
f 118/4/2 100/4/2 119/4/2
f 90/4/2 111/4/2 120/4/2
f 119/2/2 90/2/2 120/2/2
f 111/4/2 112/4/2 120/4/2
f 120/4/2 112/4/2 121/4/2
f 112/1/2 113/1/2 122/1/2
f 121/4/2 112/4/2 122/4/2
f 113/4/2 114/4/2 123/4/2
f 122/1/2 113/1/2 123/1/2
f 114/4/2 105/4/2 124/4/2
f 123/4/2 114/4/2 124/4/2
f 105/2/2 106/2/2 125/2/2
f 124/4/2 105/4/2 125/4/2
f 106/4/2 115/4/2 126/4/2
f 125/2/2 106/2/2 126/2/2
f 115/4/2 116/4/2 126/4/2
f 126/4/2 116/4/2 127/4/2
f 116/4/2 86/4/2 128/4/2
f 127/4/2 116/4/2 128/4/2
f 117/4/2 118/4/2 129/4/2
f 79/4/2 117/4/2 129/4/2
f 120/4/2 121/4/2 129/4/2
f 118/4/2 119/4/2 129/4/2
f 119/4/2 120/4/2 129/4/2
f 129/4/2 121/4/2 130/4/2
f 121/1/2 122/1/2 131/1/2
f 130/4/2 121/4/2 131/4/2
f 122/4/2 123/4/2 132/4/2
f 131/1/2 122/1/2 132/1/2
f 123/1/2 124/1/2 133/1/2
f 132/4/2 123/4/2 133/4/2
f 124/4/2 125/4/2 134/4/2
f 133/1/2 124/1/2 134/1/2
f 126/4/2 127/4/2 134/4/2
f 125/4/2 126/4/2 134/4/2
f 127/3/2 128/3/2 135/3/2
f 134/4/2 127/4/2 135/4/2
f 128/4/2 86/4/2 136/4/2
f 135/3/2 128/3/2 136/3/2
f 79/4/2 129/4/2 137/4/2
f 129/2/2 130/2/2 137/2/2
f 130/4/2 131/4/2 138/4/2
f 137/2/2 130/2/2 138/2/2
f 131/4/2 132/4/2 138/4/2
f 132/1/2 133/1/2 139/1/2
f 138/4/2 132/4/2 139/4/2
f 134/4/2 135/4/2 140/4/2
f 139/1/2 133/1/2 140/1/2
f 133/4/2 134/4/2 140/4/2
f 135/4/2 136/4/2 140/4/2
f 137/4/2 138/4/2 141/4/2
f 138/4/2 139/4/2 141/4/2
f 139/4/2 140/4/2 141/4/2
f 79/4/2 137/4/2 141/4/2
f 141/4/2 140/4/2 142/4/2
f 140/4/2 136/4/2 143/4/2
f 142/4/2 140/4/2 143/4/2
f 136/4/2 86/4/2 144/4/2
f 143/4/2 136/4/2 144/4/2
f 141/2/2 142/2/2 145/2/2
f 79/4/2 141/4/2 145/4/2
f 142/4/2 143/4/2 146/4/2
f 145/2/2 142/2/2 146/2/2
f 143/2/2 144/2/2 147/2/2
f 146/4/2 143/4/2 147/4/2
f 144/4/2 86/4/2 148/4/2
f 147/2/2 144/2/2 148/2/2
f 77/5/2 79/5/2 149/5/2
f 146/4/2 147/4/2 149/4/2
f 147/4/2 148/4/2 149/4/2
f 145/4/2 146/4/2 149/4/2
f 79/4/2 145/4/2 149/4/2
f 148/4/2 86/4/2 150/4/2
f 149/4/2 148/4/2 150/4/2
f 86/5/2 78/5/2 150/5/2
f 77/5/2 149/5/2 151/5/2
f 149/5/2 150/5/2 151/5/2
f 150/5/2 78/5/2 152/5/2
f 151/5/2 150/5/2 152/5/2
f 155/5/3 154/5/3 153/5/3
f 156/5/3 154/5/3 155/5/3
f 157/5/4 158/5/4 159/5/4
f 159/5/4 158/5/4 160/5/4
f 163/5/5 162/5/5 161/5/5
f 164/5/5 162/5/5 163/5/5
f 165/5/6 166/5/6 167/5/6
f 167/5/6 166/5/6 168/5/6
