# MagicaVoxel @ Ephtracy

# group
o 

# material
mtllib spaceship_inside-12.mtl
usemtl palette

# normals
vn -1 0 0
vn 1 0 0
vn 0 0 1
vn 0 0 -1
vn 0 -1 0
vn 0 1 0

# texcoords
vt 0.705078 0.5
vt 0.716797 0.5
vt 0.841797 0.5
vt 0.947266 0.5
vt 0.958984 0.5

# verts
v -0.35 -0.75 0.2
v -0.35 -0.75 -0.2
v -0.35 -0.65 0.2
v -0.35 -0.65 -0.2
v -0.25 -0.65 0.1
v -0.25 -0.65 -0.1
v -0.25 -0.55 0.1
v -0.25 -0.55 -0.1
v -0.15 -0.55 0.1
v -0.15 -0.55 -0.1
v -0.15 -0.35 0.1
v -0.15 -0.35 -0.1
v -0.05 -0.35 0.1
v -0.05 -0.35 -0.1
v -0.05 -0.05 0.1
v -0.05 -0.05 -0.1
v 0.05 -0.05 0.1
v 0.05 -0.05 -0.1
v 0.05 0.25 0.1
v 0.05 0.25 -0.1
v 0.15 -0.05 0.7
v 0.15 -0.05 0.1
v 0.15 -0.05 -0.1
v 0.15 -0.05 -0.7
v 0.15 0.25 0.1
v 0.15 0.25 -0.1
v 0.15 0.65 0.7
v 0.15 0.65 -0.7
v 0.25 -0.15 0.8
v 0.25 -0.15 -0.8
v 0.25 -0.05 0.7
v 0.25 -0.05 -0.7
v 0.25 0.65 0.7
v 0.25 0.65 -0.7
v 0.25 0.75 0.8
v 0.25 0.75 -0.8
v 0.05 -0.65 0.1
v 0.05 -0.65 -0.1
v 0.05 -0.35 0.1
v 0.05 -0.35 -0.1
v 0.15 -0.75 0.2
v 0.15 -0.75 -0.2
v 0.15 -0.65 0.2
v 0.15 -0.65 -0.2
v 0.15 -0.35 0.1
v 0.15 -0.35 -0.1
v 0.15 -0.05 0.1
v 0.15 -0.05 -0.1
v 0.35 -0.15 0.8
v 0.35 -0.15 -0.8
v 0.35 -0.05 0.7
v 0.35 -0.05 -0.7
v 0.35 0.05 0.6
v 0.35 0.05 0
v 0.35 0.05 -0.3
v 0.35 0.05 -0.4
v 0.35 0.15 0.6
v 0.35 0.15 0
v 0.35 0.15 -0.5
v 0.35 0.15 -0.6
v 0.35 0.25 0.6
v 0.35 0.25 0.2
v 0.35 0.25 -0.5
v 0.35 0.25 -0.6
v 0.35 0.35 0.6
v 0.35 0.35 0.2
v 0.35 0.35 -0.5
v 0.35 0.35 -0.6
v 0.35 0.45 0.6
v 0.35 0.45 -0.1
v 0.35 0.45 -0.5
v 0.35 0.45 -0.6
v 0.35 0.55 0.6
v 0.35 0.55 -0.1
v 0.35 0.55 -0.3
v 0.35 0.55 -0.4
v 0.35 0.65 0.7
v 0.35 0.65 -0.7
v 0.35 0.75 0.8
v 0.35 0.75 -0.8
v 0.25 -0.15 0.8
v 0.25 0.75 0.8
v 0.35 -0.15 0.8
v 0.35 0.75 0.8
v 0.15 -0.05 0.7
v 0.15 0.65 0.7
v 0.25 -0.05 0.7
v 0.25 0.65 0.7
v -0.35 -0.75 0.2
v -0.35 -0.65 0.2
v 0.15 -0.75 0.2
v 0.15 -0.65 0.2
v -0.25 -0.65 0.1
v -0.25 -0.55 0.1
v -0.15 -0.55 0.1
v -0.15 -0.35 0.1
v -0.05 -0.35 0.1
v -0.05 -0.05 0.1
v 0.05 -0.65 0.1
v 0.05 -0.35 0.1
v 0.05 -0.05 0.1
v 0.05 0.25 0.1
v 0.15 -0.35 0.1
v 0.15 -0.05 0.1
v 0.15 0.25 0.1
v -0.25 -0.65 -0.1
v -0.25 -0.55 -0.1
v -0.15 -0.55 -0.1
v -0.15 -0.35 -0.1
v -0.05 -0.35 -0.1
v -0.05 -0.05 -0.1
v 0.05 -0.65 -0.1
v 0.05 -0.35 -0.1
v 0.05 -0.05 -0.1
v 0.05 0.25 -0.1
v 0.15 -0.35 -0.1
v 0.15 -0.05 -0.1
v 0.15 0.25 -0.1
v -0.35 -0.75 -0.2
v -0.35 -0.65 -0.2
v 0.15 -0.75 -0.2
v 0.15 -0.65 -0.2
v 0.15 -0.05 -0.7
v 0.15 0.65 -0.7
v 0.25 -0.05 -0.7
v 0.25 0.65 -0.7
v 0.25 -0.15 -0.8
v 0.25 0.75 -0.8
v 0.35 -0.15 -0.8
v 0.35 0.75 -0.8
v -0.35 -0.75 0.2
v 0.15 -0.75 0.2
v -0.35 -0.75 -0.2
v 0.15 -0.75 -0.2
v 0.05 -0.35 0.1
v 0.15 -0.35 0.1
v 0.05 -0.35 -0.1
v 0.15 -0.35 -0.1
v 0.25 -0.15 0.8
v 0.35 -0.15 0.8
v 0.25 -0.15 -0.8
v 0.35 -0.15 -0.8
v 0.15 -0.05 0.7
v 0.25 -0.05 0.7
v 0.15 -0.05 0.1
v 0.15 -0.05 -0.1
v 0.15 -0.05 -0.7
v 0.25 -0.05 -0.7
v -0.35 -0.65 0.2
v 0.15 -0.65 0.2
v -0.25 -0.65 0.1
v 0.05 -0.65 0.1
v -0.25 -0.65 -0.1
v 0.05 -0.65 -0.1
v -0.35 -0.65 -0.2
v 0.15 -0.65 -0.2
v -0.25 -0.55 0.1
v -0.15 -0.55 0.1
v -0.25 -0.55 -0.1
v -0.15 -0.55 -0.1
v -0.15 -0.35 0.1
v -0.05 -0.35 0.1
v -0.15 -0.35 -0.1
v -0.05 -0.35 -0.1
v -0.05 -0.05 0.1
v 0.05 -0.05 0.1
v -0.05 -0.05 -0.1
v 0.05 -0.05 -0.1
v 0.05 0.25 0.1
v 0.15 0.25 0.1
v 0.05 0.25 -0.1
v 0.15 0.25 -0.1
v 0.15 0.65 0.7
v 0.25 0.65 0.7
v 0.15 0.65 -0.7
v 0.25 0.65 -0.7
v 0.25 0.75 0.8
v 0.35 0.75 0.8
v 0.25 0.75 -0.8
v 0.35 0.75 -0.8

# faces
f 3/5/1 2/5/1 1/5/1
f 4/5/1 2/5/1 3/5/1
f 7/5/1 6/5/1 5/5/1
f 8/5/1 6/5/1 7/5/1
f 11/5/1 10/5/1 9/5/1
f 12/5/1 10/5/1 11/5/1
f 15/5/1 14/5/1 13/5/1
f 16/5/1 14/5/1 15/5/1
f 19/5/1 18/5/1 17/5/1
f 20/5/1 18/5/1 19/5/1
f 25/5/1 22/5/1 21/5/1
f 26/5/1 24/5/1 23/5/1
f 27/5/1 25/5/1 21/5/1
f 27/5/1 26/5/1 25/5/1
f 28/5/1 24/5/1 26/5/1
f 28/5/1 26/5/1 27/5/1
f 31/5/1 30/5/1 29/5/1
f 32/5/1 30/5/1 31/5/1
f 33/5/1 31/5/1 29/5/1
f 34/5/1 30/5/1 32/5/1
f 35/5/1 33/5/1 29/5/1
f 35/5/1 34/5/1 33/5/1
f 36/5/1 30/5/1 34/5/1
f 36/5/1 34/5/1 35/5/1
f 37/5/2 38/5/2 39/5/2
f 39/5/2 38/5/2 40/5/2
f 41/5/2 42/5/2 43/5/2
f 43/5/2 42/5/2 44/5/2
f 45/5/2 46/5/2 47/5/2
f 47/5/2 46/5/2 48/5/2
f 49/5/2 50/5/2 51/5/2
f 51/5/2 50/5/2 52/5/2
f 51/4/2 52/4/2 53/4/2
f 53/4/2 52/4/2 54/4/2
f 54/4/2 52/4/2 55/4/2
f 55/4/2 52/4/2 56/4/2
f 51/4/2 53/4/2 57/4/2
f 53/1/2 54/1/2 57/1/2
f 54/4/2 55/4/2 58/4/2
f 57/1/2 54/1/2 58/1/2
f 56/4/2 52/4/2 59/4/2
f 59/4/2 52/4/2 60/4/2
f 51/4/2 57/4/2 61/4/2
f 57/4/2 58/4/2 61/4/2
f 61/4/2 58/4/2 62/4/2
f 59/1/2 60/1/2 63/1/2
f 56/4/2 59/4/2 63/4/2
f 60/4/2 52/4/2 64/4/2
f 63/1/2 60/1/2 64/1/2
f 61/2/2 62/2/2 65/2/2
f 51/4/2 61/4/2 65/4/2
f 62/4/2 58/4/2 66/4/2
f 65/2/2 62/2/2 66/2/2
f 56/4/2 63/4/2 67/4/2
f 63/3/2 64/3/2 67/3/2
f 64/4/2 52/4/2 68/4/2
f 67/3/2 64/3/2 68/3/2
f 51/4/2 65/4/2 69/4/2
f 65/4/2 66/4/2 69/4/2
f 58/4/2 55/4/2 70/4/2
f 69/4/2 66/4/2 70/4/2
f 66/4/2 58/4/2 70/4/2
f 67/1/2 68/1/2 71/1/2
f 56/4/2 67/4/2 71/4/2
f 68/4/2 52/4/2 72/4/2
f 71/1/2 68/1/2 72/1/2
f 51/4/2 69/4/2 73/4/2
f 69/1/2 70/1/2 73/1/2
f 70/4/2 55/4/2 74/4/2
f 73/1/2 70/1/2 74/1/2
f 55/1/2 56/1/2 75/1/2
f 74/4/2 55/4/2 75/4/2
f 56/4/2 71/4/2 76/4/2
f 75/1/2 56/1/2 76/1/2
f 71/4/2 72/4/2 76/4/2
f 49/5/2 51/5/2 77/5/2
f 73/4/2 74/4/2 77/4/2
f 75/4/2 76/4/2 77/4/2
f 74/4/2 75/4/2 77/4/2
f 51/4/2 73/4/2 77/4/2
f 76/4/2 72/4/2 78/4/2
f 77/4/2 76/4/2 78/4/2
f 52/5/2 50/5/2 78/5/2
f 72/4/2 52/4/2 78/4/2
f 49/5/2 77/5/2 79/5/2
f 77/5/2 78/5/2 79/5/2
f 78/5/2 50/5/2 80/5/2
f 79/5/2 78/5/2 80/5/2
f 83/5/3 82/5/3 81/5/3
f 84/5/3 82/5/3 83/5/3
f 87/5/3 86/5/3 85/5/3
f 88/5/3 86/5/3 87/5/3
f 91/5/3 90/5/3 89/5/3
f 92/5/3 90/5/3 91/5/3
f 95/5/3 94/5/3 93/5/3
f 97/5/3 96/5/3 95/5/3
f 99/5/3 95/5/3 93/5/3
f 99/5/3 98/5/3 97/5/3
f 99/5/3 97/5/3 95/5/3
f 100/5/3 98/5/3 99/5/3
f 101/5/3 98/5/3 100/5/3
f 103/5/3 102/5/3 101/5/3
f 103/5/3 101/5/3 100/5/3
f 104/5/3 102/5/3 103/5/3
f 105/5/3 102/5/3 104/5/3
f 106/5/4 107/5/4 108/5/4
f 108/5/4 109/5/4 110/5/4
f 106/5/4 108/5/4 112/5/4
f 110/5/4 111/5/4 112/5/4
f 108/5/4 110/5/4 112/5/4
f 112/5/4 111/5/4 113/5/4
f 113/5/4 111/5/4 114/5/4
f 114/5/4 115/5/4 116/5/4
f 113/5/4 114/5/4 116/5/4
f 116/5/4 115/5/4 117/5/4
f 117/5/4 115/5/4 118/5/4
f 119/5/4 120/5/4 121/5/4
f 121/5/4 120/5/4 122/5/4
f 123/5/4 124/5/4 125/5/4
f 125/5/4 124/5/4 126/5/4
f 127/5/4 128/5/4 129/5/4
f 129/5/4 128/5/4 130/5/4
f 133/5/5 132/5/5 131/5/5
f 134/5/5 132/5/5 133/5/5
f 137/5/5 136/5/5 135/5/5
f 138/5/5 136/5/5 137/5/5
f 141/5/5 140/5/5 139/5/5
f 142/5/5 140/5/5 141/5/5
f 145/5/5 144/5/5 143/5/5
f 146/5/5 144/5/5 145/5/5
f 147/5/5 144/5/5 146/5/5
f 148/5/5 144/5/5 147/5/5
f 149/5/6 150/5/6 151/5/6
f 151/5/6 150/5/6 152/5/6
f 149/5/6 151/5/6 153/5/6
f 152/5/6 150/5/6 154/5/6
f 149/5/6 153/5/6 155/5/6
f 153/5/6 154/5/6 155/5/6
f 154/5/6 150/5/6 156/5/6
f 155/5/6 154/5/6 156/5/6
f 157/5/6 158/5/6 159/5/6
f 159/5/6 158/5/6 160/5/6
f 161/5/6 162/5/6 163/5/6
f 163/5/6 162/5/6 164/5/6
f 165/5/6 166/5/6 167/5/6
f 167/5/6 166/5/6 168/5/6
f 169/5/6 170/5/6 171/5/6
f 171/5/6 170/5/6 172/5/6
f 173/5/6 174/5/6 175/5/6
f 175/5/6 174/5/6 176/5/6
f 177/5/6 178/5/6 179/5/6
f 179/5/6 178/5/6 180/5/6
