# MagicaVoxel @ Ephtracy

# group
o 

# material
mtllib spaceship_inside-24.mtl
usemtl palette

# normals
vn -1 0 0
vn 1 0 0
vn 0 0 1
vn 0 0 -1
vn 0 -1 0
vn 0 1 0

# texcoords
vt 0.880859 0.5
vt 0.884766 0.5
vt 0.888672 0.5
vt 0.892578 0.5

# verts
v -0.9 -0.1 0.9
v -0.9 -0.1 0.7
v -0.9 -0.1 0.6
v -0.9 -0.1 0.5
v -0.9 -0.1 0.4
v -0.9 -0.1 0.3
v -0.9 -0.1 0.2
v -0.9 -0.1 0.1
v -0.9 -0.1 -0.1
v -0.9 -0.1 -0.3
v -0.9 -0.1 -0.6
v -0.9 -0.1 -0.7
v -0.9 -0.1 -0.9
v -0.9 0 0.9
v -0.9 0 0.7
v -0.9 0 0.6
v -0.9 0 0.5
v -0.9 0 0.4
v -0.9 0 0.3
v -0.9 0 0.2
v -0.9 0 0.1
v -0.9 0 -0.1
v -0.9 0 -0.3
v -0.9 0 -0.6
v -0.9 0 -0.7
v -0.9 0 -0.9
v -0.8 0 0.8
v -0.8 0 0.7
v -0.8 0 0.6
v -0.8 0 0.5
v -0.8 0 0.4
v -0.8 0 0.3
v -0.8 0 0.2
v -0.8 0 0.1
v -0.8 0 0
v -0.8 0 -0.1
v -0.8 0 -0.2
v -0.8 0 -0.3
v -0.8 0 -0.4
v -0.8 0 -0.5
v -0.8 0 -0.6
v -0.8 0 -0.7
v -0.8 0 -0.8
v -0.8 0.1 0.8
v -0.8 0.1 0.7
v -0.8 0.1 0.4
v -0.8 0.1 0.2
v -0.8 0.1 0.1
v -0.8 0.1 0
v -0.8 0.1 -0.1
v -0.8 0.1 -0.2
v -0.8 0.1 -0.4
v -0.8 0.1 -0.5
v -0.8 0.1 -0.6
v -0.8 0.1 -0.7
v -0.8 0.1 -0.8
v 0.8 0 0.8
v 0.8 0 0.7
v 0.8 0 0.6
v 0.8 0 0.5
v 0.8 0 0.3
v 0.8 0 0.2
v 0.8 0 0.1
v 0.8 0 -0.2
v 0.8 0 -0.3
v 0.8 0 -0.4
v 0.8 0 -0.5
v 0.8 0 -0.6
v 0.8 0 -0.7
v 0.8 0 -0.8
v 0.8 0.1 0.8
v 0.8 0.1 0.7
v 0.8 0.1 0.6
v 0.8 0.1 0.5
v 0.8 0.1 0.3
v 0.8 0.1 0.2
v 0.8 0.1 0.1
v 0.8 0.1 -0.2
v 0.8 0.1 -0.3
v 0.8 0.1 -0.4
v 0.8 0.1 -0.5
v 0.8 0.1 -0.6
v 0.8 0.1 -0.7
v 0.8 0.1 -0.8
v 0.9 -0.1 0.9
v 0.9 -0.1 0.7
v 0.9 -0.1 0.5
v 0.9 -0.1 0.3
v 0.9 -0.1 -0.2
v 0.9 -0.1 -0.4
v 0.9 -0.1 -0.5
v 0.9 -0.1 -0.6
v 0.9 -0.1 -0.7
v 0.9 -0.1 -0.8
v 0.9 -0.1 -0.9
v 0.9 0 0.9
v 0.9 0 0.7
v 0.9 0 0.5
v 0.9 0 0.3
v 0.9 0 -0.2
v 0.9 0 -0.4
v 0.9 0 -0.5
v 0.9 0 -0.6
v 0.9 0 -0.7
v 0.9 0 -0.8
v 0.9 0 -0.9
v -0.9 -0.1 0.9
v -0.9 0 0.9
v -0.7 -0.1 0.9
v -0.7 0 0.9
v -0.6 -0.1 0.9
v -0.6 0 0.9
v -0.5 -0.1 0.9
v -0.5 0 0.9
v -0.4 -0.1 0.9
v -0.4 0 0.9
v -0.3 -0.1 0.9
v -0.3 0 0.9
v -0.1 -0.1 0.9
v -0.1 0 0.9
v 0 -0.1 0.9
v 0 0 0.9
v 0.1 -0.1 0.9
v 0.1 0 0.9
v 0.2 -0.1 0.9
v 0.2 0 0.9
v 0.3 -0.1 0.9
v 0.3 0 0.9
v 0.4 -0.1 0.9
v 0.4 0 0.9
v 0.5 -0.1 0.9
v 0.5 0 0.9
v 0.6 -0.1 0.9
v 0.6 0 0.9
v 0.7 -0.1 0.9
v 0.7 0 0.9
v 0.9 -0.1 0.9
v 0.9 0 0.9
v -0.8 0 0.8
v -0.8 0.1 0.8
v -0.7 0 0.8
v -0.7 0.1 0.8
v -0.6 0 0.8
v -0.6 0.1 0.8
v -0.5 0 0.8
v -0.5 0.1 0.8
v -0.4 0 0.8
v -0.4 0.1 0.8
v -0.3 0 0.8
v -0.3 0.1 0.8
v -0.2 0 0.8
v -0.2 0.1 0.8
v -0.1 0 0.8
v -0.1 0.1 0.8
v 0 0 0.8
v 0 0.1 0.8
v 0.1 0 0.8
v 0.2 0 0.8
v 0.3 0 0.8
v 0.3 0.1 0.8
v 0.4 0 0.8
v 0.5 0 0.8
v 0.5 0.1 0.8
v 0.6 0 0.8
v 0.7 0 0.8
v 0.7 0.1 0.8
v 0.8 0 0.8
v 0.8 0.1 0.8
v -0.8 0 -0.8
v -0.8 0.1 -0.8
v -0.7 0 -0.8
v -0.7 0.1 -0.8
v -0.6 0 -0.8
v -0.6 0.1 -0.8
v -0.5 0 -0.8
v -0.5 0.1 -0.8
v -0.3 0 -0.8
v -0.1 0 -0.8
v 0 0 -0.8
v 0 0.1 -0.8
v 0.1 0 -0.8
v 0.1 0.1 -0.8
v 0.2 0 -0.8
v 0.2 0.1 -0.8
v 0.3 0 -0.8
v 0.3 0.1 -0.8
v 0.4 0 -0.8
v 0.4 0.1 -0.8
v 0.5 0 -0.8
v 0.5 0.1 -0.8
v 0.6 0 -0.8
v 0.6 0.1 -0.8
v 0.7 0 -0.8
v 0.7 0.1 -0.8
v 0.8 0 -0.8
v 0.8 0.1 -0.8
v -0.9 -0.1 -0.9
v -0.9 0 -0.9
v -0.8 -0.1 -0.9
v -0.8 0 -0.9
v -0.7 -0.1 -0.9
v -0.7 0 -0.9
v -0.6 -0.1 -0.9
v -0.6 0 -0.9
v -0.5 -0.1 -0.9
v -0.5 0 -0.9
v -0.3 -0.1 -0.9
v -0.3 0 -0.9
v -0.1 -0.1 -0.9
v -0.1 0 -0.9
v 0.1 -0.1 -0.9
v 0.1 0 -0.9
v 0.3 -0.1 -0.9
v 0.3 0 -0.9
v 0.4 -0.1 -0.9
v 0.4 0 -0.9
v 0.5 -0.1 -0.9
v 0.5 0 -0.9
v 0.6 -0.1 -0.9
v 0.6 0 -0.9
v 0.7 -0.1 -0.9
v 0.7 0 -0.9
v 0.8 -0.1 -0.9
v 0.8 0 -0.9
v 0.9 -0.1 -0.9
v 0.9 0 -0.9
v -0.9 -0.1 0.9
v -0.7 -0.1 0.9
v -0.6 -0.1 0.9
v -0.5 -0.1 0.9
v -0.4 -0.1 0.9
v -0.3 -0.1 0.9
v -0.1 -0.1 0.9
v 0 -0.1 0.9
v 0.1 -0.1 0.9
v 0.2 -0.1 0.9
v 0.3 -0.1 0.9
v 0.4 -0.1 0.9
v 0.5 -0.1 0.9
v 0.6 -0.1 0.9
v 0.7 -0.1 0.9
v 0.9 -0.1 0.9
v -0.8 -0.1 0.8
v -0.7 -0.1 0.8
v -0.6 -0.1 0.8
v -0.5 -0.1 0.8
v -0.4 -0.1 0.8
v -0.3 -0.1 0.8
v -0.2 -0.1 0.8
v -0.1 -0.1 0.8
v 0 -0.1 0.8
v 0.1 -0.1 0.8
v 0.2 -0.1 0.8
v 0.3 -0.1 0.8
v 0.4 -0.1 0.8
v 0.5 -0.1 0.8
v 0.6 -0.1 0.8
v 0.7 -0.1 0.8
v -0.9 -0.1 0.7
v -0.8 -0.1 0.7
v -0.7 -0.1 0.7
v -0.6 -0.1 0.7
v -0.5 -0.1 0.7
v -0.3 -0.1 0.7
v -0.2 -0.1 0.7
v -0.1 -0.1 0.7
v 0 -0.1 0.7
v 0.1 -0.1 0.7
v 0.2 -0.1 0.7
v 0.3 -0.1 0.7
v 0.4 -0.1 0.7
v 0.5 -0.1 0.7
v 0.6 -0.1 0.7
v 0.7 -0.1 0.7
v 0.9 -0.1 0.7
v -0.9 -0.1 0.6
v -0.7 -0.1 0.6
v -0.6 -0.1 0.6
v -0.5 -0.1 0.6
v -0.4 -0.1 0.6
v -0.3 -0.1 0.6
v -0.1 -0.1 0.6
v 0 -0.1 0.6
v 0.1 -0.1 0.6
v 0.2 -0.1 0.6
v 0.3 -0.1 0.6
v 0.4 -0.1 0.6
v 0.5 -0.1 0.6
v 0.6 -0.1 0.6
v 0.7 -0.1 0.6
v 0.8 -0.1 0.6
v -0.9 -0.1 0.5
v -0.8 -0.1 0.5
v -0.7 -0.1 0.5
v -0.4 -0.1 0.5
v -0.3 -0.1 0.5
v -0.2 -0.1 0.5
v -0.1 -0.1 0.5
v 0 -0.1 0.5
v 0.1 -0.1 0.5
v 0.2 -0.1 0.5
v 0.3 -0.1 0.5
v 0.4 -0.1 0.5
v 0.5 -0.1 0.5
v 0.6 -0.1 0.5
v 0.7 -0.1 0.5
v 0.8 -0.1 0.5
v 0.9 -0.1 0.5
v -0.9 -0.1 0.4
v -0.8 -0.1 0.4
v -0.7 -0.1 0.4
v -0.6 -0.1 0.4
v -0.5 -0.1 0.4
v -0.4 -0.1 0.4
v -0.3 -0.1 0.4
v -0.2 -0.1 0.4
v -0.1 -0.1 0.4
v 0 -0.1 0.4
v 0.1 -0.1 0.4
v 0.2 -0.1 0.4
v 0.3 -0.1 0.4
v 0.4 -0.1 0.4
v 0.5 -0.1 0.4
v 0.6 -0.1 0.4
v 0.7 -0.1 0.4
v -0.9 -0.1 0.3
v -0.8 -0.1 0.3
v -0.7 -0.1 0.3
v -0.6 -0.1 0.3
v -0.5 -0.1 0.3
v -0.4 -0.1 0.3
v -0.3 -0.1 0.3
v -0.2 -0.1 0.3
v -0.1 -0.1 0.3
v 0.1 -0.1 0.3
v 0.2 -0.1 0.3
v 0.3 -0.1 0.3
v 0.4 -0.1 0.3
v 0.5 -0.1 0.3
v 0.8 -0.1 0.3
v 0.9 -0.1 0.3
v -0.9 -0.1 0.2
v -0.8 -0.1 0.2
v -0.5 -0.1 0.2
v -0.4 -0.1 0.2
v -0.3 -0.1 0.2
v -0.2 -0.1 0.2
v -0.1 -0.1 0.2
v 0 -0.1 0.2
v 0.1 -0.1 0.2
v 0.4 -0.1 0.2
v 0.5 -0.1 0.2
v 0.6 -0.1 0.2
v 0.8 -0.1 0.2
v -0.9 -0.1 0.1
v -0.7 -0.1 0.1
v -0.6 -0.1 0.1
v -0.5 -0.1 0.1
v -0.4 -0.1 0.1
v -0.3 -0.1 0.1
v -0.2 -0.1 0.1
v -0.1 -0.1 0.1
v 0 -0.1 0.1
v 0.1 -0.1 0.1
v 0.2 -0.1 0.1
v 0.3 -0.1 0.1
v 0.4 -0.1 0.1
v 0.5 -0.1 0.1
v 0.6 -0.1 0.1
v 0.7 -0.1 0.1
v 0.8 -0.1 0.1
v -0.8 -0.1 0
v -0.7 -0.1 0
v -0.6 -0.1 0
v -0.5 -0.1 0
v -0.3 -0.1 0
v -0.2 -0.1 0
v -0.1 -0.1 0
v 0.1 -0.1 0
v 0.2 -0.1 0
v 0.3 -0.1 0
v 0.4 -0.1 0
v 0.5 -0.1 0
v 0.6 -0.1 0
v 0.7 -0.1 0
v 0.8 -0.1 0
v -0.9 -0.1 -0.1
v -0.8 -0.1 -0.1
v -0.7 -0.1 -0.1
v -0.6 -0.1 -0.1
v -0.5 -0.1 -0.1
v -0.4 -0.1 -0.1
v -0.3 -0.1 -0.1
v -0.2 -0.1 -0.1
v -0.1 -0.1 -0.1
v 0 -0.1 -0.1
v 0.1 -0.1 -0.1
v 0.2 -0.1 -0.1
v 0.3 -0.1 -0.1
v 0.4 -0.1 -0.1
v 0.5 -0.1 -0.1
v 0.6 -0.1 -0.1
v 0.7 -0.1 -0.1
v 0.8 -0.1 -0.1
v -0.7 -0.1 -0.2
v -0.6 -0.1 -0.2
v -0.5 -0.1 -0.2
v -0.4 -0.1 -0.2
v -0.3 -0.1 -0.2
v -0.2 -0.1 -0.2
v -0.1 -0.1 -0.2
v 0 -0.1 -0.2
v 0.1 -0.1 -0.2
v 0.2 -0.1 -0.2
v 0.3 -0.1 -0.2
v 0.4 -0.1 -0.2
v 0.5 -0.1 -0.2
v 0.7 -0.1 -0.2
v 0.8 -0.1 -0.2
v 0.9 -0.1 -0.2
v -0.9 -0.1 -0.3
v -0.8 -0.1 -0.3
v -0.7 -0.1 -0.3
v -0.6 -0.1 -0.3
v -0.5 -0.1 -0.3
v -0.3 -0.1 -0.3
v -0.2 -0.1 -0.3
v -0.1 -0.1 -0.3
v 0 -0.1 -0.3
v 0.1 -0.1 -0.3
v 0.2 -0.1 -0.3
v 0.3 -0.1 -0.3
v 0.4 -0.1 -0.3
v 0.5 -0.1 -0.3
v 0.6 -0.1 -0.3
v 0.7 -0.1 -0.3
v 0.8 -0.1 -0.3
v -0.8 -0.1 -0.4
v -0.7 -0.1 -0.4
v -0.6 -0.1 -0.4
v -0.5 -0.1 -0.4
v -0.4 -0.1 -0.4
v -0.3 -0.1 -0.4
v 0.1 -0.1 -0.4
v 0.2 -0.1 -0.4
v 0.3 -0.1 -0.4
v 0.4 -0.1 -0.4
v 0.5 -0.1 -0.4
v 0.6 -0.1 -0.4
v 0.7 -0.1 -0.4
v 0.8 -0.1 -0.4
v 0.9 -0.1 -0.4
v -0.8 -0.1 -0.5
v -0.7 -0.1 -0.5
v -0.6 -0.1 -0.5
v -0.5 -0.1 -0.5
v -0.4 -0.1 -0.5
v -0.3 -0.1 -0.5
v -0.2 -0.1 -0.5
v -0.1 -0.1 -0.5
v 0 -0.1 -0.5
v 0.1 -0.1 -0.5
v 0.2 -0.1 -0.5
v 0.3 -0.1 -0.5
v 0.4 -0.1 -0.5
v 0.5 -0.1 -0.5
v 0.6 -0.1 -0.5
v 0.7 -0.1 -0.5
v 0.8 -0.1 -0.5
v 0.9 -0.1 -0.5
v -0.9 -0.1 -0.6
v -0.8 -0.1 -0.6
v -0.7 -0.1 -0.6
v -0.6 -0.1 -0.6
v -0.5 -0.1 -0.6
v -0.4 -0.1 -0.6
v -0.3 -0.1 -0.6
v -0.2 -0.1 -0.6
v -0.1 -0.1 -0.6
v 0 -0.1 -0.6
v 0.1 -0.1 -0.6
v 0.2 -0.1 -0.6
v 0.3 -0.1 -0.6
v 0.4 -0.1 -0.6
v 0.5 -0.1 -0.6
v 0.6 -0.1 -0.6
v 0.7 -0.1 -0.6
v 0.9 -0.1 -0.6
v -0.9 -0.1 -0.7
v -0.8 -0.1 -0.7
v -0.7 -0.1 -0.7
v -0.6 -0.1 -0.7
v -0.5 -0.1 -0.7
v -0.4 -0.1 -0.7
v -0.3 -0.1 -0.7
v -0.1 -0.1 -0.7
v 0 -0.1 -0.7
v 0.1 -0.1 -0.7
v 0.2 -0.1 -0.7
v 0.3 -0.1 -0.7
v 0.5 -0.1 -0.7
v 0.6 -0.1 -0.7
v 0.7 -0.1 -0.7
v 0.9 -0.1 -0.7
v -0.8 -0.1 -0.8
v -0.7 -0.1 -0.8
v -0.6 -0.1 -0.8
v -0.5 -0.1 -0.8
v -0.4 -0.1 -0.8
v -0.3 -0.1 -0.8
v -0.1 -0.1 -0.8
v 0 -0.1 -0.8
v 0.1 -0.1 -0.8
v 0.3 -0.1 -0.8
v 0.4 -0.1 -0.8
v 0.5 -0.1 -0.8
v 0.6 -0.1 -0.8
v 0.7 -0.1 -0.8
v 0.8 -0.1 -0.8
v 0.9 -0.1 -0.8
v -0.9 -0.1 -0.9
v -0.8 -0.1 -0.9
v -0.7 -0.1 -0.9
v -0.6 -0.1 -0.9
v -0.5 -0.1 -0.9
v -0.3 -0.1 -0.9
v -0.1 -0.1 -0.9
v 0.1 -0.1 -0.9
v 0.3 -0.1 -0.9
v 0.4 -0.1 -0.9
v 0.5 -0.1 -0.9
v 0.6 -0.1 -0.9
v 0.7 -0.1 -0.9
v 0.8 -0.1 -0.9
v 0.9 -0.1 -0.9
v -0.9 0 0.9
v -0.7 0 0.9
v -0.6 0 0.9
v -0.5 0 0.9
v -0.4 0 0.9
v -0.3 0 0.9
v -0.1 0 0.9
v 0 0 0.9
v 0.1 0 0.9
v 0.2 0 0.9
v 0.3 0 0.9
v 0.4 0 0.9
v 0.5 0 0.9
v 0.6 0 0.9
v 0.7 0 0.9
v 0.9 0 0.9
v -0.8 0 0.8
v -0.7 0 0.8
v -0.6 0 0.8
v -0.5 0 0.8
v -0.4 0 0.8
v -0.3 0 0.8
v -0.2 0 0.8
v -0.1 0 0.8
v 0 0 0.8
v 0.1 0 0.8
v 0.2 0 0.8
v 0.3 0 0.8
v 0.4 0 0.8
v 0.5 0 0.8
v 0.6 0 0.8
v 0.7 0 0.8
v 0.8 0 0.8
v -0.9 0 0.7
v -0.8 0 0.7
v 0.8 0 0.7
v 0.9 0 0.7
v -0.9 0 0.6
v -0.8 0 0.6
v 0.8 0 0.6
v -0.9 0 0.5
v -0.8 0 0.5
v 0.8 0 0.5
v 0.9 0 0.5
v -0.9 0 0.4
v -0.8 0 0.4
v -0.9 0 0.3
v -0.8 0 0.3
v 0.8 0 0.3
v 0.9 0 0.3
v -0.9 0 0.2
v -0.8 0 0.2
v 0.8 0 0.2
v -0.9 0 0.1
v -0.8 0 0.1
v 0.8 0 0.1
v -0.8 0 0
v -0.9 0 -0.1
v -0.8 0 -0.1
v -0.8 0 -0.2
v 0.8 0 -0.2
v 0.9 0 -0.2
v -0.9 0 -0.3
v -0.8 0 -0.3
v 0.8 0 -0.3
v -0.8 0 -0.4
v 0.8 0 -0.4
v 0.9 0 -0.4
v -0.8 0 -0.5
v 0.8 0 -0.5
v 0.9 0 -0.5
v -0.9 0 -0.6
v -0.8 0 -0.6
v 0.8 0 -0.6
v 0.9 0 -0.6
v -0.9 0 -0.7
v -0.8 0 -0.7
v 0.8 0 -0.7
v 0.9 0 -0.7
v -0.8 0 -0.8
v -0.7 0 -0.8
v -0.6 0 -0.8
v -0.5 0 -0.8
v -0.3 0 -0.8
v -0.1 0 -0.8
v 0 0 -0.8
v 0.1 0 -0.8
v 0.2 0 -0.8
v 0.3 0 -0.8
v 0.4 0 -0.8
v 0.5 0 -0.8
v 0.6 0 -0.8
v 0.7 0 -0.8
v 0.8 0 -0.8
v 0.9 0 -0.8
v -0.9 0 -0.9
v -0.8 0 -0.9
v -0.7 0 -0.9
v -0.6 0 -0.9
v -0.5 0 -0.9
v -0.3 0 -0.9
v -0.1 0 -0.9
v 0.1 0 -0.9
v 0.3 0 -0.9
v 0.4 0 -0.9
v 0.5 0 -0.9
v 0.6 0 -0.9
v 0.7 0 -0.9
v 0.8 0 -0.9
v 0.9 0 -0.9
v -0.8 0.1 0.8
v -0.7 0.1 0.8
v -0.6 0.1 0.8
v -0.5 0.1 0.8
v -0.4 0.1 0.8
v -0.3 0.1 0.8
v -0.2 0.1 0.8
v -0.1 0.1 0.8
v 0 0.1 0.8
v 0.3 0.1 0.8
v 0.5 0.1 0.8
v 0.7 0.1 0.8
v 0.8 0.1 0.8
v -0.8 0.1 0.7
v -0.7 0.1 0.7
v -0.6 0.1 0.7
v -0.5 0.1 0.7
v -0.4 0.1 0.7
v -0.3 0.1 0.7
v -0.2 0.1 0.7
v 0 0.1 0.7
v 0.1 0.1 0.7
v 0.2 0.1 0.7
v 0.3 0.1 0.7
v 0.4 0.1 0.7
v 0.5 0.1 0.7
v 0.6 0.1 0.7
v 0.7 0.1 0.7
v 0.8 0.1 0.7
v -0.7 0.1 0.6
v -0.6 0.1 0.6
v -0.5 0.1 0.6
v -0.4 0.1 0.6
v -0.3 0.1 0.6
v -0.2 0.1 0.6
v -0.1 0.1 0.6
v 0.1 0.1 0.6
v 0.2 0.1 0.6
v 0.4 0.1 0.6
v 0.5 0.1 0.6
v 0.6 0.1 0.6
v 0.7 0.1 0.6
v 0.8 0.1 0.6
v -0.7 0.1 0.5
v -0.6 0.1 0.5
v -0.5 0.1 0.5
v -0.4 0.1 0.5
v -0.3 0.1 0.5
v -0.2 0.1 0.5
v -0.1 0.1 0.5
v 0 0.1 0.5
v 0.1 0.1 0.5
v 0.2 0.1 0.5
v 0.3 0.1 0.5
v 0.4 0.1 0.5
v 0.5 0.1 0.5
v 0.6 0.1 0.5
v 0.8 0.1 0.5
v -0.8 0.1 0.4
v -0.7 0.1 0.4
v -0.6 0.1 0.4
v -0.5 0.1 0.4
v -0.3 0.1 0.4
v -0.2 0.1 0.4
v -0.1 0.1 0.4
v 0 0.1 0.4
v 0.1 0.1 0.4
v 0.2 0.1 0.4
v 0.3 0.1 0.4
v 0.4 0.1 0.4
v 0.5 0.1 0.4
v 0.6 0.1 0.4
v 0.7 0.1 0.4
v -0.7 0.1 0.3
v -0.6 0.1 0.3
v -0.5 0.1 0.3
v -0.3 0.1 0.3
v -0.2 0.1 0.3
v -0.1 0.1 0.3
v 0.1 0.1 0.3
v 0.2 0.1 0.3
v 0.3 0.1 0.3
v 0.4 0.1 0.3
v 0.5 0.1 0.3
v 0.6 0.1 0.3
v 0.7 0.1 0.3
v 0.8 0.1 0.3
v -0.8 0.1 0.2
v -0.7 0.1 0.2
v -0.6 0.1 0.2
v -0.5 0.1 0.2
v -0.4 0.1 0.2
v -0.3 0.1 0.2
v -0.2 0.1 0.2
v -0.1 0.1 0.2
v 0 0.1 0.2
v 0.1 0.1 0.2
v 0.4 0.1 0.2
v 0.5 0.1 0.2
v 0.6 0.1 0.2
v 0.7 0.1 0.2
v 0.8 0.1 0.2
v -0.8 0.1 0.1
v -0.7 0.1 0.1
v -0.6 0.1 0.1
v -0.5 0.1 0.1
v -0.4 0.1 0.1
v -0.3 0.1 0.1
v -0.2 0.1 0.1
v -0.1 0.1 0.1
v 0 0.1 0.1
v 0.1 0.1 0.1
v 0.2 0.1 0.1
v 0.4 0.1 0.1
v 0.5 0.1 0.1
v 0.8 0.1 0.1
v -0.8 0.1 0
v -0.7 0.1 0
v -0.6 0.1 0
v -0.5 0.1 0
v -0.4 0.1 0
v -0.3 0.1 0
v -0.1 0.1 0
v 0 0.1 0
v 0.2 0.1 0
v 0.3 0.1 0
v 0.4 0.1 0
v 0.5 0.1 0
v 0.7 0.1 0
v -0.8 0.1 -0.1
v -0.7 0.1 -0.1
v -0.6 0.1 -0.1
v -0.5 0.1 -0.1
v -0.4 0.1 -0.1
v -0.2 0.1 -0.1
v -0.1 0.1 -0.1
v 0 0.1 -0.1
v 0.1 0.1 -0.1
v 0.2 0.1 -0.1
v 0.3 0.1 -0.1
v 0.4 0.1 -0.1
v 0.5 0.1 -0.1
v 0.6 0.1 -0.1
v 0.7 0.1 -0.1
v -0.8 0.1 -0.2
v -0.7 0.1 -0.2
v -0.6 0.1 -0.2
v -0.5 0.1 -0.2
v -0.4 0.1 -0.2
v -0.3 0.1 -0.2
v -0.2 0.1 -0.2
v -0.1 0.1 -0.2
v 0 0.1 -0.2
v 0.1 0.1 -0.2
v 0.2 0.1 -0.2
v 0.4 0.1 -0.2
v 0.5 0.1 -0.2
v 0.6 0.1 -0.2
v 0.7 0.1 -0.2
v 0.8 0.1 -0.2
v -0.7 0.1 -0.3
v -0.6 0.1 -0.3
v -0.5 0.1 -0.3
v -0.4 0.1 -0.3
v -0.3 0.1 -0.3
v -0.2 0.1 -0.3
v -0.1 0.1 -0.3
v 0 0.1 -0.3
v 0.1 0.1 -0.3
v 0.2 0.1 -0.3
v 0.3 0.1 -0.3
v 0.4 0.1 -0.3
v 0.5 0.1 -0.3
v 0.6 0.1 -0.3
v 0.7 0.1 -0.3
v 0.8 0.1 -0.3
v -0.8 0.1 -0.4
v -0.6 0.1 -0.4
v -0.5 0.1 -0.4
v -0.4 0.1 -0.4
v -0.3 0.1 -0.4
v -0.1 0.1 -0.4
v 0 0.1 -0.4
v 0.1 0.1 -0.4
v 0.2 0.1 -0.4
v 0.3 0.1 -0.4
v 0.4 0.1 -0.4
v 0.5 0.1 -0.4
v 0.6 0.1 -0.4
v 0.7 0.1 -0.4
v 0.8 0.1 -0.4
v -0.8 0.1 -0.5
v -0.6 0.1 -0.5
v -0.5 0.1 -0.5
v -0.4 0.1 -0.5
v -0.3 0.1 -0.5
v -0.1 0.1 -0.5
v 0 0.1 -0.5
v 0.1 0.1 -0.5
v 0.2 0.1 -0.5
v 0.4 0.1 -0.5
v 0.5 0.1 -0.5
v 0.6 0.1 -0.5
v 0.7 0.1 -0.5
v 0.8 0.1 -0.5
v -0.8 0.1 -0.6
v -0.6 0.1 -0.6
v -0.5 0.1 -0.6
v -0.3 0.1 -0.6
v -0.2 0.1 -0.6
v -0.1 0.1 -0.6
v 0 0.1 -0.6
v 0.2 0.1 -0.6
v 0.3 0.1 -0.6
v 0.4 0.1 -0.6
v 0.5 0.1 -0.6
v 0.6 0.1 -0.6
v 0.7 0.1 -0.6
v 0.8 0.1 -0.6
v -0.8 0.1 -0.7
v -0.7 0.1 -0.7
v -0.6 0.1 -0.7
v -0.5 0.1 -0.7
v -0.3 0.1 -0.7
v -0.2 0.1 -0.7
v -0.1 0.1 -0.7
v 0 0.1 -0.7
v 0.1 0.1 -0.7
v 0.2 0.1 -0.7
v 0.3 0.1 -0.7
v 0.4 0.1 -0.7
v 0.5 0.1 -0.7
v 0.6 0.1 -0.7
v 0.7 0.1 -0.7
v 0.8 0.1 -0.7
v -0.8 0.1 -0.8
v -0.7 0.1 -0.8
v -0.6 0.1 -0.8
v -0.5 0.1 -0.8
v 0 0.1 -0.8
v 0.1 0.1 -0.8
v 0.2 0.1 -0.8
v 0.3 0.1 -0.8
v 0.4 0.1 -0.8
v 0.5 0.1 -0.8
v 0.6 0.1 -0.8
v 0.7 0.1 -0.8
v 0.8 0.1 -0.8

# faces
f 14/2/1 2/2/1 1/2/1
f 15/3/1 3/3/1 2/3/1
f 15/2/1 2/2/1 14/2/1
f 16/4/1 4/4/1 3/4/1
f 16/3/1 3/3/1 15/3/1
f 17/2/1 5/2/1 4/2/1
f 17/4/1 4/4/1 16/4/1
f 18/1/1 6/1/1 5/1/1
f 18/2/1 5/2/1 17/2/1
f 19/4/1 7/4/1 6/4/1
f 19/1/1 6/1/1 18/1/1
f 20/1/1 8/1/1 7/1/1
f 20/4/1 7/4/1 19/4/1
f 21/4/1 9/4/1 8/4/1
f 21/1/1 8/1/1 20/1/1
f 22/3/1 10/3/1 9/3/1
f 22/4/1 9/4/1 21/4/1
f 23/1/1 11/1/1 10/1/1
f 23/3/1 10/3/1 22/3/1
f 24/3/1 12/3/1 11/3/1
f 24/1/1 11/1/1 23/1/1
f 25/4/1 13/4/1 12/4/1
f 25/3/1 12/3/1 24/3/1
f 26/4/1 13/4/1 25/4/1
f 44/2/1 28/2/1 27/2/1
f 45/1/1 29/1/1 28/1/1
f 45/2/1 28/2/1 44/2/1
f 45/1/1 30/1/1 29/1/1
f 45/1/1 31/1/1 30/1/1
f 46/3/1 32/3/1 31/3/1
f 46/1/1 31/1/1 45/1/1
f 46/3/1 33/3/1 32/3/1
f 47/4/1 34/4/1 33/4/1
f 47/3/1 33/3/1 46/3/1
f 48/1/1 35/1/1 34/1/1
f 48/4/1 34/4/1 47/4/1
f 49/2/1 36/2/1 35/2/1
f 49/1/1 35/1/1 48/1/1
f 50/1/1 37/1/1 36/1/1
f 50/2/1 36/2/1 49/2/1
f 51/3/1 38/3/1 37/3/1
f 51/1/1 37/1/1 50/1/1
f 51/3/1 39/3/1 38/3/1
f 52/2/1 40/2/1 39/2/1
f 52/3/1 39/3/1 51/3/1
f 53/1/1 41/1/1 40/1/1
f 53/2/1 40/2/1 52/2/1
f 54/4/1 42/4/1 41/4/1
f 54/1/1 41/1/1 53/1/1
f 55/3/1 43/3/1 42/3/1
f 55/4/1 42/4/1 54/4/1
f 56/3/1 43/3/1 55/3/1
f 57/4/2 58/4/2 71/4/2
f 58/3/2 59/3/2 72/3/2
f 71/4/2 58/4/2 72/4/2
f 59/2/2 60/2/2 73/2/2
f 72/3/2 59/3/2 73/3/2
f 60/1/2 61/1/2 74/1/2
f 73/2/2 60/2/2 74/2/2
f 61/4/2 62/4/2 75/4/2
f 74/1/2 61/1/2 75/1/2
f 62/3/2 63/3/2 76/3/2
f 75/4/2 62/4/2 76/4/2
f 63/2/2 64/2/2 77/2/2
f 76/3/2 63/3/2 77/3/2
f 64/1/2 65/1/2 78/1/2
f 77/2/2 64/2/2 78/2/2
f 65/4/2 66/4/2 79/4/2
f 78/1/2 65/1/2 79/1/2
f 66/2/2 67/2/2 80/2/2
f 79/4/2 66/4/2 80/4/2
f 67/1/2 68/1/2 81/1/2
f 80/2/2 67/2/2 81/2/2
f 68/3/2 69/3/2 82/3/2
f 81/1/2 68/1/2 82/1/2
f 69/4/2 70/4/2 83/4/2
f 82/3/2 69/3/2 83/3/2
f 83/4/2 70/4/2 84/4/2
f 85/4/2 86/4/2 96/4/2
f 86/3/2 87/3/2 97/3/2
f 96/4/2 86/4/2 97/4/2
f 87/1/2 88/1/2 98/1/2
f 97/3/2 87/3/2 98/3/2
f 88/3/2 89/3/2 99/3/2
f 98/1/2 88/1/2 99/1/2
f 89/4/2 90/4/2 100/4/2
f 99/3/2 89/3/2 100/3/2
f 90/2/2 91/2/2 101/2/2
f 100/4/2 90/4/2 101/4/2
f 91/3/2 92/3/2 102/3/2
f 101/2/2 91/2/2 102/2/2
f 92/2/2 93/2/2 103/2/2
f 102/3/2 92/3/2 103/3/2
f 93/1/2 94/1/2 104/1/2
f 103/2/2 93/2/2 104/2/2
f 94/4/2 95/4/2 105/4/2
f 104/1/2 94/1/2 105/1/2
f 105/4/2 95/4/2 106/4/2
f 109/2/3 108/2/3 107/2/3
f 110/2/3 108/2/3 109/2/3
f 111/3/3 110/3/3 109/3/3
f 112/3/3 110/3/3 111/3/3
f 113/4/3 112/4/3 111/4/3
f 114/4/3 112/4/3 113/4/3
f 115/1/3 114/1/3 113/1/3
f 116/1/3 114/1/3 115/1/3
f 117/4/3 116/4/3 115/4/3
f 118/4/3 116/4/3 117/4/3
f 119/1/3 118/1/3 117/1/3
f 120/1/3 118/1/3 119/1/3
f 121/2/3 120/2/3 119/2/3
f 122/2/3 120/2/3 121/2/3
f 123/3/3 122/3/3 121/3/3
f 124/3/3 122/3/3 123/3/3
f 125/1/3 124/1/3 123/1/3
f 126/1/3 124/1/3 125/1/3
f 127/2/3 126/2/3 125/2/3
f 128/2/3 126/2/3 127/2/3
f 129/3/3 128/3/3 127/3/3
f 130/3/3 128/3/3 129/3/3
f 131/4/3 130/4/3 129/4/3
f 132/4/3 130/4/3 131/4/3
f 133/2/3 132/2/3 131/2/3
f 134/2/3 132/2/3 133/2/3
f 135/3/3 134/3/3 133/3/3
f 136/3/3 134/3/3 135/3/3
f 137/4/3 136/4/3 135/4/3
f 138/4/3 136/4/3 137/4/3
f 141/2/3 140/2/3 139/2/3
f 142/2/3 140/2/3 141/2/3
f 143/4/3 142/4/3 141/4/3
f 144/4/3 142/4/3 143/4/3
f 145/3/3 144/3/3 143/3/3
f 146/3/3 144/3/3 145/3/3
f 147/4/3 146/4/3 145/4/3
f 148/4/3 146/4/3 147/4/3
f 149/2/3 148/2/3 147/2/3
f 150/2/3 148/2/3 149/2/3
f 151/1/3 150/1/3 149/1/3
f 152/1/3 150/1/3 151/1/3
f 153/2/3 152/2/3 151/2/3
f 154/2/3 152/2/3 153/2/3
f 155/1/3 154/1/3 153/1/3
f 156/1/3 154/1/3 155/1/3
f 157/4/3 156/4/3 155/4/3
f 158/4/3 156/4/3 157/4/3
f 159/4/3 156/4/3 158/4/3
f 160/4/3 156/4/3 159/4/3
f 161/2/3 160/2/3 159/2/3
f 162/2/3 160/2/3 161/2/3
f 163/2/3 160/2/3 162/2/3
f 164/3/3 163/3/3 162/3/3
f 165/3/3 163/3/3 164/3/3
f 166/3/3 163/3/3 165/3/3
f 167/4/3 166/4/3 165/4/3
f 168/4/3 166/4/3 167/4/3
f 169/3/4 170/3/4 171/3/4
f 171/3/4 170/3/4 172/3/4
f 171/4/4 172/4/4 173/4/4
f 173/4/4 172/4/4 174/4/4
f 173/3/4 174/3/4 175/3/4
f 175/3/4 174/3/4 176/3/4
f 175/4/4 176/4/4 177/4/4
f 177/4/4 176/4/4 178/4/4
f 178/4/4 176/4/4 179/4/4
f 179/4/4 176/4/4 180/4/4
f 179/3/4 180/3/4 181/3/4
f 181/3/4 180/3/4 182/3/4
f 181/1/4 182/1/4 183/1/4
f 183/1/4 182/1/4 184/1/4
f 183/4/4 184/4/4 185/4/4
f 185/4/4 184/4/4 186/4/4
f 185/1/4 186/1/4 187/1/4
f 187/1/4 186/1/4 188/1/4
f 187/3/4 188/3/4 189/3/4
f 189/3/4 188/3/4 190/3/4
f 189/4/4 190/4/4 191/4/4
f 191/4/4 190/4/4 192/4/4
f 191/3/4 192/3/4 193/3/4
f 193/3/4 192/3/4 194/3/4
f 193/4/4 194/4/4 195/4/4
f 195/4/4 194/4/4 196/4/4
f 197/4/4 198/4/4 199/4/4
f 199/4/4 198/4/4 200/4/4
f 199/2/4 200/2/4 201/2/4
f 201/2/4 200/2/4 202/2/4
f 201/3/4 202/3/4 203/3/4
f 203/3/4 202/3/4 204/3/4
f 203/2/4 204/2/4 205/2/4
f 205/2/4 204/2/4 206/2/4
f 205/4/4 206/4/4 207/4/4
f 207/4/4 206/4/4 208/4/4
f 207/1/4 208/1/4 209/1/4
f 209/1/4 208/1/4 210/1/4
f 209/2/4 210/2/4 211/2/4
f 211/2/4 210/2/4 212/2/4
f 211/4/4 212/4/4 213/4/4
f 213/4/4 212/4/4 214/4/4
f 213/2/4 214/2/4 215/2/4
f 215/2/4 214/2/4 216/2/4
f 215/4/4 216/4/4 217/4/4
f 217/4/4 216/4/4 218/4/4
f 217/3/4 218/3/4 219/3/4
f 219/3/4 218/3/4 220/3/4
f 219/2/4 220/2/4 221/2/4
f 221/2/4 220/2/4 222/2/4
f 221/3/4 222/3/4 223/3/4
f 223/3/4 222/3/4 224/3/4
f 223/4/4 224/4/4 225/4/4
f 225/4/4 224/4/4 226/4/4
f 243/2/5 228/2/5 227/2/5
f 244/3/5 229/3/5 228/3/5
f 244/2/5 228/2/5 243/2/5
f 245/4/5 230/4/5 229/4/5
f 245/3/5 229/3/5 244/3/5
f 246/1/5 231/1/5 230/1/5
f 246/4/5 230/4/5 245/4/5
f 247/4/5 232/4/5 231/4/5
f 247/1/5 231/1/5 246/1/5
f 248/1/5 233/1/5 232/1/5
f 248/4/5 232/4/5 247/4/5
f 249/1/5 233/1/5 248/1/5
f 250/2/5 234/2/5 233/2/5
f 250/1/5 233/1/5 249/1/5
f 251/3/5 235/3/5 234/3/5
f 251/2/5 234/2/5 250/2/5
f 252/1/5 236/1/5 235/1/5
f 252/3/5 235/3/5 251/3/5
f 253/2/5 237/2/5 236/2/5
f 253/1/5 236/1/5 252/1/5
f 254/3/5 238/3/5 237/3/5
f 254/2/5 237/2/5 253/2/5
f 255/4/5 239/4/5 238/4/5
f 255/3/5 238/3/5 254/3/5
f 256/2/5 240/2/5 239/2/5
f 256/4/5 239/4/5 255/4/5
f 257/3/5 241/3/5 240/3/5
f 257/2/5 240/2/5 256/2/5
f 258/4/5 242/4/5 241/4/5
f 258/3/5 241/3/5 257/3/5
f 259/2/5 243/2/5 227/2/5
f 260/3/5 244/3/5 243/3/5
f 260/2/5 243/2/5 259/2/5
f 261/4/5 245/4/5 244/4/5
f 261/3/5 244/3/5 260/3/5
f 262/1/5 246/1/5 245/1/5
f 262/4/5 245/4/5 261/4/5
f 262/1/5 247/1/5 246/1/5
f 262/1/5 249/1/5 248/1/5
f 262/1/5 248/1/5 247/1/5
f 263/1/5 249/1/5 262/1/5
f 264/1/5 249/1/5 263/1/5
f 265/4/5 250/4/5 249/4/5
f 265/1/5 249/1/5 264/1/5
f 266/2/5 251/2/5 250/2/5
f 266/4/5 250/4/5 265/4/5
f 267/4/5 252/4/5 251/4/5
f 267/2/5 251/2/5 266/2/5
f 268/2/5 253/2/5 252/2/5
f 268/4/5 252/4/5 267/4/5
f 269/3/5 254/3/5 253/3/5
f 269/2/5 253/2/5 268/2/5
f 269/3/5 255/3/5 254/3/5
f 270/3/5 255/3/5 269/3/5
f 271/1/5 257/1/5 256/1/5
f 271/3/5 255/3/5 270/3/5
f 271/1/5 258/1/5 257/1/5
f 271/1/5 256/1/5 255/1/5
f 272/1/5 258/1/5 271/1/5
f 273/1/5 258/1/5 272/1/5
f 274/4/5 242/4/5 258/4/5
f 274/1/5 258/1/5 273/1/5
f 275/4/5 242/4/5 274/4/5
f 276/3/5 260/3/5 259/3/5
f 276/3/5 261/3/5 260/3/5
f 277/1/5 262/1/5 261/1/5
f 277/3/5 261/3/5 276/3/5
f 278/3/5 263/3/5 262/3/5
f 278/1/5 262/1/5 277/1/5
f 279/1/5 264/1/5 263/1/5
f 279/3/5 263/3/5 278/3/5
f 280/1/5 264/1/5 279/1/5
f 281/4/5 265/4/5 264/4/5
f 281/1/5 264/1/5 280/1/5
f 282/1/5 266/1/5 265/1/5
f 282/4/5 267/4/5 266/4/5
f 283/2/5 268/2/5 267/2/5
f 283/4/5 267/4/5 282/4/5
f 284/4/5 269/4/5 268/4/5
f 284/2/5 268/2/5 283/2/5
f 285/3/5 270/3/5 269/3/5
f 285/4/5 269/4/5 284/4/5
f 286/4/5 271/4/5 270/4/5
f 286/3/5 270/3/5 285/3/5
f 287/2/5 272/2/5 271/2/5
f 287/4/5 271/4/5 286/4/5
f 288/1/5 273/1/5 272/1/5
f 288/2/5 272/2/5 287/2/5
f 289/2/5 274/2/5 273/2/5
f 289/1/5 273/1/5 288/1/5
f 290/3/5 275/3/5 274/3/5
f 290/2/5 274/2/5 289/2/5
f 291/3/5 275/3/5 290/3/5
f 292/4/5 277/4/5 276/4/5
f 293/4/5 277/4/5 292/4/5
f 294/3/5 278/3/5 277/3/5
f 294/4/5 277/4/5 293/4/5
f 295/4/5 280/4/5 279/4/5
f 295/3/5 281/3/5 280/3/5
f 295/4/5 279/4/5 278/4/5
f 296/4/5 265/4/5 281/4/5
f 296/3/5 281/3/5 295/3/5
f 297/1/5 282/1/5 265/1/5
f 297/4/5 265/4/5 296/4/5
f 298/2/5 283/2/5 282/2/5
f 298/1/5 282/1/5 297/1/5
f 299/4/5 284/4/5 283/4/5
f 299/2/5 283/2/5 298/2/5
f 300/1/5 285/1/5 284/1/5
f 300/4/5 284/4/5 299/4/5
f 301/2/5 287/2/5 286/2/5
f 301/1/5 285/1/5 300/1/5
f 301/2/5 286/2/5 285/2/5
f 302/2/5 287/2/5 301/2/5
f 303/3/5 288/3/5 287/3/5
f 303/2/5 287/2/5 302/2/5
f 304/1/5 289/1/5 288/1/5
f 304/3/5 288/3/5 303/3/5
f 304/1/5 290/1/5 289/1/5
f 305/1/5 290/1/5 304/1/5
f 306/4/5 291/4/5 290/4/5
f 306/1/5 290/1/5 305/1/5
f 307/3/5 275/3/5 291/3/5
f 307/4/5 291/4/5 306/4/5
f 308/3/5 275/3/5 307/3/5
f 309/2/5 293/2/5 292/2/5
f 310/1/5 294/1/5 293/1/5
f 310/2/5 293/2/5 309/2/5
f 311/3/5 278/3/5 294/3/5
f 311/1/5 294/1/5 310/1/5
f 312/4/5 295/4/5 278/4/5
f 312/3/5 278/3/5 311/3/5
f 313/4/5 295/4/5 312/4/5
f 314/2/5 297/2/5 296/2/5
f 314/4/5 295/4/5 313/4/5
f 314/2/5 296/2/5 295/2/5
f 315/2/5 297/2/5 314/2/5
f 316/1/5 298/1/5 297/1/5
f 316/2/5 297/2/5 315/2/5
f 317/3/5 299/3/5 298/3/5
f 317/1/5 298/1/5 316/1/5
f 318/2/5 300/2/5 299/2/5
f 318/3/5 299/3/5 317/3/5
f 319/3/5 301/3/5 300/3/5
f 319/2/5 300/2/5 318/2/5
f 320/1/5 302/1/5 301/1/5
f 320/3/5 301/3/5 319/3/5
f 321/4/5 303/4/5 302/4/5
f 321/1/5 302/1/5 320/1/5
f 322/2/5 304/2/5 303/2/5
f 322/4/5 303/4/5 321/4/5
f 323/1/5 305/1/5 304/1/5
f 323/2/5 304/2/5 322/2/5
f 324/3/5 306/3/5 305/3/5
f 324/1/5 305/1/5 323/1/5
f 325/4/5 307/4/5 306/4/5
f 325/3/5 306/3/5 324/3/5
f 326/1/5 313/1/5 312/1/5
f 326/1/5 310/1/5 309/1/5
f 326/1/5 311/1/5 310/1/5
f 326/1/5 312/1/5 311/1/5
f 327/1/5 313/1/5 326/1/5
f 328/1/5 313/1/5 327/1/5
f 329/1/5 313/1/5 328/1/5
f 330/4/5 314/4/5 313/4/5
f 330/1/5 313/1/5 329/1/5
f 331/3/5 315/3/5 314/3/5
f 331/4/5 314/4/5 330/4/5
f 332/1/5 317/1/5 316/1/5
f 332/3/5 315/3/5 331/3/5
f 332/1/5 316/1/5 315/1/5
f 333/1/5 317/1/5 332/1/5
f 334/4/5 318/4/5 317/4/5
f 334/1/5 317/1/5 333/1/5
f 335/4/5 320/4/5 319/4/5
f 335/1/5 319/1/5 318/1/5
f 336/3/5 321/3/5 320/3/5
f 336/4/5 320/4/5 335/4/5
f 337/4/5 322/4/5 321/4/5
f 337/3/5 321/3/5 336/3/5
f 338/3/5 323/3/5 322/3/5
f 338/4/5 322/4/5 337/4/5
f 339/2/5 324/2/5 323/2/5
f 339/3/5 323/3/5 338/3/5
f 340/4/5 307/4/5 325/4/5
f 340/4/5 325/4/5 324/4/5
f 340/1/5 308/1/5 307/1/5
f 341/1/5 308/1/5 340/1/5
f 342/4/5 327/4/5 326/4/5
f 343/1/5 328/1/5 327/1/5
f 343/4/5 327/4/5 342/4/5
f 344/1/5 330/1/5 329/1/5
f 344/2/5 331/2/5 330/2/5
f 345/4/5 332/4/5 331/4/5
f 345/2/5 331/2/5 344/2/5
f 346/1/5 333/1/5 332/1/5
f 346/4/5 332/4/5 345/4/5
f 347/3/5 334/3/5 333/3/5
f 347/1/5 333/1/5 346/1/5
f 348/4/5 318/4/5 334/4/5
f 348/3/5 334/3/5 347/3/5
f 349/1/5 335/1/5 318/1/5
f 349/4/5 318/4/5 348/4/5
f 350/3/5 336/3/5 335/3/5
f 350/1/5 335/1/5 349/1/5
f 351/1/5 339/1/5 338/1/5
f 351/2/5 338/2/5 337/2/5
f 352/2/5 324/2/5 339/2/5
f 352/1/5 339/1/5 351/1/5
f 353/4/5 340/4/5 324/4/5
f 353/2/5 324/2/5 352/2/5
f 354/3/5 341/3/5 340/3/5
f 354/4/5 340/4/5 353/4/5
f 355/1/5 343/1/5 342/1/5
f 356/1/5 328/1/5 343/1/5
f 356/1/5 343/1/5 355/1/5
f 356/3/5 329/3/5 328/3/5
f 357/1/5 344/1/5 329/1/5
f 357/3/5 329/3/5 356/3/5
f 358/4/5 345/4/5 344/4/5
f 358/1/5 344/1/5 357/1/5
f 359/2/5 346/2/5 345/2/5
f 359/4/5 345/4/5 358/4/5
f 360/1/5 347/1/5 346/1/5
f 360/2/5 346/2/5 359/2/5
f 361/2/5 349/2/5 348/2/5
f 361/1/5 347/1/5 360/1/5
f 361/2/5 348/2/5 347/2/5
f 361/2/5 350/2/5 349/2/5
f 362/2/5 350/2/5 361/2/5
f 363/2/5 350/2/5 362/2/5
f 364/3/5 336/3/5 350/3/5
f 364/2/5 350/2/5 363/2/5
f 365/4/5 337/4/5 336/4/5
f 365/3/5 336/3/5 364/3/5
f 366/2/5 351/2/5 337/2/5
f 366/4/5 337/4/5 365/4/5
f 367/4/5 352/4/5 351/4/5
f 367/2/5 351/2/5 366/2/5
f 368/2/5 353/2/5 352/2/5
f 368/4/5 352/4/5 367/4/5
f 369/3/5 354/3/5 353/3/5
f 369/2/5 353/2/5 368/2/5
f 370/3/5 354/3/5 369/3/5
f 371/3/5 341/3/5 354/3/5
f 371/3/5 354/3/5 370/3/5
f 372/4/5 356/4/5 355/4/5
f 373/2/5 358/2/5 357/2/5
f 373/4/5 356/4/5 372/4/5
f 373/2/5 357/2/5 356/2/5
f 374/2/5 358/2/5 373/2/5
f 375/3/5 359/3/5 358/3/5
f 375/2/5 358/2/5 374/2/5
f 376/4/5 360/4/5 359/4/5
f 376/1/5 361/1/5 360/1/5
f 377/4/5 362/4/5 361/4/5
f 377/1/5 361/1/5 376/1/5
f 378/2/5 363/2/5 362/2/5
f 378/4/5 362/4/5 377/4/5
f 379/1/5 365/1/5 364/1/5
f 379/4/5 364/4/5 363/4/5
f 380/3/5 367/3/5 366/3/5
f 380/1/5 365/1/5 379/1/5
f 380/3/5 366/3/5 365/3/5
f 381/3/5 367/3/5 380/3/5
f 382/2/5 368/2/5 367/2/5
f 382/3/5 367/3/5 381/3/5
f 383/1/5 369/1/5 368/1/5
f 383/2/5 368/2/5 382/2/5
f 384/2/5 370/2/5 369/2/5
f 384/1/5 369/1/5 383/1/5
f 385/1/5 371/1/5 370/1/5
f 385/2/5 370/2/5 384/2/5
f 386/3/5 341/3/5 371/3/5
f 386/1/5 371/1/5 385/1/5
f 387/4/5 372/4/5 355/4/5
f 388/3/5 373/3/5 372/3/5
f 388/4/5 372/4/5 387/4/5
f 389/1/5 374/1/5 373/1/5
f 389/3/5 373/3/5 388/3/5
f 390/3/5 375/3/5 374/3/5
f 390/1/5 374/1/5 389/1/5
f 391/3/5 359/3/5 375/3/5
f 391/3/5 375/3/5 390/3/5
f 392/4/5 376/4/5 359/4/5
f 392/3/5 359/3/5 391/3/5
f 393/2/5 377/2/5 376/2/5
f 393/4/5 376/4/5 392/4/5
f 393/2/5 378/2/5 377/2/5
f 394/2/5 378/2/5 393/2/5
f 395/2/5 363/2/5 378/2/5
f 395/2/5 378/2/5 394/2/5
f 396/4/5 379/4/5 363/4/5
f 396/2/5 363/2/5 395/2/5
f 397/3/5 380/3/5 379/3/5
f 397/4/5 379/4/5 396/4/5
f 398/1/5 381/1/5 380/1/5
f 398/3/5 380/3/5 397/3/5
f 399/4/5 383/4/5 382/4/5
f 399/1/5 381/1/5 398/1/5
f 399/4/5 382/4/5 381/4/5
f 400/4/5 383/4/5 399/4/5
f 401/2/5 384/2/5 383/2/5
f 401/4/5 383/4/5 400/4/5
f 402/4/5 385/4/5 384/4/5
f 402/2/5 384/2/5 401/2/5
f 403/2/5 386/2/5 385/2/5
f 403/4/5 385/4/5 402/4/5
f 404/3/5 341/3/5 386/3/5
f 404/2/5 386/2/5 403/2/5
f 405/3/5 388/3/5 387/3/5
f 405/4/5 390/4/5 389/4/5
f 405/3/5 389/3/5 388/3/5
f 405/4/5 391/4/5 390/4/5
f 406/4/5 391/4/5 405/4/5
f 407/2/5 392/2/5 391/2/5
f 407/4/5 391/4/5 406/4/5
f 408/3/5 393/3/5 392/3/5
f 408/2/5 392/2/5 407/2/5
f 409/4/5 394/4/5 393/4/5
f 409/3/5 393/3/5 408/3/5
f 410/1/5 395/1/5 394/1/5
f 410/4/5 394/4/5 409/4/5
f 411/2/5 396/2/5 395/2/5
f 411/1/5 395/1/5 410/1/5
f 412/3/5 397/3/5 396/3/5
f 412/2/5 396/2/5 411/2/5
f 413/1/5 398/1/5 397/1/5
f 413/3/5 397/3/5 412/3/5
f 414/4/5 399/4/5 398/4/5
f 414/1/5 398/1/5 413/1/5
f 415/1/5 400/1/5 399/1/5
f 415/4/5 399/4/5 414/4/5
f 416/3/5 401/3/5 400/3/5
f 416/1/5 400/1/5 415/1/5
f 416/3/5 402/3/5 401/3/5
f 417/3/5 402/3/5 416/3/5
f 418/1/5 404/1/5 403/1/5
f 418/1/5 403/1/5 402/1/5
f 419/3/5 341/3/5 404/3/5
f 419/1/5 404/1/5 418/1/5
f 420/3/5 341/3/5 419/3/5
f 421/3/5 406/3/5 405/3/5
f 421/3/5 405/3/5 387/3/5
f 422/3/5 406/3/5 421/3/5
f 423/3/5 406/3/5 422/3/5
f 424/4/5 407/4/5 406/4/5
f 424/3/5 406/3/5 423/3/5
f 425/3/5 408/3/5 407/3/5
f 425/4/5 407/4/5 424/4/5
f 425/3/5 409/3/5 408/3/5
f 426/2/5 410/2/5 409/2/5
f 426/3/5 409/3/5 425/3/5
f 427/1/5 411/1/5 410/1/5
f 427/2/5 410/2/5 426/2/5
f 428/3/5 412/3/5 411/3/5
f 428/1/5 411/1/5 427/1/5
f 429/1/5 414/1/5 413/1/5
f 429/3/5 412/3/5 428/3/5
f 429/1/5 413/1/5 412/1/5
f 430/1/5 414/1/5 429/1/5
f 431/3/5 415/3/5 414/3/5
f 431/1/5 414/1/5 430/1/5
f 432/2/5 417/2/5 416/2/5
f 432/3/5 415/3/5 431/3/5
f 432/2/5 416/2/5 415/2/5
f 433/2/5 417/2/5 432/2/5
f 434/3/5 402/3/5 417/3/5
f 434/2/5 417/2/5 433/2/5
f 435/1/5 418/1/5 402/1/5
f 435/3/5 402/3/5 434/3/5
f 436/4/5 420/4/5 419/4/5
f 436/1/5 418/1/5 435/1/5
f 436/4/5 419/4/5 418/4/5
f 437/4/5 420/4/5 436/4/5
f 438/1/5 422/1/5 421/1/5
f 438/4/5 423/4/5 422/4/5
f 439/2/5 424/2/5 423/2/5
f 439/4/5 423/4/5 438/4/5
f 439/2/5 425/2/5 424/2/5
f 440/2/5 425/2/5 439/2/5
f 441/1/5 426/1/5 425/1/5
f 441/2/5 425/2/5 440/2/5
f 442/1/5 426/1/5 441/1/5
f 443/4/5 427/4/5 426/4/5
f 443/1/5 426/1/5 442/1/5
f 444/4/5 430/4/5 429/4/5
f 444/2/5 431/2/5 430/2/5
f 445/1/5 432/1/5 431/1/5
f 445/2/5 431/2/5 444/2/5
f 446/3/5 433/3/5 432/3/5
f 446/1/5 432/1/5 445/1/5
f 447/1/5 434/1/5 433/1/5
f 447/3/5 433/3/5 446/3/5
f 448/3/5 435/3/5 434/3/5
f 448/1/5 434/1/5 447/1/5
f 449/4/5 436/4/5 435/4/5
f 449/3/5 435/3/5 448/3/5
f 450/3/5 437/3/5 436/3/5
f 450/4/5 436/4/5 449/4/5
f 451/4/5 420/4/5 437/4/5
f 451/3/5 437/3/5 450/3/5
f 452/4/5 420/4/5 451/4/5
f 453/1/5 438/1/5 421/1/5
f 453/3/5 440/3/5 439/3/5
f 453/3/5 439/3/5 438/3/5
f 454/3/5 440/3/5 453/3/5
f 455/1/5 441/1/5 440/1/5
f 455/3/5 440/3/5 454/3/5
f 456/2/5 442/2/5 441/2/5
f 456/1/5 441/1/5 455/1/5
f 457/4/5 443/4/5 442/4/5
f 457/2/5 442/2/5 456/2/5
f 458/4/5 427/4/5 443/4/5
f 458/4/5 443/4/5 457/4/5
f 459/3/5 428/3/5 427/3/5
f 459/4/5 427/4/5 458/4/5
f 460/1/5 429/1/5 428/1/5
f 460/3/5 428/3/5 459/3/5
f 461/4/5 444/4/5 429/4/5
f 461/1/5 429/1/5 460/1/5
f 462/3/5 445/3/5 444/3/5
f 462/4/5 444/4/5 461/4/5
f 463/4/5 446/4/5 445/4/5
f 463/3/5 445/3/5 462/3/5
f 464/3/5 447/3/5 446/3/5
f 464/4/5 446/4/5 463/4/5
f 465/2/5 448/2/5 447/2/5
f 465/3/5 447/3/5 464/3/5
f 466/1/5 450/1/5 449/1/5
f 466/2/5 448/2/5 465/2/5
f 466/1/5 449/1/5 448/1/5
f 467/1/5 450/1/5 466/1/5
f 468/4/5 451/4/5 450/4/5
f 468/1/5 450/1/5 467/1/5
f 469/2/5 452/2/5 451/2/5
f 469/4/5 451/4/5 468/4/5
f 470/2/5 452/2/5 469/2/5
f 471/1/5 453/1/5 421/1/5
f 472/4/5 454/4/5 453/4/5
f 472/1/5 453/1/5 471/1/5
f 473/2/5 455/2/5 454/2/5
f 473/4/5 454/4/5 472/4/5
f 473/2/5 456/2/5 455/2/5
f 474/2/5 456/2/5 473/2/5
f 475/3/5 457/3/5 456/3/5
f 475/2/5 456/2/5 474/2/5
f 476/2/5 458/2/5 457/2/5
f 476/3/5 457/3/5 475/3/5
f 477/4/5 459/4/5 458/4/5
f 477/2/5 458/2/5 476/2/5
f 478/1/5 460/1/5 459/1/5
f 478/4/5 459/4/5 477/4/5
f 479/3/5 462/3/5 461/3/5
f 479/1/5 460/1/5 478/1/5
f 479/3/5 461/3/5 460/3/5
f 480/3/5 462/3/5 479/3/5
f 481/1/5 463/1/5 462/1/5
f 481/3/5 462/3/5 480/3/5
f 482/4/5 464/4/5 463/4/5
f 482/1/5 463/1/5 481/1/5
f 483/2/5 465/2/5 464/2/5
f 483/4/5 464/4/5 482/4/5
f 484/3/5 466/3/5 465/3/5
f 484/2/5 465/2/5 483/2/5
f 485/2/5 467/2/5 466/2/5
f 485/3/5 466/3/5 484/3/5
f 486/4/5 468/4/5 467/4/5
f 486/2/5 467/2/5 485/2/5
f 487/3/5 470/3/5 469/3/5
f 487/4/5 468/4/5 486/4/5
f 487/3/5 469/3/5 468/3/5
f 488/3/5 470/3/5 487/3/5
f 489/3/5 472/3/5 471/3/5
f 489/3/5 473/3/5 472/3/5
f 490/3/5 473/3/5 489/3/5
f 491/4/5 474/4/5 473/4/5
f 491/3/5 473/3/5 490/3/5
f 492/3/5 475/3/5 474/3/5
f 492/4/5 474/4/5 491/4/5
f 493/4/5 476/4/5 475/4/5
f 493/3/5 475/3/5 492/3/5
f 493/4/5 477/4/5 476/4/5
f 494/4/5 477/4/5 493/4/5
f 495/2/5 478/2/5 477/2/5
f 495/4/5 477/4/5 494/4/5
f 495/2/5 479/2/5 478/2/5
f 496/1/5 480/1/5 479/1/5
f 496/2/5 479/2/5 495/2/5
f 497/4/5 481/4/5 480/4/5
f 497/1/5 480/1/5 496/1/5
f 498/1/5 482/1/5 481/1/5
f 498/4/5 481/4/5 497/4/5
f 499/2/5 483/2/5 482/2/5
f 499/1/5 482/1/5 498/1/5
f 500/3/5 484/3/5 483/3/5
f 500/2/5 483/2/5 499/2/5
f 501/4/5 485/4/5 484/4/5
f 501/1/5 486/1/5 485/1/5
f 502/2/5 488/2/5 487/2/5
f 502/1/5 486/1/5 501/1/5
f 502/2/5 487/2/5 486/2/5
f 503/2/5 488/2/5 502/2/5
f 504/2/5 488/2/5 503/2/5
f 505/4/5 490/4/5 489/4/5
f 505/3/5 491/3/5 490/3/5
f 506/1/5 492/1/5 491/1/5
f 506/3/5 491/3/5 505/3/5
f 507/3/5 493/3/5 492/3/5
f 507/1/5 492/1/5 506/1/5
f 508/1/5 494/1/5 493/1/5
f 508/3/5 493/3/5 507/3/5
f 509/2/5 495/2/5 494/2/5
f 509/1/5 494/1/5 508/1/5
f 510/3/5 497/3/5 496/3/5
f 510/2/5 495/2/5 509/2/5
f 510/3/5 496/3/5 495/3/5
f 511/3/5 497/3/5 510/3/5
f 512/4/5 498/4/5 497/4/5
f 512/3/5 497/3/5 511/3/5
f 513/3/5 500/3/5 499/3/5
f 513/4/5 498/4/5 512/4/5
f 513/3/5 499/3/5 498/3/5
f 514/3/5 484/3/5 500/3/5
f 514/3/5 500/3/5 513/3/5
f 515/4/5 501/4/5 484/4/5
f 515/3/5 484/3/5 514/3/5
f 515/4/5 502/4/5 501/4/5
f 516/4/5 502/4/5 515/4/5
f 517/3/5 503/3/5 502/3/5
f 517/4/5 502/4/5 516/4/5
f 518/1/5 504/1/5 503/1/5
f 518/3/5 503/3/5 517/3/5
f 519/1/5 504/1/5 518/1/5
f 520/1/5 504/1/5 519/1/5
f 521/4/5 505/4/5 489/4/5
f 522/2/5 506/2/5 505/2/5
f 522/4/5 505/4/5 521/4/5
f 523/3/5 507/3/5 506/3/5
f 523/2/5 506/2/5 522/2/5
f 524/2/5 508/2/5 507/2/5
f 524/3/5 507/3/5 523/3/5
f 525/4/5 509/4/5 508/4/5
f 525/2/5 508/2/5 524/2/5
f 525/4/5 510/4/5 509/4/5
f 526/1/5 511/1/5 510/1/5
f 526/4/5 510/4/5 525/4/5
f 527/2/5 513/2/5 512/2/5
f 527/1/5 511/1/5 526/1/5
f 527/2/5 512/2/5 511/2/5
f 528/4/5 514/4/5 513/4/5
f 528/2/5 513/2/5 527/2/5
f 529/2/5 515/2/5 514/2/5
f 529/4/5 514/4/5 528/4/5
f 530/4/5 516/4/5 515/4/5
f 530/2/5 515/2/5 529/2/5
f 531/3/5 517/3/5 516/3/5
f 531/4/5 516/4/5 530/4/5
f 532/2/5 518/2/5 517/2/5
f 532/3/5 517/3/5 531/3/5
f 533/3/5 519/3/5 518/3/5
f 533/2/5 518/2/5 532/2/5
f 534/4/5 520/4/5 519/4/5
f 534/3/5 519/3/5 533/3/5
f 535/4/5 520/4/5 534/4/5
f 536/2/6 537/2/6 552/2/6
f 537/3/6 538/3/6 553/3/6
f 552/2/6 537/2/6 553/2/6
f 538/4/6 539/4/6 554/4/6
f 553/3/6 538/3/6 554/3/6
f 539/1/6 540/1/6 555/1/6
f 554/4/6 539/4/6 555/4/6
f 540/4/6 541/4/6 556/4/6
f 555/1/6 540/1/6 556/1/6
f 541/1/6 542/1/6 557/1/6
f 556/4/6 541/4/6 557/4/6
f 557/1/6 542/1/6 558/1/6
f 542/2/6 543/2/6 559/2/6
f 558/1/6 542/1/6 559/1/6
f 543/3/6 544/3/6 560/3/6
f 559/2/6 543/2/6 560/2/6
f 544/1/6 545/1/6 561/1/6
f 560/3/6 544/3/6 561/3/6
f 545/2/6 546/2/6 562/2/6
f 561/1/6 545/1/6 562/1/6
f 546/3/6 547/3/6 563/3/6
f 562/2/6 546/2/6 563/2/6
f 547/4/6 548/4/6 564/4/6
f 563/3/6 547/3/6 564/3/6
f 548/2/6 549/2/6 565/2/6
f 564/4/6 548/4/6 565/4/6
f 549/3/6 550/3/6 566/3/6
f 565/2/6 549/2/6 566/2/6
f 550/4/6 551/4/6 567/4/6
f 566/3/6 550/3/6 567/3/6
f 567/4/6 551/4/6 568/4/6
f 536/2/6 552/2/6 569/2/6
f 569/2/6 552/2/6 570/2/6
f 568/4/6 551/4/6 571/4/6
f 571/4/6 551/4/6 572/4/6
f 569/3/6 570/3/6 573/3/6
f 573/3/6 570/3/6 574/3/6
f 571/3/6 572/3/6 575/3/6
f 573/4/6 574/4/6 576/4/6
f 576/4/6 574/4/6 577/4/6
f 575/3/6 572/3/6 578/3/6
f 578/3/6 572/3/6 579/3/6
f 576/2/6 577/2/6 580/2/6
f 580/2/6 577/2/6 581/2/6
f 580/1/6 581/1/6 582/1/6
f 582/1/6 581/1/6 583/1/6
f 578/1/6 579/1/6 584/1/6
f 584/1/6 579/1/6 585/1/6
f 582/4/6 583/4/6 586/4/6
f 586/4/6 583/4/6 587/4/6
f 584/3/6 585/3/6 588/3/6
f 586/1/6 587/1/6 589/1/6
f 589/1/6 587/1/6 590/1/6
f 588/3/6 585/3/6 591/3/6
f 589/4/6 590/4/6 592/4/6
f 589/4/6 592/4/6 593/4/6
f 593/4/6 592/4/6 594/4/6
f 593/3/6 594/3/6 595/3/6
f 591/3/6 585/3/6 596/3/6
f 596/3/6 585/3/6 597/3/6
f 593/3/6 595/3/6 598/3/6
f 598/3/6 595/3/6 599/3/6
f 596/4/6 597/4/6 600/4/6
f 598/1/6 599/1/6 601/1/6
f 600/4/6 597/4/6 602/4/6
f 602/4/6 597/4/6 603/4/6
f 598/1/6 601/1/6 604/1/6
f 602/2/6 603/2/6 605/2/6
f 605/2/6 603/2/6 606/2/6
f 598/1/6 604/1/6 607/1/6
f 607/1/6 604/1/6 608/1/6
f 605/3/6 606/3/6 609/3/6
f 609/3/6 606/3/6 610/3/6
f 607/3/6 608/3/6 611/3/6
f 611/3/6 608/3/6 612/3/6
f 609/2/6 610/2/6 613/2/6
f 613/2/6 610/2/6 614/2/6
f 611/4/6 612/4/6 615/4/6
f 613/1/6 614/1/6 629/1/6
f 629/1/6 614/1/6 630/1/6
f 611/4/6 615/4/6 631/4/6
f 615/2/6 616/2/6 632/2/6
f 631/4/6 615/4/6 632/4/6
f 616/3/6 617/3/6 633/3/6
f 632/2/6 616/2/6 633/2/6
f 617/2/6 618/2/6 634/2/6
f 633/3/6 617/3/6 634/3/6
f 618/4/6 619/4/6 635/4/6
f 634/2/6 618/2/6 635/2/6
f 619/1/6 620/1/6 636/1/6
f 635/4/6 619/4/6 636/4/6
f 620/2/6 621/2/6 637/2/6
f 636/1/6 620/1/6 637/1/6
f 621/2/6 622/2/6 637/2/6
f 622/4/6 623/4/6 638/4/6
f 637/2/6 622/2/6 638/2/6
f 623/4/6 624/4/6 638/4/6
f 624/2/6 625/2/6 639/2/6
f 638/4/6 624/4/6 639/4/6
f 625/4/6 626/4/6 640/4/6
f 639/2/6 625/2/6 640/2/6
f 626/3/6 627/3/6 641/3/6
f 640/4/6 626/4/6 641/4/6
f 627/2/6 628/2/6 642/2/6
f 641/3/6 627/3/6 642/3/6
f 628/3/6 629/3/6 643/3/6
f 642/2/6 628/2/6 643/2/6
f 629/4/6 630/4/6 644/4/6
f 643/3/6 629/3/6 644/3/6
f 644/4/6 630/4/6 645/4/6
f 646/2/6 647/2/6 659/2/6
f 647/4/6 648/4/6 660/4/6
f 659/2/6 647/2/6 660/2/6
f 648/3/6 649/3/6 661/3/6
f 660/4/6 648/4/6 661/4/6
f 649/4/6 650/4/6 662/4/6
f 661/3/6 649/3/6 662/3/6
f 650/2/6 651/2/6 663/2/6
f 662/4/6 650/4/6 663/4/6
f 651/1/6 652/1/6 664/1/6
f 663/2/6 651/2/6 664/2/6
f 652/2/6 653/2/6 665/2/6
f 664/1/6 652/1/6 665/1/6
f 653/1/6 654/1/6 666/1/6
f 654/4/6 655/4/6 666/4/6
f 666/4/6 655/4/6 667/4/6
f 667/4/6 655/4/6 668/4/6
f 655/2/6 656/2/6 669/2/6
f 668/4/6 655/4/6 669/4/6
f 669/2/6 656/2/6 670/2/6
f 656/3/6 657/3/6 671/3/6
f 670/2/6 656/2/6 671/2/6
f 671/3/6 657/3/6 672/3/6
f 657/4/6 658/4/6 673/4/6
f 672/3/6 657/3/6 673/3/6
f 673/4/6 658/4/6 674/4/6
f 659/1/6 660/1/6 675/1/6
f 660/2/6 661/2/6 675/2/6
f 661/1/6 662/1/6 676/1/6
f 675/2/6 661/2/6 676/2/6
f 662/1/6 663/1/6 676/1/6
f 663/1/6 664/1/6 676/1/6
f 676/1/6 664/1/6 677/1/6
f 677/1/6 664/1/6 678/1/6
f 664/2/6 665/2/6 679/2/6
f 678/1/6 664/1/6 679/1/6
f 665/2/6 653/2/6 680/2/6
f 679/2/6 665/2/6 680/2/6
f 653/1/6 666/1/6 681/1/6
f 680/2/6 653/2/6 681/2/6
f 666/1/6 667/1/6 681/1/6
f 667/4/6 668/4/6 682/4/6
f 681/1/6 667/1/6 682/1/6
f 669/3/6 670/3/6 683/3/6
f 682/4/6 668/4/6 683/4/6
f 668/3/6 669/3/6 683/3/6
f 670/4/6 671/4/6 684/4/6
f 683/3/6 670/3/6 684/3/6
f 671/3/6 672/3/6 685/3/6
f 684/4/6 671/4/6 685/4/6
f 672/4/6 673/4/6 686/4/6
f 685/3/6 672/3/6 686/3/6
f 673/3/6 674/3/6 687/3/6
f 686/4/6 673/4/6 687/4/6
f 687/3/6 674/3/6 688/3/6
f 659/1/6 675/1/6 689/1/6
f 676/1/6 677/1/6 689/1/6
f 675/1/6 676/1/6 689/1/6
f 689/1/6 677/1/6 690/1/6
f 677/4/6 678/4/6 691/4/6
f 690/1/6 677/1/6 691/1/6
f 678/3/6 679/3/6 692/3/6
f 691/4/6 678/4/6 692/4/6
f 679/2/6 680/2/6 693/2/6
f 692/3/6 679/3/6 693/3/6
f 680/3/6 681/3/6 694/3/6
f 693/2/6 680/2/6 694/2/6
f 681/2/6 682/2/6 695/2/6
f 694/3/6 681/3/6 695/3/6
f 695/2/6 682/2/6 696/2/6
f 682/4/6 683/4/6 697/4/6
f 696/2/6 682/2/6 697/2/6
f 683/1/6 684/1/6 698/1/6
f 697/4/6 683/4/6 698/4/6
f 698/1/6 684/1/6 699/1/6
f 684/3/6 685/3/6 700/3/6
f 699/1/6 684/1/6 700/1/6
f 685/2/6 686/2/6 701/2/6
f 700/3/6 685/3/6 701/3/6
f 687/2/6 688/2/6 701/2/6
f 686/2/6 687/2/6 701/2/6
f 701/2/6 688/2/6 702/2/6
f 702/2/6 688/2/6 703/2/6
f 659/1/6 689/1/6 704/1/6
f 689/4/6 690/4/6 705/4/6
f 704/1/6 689/1/6 705/1/6
f 690/1/6 691/1/6 706/1/6
f 705/4/6 690/4/6 706/4/6
f 692/1/6 693/1/6 706/1/6
f 693/1/6 694/1/6 706/1/6
f 691/1/6 692/1/6 706/1/6
f 706/1/6 694/1/6 707/1/6
f 707/1/6 694/1/6 708/1/6
f 694/4/6 695/4/6 709/4/6
f 708/1/6 694/1/6 709/1/6
f 695/3/6 696/3/6 710/3/6
f 709/4/6 695/4/6 710/4/6
f 696/1/6 697/1/6 711/1/6
f 710/3/6 696/3/6 711/3/6
f 697/1/6 698/1/6 711/1/6
f 711/1/6 698/1/6 712/1/6
f 698/4/6 699/4/6 713/4/6
f 712/1/6 698/1/6 713/1/6
f 699/2/6 700/2/6 714/2/6
f 713/4/6 699/4/6 714/4/6
f 700/4/6 701/4/6 715/4/6
f 714/2/6 700/2/6 715/2/6
f 701/3/6 702/3/6 716/3/6
f 715/4/6 701/4/6 716/4/6
f 702/1/6 703/1/6 717/1/6
f 716/3/6 702/3/6 717/3/6
f 717/1/6 703/1/6 718/1/6
f 704/3/6 705/3/6 719/3/6
f 705/4/6 706/4/6 719/4/6
f 706/3/6 707/3/6 720/3/6
f 719/4/6 706/4/6 720/4/6
f 707/4/6 708/4/6 721/4/6
f 720/3/6 707/3/6 721/3/6
f 708/2/6 709/2/6 722/2/6
f 721/4/6 708/4/6 722/4/6
f 709/3/6 710/3/6 723/3/6
f 722/2/6 709/2/6 723/2/6
f 711/3/6 712/3/6 723/3/6
f 710/3/6 711/3/6 723/3/6
f 723/3/6 712/3/6 724/3/6
f 712/4/6 713/4/6 725/4/6
f 724/3/6 712/3/6 725/3/6
f 713/2/6 714/2/6 726/2/6
f 725/4/6 713/4/6 726/4/6
f 714/4/6 715/4/6 727/4/6
f 726/2/6 714/2/6 727/2/6
f 715/2/6 716/2/6 728/2/6
f 727/4/6 715/4/6 728/4/6
f 716/1/6 717/1/6 729/1/6
f 728/2/6 716/2/6 729/2/6
f 717/4/6 718/4/6 730/4/6
f 729/1/6 717/1/6 730/1/6
f 718/1/6 703/1/6 731/1/6
f 730/4/6 718/4/6 731/4/6
f 731/1/6 703/1/6 732/1/6
f 704/3/6 719/3/6 733/3/6
f 719/1/6 720/1/6 734/1/6
f 733/3/6 719/3/6 734/3/6
f 721/3/6 722/3/6 735/3/6
f 734/1/6 720/1/6 735/1/6
f 720/3/6 721/3/6 735/3/6
f 722/3/6 723/3/6 735/3/6
f 735/3/6 723/3/6 736/3/6
f 736/3/6 723/3/6 737/3/6
f 737/3/6 723/3/6 738/3/6
f 723/4/6 724/4/6 739/4/6
f 738/3/6 723/3/6 739/3/6
f 727/1/6 728/1/6 740/1/6
f 739/4/6 724/4/6 740/4/6
f 726/1/6 727/1/6 740/1/6
f 725/1/6 726/1/6 740/1/6
f 724/1/6 725/1/6 740/1/6
f 740/1/6 728/1/6 741/1/6
f 741/1/6 728/1/6 742/1/6
f 728/2/6 729/2/6 743/2/6
f 742/1/6 728/1/6 743/1/6
f 729/4/6 730/4/6 744/4/6
f 743/2/6 729/2/6 744/2/6
f 730/2/6 731/2/6 745/2/6
f 744/4/6 730/4/6 745/4/6
f 731/4/6 732/4/6 746/4/6
f 745/2/6 731/2/6 746/2/6
f 746/4/6 732/4/6 747/4/6
f 733/4/6 734/4/6 748/4/6
f 734/3/6 735/3/6 749/3/6
f 748/4/6 734/4/6 749/4/6
f 735/4/6 736/4/6 750/4/6
f 749/3/6 735/3/6 750/3/6
f 736/1/6 737/1/6 751/1/6
f 750/4/6 736/4/6 751/4/6
f 737/2/6 738/2/6 752/2/6
f 751/1/6 737/1/6 752/1/6
f 738/3/6 739/3/6 753/3/6
f 752/2/6 738/2/6 753/2/6
f 739/2/6 740/2/6 754/2/6
f 753/3/6 739/3/6 754/3/6
f 740/4/6 741/4/6 755/4/6
f 754/2/6 740/2/6 755/2/6
f 741/3/6 742/3/6 756/3/6
f 755/4/6 741/4/6 756/4/6
f 742/1/6 743/1/6 757/1/6
f 756/3/6 742/3/6 757/3/6
f 743/1/6 744/1/6 757/1/6
f 757/1/6 744/1/6 758/1/6
f 758/1/6 744/1/6 759/1/6
f 744/3/6 745/3/6 760/3/6
f 759/1/6 744/1/6 760/1/6
f 746/3/6 747/3/6 760/3/6
f 745/3/6 746/3/6 760/3/6
f 760/3/6 747/3/6 761/3/6
f 748/1/6 749/1/6 762/1/6
f 749/2/6 750/2/6 763/2/6
f 762/1/6 749/1/6 763/1/6
f 750/4/6 751/4/6 764/4/6
f 763/2/6 750/2/6 764/2/6
f 751/3/6 752/3/6 765/3/6
f 764/4/6 751/4/6 765/4/6
f 752/2/6 753/2/6 766/2/6
f 765/3/6 752/3/6 766/3/6
f 753/1/6 754/1/6 767/1/6
f 766/2/6 753/2/6 767/2/6
f 755/2/6 756/2/6 768/2/6
f 754/4/6 755/4/6 768/4/6
f 757/2/6 758/2/6 768/2/6
f 756/2/6 757/2/6 768/2/6
f 768/2/6 758/2/6 769/2/6
f 758/4/6 759/4/6 770/4/6
f 769/2/6 758/2/6 770/2/6
f 770/4/6 759/4/6 771/4/6
f 760/2/6 761/2/6 772/2/6
f 771/4/6 759/4/6 772/4/6
f 759/2/6 760/2/6 772/2/6
f 772/2/6 761/2/6 773/2/6
f 773/2/6 761/2/6 774/2/6
f 762/2/6 763/2/6 775/2/6
f 763/3/6 764/3/6 776/3/6
f 775/2/6 763/2/6 776/2/6
f 764/3/6 765/3/6 776/3/6
f 765/3/6 766/3/6 776/3/6
f 776/3/6 766/3/6 777/3/6
f 777/3/6 766/3/6 778/3/6
f 766/1/6 767/1/6 779/1/6
f 778/3/6 766/3/6 779/3/6
f 767/1/6 754/1/6 780/1/6
f 779/1/6 767/1/6 780/1/6
f 754/4/6 768/4/6 780/4/6
f 768/1/6 769/1/6 781/1/6
f 780/4/6 768/4/6 781/4/6
f 769/3/6 770/3/6 782/3/6
f 781/1/6 769/1/6 782/1/6
f 782/3/6 770/3/6 783/3/6
f 770/1/6 771/1/6 784/1/6
f 783/3/6 770/3/6 784/3/6
f 772/2/6 773/2/6 785/2/6
f 784/1/6 771/1/6 785/1/6
f 771/2/6 772/2/6 785/2/6
f 785/2/6 773/2/6 786/2/6
f 773/3/6 774/3/6 787/3/6
f 786/2/6 773/2/6 787/2/6
f 787/3/6 774/3/6 788/3/6
f 774/2/6 761/2/6 789/2/6
f 788/3/6 774/3/6 789/3/6
f 775/1/6 776/1/6 790/1/6
f 776/2/6 777/2/6 791/2/6
f 790/1/6 776/1/6 791/1/6
f 777/3/6 778/3/6 792/3/6
f 791/2/6 777/2/6 792/2/6
f 778/2/6 779/2/6 793/2/6
f 792/3/6 778/3/6 793/3/6
f 779/1/6 780/1/6 794/1/6
f 793/2/6 779/2/6 794/2/6
f 780/1/6 781/1/6 794/1/6
f 794/1/6 781/1/6 795/1/6
f 795/1/6 781/1/6 796/1/6
f 782/2/6 783/2/6 797/2/6
f 796/1/6 781/1/6 797/1/6
f 781/2/6 782/2/6 797/2/6
f 797/2/6 783/2/6 798/2/6
f 785/1/6 786/1/6 799/1/6
f 798/2/6 783/2/6 799/2/6
f 783/1/6 784/1/6 799/1/6
f 784/1/6 785/1/6 799/1/6
f 799/1/6 786/1/6 800/1/6
f 786/4/6 787/4/6 801/4/6
f 800/1/6 786/1/6 801/1/6
f 787/3/6 788/3/6 802/3/6
f 801/4/6 787/4/6 802/4/6
f 788/1/6 789/1/6 803/1/6
f 802/3/6 788/3/6 803/3/6
f 789/2/6 761/2/6 804/2/6
f 803/1/6 789/1/6 804/1/6
f 804/2/6 761/2/6 805/2/6
f 791/1/6 792/1/6 806/1/6
f 790/3/6 791/3/6 806/3/6
f 792/2/6 793/2/6 807/2/6
f 806/1/6 792/1/6 807/1/6
f 794/4/6 795/4/6 808/4/6
f 807/2/6 793/2/6 808/2/6
f 793/4/6 794/4/6 808/4/6
f 808/4/6 795/4/6 809/4/6
f 795/3/6 796/3/6 810/3/6
f 809/4/6 795/4/6 810/4/6
f 796/2/6 797/2/6 811/2/6
f 810/3/6 796/3/6 811/3/6
f 797/3/6 798/3/6 812/3/6
f 811/2/6 797/2/6 812/2/6
f 798/1/6 799/1/6 813/1/6
f 812/3/6 798/3/6 813/3/6
f 799/2/6 800/2/6 814/2/6
f 813/1/6 799/1/6 814/1/6
f 800/3/6 801/3/6 815/3/6
f 814/2/6 800/2/6 815/2/6
f 815/3/6 801/3/6 816/3/6
f 801/4/6 802/4/6 817/4/6
f 816/3/6 801/3/6 817/3/6
f 802/2/6 803/2/6 818/2/6
f 817/4/6 802/4/6 818/4/6
f 803/3/6 804/3/6 819/3/6
f 818/2/6 803/2/6 819/2/6
f 804/1/6 805/1/6 820/1/6
f 819/3/6 804/3/6 820/3/6
f 820/1/6 805/1/6 821/1/6
f 790/3/6 806/3/6 822/3/6
f 806/3/6 807/3/6 822/3/6
f 807/1/6 808/1/6 823/1/6
f 822/3/6 807/3/6 823/3/6
f 808/4/6 809/4/6 824/4/6
f 823/1/6 808/1/6 824/1/6
f 810/1/6 811/1/6 825/1/6
f 824/4/6 809/4/6 825/4/6
f 809/1/6 810/1/6 825/1/6
f 811/1/6 812/1/6 825/1/6
f 825/1/6 812/1/6 826/1/6
f 812/2/6 813/2/6 827/2/6
f 826/1/6 812/1/6 827/1/6
f 813/3/6 814/3/6 828/3/6
f 827/2/6 813/2/6 828/2/6
f 814/2/6 815/2/6 829/2/6
f 828/3/6 814/3/6 829/3/6
f 815/1/6 816/1/6 830/1/6
f 829/2/6 815/2/6 830/2/6
f 816/2/6 817/2/6 831/2/6
f 830/1/6 816/1/6 831/1/6
f 818/3/6 819/3/6 832/3/6
f 831/2/6 817/2/6 832/2/6
f 817/3/6 818/3/6 832/3/6
f 832/3/6 819/3/6 833/3/6
f 819/2/6 820/2/6 834/2/6
f 833/3/6 819/3/6 834/3/6
f 820/4/6 821/4/6 835/4/6
f 834/2/6 820/2/6 835/2/6
f 835/4/6 821/4/6 836/4/6
f 822/2/6 823/2/6 837/2/6
f 823/4/6 824/4/6 838/4/6
f 837/2/6 823/2/6 838/2/6
f 824/1/6 825/1/6 839/1/6
f 838/4/6 824/4/6 839/4/6
f 825/4/6 826/4/6 840/4/6
f 839/1/6 825/1/6 840/1/6
f 826/2/6 827/2/6 841/2/6
f 840/4/6 826/4/6 841/4/6
f 827/3/6 828/3/6 842/3/6
f 841/2/6 827/2/6 842/2/6
f 828/2/6 829/2/6 843/2/6
f 842/3/6 828/3/6 843/3/6
f 829/3/6 830/3/6 844/3/6
f 843/2/6 829/2/6 844/2/6
f 830/2/6 831/2/6 845/2/6
f 844/3/6 830/3/6 845/3/6
f 832/1/6 833/1/6 846/1/6
f 831/3/6 832/3/6 846/3/6
f 833/2/6 834/2/6 847/2/6
f 846/1/6 833/1/6 847/1/6
f 834/4/6 835/4/6 848/4/6
f 847/2/6 834/2/6 848/2/6
f 835/2/6 836/2/6 849/2/6
f 848/4/6 835/4/6 849/4/6
f 849/2/6 836/2/6 850/2/6
f 837/1/6 838/1/6 851/1/6
f 838/3/6 839/3/6 852/3/6
f 851/1/6 838/1/6 852/1/6
f 839/4/6 840/4/6 853/4/6
f 852/3/6 839/3/6 853/3/6
f 841/4/6 842/4/6 853/4/6
f 840/4/6 841/4/6 853/4/6
f 853/4/6 842/4/6 854/4/6
f 854/4/6 842/4/6 855/4/6
f 843/3/6 844/3/6 856/3/6
f 855/4/6 842/4/6 856/4/6
f 842/3/6 843/3/6 856/3/6
f 856/3/6 844/3/6 857/3/6
f 845/2/6 831/2/6 858/2/6
f 844/2/6 845/2/6 858/2/6
f 831/3/6 846/3/6 859/3/6
f 858/2/6 831/2/6 859/2/6
f 846/2/6 847/2/6 860/2/6
f 859/3/6 846/3/6 860/3/6
f 849/1/6 850/1/6 861/1/6
f 860/2/6 847/2/6 861/2/6
f 848/1/6 849/1/6 861/1/6
f 847/1/6 848/1/6 861/1/6
f 861/1/6 850/1/6 862/1/6
f 862/1/6 850/1/6 863/1/6
f 863/1/6 850/1/6 864/1/6
f 851/4/6 852/4/6 865/4/6
f 865/4/6 852/4/6 866/4/6
f 852/2/6 853/2/6 867/2/6
f 866/4/6 852/4/6 867/4/6
f 853/4/6 854/4/6 868/4/6
f 867/2/6 853/2/6 868/2/6
f 854/2/6 855/2/6 869/2/6
f 868/4/6 854/4/6 869/4/6
f 855/3/6 856/3/6 870/3/6
f 869/2/6 855/2/6 870/2/6
f 856/1/6 857/1/6 871/1/6
f 870/3/6 856/3/6 871/3/6
f 857/3/6 844/3/6 872/3/6
f 871/1/6 857/1/6 872/1/6
f 844/2/6 858/2/6 873/2/6
f 872/3/6 844/3/6 873/3/6
f 858/3/6 859/3/6 874/3/6
f 873/2/6 858/2/6 874/2/6
f 859/4/6 860/4/6 875/4/6
f 874/3/6 859/3/6 875/3/6
f 860/3/6 861/3/6 876/3/6
f 875/4/6 860/4/6 876/4/6
f 861/3/6 862/3/6 876/3/6
f 876/3/6 862/3/6 877/3/6
f 862/1/6 863/1/6 878/1/6
f 877/3/6 862/3/6 878/3/6
f 863/3/6 864/3/6 879/3/6
f 878/1/6 863/1/6 879/1/6
f 879/3/6 864/3/6 880/3/6
f 865/3/6 866/3/6 881/3/6
f 866/4/6 867/4/6 882/4/6
f 881/3/6 866/3/6 882/3/6
f 867/3/6 868/3/6 883/3/6
f 882/4/6 867/4/6 883/4/6
f 870/4/6 871/4/6 884/4/6
f 883/3/6 868/3/6 884/3/6
f 871/4/6 872/4/6 884/4/6
f 868/4/6 869/4/6 884/4/6
f 869/4/6 870/4/6 884/4/6
f 872/3/6 873/3/6 885/3/6
f 884/4/6 872/4/6 885/4/6
f 873/1/6 874/1/6 886/1/6
f 885/3/6 873/3/6 886/3/6
f 874/4/6 875/4/6 887/4/6
f 886/1/6 874/1/6 887/1/6
f 875/1/6 876/1/6 888/1/6
f 887/4/6 875/4/6 888/4/6
f 876/3/6 877/3/6 889/3/6
f 888/1/6 876/1/6 889/1/6
f 877/4/6 878/4/6 890/4/6
f 889/3/6 877/3/6 890/3/6
f 878/3/6 879/3/6 891/3/6
f 890/4/6 878/4/6 891/4/6
f 879/4/6 880/4/6 892/4/6
f 891/3/6 879/3/6 892/3/6
f 892/4/6 880/4/6 893/4/6
