# MagicaVoxel @ Ephtracy

# group
o 

# material
mtllib spaceship_inside-10.mtl
usemtl palette

# normals
vn -1 0 0
vn 1 0 0
vn 0 0 1
vn 0 0 -1
vn 0 -1 0
vn 0 1 0

# texcoords
vt 0.705078 0.5
vt 0.775391 0.5
vt 0.841797 0.5
vt 0.947266 0.5
vt 0.958984 0.5

# verts
v -0.35 -0.75 0.2
v -0.35 -0.75 -0.2
v -0.35 -0.65 0.2
v -0.35 -0.65 -0.2
v -0.25 -0.65 0.1
v -0.25 -0.65 -0.1
v -0.25 -0.55 0.1
v -0.25 -0.55 -0.1
v -0.15 -0.55 0.1
v -0.15 -0.55 -0.1
v -0.15 -0.35 0.1
v -0.15 -0.35 -0.1
v -0.05 -0.35 0.1
v -0.05 -0.35 -0.1
v -0.05 -0.05 0.1
v -0.05 -0.05 -0.1
v 0.05 -0.05 0.1
v 0.05 -0.05 -0.1
v 0.05 0.25 0.1
v 0.05 0.25 -0.1
v 0.15 -0.05 0.7
v 0.15 -0.05 0.1
v 0.15 -0.05 -0.1
v 0.15 -0.05 -0.7
v 0.15 0.25 0.1
v 0.15 0.25 -0.1
v 0.15 0.65 0.7
v 0.15 0.65 -0.7
v 0.25 -0.15 0.8
v 0.25 -0.15 -0.8
v 0.25 -0.05 0.7
v 0.25 -0.05 -0.7
v 0.25 0.65 0.7
v 0.25 0.65 -0.7
v 0.25 0.75 0.8
v 0.25 0.75 -0.8
v 0.05 -0.65 0.1
v 0.05 -0.65 -0.1
v 0.05 -0.35 0.1
v 0.05 -0.35 -0.1
v 0.15 -0.75 0.2
v 0.15 -0.75 -0.2
v 0.15 -0.65 0.2
v 0.15 -0.65 -0.2
v 0.15 -0.35 0.1
v 0.15 -0.35 -0.1
v 0.15 -0.05 0.1
v 0.15 -0.05 -0.1
v 0.35 -0.15 0.8
v 0.35 -0.15 -0.8
v 0.35 -0.05 0.7
v 0.35 -0.05 -0.7
v 0.35 0.05 0.6
v 0.35 0.05 0.5
v 0.35 0.05 0.2
v 0.35 0.05 0.1
v 0.35 0.05 -0.1
v 0.35 0.05 -0.2
v 0.35 0.05 -0.5
v 0.35 0.05 -0.6
v 0.35 0.15 0.6
v 0.35 0.15 0.5
v 0.35 0.15 0.4
v 0.35 0.15 0.3
v 0.35 0.15 -0.3
v 0.35 0.15 -0.4
v 0.35 0.15 -0.5
v 0.35 0.15 -0.6
v 0.35 0.25 0.6
v 0.35 0.25 0.5
v 0.35 0.25 -0.1
v 0.35 0.25 -0.2
v 0.35 0.25 -0.5
v 0.35 0.25 -0.6
v 0.35 0.35 0.6
v 0.35 0.35 0.5
v 0.35 0.35 -0.5
v 0.35 0.35 -0.6
v 0.35 0.45 0.6
v 0.35 0.45 0.5
v 0.35 0.45 0.4
v 0.35 0.45 0.3
v 0.35 0.45 0.2
v 0.35 0.45 0.1
v 0.35 0.45 -0.3
v 0.35 0.45 -0.4
v 0.35 0.45 -0.5
v 0.35 0.45 -0.6
v 0.35 0.55 0.6
v 0.35 0.55 0.5
v 0.35 0.55 0.2
v 0.35 0.55 0.1
v 0.35 0.55 -0.1
v 0.35 0.55 -0.2
v 0.35 0.55 -0.5
v 0.35 0.55 -0.6
v 0.35 0.65 0.7
v 0.35 0.65 -0.7
v 0.35 0.75 0.8
v 0.35 0.75 -0.8
v 0.25 -0.15 0.8
v 0.25 0.75 0.8
v 0.35 -0.15 0.8
v 0.35 0.75 0.8
v 0.15 -0.05 0.7
v 0.15 0.65 0.7
v 0.25 -0.05 0.7
v 0.25 0.65 0.7
v -0.35 -0.75 0.2
v -0.35 -0.65 0.2
v 0.15 -0.75 0.2
v 0.15 -0.65 0.2
v -0.25 -0.65 0.1
v -0.25 -0.55 0.1
v -0.15 -0.55 0.1
v -0.15 -0.35 0.1
v -0.05 -0.35 0.1
v -0.05 -0.05 0.1
v 0.05 -0.65 0.1
v 0.05 -0.35 0.1
v 0.05 -0.05 0.1
v 0.05 0.25 0.1
v 0.15 -0.35 0.1
v 0.15 -0.05 0.1
v 0.15 0.25 0.1
v -0.25 -0.65 -0.1
v -0.25 -0.55 -0.1
v -0.15 -0.55 -0.1
v -0.15 -0.35 -0.1
v -0.05 -0.35 -0.1
v -0.05 -0.05 -0.1
v 0.05 -0.65 -0.1
v 0.05 -0.35 -0.1
v 0.05 -0.05 -0.1
v 0.05 0.25 -0.1
v 0.15 -0.35 -0.1
v 0.15 -0.05 -0.1
v 0.15 0.25 -0.1
v -0.35 -0.75 -0.2
v -0.35 -0.65 -0.2
v 0.15 -0.75 -0.2
v 0.15 -0.65 -0.2
v 0.15 -0.05 -0.7
v 0.15 0.65 -0.7
v 0.25 -0.05 -0.7
v 0.25 0.65 -0.7
v 0.25 -0.15 -0.8
v 0.25 0.75 -0.8
v 0.35 -0.15 -0.8
v 0.35 0.75 -0.8
v -0.35 -0.75 0.2
v 0.15 -0.75 0.2
v -0.35 -0.75 -0.2
v 0.15 -0.75 -0.2
v 0.05 -0.35 0.1
v 0.15 -0.35 0.1
v 0.05 -0.35 -0.1
v 0.15 -0.35 -0.1
v 0.25 -0.15 0.8
v 0.35 -0.15 0.8
v 0.25 -0.15 -0.8
v 0.35 -0.15 -0.8
v 0.15 -0.05 0.7
v 0.25 -0.05 0.7
v 0.15 -0.05 0.1
v 0.15 -0.05 -0.1
v 0.15 -0.05 -0.7
v 0.25 -0.05 -0.7
v -0.35 -0.65 0.2
v 0.15 -0.65 0.2
v -0.25 -0.65 0.1
v 0.05 -0.65 0.1
v -0.25 -0.65 -0.1
v 0.05 -0.65 -0.1
v -0.35 -0.65 -0.2
v 0.15 -0.65 -0.2
v -0.25 -0.55 0.1
v -0.15 -0.55 0.1
v -0.25 -0.55 -0.1
v -0.15 -0.55 -0.1
v -0.15 -0.35 0.1
v -0.05 -0.35 0.1
v -0.15 -0.35 -0.1
v -0.05 -0.35 -0.1
v -0.05 -0.05 0.1
v 0.05 -0.05 0.1
v -0.05 -0.05 -0.1
v 0.05 -0.05 -0.1
v 0.05 0.25 0.1
v 0.15 0.25 0.1
v 0.05 0.25 -0.1
v 0.15 0.25 -0.1
v 0.15 0.65 0.7
v 0.25 0.65 0.7
v 0.15 0.65 -0.7
v 0.25 0.65 -0.7
v 0.25 0.75 0.8
v 0.35 0.75 0.8
v 0.25 0.75 -0.8
v 0.35 0.75 -0.8

# faces
f 3/5/1 2/5/1 1/5/1
f 4/5/1 2/5/1 3/5/1
f 7/5/1 6/5/1 5/5/1
f 8/5/1 6/5/1 7/5/1
f 11/5/1 10/5/1 9/5/1
f 12/5/1 10/5/1 11/5/1
f 15/5/1 14/5/1 13/5/1
f 16/5/1 14/5/1 15/5/1
f 19/5/1 18/5/1 17/5/1
f 20/5/1 18/5/1 19/5/1
f 25/5/1 22/5/1 21/5/1
f 26/5/1 24/5/1 23/5/1
f 27/5/1 25/5/1 21/5/1
f 27/5/1 26/5/1 25/5/1
f 28/5/1 24/5/1 26/5/1
f 28/5/1 26/5/1 27/5/1
f 31/5/1 30/5/1 29/5/1
f 32/5/1 30/5/1 31/5/1
f 33/5/1 31/5/1 29/5/1
f 34/5/1 30/5/1 32/5/1
f 35/5/1 33/5/1 29/5/1
f 35/5/1 34/5/1 33/5/1
f 36/5/1 30/5/1 34/5/1
f 36/5/1 34/5/1 35/5/1
f 37/5/2 38/5/2 39/5/2
f 39/5/2 38/5/2 40/5/2
f 41/5/2 42/5/2 43/5/2
f 43/5/2 42/5/2 44/5/2
f 45/5/2 46/5/2 47/5/2
f 47/5/2 46/5/2 48/5/2
f 49/5/2 50/5/2 51/5/2
f 51/5/2 50/5/2 52/5/2
f 51/4/2 52/4/2 53/4/2
f 53/4/2 52/4/2 54/4/2
f 54/4/2 52/4/2 55/4/2
f 55/4/2 52/4/2 56/4/2
f 56/4/2 52/4/2 57/4/2
f 57/4/2 52/4/2 58/4/2
f 58/4/2 52/4/2 59/4/2
f 59/4/2 52/4/2 60/4/2
f 51/4/2 53/4/2 61/4/2
f 53/1/2 54/1/2 61/1/2
f 54/4/2 55/4/2 62/4/2
f 61/1/2 54/1/2 62/1/2
f 62/4/2 55/4/2 63/4/2
f 63/4/2 55/4/2 64/4/2
f 58/4/2 59/4/2 65/4/2
f 65/4/2 59/4/2 66/4/2
f 59/1/2 60/1/2 67/1/2
f 66/4/2 59/4/2 67/4/2
f 60/4/2 52/4/2 68/4/2
f 67/1/2 60/1/2 68/1/2
f 51/4/2 61/4/2 69/4/2
f 61/4/2 62/4/2 69/4/2
f 62/4/2 63/4/2 69/4/2
f 69/4/2 63/4/2 70/4/2
f 56/4/2 57/4/2 71/4/2
f 57/2/2 58/2/2 71/2/2
f 58/4/2 65/4/2 72/4/2
f 71/2/2 58/2/2 72/2/2
f 66/4/2 67/4/2 73/4/2
f 67/4/2 68/4/2 73/4/2
f 68/4/2 52/4/2 74/4/2
f 73/4/2 68/4/2 74/4/2
f 69/1/2 70/1/2 75/1/2
f 51/4/2 69/4/2 75/4/2
f 70/4/2 63/4/2 76/4/2
f 75/1/2 70/1/2 76/1/2
f 66/4/2 73/4/2 77/4/2
f 73/3/2 74/3/2 77/3/2
f 74/4/2 52/4/2 78/4/2
f 77/3/2 74/3/2 78/3/2
f 51/4/2 75/4/2 79/4/2
f 75/4/2 76/4/2 79/4/2
f 76/4/2 63/4/2 80/4/2
f 79/4/2 76/4/2 80/4/2
f 63/1/2 64/1/2 81/1/2
f 80/4/2 63/4/2 81/4/2
f 64/4/2 55/4/2 82/4/2
f 81/1/2 64/1/2 82/1/2
f 55/2/2 56/2/2 83/2/2
f 82/4/2 55/4/2 83/4/2
f 56/4/2 71/4/2 84/4/2
f 83/2/2 56/2/2 84/2/2
f 72/4/2 65/4/2 85/4/2
f 65/1/2 66/1/2 85/1/2
f 66/4/2 77/4/2 86/4/2
f 85/1/2 66/1/2 86/1/2
f 77/4/2 78/4/2 86/4/2
f 86/4/2 78/4/2 87/4/2
f 78/4/2 52/4/2 88/4/2
f 87/4/2 78/4/2 88/4/2
f 51/4/2 79/4/2 89/4/2
f 79/1/2 80/1/2 89/1/2
f 81/4/2 82/4/2 90/4/2
f 89/1/2 80/1/2 90/1/2
f 80/4/2 81/4/2 90/4/2
f 82/4/2 83/4/2 90/4/2
f 83/1/2 84/1/2 91/1/2
f 90/4/2 83/4/2 91/4/2
f 84/4/2 71/4/2 92/4/2
f 91/1/2 84/1/2 92/1/2
f 71/1/2 72/1/2 93/1/2
f 92/4/2 71/4/2 93/4/2
f 86/4/2 87/4/2 94/4/2
f 93/1/2 72/1/2 94/1/2
f 72/4/2 85/4/2 94/4/2
f 85/4/2 86/4/2 94/4/2
f 87/3/2 88/3/2 95/3/2
f 94/4/2 87/4/2 95/4/2
f 88/4/2 52/4/2 96/4/2
f 95/3/2 88/3/2 96/3/2
f 49/5/2 51/5/2 97/5/2
f 90/4/2 91/4/2 97/4/2
f 95/4/2 96/4/2 97/4/2
f 91/4/2 92/4/2 97/4/2
f 93/4/2 94/4/2 97/4/2
f 92/4/2 93/4/2 97/4/2
f 51/4/2 89/4/2 97/4/2
f 94/4/2 95/4/2 97/4/2
f 89/4/2 90/4/2 97/4/2
f 96/4/2 52/4/2 98/4/2
f 97/4/2 96/4/2 98/4/2
f 52/5/2 50/5/2 98/5/2
f 49/5/2 97/5/2 99/5/2
f 97/5/2 98/5/2 99/5/2
f 98/5/2 50/5/2 100/5/2
f 99/5/2 98/5/2 100/5/2
f 103/5/3 102/5/3 101/5/3
f 104/5/3 102/5/3 103/5/3
f 107/5/3 106/5/3 105/5/3
f 108/5/3 106/5/3 107/5/3
f 111/5/3 110/5/3 109/5/3
f 112/5/3 110/5/3 111/5/3
f 115/5/3 114/5/3 113/5/3
f 117/5/3 116/5/3 115/5/3
f 119/5/3 115/5/3 113/5/3
f 119/5/3 118/5/3 117/5/3
f 119/5/3 117/5/3 115/5/3
f 120/5/3 118/5/3 119/5/3
f 121/5/3 118/5/3 120/5/3
f 123/5/3 122/5/3 121/5/3
f 123/5/3 121/5/3 120/5/3
f 124/5/3 122/5/3 123/5/3
f 125/5/3 122/5/3 124/5/3
f 126/5/4 127/5/4 128/5/4
f 128/5/4 129/5/4 130/5/4
f 126/5/4 128/5/4 132/5/4
f 130/5/4 131/5/4 132/5/4
f 128/5/4 130/5/4 132/5/4
f 132/5/4 131/5/4 133/5/4
f 133/5/4 131/5/4 134/5/4
f 134/5/4 135/5/4 136/5/4
f 133/5/4 134/5/4 136/5/4
f 136/5/4 135/5/4 137/5/4
f 137/5/4 135/5/4 138/5/4
f 139/5/4 140/5/4 141/5/4
f 141/5/4 140/5/4 142/5/4
f 143/5/4 144/5/4 145/5/4
f 145/5/4 144/5/4 146/5/4
f 147/5/4 148/5/4 149/5/4
f 149/5/4 148/5/4 150/5/4
f 153/5/5 152/5/5 151/5/5
f 154/5/5 152/5/5 153/5/5
f 157/5/5 156/5/5 155/5/5
f 158/5/5 156/5/5 157/5/5
f 161/5/5 160/5/5 159/5/5
f 162/5/5 160/5/5 161/5/5
f 165/5/5 164/5/5 163/5/5
f 166/5/5 164/5/5 165/5/5
f 167/5/5 164/5/5 166/5/5
f 168/5/5 164/5/5 167/5/5
f 169/5/6 170/5/6 171/5/6
f 171/5/6 170/5/6 172/5/6
f 169/5/6 171/5/6 173/5/6
f 172/5/6 170/5/6 174/5/6
f 169/5/6 173/5/6 175/5/6
f 173/5/6 174/5/6 175/5/6
f 174/5/6 170/5/6 176/5/6
f 175/5/6 174/5/6 176/5/6
f 177/5/6 178/5/6 179/5/6
f 179/5/6 178/5/6 180/5/6
f 181/5/6 182/5/6 183/5/6
f 183/5/6 182/5/6 184/5/6
f 185/5/6 186/5/6 187/5/6
f 187/5/6 186/5/6 188/5/6
f 189/5/6 190/5/6 191/5/6
f 191/5/6 190/5/6 192/5/6
f 193/5/6 194/5/6 195/5/6
f 195/5/6 194/5/6 196/5/6
f 197/5/6 198/5/6 199/5/6
f 199/5/6 198/5/6 200/5/6
