# MagicaVoxel @ Ephtracy

# group
o 

# material
mtllib spaceship_inside-15.mtl
usemtl palette

# normals
vn -1 0 0
vn 1 0 0
vn 0 0 1
vn 0 0 -1
vn 0 -1 0
vn 0 1 0

# texcoords
vt 0.423828 0.5
vt 0.716797 0.5
vt 0.728516 0.5
vt 0.841797 0.5
vt 0.943359 0.5
vt 0.958984 0.5

# verts
v -0.05 -0.55 1
v -0.05 -0.55 -1
v -0.05 -0.45 0.9
v -0.05 -0.45 -0.9
v -0.05 -0.35 0.8
v -0.05 -0.35 0.3
v -0.05 -0.35 -0.5
v -0.05 -0.35 -0.7
v -0.05 -0.25 0.8
v -0.05 -0.25 0.3
v -0.05 -0.25 0.2
v -0.05 -0.25 -0.2
v -0.05 -0.25 -0.6
v -0.05 -0.25 -0.7
v -0.05 -0.15 0.8
v -0.05 -0.15 0.4
v -0.05 -0.15 0.2
v -0.05 -0.15 -0.2
v -0.05 -0.15 -0.6
v -0.05 -0.15 -0.8
v -0.05 -0.05 0.8
v -0.05 -0.05 0.4
v -0.05 -0.05 0.2
v -0.05 -0.05 -0.1
v -0.05 -0.05 -0.2
v -0.05 -0.05 -0.3
v -0.05 -0.05 -0.6
v -0.05 -0.05 -0.8
v -0.05 0.05 0.8
v -0.05 0.05 0.5
v -0.05 0.05 0.2
v -0.05 0.05 -0.1
v -0.05 0.05 -0.2
v -0.05 0.05 -0.3
v -0.05 0.05 -0.6
v -0.05 0.05 -0.8
v -0.05 0.15 0.8
v -0.05 0.15 0.5
v -0.05 0.15 0.2
v -0.05 0.15 -0.1
v -0.05 0.15 -0.5
v -0.05 0.15 -0.8
v -0.05 0.25 0.8
v -0.05 0.25 0.3
v -0.05 0.25 0.2
v -0.05 0.25 -0.1
v -0.05 0.25 -0.4
v -0.05 0.25 -0.8
v -0.05 0.35 0.8
v -0.05 0.35 0.3
v -0.05 0.35 -0.4
v -0.05 0.35 -0.8
v -0.05 0.45 0.9
v -0.05 0.45 -0.9
v -0.05 0.55 1
v -0.05 0.55 -1
v 0.05 -0.55 1
v 0.05 -0.55 -1
v 0.05 -0.45 0.9
v 0.05 -0.45 -0.9
v 0.05 -0.35 0.8
v 0.05 -0.35 0.3
v 0.05 -0.35 -0.5
v 0.05 -0.35 -0.7
v 0.05 -0.25 0.8
v 0.05 -0.25 0.3
v 0.05 -0.25 0.2
v 0.05 -0.25 -0.2
v 0.05 -0.25 -0.6
v 0.05 -0.25 -0.7
v 0.05 -0.15 0.8
v 0.05 -0.15 0.4
v 0.05 -0.15 0.2
v 0.05 -0.15 -0.2
v 0.05 -0.15 -0.6
v 0.05 -0.15 -0.8
v 0.05 -0.05 0.8
v 0.05 -0.05 0.4
v 0.05 -0.05 0.2
v 0.05 -0.05 -0.1
v 0.05 -0.05 -0.2
v 0.05 -0.05 -0.3
v 0.05 -0.05 -0.6
v 0.05 -0.05 -0.8
v 0.05 0.05 0.8
v 0.05 0.05 0.5
v 0.05 0.05 0.2
v 0.05 0.05 -0.1
v 0.05 0.05 -0.2
v 0.05 0.05 -0.3
v 0.05 0.05 -0.6
v 0.05 0.05 -0.8
v 0.05 0.15 0.8
v 0.05 0.15 0.5
v 0.05 0.15 0.2
v 0.05 0.15 -0.1
v 0.05 0.15 -0.5
v 0.05 0.15 -0.8
v 0.05 0.25 0.8
v 0.05 0.25 0.3
v 0.05 0.25 0.2
v 0.05 0.25 -0.1
v 0.05 0.25 -0.4
v 0.05 0.25 -0.8
v 0.05 0.35 0.8
v 0.05 0.35 0.3
v 0.05 0.35 -0.4
v 0.05 0.35 -0.8
v 0.05 0.45 0.9
v 0.05 0.45 -0.9
v 0.05 0.55 1
v 0.05 0.55 -1
v -0.05 -0.55 1
v -0.05 0.55 1
v 0.05 -0.55 1
v 0.05 0.55 1
v -0.05 -0.55 -1
v -0.05 0.55 -1
v 0.05 -0.55 -1
v 0.05 0.55 -1
v -0.05 -0.55 1
v 0.05 -0.55 1
v -0.05 -0.55 -1
v 0.05 -0.55 -1
v -0.05 0.55 1
v 0.05 0.55 1
v -0.05 0.55 -1
v 0.05 0.55 -1

# faces
f 3/6/1 2/6/1 1/6/1
f 4/6/1 2/6/1 3/6/1
f 5/5/1 4/5/1 3/5/1
f 6/5/1 4/5/1 5/5/1
f 7/5/1 4/5/1 6/5/1
f 8/5/1 4/5/1 7/5/1
f 9/5/1 5/5/1 3/5/1
f 9/2/1 6/2/1 5/2/1
f 10/5/1 7/5/1 6/5/1
f 10/2/1 6/2/1 9/2/1
f 11/5/1 7/5/1 10/5/1
f 12/5/1 7/5/1 11/5/1
f 13/1/1 8/1/1 7/1/1
f 14/5/1 4/5/1 8/5/1
f 14/1/1 8/1/1 13/1/1
f 15/5/1 9/5/1 3/5/1
f 15/5/1 10/5/1 9/5/1
f 15/5/1 11/5/1 10/5/1
f 16/5/1 11/5/1 15/5/1
f 17/3/1 12/3/1 11/3/1
f 17/5/1 11/5/1 16/5/1
f 18/5/1 7/5/1 12/5/1
f 18/3/1 12/3/1 17/3/1
f 19/1/1 13/1/1 7/1/1
f 19/5/1 14/5/1 13/5/1
f 20/5/1 4/5/1 14/5/1
f 20/5/1 14/5/1 19/5/1
f 21/4/1 16/4/1 15/4/1
f 21/5/1 15/5/1 3/5/1
f 22/5/1 17/5/1 16/5/1
f 22/4/1 16/4/1 21/4/1
f 22/5/1 18/5/1 17/5/1
f 23/5/1 18/5/1 22/5/1
f 24/5/1 18/5/1 23/5/1
f 25/5/1 7/5/1 18/5/1
f 25/5/1 18/5/1 24/5/1
f 26/5/1 7/5/1 25/5/1
f 27/1/1 19/1/1 7/1/1
f 27/1/1 20/1/1 19/1/1
f 28/5/1 4/5/1 20/5/1
f 28/1/1 20/1/1 27/1/1
f 29/5/1 21/5/1 3/5/1
f 29/5/1 22/5/1 21/5/1
f 29/5/1 23/5/1 22/5/1
f 30/5/1 23/5/1 29/5/1
f 31/3/1 24/3/1 23/3/1
f 31/5/1 23/5/1 30/5/1
f 32/5/1 25/5/1 24/5/1
f 32/3/1 24/3/1 31/3/1
f 33/3/1 26/3/1 25/3/1
f 33/5/1 25/5/1 32/5/1
f 34/5/1 7/5/1 26/5/1
f 34/3/1 26/3/1 33/3/1
f 35/1/1 27/1/1 7/1/1
f 35/5/1 28/5/1 27/5/1
f 36/5/1 4/5/1 28/5/1
f 36/5/1 28/5/1 35/5/1
f 37/2/1 30/2/1 29/2/1
f 37/5/1 29/5/1 3/5/1
f 38/5/1 33/5/1 32/5/1
f 38/2/1 30/2/1 37/2/1
f 38/5/1 32/5/1 31/5/1
f 38/5/1 34/5/1 33/5/1
f 38/5/1 31/5/1 30/5/1
f 39/5/1 34/5/1 38/5/1
f 40/5/1 34/5/1 39/5/1
f 41/1/1 35/1/1 7/1/1
f 41/5/1 34/5/1 40/5/1
f 41/1/1 36/1/1 35/1/1
f 41/5/1 7/5/1 34/5/1
f 42/5/1 4/5/1 36/5/1
f 42/1/1 36/1/1 41/1/1
f 43/5/1 37/5/1 3/5/1
f 43/5/1 39/5/1 38/5/1
f 43/5/1 38/5/1 37/5/1
f 44/5/1 39/5/1 43/5/1
f 45/3/1 40/3/1 39/3/1
f 45/5/1 39/5/1 44/5/1
f 46/5/1 41/5/1 40/5/1
f 46/3/1 40/3/1 45/3/1
f 46/5/1 42/5/1 41/5/1
f 47/5/1 42/5/1 46/5/1
f 48/5/1 4/5/1 42/5/1
f 48/5/1 42/5/1 47/5/1
f 49/2/1 44/2/1 43/2/1
f 49/5/1 43/5/1 3/5/1
f 50/5/1 45/5/1 44/5/1
f 50/2/1 44/2/1 49/2/1
f 50/5/1 47/5/1 46/5/1
f 50/5/1 46/5/1 45/5/1
f 51/3/1 48/3/1 47/3/1
f 51/5/1 47/5/1 50/5/1
f 52/5/1 4/5/1 48/5/1
f 52/3/1 48/3/1 51/3/1
f 53/6/1 3/6/1 1/6/1
f 53/5/1 49/5/1 3/5/1
f 53/5/1 52/5/1 51/5/1
f 53/5/1 50/5/1 49/5/1
f 53/5/1 51/5/1 50/5/1
f 54/5/1 4/5/1 52/5/1
f 54/5/1 52/5/1 53/5/1
f 54/6/1 2/6/1 4/6/1
f 55/6/1 53/6/1 1/6/1
f 55/6/1 54/6/1 53/6/1
f 56/6/1 2/6/1 54/6/1
f 56/6/1 54/6/1 55/6/1
f 57/6/2 58/6/2 59/6/2
f 59/6/2 58/6/2 60/6/2
f 59/5/2 60/5/2 61/5/2
f 61/5/2 60/5/2 62/5/2
f 62/5/2 60/5/2 63/5/2
f 63/5/2 60/5/2 64/5/2
f 59/5/2 61/5/2 65/5/2
f 61/2/2 62/2/2 65/2/2
f 62/5/2 63/5/2 66/5/2
f 65/2/2 62/2/2 66/2/2
f 66/5/2 63/5/2 67/5/2
f 67/5/2 63/5/2 68/5/2
f 63/1/2 64/1/2 69/1/2
f 64/5/2 60/5/2 70/5/2
f 69/1/2 64/1/2 70/1/2
f 59/5/2 65/5/2 71/5/2
f 65/5/2 66/5/2 71/5/2
f 66/5/2 67/5/2 71/5/2
f 71/5/2 67/5/2 72/5/2
f 67/3/2 68/3/2 73/3/2
f 72/5/2 67/5/2 73/5/2
f 68/5/2 63/5/2 74/5/2
f 73/3/2 68/3/2 74/3/2
f 63/1/2 69/1/2 75/1/2
f 69/5/2 70/5/2 75/5/2
f 70/5/2 60/5/2 76/5/2
f 75/5/2 70/5/2 76/5/2
f 71/4/2 72/4/2 77/4/2
f 59/5/2 71/5/2 77/5/2
f 72/5/2 73/5/2 78/5/2
f 77/4/2 72/4/2 78/4/2
f 73/5/2 74/5/2 78/5/2
f 78/5/2 74/5/2 79/5/2
f 79/5/2 74/5/2 80/5/2
f 74/5/2 63/5/2 81/5/2
f 80/5/2 74/5/2 81/5/2
f 81/5/2 63/5/2 82/5/2
f 63/1/2 75/1/2 83/1/2
f 75/1/2 76/1/2 83/1/2
f 76/5/2 60/5/2 84/5/2
f 83/1/2 76/1/2 84/1/2
f 59/5/2 77/5/2 85/5/2
f 77/5/2 78/5/2 85/5/2
f 78/5/2 79/5/2 85/5/2
f 85/5/2 79/5/2 86/5/2
f 79/3/2 80/3/2 87/3/2
f 86/5/2 79/5/2 87/5/2
f 80/5/2 81/5/2 88/5/2
f 87/3/2 80/3/2 88/3/2
f 81/3/2 82/3/2 89/3/2
f 88/5/2 81/5/2 89/5/2
f 82/5/2 63/5/2 90/5/2
f 89/3/2 82/3/2 90/3/2
f 63/1/2 83/1/2 91/1/2
f 83/5/2 84/5/2 91/5/2
f 84/5/2 60/5/2 92/5/2
f 91/5/2 84/5/2 92/5/2
f 85/2/2 86/2/2 93/2/2
f 59/5/2 85/5/2 93/5/2
f 88/5/2 89/5/2 94/5/2
f 93/2/2 86/2/2 94/2/2
f 87/5/2 88/5/2 94/5/2
f 89/5/2 90/5/2 94/5/2
f 86/5/2 87/5/2 94/5/2
f 94/5/2 90/5/2 95/5/2
f 95/5/2 90/5/2 96/5/2
f 63/1/2 91/1/2 97/1/2
f 96/5/2 90/5/2 97/5/2
f 91/1/2 92/1/2 97/1/2
f 90/5/2 63/5/2 97/5/2
f 92/5/2 60/5/2 98/5/2
f 97/1/2 92/1/2 98/1/2
f 59/5/2 93/5/2 99/5/2
f 94/5/2 95/5/2 99/5/2
f 93/5/2 94/5/2 99/5/2
f 99/5/2 95/5/2 100/5/2
f 95/3/2 96/3/2 101/3/2
f 100/5/2 95/5/2 101/5/2
f 96/5/2 97/5/2 102/5/2
f 101/3/2 96/3/2 102/3/2
f 97/5/2 98/5/2 102/5/2
f 102/5/2 98/5/2 103/5/2
f 98/5/2 60/5/2 104/5/2
f 103/5/2 98/5/2 104/5/2
f 99/2/2 100/2/2 105/2/2
f 59/5/2 99/5/2 105/5/2
f 100/5/2 101/5/2 106/5/2
f 105/2/2 100/2/2 106/2/2
f 102/5/2 103/5/2 106/5/2
f 101/5/2 102/5/2 106/5/2
f 103/3/2 104/3/2 107/3/2
f 106/5/2 103/5/2 107/5/2
f 104/5/2 60/5/2 108/5/2
f 107/3/2 104/3/2 108/3/2
f 57/6/2 59/6/2 109/6/2
f 59/5/2 105/5/2 109/5/2
f 107/5/2 108/5/2 109/5/2
f 105/5/2 106/5/2 109/5/2
f 106/5/2 107/5/2 109/5/2
f 108/5/2 60/5/2 110/5/2
f 109/5/2 108/5/2 110/5/2
f 60/6/2 58/6/2 110/6/2
f 57/6/2 109/6/2 111/6/2
f 109/6/2 110/6/2 111/6/2
f 110/6/2 58/6/2 112/6/2
f 111/6/2 110/6/2 112/6/2
f 115/6/3 114/6/3 113/6/3
f 116/6/3 114/6/3 115/6/3
f 117/6/4 118/6/4 119/6/4
f 119/6/4 118/6/4 120/6/4
f 123/6/5 122/6/5 121/6/5
f 124/6/5 122/6/5 123/6/5
f 125/6/6 126/6/6 127/6/6
f 127/6/6 126/6/6 128/6/6
