# MagicaVoxel @ Ephtracy

# group
o 

# material
mtllib spaceship_inside-4.mtl
usemtl palette

# normals
vn -1 0 0
vn 1 0 0
vn 0 0 1
vn 0 0 -1
vn 0 -1 0
vn 0 1 0

# texcoords
vt 0.138672 0.5
vt 0.505859 0.5
vt 0.716797 0.5
vt 0.841797 0.5
vt 0.849609 0.5
vt 0.853516 0.5
vt 0.857422 0.5
vt 0.861328 0.5
vt 0.865234 0.5
vt 0.869141 0.5
vt 0.873047 0.5
vt 0.943359 0.5
vt 0.962891 0.5
vt 0.986328 0.5

# verts
v -0.25 -0.9 1.85
v -0.25 -0.9 -1.85
v -0.25 0.9 1.85
v -0.25 0.9 -1.85
v -0.15 -1 1.95
v -0.15 -1 -1.95
v -0.15 -0.9 1.85
v -0.15 -0.9 -1.85
v -0.15 0.9 1.85
v -0.15 0.9 -1.85
v -0.15 1 1.95
v -0.15 1 -1.95
v -0.05 -0.4 1.45
v -0.05 -0.4 1.25
v -0.05 -0.4 -0.45
v -0.05 -0.4 -0.65
v -0.05 -0.4 -1.25
v -0.05 -0.4 -1.45
v -0.05 -0.3 1.45
v -0.05 -0.3 1.25
v -0.05 -0.3 -0.45
v -0.05 -0.3 -0.65
v -0.05 -0.3 -1.25
v -0.05 -0.3 -1.45
v -0.05 -0.2 0.65
v -0.05 -0.2 0.45
v -0.05 -0.1 0.65
v -0.05 -0.1 0.45
v -0.05 0.6 1.75
v -0.05 0.6 1.65
v -0.05 0.7 1.75
v -0.05 0.7 1.65
v 0.05 -0.5 1.45
v 0.05 -0.5 1.25
v 0.05 -0.5 -0.45
v 0.05 -0.5 -0.65
v 0.05 -0.5 -1.25
v 0.05 -0.5 -1.45
v 0.05 -0.4 1.45
v 0.05 -0.4 1.25
v 0.05 -0.4 -0.45
v 0.05 -0.4 -0.65
v 0.05 -0.4 -1.25
v 0.05 -0.4 -1.45
v 0.05 -0.1 0.65
v 0.05 -0.1 0.45
v 0.05 0 0.65
v 0.05 0 0.45
v 0.15 -0.6 1.65
v 0.15 -0.6 1.05
v 0.15 -0.6 -0.25
v 0.15 -0.6 -0.85
v 0.15 -0.6 -1.05
v 0.15 -0.6 -1.65
v 0.15 -0.5 1.65
v 0.15 -0.5 1.45
v 0.15 -0.5 1.25
v 0.15 -0.5 1.05
v 0.15 -0.5 -0.25
v 0.15 -0.5 -0.45
v 0.15 -0.5 -0.65
v 0.15 -0.5 -0.85
v 0.15 -0.5 -1.05
v 0.15 -0.5 -1.25
v 0.15 -0.5 -1.45
v 0.15 -0.5 -1.65
v 0.15 0 0.85
v 0.15 0 0.65
v 0.15 0 0.45
v 0.15 0 0.25
v 0.15 0.1 0.85
v 0.15 0.1 0.25
v -0.15 -0.7 1.55
v -0.15 -0.7 1.15
v -0.15 -0.7 0.75
v -0.15 -0.7 0.35
v -0.15 -0.7 -0.35
v -0.15 -0.7 -0.75
v -0.15 -0.7 -1.15
v -0.15 -0.7 -1.55
v -0.15 -0.3 1.45
v -0.15 -0.3 1.25
v -0.15 -0.3 0.65
v -0.15 -0.3 0.45
v -0.15 -0.3 -0.45
v -0.15 -0.3 -0.65
v -0.15 -0.3 -1.25
v -0.15 -0.3 -1.45
v -0.15 -0.2 1.45
v -0.15 -0.2 1.25
v -0.15 -0.2 0.65
v -0.15 -0.2 0.45
v -0.15 -0.2 -0.45
v -0.15 -0.2 -0.65
v -0.15 -0.2 -1.25
v -0.15 -0.2 -1.45
v -0.15 0.2 1.55
v -0.15 0.2 1.15
v -0.15 0.2 0.75
v -0.15 0.2 0.35
v -0.15 0.2 -0.35
v -0.15 0.2 -0.75
v -0.15 0.2 -1.15
v -0.15 0.2 -1.55
v -0.15 0.6 1.75
v -0.15 0.6 1.65
v -0.15 0.7 1.75
v -0.15 0.7 1.65
v -0.05 -1 1.95
v -0.05 -1 -1.95
v -0.05 -0.9 1.85
v -0.05 -0.9 -1.85
v -0.05 -0.8 1.65
v -0.05 -0.8 1.05
v -0.05 -0.8 0.85
v -0.05 -0.8 0.25
v -0.05 -0.8 -0.25
v -0.05 -0.8 -0.85
v -0.05 -0.8 -1.05
v -0.05 -0.8 -1.65
v -0.05 -0.7 1.55
v -0.05 -0.7 1.15
v -0.05 -0.7 0.75
v -0.05 -0.7 0.35
v -0.05 -0.7 0.15
v -0.05 -0.7 0.05
v -0.05 -0.7 -0.0500002
v -0.05 -0.7 -0.35
v -0.05 -0.7 -0.75
v -0.05 -0.7 -1.15
v -0.05 -0.7 -1.55
v -0.05 -0.6 0.15
v -0.05 -0.6 0.05
v -0.05 -0.5 0.15
v -0.05 -0.5 0.05
v -0.05 -0.5 -0.0500002
v -0.05 -0.4 0.15
v -0.05 -0.4 0.05
v -0.05 -0.4 -0.0500002
v -0.05 -0.3 1.45
v -0.05 -0.3 1.25
v -0.05 -0.3 0.65
v -0.05 -0.3 0.45
v -0.05 -0.3 0.15
v -0.05 -0.3 0.05
v -0.05 -0.3 -0.45
v -0.05 -0.3 -0.65
v -0.05 -0.3 -1.25
v -0.05 -0.3 -1.45
v -0.05 -0.2 1.45
v -0.05 -0.2 1.25
v -0.05 -0.2 0.65
v -0.05 -0.2 0.45
v -0.05 -0.2 0.15
v -0.05 -0.2 0.05
v -0.05 -0.2 -0.45
v -0.05 -0.2 -0.65
v -0.05 -0.2 -1.25
v -0.05 -0.2 -1.45
v -0.05 -0.1 0.15
v -0.05 -0.1 0.05
v -0.05 0 0.15
v -0.05 0 0.05
v -0.05 0.1 0.15
v -0.05 0.1 0.05
v -0.05 0.2 1.55
v -0.05 0.2 1.15
v -0.05 0.2 0.75
v -0.05 0.2 0.35
v -0.05 0.2 0.15
v -0.05 0.2 0.05
v -0.05 0.2 -0.0500002
v -0.05 0.2 -0.35
v -0.05 0.2 -0.75
v -0.05 0.2 -1.15
v -0.05 0.2 -1.55
v -0.05 0.3 1.65
v -0.05 0.3 1.05
v -0.05 0.3 0.85
v -0.05 0.3 0.25
v -0.05 0.3 -0.25
v -0.05 0.3 -0.85
v -0.05 0.3 -1.05
v -0.05 0.3 -1.65
v -0.05 0.6 1.75
v -0.05 0.6 1.65
v -0.05 0.6 1.55
v -0.05 0.6 1.45
v -0.05 0.6 1.35
v -0.05 0.6 1.25
v -0.05 0.6 1.15
v -0.05 0.6 1.05
v -0.05 0.6 0.95
v -0.05 0.6 0.85
v -0.05 0.6 0.75
v -0.05 0.6 0.65
v -0.05 0.6 0.55
v -0.05 0.6 0.45
v -0.05 0.6 0.35
v -0.05 0.6 0.25
v -0.05 0.6 0.15
v -0.05 0.6 0.05
v -0.05 0.6 -0.0500002
v -0.05 0.6 -0.15
v -0.05 0.6 -0.25
v -0.05 0.6 -0.35
v -0.05 0.6 -0.45
v -0.05 0.6 -0.55
v -0.05 0.6 -0.65
v -0.05 0.6 -0.75
v -0.05 0.6 -0.85
v -0.05 0.6 -0.95
v -0.05 0.6 -1.05
v -0.05 0.6 -1.15
v -0.05 0.6 -1.25
v -0.05 0.6 -1.35
v -0.05 0.6 -1.45
v -0.05 0.6 -1.55
v -0.05 0.6 -1.65
v -0.05 0.6 -1.75
v -0.05 0.7 1.75
v -0.05 0.7 1.65
v -0.05 0.7 1.55
v -0.05 0.7 1.45
v -0.05 0.7 1.35
v -0.05 0.7 1.25
v -0.05 0.7 1.15
v -0.05 0.7 1.05
v -0.05 0.7 0.95
v -0.05 0.7 0.85
v -0.05 0.7 0.75
v -0.05 0.7 0.65
v -0.05 0.7 0.55
v -0.05 0.7 0.45
v -0.05 0.7 0.35
v -0.05 0.7 0.25
v -0.05 0.7 0.15
v -0.05 0.7 0.05
v -0.05 0.7 -0.0500002
v -0.05 0.7 -0.15
v -0.05 0.7 -0.25
v -0.05 0.7 -0.35
v -0.05 0.7 -0.45
v -0.05 0.7 -0.55
v -0.05 0.7 -0.65
v -0.05 0.7 -0.75
v -0.05 0.7 -0.85
v -0.05 0.7 -0.95
v -0.05 0.7 -1.05
v -0.05 0.7 -1.15
v -0.05 0.7 -1.25
v -0.05 0.7 -1.35
v -0.05 0.7 -1.45
v -0.05 0.7 -1.55
v -0.05 0.7 -1.65
v -0.05 0.7 -1.75
v -0.05 0.8 1.75
v -0.05 0.8 1.65
v -0.05 0.8 1.55
v -0.05 0.8 1.45
v -0.05 0.8 1.35
v -0.05 0.8 1.25
v -0.05 0.8 1.15
v -0.05 0.8 1.05
v -0.05 0.8 0.95
v -0.05 0.8 0.85
v -0.05 0.8 0.75
v -0.05 0.8 0.65
v -0.05 0.8 0.55
v -0.05 0.8 0.45
v -0.05 0.8 0.35
v -0.05 0.8 0.25
v -0.05 0.8 0.15
v -0.05 0.8 0.05
v -0.05 0.8 -0.0500002
v -0.05 0.8 -0.15
v -0.05 0.8 -0.25
v -0.05 0.8 -0.35
v -0.05 0.8 -0.45
v -0.05 0.8 -0.55
v -0.05 0.8 -0.65
v -0.05 0.8 -0.75
v -0.05 0.8 -0.85
v -0.05 0.8 -0.95
v -0.05 0.8 -1.05
v -0.05 0.8 -1.15
v -0.05 0.8 -1.25
v -0.05 0.8 -1.35
v -0.05 0.8 -1.45
v -0.05 0.8 -1.55
v -0.05 0.8 -1.65
v -0.05 0.8 -1.75
v -0.05 0.9 1.85
v -0.05 0.9 -1.85
v -0.05 1 1.95
v -0.05 1 -1.95
v 0.05 -0.5 0.05
v 0.05 -0.5 -0.0500002
v 0.05 -0.4 1.45
v 0.05 -0.4 1.25
v 0.05 -0.4 0.05
v 0.05 -0.4 -0.0500002
v 0.05 -0.4 -0.45
v 0.05 -0.4 -0.65
v 0.05 -0.4 -1.25
v 0.05 -0.4 -1.45
v 0.05 -0.3 1.45
v 0.05 -0.3 1.25
v 0.05 -0.3 -0.45
v 0.05 -0.3 -0.65
v 0.05 -0.3 -1.25
v 0.05 -0.3 -1.45
v 0.05 -0.2 0.65
v 0.05 -0.2 0.45
v 0.05 -0.1 0.65
v 0.05 -0.1 0.45
v 0.05 0.6 1.75
v 0.05 0.6 1.65
v 0.05 0.6 0.75
v 0.05 0.6 0.65
v 0.05 0.6 -0.65
v 0.05 0.6 -0.75
v 0.05 0.6 -1.45
v 0.05 0.6 -1.55
v 0.05 0.7 1.75
v 0.05 0.7 1.65
v 0.05 0.7 1.55
v 0.05 0.7 1.45
v 0.05 0.7 1.35
v 0.05 0.7 1.25
v 0.05 0.7 1.15
v 0.05 0.7 1.05
v 0.05 0.7 0.95
v 0.05 0.7 0.85
v 0.05 0.7 0.75
v 0.05 0.7 0.65
v 0.05 0.7 0.55
v 0.05 0.7 0.45
v 0.05 0.7 0.35
v 0.05 0.7 0.25
v 0.05 0.7 0.15
v 0.05 0.7 0.05
v 0.05 0.7 -0.0500002
v 0.05 0.7 -0.15
v 0.05 0.7 -0.25
v 0.05 0.7 -0.35
v 0.05 0.7 -0.45
v 0.05 0.7 -0.55
v 0.05 0.7 -0.65
v 0.05 0.7 -0.75
v 0.05 0.7 -0.85
v 0.05 0.7 -0.95
v 0.05 0.7 -1.05
v 0.05 0.7 -1.15
v 0.05 0.7 -1.25
v 0.05 0.7 -1.35
v 0.05 0.7 -1.45
v 0.05 0.7 -1.55
v 0.05 0.7 -1.65
v 0.05 0.7 -1.75
v 0.05 0.8 1.55
v 0.05 0.8 1.45
v 0.05 0.8 1.35
v 0.05 0.8 1.25
v 0.05 0.8 1.15
v 0.05 0.8 1.05
v 0.05 0.8 0.95
v 0.05 0.8 0.85
v 0.05 0.8 0.55
v 0.05 0.8 0.45
v 0.05 0.8 0.35
v 0.05 0.8 0.25
v 0.05 0.8 0.15
v 0.05 0.8 0.05
v 0.05 0.8 -0.0500002
v 0.05 0.8 -0.15
v 0.05 0.8 -0.25
v 0.05 0.8 -0.35
v 0.05 0.8 -0.45
v 0.05 0.8 -0.55
v 0.05 0.8 -0.85
v 0.05 0.8 -0.95
v 0.05 0.8 -1.05
v 0.05 0.8 -1.15
v 0.05 0.8 -1.25
v 0.05 0.8 -1.35
v 0.05 0.8 -1.65
v 0.05 0.8 -1.75
v 0.15 -0.5 1.45
v 0.15 -0.5 1.25
v 0.15 -0.5 -0.45
v 0.15 -0.5 -0.65
v 0.15 -0.5 -1.25
v 0.15 -0.5 -1.45
v 0.15 -0.4 1.45
v 0.15 -0.4 1.25
v 0.15 -0.4 -0.45
v 0.15 -0.4 -0.65
v 0.15 -0.4 -1.25
v 0.15 -0.4 -1.45
v 0.15 -0.1 0.65
v 0.15 -0.1 0.45
v 0.15 0 0.65
v 0.15 0 0.45
v 0.25 -0.6 1.65
v 0.25 -0.6 1.05
v 0.25 -0.6 -0.25
v 0.25 -0.6 -0.85
v 0.25 -0.6 -1.05
v 0.25 -0.6 -1.65
v 0.25 -0.5 1.65
v 0.25 -0.5 1.05
v 0.25 -0.5 -0.25
v 0.25 -0.5 -0.85
v 0.25 -0.5 -1.05
v 0.25 -0.5 -1.65
v 0.25 0 0.85
v 0.25 0 0.25
v 0.25 0.1 0.85
v 0.25 0.1 0.25
v -0.15 -1 1.95
v -0.15 1 1.95
v -0.05 -1 1.95
v -0.05 1 1.95
v -0.25 -0.9 1.85
v -0.25 0.9 1.85
v -0.15 -0.9 1.85
v -0.15 0.9 1.85
v -0.05 0.6 1.75
v -0.05 0.7 1.75
v 0.05 0.6 1.75
v 0.05 0.7 1.75
v -0.15 0.6 1.65
v -0.15 0.7 1.65
v -0.05 0.6 1.65
v -0.05 0.7 1.65
v 0.15 -0.6 1.65
v 0.15 -0.5 1.65
v 0.25 -0.6 1.65
v 0.25 -0.5 1.65
v -0.05 0.7 1.55
v -0.05 0.8 1.55
v 0.05 0.7 1.55
v 0.05 0.8 1.55
v -0.15 -0.3 1.45
v -0.15 -0.2 1.45
v -0.05 -0.4 1.45
v -0.05 -0.3 1.45
v -0.05 -0.2 1.45
v 0.05 -0.5 1.45
v 0.05 -0.4 1.45
v 0.05 -0.3 1.45
v 0.15 -0.5 1.45
v 0.15 -0.4 1.45
v -0.05 0.7 1.35
v -0.05 0.8 1.35
v 0.05 0.7 1.35
v 0.05 0.8 1.35
v -0.15 -0.7 1.15
v -0.15 0.2 1.15
v -0.05 -0.7 1.15
v -0.05 0.2 1.15
v -0.05 0.7 1.15
v -0.05 0.8 1.15
v 0.05 0.7 1.15
v 0.05 0.8 1.15
v -0.05 0.7 0.95
v -0.05 0.8 0.95
v 0.05 0.7 0.95
v 0.05 0.8 0.95
v 0.15 0 0.85
v 0.15 0.1 0.85
v 0.25 0 0.85
v 0.25 0.1 0.85
v -0.05 0.6 0.75
v -0.05 0.7 0.75
v 0.05 0.6 0.75
v 0.05 0.7 0.75
v -0.15 -0.3 0.65
v -0.15 -0.2 0.65
v -0.05 -0.3 0.65
v -0.05 -0.2 0.65
v -0.05 -0.1 0.65
v 0.05 -0.2 0.65
v 0.05 -0.1 0.65
v 0.05 0 0.65
v 0.15 -0.1 0.65
v 0.15 0 0.65
v -0.05 0.7 0.55
v -0.05 0.8 0.55
v 0.05 0.7 0.55
v 0.05 0.8 0.55
v -0.15 -0.7 0.35
v -0.15 0.2 0.35
v -0.05 -0.7 0.35
v -0.05 0.2 0.35
v -0.05 0.7 0.35
v -0.05 0.8 0.35
v 0.05 0.7 0.35
v 0.05 0.8 0.35
v -0.05 0.7 0.15
v -0.05 0.8 0.15
v 0.05 0.7 0.15
v 0.05 0.8 0.15
v -0.05 -0.5 0.05
v -0.05 -0.4 0.05
v 0.05 -0.5 0.05
v 0.05 -0.4 0.05
v -0.05 0.7 -0.0500002
v -0.05 0.8 -0.0500002
v 0.05 0.7 -0.0500002
v 0.05 0.8 -0.0500002
v -0.05 0.7 -0.25
v -0.05 0.8 -0.25
v 0.05 0.7 -0.25
v 0.05 0.8 -0.25
v 0.15 -0.6 -0.25
v 0.15 -0.5 -0.25
v 0.25 -0.6 -0.25
v 0.25 -0.5 -0.25
v -0.15 -0.3 -0.45
v -0.15 -0.2 -0.45
v -0.05 -0.4 -0.45
v -0.05 -0.3 -0.45
v -0.05 -0.2 -0.45
v -0.05 0.7 -0.45
v -0.05 0.8 -0.45
v 0.05 -0.5 -0.45
v 0.05 -0.4 -0.45
v 0.05 -0.3 -0.45
v 0.05 0.7 -0.45
v 0.05 0.8 -0.45
v 0.15 -0.5 -0.45
v 0.15 -0.4 -0.45
v -0.05 0.6 -0.65
v -0.05 0.7 -0.65
v 0.05 0.6 -0.65
v 0.05 0.7 -0.65
v -0.15 -0.7 -0.75
v -0.15 0.2 -0.75
v -0.05 -0.7 -0.75
v -0.05 0.2 -0.75
v -0.05 0.7 -0.85
v -0.05 0.8 -0.85
v 0.05 0.7 -0.85
v 0.05 0.8 -0.85
v -0.05 0.7 -1.05
v -0.05 0.8 -1.05
v 0.05 0.7 -1.05
v 0.05 0.8 -1.05
v 0.15 -0.6 -1.05
v 0.15 -0.5 -1.05
v 0.25 -0.6 -1.05
v 0.25 -0.5 -1.05
v -0.15 -0.3 -1.25
v -0.15 -0.2 -1.25
v -0.05 -0.4 -1.25
v -0.05 -0.3 -1.25
v -0.05 -0.2 -1.25
v -0.05 0.7 -1.25
v -0.05 0.8 -1.25
v 0.05 -0.5 -1.25
v 0.05 -0.4 -1.25
v 0.05 -0.3 -1.25
v 0.05 0.7 -1.25
v 0.05 0.8 -1.25
v 0.15 -0.5 -1.25
v 0.15 -0.4 -1.25
v -0.05 0.6 -1.45
v -0.05 0.7 -1.45
v 0.05 0.6 -1.45
v 0.05 0.7 -1.45
v -0.15 -0.7 -1.55
v -0.15 0.2 -1.55
v -0.05 -0.7 -1.55
v -0.05 0.2 -1.55
v -0.05 0.7 -1.65
v -0.05 0.8 -1.65
v 0.05 0.7 -1.65
v 0.05 0.8 -1.65
v -0.15 0.6 1.75
v -0.15 0.7 1.75
v -0.05 0.6 1.75
v -0.05 0.7 1.75
v -0.05 0.6 1.65
v -0.05 0.7 1.65
v 0.05 0.6 1.65
v 0.05 0.7 1.65
v -0.15 -0.7 1.55
v -0.15 0.2 1.55
v -0.05 -0.7 1.55
v -0.05 0.2 1.55
v -0.05 0.7 1.45
v -0.05 0.8 1.45
v 0.05 0.7 1.45
v 0.05 0.8 1.45
v -0.15 -0.3 1.25
v -0.15 -0.2 1.25
v -0.05 -0.4 1.25
v -0.05 -0.3 1.25
v -0.05 -0.2 1.25
v -0.05 0.7 1.25
v -0.05 0.8 1.25
v 0.05 -0.5 1.25
v 0.05 -0.4 1.25
v 0.05 -0.3 1.25
v 0.05 0.7 1.25
v 0.05 0.8 1.25
v 0.15 -0.5 1.25
v 0.15 -0.4 1.25
v -0.05 0.7 1.05
v -0.05 0.8 1.05
v 0.05 0.7 1.05
v 0.05 0.8 1.05
v 0.15 -0.6 1.05
v 0.15 -0.5 1.05
v 0.25 -0.6 1.05
v 0.25 -0.5 1.05
v -0.05 0.7 0.85
v -0.05 0.8 0.85
v 0.05 0.7 0.85
v 0.05 0.8 0.85
v -0.15 -0.7 0.75
v -0.15 0.2 0.75
v -0.05 -0.7 0.75
v -0.05 0.2 0.75
v -0.05 0.6 0.65
v -0.05 0.7 0.65
v 0.05 0.6 0.65
v 0.05 0.7 0.65
v -0.15 -0.3 0.45
v -0.15 -0.2 0.45
v -0.05 -0.3 0.45
v -0.05 -0.2 0.45
v -0.05 -0.1 0.45
v -0.05 0.7 0.45
v -0.05 0.8 0.45
v 0.05 -0.2 0.45
v 0.05 -0.1 0.45
v 0.05 0 0.45
v 0.05 0.7 0.45
v 0.05 0.8 0.45
v 0.15 -0.1 0.45
v 0.15 0 0.45
v -0.05 0.7 0.25
v -0.05 0.8 0.25
v 0.05 0.7 0.25
v 0.05 0.8 0.25
v 0.15 0 0.25
v 0.15 0.1 0.25
v 0.25 0 0.25
v 0.25 0.1 0.25
v -0.05 0.7 0.05
v -0.05 0.8 0.05
v 0.05 0.7 0.05
v 0.05 0.8 0.05
v -0.05 -0.5 -0.0500002
v -0.05 -0.4 -0.0500002
v 0.05 -0.5 -0.0500002
v 0.05 -0.4 -0.0500002
v -0.05 0.7 -0.15
v -0.05 0.8 -0.15
v 0.05 0.7 -0.15
v 0.05 0.8 -0.15
v -0.15 -0.7 -0.35
v -0.15 0.2 -0.35
v -0.05 -0.7 -0.35
v -0.05 0.2 -0.35
v -0.05 0.7 -0.35
v -0.05 0.8 -0.35
v 0.05 0.7 -0.35
v 0.05 0.8 -0.35
v -0.05 0.7 -0.55
v -0.05 0.8 -0.55
v 0.05 0.7 -0.55
v 0.05 0.8 -0.55
v -0.15 -0.3 -0.65
v -0.15 -0.2 -0.65
v -0.05 -0.4 -0.65
v -0.05 -0.3 -0.65
v -0.05 -0.2 -0.65
v 0.05 -0.5 -0.65
v 0.05 -0.4 -0.65
v 0.05 -0.3 -0.65
v 0.15 -0.5 -0.65
v 0.15 -0.4 -0.65
v -0.05 0.6 -0.75
v -0.05 0.7 -0.75
v 0.05 0.6 -0.75
v 0.05 0.7 -0.75
v 0.15 -0.6 -0.85
v 0.15 -0.5 -0.85
v 0.25 -0.6 -0.85
v 0.25 -0.5 -0.85
v -0.05 0.7 -0.95
v -0.05 0.8 -0.95
v 0.05 0.7 -0.95
v 0.05 0.8 -0.95
v -0.15 -0.7 -1.15
v -0.15 0.2 -1.15
v -0.05 -0.7 -1.15
v -0.05 0.2 -1.15
v -0.05 0.7 -1.15
v -0.05 0.8 -1.15
v 0.05 0.7 -1.15
v 0.05 0.8 -1.15
v -0.05 0.7 -1.35
v -0.05 0.8 -1.35
v 0.05 0.7 -1.35
v 0.05 0.8 -1.35
v -0.15 -0.3 -1.45
v -0.15 -0.2 -1.45
v -0.05 -0.4 -1.45
v -0.05 -0.3 -1.45
v -0.05 -0.2 -1.45
v 0.05 -0.5 -1.45
v 0.05 -0.4 -1.45
v 0.05 -0.3 -1.45
v 0.15 -0.5 -1.45
v 0.15 -0.4 -1.45
v -0.05 0.6 -1.55
v -0.05 0.7 -1.55
v 0.05 0.6 -1.55
v 0.05 0.7 -1.55
v 0.15 -0.6 -1.65
v 0.15 -0.5 -1.65
v 0.25 -0.6 -1.65
v 0.25 -0.5 -1.65
v -0.05 0.7 -1.75
v -0.05 0.8 -1.75
v 0.05 0.7 -1.75
v 0.05 0.8 -1.75
v -0.25 -0.9 -1.85
v -0.25 0.9 -1.85
v -0.15 -0.9 -1.85
v -0.15 0.9 -1.85
v -0.15 -1 -1.95
v -0.15 1 -1.95
v -0.05 -1 -1.95
v -0.05 1 -1.95
v -0.15 -1 1.95
v -0.05 -1 1.95
v -0.15 -1 -1.95
v -0.05 -1 -1.95
v -0.25 -0.9 1.85
v -0.15 -0.9 1.85
v -0.25 -0.9 -1.85
v -0.15 -0.9 -1.85
v 0.15 -0.6 1.65
v 0.25 -0.6 1.65
v 0.15 -0.6 1.05
v 0.25 -0.6 1.05
v 0.15 -0.6 -0.25
v 0.25 -0.6 -0.25
v 0.15 -0.6 -0.85
v 0.25 -0.6 -0.85
v 0.15 -0.6 -1.05
v 0.25 -0.6 -1.05
v 0.15 -0.6 -1.65
v 0.25 -0.6 -1.65
v 0.05 -0.5 1.45
v 0.15 -0.5 1.45
v 0.05 -0.5 1.25
v 0.15 -0.5 1.25
v -0.05 -0.5 0.05
v 0.05 -0.5 0.05
v -0.05 -0.5 -0.0500002
v 0.05 -0.5 -0.0500002
v 0.05 -0.5 -0.45
v 0.15 -0.5 -0.45
v 0.05 -0.5 -0.65
v 0.15 -0.5 -0.65
v 0.05 -0.5 -1.25
v 0.15 -0.5 -1.25
v 0.05 -0.5 -1.45
v 0.15 -0.5 -1.45
v -0.05 -0.4 1.45
v 0.05 -0.4 1.45
v -0.05 -0.4 1.25
v 0.05 -0.4 1.25
v -0.05 -0.4 -0.45
v 0.05 -0.4 -0.45
v -0.05 -0.4 -0.65
v 0.05 -0.4 -0.65
v -0.05 -0.4 -1.25
v 0.05 -0.4 -1.25
v -0.05 -0.4 -1.45
v 0.05 -0.4 -1.45
v -0.15 -0.3 1.45
v -0.05 -0.3 1.45
v -0.15 -0.3 1.25
v -0.05 -0.3 1.25
v -0.15 -0.3 0.65
v -0.05 -0.3 0.65
v -0.15 -0.3 0.45
v -0.05 -0.3 0.45
v -0.15 -0.3 -0.45
v -0.05 -0.3 -0.45
v -0.15 -0.3 -0.65
v -0.05 -0.3 -0.65
v -0.15 -0.3 -1.25
v -0.05 -0.3 -1.25
v -0.15 -0.3 -1.45
v -0.05 -0.3 -1.45
v -0.05 -0.2 0.65
v 0.05 -0.2 0.65
v -0.05 -0.2 0.45
v 0.05 -0.2 0.45
v 0.05 -0.1 0.65
v 0.15 -0.1 0.65
v 0.05 -0.1 0.45
v 0.15 -0.1 0.45
v 0.15 0 0.85
v 0.25 0 0.85
v 0.15 0 0.65
v 0.15 0 0.45
v 0.15 0 0.25
v 0.25 0 0.25
v -0.15 0.2 1.55
v -0.05 0.2 1.55
v -0.15 0.2 1.15
v -0.05 0.2 1.15
v -0.15 0.2 0.75
v -0.05 0.2 0.75
v -0.15 0.2 0.35
v -0.05 0.2 0.35
v -0.15 0.2 -0.35
v -0.05 0.2 -0.35
v -0.15 0.2 -0.75
v -0.05 0.2 -0.75
v -0.15 0.2 -1.15
v -0.05 0.2 -1.15
v -0.15 0.2 -1.55
v -0.05 0.2 -1.55
v -0.05 0.6 1.75
v 0.05 0.6 1.75
v -0.05 0.6 1.65
v 0.05 0.6 1.65
v -0.05 0.6 0.75
v 0.05 0.6 0.75
v -0.05 0.6 0.65
v 0.05 0.6 0.65
v -0.05 0.6 -0.65
v 0.05 0.6 -0.65
v -0.05 0.6 -0.75
v 0.05 0.6 -0.75
v -0.05 0.6 -1.45
v 0.05 0.6 -1.45
v -0.05 0.6 -1.55
v 0.05 0.6 -1.55
v -0.15 0.7 1.75
v -0.05 0.7 1.75
v -0.15 0.7 1.65
v -0.05 0.7 1.65
v -0.05 0.7 1.55
v 0.05 0.7 1.55
v -0.05 0.7 1.45
v 0.05 0.7 1.45
v -0.05 0.7 1.35
v 0.05 0.7 1.35
v -0.05 0.7 1.25
v 0.05 0.7 1.25
v -0.05 0.7 1.15
v 0.05 0.7 1.15
v -0.05 0.7 1.05
v 0.05 0.7 1.05
v -0.05 0.7 0.95
v 0.05 0.7 0.95
v -0.05 0.7 0.85
v 0.05 0.7 0.85
v -0.05 0.7 0.55
v 0.05 0.7 0.55
v -0.05 0.7 0.45
v 0.05 0.7 0.45
v -0.05 0.7 0.35
v 0.05 0.7 0.35
v -0.05 0.7 0.25
v 0.05 0.7 0.25
v -0.05 0.7 0.15
v 0.05 0.7 0.15
v -0.05 0.7 0.05
v 0.05 0.7 0.05
v -0.05 0.7 -0.0500002
v 0.05 0.7 -0.0500002
v -0.05 0.7 -0.15
v 0.05 0.7 -0.15
v -0.05 0.7 -0.25
v 0.05 0.7 -0.25
v -0.05 0.7 -0.35
v 0.05 0.7 -0.35
v -0.05 0.7 -0.45
v 0.05 0.7 -0.45
v -0.05 0.7 -0.55
v 0.05 0.7 -0.55
v -0.05 0.7 -0.85
v 0.05 0.7 -0.85
v -0.05 0.7 -0.95
v 0.05 0.7 -0.95
v -0.05 0.7 -1.05
v 0.05 0.7 -1.05
v -0.05 0.7 -1.15
v 0.05 0.7 -1.15
v -0.05 0.7 -1.25
v 0.05 0.7 -1.25
v -0.05 0.7 -1.35
v 0.05 0.7 -1.35
v -0.05 0.7 -1.65
v 0.05 0.7 -1.65
v -0.05 0.7 -1.75
v 0.05 0.7 -1.75
v -0.15 -0.7 1.55
v -0.05 -0.7 1.55
v -0.15 -0.7 1.15
v -0.05 -0.7 1.15
v -0.15 -0.7 0.75
v -0.05 -0.7 0.75
v -0.15 -0.7 0.35
v -0.05 -0.7 0.35
v -0.15 -0.7 -0.35
v -0.05 -0.7 -0.35
v -0.15 -0.7 -0.75
v -0.05 -0.7 -0.75
v -0.15 -0.7 -1.15
v -0.05 -0.7 -1.15
v -0.15 -0.7 -1.55
v -0.05 -0.7 -1.55
v 0.15 -0.5 1.65
v 0.25 -0.5 1.65
v 0.15 -0.5 1.45
v 0.15 -0.5 1.25
v 0.15 -0.5 1.05
v 0.25 -0.5 1.05
v 0.15 -0.5 -0.25
v 0.25 -0.5 -0.25
v 0.15 -0.5 -0.45
v 0.15 -0.5 -0.65
v 0.15 -0.5 -0.85
v 0.25 -0.5 -0.85
v 0.15 -0.5 -1.05
v 0.25 -0.5 -1.05
v 0.15 -0.5 -1.25
v 0.15 -0.5 -1.45
v 0.15 -0.5 -1.65
v 0.25 -0.5 -1.65
v 0.05 -0.4 1.45
v 0.15 -0.4 1.45
v 0.05 -0.4 1.25
v 0.15 -0.4 1.25
v -0.05 -0.4 0.05
v 0.05 -0.4 0.05
v -0.05 -0.4 -0.0500002
v 0.05 -0.4 -0.0500002
v 0.05 -0.4 -0.45
v 0.15 -0.4 -0.45
v 0.05 -0.4 -0.65
v 0.15 -0.4 -0.65
v 0.05 -0.4 -1.25
v 0.15 -0.4 -1.25
v 0.05 -0.4 -1.45
v 0.15 -0.4 -1.45
v -0.05 -0.3 1.45
v 0.05 -0.3 1.45
v -0.05 -0.3 1.25
v 0.05 -0.3 1.25
v -0.05 -0.3 -0.45
v 0.05 -0.3 -0.45
v -0.05 -0.3 -0.65
v 0.05 -0.3 -0.65
v -0.05 -0.3 -1.25
v 0.05 -0.3 -1.25
v -0.05 -0.3 -1.45
v 0.05 -0.3 -1.45
v -0.15 -0.2 1.45
v -0.05 -0.2 1.45
v -0.15 -0.2 1.25
v -0.05 -0.2 1.25
v -0.15 -0.2 0.65
v -0.05 -0.2 0.65
v -0.15 -0.2 0.45
v -0.05 -0.2 0.45
v -0.15 -0.2 -0.45
v -0.05 -0.2 -0.45
v -0.15 -0.2 -0.65
v -0.05 -0.2 -0.65
v -0.15 -0.2 -1.25
v -0.05 -0.2 -1.25
v -0.15 -0.2 -1.45
v -0.05 -0.2 -1.45
v -0.05 -0.1 0.65
v 0.05 -0.1 0.65
v -0.05 -0.1 0.45
v 0.05 -0.1 0.45
v 0.05 0 0.65
v 0.15 0 0.65
v 0.05 0 0.45
v 0.15 0 0.45
v 0.15 0.1 0.85
v 0.25 0.1 0.85
v 0.15 0.1 0.25
v 0.25 0.1 0.25
v -0.15 0.6 1.75
v -0.05 0.6 1.75
v -0.15 0.6 1.65
v -0.05 0.6 1.65
v -0.05 0.7 1.75
v 0.05 0.7 1.75
v -0.05 0.7 1.65
v 0.05 0.7 1.65
v -0.05 0.7 0.75
v 0.05 0.7 0.75
v -0.05 0.7 0.65
v 0.05 0.7 0.65
v -0.05 0.7 -0.65
v 0.05 0.7 -0.65
v -0.05 0.7 -0.75
v 0.05 0.7 -0.75
v -0.05 0.7 -1.45
v 0.05 0.7 -1.45
v -0.05 0.7 -1.55
v 0.05 0.7 -1.55
v -0.05 0.8 1.55
v 0.05 0.8 1.55
v -0.05 0.8 1.45
v 0.05 0.8 1.45
v -0.05 0.8 1.35
v 0.05 0.8 1.35
v -0.05 0.8 1.25
v 0.05 0.8 1.25
v -0.05 0.8 1.15
v 0.05 0.8 1.15
v -0.05 0.8 1.05
v 0.05 0.8 1.05
v -0.05 0.8 0.95
v 0.05 0.8 0.95
v -0.05 0.8 0.85
v 0.05 0.8 0.85
v -0.05 0.8 0.55
v 0.05 0.8 0.55
v -0.05 0.8 0.45
v 0.05 0.8 0.45
v -0.05 0.8 0.35
v 0.05 0.8 0.35
v -0.05 0.8 0.25
v 0.05 0.8 0.25
v -0.05 0.8 0.15
v 0.05 0.8 0.15
v -0.05 0.8 0.05
v 0.05 0.8 0.05
v -0.05 0.8 -0.0500002
v 0.05 0.8 -0.0500002
v -0.05 0.8 -0.15
v 0.05 0.8 -0.15
v -0.05 0.8 -0.25
v 0.05 0.8 -0.25
v -0.05 0.8 -0.35
v 0.05 0.8 -0.35
v -0.05 0.8 -0.45
v 0.05 0.8 -0.45
v -0.05 0.8 -0.55
v 0.05 0.8 -0.55
v -0.05 0.8 -0.85
v 0.05 0.8 -0.85
v -0.05 0.8 -0.95
v 0.05 0.8 -0.95
v -0.05 0.8 -1.05
v 0.05 0.8 -1.05
v -0.05 0.8 -1.15
v 0.05 0.8 -1.15
v -0.05 0.8 -1.25
v 0.05 0.8 -1.25
v -0.05 0.8 -1.35
v 0.05 0.8 -1.35
v -0.05 0.8 -1.65
v 0.05 0.8 -1.65
v -0.05 0.8 -1.75
v 0.05 0.8 -1.75
v -0.25 0.9 1.85
v -0.15 0.9 1.85
v -0.25 0.9 -1.85
v -0.15 0.9 -1.85
v -0.15 1 1.95
v -0.05 1 1.95
v -0.15 1 -1.95
v -0.05 1 -1.95

# faces
f 3/13/1 2/13/1 1/13/1
f 4/13/1 2/13/1 3/13/1
f 7/13/1 6/13/1 5/13/1
f 8/13/1 6/13/1 7/13/1
f 9/13/1 7/13/1 5/13/1
f 10/13/1 6/13/1 8/13/1
f 11/13/1 9/13/1 5/13/1
f 11/13/1 10/13/1 9/13/1
f 12/13/1 6/13/1 10/13/1
f 12/13/1 10/13/1 11/13/1
f 19/14/1 14/14/1 13/14/1
f 20/14/1 14/14/1 19/14/1
f 21/14/1 16/14/1 15/14/1
f 22/14/1 16/14/1 21/14/1
f 23/14/1 18/14/1 17/14/1
f 24/14/1 18/14/1 23/14/1
f 27/14/1 26/14/1 25/14/1
f 28/14/1 26/14/1 27/14/1
f 31/4/1 30/4/1 29/4/1
f 32/4/1 30/4/1 31/4/1
f 39/14/1 34/14/1 33/14/1
f 40/14/1 34/14/1 39/14/1
f 41/14/1 36/14/1 35/14/1
f 42/14/1 36/14/1 41/14/1
f 43/14/1 38/14/1 37/14/1
f 44/14/1 38/14/1 43/14/1
f 47/14/1 46/14/1 45/14/1
f 48/14/1 46/14/1 47/14/1
f 55/14/1 50/14/1 49/14/1
f 56/14/1 50/14/1 55/14/1
f 57/14/1 50/14/1 56/14/1
f 58/14/1 50/14/1 57/14/1
f 59/14/1 52/14/1 51/14/1
f 60/14/1 52/14/1 59/14/1
f 61/14/1 52/14/1 60/14/1
f 62/14/1 52/14/1 61/14/1
f 63/14/1 54/14/1 53/14/1
f 64/14/1 54/14/1 63/14/1
f 65/14/1 54/14/1 64/14/1
f 66/14/1 54/14/1 65/14/1
f 71/14/1 68/14/1 67/14/1
f 71/14/1 70/14/1 69/14/1
f 71/14/1 69/14/1 68/14/1
f 72/14/1 70/14/1 71/14/1
f 73/13/2 74/13/2 81/13/2
f 81/13/2 74/13/2 82/13/2
f 75/13/2 76/13/2 83/13/2
f 83/13/2 76/13/2 84/13/2
f 77/13/2 78/13/2 85/13/2
f 85/13/2 78/13/2 86/13/2
f 79/13/2 80/13/2 87/13/2
f 87/13/2 80/13/2 88/13/2
f 73/13/2 81/13/2 89/13/2
f 82/13/2 74/13/2 90/13/2
f 75/13/2 83/13/2 91/13/2
f 84/13/2 76/13/2 92/13/2
f 77/13/2 85/13/2 93/13/2
f 86/13/2 78/13/2 94/13/2
f 79/13/2 87/13/2 95/13/2
f 88/13/2 80/13/2 96/13/2
f 73/13/2 89/13/2 97/13/2
f 89/13/2 90/13/2 97/13/2
f 90/13/2 74/13/2 98/13/2
f 97/13/2 90/13/2 98/13/2
f 75/13/2 91/13/2 99/13/2
f 91/13/2 92/13/2 99/13/2
f 92/13/2 76/13/2 100/13/2
f 99/13/2 92/13/2 100/13/2
f 77/13/2 93/13/2 101/13/2
f 93/13/2 94/13/2 101/13/2
f 94/13/2 78/13/2 102/13/2
f 101/13/2 94/13/2 102/13/2
f 95/13/2 96/13/2 103/13/2
f 79/13/2 95/13/2 103/13/2
f 96/13/2 80/13/2 104/13/2
f 103/13/2 96/13/2 104/13/2
f 105/13/2 106/13/2 107/13/2
f 107/13/2 106/13/2 108/13/2
f 109/13/2 110/13/2 111/13/2
f 111/13/2 110/13/2 112/13/2
f 111/12/2 112/12/2 113/12/2
f 113/12/2 112/12/2 114/12/2
f 114/12/2 112/12/2 115/12/2
f 115/12/2 112/12/2 116/12/2
f 116/12/2 112/12/2 117/12/2
f 117/12/2 112/12/2 118/12/2
f 118/12/2 112/12/2 119/12/2
f 119/12/2 112/12/2 120/12/2
f 113/2/2 114/2/2 121/2/2
f 121/2/2 114/2/2 122/2/2
f 115/2/2 116/2/2 123/2/2
f 123/2/2 116/2/2 124/2/2
f 116/12/2 117/12/2 125/12/2
f 125/12/2 117/12/2 126/12/2
f 126/12/2 117/12/2 127/12/2
f 117/2/2 118/2/2 128/2/2
f 128/2/2 118/2/2 129/2/2
f 119/2/2 120/2/2 130/2/2
f 130/2/2 120/2/2 131/2/2
f 116/12/2 125/12/2 132/12/2
f 125/1/2 126/1/2 132/1/2
f 126/2/2 127/2/2 133/2/2
f 132/1/2 126/1/2 133/1/2
f 116/12/2 132/12/2 134/12/2
f 132/4/2 133/4/2 134/4/2
f 133/2/2 127/2/2 135/2/2
f 134/4/2 133/4/2 135/4/2
f 127/12/2 117/12/2 136/12/2
f 135/2/2 127/2/2 136/2/2
f 134/5/2 135/5/2 137/5/2
f 116/12/2 134/12/2 137/12/2
f 137/5/2 135/5/2 138/5/2
f 136/12/2 117/12/2 139/12/2
f 137/6/2 138/6/2 144/6/2
f 116/12/2 137/12/2 144/12/2
f 138/2/2 139/2/2 145/2/2
f 144/6/2 138/6/2 145/6/2
f 140/14/2 141/14/2 150/14/2
f 150/14/2 141/14/2 151/14/2
f 142/14/2 143/14/2 152/14/2
f 152/14/2 143/14/2 153/14/2
f 116/12/2 144/12/2 154/12/2
f 144/7/2 145/7/2 154/7/2
f 145/2/2 139/2/2 155/2/2
f 154/7/2 145/7/2 155/7/2
f 146/14/2 147/14/2 156/14/2
f 156/14/2 147/14/2 157/14/2
f 148/14/2 149/14/2 158/14/2
f 158/14/2 149/14/2 159/14/2
f 116/12/2 154/12/2 160/12/2
f 154/8/2 155/8/2 160/8/2
f 155/2/2 139/2/2 161/2/2
f 160/8/2 155/8/2 161/8/2
f 116/12/2 160/12/2 162/12/2
f 160/9/2 161/9/2 162/9/2
f 161/2/2 139/2/2 163/2/2
f 162/9/2 161/9/2 163/9/2
f 116/12/2 162/12/2 164/12/2
f 162/10/2 163/10/2 164/10/2
f 163/2/2 139/2/2 165/2/2
f 164/10/2 163/10/2 165/10/2
f 113/2/2 121/2/2 166/2/2
f 122/2/2 114/2/2 167/2/2
f 115/2/2 123/2/2 168/2/2
f 124/2/2 116/2/2 169/2/2
f 116/12/2 164/12/2 170/12/2
f 164/11/2 165/11/2 170/11/2
f 165/2/2 139/2/2 171/2/2
f 170/11/2 165/11/2 171/11/2
f 139/12/2 117/12/2 172/12/2
f 171/2/2 139/2/2 172/2/2
f 117/2/2 128/2/2 173/2/2
f 129/2/2 118/2/2 174/2/2
f 119/2/2 130/2/2 175/2/2
f 131/2/2 120/2/2 176/2/2
f 111/12/2 113/12/2 177/12/2
f 113/2/2 166/2/2 177/2/2
f 166/2/2 167/2/2 177/2/2
f 114/12/2 115/12/2 178/12/2
f 177/2/2 167/2/2 178/2/2
f 167/2/2 114/2/2 178/2/2
f 115/2/2 168/2/2 179/2/2
f 178/12/2 115/12/2 179/12/2
f 168/2/2 169/2/2 179/2/2
f 116/12/2 170/12/2 180/12/2
f 179/2/2 169/2/2 180/2/2
f 170/12/2 171/12/2 180/12/2
f 171/12/2 172/12/2 180/12/2
f 169/2/2 116/2/2 180/2/2
f 117/2/2 173/2/2 181/2/2
f 180/12/2 172/12/2 181/12/2
f 173/2/2 174/2/2 181/2/2
f 172/12/2 117/12/2 181/12/2
f 118/12/2 119/12/2 182/12/2
f 181/2/2 174/2/2 182/2/2
f 174/2/2 118/2/2 182/2/2
f 175/2/2 176/2/2 183/2/2
f 182/12/2 119/12/2 183/12/2
f 119/2/2 175/2/2 183/2/2
f 120/12/2 112/12/2 184/12/2
f 183/2/2 176/2/2 184/2/2
f 176/2/2 120/2/2 184/2/2
f 181/12/2 182/12/2 185/12/2
f 182/12/2 183/12/2 185/12/2
f 183/12/2 184/12/2 185/12/2
f 111/12/2 177/12/2 185/12/2
f 177/12/2 178/12/2 185/12/2
f 180/12/2 181/12/2 185/12/2
f 179/12/2 180/12/2 185/12/2
f 178/12/2 179/12/2 185/12/2
f 185/12/2 184/12/2 186/12/2
f 186/12/2 184/12/2 187/12/2
f 187/12/2 184/12/2 188/12/2
f 188/12/2 184/12/2 189/12/2
f 189/12/2 184/12/2 190/12/2
f 190/12/2 184/12/2 191/12/2
f 191/12/2 184/12/2 192/12/2
f 192/12/2 184/12/2 193/12/2
f 193/12/2 184/12/2 194/12/2
f 194/12/2 184/12/2 195/12/2
f 195/12/2 184/12/2 196/12/2
f 196/12/2 184/12/2 197/12/2
f 197/12/2 184/12/2 198/12/2
f 198/12/2 184/12/2 199/12/2
f 199/12/2 184/12/2 200/12/2
f 200/12/2 184/12/2 201/12/2
f 201/12/2 184/12/2 202/12/2
f 202/12/2 184/12/2 203/12/2
f 203/12/2 184/12/2 204/12/2
f 204/12/2 184/12/2 205/12/2
f 205/12/2 184/12/2 206/12/2
f 206/12/2 184/12/2 207/12/2
f 207/12/2 184/12/2 208/12/2
f 208/12/2 184/12/2 209/12/2
f 209/12/2 184/12/2 210/12/2
f 210/12/2 184/12/2 211/12/2
f 211/12/2 184/12/2 212/12/2
f 212/12/2 184/12/2 213/12/2
f 213/12/2 184/12/2 214/12/2
f 214/12/2 184/12/2 215/12/2
f 215/12/2 184/12/2 216/12/2
f 216/12/2 184/12/2 217/12/2
f 217/12/2 184/12/2 218/12/2
f 184/12/2 112/12/2 219/12/2
f 218/12/2 184/12/2 219/12/2
f 219/12/2 112/12/2 220/12/2
f 111/12/2 185/12/2 221/12/2
f 186/12/2 187/12/2 222/12/2
f 187/2/2 188/2/2 223/2/2
f 222/12/2 187/12/2 223/12/2
f 188/12/2 189/12/2 224/12/2
f 223/2/2 188/2/2 224/2/2
f 189/2/2 190/2/2 225/2/2
f 224/12/2 189/12/2 225/12/2
f 190/12/2 191/12/2 226/12/2
f 225/2/2 190/2/2 226/2/2
f 191/2/2 192/2/2 227/2/2
f 226/12/2 191/12/2 227/12/2
f 192/12/2 193/12/2 228/12/2
f 227/2/2 192/2/2 228/2/2
f 193/2/2 194/2/2 229/2/2
f 228/12/2 193/12/2 229/12/2
f 194/12/2 195/12/2 230/12/2
f 229/2/2 194/2/2 230/2/2
f 230/12/2 195/12/2 231/12/2
f 196/12/2 197/12/2 232/12/2
f 197/2/2 198/2/2 233/2/2
f 232/12/2 197/12/2 233/12/2
f 198/12/2 199/12/2 234/12/2
f 233/2/2 198/2/2 234/2/2
f 199/2/2 200/2/2 235/2/2
f 234/12/2 199/12/2 235/12/2
f 200/12/2 201/12/2 236/12/2
f 235/2/2 200/2/2 236/2/2
f 201/2/2 202/2/2 237/2/2
f 236/12/2 201/12/2 237/12/2
f 202/12/2 203/12/2 238/12/2
f 237/2/2 202/2/2 238/2/2
f 203/2/2 204/2/2 239/2/2
f 238/12/2 203/12/2 239/12/2
f 204/12/2 205/12/2 240/12/2
f 239/2/2 204/2/2 240/2/2
f 205/2/2 206/2/2 241/2/2
f 240/12/2 205/12/2 241/12/2
f 206/12/2 207/12/2 242/12/2
f 241/2/2 206/2/2 242/2/2
f 207/2/2 208/2/2 243/2/2
f 242/12/2 207/12/2 243/12/2
f 208/12/2 209/12/2 244/12/2
f 243/2/2 208/2/2 244/2/2
f 244/12/2 209/12/2 245/12/2
f 210/12/2 211/12/2 246/12/2
f 211/2/2 212/2/2 247/2/2
f 246/12/2 211/12/2 247/12/2
f 212/12/2 213/12/2 248/12/2
f 247/2/2 212/2/2 248/2/2
f 213/2/2 214/2/2 249/2/2
f 248/12/2 213/12/2 249/12/2
f 214/12/2 215/12/2 250/12/2
f 249/2/2 214/2/2 250/2/2
f 215/2/2 216/2/2 251/2/2
f 250/12/2 215/12/2 251/12/2
f 216/12/2 217/12/2 252/12/2
f 251/2/2 216/2/2 252/2/2
f 252/12/2 217/12/2 253/12/2
f 218/12/2 219/12/2 254/12/2
f 219/2/2 220/2/2 255/2/2
f 254/12/2 219/12/2 255/12/2
f 220/12/2 112/12/2 256/12/2
f 255/2/2 220/2/2 256/2/2
f 111/12/2 221/12/2 257/12/2
f 221/2/2 222/2/2 257/2/2
f 222/12/2 223/12/2 258/12/2
f 257/2/2 222/2/2 258/2/2
f 258/12/2 223/12/2 259/12/2
f 224/12/2 225/12/2 260/12/2
f 260/12/2 225/12/2 261/12/2
f 226/12/2 227/12/2 262/12/2
f 262/12/2 227/12/2 263/12/2
f 228/12/2 229/12/2 264/12/2
f 264/12/2 229/12/2 265/12/2
f 230/12/2 231/12/2 266/12/2
f 231/2/2 232/2/2 267/2/2
f 266/12/2 231/12/2 267/12/2
f 232/12/2 233/12/2 268/12/2
f 267/2/2 232/2/2 268/2/2
f 268/12/2 233/12/2 269/12/2
f 234/12/2 235/12/2 270/12/2
f 270/12/2 235/12/2 271/12/2
f 236/12/2 237/12/2 272/12/2
f 272/12/2 237/12/2 273/12/2
f 238/12/2 239/12/2 274/12/2
f 274/12/2 239/12/2 275/12/2
f 240/12/2 241/12/2 276/12/2
f 276/12/2 241/12/2 277/12/2
f 242/12/2 243/12/2 278/12/2
f 278/12/2 243/12/2 279/12/2
f 244/12/2 245/12/2 280/12/2
f 245/2/2 246/2/2 281/2/2
f 280/12/2 245/12/2 281/12/2
f 246/12/2 247/12/2 282/12/2
f 281/2/2 246/2/2 282/2/2
f 282/12/2 247/12/2 283/12/2
f 248/12/2 249/12/2 284/12/2
f 284/12/2 249/12/2 285/12/2
f 250/12/2 251/12/2 286/12/2
f 286/12/2 251/12/2 287/12/2
f 252/12/2 253/12/2 288/12/2
f 253/2/2 254/2/2 289/2/2
f 288/12/2 253/12/2 289/12/2
f 254/12/2 255/12/2 290/12/2
f 289/2/2 254/2/2 290/2/2
f 290/12/2 255/12/2 291/12/2
f 256/12/2 112/12/2 292/12/2
f 109/13/2 111/13/2 293/13/2
f 291/12/2 292/12/2 293/12/2
f 288/12/2 289/12/2 293/12/2
f 287/12/2 288/12/2 293/12/2
f 289/12/2 290/12/2 293/12/2
f 286/12/2 287/12/2 293/12/2
f 285/12/2 286/12/2 293/12/2
f 290/12/2 291/12/2 293/12/2
f 283/12/2 284/12/2 293/12/2
f 111/12/2 257/12/2 293/12/2
f 281/12/2 282/12/2 293/12/2
f 258/12/2 259/12/2 293/12/2
f 277/12/2 278/12/2 293/12/2
f 260/12/2 261/12/2 293/12/2
f 275/12/2 276/12/2 293/12/2
f 262/12/2 263/12/2 293/12/2
f 273/12/2 274/12/2 293/12/2
f 284/12/2 285/12/2 293/12/2
f 271/12/2 272/12/2 293/12/2
f 264/12/2 265/12/2 293/12/2
f 269/12/2 270/12/2 293/12/2
f 265/12/2 266/12/2 293/12/2
f 267/12/2 268/12/2 293/12/2
f 266/12/2 267/12/2 293/12/2
f 263/12/2 264/12/2 293/12/2
f 282/12/2 283/12/2 293/12/2
f 261/12/2 262/12/2 293/12/2
f 268/12/2 269/12/2 293/12/2
f 259/12/2 260/12/2 293/12/2
f 280/12/2 281/12/2 293/12/2
f 257/12/2 258/12/2 293/12/2
f 276/12/2 277/12/2 293/12/2
f 274/12/2 275/12/2 293/12/2
f 278/12/2 279/12/2 293/12/2
f 272/12/2 273/12/2 293/12/2
f 279/12/2 280/12/2 293/12/2
f 270/12/2 271/12/2 293/12/2
f 292/12/2 112/12/2 294/12/2
f 293/12/2 292/12/2 294/12/2
f 112/13/2 110/13/2 294/13/2
f 109/13/2 293/13/2 295/13/2
f 293/13/2 294/13/2 295/13/2
f 294/13/2 110/13/2 296/13/2
f 295/13/2 294/13/2 296/13/2
f 297/3/2 298/3/2 301/3/2
f 301/3/2 298/3/2 302/3/2
f 299/14/2 300/14/2 307/14/2
f 307/14/2 300/14/2 308/14/2
f 303/14/2 304/14/2 309/14/2
f 309/14/2 304/14/2 310/14/2
f 305/14/2 306/14/2 311/14/2
f 311/14/2 306/14/2 312/14/2
f 313/14/2 314/14/2 315/14/2
f 315/14/2 314/14/2 316/14/2
f 317/4/2 318/4/2 325/4/2
f 325/4/2 318/4/2 326/4/2
f 319/4/2 320/4/2 335/4/2
f 335/4/2 320/4/2 336/4/2
f 321/4/2 322/4/2 349/4/2
f 349/4/2 322/4/2 350/4/2
f 323/4/2 324/4/2 357/4/2
f 357/4/2 324/4/2 358/4/2
f 327/3/2 328/3/2 361/3/2
f 361/3/2 328/3/2 362/3/2
f 329/3/2 330/3/2 363/3/2
f 363/3/2 330/3/2 364/3/2
f 331/3/2 332/3/2 365/3/2
f 365/3/2 332/3/2 366/3/2
f 333/3/2 334/3/2 367/3/2
f 367/3/2 334/3/2 368/3/2
f 337/3/2 338/3/2 369/3/2
f 369/3/2 338/3/2 370/3/2
f 339/3/2 340/3/2 371/3/2
f 371/3/2 340/3/2 372/3/2
f 341/3/2 342/3/2 373/3/2
f 373/3/2 342/3/2 374/3/2
f 343/3/2 344/3/2 375/3/2
f 375/3/2 344/3/2 376/3/2
f 345/3/2 346/3/2 377/3/2
f 377/3/2 346/3/2 378/3/2
f 347/3/2 348/3/2 379/3/2
f 379/3/2 348/3/2 380/3/2
f 351/3/2 352/3/2 381/3/2
f 381/3/2 352/3/2 382/3/2
f 353/3/2 354/3/2 383/3/2
f 383/3/2 354/3/2 384/3/2
f 355/3/2 356/3/2 385/3/2
f 385/3/2 356/3/2 386/3/2
f 359/3/2 360/3/2 387/3/2
f 387/3/2 360/3/2 388/3/2
f 389/14/2 390/14/2 395/14/2
f 395/14/2 390/14/2 396/14/2
f 391/14/2 392/14/2 397/14/2
f 397/14/2 392/14/2 398/14/2
f 393/14/2 394/14/2 399/14/2
f 399/14/2 394/14/2 400/14/2
f 401/14/2 402/14/2 403/14/2
f 403/14/2 402/14/2 404/14/2
f 405/14/2 406/14/2 411/14/2
f 411/14/2 406/14/2 412/14/2
f 407/14/2 408/14/2 413/14/2
f 413/14/2 408/14/2 414/14/2
f 409/14/2 410/14/2 415/14/2
f 415/14/2 410/14/2 416/14/2
f 417/14/2 418/14/2 419/14/2
f 419/14/2 418/14/2 420/14/2
f 423/13/3 422/13/3 421/13/3
f 424/13/3 422/13/3 423/13/3
f 427/13/3 426/13/3 425/13/3
f 428/13/3 426/13/3 427/13/3
f 431/4/3 430/4/3 429/4/3
f 432/4/3 430/4/3 431/4/3
f 435/12/3 434/12/3 433/12/3
f 436/12/3 434/12/3 435/12/3
f 439/14/3 438/14/3 437/14/3
f 440/14/3 438/14/3 439/14/3
f 443/3/3 442/3/3 441/3/3
f 444/3/3 442/3/3 443/3/3
f 448/14/3 446/14/3 445/14/3
f 449/14/3 446/14/3 448/14/3
f 451/14/3 448/14/3 447/14/3
f 452/14/3 448/14/3 451/14/3
f 453/14/3 451/14/3 450/14/3
f 454/14/3 451/14/3 453/14/3
f 457/3/3 456/3/3 455/3/3
f 458/3/3 456/3/3 457/3/3
f 461/2/3 460/2/3 459/2/3
f 462/2/3 460/2/3 461/2/3
f 465/3/3 464/3/3 463/3/3
f 466/3/3 464/3/3 465/3/3
f 469/3/3 468/3/3 467/3/3
f 470/3/3 468/3/3 469/3/3
f 473/14/3 472/14/3 471/14/3
f 474/14/3 472/14/3 473/14/3
f 477/4/3 476/4/3 475/4/3
f 478/4/3 476/4/3 477/4/3
f 481/14/3 480/14/3 479/14/3
f 482/14/3 480/14/3 481/14/3
f 484/14/3 483/14/3 482/14/3
f 485/14/3 483/14/3 484/14/3
f 487/14/3 486/14/3 485/14/3
f 488/14/3 486/14/3 487/14/3
f 491/3/3 490/3/3 489/3/3
f 492/3/3 490/3/3 491/3/3
f 495/2/3 494/2/3 493/2/3
f 496/2/3 494/2/3 495/2/3
f 499/3/3 498/3/3 497/3/3
f 500/3/3 498/3/3 499/3/3
f 503/3/3 502/3/3 501/3/3
f 504/3/3 502/3/3 503/3/3
f 507/3/3 506/3/3 505/3/3
f 508/3/3 506/3/3 507/3/3
f 511/3/3 510/3/3 509/3/3
f 512/3/3 510/3/3 511/3/3
f 515/3/3 514/3/3 513/3/3
f 516/3/3 514/3/3 515/3/3
f 519/14/3 518/14/3 517/14/3
f 520/14/3 518/14/3 519/14/3
f 524/14/3 522/14/3 521/14/3
f 525/14/3 522/14/3 524/14/3
f 529/14/3 524/14/3 523/14/3
f 530/14/3 524/14/3 529/14/3
f 531/3/3 527/3/3 526/3/3
f 532/3/3 527/3/3 531/3/3
f 533/14/3 529/14/3 528/14/3
f 534/14/3 529/14/3 533/14/3
f 537/4/3 536/4/3 535/4/3
f 538/4/3 536/4/3 537/4/3
f 541/2/3 540/2/3 539/2/3
f 542/2/3 540/2/3 541/2/3
f 545/3/3 544/3/3 543/3/3
f 546/3/3 544/3/3 545/3/3
f 549/3/3 548/3/3 547/3/3
f 550/3/3 548/3/3 549/3/3
f 553/14/3 552/14/3 551/14/3
f 554/14/3 552/14/3 553/14/3
f 558/14/3 556/14/3 555/14/3
f 559/14/3 556/14/3 558/14/3
f 563/14/3 558/14/3 557/14/3
f 564/14/3 558/14/3 563/14/3
f 565/3/3 561/3/3 560/3/3
f 566/3/3 561/3/3 565/3/3
f 567/14/3 563/14/3 562/14/3
f 568/14/3 563/14/3 567/14/3
f 571/4/3 570/4/3 569/4/3
f 572/4/3 570/4/3 571/4/3
f 575/2/3 574/2/3 573/2/3
f 576/2/3 574/2/3 575/2/3
f 579/3/3 578/3/3 577/3/3
f 580/3/3 578/3/3 579/3/3
f 581/12/4 582/12/4 583/12/4
f 583/12/4 582/12/4 584/12/4
f 585/4/4 586/4/4 587/4/4
f 587/4/4 586/4/4 588/4/4
f 589/2/4 590/2/4 591/2/4
f 591/2/4 590/2/4 592/2/4
f 593/3/4 594/3/4 595/3/4
f 595/3/4 594/3/4 596/3/4
f 597/14/4 598/14/4 600/14/4
f 600/14/4 598/14/4 601/14/4
f 599/14/4 600/14/4 605/14/4
f 605/14/4 600/14/4 606/14/4
f 602/3/4 603/3/4 607/3/4
f 607/3/4 603/3/4 608/3/4
f 604/14/4 605/14/4 609/14/4
f 609/14/4 605/14/4 610/14/4
f 611/3/4 612/3/4 613/3/4
f 613/3/4 612/3/4 614/3/4
f 615/14/4 616/14/4 617/14/4
f 617/14/4 616/14/4 618/14/4
f 619/3/4 620/3/4 621/3/4
f 621/3/4 620/3/4 622/3/4
f 623/2/4 624/2/4 625/2/4
f 625/2/4 624/2/4 626/2/4
f 627/4/4 628/4/4 629/4/4
f 629/4/4 628/4/4 630/4/4
f 631/14/4 632/14/4 633/14/4
f 633/14/4 632/14/4 634/14/4
f 634/14/4 635/14/4 638/14/4
f 638/14/4 635/14/4 639/14/4
f 636/3/4 637/3/4 641/3/4
f 641/3/4 637/3/4 642/3/4
f 639/14/4 640/14/4 643/14/4
f 643/14/4 640/14/4 644/14/4
f 645/3/4 646/3/4 647/3/4
f 647/3/4 646/3/4 648/3/4
f 649/14/4 650/14/4 651/14/4
f 651/14/4 650/14/4 652/14/4
f 653/3/4 654/3/4 655/3/4
f 655/3/4 654/3/4 656/3/4
f 657/3/4 658/3/4 659/3/4
f 659/3/4 658/3/4 660/3/4
f 661/3/4 662/3/4 663/3/4
f 663/3/4 662/3/4 664/3/4
f 665/2/4 666/2/4 667/2/4
f 667/2/4 666/2/4 668/2/4
f 669/3/4 670/3/4 671/3/4
f 671/3/4 670/3/4 672/3/4
f 673/3/4 674/3/4 675/3/4
f 675/3/4 674/3/4 676/3/4
f 677/14/4 678/14/4 680/14/4
f 680/14/4 678/14/4 681/14/4
f 679/14/4 680/14/4 683/14/4
f 683/14/4 680/14/4 684/14/4
f 682/14/4 683/14/4 685/14/4
f 685/14/4 683/14/4 686/14/4
f 687/4/4 688/4/4 689/4/4
f 689/4/4 688/4/4 690/4/4
f 691/14/4 692/14/4 693/14/4
f 693/14/4 692/14/4 694/14/4
f 695/3/4 696/3/4 697/3/4
f 697/3/4 696/3/4 698/3/4
f 699/2/4 700/2/4 701/2/4
f 701/2/4 700/2/4 702/2/4
f 703/3/4 704/3/4 705/3/4
f 705/3/4 704/3/4 706/3/4
f 707/3/4 708/3/4 709/3/4
f 709/3/4 708/3/4 710/3/4
f 711/14/4 712/14/4 714/14/4
f 714/14/4 712/14/4 715/14/4
f 713/14/4 714/14/4 717/14/4
f 717/14/4 714/14/4 718/14/4
f 716/14/4 717/14/4 719/14/4
f 719/14/4 717/14/4 720/14/4
f 721/4/4 722/4/4 723/4/4
f 723/4/4 722/4/4 724/4/4
f 725/14/4 726/14/4 727/14/4
f 727/14/4 726/14/4 728/14/4
f 729/3/4 730/3/4 731/3/4
f 731/3/4 730/3/4 732/3/4
f 733/13/4 734/13/4 735/13/4
f 735/13/4 734/13/4 736/13/4
f 737/13/4 738/13/4 739/13/4
f 739/13/4 738/13/4 740/13/4
f 743/13/5 742/13/5 741/13/5
f 744/13/5 742/13/5 743/13/5
f 747/13/5 746/13/5 745/13/5
f 748/13/5 746/13/5 747/13/5
f 751/14/5 750/14/5 749/14/5
f 752/14/5 750/14/5 751/14/5
f 755/14/5 754/14/5 753/14/5
f 756/14/5 754/14/5 755/14/5
f 759/14/5 758/14/5 757/14/5
f 760/14/5 758/14/5 759/14/5
f 763/14/5 762/14/5 761/14/5
f 764/14/5 762/14/5 763/14/5
f 767/3/5 766/3/5 765/3/5
f 768/3/5 766/3/5 767/3/5
f 771/14/5 770/14/5 769/14/5
f 772/14/5 770/14/5 771/14/5
f 775/14/5 774/14/5 773/14/5
f 776/14/5 774/14/5 775/14/5
f 779/14/5 778/14/5 777/14/5
f 780/14/5 778/14/5 779/14/5
f 783/14/5 782/14/5 781/14/5
f 784/14/5 782/14/5 783/14/5
f 787/14/5 786/14/5 785/14/5
f 788/14/5 786/14/5 787/14/5
f 791/14/5 790/14/5 789/14/5
f 792/14/5 790/14/5 791/14/5
f 795/14/5 794/14/5 793/14/5
f 796/14/5 794/14/5 795/14/5
f 799/14/5 798/14/5 797/14/5
f 800/14/5 798/14/5 799/14/5
f 803/14/5 802/14/5 801/14/5
f 804/14/5 802/14/5 803/14/5
f 807/14/5 806/14/5 805/14/5
f 808/14/5 806/14/5 807/14/5
f 811/14/5 810/14/5 809/14/5
f 812/14/5 810/14/5 811/14/5
f 815/14/5 814/14/5 813/14/5
f 816/14/5 814/14/5 815/14/5
f 817/14/5 814/14/5 816/14/5
f 818/14/5 814/14/5 817/14/5
f 821/2/5 820/2/5 819/2/5
f 822/2/5 820/2/5 821/2/5
f 825/2/5 824/2/5 823/2/5
f 826/2/5 824/2/5 825/2/5
f 829/2/5 828/2/5 827/2/5
f 830/2/5 828/2/5 829/2/5
f 833/2/5 832/2/5 831/2/5
f 834/2/5 832/2/5 833/2/5
f 837/4/5 836/4/5 835/4/5
f 838/4/5 836/4/5 837/4/5
f 841/4/5 840/4/5 839/4/5
f 842/4/5 840/4/5 841/4/5
f 845/4/5 844/4/5 843/4/5
f 846/4/5 844/4/5 845/4/5
f 849/4/5 848/4/5 847/4/5
f 850/4/5 848/4/5 849/4/5
f 853/2/5 852/2/5 851/2/5
f 854/2/5 852/2/5 853/2/5
f 857/3/5 856/3/5 855/3/5
f 858/3/5 856/3/5 857/3/5
f 861/3/5 860/3/5 859/3/5
f 862/3/5 860/3/5 861/3/5
f 865/3/5 864/3/5 863/3/5
f 866/3/5 864/3/5 865/3/5
f 869/3/5 868/3/5 867/3/5
f 870/3/5 868/3/5 869/3/5
f 873/3/5 872/3/5 871/3/5
f 874/3/5 872/3/5 873/3/5
f 877/3/5 876/3/5 875/3/5
f 878/3/5 876/3/5 877/3/5
f 881/3/5 880/3/5 879/3/5
f 882/3/5 880/3/5 881/3/5
f 885/3/5 884/3/5 883/3/5
f 886/3/5 884/3/5 885/3/5
f 889/3/5 888/3/5 887/3/5
f 890/3/5 888/3/5 889/3/5
f 893/3/5 892/3/5 891/3/5
f 894/3/5 892/3/5 893/3/5
f 897/3/5 896/3/5 895/3/5
f 898/3/5 896/3/5 897/3/5
f 901/3/5 900/3/5 899/3/5
f 902/3/5 900/3/5 901/3/5
f 905/3/5 904/3/5 903/3/5
f 906/3/5 904/3/5 905/3/5
f 909/3/5 908/3/5 907/3/5
f 910/3/5 908/3/5 909/3/5
f 911/2/6 912/2/6 913/2/6
f 913/2/6 912/2/6 914/2/6
f 915/2/6 916/2/6 917/2/6
f 917/2/6 916/2/6 918/2/6
f 919/2/6 920/2/6 921/2/6
f 921/2/6 920/2/6 922/2/6
f 923/2/6 924/2/6 925/2/6
f 925/2/6 924/2/6 926/2/6
f 927/14/6 928/14/6 929/14/6
f 929/14/6 928/14/6 930/14/6
f 930/14/6 928/14/6 931/14/6
f 931/14/6 928/14/6 932/14/6
f 933/14/6 934/14/6 935/14/6
f 935/14/6 934/14/6 936/14/6
f 936/14/6 934/14/6 937/14/6
f 937/14/6 934/14/6 938/14/6
f 939/14/6 940/14/6 941/14/6
f 941/14/6 940/14/6 942/14/6
f 942/14/6 940/14/6 943/14/6
f 943/14/6 940/14/6 944/14/6
f 945/14/6 946/14/6 947/14/6
f 947/14/6 946/14/6 948/14/6
f 949/3/6 950/3/6 951/3/6
f 951/3/6 950/3/6 952/3/6
f 953/14/6 954/14/6 955/14/6
f 955/14/6 954/14/6 956/14/6
f 957/14/6 958/14/6 959/14/6
f 959/14/6 958/14/6 960/14/6
f 961/14/6 962/14/6 963/14/6
f 963/14/6 962/14/6 964/14/6
f 965/14/6 966/14/6 967/14/6
f 967/14/6 966/14/6 968/14/6
f 969/14/6 970/14/6 971/14/6
f 971/14/6 970/14/6 972/14/6
f 973/14/6 974/14/6 975/14/6
f 975/14/6 974/14/6 976/14/6
f 977/14/6 978/14/6 979/14/6
f 979/14/6 978/14/6 980/14/6
f 981/14/6 982/14/6 983/14/6
f 983/14/6 982/14/6 984/14/6
f 985/14/6 986/14/6 987/14/6
f 987/14/6 986/14/6 988/14/6
f 989/14/6 990/14/6 991/14/6
f 991/14/6 990/14/6 992/14/6
f 993/14/6 994/14/6 995/14/6
f 995/14/6 994/14/6 996/14/6
f 997/14/6 998/14/6 999/14/6
f 999/14/6 998/14/6 1000/14/6
f 1001/12/6 1002/12/6 1003/12/6
f 1003/12/6 1002/12/6 1004/12/6
f 1005/4/6 1006/4/6 1007/4/6
f 1007/4/6 1006/4/6 1008/4/6
f 1009/4/6 1010/4/6 1011/4/6
f 1011/4/6 1010/4/6 1012/4/6
f 1013/4/6 1014/4/6 1015/4/6
f 1015/4/6 1014/4/6 1016/4/6
f 1017/4/6 1018/4/6 1019/4/6
f 1019/4/6 1018/4/6 1020/4/6
f 1021/3/6 1022/3/6 1023/3/6
f 1023/3/6 1022/3/6 1024/3/6
f 1025/3/6 1026/3/6 1027/3/6
f 1027/3/6 1026/3/6 1028/3/6
f 1029/3/6 1030/3/6 1031/3/6
f 1031/3/6 1030/3/6 1032/3/6
f 1033/3/6 1034/3/6 1035/3/6
f 1035/3/6 1034/3/6 1036/3/6
f 1037/3/6 1038/3/6 1039/3/6
f 1039/3/6 1038/3/6 1040/3/6
f 1041/3/6 1042/3/6 1043/3/6
f 1043/3/6 1042/3/6 1044/3/6
f 1045/3/6 1046/3/6 1047/3/6
f 1047/3/6 1046/3/6 1048/3/6
f 1049/3/6 1050/3/6 1051/3/6
f 1051/3/6 1050/3/6 1052/3/6
f 1053/3/6 1054/3/6 1055/3/6
f 1055/3/6 1054/3/6 1056/3/6
f 1057/3/6 1058/3/6 1059/3/6
f 1059/3/6 1058/3/6 1060/3/6
f 1061/3/6 1062/3/6 1063/3/6
f 1063/3/6 1062/3/6 1064/3/6
f 1065/3/6 1066/3/6 1067/3/6
f 1067/3/6 1066/3/6 1068/3/6
f 1069/3/6 1070/3/6 1071/3/6
f 1071/3/6 1070/3/6 1072/3/6
f 1073/3/6 1074/3/6 1075/3/6
f 1075/3/6 1074/3/6 1076/3/6
f 1077/13/6 1078/13/6 1079/13/6
f 1079/13/6 1078/13/6 1080/13/6
f 1081/13/6 1082/13/6 1083/13/6
f 1083/13/6 1082/13/6 1084/13/6
