# MagicaVoxel @ Ephtracy

# group
o 

# material
mtllib spaceship_inside-11.mtl
usemtl palette

# normals
vn -1 0 0
vn 1 0 0
vn 0 0 1
vn 0 0 -1
vn 0 -1 0
vn 0 1 0

# texcoords
vt 0.705078 0.5
vt 0.775391 0.5
vt 0.947266 0.5
vt 0.958984 0.5

# verts
v -0.35 -0.75 0.2
v -0.35 -0.75 -0.2
v -0.35 -0.65 0.2
v -0.35 -0.65 -0.2
v -0.25 -0.65 0.1
v -0.25 -0.65 -0.1
v -0.25 -0.55 0.1
v -0.25 -0.55 -0.1
v -0.15 -0.55 0.1
v -0.15 -0.55 -0.1
v -0.15 -0.35 0.1
v -0.15 -0.35 -0.1
v -0.05 -0.35 0.1
v -0.05 -0.35 -0.1
v -0.05 -0.05 0.1
v -0.05 -0.05 -0.1
v 0.05 -0.05 0.1
v 0.05 -0.05 -0.1
v 0.05 0.25 0.1
v 0.05 0.25 -0.1
v 0.15 -0.05 0.7
v 0.15 -0.05 0.1
v 0.15 -0.05 -0.1
v 0.15 -0.05 -0.7
v 0.15 0.25 0.1
v 0.15 0.25 -0.1
v 0.15 0.65 0.7
v 0.15 0.65 -0.7
v 0.25 -0.15 0.8
v 0.25 -0.15 -0.8
v 0.25 -0.05 0.7
v 0.25 -0.05 -0.7
v 0.25 0.65 0.7
v 0.25 0.65 -0.7
v 0.25 0.75 0.8
v 0.25 0.75 -0.8
v 0.05 -0.65 0.1
v 0.05 -0.65 -0.1
v 0.05 -0.35 0.1
v 0.05 -0.35 -0.1
v 0.15 -0.75 0.2
v 0.15 -0.75 -0.2
v 0.15 -0.65 0.2
v 0.15 -0.65 -0.2
v 0.15 -0.35 0.1
v 0.15 -0.35 -0.1
v 0.15 -0.05 0.1
v 0.15 -0.05 -0.1
v 0.35 -0.15 0.8
v 0.35 -0.15 -0.8
v 0.35 -0.05 0.7
v 0.35 -0.05 -0.7
v 0.35 0.05 0.6
v 0.35 0.05 0.5
v 0.35 0.05 0.4
v 0.35 0.05 0.3
v 0.35 0.05 0.2
v 0.35 0.05 0.1
v 0.35 0.05 0
v 0.35 0.05 -0.1
v 0.35 0.05 -0.2
v 0.35 0.05 -0.6
v 0.35 0.15 0.4
v 0.35 0.15 0.3
v 0.35 0.15 0
v 0.35 0.15 -0.1
v 0.35 0.15 -0.2
v 0.35 0.15 -0.6
v 0.35 0.25 0.4
v 0.35 0.25 0.3
v 0.35 0.25 0
v 0.35 0.25 -0.3
v 0.35 0.25 -0.4
v 0.35 0.25 -0.6
v 0.35 0.35 0.4
v 0.35 0.35 0.3
v 0.35 0.35 0
v 0.35 0.35 -0.3
v 0.35 0.35 -0.4
v 0.35 0.35 -0.6
v 0.35 0.45 0.5
v 0.35 0.45 0.2
v 0.35 0.45 0
v 0.35 0.45 -0.6
v 0.35 0.55 0.6
v 0.35 0.55 0.1
v 0.35 0.55 0
v 0.35 0.55 -0.6
v 0.35 0.65 0.7
v 0.35 0.65 -0.7
v 0.35 0.75 0.8
v 0.35 0.75 -0.8
v 0.25 -0.15 0.8
v 0.25 0.75 0.8
v 0.35 -0.15 0.8
v 0.35 0.75 0.8
v 0.15 -0.05 0.7
v 0.15 0.65 0.7
v 0.25 -0.05 0.7
v 0.25 0.65 0.7
v -0.35 -0.75 0.2
v -0.35 -0.65 0.2
v 0.15 -0.75 0.2
v 0.15 -0.65 0.2
v -0.25 -0.65 0.1
v -0.25 -0.55 0.1
v -0.15 -0.55 0.1
v -0.15 -0.35 0.1
v -0.05 -0.35 0.1
v -0.05 -0.05 0.1
v 0.05 -0.65 0.1
v 0.05 -0.35 0.1
v 0.05 -0.05 0.1
v 0.05 0.25 0.1
v 0.15 -0.35 0.1
v 0.15 -0.05 0.1
v 0.15 0.25 0.1
v -0.25 -0.65 -0.1
v -0.25 -0.55 -0.1
v -0.15 -0.55 -0.1
v -0.15 -0.35 -0.1
v -0.05 -0.35 -0.1
v -0.05 -0.05 -0.1
v 0.05 -0.65 -0.1
v 0.05 -0.35 -0.1
v 0.05 -0.05 -0.1
v 0.05 0.25 -0.1
v 0.15 -0.35 -0.1
v 0.15 -0.05 -0.1
v 0.15 0.25 -0.1
v -0.35 -0.75 -0.2
v -0.35 -0.65 -0.2
v 0.15 -0.75 -0.2
v 0.15 -0.65 -0.2
v 0.15 -0.05 -0.7
v 0.15 0.65 -0.7
v 0.25 -0.05 -0.7
v 0.25 0.65 -0.7
v 0.25 -0.15 -0.8
v 0.25 0.75 -0.8
v 0.35 -0.15 -0.8
v 0.35 0.75 -0.8
v -0.35 -0.75 0.2
v 0.15 -0.75 0.2
v -0.35 -0.75 -0.2
v 0.15 -0.75 -0.2
v 0.05 -0.35 0.1
v 0.15 -0.35 0.1
v 0.05 -0.35 -0.1
v 0.15 -0.35 -0.1
v 0.25 -0.15 0.8
v 0.35 -0.15 0.8
v 0.25 -0.15 -0.8
v 0.35 -0.15 -0.8
v 0.15 -0.05 0.7
v 0.25 -0.05 0.7
v 0.15 -0.05 0.1
v 0.15 -0.05 -0.1
v 0.15 -0.05 -0.7
v 0.25 -0.05 -0.7
v -0.35 -0.65 0.2
v 0.15 -0.65 0.2
v -0.25 -0.65 0.1
v 0.05 -0.65 0.1
v -0.25 -0.65 -0.1
v 0.05 -0.65 -0.1
v -0.35 -0.65 -0.2
v 0.15 -0.65 -0.2
v -0.25 -0.55 0.1
v -0.15 -0.55 0.1
v -0.25 -0.55 -0.1
v -0.15 -0.55 -0.1
v -0.15 -0.35 0.1
v -0.05 -0.35 0.1
v -0.15 -0.35 -0.1
v -0.05 -0.35 -0.1
v -0.05 -0.05 0.1
v 0.05 -0.05 0.1
v -0.05 -0.05 -0.1
v 0.05 -0.05 -0.1
v 0.05 0.25 0.1
v 0.15 0.25 0.1
v 0.05 0.25 -0.1
v 0.15 0.25 -0.1
v 0.15 0.65 0.7
v 0.25 0.65 0.7
v 0.15 0.65 -0.7
v 0.25 0.65 -0.7
v 0.25 0.75 0.8
v 0.35 0.75 0.8
v 0.25 0.75 -0.8
v 0.35 0.75 -0.8

# faces
f 3/4/1 2/4/1 1/4/1
f 4/4/1 2/4/1 3/4/1
f 7/4/1 6/4/1 5/4/1
f 8/4/1 6/4/1 7/4/1
f 11/4/1 10/4/1 9/4/1
f 12/4/1 10/4/1 11/4/1
f 15/4/1 14/4/1 13/4/1
f 16/4/1 14/4/1 15/4/1
f 19/4/1 18/4/1 17/4/1
f 20/4/1 18/4/1 19/4/1
f 25/4/1 22/4/1 21/4/1
f 26/4/1 24/4/1 23/4/1
f 27/4/1 25/4/1 21/4/1
f 27/4/1 26/4/1 25/4/1
f 28/4/1 24/4/1 26/4/1
f 28/4/1 26/4/1 27/4/1
f 31/4/1 30/4/1 29/4/1
f 32/4/1 30/4/1 31/4/1
f 33/4/1 31/4/1 29/4/1
f 34/4/1 30/4/1 32/4/1
f 35/4/1 33/4/1 29/4/1
f 35/4/1 34/4/1 33/4/1
f 36/4/1 30/4/1 34/4/1
f 36/4/1 34/4/1 35/4/1
f 37/4/2 38/4/2 39/4/2
f 39/4/2 38/4/2 40/4/2
f 41/4/2 42/4/2 43/4/2
f 43/4/2 42/4/2 44/4/2
f 45/4/2 46/4/2 47/4/2
f 47/4/2 46/4/2 48/4/2
f 49/4/2 50/4/2 51/4/2
f 51/4/2 50/4/2 52/4/2
f 51/3/2 52/3/2 53/3/2
f 53/3/2 52/3/2 54/3/2
f 54/3/2 52/3/2 55/3/2
f 55/3/2 52/3/2 56/3/2
f 56/3/2 52/3/2 57/3/2
f 57/3/2 52/3/2 58/3/2
f 58/3/2 52/3/2 59/3/2
f 59/3/2 52/3/2 60/3/2
f 60/3/2 52/3/2 61/3/2
f 61/3/2 52/3/2 62/3/2
f 54/3/2 55/3/2 63/3/2
f 55/2/2 56/2/2 63/2/2
f 56/3/2 57/3/2 64/3/2
f 63/2/2 56/2/2 64/2/2
f 58/3/2 59/3/2 65/3/2
f 59/1/2 60/1/2 65/1/2
f 60/3/2 61/3/2 66/3/2
f 65/1/2 60/1/2 66/1/2
f 61/1/2 62/1/2 67/1/2
f 66/3/2 61/3/2 67/3/2
f 62/3/2 52/3/2 68/3/2
f 67/1/2 62/1/2 68/1/2
f 54/3/2 63/3/2 69/3/2
f 63/3/2 64/3/2 69/3/2
f 64/3/2 57/3/2 70/3/2
f 69/3/2 64/3/2 70/3/2
f 66/3/2 67/3/2 71/3/2
f 65/3/2 66/3/2 71/3/2
f 67/3/2 68/3/2 71/3/2
f 58/3/2 65/3/2 71/3/2
f 71/3/2 68/3/2 72/3/2
f 72/3/2 68/3/2 73/3/2
f 68/3/2 52/3/2 74/3/2
f 73/3/2 68/3/2 74/3/2
f 69/2/2 70/2/2 75/2/2
f 54/3/2 69/3/2 75/3/2
f 70/3/2 57/3/2 76/3/2
f 75/2/2 70/2/2 76/2/2
f 58/3/2 71/3/2 77/3/2
f 71/1/2 72/1/2 77/1/2
f 72/3/2 73/3/2 78/3/2
f 77/1/2 72/1/2 78/1/2
f 73/1/2 74/1/2 79/1/2
f 78/3/2 73/3/2 79/3/2
f 74/3/2 52/3/2 80/3/2
f 79/1/2 74/1/2 80/1/2
f 53/1/2 54/1/2 81/1/2
f 54/3/2 75/3/2 81/3/2
f 75/3/2 76/3/2 81/3/2
f 57/1/2 58/1/2 82/1/2
f 81/3/2 76/3/2 82/3/2
f 76/3/2 57/3/2 82/3/2
f 79/3/2 80/3/2 83/3/2
f 78/3/2 79/3/2 83/3/2
f 58/3/2 77/3/2 83/3/2
f 77/3/2 78/3/2 83/3/2
f 80/3/2 52/3/2 84/3/2
f 83/3/2 80/3/2 84/3/2
f 51/3/2 53/3/2 85/3/2
f 81/1/2 82/1/2 85/1/2
f 53/1/2 81/1/2 85/1/2
f 58/3/2 83/3/2 86/3/2
f 85/1/2 82/1/2 86/1/2
f 82/1/2 58/1/2 86/1/2
f 83/1/2 84/1/2 87/1/2
f 86/3/2 83/3/2 87/3/2
f 84/3/2 52/3/2 88/3/2
f 87/1/2 84/1/2 88/1/2
f 49/4/2 51/4/2 89/4/2
f 86/3/2 87/3/2 89/3/2
f 87/3/2 88/3/2 89/3/2
f 85/3/2 86/3/2 89/3/2
f 51/3/2 85/3/2 89/3/2
f 88/3/2 52/3/2 90/3/2
f 89/3/2 88/3/2 90/3/2
f 52/4/2 50/4/2 90/4/2
f 49/4/2 89/4/2 91/4/2
f 89/4/2 90/4/2 91/4/2
f 90/4/2 50/4/2 92/4/2
f 91/4/2 90/4/2 92/4/2
f 95/4/3 94/4/3 93/4/3
f 96/4/3 94/4/3 95/4/3
f 99/4/3 98/4/3 97/4/3
f 100/4/3 98/4/3 99/4/3
f 103/4/3 102/4/3 101/4/3
f 104/4/3 102/4/3 103/4/3
f 107/4/3 106/4/3 105/4/3
f 109/4/3 108/4/3 107/4/3
f 111/4/3 107/4/3 105/4/3
f 111/4/3 110/4/3 109/4/3
f 111/4/3 109/4/3 107/4/3
f 112/4/3 110/4/3 111/4/3
f 113/4/3 110/4/3 112/4/3
f 115/4/3 114/4/3 113/4/3
f 115/4/3 113/4/3 112/4/3
f 116/4/3 114/4/3 115/4/3
f 117/4/3 114/4/3 116/4/3
f 118/4/4 119/4/4 120/4/4
f 120/4/4 121/4/4 122/4/4
f 118/4/4 120/4/4 124/4/4
f 122/4/4 123/4/4 124/4/4
f 120/4/4 122/4/4 124/4/4
f 124/4/4 123/4/4 125/4/4
f 125/4/4 123/4/4 126/4/4
f 126/4/4 127/4/4 128/4/4
f 125/4/4 126/4/4 128/4/4
f 128/4/4 127/4/4 129/4/4
f 129/4/4 127/4/4 130/4/4
f 131/4/4 132/4/4 133/4/4
f 133/4/4 132/4/4 134/4/4
f 135/4/4 136/4/4 137/4/4
f 137/4/4 136/4/4 138/4/4
f 139/4/4 140/4/4 141/4/4
f 141/4/4 140/4/4 142/4/4
f 145/4/5 144/4/5 143/4/5
f 146/4/5 144/4/5 145/4/5
f 149/4/5 148/4/5 147/4/5
f 150/4/5 148/4/5 149/4/5
f 153/4/5 152/4/5 151/4/5
f 154/4/5 152/4/5 153/4/5
f 157/4/5 156/4/5 155/4/5
f 158/4/5 156/4/5 157/4/5
f 159/4/5 156/4/5 158/4/5
f 160/4/5 156/4/5 159/4/5
f 161/4/6 162/4/6 163/4/6
f 163/4/6 162/4/6 164/4/6
f 161/4/6 163/4/6 165/4/6
f 164/4/6 162/4/6 166/4/6
f 161/4/6 165/4/6 167/4/6
f 165/4/6 166/4/6 167/4/6
f 166/4/6 162/4/6 168/4/6
f 167/4/6 166/4/6 168/4/6
f 169/4/6 170/4/6 171/4/6
f 171/4/6 170/4/6 172/4/6
f 173/4/6 174/4/6 175/4/6
f 175/4/6 174/4/6 176/4/6
f 177/4/6 178/4/6 179/4/6
f 179/4/6 178/4/6 180/4/6
f 181/4/6 182/4/6 183/4/6
f 183/4/6 182/4/6 184/4/6
f 185/4/6 186/4/6 187/4/6
f 187/4/6 186/4/6 188/4/6
f 189/4/6 190/4/6 191/4/6
f 191/4/6 190/4/6 192/4/6
