# MagicaVoxel @ Ephtracy

# group
o 

# material
mtllib lab_decorations-4.mtl
usemtl palette

# normals
vn -1 0 0
vn 1 0 0
vn 0 0 1
vn 0 0 -1
vn 0 -1 0
vn 0 1 0

# texcoords
vt 0.224609 0.5
vt 0.474609 0.5
vt 0.865234 0.5
vt 0.966797 0.5
vt 0.978516 0.5

# verts
v -1.3 -0.05 1.95
v -1.3 -0.05 1.35
v -1.3 0.05 1.95
v -1.3 0.05 1.35
v -1.2 -0.05 1.35
v -1.2 -0.05 0.95
v -1.2 0.05 1.35
v -1.2 0.05 0.95
v -1.1 -0.05 0.95
v -1.1 -0.05 0.65
v -1.1 0.05 0.95
v -1.1 0.05 0.65
v -1 -0.05 0.65
v -1 -0.05 0.45
v -1 0.05 0.65
v -1 0.05 0.45
v -0.9 -0.05 0.45
v -0.9 -0.05 0.25
v -0.9 0.05 0.45
v -0.9 0.05 0.25
v -0.8 -0.05 0.25
v -0.8 -0.05 0.05
v -0.8 0.05 0.25
v -0.8 0.05 0.05
v -0.7 -0.05 0.05
v -0.7 -0.05 -0.0500002
v -0.7 0.05 0.05
v -0.7 0.05 -0.0500002
v -0.6 -0.05 -0.0500002
v -0.6 -0.05 -0.25
v -0.6 0.05 -0.0500002
v -0.6 0.05 -0.25
v 0 -0.05 -0.45
v 0 -0.05 -0.95
v 0 -0.05 -1.25
v 0 -0.05 -1.35
v 0 0.05 -0.45
v 0 0.05 -0.95
v 0 0.05 -1.25
v 0 0.05 -1.35
v 0.1 -0.05 -0.0500002
v 0.1 -0.05 -0.25
v 0.1 -0.05 -0.35
v 0.1 -0.05 -0.45
v 0.1 -0.05 -1.35
v 0.1 -0.05 -1.45
v 0.1 -0.05 -1.55
v 0.1 0.05 -0.0500002
v 0.1 0.05 -0.25
v 0.1 0.05 -0.35
v 0.1 0.05 -0.45
v 0.1 0.05 -1.35
v 0.1 0.05 -1.45
v 0.1 0.05 -1.55
v 0.2 -0.05 0.25
v 0.2 -0.05 0.05
v 0.2 -0.05 -0.0500002
v 0.2 -0.05 -1.55
v 0.2 -0.05 -1.65
v 0.2 0.05 0.25
v 0.2 0.05 0.05
v 0.2 0.05 -0.0500002
v 0.2 0.05 -1.55
v 0.2 0.05 -1.65
v 0.3 -0.05 -1.65
v 0.3 -0.05 -1.85
v 0.3 -0.05 -1.95
v 0.3 0.05 -1.65
v 0.3 0.05 -1.85
v 0.3 0.05 -1.95
v 1.1 -0.05 -0.65
v 1.1 -0.05 -0.75
v 1.1 0.05 -0.65
v 1.1 0.05 -0.75
v 1.2 -0.05 -0.75
v 1.2 -0.05 -0.85
v 1.2 0.05 -0.75
v 1.2 0.05 -0.85
v -0.4 -0.05 -0.15
v -0.4 -0.05 -0.25
v -0.4 0.05 -0.15
v -0.4 0.05 -0.25
v -0.3 -0.05 -0.0500002
v -0.3 -0.05 -0.15
v -0.3 0.05 -0.0500002
v -0.3 0.05 -0.15
v -0.2 -0.05 0.05
v -0.2 -0.05 -0.0500002
v -0.2 0.05 0.05
v -0.2 0.05 -0.0500002
v -0.0999999 -0.05 0.15
v -0.0999999 -0.05 0.05
v -0.0999999 0.05 0.15
v -0.0999999 0.05 0.05
v 0.1 -0.05 0.25
v 0.1 -0.05 0.15
v 0.1 0.05 0.25
v 0.1 0.05 0.15
v 0.5 -0.05 1.85
v 0.5 -0.05 1.75
v 0.5 0.05 1.85
v 0.5 0.05 1.75
v 0.6 -0.05 1.95
v 0.6 -0.05 1.85
v 0.6 -0.05 1.75
v 0.6 -0.05 1.65
v 0.6 0.05 1.95
v 0.6 0.05 1.85
v 0.6 0.05 1.75
v 0.6 0.05 1.65
v 0.7 -0.05 1.65
v 0.7 -0.05 1.55
v 0.7 0.05 1.65
v 0.7 0.05 1.55
v 0.8 -0.05 1.55
v 0.8 -0.05 1.45
v 0.8 0.05 1.55
v 0.8 0.05 1.45
v 0.9 -0.05 1.45
v 0.9 -0.05 1.35
v 0.9 0.05 1.45
v 0.9 0.05 1.35
v 1 -0.05 -0.65
v 1 -0.05 -0.85
v 1 -0.05 -0.95
v 1 -0.05 -1.05
v 1 0.05 -0.65
v 1 0.05 -0.85
v 1 0.05 -0.95
v 1 0.05 -1.05
v 1.1 -0.05 1.35
v 1.1 -0.05 1.25
v 1.1 -0.05 -1.05
v 1.1 -0.05 -1.25
v 1.1 0.05 1.35
v 1.1 0.05 1.25
v 1.1 0.05 -1.05
v 1.1 0.05 -1.25
v 1.2 -0.05 1.25
v 1.2 -0.05 0.85
v 1.2 0.05 1.25
v 1.2 0.05 0.85
v 1.3 -0.05 0.85
v 1.3 -0.05 -0.85
v 1.3 -0.05 -1.25
v 1.3 -0.05 -1.95
v 1.3 0.05 0.85
v 1.3 0.05 -0.85
v 1.3 0.05 -1.25
v 1.3 0.05 -1.95
v -1.3 -0.05 1.95
v -1.3 0.05 1.95
v 0.6 -0.05 1.95
v 0.6 0.05 1.95
v 0.5 -0.05 1.75
v 0.5 0.05 1.75
v 0.6 -0.05 1.75
v 0.6 0.05 1.75
v 0.6 -0.05 1.65
v 0.6 0.05 1.65
v 0.7 -0.05 1.65
v 0.7 0.05 1.65
v 0.7 -0.05 1.55
v 0.7 0.05 1.55
v 0.8 -0.05 1.55
v 0.8 0.05 1.55
v 0.8 -0.05 1.45
v 0.8 0.05 1.45
v 0.9 -0.05 1.45
v 0.9 0.05 1.45
v 0.9 -0.05 1.35
v 0.9 0.05 1.35
v 1 -0.05 1.35
v 1 0.05 1.35
v 1.1 -0.05 1.35
v 1.1 0.05 1.35
v 1.1 -0.05 1.25
v 1.1 0.05 1.25
v 1.2 -0.05 1.25
v 1.2 0.05 1.25
v 1.2 -0.05 0.85
v 1.2 0.05 0.85
v 1.3 -0.05 0.85
v 1.3 0.05 0.85
v 0.1 -0.05 -0.0500002
v 0.1 0.05 -0.0500002
v 0.2 -0.05 -0.0500002
v 0.2 0.05 -0.0500002
v 0 -0.05 -0.45
v 0 0.05 -0.45
v 0.1 -0.05 -0.45
v 0.1 0.05 -0.45
v 1 -0.05 -1.05
v 1 0.05 -1.05
v 1.1 -0.05 -1.05
v 1.1 0.05 -1.05
v 1.1 -0.05 -1.25
v 1.1 0.05 -1.25
v 1.2 -0.05 -1.25
v 1.2 0.05 -1.25
v 1.3 -0.05 -1.25
v 1.3 0.05 -1.25
v 0.5 -0.05 1.85
v 0.5 0.05 1.85
v 0.6 -0.05 1.85
v 0.6 0.05 1.85
v -1.3 -0.05 1.35
v -1.3 0.05 1.35
v -1.2 -0.05 1.35
v -1.2 0.05 1.35
v -1.2 -0.05 0.95
v -1.2 0.05 0.95
v -1.1 -0.05 0.95
v -1.1 0.05 0.95
v -1.1 -0.05 0.65
v -1.1 0.05 0.65
v -1 -0.05 0.65
v -1 0.05 0.65
v -1 -0.05 0.45
v -1 0.05 0.45
v -0.9 -0.05 0.45
v -0.9 0.05 0.45
v -0.9 -0.05 0.25
v -0.9 0.05 0.25
v -0.8 -0.05 0.25
v -0.8 0.05 0.25
v 0.1 -0.05 0.25
v 0.1 0.05 0.25
v 0.2 -0.05 0.25
v 0.2 0.05 0.25
v -0.0999999 -0.05 0.15
v -0.0999999 0.05 0.15
v 0 -0.05 0.15
v 0 0.05 0.15
v 0.1 -0.05 0.15
v 0.1 0.05 0.15
v -0.8 -0.05 0.05
v -0.8 0.05 0.05
v -0.7 -0.05 0.05
v -0.7 0.05 0.05
v -0.2 -0.05 0.05
v -0.2 0.05 0.05
v -0.0999999 -0.05 0.05
v -0.0999999 0.05 0.05
v -0.7 -0.05 -0.0500002
v -0.7 0.05 -0.0500002
v -0.6 -0.05 -0.0500002
v -0.6 0.05 -0.0500002
v -0.3 -0.05 -0.0500002
v -0.3 0.05 -0.0500002
v -0.2 -0.05 -0.0500002
v -0.2 0.05 -0.0500002
v -0.4 -0.05 -0.15
v -0.4 0.05 -0.15
v -0.3 -0.05 -0.15
v -0.3 0.05 -0.15
v -0.6 -0.05 -0.25
v -0.6 0.05 -0.25
v -0.4 -0.05 -0.25
v -0.4 0.05 -0.25
v 1 -0.05 -0.65
v 1 0.05 -0.65
v 1.1 -0.05 -0.65
v 1.1 0.05 -0.65
v 1.1 -0.05 -0.75
v 1.1 0.05 -0.75
v 1.2 -0.05 -0.75
v 1.2 0.05 -0.75
v 1.2 -0.05 -0.85
v 1.2 0.05 -0.85
v 1.3 -0.05 -0.85
v 1.3 0.05 -0.85
v 0 -0.05 -1.35
v 0 0.05 -1.35
v 0.1 -0.05 -1.35
v 0.1 0.05 -1.35
v 0.1 -0.05 -1.55
v 0.1 0.05 -1.55
v 0.2 -0.05 -1.55
v 0.2 0.05 -1.55
v 0.2 -0.05 -1.65
v 0.2 0.05 -1.65
v 0.3 -0.05 -1.65
v 0.3 0.05 -1.65
v 0.3 -0.05 -1.95
v 0.3 0.05 -1.95
v 1.3 -0.05 -1.95
v 1.3 0.05 -1.95
v -1.3 -0.05 1.95
v 0.6 -0.05 1.95
v -1.2 -0.05 1.85
v 0.5 -0.05 1.85
v 0.6 -0.05 1.85
v -1 -0.05 1.75
v -0.9 -0.05 1.75
v 0.5 -0.05 1.75
v 0.6 -0.05 1.75
v -1.1 -0.05 1.65
v -1 -0.05 1.65
v -0.6 -0.05 1.65
v -0.5 -0.05 1.65
v -0.3 -0.05 1.65
v -0.2 -0.05 1.65
v 0.6 -0.05 1.65
v 0.7 -0.05 1.65
v -1.1 -0.05 1.55
v -0.9 -0.05 1.55
v 0.1 -0.05 1.55
v 0.5 -0.05 1.55
v 0.7 -0.05 1.55
v 0.8 -0.05 1.55
v -1 -0.05 1.45
v -0.9 -0.05 1.45
v -0.5 -0.05 1.45
v -0.3 -0.05 1.45
v 0.1 -0.05 1.45
v 0.5 -0.05 1.45
v 0.8 -0.05 1.45
v 0.9 -0.05 1.45
v -1.3 -0.05 1.35
v -1.2 -0.05 1.35
v -1 -0.05 1.35
v -0.9 -0.05 1.35
v -0.6 -0.05 1.35
v -0.2 -0.05 1.35
v 0.9 -0.05 1.35
v 1 -0.05 1.35
v 1.1 -0.05 1.35
v -1 -0.05 1.25
v -0.9 -0.05 1.25
v 0.6 -0.05 1.25
v 0.7 -0.05 1.25
v 1.1 -0.05 1.25
v 1.2 -0.05 1.25
v -1 -0.05 1.15
v -0.9 -0.05 1.15
v -0.7 -0.05 1.15
v -0.6 -0.05 1.15
v 0.3 -0.05 1.15
v 0.4 -0.05 1.15
v 0.9 -0.05 1.15
v 1 -0.05 1.15
v -1 -0.05 1.05
v -0.9 -0.05 1.05
v -0.7 -0.05 1.05
v -0.6 -0.05 1.05
v -1.2 -0.05 0.95
v -1.1 -0.05 0.95
v -1 -0.05 0.95
v -0.9 -0.05 0.95
v 0.2 -0.05 0.95
v 0.3 -0.05 0.95
v 0.8 -0.05 0.95
v 1 -0.05 0.95
v -0.8 -0.05 0.85
v -0.2 -0.05 0.85
v 0.2 -0.05 0.85
v 0.4 -0.05 0.85
v 0.8 -0.05 0.85
v 0.9 -0.05 0.85
v 1 -0.05 0.85
v 1.1 -0.05 0.85
v 1.2 -0.05 0.85
v 1.3 -0.05 0.85
v -0.6 -0.05 0.75
v -0.5 -0.05 0.75
v -0.2 -0.05 0.75
v -0.0999999 -0.05 0.75
v 0.3 -0.05 0.75
v 0.5 -0.05 0.75
v 0.9 -0.05 0.75
v 1.1 -0.05 0.75
v -1.1 -0.05 0.65
v -1 -0.05 0.65
v -0.9 -0.05 0.65
v -0.8 -0.05 0.65
v -0.7 -0.05 0.65
v -0.6 -0.05 0.65
v -0.5 -0.05 0.65
v -0.2 -0.05 0.65
v -0.0999999 -0.05 0.65
v 0 -0.05 0.65
v 0.1 -0.05 0.65
v 0.2 -0.05 0.65
v 0.4 -0.05 0.65
v 0.5 -0.05 0.65
v -0.8 -0.05 0.55
v -0.7 -0.05 0.55
v 0.5 -0.05 0.55
v 1 -0.05 0.55
v -1 -0.05 0.45
v -0.9 -0.05 0.45
v -0.5 -0.05 0.45
v -0.4 -0.05 0.45
v -0.2 -0.05 0.45
v -0.0999999 -0.05 0.45
v 0.5 -0.05 0.45
v 1 -0.05 0.45
v 0.1 -0.05 0.35
v 0.2 -0.05 0.35
v 0.4 -0.05 0.35
v 0.5 -0.05 0.35
v -0.9 -0.05 0.25
v -0.8 -0.05 0.25
v -0.6 -0.05 0.25
v -0.5 -0.05 0.25
v 0.1 -0.05 0.25
v 0.2 -0.05 0.25
v 0.3 -0.05 0.25
v 0.5 -0.05 0.25
v 0.8 -0.05 0.25
v 1 -0.05 0.25
v -0.4 -0.05 0.15
v -0.3 -0.05 0.15
v -0.0999999 -0.05 0.15
v 0 -0.05 0.15
v 0.1 -0.05 0.15
v -0.8 -0.05 0.05
v -0.7 -0.05 0.05
v -0.2 -0.05 0.05
v -0.0999999 -0.05 0.05
v 0.2 -0.05 0.05
v 0.4 -0.05 0.05
v 0.8 -0.05 0.05
v 1 -0.05 0.05
v -0.7 -0.05 -0.0500002
v -0.6 -0.05 -0.0500002
v -0.3 -0.05 -0.0500002
v -0.2 -0.05 -0.0500002
v 0.1 -0.05 -0.0500002
v 0.2 -0.05 -0.0500002
v 0.3 -0.05 -0.0500002
v -0.4 -0.05 -0.15
v -0.3 -0.05 -0.15
v 0.9 -0.05 -0.15
v 1 -0.05 -0.15
v -0.6 -0.05 -0.25
v -0.4 -0.05 -0.25
v 0.1 -0.05 -0.25
v 0.3 -0.05 -0.25
v 1 -0.05 -0.25
v 1.1 -0.05 -0.25
v 0.1 -0.05 -0.35
v 0.2 -0.05 -0.35
v 0.3 -0.05 -0.35
v 0.4 -0.05 -0.35
v 0.9 -0.05 -0.35
v 1 -0.05 -0.35
v 0 -0.05 -0.45
v 0.1 -0.05 -0.45
v 0.2 -0.05 -0.45
v 0.3 -0.05 -0.45
v 0.9 -0.05 -0.45
v 1 -0.05 -0.45
v 0.9 -0.05 -0.55
v 1.1 -0.05 -0.55
v 0.7 -0.05 -0.65
v 0.8 -0.05 -0.65
v 1 -0.05 -0.65
v 1.1 -0.05 -0.65
v 0.3 -0.05 -0.75
v 0.4 -0.05 -0.75
v 0.8 -0.05 -0.75
v 0.9 -0.05 -0.75
v 1.1 -0.05 -0.75
v 1.2 -0.05 -0.75
v 0.7 -0.05 -0.85
v 0.8 -0.05 -0.85
v 0.9 -0.05 -0.85
v 1 -0.05 -0.85
v 1.2 -0.05 -0.85
v 1.3 -0.05 -0.85
v 0 -0.05 -0.95
v 0.3 -0.05 -0.95
v 0.4 -0.05 -0.95
v 0.5 -0.05 -0.95
v 0.8 -0.05 -0.95
v 1 -0.05 -0.95
v 0.1 -0.05 -1.05
v 0.5 -0.05 -1.05
v 1 -0.05 -1.05
v 1.1 -0.05 -1.05
v 0 -0.05 -1.25
v 0.1 -0.05 -1.25
v 0.8 -0.05 -1.25
v 1 -0.05 -1.25
v 1.1 -0.05 -1.25
v 1.2 -0.05 -1.25
v 1.3 -0.05 -1.25
v 0 -0.05 -1.35
v 0.1 -0.05 -1.35
v 0.8 -0.05 -1.35
v 0.9 -0.05 -1.35
v 1 -0.05 -1.35
v 1.1 -0.05 -1.35
v 0.1 -0.05 -1.45
v 0.2 -0.05 -1.45
v 0.8 -0.05 -1.45
v 0.9 -0.05 -1.45
v 0.1 -0.05 -1.55
v 0.2 -0.05 -1.55
v 0.3 -0.05 -1.55
v 0.8 -0.05 -1.55
v 0.9 -0.05 -1.55
v 1 -0.05 -1.55
v 1.1 -0.05 -1.55
v 0.2 -0.05 -1.65
v 0.3 -0.05 -1.65
v 0.8 -0.05 -1.65
v 0.9 -0.05 -1.65
v 1 -0.05 -1.65
v 0.8 -0.05 -1.75
v 0.9 -0.05 -1.75
v 0.3 -0.05 -1.85
v 1.2 -0.05 -1.85
v 0.3 -0.05 -1.95
v 1.3 -0.05 -1.95
v -1.3 0.05 1.95
v 0.6 0.05 1.95
v -1.2 0.05 1.85
v 0.5 0.05 1.85
v 0.6 0.05 1.85
v -1 0.05 1.75
v -0.9 0.05 1.75
v 0.5 0.05 1.75
v 0.6 0.05 1.75
v -1.1 0.05 1.65
v -1 0.05 1.65
v -0.6 0.05 1.65
v -0.5 0.05 1.65
v -0.3 0.05 1.65
v -0.2 0.05 1.65
v 0.6 0.05 1.65
v 0.7 0.05 1.65
v -1.1 0.05 1.55
v -0.9 0.05 1.55
v 0.1 0.05 1.55
v 0.5 0.05 1.55
v 0.7 0.05 1.55
v 0.8 0.05 1.55
v -1 0.05 1.45
v -0.9 0.05 1.45
v -0.5 0.05 1.45
v -0.3 0.05 1.45
v 0.1 0.05 1.45
v 0.5 0.05 1.45
v 0.8 0.05 1.45
v 0.9 0.05 1.45
v -1.3 0.05 1.35
v -1.2 0.05 1.35
v -1 0.05 1.35
v -0.9 0.05 1.35
v -0.6 0.05 1.35
v -0.2 0.05 1.35
v 0.9 0.05 1.35
v 1 0.05 1.35
v 1.1 0.05 1.35
v -1 0.05 1.25
v -0.9 0.05 1.25
v 0.6 0.05 1.25
v 0.7 0.05 1.25
v 1.1 0.05 1.25
v 1.2 0.05 1.25
v -1 0.05 1.15
v -0.9 0.05 1.15
v -0.7 0.05 1.15
v -0.6 0.05 1.15
v 0.3 0.05 1.15
v 0.4 0.05 1.15
v 0.9 0.05 1.15
v 1 0.05 1.15
v -1 0.05 1.05
v -0.9 0.05 1.05
v -0.7 0.05 1.05
v -0.6 0.05 1.05
v -1.2 0.05 0.95
v -1.1 0.05 0.95
v -1 0.05 0.95
v -0.9 0.05 0.95
v 0.2 0.05 0.95
v 0.3 0.05 0.95
v 0.8 0.05 0.95
v 1 0.05 0.95
v -0.8 0.05 0.85
v -0.2 0.05 0.85
v 0.2 0.05 0.85
v 0.4 0.05 0.85
v 0.8 0.05 0.85
v 0.9 0.05 0.85
v 1 0.05 0.85
v 1.1 0.05 0.85
v 1.2 0.05 0.85
v 1.3 0.05 0.85
v -0.6 0.05 0.75
v -0.5 0.05 0.75
v -0.2 0.05 0.75
v -0.0999999 0.05 0.75
v 0.3 0.05 0.75
v 0.5 0.05 0.75
v 0.9 0.05 0.75
v 1.1 0.05 0.75
v -1.1 0.05 0.65
v -1 0.05 0.65
v -0.9 0.05 0.65
v -0.8 0.05 0.65
v -0.7 0.05 0.65
v -0.6 0.05 0.65
v -0.5 0.05 0.65
v -0.2 0.05 0.65
v -0.0999999 0.05 0.65
v 0 0.05 0.65
v 0.1 0.05 0.65
v 0.2 0.05 0.65
v 0.4 0.05 0.65
v 0.5 0.05 0.65
v -0.8 0.05 0.55
v -0.7 0.05 0.55
v 0.5 0.05 0.55
v 1 0.05 0.55
v -1 0.05 0.45
v -0.9 0.05 0.45
v -0.5 0.05 0.45
v -0.4 0.05 0.45
v -0.2 0.05 0.45
v -0.0999999 0.05 0.45
v 0.5 0.05 0.45
v 1 0.05 0.45
v 0.1 0.05 0.35
v 0.2 0.05 0.35
v 0.4 0.05 0.35
v 0.5 0.05 0.35
v -0.9 0.05 0.25
v -0.8 0.05 0.25
v -0.6 0.05 0.25
v -0.5 0.05 0.25
v 0.1 0.05 0.25
v 0.2 0.05 0.25
v 0.3 0.05 0.25
v 0.5 0.05 0.25
v 0.8 0.05 0.25
v 1 0.05 0.25
v -0.4 0.05 0.15
v -0.3 0.05 0.15
v -0.0999999 0.05 0.15
v 0 0.05 0.15
v 0.1 0.05 0.15
v -0.8 0.05 0.05
v -0.7 0.05 0.05
v -0.2 0.05 0.05
v -0.0999999 0.05 0.05
v 0.2 0.05 0.05
v 0.4 0.05 0.05
v 0.8 0.05 0.05
v 1 0.05 0.05
v -0.7 0.05 -0.0500002
v -0.6 0.05 -0.0500002
v -0.3 0.05 -0.0500002
v -0.2 0.05 -0.0500002
v 0.1 0.05 -0.0500002
v 0.2 0.05 -0.0500002
v 0.3 0.05 -0.0500002
v -0.4 0.05 -0.15
v -0.3 0.05 -0.15
v 0.9 0.05 -0.15
v 1 0.05 -0.15
v -0.6 0.05 -0.25
v -0.4 0.05 -0.25
v 0.1 0.05 -0.25
v 0.3 0.05 -0.25
v 1 0.05 -0.25
v 1.1 0.05 -0.25
v 0.1 0.05 -0.35
v 0.2 0.05 -0.35
v 0.3 0.05 -0.35
v 0.4 0.05 -0.35
v 0.9 0.05 -0.35
v 1 0.05 -0.35
v 0 0.05 -0.45
v 0.1 0.05 -0.45
v 0.2 0.05 -0.45
v 0.3 0.05 -0.45
v 0.9 0.05 -0.45
v 1 0.05 -0.45
v 0.9 0.05 -0.55
v 1.1 0.05 -0.55
v 0.7 0.05 -0.65
v 0.8 0.05 -0.65
v 1 0.05 -0.65
v 1.1 0.05 -0.65
v 0.3 0.05 -0.75
v 0.4 0.05 -0.75
v 0.8 0.05 -0.75
v 0.9 0.05 -0.75
v 1.1 0.05 -0.75
v 1.2 0.05 -0.75
v 0.7 0.05 -0.85
v 0.8 0.05 -0.85
v 0.9 0.05 -0.85
v 1 0.05 -0.85
v 1.2 0.05 -0.85
v 1.3 0.05 -0.85
v 0 0.05 -0.95
v 0.3 0.05 -0.95
v 0.4 0.05 -0.95
v 0.5 0.05 -0.95
v 0.8 0.05 -0.95
v 1 0.05 -0.95
v 0.1 0.05 -1.05
v 0.5 0.05 -1.05
v 1 0.05 -1.05
v 1.1 0.05 -1.05
v 0 0.05 -1.25
v 0.1 0.05 -1.25
v 0.8 0.05 -1.25
v 1 0.05 -1.25
v 1.1 0.05 -1.25
v 1.2 0.05 -1.25
v 1.3 0.05 -1.25
v 0 0.05 -1.35
v 0.1 0.05 -1.35
v 0.8 0.05 -1.35
v 0.9 0.05 -1.35
v 1 0.05 -1.35
v 1.1 0.05 -1.35
v 0.1 0.05 -1.45
v 0.2 0.05 -1.45
v 0.8 0.05 -1.45
v 0.9 0.05 -1.45
v 0.1 0.05 -1.55
v 0.2 0.05 -1.55
v 0.3 0.05 -1.55
v 0.8 0.05 -1.55
v 0.9 0.05 -1.55
v 1 0.05 -1.55
v 1.1 0.05 -1.55
v 0.2 0.05 -1.65
v 0.3 0.05 -1.65
v 0.8 0.05 -1.65
v 0.9 0.05 -1.65
v 1 0.05 -1.65
v 0.8 0.05 -1.75
v 0.9 0.05 -1.75
v 0.3 0.05 -1.85
v 1.2 0.05 -1.85
v 0.3 0.05 -1.95
v 1.3 0.05 -1.95

# faces
f 3/4/1 2/4/1 1/4/1
f 4/4/1 2/4/1 3/4/1
f 7/2/1 6/2/1 5/2/1
f 8/2/1 6/2/1 7/2/1
f 11/2/1 10/2/1 9/2/1
f 12/2/1 10/2/1 11/2/1
f 15/2/1 14/2/1 13/2/1
f 16/2/1 14/2/1 15/2/1
f 19/5/1 18/5/1 17/5/1
f 20/5/1 18/5/1 19/5/1
f 23/2/1 22/2/1 21/2/1
f 24/2/1 22/2/1 23/2/1
f 27/2/1 26/2/1 25/2/1
f 28/2/1 26/2/1 27/2/1
f 31/3/1 30/3/1 29/3/1
f 32/3/1 30/3/1 31/3/1
f 37/2/1 34/2/1 33/2/1
f 38/1/1 35/1/1 34/1/1
f 38/2/1 34/2/1 37/2/1
f 39/2/1 36/2/1 35/2/1
f 39/1/1 35/1/1 38/1/1
f 40/2/1 36/2/1 39/2/1
f 48/2/1 42/2/1 41/2/1
f 49/1/1 43/1/1 42/1/1
f 49/2/1 42/2/1 48/2/1
f 50/2/1 44/2/1 43/2/1
f 50/1/1 43/1/1 49/1/1
f 51/2/1 44/2/1 50/2/1
f 52/2/1 46/2/1 45/2/1
f 53/1/1 47/1/1 46/1/1
f 53/2/1 46/2/1 52/2/1
f 54/1/1 47/1/1 53/1/1
f 60/2/1 56/2/1 55/2/1
f 61/1/1 57/1/1 56/1/1
f 61/2/1 56/2/1 60/2/1
f 62/1/1 57/1/1 61/1/1
f 63/1/1 59/1/1 58/1/1
f 64/1/1 59/1/1 63/1/1
f 68/2/1 66/2/1 65/2/1
f 69/4/1 67/4/1 66/4/1
f 69/2/1 66/2/1 68/2/1
f 70/4/1 67/4/1 69/4/1
f 73/2/1 72/2/1 71/2/1
f 74/2/1 72/2/1 73/2/1
f 77/4/1 76/4/1 75/4/1
f 78/4/1 76/4/1 77/4/1
f 79/3/2 80/3/2 81/3/2
f 81/3/2 80/3/2 82/3/2
f 83/3/2 84/3/2 85/3/2
f 85/3/2 84/3/2 86/3/2
f 87/2/2 88/2/2 89/2/2
f 89/2/2 88/2/2 90/2/2
f 91/2/2 92/2/2 93/2/2
f 93/2/2 92/2/2 94/2/2
f 95/2/2 96/2/2 97/2/2
f 97/2/2 96/2/2 98/2/2
f 99/2/2 100/2/2 101/2/2
f 101/2/2 100/2/2 102/2/2
f 103/4/2 104/4/2 107/4/2
f 107/4/2 104/4/2 108/4/2
f 105/2/2 106/2/2 109/2/2
f 109/2/2 106/2/2 110/2/2
f 111/1/2 112/1/2 113/1/2
f 113/1/2 112/1/2 114/1/2
f 115/2/2 116/2/2 117/2/2
f 117/2/2 116/2/2 118/2/2
f 119/2/2 120/2/2 121/2/2
f 121/2/2 120/2/2 122/2/2
f 123/2/2 124/2/2 127/2/2
f 124/1/2 125/1/2 128/1/2
f 127/2/2 124/2/2 128/2/2
f 125/2/2 126/2/2 129/2/2
f 128/1/2 125/1/2 129/1/2
f 129/2/2 126/2/2 130/2/2
f 131/2/2 132/2/2 135/2/2
f 135/2/2 132/2/2 136/2/2
f 133/2/2 134/2/2 137/2/2
f 137/2/2 134/2/2 138/2/2
f 139/2/2 140/2/2 141/2/2
f 141/2/2 140/2/2 142/2/2
f 143/4/2 144/4/2 147/4/2
f 147/4/2 144/4/2 148/4/2
f 145/4/2 146/4/2 149/4/2
f 149/4/2 146/4/2 150/4/2
f 153/4/3 152/4/3 151/4/3
f 154/4/3 152/4/3 153/4/3
f 157/2/3 156/2/3 155/2/3
f 158/2/3 156/2/3 157/2/3
f 161/1/3 160/1/3 159/1/3
f 162/1/3 160/1/3 161/1/3
f 165/2/3 164/2/3 163/2/3
f 166/2/3 164/2/3 165/2/3
f 169/2/3 168/2/3 167/2/3
f 170/2/3 168/2/3 169/2/3
f 173/1/3 172/1/3 171/1/3
f 174/1/3 172/1/3 173/1/3
f 175/2/3 174/2/3 173/2/3
f 176/2/3 174/2/3 175/2/3
f 179/2/3 178/2/3 177/2/3
f 180/2/3 178/2/3 179/2/3
f 183/4/3 182/4/3 181/4/3
f 184/4/3 182/4/3 183/4/3
f 187/2/3 186/2/3 185/2/3
f 188/2/3 186/2/3 187/2/3
f 191/2/3 190/2/3 189/2/3
f 192/2/3 190/2/3 191/2/3
f 195/2/3 194/2/3 193/2/3
f 196/2/3 194/2/3 195/2/3
f 199/2/3 198/2/3 197/2/3
f 200/2/3 198/2/3 199/2/3
f 201/4/3 200/4/3 199/4/3
f 202/4/3 200/4/3 201/4/3
f 203/4/4 204/4/4 205/4/4
f 205/4/4 204/4/4 206/4/4
f 207/4/4 208/4/4 209/4/4
f 209/4/4 208/4/4 210/4/4
f 211/2/4 212/2/4 213/2/4
f 213/2/4 212/2/4 214/2/4
f 215/2/4 216/2/4 217/2/4
f 217/2/4 216/2/4 218/2/4
f 219/2/4 220/2/4 221/2/4
f 221/2/4 220/2/4 222/2/4
f 223/5/4 224/5/4 225/5/4
f 225/5/4 224/5/4 226/5/4
f 227/2/4 228/2/4 229/2/4
f 229/2/4 228/2/4 230/2/4
f 231/5/4 232/5/4 233/5/4
f 233/5/4 232/5/4 234/5/4
f 233/2/4 234/2/4 235/2/4
f 235/2/4 234/2/4 236/2/4
f 237/2/4 238/2/4 239/2/4
f 239/2/4 238/2/4 240/2/4
f 241/2/4 242/2/4 243/2/4
f 243/2/4 242/2/4 244/2/4
f 245/2/4 246/2/4 247/2/4
f 247/2/4 246/2/4 248/2/4
f 249/2/4 250/2/4 251/2/4
f 251/2/4 250/2/4 252/2/4
f 253/3/4 254/3/4 255/3/4
f 255/3/4 254/3/4 256/3/4
f 257/3/4 258/3/4 259/3/4
f 259/3/4 258/3/4 260/3/4
f 261/2/4 262/2/4 263/2/4
f 263/2/4 262/2/4 264/2/4
f 265/2/4 266/2/4 267/2/4
f 267/2/4 266/2/4 268/2/4
f 269/4/4 270/4/4 271/4/4
f 271/4/4 270/4/4 272/4/4
f 273/2/4 274/2/4 275/2/4
f 275/2/4 274/2/4 276/2/4
f 277/1/4 278/1/4 279/1/4
f 279/1/4 278/1/4 280/1/4
f 281/1/4 282/1/4 283/1/4
f 283/1/4 282/1/4 284/1/4
f 285/4/4 286/4/4 287/4/4
f 287/4/4 286/4/4 288/4/4
f 291/4/5 290/4/5 289/4/5
f 292/4/5 290/4/5 291/4/5
f 293/4/5 290/4/5 292/4/5
f 294/2/5 292/2/5 291/2/5
f 295/2/5 292/2/5 294/2/5
f 296/2/5 292/2/5 295/2/5
f 298/2/5 294/2/5 291/2/5
f 299/1/5 295/1/5 294/1/5
f 299/2/5 294/2/5 298/2/5
f 300/2/5 297/2/5 296/2/5
f 300/2/5 296/2/5 295/2/5
f 301/2/5 297/2/5 300/2/5
f 302/2/5 297/2/5 301/2/5
f 303/2/5 297/2/5 302/2/5
f 304/2/5 297/2/5 303/2/5
f 306/2/5 298/2/5 291/2/5
f 306/1/5 299/1/5 298/1/5
f 307/1/5 295/1/5 299/1/5
f 307/1/5 299/1/5 306/1/5
f 307/2/5 300/2/5 295/2/5
f 308/2/5 304/2/5 303/2/5
f 309/2/5 304/2/5 308/2/5
f 310/1/5 305/1/5 304/1/5
f 312/2/5 307/2/5 306/2/5
f 313/2/5 300/2/5 307/2/5
f 313/2/5 307/2/5 312/2/5
f 314/2/5 302/2/5 301/2/5
f 314/1/5 301/1/5 300/1/5
f 315/1/5 303/1/5 302/1/5
f 315/2/5 302/2/5 314/2/5
f 316/2/5 308/2/5 303/2/5
f 316/1/5 309/1/5 308/1/5
f 317/2/5 304/2/5 309/2/5
f 317/1/5 309/1/5 316/1/5
f 318/2/5 311/2/5 310/2/5
f 320/4/5 291/4/5 289/4/5
f 321/2/5 312/2/5 306/2/5
f 321/4/5 291/4/5 320/4/5
f 321/2/5 306/2/5 291/2/5
f 322/1/5 313/1/5 312/1/5
f 322/2/5 312/2/5 321/2/5
f 323/2/5 300/2/5 313/2/5
f 323/1/5 313/1/5 322/1/5
f 324/1/5 314/1/5 300/1/5
f 324/2/5 300/2/5 323/2/5
f 324/1/5 315/1/5 314/1/5
f 325/2/5 316/2/5 303/2/5
f 325/1/5 315/1/5 324/1/5
f 325/1/5 303/1/5 315/1/5
f 325/2/5 317/2/5 316/2/5
f 326/2/5 319/2/5 318/2/5
f 329/2/5 324/2/5 323/2/5
f 329/2/5 323/2/5 322/2/5
f 329/2/5 322/2/5 321/2/5
f 329/2/5 325/2/5 324/2/5
f 330/2/5 325/2/5 329/2/5
f 331/2/5 317/2/5 325/2/5
f 331/2/5 325/2/5 330/2/5
f 331/1/5 310/1/5 304/1/5
f 331/2/5 304/2/5 317/2/5
f 332/2/5 318/2/5 310/2/5
f 332/1/5 310/1/5 331/1/5
f 332/2/5 326/2/5 318/2/5
f 333/2/5 328/2/5 327/2/5
f 335/1/5 330/1/5 329/1/5
f 335/2/5 329/2/5 321/2/5
f 336/2/5 331/2/5 330/2/5
f 336/1/5 330/1/5 335/1/5
f 336/2/5 332/2/5 331/2/5
f 337/2/5 332/2/5 336/2/5
f 338/2/5 332/2/5 337/2/5
f 339/2/5 332/2/5 338/2/5
f 340/2/5 332/2/5 339/2/5
f 341/2/5 326/2/5 332/2/5
f 341/2/5 332/2/5 340/2/5
f 341/1/5 327/1/5 326/1/5
f 342/2/5 334/2/5 333/2/5
f 342/1/5 327/1/5 341/1/5
f 342/2/5 333/2/5 327/2/5
f 343/2/5 335/2/5 321/2/5
f 343/2/5 336/2/5 335/2/5
f 343/2/5 337/2/5 336/2/5
f 344/2/5 337/2/5 343/2/5
f 345/1/5 338/1/5 337/1/5
f 345/2/5 337/2/5 344/2/5
f 346/2/5 339/2/5 338/2/5
f 346/1/5 338/1/5 345/1/5
f 347/2/5 343/2/5 321/2/5
f 348/2/5 343/2/5 347/2/5
f 349/1/5 344/1/5 343/1/5
f 349/2/5 343/2/5 348/2/5
f 350/2/5 345/2/5 344/2/5
f 350/1/5 344/1/5 349/1/5
f 350/2/5 346/2/5 345/2/5
f 351/2/5 339/2/5 346/2/5
f 351/2/5 346/2/5 350/2/5
f 352/1/5 340/1/5 339/1/5
f 352/2/5 339/2/5 351/2/5
f 353/2/5 341/2/5 340/2/5
f 353/2/5 342/2/5 341/2/5
f 354/2/5 334/2/5 342/2/5
f 354/2/5 342/2/5 353/2/5
f 355/2/5 351/2/5 350/2/5
f 355/2/5 349/2/5 348/2/5
f 355/2/5 350/2/5 349/2/5
f 356/2/5 351/2/5 355/2/5
f 357/1/5 352/1/5 351/1/5
f 357/2/5 351/2/5 356/2/5
f 358/1/5 340/1/5 352/1/5
f 358/1/5 352/1/5 357/1/5
f 358/2/5 353/2/5 340/2/5
f 359/1/5 354/1/5 353/1/5
f 359/2/5 353/2/5 358/2/5
f 360/1/5 354/1/5 359/1/5
f 361/2/5 334/2/5 354/2/5
f 361/1/5 354/1/5 360/1/5
f 362/2/5 334/2/5 361/2/5
f 363/2/5 334/2/5 362/2/5
f 365/5/5 356/5/5 355/5/5
f 366/5/5 356/5/5 365/5/5
f 367/2/5 357/2/5 356/2/5
f 367/5/5 356/5/5 366/5/5
f 367/2/5 360/2/5 359/2/5
f 367/2/5 358/2/5 357/2/5
f 367/2/5 359/2/5 358/2/5
f 368/2/5 360/2/5 367/2/5
f 369/2/5 360/2/5 368/2/5
f 370/2/5 360/2/5 369/2/5
f 371/1/5 362/1/5 361/1/5
f 371/2/5 360/2/5 370/2/5
f 371/1/5 361/1/5 360/1/5
f 372/2/5 363/2/5 362/2/5
f 372/1/5 362/1/5 371/1/5
f 373/2/5 355/2/5 348/2/5
f 374/2/5 355/2/5 373/2/5
f 375/2/5 355/2/5 374/2/5
f 376/5/5 365/5/5 355/5/5
f 376/2/5 355/2/5 375/2/5
f 377/5/5 365/5/5 376/5/5
f 378/2/5 366/2/5 365/2/5
f 378/5/5 365/5/5 377/5/5
f 379/5/5 367/5/5 366/5/5
f 379/2/5 366/2/5 378/2/5
f 379/5/5 368/5/5 367/5/5
f 380/5/5 368/5/5 379/5/5
f 381/2/5 369/2/5 368/2/5
f 381/5/5 368/5/5 380/5/5
f 382/2/5 369/2/5 381/2/5
f 383/2/5 369/2/5 382/2/5
f 384/2/5 369/2/5 383/2/5
f 385/1/5 370/1/5 369/1/5
f 386/2/5 371/2/5 370/2/5
f 386/1/5 370/1/5 385/1/5
f 386/2/5 372/2/5 371/2/5
f 387/5/5 377/5/5 376/5/5
f 387/5/5 376/5/5 375/5/5
f 388/2/5 380/2/5 379/2/5
f 388/5/5 377/5/5 387/5/5
f 388/2/5 378/2/5 377/2/5
f 388/2/5 379/2/5 378/2/5
f 389/2/5 372/2/5 386/2/5
f 389/2/5 386/2/5 385/2/5
f 390/2/5 372/2/5 389/2/5
f 391/2/5 375/2/5 374/2/5
f 392/5/5 387/5/5 375/5/5
f 392/2/5 375/2/5 391/2/5
f 393/2/5 380/2/5 388/2/5
f 393/2/5 388/2/5 387/2/5
f 394/2/5 380/2/5 393/2/5
f 395/5/5 382/5/5 381/5/5
f 395/2/5 380/2/5 394/2/5
f 395/5/5 381/5/5 380/5/5
f 396/5/5 382/5/5 395/5/5
f 397/2/5 389/2/5 385/2/5
f 397/1/5 390/1/5 389/1/5
f 398/2/5 372/2/5 390/2/5
f 398/1/5 390/1/5 397/1/5
f 399/1/5 384/1/5 383/1/5
f 399/2/5 383/2/5 382/2/5
f 400/2/5 369/2/5 384/2/5
f 400/1/5 384/1/5 399/1/5
f 401/2/5 397/2/5 385/2/5
f 401/1/5 385/1/5 369/1/5
f 401/2/5 398/2/5 397/2/5
f 402/2/5 398/2/5 401/2/5
f 403/5/5 387/5/5 392/5/5
f 404/2/5 393/2/5 387/2/5
f 404/5/5 387/5/5 403/5/5
f 405/2/5 393/2/5 404/2/5
f 406/3/5 394/3/5 393/3/5
f 406/2/5 393/2/5 405/2/5
f 407/2/5 400/2/5 399/2/5
f 407/2/5 399/2/5 382/2/5
f 408/2/5 369/2/5 400/2/5
f 408/2/5 400/2/5 407/2/5
f 409/1/5 401/1/5 369/1/5
f 409/2/5 369/2/5 408/2/5
f 409/1/5 402/1/5 401/1/5
f 410/2/5 398/2/5 402/2/5
f 410/1/5 402/1/5 409/1/5
f 411/2/5 398/2/5 410/2/5
f 412/2/5 372/2/5 398/2/5
f 412/2/5 398/2/5 411/2/5
f 413/3/5 394/3/5 406/3/5
f 413/3/5 406/3/5 405/3/5
f 413/2/5 396/2/5 395/2/5
f 413/2/5 395/2/5 394/2/5
f 414/2/5 396/2/5 413/2/5
f 415/5/5 382/5/5 396/5/5
f 415/2/5 396/2/5 414/2/5
f 416/2/5 407/2/5 382/2/5
f 416/5/5 382/5/5 415/5/5
f 417/2/5 407/2/5 416/2/5
f 418/2/5 405/2/5 404/2/5
f 419/2/5 405/2/5 418/2/5
f 420/2/5 415/2/5 414/2/5
f 421/2/5 415/2/5 420/2/5
f 422/2/5 409/2/5 408/2/5
f 422/2/5 411/2/5 410/2/5
f 422/2/5 410/2/5 409/2/5
f 423/2/5 411/2/5 422/2/5
f 424/1/5 412/1/5 411/1/5
f 424/2/5 411/2/5 423/2/5
f 425/2/5 372/2/5 412/2/5
f 425/1/5 412/1/5 424/1/5
f 426/2/5 405/2/5 419/2/5
f 427/3/5 414/3/5 413/3/5
f 427/2/5 405/2/5 426/2/5
f 427/3/5 413/3/5 405/3/5
f 428/2/5 420/2/5 414/2/5
f 428/3/5 414/3/5 427/3/5
f 429/2/5 420/2/5 428/2/5
f 431/1/5 423/1/5 422/1/5
f 432/1/5 423/1/5 431/1/5
f 433/3/5 428/3/5 427/3/5
f 434/3/5 428/3/5 433/3/5
f 435/2/5 425/2/5 424/2/5
f 435/2/5 424/2/5 423/2/5
f 436/2/5 372/2/5 425/2/5
f 436/2/5 425/2/5 435/2/5
f 437/3/5 433/3/5 427/3/5
f 438/3/5 433/3/5 437/3/5
f 439/2/5 432/2/5 431/2/5
f 439/2/5 431/2/5 430/2/5
f 440/1/5 423/1/5 432/1/5
f 440/2/5 432/2/5 439/2/5
f 441/2/5 372/2/5 436/2/5
f 441/1/5 436/1/5 435/1/5
f 442/2/5 363/2/5 372/2/5
f 442/2/5 372/2/5 441/2/5
f 443/1/5 440/1/5 439/1/5
f 444/1/5 440/1/5 443/1/5
f 445/1/5 423/1/5 440/1/5
f 445/1/5 440/1/5 444/1/5
f 446/2/5 435/2/5 423/2/5
f 446/1/5 423/1/5 445/1/5
f 447/1/5 441/1/5 435/1/5
f 447/2/5 435/2/5 446/2/5
f 447/1/5 442/1/5 441/1/5
f 448/1/5 442/1/5 447/1/5
f 450/2/5 444/2/5 443/2/5
f 451/1/5 445/1/5 444/1/5
f 451/2/5 444/2/5 450/2/5
f 452/2/5 446/2/5 445/2/5
f 452/1/5 445/1/5 451/1/5
f 452/2/5 447/2/5 446/2/5
f 452/2/5 448/2/5 447/2/5
f 453/2/5 448/2/5 452/2/5
f 454/1/5 442/1/5 448/1/5
f 454/2/5 448/2/5 453/2/5
f 455/2/5 450/2/5 449/2/5
f 455/2/5 451/2/5 450/2/5
f 455/1/5 454/1/5 453/1/5
f 455/2/5 452/2/5 451/2/5
f 455/2/5 453/2/5 452/2/5
f 456/1/5 442/1/5 454/1/5
f 456/1/5 454/1/5 455/1/5
f 456/2/5 363/2/5 442/2/5
f 457/2/5 455/2/5 449/2/5
f 457/2/5 456/2/5 455/2/5
f 458/2/5 456/2/5 457/2/5
f 459/2/5 456/2/5 458/2/5
f 460/2/5 363/2/5 456/2/5
f 460/2/5 456/2/5 459/2/5
f 461/2/5 457/2/5 449/2/5
f 462/2/5 457/2/5 461/2/5
f 463/2/5 459/2/5 458/2/5
f 463/1/5 458/1/5 457/1/5
f 464/2/5 459/2/5 463/2/5
f 465/2/5 363/2/5 460/2/5
f 466/4/5 364/4/5 363/4/5
f 466/2/5 363/2/5 465/2/5
f 467/2/5 457/2/5 462/2/5
f 467/1/5 463/1/5 457/1/5
f 467/1/5 464/1/5 463/1/5
f 468/1/5 464/1/5 467/1/5
f 469/2/5 459/2/5 464/2/5
f 469/1/5 464/1/5 468/1/5
f 470/2/5 459/2/5 469/2/5
f 471/4/5 364/4/5 466/4/5
f 472/4/5 364/4/5 471/4/5
f 473/2/5 461/2/5 449/2/5
f 474/1/5 462/1/5 461/1/5
f 474/2/5 461/2/5 473/2/5
f 475/2/5 468/2/5 467/2/5
f 475/1/5 462/1/5 474/1/5
f 475/2/5 467/2/5 462/2/5
f 476/2/5 468/2/5 475/2/5
f 477/1/5 470/1/5 469/1/5
f 477/2/5 468/2/5 476/2/5
f 477/1/5 469/1/5 468/1/5
f 478/1/5 470/1/5 477/1/5
f 479/1/5 476/1/5 475/1/5
f 479/1/5 474/1/5 473/1/5
f 479/1/5 475/1/5 474/1/5
f 480/2/5 478/2/5 477/2/5
f 480/1/5 476/1/5 479/1/5
f 480/2/5 477/2/5 476/2/5
f 481/2/5 478/2/5 480/2/5
f 483/1/5 479/1/5 473/1/5
f 484/2/5 481/2/5 480/2/5
f 484/1/5 479/1/5 483/1/5
f 484/2/5 482/2/5 481/2/5
f 484/2/5 480/2/5 479/2/5
f 485/2/5 482/2/5 484/2/5
f 486/2/5 482/2/5 485/2/5
f 487/2/5 482/2/5 486/2/5
f 490/2/5 484/2/5 483/2/5
f 490/2/5 485/2/5 484/2/5
f 491/2/5 485/2/5 490/2/5
f 492/1/5 486/1/5 485/1/5
f 492/2/5 485/2/5 491/2/5
f 493/1/5 486/1/5 492/1/5
f 494/2/5 488/2/5 487/2/5
f 494/1/5 486/1/5 493/1/5
f 494/2/5 487/2/5 486/2/5
f 495/2/5 488/2/5 494/2/5
f 496/2/5 493/2/5 492/2/5
f 496/2/5 492/2/5 491/2/5
f 497/2/5 493/2/5 496/2/5
f 498/2/5 493/2/5 497/2/5
f 499/1/5 495/1/5 494/1/5
f 499/2/5 493/2/5 498/2/5
f 499/1/5 494/1/5 493/1/5
f 500/1/5 497/1/5 496/1/5
f 501/2/5 498/2/5 497/2/5
f 501/1/5 497/1/5 500/1/5
f 502/2/5 498/2/5 501/2/5
f 503/1/5 499/1/5 498/1/5
f 503/2/5 498/2/5 502/2/5
f 504/1/5 495/1/5 499/1/5
f 504/1/5 499/1/5 503/1/5
f 505/1/5 495/1/5 504/1/5
f 506/2/5 488/2/5 495/2/5
f 506/1/5 495/1/5 505/1/5
f 507/1/5 502/1/5 501/1/5
f 508/2/5 503/2/5 502/2/5
f 508/1/5 502/1/5 507/1/5
f 508/2/5 504/2/5 503/2/5
f 509/2/5 504/2/5 508/2/5
f 510/1/5 505/1/5 504/1/5
f 510/2/5 504/2/5 509/2/5
f 511/2/5 506/2/5 505/2/5
f 511/1/5 505/1/5 510/1/5
f 512/2/5 509/2/5 508/2/5
f 512/1/5 510/1/5 509/1/5
f 513/2/5 511/2/5 510/2/5
f 513/1/5 510/1/5 512/1/5
f 514/2/5 512/2/5 508/2/5
f 514/2/5 513/2/5 512/2/5
f 515/4/5 489/4/5 488/4/5
f 515/2/5 513/2/5 514/2/5
f 515/2/5 506/2/5 511/2/5
f 515/2/5 511/2/5 513/2/5
f 515/2/5 488/2/5 506/2/5
f 516/4/5 515/4/5 514/4/5
f 517/4/5 489/4/5 515/4/5
f 517/4/5 515/4/5 516/4/5
f 518/4/6 519/4/6 520/4/6
f 520/4/6 519/4/6 521/4/6
f 521/4/6 519/4/6 522/4/6
f 520/2/6 521/2/6 523/2/6
f 523/2/6 521/2/6 524/2/6
f 524/2/6 521/2/6 525/2/6
f 520/2/6 523/2/6 527/2/6
f 523/1/6 524/1/6 528/1/6
f 527/2/6 523/2/6 528/2/6
f 525/2/6 526/2/6 529/2/6
f 524/2/6 525/2/6 529/2/6
f 529/2/6 526/2/6 530/2/6
f 530/2/6 526/2/6 531/2/6
f 531/2/6 526/2/6 532/2/6
f 532/2/6 526/2/6 533/2/6
f 520/2/6 527/2/6 535/2/6
f 527/1/6 528/1/6 535/1/6
f 528/1/6 524/1/6 536/1/6
f 535/1/6 528/1/6 536/1/6
f 524/2/6 529/2/6 536/2/6
f 532/2/6 533/2/6 537/2/6
f 537/2/6 533/2/6 538/2/6
f 533/1/6 534/1/6 539/1/6
f 535/2/6 536/2/6 541/2/6
f 536/2/6 529/2/6 542/2/6
f 541/2/6 536/2/6 542/2/6
f 530/2/6 531/2/6 543/2/6
f 529/1/6 530/1/6 543/1/6
f 531/1/6 532/1/6 544/1/6
f 543/2/6 531/2/6 544/2/6
f 532/2/6 537/2/6 545/2/6
f 537/1/6 538/1/6 545/1/6
f 538/2/6 533/2/6 546/2/6
f 545/1/6 538/1/6 546/1/6
f 539/2/6 540/2/6 547/2/6
f 518/4/6 520/4/6 549/4/6
f 535/2/6 541/2/6 550/2/6
f 549/4/6 520/4/6 550/4/6
f 520/2/6 535/2/6 550/2/6
f 541/1/6 542/1/6 551/1/6
f 550/2/6 541/2/6 551/2/6
f 542/2/6 529/2/6 552/2/6
f 551/1/6 542/1/6 552/1/6
f 529/1/6 543/1/6 553/1/6
f 552/2/6 529/2/6 553/2/6
f 543/1/6 544/1/6 553/1/6
f 532/2/6 545/2/6 554/2/6
f 553/1/6 544/1/6 554/1/6
f 544/1/6 532/1/6 554/1/6
f 545/2/6 546/2/6 554/2/6
f 547/2/6 548/2/6 555/2/6
f 552/2/6 553/2/6 558/2/6
f 551/2/6 552/2/6 558/2/6
f 550/2/6 551/2/6 558/2/6
f 553/2/6 554/2/6 558/2/6
f 558/2/6 554/2/6 559/2/6
f 554/2/6 546/2/6 560/2/6
f 559/2/6 554/2/6 560/2/6
f 533/1/6 539/1/6 560/1/6
f 546/2/6 533/2/6 560/2/6
f 539/2/6 547/2/6 561/2/6
f 560/1/6 539/1/6 561/1/6
f 547/2/6 555/2/6 561/2/6
f 556/2/6 557/2/6 562/2/6
f 558/1/6 559/1/6 564/1/6
f 550/2/6 558/2/6 564/2/6
f 559/2/6 560/2/6 565/2/6
f 564/1/6 559/1/6 565/1/6
f 560/2/6 561/2/6 565/2/6
f 565/2/6 561/2/6 566/2/6
f 566/2/6 561/2/6 567/2/6
f 567/2/6 561/2/6 568/2/6
f 568/2/6 561/2/6 569/2/6
f 561/2/6 555/2/6 570/2/6
f 569/2/6 561/2/6 570/2/6
f 555/1/6 556/1/6 570/1/6
f 562/2/6 563/2/6 571/2/6
f 570/1/6 556/1/6 571/1/6
f 556/2/6 562/2/6 571/2/6
f 550/2/6 564/2/6 572/2/6
f 564/2/6 565/2/6 572/2/6
f 565/2/6 566/2/6 572/2/6
f 572/2/6 566/2/6 573/2/6
f 566/1/6 567/1/6 574/1/6
f 573/2/6 566/2/6 574/2/6
f 567/2/6 568/2/6 575/2/6
f 574/1/6 567/1/6 575/1/6
f 550/2/6 572/2/6 576/2/6
f 576/2/6 572/2/6 577/2/6
f 572/1/6 573/1/6 578/1/6
f 577/2/6 572/2/6 578/2/6
f 573/2/6 574/2/6 579/2/6
f 578/1/6 573/1/6 579/1/6
f 574/2/6 575/2/6 579/2/6
f 575/2/6 568/2/6 580/2/6
f 579/2/6 575/2/6 580/2/6
f 568/1/6 569/1/6 581/1/6
f 580/2/6 568/2/6 581/2/6
f 569/2/6 570/2/6 582/2/6
f 570/2/6 571/2/6 582/2/6
f 571/2/6 563/2/6 583/2/6
f 582/2/6 571/2/6 583/2/6
f 579/2/6 580/2/6 584/2/6
f 577/2/6 578/2/6 584/2/6
f 578/2/6 579/2/6 584/2/6
f 584/2/6 580/2/6 585/2/6
f 580/1/6 581/1/6 586/1/6
f 585/2/6 580/2/6 586/2/6
f 581/1/6 569/1/6 587/1/6
f 586/1/6 581/1/6 587/1/6
f 569/2/6 582/2/6 587/2/6
f 582/1/6 583/1/6 588/1/6
f 587/2/6 582/2/6 588/2/6
f 588/1/6 583/1/6 589/1/6
f 583/2/6 563/2/6 590/2/6
f 589/1/6 583/1/6 590/1/6
f 590/2/6 563/2/6 591/2/6
f 591/2/6 563/2/6 592/2/6
f 584/5/6 585/5/6 594/5/6
f 594/5/6 585/5/6 595/5/6
f 585/2/6 586/2/6 596/2/6
f 595/5/6 585/5/6 596/5/6
f 588/2/6 589/2/6 596/2/6
f 586/2/6 587/2/6 596/2/6
f 587/2/6 588/2/6 596/2/6
f 596/2/6 589/2/6 597/2/6
f 597/2/6 589/2/6 598/2/6
f 598/2/6 589/2/6 599/2/6
f 590/1/6 591/1/6 600/1/6
f 599/2/6 589/2/6 600/2/6
f 589/1/6 590/1/6 600/1/6
f 591/2/6 592/2/6 601/2/6
f 600/1/6 591/1/6 601/1/6
f 577/2/6 584/2/6 602/2/6
f 602/2/6 584/2/6 603/2/6
f 603/2/6 584/2/6 604/2/6
f 584/5/6 594/5/6 605/5/6
f 604/2/6 584/2/6 605/2/6
f 605/5/6 594/5/6 606/5/6
f 594/2/6 595/2/6 607/2/6
f 606/5/6 594/5/6 607/5/6
f 595/5/6 596/5/6 608/5/6
f 607/2/6 595/2/6 608/2/6
f 596/5/6 597/5/6 608/5/6
f 608/5/6 597/5/6 609/5/6
f 597/2/6 598/2/6 610/2/6
f 609/5/6 597/5/6 610/5/6
f 610/2/6 598/2/6 611/2/6
f 611/2/6 598/2/6 612/2/6
f 612/2/6 598/2/6 613/2/6
f 598/1/6 599/1/6 614/1/6
f 599/2/6 600/2/6 615/2/6
f 614/1/6 599/1/6 615/1/6
f 600/2/6 601/2/6 615/2/6
f 605/5/6 606/5/6 616/5/6
f 604/5/6 605/5/6 616/5/6
f 608/2/6 609/2/6 617/2/6
f 616/5/6 606/5/6 617/5/6
f 606/2/6 607/2/6 617/2/6
f 607/2/6 608/2/6 617/2/6
f 615/2/6 601/2/6 618/2/6
f 614/2/6 615/2/6 618/2/6
f 618/2/6 601/2/6 619/2/6
f 603/2/6 604/2/6 620/2/6
f 604/5/6 616/5/6 621/5/6
f 620/2/6 604/2/6 621/2/6
f 617/2/6 609/2/6 622/2/6
f 616/2/6 617/2/6 622/2/6
f 622/2/6 609/2/6 623/2/6
f 610/5/6 611/5/6 624/5/6
f 623/2/6 609/2/6 624/2/6
f 609/5/6 610/5/6 624/5/6
f 624/5/6 611/5/6 625/5/6
f 614/2/6 618/2/6 626/2/6
f 618/1/6 619/1/6 626/1/6
f 619/2/6 601/2/6 627/2/6
f 626/1/6 619/1/6 627/1/6
f 612/1/6 613/1/6 628/1/6
f 611/2/6 612/2/6 628/2/6
f 613/2/6 598/2/6 629/2/6
f 628/1/6 613/1/6 629/1/6
f 614/2/6 626/2/6 630/2/6
f 598/1/6 614/1/6 630/1/6
f 626/2/6 627/2/6 630/2/6
f 630/2/6 627/2/6 631/2/6
f 621/5/6 616/5/6 632/5/6
f 616/2/6 622/2/6 633/2/6
f 632/5/6 616/5/6 633/5/6
f 633/2/6 622/2/6 634/2/6
f 622/3/6 623/3/6 635/3/6
f 634/2/6 622/2/6 635/2/6
f 628/2/6 629/2/6 636/2/6
f 611/2/6 628/2/6 636/2/6
f 629/2/6 598/2/6 637/2/6
f 636/2/6 629/2/6 637/2/6
f 598/1/6 630/1/6 638/1/6
f 637/2/6 598/2/6 638/2/6
f 630/1/6 631/1/6 638/1/6
f 631/2/6 627/2/6 639/2/6
f 638/1/6 631/1/6 639/1/6
f 639/2/6 627/2/6 640/2/6
f 627/2/6 601/2/6 641/2/6
f 640/2/6 627/2/6 641/2/6
f 635/3/6 623/3/6 642/3/6
f 634/3/6 635/3/6 642/3/6
f 624/2/6 625/2/6 642/2/6
f 623/2/6 624/2/6 642/2/6
f 642/2/6 625/2/6 643/2/6
f 625/5/6 611/5/6 644/5/6
f 643/2/6 625/2/6 644/2/6
f 611/2/6 636/2/6 645/2/6
f 644/5/6 611/5/6 645/5/6
f 645/2/6 636/2/6 646/2/6
f 633/2/6 634/2/6 647/2/6
f 647/2/6 634/2/6 648/2/6
f 643/2/6 644/2/6 649/2/6
f 649/2/6 644/2/6 650/2/6
f 637/2/6 638/2/6 651/2/6
f 639/2/6 640/2/6 651/2/6
f 638/2/6 639/2/6 651/2/6
f 651/2/6 640/2/6 652/2/6
f 640/1/6 641/1/6 653/1/6
f 652/2/6 640/2/6 653/2/6
f 641/2/6 601/2/6 654/2/6
f 653/1/6 641/1/6 654/1/6
f 648/2/6 634/2/6 655/2/6
f 642/3/6 643/3/6 656/3/6
f 655/2/6 634/2/6 656/2/6
f 634/3/6 642/3/6 656/3/6
f 643/2/6 649/2/6 657/2/6
f 656/3/6 643/3/6 657/3/6
f 657/2/6 649/2/6 658/2/6
f 651/1/6 652/1/6 660/1/6
f 660/1/6 652/1/6 661/1/6
f 656/3/6 657/3/6 662/3/6
f 662/3/6 657/3/6 663/3/6
f 653/2/6 654/2/6 664/2/6
f 652/2/6 653/2/6 664/2/6
f 654/2/6 601/2/6 665/2/6
f 664/2/6 654/2/6 665/2/6
f 656/3/6 662/3/6 666/3/6
f 666/3/6 662/3/6 667/3/6
f 660/2/6 661/2/6 668/2/6
f 659/2/6 660/2/6 668/2/6
f 661/1/6 652/1/6 669/1/6
f 668/2/6 661/2/6 669/2/6
f 665/2/6 601/2/6 670/2/6
f 664/1/6 665/1/6 670/1/6
f 601/2/6 592/2/6 671/2/6
f 670/2/6 601/2/6 671/2/6
f 668/1/6 669/1/6 672/1/6
f 672/1/6 669/1/6 673/1/6
f 669/1/6 652/1/6 674/1/6
f 673/1/6 669/1/6 674/1/6
f 652/2/6 664/2/6 675/2/6
f 674/1/6 652/1/6 675/1/6
f 664/1/6 670/1/6 676/1/6
f 675/2/6 664/2/6 676/2/6
f 670/1/6 671/1/6 676/1/6
f 676/1/6 671/1/6 677/1/6
f 672/2/6 673/2/6 679/2/6
f 673/1/6 674/1/6 680/1/6
f 679/2/6 673/2/6 680/2/6
f 674/2/6 675/2/6 681/2/6
f 680/1/6 674/1/6 681/1/6
f 675/2/6 676/2/6 681/2/6
f 676/2/6 677/2/6 681/2/6
f 681/2/6 677/2/6 682/2/6
f 677/1/6 671/1/6 683/1/6
f 682/2/6 677/2/6 683/2/6
f 678/2/6 679/2/6 684/2/6
f 679/2/6 680/2/6 684/2/6
f 682/1/6 683/1/6 684/1/6
f 680/2/6 681/2/6 684/2/6
f 681/2/6 682/2/6 684/2/6
f 683/1/6 671/1/6 685/1/6
f 684/1/6 683/1/6 685/1/6
f 671/2/6 592/2/6 685/2/6
f 678/2/6 684/2/6 686/2/6
f 684/2/6 685/2/6 686/2/6
f 686/2/6 685/2/6 687/2/6
f 687/2/6 685/2/6 688/2/6
f 685/2/6 592/2/6 689/2/6
f 688/2/6 685/2/6 689/2/6
f 678/2/6 686/2/6 690/2/6
f 690/2/6 686/2/6 691/2/6
f 687/2/6 688/2/6 692/2/6
f 686/1/6 687/1/6 692/1/6
f 692/2/6 688/2/6 693/2/6
f 689/2/6 592/2/6 694/2/6
f 592/4/6 593/4/6 695/4/6
f 694/2/6 592/2/6 695/2/6
f 691/2/6 686/2/6 696/2/6
f 686/1/6 692/1/6 696/1/6
f 692/1/6 693/1/6 696/1/6
f 696/1/6 693/1/6 697/1/6
f 693/2/6 688/2/6 698/2/6
f 697/1/6 693/1/6 698/1/6
f 698/2/6 688/2/6 699/2/6
f 695/4/6 593/4/6 700/4/6
f 700/4/6 593/4/6 701/4/6
f 678/2/6 690/2/6 702/2/6
f 690/1/6 691/1/6 703/1/6
f 702/2/6 690/2/6 703/2/6
f 696/2/6 697/2/6 704/2/6
f 703/1/6 691/1/6 704/1/6
f 691/2/6 696/2/6 704/2/6
f 704/2/6 697/2/6 705/2/6
f 698/1/6 699/1/6 706/1/6
f 705/2/6 697/2/6 706/2/6
f 697/1/6 698/1/6 706/1/6
f 706/1/6 699/1/6 707/1/6
f 704/1/6 705/1/6 708/1/6
f 702/1/6 703/1/6 708/1/6
f 703/1/6 704/1/6 708/1/6
f 706/2/6 707/2/6 709/2/6
f 708/1/6 705/1/6 709/1/6
f 705/2/6 706/2/6 709/2/6
f 709/2/6 707/2/6 710/2/6
f 702/1/6 708/1/6 712/1/6
f 709/2/6 710/2/6 713/2/6
f 712/1/6 708/1/6 713/1/6
f 710/2/6 711/2/6 713/2/6
f 708/2/6 709/2/6 713/2/6
f 713/2/6 711/2/6 714/2/6
f 714/2/6 711/2/6 715/2/6
f 715/2/6 711/2/6 716/2/6
f 712/2/6 713/2/6 719/2/6
f 713/2/6 714/2/6 719/2/6
f 719/2/6 714/2/6 720/2/6
f 714/1/6 715/1/6 721/1/6
f 720/2/6 714/2/6 721/2/6
f 721/1/6 715/1/6 722/1/6
f 716/2/6 717/2/6 723/2/6
f 722/1/6 715/1/6 723/1/6
f 715/2/6 716/2/6 723/2/6
f 723/2/6 717/2/6 724/2/6
f 721/2/6 722/2/6 725/2/6
f 720/2/6 721/2/6 725/2/6
f 725/2/6 722/2/6 726/2/6
f 726/2/6 722/2/6 727/2/6
f 723/1/6 724/1/6 728/1/6
f 727/2/6 722/2/6 728/2/6
f 722/1/6 723/1/6 728/1/6
f 725/1/6 726/1/6 729/1/6
f 726/2/6 727/2/6 730/2/6
f 729/1/6 726/1/6 730/1/6
f 730/2/6 727/2/6 731/2/6
f 727/1/6 728/1/6 732/1/6
f 731/2/6 727/2/6 732/2/6
f 728/1/6 724/1/6 733/1/6
f 732/1/6 728/1/6 733/1/6
f 733/1/6 724/1/6 734/1/6
f 724/2/6 717/2/6 735/2/6
f 734/1/6 724/1/6 735/1/6
f 730/1/6 731/1/6 736/1/6
f 731/2/6 732/2/6 737/2/6
f 736/1/6 731/1/6 737/1/6
f 732/2/6 733/2/6 737/2/6
f 737/2/6 733/2/6 738/2/6
f 733/1/6 734/1/6 739/1/6
f 738/2/6 733/2/6 739/2/6
f 734/2/6 735/2/6 740/2/6
f 739/1/6 734/1/6 740/1/6
f 737/2/6 738/2/6 741/2/6
f 738/1/6 739/1/6 741/1/6
f 739/2/6 740/2/6 742/2/6
f 741/1/6 739/1/6 742/1/6
f 737/2/6 741/2/6 743/2/6
f 741/2/6 742/2/6 743/2/6
f 717/4/6 718/4/6 744/4/6
f 743/2/6 742/2/6 744/2/6
f 740/2/6 735/2/6 744/2/6
f 742/2/6 740/2/6 744/2/6
f 735/2/6 717/2/6 744/2/6
f 743/4/6 744/4/6 745/4/6
f 744/4/6 718/4/6 746/4/6
f 745/4/6 744/4/6 746/4/6
