# MagicaVoxel @ Ephtracy

# group
o 

# material
mtllib lab_decorations-6.mtl
usemtl palette

# normals
vn -1 0 0
vn 1 0 0
vn 0 0 1
vn 0 0 -1
vn 0 -1 0
vn 0 1 0

# texcoords
vt 0.955078 0.5
vt 0.962891 0.5

# verts
v -0.5 -0.2 0.65
v -0.5 -0.2 0.35
v -0.5 -0.2 -0.15
v -0.5 -0.2 -0.65
v -0.5 -0.1 0.75
v -0.5 -0.1 0.65
v -0.5 -0.1 0.35
v -0.5 -0.1 -0.15
v -0.5 -0.1 -0.55
v -0.5 0 -0.65
v -0.5 0 -0.75
v -0.5 0.1 0.75
v -0.5 0.1 0.65
v -0.5 0.1 0.25
v -0.5 0.1 -0.25
v -0.5 0.1 -0.55
v -0.5 0.2 0.65
v -0.5 0.2 0.25
v -0.5 0.2 -0.25
v -0.5 0.2 -0.75
v -0.4 -0.2 0.75
v -0.4 -0.2 0.65
v -0.4 -0.2 0.35
v -0.4 -0.2 -0.15
v -0.4 -0.1 0.75
v -0.4 -0.1 0.65
v -0.4 -0.1 0.35
v -0.4 -0.1 0.25
v -0.4 -0.1 -0.15
v -0.4 -0.1 -0.55
v -0.4 0 0.25
v -0.4 0 0.15
v -0.4 0 -0.15
v -0.4 0 -0.25
v -0.4 0.1 0.75
v -0.4 0.1 0.65
v -0.4 0.1 0.25
v -0.4 0.1 -0.25
v -0.4 0.1 -0.55
v -0.4 0.2 0.75
v -0.4 0.2 0.65
v -0.4 0.2 0.25
v -0.4 0.2 0.15
v -0.3 -0.1 0.25
v -0.3 -0.1 0.15
v -0.3 -0.1 0.05
v -0.3 -0.1 -0.15
v -0.3 0 0.25
v -0.3 0 0.15
v -0.3 0 0.05
v -0.3 0 -0.15
v -0.3 0 -0.25
v -0.3 0.2 -0.15
v -0.3 0.2 -0.25
v -0.2 -0.2 -0.45
v -0.2 -0.2 -0.55
v -0.2 -0.1 0.15
v -0.2 -0.1 0.05
v -0.2 -0.1 -0.45
v -0.2 -0.1 -0.55
v -0.2 0 0.05
v -0.2 0.1 0.15
v -0.2 0.1 0.05
v -0.1 -0.2 -0.55
v -0.1 -0.2 -0.65
v -0.1 -0.1 -0.55
v -0.1 -0.1 -0.65
v -0.1 0 0.05
v -0.1 0 -0.15
v -0.1 0.1 0.15
v -0.1 0.1 0.05
v -0.1 0.1 -0.15
v -0.1 0.1 -0.25
v -0.1 0.2 0.15
v -0.1 0.2 0.05
v -0.1 0.2 -0.15
v -0.1 0.2 -0.25
v 0 0.1 0.05
v 0 0.1 -0.05
v 0 0.2 0.05
v 0 0.2 -0.05
v 0.1 0 0.65
v 0.1 0 0.55
v 0.1 0.1 -0.05
v 0.1 0.1 -0.15
v 0.1 0.2 0.65
v 0.1 0.2 0.55
v 0.1 0.2 -0.05
v 0.1 0.2 -0.15
v 0.2 -0.2 0.75
v 0.2 -0.2 0.65
v 0.2 -0.2 0.55
v 0.2 -0.1 0.75
v 0.2 -0.1 0.65
v 0.2 -0.1 -0.25
v 0.2 -0.1 -0.35
v 0.2 0 0.65
v 0.2 0 0.55
v 0.2 0 -0.25
v 0.2 0 -0.35
v 0.2 0.1 0.75
v 0.2 0.1 0.65
v 0.2 0.2 0.75
v 0.2 0.2 0.65
v 0.3 -0.1 -0.55
v 0.3 -0.1 -0.65
v 0.3 0 -0.25
v 0.3 0 -0.45
v 0.3 0.1 -0.35
v 0.3 0.1 -0.45
v 0.3 0.1 -0.55
v 0.3 0.1 -0.65
v 0.3 0.2 -0.25
v 0.3 0.2 -0.35
v 0.4 -0.2 -0.65
v 0.4 -0.2 -0.75
v 0.4 -0.1 0.75
v 0.4 -0.1 0.65
v 0.4 0.1 0.75
v 0.4 0.1 0.65
v 0.4 0.1 -0.35
v 0.4 0.1 -0.55
v 0.4 0.2 -0.35
v 0.4 0.2 -0.55
v 0.4 0.2 -0.65
v 0.4 0.2 -0.75
v -0.4 -0.1 0.75
v -0.4 -0.1 0.65
v -0.4 0 -0.65
v -0.4 0 -0.75
v -0.4 0.1 0.75
v -0.4 0.1 0.65
v -0.4 0.2 -0.65
v -0.4 0.2 -0.75
v -0.3 -0.2 -0.45
v -0.3 -0.2 -0.55
v -0.3 -0.2 -0.65
v -0.3 -0.1 -0.45
v -0.3 -0.1 -0.55
v -0.3 0.1 -0.55
v -0.3 0.1 -0.65
v -0.2 0.1 -0.15
v -0.2 0.1 -0.25
v -0.2 0.2 -0.15
v -0.2 0.2 -0.25
v -0.1 -0.1 0.65
v -0.1 -0.1 0.55
v -0.1 0 0.65
v -0.1 0 0.55
v 0 -0.2 0.75
v 0 -0.2 0.65
v 0 -0.2 0.55
v 0 -0.1 0.75
v 0 -0.1 0.65
v 0 -0.1 0.55
v 0 0 0.65
v 0 0 0.55
v 0 0.1 0.75
v 0 0.1 0.65
v 0 0.2 0.75
v 0 0.2 0.65
v 0 0.2 0.55
v 0.1 -0.1 -0.25
v 0.1 -0.1 -0.35
v 0.1 0 -0.35
v 0.1 0 -0.45
v 0.1 0.2 -0.25
v 0.1 0.2 -0.45
v 0.2 0.1 -0.45
v 0.2 0.1 -0.55
v 0.2 0.2 -0.45
v 0.2 0.2 -0.55
v 0.4 -0.2 0.75
v 0.4 -0.2 0.65
v 0.4 -0.1 0.75
v 0.4 -0.1 0.65
v 0.4 -0.1 -0.55
v 0.4 0.1 0.75
v 0.4 0.1 0.65
v 0.4 0.1 -0.55
v 0.4 0.2 0.75
v 0.4 0.2 0.65
v 0.5 -0.2 0.65
v 0.5 -0.2 -0.75
v 0.5 -0.1 0.75
v 0.5 -0.1 0.65
v 0.5 -0.1 -0.55
v 0.5 0.1 0.75
v 0.5 0.1 0.65
v 0.5 0.1 -0.55
v 0.5 0.2 0.65
v 0.5 0.2 -0.75
v -0.5 -0.1 0.75
v -0.5 0.1 0.75
v -0.4 -0.2 0.75
v -0.4 -0.1 0.75
v -0.4 0.1 0.75
v -0.4 0.2 0.75
v 0 -0.2 0.75
v 0 -0.1 0.75
v 0 0.1 0.75
v 0 0.2 0.75
v 0.2 -0.2 0.75
v 0.2 -0.1 0.75
v 0.2 0.1 0.75
v 0.2 0.2 0.75
v 0.4 -0.2 0.75
v 0.4 -0.1 0.75
v 0.4 0.1 0.75
v 0.4 0.2 0.75
v 0.5 -0.1 0.75
v 0.5 0.1 0.75
v -0.5 -0.2 0.65
v -0.5 -0.1 0.65
v -0.5 0.1 0.65
v -0.5 0.2 0.65
v -0.4 -0.2 0.65
v -0.4 -0.1 0.65
v -0.4 0.1 0.65
v -0.4 0.2 0.65
v -0.1 -0.1 0.65
v -0.1 0 0.65
v 0 0 0.65
v 0 0.1 0.65
v 0.1 0 0.65
v 0.1 0.2 0.65
v 0.2 -0.1 0.65
v 0.2 0 0.65
v 0.2 0.1 0.65
v 0.2 0.2 0.65
v 0.4 -0.2 0.65
v 0.4 -0.1 0.65
v 0.4 0.1 0.65
v 0.4 0.2 0.65
v 0.5 -0.2 0.65
v 0.5 -0.1 0.65
v 0.5 0.1 0.65
v 0.5 0.2 0.65
v -0.1 -0.1 0.55
v -0.1 0 0.55
v 0 -0.2 0.55
v 0 -0.1 0.55
v 0 0 0.55
v 0 0.2 0.55
v 0.1 0 0.55
v 0.1 0.2 0.55
v 0.2 -0.2 0.55
v 0.2 0 0.55
v -0.3 -0.1 0.05
v -0.3 0 0.05
v -0.2 -0.1 0.05
v -0.2 0 0.05
v -0.5 -0.2 -0.15
v -0.5 -0.1 -0.15
v -0.4 -0.2 -0.15
v -0.4 -0.1 -0.15
v -0.4 0 -0.15
v -0.3 -0.1 -0.15
v -0.3 0 -0.15
v -0.3 0.2 -0.15
v -0.2 0.1 -0.15
v -0.2 0.2 -0.15
v -0.1 0 -0.15
v -0.1 0.1 -0.15
v -0.1 0.2 -0.15
v 0.1 0.1 -0.15
v 0.1 0.2 -0.15
v -0.5 0.1 -0.25
v -0.5 0.2 -0.25
v -0.4 0 -0.25
v -0.4 0.1 -0.25
v -0.4 0.2 -0.25
v -0.3 0 -0.25
v -0.3 0.2 -0.25
v -0.2 0.1 -0.25
v -0.2 0.2 -0.25
v -0.1 0.1 -0.25
v -0.1 0.2 -0.25
v 0.1 -0.1 -0.35
v 0.1 0 -0.35
v 0.2 -0.1 -0.35
v 0.2 0 -0.35
v 0.1 0 -0.45
v 0.1 0.2 -0.45
v 0.2 0.1 -0.45
v 0.2 0.2 -0.45
v 0.3 0 -0.45
v 0.3 0.1 -0.45
v -0.5 -0.1 -0.55
v -0.5 0.1 -0.55
v -0.4 -0.1 -0.55
v -0.4 0.1 -0.55
v 0.2 0.1 -0.55
v 0.2 0.2 -0.55
v 0.4 -0.1 -0.55
v 0.4 0.1 -0.55
v 0.4 0.2 -0.55
v 0.5 -0.1 -0.55
v 0.5 0.1 -0.55
v -0.5 -0.1 0.65
v -0.5 0.1 0.65
v -0.4 -0.1 0.65
v -0.4 0.1 0.65
v 0.4 -0.1 0.65
v 0.4 0.1 0.65
v 0.5 -0.1 0.65
v 0.5 0.1 0.65
v -0.5 -0.2 0.35
v -0.5 -0.1 0.35
v -0.4 -0.2 0.35
v -0.4 -0.1 0.35
v -0.5 0.1 0.25
v -0.5 0.2 0.25
v -0.4 -0.1 0.25
v -0.4 0 0.25
v -0.4 0.1 0.25
v -0.4 0.2 0.25
v -0.3 -0.1 0.25
v -0.3 0 0.25
v -0.4 0 0.15
v -0.4 0.2 0.15
v -0.3 -0.1 0.15
v -0.3 0 0.15
v -0.2 -0.1 0.15
v -0.2 0.1 0.15
v -0.1 0.1 0.15
v -0.1 0.2 0.15
v -0.2 0 0.05
v -0.2 0.1 0.05
v -0.1 0 0.05
v -0.1 0.1 0.05
v -0.1 0.2 0.05
v 0 0.1 0.05
v 0 0.2 0.05
v 0 0.1 -0.05
v 0 0.2 -0.05
v 0.1 0.1 -0.05
v 0.1 0.2 -0.05
v 0.1 -0.1 -0.25
v 0.1 0.2 -0.25
v 0.2 -0.1 -0.25
v 0.2 0 -0.25
v 0.3 0 -0.25
v 0.3 0.2 -0.25
v 0.3 0.1 -0.35
v 0.3 0.2 -0.35
v 0.4 0.1 -0.35
v 0.4 0.2 -0.35
v -0.3 -0.2 -0.45
v -0.3 -0.1 -0.45
v -0.2 -0.2 -0.45
v -0.2 -0.1 -0.45
v -0.3 -0.1 -0.55
v -0.3 0.1 -0.55
v -0.2 -0.2 -0.55
v -0.2 -0.1 -0.55
v -0.1 -0.2 -0.55
v -0.1 -0.1 -0.55
v 0.3 -0.1 -0.55
v 0.3 0.1 -0.55
v -0.5 -0.2 -0.65
v -0.5 0 -0.65
v -0.4 0 -0.65
v -0.4 0.2 -0.65
v -0.3 -0.2 -0.65
v -0.3 0.1 -0.65
v -0.1 -0.2 -0.65
v -0.1 -0.1 -0.65
v 0.3 -0.1 -0.65
v 0.3 0.1 -0.65
v 0.4 -0.2 -0.65
v 0.4 0.2 -0.65
v -0.5 0 -0.75
v -0.5 0.2 -0.75
v -0.4 0 -0.75
v -0.4 0.2 -0.75
v 0.4 -0.2 -0.75
v 0.4 0.2 -0.75
v 0.5 -0.2 -0.75
v 0.5 0.2 -0.75
v -0.4 -0.2 0.75
v 0 -0.2 0.75
v 0.2 -0.2 0.75
v 0.4 -0.2 0.75
v -0.5 -0.2 0.65
v -0.4 -0.2 0.65
v 0 -0.2 0.65
v 0.2 -0.2 0.65
v 0.4 -0.2 0.65
v 0.5 -0.2 0.65
v 0 -0.2 0.55
v 0.2 -0.2 0.55
v -0.5 -0.2 0.35
v -0.4 -0.2 0.35
v -0.5 -0.2 -0.15
v -0.4 -0.2 -0.15
v -0.3 -0.2 -0.45
v -0.2 -0.2 -0.45
v -0.4 -0.2 -0.55
v -0.3 -0.2 -0.55
v -0.2 -0.2 -0.55
v -0.1 -0.2 -0.55
v 0.4 -0.2 -0.55
v -0.5 -0.2 -0.65
v -0.3 -0.2 -0.65
v -0.1 -0.2 -0.65
v 0.4 -0.2 -0.65
v 0.4 -0.2 -0.75
v 0.5 -0.2 -0.75
v -0.5 -0.1 0.75
v -0.4 -0.1 0.75
v 0.4 -0.1 0.75
v 0.5 -0.1 0.75
v -0.5 -0.1 0.65
v -0.4 -0.1 0.65
v 0.4 -0.1 0.65
v 0.5 -0.1 0.65
v -0.3 -0.1 -0.45
v -0.2 -0.1 -0.45
v -0.3 -0.1 -0.55
v -0.2 -0.1 -0.55
v -0.1 0 0.65
v 0 0 0.65
v 0.1 0 0.65
v 0.2 0 0.65
v -0.1 0 0.55
v 0 0 0.55
v 0.1 0 0.55
v 0.2 0 0.55
v -0.4 0 0.25
v -0.3 0 0.25
v -0.4 0 0.15
v -0.3 0 0.15
v -0.5 0 -0.65
v -0.4 0 -0.65
v -0.5 0 -0.75
v -0.4 0 -0.75
v -0.4 0.1 0.75
v 0 0.1 0.75
v 0.2 0.1 0.75
v 0.4 0.1 0.75
v -0.5 0.1 0.65
v -0.4 0.1 0.65
v 0 0.1 0.65
v 0.2 0.1 0.65
v 0.4 0.1 0.65
v 0.5 0.1 0.65
v -0.5 0.1 0.25
v -0.4 0.1 0.25
v -0.5 0.1 -0.25
v -0.4 0.1 -0.25
v -0.5 0.1 -0.55
v -0.4 0.1 -0.55
v -0.3 0.1 -0.55
v 0.3 0.1 -0.55
v 0.4 0.1 -0.55
v 0.5 0.1 -0.55
v -0.3 0.1 -0.65
v 0.3 0.1 -0.65
v -0.4 -0.1 0.75
v 0 -0.1 0.75
v 0.2 -0.1 0.75
v 0.4 -0.1 0.75
v -0.5 -0.1 0.65
v -0.4 -0.1 0.65
v -0.1 -0.1 0.65
v 0 -0.1 0.65
v 0.2 -0.1 0.65
v 0.4 -0.1 0.65
v 0.5 -0.1 0.65
v -0.1 -0.1 0.55
v 0 -0.1 0.55
v -0.5 -0.1 0.35
v -0.4 -0.1 0.35
v -0.4 -0.1 0.25
v -0.3 -0.1 0.25
v -0.3 -0.1 0.15
v -0.2 -0.1 0.15
v -0.3 -0.1 0.05
v -0.2 -0.1 0.05
v -0.5 -0.1 -0.15
v -0.4 -0.1 -0.15
v -0.3 -0.1 -0.15
v 0.1 -0.1 -0.25
v 0.2 -0.1 -0.25
v 0.1 -0.1 -0.35
v 0.2 -0.1 -0.35
v -0.5 -0.1 -0.55
v -0.4 -0.1 -0.55
v -0.1 -0.1 -0.55
v 0.3 -0.1 -0.55
v 0.4 -0.1 -0.55
v 0.5 -0.1 -0.55
v -0.1 -0.1 -0.65
v 0.3 -0.1 -0.65
v -0.3 0 0.05
v -0.2 0 0.05
v -0.1 0 0.05
v -0.4 0 -0.15
v -0.3 0 -0.15
v -0.1 0 -0.15
v -0.4 0 -0.25
v -0.3 0 -0.25
v 0.2 0 -0.25
v 0.3 0 -0.25
v 0.1 0 -0.35
v 0.2 0 -0.35
v 0.1 0 -0.45
v 0.3 0 -0.45
v -0.5 0.1 0.75
v -0.4 0.1 0.75
v 0.4 0.1 0.75
v 0.5 0.1 0.75
v -0.5 0.1 0.65
v -0.4 0.1 0.65
v 0.4 0.1 0.65
v 0.5 0.1 0.65
v -0.2 0.1 0.15
v -0.1 0.1 0.15
v -0.2 0.1 0.05
v -0.1 0.1 0.05
v 0 0.1 0.05
v 0 0.1 -0.05
v 0.1 0.1 -0.05
v -0.2 0.1 -0.15
v -0.1 0.1 -0.15
v 0.1 0.1 -0.15
v -0.2 0.1 -0.25
v -0.1 0.1 -0.25
v 0.3 0.1 -0.35
v 0.4 0.1 -0.35
v 0.2 0.1 -0.45
v 0.3 0.1 -0.45
v 0.2 0.1 -0.55
v 0.4 0.1 -0.55
v -0.4 0.2 0.75
v 0 0.2 0.75
v 0.2 0.2 0.75
v 0.4 0.2 0.75
v -0.5 0.2 0.65
v -0.4 0.2 0.65
v 0 0.2 0.65
v 0.1 0.2 0.65
v 0.2 0.2 0.65
v 0.4 0.2 0.65
v 0.5 0.2 0.65
v 0 0.2 0.55
v 0.1 0.2 0.55
v -0.5 0.2 0.25
v -0.4 0.2 0.25
v -0.4 0.2 0.15
v -0.1 0.2 0.15
v -0.1 0.2 0.05
v 0 0.2 0.05
v 0 0.2 -0.05
v 0.1 0.2 -0.05
v -0.3 0.2 -0.15
v -0.2 0.2 -0.15
v -0.1 0.2 -0.15
v 0.1 0.2 -0.15
v -0.5 0.2 -0.25
v -0.4 0.2 -0.25
v -0.3 0.2 -0.25
v -0.2 0.2 -0.25
v -0.1 0.2 -0.25
v 0.1 0.2 -0.25
v 0.3 0.2 -0.25
v 0.3 0.2 -0.35
v 0.4 0.2 -0.35
v 0.1 0.2 -0.45
v 0.2 0.2 -0.45
v -0.4 0.2 -0.55
v 0.2 0.2 -0.55
v 0.4 0.2 -0.55
v -0.4 0.2 -0.65
v 0.4 0.2 -0.65
v -0.5 0.2 -0.75
v -0.4 0.2 -0.75
v 0.4 0.2 -0.75
v 0.5 0.2 -0.75

# faces
f 6/2/1 2/2/1 1/2/1
f 7/2/1 2/2/1 6/2/1
f 8/2/1 4/2/1 3/2/1
f 9/2/1 4/2/1 8/2/1
f 10/2/1 4/2/1 9/2/1
f 12/2/1 6/2/1 5/2/1
f 13/2/1 6/2/1 12/2/1
f 16/2/1 11/2/1 10/2/1
f 16/2/1 10/2/1 9/2/1
f 17/2/1 14/2/1 13/2/1
f 18/2/1 14/2/1 17/2/1
f 19/2/1 16/2/1 15/2/1
f 20/2/1 11/2/1 16/2/1
f 20/2/1 16/2/1 19/2/1
f 25/2/1 22/2/1 21/2/1
f 26/2/1 22/2/1 25/2/1
f 27/1/1 24/1/1 23/1/1
f 28/1/1 24/1/1 27/1/1
f 29/1/1 24/1/1 28/1/1
f 31/1/1 27/1/1 26/1/1
f 31/1/1 28/1/1 27/1/1
f 33/1/1 30/1/1 29/1/1
f 34/1/1 30/1/1 33/1/1
f 36/1/1 32/1/1 31/1/1
f 36/1/1 31/1/1 26/1/1
f 37/1/1 32/1/1 36/1/1
f 38/1/1 30/1/1 34/1/1
f 39/1/1 30/1/1 38/1/1
f 40/2/1 36/2/1 35/2/1
f 41/2/1 36/2/1 40/2/1
f 42/1/1 32/1/1 37/1/1
f 43/1/1 32/1/1 42/1/1
f 48/1/1 45/1/1 44/1/1
f 49/1/1 45/1/1 48/1/1
f 50/1/1 47/1/1 46/1/1
f 51/1/1 47/1/1 50/1/1
f 53/1/1 52/1/1 51/1/1
f 54/1/1 52/1/1 53/1/1
f 59/1/1 56/1/1 55/1/1
f 60/1/1 56/1/1 59/1/1
f 61/1/1 58/1/1 57/1/1
f 62/1/1 61/1/1 57/1/1
f 63/1/1 61/1/1 62/1/1
f 66/2/1 65/2/1 64/2/1
f 67/2/1 65/2/1 66/2/1
f 71/1/1 69/1/1 68/1/1
f 72/1/1 69/1/1 71/1/1
f 74/1/1 71/1/1 70/1/1
f 75/1/1 71/1/1 74/1/1
f 76/1/1 73/1/1 72/1/1
f 77/1/1 73/1/1 76/1/1
f 80/1/1 79/1/1 78/1/1
f 81/1/1 79/1/1 80/1/1
f 86/1/1 83/1/1 82/1/1
f 87/1/1 83/1/1 86/1/1
f 88/1/1 85/1/1 84/1/1
f 89/1/1 85/1/1 88/1/1
f 93/2/1 91/2/1 90/2/1
f 94/1/1 92/1/1 91/1/1
f 94/2/1 91/2/1 93/2/1
f 97/1/1 92/1/1 94/1/1
f 98/1/1 92/1/1 97/1/1
f 99/1/1 96/1/1 95/1/1
f 100/1/1 96/1/1 99/1/1
f 103/2/1 102/2/1 101/2/1
f 104/2/1 102/2/1 103/2/1
f 109/1/1 108/1/1 107/1/1
f 110/1/1 108/1/1 109/1/1
f 111/2/1 106/2/1 105/2/1
f 112/2/1 106/2/1 111/2/1
f 113/1/1 109/1/1 107/1/1
f 114/1/1 109/1/1 113/1/1
f 119/2/1 118/2/1 117/2/1
f 120/2/1 118/2/1 119/2/1
f 123/2/1 122/2/1 121/2/1
f 124/2/1 122/2/1 123/2/1
f 125/2/1 116/2/1 115/2/1
f 126/2/1 116/2/1 125/2/1
f 127/2/2 128/2/2 131/2/2
f 131/2/2 128/2/2 132/2/2
f 129/2/2 130/2/2 133/2/2
f 133/2/2 130/2/2 134/2/2
f 135/1/2 136/1/2 138/1/2
f 136/2/2 137/2/2 139/2/2
f 138/1/2 136/1/2 139/1/2
f 139/2/2 137/2/2 140/2/2
f 140/2/2 137/2/2 141/2/2
f 142/1/2 143/1/2 144/1/2
f 144/1/2 143/1/2 145/1/2
f 146/1/2 147/1/2 148/1/2
f 148/1/2 147/1/2 149/1/2
f 150/2/2 151/2/2 153/2/2
f 151/1/2 152/1/2 154/1/2
f 153/2/2 151/2/2 154/2/2
f 154/1/2 152/1/2 155/1/2
f 156/1/2 157/1/2 159/1/2
f 158/2/2 159/2/2 160/2/2
f 159/1/2 157/1/2 161/1/2
f 160/2/2 159/2/2 161/2/2
f 161/1/2 157/1/2 162/1/2
f 163/1/2 164/1/2 165/1/2
f 163/1/2 165/1/2 167/1/2
f 165/1/2 166/1/2 167/1/2
f 167/1/2 166/1/2 168/1/2
f 169/1/2 170/1/2 171/1/2
f 171/1/2 170/1/2 172/1/2
f 173/2/2 174/2/2 175/2/2
f 175/2/2 174/2/2 176/2/2
f 176/1/2 177/1/2 179/1/2
f 179/1/2 177/1/2 180/1/2
f 178/2/2 179/2/2 181/2/2
f 181/2/2 179/2/2 182/2/2
f 183/2/2 184/2/2 186/2/2
f 186/2/2 184/2/2 187/2/2
f 185/2/2 186/2/2 188/2/2
f 188/2/2 186/2/2 189/2/2
f 187/2/2 184/2/2 190/2/2
f 189/2/2 190/2/2 191/2/2
f 190/2/2 184/2/2 192/2/2
f 191/2/2 190/2/2 192/2/2
f 196/2/3 194/2/3 193/2/3
f 197/2/3 194/2/3 196/2/3
f 199/2/3 196/2/3 195/2/3
f 200/2/3 196/2/3 199/2/3
f 201/2/3 198/2/3 197/2/3
f 202/2/3 198/2/3 201/2/3
f 207/2/3 204/2/3 203/2/3
f 208/2/3 204/2/3 207/2/3
f 209/2/3 206/2/3 205/2/3
f 210/2/3 206/2/3 209/2/3
f 211/2/3 209/2/3 208/2/3
f 212/2/3 209/2/3 211/2/3
f 217/2/3 214/2/3 213/2/3
f 218/2/3 214/2/3 217/2/3
f 219/2/3 216/2/3 215/2/3
f 220/2/3 216/2/3 219/2/3
f 221/1/3 219/1/3 218/1/3
f 222/1/3 219/1/3 221/1/3
f 223/1/3 219/1/3 222/1/3
f 224/1/3 219/1/3 223/1/3
f 228/1/3 226/1/3 225/1/3
f 229/1/3 226/1/3 228/1/3
f 230/1/3 226/1/3 229/1/3
f 232/1/3 228/1/3 227/1/3
f 232/1/3 229/1/3 228/1/3
f 233/1/3 229/1/3 232/1/3
f 235/2/3 232/2/3 231/2/3
f 236/2/3 232/2/3 235/2/3
f 237/2/3 234/2/3 233/2/3
f 238/2/3 234/2/3 237/2/3
f 242/1/3 240/1/3 239/1/3
f 243/1/3 240/1/3 242/1/3
f 245/1/3 242/1/3 241/1/3
f 245/1/3 244/1/3 243/1/3
f 245/1/3 243/1/3 242/1/3
f 246/1/3 244/1/3 245/1/3
f 247/1/3 245/1/3 241/1/3
f 248/1/3 245/1/3 247/1/3
f 251/1/3 250/1/3 249/1/3
f 252/1/3 250/1/3 251/1/3
f 255/2/3 254/2/3 253/2/3
f 256/2/3 254/2/3 255/2/3
f 258/1/3 257/1/3 256/1/3
f 259/1/3 257/1/3 258/1/3
f 261/1/3 260/1/3 259/1/3
f 262/1/3 260/1/3 261/1/3
f 263/1/3 261/1/3 259/1/3
f 264/1/3 261/1/3 263/1/3
f 266/1/3 265/1/3 264/1/3
f 267/1/3 265/1/3 266/1/3
f 271/2/3 269/2/3 268/2/3
f 272/2/3 269/2/3 271/2/3
f 273/1/3 271/1/3 270/1/3
f 273/1/3 272/1/3 271/1/3
f 274/1/3 272/1/3 273/1/3
f 277/1/3 276/1/3 275/1/3
f 278/1/3 276/1/3 277/1/3
f 281/1/3 280/1/3 279/1/3
f 282/1/3 280/1/3 281/1/3
f 285/1/3 284/1/3 283/1/3
f 286/1/3 284/1/3 285/1/3
f 287/1/3 285/1/3 283/1/3
f 288/1/3 285/1/3 287/1/3
f 291/2/3 290/2/3 289/2/3
f 292/2/3 290/2/3 291/2/3
f 296/2/3 294/2/3 293/2/3
f 297/2/3 294/2/3 296/2/3
f 298/2/3 296/2/3 295/2/3
f 299/2/3 296/2/3 298/2/3
f 300/2/4 301/2/4 302/2/4
f 302/2/4 301/2/4 303/2/4
f 304/2/4 305/2/4 306/2/4
f 306/2/4 305/2/4 307/2/4
f 308/2/4 309/2/4 310/2/4
f 310/2/4 309/2/4 311/2/4
f 312/2/4 313/2/4 316/2/4
f 316/2/4 313/2/4 317/2/4
f 314/1/4 315/1/4 318/1/4
f 318/1/4 315/1/4 319/1/4
f 320/1/4 321/1/4 323/1/4
f 322/1/4 323/1/4 324/1/4
f 323/1/4 321/1/4 325/1/4
f 324/1/4 323/1/4 325/1/4
f 325/1/4 321/1/4 326/1/4
f 326/1/4 321/1/4 327/1/4
f 328/1/4 329/1/4 330/1/4
f 330/1/4 329/1/4 331/1/4
f 331/1/4 332/1/4 333/1/4
f 333/1/4 332/1/4 334/1/4
f 335/1/4 336/1/4 337/1/4
f 337/1/4 336/1/4 338/1/4
f 339/1/4 340/1/4 341/1/4
f 341/1/4 340/1/4 342/1/4
f 342/1/4 340/1/4 343/1/4
f 343/1/4 340/1/4 344/1/4
f 345/1/4 346/1/4 347/1/4
f 347/1/4 346/1/4 348/1/4
f 349/1/4 350/1/4 351/1/4
f 351/1/4 350/1/4 352/1/4
f 353/1/4 354/1/4 356/1/4
f 355/1/4 356/1/4 357/1/4
f 356/1/4 354/1/4 358/1/4
f 357/1/4 356/1/4 358/1/4
f 358/1/4 354/1/4 359/1/4
f 359/1/4 354/1/4 360/1/4
f 361/2/4 362/2/4 363/2/4
f 361/2/4 363/2/4 365/2/4
f 363/2/4 364/2/4 365/2/4
f 365/2/4 364/2/4 366/2/4
f 367/2/4 368/2/4 369/2/4
f 366/2/4 364/2/4 370/2/4
f 367/2/4 369/2/4 371/2/4
f 369/2/4 370/2/4 371/2/4
f 370/2/4 364/2/4 372/2/4
f 371/2/4 370/2/4 372/2/4
f 373/2/4 374/2/4 375/2/4
f 375/2/4 374/2/4 376/2/4
f 377/2/4 378/2/4 379/2/4
f 379/2/4 378/2/4 380/2/4
f 386/2/5 382/2/5 381/2/5
f 387/2/5 382/2/5 386/2/5
f 388/2/5 384/2/5 383/2/5
f 389/2/5 384/2/5 388/2/5
f 391/1/5 387/1/5 386/1/5
f 392/1/5 389/1/5 388/1/5
f 393/2/5 386/2/5 385/2/5
f 394/1/5 392/1/5 391/1/5
f 394/2/5 386/2/5 393/2/5
f 394/1/5 391/1/5 386/1/5
f 396/1/5 392/1/5 394/1/5
f 397/1/5 392/1/5 396/1/5
f 398/1/5 392/1/5 397/1/5
f 399/2/5 396/2/5 395/2/5
f 399/1/5 397/1/5 396/1/5
f 400/1/5 397/1/5 399/1/5
f 401/1/5 392/1/5 398/1/5
f 402/1/5 392/1/5 401/1/5
f 403/2/5 390/2/5 389/2/5
f 403/1/5 392/1/5 402/1/5
f 403/1/5 389/1/5 392/1/5
f 404/2/5 400/2/5 399/2/5
f 404/2/5 399/2/5 395/2/5
f 405/2/5 400/2/5 404/2/5
f 406/2/5 403/2/5 402/2/5
f 407/2/5 390/2/5 403/2/5
f 407/2/5 403/2/5 406/2/5
f 408/2/5 390/2/5 407/2/5
f 409/2/5 390/2/5 408/2/5
f 414/2/5 411/2/5 410/2/5
f 415/2/5 411/2/5 414/2/5
f 416/2/5 413/2/5 412/2/5
f 417/2/5 413/2/5 416/2/5
f 420/1/5 419/1/5 418/1/5
f 421/1/5 419/1/5 420/1/5
f 426/1/5 423/1/5 422/1/5
f 427/1/5 423/1/5 426/1/5
f 428/1/5 425/1/5 424/1/5
f 429/1/5 425/1/5 428/1/5
f 432/1/5 431/1/5 430/1/5
f 433/1/5 431/1/5 432/1/5
f 436/2/5 435/2/5 434/2/5
f 437/2/5 435/2/5 436/2/5
f 443/2/5 439/2/5 438/2/5
f 444/2/5 439/2/5 443/2/5
f 445/2/5 441/2/5 440/2/5
f 446/2/5 441/2/5 445/2/5
f 448/2/5 443/2/5 442/2/5
f 449/2/5 443/2/5 448/2/5
f 452/2/5 451/2/5 450/2/5
f 453/2/5 451/2/5 452/2/5
f 456/2/5 447/2/5 446/2/5
f 457/2/5 447/2/5 456/2/5
f 458/2/5 455/2/5 454/2/5
f 459/2/5 455/2/5 458/2/5
f 460/2/6 461/2/6 465/2/6
f 465/2/6 461/2/6 466/2/6
f 466/2/6 461/2/6 467/2/6
f 462/2/6 463/2/6 468/2/6
f 468/2/6 463/2/6 469/2/6
f 466/1/6 467/1/6 471/1/6
f 471/1/6 467/1/6 472/1/6
f 464/2/6 465/2/6 473/2/6
f 473/2/6 465/2/6 474/2/6
f 475/1/6 476/1/6 477/1/6
f 475/1/6 477/1/6 479/1/6
f 477/1/6 478/1/6 479/1/6
f 479/1/6 478/1/6 480/1/6
f 475/1/6 479/1/6 482/1/6
f 482/1/6 479/1/6 483/1/6
f 484/1/6 485/1/6 486/1/6
f 486/1/6 485/1/6 487/1/6
f 481/2/6 482/2/6 488/2/6
f 488/2/6 482/2/6 489/2/6
f 469/2/6 470/2/6 492/2/6
f 492/2/6 470/2/6 493/2/6
f 490/2/6 491/2/6 494/2/6
f 494/2/6 491/2/6 495/2/6
f 496/1/6 497/1/6 500/1/6
f 497/1/6 498/1/6 500/1/6
f 500/1/6 498/1/6 501/1/6
f 499/1/6 500/1/6 502/1/6
f 502/1/6 500/1/6 503/1/6
f 504/1/6 505/1/6 507/1/6
f 506/1/6 507/1/6 508/1/6
f 507/1/6 505/1/6 509/1/6
f 508/1/6 507/1/6 509/1/6
f 510/2/6 511/2/6 514/2/6
f 514/2/6 511/2/6 515/2/6
f 512/2/6 513/2/6 516/2/6
f 516/2/6 513/2/6 517/2/6
f 518/1/6 519/1/6 520/1/6
f 520/1/6 519/1/6 521/1/6
f 521/1/6 522/1/6 523/1/6
f 521/1/6 523/1/6 526/1/6
f 523/1/6 524/1/6 526/1/6
f 526/1/6 524/1/6 527/1/6
f 525/1/6 526/1/6 528/1/6
f 528/1/6 526/1/6 529/1/6
f 530/1/6 531/1/6 533/1/6
f 532/1/6 533/1/6 534/1/6
f 533/1/6 531/1/6 535/1/6
f 534/1/6 533/1/6 535/1/6
f 536/2/6 537/2/6 541/2/6
f 541/2/6 537/2/6 542/2/6
f 538/2/6 539/2/6 544/2/6
f 544/2/6 539/2/6 545/2/6
f 541/1/6 542/1/6 547/1/6
f 543/1/6 544/1/6 548/1/6
f 544/1/6 545/1/6 548/1/6
f 540/2/6 541/2/6 549/2/6
f 547/1/6 548/1/6 550/1/6
f 549/2/6 541/2/6 550/2/6
f 541/1/6 547/1/6 550/1/6
f 550/1/6 548/1/6 551/1/6
f 551/1/6 548/1/6 552/1/6
f 552/1/6 548/1/6 553/1/6
f 553/1/6 548/1/6 554/1/6
f 554/1/6 548/1/6 555/1/6
f 548/1/6 545/1/6 556/1/6
f 555/1/6 548/1/6 556/1/6
f 556/1/6 545/1/6 560/1/6
f 557/1/6 558/1/6 563/1/6
f 563/1/6 558/1/6 564/1/6
f 559/1/6 560/1/6 565/1/6
f 560/1/6 545/1/6 566/1/6
f 565/1/6 560/1/6 566/1/6
f 566/1/6 545/1/6 567/1/6
f 567/1/6 545/1/6 568/1/6
f 545/2/6 546/2/6 569/2/6
f 568/1/6 545/1/6 569/1/6
f 564/1/6 565/1/6 570/1/6
f 563/1/6 564/1/6 570/1/6
f 565/1/6 566/1/6 570/1/6
f 562/1/6 563/1/6 570/1/6
f 561/2/6 562/2/6 572/2/6
f 570/1/6 571/1/6 572/1/6
f 562/1/6 570/1/6 572/1/6
f 572/1/6 571/1/6 573/1/6
f 569/2/6 546/2/6 574/2/6
f 572/2/6 573/2/6 575/2/6
f 573/2/6 574/2/6 575/2/6
f 561/2/6 572/2/6 575/2/6
f 574/2/6 546/2/6 576/2/6
f 575/2/6 574/2/6 576/2/6
f 561/2/6 575/2/6 577/2/6
f 577/2/6 575/2/6 578/2/6
f 576/2/6 546/2/6 579/2/6
f 579/2/6 546/2/6 580/2/6
