# MagicaVoxel @ Ephtracy

# group
o 

# material
mtllib lab_decorations-1.mtl
usemtl palette

# normals
vn -1 0 0
vn 1 0 0
vn 0 0 1
vn 0 0 -1
vn 0 -1 0
vn 0 1 0

# texcoords
vt 0.658203 0.5
vt 0.662109 0.5
vt 0.666016 0.5

# verts
v -1.5 -0.25 1.05
v -1.5 -0.25 0.95
v -1.5 -0.15 1.05
v -1.5 -0.15 0.95
v -1.3 -0.25 0.35
v -1.3 -0.25 0.25
v -1.3 -0.15 0.35
v -1.3 -0.15 0.25
v -1.1 -0.25 0.75
v -1.1 -0.25 0.65
v -1.1 -0.15 0.75
v -1.1 -0.15 0.65
v -1 -0.25 1.35
v -1 -0.25 1.25
v -1 -0.25 1.05
v -1 -0.25 0.85
v -1 -0.15 1.35
v -1 -0.15 1.25
v -1 -0.15 1.05
v -1 -0.15 0.85
v -0.9 -0.25 1.15
v -0.9 -0.25 1.05
v -0.9 -0.15 1.15
v -0.9 -0.15 1.05
v -0.8 -0.25 0.85
v -0.8 -0.25 0.75
v -0.8 -0.25 0.0500001
v -0.8 -0.25 -0.05
v -0.8 -0.15 0.85
v -0.8 -0.15 0.75
v -0.8 -0.15 0.0500001
v -0.8 -0.15 -0.05
v -0.7 -0.25 1.15
v -0.7 -0.25 1.05
v -0.7 -0.25 0.95
v -0.7 -0.25 0.45
v -0.7 -0.25 0.35
v -0.7 -0.15 1.15
v -0.7 -0.15 1.05
v -0.7 -0.15 0.95
v -0.7 -0.15 0.45
v -0.7 -0.15 0.35
v -0.6 -0.25 0.85
v -0.6 -0.25 0.75
v -0.6 -0.25 0.55
v -0.6 -0.25 0.45
v -0.6 -0.25 0.25
v -0.6 -0.25 0.15
v -0.6 -0.15 0.85
v -0.6 -0.15 0.75
v -0.6 -0.15 0.55
v -0.6 -0.15 0.45
v -0.6 -0.15 0.25
v -0.6 -0.15 0.15
v -0.5 -0.25 1.35
v -0.5 -0.25 1.25
v -0.5 -0.25 1.15
v -0.5 -0.25 1.05
v -0.5 -0.25 0.75
v -0.5 -0.25 0.65
v -0.5 -0.15 1.35
v -0.5 -0.15 1.25
v -0.5 -0.15 1.15
v -0.5 -0.15 1.05
v -0.5 -0.15 0.75
v -0.5 -0.15 0.65
v -0.4 -0.25 0.25
v -0.4 -0.25 0.0500001
v -0.4 -0.25 -0.65
v -0.4 -0.25 -0.75
v -0.4 -0.15 0.25
v -0.4 -0.15 0.0500001
v -0.4 -0.15 -0.65
v -0.4 -0.15 -0.75
v -0.3 -0.25 1.05
v -0.3 -0.25 0.95
v -0.3 -0.25 0.85
v -0.3 -0.25 0.75
v -0.3 -0.25 -0.05
v -0.3 -0.25 -0.15
v -0.3 -0.15 1.05
v -0.3 -0.15 0.95
v -0.3 -0.15 0.85
v -0.3 -0.15 0.75
v -0.3 -0.15 -0.05
v -0.3 -0.15 -0.15
v -0.2 -0.25 1.35
v -0.2 -0.25 1.25
v -0.2 -0.25 1.05
v -0.2 -0.25 0.75
v -0.2 -0.25 0.65
v -0.2 -0.15 1.35
v -0.2 -0.15 1.25
v -0.2 -0.15 1.05
v -0.2 -0.15 0.75
v -0.2 -0.15 0.65
v -0.1 -0.25 1.05
v -0.1 -0.25 0.95
v -0.1 -0.25 0.85
v -0.1 -0.25 0.75
v -0.1 -0.25 0.65
v -0.1 -0.25 0.55
v -0.1 -0.25 0.45
v -0.1 -0.25 0.35
v -0.1 -0.25 0.25
v -0.1 -0.25 0.15
v -0.1 -0.25 0.0500001
v -0.1 -0.15 1.35
v -0.1 -0.15 1.25
v -0.1 -0.15 1.05
v -0.1 -0.15 0.95
v -0.1 -0.15 0.85
v -0.1 -0.15 0.75
v -0.1 -0.15 0.65
v -0.1 -0.15 0.55
v -0.1 -0.15 0.45
v -0.1 -0.15 0.35
v -0.1 -0.15 0.25
v -0.1 -0.15 0.15
v -0.1 -0.15 0.0500001
v -0.1 -0.05 1.35
v -0.1 -0.05 1.25
v 0 -0.25 -0.05
v 0 -0.25 -0.25
v 0 -0.15 1.05
v 0 -0.15 0.95
v 0 -0.15 -0.05
v 0 -0.15 -0.25
v 0 -0.05 1.05
v 0 -0.05 0.95
v 0.1 -0.25 0.85
v 0.1 -0.25 0.75
v 0.1 -0.25 0.65
v 0.1 -0.25 0.55
v 0.1 -0.25 0.45
v 0.1 -0.15 1.35
v 0.1 -0.15 1.25
v 0.1 -0.15 1.15
v 0.1 -0.15 1.05
v 0.1 -0.15 0.85
v 0.1 -0.15 0.75
v 0.1 -0.15 0.65
v 0.1 -0.15 0.55
v 0.1 -0.15 0.45
v 0.1 -0.05 1.35
v 0.1 -0.05 1.25
v 0.1 -0.05 1.15
v 0.1 -0.05 1.05
v 0.1 -0.05 0.85
v 0.1 -0.05 0.75
v 0.2 -0.25 0.65
v 0.2 -0.25 0.55
v 0.2 -0.25 0.35
v 0.2 -0.25 0.25
v 0.2 -0.25 0.15
v 0.2 -0.25 0.0500001
v 0.2 -0.25 -0.75
v 0.2 -0.25 -0.85
v 0.2 -0.15 1.25
v 0.2 -0.15 1.15
v 0.2 -0.15 0.95
v 0.2 -0.15 0.85
v 0.2 -0.15 0.65
v 0.2 -0.15 0.55
v 0.2 -0.15 0.35
v 0.2 -0.15 0.25
v 0.2 -0.15 0.15
v 0.2 -0.15 0.0500001
v 0.2 -0.15 -0.75
v 0.2 -0.15 -0.85
v 0.2 -0.05 1.25
v 0.2 -0.05 1.15
v 0.2 -0.05 0.95
v 0.2 -0.05 0.85
v 0.3 -0.25 0.45
v 0.3 -0.25 0.35
v 0.3 -0.25 0.0500001
v 0.3 -0.25 -0.05
v 0.3 -0.25 -0.15
v 0.3 -0.25 -0.35
v 0.3 -0.25 -0.45
v 0.3 -0.15 0.55
v 0.3 -0.15 0.45
v 0.3 -0.15 0.35
v 0.3 -0.15 0.0500001
v 0.3 -0.15 -0.05
v 0.3 -0.15 -0.15
v 0.3 -0.15 -0.35
v 0.3 -0.15 -0.45
v 0.3 -0.05 0.55
v 0.3 -0.05 0.45
v 0.4 -0.25 0.25
v 0.4 -0.25 0.15
v 0.4 -0.25 -0.05
v 0.4 -0.25 -0.15
v 0.4 -0.25 -0.55
v 0.4 -0.25 -0.65
v 0.4 -0.15 1.05
v 0.4 -0.15 0.95
v 0.4 -0.15 0.25
v 0.4 -0.15 0.15
v 0.4 -0.15 -0.05
v 0.4 -0.15 -0.15
v 0.4 -0.15 -0.55
v 0.4 -0.15 -0.65
v 0.4 -0.05 1.05
v 0.4 -0.05 0.95
v 0.5 -0.25 0.45
v 0.5 -0.25 0.35
v 0.5 -0.25 -0.65
v 0.5 -0.25 -0.75
v 0.5 -0.15 1.25
v 0.5 -0.15 1.15
v 0.5 -0.15 0.85
v 0.5 -0.15 0.75
v 0.5 -0.15 0.45
v 0.5 -0.15 0.35
v 0.5 -0.15 -0.65
v 0.5 -0.15 -0.75
v 0.5 -0.05 1.25
v 0.5 -0.05 1.15
v 0.5 -0.05 0.85
v 0.5 -0.05 0.75
v 0.6 -0.25 0.25
v 0.6 -0.25 0.0500001
v 0.6 -0.25 -0.15
v 0.6 -0.25 -0.25
v 0.6 -0.25 -0.35
v 0.6 -0.15 1.05
v 0.6 -0.15 0.95
v 0.6 -0.15 0.85
v 0.6 -0.15 0.75
v 0.6 -0.15 0.55
v 0.6 -0.15 0.25
v 0.6 -0.15 0.0500001
v 0.6 -0.15 -0.15
v 0.6 -0.15 -0.25
v 0.6 -0.15 -0.35
v 0.6 -0.05 1.05
v 0.6 -0.05 0.95
v 0.6 -0.05 0.85
v 0.6 -0.05 0.75
v 0.6 -0.05 0.55
v 0.6 0.05 0.95
v 0.6 0.05 0.85
v 0.7 -0.25 0.0500001
v 0.7 -0.25 -0.05
v 0.7 -0.15 1.15
v 0.7 -0.15 1.05
v 0.7 -0.15 0.25
v 0.7 -0.15 0.15
v 0.7 -0.15 0.0500001
v 0.7 -0.15 -0.05
v 0.7 -0.05 1.15
v 0.7 -0.05 1.05
v 0.7 -0.05 0.25
v 0.7 -0.05 0.15
v 0.8 -0.25 0.35
v 0.8 -0.25 0.25
v 0.8 -0.25 -0.15
v 0.8 -0.25 -0.25
v 0.8 -0.25 -0.55
v 0.8 -0.25 -0.75
v 0.8 -0.15 1.35
v 0.8 -0.15 1.25
v 0.8 -0.15 0.65
v 0.8 -0.15 0.55
v 0.8 -0.15 0.35
v 0.8 -0.15 0.25
v 0.8 -0.15 -0.15
v 0.8 -0.15 -0.25
v 0.8 -0.15 -0.55
v 0.8 -0.15 -0.75
v 0.8 -0.05 1.35
v 0.8 -0.05 1.25
v 0.8 -0.05 1.15
v 0.8 -0.05 0.85
v 0.8 -0.05 0.75
v 0.8 -0.05 0.65
v 0.8 -0.05 0.55
v 0.8 0.05 1.25
v 0.8 0.05 1.15
v 0.8 0.05 0.85
v 0.8 0.05 0.75
v 0.9 -0.25 0.85
v 0.9 -0.25 0.75
v 0.9 -0.25 0.15
v 0.9 -0.25 0.0500001
v 0.9 -0.25 -0.05
v 0.9 -0.25 -0.15
v 0.9 -0.25 -0.35
v 0.9 -0.25 -0.45
v 0.9 -0.15 0.85
v 0.9 -0.15 0.75
v 0.9 -0.15 0.65
v 0.9 -0.15 0.55
v 0.9 -0.15 0.45
v 0.9 -0.15 0.35
v 0.9 -0.15 0.25
v 0.9 -0.15 0.15
v 0.9 -0.15 0.0500001
v 0.9 -0.15 -0.05
v 0.9 -0.15 -0.15
v 0.9 -0.15 -0.35
v 0.9 -0.15 -0.45
v 0.9 -0.05 1.15
v 0.9 -0.05 1.05
v 0.9 -0.05 0.65
v 0.9 -0.05 0.55
v 0.9 -0.05 0.45
v 0.9 -0.05 0.35
v 0.9 -0.05 0.15
v 0.9 0.05 1.25
v 0.9 0.05 1.15
v 0.9 0.05 1.05
v 0.9 0.05 0.75
v 0.9 0.05 0.65
v 0.9 0.05 0.55
v 0.9 0.25 1.25
v 0.9 0.25 1.15
v 1 -0.25 0.0500001
v 1 -0.25 -0.05
v 1 -0.15 1.35
v 1 -0.15 1.25
v 1 -0.15 1.05
v 1 -0.15 0.95
v 1 -0.15 0.0500001
v 1 -0.15 -0.05
v 1 -0.05 1.35
v 1 -0.05 1.25
v 1 -0.05 1.05
v 1 -0.05 0.95
v 1 -0.05 0.85
v 1 -0.05 0.55
v 1 -0.05 0.45
v 1 0.05 1.35
v 1 0.05 1.25
v 1 0.05 0.95
v 1 0.05 0.85
v 1 0.05 0.75
v 1 0.05 0.65
v 1 0.05 0.55
v 1 0.05 0.45
v 1 0.15 0.95
v 1 0.15 0.85
v 1 0.15 0.75
v 1 0.15 0.65
v 1 0.25 0.85
v 1 0.25 0.75
v 1.1 -0.25 0.95
v 1.1 -0.25 0.85
v 1.1 -0.25 -0.15
v 1.1 -0.25 -0.25
v 1.1 -0.25 -1.25
v 1.1 -0.25 -1.35
v 1.1 -0.15 0.95
v 1.1 -0.15 0.85
v 1.1 -0.15 0.35
v 1.1 -0.15 0.0500001
v 1.1 -0.15 -0.15
v 1.1 -0.15 -0.25
v 1.1 -0.15 -1.25
v 1.1 -0.15 -1.35
v 1.1 -0.05 0.45
v 1.1 -0.05 0.35
v 1.1 -0.05 0.0500001
v 1.1 0.05 0.45
v 1.1 0.05 0.35
v 1.2 -0.15 1.05
v 1.2 -0.15 0.95
v 1.2 -0.05 1.25
v 1.2 -0.05 1.15
v 1.2 -0.05 1.05
v 1.2 -0.05 0.95
v 1.2 0.05 1.35
v 1.2 0.05 1.25
v 1.2 0.05 1.15
v 1.2 0.05 1.05
v 1.2 0.05 0.95
v 1.2 0.15 1.35
v 1.2 0.15 1.25
v 1.3 -0.25 -0.25
v 1.3 -0.25 -0.45
v 1.3 -0.25 -0.55
v 1.3 -0.25 -0.65
v 1.3 -0.25 -0.75
v 1.3 -0.25 -0.95
v 1.3 -0.25 -1.05
v 1.3 -0.15 0.75
v 1.3 -0.15 0.65
v 1.3 -0.15 0.55
v 1.3 -0.15 -0.25
v 1.3 -0.15 -0.45
v 1.3 -0.15 -0.55
v 1.3 -0.15 -0.65
v 1.3 -0.15 -0.75
v 1.3 -0.15 -0.95
v 1.3 -0.15 -1.05
v 1.3 -0.05 0.75
v 1.3 -0.05 0.65
v 1.3 -0.05 0.55
v 1.3 0.05 1.25
v 1.3 0.05 1.15
v 1.3 0.15 1.25
v 1.3 0.15 1.15
v 1.4 -0.25 0.15
v 1.4 -0.25 0.0500001
v 1.4 -0.25 -0.05
v 1.4 -0.25 -0.15
v 1.4 -0.15 1.05
v 1.4 -0.15 0.85
v 1.4 -0.15 0.75
v 1.4 -0.15 0.55
v 1.4 -0.15 0.45
v 1.4 -0.15 0.35
v 1.4 -0.15 0.15
v 1.4 -0.15 0.0500001
v 1.4 -0.15 -0.05
v 1.4 -0.15 -0.15
v 1.4 -0.05 1.05
v 1.4 -0.05 0.95
v 1.4 -0.05 0.85
v 1.4 -0.05 0.75
v 1.4 -0.05 0.65
v 1.4 -0.05 0.55
v 1.4 -0.05 0.35
v 1.4 0.05 1.05
v 1.4 0.05 0.95
v 1.4 0.05 0.85
v 1.4 0.05 0.65
v 1.4 0.15 1.35
v 1.4 0.15 1.25
v 1.4 0.25 1.35
v 1.4 0.25 1.25
v -1.4 -0.25 1.05
v -1.4 -0.25 0.95
v -1.4 -0.15 1.05
v -1.4 -0.15 0.95
v -1.2 -0.25 0.35
v -1.2 -0.25 0.25
v -1.2 -0.15 0.35
v -1.2 -0.15 0.25
v -1 -0.25 0.75
v -1 -0.25 0.65
v -1 -0.15 0.75
v -1 -0.15 0.65
v -0.9 -0.25 1.35
v -0.9 -0.25 1.25
v -0.9 -0.25 1.05
v -0.9 -0.25 0.85
v -0.9 -0.15 1.35
v -0.9 -0.15 1.25
v -0.9 -0.15 1.05
v -0.9 -0.15 0.85
v -0.8 -0.25 1.15
v -0.8 -0.25 1.05
v -0.8 -0.15 1.15
v -0.8 -0.15 1.05
v -0.7 -0.25 0.85
v -0.7 -0.25 0.75
v -0.7 -0.25 0.0500001
v -0.7 -0.25 -0.05
v -0.7 -0.15 0.85
v -0.7 -0.15 0.75
v -0.7 -0.15 0.0500001
v -0.7 -0.15 -0.05
v -0.6 -0.25 1.15
v -0.6 -0.25 1.05
v -0.6 -0.25 0.95
v -0.6 -0.15 1.15
v -0.6 -0.15 1.05
v -0.6 -0.15 0.95
v -0.5 -0.25 0.85
v -0.5 -0.25 0.75
v -0.5 -0.25 0.55
v -0.5 -0.25 0.45
v -0.5 -0.25 0.25
v -0.5 -0.25 0.15
v -0.5 -0.15 0.85
v -0.5 -0.15 0.75
v -0.5 -0.15 0.55
v -0.5 -0.15 0.45
v -0.5 -0.15 0.25
v -0.5 -0.15 0.15
v -0.4 -0.25 1.35
v -0.4 -0.25 1.25
v -0.4 -0.25 0.75
v -0.4 -0.25 0.65
v -0.4 -0.15 1.35
v -0.4 -0.15 1.25
v -0.4 -0.15 0.75
v -0.4 -0.15 0.65
v -0.3 -0.25 1.15
v -0.3 -0.25 1.05
v -0.3 -0.25 0.25
v -0.3 -0.25 0.0500001
v -0.3 -0.25 -0.65
v -0.3 -0.25 -0.75
v -0.3 -0.15 1.15
v -0.3 -0.15 1.05
v -0.3 -0.15 0.25
v -0.3 -0.15 0.0500001
v -0.3 -0.15 -0.65
v -0.3 -0.15 -0.75
v -0.2 -0.25 1.05
v -0.2 -0.25 0.95
v -0.2 -0.25 0.85
v -0.2 -0.25 0.75
v -0.2 -0.25 0.45
v -0.2 -0.25 0.35
v -0.2 -0.25 -0.05
v -0.2 -0.25 -0.15
v -0.2 -0.15 1.05
v -0.2 -0.15 0.95
v -0.2 -0.15 0.85
v -0.2 -0.15 0.75
v -0.2 -0.15 0.45
v -0.2 -0.15 0.35
v -0.2 -0.15 -0.05
v -0.2 -0.15 -0.15
v 0 -0.25 0.85
v 0 -0.25 0.65
v 0 -0.25 0.45
v 0 -0.25 0.35
v 0 -0.15 1.35
v 0 -0.15 1.25
v 0 -0.15 0.85
v 0 -0.15 0.65
v 0 -0.15 0.45
v 0 -0.15 0.35
v 0 -0.05 1.35
v 0 -0.05 1.25
v 0.1 -0.25 0.65
v 0.1 -0.25 0.55
v 0.1 -0.25 0.25
v 0.1 -0.25 0.15
v 0.1 -0.25 0.0500001
v 0.1 -0.25 -0.15
v 0.1 -0.25 -0.25
v 0.1 -0.15 1.05
v 0.1 -0.15 0.95
v 0.1 -0.15 0.65
v 0.1 -0.15 0.55
v 0.1 -0.15 0.25
v 0.1 -0.15 0.15
v 0.1 -0.15 0.0500001
v 0.1 -0.15 -0.15
v 0.1 -0.15 -0.25
v 0.1 -0.05 1.05
v 0.1 -0.05 0.95
v 0.2 -0.25 -0.05
v 0.2 -0.25 -0.15
v 0.2 -0.15 -0.05
v 0.2 -0.15 -0.15
v 0.3 -0.25 0.15
v 0.3 -0.25 0.0500001
v 0.3 -0.25 -0.75
v 0.3 -0.25 -0.85
v 0.3 -0.15 1.15
v 0.3 -0.15 1.05
v 0.3 -0.15 0.85
v 0.3 -0.15 0.75
v 0.3 -0.15 0.15
v 0.3 -0.15 0.0500001
v 0.3 -0.15 -0.75
v 0.3 -0.15 -0.85
v 0.3 -0.05 1.15
v 0.3 -0.05 1.05
v 0.3 -0.05 0.85
v 0.3 -0.05 0.75
v 0.4 -0.25 0.45
v 0.4 -0.25 0.35
v 0.4 -0.25 -0.25
v 0.4 -0.25 -0.35
v 0.4 -0.25 -0.45
v 0.4 -0.15 1.25
v 0.4 -0.15 1.15
v 0.4 -0.15 0.55
v 0.4 -0.15 0.45
v 0.4 -0.15 0.35
v 0.4 -0.15 -0.25
v 0.4 -0.15 -0.35
v 0.4 -0.15 -0.45
v 0.4 -0.05 1.25
v 0.4 -0.05 1.15
v 0.4 -0.05 0.55
v 0.4 -0.05 0.45
v 0.5 -0.25 0.25
v 0.5 -0.25 0.15
v 0.5 -0.25 0.0500001
v 0.5 -0.25 -0.05
v 0.5 -0.25 -0.25
v 0.5 -0.25 -0.55
v 0.5 -0.25 -0.65
v 0.5 -0.15 1.05
v 0.5 -0.15 0.95
v 0.5 -0.15 0.85
v 0.5 -0.15 0.25
v 0.5 -0.15 0.15
v 0.5 -0.15 0.0500001
v 0.5 -0.15 -0.05
v 0.5 -0.15 -0.25
v 0.5 -0.15 -0.55
v 0.5 -0.15 -0.65
v 0.5 -0.05 1.05
v 0.5 -0.05 0.95
v 0.5 -0.05 0.85
v 0.6 -0.25 -0.65
v 0.6 -0.25 -0.75
v 0.6 -0.15 1.35
v 0.6 -0.15 1.25
v 0.6 -0.15 -0.65
v 0.6 -0.15 -0.75
v 0.6 -0.05 1.35
v 0.6 -0.05 1.25
v 0.7 -0.25 0.35
v 0.7 -0.25 0.25
v 0.7 -0.25 -0.15
v 0.7 -0.25 -0.25
v 0.7 -0.25 -0.35
v 0.7 -0.15 0.65
v 0.7 -0.15 0.55
v 0.7 -0.15 0.35
v 0.7 -0.15 0.25
v 0.7 -0.15 -0.15
v 0.7 -0.15 -0.25
v 0.7 -0.15 -0.35
v 0.7 -0.05 0.95
v 0.7 -0.05 0.85
v 0.7 -0.05 0.65
v 0.7 -0.05 0.55
v 0.7 0.05 0.95
v 0.7 0.05 0.85
v 0.8 -0.25 0.85
v 0.8 -0.25 0.75
v 0.8 -0.25 0.15
v 0.8 -0.25 0.0500001
v 0.8 -0.25 -0.05
v 0.8 -0.15 1.05
v 0.8 -0.15 0.95
v 0.8 -0.15 0.85
v 0.8 -0.15 0.75
v 0.8 -0.15 0.65
v 0.8 -0.15 0.25
v 0.8 -0.15 0.15
v 0.8 -0.15 0.0500001
v 0.8 -0.15 -0.05
v 0.8 -0.05 1.05
v 0.8 -0.05 0.95
v 0.8 -0.05 0.75
v 0.8 -0.05 0.65
v 0.8 -0.05 0.25
v 0.8 -0.05 0.15
v 0.9 -0.25 -0.15
v 0.9 -0.25 -0.25
v 0.9 -0.25 -0.65
v 0.9 -0.25 -0.75
v 0.9 -0.15 1.35
v 0.9 -0.15 1.25
v 0.9 -0.15 -0.15
v 0.9 -0.15 -0.25
v 0.9 -0.15 -0.65
v 0.9 -0.15 -0.75
v 0.9 -0.05 1.35
v 0.9 -0.05 1.25
v 1 -0.25 0.95
v 1 -0.25 0.85
v 1 -0.25 -0.05
v 1 -0.25 -0.15
v 1 -0.25 -0.35
v 1 -0.25 -0.45
v 1 -0.15 0.95
v 1 -0.15 0.85
v 1 -0.15 0.35
v 1 -0.15 0.15
v 1 -0.15 -0.05
v 1 -0.15 -0.15
v 1 -0.15 -0.35
v 1 -0.15 -0.45
v 1 -0.05 1.25
v 1 -0.05 1.15
v 1 -0.05 1.05
v 1 -0.05 0.35
v 1 -0.05 0.15
v 1 0.05 1.25
v 1 0.05 1.15
v 1 0.05 1.05
v 1 0.25 1.25
v 1 0.25 1.15
v 1.1 -0.25 -0.55
v 1.1 -0.25 -0.65
v 1.1 -0.15 1.05
v 1.1 -0.15 0.95
v 1.1 -0.15 -0.55
v 1.1 -0.15 -0.65
v 1.1 -0.05 1.05
v 1.1 -0.05 0.95
v 1.1 0.05 0.75
v 1.1 0.05 0.65
v 1.1 0.15 0.85
v 1.1 0.15 0.75
v 1.1 0.15 0.65
v 1.1 0.25 0.85
v 1.1 0.25 0.75
v 1.2 -0.25 -0.15
v 1.2 -0.25 -0.25
v 1.2 -0.25 -1.25
v 1.2 -0.25 -1.35
v 1.2 -0.15 0.85
v 1.2 -0.15 0.65
v 1.2 -0.15 0.55
v 1.2 -0.15 0.35
v 1.2 -0.15 0.25
v 1.2 -0.15 -0.15
v 1.2 -0.15 -0.25
v 1.2 -0.15 -1.25
v 1.2 -0.15 -1.35
v 1.2 -0.05 0.85
v 1.2 -0.05 0.75
v 1.2 -0.05 0.65
v 1.2 -0.05 0.55
v 1.2 -0.05 0.45
v 1.2 -0.05 0.35
v 1.2 -0.05 0.25
v 1.2 0.05 0.95
v 1.2 0.05 0.85
v 1.2 0.05 0.75
v 1.2 0.05 0.65
v 1.2 0.05 0.45
v 1.2 0.05 0.35
v 1.2 0.15 0.95
v 1.2 0.15 0.75
v 1.3 -0.25 0.15
v 1.3 -0.25 0.0500001
v 1.3 -0.15 1.05
v 1.3 -0.15 0.95
v 1.3 -0.15 0.85
v 1.3 -0.15 0.55
v 1.3 -0.15 0.45
v 1.3 -0.15 0.35
v 1.3 -0.15 0.25
v 1.3 -0.15 0.15
v 1.3 -0.15 0.0500001
v 1.3 -0.05 1.05
v 1.3 -0.05 0.95
v 1.3 -0.05 0.85
v 1.3 -0.05 0.55
v 1.3 -0.05 0.35
v 1.3 -0.05 0.25
v 1.3 -0.05 0.0500001
v 1.3 0.05 1.05
v 1.3 0.05 0.85
v 1.4 -0.25 1.15
v 1.4 -0.25 1.05
v 1.4 -0.25 -0.35
v 1.4 -0.25 -0.45
v 1.4 -0.25 -0.55
v 1.4 -0.25 -0.65
v 1.4 -0.25 -0.75
v 1.4 -0.25 -0.95
v 1.4 -0.25 -1.05
v 1.4 -0.15 1.15
v 1.4 -0.15 1.05
v 1.4 -0.15 -0.35
v 1.4 -0.15 -0.45
v 1.4 -0.15 -0.55
v 1.4 -0.15 -0.65
v 1.4 -0.15 -0.75
v 1.4 -0.15 -0.95
v 1.4 -0.15 -1.05
v 1.5 -0.25 1.35
v 1.5 -0.25 1.15
v 1.5 -0.25 1.05
v 1.5 -0.25 0.95
v 1.5 -0.25 0.85
v 1.5 -0.25 0.75
v 1.5 -0.25 0.65
v 1.5 -0.25 0.55
v 1.5 -0.25 0.25
v 1.5 -0.25 0.0500001
v 1.5 -0.25 -0.15
v 1.5 -0.25 -0.25
v 1.5 -0.25 -0.35
v 1.5 -0.15 1.25
v 1.5 -0.15 1.15
v 1.5 -0.15 1.05
v 1.5 -0.15 0.95
v 1.5 -0.15 0.85
v 1.5 -0.15 0.65
v 1.5 -0.15 0.55
v 1.5 -0.15 0.35
v 1.5 -0.15 0.25
v 1.5 -0.15 0.0500001
v 1.5 -0.15 -0.15
v 1.5 -0.15 -0.25
v 1.5 -0.15 -0.35
v 1.5 -0.05 1.35
v 1.5 -0.05 1.25
v 1.5 -0.05 1.15
v 1.5 -0.05 1.05
v 1.5 -0.05 0.95
v 1.5 -0.05 0.85
v 1.5 -0.05 0.75
v 1.5 -0.05 0.65
v 1.5 -0.05 0.35
v 1.5 0.05 1.25
v 1.5 0.05 1.15
v 1.5 0.05 1.05
v 1.5 0.05 0.95
v 1.5 0.05 0.85
v 1.5 0.05 0.65
v 1.5 0.15 1.35
v 1.5 0.15 1.25
v 1.5 0.15 1.15
v 1.5 0.25 1.35
v 1.5 0.25 1.25
v -1 -0.25 1.35
v -1 -0.15 1.35
v -0.9 -0.25 1.35
v -0.9 -0.15 1.35
v -0.5 -0.25 1.35
v -0.5 -0.15 1.35
v -0.4 -0.25 1.35
v -0.4 -0.15 1.35
v -0.2 -0.25 1.35
v -0.2 -0.15 1.35
v -0.1 -0.25 1.35
v -0.1 -0.15 1.35
v -0.1 -0.05 1.35
v 0 -0.25 1.35
v 0 -0.15 1.35
v 0 -0.05 1.35
v 0.1 -0.25 1.35
v 0.1 -0.15 1.35
v 0.1 -0.05 1.35
v 0.2 -0.25 1.35
v 0.2 -0.05 1.35
v 0.3 -0.25 1.35
v 0.3 -0.05 1.35
v 0.4 -0.25 1.35
v 0.4 -0.15 1.35
v 0.4 -0.05 1.35
v 0.5 -0.25 1.35
v 0.5 -0.15 1.35
v 0.5 -0.05 1.35
v 0.6 -0.25 1.35
v 0.6 -0.15 1.35
v 0.6 -0.05 1.35
v 0.7 -0.25 1.35
v 0.7 -0.15 1.35
v 0.8 -0.15 1.35
v 0.8 -0.05 1.35
v 0.9 -0.25 1.35
v 0.9 -0.15 1.35
v 0.9 -0.05 1.35
v 1 -0.15 1.35
v 1 -0.05 1.35
v 1 0.05 1.35
v 1.1 -0.15 1.35
v 1.1 -0.05 1.35
v 1.2 -0.25 1.35
v 1.2 -0.15 1.35
v 1.2 -0.05 1.35
v 1.2 0.05 1.35
v 1.2 0.15 1.35
v 1.3 -0.25 1.35
v 1.3 -0.15 1.35
v 1.4 -0.25 1.35
v 1.4 -0.05 1.35
v 1.4 0.05 1.35
v 1.4 0.15 1.35
v 1.4 0.25 1.35
v 1.5 -0.25 1.35
v 1.5 -0.05 1.35
v 1.5 0.15 1.35
v 1.5 0.25 1.35
v 0.6 -0.15 1.25
v 0.6 -0.05 1.25
v 0.7 -0.15 1.25
v 0.7 -0.05 1.25
v 0.8 -0.15 1.25
v 0.8 -0.05 1.25
v 0.8 0.05 1.25
v 0.9 -0.15 1.25
v 0.9 -0.05 1.25
v 0.9 0.05 1.25
v 0.9 0.25 1.25
v 1 -0.15 1.25
v 1 -0.05 1.25
v 1 0.05 1.25
v 1 0.25 1.25
v -0.9 -0.25 1.15
v -0.9 -0.15 1.15
v -0.8 -0.25 1.15
v -0.8 -0.15 1.15
v -0.7 -0.25 1.15
v -0.7 -0.15 1.15
v -0.6 -0.25 1.15
v -0.6 -0.15 1.15
v -0.5 -0.25 1.15
v -0.5 -0.15 1.15
v -0.3 -0.25 1.15
v -0.3 -0.15 1.15
v 0.1 -0.15 1.15
v 0.1 -0.05 1.15
v 0.2 -0.15 1.15
v 0.2 -0.05 1.15
v -1.5 -0.25 1.05
v -1.5 -0.15 1.05
v -1.4 -0.25 1.05
v -1.4 -0.15 1.05
v -1 -0.25 1.05
v -1 -0.15 1.05
v -0.9 -0.25 1.05
v -0.9 -0.15 1.05
v -0.3 -0.25 1.05
v -0.3 -0.15 1.05
v -0.2 -0.25 1.05
v -0.2 -0.15 1.05
v 0 -0.15 1.05
v 0 -0.05 1.05
v 0.1 -0.15 1.05
v 0.1 -0.05 1.05
v 0.4 -0.15 1.05
v 0.4 -0.05 1.05
v 0.5 -0.15 1.05
v 0.5 -0.05 1.05
v 0.6 -0.15 1.05
v 0.6 -0.05 1.05
v 0.7 -0.15 1.05
v 0.7 -0.05 1.05
v 1.2 -0.05 1.05
v 1.2 0.05 1.05
v 1.3 -0.05 1.05
v 1.3 0.05 1.05
v 1.4 -0.25 1.05
v 1.4 -0.15 1.05
v 1.4 -0.05 1.05
v 1.4 0.05 1.05
v 1.5 -0.25 1.05
v 1.5 -0.15 1.05
v 1.5 -0.05 1.05
v 1.5 0.05 1.05
v 0.2 -0.15 0.95
v 0.2 -0.05 0.95
v 0.3 -0.15 0.95
v 0.4 -0.15 0.95
v 0.4 -0.05 0.95
v 0.6 -0.05 0.95
v 0.6 0.05 0.95
v 0.7 -0.05 0.95
v 0.7 0.05 0.95
v 0.8 -0.15 0.95
v 0.8 -0.05 0.95
v 0.9 -0.15 0.95
v 1 -0.15 0.95
v 1 -0.05 0.95
v 1 0.05 0.95
v 1 0.15 0.95
v 1.1 -0.15 0.95
v 1.1 -0.05 0.95
v 1.2 -0.15 0.95
v 1.2 -0.05 0.95
v 1.2 0.05 0.95
v 1.2 0.15 0.95
v -0.8 -0.25 0.85
v -0.8 -0.15 0.85
v -0.7 -0.25 0.85
v -0.7 -0.15 0.85
v -0.6 -0.25 0.85
v -0.6 -0.15 0.85
v -0.5 -0.25 0.85
v -0.5 -0.15 0.85
v -0.3 -0.25 0.85
v -0.3 -0.15 0.85
v -0.2 -0.25 0.85
v -0.2 -0.15 0.85
v 0.1 -0.15 0.85
v 0.1 -0.05 0.85
v 0.2 -0.15 0.85
v 0.2 -0.05 0.85
v 0.5 -0.15 0.85
v 0.5 -0.05 0.85
v 0.6 -0.15 0.85
v 0.6 -0.05 0.85
v 0.8 -0.05 0.85
v 0.8 0.05 0.85
v 0.9 -0.05 0.85
v 0.9 0.05 0.85
v 1 -0.25 0.85
v 1 -0.15 0.85
v 1 -0.05 0.85
v 1 0.05 0.85
v 1 0.15 0.85
v 1 0.25 0.85
v 1.1 -0.25 0.85
v 1.1 -0.15 0.85
v 1.1 0.15 0.85
v 1.1 0.25 0.85
v 1.4 -0.05 0.85
v 1.4 0.05 0.85
v 1.5 -0.05 0.85
v 1.5 0.05 0.85
v -1.1 -0.25 0.75
v -1.1 -0.15 0.75
v -1 -0.25 0.75
v -1 -0.15 0.75
v -0.5 -0.25 0.75
v -0.5 -0.15 0.75
v -0.4 -0.25 0.75
v -0.4 -0.15 0.75
v -0.2 -0.25 0.75
v -0.2 -0.15 0.75
v -0.1 -0.25 0.75
v -0.1 -0.15 0.75
v 0.8 -0.25 0.75
v 0.8 -0.15 0.75
v 0.9 -0.25 0.75
v 0.9 -0.15 0.75
v 1.3 -0.15 0.75
v 1.3 -0.05 0.75
v 1.4 -0.15 0.75
v 1.4 -0.05 0.75
v 0 -0.25 0.65
v 0 -0.15 0.65
v 0.1 -0.25 0.65
v 0.1 -0.15 0.65
v 0.8 -0.15 0.65
v 0.8 -0.05 0.65
v 0.9 -0.15 0.65
v 0.9 -0.05 0.65
v -0.6 -0.25 0.55
v -0.6 -0.15 0.55
v -0.5 -0.25 0.55
v -0.5 -0.15 0.55
v 0.1 -0.25 0.55
v 0.1 -0.15 0.55
v 0.2 -0.25 0.55
v 0.2 -0.15 0.55
v 0.3 -0.15 0.55
v 0.3 -0.05 0.55
v 0.4 -0.15 0.55
v 0.4 -0.05 0.55
v 1.2 -0.15 0.55
v 1.2 -0.05 0.55
v 1.3 -0.15 0.55
v 1.3 -0.05 0.55
v -0.7 -0.25 0.45
v -0.7 -0.15 0.45
v -0.6 -0.25 0.45
v -0.6 -0.15 0.45
v -0.5 -0.25 0.45
v -0.5 -0.15 0.45
v -0.4 -0.25 0.45
v -0.4 -0.15 0.45
v -0.2 -0.25 0.45
v -0.2 -0.15 0.45
v -0.1 -0.25 0.45
v -0.1 -0.15 0.45
v 0 -0.25 0.45
v 0 -0.15 0.45
v -1.3 -0.25 0.35
v -1.3 -0.15 0.35
v -1.2 -0.25 0.35
v -1.2 -0.15 0.35
v 0.2 -0.25 0.35
v 0.2 -0.15 0.35
v 0.3 -0.25 0.35
v 0.3 -0.15 0.35
v 0.4 -0.25 0.35
v 0.4 -0.15 0.35
v 0.5 -0.25 0.35
v 0.5 -0.15 0.35
v -0.6 -0.25 0.25
v -0.6 -0.15 0.25
v -0.5 -0.25 0.25
v -0.5 -0.15 0.25
v -0.4 -0.25 0.25
v -0.4 -0.15 0.25
v -0.3 -0.25 0.25
v -0.3 -0.15 0.25
v -0.1 -0.25 0.25
v -0.1 -0.15 0.25
v 0.1 -0.25 0.25
v 0.1 -0.15 0.25
v 0.7 -0.25 0.25
v 0.7 -0.15 0.25
v 0.7 -0.05 0.25
v 0.8 -0.25 0.25
v 0.8 -0.15 0.25
v 0.8 -0.05 0.25
v 1.2 -0.15 0.25
v 1.2 -0.05 0.25
v 1.3 -0.15 0.25
v 1.3 -0.05 0.25
v 0.2 -0.25 0.15
v 0.2 -0.15 0.15
v 0.3 -0.25 0.15
v 0.3 -0.15 0.15
v -0.8 -0.25 0.0500001
v -0.8 -0.15 0.0500001
v -0.7 -0.25 0.0500001
v -0.7 -0.15 0.0500001
v 0.3 -0.25 0.0500001
v 0.3 -0.15 0.0500001
v 0.4 -0.25 0.0500001
v 0.4 -0.15 0.0500001
v 0.5 -0.25 0.0500001
v 0.5 -0.15 0.0500001
v 1.3 -0.25 0.0500001
v 1.3 -0.15 0.0500001
v 1.4 -0.25 0.0500001
v 1.4 -0.15 0.0500001
v -0.3 -0.25 -0.05
v -0.3 -0.15 -0.05
v -0.2 -0.25 -0.05
v -0.2 -0.15 -0.05
v 0 -0.25 -0.05
v 0 -0.15 -0.05
v 0.1 -0.25 -0.05
v 0.1 -0.15 -0.05
v 0.2 -0.25 -0.05
v 0.2 -0.15 -0.05
v 0.9 -0.25 -0.05
v 0.9 -0.15 -0.05
v 1 -0.25 -0.05
v 1 -0.15 -0.05
v 0.3 -0.25 -0.15
v 0.3 -0.15 -0.15
v 0.4 -0.25 -0.15
v 0.4 -0.15 -0.15
v 0.6 -0.25 -0.15
v 0.6 -0.15 -0.15
v 0.7 -0.25 -0.15
v 0.7 -0.15 -0.15
v 0.8 -0.25 -0.15
v 0.8 -0.15 -0.15
v 0.9 -0.25 -0.15
v 0.9 -0.15 -0.15
v 1.1 -0.25 -0.15
v 1.1 -0.15 -0.15
v 1.2 -0.25 -0.15
v 1.2 -0.15 -0.15
v 1.3 -0.25 -0.25
v 1.3 -0.15 -0.25
v 1.4 -0.25 -0.25
v 1.4 -0.15 -0.25
v 1.5 -0.25 -0.25
v 1.5 -0.15 -0.25
v 0.9 -0.25 -0.35
v 0.9 -0.15 -0.35
v 1 -0.25 -0.35
v 1 -0.15 -0.35
v 0.4 -0.25 -0.55
v 0.4 -0.15 -0.55
v 0.5 -0.25 -0.55
v 0.5 -0.15 -0.55
v 0.8 -0.25 -0.55
v 0.8 -0.15 -0.55
v 0.9 -0.25 -0.55
v 0.9 -0.15 -0.55
v 1 -0.25 -0.55
v 1 -0.15 -0.55
v 1.1 -0.25 -0.55
v 1.1 -0.15 -0.55
v 1.3 -0.25 -0.55
v 1.3 -0.15 -0.55
v 1.4 -0.25 -0.55
v 1.4 -0.15 -0.55
v -0.4 -0.25 -0.65
v -0.4 -0.15 -0.65
v -0.3 -0.25 -0.65
v -0.3 -0.15 -0.65
v 0.5 -0.25 -0.65
v 0.5 -0.15 -0.65
v 0.6 -0.25 -0.65
v 0.6 -0.15 -0.65
v 0.2 -0.25 -0.75
v 0.2 -0.15 -0.75
v 0.3 -0.25 -0.75
v 0.3 -0.15 -0.75
v 1.3 -0.25 -0.95
v 1.3 -0.15 -0.95
v 1.4 -0.25 -0.95
v 1.4 -0.15 -0.95
v 1.1 -0.25 -1.25
v 1.1 -0.15 -1.25
v 1.2 -0.25 -1.25
v 1.2 -0.15 -1.25
v -1 -0.25 1.25
v -1 -0.15 1.25
v -0.9 -0.25 1.25
v -0.9 -0.15 1.25
v -0.5 -0.25 1.25
v -0.5 -0.15 1.25
v -0.4 -0.25 1.25
v -0.4 -0.15 1.25
v -0.1 -0.15 1.25
v -0.1 -0.05 1.25
v 0 -0.15 1.25
v 0 -0.05 1.25
v 0.1 -0.15 1.25
v 0.1 -0.05 1.25
v 0.2 -0.15 1.25
v 0.2 -0.05 1.25
v 0.4 -0.15 1.25
v 0.4 -0.05 1.25
v 0.5 -0.15 1.25
v 0.5 -0.05 1.25
v 1 -0.05 1.25
v 1 0.05 1.25
v 1.2 -0.05 1.25
v 1.2 0.05 1.25
v 1.2 0.15 1.25
v 1.3 0.05 1.25
v 1.3 0.15 1.25
v 1.4 0.15 1.25
v 1.4 0.25 1.25
v 1.5 0.15 1.25
v 1.5 0.25 1.25
v 0.3 -0.15 1.15
v 0.3 -0.05 1.15
v 0.4 -0.15 1.15
v 0.4 -0.05 1.15
v 0.5 -0.15 1.15
v 0.5 -0.05 1.15
v 0.6 -0.15 1.15
v 0.6 -0.05 1.15
v 0.7 -0.15 1.15
v 0.7 -0.05 1.15
v 0.8 -0.05 1.15
v 0.8 0.05 1.15
v 0.9 -0.05 1.15
v 0.9 0.05 1.15
v 0.9 0.25 1.15
v 1 0.05 1.15
v 1 0.25 1.15
v 1.2 -0.05 1.15
v 1.2 0.05 1.15
v 1.3 -0.05 1.15
v 1.3 0.05 1.15
v 1.3 0.15 1.15
v 1.4 -0.25 1.15
v 1.4 -0.15 1.15
v 1.4 0.05 1.15
v 1.4 0.15 1.15
v 1.5 -0.25 1.15
v 1.5 -0.15 1.15
v 1.5 -0.05 1.15
v 1.5 0.05 1.15
v 1.5 0.15 1.15
v -0.9 -0.25 1.05
v -0.9 -0.15 1.05
v -0.8 -0.25 1.05
v -0.8 -0.15 1.05
v -0.5 -0.25 1.05
v -0.5 -0.15 1.05
v -0.3 -0.25 1.05
v -0.3 -0.15 1.05
v -0.2 -0.25 1.05
v -0.2 -0.15 1.05
v -0.1 -0.25 1.05
v -0.1 -0.15 1.05
v 0.1 -0.15 1.05
v 0.1 -0.05 1.05
v 0.2 -0.15 1.05
v 0.2 -0.05 1.05
v 0.3 -0.15 1.05
v 0.3 -0.05 1.05
v 0.8 -0.15 1.05
v 0.8 -0.05 1.05
v 0.9 -0.15 1.05
v 0.9 -0.05 1.05
v 0.9 0.05 1.05
v 1 -0.15 1.05
v 1 -0.05 1.05
v 1 0.05 1.05
v 1.1 -0.15 1.05
v 1.1 -0.05 1.05
v 1.2 -0.15 1.05
v 1.2 -0.05 1.05
v 1.3 -0.15 1.05
v 1.3 -0.05 1.05
v 1.4 -0.15 1.05
v 1.4 -0.05 1.05
v -1.5 -0.25 0.95
v -1.5 -0.15 0.95
v -1.4 -0.25 0.95
v -1.4 -0.15 0.95
v -0.7 -0.25 0.95
v -0.7 -0.15 0.95
v -0.6 -0.25 0.95
v -0.6 -0.15 0.95
v -0.3 -0.25 0.95
v -0.3 -0.15 0.95
v -0.2 -0.25 0.95
v -0.2 -0.15 0.95
v 0 -0.15 0.95
v 0 -0.05 0.95
v 0.1 -0.15 0.95
v 0.1 -0.05 0.95
v 1 -0.25 0.95
v 1 -0.15 0.95
v 1.1 -0.25 0.95
v 1.1 -0.15 0.95
v 1.4 -0.05 0.95
v 1.4 0.05 0.95
v 1.5 -0.05 0.95
v 1.5 0.05 0.95
v -1 -0.25 0.85
v -1 -0.15 0.85
v -0.9 -0.25 0.85
v -0.9 -0.15 0.85
v 0 -0.25 0.85
v 0 -0.15 0.85
v 0.1 -0.25 0.85
v 0.1 -0.15 0.85
v 0.3 -0.15 0.85
v 0.3 -0.05 0.85
v 0.4 -0.15 0.85
v 0.4 -0.05 0.85
v 0.5 -0.15 0.85
v 0.5 -0.05 0.85
v 0.6 -0.05 0.85
v 0.6 0.05 0.85
v 0.7 -0.05 0.85
v 0.7 0.05 0.85
v 0.8 -0.25 0.85
v 0.8 -0.15 0.85
v 0.9 -0.25 0.85
v 0.9 -0.15 0.85
v 1.2 -0.15 0.85
v 1.2 -0.05 0.85
v 1.2 0.05 0.85
v 1.3 -0.15 0.85
v 1.3 -0.05 0.85
v 1.3 0.05 0.85
v -0.8 -0.25 0.75
v -0.8 -0.15 0.75
v -0.7 -0.25 0.75
v -0.7 -0.15 0.75
v -0.6 -0.25 0.75
v -0.6 -0.15 0.75
v -0.5 -0.25 0.75
v -0.5 -0.15 0.75
v -0.3 -0.25 0.75
v -0.3 -0.15 0.75
v -0.2 -0.25 0.75
v -0.2 -0.15 0.75
v 0.1 -0.15 0.75
v 0.1 -0.05 0.75
v 0.2 -0.15 0.75
v 0.2 -0.05 0.75
v 0.3 -0.15 0.75
v 0.3 -0.05 0.75
v 0.5 -0.15 0.75
v 0.5 -0.05 0.75
v 0.6 -0.15 0.75
v 0.6 -0.05 0.75
v 0.8 -0.15 0.75
v 0.8 -0.05 0.75
v 0.8 0.05 0.75
v 0.9 -0.15 0.75
v 0.9 0.05 0.75
v 1 0.15 0.75
v 1 0.25 0.75
v 1.1 0.05 0.75
v 1.1 0.15 0.75
v 1.1 0.25 0.75
v 1.2 0.05 0.75
v 1.2 0.15 0.75
v -1.1 -0.25 0.65
v -1.1 -0.15 0.65
v -1 -0.25 0.65
v -1 -0.15 0.65
v -0.5 -0.25 0.65
v -0.5 -0.15 0.65
v -0.4 -0.25 0.65
v -0.4 -0.15 0.65
v -0.2 -0.25 0.65
v -0.2 -0.15 0.65
v -0.1 -0.25 0.65
v -0.1 -0.15 0.65
v 0.1 -0.25 0.65
v 0.1 -0.15 0.65
v 0.2 -0.25 0.65
v 0.2 -0.15 0.65
v 0.7 -0.15 0.65
v 0.7 -0.05 0.65
v 0.8 -0.15 0.65
v 0.8 -0.05 0.65
v 1 0.05 0.65
v 1 0.15 0.65
v 1.1 0.05 0.65
v 1.1 0.15 0.65
v 1.4 -0.05 0.65
v 1.4 0.05 0.65
v 1.5 -0.05 0.65
v 1.5 0.05 0.65
v -0.1 -0.25 0.55
v -0.1 -0.15 0.55
v 0 -0.25 0.55
v 0 -0.15 0.55
v 0.1 -0.25 0.55
v 0.1 -0.15 0.55
v 0.6 -0.15 0.55
v 0.6 -0.05 0.55
v 0.7 -0.15 0.55
v 0.7 -0.05 0.55
v 0.8 -0.15 0.55
v 0.8 -0.05 0.55
v 0.9 -0.15 0.55
v 0.9 -0.05 0.55
v 0.9 0.05 0.55
v 1 -0.05 0.55
v 1 0.05 0.55
v 1.3 -0.15 0.55
v 1.3 -0.05 0.55
v 1.4 -0.15 0.55
v 1.4 -0.05 0.55
v 0.1 -0.25 0.45
v 0.1 -0.15 0.45
v 0.3 -0.25 0.45
v 0.3 -0.15 0.45
v 0.3 -0.05 0.45
v 0.4 -0.25 0.45
v 0.4 -0.15 0.45
v 0.4 -0.05 0.45
v 0.5 -0.25 0.45
v 0.5 -0.15 0.45
v 1 -0.05 0.45
v 1 0.05 0.45
v 1.1 -0.05 0.45
v 1.1 0.05 0.45
v -0.7 -0.25 0.35
v -0.7 -0.15 0.35
v -0.6 -0.25 0.35
v -0.6 -0.15 0.35
v -0.4 -0.25 0.35
v -0.4 -0.15 0.35
v -0.2 -0.25 0.35
v -0.2 -0.15 0.35
v -0.1 -0.25 0.35
v -0.1 -0.15 0.35
v 0 -0.25 0.35
v 0 -0.15 0.35
v 0.7 -0.25 0.35
v 0.7 -0.15 0.35
v 0.8 -0.25 0.35
v 0.8 -0.15 0.35
v 1 -0.15 0.35
v 1 -0.05 0.35
v 1.1 -0.15 0.35
v 1.1 -0.05 0.35
v 1.1 0.05 0.35
v 1.2 -0.15 0.35
v 1.2 -0.05 0.35
v 1.2 0.05 0.35
v 1.3 -0.15 0.35
v 1.3 -0.05 0.35
v 1.4 -0.15 0.35
v 1.4 -0.05 0.35
v 1.5 -0.15 0.35
v 1.5 -0.05 0.35
v -1.3 -0.25 0.25
v -1.3 -0.15 0.25
v -1.2 -0.25 0.25
v -1.2 -0.15 0.25
v 0.2 -0.25 0.25
v 0.2 -0.15 0.25
v 0.3 -0.25 0.25
v 0.3 -0.15 0.25
v 0.4 -0.25 0.25
v 0.4 -0.15 0.25
v 0.5 -0.25 0.25
v 0.5 -0.15 0.25
v 0.6 -0.25 0.25
v 0.6 -0.15 0.25
v -0.6 -0.25 0.15
v -0.6 -0.15 0.15
v -0.5 -0.25 0.15
v -0.5 -0.15 0.15
v 0.4 -0.25 0.15
v 0.4 -0.15 0.15
v 0.5 -0.25 0.15
v 0.5 -0.15 0.15
v 0.7 -0.15 0.15
v 0.7 -0.05 0.15
v 0.8 -0.25 0.15
v 0.8 -0.15 0.15
v 0.8 -0.05 0.15
v 0.9 -0.25 0.15
v 0.9 -0.15 0.15
v 0.9 -0.05 0.15
v 1 -0.15 0.15
v 1 -0.05 0.15
v 1.3 -0.25 0.15
v 1.3 -0.15 0.15
v 1.4 -0.25 0.15
v 1.4 -0.15 0.15
v -0.4 -0.25 0.0500001
v -0.4 -0.15 0.0500001
v -0.3 -0.25 0.0500001
v -0.3 -0.15 0.0500001
v -0.1 -0.25 0.0500001
v -0.1 -0.15 0.0500001
v 0.1 -0.25 0.0500001
v 0.1 -0.15 0.0500001
v 0.2 -0.25 0.0500001
v 0.2 -0.15 0.0500001
v 0.3 -0.25 0.0500001
v 0.3 -0.15 0.0500001
v 0.6 -0.25 0.0500001
v 0.6 -0.15 0.0500001
v 0.7 -0.25 0.0500001
v 0.7 -0.15 0.0500001
v 0.9 -0.25 0.0500001
v 0.9 -0.15 0.0500001
v 1 -0.25 0.0500001
v 1 -0.15 0.0500001
v 1.1 -0.15 0.0500001
v 1.1 -0.05 0.0500001
v 1.2 -0.15 0.0500001
v 1.2 -0.05 0.0500001
v 1.3 -0.15 0.0500001
v 1.3 -0.05 0.0500001
v -0.8 -0.25 -0.05
v -0.8 -0.15 -0.05
v -0.7 -0.25 -0.05
v -0.7 -0.15 -0.05
v 0.3 -0.25 -0.05
v 0.3 -0.15 -0.05
v 0.4 -0.25 -0.05
v 0.4 -0.15 -0.05
v 0.7 -0.25 -0.05
v 0.7 -0.15 -0.05
v 0.8 -0.25 -0.05
v 0.8 -0.15 -0.05
v 1 -0.25 -0.05
v 1 -0.15 -0.05
v 1.1 -0.25 -0.05
v 1.1 -0.15 -0.05
v 1.2 -0.25 -0.05
v 1.2 -0.15 -0.05
v 1.3 -0.25 -0.05
v 1.3 -0.15 -0.05
v 1.4 -0.25 -0.05
v 1.4 -0.15 -0.05
v -0.3 -0.25 -0.15
v -0.3 -0.15 -0.15
v -0.2 -0.25 -0.15
v -0.2 -0.15 -0.15
v 0.1 -0.25 -0.15
v 0.1 -0.15 -0.15
v 0.2 -0.25 -0.15
v 0.2 -0.15 -0.15
v 0.9 -0.25 -0.15
v 0.9 -0.15 -0.15
v 1 -0.25 -0.15
v 1 -0.15 -0.15
v 1.4 -0.25 -0.15
v 1.4 -0.15 -0.15
v 1.5 -0.25 -0.15
v 1.5 -0.15 -0.15
v 0 -0.25 -0.25
v 0 -0.15 -0.25
v 0.1 -0.25 -0.25
v 0.1 -0.15 -0.25
v 0.4 -0.25 -0.25
v 0.4 -0.15 -0.25
v 0.5 -0.25 -0.25
v 0.5 -0.15 -0.25
v 0.8 -0.25 -0.25
v 0.8 -0.15 -0.25
v 0.9 -0.25 -0.25
v 0.9 -0.15 -0.25
v 1.1 -0.25 -0.25
v 1.1 -0.15 -0.25
v 1.2 -0.25 -0.25
v 1.2 -0.15 -0.25
v 0.6 -0.25 -0.35
v 0.6 -0.15 -0.35
v 0.7 -0.25 -0.35
v 0.7 -0.15 -0.35
v 1.4 -0.25 -0.35
v 1.4 -0.15 -0.35
v 1.5 -0.25 -0.35
v 1.5 -0.15 -0.35
v 0.3 -0.25 -0.45
v 0.3 -0.15 -0.45
v 0.4 -0.25 -0.45
v 0.4 -0.15 -0.45
v 0.9 -0.25 -0.45
v 0.9 -0.15 -0.45
v 1 -0.25 -0.45
v 1 -0.15 -0.45
v 1.3 -0.25 -0.45
v 1.3 -0.15 -0.45
v 1.4 -0.25 -0.45
v 1.4 -0.15 -0.45
v 0.4 -0.25 -0.65
v 0.4 -0.15 -0.65
v 0.5 -0.25 -0.65
v 0.5 -0.15 -0.65
v 0.9 -0.25 -0.65
v 0.9 -0.15 -0.65
v 1 -0.25 -0.65
v 1 -0.15 -0.65
v 1.1 -0.25 -0.65
v 1.1 -0.15 -0.65
v -0.4 -0.25 -0.75
v -0.4 -0.15 -0.75
v -0.3 -0.25 -0.75
v -0.3 -0.15 -0.75
v 0.5 -0.25 -0.75
v 0.5 -0.15 -0.75
v 0.6 -0.25 -0.75
v 0.6 -0.15 -0.75
v 0.8 -0.25 -0.75
v 0.8 -0.15 -0.75
v 0.9 -0.25 -0.75
v 0.9 -0.15 -0.75
v 1.3 -0.25 -0.75
v 1.3 -0.15 -0.75
v 1.4 -0.25 -0.75
v 1.4 -0.15 -0.75
v 0.2 -0.25 -0.85
v 0.2 -0.15 -0.85
v 0.3 -0.25 -0.85
v 0.3 -0.15 -0.85
v 1.3 -0.25 -1.05
v 1.3 -0.15 -1.05
v 1.4 -0.25 -1.05
v 1.4 -0.15 -1.05
v 1.1 -0.25 -1.35
v 1.1 -0.15 -1.35
v 1.2 -0.25 -1.35
v 1.2 -0.15 -1.35
v -1 -0.25 1.35
v -0.9 -0.25 1.35
v -0.5 -0.25 1.35
v -0.4 -0.25 1.35
v -0.2 -0.25 1.35
v -0.1 -0.25 1.35
v 0 -0.25 1.35
v 0.1 -0.25 1.35
v 0.2 -0.25 1.35
v 0.3 -0.25 1.35
v 0.4 -0.25 1.35
v 0.5 -0.25 1.35
v 0.6 -0.25 1.35
v 0.7 -0.25 1.35
v 0.9 -0.25 1.35
v 1.2 -0.25 1.35
v 1.3 -0.25 1.35
v 1.4 -0.25 1.35
v 1.5 -0.25 1.35
v -1 -0.25 1.25
v -0.9 -0.25 1.25
v -0.5 -0.25 1.25
v -0.4 -0.25 1.25
v -0.2 -0.25 1.25
v -0.1 -0.25 1.25
v 0 -0.25 1.25
v 0.1 -0.25 1.25
v 0.2 -0.25 1.25
v 0.3 -0.25 1.25
v 0.4 -0.25 1.25
v 0.5 -0.25 1.25
v 0.6 -0.25 1.25
v 0.7 -0.25 1.25
v 0.8 -0.25 1.25
v 1 -0.25 1.25
v 1.2 -0.25 1.25
v 1.3 -0.25 1.25
v 1.4 -0.25 1.25
v -0.9 -0.25 1.15
v -0.8 -0.25 1.15
v -0.7 -0.25 1.15
v -0.6 -0.25 1.15
v -0.5 -0.25 1.15
v -0.3 -0.25 1.15
v -0.1 -0.25 1.15
v 0 -0.25 1.15
v 0.1 -0.25 1.15
v 0.2 -0.25 1.15
v 0.3 -0.25 1.15
v 0.5 -0.25 1.15
v 0.7 -0.25 1.15
v 0.8 -0.25 1.15
v 0.9 -0.25 1.15
v 1 -0.25 1.15
v 1.3 -0.25 1.15
v 1.4 -0.25 1.15
v 1.5 -0.25 1.15
v -1.5 -0.25 1.05
v -1.4 -0.25 1.05
v -1 -0.25 1.05
v -0.9 -0.25 1.05
v -0.8 -0.25 1.05
v -0.7 -0.25 1.05
v -0.6 -0.25 1.05
v -0.5 -0.25 1.05
v -0.3 -0.25 1.05
v -0.2 -0.25 1.05
v -0.1 -0.25 1.05
v 0 -0.25 1.05
v 0.1 -0.25 1.05
v 0.2 -0.25 1.05
v 0.3 -0.25 1.05
v 0.4 -0.25 1.05
v 0.5 -0.25 1.05
v 0.6 -0.25 1.05
v 0.7 -0.25 1.05
v 0.8 -0.25 1.05
v 0.9 -0.25 1.05
v 1 -0.25 1.05
v 1.1 -0.25 1.05
v 1.3 -0.25 1.05
v 1.4 -0.25 1.05
v 1.5 -0.25 1.05
v -1.5 -0.25 0.95
v -1.4 -0.25 0.95
v -0.7 -0.25 0.95
v -0.6 -0.25 0.95
v -0.3 -0.25 0.95
v -0.2 -0.25 0.95
v -0.1 -0.25 0.95
v 0 -0.25 0.95
v 0.1 -0.25 0.95
v 0.2 -0.25 0.95
v 0.3 -0.25 0.95
v 0.4 -0.25 0.95
v 0.5 -0.25 0.95
v 0.6 -0.25 0.95
v 0.7 -0.25 0.95
v 0.8 -0.25 0.95
v 0.9 -0.25 0.95
v 1 -0.25 0.95
v 1.1 -0.25 0.95
v 1.3 -0.25 0.95
v 1.4 -0.25 0.95
v 1.5 -0.25 0.95
v -1 -0.25 0.85
v -0.9 -0.25 0.85
v -0.8 -0.25 0.85
v -0.7 -0.25 0.85
v -0.6 -0.25 0.85
v -0.5 -0.25 0.85
v -0.3 -0.25 0.85
v -0.2 -0.25 0.85
v -0.1 -0.25 0.85
v 0 -0.25 0.85
v 0.1 -0.25 0.85
v 0.2 -0.25 0.85
v 0.3 -0.25 0.85
v 0.4 -0.25 0.85
v 0.5 -0.25 0.85
v 0.6 -0.25 0.85
v 0.7 -0.25 0.85
v 0.8 -0.25 0.85
v 0.9 -0.25 0.85
v 1 -0.25 0.85
v 1.1 -0.25 0.85
v 1.2 -0.25 0.85
v 1.3 -0.25 0.85
v 1.5 -0.25 0.85
v -1.1 -0.25 0.75
v -1 -0.25 0.75
v -0.8 -0.25 0.75
v -0.7 -0.25 0.75
v -0.6 -0.25 0.75
v -0.5 -0.25 0.75
v -0.4 -0.25 0.75
v -0.3 -0.25 0.75
v -0.2 -0.25 0.75
v -0.1 -0.25 0.75
v 0.1 -0.25 0.75
v 0.2 -0.25 0.75
v 0.3 -0.25 0.75
v 0.4 -0.25 0.75
v 0.5 -0.25 0.75
v 0.6 -0.25 0.75
v 0.7 -0.25 0.75
v 0.8 -0.25 0.75
v 0.9 -0.25 0.75
v 1.1 -0.25 0.75
v 1.2 -0.25 0.75
v 1.4 -0.25 0.75
v 1.5 -0.25 0.75
v -1.1 -0.25 0.65
v -1 -0.25 0.65
v -0.5 -0.25 0.65
v -0.4 -0.25 0.65
v -0.2 -0.25 0.65
v -0.1 -0.25 0.65
v 0 -0.25 0.65
v 0.1 -0.25 0.65
v 0.2 -0.25 0.65
v 0.4 -0.25 0.65
v 0.5 -0.25 0.65
v 0.6 -0.25 0.65
v 0.7 -0.25 0.65
v 0.8 -0.25 0.65
v 0.9 -0.25 0.65
v 1.1 -0.25 0.65
v 1.2 -0.25 0.65
v 1.3 -0.25 0.65
v 1.4 -0.25 0.65
v 1.5 -0.25 0.65
v -0.6 -0.25 0.55
v -0.5 -0.25 0.55
v -0.1 -0.25 0.55
v 0 -0.25 0.55
v 0.1 -0.25 0.55
v 0.2 -0.25 0.55
v 0.3 -0.25 0.55
v 0.4 -0.25 0.55
v 0.5 -0.25 0.55
v 0.6 -0.25 0.55
v 0.7 -0.25 0.55
v 0.8 -0.25 0.55
v 0.9 -0.25 0.55
v 1 -0.25 0.55
v 1.1 -0.25 0.55
v 1.3 -0.25 0.55
v 1.4 -0.25 0.55
v 1.5 -0.25 0.55
v -0.7 -0.25 0.45
v -0.6 -0.25 0.45
v -0.5 -0.25 0.45
v -0.4 -0.25 0.45
v -0.2 -0.25 0.45
v -0.1 -0.25 0.45
v 0 -0.25 0.45
v 0.1 -0.25 0.45
v 0.3 -0.25 0.45
v 0.4 -0.25 0.45
v 0.5 -0.25 0.45
v 0.6 -0.25 0.45
v 0.8 -0.25 0.45
v 1 -0.25 0.45
v 1.1 -0.25 0.45
v 1.2 -0.25 0.45
v 1.3 -0.25 0.45
v 1.4 -0.25 0.45
v -1.3 -0.25 0.35
v -1.2 -0.25 0.35
v -0.7 -0.25 0.35
v -0.6 -0.25 0.35
v -0.4 -0.25 0.35
v -0.2 -0.25 0.35
v -0.1 -0.25 0.35
v 0 -0.25 0.35
v 0.2 -0.25 0.35
v 0.3 -0.25 0.35
v 0.4 -0.25 0.35
v 0.5 -0.25 0.35
v 0.6 -0.25 0.35
v 0.7 -0.25 0.35
v 0.8 -0.25 0.35
v 1 -0.25 0.35
v 1.1 -0.25 0.35
v 1.2 -0.25 0.35
v 1.3 -0.25 0.35
v 1.4 -0.25 0.35
v -1.3 -0.25 0.25
v -1.2 -0.25 0.25
v -0.6 -0.25 0.25
v -0.5 -0.25 0.25
v -0.4 -0.25 0.25
v -0.3 -0.25 0.25
v -0.1 -0.25 0.25
v 0.1 -0.25 0.25
v 0.2 -0.25 0.25
v 0.3 -0.25 0.25
v 0.4 -0.25 0.25
v 0.5 -0.25 0.25
v 0.6 -0.25 0.25
v 0.7 -0.25 0.25
v 0.8 -0.25 0.25
v 0.9 -0.25 0.25
v 1 -0.25 0.25
v 1.2 -0.25 0.25
v 1.3 -0.25 0.25
v 1.4 -0.25 0.25
v 1.5 -0.25 0.25
v -0.6 -0.25 0.15
v -0.5 -0.25 0.15
v -0.1 -0.25 0.15
v 0.1 -0.25 0.15
v 0.2 -0.25 0.15
v 0.3 -0.25 0.15
v 0.4 -0.25 0.15
v 0.5 -0.25 0.15
v 0.7 -0.25 0.15
v 0.8 -0.25 0.15
v 0.9 -0.25 0.15
v 1 -0.25 0.15
v 1.1 -0.25 0.15
v 1.2 -0.25 0.15
v 1.3 -0.25 0.15
v 1.4 -0.25 0.15
v -0.8 -0.25 0.0500001
v -0.7 -0.25 0.0500001
v -0.4 -0.25 0.0500001
v -0.3 -0.25 0.0500001
v -0.1 -0.25 0.0500001
v 0.1 -0.25 0.0500001
v 0.2 -0.25 0.0500001
v 0.3 -0.25 0.0500001
v 0.4 -0.25 0.0500001
v 0.5 -0.25 0.0500001
v 0.6 -0.25 0.0500001
v 0.7 -0.25 0.0500001
v 0.8 -0.25 0.0500001
v 0.9 -0.25 0.0500001
v 1 -0.25 0.0500001
v 1.1 -0.25 0.0500001
v 1.2 -0.25 0.0500001
v 1.3 -0.25 0.0500001
v 1.4 -0.25 0.0500001
v 1.5 -0.25 0.0500001
v -0.8 -0.25 -0.05
v -0.7 -0.25 -0.05
v -0.3 -0.25 -0.05
v -0.2 -0.25 -0.05
v 0 -0.25 -0.05
v 0.1 -0.25 -0.05
v 0.2 -0.25 -0.05
v 0.3 -0.25 -0.05
v 0.4 -0.25 -0.05
v 0.5 -0.25 -0.05
v 0.7 -0.25 -0.05
v 0.8 -0.25 -0.05
v 0.9 -0.25 -0.05
v 1 -0.25 -0.05
v 1.1 -0.25 -0.05
v 1.2 -0.25 -0.05
v 1.3 -0.25 -0.05
v 1.4 -0.25 -0.05
v -0.3 -0.25 -0.15
v -0.2 -0.25 -0.15
v 0.1 -0.25 -0.15
v 0.2 -0.25 -0.15
v 0.3 -0.25 -0.15
v 0.4 -0.25 -0.15
v 0.6 -0.25 -0.15
v 0.7 -0.25 -0.15
v 0.8 -0.25 -0.15
v 0.9 -0.25 -0.15
v 1 -0.25 -0.15
v 1.1 -0.25 -0.15
v 1.2 -0.25 -0.15
v 1.4 -0.25 -0.15
v 1.5 -0.25 -0.15
v 0 -0.25 -0.25
v 0.1 -0.25 -0.25
v 0.4 -0.25 -0.25
v 0.5 -0.25 -0.25
v 0.6 -0.25 -0.25
v 0.7 -0.25 -0.25
v 0.8 -0.25 -0.25
v 0.9 -0.25 -0.25
v 1.1 -0.25 -0.25
v 1.2 -0.25 -0.25
v 1.3 -0.25 -0.25
v 1.4 -0.25 -0.25
v 1.5 -0.25 -0.25
v 0.3 -0.25 -0.35
v 0.4 -0.25 -0.35
v 0.6 -0.25 -0.35
v 0.7 -0.25 -0.35
v 0.9 -0.25 -0.35
v 1 -0.25 -0.35
v 1.4 -0.25 -0.35
v 1.5 -0.25 -0.35
v 0.3 -0.25 -0.45
v 0.4 -0.25 -0.45
v 0.9 -0.25 -0.45
v 1 -0.25 -0.45
v 1.3 -0.25 -0.45
v 1.4 -0.25 -0.45
v 0.4 -0.25 -0.55
v 0.5 -0.25 -0.55
v 0.8 -0.25 -0.55
v 0.9 -0.25 -0.55
v 1 -0.25 -0.55
v 1.1 -0.25 -0.55
v 1.3 -0.25 -0.55
v 1.4 -0.25 -0.55
v -0.4 -0.25 -0.65
v -0.3 -0.25 -0.65
v 0.4 -0.25 -0.65
v 0.5 -0.25 -0.65
v 0.6 -0.25 -0.65
v 0.9 -0.25 -0.65
v 1 -0.25 -0.65
v 1.1 -0.25 -0.65
v 1.3 -0.25 -0.65
v 1.4 -0.25 -0.65
v -0.4 -0.25 -0.75
v -0.3 -0.25 -0.75
v 0.2 -0.25 -0.75
v 0.3 -0.25 -0.75
v 0.5 -0.25 -0.75
v 0.6 -0.25 -0.75
v 0.8 -0.25 -0.75
v 0.9 -0.25 -0.75
v 1.3 -0.25 -0.75
v 1.4 -0.25 -0.75
v 0.2 -0.25 -0.85
v 0.3 -0.25 -0.85
v 1.3 -0.25 -0.95
v 1.4 -0.25 -0.95
v 1.3 -0.25 -1.05
v 1.4 -0.25 -1.05
v 1.1 -0.25 -1.25
v 1.2 -0.25 -1.25
v 1.1 -0.25 -1.35
v 1.2 -0.25 -1.35
v 1.4 -0.15 1.15
v 1.5 -0.15 1.15
v 1.4 -0.15 1.05
v 1.5 -0.15 1.05
v 1 -0.15 0.95
v 1.1 -0.15 0.95
v 0.8 -0.15 0.85
v 0.9 -0.15 0.85
v 1 -0.15 0.85
v 1.1 -0.15 0.85
v 0.8 -0.15 0.75
v 0.9 -0.15 0.75
v -1 -0.15 1.35
v -0.9 -0.15 1.35
v -0.5 -0.15 1.35
v -0.4 -0.15 1.35
v -0.2 -0.15 1.35
v -0.1 -0.15 1.35
v 0 -0.15 1.35
v 0.1 -0.15 1.35
v 0.6 -0.15 1.35
v 0.7 -0.15 1.35
v 0.8 -0.15 1.35
v 0.9 -0.15 1.35
v 1 -0.15 1.35
v -1 -0.15 1.25
v -0.9 -0.15 1.25
v -0.5 -0.15 1.25
v -0.4 -0.15 1.25
v -0.2 -0.15 1.25
v -0.1 -0.15 1.25
v 0 -0.15 1.25
v 0.1 -0.15 1.25
v 0.2 -0.15 1.25
v 0.4 -0.15 1.25
v 0.5 -0.15 1.25
v 0.6 -0.15 1.25
v 0.7 -0.15 1.25
v 0.8 -0.15 1.25
v 0.9 -0.15 1.25
v 1 -0.15 1.25
v -0.9 -0.15 1.15
v -0.8 -0.15 1.15
v -0.7 -0.15 1.15
v -0.6 -0.15 1.15
v -0.5 -0.15 1.15
v -0.3 -0.15 1.15
v -0.1 -0.15 1.15
v 0 -0.15 1.15
v 0.1 -0.15 1.15
v 0.2 -0.15 1.15
v 0.3 -0.15 1.15
v 0.4 -0.15 1.15
v 0.5 -0.15 1.15
v 0.6 -0.15 1.15
v 0.7 -0.15 1.15
v -1.5 -0.15 1.05
v -1.4 -0.15 1.05
v -1 -0.15 1.05
v -0.9 -0.15 1.05
v -0.8 -0.15 1.05
v -0.7 -0.15 1.05
v -0.6 -0.15 1.05
v -0.5 -0.15 1.05
v -0.3 -0.15 1.05
v -0.2 -0.15 1.05
v -0.1 -0.15 1.05
v 0 -0.15 1.05
v 0.1 -0.15 1.05
v 0.2 -0.15 1.05
v 0.3 -0.15 1.05
v 0.4 -0.15 1.05
v 0.5 -0.15 1.05
v 0.6 -0.15 1.05
v 0.7 -0.15 1.05
v 0.8 -0.15 1.05
v 0.9 -0.15 1.05
v 1 -0.15 1.05
v 1.1 -0.15 1.05
v 1.2 -0.15 1.05
v 1.3 -0.15 1.05
v 1.4 -0.15 1.05
v -1.5 -0.15 0.95
v -1.4 -0.15 0.95
v -0.7 -0.15 0.95
v -0.6 -0.15 0.95
v -0.3 -0.15 0.95
v -0.2 -0.15 0.95
v -0.1 -0.15 0.95
v 0 -0.15 0.95
v 0.1 -0.15 0.95
v 0.2 -0.15 0.95
v 0.3 -0.15 0.95
v 0.4 -0.15 0.95
v 0.5 -0.15 0.95
v 0.6 -0.15 0.95
v 0.8 -0.15 0.95
v 0.9 -0.15 0.95
v 1 -0.15 0.95
v 1.1 -0.15 0.95
v 1.2 -0.15 0.95
v 1.3 -0.15 0.95
v -1 -0.15 0.85
v -0.9 -0.15 0.85
v -0.8 -0.15 0.85
v -0.7 -0.15 0.85
v -0.6 -0.15 0.85
v -0.5 -0.15 0.85
v -0.3 -0.15 0.85
v -0.2 -0.15 0.85
v -0.1 -0.15 0.85
v 0 -0.15 0.85
v 0.1 -0.15 0.85
v 0.2 -0.15 0.85
v 0.3 -0.15 0.85
v 0.4 -0.15 0.85
v 0.5 -0.15 0.85
v 0.6 -0.15 0.85
v 1.2 -0.15 0.85
v 1.3 -0.15 0.85
v 1.4 -0.15 0.85
v -1.1 -0.15 0.75
v -1 -0.15 0.75
v -0.8 -0.15 0.75
v -0.7 -0.15 0.75
v -0.6 -0.15 0.75
v -0.5 -0.15 0.75
v -0.4 -0.15 0.75
v -0.3 -0.15 0.75
v -0.2 -0.15 0.75
v -0.1 -0.15 0.75
v 0.1 -0.15 0.75
v 0.2 -0.15 0.75
v 0.3 -0.15 0.75
v 0.4 -0.15 0.75
v 0.5 -0.15 0.75
v 0.6 -0.15 0.75
v 0.8 -0.15 0.75
v 0.9 -0.15 0.75
v 1.3 -0.15 0.75
v 1.4 -0.15 0.75
v -1.1 -0.15 0.65
v -1 -0.15 0.65
v -0.5 -0.15 0.65
v -0.4 -0.15 0.65
v -0.2 -0.15 0.65
v -0.1 -0.15 0.65
v 0 -0.15 0.65
v 0.1 -0.15 0.65
v 0.2 -0.15 0.65
v 0.4 -0.15 0.65
v 0.5 -0.15 0.65
v 0.7 -0.15 0.65
v 0.8 -0.15 0.65
v 0.9 -0.15 0.65
v 1.2 -0.15 0.65
v 1.3 -0.15 0.65
v -0.6 -0.15 0.55
v -0.5 -0.15 0.55
v -0.1 -0.15 0.55
v 0 -0.15 0.55
v 0.1 -0.15 0.55
v 0.2 -0.15 0.55
v 0.3 -0.15 0.55
v 0.4 -0.15 0.55
v 0.5 -0.15 0.55
v 0.6 -0.15 0.55
v 0.7 -0.15 0.55
v 0.8 -0.15 0.55
v 0.9 -0.15 0.55
v 1.2 -0.15 0.55
v 1.3 -0.15 0.55
v 1.4 -0.15 0.55
v -0.7 -0.15 0.45
v -0.6 -0.15 0.45
v -0.5 -0.15 0.45
v -0.4 -0.15 0.45
v -0.2 -0.15 0.45
v -0.1 -0.15 0.45
v 0 -0.15 0.45
v 0.1 -0.15 0.45
v 0.3 -0.15 0.45
v 0.4 -0.15 0.45
v 0.5 -0.15 0.45
v 0.6 -0.15 0.45
v 0.8 -0.15 0.45
v 0.9 -0.15 0.45
v 1.3 -0.15 0.45
v 1.4 -0.15 0.45
v -1.3 -0.15 0.35
v -1.2 -0.15 0.35
v -0.7 -0.15 0.35
v -0.6 -0.15 0.35
v -0.4 -0.15 0.35
v -0.2 -0.15 0.35
v -0.1 -0.15 0.35
v 0 -0.15 0.35
v 0.2 -0.15 0.35
v 0.3 -0.15 0.35
v 0.4 -0.15 0.35
v 0.5 -0.15 0.35
v 0.6 -0.15 0.35
v 0.7 -0.15 0.35
v 0.8 -0.15 0.35
v 0.9 -0.15 0.35
v 1 -0.15 0.35
v 1.1 -0.15 0.35
v 1.2 -0.15 0.35
v 1.3 -0.15 0.35
v 1.4 -0.15 0.35
v 1.5 -0.15 0.35
v -1.3 -0.15 0.25
v -1.2 -0.15 0.25
v -0.6 -0.15 0.25
v -0.5 -0.15 0.25
v -0.4 -0.15 0.25
v -0.3 -0.15 0.25
v -0.1 -0.15 0.25
v 0.1 -0.15 0.25
v 0.2 -0.15 0.25
v 0.3 -0.15 0.25
v 0.4 -0.15 0.25
v 0.5 -0.15 0.25
v 0.6 -0.15 0.25
v 0.7 -0.15 0.25
v 0.8 -0.15 0.25
v 0.9 -0.15 0.25
v 1.2 -0.15 0.25
v 1.3 -0.15 0.25
v 1.4 -0.15 0.25
v 1.5 -0.15 0.25
v -0.6 -0.15 0.15
v -0.5 -0.15 0.15
v -0.1 -0.15 0.15
v 0.1 -0.15 0.15
v 0.2 -0.15 0.15
v 0.3 -0.15 0.15
v 0.4 -0.15 0.15
v 0.5 -0.15 0.15
v 0.7 -0.15 0.15
v 0.8 -0.15 0.15
v 0.9 -0.15 0.15
v 1 -0.15 0.15
v 1.3 -0.15 0.15
v 1.4 -0.15 0.15
v -0.8 -0.15 0.0500001
v -0.7 -0.15 0.0500001
v -0.4 -0.15 0.0500001
v -0.3 -0.15 0.0500001
v -0.1 -0.15 0.0500001
v 0.1 -0.15 0.0500001
v 0.2 -0.15 0.0500001
v 0.3 -0.15 0.0500001
v 0.4 -0.15 0.0500001
v 0.5 -0.15 0.0500001
v 0.6 -0.15 0.0500001
v 0.7 -0.15 0.0500001
v 0.8 -0.15 0.0500001
v 0.9 -0.15 0.0500001
v 1 -0.15 0.0500001
v 1.1 -0.15 0.0500001
v 1.2 -0.15 0.0500001
v 1.3 -0.15 0.0500001
v 1.4 -0.15 0.0500001
v 1.5 -0.15 0.0500001
v -0.8 -0.15 -0.05
v -0.7 -0.15 -0.05
v -0.3 -0.15 -0.05
v -0.2 -0.15 -0.05
v 0 -0.15 -0.05
v 0.1 -0.15 -0.05
v 0.2 -0.15 -0.05
v 0.3 -0.15 -0.05
v 0.4 -0.15 -0.05
v 0.5 -0.15 -0.05
v 0.7 -0.15 -0.05
v 0.8 -0.15 -0.05
v 0.9 -0.15 -0.05
v 1 -0.15 -0.05
v 1.1 -0.15 -0.05
v 1.2 -0.15 -0.05
v 1.3 -0.15 -0.05
v 1.4 -0.15 -0.05
v -0.3 -0.15 -0.15
v -0.2 -0.15 -0.15
v 0.1 -0.15 -0.15
v 0.2 -0.15 -0.15
v 0.3 -0.15 -0.15
v 0.4 -0.15 -0.15
v 0.6 -0.15 -0.15
v 0.7 -0.15 -0.15
v 0.8 -0.15 -0.15
v 0.9 -0.15 -0.15
v 1 -0.15 -0.15
v 1.1 -0.15 -0.15
v 1.2 -0.15 -0.15
v 1.4 -0.15 -0.15
v 1.5 -0.15 -0.15
v 0 -0.15 -0.25
v 0.1 -0.15 -0.25
v 0.4 -0.15 -0.25
v 0.5 -0.15 -0.25
v 0.6 -0.15 -0.25
v 0.7 -0.15 -0.25
v 0.8 -0.15 -0.25
v 0.9 -0.15 -0.25
v 1.1 -0.15 -0.25
v 1.2 -0.15 -0.25
v 1.3 -0.15 -0.25
v 1.4 -0.15 -0.25
v 1.5 -0.15 -0.25
v 0.3 -0.15 -0.35
v 0.4 -0.15 -0.35
v 0.6 -0.15 -0.35
v 0.7 -0.15 -0.35
v 0.9 -0.15 -0.35
v 1 -0.15 -0.35
v 1.4 -0.15 -0.35
v 1.5 -0.15 -0.35
v 0.3 -0.15 -0.45
v 0.4 -0.15 -0.45
v 0.9 -0.15 -0.45
v 1 -0.15 -0.45
v 1.3 -0.15 -0.45
v 1.4 -0.15 -0.45
v 0.4 -0.15 -0.55
v 0.5 -0.15 -0.55
v 0.8 -0.15 -0.55
v 0.9 -0.15 -0.55
v 1 -0.15 -0.55
v 1.1 -0.15 -0.55
v 1.3 -0.15 -0.55
v 1.4 -0.15 -0.55
v -0.4 -0.15 -0.65
v -0.3 -0.15 -0.65
v 0.4 -0.15 -0.65
v 0.5 -0.15 -0.65
v 0.6 -0.15 -0.65
v 0.9 -0.15 -0.65
v 1 -0.15 -0.65
v 1.1 -0.15 -0.65
v 1.3 -0.15 -0.65
v 1.4 -0.15 -0.65
v -0.4 -0.15 -0.75
v -0.3 -0.15 -0.75
v 0.2 -0.15 -0.75
v 0.3 -0.15 -0.75
v 0.5 -0.15 -0.75
v 0.6 -0.15 -0.75
v 0.8 -0.15 -0.75
v 0.9 -0.15 -0.75
v 1.3 -0.15 -0.75
v 1.4 -0.15 -0.75
v 0.2 -0.15 -0.85
v 0.3 -0.15 -0.85
v 1.3 -0.15 -0.95
v 1.4 -0.15 -0.95
v 1.3 -0.15 -1.05
v 1.4 -0.15 -1.05
v 1.1 -0.15 -1.25
v 1.2 -0.15 -1.25
v 1.1 -0.15 -1.35
v 1.2 -0.15 -1.35
v -0.1 -0.05 1.35
v 0 -0.05 1.35
v 0.1 -0.05 1.35
v 0.2 -0.05 1.35
v 0.3 -0.05 1.35
v 0.4 -0.05 1.35
v 0.5 -0.05 1.35
v 0.6 -0.05 1.35
v 0.8 -0.05 1.35
v 0.9 -0.05 1.35
v -0.1 -0.05 1.25
v 0 -0.05 1.25
v 0.1 -0.05 1.25
v 0.2 -0.05 1.25
v 0.3 -0.05 1.25
v 0.4 -0.05 1.25
v 0.5 -0.05 1.25
v 0.6 -0.05 1.25
v 0.7 -0.05 1.25
v 0.8 -0.05 1.25
v 0.9 -0.05 1.25
v 1 -0.05 1.25
v 1.2 -0.05 1.25
v 0.1 -0.05 1.15
v 0.2 -0.05 1.15
v 0.3 -0.05 1.15
v 0.4 -0.05 1.15
v 0.5 -0.05 1.15
v 0.6 -0.05 1.15
v 0.7 -0.05 1.15
v 0.8 -0.05 1.15
v 0.9 -0.05 1.15
v 1 -0.05 1.15
v 1.1 -0.05 1.15
v 1.2 -0.05 1.15
v 1.3 -0.05 1.15
v 1.5 -0.05 1.15
v 0 -0.05 1.05
v 0.1 -0.05 1.05
v 0.2 -0.05 1.05
v 0.3 -0.05 1.05
v 0.4 -0.05 1.05
v 0.5 -0.05 1.05
v 0.6 -0.05 1.05
v 0.7 -0.05 1.05
v 0.8 -0.05 1.05
v 0.9 -0.05 1.05
v 1 -0.05 1.05
v 1.1 -0.05 1.05
v 1.2 -0.05 1.05
v 1.3 -0.05 1.05
v 1.4 -0.05 1.05
v 1.5 -0.05 1.05
v 0 -0.05 0.95
v 0.1 -0.05 0.95
v 0.2 -0.05 0.95
v 0.4 -0.05 0.95
v 0.5 -0.05 0.95
v 0.6 -0.05 0.95
v 0.7 -0.05 0.95
v 0.8 -0.05 0.95
v 1 -0.05 0.95
v 1.1 -0.05 0.95
v 1.4 -0.05 0.95
v 1.5 -0.05 0.95
v 0.1 -0.05 0.85
v 0.2 -0.05 0.85
v 0.3 -0.05 0.85
v 0.4 -0.05 0.85
v 0.5 -0.05 0.85
v 0.6 -0.05 0.85
v 0.7 -0.05 0.85
v 0.8 -0.05 0.85
v 0.9 -0.05 0.85
v 1 -0.05 0.85
v 1.4 -0.05 0.85
v 1.5 -0.05 0.85
v 0.1 -0.05 0.75
v 0.2 -0.05 0.75
v 0.3 -0.05 0.75
v 0.5 -0.05 0.75
v 0.6 -0.05 0.75
v 0.8 -0.05 0.75
v 1.3 -0.05 0.75
v 1.4 -0.05 0.75
v 0.7 -0.05 0.65
v 0.8 -0.05 0.65
v 0.9 -0.05 0.65
v 1.3 -0.05 0.65
v 1.4 -0.05 0.65
v 1.5 -0.05 0.65
v 0.3 -0.05 0.55
v 0.4 -0.05 0.55
v 0.6 -0.05 0.55
v 0.7 -0.05 0.55
v 0.8 -0.05 0.55
v 0.9 -0.05 0.55
v 1 -0.05 0.55
v 1.2 -0.05 0.55
v 1.3 -0.05 0.55
v 1.4 -0.05 0.55
v 0.3 -0.05 0.45
v 0.4 -0.05 0.45
v 0.9 -0.05 0.45
v 1 -0.05 0.45
v 1.1 -0.05 0.45
v 1.2 -0.05 0.45
v 0.9 -0.05 0.35
v 1 -0.05 0.35
v 1.1 -0.05 0.35
v 1.2 -0.05 0.35
v 1.3 -0.05 0.35
v 1.4 -0.05 0.35
v 1.5 -0.05 0.35
v 0.7 -0.05 0.25
v 0.8 -0.05 0.25
v 1.2 -0.05 0.25
v 1.3 -0.05 0.25
v 0.7 -0.05 0.15
v 0.8 -0.05 0.15
v 0.9 -0.05 0.15
v 1 -0.05 0.15
v 1.1 -0.05 0.0500001
v 1.2 -0.05 0.0500001
v 1.3 -0.05 0.0500001
v 1 0.05 1.35
v 1.2 0.05 1.35
v 0.8 0.05 1.25
v 0.9 0.05 1.25
v 1 0.05 1.25
v 1.2 0.05 1.25
v 1.3 0.05 1.25
v 0.8 0.05 1.15
v 0.9 0.05 1.15
v 1 0.05 1.15
v 1.2 0.05 1.15
v 1.3 0.05 1.15
v 0.9 0.05 1.05
v 1 0.05 1.05
v 1.2 0.05 1.05
v 1.3 0.05 1.05
v 1.4 0.05 1.05
v 1.5 0.05 1.05
v 0.6 0.05 0.95
v 0.7 0.05 0.95
v 1.2 0.05 0.95
v 1.4 0.05 0.95
v 1.5 0.05 0.95
v 0.6 0.05 0.85
v 0.7 0.05 0.85
v 0.8 0.05 0.85
v 0.9 0.05 0.85
v 1 0.05 0.85
v 1.2 0.05 0.85
v 1.3 0.05 0.85
v 1.4 0.05 0.85
v 1.5 0.05 0.85
v 0.8 0.05 0.75
v 0.9 0.05 0.75
v 1 0.05 0.75
v 1.1 0.05 0.75
v 1.2 0.05 0.75
v 0.9 0.05 0.65
v 1 0.05 0.65
v 1.1 0.05 0.65
v 1.2 0.05 0.65
v 1.4 0.05 0.65
v 1.5 0.05 0.65
v 0.9 0.05 0.55
v 1 0.05 0.55
v 1.1 0.05 0.55
v 1 0.05 0.45
v 1.1 0.05 0.45
v 1.2 0.05 0.45
v 1.1 0.05 0.35
v 1.2 0.05 0.35
v 1.2 0.15 1.35
v 1.4 0.15 1.35
v 1.2 0.15 1.25
v 1.3 0.15 1.25
v 1.4 0.15 1.25
v 1.5 0.15 1.25
v 1.3 0.15 1.15
v 1.4 0.15 1.15
v 1.5 0.15 1.15
v 1 0.15 0.95
v 1.2 0.15 0.95
v 1 0.15 0.85
v 1.1 0.15 0.85
v 1 0.15 0.75
v 1.1 0.15 0.75
v 1.2 0.15 0.75
v 1 0.15 0.65
v 1.1 0.15 0.65
v 1.4 0.25 1.35
v 1.5 0.25 1.35
v 0.9 0.25 1.25
v 1 0.25 1.25
v 1.4 0.25 1.25
v 1.5 0.25 1.25
v 0.9 0.25 1.15
v 1 0.25 1.15
v 1 0.25 0.85
v 1.1 0.25 0.85
v 1 0.25 0.75
v 1.1 0.25 0.75

# faces
f 3/2/1 2/2/1 1/2/1
f 4/2/1 2/2/1 3/2/1
f 7/1/1 6/1/1 5/1/1
f 8/1/1 6/1/1 7/1/1
f 11/1/1 10/1/1 9/1/1
f 12/1/1 10/1/1 11/1/1
f 17/1/1 14/1/1 13/1/1
f 18/1/1 14/1/1 17/1/1
f 19/2/1 16/2/1 15/2/1
f 20/2/1 16/2/1 19/2/1
f 23/3/1 22/3/1 21/3/1
f 24/3/1 22/3/1 23/3/1
f 29/3/1 26/3/1 25/3/1
f 30/3/1 26/3/1 29/3/1
f 31/1/1 28/1/1 27/1/1
f 32/1/1 28/1/1 31/1/1
f 38/2/1 34/2/1 33/2/1
f 39/3/1 35/3/1 34/3/1
f 39/2/1 34/2/1 38/2/1
f 40/3/1 35/3/1 39/3/1
f 41/1/1 37/1/1 36/1/1
f 42/1/1 37/1/1 41/1/1
f 49/2/1 44/2/1 43/2/1
f 50/2/1 44/2/1 49/2/1
f 51/1/1 46/1/1 45/1/1
f 52/1/1 46/1/1 51/1/1
f 53/2/1 48/2/1 47/2/1
f 54/2/1 48/2/1 53/2/1
f 61/1/1 56/1/1 55/1/1
f 62/1/1 56/1/1 61/1/1
f 63/1/1 58/1/1 57/1/1
f 64/1/1 58/1/1 63/1/1
f 65/3/1 60/3/1 59/3/1
f 66/3/1 60/3/1 65/3/1
f 71/1/1 68/1/1 67/1/1
f 72/1/1 68/1/1 71/1/1
f 73/1/1 70/1/1 69/1/1
f 74/1/1 70/1/1 73/1/1
f 81/3/1 76/3/1 75/3/1
f 82/3/1 76/3/1 81/3/1
f 83/1/1 78/1/1 77/1/1
f 84/1/1 78/1/1 83/1/1
f 85/1/1 80/1/1 79/1/1
f 86/1/1 80/1/1 85/1/1
f 92/2/1 88/2/1 87/2/1
f 93/3/1 89/3/1 88/3/1
f 93/2/1 88/2/1 92/2/1
f 94/3/1 89/3/1 93/3/1
f 95/1/1 91/1/1 90/1/1
f 96/1/1 91/1/1 95/1/1
f 110/2/1 98/2/1 97/2/1
f 111/1/1 99/1/1 98/1/1
f 111/2/1 98/2/1 110/2/1
f 112/2/1 100/2/1 99/2/1
f 112/1/1 99/1/1 111/1/1
f 113/2/1 100/2/1 112/2/1
f 114/3/1 102/3/1 101/3/1
f 115/3/1 102/3/1 114/3/1
f 116/2/1 104/2/1 103/2/1
f 117/2/1 104/2/1 116/2/1
f 118/1/1 106/1/1 105/1/1
f 119/3/1 107/3/1 106/3/1
f 119/1/1 106/1/1 118/1/1
f 120/3/1 107/3/1 119/3/1
f 121/3/1 109/3/1 108/3/1
f 122/3/1 109/3/1 121/3/1
f 127/2/1 124/2/1 123/2/1
f 128/2/1 124/2/1 127/2/1
f 129/1/1 126/1/1 125/1/1
f 130/1/1 126/1/1 129/1/1
f 140/1/1 132/1/1 131/1/1
f 141/3/1 133/3/1 132/3/1
f 141/1/1 132/1/1 140/1/1
f 142/3/1 133/3/1 141/3/1
f 143/1/1 135/1/1 134/1/1
f 144/1/1 135/1/1 143/1/1
f 145/3/1 137/3/1 136/3/1
f 146/3/1 137/3/1 145/3/1
f 147/1/1 139/1/1 138/1/1
f 148/1/1 139/1/1 147/1/1
f 149/1/1 141/1/1 140/1/1
f 150/1/1 141/1/1 149/1/1
f 163/2/1 152/2/1 151/2/1
f 164/2/1 152/2/1 163/2/1
f 165/2/1 154/2/1 153/2/1
f 166/2/1 154/2/1 165/2/1
f 167/1/1 156/1/1 155/1/1
f 168/1/1 156/1/1 167/1/1
f 169/3/1 158/3/1 157/3/1
f 170/3/1 158/3/1 169/3/1
f 171/3/1 160/3/1 159/3/1
f 172/3/1 160/3/1 171/3/1
f 173/2/1 162/2/1 161/2/1
f 174/2/1 162/2/1 173/2/1
f 183/3/1 176/3/1 175/3/1
f 184/3/1 176/3/1 183/3/1
f 185/2/1 178/2/1 177/2/1
f 186/2/1 178/2/1 185/2/1
f 187/2/1 180/2/1 179/2/1
f 188/1/1 181/1/1 180/1/1
f 188/2/1 180/2/1 187/2/1
f 189/1/1 181/1/1 188/1/1
f 190/2/1 183/2/1 182/2/1
f 191/2/1 183/2/1 190/2/1
f 200/2/1 193/2/1 192/2/1
f 201/2/1 193/2/1 200/2/1
f 202/1/1 195/1/1 194/1/1
f 203/1/1 195/1/1 202/1/1
f 204/2/1 197/2/1 196/2/1
f 205/2/1 197/2/1 204/2/1
f 206/3/1 199/3/1 198/3/1
f 207/3/1 199/3/1 206/3/1
f 216/2/1 209/2/1 208/2/1
f 217/2/1 209/2/1 216/2/1
f 218/2/1 211/2/1 210/2/1
f 219/2/1 211/2/1 218/2/1
f 220/1/1 213/1/1 212/1/1
f 221/1/1 213/1/1 220/1/1
f 222/3/1 215/3/1 214/3/1
f 223/3/1 215/3/1 222/3/1
f 234/3/1 225/3/1 224/3/1
f 235/3/1 225/3/1 234/3/1
f 236/1/1 227/1/1 226/1/1
f 237/2/1 228/2/1 227/2/1
f 237/1/1 227/1/1 236/1/1
f 238/2/1 228/2/1 237/2/1
f 239/2/1 230/2/1 229/2/1
f 240/3/1 231/3/1 230/3/1
f 240/2/1 230/2/1 239/2/1
f 241/3/1 231/3/1 240/3/1
f 242/2/1 233/2/1 232/2/1
f 243/2/1 233/2/1 242/2/1
f 244/3/1 241/3/1 240/3/1
f 245/3/1 241/3/1 244/3/1
f 252/1/1 247/1/1 246/1/1
f 253/1/1 247/1/1 252/1/1
f 254/3/1 249/3/1 248/3/1
f 255/3/1 249/3/1 254/3/1
f 256/2/1 251/2/1 250/2/1
f 257/2/1 251/2/1 256/2/1
f 268/3/1 259/3/1 258/3/1
f 269/3/1 259/3/1 268/3/1
f 270/1/1 261/1/1 260/1/1
f 271/1/1 261/1/1 270/1/1
f 272/3/1 263/3/1 262/3/1
f 273/3/1 263/3/1 272/3/1
f 274/1/1 265/1/1 264/1/1
f 275/1/1 265/1/1 274/1/1
f 279/3/1 267/3/1 266/3/1
f 280/3/1 267/3/1 279/3/1
f 281/3/1 276/3/1 275/3/1
f 282/3/1 276/3/1 281/3/1
f 283/3/1 278/3/1 277/3/1
f 284/3/1 278/3/1 283/3/1
f 293/2/1 286/2/1 285/2/1
f 294/2/1 286/2/1 293/2/1
f 300/3/1 288/3/1 287/3/1
f 301/3/1 288/3/1 300/3/1
f 302/3/1 290/3/1 289/3/1
f 303/3/1 290/3/1 302/3/1
f 304/2/1 292/2/1 291/2/1
f 305/2/1 292/2/1 304/2/1
f 308/3/1 295/3/1 294/3/1
f 309/2/1 297/2/1 296/2/1
f 310/1/1 298/1/1 297/1/1
f 310/2/1 297/2/1 309/2/1
f 311/3/1 299/3/1 298/3/1
f 311/1/1 298/1/1 310/1/1
f 311/3/1 300/3/1 299/3/1
f 312/3/1 300/3/1 311/3/1
f 314/3/1 307/3/1 306/3/1
f 315/3/1 307/3/1 314/3/1
f 316/3/1 308/3/1 294/3/1
f 317/1/1 309/1/1 308/1/1
f 317/3/1 308/3/1 316/3/1
f 318/1/1 309/1/1 317/1/1
f 319/3/1 314/3/1 313/3/1
f 320/3/1 314/3/1 319/3/1
f 327/1/1 322/1/1 321/1/1
f 328/1/1 322/1/1 327/1/1
f 329/3/1 324/3/1 323/3/1
f 330/3/1 324/3/1 329/3/1
f 331/2/1 326/2/1 325/2/1
f 332/2/1 326/2/1 331/2/1
f 336/2/1 330/2/1 329/2/1
f 337/2/1 330/2/1 336/2/1
f 338/3/1 333/3/1 332/3/1
f 339/3/1 333/3/1 338/3/1
f 342/2/1 335/2/1 334/2/1
f 343/2/1 335/2/1 342/2/1
f 344/1/1 339/1/1 338/1/1
f 345/2/1 341/2/1 340/2/1
f 345/1/1 339/1/1 344/1/1
f 345/2/1 340/2/1 339/2/1
f 346/2/1 341/2/1 345/2/1
f 347/2/1 341/2/1 346/2/1
f 348/2/1 346/2/1 345/2/1
f 349/2/1 346/2/1 348/2/1
f 356/3/1 351/3/1 350/3/1
f 357/3/1 351/3/1 356/3/1
f 360/1/1 353/1/1 352/1/1
f 361/1/1 353/1/1 360/1/1
f 362/3/1 355/3/1 354/3/1
f 363/3/1 355/3/1 362/3/1
f 365/3/1 359/3/1 358/3/1
f 366/3/1 359/3/1 365/3/1
f 367/1/1 365/1/1 364/1/1
f 368/1/1 365/1/1 367/1/1
f 373/3/1 370/3/1 369/3/1
f 374/3/1 370/3/1 373/3/1
f 376/3/1 372/3/1 371/3/1
f 377/3/1 372/3/1 376/3/1
f 378/2/1 374/2/1 373/2/1
f 379/2/1 374/2/1 378/2/1
f 380/1/1 376/1/1 375/1/1
f 381/1/1 376/1/1 380/1/1
f 392/1/1 383/1/1 382/1/1
f 393/1/1 383/1/1 392/1/1
f 394/3/1 385/3/1 384/3/1
f 395/2/1 386/2/1 385/2/1
f 395/3/1 385/3/1 394/3/1
f 396/2/1 386/2/1 395/2/1
f 397/3/1 388/3/1 387/3/1
f 398/3/1 388/3/1 397/3/1
f 399/2/1 390/2/1 389/2/1
f 400/1/1 391/1/1 390/1/1
f 400/2/1 390/2/1 399/2/1
f 401/1/1 391/1/1 400/1/1
f 404/2/1 403/2/1 402/2/1
f 405/2/1 403/2/1 404/2/1
f 416/2/1 407/2/1 406/2/1
f 417/2/1 407/2/1 416/2/1
f 418/1/1 409/1/1 408/1/1
f 419/1/1 409/1/1 418/1/1
f 420/2/1 411/2/1 410/2/1
f 421/2/1 411/2/1 420/2/1
f 422/3/1 412/3/1 411/3/1
f 422/2/1 411/2/1 421/2/1
f 423/3/1 412/3/1 422/3/1
f 425/3/1 415/3/1 414/3/1
f 425/3/1 414/3/1 413/3/1
f 426/3/1 415/3/1 425/3/1
f 427/2/1 421/2/1 420/2/1
f 428/2/1 421/2/1 427/2/1
f 429/1/1 424/1/1 423/1/1
f 429/1/1 423/1/1 422/1/1
f 430/1/1 424/1/1 429/1/1
f 433/3/1 432/3/1 431/3/1
f 434/3/1 432/3/1 433/3/1
f 435/2/2 436/2/2 437/2/2
f 437/2/2 436/2/2 438/2/2
f 439/1/2 440/1/2 441/1/2
f 441/1/2 440/1/2 442/1/2
f 443/1/2 444/1/2 445/1/2
f 445/1/2 444/1/2 446/1/2
f 447/1/2 448/1/2 451/1/2
f 451/1/2 448/1/2 452/1/2
f 449/2/2 450/2/2 453/2/2
f 453/2/2 450/2/2 454/2/2
f 455/3/2 456/3/2 457/3/2
f 457/3/2 456/3/2 458/3/2
f 459/3/2 460/3/2 463/3/2
f 463/3/2 460/3/2 464/3/2
f 461/1/2 462/1/2 465/1/2
f 465/1/2 462/1/2 466/1/2
f 467/2/2 468/2/2 470/2/2
f 468/3/2 469/3/2 471/3/2
f 470/2/2 468/2/2 471/2/2
f 471/3/2 469/3/2 472/3/2
f 473/2/2 474/2/2 479/2/2
f 479/2/2 474/2/2 480/2/2
f 475/1/2 476/1/2 481/1/2
f 481/1/2 476/1/2 482/1/2
f 477/2/2 478/2/2 483/2/2
f 483/2/2 478/2/2 484/2/2
f 485/1/2 486/1/2 489/1/2
f 489/1/2 486/1/2 490/1/2
f 487/3/2 488/3/2 491/3/2
f 491/3/2 488/3/2 492/3/2
f 493/1/2 494/1/2 499/1/2
f 499/1/2 494/1/2 500/1/2
f 495/1/2 496/1/2 501/1/2
f 501/1/2 496/1/2 502/1/2
f 497/1/2 498/1/2 503/1/2
f 503/1/2 498/1/2 504/1/2
f 505/3/2 506/3/2 513/3/2
f 513/3/2 506/3/2 514/3/2
f 507/1/2 508/1/2 515/1/2
f 515/1/2 508/1/2 516/1/2
f 509/1/2 510/1/2 517/1/2
f 517/1/2 510/1/2 518/1/2
f 511/1/2 512/1/2 519/1/2
f 519/1/2 512/1/2 520/1/2
f 521/2/2 522/2/2 527/2/2
f 527/2/2 522/2/2 528/2/2
f 523/2/2 524/2/2 529/2/2
f 529/2/2 524/2/2 530/2/2
f 525/3/2 526/3/2 531/3/2
f 531/3/2 526/3/2 532/3/2
f 533/2/2 534/2/2 542/2/2
f 542/2/2 534/2/2 543/2/2
f 535/1/2 536/1/2 544/1/2
f 536/3/2 537/3/2 545/3/2
f 544/1/2 536/1/2 545/1/2
f 545/3/2 537/3/2 546/3/2
f 538/2/2 539/2/2 547/2/2
f 547/2/2 539/2/2 548/2/2
f 540/1/2 541/1/2 549/1/2
f 549/1/2 541/1/2 550/1/2
f 551/3/2 552/3/2 553/3/2
f 553/3/2 552/3/2 554/3/2
f 555/1/2 556/1/2 563/1/2
f 563/1/2 556/1/2 564/1/2
f 557/3/2 558/3/2 565/3/2
f 565/3/2 558/3/2 566/3/2
f 559/2/2 560/2/2 567/2/2
f 567/2/2 560/2/2 568/2/2
f 561/2/2 562/2/2 569/2/2
f 569/2/2 562/2/2 570/2/2
f 571/3/2 572/3/2 579/3/2
f 579/3/2 572/3/2 580/3/2
f 573/2/2 574/2/2 581/2/2
f 574/1/2 575/1/2 582/1/2
f 581/2/2 574/2/2 582/2/2
f 582/1/2 575/1/2 583/1/2
f 576/1/2 577/1/2 584/1/2
f 584/1/2 577/1/2 585/1/2
f 578/2/2 579/2/2 586/2/2
f 586/2/2 579/2/2 587/2/2
f 588/2/2 589/2/2 598/2/2
f 598/2/2 589/2/2 599/2/2
f 590/3/2 591/3/2 600/3/2
f 591/1/2 592/1/2 601/1/2
f 600/3/2 591/3/2 601/3/2
f 601/1/2 592/1/2 602/1/2
f 593/2/2 594/2/2 603/2/2
f 603/2/2 594/2/2 604/2/2
f 595/3/2 596/3/2 605/3/2
f 596/1/2 597/1/2 606/1/2
f 605/3/2 596/3/2 606/3/2
f 606/1/2 597/1/2 607/1/2
f 608/2/2 609/2/2 612/2/2
f 612/2/2 609/2/2 613/2/2
f 610/3/2 611/3/2 614/3/2
f 614/3/2 611/3/2 615/3/2
f 616/2/2 617/2/2 623/2/2
f 623/2/2 617/2/2 624/2/2
f 618/1/2 619/1/2 625/1/2
f 619/2/2 620/2/2 626/2/2
f 625/1/2 619/1/2 626/1/2
f 626/2/2 620/2/2 627/2/2
f 621/2/2 622/2/2 630/2/2
f 630/2/2 622/2/2 631/2/2
f 628/3/2 629/3/2 632/3/2
f 632/3/2 629/3/2 633/3/2
f 634/2/2 635/2/2 641/2/2
f 641/2/2 635/2/2 642/2/2
f 636/2/2 637/2/2 645/2/2
f 637/1/2 638/1/2 646/1/2
f 645/2/2 637/2/2 646/2/2
f 646/1/2 638/1/2 647/1/2
f 639/1/2 640/1/2 648/1/2
f 648/1/2 640/1/2 649/1/2
f 642/3/2 643/3/2 650/3/2
f 650/3/2 643/3/2 651/3/2
f 644/2/2 645/2/2 652/2/2
f 652/2/2 645/2/2 653/2/2
f 654/1/2 655/1/2 660/1/2
f 660/1/2 655/1/2 661/1/2
f 656/3/2 657/3/2 662/3/2
f 662/3/2 657/3/2 663/3/2
f 658/1/2 659/1/2 664/1/2
f 664/1/2 659/1/2 665/1/2
f 666/3/2 667/3/2 672/3/2
f 672/3/2 667/3/2 673/3/2
f 668/3/2 669/3/2 676/3/2
f 676/3/2 669/3/2 677/3/2
f 670/2/2 671/2/2 678/2/2
f 678/2/2 671/2/2 679/2/2
f 674/3/2 675/3/2 683/3/2
f 683/3/2 675/3/2 684/3/2
f 681/3/2 682/3/2 685/3/2
f 680/3/2 681/3/2 685/3/2
f 685/3/2 682/3/2 686/3/2
f 686/3/2 682/3/2 687/3/2
f 685/3/2 686/3/2 688/3/2
f 688/3/2 686/3/2 689/3/2
f 690/3/2 691/3/2 694/3/2
f 694/3/2 691/3/2 695/3/2
f 692/2/2 693/2/2 696/2/2
f 696/2/2 693/2/2 697/2/2
f 698/2/2 699/2/2 701/2/2
f 701/2/2 699/2/2 702/2/2
f 700/2/2 701/2/2 703/2/2
f 703/2/2 701/2/2 704/2/2
f 705/1/2 706/1/2 714/1/2
f 714/1/2 706/1/2 715/1/2
f 707/3/2 708/3/2 716/3/2
f 716/3/2 708/3/2 717/3/2
f 709/3/2 710/3/2 718/3/2
f 710/3/2 711/3/2 718/3/2
f 718/3/2 711/3/2 719/3/2
f 719/3/2 711/3/2 720/3/2
f 720/3/2 711/3/2 721/3/2
f 712/3/2 713/3/2 723/3/2
f 723/3/2 713/3/2 724/3/2
f 718/2/2 719/2/2 726/2/2
f 719/3/2 720/3/2 727/3/2
f 726/2/2 719/2/2 727/2/2
f 721/2/2 722/2/2 728/2/2
f 727/3/2 720/3/2 728/3/2
f 720/2/2 721/2/2 728/2/2
f 722/1/2 723/1/2 729/1/2
f 728/2/2 722/2/2 729/2/2
f 729/1/2 723/1/2 730/1/2
f 726/1/2 727/1/2 731/1/2
f 725/1/2 726/1/2 731/1/2
f 731/1/2 727/1/2 732/1/2
f 733/2/2 734/2/2 742/2/2
f 742/2/2 734/2/2 743/2/2
f 735/3/2 736/3/2 744/3/2
f 736/1/2 737/1/2 745/1/2
f 744/3/2 736/3/2 745/3/2
f 745/1/2 737/1/2 746/1/2
f 739/1/2 740/1/2 747/1/2
f 738/1/2 739/1/2 747/1/2
f 747/1/2 740/1/2 748/1/2
f 741/1/2 742/1/2 749/1/2
f 742/1/2 743/1/2 749/1/2
f 749/1/2 743/1/2 750/1/2
f 745/2/2 746/2/2 751/2/2
f 744/2/2 745/2/2 751/2/2
f 751/2/2 746/2/2 752/2/2
f 753/1/2 754/1/2 762/1/2
f 762/1/2 754/1/2 763/1/2
f 755/1/2 756/1/2 764/1/2
f 764/1/2 756/1/2 765/1/2
f 757/3/2 758/3/2 766/3/2
f 758/2/2 759/2/2 767/2/2
f 766/3/2 758/3/2 767/3/2
f 767/2/2 759/2/2 768/2/2
f 760/3/2 761/3/2 769/3/2
f 769/3/2 761/3/2 770/3/2
f 771/2/2 772/2/2 784/2/2
f 784/2/2 772/2/2 785/2/2
f 773/2/2 774/2/2 786/2/2
f 774/1/2 775/1/2 787/1/2
f 786/2/2 774/2/2 787/2/2
f 775/3/2 776/3/2 788/3/2
f 787/1/2 775/1/2 788/1/2
f 776/2/2 777/2/2 789/2/2
f 777/1/2 778/1/2 789/1/2
f 778/3/2 779/3/2 790/3/2
f 789/1/2 778/1/2 790/1/2
f 790/3/2 779/3/2 791/3/2
f 779/2/2 780/2/2 792/2/2
f 791/3/2 779/3/2 792/3/2
f 780/1/2 781/1/2 793/1/2
f 792/2/2 780/2/2 793/2/2
f 793/1/2 781/1/2 794/1/2
f 782/2/2 783/2/2 795/2/2
f 795/2/2 783/2/2 796/2/2
f 771/2/2 784/2/2 797/2/2
f 784/1/2 785/1/2 798/1/2
f 797/2/2 784/2/2 798/2/2
f 785/3/2 786/3/2 799/3/2
f 798/1/2 785/1/2 799/1/2
f 786/2/2 787/2/2 800/2/2
f 799/3/2 786/3/2 800/3/2
f 787/2/2 788/2/2 800/2/2
f 800/2/2 788/2/2 801/2/2
f 788/3/2 776/3/2 802/3/2
f 801/2/2 788/2/2 802/2/2
f 776/2/2 789/2/2 803/2/2
f 802/3/2 776/3/2 803/3/2
f 790/3/2 791/3/2 804/3/2
f 803/2/2 789/2/2 804/2/2
f 789/3/2 790/3/2 804/3/2
f 804/3/2 791/3/2 805/3/2
f 797/1/2 798/1/2 806/1/2
f 798/2/2 799/2/2 806/2/2
f 806/2/2 799/2/2 807/2/2
f 800/2/2 801/2/2 808/2/2
f 808/2/2 801/2/2 809/2/2
f 803/1/2 804/1/2 810/1/2
f 802/1/2 803/1/2 810/1/2
f 810/1/2 804/1/2 811/1/2
f 806/1/2 807/1/2 812/1/2
f 797/1/2 806/1/2 812/1/2
f 812/1/2 807/1/2 813/1/2
f 813/1/2 807/1/2 814/1/2
f 812/3/2 813/3/2 815/3/2
f 815/3/2 813/3/2 816/3/2
f 819/1/3 818/1/3 817/1/3
f 820/1/3 818/1/3 819/1/3
f 823/1/3 822/1/3 821/1/3
f 824/1/3 822/1/3 823/1/3
f 827/2/3 826/2/3 825/2/3
f 828/2/3 826/2/3 827/2/3
f 830/3/3 828/3/3 827/3/3
f 830/3/3 829/3/3 828/3/3
f 831/3/3 829/3/3 830/3/3
f 832/3/3 829/3/3 831/3/3
f 833/1/3 831/1/3 830/1/3
f 834/1/3 831/1/3 833/1/3
f 836/3/3 834/3/3 833/3/3
f 836/3/3 835/3/3 834/3/3
f 837/3/3 835/3/3 836/3/3
f 838/2/3 837/2/3 836/2/3
f 839/2/3 837/2/3 838/2/3
f 840/1/3 839/1/3 838/1/3
f 841/1/3 839/1/3 840/1/3
f 842/1/3 839/1/3 841/1/3
f 843/3/3 841/3/3 840/3/3
f 844/2/3 842/2/3 841/2/3
f 844/3/3 841/3/3 843/3/3
f 845/2/3 842/2/3 844/2/3
f 846/2/3 844/2/3 843/2/3
f 847/3/3 845/3/3 844/3/3
f 847/2/3 844/2/3 846/2/3
f 848/3/3 845/3/3 847/3/3
f 849/3/3 847/3/3 846/3/3
f 850/3/3 847/3/3 849/3/3
f 851/1/3 850/1/3 849/1/3
f 853/1/3 851/1/3 849/1/3
f 853/1/3 852/1/3 851/1/3
f 854/1/3 852/1/3 853/1/3
f 855/1/3 852/1/3 854/1/3
f 856/3/3 854/3/3 853/3/3
f 859/3/3 857/3/3 856/3/3
f 859/3/3 856/3/3 853/3/3
f 860/2/3 858/2/3 857/2/3
f 860/3/3 857/3/3 859/3/3
f 861/3/3 859/3/3 853/3/3
f 862/2/3 860/2/3 859/2/3
f 862/3/3 859/3/3 861/3/3
f 863/2/3 858/2/3 860/2/3
f 863/2/3 860/2/3 862/2/3
f 864/2/3 858/2/3 863/2/3
f 866/2/3 862/2/3 861/2/3
f 867/1/3 863/1/3 862/1/3
f 867/2/3 862/2/3 866/2/3
f 868/1/3 867/1/3 866/1/3
f 869/3/3 864/3/3 863/3/3
f 869/1/3 867/1/3 868/1/3
f 869/1/3 863/1/3 867/1/3
f 870/1/3 865/1/3 864/1/3
f 870/3/3 864/3/3 869/3/3
f 871/1/3 865/1/3 870/1/3
f 873/2/3 869/2/3 868/2/3
f 874/1/3 870/1/3 869/1/3
f 874/2/3 869/2/3 873/2/3
f 874/1/3 871/1/3 870/1/3
f 875/3/3 872/3/3 871/3/3
f 875/1/3 871/1/3 874/1/3
f 876/3/3 872/3/3 875/3/3
f 879/3/3 878/3/3 877/3/3
f 880/3/3 878/3/3 879/3/3
f 881/1/3 880/1/3 879/1/3
f 882/1/3 880/1/3 881/1/3
f 885/3/3 883/3/3 882/3/3
f 886/3/3 883/3/3 885/3/3
f 888/1/3 885/1/3 884/1/3
f 889/3/3 887/3/3 886/3/3
f 889/1/3 885/1/3 888/1/3
f 889/3/3 886/3/3 885/3/3
f 890/3/3 887/3/3 889/3/3
f 891/3/3 887/3/3 890/3/3
f 894/3/3 893/3/3 892/3/3
f 895/3/3 893/3/3 894/3/3
f 898/2/3 897/2/3 896/2/3
f 899/2/3 897/2/3 898/2/3
f 902/1/3 901/1/3 900/1/3
f 903/1/3 901/1/3 902/1/3
f 906/1/3 905/1/3 904/1/3
f 907/1/3 905/1/3 906/1/3
f 910/2/3 909/2/3 908/2/3
f 911/2/3 909/2/3 910/2/3
f 914/2/3 913/2/3 912/2/3
f 915/2/3 913/2/3 914/2/3
f 918/3/3 917/3/3 916/3/3
f 919/3/3 917/3/3 918/3/3
f 922/1/3 921/1/3 920/1/3
f 923/1/3 921/1/3 922/1/3
f 926/3/3 925/3/3 924/3/3
f 927/3/3 925/3/3 926/3/3
f 930/2/3 929/2/3 928/2/3
f 931/2/3 929/2/3 930/2/3
f 934/2/3 933/2/3 932/2/3
f 935/2/3 933/2/3 934/2/3
f 940/2/3 937/2/3 936/2/3
f 941/2/3 937/2/3 940/2/3
f 942/2/3 939/2/3 938/2/3
f 943/2/3 939/2/3 942/2/3
f 946/2/3 945/2/3 944/2/3
f 947/2/3 945/2/3 946/2/3
f 948/2/3 945/2/3 947/2/3
f 951/3/3 950/3/3 949/3/3
f 952/3/3 950/3/3 951/3/3
f 955/1/3 954/1/3 953/1/3
f 956/1/3 954/1/3 955/1/3
f 957/1/3 954/1/3 956/1/3
f 961/3/3 958/3/3 957/3/3
f 962/1/3 961/1/3 960/1/3
f 963/3/3 958/3/3 961/3/3
f 963/1/3 961/1/3 962/1/3
f 964/1/3 959/1/3 958/1/3
f 964/3/3 958/3/3 963/3/3
f 965/1/3 959/1/3 964/1/3
f 968/3/3 967/3/3 966/3/3
f 969/3/3 967/3/3 968/3/3
f 972/2/3 971/2/3 970/2/3
f 973/2/3 971/2/3 972/2/3
f 976/1/3 975/1/3 974/1/3
f 977/1/3 975/1/3 976/1/3
f 980/1/3 979/1/3 978/1/3
f 981/1/3 979/1/3 980/1/3
f 984/3/3 983/3/3 982/3/3
f 985/3/3 983/3/3 984/3/3
f 988/3/3 987/3/3 986/3/3
f 989/3/3 987/3/3 988/3/3
f 992/2/3 989/2/3 988/2/3
f 993/2/3 989/2/3 992/2/3
f 996/2/3 991/2/3 990/2/3
f 997/2/3 991/2/3 996/2/3
f 998/2/3 995/2/3 994/2/3
f 999/2/3 995/2/3 998/2/3
f 1002/1/3 1001/1/3 1000/1/3
f 1003/1/3 1001/1/3 1002/1/3
f 1006/1/3 1005/1/3 1004/1/3
f 1007/1/3 1005/1/3 1006/1/3
f 1010/3/3 1009/3/3 1008/3/3
f 1011/3/3 1009/3/3 1010/3/3
f 1014/1/3 1013/1/3 1012/1/3
f 1015/1/3 1013/1/3 1014/1/3
f 1018/2/3 1017/2/3 1016/2/3
f 1019/2/3 1017/2/3 1018/2/3
f 1022/2/3 1021/2/3 1020/2/3
f 1023/2/3 1021/2/3 1022/2/3
f 1026/2/3 1025/2/3 1024/2/3
f 1027/2/3 1025/2/3 1026/2/3
f 1030/3/3 1029/3/3 1028/3/3
f 1031/3/3 1029/3/3 1030/3/3
f 1034/1/3 1033/1/3 1032/1/3
f 1035/1/3 1033/1/3 1034/1/3
f 1038/1/3 1037/1/3 1036/1/3
f 1039/1/3 1037/1/3 1038/1/3
f 1042/2/3 1041/2/3 1040/2/3
f 1043/2/3 1041/2/3 1042/2/3
f 1046/1/3 1045/1/3 1044/1/3
f 1047/1/3 1045/1/3 1046/1/3
f 1050/1/3 1049/1/3 1048/1/3
f 1051/1/3 1049/1/3 1050/1/3
f 1054/2/3 1053/2/3 1052/2/3
f 1055/2/3 1053/2/3 1054/2/3
f 1056/1/3 1055/1/3 1054/1/3
f 1057/1/3 1055/1/3 1056/1/3
f 1060/2/3 1059/2/3 1058/2/3
f 1061/2/3 1059/2/3 1060/2/3
f 1064/1/3 1063/1/3 1062/1/3
f 1065/1/3 1063/1/3 1064/1/3
f 1068/2/3 1067/2/3 1066/2/3
f 1069/2/3 1067/2/3 1068/2/3
f 1072/2/3 1071/2/3 1070/2/3
f 1073/2/3 1071/2/3 1072/2/3
f 1076/2/3 1075/2/3 1074/2/3
f 1077/2/3 1075/2/3 1076/2/3
f 1080/1/3 1079/1/3 1078/1/3
f 1081/1/3 1079/1/3 1080/1/3
f 1084/1/3 1083/1/3 1082/1/3
f 1085/1/3 1083/1/3 1084/1/3
f 1089/3/3 1087/3/3 1086/3/3
f 1090/2/3 1088/2/3 1087/2/3
f 1090/3/3 1087/3/3 1089/3/3
f 1091/2/3 1088/2/3 1090/2/3
f 1094/1/3 1093/1/3 1092/1/3
f 1095/1/3 1093/1/3 1094/1/3
f 1098/1/3 1097/1/3 1096/1/3
f 1099/1/3 1097/1/3 1098/1/3
f 1102/1/3 1101/1/3 1100/1/3
f 1103/1/3 1101/1/3 1102/1/3
f 1106/2/3 1105/2/3 1104/2/3
f 1107/2/3 1105/2/3 1106/2/3
f 1108/3/3 1107/3/3 1106/3/3
f 1109/3/3 1107/3/3 1108/3/3
f 1112/2/3 1111/2/3 1110/2/3
f 1113/2/3 1111/2/3 1112/2/3
f 1116/1/3 1115/1/3 1114/1/3
f 1117/1/3 1115/1/3 1116/1/3
f 1120/2/3 1119/2/3 1118/2/3
f 1121/2/3 1119/2/3 1120/2/3
f 1122/3/3 1121/3/3 1120/3/3
f 1123/3/3 1121/3/3 1122/3/3
f 1126/3/3 1125/3/3 1124/3/3
f 1127/3/3 1125/3/3 1126/3/3
f 1130/2/3 1129/2/3 1128/2/3
f 1131/2/3 1129/2/3 1130/2/3
f 1134/1/3 1133/1/3 1132/1/3
f 1135/1/3 1133/1/3 1134/1/3
f 1138/1/3 1137/1/3 1136/1/3
f 1139/1/3 1137/1/3 1138/1/3
f 1142/1/3 1141/1/3 1140/1/3
f 1143/1/3 1141/1/3 1142/1/3
f 1146/1/3 1145/1/3 1144/1/3
f 1147/1/3 1145/1/3 1146/1/3
f 1148/2/3 1147/2/3 1146/2/3
f 1149/2/3 1147/2/3 1148/2/3
f 1152/2/3 1151/2/3 1150/2/3
f 1153/2/3 1151/2/3 1152/2/3
f 1156/2/3 1155/2/3 1154/2/3
f 1157/2/3 1155/2/3 1156/2/3
f 1160/3/3 1159/3/3 1158/3/3
f 1161/3/3 1159/3/3 1160/3/3
f 1162/1/3 1161/1/3 1160/1/3
f 1163/1/3 1161/1/3 1162/1/3
f 1164/3/3 1163/3/3 1162/3/3
f 1165/3/3 1163/3/3 1164/3/3
f 1168/3/3 1167/3/3 1166/3/3
f 1169/3/3 1167/3/3 1168/3/3
f 1172/1/3 1171/1/3 1170/1/3
f 1173/1/3 1171/1/3 1172/1/3
f 1176/2/3 1175/2/3 1174/2/3
f 1177/2/3 1175/2/3 1176/2/3
f 1180/3/3 1179/3/3 1178/3/3
f 1181/3/3 1179/3/3 1180/3/3
f 1184/3/3 1183/3/3 1182/3/3
f 1185/3/3 1183/3/3 1184/3/3
f 1188/3/3 1187/3/3 1186/3/3
f 1189/3/3 1187/3/3 1188/3/3
f 1190/1/4 1191/1/4 1192/1/4
f 1192/1/4 1191/1/4 1193/1/4
f 1194/1/4 1195/1/4 1196/1/4
f 1196/1/4 1195/1/4 1197/1/4
f 1198/3/4 1199/3/4 1200/3/4
f 1200/3/4 1199/3/4 1201/3/4
f 1202/3/4 1203/3/4 1204/3/4
f 1204/3/4 1203/3/4 1205/3/4
f 1206/2/4 1207/2/4 1208/2/4
f 1208/2/4 1207/2/4 1209/2/4
f 1210/2/4 1211/2/4 1212/2/4
f 1212/2/4 1211/2/4 1213/2/4
f 1213/1/4 1214/1/4 1215/1/4
f 1215/1/4 1214/1/4 1216/1/4
f 1217/3/4 1218/3/4 1219/3/4
f 1219/3/4 1218/3/4 1220/3/4
f 1221/1/4 1222/1/4 1223/1/4
f 1223/1/4 1222/1/4 1224/1/4
f 1225/1/4 1226/1/4 1227/1/4
f 1227/1/4 1226/1/4 1228/1/4
f 1227/3/4 1228/3/4 1229/3/4
f 1229/3/4 1228/3/4 1230/3/4
f 1231/3/4 1232/3/4 1233/3/4
f 1233/3/4 1232/3/4 1234/3/4
f 1234/3/4 1235/3/4 1236/3/4
f 1236/3/4 1235/3/4 1237/3/4
f 1238/3/4 1239/3/4 1240/3/4
f 1240/3/4 1239/3/4 1241/3/4
f 1240/2/4 1241/2/4 1245/2/4
f 1241/2/4 1242/2/4 1245/2/4
f 1245/2/4 1242/2/4 1246/2/4
f 1243/2/4 1244/2/4 1247/2/4
f 1247/2/4 1244/2/4 1248/2/4
f 1240/2/4 1245/2/4 1249/2/4
f 1245/1/4 1246/1/4 1250/1/4
f 1249/2/4 1245/2/4 1250/2/4
f 1250/1/4 1246/1/4 1251/1/4
f 1252/3/4 1253/3/4 1254/3/4
f 1254/3/4 1253/3/4 1255/3/4
f 1256/1/4 1257/1/4 1258/1/4
f 1258/1/4 1257/1/4 1259/1/4
f 1260/3/4 1261/3/4 1262/3/4
f 1262/3/4 1261/3/4 1263/3/4
f 1264/1/4 1265/1/4 1266/1/4
f 1266/1/4 1265/1/4 1267/1/4
f 1266/2/4 1267/2/4 1268/2/4
f 1268/2/4 1267/2/4 1269/2/4
f 1270/3/4 1271/3/4 1272/3/4
f 1272/3/4 1271/3/4 1273/3/4
f 1272/3/4 1273/3/4 1275/3/4
f 1273/3/4 1274/3/4 1275/3/4
f 1275/3/4 1274/3/4 1276/3/4
f 1276/3/4 1274/3/4 1277/3/4
f 1278/2/4 1279/2/4 1280/2/4
f 1280/2/4 1279/2/4 1281/2/4
f 1282/3/4 1283/3/4 1284/3/4
f 1284/3/4 1283/3/4 1285/3/4
f 1286/2/4 1287/2/4 1288/2/4
f 1288/2/4 1287/2/4 1289/2/4
f 1290/3/4 1291/3/4 1292/3/4
f 1292/3/4 1291/3/4 1293/3/4
f 1294/3/4 1295/3/4 1296/3/4
f 1296/3/4 1295/3/4 1297/3/4
f 1298/1/4 1299/1/4 1300/1/4
f 1300/1/4 1299/1/4 1301/1/4
f 1302/1/4 1303/1/4 1304/1/4
f 1304/1/4 1303/1/4 1305/1/4
f 1306/2/4 1307/2/4 1308/2/4
f 1308/2/4 1307/2/4 1309/2/4
f 1310/2/4 1311/2/4 1312/2/4
f 1312/2/4 1311/2/4 1313/2/4
f 1314/3/4 1315/3/4 1316/3/4
f 1316/3/4 1315/3/4 1317/3/4
f 1318/2/4 1319/2/4 1320/2/4
f 1320/2/4 1319/2/4 1321/2/4
f 1320/1/4 1321/1/4 1322/1/4
f 1322/1/4 1321/1/4 1323/1/4
f 1324/3/4 1325/3/4 1326/3/4
f 1326/3/4 1325/3/4 1327/3/4
f 1328/1/4 1329/1/4 1330/1/4
f 1330/1/4 1329/1/4 1331/1/4
f 1332/1/4 1333/1/4 1335/1/4
f 1333/2/4 1334/2/4 1336/2/4
f 1335/1/4 1333/1/4 1336/1/4
f 1336/2/4 1334/2/4 1337/2/4
f 1338/3/4 1339/3/4 1340/3/4
f 1340/3/4 1339/3/4 1341/3/4
f 1342/2/4 1343/2/4 1344/2/4
f 1344/2/4 1343/2/4 1345/2/4
f 1346/1/4 1347/1/4 1348/1/4
f 1348/1/4 1347/1/4 1349/1/4
f 1350/1/4 1351/1/4 1352/1/4
f 1352/1/4 1351/1/4 1353/1/4
f 1352/2/4 1353/2/4 1354/2/4
f 1354/2/4 1353/2/4 1355/2/4
f 1356/3/4 1357/3/4 1358/3/4
f 1358/3/4 1357/3/4 1359/3/4
f 1360/3/4 1361/3/4 1363/3/4
f 1361/3/4 1362/3/4 1363/3/4
f 1363/3/4 1362/3/4 1364/3/4
f 1365/2/4 1366/2/4 1368/2/4
f 1368/2/4 1366/2/4 1369/2/4
f 1367/1/4 1368/1/4 1370/1/4
f 1370/1/4 1368/1/4 1371/1/4
f 1372/1/4 1373/1/4 1374/1/4
f 1374/1/4 1373/1/4 1375/1/4
f 1376/3/4 1377/3/4 1378/3/4
f 1378/3/4 1377/3/4 1379/3/4
f 1380/1/4 1381/1/4 1382/1/4
f 1382/1/4 1381/1/4 1383/1/4
f 1384/3/4 1385/3/4 1386/3/4
f 1386/3/4 1385/3/4 1387/3/4
f 1388/3/4 1389/3/4 1390/3/4
f 1390/3/4 1389/3/4 1391/3/4
f 1392/2/4 1393/2/4 1394/2/4
f 1394/2/4 1393/2/4 1395/2/4
f 1396/1/4 1397/1/4 1398/1/4
f 1398/1/4 1397/1/4 1399/1/4
f 1400/3/4 1401/3/4 1402/3/4
f 1402/3/4 1401/3/4 1403/3/4
f 1402/2/4 1403/2/4 1404/2/4
f 1404/2/4 1403/2/4 1405/2/4
f 1406/2/4 1407/2/4 1408/2/4
f 1408/2/4 1407/2/4 1409/2/4
f 1410/3/4 1411/3/4 1412/3/4
f 1412/3/4 1411/3/4 1413/3/4
f 1413/1/4 1414/1/4 1415/1/4
f 1415/1/4 1414/1/4 1416/1/4
f 1417/1/4 1418/1/4 1419/1/4
f 1419/1/4 1418/1/4 1420/1/4
f 1421/1/4 1422/1/4 1423/1/4
f 1423/1/4 1422/1/4 1424/1/4
f 1424/2/4 1425/2/4 1427/2/4
f 1427/2/4 1425/2/4 1428/2/4
f 1426/3/4 1427/3/4 1429/3/4
f 1429/3/4 1427/3/4 1430/3/4
f 1431/2/4 1432/2/4 1433/2/4
f 1433/2/4 1432/2/4 1434/2/4
f 1435/1/4 1436/1/4 1437/1/4
f 1437/1/4 1436/1/4 1438/1/4
f 1437/2/4 1438/2/4 1439/2/4
f 1439/2/4 1438/2/4 1440/2/4
f 1439/1/4 1440/1/4 1441/1/4
f 1441/1/4 1440/1/4 1442/1/4
f 1443/2/4 1444/2/4 1445/2/4
f 1445/2/4 1444/2/4 1446/2/4
f 1447/3/4 1448/3/4 1449/3/4
f 1449/3/4 1448/3/4 1450/3/4
f 1451/3/4 1452/3/4 1453/3/4
f 1453/3/4 1452/3/4 1454/3/4
f 1454/1/4 1455/1/4 1457/1/4
f 1457/1/4 1455/1/4 1458/1/4
f 1456/1/4 1457/1/4 1459/1/4
f 1459/1/4 1457/1/4 1460/1/4
f 1461/3/4 1462/3/4 1463/3/4
f 1463/3/4 1462/3/4 1464/3/4
f 1465/1/4 1466/1/4 1467/1/4
f 1467/1/4 1466/1/4 1468/1/4
f 1469/2/4 1470/2/4 1471/2/4
f 1471/2/4 1470/2/4 1472/2/4
f 1471/3/4 1472/3/4 1473/3/4
f 1473/3/4 1472/3/4 1474/3/4
f 1475/1/4 1476/1/4 1477/1/4
f 1477/1/4 1476/1/4 1478/1/4
f 1479/2/4 1480/2/4 1481/2/4
f 1481/2/4 1480/2/4 1482/2/4
f 1483/2/4 1484/2/4 1485/2/4
f 1485/2/4 1484/2/4 1486/2/4
f 1487/2/4 1488/2/4 1490/2/4
f 1490/2/4 1488/2/4 1491/2/4
f 1489/2/4 1490/2/4 1492/2/4
f 1492/2/4 1490/2/4 1493/2/4
f 1493/3/4 1494/3/4 1495/3/4
f 1495/3/4 1494/3/4 1496/3/4
f 1497/2/4 1498/2/4 1499/2/4
f 1499/2/4 1498/2/4 1500/2/4
f 1501/1/4 1502/1/4 1503/1/4
f 1503/1/4 1502/1/4 1504/1/4
f 1505/3/4 1506/3/4 1507/3/4
f 1507/3/4 1506/3/4 1508/3/4
f 1509/1/4 1510/1/4 1511/1/4
f 1511/1/4 1510/1/4 1512/1/4
f 1513/3/4 1514/3/4 1515/3/4
f 1515/3/4 1514/3/4 1516/3/4
f 1517/3/4 1518/3/4 1519/3/4
f 1519/3/4 1518/3/4 1520/3/4
f 1521/3/4 1522/3/4 1523/3/4
f 1523/3/4 1522/3/4 1524/3/4
f 1523/1/4 1524/1/4 1525/1/4
f 1525/1/4 1524/1/4 1526/1/4
f 1527/1/4 1528/1/4 1529/1/4
f 1529/1/4 1528/1/4 1530/1/4
f 1531/2/4 1532/2/4 1533/2/4
f 1533/2/4 1532/2/4 1534/2/4
f 1535/1/4 1536/1/4 1537/1/4
f 1537/1/4 1536/1/4 1538/1/4
f 1539/1/4 1540/1/4 1541/1/4
f 1541/1/4 1540/1/4 1542/1/4
f 1541/2/4 1542/2/4 1543/2/4
f 1543/2/4 1542/2/4 1544/2/4
f 1543/1/4 1544/1/4 1545/1/4
f 1545/1/4 1544/1/4 1546/1/4
f 1545/2/4 1546/2/4 1547/2/4
f 1547/2/4 1546/2/4 1548/2/4
f 1549/1/4 1550/1/4 1551/1/4
f 1551/1/4 1550/1/4 1552/1/4
f 1553/3/4 1554/3/4 1555/3/4
f 1555/3/4 1554/3/4 1556/3/4
f 1557/3/4 1558/3/4 1559/3/4
f 1559/3/4 1558/3/4 1560/3/4
f 1561/1/4 1562/1/4 1563/1/4
f 1563/1/4 1562/1/4 1564/1/4
f 1565/2/4 1566/2/4 1567/2/4
f 1567/2/4 1566/2/4 1568/2/4
f 1569/1/4 1570/1/4 1571/1/4
f 1571/1/4 1570/1/4 1572/1/4
f 1573/1/4 1574/1/4 1575/1/4
f 1575/1/4 1574/1/4 1576/1/4
f 1577/1/4 1578/1/4 1579/1/4
f 1579/1/4 1578/1/4 1580/1/4
f 1581/2/4 1582/2/4 1583/2/4
f 1583/2/4 1582/2/4 1584/2/4
f 1585/2/4 1586/2/4 1587/2/4
f 1587/2/4 1586/2/4 1588/2/4
f 1589/1/4 1590/1/4 1591/1/4
f 1591/1/4 1590/1/4 1592/1/4
f 1593/2/4 1594/2/4 1595/2/4
f 1595/2/4 1594/2/4 1596/2/4
f 1597/1/4 1598/1/4 1599/1/4
f 1599/1/4 1598/1/4 1600/1/4
f 1601/2/4 1602/2/4 1603/2/4
f 1603/2/4 1602/2/4 1604/2/4
f 1605/1/4 1606/1/4 1607/1/4
f 1607/1/4 1606/1/4 1608/1/4
f 1607/3/4 1608/3/4 1609/3/4
f 1609/3/4 1608/3/4 1610/3/4
f 1611/1/4 1612/1/4 1613/1/4
f 1613/1/4 1612/1/4 1614/1/4
f 1615/2/4 1616/2/4 1617/2/4
f 1617/2/4 1616/2/4 1618/2/4
f 1619/3/4 1620/3/4 1621/3/4
f 1621/3/4 1620/3/4 1622/3/4
f 1623/2/4 1624/2/4 1625/2/4
f 1625/2/4 1624/2/4 1626/2/4
f 1627/3/4 1628/3/4 1629/3/4
f 1629/3/4 1628/3/4 1630/3/4
f 1631/3/4 1632/3/4 1633/3/4
f 1633/3/4 1632/3/4 1634/3/4
f 1635/3/4 1636/3/4 1637/3/4
f 1637/3/4 1636/3/4 1638/3/4
f 1658/1/5 1640/1/5 1639/1/5
f 1659/1/5 1640/1/5 1658/1/5
f 1660/1/5 1642/1/5 1641/1/5
f 1661/1/5 1642/1/5 1660/1/5
f 1662/2/5 1644/2/5 1643/2/5
f 1663/3/5 1645/3/5 1644/3/5
f 1663/2/5 1644/2/5 1662/2/5
f 1664/1/5 1646/1/5 1645/1/5
f 1664/3/5 1645/3/5 1663/3/5
f 1665/3/5 1647/3/5 1646/3/5
f 1665/1/5 1646/1/5 1664/1/5
f 1666/2/5 1648/2/5 1647/2/5
f 1666/3/5 1647/3/5 1665/3/5
f 1667/1/5 1649/1/5 1648/1/5
f 1667/2/5 1648/2/5 1666/2/5
f 1668/3/5 1650/3/5 1649/3/5
f 1668/1/5 1649/1/5 1667/1/5
f 1669/2/5 1651/2/5 1650/2/5
f 1669/3/5 1650/3/5 1668/3/5
f 1670/3/5 1652/3/5 1651/3/5
f 1670/2/5 1651/2/5 1669/2/5
f 1671/1/5 1653/1/5 1652/1/5
f 1671/3/5 1652/3/5 1670/3/5
f 1672/1/5 1653/1/5 1671/1/5
f 1673/3/5 1654/3/5 1653/3/5
f 1674/2/5 1655/2/5 1654/2/5
f 1674/3/5 1654/3/5 1673/3/5
f 1675/1/5 1656/1/5 1655/1/5
f 1675/2/5 1655/2/5 1674/2/5
f 1676/2/5 1657/2/5 1656/2/5
f 1676/1/5 1656/1/5 1675/1/5
f 1683/3/5 1663/3/5 1662/3/5
f 1683/3/5 1664/3/5 1663/3/5
f 1683/3/5 1665/3/5 1664/3/5
f 1684/3/5 1665/3/5 1683/3/5
f 1685/2/5 1666/2/5 1665/2/5
f 1685/3/5 1665/3/5 1684/3/5
f 1686/3/5 1667/3/5 1666/3/5
f 1686/2/5 1666/2/5 1685/2/5
f 1687/2/5 1668/2/5 1667/2/5
f 1687/3/5 1667/3/5 1686/3/5
f 1687/2/5 1669/2/5 1668/2/5
f 1688/1/5 1670/1/5 1669/1/5
f 1688/2/5 1669/2/5 1687/2/5
f 1688/1/5 1671/1/5 1670/1/5
f 1689/2/5 1672/2/5 1671/2/5
f 1689/1/5 1671/1/5 1688/1/5
f 1690/1/5 1653/1/5 1672/1/5
f 1690/2/5 1672/2/5 1689/2/5
f 1691/3/5 1673/3/5 1653/3/5
f 1691/1/5 1653/1/5 1690/1/5
f 1692/1/5 1675/1/5 1674/1/5
f 1692/3/5 1673/3/5 1691/3/5
f 1692/1/5 1674/1/5 1673/1/5
f 1693/2/5 1676/2/5 1675/2/5
f 1693/1/5 1675/1/5 1692/1/5
f 1694/2/5 1657/2/5 1676/2/5
f 1694/2/5 1676/2/5 1693/2/5
f 1695/2/5 1657/2/5 1694/2/5
f 1699/3/5 1678/3/5 1677/3/5
f 1700/3/5 1678/3/5 1699/3/5
f 1701/2/5 1680/2/5 1679/2/5
f 1702/2/5 1680/2/5 1701/2/5
f 1703/1/5 1682/1/5 1681/1/5
f 1704/1/5 1682/1/5 1703/1/5
f 1705/3/5 1683/3/5 1662/3/5
f 1706/2/5 1684/2/5 1683/2/5
f 1706/3/5 1683/3/5 1705/3/5
f 1707/3/5 1685/3/5 1684/3/5
f 1707/2/5 1684/2/5 1706/2/5
f 1708/1/5 1686/1/5 1685/1/5
f 1708/3/5 1685/3/5 1707/3/5
f 1709/3/5 1687/3/5 1686/3/5
f 1709/1/5 1686/1/5 1708/1/5
f 1710/1/5 1689/1/5 1688/1/5
f 1710/3/5 1687/3/5 1709/3/5
f 1710/1/5 1690/1/5 1689/1/5
f 1710/1/5 1688/1/5 1687/1/5
f 1711/1/5 1690/1/5 1710/1/5
f 1712/1/5 1690/1/5 1711/1/5
f 1713/1/5 1690/1/5 1712/1/5
f 1714/1/5 1690/1/5 1713/1/5
f 1715/3/5 1691/3/5 1690/3/5
f 1715/1/5 1690/1/5 1714/1/5
f 1716/1/5 1692/1/5 1691/1/5
f 1716/3/5 1691/3/5 1715/3/5
f 1717/3/5 1693/3/5 1692/3/5
f 1717/1/5 1692/1/5 1716/1/5
f 1718/3/5 1693/3/5 1717/3/5
f 1719/1/5 1694/1/5 1693/1/5
f 1719/3/5 1693/3/5 1718/3/5
f 1720/1/5 1694/1/5 1719/1/5
f 1722/2/5 1697/2/5 1696/2/5
f 1723/2/5 1697/2/5 1722/2/5
f 1724/3/5 1702/3/5 1701/3/5
f 1725/3/5 1702/3/5 1724/3/5
f 1726/3/5 1705/3/5 1704/3/5
f 1727/3/5 1705/3/5 1726/3/5
f 1728/2/5 1707/2/5 1706/2/5
f 1729/1/5 1708/1/5 1707/1/5
f 1729/2/5 1707/2/5 1728/2/5
f 1730/3/5 1709/3/5 1708/3/5
f 1730/1/5 1708/1/5 1729/1/5
f 1731/1/5 1710/1/5 1709/1/5
f 1731/3/5 1709/3/5 1730/3/5
f 1732/2/5 1711/2/5 1710/2/5
f 1732/1/5 1710/1/5 1731/1/5
f 1733/3/5 1712/3/5 1711/3/5
f 1733/2/5 1711/2/5 1732/2/5
f 1734/1/5 1713/1/5 1712/1/5
f 1734/3/5 1712/3/5 1733/3/5
f 1735/3/5 1714/3/5 1713/3/5
f 1735/1/5 1713/1/5 1734/1/5
f 1736/1/5 1715/1/5 1714/1/5
f 1736/3/5 1714/3/5 1735/3/5
f 1737/2/5 1716/2/5 1715/2/5
f 1737/1/5 1715/1/5 1736/1/5
f 1738/3/5 1717/3/5 1716/3/5
f 1738/2/5 1716/2/5 1737/2/5
f 1739/1/5 1718/1/5 1717/1/5
f 1739/3/5 1717/3/5 1738/3/5
f 1740/2/5 1719/2/5 1718/2/5
f 1740/1/5 1718/1/5 1739/1/5
f 1741/1/5 1720/1/5 1719/1/5
f 1741/2/5 1719/2/5 1740/2/5
f 1742/2/5 1721/2/5 1720/2/5
f 1742/1/5 1720/1/5 1741/1/5
f 1743/2/5 1721/2/5 1742/2/5
f 1744/2/5 1699/2/5 1698/2/5
f 1745/2/5 1699/2/5 1744/2/5
f 1752/1/5 1729/1/5 1728/1/5
f 1753/3/5 1730/3/5 1729/3/5
f 1753/1/5 1729/1/5 1752/1/5
f 1754/2/5 1731/2/5 1730/2/5
f 1754/3/5 1730/3/5 1753/3/5
f 1755/3/5 1732/3/5 1731/3/5
f 1755/2/5 1731/2/5 1754/2/5
f 1756/1/5 1733/1/5 1732/1/5
f 1756/3/5 1732/3/5 1755/3/5
f 1757/2/5 1734/2/5 1733/2/5
f 1757/1/5 1733/1/5 1756/1/5
f 1757/2/5 1735/2/5 1734/2/5
f 1758/2/5 1735/2/5 1757/2/5
f 1759/1/5 1736/1/5 1735/1/5
f 1759/2/5 1735/2/5 1758/2/5
f 1760/3/5 1737/3/5 1736/3/5
f 1760/1/5 1736/1/5 1759/1/5
f 1761/1/5 1738/1/5 1737/1/5
f 1761/3/5 1737/3/5 1760/3/5
f 1762/3/5 1739/3/5 1738/3/5
f 1762/1/5 1738/1/5 1761/1/5
f 1763/3/5 1739/3/5 1762/3/5
f 1764/3/5 1741/3/5 1740/3/5
f 1765/3/5 1741/3/5 1764/3/5
f 1766/1/5 1743/1/5 1742/1/5
f 1766/3/5 1741/3/5 1765/3/5
f 1766/1/5 1742/1/5 1741/1/5
f 1767/1/5 1743/1/5 1766/1/5
f 1770/3/5 1747/3/5 1746/3/5
f 1771/3/5 1747/3/5 1770/3/5
f 1772/2/5 1749/2/5 1748/2/5
f 1773/2/5 1749/2/5 1772/2/5
f 1775/1/5 1751/1/5 1750/1/5
f 1776/1/5 1751/1/5 1775/1/5
f 1777/2/5 1753/2/5 1752/2/5
f 1778/1/5 1756/1/5 1755/1/5
f 1778/1/5 1755/1/5 1754/1/5
f 1779/1/5 1756/1/5 1778/1/5
f 1780/3/5 1757/3/5 1756/3/5
f 1780/1/5 1756/1/5 1779/1/5
f 1781/1/5 1758/1/5 1757/1/5
f 1781/3/5 1757/3/5 1780/3/5
f 1782/3/5 1759/3/5 1758/3/5
f 1782/1/5 1758/1/5 1781/1/5
f 1783/1/5 1760/1/5 1759/1/5
f 1783/3/5 1759/3/5 1782/3/5
f 1784/2/5 1761/2/5 1760/2/5
f 1784/1/5 1760/1/5 1783/1/5
f 1785/2/5 1761/2/5 1784/2/5
f 1786/2/5 1763/2/5 1762/2/5
f 1786/2/5 1764/2/5 1763/2/5
f 1787/1/5 1765/1/5 1764/1/5
f 1787/2/5 1764/2/5 1786/2/5
f 1788/3/5 1767/3/5 1766/3/5
f 1788/1/5 1765/1/5 1787/1/5
f 1788/3/5 1766/3/5 1765/3/5
f 1789/3/5 1767/3/5 1788/3/5
f 1790/3/5 1767/3/5 1789/3/5
f 1791/1/5 1769/1/5 1768/1/5
f 1792/1/5 1769/1/5 1791/1/5
f 1793/3/5 1774/3/5 1773/3/5
f 1794/3/5 1774/3/5 1793/3/5
f 1795/1/5 1777/1/5 1776/1/5
f 1796/2/5 1753/2/5 1777/2/5
f 1796/1/5 1777/1/5 1795/1/5
f 1797/2/5 1753/2/5 1796/2/5
f 1798/3/5 1779/3/5 1778/3/5
f 1799/2/5 1780/2/5 1779/2/5
f 1799/3/5 1779/3/5 1798/3/5
f 1800/3/5 1781/3/5 1780/3/5
f 1800/3/5 1782/3/5 1781/3/5
f 1801/1/5 1783/1/5 1782/1/5
f 1801/3/5 1782/3/5 1800/3/5
f 1802/2/5 1784/2/5 1783/2/5
f 1802/1/5 1783/1/5 1801/1/5
f 1803/3/5 1785/3/5 1784/3/5
f 1803/2/5 1784/2/5 1802/2/5
f 1804/2/5 1786/2/5 1785/2/5
f 1804/3/5 1785/3/5 1803/3/5
f 1805/1/5 1787/1/5 1786/1/5
f 1805/2/5 1786/2/5 1804/2/5
f 1806/3/5 1789/3/5 1788/3/5
f 1806/1/5 1787/1/5 1805/1/5
f 1806/3/5 1788/3/5 1787/3/5
f 1807/3/5 1789/3/5 1806/3/5
f 1808/3/5 1789/3/5 1807/3/5
f 1809/2/5 1790/2/5 1789/2/5
f 1809/3/5 1789/3/5 1808/3/5
f 1810/2/5 1790/2/5 1809/2/5
f 1813/3/5 1797/3/5 1796/3/5
f 1814/2/5 1798/2/5 1797/2/5
f 1814/3/5 1797/3/5 1813/3/5
f 1815/2/5 1798/2/5 1814/2/5
f 1816/2/5 1780/2/5 1799/2/5
f 1817/3/5 1800/3/5 1780/3/5
f 1817/2/5 1780/2/5 1816/2/5
f 1818/2/5 1801/2/5 1800/2/5
f 1818/3/5 1800/3/5 1817/3/5
f 1819/1/5 1802/1/5 1801/1/5
f 1819/2/5 1801/2/5 1818/2/5
f 1820/3/5 1803/3/5 1802/3/5
f 1820/1/5 1802/1/5 1819/1/5
f 1821/1/5 1804/1/5 1803/1/5
f 1821/3/5 1803/3/5 1820/3/5
f 1822/3/5 1805/3/5 1804/3/5
f 1822/1/5 1804/1/5 1821/1/5
f 1823/1/5 1807/1/5 1806/1/5
f 1823/3/5 1805/3/5 1822/3/5
f 1823/1/5 1806/1/5 1805/1/5
f 1824/1/5 1807/1/5 1823/1/5
f 1825/1/5 1807/1/5 1824/1/5
f 1826/3/5 1809/3/5 1808/3/5
f 1826/2/5 1808/2/5 1807/2/5
f 1827/1/5 1810/1/5 1809/1/5
f 1827/3/5 1809/3/5 1826/3/5
f 1828/1/5 1810/1/5 1827/1/5
f 1830/1/5 1812/1/5 1811/1/5
f 1831/1/5 1812/1/5 1830/1/5
f 1836/1/5 1818/1/5 1817/1/5
f 1836/1/5 1817/1/5 1816/1/5
f 1836/1/5 1816/1/5 1815/1/5
f 1837/1/5 1818/1/5 1836/1/5
f 1838/3/5 1819/3/5 1818/3/5
f 1838/1/5 1818/1/5 1837/1/5
f 1838/3/5 1820/3/5 1819/3/5
f 1839/3/5 1820/3/5 1838/3/5
f 1840/2/5 1821/2/5 1820/2/5
f 1840/3/5 1820/3/5 1839/3/5
f 1840/2/5 1822/2/5 1821/2/5
f 1840/2/5 1823/2/5 1822/2/5
f 1840/2/5 1824/2/5 1823/2/5
f 1841/2/5 1824/2/5 1840/2/5
f 1842/3/5 1825/3/5 1824/3/5
f 1842/2/5 1824/2/5 1841/2/5
f 1843/1/5 1807/1/5 1825/1/5
f 1843/3/5 1825/3/5 1842/3/5
f 1844/2/5 1826/2/5 1807/2/5
f 1844/1/5 1807/1/5 1843/1/5
f 1844/2/5 1827/2/5 1826/2/5
f 1845/2/5 1827/2/5 1844/2/5
f 1846/3/5 1828/3/5 1827/3/5
f 1846/2/5 1827/2/5 1845/2/5
f 1849/1/5 1830/1/5 1829/1/5
f 1850/2/5 1832/2/5 1831/2/5
f 1850/1/5 1830/1/5 1849/1/5
f 1850/2/5 1831/2/5 1830/2/5
f 1851/1/5 1833/1/5 1832/1/5
f 1851/2/5 1832/2/5 1850/2/5
f 1852/1/5 1833/1/5 1851/1/5
f 1853/2/5 1835/2/5 1834/2/5
f 1854/2/5 1835/2/5 1853/2/5
f 1856/3/5 1838/3/5 1837/3/5
f 1857/3/5 1838/3/5 1856/3/5
f 1858/2/5 1840/2/5 1839/2/5
f 1859/3/5 1841/3/5 1840/3/5
f 1859/2/5 1840/2/5 1858/2/5
f 1860/3/5 1841/3/5 1859/3/5
f 1861/1/5 1842/1/5 1841/1/5
f 1861/3/5 1841/3/5 1860/3/5
f 1862/2/5 1843/2/5 1842/2/5
f 1862/1/5 1842/1/5 1861/1/5
f 1863/3/5 1845/3/5 1844/3/5
f 1863/2/5 1843/2/5 1862/2/5
f 1863/3/5 1844/3/5 1843/3/5
f 1864/3/5 1845/3/5 1863/3/5
f 1865/1/5 1846/1/5 1845/1/5
f 1865/3/5 1845/3/5 1864/3/5
f 1866/3/5 1828/3/5 1846/3/5
f 1866/1/5 1846/1/5 1865/1/5
f 1867/1/5 1848/1/5 1847/1/5
f 1868/1/5 1848/1/5 1867/1/5
f 1875/2/5 1856/2/5 1855/2/5
f 1876/3/5 1857/3/5 1856/3/5
f 1876/2/5 1856/2/5 1875/2/5
f 1877/2/5 1858/2/5 1857/2/5
f 1877/3/5 1857/3/5 1876/3/5
f 1878/1/5 1859/1/5 1858/1/5
f 1878/2/5 1858/2/5 1877/2/5
f 1879/2/5 1860/2/5 1859/2/5
f 1879/1/5 1859/1/5 1878/1/5
f 1880/2/5 1860/2/5 1879/2/5
f 1881/3/5 1862/3/5 1861/3/5
f 1882/3/5 1862/3/5 1881/3/5
f 1883/2/5 1863/2/5 1862/2/5
f 1883/3/5 1862/3/5 1882/3/5
f 1883/2/5 1864/2/5 1863/2/5
f 1884/1/5 1865/1/5 1864/1/5
f 1884/2/5 1864/2/5 1883/2/5
f 1885/2/5 1866/2/5 1865/2/5
f 1885/1/5 1865/1/5 1884/1/5
f 1886/3/5 1828/3/5 1866/3/5
f 1886/2/5 1866/2/5 1885/2/5
f 1887/3/5 1828/3/5 1886/3/5
f 1888/2/5 1870/2/5 1869/2/5
f 1889/2/5 1870/2/5 1888/2/5
f 1890/1/5 1874/1/5 1873/1/5
f 1891/1/5 1874/1/5 1890/1/5
f 1894/2/5 1878/2/5 1877/2/5
f 1895/2/5 1878/2/5 1894/2/5
f 1896/3/5 1881/3/5 1880/3/5
f 1896/3/5 1880/3/5 1879/3/5
f 1897/2/5 1882/2/5 1881/2/5
f 1897/3/5 1881/3/5 1896/3/5
f 1898/1/5 1883/1/5 1882/1/5
f 1898/2/5 1882/2/5 1897/2/5
f 1899/2/5 1885/2/5 1884/2/5
f 1899/1/5 1883/1/5 1898/1/5
f 1899/2/5 1884/2/5 1883/2/5
f 1899/2/5 1887/2/5 1886/2/5
f 1899/2/5 1886/2/5 1885/2/5
f 1900/2/5 1887/2/5 1899/2/5
f 1901/2/5 1887/2/5 1900/2/5
f 1902/2/5 1887/2/5 1901/2/5
f 1903/2/5 1887/2/5 1902/2/5
f 1906/1/5 1872/1/5 1871/1/5
f 1907/1/5 1872/1/5 1906/1/5
f 1908/3/5 1891/3/5 1890/3/5
f 1909/3/5 1891/3/5 1908/3/5
f 1910/1/5 1893/1/5 1892/1/5
f 1911/1/5 1893/1/5 1910/1/5
f 1914/3/5 1896/3/5 1879/3/5
f 1915/2/5 1897/2/5 1896/2/5
f 1915/3/5 1896/3/5 1914/3/5
f 1916/2/5 1897/2/5 1915/2/5
f 1917/3/5 1899/3/5 1898/3/5
f 1918/2/5 1900/2/5 1899/2/5
f 1918/3/5 1899/3/5 1917/3/5
f 1919/1/5 1901/1/5 1900/1/5
f 1919/2/5 1900/2/5 1918/2/5
f 1920/2/5 1902/2/5 1901/2/5
f 1920/1/5 1901/1/5 1919/1/5
f 1921/2/5 1902/2/5 1920/2/5
f 1922/2/5 1887/2/5 1903/2/5
f 1923/2/5 1887/2/5 1922/2/5
f 1924/1/5 1905/1/5 1904/1/5
f 1925/1/5 1905/1/5 1924/1/5
f 1931/2/5 1912/2/5 1911/2/5
f 1932/3/5 1913/3/5 1912/3/5
f 1932/2/5 1912/2/5 1931/2/5
f 1933/3/5 1913/3/5 1932/3/5
f 1934/1/5 1916/1/5 1915/1/5
f 1935/1/5 1916/1/5 1934/1/5
f 1937/1/5 1919/1/5 1918/1/5
f 1938/2/5 1920/2/5 1919/2/5
f 1938/1/5 1919/1/5 1937/1/5
f 1939/1/5 1921/1/5 1920/1/5
f 1939/2/5 1920/2/5 1938/2/5
f 1940/2/5 1922/2/5 1921/2/5
f 1940/1/5 1921/1/5 1939/1/5
f 1941/1/5 1923/1/5 1922/1/5
f 1941/2/5 1922/2/5 1940/2/5
f 1942/1/5 1927/1/5 1926/1/5
f 1943/1/5 1927/1/5 1942/1/5
f 1944/2/5 1929/2/5 1928/2/5
f 1944/3/5 1930/3/5 1929/3/5
f 1945/3/5 1930/3/5 1944/3/5
f 1947/1/5 1933/1/5 1932/1/5
f 1951/3/5 1937/3/5 1936/3/5
f 1952/3/5 1937/3/5 1951/3/5
f 1955/1/5 1923/1/5 1941/1/5
f 1956/1/5 1923/1/5 1955/1/5
f 1957/2/5 1944/2/5 1928/2/5
f 1958/2/5 1944/2/5 1957/2/5
f 1959/1/5 1933/1/5 1947/1/5
f 1959/2/5 1947/2/5 1946/2/5
f 1960/1/5 1933/1/5 1959/1/5
f 1961/1/5 1949/1/5 1948/1/5
f 1962/1/5 1949/1/5 1961/1/5
f 1963/1/5 1951/1/5 1950/1/5
f 1964/1/5 1951/1/5 1963/1/5
f 1965/1/5 1954/1/5 1953/1/5
f 1966/1/5 1954/1/5 1965/1/5
f 1970/2/5 1959/2/5 1946/2/5
f 1971/2/5 1959/2/5 1970/2/5
f 1972/2/5 1962/2/5 1961/2/5
f 1973/2/5 1962/2/5 1972/2/5
f 1976/2/5 1969/2/5 1968/2/5
f 1976/1/5 1968/1/5 1967/1/5
f 1977/2/5 1969/2/5 1976/2/5
f 1978/1/5 1971/1/5 1970/1/5
f 1979/1/5 1971/1/5 1978/1/5
f 1980/2/5 1975/2/5 1974/2/5
f 1981/2/5 1975/2/5 1980/2/5
f 1982/1/5 1976/1/5 1967/1/5
f 1983/1/5 1976/1/5 1982/1/5
f 1994/2/5 1985/2/5 1984/2/5
f 1995/2/5 1985/2/5 1994/2/5
f 1997/3/5 1987/3/5 1986/3/5
f 1997/1/5 1988/1/5 1987/1/5
f 1998/3/5 1989/3/5 1988/3/5
f 1998/1/5 1988/1/5 1997/1/5
f 1999/3/5 1989/3/5 1998/3/5
f 2000/3/5 1991/3/5 1990/3/5
f 2001/3/5 1991/3/5 2000/3/5
f 2002/1/5 1993/1/5 1992/1/5
f 2003/1/5 1993/1/5 2002/1/5
f 2006/2/5 1996/2/5 1995/2/5
f 2007/2/5 1996/2/5 2006/2/5
f 2008/3/5 1997/3/5 1986/3/5
f 2009/3/5 1997/3/5 2008/3/5
f 2010/2/5 2001/2/5 2000/2/5
f 2011/2/5 2001/2/5 2010/2/5
f 2012/3/5 2005/3/5 2004/3/5
f 2013/3/5 2005/3/5 2012/3/5
f 2016/3/5 2015/3/5 2014/3/5
f 2017/3/5 2015/3/5 2016/3/5
f 2020/3/5 2019/3/5 2018/3/5
f 2021/3/5 2019/3/5 2020/3/5
f 2024/3/5 2023/3/5 2022/3/5
f 2025/3/5 2023/3/5 2024/3/5
f 2030/3/5 2027/3/5 2026/3/5
f 2031/3/5 2027/3/5 2030/3/5
f 2032/3/5 2029/3/5 2028/3/5
f 2033/3/5 2029/3/5 2032/3/5
f 2034/1/6 2035/1/6 2047/1/6
f 2047/1/6 2035/1/6 2048/1/6
f 2036/1/6 2037/1/6 2049/1/6
f 2049/1/6 2037/1/6 2050/1/6
f 2038/2/6 2039/2/6 2051/2/6
f 2051/2/6 2039/2/6 2052/2/6
f 2040/1/6 2041/1/6 2053/1/6
f 2053/1/6 2041/1/6 2054/1/6
f 2042/3/6 2043/3/6 2058/3/6
f 2043/1/6 2044/1/6 2059/1/6
f 2058/3/6 2043/3/6 2059/3/6
f 2059/1/6 2044/1/6 2060/1/6
f 2045/3/6 2046/3/6 2061/3/6
f 2061/3/6 2046/3/6 2062/3/6
f 2051/3/6 2052/3/6 2069/3/6
f 2052/3/6 2053/3/6 2069/3/6
f 2053/3/6 2054/3/6 2069/3/6
f 2069/3/6 2054/3/6 2070/3/6
f 2054/2/6 2055/2/6 2071/2/6
f 2070/3/6 2054/3/6 2071/3/6
f 2071/2/6 2055/2/6 2072/2/6
f 2056/2/6 2057/2/6 2074/2/6
f 2074/2/6 2057/2/6 2075/2/6
f 2063/3/6 2064/3/6 2081/3/6
f 2081/3/6 2064/3/6 2082/3/6
f 2065/2/6 2066/2/6 2083/2/6
f 2083/2/6 2066/2/6 2084/2/6
f 2067/1/6 2068/1/6 2085/1/6
f 2085/1/6 2068/1/6 2086/1/6
f 2051/3/6 2069/3/6 2087/3/6
f 2069/2/6 2070/2/6 2088/2/6
f 2087/3/6 2069/3/6 2088/3/6
f 2070/3/6 2071/3/6 2089/3/6
f 2088/2/6 2070/2/6 2089/2/6
f 2089/3/6 2071/3/6 2090/3/6
f 2076/1/6 2077/1/6 2092/1/6
f 2073/1/6 2074/1/6 2092/1/6
f 2074/1/6 2075/1/6 2092/1/6
f 2075/1/6 2076/1/6 2092/1/6
f 2092/1/6 2077/1/6 2093/1/6
f 2093/1/6 2077/1/6 2094/1/6
f 2094/1/6 2077/1/6 2095/1/6
f 2095/1/6 2077/1/6 2096/1/6
f 2078/2/6 2079/2/6 2104/2/6
f 2104/2/6 2079/2/6 2105/2/6
f 2083/3/6 2084/3/6 2106/3/6
f 2106/3/6 2084/3/6 2107/3/6
f 2086/3/6 2087/3/6 2108/3/6
f 2108/3/6 2087/3/6 2109/3/6
f 2088/2/6 2089/2/6 2110/2/6
f 2110/2/6 2089/2/6 2111/2/6
f 2090/3/6 2091/3/6 2112/3/6
f 2091/1/6 2092/1/6 2113/1/6
f 2112/3/6 2091/3/6 2113/3/6
f 2092/2/6 2093/2/6 2114/2/6
f 2113/1/6 2092/1/6 2114/1/6
f 2114/2/6 2093/2/6 2115/2/6
f 2094/1/6 2095/1/6 2116/1/6
f 2116/1/6 2095/1/6 2117/1/6
f 2097/2/6 2098/2/6 2118/2/6
f 2098/3/6 2099/3/6 2119/3/6
f 2118/2/6 2098/2/6 2119/2/6
f 2119/3/6 2099/3/6 2120/3/6
f 2100/2/6 2101/2/6 2121/2/6
f 2121/2/6 2101/2/6 2122/2/6
f 2102/1/6 2103/1/6 2123/1/6
f 2080/2/6 2081/2/6 2124/2/6
f 2124/2/6 2081/2/6 2125/2/6
f 2110/1/6 2111/1/6 2132/1/6
f 2111/3/6 2112/3/6 2133/3/6
f 2132/1/6 2111/1/6 2133/1/6
f 2112/2/6 2113/2/6 2134/2/6
f 2133/3/6 2112/3/6 2134/3/6
f 2134/2/6 2113/2/6 2135/2/6
f 2116/2/6 2117/2/6 2138/2/6
f 2138/2/6 2117/2/6 2139/2/6
f 2123/1/6 2103/1/6 2141/1/6
f 2141/1/6 2103/1/6 2142/1/6
f 2126/3/6 2127/3/6 2145/3/6
f 2145/3/6 2127/3/6 2146/3/6
f 2128/2/6 2129/2/6 2147/2/6
f 2147/2/6 2129/2/6 2148/2/6
f 2130/1/6 2131/1/6 2150/1/6
f 2150/1/6 2131/1/6 2151/1/6
f 2132/2/6 2133/2/6 2152/2/6
f 2136/3/6 2137/3/6 2155/3/6
f 2137/1/6 2138/1/6 2156/1/6
f 2155/3/6 2137/3/6 2156/3/6
f 2156/1/6 2138/1/6 2157/1/6
f 2141/3/6 2142/3/6 2161/3/6
f 2140/3/6 2141/3/6 2161/3/6
f 2161/3/6 2142/3/6 2162/3/6
f 2143/1/6 2144/1/6 2163/1/6
f 2163/1/6 2144/1/6 2164/1/6
f 2148/3/6 2149/3/6 2165/3/6
f 2165/3/6 2149/3/6 2166/3/6
f 2151/1/6 2152/1/6 2167/1/6
f 2152/2/6 2133/2/6 2168/2/6
f 2167/1/6 2152/1/6 2168/1/6
f 2168/2/6 2133/2/6 2169/2/6
f 2153/3/6 2154/3/6 2170/3/6
f 2154/2/6 2155/2/6 2171/2/6
f 2170/3/6 2154/3/6 2171/3/6
f 2156/3/6 2157/3/6 2172/3/6
f 2155/3/6 2156/3/6 2172/3/6
f 2157/1/6 2158/1/6 2173/1/6
f 2172/3/6 2157/3/6 2173/3/6
f 2159/2/6 2160/2/6 2175/2/6
f 2175/2/6 2160/2/6 2176/2/6
f 2140/3/6 2161/3/6 2177/3/6
f 2177/3/6 2161/3/6 2178/3/6
f 2168/3/6 2169/3/6 2181/3/6
f 2169/2/6 2170/2/6 2182/2/6
f 2181/3/6 2169/3/6 2182/3/6
f 2182/2/6 2170/2/6 2183/2/6
f 2171/2/6 2155/2/6 2184/2/6
f 2155/3/6 2172/3/6 2185/3/6
f 2184/2/6 2155/2/6 2185/2/6
f 2172/2/6 2173/2/6 2186/2/6
f 2185/3/6 2172/3/6 2186/3/6
f 2173/1/6 2158/1/6 2187/1/6
f 2186/2/6 2173/2/6 2187/2/6
f 2187/1/6 2158/1/6 2188/1/6
f 2174/1/6 2175/1/6 2189/1/6
f 2189/1/6 2175/1/6 2190/1/6
f 2177/2/6 2178/2/6 2192/2/6
f 2192/2/6 2178/2/6 2193/2/6
f 2179/1/6 2180/1/6 2196/1/6
f 2196/1/6 2180/1/6 2197/1/6
f 2183/1/6 2184/1/6 2202/1/6
f 2184/1/6 2185/1/6 2202/1/6
f 2202/1/6 2185/1/6 2203/1/6
f 2187/3/6 2188/3/6 2204/3/6
f 2186/3/6 2187/3/6 2204/3/6
f 2204/3/6 2188/3/6 2205/3/6
f 2190/2/6 2191/2/6 2206/2/6
f 2205/3/6 2188/3/6 2206/3/6
f 2189/2/6 2190/2/6 2206/2/6
f 2188/2/6 2189/2/6 2206/2/6
f 2206/2/6 2191/2/6 2207/2/6
f 2207/2/6 2191/2/6 2208/2/6
f 2193/2/6 2194/2/6 2209/2/6
f 2209/2/6 2194/2/6 2210/2/6
f 2195/1/6 2196/1/6 2213/1/6
f 2196/2/6 2197/2/6 2214/2/6
f 2213/1/6 2196/1/6 2214/1/6
f 2197/2/6 2198/2/6 2214/2/6
f 2198/1/6 2199/1/6 2215/1/6
f 2214/2/6 2198/2/6 2215/2/6
f 2215/1/6 2199/1/6 2216/1/6
f 2200/2/6 2201/2/6 2217/2/6
f 2217/2/6 2201/2/6 2218/2/6
f 2203/3/6 2204/3/6 2220/3/6
f 2220/3/6 2204/3/6 2221/3/6
f 2205/2/6 2206/2/6 2222/2/6
f 2206/3/6 2207/3/6 2223/3/6
f 2222/2/6 2206/2/6 2223/2/6
f 2223/3/6 2207/3/6 2224/3/6
f 2207/1/6 2208/1/6 2225/1/6
f 2224/3/6 2207/3/6 2225/3/6
f 2225/1/6 2208/1/6 2226/1/6
f 2209/1/6 2210/1/6 2230/1/6
f 2230/1/6 2210/1/6 2231/1/6
f 2211/1/6 2212/1/6 2233/1/6
f 2233/1/6 2212/1/6 2234/1/6
f 2219/2/6 2220/2/6 2241/2/6
f 2220/3/6 2221/3/6 2242/3/6
f 2241/2/6 2220/2/6 2242/2/6
f 2221/2/6 2222/2/6 2243/2/6
f 2242/3/6 2221/3/6 2243/3/6
f 2222/1/6 2223/1/6 2244/1/6
f 2243/2/6 2222/2/6 2244/2/6
f 2223/2/6 2224/2/6 2245/2/6
f 2244/1/6 2223/1/6 2245/1/6
f 2245/2/6 2224/2/6 2246/2/6
f 2225/3/6 2226/3/6 2247/3/6
f 2247/3/6 2226/3/6 2248/3/6
f 2229/1/6 2230/1/6 2249/1/6
f 2230/2/6 2231/2/6 2250/2/6
f 2249/1/6 2230/1/6 2250/1/6
f 2231/3/6 2232/3/6 2251/3/6
f 2250/2/6 2231/2/6 2251/2/6
f 2251/3/6 2232/3/6 2252/3/6
f 2235/2/6 2236/2/6 2253/2/6
f 2253/2/6 2236/2/6 2254/2/6
f 2239/1/6 2240/1/6 2255/1/6
f 2255/1/6 2240/1/6 2256/1/6
f 2243/2/6 2244/2/6 2259/2/6
f 2259/2/6 2244/2/6 2260/2/6
f 2245/3/6 2246/3/6 2261/3/6
f 2247/2/6 2248/2/6 2262/2/6
f 2262/2/6 2248/2/6 2263/2/6
f 2227/2/6 2228/2/6 2264/2/6
f 2251/2/6 2252/2/6 2265/2/6
f 2250/2/6 2251/2/6 2265/2/6
f 2265/2/6 2252/2/6 2266/2/6
f 2237/1/6 2238/1/6 2269/1/6
f 2269/1/6 2238/1/6 2270/1/6
f 2255/3/6 2256/3/6 2271/3/6
f 2271/3/6 2256/3/6 2272/3/6
f 2257/1/6 2258/1/6 2273/1/6
f 2273/1/6 2258/1/6 2274/1/6
f 2245/3/6 2261/3/6 2277/3/6
f 2261/2/6 2262/2/6 2278/2/6
f 2277/3/6 2261/3/6 2278/3/6
f 2278/2/6 2262/2/6 2279/2/6
f 2263/3/6 2264/3/6 2280/3/6
f 2264/2/6 2228/2/6 2281/2/6
f 2280/3/6 2264/3/6 2281/3/6
f 2281/2/6 2228/2/6 2282/2/6
f 2266/2/6 2252/2/6 2285/2/6
f 2285/2/6 2252/2/6 2286/2/6
f 2267/1/6 2268/1/6 2287/1/6
f 2287/1/6 2268/1/6 2288/1/6
f 2274/2/6 2275/2/6 2294/2/6
f 2275/3/6 2276/3/6 2295/3/6
f 2294/2/6 2275/2/6 2295/2/6
f 2295/3/6 2276/3/6 2296/3/6
f 2278/1/6 2279/1/6 2297/1/6
f 2297/1/6 2279/1/6 2298/1/6
f 2281/1/6 2282/1/6 2300/1/6
f 2282/2/6 2283/2/6 2301/2/6
f 2300/1/6 2282/1/6 2301/1/6
f 2283/1/6 2284/1/6 2302/1/6
f 2301/2/6 2283/2/6 2302/2/6
f 2284/2/6 2285/2/6 2303/2/6
f 2302/1/6 2284/1/6 2303/1/6
f 2285/1/6 2286/1/6 2304/1/6
f 2303/2/6 2285/2/6 2304/2/6
f 2289/1/6 2290/1/6 2305/1/6
f 2305/1/6 2290/1/6 2306/1/6
f 2292/3/6 2293/3/6 2307/3/6
f 2291/2/6 2292/2/6 2307/2/6
f 2307/3/6 2293/3/6 2308/3/6
f 2295/1/6 2296/1/6 2310/1/6
f 2299/3/6 2300/3/6 2314/3/6
f 2314/3/6 2300/3/6 2315/3/6
f 2304/1/6 2286/1/6 2318/1/6
f 2318/1/6 2286/1/6 2319/1/6
f 2291/2/6 2307/2/6 2320/2/6
f 2320/2/6 2307/2/6 2321/2/6
f 2310/1/6 2296/1/6 2322/1/6
f 2309/2/6 2310/2/6 2322/2/6
f 2322/1/6 2296/1/6 2323/1/6
f 2311/1/6 2312/1/6 2324/1/6
f 2324/1/6 2312/1/6 2325/1/6
f 2313/1/6 2314/1/6 2326/1/6
f 2326/1/6 2314/1/6 2327/1/6
f 2316/1/6 2317/1/6 2328/1/6
f 2328/1/6 2317/1/6 2329/1/6
f 2309/2/6 2322/2/6 2333/2/6
f 2333/2/6 2322/2/6 2334/2/6
f 2324/2/6 2325/2/6 2335/2/6
f 2335/2/6 2325/2/6 2336/2/6
f 2331/2/6 2332/2/6 2339/2/6
f 2330/1/6 2331/1/6 2339/1/6
f 2339/2/6 2332/2/6 2340/2/6
f 2333/1/6 2334/1/6 2341/1/6
f 2341/1/6 2334/1/6 2342/1/6
f 2337/2/6 2338/2/6 2343/2/6
f 2343/2/6 2338/2/6 2344/2/6
f 2330/1/6 2339/1/6 2345/1/6
f 2345/1/6 2339/1/6 2346/1/6
f 2347/2/6 2348/2/6 2357/2/6
f 2357/2/6 2348/2/6 2358/2/6
f 2349/3/6 2350/3/6 2360/3/6
f 2350/1/6 2351/1/6 2360/1/6
f 2351/3/6 2352/3/6 2361/3/6
f 2360/1/6 2351/1/6 2361/1/6
f 2361/3/6 2352/3/6 2362/3/6
f 2353/3/6 2354/3/6 2363/3/6
f 2363/3/6 2354/3/6 2364/3/6
f 2355/1/6 2356/1/6 2365/1/6
f 2365/1/6 2356/1/6 2366/1/6
f 2358/2/6 2359/2/6 2369/2/6
f 2369/2/6 2359/2/6 2370/2/6
f 2349/3/6 2360/3/6 2371/3/6
f 2371/3/6 2360/3/6 2372/3/6
f 2363/2/6 2364/2/6 2373/2/6
f 2373/2/6 2364/2/6 2374/2/6
f 2367/3/6 2368/3/6 2375/3/6
f 2375/3/6 2368/3/6 2376/3/6
f 2377/3/6 2378/3/6 2379/3/6
f 2379/3/6 2378/3/6 2380/3/6
f 2381/3/6 2382/3/6 2383/3/6
f 2383/3/6 2382/3/6 2384/3/6
f 2385/3/6 2386/3/6 2395/3/6
f 2395/3/6 2386/3/6 2396/3/6
f 2387/3/6 2388/3/6 2397/3/6
f 2388/2/6 2389/2/6 2398/2/6
f 2397/3/6 2388/3/6 2398/3/6
f 2389/1/6 2390/1/6 2399/1/6
f 2398/2/6 2389/2/6 2399/2/6
f 2390/2/6 2391/2/6 2400/2/6
f 2399/1/6 2390/1/6 2400/1/6
f 2391/3/6 2392/3/6 2401/3/6
f 2400/2/6 2391/2/6 2401/2/6
f 2401/3/6 2392/3/6 2402/3/6
f 2393/1/6 2394/1/6 2404/1/6
f 2404/1/6 2394/1/6 2405/1/6
f 2398/3/6 2399/3/6 2409/3/6
f 2399/1/6 2400/1/6 2410/1/6
f 2409/3/6 2399/3/6 2410/3/6
f 2410/1/6 2400/1/6 2411/1/6
f 2401/1/6 2402/1/6 2412/1/6
f 2402/3/6 2403/3/6 2413/3/6
f 2412/1/6 2402/1/6 2413/1/6
f 2403/1/6 2404/1/6 2414/1/6
f 2413/3/6 2403/3/6 2414/3/6
f 2414/1/6 2404/1/6 2415/1/6
f 2406/2/6 2407/2/6 2417/2/6
f 2417/2/6 2407/2/6 2418/2/6
f 2418/2/6 2407/2/6 2419/2/6
f 2408/1/6 2409/1/6 2423/1/6
f 2409/2/6 2410/2/6 2424/2/6
f 2423/1/6 2409/1/6 2424/1/6
f 2424/2/6 2410/2/6 2425/2/6
f 2415/3/6 2416/3/6 2429/3/6
f 2414/3/6 2415/3/6 2429/3/6
f 2429/3/6 2416/3/6 2430/3/6
f 2430/3/6 2416/3/6 2431/3/6
f 2417/1/6 2418/1/6 2432/1/6
f 2418/2/6 2419/2/6 2433/2/6
f 2432/1/6 2418/1/6 2433/1/6
f 2420/3/6 2421/3/6 2434/3/6
f 2433/2/6 2419/2/6 2434/2/6
f 2419/3/6 2420/3/6 2434/3/6
f 2434/3/6 2421/3/6 2435/3/6
f 2435/3/6 2421/3/6 2436/3/6
f 2436/3/6 2421/3/6 2437/3/6
f 2422/1/6 2423/1/6 2438/1/6
f 2438/1/6 2423/1/6 2439/1/6
f 2426/3/6 2427/3/6 2441/3/6
f 2441/3/6 2427/3/6 2442/3/6
f 2428/2/6 2429/2/6 2443/2/6
f 2429/1/6 2430/1/6 2444/1/6
f 2443/2/6 2429/2/6 2444/2/6
f 2444/1/6 2430/1/6 2445/1/6
f 2432/2/6 2433/2/6 2446/2/6
f 2446/2/6 2433/2/6 2447/2/6
f 2440/2/6 2441/2/6 2451/2/6
f 2451/2/6 2441/2/6 2452/2/6
f 2441/1/6 2442/1/6 2453/1/6
f 2452/2/6 2441/2/6 2453/2/6
f 2453/1/6 2442/1/6 2454/1/6
f 2444/3/6 2445/3/6 2456/3/6
f 2445/1/6 2446/1/6 2457/1/6
f 2456/3/6 2445/3/6 2457/3/6
f 2457/1/6 2446/1/6 2458/1/6
f 2458/1/6 2446/1/6 2459/1/6
f 2448/2/6 2449/2/6 2460/2/6
f 2460/2/6 2449/2/6 2461/2/6
f 2450/1/6 2451/1/6 2462/1/6
f 2451/2/6 2452/2/6 2463/2/6
f 2462/1/6 2451/1/6 2463/1/6
f 2463/2/6 2452/2/6 2464/2/6
f 2454/3/6 2455/3/6 2465/3/6
f 2455/2/6 2456/2/6 2466/2/6
f 2465/3/6 2455/3/6 2466/3/6
f 2456/3/6 2457/3/6 2467/3/6
f 2466/2/6 2456/2/6 2470/2/6
f 2456/3/6 2467/3/6 2470/3/6
f 2470/3/6 2467/3/6 2471/3/6
f 2468/2/6 2469/2/6 2473/2/6
f 2473/2/6 2469/2/6 2474/2/6
f 2466/2/6 2470/2/6 2478/2/6
f 2478/2/6 2470/2/6 2479/2/6
f 2471/3/6 2472/3/6 2480/3/6
f 2480/3/6 2472/3/6 2481/3/6
f 2473/1/6 2474/1/6 2484/1/6
f 2474/3/6 2475/3/6 2485/3/6
f 2484/1/6 2474/1/6 2485/1/6
f 2476/2/6 2477/2/6 2486/2/6
f 2486/2/6 2477/2/6 2487/2/6
f 2481/2/6 2482/2/6 2488/2/6
f 2488/2/6 2482/2/6 2489/2/6
f 2483/1/6 2484/1/6 2491/1/6
f 2488/1/6 2489/1/6 2492/1/6
f 2489/3/6 2490/3/6 2493/3/6
f 2492/1/6 2489/1/6 2493/1/6
f 2493/3/6 2490/3/6 2494/3/6
f 2491/1/6 2484/1/6 2495/1/6
f 2495/1/6 2484/1/6 2496/1/6
f 2485/3/6 2475/3/6 2497/3/6
f 2497/3/6 2475/3/6 2498/3/6
f 2494/3/6 2495/3/6 2501/3/6
f 2499/2/6 2500/2/6 2503/2/6
f 2503/2/6 2500/2/6 2504/2/6
f 2492/3/6 2493/3/6 2505/3/6
f 2505/3/6 2493/3/6 2506/3/6
f 2494/3/6 2501/3/6 2507/3/6
f 2501/1/6 2502/1/6 2508/1/6
f 2507/3/6 2501/3/6 2508/3/6
f 2508/1/6 2502/1/6 2509/1/6
f 2510/2/6 2511/2/6 2514/2/6
f 2514/2/6 2511/2/6 2515/2/6
f 2512/3/6 2513/3/6 2517/3/6
f 2517/3/6 2513/3/6 2518/3/6
f 2515/3/6 2516/3/6 2520/3/6
f 2520/3/6 2516/3/6 2521/3/6
f 2518/3/6 2519/3/6 2522/3/6
f 2522/3/6 2519/3/6 2523/3/6
f 2524/2/6 2525/2/6 2530/2/6
f 2526/2/6 2527/2/6 2531/2/6
f 2531/2/6 2527/2/6 2532/2/6
f 2528/3/6 2529/3/6 2533/3/6
f 2533/3/6 2529/3/6 2534/3/6
f 2530/2/6 2525/2/6 2538/2/6
f 2538/2/6 2525/2/6 2539/2/6
f 2535/3/6 2536/3/6 2542/3/6
f 2536/2/6 2537/2/6 2543/2/6
f 2542/3/6 2536/3/6 2543/3/6
f 2543/2/6 2537/2/6 2544/2/6
f 2543/3/6 2544/3/6 2547/3/6
f 2547/3/6 2544/3/6 2548/3/6
f 2545/3/6 2546/3/6 2549/3/6
f 2549/3/6 2546/3/6 2550/3/6
f 2540/1/6 2541/1/6 2551/1/6
f 2551/1/6 2541/1/6 2552/1/6
f 2547/1/6 2548/1/6 2553/1/6
f 2548/1/6 2549/1/6 2553/1/6
f 2553/1/6 2549/1/6 2554/1/6
f 2549/2/6 2550/2/6 2555/2/6
f 2554/1/6 2549/1/6 2555/1/6
f 2554/2/6 2555/2/6 2556/2/6
f 2555/2/6 2550/2/6 2557/2/6
f 2556/2/6 2555/2/6 2557/2/6
f 2557/2/6 2550/2/6 2558/2/6
f 2557/1/6 2558/1/6 2559/1/6
f 2559/1/6 2558/1/6 2560/1/6
f 2561/1/6 2562/1/6 2563/1/6
f 2563/1/6 2562/1/6 2564/1/6
f 2564/1/6 2562/1/6 2565/1/6
f 2564/2/6 2565/2/6 2567/2/6
f 2565/1/6 2566/1/6 2568/1/6
f 2567/2/6 2565/2/6 2568/2/6
f 2568/1/6 2566/1/6 2569/1/6
f 2570/1/6 2571/1/6 2572/1/6
f 2572/1/6 2571/1/6 2573/1/6
f 2573/1/6 2571/1/6 2575/1/6
f 2575/1/6 2571/1/6 2576/1/6
f 2574/2/6 2575/2/6 2577/2/6
f 2577/2/6 2575/2/6 2578/2/6
f 2579/3/6 2580/3/6 2583/3/6
f 2583/3/6 2580/3/6 2584/3/6
f 2581/3/6 2582/3/6 2585/3/6
f 2585/3/6 2582/3/6 2586/3/6
f 2587/2/6 2588/2/6 2589/2/6
f 2589/2/6 2588/2/6 2590/2/6
