# MagicaVoxel @ Ephtracy

# group
o 

# material
mtllib lab_decorations-9.mtl
usemtl palette

# normals
vn -1 0 0
vn 1 0 0
vn 0 0 1
vn 0 0 -1
vn 0 -1 0
vn 0 1 0

# texcoords
vt 0.958984 0.5
vt 0.962891 0.5
vt 0.970703 0.5
vt 0.974609 0.5

# verts
v -0.15 -0.35 2
v -0.15 -0.35 1.9
v -0.15 -0.35 1.8
v -0.15 -0.35 1.7
v -0.15 -0.35 -1.7
v -0.15 -0.35 -1.8
v -0.15 -0.35 -1.9
v -0.15 -0.35 -2
v -0.15 0.25 1.9
v -0.15 0.25 1.8
v -0.15 0.25 -1.8
v -0.15 0.25 -1.9
v -0.15 0.35 2
v -0.15 0.35 1.7
v -0.15 0.35 -1.7
v -0.15 0.35 -2
v -0.05 0.15 1.7
v -0.05 0.15 1.6
v -0.05 0.15 1.5
v -0.05 0.15 1.3
v -0.05 0.15 1.1
v -0.05 0.15 0.8
v -0.05 0.15 0.4
v -0.05 0.15 -0.3
v -0.05 0.15 -0.6
v -0.05 0.15 -1.2
v -0.05 0.15 -1.5
v -0.05 0.15 -1.7
v -0.05 0.25 1.7
v -0.05 0.25 1.6
v -0.05 0.25 1.5
v -0.05 0.25 1.3
v -0.05 0.25 1.1
v -0.05 0.25 0.8
v -0.05 0.25 0.4
v -0.05 0.25 -0.3
v -0.05 0.25 -0.6
v -0.05 0.25 -1.2
v -0.05 0.25 -1.5
v -0.05 0.25 -1.7
v 0.05 0.15 1.7
v 0.05 0.15 1.6
v 0.05 0.15 1.5
v 0.05 0.15 1.3
v 0.05 0.15 1.1
v 0.05 0.15 0.8
v 0.05 0.15 0.4
v 0.05 0.15 -0.3
v 0.05 0.15 -0.6
v 0.05 0.15 -1.2
v 0.05 0.15 -1.5
v 0.05 0.15 -1.7
v 0.05 0.25 1.7
v 0.05 0.25 1.6
v 0.05 0.25 1.5
v 0.05 0.25 1.3
v 0.05 0.25 1.1
v 0.05 0.25 0.8
v 0.05 0.25 0.4
v 0.05 0.25 -0.3
v 0.05 0.25 -0.6
v 0.05 0.25 -1.2
v 0.05 0.25 -1.5
v 0.05 0.25 -1.7
v 0.15 -0.35 2
v 0.15 -0.35 1.9
v 0.15 -0.35 1.8
v 0.15 -0.35 1.7
v 0.15 -0.35 -1.7
v 0.15 -0.35 -1.8
v 0.15 -0.35 -1.9
v 0.15 -0.35 -2
v 0.15 0.25 1.9
v 0.15 0.25 1.8
v 0.15 0.25 -1.8
v 0.15 0.25 -1.9
v 0.15 0.35 2
v 0.15 0.35 1.7
v 0.15 0.35 -1.7
v 0.15 0.35 -2
v -0.15 -0.35 2
v -0.15 0.35 2
v -0.05 -0.35 2
v -0.05 0.25 2
v 0.05 -0.35 2
v 0.05 0.25 2
v 0.15 -0.35 2
v 0.15 0.35 2
v -0.15 -0.35 -1.7
v -0.15 0.35 -1.7
v -0.05 -0.35 -1.7
v -0.05 0.15 -1.7
v -0.05 0.25 -1.7
v 0.05 -0.35 -1.7
v 0.05 0.15 -1.7
v 0.05 0.25 -1.7
v 0.15 -0.35 -1.7
v 0.15 0.35 -1.7
v -0.15 -0.35 1.7
v -0.15 0.35 1.7
v -0.05 -0.35 1.7
v -0.05 0.15 1.7
v -0.05 0.25 1.7
v 0.05 -0.35 1.7
v 0.05 0.15 1.7
v 0.05 0.25 1.7
v 0.15 -0.35 1.7
v 0.15 0.35 1.7
v -0.15 -0.35 -2
v -0.15 0.35 -2
v -0.05 -0.35 -2
v -0.05 0.25 -2
v 0.05 -0.35 -2
v 0.05 0.25 -2
v 0.15 -0.35 -2
v 0.15 0.35 -2
v -0.15 -0.35 2
v -0.05 -0.35 2
v 0.05 -0.35 2
v 0.15 -0.35 2
v -0.15 -0.35 1.9
v -0.05 -0.35 1.9
v 0.05 -0.35 1.9
v 0.15 -0.35 1.9
v -0.15 -0.35 1.8
v -0.05 -0.35 1.8
v 0.05 -0.35 1.8
v 0.15 -0.35 1.8
v -0.15 -0.35 1.7
v -0.05 -0.35 1.7
v 0.05 -0.35 1.7
v 0.15 -0.35 1.7
v -0.15 -0.35 -1.7
v -0.05 -0.35 -1.7
v 0.05 -0.35 -1.7
v 0.15 -0.35 -1.7
v -0.15 -0.35 -1.8
v -0.05 -0.35 -1.8
v 0.05 -0.35 -1.8
v 0.15 -0.35 -1.8
v -0.15 -0.35 -1.9
v -0.05 -0.35 -1.9
v 0.05 -0.35 -1.9
v 0.15 -0.35 -1.9
v -0.15 -0.35 -2
v -0.05 -0.35 -2
v 0.05 -0.35 -2
v 0.15 -0.35 -2
v -0.05 0.15 1.7
v 0.05 0.15 1.7
v -0.05 0.15 1.6
v 0.05 0.15 1.6
v -0.05 0.15 1.5
v 0.05 0.15 1.5
v -0.05 0.15 1.3
v 0.05 0.15 1.3
v -0.05 0.15 1.1
v 0.05 0.15 1.1
v -0.05 0.15 0.8
v 0.05 0.15 0.8
v -0.05 0.15 0.4
v 0.05 0.15 0.4
v -0.05 0.15 -0.3
v 0.05 0.15 -0.3
v -0.05 0.15 -0.6
v 0.05 0.15 -0.6
v -0.05 0.15 -1.2
v 0.05 0.15 -1.2
v -0.05 0.15 -1.5
v 0.05 0.15 -1.5
v -0.05 0.15 -1.7
v 0.05 0.15 -1.7
v -0.05 0.25 1.7
v 0.05 0.25 1.7
v -0.05 0.25 1.6
v 0.05 0.25 1.6
v -0.05 0.25 1.5
v 0.05 0.25 1.5
v -0.05 0.25 1.3
v 0.05 0.25 1.3
v -0.05 0.25 1.1
v 0.05 0.25 1.1
v -0.05 0.25 0.8
v 0.05 0.25 0.8
v -0.05 0.25 0.4
v 0.05 0.25 0.4
v -0.05 0.25 -0.3
v 0.05 0.25 -0.3
v -0.05 0.25 -0.6
v 0.05 0.25 -0.6
v -0.05 0.25 -1.2
v 0.05 0.25 -1.2
v -0.05 0.25 -1.5
v 0.05 0.25 -1.5
v -0.05 0.25 -1.7
v 0.05 0.25 -1.7
v -0.15 0.35 2
v 0.15 0.35 2
v -0.05 0.35 1.9
v 0.05 0.35 1.9
v -0.05 0.35 1.8
v 0.05 0.35 1.8
v -0.15 0.35 1.7
v 0.15 0.35 1.7
v -0.15 0.35 -1.7
v 0.15 0.35 -1.7
v -0.05 0.35 -1.8
v 0.05 0.35 -1.8
v -0.05 0.35 -1.9
v 0.05 0.35 -1.9
v -0.15 0.35 -2
v 0.15 0.35 -2

# faces
f 9/2/1 2/2/1 1/2/1
f 9/1/1 3/1/1 2/1/1
f 10/2/1 4/2/1 3/2/1
f 10/1/1 3/1/1 9/1/1
f 11/1/1 7/1/1 6/1/1
f 11/2/1 6/2/1 5/2/1
f 12/2/1 8/2/1 7/2/1
f 12/1/1 7/1/1 11/1/1
f 13/2/1 9/2/1 1/2/1
f 13/2/1 10/2/1 9/2/1
f 14/2/1 4/2/1 10/2/1
f 14/2/1 10/2/1 13/2/1
f 15/2/1 11/2/1 5/2/1
f 15/2/1 12/2/1 11/2/1
f 16/2/1 8/2/1 12/2/1
f 16/2/1 12/2/1 15/2/1
f 29/3/1 18/3/1 17/3/1
f 30/4/1 19/4/1 18/4/1
f 30/3/1 18/3/1 29/3/1
f 31/3/1 20/3/1 19/3/1
f 31/4/1 19/4/1 30/4/1
f 32/4/1 21/4/1 20/4/1
f 32/3/1 20/3/1 31/3/1
f 33/3/1 22/3/1 21/3/1
f 33/4/1 21/4/1 32/4/1
f 34/4/1 23/4/1 22/4/1
f 34/3/1 22/3/1 33/3/1
f 35/3/1 24/3/1 23/3/1
f 35/4/1 23/4/1 34/4/1
f 36/4/1 25/4/1 24/4/1
f 36/3/1 24/3/1 35/3/1
f 37/3/1 26/3/1 25/3/1
f 37/4/1 25/4/1 36/4/1
f 38/4/1 27/4/1 26/4/1
f 38/3/1 26/3/1 37/3/1
f 39/3/1 28/3/1 27/3/1
f 39/4/1 27/4/1 38/4/1
f 40/3/1 28/3/1 39/3/1
f 41/3/2 42/3/2 53/3/2
f 42/4/2 43/4/2 54/4/2
f 53/3/2 42/3/2 54/3/2
f 43/3/2 44/3/2 55/3/2
f 54/4/2 43/4/2 55/4/2
f 44/4/2 45/4/2 56/4/2
f 55/3/2 44/3/2 56/3/2
f 45/3/2 46/3/2 57/3/2
f 56/4/2 45/4/2 57/4/2
f 46/4/2 47/4/2 58/4/2
f 57/3/2 46/3/2 58/3/2
f 47/3/2 48/3/2 59/3/2
f 58/4/2 47/4/2 59/4/2
f 48/4/2 49/4/2 60/4/2
f 59/3/2 48/3/2 60/3/2
f 49/3/2 50/3/2 61/3/2
f 60/4/2 49/4/2 61/4/2
f 50/4/2 51/4/2 62/4/2
f 61/3/2 50/3/2 62/3/2
f 51/3/2 52/3/2 63/3/2
f 62/4/2 51/4/2 63/4/2
f 63/3/2 52/3/2 64/3/2
f 65/2/2 66/2/2 73/2/2
f 66/1/2 67/1/2 73/1/2
f 67/2/2 68/2/2 74/2/2
f 73/1/2 67/1/2 74/1/2
f 70/1/2 71/1/2 75/1/2
f 69/2/2 70/2/2 75/2/2
f 71/2/2 72/2/2 76/2/2
f 75/1/2 71/1/2 76/1/2
f 65/2/2 73/2/2 77/2/2
f 73/2/2 74/2/2 77/2/2
f 74/2/2 68/2/2 78/2/2
f 77/2/2 74/2/2 78/2/2
f 69/2/2 75/2/2 79/2/2
f 75/2/2 76/2/2 79/2/2
f 76/2/2 72/2/2 80/2/2
f 79/2/2 76/2/2 80/2/2
f 83/2/3 82/2/3 81/2/3
f 84/2/3 82/2/3 83/2/3
f 85/1/3 84/1/3 83/1/3
f 86/2/3 82/2/3 84/2/3
f 86/1/3 84/1/3 85/1/3
f 87/2/3 86/2/3 85/2/3
f 88/2/3 82/2/3 86/2/3
f 88/2/3 86/2/3 87/2/3
f 91/2/3 90/2/3 89/2/3
f 92/2/3 90/2/3 91/2/3
f 93/2/3 90/2/3 92/2/3
f 94/1/3 92/1/3 91/1/3
f 95/1/3 92/1/3 94/1/3
f 96/2/3 90/2/3 93/2/3
f 97/2/3 95/2/3 94/2/3
f 97/2/3 96/2/3 95/2/3
f 98/2/3 90/2/3 96/2/3
f 98/2/3 96/2/3 97/2/3
f 99/2/4 100/2/4 101/2/4
f 101/2/4 100/2/4 102/2/4
f 102/2/4 100/2/4 103/2/4
f 101/1/4 102/1/4 104/1/4
f 104/1/4 102/1/4 105/1/4
f 103/2/4 100/2/4 106/2/4
f 104/2/4 105/2/4 107/2/4
f 105/2/4 106/2/4 107/2/4
f 106/2/4 100/2/4 108/2/4
f 107/2/4 106/2/4 108/2/4
f 109/2/4 110/2/4 111/2/4
f 111/2/4 110/2/4 112/2/4
f 111/1/4 112/1/4 113/1/4
f 112/2/4 110/2/4 114/2/4
f 113/1/4 112/1/4 114/1/4
f 113/2/4 114/2/4 115/2/4
f 114/2/4 110/2/4 116/2/4
f 115/2/4 114/2/4 116/2/4
f 121/2/5 118/2/5 117/2/5
f 122/1/5 119/1/5 118/1/5
f 122/2/5 118/2/5 121/2/5
f 123/2/5 120/2/5 119/2/5
f 123/1/5 119/1/5 122/1/5
f 124/2/5 120/2/5 123/2/5
f 125/1/5 122/1/5 121/1/5
f 125/1/5 123/1/5 122/1/5
f 125/1/5 124/1/5 123/1/5
f 126/1/5 124/1/5 125/1/5
f 127/1/5 124/1/5 126/1/5
f 128/1/5 124/1/5 127/1/5
f 129/2/5 126/2/5 125/2/5
f 130/1/5 127/1/5 126/1/5
f 130/2/5 126/2/5 129/2/5
f 131/2/5 128/2/5 127/2/5
f 131/1/5 127/1/5 130/1/5
f 132/2/5 128/2/5 131/2/5
f 137/2/5 134/2/5 133/2/5
f 138/1/5 135/1/5 134/1/5
f 138/2/5 134/2/5 137/2/5
f 139/2/5 136/2/5 135/2/5
f 139/1/5 135/1/5 138/1/5
f 140/2/5 136/2/5 139/2/5
f 141/1/5 138/1/5 137/1/5
f 141/1/5 139/1/5 138/1/5
f 141/1/5 140/1/5 139/1/5
f 142/1/5 140/1/5 141/1/5
f 143/1/5 140/1/5 142/1/5
f 144/1/5 140/1/5 143/1/5
f 145/2/5 142/2/5 141/2/5
f 146/1/5 143/1/5 142/1/5
f 146/2/5 142/2/5 145/2/5
f 147/2/5 144/2/5 143/2/5
f 147/1/5 143/1/5 146/1/5
f 148/2/5 144/2/5 147/2/5
f 151/3/5 150/3/5 149/3/5
f 152/3/5 150/3/5 151/3/5
f 153/4/5 152/4/5 151/4/5
f 154/4/5 152/4/5 153/4/5
f 155/3/5 154/3/5 153/3/5
f 156/3/5 154/3/5 155/3/5
f 157/4/5 156/4/5 155/4/5
f 158/4/5 156/4/5 157/4/5
f 159/3/5 158/3/5 157/3/5
f 160/3/5 158/3/5 159/3/5
f 161/4/5 160/4/5 159/4/5
f 162/4/5 160/4/5 161/4/5
f 163/3/5 162/3/5 161/3/5
f 164/3/5 162/3/5 163/3/5
f 165/4/5 164/4/5 163/4/5
f 166/4/5 164/4/5 165/4/5
f 167/3/5 166/3/5 165/3/5
f 168/3/5 166/3/5 167/3/5
f 169/4/5 168/4/5 167/4/5
f 170/4/5 168/4/5 169/4/5
f 171/3/5 170/3/5 169/3/5
f 172/3/5 170/3/5 171/3/5
f 173/3/6 174/3/6 175/3/6
f 175/3/6 174/3/6 176/3/6
f 175/4/6 176/4/6 177/4/6
f 177/4/6 176/4/6 178/4/6
f 177/3/6 178/3/6 179/3/6
f 179/3/6 178/3/6 180/3/6
f 179/4/6 180/4/6 181/4/6
f 181/4/6 180/4/6 182/4/6
f 181/3/6 182/3/6 183/3/6
f 183/3/6 182/3/6 184/3/6
f 183/4/6 184/4/6 185/4/6
f 185/4/6 184/4/6 186/4/6
f 185/3/6 186/3/6 187/3/6
f 187/3/6 186/3/6 188/3/6
f 187/4/6 188/4/6 189/4/6
f 189/4/6 188/4/6 190/4/6
f 189/3/6 190/3/6 191/3/6
f 191/3/6 190/3/6 192/3/6
f 191/4/6 192/4/6 193/4/6
f 193/4/6 192/4/6 194/4/6
f 193/3/6 194/3/6 195/3/6
f 195/3/6 194/3/6 196/3/6
f 197/2/6 198/2/6 199/2/6
f 199/2/6 198/2/6 200/2/6
f 197/2/6 199/2/6 201/2/6
f 199/1/6 200/1/6 201/1/6
f 200/2/6 198/2/6 202/2/6
f 201/1/6 200/1/6 202/1/6
f 197/2/6 201/2/6 203/2/6
f 201/2/6 202/2/6 203/2/6
f 202/2/6 198/2/6 204/2/6
f 203/2/6 202/2/6 204/2/6
f 205/2/6 206/2/6 207/2/6
f 207/2/6 206/2/6 208/2/6
f 205/2/6 207/2/6 209/2/6
f 207/1/6 208/1/6 209/1/6
f 208/2/6 206/2/6 210/2/6
f 209/1/6 208/1/6 210/1/6
f 205/2/6 209/2/6 211/2/6
f 209/2/6 210/2/6 211/2/6
f 210/2/6 206/2/6 212/2/6
f 211/2/6 210/2/6 212/2/6
