# MagicaVoxel @ Ephtracy

# group
o 

# material
mtllib keyboard-0.mtl
usemtl palette

# normals
vn -1 0 0
vn 1 0 0
vn 0 0 1
vn 0 0 -1
vn 0 -1 0
vn 0 1 0

# texcoords
vt 0.423828 0.5
vt 0.716797 0.5
vt 0.943359 0.5
vt 0.958984 0.5
vt 0.962891 0.5
vt 0.974609 0.5
vt 0.994141 0.5

# verts
v -0.6 0.2 0.7
v -0.6 0.2 -1.2
v -0.6 0.4 0.7
v -0.6 0.4 -1.2
v -0.5 0.4 0.6
v -0.5 0.4 0.4
v -0.5 0.4 0.3
v -0.5 0.4 0.1
v -0.5 0.4 0
v -0.5 0.4 -0.2
v -0.5 0.4 -0.3
v -0.5 0.4 -0.5
v -0.5 0.4 -0.6
v -0.5 0.4 -0.8
v -0.5 0.4 -0.9
v -0.5 0.4 -1.1
v -0.5 0.5 0.6
v -0.5 0.5 0.4
v -0.5 0.5 0.3
v -0.5 0.5 0.1
v -0.5 0.5 0
v -0.5 0.5 -0.2
v -0.5 0.5 -0.3
v -0.5 0.5 -0.5
v -0.5 0.5 -0.6
v -0.5 0.5 -0.8
v -0.5 0.5 -0.9
v -0.5 0.5 -1.1
v -0.4 0 -0.9
v -0.4 0 -1
v -0.4 0.1 -0.8
v -0.4 0.1 -0.9
v -0.4 0.2 -0.8
v -0.4 0.2 -1
v -0.2 0.4 0.6
v -0.2 0.4 0.4
v -0.2 0.4 -0.6
v -0.2 0.4 -0.8
v -0.2 0.5 0.6
v -0.2 0.5 0.4
v -0.2 0.5 -0.6
v -0.2 0.5 -0.8
v -0.1 0.4 0
v -0.1 0.4 -0.2
v -0.1 0.5 0
v -0.1 0.5 -0.2
v -5.96046e-08 0.4 0.3
v -5.96046e-08 0.4 0.1
v -5.96046e-08 0.4 -0.3
v -5.96046e-08 0.4 -0.5
v -5.96046e-08 0.4 -0.9
v -5.96046e-08 0.4 -1.1
v -5.96046e-08 0.5 0.3
v -5.96046e-08 0.5 0.1
v -5.96046e-08 0.5 -0.3
v -5.96046e-08 0.5 -0.5
v -5.96046e-08 0.5 -0.9
v -5.96046e-08 0.5 -1.1
v 0.1 0.4 0.6
v 0.1 0.4 0.4
v 0.1 0.4 -0.6
v 0.1 0.4 -0.8
v 0.1 0.5 0.6
v 0.1 0.5 0.4
v 0.1 0.5 -0.6
v 0.1 0.5 -0.8
v 0.2 0.4 0
v 0.2 0.4 -0.2
v 0.2 0.5 0
v 0.2 0.5 -0.2
v 0.3 0.4 0.3
v 0.3 0.4 0.1
v 0.3 0.4 -0.3
v 0.3 0.4 -0.5
v 0.3 0.4 -0.9
v 0.3 0.4 -1.1
v 0.3 0.5 0.3
v 0.3 0.5 0.1
v 0.3 0.5 -0.3
v 0.3 0.5 -0.5
v 0.3 0.5 -0.9
v 0.3 0.5 -1.1
v 0.4 0.4 0.6
v 0.4 0.4 0.4
v 0.4 0.4 -0.6
v 0.4 0.4 -0.8
v 0.4 0.5 0.6
v 0.4 0.5 0.4
v 0.4 0.5 -0.6
v 0.4 0.5 -0.8
v 0.5 0.4 0
v 0.5 0.4 -0.2
v 0.5 0.5 0
v 0.5 0.5 -0.2
v 0.6 0.4 0.3
v 0.6 0.4 0.1
v 0.6 0.4 -0.3
v 0.6 0.4 -0.5
v 0.6 0.4 -0.9
v 0.6 0.4 -1.1
v 0.6 0.5 0.3
v 0.6 0.5 0.1
v 0.6 0.5 -0.3
v 0.6 0.5 -0.5
v 0.6 0.5 -0.9
v 0.6 0.5 -1.1
v 0.7 0.4 -0.6
v 0.7 0.4 -0.8
v 0.7 0.5 -0.6
v 0.7 0.5 -0.8
v 0.8 0.4 0
v 0.8 0.4 -0.2
v 0.8 0.5 0
v 0.8 0.5 -0.2
v 0.9 0.4 0.3
v 0.9 0.4 0.1
v 0.9 0.4 -0.3
v 0.9 0.4 -0.5
v 0.9 0.4 -0.9
v 0.9 0.4 -1.1
v 0.9 0.5 0.3
v 0.9 0.5 0.1
v 0.9 0.5 -0.3
v 0.9 0.5 -0.5
v 0.9 0.5 -0.9
v 0.9 0.5 -1.1
v 1 0.4 -0.6
v 1 0.4 -0.8
v 1 0.5 -0.6
v 1 0.5 -0.8
v 1.1 0.4 0
v 1.1 0.4 -0.2
v 1.1 0.5 0
v 1.1 0.5 -0.2
v 1.2 0.4 0.3
v 1.2 0.4 0.1
v 1.2 0.4 -0.3
v 1.2 0.4 -0.5
v 1.2 0.5 0.3
v 1.2 0.5 0.1
v 1.2 0.5 -0.3
v 1.2 0.5 -0.5
v 1.3 0.4 -0.6
v 1.3 0.4 -0.8
v 1.3 0.4 -0.9
v 1.3 0.4 -1.1
v 1.3 0.5 -0.6
v 1.3 0.5 -0.8
v 1.3 0.5 -0.9
v 1.3 0.5 -1.1
v 1.4 0.4 0
v 1.4 0.4 -0.2
v 1.4 0.5 0
v 1.4 0.5 -0.2
v 1.5 0.4 0.3
v 1.5 0.4 0.1
v 1.5 0.4 -0.3
v 1.5 0.4 -0.5
v 1.5 0.5 0.3
v 1.5 0.5 0.1
v 1.5 0.5 -0.3
v 1.5 0.5 -0.5
v 1.6 0.4 -0.6
v 1.6 0.4 -0.8
v 1.6 0.4 -0.9
v 1.6 0.4 -1.1
v 1.6 0.5 -0.6
v 1.6 0.5 -0.8
v 1.6 0.5 -0.9
v 1.6 0.5 -1.1
v 1.7 0.4 0
v 1.7 0.4 -0.2
v 1.7 0.5 0
v 1.7 0.5 -0.2
v 1.8 0.4 0.3
v 1.8 0.4 0.1
v 1.8 0.4 -0.3
v 1.8 0.4 -0.5
v 1.8 0.5 0.3
v 1.8 0.5 0.1
v 1.8 0.5 -0.3
v 1.8 0.5 -0.5
v 1.9 0.4 -0.6
v 1.9 0.4 -0.8
v 1.9 0.4 -0.9
v 1.9 0.4 -1.1
v 1.9 0.5 -0.6
v 1.9 0.5 -0.8
v 1.9 0.5 -0.9
v 1.9 0.5 -1.1
v 2 0.4 0.6
v 2 0.4 0.4
v 2 0.4 0
v 2 0.4 -0.2
v 2 0.5 0.6
v 2 0.5 0.4
v 2 0.5 0
v 2 0.5 -0.2
v 2.1 0.4 0.3
v 2.1 0.4 0.1
v 2.1 0.4 -0.3
v 2.1 0.4 -0.5
v 2.1 0.5 0.3
v 2.1 0.5 0.1
v 2.1 0.5 -0.3
v 2.1 0.5 -0.5
v 2.2 0.4 -0.6
v 2.2 0.4 -0.8
v 2.2 0.4 -0.9
v 2.2 0.4 -1.1
v 2.2 0.5 -0.6
v 2.2 0.5 -0.8
v 2.2 0.5 -0.9
v 2.2 0.5 -1.1
v 2.3 0.4 0.6
v 2.3 0.4 0.4
v 2.3 0.4 0
v 2.3 0.4 -0.2
v 2.3 0.5 0.6
v 2.3 0.5 0.4
v 2.3 0.5 0
v 2.3 0.5 -0.2
v 2.4 0.4 0.3
v 2.4 0.4 0.1
v 2.4 0.4 -0.3
v 2.4 0.4 -0.5
v 2.4 0.5 0.3
v 2.4 0.5 0.1
v 2.4 0.5 -0.3
v 2.4 0.5 -0.5
v 2.5 0.4 -0.6
v 2.5 0.4 -0.8
v 2.5 0.5 -0.6
v 2.5 0.5 -0.8
v 2.6 0.4 0.6
v 2.6 0.4 0.4
v 2.6 0.4 0
v 2.6 0.4 -0.2
v 2.6 0.4 -0.9
v 2.6 0.4 -1.1
v 2.6 0.5 0.6
v 2.6 0.5 0.4
v 2.6 0.5 0
v 2.6 0.5 -0.2
v 2.6 0.5 -0.9
v 2.6 0.5 -1.1
v 2.7 0.4 0.3
v 2.7 0.4 0.1
v 2.7 0.4 -0.3
v 2.7 0.4 -0.5
v 2.7 0.5 0.3
v 2.7 0.5 0.1
v 2.7 0.5 -0.3
v 2.7 0.5 -0.5
v 2.8 0.4 -0.6
v 2.8 0.4 -0.8
v 2.8 0.5 -0.6
v 2.8 0.5 -0.8
v 2.9 0.4 0.6
v 2.9 0.4 0.4
v 2.9 0.4 0
v 2.9 0.4 -0.2
v 2.9 0.4 -0.9
v 2.9 0.4 -1.1
v 2.9 0.5 0.6
v 2.9 0.5 0.4
v 2.9 0.5 0
v 2.9 0.5 -0.2
v 2.9 0.5 -0.9
v 2.9 0.5 -1.1
v 3 0.4 0.3
v 3 0.4 0.1
v 3 0.4 -0.3
v 3 0.4 -0.5
v 3 0.5 0.3
v 3 0.5 0.1
v 3 0.5 -0.3
v 3 0.5 -0.5
v 3.1 0.4 -0.6
v 3.1 0.4 -0.8
v 3.1 0.5 -0.6
v 3.1 0.5 -0.8
v 3.2 0.4 0.6
v 3.2 0.4 0.4
v 3.2 0.4 0
v 3.2 0.4 -0.2
v 3.2 0.4 -0.9
v 3.2 0.4 -1.1
v 3.2 0.5 0.6
v 3.2 0.5 0.4
v 3.2 0.5 0
v 3.2 0.5 -0.2
v 3.2 0.5 -0.9
v 3.2 0.5 -1.1
v 3.3 0.4 0.3
v 3.3 0.4 0.1
v 3.3 0.4 -0.3
v 3.3 0.4 -0.5
v 3.3 0.5 0.3
v 3.3 0.5 0.1
v 3.3 0.5 -0.3
v 3.3 0.5 -0.5
v 3.4 0.4 -0.6
v 3.4 0.4 -0.8
v 3.4 0.5 -0.6
v 3.4 0.5 -0.8
v 3.5 0.4 0.6
v 3.5 0.4 0.4
v 3.5 0.4 0
v 3.5 0.4 -0.3
v 3.5 0.4 -0.9
v 3.5 0.4 -1.1
v 3.5 0.5 0.6
v 3.5 0.5 0.4
v 3.5 0.5 0
v 3.5 0.5 -0.3
v 3.5 0.5 -0.9
v 3.5 0.5 -1.1
v 3.9 0.4 0.6
v 3.9 0.4 0.4
v 3.9 0.4 0
v 3.9 0.4 -0.2
v 3.9 0.4 -0.3
v 3.9 0.4 -0.5
v 3.9 0.4 -0.6
v 3.9 0.4 -0.8
v 3.9 0.4 -0.9
v 3.9 0.4 -1.1
v 3.9 0.5 0.6
v 3.9 0.5 0.4
v 3.9 0.5 0
v 3.9 0.5 -0.2
v 3.9 0.5 -0.3
v 3.9 0.5 -0.5
v 3.9 0.5 -0.6
v 3.9 0.5 -0.8
v 3.9 0.5 -0.9
v 3.9 0.5 -1.1
v 4.2 0.4 0.6
v 4.2 0.4 0.4
v 4.2 0.4 0.3
v 4.2 0.4 0.1
v 4.2 0.4 0
v 4.2 0.4 -0.2
v 4.2 0.4 -0.3
v 4.2 0.4 -0.5
v 4.2 0.4 -0.6
v 4.2 0.4 -0.8
v 4.2 0.4 -0.9
v 4.2 0.4 -1.1
v 4.2 0.5 0.6
v 4.2 0.5 0.4
v 4.2 0.5 0.3
v 4.2 0.5 0.1
v 4.2 0.5 0
v 4.2 0.5 -0.2
v 4.2 0.5 -0.3
v 4.2 0.5 -0.5
v 4.2 0.5 -0.6
v 4.2 0.5 -0.8
v 4.2 0.5 -0.9
v 4.2 0.5 -1.1
v 4.5 0.4 0.6
v 4.5 0.4 0.4
v 4.5 0.4 0
v 4.5 0.4 -0.2
v 4.5 0.4 -0.3
v 4.5 0.4 -0.5
v 4.5 0.4 -0.6
v 4.5 0.4 -0.8
v 4.5 0.4 -0.9
v 4.5 0.4 -1.1
v 4.5 0.5 0.6
v 4.5 0.5 0.4
v 4.5 0.5 0
v 4.5 0.5 -0.2
v 4.5 0.5 -0.3
v 4.5 0.5 -0.5
v 4.5 0.5 -0.6
v 4.5 0.5 -0.8
v 4.5 0.5 -0.9
v 4.5 0.5 -1.1
v 5.9 0 -0.9
v 5.9 0 -1
v 5.9 0.1 -0.8
v 5.9 0.1 -0.9
v 5.9 0.2 -0.8
v 5.9 0.2 -1
v -0.3 0.4 0.6
v -0.3 0.4 0.4
v -0.3 0.4 -0.6
v -0.3 0.4 -0.8
v -0.3 0.4 -0.9
v -0.3 0.4 -1.1
v -0.3 0.5 0.6
v -0.3 0.5 0.4
v -0.3 0.5 -0.6
v -0.3 0.5 -0.8
v -0.3 0.5 -0.9
v -0.3 0.5 -1.1
v -0.2 0 -0.9
v -0.2 0 -1
v -0.2 0.1 -0.8
v -0.2 0.1 -0.9
v -0.2 0.2 -0.8
v -0.2 0.2 -1
v -0.2 0.4 0
v -0.2 0.4 -0.2
v -0.2 0.5 0
v -0.2 0.5 -0.2
v -0.1 0.4 0.3
v -0.1 0.4 0.1
v -0.1 0.4 -0.3
v -0.1 0.4 -0.5
v -0.1 0.5 0.3
v -0.1 0.5 0.1
v -0.1 0.5 -0.3
v -0.1 0.5 -0.5
v -5.96046e-08 0.4 0.6
v -5.96046e-08 0.4 0.4
v -5.96046e-08 0.4 -0.6
v -5.96046e-08 0.4 -0.8
v -5.96046e-08 0.5 0.6
v -5.96046e-08 0.5 0.4
v -5.96046e-08 0.5 -0.6
v -5.96046e-08 0.5 -0.8
v 0.1 0.4 0
v 0.1 0.4 -0.2
v 0.1 0.5 0
v 0.1 0.5 -0.2
v 0.2 0.4 0.3
v 0.2 0.4 0.1
v 0.2 0.4 -0.3
v 0.2 0.4 -0.5
v 0.2 0.4 -0.9
v 0.2 0.4 -1.1
v 0.2 0.5 0.3
v 0.2 0.5 0.1
v 0.2 0.5 -0.3
v 0.2 0.5 -0.5
v 0.2 0.5 -0.9
v 0.2 0.5 -1.1
v 0.3 0.4 0.6
v 0.3 0.4 0.4
v 0.3 0.4 -0.6
v 0.3 0.4 -0.8
v 0.3 0.5 0.6
v 0.3 0.5 0.4
v 0.3 0.5 -0.6
v 0.3 0.5 -0.8
v 0.4 0.4 0
v 0.4 0.4 -0.2
v 0.4 0.5 0
v 0.4 0.5 -0.2
v 0.5 0.4 0.3
v 0.5 0.4 0.1
v 0.5 0.4 -0.3
v 0.5 0.4 -0.5
v 0.5 0.4 -0.9
v 0.5 0.4 -1.1
v 0.5 0.5 0.3
v 0.5 0.5 0.1
v 0.5 0.5 -0.3
v 0.5 0.5 -0.5
v 0.5 0.5 -0.9
v 0.5 0.5 -1.1
v 0.6 0.4 -0.6
v 0.6 0.4 -0.8
v 0.6 0.5 -0.6
v 0.6 0.5 -0.8
v 0.7 0.4 0
v 0.7 0.4 -0.2
v 0.7 0.5 0
v 0.7 0.5 -0.2
v 0.8 0.4 0.3
v 0.8 0.4 0.1
v 0.8 0.4 -0.3
v 0.8 0.4 -0.5
v 0.8 0.4 -0.9
v 0.8 0.4 -1.1
v 0.8 0.5 0.3
v 0.8 0.5 0.1
v 0.8 0.5 -0.3
v 0.8 0.5 -0.5
v 0.8 0.5 -0.9
v 0.8 0.5 -1.1
v 0.9 0.4 -0.6
v 0.9 0.4 -0.8
v 0.9 0.5 -0.6
v 0.9 0.5 -0.8
v 1 0.4 0
v 1 0.4 -0.2
v 1 0.5 0
v 1 0.5 -0.2
v 1.1 0.4 0.3
v 1.1 0.4 0.1
v 1.1 0.4 -0.3
v 1.1 0.4 -0.5
v 1.1 0.4 -0.9
v 1.1 0.4 -1.1
v 1.1 0.5 0.3
v 1.1 0.5 0.1
v 1.1 0.5 -0.3
v 1.1 0.5 -0.5
v 1.1 0.5 -0.9
v 1.1 0.5 -1.1
v 1.2 0.4 -0.6
v 1.2 0.4 -0.8
v 1.2 0.5 -0.6
v 1.2 0.5 -0.8
v 1.3 0.4 0
v 1.3 0.4 -0.2
v 1.3 0.5 0
v 1.3 0.5 -0.2
v 1.4 0.4 0.3
v 1.4 0.4 0.1
v 1.4 0.4 -0.3
v 1.4 0.4 -0.5
v 1.4 0.5 0.3
v 1.4 0.5 0.1
v 1.4 0.5 -0.3
v 1.4 0.5 -0.5
v 1.5 0.4 -0.6
v 1.5 0.4 -0.8
v 1.5 0.4 -0.9
v 1.5 0.4 -1.1
v 1.5 0.5 -0.6
v 1.5 0.5 -0.8
v 1.5 0.5 -0.9
v 1.5 0.5 -1.1
v 1.6 0.4 0
v 1.6 0.4 -0.2
v 1.6 0.5 0
v 1.6 0.5 -0.2
v 1.7 0.4 0.3
v 1.7 0.4 0.1
v 1.7 0.4 -0.3
v 1.7 0.4 -0.5
v 1.7 0.5 0.3
v 1.7 0.5 0.1
v 1.7 0.5 -0.3
v 1.7 0.5 -0.5
v 1.8 0.4 -0.6
v 1.8 0.4 -0.8
v 1.8 0.4 -0.9
v 1.8 0.4 -1.1
v 1.8 0.5 -0.6
v 1.8 0.5 -0.8
v 1.8 0.5 -0.9
v 1.8 0.5 -1.1
v 1.9 0.4 0.6
v 1.9 0.4 0.4
v 1.9 0.4 0
v 1.9 0.4 -0.2
v 1.9 0.5 0.6
v 1.9 0.5 0.4
v 1.9 0.5 0
v 1.9 0.5 -0.2
v 2 0.4 0.3
v 2 0.4 0.1
v 2 0.4 -0.3
v 2 0.4 -0.5
v 2 0.5 0.3
v 2 0.5 0.1
v 2 0.5 -0.3
v 2 0.5 -0.5
v 2.1 0.4 -0.6
v 2.1 0.4 -0.8
v 2.1 0.4 -0.9
v 2.1 0.4 -1.1
v 2.1 0.5 -0.6
v 2.1 0.5 -0.8
v 2.1 0.5 -0.9
v 2.1 0.5 -1.1
v 2.2 0.4 0.6
v 2.2 0.4 0.4
v 2.2 0.4 0
v 2.2 0.4 -0.2
v 2.2 0.5 0.6
v 2.2 0.5 0.4
v 2.2 0.5 0
v 2.2 0.5 -0.2
v 2.3 0.4 0.3
v 2.3 0.4 0.1
v 2.3 0.4 -0.3
v 2.3 0.4 -0.5
v 2.3 0.5 0.3
v 2.3 0.5 0.1
v 2.3 0.5 -0.3
v 2.3 0.5 -0.5
v 2.4 0.4 -0.6
v 2.4 0.4 -0.8
v 2.4 0.4 -0.9
v 2.4 0.4 -1.1
v 2.4 0.5 -0.6
v 2.4 0.5 -0.8
v 2.4 0.5 -0.9
v 2.4 0.5 -1.1
v 2.5 0.4 0.6
v 2.5 0.4 0.4
v 2.5 0.4 0
v 2.5 0.4 -0.2
v 2.5 0.5 0.6
v 2.5 0.5 0.4
v 2.5 0.5 0
v 2.5 0.5 -0.2
v 2.6 0.4 0.3
v 2.6 0.4 0.1
v 2.6 0.4 -0.3
v 2.6 0.4 -0.5
v 2.6 0.5 0.3
v 2.6 0.5 0.1
v 2.6 0.5 -0.3
v 2.6 0.5 -0.5
v 2.7 0.4 -0.6
v 2.7 0.4 -0.8
v 2.7 0.5 -0.6
v 2.7 0.5 -0.8
v 2.8 0.4 0.6
v 2.8 0.4 0.4
v 2.8 0.4 0
v 2.8 0.4 -0.2
v 2.8 0.4 -0.9
v 2.8 0.4 -1.1
v 2.8 0.5 0.6
v 2.8 0.5 0.4
v 2.8 0.5 0
v 2.8 0.5 -0.2
v 2.8 0.5 -0.9
v 2.8 0.5 -1.1
v 2.9 0.4 0.3
v 2.9 0.4 0.1
v 2.9 0.4 -0.3
v 2.9 0.4 -0.5
v 2.9 0.5 0.3
v 2.9 0.5 0.1
v 2.9 0.5 -0.3
v 2.9 0.5 -0.5
v 3 0.4 -0.6
v 3 0.4 -0.8
v 3 0.5 -0.6
v 3 0.5 -0.8
v 3.1 0.4 0.6
v 3.1 0.4 0.4
v 3.1 0.4 0
v 3.1 0.4 -0.2
v 3.1 0.4 -0.9
v 3.1 0.4 -1.1
v 3.1 0.5 0.6
v 3.1 0.5 0.4
v 3.1 0.5 0
v 3.1 0.5 -0.2
v 3.1 0.5 -0.9
v 3.1 0.5 -1.1
v 3.2 0.4 0.3
v 3.2 0.4 0.1
v 3.2 0.4 -0.3
v 3.2 0.4 -0.5
v 3.2 0.5 0.3
v 3.2 0.5 0.1
v 3.2 0.5 -0.3
v 3.2 0.5 -0.5
v 3.3 0.4 -0.6
v 3.3 0.4 -0.8
v 3.3 0.5 -0.6
v 3.3 0.5 -0.8
v 3.4 0.4 0.6
v 3.4 0.4 0.4
v 3.4 0.4 0
v 3.4 0.4 -0.2
v 3.4 0.4 -0.9
v 3.4 0.4 -1.1
v 3.4 0.5 0.6
v 3.4 0.5 0.4
v 3.4 0.5 0
v 3.4 0.5 -0.2
v 3.4 0.5 -0.9
v 3.4 0.5 -1.1
v 3.7 0.4 0.6
v 3.7 0.4 0.4
v 3.7 0.4 0.3
v 3.7 0.4 0.1
v 3.7 0.4 0
v 3.7 0.4 -0.5
v 3.7 0.4 -0.6
v 3.7 0.4 -0.8
v 3.7 0.4 -0.9
v 3.7 0.4 -1.1
v 3.7 0.5 0.6
v 3.7 0.5 0.4
v 3.7 0.5 0.3
v 3.7 0.5 0.1
v 3.7 0.5 0
v 3.7 0.5 -0.5
v 3.7 0.5 -0.6
v 3.7 0.5 -0.8
v 3.7 0.5 -0.9
v 3.7 0.5 -1.1
v 4.1 0.4 0.6
v 4.1 0.4 0.4
v 4.1 0.4 0
v 4.1 0.4 -0.2
v 4.1 0.4 -0.3
v 4.1 0.4 -0.5
v 4.1 0.4 -0.6
v 4.1 0.4 -0.8
v 4.1 0.4 -0.9
v 4.1 0.4 -1.1
v 4.1 0.5 0.6
v 4.1 0.5 0.4
v 4.1 0.5 0
v 4.1 0.5 -0.2
v 4.1 0.5 -0.3
v 4.1 0.5 -0.5
v 4.1 0.5 -0.6
v 4.1 0.5 -0.8
v 4.1 0.5 -0.9
v 4.1 0.5 -1.1
v 4.4 0.4 0.6
v 4.4 0.4 0.4
v 4.4 0.4 0.3
v 4.4 0.4 0.1
v 4.4 0.4 0
v 4.4 0.4 -0.2
v 4.4 0.4 -0.3
v 4.4 0.4 -0.5
v 4.4 0.4 -0.6
v 4.4 0.4 -0.8
v 4.4 0.4 -0.9
v 4.4 0.4 -1.1
v 4.4 0.5 0.6
v 4.4 0.5 0.4
v 4.4 0.5 0.3
v 4.4 0.5 0.1
v 4.4 0.5 0
v 4.4 0.5 -0.2
v 4.4 0.5 -0.3
v 4.4 0.5 -0.5
v 4.4 0.5 -0.6
v 4.4 0.5 -0.8
v 4.4 0.5 -0.9
v 4.4 0.5 -1.1
v 4.7 0.4 0.6
v 4.7 0.4 0.4
v 4.7 0.4 0
v 4.7 0.4 -0.2
v 4.7 0.4 -0.3
v 4.7 0.4 -0.5
v 4.7 0.4 -0.6
v 4.7 0.4 -0.8
v 4.7 0.4 -0.9
v 4.7 0.4 -1.1
v 4.7 0.5 0.6
v 4.7 0.5 0.4
v 4.7 0.5 0
v 4.7 0.5 -0.2
v 4.7 0.5 -0.3
v 4.7 0.5 -0.5
v 4.7 0.5 -0.6
v 4.7 0.5 -0.8
v 4.7 0.5 -0.9
v 4.7 0.5 -1.1
v 6.1 0 -0.9
v 6.1 0 -1
v 6.1 0.1 -0.8
v 6.1 0.1 -0.9
v 6.1 0.2 -0.8
v 6.1 0.2 -1
v 6.3 0.2 0.7
v 6.3 0.2 -1.2
v 6.3 0.4 0.7
v 6.3 0.4 -1.2
v -0.6 0.2 0.7
v -0.6 0.4 0.7
v 6.3 0.2 0.7
v 6.3 0.4 0.7
v -0.5 0.4 0.6
v -0.5 0.5 0.6
v -0.3 0.4 0.6
v -0.3 0.5 0.6
v -0.2 0.4 0.6
v -0.2 0.5 0.6
v -5.96046e-08 0.4 0.6
v -5.96046e-08 0.5 0.6
v 0.1 0.4 0.6
v 0.1 0.5 0.6
v 0.3 0.4 0.6
v 0.3 0.5 0.6
v 0.4 0.4 0.6
v 0.4 0.5 0.6
v 1.9 0.4 0.6
v 1.9 0.5 0.6
v 2 0.4 0.6
v 2 0.5 0.6
v 2.2 0.4 0.6
v 2.2 0.5 0.6
v 2.3 0.4 0.6
v 2.3 0.5 0.6
v 2.5 0.4 0.6
v 2.5 0.5 0.6
v 2.6 0.4 0.6
v 2.6 0.5 0.6
v 2.8 0.4 0.6
v 2.8 0.5 0.6
v 2.9 0.4 0.6
v 2.9 0.5 0.6
v 3.1 0.4 0.6
v 3.1 0.5 0.6
v 3.2 0.4 0.6
v 3.2 0.5 0.6
v 3.4 0.4 0.6
v 3.4 0.5 0.6
v 3.5 0.4 0.6
v 3.5 0.5 0.6
v 3.7 0.4 0.6
v 3.7 0.5 0.6
v 3.9 0.4 0.6
v 3.9 0.5 0.6
v 4.1 0.4 0.6
v 4.1 0.5 0.6
v 4.2 0.4 0.6
v 4.2 0.5 0.6
v 4.4 0.4 0.6
v 4.4 0.5 0.6
v 4.5 0.4 0.6
v 4.5 0.5 0.6
v 4.7 0.4 0.6
v 4.7 0.5 0.6
v -0.5 0.4 0.3
v -0.5 0.5 0.3
v -0.1 0.4 0.3
v -0.1 0.5 0.3
v -5.96046e-08 0.4 0.3
v -5.96046e-08 0.5 0.3
v 0.2 0.4 0.3
v 0.2 0.5 0.3
v 0.3 0.4 0.3
v 0.3 0.5 0.3
v 0.5 0.4 0.3
v 0.5 0.5 0.3
v 0.6 0.4 0.3
v 0.6 0.5 0.3
v 0.8 0.4 0.3
v 0.8 0.5 0.3
v 0.9 0.4 0.3
v 0.9 0.5 0.3
v 1.1 0.4 0.3
v 1.1 0.5 0.3
v 1.2 0.4 0.3
v 1.2 0.5 0.3
v 1.4 0.4 0.3
v 1.4 0.5 0.3
v 1.5 0.4 0.3
v 1.5 0.5 0.3
v 1.7 0.4 0.3
v 1.7 0.5 0.3
v 1.8 0.4 0.3
v 1.8 0.5 0.3
v 2 0.4 0.3
v 2 0.5 0.3
v 2.1 0.4 0.3
v 2.1 0.5 0.3
v 2.3 0.4 0.3
v 2.3 0.5 0.3
v 2.4 0.4 0.3
v 2.4 0.5 0.3
v 2.6 0.4 0.3
v 2.6 0.5 0.3
v 2.7 0.4 0.3
v 2.7 0.5 0.3
v 2.9 0.4 0.3
v 2.9 0.5 0.3
v 3 0.4 0.3
v 3 0.5 0.3
v 3.2 0.4 0.3
v 3.2 0.5 0.3
v 3.3 0.4 0.3
v 3.3 0.5 0.3
v 3.7 0.4 0.3
v 3.7 0.5 0.3
v 4.2 0.4 0.3
v 4.2 0.5 0.3
v 4.4 0.4 0.3
v 4.4 0.5 0.3
v -0.5 0.4 0
v -0.5 0.5 0
v -0.2 0.4 0
v -0.2 0.5 0
v -0.1 0.4 0
v -0.1 0.5 0
v 0.1 0.4 0
v 0.1 0.5 0
v 0.2 0.4 0
v 0.2 0.5 0
v 0.4 0.4 0
v 0.4 0.5 0
v 0.5 0.4 0
v 0.5 0.5 0
v 0.7 0.4 0
v 0.7 0.5 0
v 0.8 0.4 0
v 0.8 0.5 0
v 1 0.4 0
v 1 0.5 0
v 1.1 0.4 0
v 1.1 0.5 0
v 1.3 0.4 0
v 1.3 0.5 0
v 1.4 0.4 0
v 1.4 0.5 0
v 1.6 0.4 0
v 1.6 0.5 0
v 1.7 0.4 0
v 1.7 0.5 0
v 1.9 0.4 0
v 1.9 0.5 0
v 2 0.4 0
v 2 0.5 0
v 2.2 0.4 0
v 2.2 0.5 0
v 2.3 0.4 0
v 2.3 0.5 0
v 2.5 0.4 0
v 2.5 0.5 0
v 2.6 0.4 0
v 2.6 0.5 0
v 2.8 0.4 0
v 2.8 0.5 0
v 2.9 0.4 0
v 2.9 0.5 0
v 3.1 0.4 0
v 3.1 0.5 0
v 3.2 0.4 0
v 3.2 0.5 0
v 3.4 0.4 0
v 3.4 0.5 0
v 3.5 0.4 0
v 3.5 0.5 0
v 3.7 0.4 0
v 3.7 0.5 0
v 3.9 0.4 0
v 3.9 0.5 0
v 4.1 0.4 0
v 4.1 0.5 0
v 4.2 0.4 0
v 4.2 0.5 0
v 4.4 0.4 0
v 4.4 0.5 0
v 4.5 0.4 0
v 4.5 0.5 0
v 4.7 0.4 0
v 4.7 0.5 0
v -0.5 0.4 -0.3
v -0.5 0.5 -0.3
v -0.1 0.4 -0.3
v -0.1 0.5 -0.3
v -5.96046e-08 0.4 -0.3
v -5.96046e-08 0.5 -0.3
v 0.2 0.4 -0.3
v 0.2 0.5 -0.3
v 0.3 0.4 -0.3
v 0.3 0.5 -0.3
v 0.5 0.4 -0.3
v 0.5 0.5 -0.3
v 0.6 0.4 -0.3
v 0.6 0.5 -0.3
v 0.8 0.4 -0.3
v 0.8 0.5 -0.3
v 0.9 0.4 -0.3
v 0.9 0.5 -0.3
v 1.1 0.4 -0.3
v 1.1 0.5 -0.3
v 1.2 0.4 -0.3
v 1.2 0.5 -0.3
v 1.4 0.4 -0.3
v 1.4 0.5 -0.3
v 1.5 0.4 -0.3
v 1.5 0.5 -0.3
v 1.7 0.4 -0.3
v 1.7 0.5 -0.3
v 1.8 0.4 -0.3
v 1.8 0.5 -0.3
v 2 0.4 -0.3
v 2 0.5 -0.3
v 2.1 0.4 -0.3
v 2.1 0.5 -0.3
v 2.3 0.4 -0.3
v 2.3 0.5 -0.3
v 2.4 0.4 -0.3
v 2.4 0.5 -0.3
v 2.6 0.4 -0.3
v 2.6 0.5 -0.3
v 2.7 0.4 -0.3
v 2.7 0.5 -0.3
v 2.9 0.4 -0.3
v 2.9 0.5 -0.3
v 3 0.4 -0.3
v 3 0.5 -0.3
v 3.2 0.4 -0.3
v 3.2 0.5 -0.3
v 3.3 0.4 -0.3
v 3.3 0.5 -0.3
v 3.5 0.4 -0.3
v 3.5 0.5 -0.3
v 3.9 0.4 -0.3
v 3.9 0.5 -0.3
v 4.1 0.4 -0.3
v 4.1 0.5 -0.3
v 4.2 0.4 -0.3
v 4.2 0.5 -0.3
v 4.4 0.4 -0.3
v 4.4 0.5 -0.3
v 4.5 0.4 -0.3
v 4.5 0.5 -0.3
v 4.7 0.4 -0.3
v 4.7 0.5 -0.3
v -0.5 0.4 -0.6
v -0.5 0.5 -0.6
v -0.3 0.4 -0.6
v -0.3 0.5 -0.6
v -0.2 0.4 -0.6
v -0.2 0.5 -0.6
v -5.96046e-08 0.4 -0.6
v -5.96046e-08 0.5 -0.6
v 0.1 0.4 -0.6
v 0.1 0.5 -0.6
v 0.3 0.4 -0.6
v 0.3 0.5 -0.6
v 0.4 0.4 -0.6
v 0.4 0.5 -0.6
v 0.6 0.4 -0.6
v 0.6 0.5 -0.6
v 0.7 0.4 -0.6
v 0.7 0.5 -0.6
v 0.9 0.4 -0.6
v 0.9 0.5 -0.6
v 1 0.4 -0.6
v 1 0.5 -0.6
v 1.2 0.4 -0.6
v 1.2 0.5 -0.6
v 1.3 0.4 -0.6
v 1.3 0.5 -0.6
v 1.5 0.4 -0.6
v 1.5 0.5 -0.6
v 1.6 0.4 -0.6
v 1.6 0.5 -0.6
v 1.8 0.4 -0.6
v 1.8 0.5 -0.6
v 1.9 0.4 -0.6
v 1.9 0.5 -0.6
v 2.1 0.4 -0.6
v 2.1 0.5 -0.6
v 2.2 0.4 -0.6
v 2.2 0.5 -0.6
v 2.4 0.4 -0.6
v 2.4 0.5 -0.6
v 2.5 0.4 -0.6
v 2.5 0.5 -0.6
v 2.7 0.4 -0.6
v 2.7 0.5 -0.6
v 2.8 0.4 -0.6
v 2.8 0.5 -0.6
v 3 0.4 -0.6
v 3 0.5 -0.6
v 3.1 0.4 -0.6
v 3.1 0.5 -0.6
v 3.3 0.4 -0.6
v 3.3 0.5 -0.6
v 3.4 0.4 -0.6
v 3.4 0.5 -0.6
v 3.7 0.4 -0.6
v 3.7 0.5 -0.6
v 3.9 0.4 -0.6
v 3.9 0.5 -0.6
v 4.1 0.4 -0.6
v 4.1 0.5 -0.6
v 4.2 0.4 -0.6
v 4.2 0.5 -0.6
v 4.4 0.4 -0.6
v 4.4 0.5 -0.6
v 4.5 0.4 -0.6
v 4.5 0.5 -0.6
v 4.7 0.4 -0.6
v 4.7 0.5 -0.6
v -0.4 0.1 -0.8
v -0.4 0.2 -0.8
v -0.2 0.1 -0.8
v -0.2 0.2 -0.8
v 5.9 0.1 -0.8
v 5.9 0.2 -0.8
v 6.1 0.1 -0.8
v 6.1 0.2 -0.8
v -0.5 0.4 -0.9
v -0.5 0.5 -0.9
v -0.4 0 -0.9
v -0.4 0.1 -0.9
v -0.3 0.4 -0.9
v -0.3 0.5 -0.9
v -0.2 0 -0.9
v -0.2 0.1 -0.9
v -5.96046e-08 0.4 -0.9
v -5.96046e-08 0.5 -0.9
v 0.2 0.4 -0.9
v 0.2 0.5 -0.9
v 0.3 0.4 -0.9
v 0.3 0.5 -0.9
v 0.5 0.4 -0.9
v 0.5 0.5 -0.9
v 0.6 0.4 -0.9
v 0.6 0.5 -0.9
v 0.8 0.4 -0.9
v 0.8 0.5 -0.9
v 0.9 0.4 -0.9
v 0.9 0.5 -0.9
v 1.1 0.4 -0.9
v 1.1 0.5 -0.9
v 1.3 0.4 -0.9
v 1.3 0.5 -0.9
v 1.5 0.4 -0.9
v 1.5 0.5 -0.9
v 1.6 0.4 -0.9
v 1.6 0.5 -0.9
v 1.8 0.4 -0.9
v 1.8 0.5 -0.9
v 1.9 0.4 -0.9
v 1.9 0.5 -0.9
v 2.1 0.4 -0.9
v 2.1 0.5 -0.9
v 2.2 0.4 -0.9
v 2.2 0.5 -0.9
v 2.4 0.4 -0.9
v 2.4 0.5 -0.9
v 2.6 0.4 -0.9
v 2.6 0.5 -0.9
v 2.8 0.4 -0.9
v 2.8 0.5 -0.9
v 2.9 0.4 -0.9
v 2.9 0.5 -0.9
v 3.1 0.4 -0.9
v 3.1 0.5 -0.9
v 3.2 0.4 -0.9
v 3.2 0.5 -0.9
v 3.4 0.4 -0.9
v 3.4 0.5 -0.9
v 3.5 0.4 -0.9
v 3.5 0.5 -0.9
v 3.7 0.4 -0.9
v 3.7 0.5 -0.9
v 3.9 0.4 -0.9
v 3.9 0.5 -0.9
v 4.1 0.4 -0.9
v 4.1 0.5 -0.9
v 4.2 0.4 -0.9
v 4.2 0.5 -0.9
v 4.4 0.4 -0.9
v 4.4 0.5 -0.9
v 4.5 0.4 -0.9
v 4.5 0.5 -0.9
v 4.7 0.4 -0.9
v 4.7 0.5 -0.9
v 5.9 0 -0.9
v 5.9 0.1 -0.9
v 6.1 0 -0.9
v 6.1 0.1 -0.9
v -0.5 0.4 0.4
v -0.5 0.5 0.4
v -0.3 0.4 0.4
v -0.3 0.5 0.4
v -0.2 0.4 0.4
v -0.2 0.5 0.4
v -5.96046e-08 0.4 0.4
v -5.96046e-08 0.5 0.4
v 0.1 0.4 0.4
v 0.1 0.5 0.4
v 0.3 0.4 0.4
v 0.3 0.5 0.4
v 0.4 0.4 0.4
v 0.4 0.5 0.4
v 1.9 0.4 0.4
v 1.9 0.5 0.4
v 2 0.4 0.4
v 2 0.5 0.4
v 2.2 0.4 0.4
v 2.2 0.5 0.4
v 2.3 0.4 0.4
v 2.3 0.5 0.4
v 2.5 0.4 0.4
v 2.5 0.5 0.4
v 2.6 0.4 0.4
v 2.6 0.5 0.4
v 2.8 0.4 0.4
v 2.8 0.5 0.4
v 2.9 0.4 0.4
v 2.9 0.5 0.4
v 3.1 0.4 0.4
v 3.1 0.5 0.4
v 3.2 0.4 0.4
v 3.2 0.5 0.4
v 3.4 0.4 0.4
v 3.4 0.5 0.4
v 3.5 0.4 0.4
v 3.5 0.5 0.4
v 3.7 0.4 0.4
v 3.7 0.5 0.4
v 3.9 0.4 0.4
v 3.9 0.5 0.4
v 4.1 0.4 0.4
v 4.1 0.5 0.4
v 4.2 0.4 0.4
v 4.2 0.5 0.4
v 4.4 0.4 0.4
v 4.4 0.5 0.4
v 4.5 0.4 0.4
v 4.5 0.5 0.4
v 4.7 0.4 0.4
v 4.7 0.5 0.4
v -0.5 0.4 0.1
v -0.5 0.5 0.1
v -0.1 0.4 0.1
v -0.1 0.5 0.1
v -5.96046e-08 0.4 0.1
v -5.96046e-08 0.5 0.1
v 0.2 0.4 0.1
v 0.2 0.5 0.1
v 0.3 0.4 0.1
v 0.3 0.5 0.1
v 0.5 0.4 0.1
v 0.5 0.5 0.1
v 0.6 0.4 0.1
v 0.6 0.5 0.1
v 0.8 0.4 0.1
v 0.8 0.5 0.1
v 0.9 0.4 0.1
v 0.9 0.5 0.1
v 1.1 0.4 0.1
v 1.1 0.5 0.1
v 1.2 0.4 0.1
v 1.2 0.5 0.1
v 1.4 0.4 0.1
v 1.4 0.5 0.1
v 1.5 0.4 0.1
v 1.5 0.5 0.1
v 1.7 0.4 0.1
v 1.7 0.5 0.1
v 1.8 0.4 0.1
v 1.8 0.5 0.1
v 2 0.4 0.1
v 2 0.5 0.1
v 2.1 0.4 0.1
v 2.1 0.5 0.1
v 2.3 0.4 0.1
v 2.3 0.5 0.1
v 2.4 0.4 0.1
v 2.4 0.5 0.1
v 2.6 0.4 0.1
v 2.6 0.5 0.1
v 2.7 0.4 0.1
v 2.7 0.5 0.1
v 2.9 0.4 0.1
v 2.9 0.5 0.1
v 3 0.4 0.1
v 3 0.5 0.1
v 3.2 0.4 0.1
v 3.2 0.5 0.1
v 3.3 0.4 0.1
v 3.3 0.5 0.1
v 3.7 0.4 0.1
v 3.7 0.5 0.1
v 4.2 0.4 0.1
v 4.2 0.5 0.1
v 4.4 0.4 0.1
v 4.4 0.5 0.1
v -0.5 0.4 -0.2
v -0.5 0.5 -0.2
v -0.2 0.4 -0.2
v -0.2 0.5 -0.2
v -0.1 0.4 -0.2
v -0.1 0.5 -0.2
v 0.1 0.4 -0.2
v 0.1 0.5 -0.2
v 0.2 0.4 -0.2
v 0.2 0.5 -0.2
v 0.4 0.4 -0.2
v 0.4 0.5 -0.2
v 0.5 0.4 -0.2
v 0.5 0.5 -0.2
v 0.7 0.4 -0.2
v 0.7 0.5 -0.2
v 0.8 0.4 -0.2
v 0.8 0.5 -0.2
v 1 0.4 -0.2
v 1 0.5 -0.2
v 1.1 0.4 -0.2
v 1.1 0.5 -0.2
v 1.3 0.4 -0.2
v 1.3 0.5 -0.2
v 1.4 0.4 -0.2
v 1.4 0.5 -0.2
v 1.6 0.4 -0.2
v 1.6 0.5 -0.2
v 1.7 0.4 -0.2
v 1.7 0.5 -0.2
v 1.9 0.4 -0.2
v 1.9 0.5 -0.2
v 2 0.4 -0.2
v 2 0.5 -0.2
v 2.2 0.4 -0.2
v 2.2 0.5 -0.2
v 2.3 0.4 -0.2
v 2.3 0.5 -0.2
v 2.5 0.4 -0.2
v 2.5 0.5 -0.2
v 2.6 0.4 -0.2
v 2.6 0.5 -0.2
v 2.8 0.4 -0.2
v 2.8 0.5 -0.2
v 2.9 0.4 -0.2
v 2.9 0.5 -0.2
v 3.1 0.4 -0.2
v 3.1 0.5 -0.2
v 3.2 0.4 -0.2
v 3.2 0.5 -0.2
v 3.4 0.4 -0.2
v 3.4 0.5 -0.2
v 3.9 0.4 -0.2
v 3.9 0.5 -0.2
v 4.1 0.4 -0.2
v 4.1 0.5 -0.2
v 4.2 0.4 -0.2
v 4.2 0.5 -0.2
v 4.4 0.4 -0.2
v 4.4 0.5 -0.2
v 4.5 0.4 -0.2
v 4.5 0.5 -0.2
v 4.7 0.4 -0.2
v 4.7 0.5 -0.2
v -0.5 0.4 -0.5
v -0.5 0.5 -0.5
v -0.1 0.4 -0.5
v -0.1 0.5 -0.5
v -5.96046e-08 0.4 -0.5
v -5.96046e-08 0.5 -0.5
v 0.2 0.4 -0.5
v 0.2 0.5 -0.5
v 0.3 0.4 -0.5
v 0.3 0.5 -0.5
v 0.5 0.4 -0.5
v 0.5 0.5 -0.5
v 0.6 0.4 -0.5
v 0.6 0.5 -0.5
v 0.8 0.4 -0.5
v 0.8 0.5 -0.5
v 0.9 0.4 -0.5
v 0.9 0.5 -0.5
v 1.1 0.4 -0.5
v 1.1 0.5 -0.5
v 1.2 0.4 -0.5
v 1.2 0.5 -0.5
v 1.4 0.4 -0.5
v 1.4 0.5 -0.5
v 1.5 0.4 -0.5
v 1.5 0.5 -0.5
v 1.7 0.4 -0.5
v 1.7 0.5 -0.5
v 1.8 0.4 -0.5
v 1.8 0.5 -0.5
v 2 0.4 -0.5
v 2 0.5 -0.5
v 2.1 0.4 -0.5
v 2.1 0.5 -0.5
v 2.3 0.4 -0.5
v 2.3 0.5 -0.5
v 2.4 0.4 -0.5
v 2.4 0.5 -0.5
v 2.6 0.4 -0.5
v 2.6 0.5 -0.5
v 2.7 0.4 -0.5
v 2.7 0.5 -0.5
v 2.9 0.4 -0.5
v 2.9 0.5 -0.5
v 3 0.4 -0.5
v 3 0.5 -0.5
v 3.2 0.4 -0.5
v 3.2 0.5 -0.5
v 3.3 0.4 -0.5
v 3.3 0.5 -0.5
v 3.7 0.4 -0.5
v 3.7 0.5 -0.5
v 3.9 0.4 -0.5
v 3.9 0.5 -0.5
v 4.1 0.4 -0.5
v 4.1 0.5 -0.5
v 4.2 0.4 -0.5
v 4.2 0.5 -0.5
v 4.4 0.4 -0.5
v 4.4 0.5 -0.5
v 4.5 0.4 -0.5
v 4.5 0.5 -0.5
v 4.7 0.4 -0.5
v 4.7 0.5 -0.5
v -0.5 0.4 -0.8
v -0.5 0.5 -0.8
v -0.3 0.4 -0.8
v -0.3 0.5 -0.8
v -0.2 0.4 -0.8
v -0.2 0.5 -0.8
v -5.96046e-08 0.4 -0.8
v -5.96046e-08 0.5 -0.8
v 0.1 0.4 -0.8
v 0.1 0.5 -0.8
v 0.3 0.4 -0.8
v 0.3 0.5 -0.8
v 0.4 0.4 -0.8
v 0.4 0.5 -0.8
v 0.6 0.4 -0.8
v 0.6 0.5 -0.8
v 0.7 0.4 -0.8
v 0.7 0.5 -0.8
v 0.9 0.4 -0.8
v 0.9 0.5 -0.8
v 1 0.4 -0.8
v 1 0.5 -0.8
v 1.2 0.4 -0.8
v 1.2 0.5 -0.8
v 1.3 0.4 -0.8
v 1.3 0.5 -0.8
v 1.5 0.4 -0.8
v 1.5 0.5 -0.8
v 1.6 0.4 -0.8
v 1.6 0.5 -0.8
v 1.8 0.4 -0.8
v 1.8 0.5 -0.8
v 1.9 0.4 -0.8
v 1.9 0.5 -0.8
v 2.1 0.4 -0.8
v 2.1 0.5 -0.8
v 2.2 0.4 -0.8
v 2.2 0.5 -0.8
v 2.4 0.4 -0.8
v 2.4 0.5 -0.8
v 2.5 0.4 -0.8
v 2.5 0.5 -0.8
v 2.7 0.4 -0.8
v 2.7 0.5 -0.8
v 2.8 0.4 -0.8
v 2.8 0.5 -0.8
v 3 0.4 -0.8
v 3 0.5 -0.8
v 3.1 0.4 -0.8
v 3.1 0.5 -0.8
v 3.3 0.4 -0.8
v 3.3 0.5 -0.8
v 3.4 0.4 -0.8
v 3.4 0.5 -0.8
v 3.7 0.4 -0.8
v 3.7 0.5 -0.8
v 3.9 0.4 -0.8
v 3.9 0.5 -0.8
v 4.1 0.4 -0.8
v 4.1 0.5 -0.8
v 4.2 0.4 -0.8
v 4.2 0.5 -0.8
v 4.4 0.4 -0.8
v 4.4 0.5 -0.8
v 4.5 0.4 -0.8
v 4.5 0.5 -0.8
v 4.7 0.4 -0.8
v 4.7 0.5 -0.8
v -0.4 0 -1
v -0.4 0.2 -1
v -0.2 0 -1
v -0.2 0.2 -1
v 5.9 0 -1
v 5.9 0.2 -1
v 6.1 0 -1
v 6.1 0.2 -1
v -0.5 0.4 -1.1
v -0.5 0.5 -1.1
v -0.3 0.4 -1.1
v -0.3 0.5 -1.1
v -5.96046e-08 0.4 -1.1
v -5.96046e-08 0.5 -1.1
v 0.2 0.4 -1.1
v 0.2 0.5 -1.1
v 0.3 0.4 -1.1
v 0.3 0.5 -1.1
v 0.5 0.4 -1.1
v 0.5 0.5 -1.1
v 0.6 0.4 -1.1
v 0.6 0.5 -1.1
v 0.8 0.4 -1.1
v 0.8 0.5 -1.1
v 0.9 0.4 -1.1
v 0.9 0.5 -1.1
v 1.1 0.4 -1.1
v 1.1 0.5 -1.1
v 1.3 0.4 -1.1
v 1.3 0.5 -1.1
v 1.5 0.4 -1.1
v 1.5 0.5 -1.1
v 1.6 0.4 -1.1
v 1.6 0.5 -1.1
v 1.8 0.4 -1.1
v 1.8 0.5 -1.1
v 1.9 0.4 -1.1
v 1.9 0.5 -1.1
v 2.1 0.4 -1.1
v 2.1 0.5 -1.1
v 2.2 0.4 -1.1
v 2.2 0.5 -1.1
v 2.4 0.4 -1.1
v 2.4 0.5 -1.1
v 2.6 0.4 -1.1
v 2.6 0.5 -1.1
v 2.8 0.4 -1.1
v 2.8 0.5 -1.1
v 2.9 0.4 -1.1
v 2.9 0.5 -1.1
v 3.1 0.4 -1.1
v 3.1 0.5 -1.1
v 3.2 0.4 -1.1
v 3.2 0.5 -1.1
v 3.4 0.4 -1.1
v 3.4 0.5 -1.1
v 3.5 0.4 -1.1
v 3.5 0.5 -1.1
v 3.7 0.4 -1.1
v 3.7 0.5 -1.1
v 3.9 0.4 -1.1
v 3.9 0.5 -1.1
v 4.1 0.4 -1.1
v 4.1 0.5 -1.1
v 4.2 0.4 -1.1
v 4.2 0.5 -1.1
v 4.4 0.4 -1.1
v 4.4 0.5 -1.1
v 4.5 0.4 -1.1
v 4.5 0.5 -1.1
v 4.7 0.4 -1.1
v 4.7 0.5 -1.1
v -0.6 0.2 -1.2
v -0.6 0.4 -1.2
v 6.3 0.2 -1.2
v 6.3 0.4 -1.2
v -0.4 0 -0.9
v -0.2 0 -0.9
v 5.9 0 -0.9
v 6.1 0 -0.9
v -0.4 0 -1
v -0.2 0 -1
v 5.9 0 -1
v 6.1 0 -1
v -0.4 0.1 -0.8
v -0.2 0.1 -0.8
v 5.9 0.1 -0.8
v 6.1 0.1 -0.8
v -0.4 0.1 -0.9
v -0.2 0.1 -0.9
v 5.9 0.1 -0.9
v 6.1 0.1 -0.9
v -0.6 0.2 0.7
v 6.3 0.2 0.7
v -0.4 0.2 -0.8
v -0.2 0.2 -0.8
v 5.9 0.2 -0.8
v 6.1 0.2 -0.8
v -0.4 0.2 -1
v -0.2 0.2 -1
v 5.9 0.2 -1
v 6.1 0.2 -1
v -0.6 0.2 -1.2
v 6.3 0.2 -1.2
v -0.6 0.4 0.7
v 6.3 0.4 0.7
v -0.5 0.4 0.6
v -0.3 0.4 0.6
v -0.2 0.4 0.6
v -5.96046e-08 0.4 0.6
v 0.1 0.4 0.6
v 0.3 0.4 0.6
v 0.4 0.4 0.6
v 1.9 0.4 0.6
v 2 0.4 0.6
v 2.2 0.4 0.6
v 2.3 0.4 0.6
v 2.5 0.4 0.6
v 2.6 0.4 0.6
v 2.8 0.4 0.6
v 2.9 0.4 0.6
v 3.1 0.4 0.6
v 3.2 0.4 0.6
v 3.4 0.4 0.6
v 3.5 0.4 0.6
v 3.7 0.4 0.6
v 3.9 0.4 0.6
v 4.1 0.4 0.6
v 4.2 0.4 0.6
v 4.4 0.4 0.6
v 4.5 0.4 0.6
v 4.7 0.4 0.6
v 4.9 0.4 0.6
v 6.2 0.4 0.6
v 5 0.4 0.5
v 6.1 0.4 0.5
v -0.5 0.4 0.4
v -0.3 0.4 0.4
v -0.2 0.4 0.4
v -5.96046e-08 0.4 0.4
v 0.1 0.4 0.4
v 0.3 0.4 0.4
v 0.4 0.4 0.4
v 1.9 0.4 0.4
v 2 0.4 0.4
v 2.2 0.4 0.4
v 2.3 0.4 0.4
v 2.5 0.4 0.4
v 2.6 0.4 0.4
v 2.8 0.4 0.4
v 2.9 0.4 0.4
v 3.1 0.4 0.4
v 3.2 0.4 0.4
v 3.4 0.4 0.4
v 3.5 0.4 0.4
v 3.7 0.4 0.4
v 3.9 0.4 0.4
v 4.1 0.4 0.4
v 4.2 0.4 0.4
v 4.4 0.4 0.4
v 4.5 0.4 0.4
v 4.7 0.4 0.4
v 5.1 0.4 0.4
v 5.2 0.4 0.4
v 5.3 0.4 0.4
v 5.4 0.4 0.4
v 5.5 0.4 0.4
v 5.6 0.4 0.4
v 5.7 0.4 0.4
v 5.8 0.4 0.4
v 5.9 0.4 0.4
v 6 0.4 0.4
v -0.5 0.4 0.3
v -0.1 0.4 0.3
v -5.96046e-08 0.4 0.3
v 0.2 0.4 0.3
v 0.3 0.4 0.3
v 0.5 0.4 0.3
v 0.6 0.4 0.3
v 0.8 0.4 0.3
v 0.9 0.4 0.3
v 1.1 0.4 0.3
v 1.2 0.4 0.3
v 1.4 0.4 0.3
v 1.5 0.4 0.3
v 1.7 0.4 0.3
v 1.8 0.4 0.3
v 2 0.4 0.3
v 2.1 0.4 0.3
v 2.3 0.4 0.3
v 2.4 0.4 0.3
v 2.6 0.4 0.3
v 2.7 0.4 0.3
v 2.9 0.4 0.3
v 3 0.4 0.3
v 3.2 0.4 0.3
v 3.3 0.4 0.3
v 3.7 0.4 0.3
v 4.2 0.4 0.3
v 4.4 0.4 0.3
v 5.1 0.4 0.3
v 5.2 0.4 0.3
v 5.3 0.4 0.3
v 5.4 0.4 0.3
v 5.5 0.4 0.3
v 5.6 0.4 0.3
v 5.7 0.4 0.3
v 5.8 0.4 0.3
v 5.9 0.4 0.3
v 6 0.4 0.3
v -0.5 0.4 0.1
v -0.1 0.4 0.1
v -5.96046e-08 0.4 0.1
v 0.2 0.4 0.1
v 0.3 0.4 0.1
v 0.5 0.4 0.1
v 0.6 0.4 0.1
v 0.8 0.4 0.1
v 0.9 0.4 0.1
v 1.1 0.4 0.1
v 1.2 0.4 0.1
v 1.4 0.4 0.1
v 1.5 0.4 0.1
v 1.7 0.4 0.1
v 1.8 0.4 0.1
v 2 0.4 0.1
v 2.1 0.4 0.1
v 2.3 0.4 0.1
v 2.4 0.4 0.1
v 2.6 0.4 0.1
v 2.7 0.4 0.1
v 2.9 0.4 0.1
v 3 0.4 0.1
v 3.2 0.4 0.1
v 3.3 0.4 0.1
v 3.7 0.4 0.1
v 4.2 0.4 0.1
v 4.4 0.4 0.1
v -0.5 0.4 0
v -0.2 0.4 0
v -0.1 0.4 0
v 0.1 0.4 0
v 0.2 0.4 0
v 0.4 0.4 0
v 0.5 0.4 0
v 0.7 0.4 0
v 0.8 0.4 0
v 1 0.4 0
v 1.1 0.4 0
v 1.3 0.4 0
v 1.4 0.4 0
v 1.6 0.4 0
v 1.7 0.4 0
v 1.9 0.4 0
v 2 0.4 0
v 2.2 0.4 0
v 2.3 0.4 0
v 2.5 0.4 0
v 2.6 0.4 0
v 2.8 0.4 0
v 2.9 0.4 0
v 3.1 0.4 0
v 3.2 0.4 0
v 3.4 0.4 0
v 3.5 0.4 0
v 3.7 0.4 0
v 3.9 0.4 0
v 4.1 0.4 0
v 4.2 0.4 0
v 4.4 0.4 0
v 4.5 0.4 0
v 4.7 0.4 0
v 5 0.4 0
v 6.1 0.4 0
v 5.5 0.4 -0.1
v 6.1 0.4 -0.1
v -0.5 0.4 -0.2
v -0.2 0.4 -0.2
v -0.1 0.4 -0.2
v 0.1 0.4 -0.2
v 0.2 0.4 -0.2
v 0.4 0.4 -0.2
v 0.5 0.4 -0.2
v 0.7 0.4 -0.2
v 0.8 0.4 -0.2
v 1 0.4 -0.2
v 1.1 0.4 -0.2
v 1.3 0.4 -0.2
v 1.4 0.4 -0.2
v 1.6 0.4 -0.2
v 1.7 0.4 -0.2
v 1.9 0.4 -0.2
v 2 0.4 -0.2
v 2.2 0.4 -0.2
v 2.3 0.4 -0.2
v 2.5 0.4 -0.2
v 2.6 0.4 -0.2
v 2.8 0.4 -0.2
v 2.9 0.4 -0.2
v 3.1 0.4 -0.2
v 3.2 0.4 -0.2
v 3.4 0.4 -0.2
v 3.9 0.4 -0.2
v 4.1 0.4 -0.2
v 4.2 0.4 -0.2
v 4.4 0.4 -0.2
v 4.5 0.4 -0.2
v 4.7 0.4 -0.2
v 5.5 0.4 -0.2
v 6.1 0.4 -0.2
v -0.5 0.4 -0.3
v -0.1 0.4 -0.3
v -5.96046e-08 0.4 -0.3
v 0.2 0.4 -0.3
v 0.3 0.4 -0.3
v 0.5 0.4 -0.3
v 0.6 0.4 -0.3
v 0.8 0.4 -0.3
v 0.9 0.4 -0.3
v 1.1 0.4 -0.3
v 1.2 0.4 -0.3
v 1.4 0.4 -0.3
v 1.5 0.4 -0.3
v 1.7 0.4 -0.3
v 1.8 0.4 -0.3
v 2 0.4 -0.3
v 2.1 0.4 -0.3
v 2.3 0.4 -0.3
v 2.4 0.4 -0.3
v 2.6 0.4 -0.3
v 2.7 0.4 -0.3
v 2.9 0.4 -0.3
v 3 0.4 -0.3
v 3.2 0.4 -0.3
v 3.3 0.4 -0.3
v 3.5 0.4 -0.3
v 3.9 0.4 -0.3
v 4.1 0.4 -0.3
v 4.2 0.4 -0.3
v 4.4 0.4 -0.3
v 4.5 0.4 -0.3
v 4.7 0.4 -0.3
v 5.7 0.4 -0.3
v 6.1 0.4 -0.3
v 5.7 0.4 -0.4
v 6.1 0.4 -0.4
v -0.5 0.4 -0.5
v -0.1 0.4 -0.5
v -5.96046e-08 0.4 -0.5
v 0.2 0.4 -0.5
v 0.3 0.4 -0.5
v 0.5 0.4 -0.5
v 0.6 0.4 -0.5
v 0.8 0.4 -0.5
v 0.9 0.4 -0.5
v 1.1 0.4 -0.5
v 1.2 0.4 -0.5
v 1.4 0.4 -0.5
v 1.5 0.4 -0.5
v 1.7 0.4 -0.5
v 1.8 0.4 -0.5
v 2 0.4 -0.5
v 2.1 0.4 -0.5
v 2.3 0.4 -0.5
v 2.4 0.4 -0.5
v 2.6 0.4 -0.5
v 2.7 0.4 -0.5
v 2.9 0.4 -0.5
v 3 0.4 -0.5
v 3.2 0.4 -0.5
v 3.3 0.4 -0.5
v 3.7 0.4 -0.5
v 3.9 0.4 -0.5
v 4.1 0.4 -0.5
v 4.2 0.4 -0.5
v 4.4 0.4 -0.5
v 4.5 0.4 -0.5
v 4.7 0.4 -0.5
v -0.5 0.4 -0.6
v -0.3 0.4 -0.6
v -0.2 0.4 -0.6
v -5.96046e-08 0.4 -0.6
v 0.1 0.4 -0.6
v 0.3 0.4 -0.6
v 0.4 0.4 -0.6
v 0.6 0.4 -0.6
v 0.7 0.4 -0.6
v 0.9 0.4 -0.6
v 1 0.4 -0.6
v 1.2 0.4 -0.6
v 1.3 0.4 -0.6
v 1.5 0.4 -0.6
v 1.6 0.4 -0.6
v 1.8 0.4 -0.6
v 1.9 0.4 -0.6
v 2.1 0.4 -0.6
v 2.2 0.4 -0.6
v 2.4 0.4 -0.6
v 2.5 0.4 -0.6
v 2.7 0.4 -0.6
v 2.8 0.4 -0.6
v 3 0.4 -0.6
v 3.1 0.4 -0.6
v 3.3 0.4 -0.6
v 3.4 0.4 -0.6
v 3.7 0.4 -0.6
v 3.9 0.4 -0.6
v 4.1 0.4 -0.6
v 4.2 0.4 -0.6
v 4.4 0.4 -0.6
v 4.5 0.4 -0.6
v 4.7 0.4 -0.6
v 5 0.4 -0.7
v 5.3 0.4 -0.7
v -0.5 0.4 -0.8
v -0.3 0.4 -0.8
v -0.2 0.4 -0.8
v -5.96046e-08 0.4 -0.8
v 0.1 0.4 -0.8
v 0.3 0.4 -0.8
v 0.4 0.4 -0.8
v 0.6 0.4 -0.8
v 0.7 0.4 -0.8
v 0.9 0.4 -0.8
v 1 0.4 -0.8
v 1.2 0.4 -0.8
v 1.3 0.4 -0.8
v 1.5 0.4 -0.8
v 1.6 0.4 -0.8
v 1.8 0.4 -0.8
v 1.9 0.4 -0.8
v 2.1 0.4 -0.8
v 2.2 0.4 -0.8
v 2.4 0.4 -0.8
v 2.5 0.4 -0.8
v 2.7 0.4 -0.8
v 2.8 0.4 -0.8
v 3 0.4 -0.8
v 3.1 0.4 -0.8
v 3.3 0.4 -0.8
v 3.4 0.4 -0.8
v 3.7 0.4 -0.8
v 3.9 0.4 -0.8
v 4.1 0.4 -0.8
v 4.2 0.4 -0.8
v 4.4 0.4 -0.8
v 4.5 0.4 -0.8
v 4.7 0.4 -0.8
v 5 0.4 -0.8
v 5.3 0.4 -0.8
v -0.5 0.4 -0.9
v -0.3 0.4 -0.9
v -5.96046e-08 0.4 -0.9
v 0.2 0.4 -0.9
v 0.3 0.4 -0.9
v 0.5 0.4 -0.9
v 0.6 0.4 -0.9
v 0.8 0.4 -0.9
v 0.9 0.4 -0.9
v 1.1 0.4 -0.9
v 1.3 0.4 -0.9
v 1.5 0.4 -0.9
v 1.6 0.4 -0.9
v 1.8 0.4 -0.9
v 1.9 0.4 -0.9
v 2.1 0.4 -0.9
v 2.2 0.4 -0.9
v 2.4 0.4 -0.9
v 2.6 0.4 -0.9
v 2.8 0.4 -0.9
v 2.9 0.4 -0.9
v 3.1 0.4 -0.9
v 3.2 0.4 -0.9
v 3.4 0.4 -0.9
v 3.5 0.4 -0.9
v 3.7 0.4 -0.9
v 3.9 0.4 -0.9
v 4.1 0.4 -0.9
v 4.2 0.4 -0.9
v 4.4 0.4 -0.9
v 4.5 0.4 -0.9
v 4.7 0.4 -0.9
v 5 0.4 -0.9
v 5.6 0.4 -0.9
v 5 0.4 -1
v 5.6 0.4 -1
v -0.5 0.4 -1.1
v -0.3 0.4 -1.1
v -5.96046e-08 0.4 -1.1
v 0.2 0.4 -1.1
v 0.3 0.4 -1.1
v 0.5 0.4 -1.1
v 0.6 0.4 -1.1
v 0.8 0.4 -1.1
v 0.9 0.4 -1.1
v 1.1 0.4 -1.1
v 1.3 0.4 -1.1
v 1.5 0.4 -1.1
v 1.6 0.4 -1.1
v 1.8 0.4 -1.1
v 1.9 0.4 -1.1
v 2.1 0.4 -1.1
v 2.2 0.4 -1.1
v 2.4 0.4 -1.1
v 2.6 0.4 -1.1
v 2.8 0.4 -1.1
v 2.9 0.4 -1.1
v 3.1 0.4 -1.1
v 3.2 0.4 -1.1
v 3.4 0.4 -1.1
v 3.5 0.4 -1.1
v 3.7 0.4 -1.1
v 3.9 0.4 -1.1
v 4.1 0.4 -1.1
v 4.2 0.4 -1.1
v 4.4 0.4 -1.1
v 4.5 0.4 -1.1
v 4.7 0.4 -1.1
v 4.9 0.4 -1.1
v 6.2 0.4 -1.1
v -0.6 0.4 -1.2
v 6.3 0.4 -1.2
v -0.5 0.5 0.6
v -0.3 0.5 0.6
v -0.2 0.5 0.6
v -5.96046e-08 0.5 0.6
v 0.1 0.5 0.6
v 0.3 0.5 0.6
v 0.4 0.5 0.6
v 1.9 0.5 0.6
v 2 0.5 0.6
v 2.2 0.5 0.6
v 2.3 0.5 0.6
v 2.5 0.5 0.6
v 2.6 0.5 0.6
v 2.8 0.5 0.6
v 2.9 0.5 0.6
v 3.1 0.5 0.6
v 3.2 0.5 0.6
v 3.4 0.5 0.6
v 3.5 0.5 0.6
v 3.7 0.5 0.6
v 3.9 0.5 0.6
v 4.1 0.5 0.6
v 4.2 0.5 0.6
v 4.4 0.5 0.6
v 4.5 0.5 0.6
v 4.7 0.5 0.6
v -0.5 0.5 0.4
v -0.3 0.5 0.4
v -0.2 0.5 0.4
v -5.96046e-08 0.5 0.4
v 0.1 0.5 0.4
v 0.3 0.5 0.4
v 0.4 0.5 0.4
v 1.9 0.5 0.4
v 2 0.5 0.4
v 2.2 0.5 0.4
v 2.3 0.5 0.4
v 2.5 0.5 0.4
v 2.6 0.5 0.4
v 2.8 0.5 0.4
v 2.9 0.5 0.4
v 3.1 0.5 0.4
v 3.2 0.5 0.4
v 3.4 0.5 0.4
v 3.5 0.5 0.4
v 3.7 0.5 0.4
v 3.9 0.5 0.4
v 4.1 0.5 0.4
v 4.2 0.5 0.4
v 4.4 0.5 0.4
v 4.5 0.5 0.4
v 4.7 0.5 0.4
v -0.5 0.5 0.3
v -0.1 0.5 0.3
v -5.96046e-08 0.5 0.3
v 0.2 0.5 0.3
v 0.3 0.5 0.3
v 0.5 0.5 0.3
v 0.6 0.5 0.3
v 0.8 0.5 0.3
v 0.9 0.5 0.3
v 1.1 0.5 0.3
v 1.2 0.5 0.3
v 1.4 0.5 0.3
v 1.5 0.5 0.3
v 1.7 0.5 0.3
v 1.8 0.5 0.3
v 2 0.5 0.3
v 2.1 0.5 0.3
v 2.3 0.5 0.3
v 2.4 0.5 0.3
v 2.6 0.5 0.3
v 2.7 0.5 0.3
v 2.9 0.5 0.3
v 3 0.5 0.3
v 3.2 0.5 0.3
v 3.3 0.5 0.3
v 3.7 0.5 0.3
v 4.2 0.5 0.3
v 4.4 0.5 0.3
v -0.5 0.5 0.1
v -0.1 0.5 0.1
v -5.96046e-08 0.5 0.1
v 0.2 0.5 0.1
v 0.3 0.5 0.1
v 0.5 0.5 0.1
v 0.6 0.5 0.1
v 0.8 0.5 0.1
v 0.9 0.5 0.1
v 1.1 0.5 0.1
v 1.2 0.5 0.1
v 1.4 0.5 0.1
v 1.5 0.5 0.1
v 1.7 0.5 0.1
v 1.8 0.5 0.1
v 2 0.5 0.1
v 2.1 0.5 0.1
v 2.3 0.5 0.1
v 2.4 0.5 0.1
v 2.6 0.5 0.1
v 2.7 0.5 0.1
v 2.9 0.5 0.1
v 3 0.5 0.1
v 3.2 0.5 0.1
v 3.3 0.5 0.1
v 3.7 0.5 0.1
v 4.2 0.5 0.1
v 4.4 0.5 0.1
v -0.5 0.5 0
v -0.2 0.5 0
v -0.1 0.5 0
v 0.1 0.5 0
v 0.2 0.5 0
v 0.4 0.5 0
v 0.5 0.5 0
v 0.7 0.5 0
v 0.8 0.5 0
v 1 0.5 0
v 1.1 0.5 0
v 1.3 0.5 0
v 1.4 0.5 0
v 1.6 0.5 0
v 1.7 0.5 0
v 1.9 0.5 0
v 2 0.5 0
v 2.2 0.5 0
v 2.3 0.5 0
v 2.5 0.5 0
v 2.6 0.5 0
v 2.8 0.5 0
v 2.9 0.5 0
v 3.1 0.5 0
v 3.2 0.5 0
v 3.4 0.5 0
v 3.5 0.5 0
v 3.7 0.5 0
v 3.9 0.5 0
v 4.1 0.5 0
v 4.2 0.5 0
v 4.4 0.5 0
v 4.5 0.5 0
v 4.7 0.5 0
v -0.5 0.5 -0.2
v -0.2 0.5 -0.2
v -0.1 0.5 -0.2
v 0.1 0.5 -0.2
v 0.2 0.5 -0.2
v 0.4 0.5 -0.2
v 0.5 0.5 -0.2
v 0.7 0.5 -0.2
v 0.8 0.5 -0.2
v 1 0.5 -0.2
v 1.1 0.5 -0.2
v 1.3 0.5 -0.2
v 1.4 0.5 -0.2
v 1.6 0.5 -0.2
v 1.7 0.5 -0.2
v 1.9 0.5 -0.2
v 2 0.5 -0.2
v 2.2 0.5 -0.2
v 2.3 0.5 -0.2
v 2.5 0.5 -0.2
v 2.6 0.5 -0.2
v 2.8 0.5 -0.2
v 2.9 0.5 -0.2
v 3.1 0.5 -0.2
v 3.2 0.5 -0.2
v 3.4 0.5 -0.2
v 3.9 0.5 -0.2
v 4.1 0.5 -0.2
v 4.2 0.5 -0.2
v 4.4 0.5 -0.2
v 4.5 0.5 -0.2
v 4.7 0.5 -0.2
v -0.5 0.5 -0.3
v -0.1 0.5 -0.3
v -5.96046e-08 0.5 -0.3
v 0.2 0.5 -0.3
v 0.3 0.5 -0.3
v 0.5 0.5 -0.3
v 0.6 0.5 -0.3
v 0.8 0.5 -0.3
v 0.9 0.5 -0.3
v 1.1 0.5 -0.3
v 1.2 0.5 -0.3
v 1.4 0.5 -0.3
v 1.5 0.5 -0.3
v 1.7 0.5 -0.3
v 1.8 0.5 -0.3
v 2 0.5 -0.3
v 2.1 0.5 -0.3
v 2.3 0.5 -0.3
v 2.4 0.5 -0.3
v 2.6 0.5 -0.3
v 2.7 0.5 -0.3
v 2.9 0.5 -0.3
v 3 0.5 -0.3
v 3.2 0.5 -0.3
v 3.3 0.5 -0.3
v 3.5 0.5 -0.3
v 3.9 0.5 -0.3
v 4.1 0.5 -0.3
v 4.2 0.5 -0.3
v 4.4 0.5 -0.3
v 4.5 0.5 -0.3
v 4.7 0.5 -0.3
v -0.5 0.5 -0.5
v -0.1 0.5 -0.5
v -5.96046e-08 0.5 -0.5
v 0.2 0.5 -0.5
v 0.3 0.5 -0.5
v 0.5 0.5 -0.5
v 0.6 0.5 -0.5
v 0.8 0.5 -0.5
v 0.9 0.5 -0.5
v 1.1 0.5 -0.5
v 1.2 0.5 -0.5
v 1.4 0.5 -0.5
v 1.5 0.5 -0.5
v 1.7 0.5 -0.5
v 1.8 0.5 -0.5
v 2 0.5 -0.5
v 2.1 0.5 -0.5
v 2.3 0.5 -0.5
v 2.4 0.5 -0.5
v 2.6 0.5 -0.5
v 2.7 0.5 -0.5
v 2.9 0.5 -0.5
v 3 0.5 -0.5
v 3.2 0.5 -0.5
v 3.3 0.5 -0.5
v 3.7 0.5 -0.5
v 3.9 0.5 -0.5
v 4.1 0.5 -0.5
v 4.2 0.5 -0.5
v 4.4 0.5 -0.5
v 4.5 0.5 -0.5
v 4.7 0.5 -0.5
v -0.5 0.5 -0.6
v -0.3 0.5 -0.6
v -0.2 0.5 -0.6
v -5.96046e-08 0.5 -0.6
v 0.1 0.5 -0.6
v 0.3 0.5 -0.6
v 0.4 0.5 -0.6
v 0.6 0.5 -0.6
v 0.7 0.5 -0.6
v 0.9 0.5 -0.6
v 1 0.5 -0.6
v 1.2 0.5 -0.6
v 1.3 0.5 -0.6
v 1.5 0.5 -0.6
v 1.6 0.5 -0.6
v 1.8 0.5 -0.6
v 1.9 0.5 -0.6
v 2.1 0.5 -0.6
v 2.2 0.5 -0.6
v 2.4 0.5 -0.6
v 2.5 0.5 -0.6
v 2.7 0.5 -0.6
v 2.8 0.5 -0.6
v 3 0.5 -0.6
v 3.1 0.5 -0.6
v 3.3 0.5 -0.6
v 3.4 0.5 -0.6
v 3.7 0.5 -0.6
v 3.9 0.5 -0.6
v 4.1 0.5 -0.6
v 4.2 0.5 -0.6
v 4.4 0.5 -0.6
v 4.5 0.5 -0.6
v 4.7 0.5 -0.6
v -0.5 0.5 -0.8
v -0.3 0.5 -0.8
v -0.2 0.5 -0.8
v -5.96046e-08 0.5 -0.8
v 0.1 0.5 -0.8
v 0.3 0.5 -0.8
v 0.4 0.5 -0.8
v 0.6 0.5 -0.8
v 0.7 0.5 -0.8
v 0.9 0.5 -0.8
v 1 0.5 -0.8
v 1.2 0.5 -0.8
v 1.3 0.5 -0.8
v 1.5 0.5 -0.8
v 1.6 0.5 -0.8
v 1.8 0.5 -0.8
v 1.9 0.5 -0.8
v 2.1 0.5 -0.8
v 2.2 0.5 -0.8
v 2.4 0.5 -0.8
v 2.5 0.5 -0.8
v 2.7 0.5 -0.8
v 2.8 0.5 -0.8
v 3 0.5 -0.8
v 3.1 0.5 -0.8
v 3.3 0.5 -0.8
v 3.4 0.5 -0.8
v 3.7 0.5 -0.8
v 3.9 0.5 -0.8
v 4.1 0.5 -0.8
v 4.2 0.5 -0.8
v 4.4 0.5 -0.8
v 4.5 0.5 -0.8
v 4.7 0.5 -0.8
v -0.5 0.5 -0.9
v -0.3 0.5 -0.9
v -5.96046e-08 0.5 -0.9
v 0.2 0.5 -0.9
v 0.3 0.5 -0.9
v 0.5 0.5 -0.9
v 0.6 0.5 -0.9
v 0.8 0.5 -0.9
v 0.9 0.5 -0.9
v 1.1 0.5 -0.9
v 1.3 0.5 -0.9
v 1.5 0.5 -0.9
v 1.6 0.5 -0.9
v 1.8 0.5 -0.9
v 1.9 0.5 -0.9
v 2.1 0.5 -0.9
v 2.2 0.5 -0.9
v 2.4 0.5 -0.9
v 2.6 0.5 -0.9
v 2.8 0.5 -0.9
v 2.9 0.5 -0.9
v 3.1 0.5 -0.9
v 3.2 0.5 -0.9
v 3.4 0.5 -0.9
v 3.5 0.5 -0.9
v 3.7 0.5 -0.9
v 3.9 0.5 -0.9
v 4.1 0.5 -0.9
v 4.2 0.5 -0.9
v 4.4 0.5 -0.9
v 4.5 0.5 -0.9
v 4.7 0.5 -0.9
v -0.5 0.5 -1.1
v -0.3 0.5 -1.1
v -5.96046e-08 0.5 -1.1
v 0.2 0.5 -1.1
v 0.3 0.5 -1.1
v 0.5 0.5 -1.1
v 0.6 0.5 -1.1
v 0.8 0.5 -1.1
v 0.9 0.5 -1.1
v 1.1 0.5 -1.1
v 1.3 0.5 -1.1
v 1.5 0.5 -1.1
v 1.6 0.5 -1.1
v 1.8 0.5 -1.1
v 1.9 0.5 -1.1
v 2.1 0.5 -1.1
v 2.2 0.5 -1.1
v 2.4 0.5 -1.1
v 2.6 0.5 -1.1
v 2.8 0.5 -1.1
v 2.9 0.5 -1.1
v 3.1 0.5 -1.1
v 3.2 0.5 -1.1
v 3.4 0.5 -1.1
v 3.5 0.5 -1.1
v 3.7 0.5 -1.1
v 3.9 0.5 -1.1
v 4.1 0.5 -1.1
v 4.2 0.5 -1.1
v 4.4 0.5 -1.1
v 4.5 0.5 -1.1
v 4.7 0.5 -1.1

# faces
f 3/4/1 2/4/1 1/4/1
f 4/4/1 2/4/1 3/4/1
f 17/6/1 6/6/1 5/6/1
f 18/6/1 6/6/1 17/6/1
f 19/6/1 8/6/1 7/6/1
f 20/6/1 8/6/1 19/6/1
f 21/6/1 10/6/1 9/6/1
f 22/6/1 10/6/1 21/6/1
f 23/6/1 12/6/1 11/6/1
f 24/6/1 12/6/1 23/6/1
f 25/6/1 14/6/1 13/6/1
f 26/6/1 14/6/1 25/6/1
f 27/6/1 16/6/1 15/6/1
f 28/6/1 16/6/1 27/6/1
f 32/4/1 30/4/1 29/4/1
f 33/4/1 32/4/1 31/4/1
f 34/4/1 30/4/1 32/4/1
f 34/4/1 32/4/1 33/4/1
f 39/6/1 36/6/1 35/6/1
f 40/6/1 36/6/1 39/6/1
f 41/6/1 38/6/1 37/6/1
f 42/6/1 38/6/1 41/6/1
f 45/6/1 44/6/1 43/6/1
f 46/6/1 44/6/1 45/6/1
f 53/6/1 48/6/1 47/6/1
f 54/6/1 48/6/1 53/6/1
f 55/6/1 50/6/1 49/6/1
f 56/6/1 50/6/1 55/6/1
f 57/6/1 52/6/1 51/6/1
f 58/6/1 52/6/1 57/6/1
f 63/6/1 60/6/1 59/6/1
f 64/6/1 60/6/1 63/6/1
f 65/6/1 62/6/1 61/6/1
f 66/6/1 62/6/1 65/6/1
f 69/6/1 68/6/1 67/6/1
f 70/6/1 68/6/1 69/6/1
f 77/6/1 72/6/1 71/6/1
f 78/6/1 72/6/1 77/6/1
f 79/6/1 74/6/1 73/6/1
f 80/6/1 74/6/1 79/6/1
f 81/6/1 76/6/1 75/6/1
f 82/6/1 76/6/1 81/6/1
f 87/6/1 84/6/1 83/6/1
f 88/6/1 84/6/1 87/6/1
f 89/6/1 86/6/1 85/6/1
f 90/6/1 86/6/1 89/6/1
f 93/6/1 92/6/1 91/6/1
f 94/6/1 92/6/1 93/6/1
f 101/6/1 96/6/1 95/6/1
f 102/6/1 96/6/1 101/6/1
f 103/6/1 98/6/1 97/6/1
f 104/6/1 98/6/1 103/6/1
f 105/6/1 100/6/1 99/6/1
f 106/6/1 100/6/1 105/6/1
f 109/6/1 108/6/1 107/6/1
f 110/6/1 108/6/1 109/6/1
f 113/6/1 112/6/1 111/6/1
f 114/6/1 112/6/1 113/6/1
f 121/6/1 116/6/1 115/6/1
f 122/6/1 116/6/1 121/6/1
f 123/6/1 118/6/1 117/6/1
f 124/6/1 118/6/1 123/6/1
f 125/6/1 120/6/1 119/6/1
f 126/6/1 120/6/1 125/6/1
f 129/6/1 128/6/1 127/6/1
f 130/6/1 128/6/1 129/6/1
f 133/6/1 132/6/1 131/6/1
f 134/6/1 132/6/1 133/6/1
f 139/6/1 136/6/1 135/6/1
f 140/6/1 136/6/1 139/6/1
f 141/6/1 138/6/1 137/6/1
f 142/6/1 138/6/1 141/6/1
f 147/6/1 144/6/1 143/6/1
f 148/6/1 144/6/1 147/6/1
f 149/6/1 146/6/1 145/6/1
f 150/6/1 146/6/1 149/6/1
f 153/6/1 152/6/1 151/6/1
f 154/6/1 152/6/1 153/6/1
f 159/6/1 156/6/1 155/6/1
f 160/6/1 156/6/1 159/6/1
f 161/6/1 158/6/1 157/6/1
f 162/6/1 158/6/1 161/6/1
f 167/6/1 164/6/1 163/6/1
f 168/6/1 164/6/1 167/6/1
f 169/6/1 166/6/1 165/6/1
f 170/6/1 166/6/1 169/6/1
f 173/6/1 172/6/1 171/6/1
f 174/6/1 172/6/1 173/6/1
f 179/6/1 176/6/1 175/6/1
f 180/6/1 176/6/1 179/6/1
f 181/6/1 178/6/1 177/6/1
f 182/6/1 178/6/1 181/6/1
f 187/6/1 184/6/1 183/6/1
f 188/6/1 184/6/1 187/6/1
f 189/6/1 186/6/1 185/6/1
f 190/6/1 186/6/1 189/6/1
f 195/6/1 192/6/1 191/6/1
f 196/6/1 192/6/1 195/6/1
f 197/6/1 194/6/1 193/6/1
f 198/6/1 194/6/1 197/6/1
f 203/6/1 200/6/1 199/6/1
f 204/6/1 200/6/1 203/6/1
f 205/6/1 202/6/1 201/6/1
f 206/6/1 202/6/1 205/6/1
f 211/6/1 208/6/1 207/6/1
f 212/6/1 208/6/1 211/6/1
f 213/6/1 210/6/1 209/6/1
f 214/6/1 210/6/1 213/6/1
f 219/6/1 216/6/1 215/6/1
f 220/6/1 216/6/1 219/6/1
f 221/6/1 218/6/1 217/6/1
f 222/6/1 218/6/1 221/6/1
f 227/6/1 224/6/1 223/6/1
f 228/6/1 224/6/1 227/6/1
f 229/6/1 226/6/1 225/6/1
f 230/6/1 226/6/1 229/6/1
f 233/6/1 232/6/1 231/6/1
f 234/6/1 232/6/1 233/6/1
f 241/6/1 236/6/1 235/6/1
f 242/6/1 236/6/1 241/6/1
f 243/6/1 238/6/1 237/6/1
f 244/6/1 238/6/1 243/6/1
f 245/6/1 240/6/1 239/6/1
f 246/6/1 240/6/1 245/6/1
f 251/6/1 248/6/1 247/6/1
f 252/6/1 248/6/1 251/6/1
f 253/6/1 250/6/1 249/6/1
f 254/6/1 250/6/1 253/6/1
f 257/6/1 256/6/1 255/6/1
f 258/6/1 256/6/1 257/6/1
f 265/6/1 260/6/1 259/6/1
f 266/6/1 260/6/1 265/6/1
f 267/6/1 262/6/1 261/6/1
f 268/6/1 262/6/1 267/6/1
f 269/6/1 264/6/1 263/6/1
f 270/6/1 264/6/1 269/6/1
f 275/6/1 272/6/1 271/6/1
f 276/6/1 272/6/1 275/6/1
f 277/6/1 274/6/1 273/6/1
f 278/6/1 274/6/1 277/6/1
f 281/6/1 280/6/1 279/6/1
f 282/6/1 280/6/1 281/6/1
f 289/6/1 284/6/1 283/6/1
f 290/6/1 284/6/1 289/6/1
f 291/6/1 286/6/1 285/6/1
f 292/6/1 286/6/1 291/6/1
f 293/6/1 288/6/1 287/6/1
f 294/6/1 288/6/1 293/6/1
f 299/6/1 296/6/1 295/6/1
f 300/6/1 296/6/1 299/6/1
f 301/6/1 298/6/1 297/6/1
f 302/6/1 298/6/1 301/6/1
f 305/6/1 304/6/1 303/6/1
f 306/6/1 304/6/1 305/6/1
f 313/6/1 308/6/1 307/6/1
f 314/6/1 308/6/1 313/6/1
f 315/6/1 310/6/1 309/6/1
f 316/6/1 310/6/1 315/6/1
f 317/6/1 312/6/1 311/6/1
f 318/6/1 312/6/1 317/6/1
f 329/6/1 320/6/1 319/6/1
f 330/6/1 320/6/1 329/6/1
f 331/6/1 322/6/1 321/6/1
f 332/6/1 322/6/1 331/6/1
f 333/6/1 324/6/1 323/6/1
f 334/6/1 324/6/1 333/6/1
f 335/6/1 326/6/1 325/6/1
f 336/6/1 326/6/1 335/6/1
f 337/6/1 328/6/1 327/6/1
f 338/6/1 328/6/1 337/6/1
f 351/6/1 340/6/1 339/6/1
f 352/6/1 340/6/1 351/6/1
f 353/6/1 342/6/1 341/6/1
f 354/6/1 342/6/1 353/6/1
f 355/6/1 344/6/1 343/6/1
f 356/6/1 344/6/1 355/6/1
f 357/6/1 346/6/1 345/6/1
f 358/6/1 346/6/1 357/6/1
f 359/6/1 348/6/1 347/6/1
f 360/6/1 348/6/1 359/6/1
f 361/6/1 350/6/1 349/6/1
f 362/6/1 350/6/1 361/6/1
f 373/6/1 364/6/1 363/6/1
f 374/6/1 364/6/1 373/6/1
f 375/6/1 366/6/1 365/6/1
f 376/6/1 366/6/1 375/6/1
f 377/6/1 368/6/1 367/6/1
f 378/6/1 368/6/1 377/6/1
f 379/6/1 370/6/1 369/6/1
f 380/6/1 370/6/1 379/6/1
f 381/6/1 372/6/1 371/6/1
f 382/6/1 372/6/1 381/6/1
f 386/4/1 384/4/1 383/4/1
f 387/4/1 386/4/1 385/4/1
f 388/4/1 384/4/1 386/4/1
f 388/4/1 386/4/1 387/4/1
f 389/6/2 390/6/2 395/6/2
f 395/6/2 390/6/2 396/6/2
f 391/6/2 392/6/2 397/6/2
f 397/6/2 392/6/2 398/6/2
f 393/6/2 394/6/2 399/6/2
f 399/6/2 394/6/2 400/6/2
f 401/4/2 402/4/2 404/4/2
f 403/4/2 404/4/2 405/4/2
f 404/4/2 402/4/2 406/4/2
f 405/4/2 404/4/2 406/4/2
f 407/6/2 408/6/2 409/6/2
f 409/6/2 408/6/2 410/6/2
f 411/6/2 412/6/2 415/6/2
f 415/6/2 412/6/2 416/6/2
f 413/6/2 414/6/2 417/6/2
f 417/6/2 414/6/2 418/6/2
f 419/6/2 420/6/2 423/6/2
f 423/6/2 420/6/2 424/6/2
f 421/6/2 422/6/2 425/6/2
f 425/6/2 422/6/2 426/6/2
f 427/6/2 428/6/2 429/6/2
f 429/6/2 428/6/2 430/6/2
f 431/6/2 432/6/2 437/6/2
f 437/6/2 432/6/2 438/6/2
f 433/6/2 434/6/2 439/6/2
f 439/6/2 434/6/2 440/6/2
f 435/6/2 436/6/2 441/6/2
f 441/6/2 436/6/2 442/6/2
f 443/6/2 444/6/2 447/6/2
f 447/6/2 444/6/2 448/6/2
f 445/6/2 446/6/2 449/6/2
f 449/6/2 446/6/2 450/6/2
f 451/6/2 452/6/2 453/6/2
f 453/6/2 452/6/2 454/6/2
f 455/6/2 456/6/2 461/6/2
f 461/6/2 456/6/2 462/6/2
f 457/6/2 458/6/2 463/6/2
f 463/6/2 458/6/2 464/6/2
f 459/6/2 460/6/2 465/6/2
f 465/6/2 460/6/2 466/6/2
f 467/6/2 468/6/2 469/6/2
f 469/6/2 468/6/2 470/6/2
f 471/6/2 472/6/2 473/6/2
f 473/6/2 472/6/2 474/6/2
f 475/6/2 476/6/2 481/6/2
f 481/6/2 476/6/2 482/6/2
f 477/6/2 478/6/2 483/6/2
f 483/6/2 478/6/2 484/6/2
f 479/6/2 480/6/2 485/6/2
f 485/6/2 480/6/2 486/6/2
f 487/6/2 488/6/2 489/6/2
f 489/6/2 488/6/2 490/6/2
f 491/6/2 492/6/2 493/6/2
f 493/6/2 492/6/2 494/6/2
f 495/6/2 496/6/2 501/6/2
f 501/6/2 496/6/2 502/6/2
f 497/6/2 498/6/2 503/6/2
f 503/6/2 498/6/2 504/6/2
f 499/6/2 500/6/2 505/6/2
f 505/6/2 500/6/2 506/6/2
f 507/6/2 508/6/2 509/6/2
f 509/6/2 508/6/2 510/6/2
f 511/6/2 512/6/2 513/6/2
f 513/6/2 512/6/2 514/6/2
f 515/6/2 516/6/2 519/6/2
f 519/6/2 516/6/2 520/6/2
f 517/6/2 518/6/2 521/6/2
f 521/6/2 518/6/2 522/6/2
f 523/6/2 524/6/2 527/6/2
f 527/6/2 524/6/2 528/6/2
f 525/6/2 526/6/2 529/6/2
f 529/6/2 526/6/2 530/6/2
f 531/6/2 532/6/2 533/6/2
f 533/6/2 532/6/2 534/6/2
f 535/6/2 536/6/2 539/6/2
f 539/6/2 536/6/2 540/6/2
f 537/6/2 538/6/2 541/6/2
f 541/6/2 538/6/2 542/6/2
f 543/6/2 544/6/2 547/6/2
f 547/6/2 544/6/2 548/6/2
f 545/6/2 546/6/2 549/6/2
f 549/6/2 546/6/2 550/6/2
f 551/6/2 552/6/2 555/6/2
f 555/6/2 552/6/2 556/6/2
f 553/6/2 554/6/2 557/6/2
f 557/6/2 554/6/2 558/6/2
f 559/6/2 560/6/2 563/6/2
f 563/6/2 560/6/2 564/6/2
f 561/6/2 562/6/2 565/6/2
f 565/6/2 562/6/2 566/6/2
f 567/6/2 568/6/2 571/6/2
f 571/6/2 568/6/2 572/6/2
f 569/6/2 570/6/2 573/6/2
f 573/6/2 570/6/2 574/6/2
f 575/6/2 576/6/2 579/6/2
f 579/6/2 576/6/2 580/6/2
f 577/6/2 578/6/2 581/6/2
f 581/6/2 578/6/2 582/6/2
f 583/6/2 584/6/2 587/6/2
f 587/6/2 584/6/2 588/6/2
f 585/6/2 586/6/2 589/6/2
f 589/6/2 586/6/2 590/6/2
f 591/6/2 592/6/2 595/6/2
f 595/6/2 592/6/2 596/6/2
f 593/6/2 594/6/2 597/6/2
f 597/6/2 594/6/2 598/6/2
f 599/6/2 600/6/2 603/6/2
f 603/6/2 600/6/2 604/6/2
f 601/6/2 602/6/2 605/6/2
f 605/6/2 602/6/2 606/6/2
f 607/6/2 608/6/2 611/6/2
f 611/6/2 608/6/2 612/6/2
f 609/6/2 610/6/2 613/6/2
f 613/6/2 610/6/2 614/6/2
f 615/6/2 616/6/2 617/6/2
f 617/6/2 616/6/2 618/6/2
f 619/6/2 620/6/2 625/6/2
f 625/6/2 620/6/2 626/6/2
f 621/6/2 622/6/2 627/6/2
f 627/6/2 622/6/2 628/6/2
f 623/6/2 624/6/2 629/6/2
f 629/6/2 624/6/2 630/6/2
f 631/6/2 632/6/2 635/6/2
f 635/6/2 632/6/2 636/6/2
f 633/6/2 634/6/2 637/6/2
f 637/6/2 634/6/2 638/6/2
f 639/6/2 640/6/2 641/6/2
f 641/6/2 640/6/2 642/6/2
f 643/6/2 644/6/2 649/6/2
f 649/6/2 644/6/2 650/6/2
f 645/6/2 646/6/2 651/6/2
f 651/6/2 646/6/2 652/6/2
f 647/6/2 648/6/2 653/6/2
f 653/6/2 648/6/2 654/6/2
f 655/6/2 656/6/2 659/6/2
f 659/6/2 656/6/2 660/6/2
f 657/6/2 658/6/2 661/6/2
f 661/6/2 658/6/2 662/6/2
f 663/6/2 664/6/2 665/6/2
f 665/6/2 664/6/2 666/6/2
f 667/6/2 668/6/2 673/6/2
f 673/6/2 668/6/2 674/6/2
f 669/6/2 670/6/2 675/6/2
f 675/6/2 670/6/2 676/6/2
f 671/6/2 672/6/2 677/6/2
f 677/6/2 672/6/2 678/6/2
f 679/6/2 680/6/2 689/6/2
f 689/6/2 680/6/2 690/6/2
f 681/6/2 682/6/2 691/6/2
f 691/6/2 682/6/2 692/6/2
f 683/6/2 684/6/2 693/6/2
f 693/6/2 684/6/2 694/6/2
f 685/6/2 686/6/2 695/6/2
f 695/6/2 686/6/2 696/6/2
f 687/6/2 688/6/2 697/6/2
f 697/6/2 688/6/2 698/6/2
f 699/6/2 700/6/2 709/6/2
f 709/6/2 700/6/2 710/6/2
f 701/6/2 702/6/2 711/6/2
f 711/6/2 702/6/2 712/6/2
f 703/6/2 704/6/2 713/6/2
f 713/6/2 704/6/2 714/6/2
f 705/6/2 706/6/2 715/6/2
f 715/6/2 706/6/2 716/6/2
f 707/6/2 708/6/2 717/6/2
f 717/6/2 708/6/2 718/6/2
f 719/6/2 720/6/2 731/6/2
f 731/6/2 720/6/2 732/6/2
f 721/6/2 722/6/2 733/6/2
f 733/6/2 722/6/2 734/6/2
f 723/6/2 724/6/2 735/6/2
f 735/6/2 724/6/2 736/6/2
f 725/6/2 726/6/2 737/6/2
f 737/6/2 726/6/2 738/6/2
f 727/6/2 728/6/2 739/6/2
f 739/6/2 728/6/2 740/6/2
f 729/6/2 730/6/2 741/6/2
f 741/6/2 730/6/2 742/6/2
f 743/6/2 744/6/2 753/6/2
f 753/6/2 744/6/2 754/6/2
f 745/6/2 746/6/2 755/6/2
f 755/6/2 746/6/2 756/6/2
f 747/6/2 748/6/2 757/6/2
f 757/6/2 748/6/2 758/6/2
f 749/6/2 750/6/2 759/6/2
f 759/6/2 750/6/2 760/6/2
f 751/6/2 752/6/2 761/6/2
f 761/6/2 752/6/2 762/6/2
f 763/4/2 764/4/2 766/4/2
f 765/4/2 766/4/2 767/4/2
f 766/4/2 764/4/2 768/4/2
f 767/4/2 766/4/2 768/4/2
f 769/4/2 770/4/2 771/4/2
f 771/4/2 770/4/2 772/4/2
f 775/4/3 774/4/3 773/4/3
f 776/4/3 774/4/3 775/4/3
f 779/6/3 778/6/3 777/6/3
f 780/6/3 778/6/3 779/6/3
f 783/6/3 782/6/3 781/6/3
f 784/6/3 782/6/3 783/6/3
f 787/6/3 786/6/3 785/6/3
f 788/6/3 786/6/3 787/6/3
f 791/6/3 790/6/3 789/6/3
f 792/6/3 790/6/3 791/6/3
f 795/6/3 794/6/3 793/6/3
f 796/6/3 794/6/3 795/6/3
f 799/6/3 798/6/3 797/6/3
f 800/6/3 798/6/3 799/6/3
f 803/6/3 802/6/3 801/6/3
f 804/6/3 802/6/3 803/6/3
f 807/6/3 806/6/3 805/6/3
f 808/6/3 806/6/3 807/6/3
f 811/6/3 810/6/3 809/6/3
f 812/6/3 810/6/3 811/6/3
f 815/6/3 814/6/3 813/6/3
f 816/6/3 814/6/3 815/6/3
f 819/6/3 818/6/3 817/6/3
f 820/6/3 818/6/3 819/6/3
f 823/6/3 822/6/3 821/6/3
f 824/6/3 822/6/3 823/6/3
f 827/6/3 826/6/3 825/6/3
f 828/6/3 826/6/3 827/6/3
f 831/6/3 830/6/3 829/6/3
f 832/6/3 830/6/3 831/6/3
f 835/6/3 834/6/3 833/6/3
f 836/6/3 834/6/3 835/6/3
f 839/6/3 838/6/3 837/6/3
f 840/6/3 838/6/3 839/6/3
f 843/6/3 842/6/3 841/6/3
f 844/6/3 842/6/3 843/6/3
f 847/6/3 846/6/3 845/6/3
f 848/6/3 846/6/3 847/6/3
f 851/6/3 850/6/3 849/6/3
f 852/6/3 850/6/3 851/6/3
f 855/6/3 854/6/3 853/6/3
f 856/6/3 854/6/3 855/6/3
f 859/6/3 858/6/3 857/6/3
f 860/6/3 858/6/3 859/6/3
f 863/6/3 862/6/3 861/6/3
f 864/6/3 862/6/3 863/6/3
f 867/6/3 866/6/3 865/6/3
f 868/6/3 866/6/3 867/6/3
f 871/6/3 870/6/3 869/6/3
f 872/6/3 870/6/3 871/6/3
f 875/6/3 874/6/3 873/6/3
f 876/6/3 874/6/3 875/6/3
f 879/6/3 878/6/3 877/6/3
f 880/6/3 878/6/3 879/6/3
f 883/6/3 882/6/3 881/6/3
f 884/6/3 882/6/3 883/6/3
f 887/6/3 886/6/3 885/6/3
f 888/6/3 886/6/3 887/6/3
f 891/6/3 890/6/3 889/6/3
f 892/6/3 890/6/3 891/6/3
f 895/6/3 894/6/3 893/6/3
f 896/6/3 894/6/3 895/6/3
f 899/6/3 898/6/3 897/6/3
f 900/6/3 898/6/3 899/6/3
f 903/6/3 902/6/3 901/6/3
f 904/6/3 902/6/3 903/6/3
f 907/6/3 906/6/3 905/6/3
f 908/6/3 906/6/3 907/6/3
f 911/6/3 910/6/3 909/6/3
f 912/6/3 910/6/3 911/6/3
f 915/6/3 914/6/3 913/6/3
f 916/6/3 914/6/3 915/6/3
f 919/6/3 918/6/3 917/6/3
f 920/6/3 918/6/3 919/6/3
f 923/6/3 922/6/3 921/6/3
f 924/6/3 922/6/3 923/6/3
f 927/6/3 926/6/3 925/6/3
f 928/6/3 926/6/3 927/6/3
f 931/6/3 930/6/3 929/6/3
f 932/6/3 930/6/3 931/6/3
f 935/6/3 934/6/3 933/6/3
f 936/6/3 934/6/3 935/6/3
f 939/6/3 938/6/3 937/6/3
f 940/6/3 938/6/3 939/6/3
f 943/6/3 942/6/3 941/6/3
f 944/6/3 942/6/3 943/6/3
f 947/6/3 946/6/3 945/6/3
f 948/6/3 946/6/3 947/6/3
f 951/6/3 950/6/3 949/6/3
f 952/6/3 950/6/3 951/6/3
f 955/6/3 954/6/3 953/6/3
f 956/6/3 954/6/3 955/6/3
f 959/6/3 958/6/3 957/6/3
f 960/6/3 958/6/3 959/6/3
f 963/6/3 962/6/3 961/6/3
f 964/6/3 962/6/3 963/6/3
f 967/6/3 966/6/3 965/6/3
f 968/6/3 966/6/3 967/6/3
f 971/6/3 970/6/3 969/6/3
f 972/6/3 970/6/3 971/6/3
f 975/6/3 974/6/3 973/6/3
f 976/6/3 974/6/3 975/6/3
f 979/6/3 978/6/3 977/6/3
f 980/6/3 978/6/3 979/6/3
f 983/6/3 982/6/3 981/6/3
f 984/6/3 982/6/3 983/6/3
f 987/6/3 986/6/3 985/6/3
f 988/6/3 986/6/3 987/6/3
f 991/6/3 990/6/3 989/6/3
f 992/6/3 990/6/3 991/6/3
f 995/6/3 994/6/3 993/6/3
f 996/6/3 994/6/3 995/6/3
f 999/6/3 998/6/3 997/6/3
f 1000/6/3 998/6/3 999/6/3
f 1003/6/3 1002/6/3 1001/6/3
f 1004/6/3 1002/6/3 1003/6/3
f 1007/6/3 1006/6/3 1005/6/3
f 1008/6/3 1006/6/3 1007/6/3
f 1011/6/3 1010/6/3 1009/6/3
f 1012/6/3 1010/6/3 1011/6/3
f 1015/6/3 1014/6/3 1013/6/3
f 1016/6/3 1014/6/3 1015/6/3
f 1019/6/3 1018/6/3 1017/6/3
f 1020/6/3 1018/6/3 1019/6/3
f 1023/6/3 1022/6/3 1021/6/3
f 1024/6/3 1022/6/3 1023/6/3
f 1027/6/3 1026/6/3 1025/6/3
f 1028/6/3 1026/6/3 1027/6/3
f 1031/6/3 1030/6/3 1029/6/3
f 1032/6/3 1030/6/3 1031/6/3
f 1035/6/3 1034/6/3 1033/6/3
f 1036/6/3 1034/6/3 1035/6/3
f 1039/6/3 1038/6/3 1037/6/3
f 1040/6/3 1038/6/3 1039/6/3
f 1043/6/3 1042/6/3 1041/6/3
f 1044/6/3 1042/6/3 1043/6/3
f 1047/6/3 1046/6/3 1045/6/3
f 1048/6/3 1046/6/3 1047/6/3
f 1051/6/3 1050/6/3 1049/6/3
f 1052/6/3 1050/6/3 1051/6/3
f 1055/6/3 1054/6/3 1053/6/3
f 1056/6/3 1054/6/3 1055/6/3
f 1059/6/3 1058/6/3 1057/6/3
f 1060/6/3 1058/6/3 1059/6/3
f 1063/6/3 1062/6/3 1061/6/3
f 1064/6/3 1062/6/3 1063/6/3
f 1067/6/3 1066/6/3 1065/6/3
f 1068/6/3 1066/6/3 1067/6/3
f 1071/6/3 1070/6/3 1069/6/3
f 1072/6/3 1070/6/3 1071/6/3
f 1075/6/3 1074/6/3 1073/6/3
f 1076/6/3 1074/6/3 1075/6/3
f 1079/6/3 1078/6/3 1077/6/3
f 1080/6/3 1078/6/3 1079/6/3
f 1083/6/3 1082/6/3 1081/6/3
f 1084/6/3 1082/6/3 1083/6/3
f 1087/4/3 1086/4/3 1085/4/3
f 1088/4/3 1086/4/3 1087/4/3
f 1091/4/3 1090/4/3 1089/4/3
f 1092/4/3 1090/4/3 1091/4/3
f 1097/6/3 1094/6/3 1093/6/3
f 1098/6/3 1094/6/3 1097/6/3
f 1099/4/3 1096/4/3 1095/4/3
f 1100/4/3 1096/4/3 1099/4/3
f 1103/6/3 1102/6/3 1101/6/3
f 1104/6/3 1102/6/3 1103/6/3
f 1107/6/3 1106/6/3 1105/6/3
f 1108/6/3 1106/6/3 1107/6/3
f 1111/6/3 1110/6/3 1109/6/3
f 1112/6/3 1110/6/3 1111/6/3
f 1115/6/3 1114/6/3 1113/6/3
f 1116/6/3 1114/6/3 1115/6/3
f 1119/6/3 1118/6/3 1117/6/3
f 1120/6/3 1118/6/3 1119/6/3
f 1123/6/3 1122/6/3 1121/6/3
f 1124/6/3 1122/6/3 1123/6/3
f 1127/6/3 1126/6/3 1125/6/3
f 1128/6/3 1126/6/3 1127/6/3
f 1131/6/3 1130/6/3 1129/6/3
f 1132/6/3 1130/6/3 1131/6/3
f 1135/6/3 1134/6/3 1133/6/3
f 1136/6/3 1134/6/3 1135/6/3
f 1139/6/3 1138/6/3 1137/6/3
f 1140/6/3 1138/6/3 1139/6/3
f 1143/6/3 1142/6/3 1141/6/3
f 1144/6/3 1142/6/3 1143/6/3
f 1147/6/3 1146/6/3 1145/6/3
f 1148/6/3 1146/6/3 1147/6/3
f 1151/6/3 1150/6/3 1149/6/3
f 1152/6/3 1150/6/3 1151/6/3
f 1155/6/3 1154/6/3 1153/6/3
f 1156/6/3 1154/6/3 1155/6/3
f 1159/6/3 1158/6/3 1157/6/3
f 1160/6/3 1158/6/3 1159/6/3
f 1163/4/3 1162/4/3 1161/4/3
f 1164/4/3 1162/4/3 1163/4/3
f 1165/6/4 1166/6/4 1167/6/4
f 1167/6/4 1166/6/4 1168/6/4
f 1169/6/4 1170/6/4 1171/6/4
f 1171/6/4 1170/6/4 1172/6/4
f 1173/6/4 1174/6/4 1175/6/4
f 1175/6/4 1174/6/4 1176/6/4
f 1177/6/4 1178/6/4 1179/6/4
f 1179/6/4 1178/6/4 1180/6/4
f 1181/6/4 1182/6/4 1183/6/4
f 1183/6/4 1182/6/4 1184/6/4
f 1185/6/4 1186/6/4 1187/6/4
f 1187/6/4 1186/6/4 1188/6/4
f 1189/6/4 1190/6/4 1191/6/4
f 1191/6/4 1190/6/4 1192/6/4
f 1193/6/4 1194/6/4 1195/6/4
f 1195/6/4 1194/6/4 1196/6/4
f 1197/6/4 1198/6/4 1199/6/4
f 1199/6/4 1198/6/4 1200/6/4
f 1201/6/4 1202/6/4 1203/6/4
f 1203/6/4 1202/6/4 1204/6/4
f 1205/6/4 1206/6/4 1207/6/4
f 1207/6/4 1206/6/4 1208/6/4
f 1209/6/4 1210/6/4 1211/6/4
f 1211/6/4 1210/6/4 1212/6/4
f 1213/6/4 1214/6/4 1215/6/4
f 1215/6/4 1214/6/4 1216/6/4
f 1217/6/4 1218/6/4 1219/6/4
f 1219/6/4 1218/6/4 1220/6/4
f 1221/6/4 1222/6/4 1223/6/4
f 1223/6/4 1222/6/4 1224/6/4
f 1225/6/4 1226/6/4 1227/6/4
f 1227/6/4 1226/6/4 1228/6/4
f 1229/6/4 1230/6/4 1231/6/4
f 1231/6/4 1230/6/4 1232/6/4
f 1233/6/4 1234/6/4 1235/6/4
f 1235/6/4 1234/6/4 1236/6/4
f 1237/6/4 1238/6/4 1239/6/4
f 1239/6/4 1238/6/4 1240/6/4
f 1241/6/4 1242/6/4 1243/6/4
f 1243/6/4 1242/6/4 1244/6/4
f 1245/6/4 1246/6/4 1247/6/4
f 1247/6/4 1246/6/4 1248/6/4
f 1249/6/4 1250/6/4 1251/6/4
f 1251/6/4 1250/6/4 1252/6/4
f 1253/6/4 1254/6/4 1255/6/4
f 1255/6/4 1254/6/4 1256/6/4
f 1257/6/4 1258/6/4 1259/6/4
f 1259/6/4 1258/6/4 1260/6/4
f 1261/6/4 1262/6/4 1263/6/4
f 1263/6/4 1262/6/4 1264/6/4
f 1265/6/4 1266/6/4 1267/6/4
f 1267/6/4 1266/6/4 1268/6/4
f 1269/6/4 1270/6/4 1271/6/4
f 1271/6/4 1270/6/4 1272/6/4
f 1273/6/4 1274/6/4 1275/6/4
f 1275/6/4 1274/6/4 1276/6/4
f 1277/6/4 1278/6/4 1279/6/4
f 1279/6/4 1278/6/4 1280/6/4
f 1281/6/4 1282/6/4 1283/6/4
f 1283/6/4 1282/6/4 1284/6/4
f 1285/6/4 1286/6/4 1287/6/4
f 1287/6/4 1286/6/4 1288/6/4
f 1289/6/4 1290/6/4 1291/6/4
f 1291/6/4 1290/6/4 1292/6/4
f 1293/6/4 1294/6/4 1295/6/4
f 1295/6/4 1294/6/4 1296/6/4
f 1297/6/4 1298/6/4 1299/6/4
f 1299/6/4 1298/6/4 1300/6/4
f 1301/6/4 1302/6/4 1303/6/4
f 1303/6/4 1302/6/4 1304/6/4
f 1305/6/4 1306/6/4 1307/6/4
f 1307/6/4 1306/6/4 1308/6/4
f 1309/6/4 1310/6/4 1311/6/4
f 1311/6/4 1310/6/4 1312/6/4
f 1313/6/4 1314/6/4 1315/6/4
f 1315/6/4 1314/6/4 1316/6/4
f 1317/6/4 1318/6/4 1319/6/4
f 1319/6/4 1318/6/4 1320/6/4
f 1321/6/4 1322/6/4 1323/6/4
f 1323/6/4 1322/6/4 1324/6/4
f 1325/6/4 1326/6/4 1327/6/4
f 1327/6/4 1326/6/4 1328/6/4
f 1329/6/4 1330/6/4 1331/6/4
f 1331/6/4 1330/6/4 1332/6/4
f 1333/6/4 1334/6/4 1335/6/4
f 1335/6/4 1334/6/4 1336/6/4
f 1337/6/4 1338/6/4 1339/6/4
f 1339/6/4 1338/6/4 1340/6/4
f 1341/6/4 1342/6/4 1343/6/4
f 1343/6/4 1342/6/4 1344/6/4
f 1345/6/4 1346/6/4 1347/6/4
f 1347/6/4 1346/6/4 1348/6/4
f 1349/6/4 1350/6/4 1351/6/4
f 1351/6/4 1350/6/4 1352/6/4
f 1353/6/4 1354/6/4 1355/6/4
f 1355/6/4 1354/6/4 1356/6/4
f 1357/6/4 1358/6/4 1359/6/4
f 1359/6/4 1358/6/4 1360/6/4
f 1361/6/4 1362/6/4 1363/6/4
f 1363/6/4 1362/6/4 1364/6/4
f 1365/6/4 1366/6/4 1367/6/4
f 1367/6/4 1366/6/4 1368/6/4
f 1369/6/4 1370/6/4 1371/6/4
f 1371/6/4 1370/6/4 1372/6/4
f 1373/6/4 1374/6/4 1375/6/4
f 1375/6/4 1374/6/4 1376/6/4
f 1377/6/4 1378/6/4 1379/6/4
f 1379/6/4 1378/6/4 1380/6/4
f 1381/6/4 1382/6/4 1383/6/4
f 1383/6/4 1382/6/4 1384/6/4
f 1385/6/4 1386/6/4 1387/6/4
f 1387/6/4 1386/6/4 1388/6/4
f 1389/6/4 1390/6/4 1391/6/4
f 1391/6/4 1390/6/4 1392/6/4
f 1393/6/4 1394/6/4 1395/6/4
f 1395/6/4 1394/6/4 1396/6/4
f 1397/6/4 1398/6/4 1399/6/4
f 1399/6/4 1398/6/4 1400/6/4
f 1401/6/4 1402/6/4 1403/6/4
f 1403/6/4 1402/6/4 1404/6/4
f 1405/6/4 1406/6/4 1407/6/4
f 1407/6/4 1406/6/4 1408/6/4
f 1409/6/4 1410/6/4 1411/6/4
f 1411/6/4 1410/6/4 1412/6/4
f 1413/6/4 1414/6/4 1415/6/4
f 1415/6/4 1414/6/4 1416/6/4
f 1417/6/4 1418/6/4 1419/6/4
f 1419/6/4 1418/6/4 1420/6/4
f 1421/6/4 1422/6/4 1423/6/4
f 1423/6/4 1422/6/4 1424/6/4
f 1425/6/4 1426/6/4 1427/6/4
f 1427/6/4 1426/6/4 1428/6/4
f 1429/6/4 1430/6/4 1431/6/4
f 1431/6/4 1430/6/4 1432/6/4
f 1433/6/4 1434/6/4 1435/6/4
f 1435/6/4 1434/6/4 1436/6/4
f 1437/6/4 1438/6/4 1439/6/4
f 1439/6/4 1438/6/4 1440/6/4
f 1441/6/4 1442/6/4 1443/6/4
f 1443/6/4 1442/6/4 1444/6/4
f 1445/6/4 1446/6/4 1447/6/4
f 1447/6/4 1446/6/4 1448/6/4
f 1449/6/4 1450/6/4 1451/6/4
f 1451/6/4 1450/6/4 1452/6/4
f 1453/6/4 1454/6/4 1455/6/4
f 1455/6/4 1454/6/4 1456/6/4
f 1457/6/4 1458/6/4 1459/6/4
f 1459/6/4 1458/6/4 1460/6/4
f 1461/6/4 1462/6/4 1463/6/4
f 1463/6/4 1462/6/4 1464/6/4
f 1465/6/4 1466/6/4 1467/6/4
f 1467/6/4 1466/6/4 1468/6/4
f 1469/4/4 1470/4/4 1471/4/4
f 1471/4/4 1470/4/4 1472/4/4
f 1473/4/4 1474/4/4 1475/4/4
f 1475/4/4 1474/4/4 1476/4/4
f 1477/6/4 1478/6/4 1479/6/4
f 1479/6/4 1478/6/4 1480/6/4
f 1481/6/4 1482/6/4 1483/6/4
f 1483/6/4 1482/6/4 1484/6/4
f 1485/6/4 1486/6/4 1487/6/4
f 1487/6/4 1486/6/4 1488/6/4
f 1489/6/4 1490/6/4 1491/6/4
f 1491/6/4 1490/6/4 1492/6/4
f 1493/6/4 1494/6/4 1495/6/4
f 1495/6/4 1494/6/4 1496/6/4
f 1497/6/4 1498/6/4 1499/6/4
f 1499/6/4 1498/6/4 1500/6/4
f 1501/6/4 1502/6/4 1503/6/4
f 1503/6/4 1502/6/4 1504/6/4
f 1505/6/4 1506/6/4 1507/6/4
f 1507/6/4 1506/6/4 1508/6/4
f 1509/6/4 1510/6/4 1511/6/4
f 1511/6/4 1510/6/4 1512/6/4
f 1513/6/4 1514/6/4 1515/6/4
f 1515/6/4 1514/6/4 1516/6/4
f 1517/6/4 1518/6/4 1519/6/4
f 1519/6/4 1518/6/4 1520/6/4
f 1521/6/4 1522/6/4 1523/6/4
f 1523/6/4 1522/6/4 1524/6/4
f 1525/6/4 1526/6/4 1527/6/4
f 1527/6/4 1526/6/4 1528/6/4
f 1529/6/4 1530/6/4 1531/6/4
f 1531/6/4 1530/6/4 1532/6/4
f 1533/6/4 1534/6/4 1535/6/4
f 1535/6/4 1534/6/4 1536/6/4
f 1537/6/4 1538/6/4 1539/6/4
f 1539/6/4 1538/6/4 1540/6/4
f 1541/4/4 1542/4/4 1543/4/4
f 1543/4/4 1542/4/4 1544/4/4
f 1549/4/5 1546/4/5 1545/4/5
f 1550/4/5 1546/4/5 1549/4/5
f 1551/4/5 1548/4/5 1547/4/5
f 1552/4/5 1548/4/5 1551/4/5
f 1557/4/5 1554/4/5 1553/4/5
f 1558/4/5 1554/4/5 1557/4/5
f 1559/4/5 1556/4/5 1555/4/5
f 1560/4/5 1556/4/5 1559/4/5
f 1563/4/5 1562/4/5 1561/4/5
f 1564/4/5 1562/4/5 1563/4/5
f 1565/4/5 1562/4/5 1564/4/5
f 1566/4/5 1562/4/5 1565/4/5
f 1567/4/5 1563/4/5 1561/4/5
f 1568/4/5 1565/4/5 1564/4/5
f 1569/4/5 1565/4/5 1568/4/5
f 1570/4/5 1562/4/5 1566/4/5
f 1571/4/5 1569/4/5 1568/4/5
f 1571/4/5 1570/4/5 1569/4/5
f 1571/4/5 1567/4/5 1561/4/5
f 1571/4/5 1568/4/5 1567/4/5
f 1572/4/5 1562/4/5 1570/4/5
f 1572/4/5 1570/4/5 1571/4/5
f 1573/4/6 1574/4/6 1575/4/6
f 1575/4/6 1574/4/6 1576/4/6
f 1576/4/6 1574/4/6 1577/4/6
f 1577/4/6 1574/4/6 1578/4/6
f 1578/4/6 1574/4/6 1579/4/6
f 1579/4/6 1574/4/6 1580/4/6
f 1580/4/6 1574/4/6 1581/4/6
f 1581/4/6 1574/4/6 1582/4/6
f 1582/4/6 1574/4/6 1583/4/6
f 1583/4/6 1574/4/6 1584/4/6
f 1584/4/6 1574/4/6 1585/4/6
f 1585/4/6 1574/4/6 1586/4/6
f 1586/4/6 1574/4/6 1587/4/6
f 1587/4/6 1574/4/6 1588/4/6
f 1588/4/6 1574/4/6 1589/4/6
f 1589/4/6 1574/4/6 1590/4/6
f 1590/4/6 1574/4/6 1591/4/6
f 1591/4/6 1574/4/6 1592/4/6
f 1592/4/6 1574/4/6 1593/4/6
f 1593/4/6 1574/4/6 1594/4/6
f 1594/4/6 1574/4/6 1595/4/6
f 1595/4/6 1574/4/6 1596/4/6
f 1596/4/6 1574/4/6 1597/4/6
f 1597/4/6 1574/4/6 1598/4/6
f 1598/4/6 1574/4/6 1599/4/6
f 1599/4/6 1574/4/6 1600/4/6
f 1600/4/6 1574/4/6 1601/4/6
f 1601/4/6 1574/4/6 1602/4/6
f 1601/7/6 1602/7/6 1603/7/6
f 1603/7/6 1602/7/6 1604/7/6
f 1573/4/6 1575/4/6 1605/4/6
f 1576/5/6 1577/5/6 1606/5/6
f 1606/5/6 1577/5/6 1607/5/6
f 1578/5/6 1579/5/6 1608/5/6
f 1608/5/6 1579/5/6 1609/5/6
f 1580/5/6 1581/5/6 1610/5/6
f 1610/5/6 1581/5/6 1611/5/6
f 1582/5/6 1583/5/6 1612/5/6
f 1612/5/6 1583/5/6 1613/5/6
f 1584/5/6 1585/5/6 1614/5/6
f 1614/5/6 1585/5/6 1615/5/6
f 1586/5/6 1587/5/6 1616/5/6
f 1616/5/6 1587/5/6 1617/5/6
f 1588/5/6 1589/5/6 1618/5/6
f 1618/5/6 1589/5/6 1619/5/6
f 1590/5/6 1591/5/6 1620/5/6
f 1620/5/6 1591/5/6 1621/5/6
f 1592/5/6 1593/5/6 1622/5/6
f 1622/5/6 1593/5/6 1623/5/6
f 1594/4/6 1595/4/6 1624/4/6
f 1624/4/6 1595/4/6 1625/4/6
f 1596/5/6 1597/5/6 1626/5/6
f 1626/5/6 1597/5/6 1627/5/6
f 1598/5/6 1599/5/6 1628/5/6
f 1628/5/6 1599/5/6 1629/5/6
f 1600/4/6 1601/4/6 1630/4/6
f 1603/3/6 1604/3/6 1631/3/6
f 1631/3/6 1604/3/6 1632/3/6
f 1632/3/6 1604/3/6 1633/3/6
f 1633/3/6 1604/3/6 1634/3/6
f 1634/3/6 1604/3/6 1635/3/6
f 1635/3/6 1604/3/6 1636/3/6
f 1636/3/6 1604/3/6 1637/3/6
f 1637/3/6 1604/3/6 1638/3/6
f 1638/3/6 1604/3/6 1639/3/6
f 1639/3/6 1604/3/6 1640/3/6
f 1573/4/6 1605/4/6 1641/4/6
f 1606/5/6 1607/5/6 1641/5/6
f 1608/5/6 1609/5/6 1641/5/6
f 1610/5/6 1611/5/6 1641/5/6
f 1622/5/6 1623/5/6 1641/5/6
f 1612/5/6 1613/5/6 1641/5/6
f 1620/5/6 1621/5/6 1641/5/6
f 1614/5/6 1615/5/6 1641/5/6
f 1618/5/6 1619/5/6 1641/5/6
f 1616/5/6 1617/5/6 1641/5/6
f 1605/5/6 1606/5/6 1641/5/6
f 1607/5/6 1608/5/6 1641/5/6
f 1609/5/6 1610/5/6 1641/5/6
f 1611/5/6 1612/5/6 1641/5/6
f 1613/5/6 1614/5/6 1641/5/6
f 1615/5/6 1616/5/6 1641/5/6
f 1617/5/6 1618/5/6 1641/5/6
f 1619/5/6 1620/5/6 1641/5/6
f 1623/5/6 1624/5/6 1641/5/6
f 1621/5/6 1622/5/6 1641/5/6
f 1641/5/6 1624/5/6 1642/5/6
f 1642/5/6 1624/5/6 1643/5/6
f 1643/5/6 1624/5/6 1644/5/6
f 1644/5/6 1624/5/6 1645/5/6
f 1645/5/6 1624/5/6 1646/5/6
f 1646/5/6 1624/5/6 1647/5/6
f 1647/5/6 1624/5/6 1648/5/6
f 1648/5/6 1624/5/6 1649/5/6
f 1649/5/6 1624/5/6 1650/5/6
f 1650/5/6 1624/5/6 1651/5/6
f 1651/5/6 1624/5/6 1652/5/6
f 1652/5/6 1624/5/6 1653/5/6
f 1653/5/6 1624/5/6 1654/5/6
f 1654/5/6 1624/5/6 1655/5/6
f 1655/5/6 1624/5/6 1656/5/6
f 1656/5/6 1624/5/6 1657/5/6
f 1657/5/6 1624/5/6 1658/5/6
f 1658/5/6 1624/5/6 1659/5/6
f 1659/5/6 1624/5/6 1660/5/6
f 1660/5/6 1624/5/6 1661/5/6
f 1661/5/6 1624/5/6 1662/5/6
f 1662/5/6 1624/5/6 1663/5/6
f 1663/5/6 1624/5/6 1664/5/6
f 1664/5/6 1624/5/6 1665/5/6
f 1626/4/6 1627/4/6 1666/4/6
f 1665/5/6 1624/5/6 1666/5/6
f 1624/4/6 1625/4/6 1666/4/6
f 1625/4/6 1626/4/6 1666/4/6
f 1627/5/6 1628/5/6 1667/5/6
f 1666/4/6 1627/4/6 1667/4/6
f 1628/4/6 1629/4/6 1668/4/6
f 1667/5/6 1628/5/6 1668/5/6
f 1629/4/6 1630/4/6 1668/4/6
f 1631/1/6 1632/1/6 1669/1/6
f 1603/3/6 1631/3/6 1669/3/6
f 1632/3/6 1633/3/6 1670/3/6
f 1669/1/6 1632/1/6 1670/1/6
f 1633/1/6 1634/1/6 1671/1/6
f 1670/3/6 1633/3/6 1671/3/6
f 1634/3/6 1635/3/6 1672/3/6
f 1671/1/6 1634/1/6 1672/1/6
f 1635/1/6 1636/1/6 1673/1/6
f 1672/3/6 1635/3/6 1673/3/6
f 1636/3/6 1637/3/6 1674/3/6
f 1673/1/6 1636/1/6 1674/1/6
f 1637/1/6 1638/1/6 1675/1/6
f 1674/3/6 1637/3/6 1675/3/6
f 1638/3/6 1639/3/6 1676/3/6
f 1675/1/6 1638/1/6 1676/1/6
f 1639/1/6 1640/1/6 1677/1/6
f 1676/3/6 1639/3/6 1677/3/6
f 1640/3/6 1604/3/6 1678/3/6
f 1677/1/6 1640/1/6 1678/1/6
f 1573/4/6 1641/4/6 1679/4/6
f 1642/5/6 1643/5/6 1680/5/6
f 1680/5/6 1643/5/6 1681/5/6
f 1644/5/6 1645/5/6 1682/5/6
f 1682/5/6 1645/5/6 1683/5/6
f 1646/5/6 1647/5/6 1684/5/6
f 1684/5/6 1647/5/6 1685/5/6
f 1648/5/6 1649/5/6 1686/5/6
f 1686/5/6 1649/5/6 1687/5/6
f 1650/5/6 1651/5/6 1688/5/6
f 1688/5/6 1651/5/6 1689/5/6
f 1652/5/6 1653/5/6 1690/5/6
f 1690/5/6 1653/5/6 1691/5/6
f 1654/5/6 1655/5/6 1692/5/6
f 1692/5/6 1655/5/6 1693/5/6
f 1656/5/6 1657/5/6 1694/5/6
f 1694/5/6 1657/5/6 1695/5/6
f 1658/5/6 1659/5/6 1696/5/6
f 1696/5/6 1659/5/6 1697/5/6
f 1660/5/6 1661/5/6 1698/5/6
f 1698/5/6 1661/5/6 1699/5/6
f 1662/5/6 1663/5/6 1700/5/6
f 1700/5/6 1663/5/6 1701/5/6
f 1664/5/6 1665/5/6 1702/5/6
f 1702/5/6 1665/5/6 1703/5/6
f 1666/4/6 1667/4/6 1704/4/6
f 1704/4/6 1667/4/6 1705/4/6
f 1668/4/6 1630/4/6 1706/4/6
f 1702/5/6 1703/5/6 1707/5/6
f 1700/5/6 1701/5/6 1707/5/6
f 1696/5/6 1697/5/6 1707/5/6
f 1694/5/6 1695/5/6 1707/5/6
f 1703/5/6 1704/5/6 1707/5/6
f 1698/5/6 1699/5/6 1707/5/6
f 1701/5/6 1702/5/6 1707/5/6
f 1692/5/6 1693/5/6 1707/5/6
f 1699/5/6 1700/5/6 1707/5/6
f 1690/5/6 1691/5/6 1707/5/6
f 1697/5/6 1698/5/6 1707/5/6
f 1573/4/6 1679/4/6 1707/4/6
f 1695/5/6 1696/5/6 1707/5/6
f 1688/5/6 1689/5/6 1707/5/6
f 1693/5/6 1694/5/6 1707/5/6
f 1680/5/6 1681/5/6 1707/5/6
f 1691/5/6 1692/5/6 1707/5/6
f 1686/5/6 1687/5/6 1707/5/6
f 1689/5/6 1690/5/6 1707/5/6
f 1682/5/6 1683/5/6 1707/5/6
f 1687/5/6 1688/5/6 1707/5/6
f 1684/5/6 1685/5/6 1707/5/6
f 1685/5/6 1686/5/6 1707/5/6
f 1679/5/6 1680/5/6 1707/5/6
f 1683/5/6 1684/5/6 1707/5/6
f 1681/5/6 1682/5/6 1707/5/6
f 1707/5/6 1704/5/6 1708/5/6
f 1708/5/6 1704/5/6 1709/5/6
f 1709/5/6 1704/5/6 1710/5/6
f 1710/5/6 1704/5/6 1711/5/6
f 1711/5/6 1704/5/6 1712/5/6
f 1712/5/6 1704/5/6 1713/5/6
f 1713/5/6 1704/5/6 1714/5/6
f 1714/5/6 1704/5/6 1715/5/6
f 1715/5/6 1704/5/6 1716/5/6
f 1716/5/6 1704/5/6 1717/5/6
f 1717/5/6 1704/5/6 1718/5/6
f 1718/5/6 1704/5/6 1719/5/6
f 1719/5/6 1704/5/6 1720/5/6
f 1720/5/6 1704/5/6 1721/5/6
f 1721/5/6 1704/5/6 1722/5/6
f 1722/5/6 1704/5/6 1723/5/6
f 1723/5/6 1704/5/6 1724/5/6
f 1724/5/6 1704/5/6 1725/5/6
f 1725/5/6 1704/5/6 1726/5/6
f 1726/5/6 1704/5/6 1727/5/6
f 1727/5/6 1704/5/6 1728/5/6
f 1728/5/6 1704/5/6 1729/5/6
f 1729/5/6 1704/5/6 1730/5/6
f 1730/5/6 1704/5/6 1731/5/6
f 1731/5/6 1704/5/6 1732/5/6
f 1732/5/6 1704/5/6 1733/5/6
f 1704/4/6 1705/4/6 1734/4/6
f 1733/5/6 1704/5/6 1734/5/6
f 1734/4/6 1705/4/6 1735/4/6
f 1735/4/6 1705/4/6 1736/4/6
f 1705/5/6 1706/5/6 1737/5/6
f 1736/4/6 1705/4/6 1737/4/6
f 1706/4/6 1630/4/6 1738/4/6
f 1737/5/6 1706/5/6 1738/5/6
f 1738/4/6 1630/4/6 1739/4/6
f 1630/4/6 1601/4/6 1740/4/6
f 1739/4/6 1630/4/6 1740/4/6
f 1676/3/6 1677/3/6 1741/3/6
f 1675/3/6 1676/3/6 1741/3/6
f 1674/3/6 1675/3/6 1741/3/6
f 1673/3/6 1674/3/6 1741/3/6
f 1672/3/6 1673/3/6 1741/3/6
f 1671/3/6 1672/3/6 1741/3/6
f 1670/3/6 1671/3/6 1741/3/6
f 1669/3/6 1670/3/6 1741/3/6
f 1603/3/6 1669/3/6 1741/3/6
f 1601/7/6 1603/7/6 1741/7/6
f 1677/3/6 1678/3/6 1741/3/6
f 1604/7/6 1602/7/6 1742/7/6
f 1741/3/6 1678/3/6 1742/3/6
f 1678/3/6 1604/3/6 1742/3/6
f 1741/7/6 1742/7/6 1743/7/6
f 1742/7/6 1602/7/6 1744/7/6
f 1743/7/6 1742/7/6 1744/7/6
f 1573/4/6 1707/4/6 1745/4/6
f 1708/5/6 1709/5/6 1746/5/6
f 1746/5/6 1709/5/6 1747/5/6
f 1710/5/6 1711/5/6 1748/5/6
f 1748/5/6 1711/5/6 1749/5/6
f 1712/5/6 1713/5/6 1750/5/6
f 1750/5/6 1713/5/6 1751/5/6
f 1714/5/6 1715/5/6 1752/5/6
f 1752/5/6 1715/5/6 1753/5/6
f 1716/5/6 1717/5/6 1754/5/6
f 1754/5/6 1717/5/6 1755/5/6
f 1718/5/6 1719/5/6 1756/5/6
f 1756/5/6 1719/5/6 1757/5/6
f 1720/5/6 1721/5/6 1758/5/6
f 1758/5/6 1721/5/6 1759/5/6
f 1722/5/6 1723/5/6 1760/5/6
f 1760/5/6 1723/5/6 1761/5/6
f 1724/5/6 1725/5/6 1762/5/6
f 1762/5/6 1725/5/6 1763/5/6
f 1726/5/6 1727/5/6 1764/5/6
f 1764/5/6 1727/5/6 1765/5/6
f 1728/5/6 1729/5/6 1766/5/6
f 1766/5/6 1729/5/6 1767/5/6
f 1730/5/6 1731/5/6 1768/5/6
f 1768/5/6 1731/5/6 1769/5/6
f 1732/5/6 1733/5/6 1770/5/6
f 1734/4/6 1735/4/6 1771/4/6
f 1736/5/6 1737/5/6 1772/5/6
f 1772/5/6 1737/5/6 1773/5/6
f 1738/5/6 1739/5/6 1774/5/6
f 1774/5/6 1739/5/6 1775/5/6
f 1740/4/6 1601/4/6 1776/4/6
f 1741/7/6 1743/7/6 1777/7/6
f 1743/2/6 1744/2/6 1777/2/6
f 1744/7/6 1602/7/6 1778/7/6
f 1777/2/6 1744/2/6 1778/2/6
f 1760/5/6 1761/5/6 1779/5/6
f 1758/5/6 1759/5/6 1779/5/6
f 1756/5/6 1757/5/6 1779/5/6
f 1769/5/6 1770/5/6 1779/5/6
f 1754/5/6 1755/5/6 1779/5/6
f 1752/5/6 1753/5/6 1779/5/6
f 1766/5/6 1767/5/6 1779/5/6
f 1750/5/6 1751/5/6 1779/5/6
f 1764/5/6 1765/5/6 1779/5/6
f 1768/5/6 1769/5/6 1779/5/6
f 1767/5/6 1768/5/6 1779/5/6
f 1748/5/6 1749/5/6 1779/5/6
f 1765/5/6 1766/5/6 1779/5/6
f 1762/5/6 1763/5/6 1779/5/6
f 1763/5/6 1764/5/6 1779/5/6
f 1746/5/6 1747/5/6 1779/5/6
f 1761/5/6 1762/5/6 1779/5/6
f 1573/4/6 1745/4/6 1779/4/6
f 1759/5/6 1760/5/6 1779/5/6
f 1745/5/6 1746/5/6 1779/5/6
f 1757/5/6 1758/5/6 1779/5/6
f 1747/5/6 1748/5/6 1779/5/6
f 1755/5/6 1756/5/6 1779/5/6
f 1749/5/6 1750/5/6 1779/5/6
f 1753/5/6 1754/5/6 1779/5/6
f 1751/5/6 1752/5/6 1779/5/6
f 1779/5/6 1770/5/6 1780/5/6
f 1780/5/6 1770/5/6 1781/5/6
f 1781/5/6 1770/5/6 1782/5/6
f 1782/5/6 1770/5/6 1783/5/6
f 1783/5/6 1770/5/6 1784/5/6
f 1784/5/6 1770/5/6 1785/5/6
f 1785/5/6 1770/5/6 1786/5/6
f 1786/5/6 1770/5/6 1787/5/6
f 1787/5/6 1770/5/6 1788/5/6
f 1788/5/6 1770/5/6 1789/5/6
f 1789/5/6 1770/5/6 1790/5/6
f 1790/5/6 1770/5/6 1791/5/6
f 1791/5/6 1770/5/6 1792/5/6
f 1792/5/6 1770/5/6 1793/5/6
f 1793/5/6 1770/5/6 1794/5/6
f 1794/5/6 1770/5/6 1795/5/6
f 1795/5/6 1770/5/6 1796/5/6
f 1796/5/6 1770/5/6 1797/5/6
f 1797/5/6 1770/5/6 1798/5/6
f 1798/5/6 1770/5/6 1799/5/6
f 1799/5/6 1770/5/6 1800/5/6
f 1800/5/6 1770/5/6 1801/5/6
f 1801/5/6 1770/5/6 1802/5/6
f 1802/5/6 1770/5/6 1803/5/6
f 1770/5/6 1733/5/6 1804/5/6
f 1803/5/6 1770/5/6 1804/5/6
f 1774/5/6 1775/5/6 1805/5/6
f 1775/5/6 1776/5/6 1805/5/6
f 1734/4/6 1771/4/6 1805/4/6
f 1773/5/6 1774/5/6 1805/5/6
f 1771/5/6 1772/5/6 1805/5/6
f 1772/5/6 1773/5/6 1805/5/6
f 1805/5/6 1776/5/6 1806/5/6
f 1806/5/6 1776/5/6 1807/5/6
f 1807/5/6 1776/5/6 1808/5/6
f 1808/5/6 1776/5/6 1809/5/6
f 1776/4/6 1601/4/6 1810/4/6
f 1809/5/6 1776/5/6 1810/5/6
f 1777/7/6 1778/7/6 1811/7/6
f 1778/7/6 1602/7/6 1812/7/6
f 1811/7/6 1778/7/6 1812/7/6
f 1811/2/6 1812/2/6 1813/2/6
f 1777/7/6 1811/7/6 1813/7/6
f 1812/7/6 1602/7/6 1814/7/6
f 1813/2/6 1812/2/6 1814/2/6
f 1573/4/6 1779/4/6 1815/4/6
f 1780/5/6 1781/5/6 1816/5/6
f 1816/5/6 1781/5/6 1817/5/6
f 1782/5/6 1783/5/6 1818/5/6
f 1818/5/6 1783/5/6 1819/5/6
f 1784/5/6 1785/5/6 1820/5/6
f 1820/5/6 1785/5/6 1821/5/6
f 1786/5/6 1787/5/6 1822/5/6
f 1822/5/6 1787/5/6 1823/5/6
f 1788/5/6 1789/5/6 1824/5/6
f 1824/5/6 1789/5/6 1825/5/6
f 1790/5/6 1791/5/6 1826/5/6
f 1826/5/6 1791/5/6 1827/5/6
f 1792/5/6 1793/5/6 1828/5/6
f 1828/5/6 1793/5/6 1829/5/6
f 1794/5/6 1795/5/6 1830/5/6
f 1830/5/6 1795/5/6 1831/5/6
f 1796/5/6 1797/5/6 1832/5/6
f 1832/5/6 1797/5/6 1833/5/6
f 1798/5/6 1799/5/6 1834/5/6
f 1834/5/6 1799/5/6 1835/5/6
f 1800/5/6 1801/5/6 1836/5/6
f 1836/5/6 1801/5/6 1837/5/6
f 1802/5/6 1803/5/6 1838/5/6
f 1838/5/6 1803/5/6 1839/5/6
f 1734/4/6 1805/4/6 1840/4/6
f 1840/4/6 1805/4/6 1841/4/6
f 1806/5/6 1807/5/6 1842/5/6
f 1842/5/6 1807/5/6 1843/5/6
f 1808/5/6 1809/5/6 1844/5/6
f 1844/5/6 1809/5/6 1845/5/6
f 1810/4/6 1601/4/6 1846/4/6
f 1838/5/6 1839/5/6 1847/5/6
f 1834/5/6 1835/5/6 1847/5/6
f 1830/5/6 1831/5/6 1847/5/6
f 1832/5/6 1833/5/6 1847/5/6
f 1836/5/6 1837/5/6 1847/5/6
f 1828/5/6 1829/5/6 1847/5/6
f 1826/5/6 1827/5/6 1847/5/6
f 1573/4/6 1815/4/6 1847/4/6
f 1839/5/6 1840/5/6 1847/5/6
f 1824/5/6 1825/5/6 1847/5/6
f 1837/5/6 1838/5/6 1847/5/6
f 1816/5/6 1817/5/6 1847/5/6
f 1835/5/6 1836/5/6 1847/5/6
f 1822/5/6 1823/5/6 1847/5/6
f 1833/5/6 1834/5/6 1847/5/6
f 1818/5/6 1819/5/6 1847/5/6
f 1831/5/6 1832/5/6 1847/5/6
f 1820/5/6 1821/5/6 1847/5/6
f 1829/5/6 1830/5/6 1847/5/6
f 1815/5/6 1816/5/6 1847/5/6
f 1827/5/6 1828/5/6 1847/5/6
f 1817/5/6 1818/5/6 1847/5/6
f 1825/5/6 1826/5/6 1847/5/6
f 1819/5/6 1820/5/6 1847/5/6
f 1823/5/6 1824/5/6 1847/5/6
f 1821/5/6 1822/5/6 1847/5/6
f 1847/5/6 1840/5/6 1848/5/6
f 1848/5/6 1840/5/6 1849/5/6
f 1849/5/6 1840/5/6 1850/5/6
f 1850/5/6 1840/5/6 1851/5/6
f 1851/5/6 1840/5/6 1852/5/6
f 1852/5/6 1840/5/6 1853/5/6
f 1853/5/6 1840/5/6 1854/5/6
f 1854/5/6 1840/5/6 1855/5/6
f 1855/5/6 1840/5/6 1856/5/6
f 1856/5/6 1840/5/6 1857/5/6
f 1857/5/6 1840/5/6 1858/5/6
f 1858/5/6 1840/5/6 1859/5/6
f 1859/5/6 1840/5/6 1860/5/6
f 1860/5/6 1840/5/6 1861/5/6
f 1861/5/6 1840/5/6 1862/5/6
f 1862/5/6 1840/5/6 1863/5/6
f 1863/5/6 1840/5/6 1864/5/6
f 1864/5/6 1840/5/6 1865/5/6
f 1865/5/6 1840/5/6 1866/5/6
f 1866/5/6 1840/5/6 1867/5/6
f 1867/5/6 1840/5/6 1868/5/6
f 1868/5/6 1840/5/6 1869/5/6
f 1869/5/6 1840/5/6 1870/5/6
f 1870/5/6 1840/5/6 1871/5/6
f 1871/5/6 1840/5/6 1872/5/6
f 1872/5/6 1840/5/6 1873/5/6
f 1840/4/6 1841/4/6 1874/4/6
f 1873/5/6 1840/5/6 1874/5/6
f 1845/5/6 1846/5/6 1875/5/6
f 1874/4/6 1841/4/6 1875/4/6
f 1844/5/6 1845/5/6 1875/5/6
f 1843/5/6 1844/5/6 1875/5/6
f 1841/5/6 1842/5/6 1875/5/6
f 1842/5/6 1843/5/6 1875/5/6
f 1875/5/6 1846/5/6 1876/5/6
f 1876/5/6 1846/5/6 1877/5/6
f 1877/5/6 1846/5/6 1878/5/6
f 1878/5/6 1846/5/6 1879/5/6
f 1846/4/6 1601/4/6 1880/4/6
f 1879/5/6 1846/5/6 1880/5/6
f 1601/7/6 1741/7/6 1881/7/6
f 1777/7/6 1813/7/6 1881/7/6
f 1741/7/6 1777/7/6 1881/7/6
f 1813/7/6 1814/7/6 1881/7/6
f 1881/7/6 1814/7/6 1882/7/6
f 1573/4/6 1847/4/6 1883/4/6
f 1848/5/6 1849/5/6 1884/5/6
f 1884/5/6 1849/5/6 1885/5/6
f 1850/5/6 1851/5/6 1886/5/6
f 1886/5/6 1851/5/6 1887/5/6
f 1852/5/6 1853/5/6 1888/5/6
f 1888/5/6 1853/5/6 1889/5/6
f 1854/5/6 1855/5/6 1890/5/6
f 1890/5/6 1855/5/6 1891/5/6
f 1856/5/6 1857/5/6 1892/5/6
f 1892/5/6 1857/5/6 1893/5/6
f 1858/5/6 1859/5/6 1894/5/6
f 1894/5/6 1859/5/6 1895/5/6
f 1860/5/6 1861/5/6 1896/5/6
f 1896/5/6 1861/5/6 1897/5/6
f 1862/5/6 1863/5/6 1898/5/6
f 1898/5/6 1863/5/6 1899/5/6
f 1864/5/6 1865/5/6 1900/5/6
f 1900/5/6 1865/5/6 1901/5/6
f 1866/5/6 1867/5/6 1902/5/6
f 1902/5/6 1867/5/6 1903/5/6
f 1868/5/6 1869/5/6 1904/5/6
f 1904/5/6 1869/5/6 1905/5/6
f 1870/5/6 1871/5/6 1906/5/6
f 1906/5/6 1871/5/6 1907/5/6
f 1872/5/6 1873/5/6 1908/5/6
f 1908/5/6 1873/5/6 1909/5/6
f 1874/4/6 1875/4/6 1910/4/6
f 1910/4/6 1875/4/6 1911/4/6
f 1876/5/6 1877/5/6 1912/5/6
f 1912/5/6 1877/5/6 1913/5/6
f 1878/5/6 1879/5/6 1914/5/6
f 1914/5/6 1879/5/6 1915/5/6
f 1880/4/6 1601/4/6 1916/4/6
f 1601/7/6 1881/7/6 1917/7/6
f 1881/2/6 1882/2/6 1917/2/6
f 1882/7/6 1814/7/6 1918/7/6
f 1917/2/6 1882/2/6 1918/2/6
f 1906/5/6 1907/5/6 1919/5/6
f 1908/5/6 1909/5/6 1919/5/6
f 1900/5/6 1901/5/6 1919/5/6
f 1904/5/6 1905/5/6 1919/5/6
f 1898/5/6 1899/5/6 1919/5/6
f 1896/5/6 1897/5/6 1919/5/6
f 1902/5/6 1903/5/6 1919/5/6
f 1894/5/6 1895/5/6 1919/5/6
f 1909/5/6 1910/5/6 1919/5/6
f 1892/5/6 1893/5/6 1919/5/6
f 1907/5/6 1908/5/6 1919/5/6
f 1573/4/6 1883/4/6 1919/4/6
f 1905/5/6 1906/5/6 1919/5/6
f 1890/5/6 1891/5/6 1919/5/6
f 1903/5/6 1904/5/6 1919/5/6
f 1884/5/6 1885/5/6 1919/5/6
f 1901/5/6 1902/5/6 1919/5/6
f 1888/5/6 1889/5/6 1919/5/6
f 1899/5/6 1900/5/6 1919/5/6
f 1886/5/6 1887/5/6 1919/5/6
f 1897/5/6 1898/5/6 1919/5/6
f 1883/5/6 1884/5/6 1919/5/6
f 1895/5/6 1896/5/6 1919/5/6
f 1885/5/6 1886/5/6 1919/5/6
f 1893/5/6 1894/5/6 1919/5/6
f 1887/5/6 1888/5/6 1919/5/6
f 1891/5/6 1892/5/6 1919/5/6
f 1889/5/6 1890/5/6 1919/5/6
f 1919/5/6 1910/5/6 1920/5/6
f 1920/5/6 1910/5/6 1921/5/6
f 1921/5/6 1910/5/6 1922/5/6
f 1922/5/6 1910/5/6 1923/5/6
f 1923/5/6 1910/5/6 1924/5/6
f 1924/5/6 1910/5/6 1925/5/6
f 1925/5/6 1910/5/6 1926/5/6
f 1926/5/6 1910/5/6 1927/5/6
f 1927/5/6 1910/5/6 1928/5/6
f 1928/5/6 1910/5/6 1929/5/6
f 1929/5/6 1910/5/6 1930/5/6
f 1930/5/6 1910/5/6 1931/5/6
f 1931/5/6 1910/5/6 1932/5/6
f 1932/5/6 1910/5/6 1933/5/6
f 1933/5/6 1910/5/6 1934/5/6
f 1934/5/6 1910/5/6 1935/5/6
f 1935/5/6 1910/5/6 1936/5/6
f 1936/5/6 1910/5/6 1937/5/6
f 1937/5/6 1910/5/6 1938/5/6
f 1938/5/6 1910/5/6 1939/5/6
f 1939/5/6 1910/5/6 1940/5/6
f 1940/5/6 1910/5/6 1941/5/6
f 1941/5/6 1910/5/6 1942/5/6
f 1942/5/6 1910/5/6 1943/5/6
f 1910/4/6 1911/4/6 1944/4/6
f 1943/5/6 1910/5/6 1944/5/6
f 1914/5/6 1915/5/6 1945/5/6
f 1944/4/6 1911/4/6 1945/4/6
f 1912/5/6 1913/5/6 1945/5/6
f 1913/5/6 1914/5/6 1945/5/6
f 1911/5/6 1912/5/6 1945/5/6
f 1915/5/6 1916/5/6 1945/5/6
f 1945/5/6 1916/5/6 1946/5/6
f 1946/5/6 1916/5/6 1947/5/6
f 1947/5/6 1916/5/6 1948/5/6
f 1948/5/6 1916/5/6 1949/5/6
f 1916/4/6 1601/4/6 1950/4/6
f 1949/5/6 1916/5/6 1950/5/6
f 1917/7/6 1918/7/6 1951/7/6
f 1601/7/6 1917/7/6 1951/7/6
f 1918/7/6 1814/7/6 1952/7/6
f 1951/7/6 1918/7/6 1952/7/6
f 1601/7/6 1951/7/6 1953/7/6
f 1951/2/6 1952/2/6 1953/2/6
f 1952/7/6 1814/7/6 1954/7/6
f 1953/2/6 1952/2/6 1954/2/6
f 1573/4/6 1919/4/6 1955/4/6
f 1920/4/6 1921/4/6 1956/4/6
f 1956/4/6 1921/4/6 1957/4/6
f 1922/5/6 1923/5/6 1958/5/6
f 1958/5/6 1923/5/6 1959/5/6
f 1924/5/6 1925/5/6 1960/5/6
f 1960/5/6 1925/5/6 1961/5/6
f 1926/5/6 1927/5/6 1962/5/6
f 1962/5/6 1927/5/6 1963/5/6
f 1928/5/6 1929/5/6 1964/5/6
f 1964/5/6 1929/5/6 1965/5/6
f 1930/5/6 1931/5/6 1966/5/6
f 1966/5/6 1931/5/6 1967/5/6
f 1932/5/6 1933/5/6 1968/5/6
f 1968/5/6 1933/5/6 1969/5/6
f 1934/5/6 1935/5/6 1970/5/6
f 1970/5/6 1935/5/6 1971/5/6
f 1936/5/6 1937/5/6 1972/5/6
f 1972/5/6 1937/5/6 1973/5/6
f 1938/5/6 1939/5/6 1974/5/6
f 1974/5/6 1939/5/6 1975/5/6
f 1940/5/6 1941/5/6 1976/5/6
f 1976/5/6 1941/5/6 1977/5/6
f 1942/5/6 1943/5/6 1978/5/6
f 1978/5/6 1943/5/6 1979/5/6
f 1944/4/6 1945/4/6 1980/4/6
f 1980/4/6 1945/4/6 1981/4/6
f 1946/5/6 1947/5/6 1982/5/6
f 1982/5/6 1947/5/6 1983/5/6
f 1948/5/6 1949/5/6 1984/5/6
f 1984/5/6 1949/5/6 1985/5/6
f 1950/4/6 1601/4/6 1986/4/6
f 1601/7/6 1953/7/6 1987/7/6
f 1953/7/6 1954/7/6 1987/7/6
f 1986/4/6 1601/4/6 1987/4/6
f 1602/4/6 1574/4/6 1988/4/6
f 1987/7/6 1954/7/6 1988/7/6
f 1814/7/6 1602/7/6 1988/7/6
f 1954/7/6 1814/7/6 1988/7/6
f 1985/4/6 1986/4/6 1989/4/6
f 1986/4/6 1987/4/6 1989/4/6
f 1987/4/6 1988/4/6 1989/4/6
f 1981/4/6 1982/4/6 1989/4/6
f 1976/4/6 1977/4/6 1989/4/6
f 1979/4/6 1980/4/6 1989/4/6
f 1980/4/6 1981/4/6 1989/4/6
f 1977/4/6 1978/4/6 1989/4/6
f 1984/4/6 1985/4/6 1989/4/6
f 1975/4/6 1976/4/6 1989/4/6
f 1978/4/6 1979/4/6 1989/4/6
f 1973/4/6 1974/4/6 1989/4/6
f 1974/4/6 1975/4/6 1989/4/6
f 1971/4/6 1972/4/6 1989/4/6
f 1970/4/6 1971/4/6 1989/4/6
f 1969/4/6 1970/4/6 1989/4/6
f 1983/4/6 1984/4/6 1989/4/6
f 1967/4/6 1968/4/6 1989/4/6
f 1968/4/6 1969/4/6 1989/4/6
f 1965/4/6 1966/4/6 1989/4/6
f 1972/4/6 1973/4/6 1989/4/6
f 1963/4/6 1964/4/6 1989/4/6
f 1982/4/6 1983/4/6 1989/4/6
f 1961/4/6 1962/4/6 1989/4/6
f 1966/4/6 1967/4/6 1989/4/6
f 1959/4/6 1960/4/6 1989/4/6
f 1573/4/6 1955/4/6 1989/4/6
f 1957/4/6 1958/4/6 1989/4/6
f 1964/4/6 1965/4/6 1989/4/6
f 1955/4/6 1956/4/6 1989/4/6
f 1956/4/6 1957/4/6 1989/4/6
f 1962/4/6 1963/4/6 1989/4/6
f 1960/4/6 1961/4/6 1989/4/6
f 1958/4/6 1959/4/6 1989/4/6
f 1988/4/6 1574/4/6 1990/4/6
f 1989/4/6 1988/4/6 1990/4/6
f 1991/6/6 1992/6/6 2017/6/6
f 2017/6/6 1992/6/6 2018/6/6
f 1993/6/6 1994/6/6 2019/6/6
f 2019/6/6 1994/6/6 2020/6/6
f 1995/6/6 1996/6/6 2021/6/6
f 2021/6/6 1996/6/6 2022/6/6
f 1997/6/6 1998/6/6 2023/6/6
f 2023/6/6 1998/6/6 2024/6/6
f 1999/6/6 2000/6/6 2025/6/6
f 2025/6/6 2000/6/6 2026/6/6
f 2001/6/6 2002/6/6 2027/6/6
f 2027/6/6 2002/6/6 2028/6/6
f 2003/6/6 2004/6/6 2029/6/6
f 2029/6/6 2004/6/6 2030/6/6
f 2005/6/6 2006/6/6 2031/6/6
f 2031/6/6 2006/6/6 2032/6/6
f 2007/6/6 2008/6/6 2033/6/6
f 2033/6/6 2008/6/6 2034/6/6
f 2009/6/6 2010/6/6 2035/6/6
f 2035/6/6 2010/6/6 2036/6/6
f 2011/6/6 2012/6/6 2037/6/6
f 2037/6/6 2012/6/6 2038/6/6
f 2013/6/6 2014/6/6 2039/6/6
f 2039/6/6 2014/6/6 2040/6/6
f 2015/6/6 2016/6/6 2041/6/6
f 2041/6/6 2016/6/6 2042/6/6
f 2043/6/6 2044/6/6 2071/6/6
f 2071/6/6 2044/6/6 2072/6/6
f 2045/6/6 2046/6/6 2073/6/6
f 2073/6/6 2046/6/6 2074/6/6
f 2047/6/6 2048/6/6 2075/6/6
f 2075/6/6 2048/6/6 2076/6/6
f 2049/6/6 2050/6/6 2077/6/6
f 2077/6/6 2050/6/6 2078/6/6
f 2051/6/6 2052/6/6 2079/6/6
f 2079/6/6 2052/6/6 2080/6/6
f 2053/6/6 2054/6/6 2081/6/6
f 2081/6/6 2054/6/6 2082/6/6
f 2055/6/6 2056/6/6 2083/6/6
f 2083/6/6 2056/6/6 2084/6/6
f 2057/6/6 2058/6/6 2085/6/6
f 2085/6/6 2058/6/6 2086/6/6
f 2059/6/6 2060/6/6 2087/6/6
f 2087/6/6 2060/6/6 2088/6/6
f 2061/6/6 2062/6/6 2089/6/6
f 2089/6/6 2062/6/6 2090/6/6
f 2063/6/6 2064/6/6 2091/6/6
f 2091/6/6 2064/6/6 2092/6/6
f 2065/6/6 2066/6/6 2093/6/6
f 2093/6/6 2066/6/6 2094/6/6
f 2067/6/6 2068/6/6 2095/6/6
f 2095/6/6 2068/6/6 2096/6/6
f 2069/6/6 2070/6/6 2097/6/6
f 2097/6/6 2070/6/6 2098/6/6
f 2099/6/6 2100/6/6 2133/6/6
f 2133/6/6 2100/6/6 2134/6/6
f 2101/6/6 2102/6/6 2135/6/6
f 2135/6/6 2102/6/6 2136/6/6
f 2103/6/6 2104/6/6 2137/6/6
f 2137/6/6 2104/6/6 2138/6/6
f 2105/6/6 2106/6/6 2139/6/6
f 2139/6/6 2106/6/6 2140/6/6
f 2107/6/6 2108/6/6 2141/6/6
f 2141/6/6 2108/6/6 2142/6/6
f 2109/6/6 2110/6/6 2143/6/6
f 2143/6/6 2110/6/6 2144/6/6
f 2111/6/6 2112/6/6 2145/6/6
f 2145/6/6 2112/6/6 2146/6/6
f 2113/6/6 2114/6/6 2147/6/6
f 2147/6/6 2114/6/6 2148/6/6
f 2115/6/6 2116/6/6 2149/6/6
f 2149/6/6 2116/6/6 2150/6/6
f 2117/6/6 2118/6/6 2151/6/6
f 2151/6/6 2118/6/6 2152/6/6
f 2119/6/6 2120/6/6 2153/6/6
f 2153/6/6 2120/6/6 2154/6/6
f 2121/6/6 2122/6/6 2155/6/6
f 2155/6/6 2122/6/6 2156/6/6
f 2123/6/6 2124/6/6 2157/6/6
f 2157/6/6 2124/6/6 2158/6/6
f 2127/6/6 2128/6/6 2159/6/6
f 2159/6/6 2128/6/6 2160/6/6
f 2129/6/6 2130/6/6 2161/6/6
f 2161/6/6 2130/6/6 2162/6/6
f 2131/6/6 2132/6/6 2163/6/6
f 2163/6/6 2132/6/6 2164/6/6
f 2125/6/6 2126/6/6 2190/6/6
f 2165/6/6 2166/6/6 2197/6/6
f 2197/6/6 2166/6/6 2198/6/6
f 2167/6/6 2168/6/6 2199/6/6
f 2199/6/6 2168/6/6 2200/6/6
f 2169/6/6 2170/6/6 2201/6/6
f 2201/6/6 2170/6/6 2202/6/6
f 2171/6/6 2172/6/6 2203/6/6
f 2203/6/6 2172/6/6 2204/6/6
f 2173/6/6 2174/6/6 2205/6/6
f 2205/6/6 2174/6/6 2206/6/6
f 2175/6/6 2176/6/6 2207/6/6
f 2207/6/6 2176/6/6 2208/6/6
f 2177/6/6 2178/6/6 2209/6/6
f 2209/6/6 2178/6/6 2210/6/6
f 2179/6/6 2180/6/6 2211/6/6
f 2211/6/6 2180/6/6 2212/6/6
f 2181/6/6 2182/6/6 2213/6/6
f 2213/6/6 2182/6/6 2214/6/6
f 2183/6/6 2184/6/6 2215/6/6
f 2215/6/6 2184/6/6 2216/6/6
f 2185/6/6 2186/6/6 2217/6/6
f 2217/6/6 2186/6/6 2218/6/6
f 2187/6/6 2188/6/6 2219/6/6
f 2219/6/6 2188/6/6 2220/6/6
f 2189/6/6 2190/6/6 2221/6/6
f 2190/6/6 2126/6/6 2222/6/6
f 2221/6/6 2190/6/6 2222/6/6
f 2191/6/6 2192/6/6 2223/6/6
f 2223/6/6 2192/6/6 2224/6/6
f 2193/6/6 2194/6/6 2225/6/6
f 2225/6/6 2194/6/6 2226/6/6
f 2195/6/6 2196/6/6 2227/6/6
f 2227/6/6 2196/6/6 2228/6/6
f 2229/6/6 2230/6/6 2263/6/6
f 2263/6/6 2230/6/6 2264/6/6
f 2231/6/6 2232/6/6 2265/6/6
f 2265/6/6 2232/6/6 2266/6/6
f 2233/6/6 2234/6/6 2267/6/6
f 2267/6/6 2234/6/6 2268/6/6
f 2235/6/6 2236/6/6 2269/6/6
f 2269/6/6 2236/6/6 2270/6/6
f 2237/6/6 2238/6/6 2271/6/6
f 2271/6/6 2238/6/6 2272/6/6
f 2239/6/6 2240/6/6 2273/6/6
f 2273/6/6 2240/6/6 2274/6/6
f 2241/6/6 2242/6/6 2275/6/6
f 2275/6/6 2242/6/6 2276/6/6
f 2243/6/6 2244/6/6 2277/6/6
f 2277/6/6 2244/6/6 2278/6/6
f 2245/6/6 2246/6/6 2279/6/6
f 2279/6/6 2246/6/6 2280/6/6
f 2247/6/6 2248/6/6 2281/6/6
f 2281/6/6 2248/6/6 2282/6/6
f 2249/6/6 2250/6/6 2283/6/6
f 2283/6/6 2250/6/6 2284/6/6
f 2251/6/6 2252/6/6 2285/6/6
f 2285/6/6 2252/6/6 2286/6/6
f 2253/6/6 2254/6/6 2287/6/6
f 2287/6/6 2254/6/6 2288/6/6
f 2255/6/6 2256/6/6 2289/6/6
f 2289/6/6 2256/6/6 2290/6/6
f 2257/6/6 2258/6/6 2291/6/6
f 2291/6/6 2258/6/6 2292/6/6
f 2259/6/6 2260/6/6 2293/6/6
f 2293/6/6 2260/6/6 2294/6/6
f 2261/6/6 2262/6/6 2295/6/6
f 2295/6/6 2262/6/6 2296/6/6
f 2297/6/6 2298/6/6 2329/6/6
f 2329/6/6 2298/6/6 2330/6/6
f 2299/6/6 2300/6/6 2331/6/6
f 2331/6/6 2300/6/6 2332/6/6
f 2301/6/6 2302/6/6 2333/6/6
f 2333/6/6 2302/6/6 2334/6/6
f 2303/6/6 2304/6/6 2335/6/6
f 2335/6/6 2304/6/6 2336/6/6
f 2305/6/6 2306/6/6 2337/6/6
f 2337/6/6 2306/6/6 2338/6/6
f 2307/6/6 2308/6/6 2339/6/6
f 2339/6/6 2308/6/6 2340/6/6
f 2309/6/6 2310/6/6 2341/6/6
f 2341/6/6 2310/6/6 2342/6/6
f 2311/6/6 2312/6/6 2343/6/6
f 2343/6/6 2312/6/6 2344/6/6
f 2313/6/6 2314/6/6 2345/6/6
f 2345/6/6 2314/6/6 2346/6/6
f 2315/6/6 2316/6/6 2347/6/6
f 2347/6/6 2316/6/6 2348/6/6
f 2317/6/6 2318/6/6 2349/6/6
f 2349/6/6 2318/6/6 2350/6/6
f 2319/6/6 2320/6/6 2351/6/6
f 2351/6/6 2320/6/6 2352/6/6
f 2321/6/6 2322/6/6 2353/6/6
f 2353/6/6 2322/6/6 2354/6/6
f 2323/6/6 2324/6/6 2355/6/6
f 2355/6/6 2324/6/6 2356/6/6
f 2325/6/6 2326/6/6 2357/6/6
f 2357/6/6 2326/6/6 2358/6/6
f 2327/6/6 2328/6/6 2359/6/6
f 2359/6/6 2328/6/6 2360/6/6
