# MagicaVoxel @ Ephtracy

# group
o 

# material
mtllib spaceship_inside-17.mtl
usemtl palette

# normals
vn -1 0 0
vn 1 0 0
vn 0 0 1
vn 0 0 -1
vn 0 -1 0
vn 0 1 0

# texcoords
vt 0.00195313 0.5
vt 0.0488281 0.5
vt 0.0527344 0.5
vt 0.0566406 0.5
vt 0.0605469 0.5
vt 0.857422 0.5
vt 0.880859 0.5
vt 0.884766 0.5
vt 0.888672 0.5
vt 0.892578 0.5
vt 0.896484 0.5
vt 0.900391 0.5
vt 0.904297 0.5
vt 0.986328 0.5

# verts
v -0.7 -0.75 0
v -0.7 -0.75 -0.1
v -0.7 -0.75 -0.2
v -0.7 -0.65 0.3
v -0.7 -0.65 0.2
v -0.7 -0.65 0.1
v -0.7 -0.65 0
v -0.7 -0.65 -0.1
v -0.7 -0.65 -0.2
v -0.7 -0.65 -0.3
v -0.7 -0.55 0.3
v -0.7 -0.55 0.2
v -0.7 -0.55 0.1
v -0.7 -0.55 0
v -0.7 -0.45 0.3
v -0.7 -0.45 0.2
v -0.7 -0.45 0.1
v -0.7 -0.35 -0.1
v -0.7 -0.35 -0.2
v -0.7 -0.35 -0.3
v -0.7 -0.25 0
v -0.7 -0.25 -0.1
v -0.7 -0.25 -0.2
v -0.7 -0.15 0
v -0.7 -0.15 -0.1
v -0.6 -0.95 0.3
v -0.6 -0.95 0.2
v -0.6 -0.95 0.1
v -0.6 -0.95 0
v -0.6 -0.95 -0.3
v -0.6 -0.85 0.3
v -0.6 -0.85 0.2
v -0.6 -0.85 0.1
v -0.6 -0.85 0
v -0.6 -0.85 -0.1
v -0.6 -0.85 -0.2
v -0.6 -0.85 -0.3
v -0.6 -0.75 0.3
v -0.6 -0.75 0.2
v -0.6 -0.75 0.1
v -0.6 -0.75 0
v -0.6 -0.75 -0.1
v -0.6 -0.75 -0.2
v -0.6 -0.75 -0.3
v -0.6 -0.65 0.3
v -0.6 -0.65 0.2
v -0.6 -0.65 0.1
v -0.6 -0.65 0
v -0.6 -0.65 -0.1
v -0.6 -0.65 -0.2
v -0.6 -0.65 -0.3
v -0.6 -0.55 0.2
v -0.6 -0.55 0.1
v -0.6 -0.55 0
v -0.6 -0.55 -0.1
v -0.6 -0.55 -0.2
v -0.6 -0.45 0.3
v -0.6 -0.45 0.2
v -0.6 -0.45 0.1
v -0.6 -0.45 0
v -0.6 -0.45 -0.1
v -0.6 -0.45 -0.2
v -0.6 -0.35 0.3
v -0.6 -0.35 0.2
v -0.6 -0.35 0.1
v -0.6 -0.35 0
v -0.6 -0.35 -0.1
v -0.6 -0.35 -0.2
v -0.6 -0.35 -0.3
v -0.6 -0.25 0.3
v -0.6 -0.25 0.2
v -0.6 -0.25 0.1
v -0.6 -0.25 0
v -0.6 -0.25 -0.1
v -0.6 -0.25 -0.2
v -0.6 -0.25 -0.3
v -0.6 -0.15 0.3
v -0.6 -0.15 0.1
v -0.6 -0.15 0
v -0.6 -0.15 -0.1
v -0.6 -0.15 -0.2
v -0.6 -0.15 -0.3
v -0.6 -0.0500001 0
v -0.6 -0.0500001 -0.1
v -0.5 -0.95 0.4
v -0.5 -0.95 0.3
v -0.5 -0.95 -0.3
v -0.5 -0.95 -0.4
v -0.5 -0.85 0.4
v -0.5 -0.85 0.3
v -0.5 -0.85 -0.3
v -0.5 -0.85 -0.4
v -0.5 -0.75 0.4
v -0.5 -0.75 0.3
v -0.5 -0.75 -0.3
v -0.5 -0.75 -0.4
v -0.5 -0.65 0.4
v -0.5 -0.65 0.3
v -0.5 -0.65 -0.3
v -0.5 -0.65 -0.4
v -0.5 -0.55 0.4
v -0.5 -0.55 0.3
v -0.5 -0.55 -0.3
v -0.5 -0.55 -0.4
v -0.5 -0.45 0.5
v -0.5 -0.45 0.4
v -0.5 -0.45 0.3
v -0.5 -0.45 -0.3
v -0.5 -0.45 -0.4
v -0.5 -0.35 0.5
v -0.5 -0.35 0.4
v -0.5 -0.35 0.3
v -0.5 -0.35 -0.3
v -0.5 -0.35 -0.4
v -0.5 -0.25 0.5
v -0.5 -0.25 0.4
v -0.5 -0.25 0.3
v -0.5 -0.25 -0.3
v -0.5 -0.15 0.5
v -0.5 -0.15 0.4
v -0.5 -0.15 0.3
v -0.5 -0.15 0.2
v -0.5 -0.15 -0.3
v -0.5 -0.15 -0.4
v -0.5 -0.0500001 0.3
v -0.5 -0.0500001 0.2
v -0.4 -0.95 0.5
v -0.4 -0.95 0.4
v -0.4 -0.95 -0.4
v -0.4 -0.95 -0.5
v -0.4 -0.85 0.5
v -0.4 -0.85 0.4
v -0.4 -0.85 -0.4
v -0.4 -0.85 -0.5
v -0.4 -0.85 -0.6
v -0.4 -0.75 0.5
v -0.4 -0.75 0.4
v -0.4 -0.75 -0.4
v -0.4 -0.75 -0.5
v -0.4 -0.75 -0.6
v -0.4 -0.65 0.4
v -0.4 -0.65 -0.4
v -0.4 -0.65 -0.5
v -0.4 -0.65 -0.6
v -0.4 -0.55 0.5
v -0.4 -0.55 0.4
v -0.4 -0.55 -0.4
v -0.4 -0.55 -0.5
v -0.4 -0.55 -0.6
v -0.4 -0.45 0.5
v -0.4 -0.45 0.4
v -0.4 -0.45 -0.4
v -0.4 -0.45 -0.5
v -0.4 -0.35 0.2
v -0.4 -0.35 0.1
v -0.4 -0.35 0
v -0.4 -0.35 -0.1
v -0.4 -0.35 -0.4
v -0.4 -0.35 -0.5
v -0.4 -0.25 0.2
v -0.4 -0.25 0.1
v -0.4 -0.25 0
v -0.4 -0.25 -0.1
v -0.4 -0.25 -0.4
v -0.4 -0.25 -0.5
v -0.4 -0.15 0.5
v -0.4 -0.15 0.4
v -0.4 -0.15 0.1
v -0.4 -0.15 0
v -0.4 -0.15 -0.1
v -0.4 -0.15 -0.2
v -0.4 -0.15 -0.4
v -0.4 -0.15 -0.5
v -0.4 -0.0500001 0.5
v -0.4 -0.0500001 0.4
v -0.4 -0.0500001 0.1
v -0.4 -0.0500001 0
v -0.4 -0.0500001 -0.1
v -0.4 -0.0500001 -0.2
v -0.4 0.05 0
v -0.4 0.05 -0.1
v -0.4 0.15 0
v -0.4 0.15 -0.1
v -0.3 -0.95 0.6
v -0.3 -0.95 0.5
v -0.3 -0.95 -0.5
v -0.3 -0.95 -0.6
v -0.3 -0.95 -0.7
v -0.3 -0.95 -0.8
v -0.3 -0.85 0.6
v -0.3 -0.85 0.5
v -0.3 -0.85 -0.5
v -0.3 -0.85 -0.6
v -0.3 -0.85 -0.7
v -0.3 -0.85 -0.8
v -0.3 -0.75 0.6
v -0.3 -0.75 0.5
v -0.3 -0.65 0.6
v -0.3 -0.65 0.5
v -0.3 -0.55 0.6
v -0.3 -0.55 0.5
v -0.3 -0.55 -0.5
v -0.3 -0.55 -0.6
v -0.3 -0.55 -0.7
v -0.3 -0.45 0.6
v -0.3 -0.45 0.5
v -0.3 -0.45 -0.5
v -0.3 -0.45 -0.6
v -0.3 -0.45 -0.7
v -0.3 -0.35 0.6
v -0.3 -0.35 0.5
v -0.3 -0.35 0.3
v -0.3 -0.35 0.2
v -0.3 -0.35 -0.5
v -0.3 -0.25 0.6
v -0.3 -0.25 0.5
v -0.3 -0.25 0.3
v -0.3 -0.25 0.2
v -0.3 -0.25 0.1
v -0.3 -0.25 0
v -0.3 -0.25 -0.1
v -0.3 -0.25 -0.3
v -0.3 -0.25 -0.5
v -0.3 -0.25 -0.6
v -0.3 -0.15 0.6
v -0.3 -0.15 0.5
v -0.3 -0.15 0.1
v -0.3 -0.15 0
v -0.3 -0.15 -0.1
v -0.3 -0.15 -0.2
v -0.3 -0.15 -0.3
v -0.3 -0.15 -0.5
v -0.3 -0.15 -0.6
v -0.3 -0.0500001 0.6
v -0.3 -0.0500001 0.5
v -0.3 -0.0500001 0.1
v -0.3 -0.0500001 0
v -0.3 -0.0500001 -0.1
v -0.3 -0.0500001 -0.2
v -0.3 0.05 0.1
v -0.3 0.05 0
v -0.3 0.05 -0.1
v -0.3 0.05 -0.2
v -0.3 0.15 0.1
v -0.3 0.15 0
v -0.2 -0.95 -0.6
v -0.2 -0.95 -0.7
v -0.2 -0.85 -0.6
v -0.2 -0.85 -0.7
v -0.2 -0.75 -0.6
v -0.2 -0.75 -0.7
v -0.2 -0.65 -0.6
v -0.2 -0.65 -0.7
v -0.2 -0.55 -0.6
v -0.2 -0.55 -0.7
v -0.2 -0.45 -0.6
v -0.2 -0.45 -0.7
v -0.2 -0.35 0.1
v -0.2 -0.35 0
v -0.2 -0.35 -0.1
v -0.2 -0.35 -0.2
v -0.2 -0.35 -0.6
v -0.2 -0.35 -0.7
v -0.2 -0.25 0.1
v -0.2 -0.25 0
v -0.2 -0.25 -0.1
v -0.2 -0.25 -0.2
v -0.2 -0.25 -0.6
v -0.2 -0.25 -0.7
v -0.2 -0.15 0.3
v -0.2 -0.15 0.2
v -0.2 -0.15 0.1
v -0.2 -0.15 -0.2
v -0.2 -0.15 -0.3
v -0.2 -0.0500001 0.3
v -0.2 -0.0500001 0.2
v -0.2 -0.0500001 0.1
v -0.2 -0.0500001 -0.2
v -0.2 -0.0500001 -0.3
v -0.2 0.05 0.2
v -0.2 0.05 0.1
v -0.2 0.05 -0.1
v -0.2 0.05 -0.2
v -0.2 0.05 -0.3
v -0.2 0.15 -0.1
v -0.2 0.15 -0.2
v -0.1 -0.35 0.7
v -0.1 -0.35 0.6
v -0.1 -0.35 0.2
v -0.1 -0.35 0.1
v -0.1 -0.25 0.7
v -0.1 -0.25 0.6
v -0.1 -0.25 0.2
v -0.1 -0.25 0.1
v -0.1 -0.25 -0.6
v -0.1 -0.25 -0.7
v -0.1 -0.15 0.7
v -0.1 -0.15 0.6
v -0.1 -0.15 0.5
v -0.1 -0.15 0.4
v -0.1 -0.15 0.3
v -0.1 -0.15 -0.3
v -0.1 -0.15 -0.4
v -0.1 -0.15 -0.5
v -0.1 -0.15 -0.6
v -0.1 -0.15 -0.7
v -0.1 -0.0500001 0.7
v -0.1 -0.0500001 0.6
v -0.1 -0.0500001 0.5
v -0.1 -0.0500001 0.4
v -0.1 -0.0500001 0.3
v -0.1 -0.0500001 0.2
v -0.1 -0.0500001 -0.3
v -0.1 -0.0500001 -0.4
v -0.1 -0.0500001 -0.5
v -0.1 -0.0500001 -0.6
v -0.1 0.05 0.6
v -0.1 0.05 0.5
v -0.1 0.05 0.4
v -0.1 0.05 0.3
v -0.1 0.05 0.2
v -0.1 0.05 -0.3
v -0.1 0.05 -0.4
v 0 -0.95 -0.7
v 0 -0.95 -0.8
v 0 -0.85 -0.7
v 0 -0.85 -0.8
v 0 0.05 -0.1
v 0 0.05 -0.2
v 0 0.15 -0.1
v 0 0.15 -0.2
v 0.1 -0.75 -0.6
v 0.1 -0.75 -0.7
v 0.1 -0.65 -0.6
v 0.1 -0.65 -0.7
v 0.1 0.05 0
v 0.1 0.05 -0.1
v 0.1 0.15 0
v 0.1 0.15 -0.1
v 0.2 -0.65 -0.6
v 0.2 -0.65 -0.7
v 0.2 -0.55 -0.6
v 0.2 -0.55 -0.7
v 0.2 -0.45 -0.6
v 0.2 -0.45 -0.7
v 0.2 -0.35 0.5
v 0.2 -0.35 0.4
v 0.2 -0.35 -0.4
v 0.2 -0.35 -0.5
v 0.2 -0.25 0.5
v 0.2 -0.25 0.4
v 0.2 -0.25 -0.4
v 0.2 -0.25 -0.5
v 0.2 -0.15 0.5
v 0.2 -0.15 0.4
v 0.2 -0.15 -0.4
v 0.2 -0.15 -0.5
v 0.3 -0.35 0.4
v 0.3 -0.35 0.3
v 0.3 -0.35 -0.3
v 0.3 -0.35 -0.4
v 0.3 -0.25 0.4
v 0.3 -0.25 0.3
v 0.3 -0.25 -0.3
v 0.3 -0.25 -0.4
v 0.3 -0.15 0.4
v 0.3 -0.15 0.3
v 0.3 -0.15 -0.3
v 0.3 -0.15 -0.4
v 0.4 -0.35 0.3
v 0.4 -0.35 0.2
v 0.4 -0.35 -0.2
v 0.4 -0.35 -0.3
v 0.4 -0.25 0.3
v 0.4 -0.25 0.2
v 0.4 -0.25 -0.2
v 0.4 -0.25 -0.3
v 0.4 -0.15 0.3
v 0.4 -0.15 0.2
v 0.4 -0.15 -0.2
v 0.4 -0.15 -0.3
v 0.5 -0.35 0.2
v 0.5 -0.35 0.1
v 0.5 -0.35 0
v 0.5 -0.35 -0.1
v 0.5 -0.35 -0.2
v 0.5 -0.25 0.2
v 0.5 -0.25 0.1
v 0.5 -0.25 0
v 0.5 -0.25 -0.1
v 0.5 -0.25 -0.2
v 0.5 -0.15 0.2
v 0.5 -0.15 -0.1
v 0.5 -0.15 -0.2
v -0.5 -0.35 0.2
v -0.5 -0.35 0.1
v -0.5 -0.35 0
v -0.5 -0.35 -0.1
v -0.5 -0.35 -0.2
v -0.5 -0.25 0.2
v -0.5 -0.25 0.1
v -0.5 -0.25 0
v -0.5 -0.25 -0.1
v -0.5 -0.25 -0.2
v -0.5 -0.15 0.1
v -0.5 -0.15 0
v -0.5 -0.15 -0.1
v -0.5 -0.15 -0.2
v -0.4 -0.35 0.3
v -0.4 -0.35 0.2
v -0.4 -0.35 -0.2
v -0.4 -0.35 -0.3
v -0.4 -0.25 0.3
v -0.4 -0.25 0.2
v -0.4 -0.25 -0.2
v -0.4 -0.25 -0.3
v -0.4 -0.15 -0.2
v -0.4 -0.15 -0.3
v -0.3 -0.35 0.4
v -0.3 -0.35 0.3
v -0.3 -0.35 0.1
v -0.3 -0.35 0
v -0.3 -0.35 -0.3
v -0.3 -0.35 -0.4
v -0.3 -0.25 0.4
v -0.3 -0.25 0.3
v -0.3 -0.25 0.1
v -0.3 -0.25 0
v -0.3 -0.25 -0.3
v -0.3 -0.25 -0.4
v -0.3 -0.15 0.4
v -0.3 -0.15 0.3
v -0.3 -0.15 0.2
v -0.3 -0.15 -0.3
v -0.3 -0.15 -0.4
v -0.3 -0.0500001 0.3
v -0.3 -0.0500001 0.2
v -0.2 -0.95 -0.7
v -0.2 -0.95 -0.8
v -0.2 -0.85 -0.7
v -0.2 -0.85 -0.8
v -0.2 -0.35 0.5
v -0.2 -0.35 0.4
v -0.2 -0.35 0.3
v -0.2 -0.35 0.2
v -0.2 -0.35 0.1
v -0.2 -0.35 -0.4
v -0.2 -0.35 -0.5
v -0.2 -0.25 0.5
v -0.2 -0.25 0.2
v -0.2 -0.25 0.1
v -0.2 -0.25 -0.4
v -0.2 -0.25 -0.5
v -0.2 -0.15 0.5
v -0.2 -0.15 0.4
v -0.2 -0.15 0.3
v -0.2 -0.15 0.2
v -0.2 -0.15 -0.4
v -0.2 -0.15 -0.5
v -0.2 -0.0500001 0.5
v -0.2 -0.0500001 0.4
v -0.1 -0.85 -0.6
v -0.1 -0.85 -0.7
v -0.1 -0.75 -0.6
v -0.1 -0.75 -0.7
v -0.1 -0.65 -0.6
v -0.1 -0.65 -0.7
v -0.1 0.05 -0.1
v -0.1 0.05 -0.2
v -0.1 0.15 -0.1
v -0.1 0.15 -0.2
v 0 -0.95 -0.6
v 0 -0.95 -0.7
v 0 -0.85 -0.6
v 0 -0.85 -0.7
v 0 -0.65 -0.6
v 0 -0.65 -0.7
v 0 -0.55 -0.6
v 0 -0.55 -0.7
v 0 -0.35 0.7
v 0 -0.35 0.6
v 0 -0.25 0.7
v 0 -0.25 0.6
v 0 -0.15 0.7
v 0 -0.15 0.6
v 0 -0.15 0.5
v 0 -0.15 0.4
v 0 -0.15 0.3
v 0 -0.0500001 0.7
v 0 -0.0500001 0.6
v 0 -0.0500001 0.5
v 0 -0.0500001 0.4
v 0 -0.0500001 0.3
v 0 -0.0500001 0.2
v 0 -0.0500001 0.1
v 0 0.05 0.6
v 0 0.05 0.5
v 0 0.05 0.4
v 0 0.05 0.3
v 0 0.05 0.1
v 0 0.05 0
v 0 0.05 -0.1
v 0 0.15 0.1
v 0 0.15 0
v 0 0.15 -0.1
v 0.1 -0.95 -0.7
v 0.1 -0.95 -0.8
v 0.1 -0.85 -0.7
v 0.1 -0.85 -0.8
v 0.1 -0.55 -0.6
v 0.1 -0.55 -0.7
v 0.1 -0.45 -0.6
v 0.1 -0.45 -0.7
v 0.1 -0.35 0.2
v 0.1 -0.35 0.1
v 0.1 -0.35 0
v 0.1 -0.35 -0.6
v 0.1 -0.35 -0.7
v 0.1 -0.25 0.2
v 0.1 -0.25 0.1
v 0.1 -0.25 0
v 0.1 -0.25 -0.6
v 0.1 -0.15 0.3
v 0.1 -0.15 0.2
v 0.1 -0.15 0.1
v 0.1 -0.15 -0.3
v 0.1 -0.15 -0.5
v 0.1 -0.15 -0.6
v 0.1 -0.15 -0.7
v 0.1 -0.0500001 0.3
v 0.1 -0.0500001 0.2
v 0.1 -0.0500001 0.1
v 0.1 -0.0500001 -0.3
v 0.1 -0.0500001 -0.4
v 0.1 -0.0500001 -0.5
v 0.1 -0.0500001 -0.6
v 0.1 0.05 -0.1
v 0.1 0.05 -0.2
v 0.1 0.05 -0.3
v 0.1 0.05 -0.4
v 0.1 0.15 -0.1
v 0.1 0.15 -0.2
v 0.2 -0.75 -0.6
v 0.2 -0.75 -0.7
v 0.2 -0.65 -0.6
v 0.2 -0.65 -0.7
v 0.2 -0.45 -0.6
v 0.2 -0.45 -0.7
v 0.2 -0.35 0
v 0.2 -0.35 -0.1
v 0.2 -0.35 -0.2
v 0.2 -0.35 -0.6
v 0.2 -0.35 -0.7
v 0.2 -0.25 0.2
v 0.2 -0.25 0.1
v 0.2 -0.25 0
v 0.2 -0.25 -0.1
v 0.2 -0.25 -0.2
v 0.2 -0.25 -0.3
v 0.2 -0.15 0.2
v 0.2 -0.15 0.1
v 0.2 -0.15 0
v 0.2 -0.15 -0.2
v 0.2 -0.15 -0.3
v 0.2 -0.0500001 0.1
v 0.2 -0.0500001 0
v 0.2 -0.0500001 -0.2
v 0.2 -0.0500001 -0.3
v 0.2 0.05 0.1
v 0.2 0.05 0
v 0.2 0.05 -0.1
v 0.2 0.05 -0.2
v 0.2 0.05 -0.3
v 0.2 0.15 0
v 0.2 0.15 -0.1
v 0.3 -0.95 0.6
v 0.3 -0.95 0.5
v 0.3 -0.95 -0.5
v 0.3 -0.95 -0.6
v 0.3 -0.85 0.6
v 0.3 -0.85 0.5
v 0.3 -0.85 -0.5
v 0.3 -0.85 -0.6
v 0.3 -0.75 0.6
v 0.3 -0.75 0.5
v 0.3 -0.75 -0.5
v 0.3 -0.65 0.6
v 0.3 -0.65 0.5
v 0.3 -0.65 -0.5
v 0.3 -0.65 -0.6
v 0.3 -0.65 -0.7
v 0.3 -0.55 0.6
v 0.3 -0.55 0.5
v 0.3 -0.55 -0.5
v 0.3 -0.55 -0.6
v 0.3 -0.55 -0.7
v 0.3 -0.45 0.6
v 0.3 -0.45 0.5
v 0.3 -0.45 -0.5
v 0.3 -0.45 -0.6
v 0.3 -0.45 -0.7
v 0.3 -0.35 0.6
v 0.3 -0.35 0.5
v 0.3 -0.35 -0.5
v 0.3 -0.35 -0.6
v 0.3 -0.25 0.6
v 0.3 -0.25 0.5
v 0.3 -0.15 0.6
v 0.3 -0.15 0.5
v 0.3 -0.15 0.1
v 0.3 -0.15 -0.2
v 0.3 -0.15 -0.5
v 0.3 -0.15 -0.6
v 0.3 -0.0500001 0.1
v 0.3 -0.0500001 0
v 0.3 -0.0500001 -0.2
v 0.3 0.05 0
v 0.3 0.05 -0.2
v 0.4 -0.95 0.5
v 0.4 -0.95 0.4
v 0.4 -0.95 -0.4
v 0.4 -0.95 -0.5
v 0.4 -0.85 0.5
v 0.4 -0.85 0.4
v 0.4 -0.85 -0.4
v 0.4 -0.75 0.5
v 0.4 -0.75 0.4
v 0.4 -0.75 -0.4
v 0.4 -0.75 -0.5
v 0.4 -0.65 0.5
v 0.4 -0.65 0.4
v 0.4 -0.65 -0.4
v 0.4 -0.65 -0.5
v 0.4 -0.55 0.5
v 0.4 -0.55 0.4
v 0.4 -0.55 -0.4
v 0.4 -0.45 0.5
v 0.4 -0.45 0.4
v 0.4 -0.45 -0.4
v 0.4 -0.45 -0.5
v 0.4 -0.35 0.5
v 0.4 -0.35 0.4
v 0.4 -0.35 -0.4
v 0.4 -0.35 -0.5
v 0.4 -0.25 0.4
v 0.4 -0.25 -0.4
v 0.4 -0.15 0.5
v 0.4 -0.15 0.4
v 0.4 -0.15 -0.4
v 0.4 -0.15 -0.5
v 0.5 -0.95 0.4
v 0.5 -0.95 0.3
v 0.5 -0.95 -0.3
v 0.5 -0.95 -0.4
v 0.5 -0.85 0.3
v 0.5 -0.85 -0.3
v 0.5 -0.85 -0.4
v 0.5 -0.75 0.4
v 0.5 -0.75 0.3
v 0.5 -0.75 -0.3
v 0.5 -0.75 -0.4
v 0.5 -0.65 0.4
v 0.5 -0.65 0.3
v 0.5 -0.65 -0.3
v 0.5 -0.65 -0.4
v 0.5 -0.55 0.4
v 0.5 -0.55 0.3
v 0.5 -0.55 -0.3
v 0.5 -0.55 -0.4
v 0.5 -0.45 0.4
v 0.5 -0.45 0.3
v 0.5 -0.45 -0.3
v 0.5 -0.45 -0.4
v 0.5 -0.35 0.4
v 0.5 -0.35 0.3
v 0.5 -0.35 -0.3
v 0.5 -0.35 -0.4
v 0.5 -0.25 0.4
v 0.5 -0.25 0.3
v 0.5 -0.25 -0.3
v 0.5 -0.25 -0.4
v 0.5 -0.15 0.4
v 0.5 -0.15 0.3
v 0.5 -0.15 -0.3
v 0.5 -0.15 -0.4
v 0.6 -0.95 0.3
v 0.6 -0.95 0.2
v 0.6 -0.95 0.1
v 0.6 -0.95 0
v 0.6 -0.95 -0.1
v 0.6 -0.95 -0.2
v 0.6 -0.95 -0.3
v 0.6 -0.85 0.3
v 0.6 -0.85 0.2
v 0.6 -0.85 0.1
v 0.6 -0.85 0
v 0.6 -0.85 -0.1
v 0.6 -0.85 -0.2
v 0.6 -0.85 -0.3
v 0.6 -0.75 0.3
v 0.6 -0.75 0.2
v 0.6 -0.75 0.1
v 0.6 -0.75 0
v 0.6 -0.75 -0.1
v 0.6 -0.75 -0.2
v 0.6 -0.65 0.3
v 0.6 -0.65 0.2
v 0.6 -0.65 0
v 0.6 -0.65 -0.1
v 0.6 -0.65 -0.2
v 0.6 -0.65 -0.3
v 0.6 -0.55 0.3
v 0.6 -0.55 0.2
v 0.6 -0.55 0.1
v 0.6 -0.55 0
v 0.6 -0.55 -0.1
v 0.6 -0.55 -0.2
v 0.6 -0.45 0.3
v 0.6 -0.45 0.2
v 0.6 -0.45 0.1
v 0.6 -0.45 0
v 0.6 -0.45 -0.1
v 0.6 -0.45 -0.3
v 0.6 -0.35 0.3
v 0.6 -0.35 0.2
v 0.6 -0.35 0.1
v 0.6 -0.35 0
v 0.6 -0.35 -0.1
v 0.6 -0.35 -0.2
v 0.6 -0.35 -0.3
v 0.6 -0.25 0.3
v 0.6 -0.25 0.2
v 0.6 -0.25 0.1
v 0.6 -0.25 0
v 0.6 -0.25 -0.1
v 0.6 -0.25 -0.2
v 0.6 -0.25 -0.3
v 0.6 -0.15 0.3
v 0.6 -0.15 0.2
v 0.6 -0.15 -0.1
v 0.6 -0.15 -0.3
v -0.1 -0.35 0.7
v -0.1 -0.25 0.7
v -0.1 -0.15 0.7
v -0.1 -0.0500001 0.7
v 0 -0.35 0.7
v 0 -0.25 0.7
v 0 -0.15 0.7
v 0 -0.0500001 0.7
v -0.3 -0.95 0.6
v -0.3 -0.85 0.6
v -0.3 -0.75 0.6
v -0.3 -0.65 0.6
v -0.3 -0.55 0.6
v -0.3 -0.45 0.6
v -0.3 -0.35 0.6
v -0.3 -0.25 0.6
v -0.3 -0.15 0.6
v -0.3 -0.0500001 0.6
v -0.2 -0.95 0.6
v -0.2 -0.85 0.6
v -0.2 -0.75 0.6
v -0.2 -0.65 0.6
v -0.2 -0.55 0.6
v -0.2 -0.45 0.6
v -0.2 -0.35 0.6
v -0.2 -0.25 0.6
v -0.2 -0.15 0.6
v -0.2 -0.0500001 0.6
v -0.1 -0.75 0.6
v -0.1 -0.65 0.6
v -0.1 -0.55 0.6
v -0.1 -0.45 0.6
v -0.1 -0.35 0.6
v -0.1 -0.25 0.6
v -0.1 -0.15 0.6
v -0.1 -0.0500001 0.6
v -0.1 0.05 0.6
v 0 -0.95 0.6
v 0 -0.85 0.6
v 0 -0.75 0.6
v 0 -0.65 0.6
v 0 -0.45 0.6
v 0 -0.35 0.6
v 0 -0.25 0.6
v 0 -0.15 0.6
v 0 -0.0500001 0.6
v 0 0.05 0.6
v 0.1 -0.95 0.6
v 0.1 -0.85 0.6
v 0.1 -0.75 0.6
v 0.1 -0.65 0.6
v 0.1 -0.55 0.6
v 0.1 -0.45 0.6
v 0.1 -0.35 0.6
v 0.1 -0.25 0.6
v 0.1 -0.15 0.6
v 0.2 -0.95 0.6
v 0.2 -0.85 0.6
v 0.2 -0.75 0.6
v 0.2 -0.65 0.6
v 0.2 -0.45 0.6
v 0.2 -0.35 0.6
v 0.2 -0.25 0.6
v 0.2 -0.15 0.6
v 0.3 -0.95 0.6
v 0.3 -0.85 0.6
v 0.3 -0.75 0.6
v 0.3 -0.65 0.6
v 0.3 -0.55 0.6
v 0.3 -0.45 0.6
v 0.3 -0.35 0.6
v 0.3 -0.25 0.6
v 0.3 -0.15 0.6
v -0.5 -0.45 0.5
v -0.5 -0.35 0.5
v -0.5 -0.25 0.5
v -0.5 -0.15 0.5
v -0.4 -0.95 0.5
v -0.4 -0.85 0.5
v -0.4 -0.75 0.5
v -0.4 -0.55 0.5
v -0.4 -0.45 0.5
v -0.4 -0.35 0.5
v -0.4 -0.25 0.5
v -0.4 -0.15 0.5
v -0.4 -0.0500001 0.5
v -0.3 -0.95 0.5
v -0.3 -0.85 0.5
v -0.3 -0.75 0.5
v -0.3 -0.65 0.5
v -0.3 -0.55 0.5
v -0.3 -0.45 0.5
v -0.3 -0.35 0.5
v -0.3 -0.25 0.5
v -0.3 -0.15 0.5
v -0.3 -0.0500001 0.5
v 0.3 -0.95 0.5
v 0.3 -0.85 0.5
v 0.3 -0.75 0.5
v 0.3 -0.65 0.5
v 0.3 -0.55 0.5
v 0.3 -0.45 0.5
v 0.3 -0.35 0.5
v 0.3 -0.25 0.5
v 0.3 -0.15 0.5
v 0.4 -0.95 0.5
v 0.4 -0.85 0.5
v 0.4 -0.75 0.5
v 0.4 -0.65 0.5
v 0.4 -0.55 0.5
v 0.4 -0.45 0.5
v 0.4 -0.35 0.5
v 0.4 -0.15 0.5
v -0.5 -0.95 0.4
v -0.5 -0.85 0.4
v -0.5 -0.75 0.4
v -0.5 -0.65 0.4
v -0.5 -0.55 0.4
v -0.5 -0.45 0.4
v -0.4 -0.95 0.4
v -0.4 -0.85 0.4
v -0.4 -0.75 0.4
v -0.4 -0.65 0.4
v -0.4 -0.55 0.4
v -0.4 -0.45 0.4
v 0.4 -0.95 0.4
v 0.4 -0.85 0.4
v 0.4 -0.75 0.4
v 0.4 -0.65 0.4
v 0.4 -0.55 0.4
v 0.4 -0.45 0.4
v 0.4 -0.35 0.4
v 0.4 -0.25 0.4
v 0.4 -0.15 0.4
v 0.5 -0.95 0.4
v 0.5 -0.75 0.4
v 0.5 -0.65 0.4
v 0.5 -0.55 0.4
v 0.5 -0.45 0.4
v 0.5 -0.35 0.4
v 0.5 -0.25 0.4
v 0.5 -0.15 0.4
v -0.7 -0.65 0.3
v -0.7 -0.55 0.3
v -0.7 -0.45 0.3
v -0.6 -0.95 0.3
v -0.6 -0.85 0.3
v -0.6 -0.75 0.3
v -0.6 -0.65 0.3
v -0.6 -0.55 0.3
v -0.6 -0.45 0.3
v -0.6 -0.35 0.3
v -0.6 -0.25 0.3
v -0.6 -0.15 0.3
v -0.5 -0.95 0.3
v -0.5 -0.85 0.3
v -0.5 -0.75 0.3
v -0.5 -0.65 0.3
v -0.5 -0.55 0.3
v -0.5 -0.45 0.3
v -0.5 -0.35 0.3
v -0.5 -0.25 0.3
v -0.5 -0.15 0.3
v -0.5 -0.0500001 0.3
v -0.4 -0.15 0.3
v -0.4 -0.0500001 0.3
v -0.3 -0.35 0.3
v -0.3 -0.25 0.3
v -0.3 -0.15 0.3
v -0.3 -0.0500001 0.3
v -0.2 -0.35 0.3
v -0.2 -0.15 0.3
v -0.2 -0.0500001 0.3
v -0.1 -0.15 0.3
v -0.1 -0.0500001 0.3
v -0.1 0.05 0.3
v 0 -0.15 0.3
v 0 -0.0500001 0.3
v 0 0.05 0.3
v 0.1 -0.15 0.3
v 0.1 -0.0500001 0.3
v 0.5 -0.95 0.3
v 0.5 -0.85 0.3
v 0.5 -0.75 0.3
v 0.5 -0.65 0.3
v 0.5 -0.55 0.3
v 0.5 -0.45 0.3
v 0.5 -0.35 0.3
v 0.5 -0.25 0.3
v 0.5 -0.15 0.3
v 0.6 -0.95 0.3
v 0.6 -0.85 0.3
v 0.6 -0.75 0.3
v 0.6 -0.65 0.3
v 0.6 -0.55 0.3
v 0.6 -0.45 0.3
v 0.6 -0.35 0.3
v 0.6 -0.25 0.3
v 0.6 -0.15 0.3
v -0.4 -0.35 0.2
v -0.4 -0.25 0.2
v -0.3 -0.35 0.2
v -0.3 -0.25 0.2
v -0.2 -0.25 0.2
v -0.2 -0.15 0.2
v -0.2 -0.0500001 0.2
v -0.2 0.05 0.2
v -0.1 -0.35 0.2
v -0.1 -0.25 0.2
v -0.1 -0.0500001 0.2
v -0.1 0.05 0.2
v 0 -0.35 0.2
v 0 -0.25 0.2
v 0 -0.15 0.2
v 0.1 -0.35 0.2
v 0.1 -0.25 0.2
v 0.1 -0.15 0.2
v 0.2 -0.25 0.2
v 0.2 -0.15 0.2
v -0.7 -0.65 0.1
v -0.7 -0.55 0.1
v -0.6 -0.65 0.1
v -0.6 -0.55 0.1
v -0.5 -0.35 0.1
v -0.5 -0.25 0.1
v -0.4 -0.35 0.1
v -0.4 -0.25 0.1
v -0.4 -0.15 0.1
v -0.4 -0.0500001 0.1
v -0.3 -0.15 0.1
v -0.3 -0.0500001 0.1
v -0.3 0.05 0.1
v -0.3 0.15 0.1
v -0.2 -0.35 0.1
v -0.2 -0.25 0.1
v -0.2 -0.15 0.1
v -0.2 -0.0500001 0.1
v -0.2 0.05 0.1
v -0.1 -0.35 0.1
v -0.1 -0.25 0.1
v -0.1 0.05 0.1
v -0.1 0.15 0.1
v 0 -0.0500001 0.1
v 0 0.05 0.1
v 0 0.15 0.1
v 0.1 -0.15 0.1
v 0.1 -0.0500001 0.1
v 0.1 0.05 0.1
v 0.2 -0.15 0.1
v 0.2 -0.0500001 0.1
v 0.2 0.05 0.1
v 0.3 -0.15 0.1
v 0.3 -0.0500001 0.1
v -0.7 -0.75 0
v -0.7 -0.65 0
v -0.7 -0.25 0
v -0.7 -0.15 0
v -0.6 -0.75 0
v -0.6 -0.65 0
v -0.6 -0.25 0
v -0.6 -0.15 0
v -0.6 -0.0500001 0
v -0.5 -0.25 0
v -0.5 -0.15 0
v -0.5 -0.0500001 0
v -0.4 -0.25 0
v -0.4 -0.15 0
v -0.4 -0.0500001 0
v -0.4 0.05 0
v -0.4 0.15 0
v -0.3 -0.35 0
v -0.3 -0.25 0
v -0.3 -0.15 0
v -0.3 -0.0500001 0
v -0.3 0.05 0
v -0.3 0.15 0
v -0.2 -0.35 0
v -0.2 -0.25 0
v 0.1 -0.35 0
v 0.1 -0.25 0
v 0.1 0.05 0
v 0.1 0.15 0
v 0.2 -0.35 0
v 0.2 -0.25 0
v 0.2 -0.0500001 0
v 0.2 0.05 0
v 0.2 0.15 0
v 0.3 -0.0500001 0
v 0.3 0.05 0
v -0.7 -0.35 -0.1
v -0.7 -0.25 -0.1
v -0.6 -0.35 -0.1
v -0.6 -0.25 -0.1
v 0 0.05 -0.1
v 0 0.15 -0.1
v 0.1 0.05 -0.1
v 0.1 0.15 -0.1
v -0.7 -0.65 -0.2
v -0.7 -0.35 -0.2
v -0.6 -0.65 -0.2
v -0.6 -0.55 -0.2
v -0.6 -0.45 -0.2
v -0.6 -0.35 -0.2
v -0.5 -0.35 -0.2
v -0.5 -0.25 -0.2
v -0.5 -0.15 -0.2
v -0.4 -0.35 -0.2
v -0.4 -0.25 -0.2
v -0.4 -0.15 -0.2
v 0.4 -0.35 -0.2
v 0.4 -0.25 -0.2
v 0.4 -0.15 -0.2
v 0.5 -0.35 -0.2
v 0.5 -0.25 -0.2
v 0.5 -0.15 -0.2
v -0.4 -0.35 -0.3
v -0.4 -0.25 -0.3
v -0.4 -0.15 -0.3
v -0.3 -0.35 -0.3
v -0.3 -0.25 -0.3
v -0.3 -0.15 -0.3
v 0.3 -0.35 -0.3
v 0.3 -0.25 -0.3
v 0.3 -0.15 -0.3
v 0.4 -0.35 -0.3
v 0.4 -0.25 -0.3
v 0.4 -0.15 -0.3
v -0.3 -0.35 -0.4
v -0.3 -0.25 -0.4
v -0.3 -0.15 -0.4
v -0.2 -0.35 -0.4
v -0.2 -0.25 -0.4
v -0.2 -0.15 -0.4
v 0.2 -0.35 -0.4
v 0.2 -0.25 -0.4
v 0.2 -0.15 -0.4
v 0.3 -0.35 -0.4
v 0.3 -0.25 -0.4
v 0.3 -0.15 -0.4
v -0.2 -0.35 -0.5
v -0.2 -0.25 -0.5
v -0.2 -0.15 -0.5
v -0.1 -0.35 -0.5
v -0.1 -0.25 -0.5
v -0.1 -0.15 -0.5
v 0 -0.35 -0.5
v 0 -0.25 -0.5
v 0 -0.15 -0.5
v 0.1 -0.35 -0.5
v 0.1 -0.25 -0.5
v 0.1 -0.15 -0.5
v 0.2 -0.35 -0.5
v 0.2 -0.25 -0.5
v 0.2 -0.15 -0.5
v -0.3 -0.95 -0.7
v -0.3 -0.85 -0.7
v -0.2 -0.95 -0.7
v -0.2 -0.85 -0.7
v 0 -0.95 -0.7
v 0 -0.85 -0.7
v 0.1 -0.95 -0.7
v 0.1 -0.85 -0.7
v -0.2 -0.35 0.5
v -0.2 -0.25 0.5
v -0.2 -0.15 0.5
v -0.2 -0.0500001 0.5
v -0.1 -0.35 0.5
v -0.1 -0.25 0.5
v -0.1 -0.15 0.5
v -0.1 -0.0500001 0.5
v 0 -0.35 0.5
v 0 -0.25 0.5
v 0 -0.15 0.5
v 0.1 -0.35 0.5
v 0.1 -0.25 0.5
v 0.1 -0.15 0.5
v 0.2 -0.35 0.5
v 0.2 -0.25 0.5
v 0.2 -0.15 0.5
v -0.4 -0.15 0.4
v -0.4 -0.0500001 0.4
v -0.3 -0.35 0.4
v -0.3 -0.25 0.4
v -0.3 -0.15 0.4
v -0.3 -0.0500001 0.4
v -0.2 -0.35 0.4
v -0.2 -0.15 0.4
v -0.2 -0.0500001 0.4
v -0.1 -0.0500001 0.4
v -0.1 0.05 0.4
v 0 -0.0500001 0.4
v 0 0.05 0.4
v 0.2 -0.35 0.4
v 0.2 -0.25 0.4
v 0.2 -0.15 0.4
v 0.3 -0.35 0.4
v 0.3 -0.25 0.4
v 0.3 -0.15 0.4
v -0.4 -0.35 0.3
v -0.4 -0.25 0.3
v -0.3 -0.35 0.3
v -0.3 -0.25 0.3
v 0.3 -0.35 0.3
v 0.3 -0.25 0.3
v 0.3 -0.15 0.3
v 0.4 -0.35 0.3
v 0.4 -0.25 0.3
v 0.4 -0.15 0.3
v -0.7 -0.65 0.2
v -0.7 -0.55 0.2
v -0.6 -0.65 0.2
v -0.6 -0.55 0.2
v -0.5 -0.35 0.2
v -0.5 -0.25 0.2
v -0.5 -0.15 0.2
v -0.5 -0.0500001 0.2
v -0.4 -0.35 0.2
v -0.4 -0.25 0.2
v -0.4 -0.15 0.2
v -0.4 -0.0500001 0.2
v -0.3 -0.15 0.2
v -0.3 -0.0500001 0.2
v 0.4 -0.35 0.2
v 0.4 -0.25 0.2
v 0.4 -0.15 0.2
v 0.5 -0.35 0.2
v 0.5 -0.25 0.2
v 0.5 -0.15 0.2
v -0.7 -0.55 0.1
v -0.7 -0.45 0.1
v -0.6 -0.55 0.1
v -0.6 -0.45 0.1
v -0.5 -0.25 0.1
v -0.5 -0.15 0.1
v -0.4 -0.25 0.1
v -0.4 -0.15 0.1
v -0.3 -0.35 0.1
v -0.3 -0.25 0.1
v -0.3 -0.15 0.1
v -0.2 -0.35 0.1
v -0.2 -0.25 0.1
v -0.7 -0.65 0
v -0.7 -0.55 0
v -0.6 -0.65 0
v -0.6 -0.55 0
v -0.5 -0.35 0
v -0.5 -0.25 0
v -0.4 -0.35 0
v -0.4 -0.25 0
v -0.7 -0.25 -0.1
v -0.7 -0.15 -0.1
v -0.6 -0.25 -0.1
v -0.6 -0.15 -0.1
v -0.6 -0.0500001 -0.1
v -0.5 -0.25 -0.1
v -0.5 -0.15 -0.1
v -0.5 -0.0500001 -0.1
v -0.4 -0.35 -0.1
v -0.4 -0.25 -0.1
v -0.4 -0.15 -0.1
v -0.4 -0.0500001 -0.1
v -0.4 0.05 -0.1
v -0.4 0.15 -0.1
v -0.3 -0.35 -0.1
v -0.3 -0.25 -0.1
v -0.3 -0.15 -0.1
v -0.3 -0.0500001 -0.1
v -0.3 0.05 -0.1
v -0.3 0.15 -0.1
v -0.2 -0.35 -0.1
v -0.2 -0.25 -0.1
v -0.2 0.05 -0.1
v -0.2 0.15 -0.1
v -0.1 0.05 -0.1
v -0.1 0.15 -0.1
v 0 0.05 -0.1
v 0 0.15 -0.1
v 0.1 0.05 -0.1
v 0.1 0.15 -0.1
v 0.2 0.05 -0.1
v 0.2 0.15 -0.1
v -0.7 -0.75 -0.2
v -0.7 -0.65 -0.2
v -0.7 -0.35 -0.2
v -0.7 -0.25 -0.2
v -0.6 -0.75 -0.2
v -0.6 -0.65 -0.2
v -0.6 -0.35 -0.2
v -0.6 -0.25 -0.2
v -0.4 -0.15 -0.2
v -0.4 -0.0500001 -0.2
v -0.3 -0.15 -0.2
v -0.3 -0.0500001 -0.2
v -0.3 0.05 -0.2
v -0.2 -0.35 -0.2
v -0.2 -0.25 -0.2
v -0.2 -0.15 -0.2
v -0.2 -0.0500001 -0.2
v -0.2 0.05 -0.2
v -0.2 0.15 -0.2
v -0.1 -0.35 -0.2
v -0.1 -0.25 -0.2
v -0.1 0.05 -0.2
v -0.1 0.15 -0.2
v 0 -0.35 -0.2
v 0 -0.25 -0.2
v 0 0.05 -0.2
v 0 0.15 -0.2
v 0.1 -0.35 -0.2
v 0.1 -0.25 -0.2
v 0.1 0.05 -0.2
v 0.1 0.15 -0.2
v 0.2 -0.35 -0.2
v 0.2 -0.25 -0.2
v 0.2 -0.15 -0.2
v 0.2 -0.0500001 -0.2
v 0.2 0.05 -0.2
v 0.3 -0.15 -0.2
v 0.3 -0.0500001 -0.2
v 0.3 0.05 -0.2
v -0.7 -0.65 -0.3
v -0.7 -0.35 -0.3
v -0.6 -0.95 -0.3
v -0.6 -0.85 -0.3
v -0.6 -0.75 -0.3
v -0.6 -0.65 -0.3
v -0.6 -0.55 -0.3
v -0.6 -0.45 -0.3
v -0.6 -0.35 -0.3
v -0.6 -0.25 -0.3
v -0.6 -0.15 -0.3
v -0.5 -0.95 -0.3
v -0.5 -0.85 -0.3
v -0.5 -0.75 -0.3
v -0.5 -0.65 -0.3
v -0.5 -0.55 -0.3
v -0.5 -0.45 -0.3
v -0.5 -0.35 -0.3
v -0.5 -0.25 -0.3
v -0.5 -0.15 -0.3
v -0.3 -0.25 -0.3
v -0.3 -0.15 -0.3
v -0.2 -0.25 -0.3
v -0.2 -0.15 -0.3
v -0.2 -0.0500001 -0.3
v -0.2 0.05 -0.3
v -0.1 -0.25 -0.3
v -0.1 -0.15 -0.3
v -0.1 -0.0500001 -0.3
v -0.1 0.05 -0.3
v 0 -0.25 -0.3
v 0 -0.15 -0.3
v 0.1 -0.25 -0.3
v 0.1 -0.15 -0.3
v 0.1 -0.0500001 -0.3
v 0.1 0.05 -0.3
v 0.2 -0.25 -0.3
v 0.2 -0.15 -0.3
v 0.2 -0.0500001 -0.3
v 0.2 0.05 -0.3
v 0.5 -0.95 -0.3
v 0.5 -0.85 -0.3
v 0.5 -0.75 -0.3
v 0.5 -0.65 -0.3
v 0.5 -0.55 -0.3
v 0.5 -0.45 -0.3
v 0.5 -0.35 -0.3
v 0.5 -0.25 -0.3
v 0.5 -0.15 -0.3
v 0.6 -0.95 -0.3
v 0.6 -0.85 -0.3
v 0.6 -0.65 -0.3
v 0.6 -0.45 -0.3
v 0.6 -0.35 -0.3
v 0.6 -0.25 -0.3
v 0.6 -0.15 -0.3
v -0.5 -0.95 -0.4
v -0.5 -0.85 -0.4
v -0.5 -0.75 -0.4
v -0.5 -0.65 -0.4
v -0.5 -0.55 -0.4
v -0.5 -0.45 -0.4
v -0.5 -0.35 -0.4
v -0.5 -0.15 -0.4
v -0.4 -0.95 -0.4
v -0.4 -0.85 -0.4
v -0.4 -0.75 -0.4
v -0.4 -0.65 -0.4
v -0.4 -0.55 -0.4
v -0.4 -0.45 -0.4
v -0.4 -0.35 -0.4
v -0.4 -0.25 -0.4
v -0.4 -0.15 -0.4
v -0.1 -0.0500001 -0.4
v -0.1 0.05 -0.4
v 0 -0.0500001 -0.4
v 0 0.05 -0.4
v 0.1 -0.0500001 -0.4
v 0.1 0.05 -0.4
v 0.4 -0.95 -0.4
v 0.4 -0.85 -0.4
v 0.4 -0.75 -0.4
v 0.4 -0.65 -0.4
v 0.4 -0.55 -0.4
v 0.4 -0.45 -0.4
v 0.4 -0.35 -0.4
v 0.4 -0.25 -0.4
v 0.4 -0.15 -0.4
v 0.5 -0.95 -0.4
v 0.5 -0.85 -0.4
v 0.5 -0.75 -0.4
v 0.5 -0.65 -0.4
v 0.5 -0.55 -0.4
v 0.5 -0.45 -0.4
v 0.5 -0.35 -0.4
v 0.5 -0.25 -0.4
v 0.5 -0.15 -0.4
v -0.4 -0.95 -0.5
v -0.4 -0.85 -0.5
v -0.4 -0.55 -0.5
v -0.4 -0.45 -0.5
v -0.4 -0.35 -0.5
v -0.4 -0.25 -0.5
v -0.4 -0.15 -0.5
v -0.3 -0.95 -0.5
v -0.3 -0.85 -0.5
v -0.3 -0.55 -0.5
v -0.3 -0.45 -0.5
v -0.3 -0.35 -0.5
v -0.3 -0.25 -0.5
v -0.3 -0.15 -0.5
v 0.3 -0.95 -0.5
v 0.3 -0.85 -0.5
v 0.3 -0.75 -0.5
v 0.3 -0.65 -0.5
v 0.3 -0.55 -0.5
v 0.3 -0.45 -0.5
v 0.3 -0.35 -0.5
v 0.3 -0.15 -0.5
v 0.4 -0.95 -0.5
v 0.4 -0.75 -0.5
v 0.4 -0.65 -0.5
v 0.4 -0.45 -0.5
v 0.4 -0.35 -0.5
v 0.4 -0.15 -0.5
v -0.4 -0.85 -0.6
v -0.4 -0.75 -0.6
v -0.4 -0.65 -0.6
v -0.4 -0.55 -0.6
v -0.3 -0.95 -0.6
v -0.3 -0.85 -0.6
v -0.3 -0.75 -0.6
v -0.3 -0.65 -0.6
v -0.3 -0.55 -0.6
v -0.3 -0.45 -0.6
v -0.3 -0.25 -0.6
v -0.3 -0.15 -0.6
v -0.2 -0.95 -0.6
v -0.2 -0.85 -0.6
v -0.2 -0.75 -0.6
v -0.2 -0.65 -0.6
v -0.2 -0.55 -0.6
v -0.2 -0.45 -0.6
v -0.2 -0.35 -0.6
v -0.2 -0.25 -0.6
v -0.2 -0.15 -0.6
v -0.1 -0.85 -0.6
v -0.1 -0.75 -0.6
v -0.1 -0.65 -0.6
v -0.1 -0.25 -0.6
v -0.1 -0.15 -0.6
v -0.1 -0.0500001 -0.6
v 0 -0.95 -0.6
v 0 -0.85 -0.6
v 0 -0.75 -0.6
v 0 -0.65 -0.6
v 0 -0.55 -0.6
v 0 -0.15 -0.6
v 0 -0.0500001 -0.6
v 0.1 -0.95 -0.6
v 0.1 -0.85 -0.6
v 0.1 -0.75 -0.6
v 0.1 -0.65 -0.6
v 0.1 -0.55 -0.6
v 0.1 -0.45 -0.6
v 0.1 -0.35 -0.6
v 0.1 -0.25 -0.6
v 0.1 -0.15 -0.6
v 0.1 -0.0500001 -0.6
v 0.2 -0.95 -0.6
v 0.2 -0.85 -0.6
v 0.2 -0.75 -0.6
v 0.2 -0.65 -0.6
v 0.2 -0.55 -0.6
v 0.2 -0.45 -0.6
v 0.2 -0.35 -0.6
v 0.2 -0.25 -0.6
v 0.3 -0.95 -0.6
v 0.3 -0.85 -0.6
v 0.3 -0.65 -0.6
v 0.3 -0.45 -0.6
v 0.3 -0.35 -0.6
v 0.3 -0.15 -0.6
v -0.3 -0.55 -0.7
v -0.3 -0.45 -0.7
v -0.2 -0.95 -0.7
v -0.2 -0.85 -0.7
v -0.2 -0.75 -0.7
v -0.2 -0.65 -0.7
v -0.2 -0.55 -0.7
v -0.2 -0.45 -0.7
v -0.2 -0.35 -0.7
v -0.2 -0.25 -0.7
v -0.1 -0.85 -0.7
v -0.1 -0.75 -0.7
v -0.1 -0.65 -0.7
v -0.1 -0.55 -0.7
v -0.1 -0.45 -0.7
v -0.1 -0.35 -0.7
v -0.1 -0.25 -0.7
v -0.1 -0.15 -0.7
v 0 -0.95 -0.7
v 0 -0.85 -0.7
v 0 -0.65 -0.7
v 0 -0.55 -0.7
v 0 -0.45 -0.7
v 0 -0.35 -0.7
v 0 -0.25 -0.7
v 0.1 -0.75 -0.7
v 0.1 -0.65 -0.7
v 0.1 -0.55 -0.7
v 0.1 -0.45 -0.7
v 0.1 -0.35 -0.7
v 0.1 -0.15 -0.7
v 0.2 -0.75 -0.7
v 0.2 -0.65 -0.7
v 0.2 -0.55 -0.7
v 0.2 -0.45 -0.7
v 0.2 -0.35 -0.7
v 0.3 -0.65 -0.7
v 0.3 -0.55 -0.7
v 0.3 -0.45 -0.7
v -0.3 -0.95 -0.8
v -0.3 -0.85 -0.8
v -0.2 -0.95 -0.8
v -0.2 -0.85 -0.8
v 0 -0.95 -0.8
v 0 -0.85 -0.8
v 0.1 -0.95 -0.8
v 0.1 -0.85 -0.8
v -0.3 -0.95 0.6
v -0.2 -0.95 0.6
v 0 -0.95 0.6
v 0.1 -0.95 0.6
v 0.2 -0.95 0.6
v 0.3 -0.95 0.6
v -0.4 -0.95 0.5
v -0.3 -0.95 0.5
v -0.2 -0.95 0.5
v -0.1 -0.95 0.5
v 0.1 -0.95 0.5
v 0.2 -0.95 0.5
v 0.3 -0.95 0.5
v 0.4 -0.95 0.5
v -0.5 -0.95 0.4
v -0.4 -0.95 0.4
v -0.3 -0.95 0.4
v -0.2 -0.95 0.4
v -0.1 -0.95 0.4
v 0 -0.95 0.4
v 0.1 -0.95 0.4
v 0.2 -0.95 0.4
v 0.3 -0.95 0.4
v 0.4 -0.95 0.4
v 0.5 -0.95 0.4
v -0.6 -0.95 0.3
v -0.5 -0.95 0.3
v -0.4 -0.95 0.3
v -0.3 -0.95 0.3
v -0.2 -0.95 0.3
v -0.1 -0.95 0.3
v 0 -0.95 0.3
v 0.1 -0.95 0.3
v 0.2 -0.95 0.3
v 0.3 -0.95 0.3
v 0.5 -0.95 0.3
v 0.6 -0.95 0.3
v -0.6 -0.95 0.2
v -0.5 -0.95 0.2
v -0.4 -0.95 0.2
v -0.3 -0.95 0.2
v -0.2 -0.95 0.2
v -0.1 -0.95 0.2
v 0 -0.95 0.2
v 0.1 -0.95 0.2
v 0.2 -0.95 0.2
v 0.3 -0.95 0.2
v 0.4 -0.95 0.2
v 0.5 -0.95 0.2
v 0.6 -0.95 0.2
v -0.6 -0.95 0.1
v -0.5 -0.95 0.1
v -0.4 -0.95 0.1
v -0.3 -0.95 0.1
v -0.2 -0.95 0.1
v -0.1 -0.95 0.1
v 0 -0.95 0.1
v 0.1 -0.95 0.1
v 0.2 -0.95 0.1
v 0.4 -0.95 0.1
v 0.5 -0.95 0.1
v 0.6 -0.95 0.1
v -0.6 -0.95 0
v -0.5 -0.95 0
v -0.4 -0.95 0
v -0.2 -0.95 0
v -0.1 -0.95 0
v 0 -0.95 0
v 0.1 -0.95 0
v 0.2 -0.95 0
v 0.3 -0.95 0
v 0.4 -0.95 0
v 0.5 -0.95 0
v 0.6 -0.95 0
v -0.5 -0.95 -0.1
v -0.4 -0.95 -0.1
v -0.3 -0.95 -0.1
v -0.2 -0.95 -0.1
v -0.1 -0.95 -0.1
v 0 -0.95 -0.1
v 0.1 -0.95 -0.1
v 0.2 -0.95 -0.1
v 0.3 -0.95 -0.1
v 0.4 -0.95 -0.1
v 0.5 -0.95 -0.1
v 0.6 -0.95 -0.1
v -0.5 -0.95 -0.2
v -0.3 -0.95 -0.2
v -0.2 -0.95 -0.2
v -0.1 -0.95 -0.2
v 0 -0.95 -0.2
v 0.1 -0.95 -0.2
v 0.2 -0.95 -0.2
v 0.3 -0.95 -0.2
v 0.4 -0.95 -0.2
v 0.5 -0.95 -0.2
v 0.6 -0.95 -0.2
v -0.6 -0.95 -0.3
v -0.5 -0.95 -0.3
v -0.4 -0.95 -0.3
v -0.3 -0.95 -0.3
v -0.2 -0.95 -0.3
v -0.1 -0.95 -0.3
v 0 -0.95 -0.3
v 0.1 -0.95 -0.3
v 0.2 -0.95 -0.3
v 0.3 -0.95 -0.3
v 0.4 -0.95 -0.3
v 0.5 -0.95 -0.3
v 0.6 -0.95 -0.3
v -0.5 -0.95 -0.4
v -0.4 -0.95 -0.4
v -0.3 -0.95 -0.4
v -0.2 -0.95 -0.4
v -0.1 -0.95 -0.4
v 0 -0.95 -0.4
v 0.1 -0.95 -0.4
v 0.2 -0.95 -0.4
v 0.3 -0.95 -0.4
v 0.4 -0.95 -0.4
v 0.5 -0.95 -0.4
v -0.4 -0.95 -0.5
v -0.3 -0.95 -0.5
v -0.2 -0.95 -0.5
v -0.1 -0.95 -0.5
v 0.1 -0.95 -0.5
v 0.2 -0.95 -0.5
v 0.3 -0.95 -0.5
v 0.4 -0.95 -0.5
v -0.3 -0.95 -0.6
v -0.2 -0.95 -0.6
v 0 -0.95 -0.6
v 0.1 -0.95 -0.6
v 0.2 -0.95 -0.6
v 0.3 -0.95 -0.6
v -0.3 -0.95 -0.7
v -0.2 -0.95 -0.7
v 0 -0.95 -0.7
v 0.1 -0.95 -0.7
v -0.3 -0.95 -0.8
v -0.2 -0.95 -0.8
v 0 -0.95 -0.8
v 0.1 -0.95 -0.8
v -0.4 -0.85 -0.5
v -0.3 -0.85 -0.5
v -0.4 -0.85 -0.6
v -0.3 -0.85 -0.6
v -0.7 -0.75 0
v -0.6 -0.75 0
v -0.7 -0.75 -0.1
v -0.6 -0.75 -0.1
v -0.7 -0.75 -0.2
v -0.6 -0.75 -0.2
v 0.1 -0.75 -0.6
v 0.2 -0.75 -0.6
v 0.1 -0.75 -0.7
v 0.2 -0.75 -0.7
v -0.7 -0.65 0.3
v -0.6 -0.65 0.3
v -0.7 -0.65 0.2
v -0.6 -0.65 0.2
v -0.7 -0.65 0.1
v -0.6 -0.65 0.1
v -0.7 -0.65 0
v -0.6 -0.65 0
v -0.7 -0.65 -0.2
v -0.6 -0.65 -0.2
v -0.7 -0.65 -0.3
v -0.6 -0.65 -0.3
v -0.1 -0.65 -0.6
v 0 -0.65 -0.6
v 0.2 -0.65 -0.6
v 0.3 -0.65 -0.6
v -0.1 -0.65 -0.7
v 0 -0.65 -0.7
v 0.2 -0.65 -0.7
v 0.3 -0.65 -0.7
v -0.7 -0.55 0.2
v -0.6 -0.55 0.2
v -0.7 -0.55 0.1
v -0.6 -0.55 0.1
v -0.3 -0.55 -0.6
v -0.2 -0.55 -0.6
v 0 -0.55 -0.6
v 0.1 -0.55 -0.6
v -0.3 -0.55 -0.7
v -0.2 -0.55 -0.7
v 0 -0.55 -0.7
v 0.1 -0.55 -0.7
v -0.5 -0.45 0.5
v -0.4 -0.45 0.5
v -0.5 -0.45 0.4
v -0.4 -0.45 0.4
v 0.1 -0.45 -0.6
v 0.2 -0.45 -0.6
v 0.1 -0.45 -0.7
v 0.2 -0.45 -0.7
v -0.1 -0.35 0.7
v 0 -0.35 0.7
v -0.1 -0.35 0.6
v 0 -0.35 0.6
v -0.7 -0.35 -0.1
v -0.6 -0.35 -0.1
v -0.7 -0.35 -0.2
v -0.6 -0.35 -0.2
v -0.4 -0.25 0.3
v -0.3 -0.25 0.3
v -0.5 -0.25 0.2
v -0.4 -0.25 0.2
v -0.3 -0.25 0.2
v -0.2 -0.25 0.2
v -0.1 -0.25 0.2
v 0.1 -0.25 0.2
v 0.2 -0.25 0.2
v -0.5 -0.25 0.1
v -0.4 -0.25 0.1
v -0.3 -0.25 0.1
v -0.2 -0.25 0.1
v -0.1 -0.25 0.1
v 0.1 -0.25 0.1
v 0.2 -0.25 0.1
v -0.7 -0.25 0
v -0.6 -0.25 0
v -0.5 -0.25 0
v -0.4 -0.25 0
v -0.3 -0.25 0
v -0.2 -0.25 0
v 0.1 -0.25 0
v 0.2 -0.25 0
v -0.7 -0.25 -0.1
v -0.6 -0.25 -0.1
v -0.5 -0.25 -0.1
v -0.4 -0.25 -0.1
v -0.3 -0.25 -0.1
v -0.2 -0.25 -0.1
v -0.2 -0.25 -0.2
v -0.1 -0.25 -0.2
v 0 -0.25 -0.2
v 0.1 -0.25 -0.2
v 0.2 -0.25 -0.2
v -0.3 -0.25 -0.3
v -0.2 -0.25 -0.3
v -0.1 -0.25 -0.3
v 0 -0.25 -0.3
v 0.1 -0.25 -0.3
v 0.2 -0.25 -0.3
v -0.1 -0.15 0.5
v 0 -0.15 0.5
v -0.1 -0.15 0.4
v 0 -0.15 0.4
v -0.2 -0.15 0.3
v -0.1 -0.15 0.3
v 0 -0.15 0.3
v 0.1 -0.15 0.3
v -0.2 -0.15 0.2
v 0 -0.15 0.2
v 0.1 -0.15 0.2
v -0.4 -0.15 0.1
v -0.3 -0.15 0.1
v 0.2 -0.15 0.1
v 0.3 -0.15 0.1
v -0.4 -0.15 0
v -0.3 -0.15 0
v 0.2 -0.15 0
v -0.4 -0.15 -0.1
v -0.3 -0.15 -0.1
v -0.4 -0.15 -0.2
v -0.3 -0.15 -0.2
v 0.2 -0.15 -0.2
v 0.3 -0.15 -0.2
v -0.1 -0.15 -0.3
v 0 -0.15 -0.3
v 0.1 -0.15 -0.3
v -0.1 -0.15 -0.4
v 0 -0.15 -0.4
v -0.1 -0.15 -0.5
v 0 -0.15 -0.5
v 0.1 -0.15 -0.5
v -0.1 -0.85 -0.6
v 0 -0.85 -0.6
v -0.3 -0.85 -0.7
v -0.2 -0.85 -0.7
v -0.1 -0.85 -0.7
v 0 -0.85 -0.7
v 0.1 -0.85 -0.7
v -0.3 -0.85 -0.8
v -0.2 -0.85 -0.8
v 0 -0.85 -0.8
v 0.1 -0.85 -0.8
v -0.7 -0.65 0
v -0.6 -0.65 0
v -0.7 -0.65 -0.1
v -0.6 -0.65 -0.1
v -0.7 -0.65 -0.2
v -0.6 -0.65 -0.2
v 0.1 -0.65 -0.6
v 0.2 -0.65 -0.6
v 0.1 -0.65 -0.7
v 0.2 -0.65 -0.7
v -0.7 -0.55 0.1
v -0.6 -0.55 0.1
v -0.7 -0.55 0
v -0.6 -0.55 0
v -0.4 -0.55 -0.5
v -0.3 -0.55 -0.5
v -0.4 -0.55 -0.6
v -0.3 -0.55 -0.6
v -0.7 -0.45 0.3
v -0.6 -0.45 0.3
v -0.7 -0.45 0.2
v -0.6 -0.45 0.2
v -0.7 -0.45 0.1
v -0.6 -0.45 0.1
v -0.3 -0.45 -0.6
v -0.2 -0.45 -0.6
v 0.2 -0.45 -0.6
v 0.3 -0.45 -0.6
v -0.3 -0.45 -0.7
v -0.2 -0.45 -0.7
v 0.2 -0.45 -0.7
v 0.3 -0.45 -0.7
v -0.2 -0.35 0.5
v -0.1 -0.35 0.5
v 0 -0.35 0.5
v 0.1 -0.35 0.5
v 0.2 -0.35 0.5
v -0.3 -0.35 0.4
v -0.2 -0.35 0.4
v -0.1 -0.35 0.4
v 0 -0.35 0.4
v 0.1 -0.35 0.4
v 0.2 -0.35 0.4
v 0.3 -0.35 0.4
v -0.4 -0.35 0.3
v -0.3 -0.35 0.3
v -0.2 -0.35 0.3
v -0.1 -0.35 0.3
v 0.1 -0.35 0.3
v 0.2 -0.35 0.3
v 0.3 -0.35 0.3
v 0.4 -0.35 0.3
v -0.5 -0.35 0.2
v -0.4 -0.35 0.2
v -0.3 -0.35 0.2
v -0.2 -0.35 0.2
v -0.1 -0.35 0.2
v 0 -0.35 0.2
v 0.1 -0.35 0.2
v 0.2 -0.35 0.2
v 0.3 -0.35 0.2
v 0.4 -0.35 0.2
v 0.5 -0.35 0.2
v -0.5 -0.35 0.1
v -0.4 -0.35 0.1
v -0.3 -0.35 0.1
v -0.2 -0.35 0.1
v -0.1 -0.35 0.1
v 0.1 -0.35 0.1
v 0.2 -0.35 0.1
v 0.3 -0.35 0.1
v 0.4 -0.35 0.1
v 0.5 -0.35 0.1
v -0.5 -0.35 0
v -0.4 -0.35 0
v -0.3 -0.35 0
v -0.2 -0.35 0
v 0.1 -0.35 0
v 0.2 -0.35 0
v 0.3 -0.35 0
v 0.4 -0.35 0
v 0.5 -0.35 0
v -0.5 -0.35 -0.1
v -0.4 -0.35 -0.1
v -0.3 -0.35 -0.1
v -0.2 -0.35 -0.1
v 0.2 -0.35 -0.1
v 0.3 -0.35 -0.1
v 0.4 -0.35 -0.1
v 0.5 -0.35 -0.1
v -0.7 -0.35 -0.2
v -0.6 -0.35 -0.2
v -0.5 -0.35 -0.2
v -0.4 -0.35 -0.2
v -0.3 -0.35 -0.2
v -0.2 -0.35 -0.2
v -0.1 -0.35 -0.2
v 0 -0.35 -0.2
v 0.1 -0.35 -0.2
v 0.2 -0.35 -0.2
v 0.3 -0.35 -0.2
v 0.4 -0.35 -0.2
v 0.5 -0.35 -0.2
v -0.7 -0.35 -0.3
v -0.6 -0.35 -0.3
v -0.4 -0.35 -0.3
v -0.3 -0.35 -0.3
v -0.1 -0.35 -0.3
v 0 -0.35 -0.3
v 0.1 -0.35 -0.3
v 0.2 -0.35 -0.3
v 0.3 -0.35 -0.3
v 0.4 -0.35 -0.3
v -0.3 -0.35 -0.4
v -0.2 -0.35 -0.4
v -0.1 -0.35 -0.4
v 0.1 -0.35 -0.4
v 0.2 -0.35 -0.4
v 0.3 -0.35 -0.4
v -0.2 -0.35 -0.5
v -0.1 -0.35 -0.5
v 0 -0.35 -0.5
v 0.1 -0.35 -0.5
v 0.2 -0.35 -0.5
v 0.1 -0.35 -0.6
v 0.2 -0.35 -0.6
v 0.1 -0.35 -0.7
v 0.2 -0.35 -0.7
v -0.5 -0.25 0.1
v -0.4 -0.25 0.1
v -0.3 -0.25 0.1
v -0.5 -0.25 0
v -0.4 -0.25 0
v -0.3 -0.25 0
v -0.7 -0.25 -0.1
v -0.6 -0.25 -0.1
v -0.7 -0.25 -0.2
v -0.6 -0.25 -0.2
v -0.2 -0.25 -0.6
v -0.1 -0.25 -0.6
v -0.2 -0.25 -0.7
v -0.1 -0.25 -0.7
v 0 -0.15 0.6
v 0.1 -0.15 0.6
v 0.2 -0.15 0.6
v 0.3 -0.15 0.6
v -0.5 -0.15 0.5
v -0.4 -0.15 0.5
v 0 -0.15 0.5
v 0.1 -0.15 0.5
v 0.2 -0.15 0.5
v 0.3 -0.15 0.5
v 0.4 -0.15 0.5
v -0.5 -0.15 0.4
v -0.4 -0.15 0.4
v -0.3 -0.15 0.4
v 0.2 -0.15 0.4
v 0.3 -0.15 0.4
v 0.4 -0.15 0.4
v 0.5 -0.15 0.4
v -0.6 -0.15 0.3
v -0.5 -0.15 0.3
v -0.4 -0.15 0.3
v -0.3 -0.15 0.3
v -0.2 -0.15 0.3
v 0.3 -0.15 0.3
v 0.4 -0.15 0.3
v 0.5 -0.15 0.3
v 0.6 -0.15 0.3
v -0.5 -0.15 0.2
v -0.4 -0.15 0.2
v -0.3 -0.15 0.2
v -0.2 -0.15 0.2
v 0.1 -0.15 0.2
v 0.2 -0.15 0.2
v 0.4 -0.15 0.2
v 0.5 -0.15 0.2
v 0.6 -0.15 0.2
v -0.6 -0.15 0.1
v -0.5 -0.15 0.1
v -0.4 -0.15 0.1
v -0.3 -0.15 0.1
v -0.2 -0.15 0.1
v 0.1 -0.15 0.1
v 0.2 -0.15 0.1
v -0.7 -0.15 0
v -0.6 -0.15 0
v -0.5 -0.15 0
v -0.7 -0.15 -0.1
v -0.6 -0.15 -0.1
v -0.5 -0.15 -0.1
v 0.5 -0.15 -0.1
v 0.6 -0.15 -0.1
v -0.6 -0.15 -0.2
v -0.5 -0.15 -0.2
v -0.4 -0.15 -0.2
v -0.3 -0.15 -0.2
v -0.2 -0.15 -0.2
v 0.4 -0.15 -0.2
v 0.5 -0.15 -0.2
v -0.6 -0.15 -0.3
v -0.5 -0.15 -0.3
v -0.4 -0.15 -0.3
v -0.3 -0.15 -0.3
v -0.2 -0.15 -0.3
v 0.3 -0.15 -0.3
v 0.4 -0.15 -0.3
v 0.5 -0.15 -0.3
v 0.6 -0.15 -0.3
v -0.5 -0.15 -0.4
v -0.4 -0.15 -0.4
v -0.3 -0.15 -0.4
v -0.2 -0.15 -0.4
v 0.2 -0.15 -0.4
v 0.3 -0.15 -0.4
v 0.4 -0.15 -0.4
v 0.5 -0.15 -0.4
v -0.4 -0.15 -0.5
v -0.3 -0.15 -0.5
v -0.2 -0.15 -0.5
v -0.1 -0.15 -0.5
v 0.1 -0.15 -0.5
v 0.2 -0.15 -0.5
v 0.3 -0.15 -0.5
v 0.4 -0.15 -0.5
v -0.3 -0.15 -0.6
v -0.2 -0.15 -0.6
v -0.1 -0.15 -0.6
v 0 -0.15 -0.6
v 0.1 -0.15 -0.6
v 0.3 -0.15 -0.6
v -0.1 -0.15 -0.7
v 0.1 -0.15 -0.7
v -0.1 -0.0500001 0.7
v 0 -0.0500001 0.7
v -0.3 -0.0500001 0.6
v -0.2 -0.0500001 0.6
v -0.1 -0.0500001 0.6
v 0 -0.0500001 0.6
v -0.4 -0.0500001 0.5
v -0.3 -0.0500001 0.5
v -0.2 -0.0500001 0.5
v -0.1 -0.0500001 0.5
v -0.4 -0.0500001 0.4
v -0.3 -0.0500001 0.4
v -0.2 -0.0500001 0.4
v -0.1 -0.0500001 0.4
v 0 -0.0500001 0.4
v -0.5 -0.0500001 0.3
v -0.4 -0.0500001 0.3
v -0.3 -0.0500001 0.3
v -0.2 -0.0500001 0.3
v -0.1 -0.0500001 0.3
v 0 -0.0500001 0.3
v 0.1 -0.0500001 0.3
v -0.5 -0.0500001 0.2
v -0.4 -0.0500001 0.2
v -0.3 -0.0500001 0.2
v -0.2 -0.0500001 0.2
v -0.1 -0.0500001 0.2
v 0 -0.0500001 0.2
v 0.1 -0.0500001 0.2
v -0.4 -0.0500001 0.1
v -0.3 -0.0500001 0.1
v 0 -0.0500001 0.1
v 0.1 -0.0500001 0.1
v 0.2 -0.0500001 0.1
v 0.3 -0.0500001 0.1
v -0.6 -0.0500001 0
v -0.5 -0.0500001 0
v -0.4 -0.0500001 0
v -0.3 -0.0500001 0
v 0.2 -0.0500001 0
v 0.3 -0.0500001 0
v -0.6 -0.0500001 -0.1
v -0.5 -0.0500001 -0.1
v -0.4 -0.0500001 -0.1
v -0.3 -0.0500001 -0.1
v -0.4 -0.0500001 -0.2
v -0.3 -0.0500001 -0.2
v -0.1 -0.0500001 -0.4
v 0 -0.0500001 -0.4
v 0.1 -0.0500001 -0.4
v -0.1 -0.0500001 -0.5
v 0 -0.0500001 -0.5
v 0.1 -0.0500001 -0.5
v -0.1 -0.0500001 -0.6
v 0 -0.0500001 -0.6
v 0.1 -0.0500001 -0.6
v -0.1 0.05 0.6
v 0 0.05 0.6
v -0.1 0.05 0.5
v 0 0.05 0.5
v -0.1 0.05 0.4
v 0 0.05 0.4
v -0.1 0.05 0.3
v 0 0.05 0.3
v -0.2 0.05 0.2
v -0.1 0.05 0.2
v -0.2 0.05 0.1
v -0.1 0.05 0.1
v 0 0.05 0.1
v 0.1 0.05 0.1
v 0.2 0.05 0.1
v 0 0.05 0
v 0.1 0.05 0
v 0.2 0.05 0
v 0.3 0.05 0
v -0.3 0.05 -0.1
v -0.2 0.05 -0.1
v -0.1 0.05 -0.1
v 0 0.05 -0.1
v 0.1 0.05 -0.1
v 0.2 0.05 -0.1
v -0.3 0.05 -0.2
v -0.2 0.05 -0.2
v -0.1 0.05 -0.2
v 0 0.05 -0.2
v 0.1 0.05 -0.2
v 0.2 0.05 -0.2
v 0.3 0.05 -0.2
v -0.2 0.05 -0.3
v -0.1 0.05 -0.3
v 0 0.05 -0.3
v 0.1 0.05 -0.3
v 0.2 0.05 -0.3
v -0.1 0.05 -0.4
v 0 0.05 -0.4
v 0.1 0.05 -0.4
v -0.3 0.15 0.1
v -0.1 0.15 0.1
v 0 0.15 0.1
v -0.4 0.15 0
v -0.3 0.15 0
v -0.2 0.15 0
v -0.1 0.15 0
v 0 0.15 0
v 0.1 0.15 0
v 0.2 0.15 0
v -0.4 0.15 -0.1
v -0.3 0.15 -0.1
v -0.2 0.15 -0.1
v -0.1 0.15 -0.1
v 0 0.15 -0.1
v 0.1 0.15 -0.1
v 0.2 0.15 -0.1
v -0.2 0.15 -0.2
v -0.1 0.15 -0.2
v 0 0.15 -0.2
v 0.1 0.15 -0.2

# faces
f 7/11/1 2/11/1 1/11/1
f 8/13/1 3/13/1 2/13/1
f 8/11/1 2/11/1 7/11/1
f 9/13/1 3/13/1 8/13/1
f 11/11/1 5/11/1 4/11/1
f 12/11/1 5/11/1 11/11/1
f 13/13/1 7/13/1 6/13/1
f 14/13/1 7/13/1 13/13/1
f 15/13/1 12/13/1 11/13/1
f 16/11/1 13/11/1 12/11/1
f 16/13/1 12/13/1 15/13/1
f 17/11/1 13/11/1 16/11/1
f 19/12/1 10/12/1 9/12/1
f 20/12/1 10/12/1 19/12/1
f 22/13/1 19/13/1 18/13/1
f 23/13/1 19/13/1 22/13/1
f 24/13/1 22/13/1 21/13/1
f 25/13/1 22/13/1 24/13/1
f 31/1/1 27/1/1 26/1/1
f 32/3/1 28/3/1 27/3/1
f 32/1/1 27/1/1 31/1/1
f 33/1/1 29/1/1 28/1/1
f 33/3/1 28/3/1 32/3/1
f 34/5/1 30/5/1 29/5/1
f 34/1/1 29/1/1 33/1/1
f 35/5/1 30/5/1 34/5/1
f 36/5/1 30/5/1 35/5/1
f 37/5/1 30/5/1 36/5/1
f 38/3/1 32/3/1 31/3/1
f 39/4/1 33/4/1 32/4/1
f 39/3/1 32/3/1 38/3/1
f 40/1/1 34/1/1 33/1/1
f 40/4/1 33/4/1 39/4/1
f 40/1/1 35/1/1 34/1/1
f 41/1/1 35/1/1 40/1/1
f 42/4/1 36/4/1 35/4/1
f 42/1/1 35/1/1 41/1/1
f 43/2/1 37/2/1 36/2/1
f 43/4/1 36/4/1 42/4/1
f 44/2/1 37/2/1 43/2/1
f 45/2/1 39/2/1 38/2/1
f 46/4/1 40/4/1 39/4/1
f 46/2/1 39/2/1 45/2/1
f 47/5/1 41/5/1 40/5/1
f 47/4/1 40/4/1 46/4/1
f 48/5/1 41/5/1 47/5/1
f 50/1/1 44/1/1 43/1/1
f 51/1/1 44/1/1 50/1/1
f 52/4/1 47/4/1 46/4/1
f 53/4/1 47/4/1 52/4/1
f 54/1/1 49/1/1 48/1/1
f 55/3/1 50/3/1 49/3/1
f 55/1/1 49/1/1 54/1/1
f 56/3/1 50/3/1 55/3/1
f 59/4/1 54/4/1 53/4/1
f 60/1/1 55/1/1 54/1/1
f 60/4/1 54/4/1 59/4/1
f 61/2/1 56/2/1 55/2/1
f 61/1/1 55/1/1 60/1/1
f 62/2/1 56/2/1 61/2/1
f 63/1/1 58/1/1 57/1/1
f 64/2/1 59/2/1 58/2/1
f 64/1/1 58/1/1 63/1/1
f 65/4/1 60/4/1 59/4/1
f 65/2/1 59/2/1 64/2/1
f 65/4/1 61/4/1 60/4/1
f 65/4/1 62/4/1 61/4/1
f 66/4/1 62/4/1 65/4/1
f 67/4/1 62/4/1 66/4/1
f 68/4/1 62/4/1 67/4/1
f 70/3/1 64/3/1 63/3/1
f 71/1/1 65/1/1 64/1/1
f 71/3/1 64/3/1 70/3/1
f 72/4/1 66/4/1 65/4/1
f 72/1/1 65/1/1 71/1/1
f 73/3/1 67/3/1 66/3/1
f 73/4/1 66/4/1 72/4/1
f 74/3/1 67/3/1 73/3/1
f 75/1/1 69/1/1 68/1/1
f 76/1/1 69/1/1 75/1/1
f 77/5/1 72/5/1 71/5/1
f 77/5/1 71/5/1 70/5/1
f 78/1/1 73/1/1 72/1/1
f 78/5/1 72/5/1 77/5/1
f 79/1/1 73/1/1 78/1/1
f 80/5/1 75/5/1 74/5/1
f 81/2/1 76/2/1 75/2/1
f 81/5/1 75/5/1 80/5/1
f 82/2/1 76/2/1 81/2/1
f 83/13/1 80/13/1 79/13/1
f 84/13/1 80/13/1 83/13/1
f 89/1/1 86/1/1 85/1/1
f 90/1/1 86/1/1 89/1/1
f 91/5/1 88/5/1 87/5/1
f 92/5/1 88/5/1 91/5/1
f 93/4/1 90/4/1 89/4/1
f 94/4/1 90/4/1 93/4/1
f 95/1/1 92/1/1 91/1/1
f 96/1/1 92/1/1 95/1/1
f 97/2/1 94/2/1 93/2/1
f 98/2/1 94/2/1 97/2/1
f 99/3/1 96/3/1 95/3/1
f 100/3/1 96/3/1 99/3/1
f 101/5/1 98/5/1 97/5/1
f 102/5/1 98/5/1 101/5/1
f 103/4/1 100/4/1 99/4/1
f 104/4/1 100/4/1 103/4/1
f 106/2/1 102/2/1 101/2/1
f 107/2/1 102/2/1 106/2/1
f 108/2/1 104/2/1 103/2/1
f 109/2/1 104/2/1 108/2/1
f 110/13/1 106/13/1 105/13/1
f 111/1/1 107/1/1 106/1/1
f 111/13/1 106/13/1 110/13/1
f 112/1/1 107/1/1 111/1/1
f 113/1/1 109/1/1 108/1/1
f 114/1/1 109/1/1 113/1/1
f 115/11/1 111/11/1 110/11/1
f 116/3/1 112/3/1 111/3/1
f 116/11/1 111/11/1 115/11/1
f 117/3/1 112/3/1 116/3/1
f 118/4/1 114/4/1 113/4/1
f 119/12/1 116/12/1 115/12/1
f 120/2/1 117/2/1 116/2/1
f 120/12/1 116/12/1 119/12/1
f 121/2/1 117/2/1 120/2/1
f 123/4/1 114/4/1 118/4/1
f 124/4/1 114/4/1 123/4/1
f 125/13/1 122/13/1 121/13/1
f 126/13/1 122/13/1 125/13/1
f 131/5/1 128/5/1 127/5/1
f 132/5/1 128/5/1 131/5/1
f 133/2/1 130/2/1 129/2/1
f 134/2/1 130/2/1 133/2/1
f 136/1/1 132/1/1 131/1/1
f 137/1/1 132/1/1 136/1/1
f 138/3/1 134/3/1 133/3/1
f 139/12/1 135/12/1 134/12/1
f 139/3/1 134/3/1 138/3/1
f 140/12/1 135/12/1 139/12/1
f 141/2/1 137/2/1 136/2/1
f 142/5/1 139/5/1 138/5/1
f 143/13/1 140/13/1 139/13/1
f 143/5/1 139/5/1 142/5/1
f 144/13/1 140/13/1 143/13/1
f 145/2/1 141/2/1 136/2/1
f 146/2/1 141/2/1 145/2/1
f 147/5/1 143/5/1 142/5/1
f 148/11/1 144/11/1 143/11/1
f 148/5/1 143/5/1 147/5/1
f 149/11/1 144/11/1 148/11/1
f 150/3/1 146/3/1 145/3/1
f 151/3/1 146/3/1 150/3/1
f 152/3/1 148/3/1 147/3/1
f 153/3/1 148/3/1 152/3/1
f 158/2/1 153/2/1 152/2/1
f 159/2/1 153/2/1 158/2/1
f 160/13/1 155/13/1 154/13/1
f 161/13/1 155/13/1 160/13/1
f 162/13/1 157/13/1 156/13/1
f 163/13/1 157/13/1 162/13/1
f 164/4/1 159/4/1 158/4/1
f 165/4/1 159/4/1 164/4/1
f 172/5/1 165/5/1 164/5/1
f 173/5/1 165/5/1 172/5/1
f 174/12/1 167/12/1 166/12/1
f 175/12/1 167/12/1 174/12/1
f 176/13/1 169/13/1 168/13/1
f 177/13/1 169/13/1 176/13/1
f 178/12/1 171/12/1 170/12/1
f 179/12/1 171/12/1 178/12/1
f 180/12/1 178/12/1 177/12/1
f 181/12/1 178/12/1 180/12/1
f 182/11/1 181/11/1 180/11/1
f 183/11/1 181/11/1 182/11/1
f 190/4/1 185/4/1 184/4/1
f 191/4/1 185/4/1 190/4/1
f 192/2/1 187/2/1 186/2/1
f 193/2/1 187/2/1 192/2/1
f 194/11/1 189/11/1 188/11/1
f 195/11/1 189/11/1 194/11/1
f 196/5/1 191/5/1 190/5/1
f 197/5/1 191/5/1 196/5/1
f 198/1/1 197/1/1 196/1/1
f 199/1/1 197/1/1 198/1/1
f 200/4/1 199/4/1 198/4/1
f 201/4/1 199/4/1 200/4/1
f 205/2/1 201/2/1 200/2/1
f 206/2/1 201/2/1 205/2/1
f 207/2/1 203/2/1 202/2/1
f 208/11/1 204/11/1 203/11/1
f 208/2/1 203/2/1 207/2/1
f 209/11/1 204/11/1 208/11/1
f 210/4/1 206/4/1 205/4/1
f 211/4/1 206/4/1 210/4/1
f 214/3/1 208/3/1 207/3/1
f 215/2/1 211/2/1 210/2/1
f 216/2/1 211/2/1 215/2/1
f 217/13/1 213/13/1 212/13/1
f 218/13/1 213/13/1 217/13/1
f 223/3/1 208/3/1 214/3/1
f 224/3/1 208/3/1 223/3/1
f 225/3/1 216/3/1 215/3/1
f 226/3/1 216/3/1 225/3/1
f 227/11/1 220/11/1 219/11/1
f 228/11/1 220/11/1 227/11/1
f 229/12/1 222/12/1 221/12/1
f 230/12/1 222/12/1 229/12/1
f 231/12/1 222/12/1 230/12/1
f 232/1/1 224/1/1 223/1/1
f 233/1/1 224/1/1 232/1/1
f 234/11/1 226/11/1 225/11/1
f 235/11/1 226/11/1 234/11/1
f 240/6/1 237/6/1 236/6/1
f 241/6/1 237/6/1 240/6/1
f 242/12/1 239/12/1 238/12/1
f 243/12/1 239/12/1 242/12/1
f 244/13/1 241/13/1 240/13/1
f 245/13/1 241/13/1 244/13/1
f 248/13/1 247/13/1 246/13/1
f 249/13/1 247/13/1 248/13/1
f 250/12/1 249/12/1 248/12/1
f 251/12/1 249/12/1 250/12/1
f 252/13/1 251/13/1 250/13/1
f 253/13/1 251/13/1 252/13/1
f 254/11/1 253/11/1 252/11/1
f 255/11/1 253/11/1 254/11/1
f 262/11/1 257/11/1 256/11/1
f 263/11/1 257/11/1 262/11/1
f 264/11/1 259/11/1 258/11/1
f 265/11/1 259/11/1 264/11/1
f 266/12/1 261/12/1 260/12/1
f 267/12/1 261/12/1 266/12/1
f 268/13/1 263/13/1 262/13/1
f 269/13/1 263/13/1 268/13/1
f 275/12/1 271/12/1 270/12/1
f 275/12/1 272/12/1 271/12/1
f 276/12/1 272/12/1 275/12/1
f 277/12/1 272/12/1 276/12/1
f 278/11/1 274/11/1 273/11/1
f 279/11/1 274/11/1 278/11/1
f 280/13/1 277/13/1 276/13/1
f 281/13/1 277/13/1 280/13/1
f 283/12/1 279/12/1 278/12/1
f 284/12/1 279/12/1 283/12/1
f 285/11/1 283/11/1 282/11/1
f 286/11/1 283/11/1 285/11/1
f 291/12/1 288/12/1 287/12/1
f 292/12/1 288/12/1 291/12/1
f 293/13/1 290/13/1 289/13/1
f 294/13/1 290/13/1 293/13/1
f 297/13/1 292/13/1 291/13/1
f 298/13/1 292/13/1 297/13/1
f 305/13/1 296/13/1 295/13/1
f 306/13/1 296/13/1 305/13/1
f 307/11/1 298/11/1 297/11/1
f 308/11/1 298/11/1 307/11/1
f 309/12/1 300/12/1 299/12/1
f 310/11/1 301/11/1 300/11/1
f 310/12/1 300/12/1 309/12/1
f 311/11/1 301/11/1 310/11/1
f 313/12/1 303/12/1 302/12/1
f 314/11/1 304/11/1 303/11/1
f 314/12/1 303/12/1 313/12/1
f 315/12/1 305/12/1 304/12/1
f 315/11/1 304/11/1 314/11/1
f 316/12/1 305/12/1 315/12/1
f 317/12/1 309/12/1 308/12/1
f 318/11/1 310/11/1 309/11/1
f 318/12/1 309/12/1 317/12/1
f 319/11/1 310/11/1 318/11/1
f 320/12/1 312/12/1 311/12/1
f 321/12/1 312/12/1 320/12/1
f 322/11/1 314/11/1 313/11/1
f 323/11/1 314/11/1 322/11/1
f 326/11/1 325/11/1 324/11/1
f 327/11/1 325/11/1 326/11/1
f 330/12/1 329/12/1 328/12/1
f 331/12/1 329/12/1 330/12/1
f 334/11/1 333/11/1 332/11/1
f 335/11/1 333/11/1 334/11/1
f 338/13/1 337/13/1 336/13/1
f 339/13/1 337/13/1 338/13/1
f 342/11/1 341/11/1 340/11/1
f 343/11/1 341/11/1 342/11/1
f 344/13/1 343/13/1 342/13/1
f 345/13/1 343/13/1 344/13/1
f 350/4/1 347/4/1 346/4/1
f 351/4/1 347/4/1 350/4/1
f 352/3/1 349/3/1 348/3/1
f 353/3/1 349/3/1 352/3/1
f 354/3/1 351/3/1 350/3/1
f 355/3/1 351/3/1 354/3/1
f 356/5/1 353/5/1 352/5/1
f 357/5/1 353/5/1 356/5/1
f 362/3/1 359/3/1 358/3/1
f 363/3/1 359/3/1 362/3/1
f 364/1/1 361/1/1 360/1/1
f 365/1/1 361/1/1 364/1/1
f 366/2/1 363/2/1 362/2/1
f 367/2/1 363/2/1 366/2/1
f 368/4/1 365/4/1 364/4/1
f 369/4/1 365/4/1 368/4/1
f 374/5/1 371/5/1 370/5/1
f 375/5/1 371/5/1 374/5/1
f 376/5/1 373/5/1 372/5/1
f 377/5/1 373/5/1 376/5/1
f 378/4/1 375/4/1 374/4/1
f 379/4/1 375/4/1 378/4/1
f 380/4/1 377/4/1 376/4/1
f 381/4/1 377/4/1 380/4/1
f 387/5/1 383/5/1 382/5/1
f 388/3/1 384/3/1 383/3/1
f 388/5/1 383/5/1 387/5/1
f 389/1/1 385/1/1 384/1/1
f 389/3/1 384/3/1 388/3/1
f 390/5/1 386/5/1 385/5/1
f 390/1/1 385/1/1 389/1/1
f 391/5/1 386/5/1 390/5/1
f 392/3/1 389/3/1 388/3/1
f 392/3/1 388/3/1 387/3/1
f 392/3/1 390/3/1 389/3/1
f 393/2/1 391/2/1 390/2/1
f 393/3/1 390/3/1 392/3/1
f 394/2/1 391/2/1 393/2/1
f 395/1/2 396/1/2 400/1/2
f 400/1/2 396/1/2 401/1/2
f 397/3/2 398/3/2 402/3/2
f 398/4/2 399/4/2 403/4/2
f 402/3/2 398/3/2 403/3/2
f 403/4/2 399/4/2 404/4/2
f 401/1/2 402/1/2 405/1/2
f 405/1/2 402/1/2 406/1/2
f 403/5/2 404/5/2 407/5/2
f 407/5/2 404/5/2 408/5/2
f 409/5/2 410/5/2 413/5/2
f 413/5/2 410/5/2 414/5/2
f 411/4/2 412/4/2 415/4/2
f 415/4/2 412/4/2 416/4/2
f 415/1/2 416/1/2 417/1/2
f 417/1/2 416/1/2 418/1/2
f 419/1/2 420/1/2 425/1/2
f 425/1/2 420/1/2 426/1/2
f 421/13/2 422/13/2 427/13/2
f 427/13/2 422/13/2 428/13/2
f 423/4/2 424/4/2 429/4/2
f 429/4/2 424/4/2 430/4/2
f 425/5/2 426/5/2 431/5/2
f 431/5/2 426/5/2 432/5/2
f 429/5/2 430/5/2 434/5/2
f 434/5/2 430/5/2 435/5/2
f 432/11/2 433/11/2 436/11/2
f 436/11/2 433/11/2 437/11/2
f 438/11/2 439/11/2 440/11/2
f 440/11/2 439/11/2 441/11/2
f 442/3/2 443/3/2 449/3/2
f 444/13/2 445/13/2 450/13/2
f 445/11/2 446/11/2 450/11/2
f 450/11/2 446/11/2 451/11/2
f 447/3/2 448/3/2 452/3/2
f 452/3/2 448/3/2 453/3/2
f 449/3/2 443/3/2 454/3/2
f 454/3/2 443/3/2 455/3/2
f 444/13/2 450/13/2 456/13/2
f 456/13/2 450/13/2 457/13/2
f 452/2/2 453/2/2 458/2/2
f 458/2/2 453/2/2 459/2/2
f 454/11/2 455/11/2 460/11/2
f 460/11/2 455/11/2 461/11/2
f 462/12/2 463/12/2 464/12/2
f 464/12/2 463/12/2 465/12/2
f 464/13/2 465/13/2 466/13/2
f 466/13/2 465/13/2 467/13/2
f 468/11/2 469/11/2 470/11/2
f 470/11/2 469/11/2 471/11/2
f 472/13/2 473/13/2 474/13/2
f 474/13/2 473/13/2 475/13/2
f 476/13/2 477/13/2 478/13/2
f 478/13/2 477/13/2 479/13/2
f 480/12/2 481/12/2 482/12/2
f 482/12/2 481/12/2 483/12/2
f 482/13/2 483/13/2 484/13/2
f 484/13/2 483/13/2 485/13/2
f 484/11/2 485/11/2 489/11/2
f 485/13/2 486/13/2 490/13/2
f 489/11/2 485/11/2 490/11/2
f 486/12/2 487/12/2 491/12/2
f 490/13/2 486/13/2 491/13/2
f 487/11/2 488/11/2 492/11/2
f 491/12/2 487/12/2 492/12/2
f 492/11/2 488/11/2 493/11/2
f 490/12/2 491/12/2 496/12/2
f 491/11/2 492/11/2 497/11/2
f 496/12/2 491/12/2 497/12/2
f 497/11/2 492/11/2 498/11/2
f 494/12/2 495/12/2 499/12/2
f 493/12/2 494/12/2 499/12/2
f 499/12/2 495/12/2 500/12/2
f 500/12/2 501/12/2 503/12/2
f 501/13/2 502/13/2 504/13/2
f 503/12/2 501/12/2 504/12/2
f 504/13/2 502/13/2 505/13/2
f 506/11/2 507/11/2 508/11/2
f 508/11/2 507/11/2 509/11/2
f 510/13/2 511/13/2 512/13/2
f 512/13/2 511/13/2 513/13/2
f 514/11/2 515/11/2 519/11/2
f 515/11/2 516/11/2 519/11/2
f 519/11/2 516/11/2 520/11/2
f 520/11/2 516/11/2 521/11/2
f 517/13/2 518/13/2 522/13/2
f 522/13/2 518/13/2 528/13/2
f 528/13/2 518/13/2 529/13/2
f 523/13/2 524/13/2 530/13/2
f 524/6/2 525/6/2 531/6/2
f 530/13/2 524/13/2 531/13/2
f 531/6/2 525/6/2 532/6/2
f 526/12/2 527/12/2 533/12/2
f 533/12/2 527/12/2 534/12/2
f 527/11/2 528/11/2 535/11/2
f 534/12/2 527/12/2 535/12/2
f 535/11/2 528/11/2 536/11/2
f 533/12/2 534/12/2 539/12/2
f 539/12/2 534/12/2 540/12/2
f 537/12/2 538/12/2 541/12/2
f 541/12/2 538/12/2 542/12/2
f 543/11/2 544/11/2 545/11/2
f 545/11/2 544/11/2 546/11/2
f 547/12/2 548/12/2 552/12/2
f 552/12/2 548/12/2 553/12/2
f 549/13/2 550/13/2 556/13/2
f 550/12/2 551/12/2 557/12/2
f 556/13/2 550/13/2 557/13/2
f 557/12/2 551/12/2 558/12/2
f 554/13/2 555/13/2 560/13/2
f 555/12/2 556/12/2 561/12/2
f 560/13/2 555/13/2 561/13/2
f 556/11/2 557/11/2 562/11/2
f 561/12/2 556/12/2 562/12/2
f 557/11/2 558/11/2 562/11/2
f 558/13/2 559/13/2 563/13/2
f 562/11/2 558/11/2 563/11/2
f 563/13/2 559/13/2 564/13/2
f 563/11/2 564/11/2 567/11/2
f 567/11/2 564/11/2 568/11/2
f 565/13/2 566/13/2 569/13/2
f 569/13/2 566/13/2 570/13/2
f 567/13/2 568/13/2 572/13/2
f 572/13/2 568/13/2 573/13/2
f 570/13/2 571/13/2 574/13/2
f 574/13/2 571/13/2 575/13/2
f 576/5/2 577/5/2 580/5/2
f 580/5/2 577/5/2 581/5/2
f 578/4/2 579/4/2 582/4/2
f 582/4/2 579/4/2 583/4/2
f 580/3/2 581/3/2 584/3/2
f 584/3/2 581/3/2 585/3/2
f 582/3/2 583/3/2 586/3/2
f 584/4/2 585/4/2 587/4/2
f 587/4/2 585/4/2 588/4/2
f 586/3/2 583/3/2 589/3/2
f 589/3/2 583/3/2 590/3/2
f 587/2/2 588/2/2 592/2/2
f 592/2/2 588/2/2 593/2/2
f 589/1/2 590/1/2 594/1/2
f 590/11/2 591/11/2 595/11/2
f 594/1/2 590/1/2 595/1/2
f 595/11/2 591/11/2 596/11/2
f 592/1/2 593/1/2 597/1/2
f 597/1/2 593/1/2 598/1/2
f 594/4/2 595/4/2 599/4/2
f 595/13/2 596/13/2 600/13/2
f 599/4/2 595/4/2 600/4/2
f 600/13/2 596/13/2 601/13/2
f 597/2/2 598/2/2 602/2/2
f 602/2/2 598/2/2 603/2/2
f 599/4/2 600/4/2 604/4/2
f 604/4/2 600/4/2 605/4/2
f 602/4/2 603/4/2 606/4/2
f 606/4/2 603/4/2 607/4/2
f 606/3/2 607/3/2 608/3/2
f 608/3/2 607/3/2 609/3/2
f 604/5/2 605/5/2 612/5/2
f 612/5/2 605/5/2 613/5/2
f 610/13/2 611/13/2 614/13/2
f 614/13/2 611/13/2 615/13/2
f 615/13/2 611/13/2 616/13/2
f 615/11/2 616/11/2 617/11/2
f 617/11/2 616/11/2 618/11/2
f 619/3/2 620/3/2 623/3/2
f 623/3/2 620/3/2 624/3/2
f 621/5/2 622/5/2 625/5/2
f 623/2/2 624/2/2 626/2/2
f 626/2/2 624/2/2 627/2/2
f 625/5/2 622/5/2 628/5/2
f 628/5/2 622/5/2 629/5/2
f 626/3/2 627/3/2 630/3/2
f 630/3/2 627/3/2 631/3/2
f 628/1/2 629/1/2 632/1/2
f 632/1/2 629/1/2 633/1/2
f 630/4/2 631/4/2 634/4/2
f 634/4/2 631/4/2 635/4/2
f 632/5/2 633/5/2 636/5/2
f 634/5/2 635/5/2 637/5/2
f 637/5/2 635/5/2 638/5/2
f 636/5/2 633/5/2 639/5/2
f 639/5/2 633/5/2 640/5/2
f 637/3/2 638/3/2 641/3/2
f 641/3/2 638/3/2 642/3/2
f 639/2/2 640/2/2 643/2/2
f 643/2/2 640/2/2 644/2/2
f 641/5/2 642/5/2 645/5/2
f 643/3/2 644/3/2 646/3/2
f 641/5/2 645/5/2 647/5/2
f 647/5/2 645/5/2 648/5/2
f 646/3/2 644/3/2 649/3/2
f 649/3/2 644/3/2 650/3/2
f 651/3/2 652/3/2 655/3/2
f 653/1/2 654/1/2 656/1/2
f 656/1/2 654/1/2 657/1/2
f 651/3/2 655/3/2 658/3/2
f 658/3/2 655/3/2 659/3/2
f 656/4/2 657/4/2 660/4/2
f 660/4/2 657/4/2 661/4/2
f 658/1/2 659/1/2 662/1/2
f 662/1/2 659/1/2 663/1/2
f 660/3/2 661/3/2 664/3/2
f 664/3/2 661/3/2 665/3/2
f 662/5/2 663/5/2 666/5/2
f 666/5/2 663/5/2 667/5/2
f 664/4/2 665/4/2 668/4/2
f 668/4/2 665/4/2 669/4/2
f 666/3/2 667/3/2 670/3/2
f 670/3/2 667/3/2 671/3/2
f 668/1/2 669/1/2 672/1/2
f 672/1/2 669/1/2 673/1/2
f 670/2/2 671/2/2 674/2/2
f 674/2/2 671/2/2 675/2/2
f 672/3/2 673/3/2 676/3/2
f 676/3/2 673/3/2 677/3/2
f 674/5/2 675/5/2 678/5/2
f 678/5/2 675/5/2 679/5/2
f 676/1/2 677/1/2 680/1/2
f 680/1/2 677/1/2 681/1/2
f 678/3/2 679/3/2 682/3/2
f 682/3/2 679/3/2 683/3/2
f 680/4/2 681/4/2 684/4/2
f 684/4/2 681/4/2 685/4/2
f 686/3/2 687/3/2 693/3/2
f 687/5/2 688/5/2 694/5/2
f 693/3/2 687/3/2 694/3/2
f 688/2/2 689/2/2 695/2/2
f 694/5/2 688/5/2 695/5/2
f 689/5/2 690/5/2 696/5/2
f 695/2/2 689/2/2 696/2/2
f 690/4/2 691/4/2 697/4/2
f 696/5/2 690/5/2 697/5/2
f 691/3/2 692/3/2 698/3/2
f 697/4/2 691/4/2 698/4/2
f 698/3/2 692/3/2 699/3/2
f 693/1/2 694/1/2 700/1/2
f 694/3/2 695/3/2 701/3/2
f 700/1/2 694/1/2 701/1/2
f 695/1/2 696/1/2 702/1/2
f 701/3/2 695/3/2 702/3/2
f 696/2/2 697/2/2 703/2/2
f 702/1/2 696/1/2 703/1/2
f 697/1/2 698/1/2 704/1/2
f 703/2/2 697/2/2 704/2/2
f 698/1/2 699/1/2 704/1/2
f 704/1/2 699/1/2 705/1/2
f 701/5/2 702/5/2 706/5/2
f 700/5/2 701/5/2 706/5/2
f 702/5/2 703/5/2 706/5/2
f 703/5/2 704/5/2 706/5/2
f 706/5/2 704/5/2 707/5/2
f 707/5/2 704/5/2 708/5/2
f 704/3/2 705/3/2 709/3/2
f 708/5/2 704/5/2 709/5/2
f 705/1/2 699/1/2 710/1/2
f 709/3/2 705/3/2 710/3/2
f 710/1/2 699/1/2 711/1/2
f 706/4/2 707/4/2 712/4/2
f 707/5/2 708/5/2 713/5/2
f 712/4/2 707/4/2 713/4/2
f 713/5/2 708/5/2 714/5/2
f 708/3/2 709/3/2 715/3/2
f 714/5/2 708/5/2 715/5/2
f 709/5/2 710/5/2 716/5/2
f 715/3/2 709/3/2 716/3/2
f 710/4/2 711/4/2 717/4/2
f 716/5/2 710/5/2 717/5/2
f 712/2/2 713/2/2 718/2/2
f 713/1/2 714/1/2 719/1/2
f 718/2/2 713/2/2 719/2/2
f 714/5/2 715/5/2 720/5/2
f 719/1/2 714/1/2 720/1/2
f 715/5/2 716/5/2 720/5/2
f 720/5/2 716/5/2 721/5/2
f 716/4/2 717/4/2 722/4/2
f 721/5/2 716/5/2 722/5/2
f 717/4/2 711/4/2 723/4/2
f 722/4/2 717/4/2 723/4/2
f 718/4/2 719/4/2 724/4/2
f 719/4/2 720/4/2 724/4/2
f 724/4/2 720/4/2 725/4/2
f 720/2/2 721/2/2 726/2/2
f 725/4/2 720/4/2 726/4/2
f 721/5/2 722/5/2 727/5/2
f 726/2/2 721/2/2 727/2/2
f 722/1/2 723/1/2 728/1/2
f 727/5/2 722/5/2 728/5/2
f 728/1/2 723/1/2 729/1/2
f 729/1/2 723/1/2 730/1/2
f 724/3/2 725/3/2 731/3/2
f 725/5/2 726/5/2 732/5/2
f 731/3/2 725/3/2 732/3/2
f 726/3/2 727/3/2 733/3/2
f 732/5/2 726/5/2 733/5/2
f 727/1/2 728/1/2 734/1/2
f 733/3/2 727/3/2 734/3/2
f 728/5/2 729/5/2 735/5/2
f 734/1/2 728/1/2 735/1/2
f 729/3/2 730/3/2 736/3/2
f 735/5/2 729/5/2 736/5/2
f 736/3/2 730/3/2 737/3/2
f 731/2/2 732/2/2 738/2/2
f 732/3/2 733/3/2 739/3/2
f 738/2/2 732/2/2 739/2/2
f 733/3/2 734/3/2 739/3/2
f 734/3/2 735/3/2 739/3/2
f 736/2/2 737/2/2 740/2/2
f 739/3/2 735/3/2 740/3/2
f 735/2/2 736/2/2 740/2/2
f 740/2/2 737/2/2 741/2/2
f 746/12/3 743/12/3 742/12/3
f 747/13/3 744/13/3 743/13/3
f 747/12/3 743/12/3 746/12/3
f 748/11/3 745/11/3 744/11/3
f 748/13/3 744/13/3 747/13/3
f 749/11/3 745/11/3 748/11/3
f 760/4/3 751/4/3 750/4/3
f 761/5/3 752/5/3 751/5/3
f 761/4/3 751/4/3 760/4/3
f 762/1/3 753/1/3 752/1/3
f 762/5/3 752/5/3 761/5/3
f 763/4/3 754/4/3 753/4/3
f 763/1/3 753/1/3 762/1/3
f 764/2/3 755/2/3 754/2/3
f 764/4/3 754/4/3 763/4/3
f 765/4/3 756/4/3 755/4/3
f 765/2/3 755/2/3 764/2/3
f 766/2/3 757/2/3 756/2/3
f 766/4/3 756/4/3 765/4/3
f 767/3/3 758/3/3 757/3/3
f 767/2/3 757/2/3 766/2/3
f 768/11/3 759/11/3 758/11/3
f 768/3/3 758/3/3 767/3/3
f 769/11/3 759/11/3 768/11/3
f 770/4/3 762/4/3 761/4/3
f 770/5/3 763/5/3 762/5/3
f 771/2/3 764/2/3 763/2/3
f 771/5/3 763/5/3 770/5/3
f 772/1/3 765/1/3 764/1/3
f 772/2/3 764/2/3 771/2/3
f 773/4/3 766/4/3 765/4/3
f 773/1/3 765/1/3 772/1/3
f 774/5/3 767/5/3 766/5/3
f 774/4/3 766/4/3 773/4/3
f 775/4/3 768/4/3 767/4/3
f 775/5/3 767/5/3 774/5/3
f 776/13/3 769/13/3 768/13/3
f 776/4/3 768/4/3 775/4/3
f 777/13/3 769/13/3 776/13/3
f 779/1/3 761/1/3 760/1/3
f 780/4/3 770/4/3 761/4/3
f 780/1/3 761/1/3 779/1/3
f 781/2/3 771/2/3 770/2/3
f 781/4/3 770/4/3 780/4/3
f 782/4/3 773/4/3 772/4/3
f 782/2/3 771/2/3 781/2/3
f 782/4/3 772/4/3 771/4/3
f 783/3/3 774/3/3 773/3/3
f 783/4/3 773/4/3 782/4/3
f 784/3/3 774/3/3 783/3/3
f 787/12/3 778/12/3 777/12/3
f 788/12/3 778/12/3 787/12/3
f 789/2/3 780/2/3 779/2/3
f 790/1/3 781/1/3 780/1/3
f 790/2/3 780/2/3 789/2/3
f 791/2/3 782/2/3 781/2/3
f 791/1/3 781/1/3 790/1/3
f 792/3/3 783/3/3 782/3/3
f 792/2/3 782/2/3 791/2/3
f 793/3/3 783/3/3 792/3/3
f 794/2/3 784/2/3 783/2/3
f 794/3/3 783/3/3 793/3/3
f 795/4/3 786/4/3 785/4/3
f 795/2/3 784/2/3 794/2/3
f 795/4/3 785/4/3 784/4/3
f 796/4/3 786/4/3 795/4/3
f 797/4/3 786/4/3 796/4/3
f 798/4/3 790/4/3 789/4/3
f 798/4/3 791/4/3 790/4/3
f 799/4/3 791/4/3 798/4/3
f 800/3/3 792/3/3 791/3/3
f 800/4/3 791/4/3 799/4/3
f 801/2/3 793/2/3 792/2/3
f 801/3/3 792/3/3 800/3/3
f 802/1/3 794/1/3 793/1/3
f 802/5/3 795/5/3 794/5/3
f 803/4/3 796/4/3 795/4/3
f 803/5/3 795/5/3 802/5/3
f 804/2/3 797/2/3 796/2/3
f 804/4/3 796/4/3 803/4/3
f 805/2/3 797/2/3 804/2/3
f 806/5/3 799/5/3 798/5/3
f 807/3/3 800/3/3 799/3/3
f 807/5/3 799/5/3 806/5/3
f 808/4/3 801/4/3 800/4/3
f 808/3/3 800/3/3 807/3/3
f 809/2/3 793/2/3 801/2/3
f 809/4/3 801/4/3 808/4/3
f 810/1/3 802/1/3 793/1/3
f 810/2/3 793/2/3 809/2/3
f 811/2/3 803/2/3 802/2/3
f 811/1/3 802/1/3 810/1/3
f 812/4/3 804/4/3 803/4/3
f 812/2/3 803/2/3 811/2/3
f 813/3/3 805/3/3 804/3/3
f 813/4/3 804/4/3 812/4/3
f 814/3/3 805/3/3 813/3/3
f 823/13/3 816/13/3 815/13/3
f 824/11/3 817/11/3 816/11/3
f 824/13/3 816/13/3 823/13/3
f 825/12/3 818/12/3 817/12/3
f 825/11/3 817/11/3 824/11/3
f 826/12/3 818/12/3 825/12/3
f 828/5/3 820/5/3 819/5/3
f 829/1/3 821/1/3 820/1/3
f 829/5/3 820/5/3 828/5/3
f 830/2/3 822/2/3 821/2/3
f 830/1/3 821/1/3 829/1/3
f 831/2/3 822/2/3 830/2/3
f 832/3/3 823/3/3 822/3/3
f 832/2/3 822/2/3 831/2/3
f 833/5/3 824/5/3 823/5/3
f 833/3/3 823/3/3 832/3/3
f 834/4/3 825/4/3 824/4/3
f 834/5/3 824/5/3 833/5/3
f 835/3/3 826/3/3 825/3/3
f 835/4/3 825/4/3 834/4/3
f 836/12/3 827/12/3 826/12/3
f 836/3/3 826/3/3 835/3/3
f 837/12/3 827/12/3 836/12/3
f 847/3/3 839/3/3 838/3/3
f 848/2/3 840/2/3 839/2/3
f 848/3/3 839/3/3 847/3/3
f 849/3/3 841/3/3 840/3/3
f 849/2/3 840/2/3 848/2/3
f 850/4/3 842/4/3 841/4/3
f 850/3/3 841/3/3 849/3/3
f 851/5/3 843/5/3 842/5/3
f 851/4/3 842/4/3 850/4/3
f 852/3/3 844/3/3 843/3/3
f 852/5/3 843/5/3 851/5/3
f 853/5/3 846/5/3 845/5/3
f 853/3/3 844/3/3 852/3/3
f 853/5/3 845/5/3 844/5/3
f 854/5/3 846/5/3 853/5/3
f 861/1/3 856/1/3 855/1/3
f 862/4/3 857/4/3 856/4/3
f 862/1/3 856/1/3 861/1/3
f 863/2/3 858/2/3 857/2/3
f 863/4/3 857/4/3 862/4/3
f 864/5/3 859/5/3 858/5/3
f 864/2/3 858/2/3 863/2/3
f 865/2/3 860/2/3 859/2/3
f 865/5/3 859/5/3 864/5/3
f 866/2/3 860/2/3 865/2/3
f 876/3/3 868/3/3 867/3/3
f 876/3/3 869/3/3 868/3/3
f 877/1/3 870/1/3 869/1/3
f 877/3/3 869/3/3 876/3/3
f 878/5/3 871/5/3 870/5/3
f 878/1/3 870/1/3 877/1/3
f 879/3/3 872/3/3 871/3/3
f 879/5/3 871/5/3 878/5/3
f 880/2/3 873/2/3 872/2/3
f 880/3/3 872/3/3 879/3/3
f 881/5/3 874/5/3 873/5/3
f 881/2/3 873/2/3 880/2/3
f 882/3/3 875/3/3 874/3/3
f 882/5/3 874/5/3 881/5/3
f 883/3/3 875/3/3 882/3/3
f 890/11/3 885/11/3 884/11/3
f 891/13/3 886/13/3 885/13/3
f 891/11/3 885/11/3 890/11/3
f 892/13/3 886/13/3 891/13/3
f 896/1/3 888/1/3 887/1/3
f 897/3/3 889/3/3 888/3/3
f 897/1/3 888/1/3 896/1/3
f 898/2/3 890/2/3 889/2/3
f 898/3/3 889/3/3 897/3/3
f 899/4/3 891/4/3 890/4/3
f 899/2/3 890/2/3 898/2/3
f 900/5/3 892/5/3 891/5/3
f 900/4/3 891/4/3 899/4/3
f 901/1/3 893/1/3 892/1/3
f 901/5/3 892/5/3 900/5/3
f 902/3/3 894/3/3 893/3/3
f 902/1/3 893/1/3 901/1/3
f 903/5/3 895/5/3 894/5/3
f 903/3/3 894/3/3 902/3/3
f 904/5/3 895/5/3 903/5/3
f 906/13/3 905/13/3 904/13/3
f 907/13/3 905/13/3 906/13/3
f 910/11/3 907/11/3 906/11/3
f 911/11/3 907/11/3 910/11/3
f 912/13/3 909/13/3 908/13/3
f 912/13/3 910/13/3 909/13/3
f 913/13/3 910/13/3 912/13/3
f 915/12/3 914/12/3 913/12/3
f 916/12/3 914/12/3 915/12/3
f 919/12/3 917/12/3 916/12/3
f 920/12/3 917/12/3 919/12/3
f 921/13/3 919/13/3 918/13/3
f 922/13/3 919/13/3 921/13/3
f 932/3/3 924/3/3 923/3/3
f 933/1/3 925/1/3 924/1/3
f 933/3/3 924/3/3 932/3/3
f 934/5/3 926/5/3 925/5/3
f 934/1/3 925/1/3 933/1/3
f 935/4/3 927/4/3 926/4/3
f 935/5/3 926/5/3 934/5/3
f 936/2/3 928/2/3 927/2/3
f 936/4/3 927/4/3 935/4/3
f 937/4/3 929/4/3 928/4/3
f 937/2/3 928/2/3 936/2/3
f 938/3/3 930/3/3 929/3/3
f 938/4/3 929/4/3 937/4/3
f 939/2/3 931/2/3 930/2/3
f 939/3/3 930/3/3 938/3/3
f 940/2/3 931/2/3 939/2/3
f 943/13/3 942/13/3 941/13/3
f 944/13/3 942/13/3 943/13/3
f 950/13/3 946/13/3 945/13/3
f 951/13/3 948/13/3 947/13/3
f 952/13/3 948/13/3 951/13/3
f 953/13/3 950/13/3 949/13/3
f 954/13/3 946/13/3 950/13/3
f 954/13/3 950/13/3 953/13/3
f 955/13/3 946/13/3 954/13/3
f 956/11/3 954/11/3 953/11/3
f 957/13/3 955/13/3 954/13/3
f 957/11/3 954/11/3 956/11/3
f 958/13/3 955/13/3 957/13/3
f 959/13/3 958/13/3 957/13/3
f 960/13/3 958/13/3 959/13/3
f 963/13/3 962/13/3 961/13/3
f 964/13/3 962/13/3 963/13/3
f 967/11/3 966/11/3 965/11/3
f 968/11/3 966/11/3 967/11/3
f 971/13/3 970/13/3 969/13/3
f 972/13/3 970/13/3 971/13/3
f 977/12/3 972/12/3 971/12/3
f 978/6/3 973/6/3 972/6/3
f 978/12/3 972/12/3 977/12/3
f 979/13/3 974/13/3 973/13/3
f 979/6/3 973/6/3 978/6/3
f 980/11/3 976/11/3 975/11/3
f 981/11/3 976/11/3 980/11/3
f 982/13/3 974/13/3 979/13/3
f 983/13/3 974/13/3 982/13/3
f 985/12/3 983/12/3 982/12/3
f 986/12/3 983/12/3 985/12/3
f 988/11/3 985/11/3 984/11/3
f 989/11/3 985/11/3 988/11/3
f 990/11/3 988/11/3 987/11/3
f 991/13/3 989/13/3 988/13/3
f 991/11/3 988/11/3 990/11/3
f 992/13/3 989/13/3 991/13/3
f 993/13/3 991/13/3 990/13/3
f 994/13/3 991/13/3 993/13/3
f 999/11/3 996/11/3 995/11/3
f 1000/11/3 996/11/3 999/11/3
f 1001/13/3 998/13/3 997/13/3
f 1002/13/3 998/13/3 1001/13/3
f 1005/13/3 1003/13/3 1002/13/3
f 1006/13/3 1003/13/3 1005/13/3
f 1007/13/3 1005/13/3 1004/13/3
f 1008/11/3 1006/11/3 1005/11/3
f 1008/13/3 1005/13/3 1007/13/3
f 1009/11/3 1006/11/3 1008/11/3
f 1013/11/3 1008/11/3 1007/11/3
f 1014/11/3 1008/11/3 1013/11/3
f 1015/12/3 1010/12/3 1009/12/3
f 1016/11/3 1011/11/3 1010/11/3
f 1016/12/3 1010/12/3 1015/12/3
f 1017/11/3 1011/11/3 1016/11/3
f 1018/13/3 1013/13/3 1012/13/3
f 1019/13/3 1013/13/3 1018/13/3
f 1024/13/3 1021/13/3 1020/13/3
f 1025/13/3 1021/13/3 1024/13/3
f 1027/13/3 1023/13/3 1022/13/3
f 1028/13/3 1023/13/3 1027/13/3
f 1029/11/3 1027/11/3 1026/11/3
f 1030/11/3 1027/11/3 1029/11/3
f 1033/13/3 1032/13/3 1031/13/3
f 1034/13/3 1032/13/3 1033/13/3
f 1037/12/3 1036/12/3 1035/12/3
f 1038/12/3 1036/12/3 1037/12/3
f 1041/12/3 1040/12/3 1039/12/3
f 1042/12/3 1040/12/3 1041/12/3
f 1043/12/3 1040/12/3 1042/12/3
f 1044/12/3 1040/12/3 1043/12/3
f 1048/4/3 1046/4/3 1045/4/3
f 1049/1/3 1047/1/3 1046/1/3
f 1049/4/3 1046/4/3 1048/4/3
f 1050/1/3 1047/1/3 1049/1/3
f 1054/5/3 1052/5/3 1051/5/3
f 1055/4/3 1053/4/3 1052/4/3
f 1055/5/3 1052/5/3 1054/5/3
f 1056/4/3 1053/4/3 1055/4/3
f 1060/4/3 1058/4/3 1057/4/3
f 1061/5/3 1059/5/3 1058/5/3
f 1061/4/3 1058/4/3 1060/4/3
f 1062/5/3 1059/5/3 1061/5/3
f 1066/1/3 1064/1/3 1063/1/3
f 1067/4/3 1065/4/3 1064/4/3
f 1067/1/3 1064/1/3 1066/1/3
f 1068/4/3 1065/4/3 1067/4/3
f 1072/3/3 1070/3/3 1069/3/3
f 1073/2/3 1071/2/3 1070/2/3
f 1073/3/3 1070/3/3 1072/3/3
f 1074/2/3 1071/2/3 1073/2/3
f 1078/3/3 1076/3/3 1075/3/3
f 1079/5/3 1077/5/3 1076/5/3
f 1079/3/3 1076/3/3 1078/3/3
f 1080/5/3 1077/5/3 1079/5/3
f 1084/5/3 1082/5/3 1081/5/3
f 1085/3/3 1083/3/3 1082/3/3
f 1085/5/3 1082/5/3 1084/5/3
f 1086/3/3 1083/3/3 1085/3/3
f 1087/1/3 1085/1/3 1084/1/3
f 1087/1/3 1086/1/3 1085/1/3
f 1088/1/3 1086/1/3 1087/1/3
f 1089/1/3 1086/1/3 1088/1/3
f 1090/3/3 1088/3/3 1087/3/3
f 1091/4/3 1089/4/3 1088/4/3
f 1091/3/3 1088/3/3 1090/3/3
f 1092/4/3 1089/4/3 1091/4/3
f 1093/3/3 1091/3/3 1090/3/3
f 1094/5/3 1092/5/3 1091/5/3
f 1094/3/3 1091/3/3 1093/3/3
f 1095/5/3 1092/5/3 1094/5/3
f 1098/11/3 1097/11/3 1096/11/3
f 1099/11/3 1097/11/3 1098/11/3
f 1102/11/3 1101/11/3 1100/11/3
f 1103/11/3 1101/11/3 1102/11/3
f 1104/5/4 1105/5/4 1108/5/4
f 1105/4/4 1106/4/4 1109/4/4
f 1108/5/4 1105/5/4 1109/5/4
f 1106/13/4 1107/13/4 1110/13/4
f 1109/4/4 1106/4/4 1110/4/4
f 1110/13/4 1107/13/4 1111/13/4
f 1108/5/4 1109/5/4 1112/5/4
f 1109/2/4 1110/2/4 1113/2/4
f 1112/5/4 1109/5/4 1113/5/4
f 1113/2/4 1110/2/4 1114/2/4
f 1112/4/4 1113/4/4 1115/4/4
f 1113/4/4 1114/4/4 1115/4/4
f 1115/4/4 1114/4/4 1116/4/4
f 1116/4/4 1114/4/4 1117/4/4
f 1115/4/4 1116/4/4 1118/4/4
f 1116/2/4 1117/2/4 1119/2/4
f 1118/4/4 1116/4/4 1119/4/4
f 1119/2/4 1117/2/4 1120/2/4
f 1121/12/4 1122/12/4 1125/12/4
f 1125/12/4 1122/12/4 1126/12/4
f 1123/3/4 1124/3/4 1127/3/4
f 1124/3/4 1125/3/4 1127/3/4
f 1125/11/4 1126/11/4 1128/11/4
f 1127/3/4 1125/3/4 1128/3/4
f 1128/11/4 1126/11/4 1129/11/4
f 1130/11/4 1131/11/4 1132/11/4
f 1132/11/4 1131/11/4 1133/11/4
f 1134/4/4 1135/4/4 1137/4/4
f 1135/3/4 1136/3/4 1138/3/4
f 1137/4/4 1135/4/4 1138/4/4
f 1138/3/4 1136/3/4 1139/3/4
f 1140/1/4 1141/1/4 1142/1/4
f 1142/1/4 1141/1/4 1143/1/4
f 1144/3/4 1145/3/4 1147/3/4
f 1145/2/4 1146/2/4 1148/2/4
f 1147/3/4 1145/3/4 1148/3/4
f 1148/2/4 1146/2/4 1149/2/4
f 1150/11/4 1151/11/4 1152/11/4
f 1152/11/4 1151/11/4 1153/11/4
f 1154/5/4 1155/5/4 1158/5/4
f 1158/5/4 1155/5/4 1159/5/4
f 1156/13/4 1157/13/4 1160/13/4
f 1160/13/4 1157/13/4 1161/13/4
f 1160/11/4 1161/11/4 1162/11/4
f 1162/11/4 1161/11/4 1163/11/4
f 1164/5/4 1165/5/4 1167/5/4
f 1165/4/4 1166/4/4 1168/4/4
f 1167/5/4 1165/5/4 1168/5/4
f 1168/4/4 1166/4/4 1169/4/4
f 1170/11/4 1171/11/4 1172/11/4
f 1172/11/4 1171/11/4 1173/11/4
f 1174/13/4 1175/13/4 1176/13/4
f 1176/13/4 1175/13/4 1177/13/4
f 1176/12/4 1177/12/4 1179/12/4
f 1179/12/4 1177/12/4 1180/12/4
f 1178/11/4 1179/11/4 1181/11/4
f 1181/11/4 1179/11/4 1182/11/4
f 1183/13/4 1184/13/4 1185/13/4
f 1185/13/4 1184/13/4 1186/13/4
f 1187/11/4 1188/11/4 1189/11/4
f 1189/11/4 1188/11/4 1190/11/4
f 1191/13/4 1192/13/4 1193/13/4
f 1193/13/4 1192/13/4 1194/13/4
f 1194/13/4 1195/13/4 1197/13/4
f 1197/13/4 1195/13/4 1198/13/4
f 1196/13/4 1197/13/4 1200/13/4
f 1197/11/4 1198/11/4 1201/11/4
f 1200/13/4 1197/13/4 1201/13/4
f 1201/11/4 1198/11/4 1202/11/4
f 1199/13/4 1200/13/4 1205/13/4
f 1200/11/4 1201/11/4 1206/11/4
f 1205/13/4 1200/13/4 1206/13/4
f 1206/11/4 1201/11/4 1207/11/4
f 1202/12/4 1203/12/4 1208/12/4
f 1203/11/4 1204/11/4 1209/11/4
f 1208/12/4 1203/12/4 1209/12/4
f 1209/11/4 1204/11/4 1210/11/4
f 1205/13/4 1206/13/4 1211/13/4
f 1211/13/4 1206/13/4 1212/13/4
f 1209/13/4 1210/13/4 1213/13/4
f 1213/13/4 1210/13/4 1214/13/4
f 1215/13/4 1216/13/4 1217/13/4
f 1217/13/4 1216/13/4 1218/13/4
f 1219/13/4 1220/13/4 1221/13/4
f 1221/13/4 1220/13/4 1222/13/4
f 1223/13/4 1224/13/4 1227/13/4
f 1227/13/4 1224/13/4 1228/13/4
f 1225/13/4 1226/13/4 1229/13/4
f 1229/13/4 1226/13/4 1230/13/4
f 1231/12/4 1232/12/4 1233/12/4
f 1233/12/4 1232/12/4 1234/12/4
f 1233/12/4 1234/12/4 1238/12/4
f 1234/12/4 1235/12/4 1238/12/4
f 1238/12/4 1235/12/4 1239/12/4
f 1239/12/4 1235/12/4 1240/12/4
f 1236/12/4 1237/12/4 1242/12/4
f 1242/12/4 1237/12/4 1243/12/4
f 1240/11/4 1241/11/4 1244/11/4
f 1244/11/4 1241/11/4 1245/11/4
f 1242/12/4 1243/12/4 1246/12/4
f 1246/12/4 1243/12/4 1247/12/4
f 1246/13/4 1247/13/4 1250/13/4
f 1250/13/4 1247/13/4 1251/13/4
f 1248/12/4 1249/12/4 1252/12/4
f 1252/12/4 1249/12/4 1253/12/4
f 1250/12/4 1251/12/4 1254/12/4
f 1254/12/4 1251/12/4 1255/12/4
f 1256/13/4 1257/13/4 1259/13/4
f 1257/11/4 1258/11/4 1260/11/4
f 1259/13/4 1257/13/4 1260/13/4
f 1260/11/4 1258/11/4 1261/11/4
f 1262/12/4 1263/12/4 1267/12/4
f 1267/12/4 1263/12/4 1268/12/4
f 1268/12/4 1263/12/4 1269/12/4
f 1269/12/4 1263/12/4 1270/12/4
f 1264/5/4 1265/5/4 1273/5/4
f 1265/2/4 1266/2/4 1274/2/4
f 1273/5/4 1265/5/4 1274/5/4
f 1266/1/4 1267/1/4 1275/1/4
f 1274/2/4 1266/2/4 1275/2/4
f 1267/2/4 1268/2/4 1276/2/4
f 1275/1/4 1267/1/4 1276/1/4
f 1268/3/4 1269/3/4 1277/3/4
f 1276/2/4 1268/2/4 1277/2/4
f 1269/2/4 1270/2/4 1278/2/4
f 1277/3/4 1269/3/4 1278/3/4
f 1270/1/4 1271/1/4 1279/1/4
f 1278/2/4 1270/2/4 1279/2/4
f 1271/2/4 1272/2/4 1280/2/4
f 1279/1/4 1271/1/4 1280/1/4
f 1280/2/4 1272/2/4 1281/2/4
f 1282/12/4 1283/12/4 1284/12/4
f 1284/12/4 1283/12/4 1285/12/4
f 1284/6/4 1285/6/4 1288/6/4
f 1285/11/4 1286/11/4 1289/11/4
f 1288/6/4 1285/6/4 1289/6/4
f 1286/12/4 1287/12/4 1290/12/4
f 1289/11/4 1286/11/4 1290/11/4
f 1290/12/4 1287/12/4 1291/12/4
f 1288/12/4 1289/12/4 1292/12/4
f 1292/12/4 1289/12/4 1293/12/4
f 1292/11/4 1293/11/4 1294/11/4
f 1294/11/4 1293/11/4 1295/11/4
f 1294/13/4 1295/13/4 1298/13/4
f 1295/11/4 1296/11/4 1299/11/4
f 1298/13/4 1295/13/4 1299/13/4
f 1296/13/4 1297/13/4 1300/13/4
f 1299/11/4 1296/11/4 1300/11/4
f 1300/13/4 1297/13/4 1301/13/4
f 1302/3/4 1303/3/4 1311/3/4
f 1303/1/4 1304/1/4 1312/1/4
f 1311/3/4 1303/3/4 1312/3/4
f 1304/1/4 1305/1/4 1312/1/4
f 1305/4/4 1306/4/4 1313/4/4
f 1312/1/4 1305/1/4 1313/1/4
f 1306/4/4 1307/4/4 1313/4/4
f 1307/1/4 1308/1/4 1314/1/4
f 1313/4/4 1307/4/4 1314/4/4
f 1308/3/4 1309/3/4 1315/3/4
f 1314/1/4 1308/1/4 1315/1/4
f 1309/2/4 1310/2/4 1316/2/4
f 1315/3/4 1309/3/4 1316/3/4
f 1316/2/4 1310/2/4 1317/2/4
f 1318/5/4 1319/5/4 1326/5/4
f 1319/1/4 1320/1/4 1327/1/4
f 1326/5/4 1319/5/4 1327/5/4
f 1320/3/4 1321/3/4 1328/3/4
f 1327/1/4 1320/1/4 1328/1/4
f 1321/4/4 1322/4/4 1329/4/4
f 1328/3/4 1321/3/4 1329/3/4
f 1322/2/4 1323/2/4 1330/2/4
f 1329/4/4 1322/4/4 1330/4/4
f 1323/1/4 1324/1/4 1331/1/4
f 1330/2/4 1323/2/4 1331/2/4
f 1324/4/4 1325/4/4 1332/4/4
f 1331/1/4 1324/1/4 1332/1/4
f 1332/4/4 1325/4/4 1333/4/4
f 1333/4/4 1325/4/4 1334/4/4
f 1335/11/4 1336/11/4 1337/11/4
f 1337/11/4 1336/11/4 1338/11/4
f 1337/12/4 1338/12/4 1339/12/4
f 1339/12/4 1338/12/4 1340/12/4
f 1341/1/4 1342/1/4 1350/1/4
f 1342/4/4 1343/4/4 1351/4/4
f 1350/1/4 1342/1/4 1351/1/4
f 1343/3/4 1344/3/4 1352/3/4
f 1351/4/4 1343/4/4 1352/4/4
f 1344/4/4 1345/4/4 1353/4/4
f 1352/3/4 1344/3/4 1353/3/4
f 1345/1/4 1346/1/4 1354/1/4
f 1353/4/4 1345/4/4 1354/4/4
f 1346/3/4 1347/3/4 1355/3/4
f 1354/1/4 1346/1/4 1355/1/4
f 1347/1/4 1348/1/4 1356/1/4
f 1355/3/4 1347/3/4 1356/3/4
f 1348/4/4 1349/4/4 1357/4/4
f 1356/1/4 1348/1/4 1357/1/4
f 1357/4/4 1349/4/4 1358/4/4
f 1359/2/4 1360/2/4 1366/2/4
f 1366/2/4 1360/2/4 1367/2/4
f 1361/3/4 1362/3/4 1368/3/4
f 1362/2/4 1363/2/4 1369/2/4
f 1368/3/4 1362/3/4 1369/3/4
f 1363/4/4 1364/4/4 1370/4/4
f 1369/2/4 1363/2/4 1370/2/4
f 1364/5/4 1365/5/4 1371/5/4
f 1370/4/4 1364/4/4 1371/4/4
f 1371/5/4 1365/5/4 1372/5/4
f 1373/5/4 1374/5/4 1381/5/4
f 1374/5/4 1375/5/4 1381/5/4
f 1375/1/4 1376/1/4 1382/1/4
f 1381/5/4 1375/5/4 1382/5/4
f 1376/5/4 1377/5/4 1383/5/4
f 1382/1/4 1376/1/4 1383/1/4
f 1377/5/4 1378/5/4 1383/5/4
f 1378/2/4 1379/2/4 1384/2/4
f 1383/5/4 1378/5/4 1384/5/4
f 1379/3/4 1380/3/4 1385/3/4
f 1384/2/4 1379/2/4 1385/2/4
f 1385/3/4 1380/3/4 1386/3/4
f 1387/12/4 1388/12/4 1392/12/4
f 1388/13/4 1389/13/4 1393/13/4
f 1392/12/4 1388/12/4 1393/12/4
f 1389/11/4 1390/11/4 1394/11/4
f 1393/13/4 1389/13/4 1394/13/4
f 1394/11/4 1390/11/4 1395/11/4
f 1391/2/4 1392/2/4 1399/2/4
f 1392/5/4 1393/5/4 1400/5/4
f 1399/2/4 1392/2/4 1400/2/4
f 1393/5/4 1394/5/4 1400/5/4
f 1400/5/4 1394/5/4 1401/5/4
f 1394/3/4 1395/3/4 1402/3/4
f 1401/5/4 1394/5/4 1402/5/4
f 1402/3/4 1395/3/4 1403/3/4
f 1396/3/4 1397/3/4 1404/3/4
f 1404/3/4 1397/3/4 1405/3/4
f 1397/1/4 1398/1/4 1406/1/4
f 1405/3/4 1397/3/4 1406/3/4
f 1406/1/4 1398/1/4 1407/1/4
f 1406/3/4 1407/3/4 1411/3/4
f 1411/3/4 1407/3/4 1412/3/4
f 1408/4/4 1409/4/4 1415/4/4
f 1409/5/4 1410/5/4 1416/5/4
f 1415/4/4 1409/4/4 1416/4/4
f 1416/5/4 1410/5/4 1417/5/4
f 1412/12/4 1413/12/4 1419/12/4
f 1419/12/4 1413/12/4 1420/12/4
f 1414/3/4 1415/3/4 1421/3/4
f 1415/4/4 1416/4/4 1422/4/4
f 1421/3/4 1415/3/4 1422/3/4
f 1416/4/4 1417/4/4 1422/4/4
f 1422/4/4 1417/4/4 1423/4/4
f 1417/3/4 1418/3/4 1424/3/4
f 1423/4/4 1417/4/4 1424/4/4
f 1424/3/4 1418/3/4 1425/3/4
f 1419/11/4 1420/11/4 1429/11/4
f 1429/11/4 1420/11/4 1430/11/4
f 1421/1/4 1422/1/4 1431/1/4
f 1422/3/4 1423/3/4 1432/3/4
f 1431/1/4 1422/1/4 1432/1/4
f 1432/3/4 1423/3/4 1433/3/4
f 1424/4/4 1425/4/4 1434/4/4
f 1425/3/4 1426/3/4 1435/3/4
f 1434/4/4 1425/4/4 1435/4/4
f 1435/3/4 1426/3/4 1436/3/4
f 1427/3/4 1428/3/4 1437/3/4
f 1428/5/4 1429/5/4 1438/5/4
f 1437/3/4 1428/3/4 1438/3/4
f 1431/4/4 1432/4/4 1439/4/4
f 1432/3/4 1433/3/4 1440/3/4
f 1439/4/4 1432/4/4 1440/4/4
f 1433/3/4 1434/3/4 1440/3/4
f 1440/3/4 1434/3/4 1441/3/4
f 1436/4/4 1437/4/4 1442/4/4
f 1437/5/4 1438/5/4 1443/5/4
f 1442/4/4 1437/4/4 1443/4/4
f 1438/5/4 1429/5/4 1444/5/4
f 1443/5/4 1438/5/4 1444/5/4
f 1445/11/4 1446/11/4 1451/11/4
f 1451/11/4 1446/11/4 1452/11/4
f 1447/13/4 1448/13/4 1455/13/4
f 1448/12/4 1449/12/4 1455/12/4
f 1449/13/4 1450/13/4 1456/13/4
f 1455/12/4 1449/12/4 1456/12/4
f 1450/11/4 1451/11/4 1457/11/4
f 1456/13/4 1450/13/4 1457/13/4
f 1451/13/4 1452/13/4 1458/13/4
f 1457/11/4 1451/11/4 1458/11/4
f 1452/11/4 1453/11/4 1459/11/4
f 1458/13/4 1452/13/4 1459/13/4
f 1453/13/4 1454/13/4 1460/13/4
f 1459/11/4 1453/11/4 1460/11/4
f 1460/13/4 1454/13/4 1461/13/4
f 1447/13/4 1455/13/4 1463/13/4
f 1463/13/4 1455/13/4 1464/13/4
f 1457/13/4 1458/13/4 1465/13/4
f 1458/11/4 1459/11/4 1466/11/4
f 1465/13/4 1458/13/4 1466/13/4
f 1459/13/4 1460/13/4 1467/13/4
f 1466/11/4 1459/11/4 1467/11/4
f 1460/12/4 1461/12/4 1468/12/4
f 1467/13/4 1460/13/4 1468/13/4
f 1461/13/4 1462/13/4 1469/13/4
f 1468/12/4 1461/12/4 1469/12/4
f 1466/13/4 1467/13/4 1472/13/4
f 1467/12/4 1468/12/4 1473/12/4
f 1472/13/4 1467/13/4 1473/13/4
f 1468/13/4 1469/13/4 1474/13/4
f 1473/12/4 1468/12/4 1474/12/4
f 1469/13/4 1462/13/4 1475/13/4
f 1474/13/4 1469/13/4 1475/13/4
f 1470/11/4 1471/11/4 1476/11/4
f 1476/11/4 1471/11/4 1477/11/4
f 1473/12/4 1474/12/4 1479/12/4
f 1479/12/4 1474/12/4 1480/12/4
f 1477/11/4 1478/11/4 1481/11/4
f 1478/13/4 1479/13/4 1482/13/4
f 1481/11/4 1478/11/4 1482/11/4
f 1482/13/4 1479/13/4 1483/13/4
f 1484/11/4 1485/11/4 1486/11/4
f 1486/11/4 1485/11/4 1487/11/4
f 1488/11/4 1489/11/4 1490/11/4
f 1490/11/4 1489/11/4 1491/11/4
f 1499/4/5 1493/4/5 1492/4/5
f 1500/1/5 1494/1/5 1493/1/5
f 1500/4/5 1493/4/5 1499/4/5
f 1501/1/5 1494/1/5 1500/1/5
f 1502/2/5 1495/2/5 1494/2/5
f 1502/4/5 1496/4/5 1495/4/5
f 1503/5/5 1497/5/5 1496/5/5
f 1503/4/5 1496/4/5 1502/4/5
f 1504/5/5 1497/5/5 1503/5/5
f 1507/5/5 1499/5/5 1498/5/5
f 1508/1/5 1500/1/5 1499/1/5
f 1508/5/5 1499/5/5 1507/5/5
f 1509/2/5 1501/2/5 1500/2/5
f 1509/1/5 1500/1/5 1508/1/5
f 1510/1/5 1494/1/5 1501/1/5
f 1510/2/5 1501/2/5 1509/2/5
f 1511/2/5 1502/2/5 1494/2/5
f 1511/1/5 1494/1/5 1510/1/5
f 1512/3/5 1503/3/5 1502/3/5
f 1512/2/5 1502/2/5 1511/2/5
f 1513/1/5 1504/1/5 1503/1/5
f 1513/3/5 1503/3/5 1512/3/5
f 1514/3/5 1505/3/5 1504/3/5
f 1514/1/5 1504/1/5 1513/1/5
f 1515/3/5 1505/3/5 1514/3/5
f 1518/1/5 1507/1/5 1506/1/5
f 1519/4/5 1508/4/5 1507/4/5
f 1519/1/5 1507/1/5 1518/1/5
f 1520/1/5 1510/1/5 1509/1/5
f 1520/4/5 1508/4/5 1519/4/5
f 1520/1/5 1509/1/5 1508/1/5
f 1521/1/5 1510/1/5 1520/1/5
f 1522/2/5 1511/2/5 1510/2/5
f 1522/1/5 1510/1/5 1521/1/5
f 1523/5/5 1512/5/5 1511/5/5
f 1523/2/5 1511/2/5 1522/2/5
f 1524/2/5 1513/2/5 1512/2/5
f 1524/5/5 1512/5/5 1523/5/5
f 1525/1/5 1514/1/5 1513/1/5
f 1525/2/5 1513/2/5 1524/2/5
f 1526/5/5 1515/5/5 1514/5/5
f 1526/1/5 1514/1/5 1525/1/5
f 1527/3/5 1516/3/5 1515/3/5
f 1529/1/5 1518/1/5 1517/1/5
f 1530/2/5 1519/2/5 1518/2/5
f 1530/1/5 1518/1/5 1529/1/5
f 1531/3/5 1520/3/5 1519/3/5
f 1531/2/5 1519/2/5 1530/2/5
f 1532/1/5 1521/1/5 1520/1/5
f 1532/3/5 1520/3/5 1531/3/5
f 1533/5/5 1522/5/5 1521/5/5
f 1533/1/5 1521/1/5 1532/1/5
f 1534/4/5 1523/4/5 1522/4/5
f 1534/5/5 1522/5/5 1533/5/5
f 1534/4/5 1524/4/5 1523/4/5
f 1535/4/5 1524/4/5 1534/4/5
f 1536/3/5 1525/3/5 1524/3/5
f 1536/4/5 1524/4/5 1535/4/5
f 1537/4/5 1526/4/5 1525/4/5
f 1537/3/5 1525/3/5 1536/3/5
f 1538/5/5 1515/5/5 1526/5/5
f 1538/4/5 1526/4/5 1537/4/5
f 1539/3/5 1528/3/5 1527/3/5
f 1539/5/5 1515/5/5 1538/5/5
f 1539/3/5 1527/3/5 1515/3/5
f 1540/3/5 1528/3/5 1539/3/5
f 1541/3/5 1528/3/5 1540/3/5
f 1542/3/5 1530/3/5 1529/3/5
f 1543/4/5 1531/4/5 1530/4/5
f 1543/3/5 1530/3/5 1542/3/5
f 1544/3/5 1533/3/5 1532/3/5
f 1544/4/5 1531/4/5 1543/4/5
f 1544/3/5 1532/3/5 1531/3/5
f 1545/3/5 1533/3/5 1544/3/5
f 1546/5/5 1534/5/5 1533/5/5
f 1546/3/5 1533/3/5 1545/3/5
f 1547/2/5 1535/2/5 1534/2/5
f 1547/5/5 1534/5/5 1546/5/5
f 1548/3/5 1536/3/5 1535/3/5
f 1548/2/5 1535/2/5 1547/2/5
f 1549/5/5 1537/5/5 1536/5/5
f 1549/3/5 1536/3/5 1548/3/5
f 1550/2/5 1538/2/5 1537/2/5
f 1550/5/5 1537/5/5 1549/5/5
f 1550/2/5 1539/2/5 1538/2/5
f 1551/3/5 1540/3/5 1539/3/5
f 1551/2/5 1539/2/5 1550/2/5
f 1552/5/5 1541/5/5 1540/5/5
f 1552/3/5 1540/3/5 1551/3/5
f 1553/5/5 1541/5/5 1552/5/5
f 1554/1/5 1543/1/5 1542/1/5
f 1555/5/5 1544/5/5 1543/5/5
f 1555/1/5 1543/1/5 1554/1/5
f 1556/4/5 1545/4/5 1544/4/5
f 1556/5/5 1544/5/5 1555/5/5
f 1557/5/5 1546/5/5 1545/5/5
f 1557/1/5 1547/1/5 1546/1/5
f 1558/4/5 1548/4/5 1547/4/5
f 1558/1/5 1547/1/5 1557/1/5
f 1559/5/5 1549/5/5 1548/5/5
f 1559/4/5 1548/4/5 1558/4/5
f 1560/1/5 1550/1/5 1549/1/5
f 1560/5/5 1549/5/5 1559/5/5
f 1561/2/5 1551/2/5 1550/2/5
f 1561/1/5 1550/1/5 1560/1/5
f 1562/2/5 1551/2/5 1561/2/5
f 1563/4/5 1552/4/5 1551/4/5
f 1563/2/5 1551/2/5 1562/2/5
f 1564/2/5 1553/2/5 1552/2/5
f 1564/4/5 1552/4/5 1563/4/5
f 1565/2/5 1553/2/5 1564/2/5
f 1566/5/5 1555/5/5 1554/5/5
f 1566/2/5 1556/2/5 1555/2/5
f 1567/4/5 1545/4/5 1556/4/5
f 1567/2/5 1556/2/5 1566/2/5
f 1568/5/5 1557/5/5 1545/5/5
f 1568/4/5 1545/4/5 1567/4/5
f 1569/3/5 1558/3/5 1557/3/5
f 1569/5/5 1557/5/5 1568/5/5
f 1570/5/5 1559/5/5 1558/5/5
f 1570/3/5 1558/3/5 1569/3/5
f 1571/1/5 1560/1/5 1559/1/5
f 1571/5/5 1559/5/5 1570/5/5
f 1571/1/5 1561/1/5 1560/1/5
f 1572/1/5 1561/1/5 1571/1/5
f 1573/3/5 1562/3/5 1561/3/5
f 1573/1/5 1561/1/5 1572/1/5
f 1574/2/5 1563/2/5 1562/2/5
f 1574/3/5 1562/3/5 1573/3/5
f 1575/1/5 1564/1/5 1563/1/5
f 1575/2/5 1563/2/5 1574/2/5
f 1576/5/5 1565/5/5 1564/5/5
f 1576/1/5 1564/1/5 1575/1/5
f 1577/5/5 1565/5/5 1576/5/5
f 1578/3/5 1568/3/5 1567/3/5
f 1578/3/5 1567/3/5 1566/3/5
f 1578/5/5 1566/5/5 1554/5/5
f 1579/4/5 1569/4/5 1568/4/5
f 1579/3/5 1568/3/5 1578/3/5
f 1580/5/5 1570/5/5 1569/5/5
f 1580/4/5 1569/4/5 1579/4/5
f 1581/4/5 1571/4/5 1570/4/5
f 1581/5/5 1570/5/5 1580/5/5
f 1582/2/5 1572/2/5 1571/2/5
f 1582/4/5 1571/4/5 1581/4/5
f 1583/1/5 1573/1/5 1572/1/5
f 1583/2/5 1572/2/5 1582/2/5
f 1584/4/5 1574/4/5 1573/4/5
f 1584/1/5 1573/1/5 1583/1/5
f 1585/1/5 1575/1/5 1574/1/5
f 1585/4/5 1574/4/5 1584/4/5
f 1586/3/5 1576/3/5 1575/3/5
f 1586/1/5 1575/1/5 1585/1/5
f 1587/4/5 1577/4/5 1576/4/5
f 1587/3/5 1576/3/5 1586/3/5
f 1588/4/5 1577/4/5 1587/4/5
f 1589/5/5 1578/5/5 1554/5/5
f 1590/2/5 1579/2/5 1578/2/5
f 1590/5/5 1578/5/5 1589/5/5
f 1591/2/5 1579/2/5 1590/2/5
f 1592/4/5 1581/4/5 1580/4/5
f 1592/2/5 1579/2/5 1591/2/5
f 1592/4/5 1580/4/5 1579/4/5
f 1593/4/5 1581/4/5 1592/4/5
f 1594/2/5 1582/2/5 1581/2/5
f 1594/4/5 1581/4/5 1593/4/5
f 1595/5/5 1583/5/5 1582/5/5
f 1595/2/5 1582/2/5 1594/2/5
f 1596/2/5 1584/2/5 1583/2/5
f 1596/5/5 1583/5/5 1595/5/5
f 1597/4/5 1585/4/5 1584/4/5
f 1597/2/5 1584/2/5 1596/2/5
f 1598/2/5 1586/2/5 1585/2/5
f 1598/4/5 1585/4/5 1597/4/5
f 1599/3/5 1587/3/5 1586/3/5
f 1599/2/5 1586/2/5 1598/2/5
f 1599/3/5 1588/3/5 1587/3/5
f 1600/3/5 1588/3/5 1599/3/5
f 1601/3/5 1588/3/5 1600/3/5
f 1602/5/5 1591/5/5 1590/5/5
f 1603/3/5 1592/3/5 1591/3/5
f 1603/5/5 1591/5/5 1602/5/5
f 1604/2/5 1593/2/5 1592/2/5
f 1604/3/5 1592/3/5 1603/3/5
f 1605/1/5 1594/1/5 1593/1/5
f 1605/2/5 1593/2/5 1604/2/5
f 1606/3/5 1595/3/5 1594/3/5
f 1606/1/5 1594/1/5 1605/1/5
f 1607/2/5 1597/2/5 1596/2/5
f 1607/3/5 1595/3/5 1606/3/5
f 1607/2/5 1596/2/5 1595/2/5
f 1608/2/5 1597/2/5 1607/2/5
f 1609/3/5 1599/3/5 1598/3/5
f 1609/2/5 1597/2/5 1608/2/5
f 1609/3/5 1598/3/5 1597/3/5
f 1610/3/5 1599/3/5 1609/3/5
f 1611/1/5 1600/1/5 1599/1/5
f 1611/3/5 1599/3/5 1610/3/5
f 1612/1/5 1600/1/5 1611/1/5
f 1613/2/5 1604/2/5 1603/2/5
f 1614/4/5 1605/4/5 1604/4/5
f 1614/2/5 1604/2/5 1613/2/5
f 1615/2/5 1606/2/5 1605/2/5
f 1615/4/5 1605/4/5 1614/4/5
f 1616/4/5 1608/4/5 1607/4/5
f 1616/2/5 1606/2/5 1615/2/5
f 1616/4/5 1607/4/5 1606/4/5
f 1617/5/5 1609/5/5 1608/5/5
f 1617/4/5 1608/4/5 1616/4/5
f 1618/3/5 1610/3/5 1609/3/5
f 1618/5/5 1609/5/5 1617/5/5
f 1619/5/5 1611/5/5 1610/5/5
f 1619/3/5 1610/3/5 1618/3/5
f 1620/5/5 1611/5/5 1619/5/5
f 1621/2/5 1615/2/5 1614/2/5
f 1622/3/5 1617/3/5 1616/3/5
f 1622/2/5 1615/2/5 1621/2/5
f 1622/3/5 1616/3/5 1615/3/5
f 1623/3/5 1617/3/5 1622/3/5
f 1624/1/5 1618/1/5 1617/1/5
f 1624/3/5 1617/3/5 1623/3/5
f 1625/4/5 1619/4/5 1618/4/5
f 1625/1/5 1618/1/5 1624/1/5
f 1626/4/5 1619/4/5 1625/4/5
f 1628/13/5 1623/13/5 1622/13/5
f 1629/13/5 1623/13/5 1628/13/5
f 1631/11/5 1628/11/5 1627/11/5
f 1632/11/5 1628/11/5 1631/11/5
f 1633/11/5 1630/11/5 1629/11/5
f 1634/11/5 1630/11/5 1633/11/5
f 1637/12/5 1636/12/5 1635/12/5
f 1638/12/5 1636/12/5 1637/12/5
f 1641/11/5 1640/11/5 1639/11/5
f 1642/11/5 1640/11/5 1641/11/5
f 1643/13/5 1642/13/5 1641/13/5
f 1644/13/5 1642/13/5 1643/13/5
f 1647/11/5 1646/11/5 1645/11/5
f 1648/11/5 1646/11/5 1647/11/5
f 1651/11/5 1650/11/5 1649/11/5
f 1652/11/5 1650/11/5 1651/11/5
f 1655/13/5 1654/13/5 1653/13/5
f 1656/13/5 1654/13/5 1655/13/5
f 1659/12/5 1658/12/5 1657/12/5
f 1660/12/5 1658/12/5 1659/12/5
f 1665/13/5 1662/13/5 1661/13/5
f 1666/13/5 1662/13/5 1665/13/5
f 1667/11/5 1664/11/5 1663/11/5
f 1668/11/5 1664/11/5 1667/11/5
f 1671/11/5 1670/11/5 1669/11/5
f 1672/11/5 1670/11/5 1671/11/5
f 1677/11/5 1674/11/5 1673/11/5
f 1678/11/5 1674/11/5 1677/11/5
f 1679/13/5 1676/13/5 1675/13/5
f 1680/13/5 1676/13/5 1679/13/5
f 1683/13/5 1682/13/5 1681/13/5
f 1684/13/5 1682/13/5 1683/13/5
f 1687/12/5 1686/12/5 1685/12/5
f 1688/12/5 1686/12/5 1687/12/5
f 1691/12/5 1690/12/5 1689/12/5
f 1692/12/5 1690/12/5 1691/12/5
f 1695/13/5 1694/13/5 1693/13/5
f 1696/13/5 1694/13/5 1695/13/5
f 1700/13/5 1698/13/5 1697/13/5
f 1701/13/5 1698/13/5 1700/13/5
f 1706/13/5 1700/13/5 1699/13/5
f 1707/13/5 1700/13/5 1706/13/5
f 1709/13/5 1703/13/5 1702/13/5
f 1710/13/5 1703/13/5 1709/13/5
f 1711/13/5 1705/13/5 1704/13/5
f 1712/13/5 1705/13/5 1711/13/5
f 1717/11/5 1709/11/5 1708/11/5
f 1718/11/5 1709/11/5 1717/11/5
f 1719/12/5 1712/12/5 1711/12/5
f 1720/12/5 1712/12/5 1719/12/5
f 1721/13/5 1714/13/5 1713/13/5
f 1722/13/5 1714/13/5 1721/13/5
f 1723/13/5 1716/13/5 1715/13/5
f 1724/13/5 1716/13/5 1723/13/5
f 1727/12/5 1726/12/5 1725/12/5
f 1732/12/5 1727/12/5 1725/12/5
f 1733/6/5 1728/6/5 1727/6/5
f 1733/12/5 1727/12/5 1732/12/5
f 1734/12/5 1729/12/5 1728/12/5
f 1734/6/5 1728/6/5 1733/6/5
f 1735/11/5 1730/11/5 1729/11/5
f 1735/12/5 1729/12/5 1734/12/5
f 1736/13/5 1731/13/5 1730/13/5
f 1736/11/5 1730/11/5 1735/11/5
f 1737/13/5 1731/13/5 1736/13/5
f 1740/12/5 1739/12/5 1738/12/5
f 1741/12/5 1739/12/5 1740/12/5
f 1743/11/5 1741/11/5 1740/11/5
f 1744/11/5 1741/11/5 1743/11/5
f 1746/12/5 1744/12/5 1743/12/5
f 1746/12/5 1743/12/5 1742/12/5
f 1747/13/5 1745/13/5 1744/13/5
f 1747/12/5 1744/12/5 1746/12/5
f 1748/13/5 1745/13/5 1747/13/5
f 1753/13/5 1750/13/5 1749/13/5
f 1754/13/5 1750/13/5 1753/13/5
f 1755/13/5 1752/13/5 1751/13/5
f 1758/12/5 1757/12/5 1756/12/5
f 1759/12/5 1757/12/5 1758/12/5
f 1760/13/5 1752/13/5 1755/13/5
f 1761/13/5 1752/13/5 1760/13/5
f 1765/12/5 1763/12/5 1762/12/5
f 1765/12/5 1764/12/5 1763/12/5
f 1766/12/5 1764/12/5 1765/12/5
f 1767/11/5 1766/11/5 1765/11/5
f 1768/12/5 1764/12/5 1766/12/5
f 1768/11/5 1766/11/5 1767/11/5
f 1769/12/5 1764/12/5 1768/12/5
f 1770/13/6 1771/13/6 1774/13/6
f 1774/13/6 1771/13/6 1775/13/6
f 1772/11/6 1773/11/6 1777/11/6
f 1777/11/6 1773/11/6 1778/11/6
f 1775/11/6 1776/11/6 1779/11/6
f 1779/11/6 1776/11/6 1780/11/6
f 1781/11/6 1782/11/6 1783/11/6
f 1783/11/6 1782/11/6 1784/11/6
f 1783/13/6 1784/13/6 1785/13/6
f 1785/13/6 1784/13/6 1786/13/6
f 1787/11/6 1788/11/6 1789/11/6
f 1789/11/6 1788/11/6 1790/11/6
f 1791/13/6 1792/13/6 1793/13/6
f 1793/13/6 1792/13/6 1794/13/6
f 1795/11/6 1796/11/6 1797/11/6
f 1797/11/6 1796/11/6 1798/11/6
f 1799/13/6 1800/13/6 1801/13/6
f 1801/13/6 1800/13/6 1802/13/6
f 1801/11/6 1802/11/6 1803/11/6
f 1803/11/6 1802/11/6 1804/11/6
f 1805/11/6 1806/11/6 1809/11/6
f 1809/11/6 1806/11/6 1810/11/6
f 1807/13/6 1808/13/6 1811/13/6
f 1811/13/6 1808/13/6 1812/13/6
f 1813/8/6 1814/8/6 1819/8/6
f 1814/7/6 1815/7/6 1820/7/6
f 1819/8/6 1814/8/6 1820/8/6
f 1815/8/6 1816/8/6 1821/8/6
f 1820/7/6 1815/7/6 1821/7/6
f 1816/9/6 1817/9/6 1822/9/6
f 1821/8/6 1816/8/6 1822/8/6
f 1822/9/6 1817/9/6 1823/9/6
f 1818/7/6 1819/7/6 1826/7/6
f 1819/7/6 1820/7/6 1826/7/6
f 1826/7/6 1820/7/6 1827/7/6
f 1820/8/6 1821/8/6 1828/8/6
f 1827/7/6 1820/7/6 1828/7/6
f 1821/8/6 1822/8/6 1828/8/6
f 1822/7/6 1823/7/6 1829/7/6
f 1828/8/6 1822/8/6 1829/8/6
f 1823/10/6 1824/10/6 1830/10/6
f 1829/7/6 1823/7/6 1830/7/6
f 1830/10/6 1824/10/6 1831/10/6
f 1825/9/6 1826/9/6 1834/9/6
f 1834/9/6 1826/9/6 1835/9/6
f 1827/10/6 1828/10/6 1836/10/6
f 1828/9/6 1829/9/6 1837/9/6
f 1836/10/6 1828/10/6 1837/10/6
f 1837/9/6 1829/9/6 1838/9/6
f 1829/8/6 1830/8/6 1839/8/6
f 1838/9/6 1829/9/6 1839/9/6
f 1830/7/6 1831/7/6 1840/7/6
f 1839/8/6 1830/8/6 1840/8/6
f 1831/8/6 1832/8/6 1841/8/6
f 1840/7/6 1831/7/6 1841/7/6
f 1841/8/6 1832/8/6 1842/8/6
f 1833/8/6 1834/8/6 1844/8/6
f 1844/8/6 1834/8/6 1845/8/6
f 1836/9/6 1837/9/6 1847/9/6
f 1847/9/6 1837/9/6 1848/9/6
f 1839/14/6 1840/14/6 1849/14/6
f 1841/9/6 1842/9/6 1850/9/6
f 1849/14/6 1840/14/6 1850/14/6
f 1840/9/6 1841/9/6 1850/9/6
f 1850/9/6 1842/9/6 1851/9/6
f 1842/7/6 1843/7/6 1852/7/6
f 1851/9/6 1842/9/6 1852/9/6
f 1852/7/6 1843/7/6 1853/7/6
f 1846/7/6 1847/7/6 1856/7/6
f 1856/7/6 1847/7/6 1857/7/6
f 1849/9/6 1850/9/6 1858/9/6
f 1850/8/6 1851/8/6 1859/8/6
f 1858/9/6 1850/9/6 1859/9/6
f 1851/10/6 1852/10/6 1860/10/6
f 1859/8/6 1851/8/6 1860/8/6
f 1852/8/6 1853/8/6 1861/8/6
f 1860/10/6 1852/10/6 1861/10/6
f 1861/8/6 1853/8/6 1862/8/6
f 1854/7/6 1855/7/6 1863/7/6
f 1863/7/6 1855/7/6 1864/7/6
f 1859/9/6 1860/9/6 1867/9/6
f 1860/10/6 1861/10/6 1868/10/6
f 1867/9/6 1860/9/6 1868/9/6
f 1861/9/6 1862/9/6 1869/9/6
f 1868/10/6 1861/10/6 1869/10/6
f 1869/9/6 1862/9/6 1870/9/6
f 1863/7/6 1864/7/6 1873/7/6
f 1864/10/6 1865/10/6 1874/10/6
f 1873/7/6 1864/7/6 1874/7/6
f 1865/7/6 1866/7/6 1875/7/6
f 1874/10/6 1865/10/6 1875/10/6
f 1875/7/6 1866/7/6 1876/7/6
f 1867/9/6 1868/9/6 1880/9/6
f 1868/14/6 1869/14/6 1881/14/6
f 1880/9/6 1868/9/6 1881/9/6
f 1869/10/6 1870/10/6 1882/10/6
f 1881/14/6 1869/14/6 1882/14/6
f 1882/10/6 1870/10/6 1883/10/6
f 1871/12/6 1872/12/6 1884/12/6
f 1884/12/6 1872/12/6 1885/12/6
f 1874/7/6 1875/7/6 1886/7/6
f 1875/10/6 1876/10/6 1887/10/6
f 1886/7/6 1875/7/6 1887/7/6
f 1876/10/6 1877/10/6 1887/10/6
f 1877/14/6 1878/14/6 1888/14/6
f 1887/10/6 1877/10/6 1888/10/6
f 1878/9/6 1879/9/6 1889/9/6
f 1888/14/6 1878/14/6 1889/14/6
f 1879/8/6 1880/8/6 1890/8/6
f 1889/9/6 1879/9/6 1890/9/6
f 1880/10/6 1881/10/6 1891/10/6
f 1890/8/6 1880/8/6 1891/8/6
f 1881/7/6 1882/7/6 1892/7/6
f 1891/10/6 1881/10/6 1892/10/6
f 1892/7/6 1882/7/6 1893/7/6
f 1887/10/6 1888/10/6 1894/10/6
f 1894/10/6 1888/10/6 1895/10/6
f 1888/8/6 1889/8/6 1896/8/6
f 1895/10/6 1888/10/6 1896/10/6
f 1890/7/6 1891/7/6 1897/7/6
f 1889/7/6 1890/7/6 1897/7/6
f 1891/10/6 1892/10/6 1898/10/6
f 1897/7/6 1891/7/6 1898/7/6
f 1898/10/6 1892/10/6 1899/10/6
f 1895/7/6 1896/7/6 1900/7/6
f 1896/8/6 1889/8/6 1901/8/6
f 1900/7/6 1896/7/6 1901/7/6
f 1889/7/6 1897/7/6 1902/7/6
f 1901/8/6 1889/8/6 1902/8/6
f 1897/8/6 1898/8/6 1903/8/6
f 1902/7/6 1897/7/6 1903/7/6
f 1903/8/6 1898/8/6 1904/8/6
f 1905/12/6 1906/12/6 1907/12/6
f 1907/12/6 1906/12/6 1908/12/6
f 1909/11/6 1910/11/6 1912/11/6
f 1910/13/6 1911/13/6 1913/13/6
f 1912/11/6 1910/11/6 1913/11/6
f 1913/13/6 1911/13/6 1914/13/6
f 1915/13/6 1916/13/6 1917/13/6
f 1917/13/6 1916/13/6 1918/13/6
f 1919/13/6 1920/13/6 1921/13/6
f 1921/13/6 1920/13/6 1922/13/6
f 1923/4/6 1924/4/6 1929/4/6
f 1924/2/6 1925/2/6 1930/2/6
f 1929/4/6 1924/4/6 1930/4/6
f 1925/3/6 1926/3/6 1931/3/6
f 1930/2/6 1925/2/6 1931/2/6
f 1931/3/6 1926/3/6 1932/3/6
f 1927/12/6 1928/12/6 1934/12/6
f 1934/12/6 1928/12/6 1935/12/6
f 1931/3/6 1932/3/6 1937/3/6
f 1932/5/6 1933/5/6 1938/5/6
f 1937/3/6 1932/3/6 1938/3/6
f 1938/5/6 1933/5/6 1939/5/6
f 1934/2/6 1935/2/6 1942/2/6
f 1935/5/6 1936/5/6 1943/5/6
f 1942/2/6 1935/2/6 1943/2/6
f 1943/5/6 1936/5/6 1944/5/6
f 1938/2/6 1939/2/6 1946/2/6
f 1939/3/6 1940/3/6 1947/3/6
f 1946/2/6 1939/2/6 1947/2/6
f 1947/3/6 1940/3/6 1948/3/6
f 1941/5/6 1942/5/6 1950/5/6
f 1944/13/6 1945/13/6 1952/13/6
f 1952/13/6 1945/13/6 1953/13/6
f 1947/4/6 1948/4/6 1956/4/6
f 1948/2/6 1949/2/6 1957/2/6
f 1956/4/6 1948/4/6 1957/4/6
f 1957/2/6 1949/2/6 1958/2/6
f 1941/5/6 1950/5/6 1959/5/6
f 1950/13/6 1951/13/6 1960/13/6
f 1959/5/6 1950/5/6 1960/5/6
f 1951/12/6 1952/12/6 1961/12/6
f 1960/13/6 1951/13/6 1961/13/6
f 1952/11/6 1953/11/6 1962/11/6
f 1961/12/6 1952/12/6 1962/12/6
f 1962/11/6 1953/11/6 1963/11/6
f 1954/13/6 1955/13/6 1964/13/6
f 1964/13/6 1955/13/6 1965/13/6
f 1959/1/6 1960/1/6 1967/1/6
f 1967/1/6 1960/1/6 1968/1/6
f 1966/13/6 1967/13/6 1969/13/6
f 1969/13/6 1967/13/6 1970/13/6
f 1957/3/6 1958/3/6 1972/3/6
f 1972/3/6 1958/3/6 1973/3/6
f 1970/5/6 1971/5/6 1974/5/6
f 1974/5/6 1971/5/6 1975/5/6
f 1972/2/6 1973/2/6 1980/2/6
f 1974/2/6 1975/2/6 1981/2/6
f 1975/1/6 1976/1/6 1982/1/6
f 1981/2/6 1975/2/6 1982/2/6
f 1982/1/6 1976/1/6 1983/1/6
f 1977/12/6 1978/12/6 1984/12/6
f 1984/12/6 1978/12/6 1985/12/6
f 1979/4/6 1980/4/6 1987/4/6
f 1980/2/6 1973/2/6 1988/2/6
f 1987/4/6 1980/4/6 1988/4/6
f 1988/2/6 1973/2/6 1989/2/6
f 1982/4/6 1983/4/6 1990/4/6
f 1983/5/6 1984/5/6 1991/5/6
f 1990/4/6 1983/4/6 1991/4/6
f 1991/5/6 1984/5/6 1992/5/6
f 1987/4/6 1988/4/6 1995/4/6
f 1986/4/6 1987/4/6 1995/4/6
f 1995/4/6 1988/4/6 1996/4/6
f 1996/4/6 1988/4/6 1997/4/6
f 1991/5/6 1992/5/6 1998/5/6
f 1992/2/6 1993/2/6 1999/2/6
f 1998/5/6 1992/5/6 1999/5/6
f 1999/2/6 1993/2/6 2000/2/6
f 1994/5/6 1995/5/6 2003/5/6
f 1995/3/6 1996/3/6 2004/3/6
f 2003/5/6 1995/5/6 2004/5/6
f 2004/3/6 1996/3/6 2005/3/6
f 1999/1/6 2000/1/6 2006/1/6
f 2000/3/6 2001/3/6 2007/3/6
f 2006/1/6 2000/1/6 2007/1/6
f 2007/3/6 2001/3/6 2008/3/6
f 2002/5/6 2003/5/6 2010/5/6
f 2003/5/6 2004/5/6 2010/5/6
f 2010/5/6 2004/5/6 2011/5/6
f 2008/13/6 2009/13/6 2012/13/6
f 2009/13/6 2010/13/6 2012/13/6
f 2012/13/6 2010/13/6 2013/13/6
f 2014/11/6 2015/11/6 2018/11/6
f 2018/11/6 2015/11/6 2019/11/6
f 2016/11/6 2017/11/6 2021/11/6
f 2017/13/6 2018/13/6 2022/13/6
f 2021/11/6 2017/11/6 2022/11/6
f 2022/13/6 2018/13/6 2023/13/6
f 2020/12/6 2021/12/6 2024/12/6
f 2021/11/6 2022/11/6 2025/11/6
f 2024/12/6 2021/12/6 2025/12/6
f 2025/11/6 2022/11/6 2026/11/6
f 2027/11/6 2028/11/6 2033/11/6
f 2033/11/6 2028/11/6 2034/11/6
f 2029/13/6 2030/13/6 2036/13/6
f 2030/11/6 2031/11/6 2037/11/6
f 2036/13/6 2030/13/6 2037/13/6
f 2037/11/6 2031/11/6 2038/11/6
f 2032/12/6 2033/12/6 2039/12/6
f 2039/12/6 2033/12/6 2040/12/6
f 2034/13/6 2035/13/6 2041/13/6
f 2041/13/6 2035/13/6 2042/13/6
f 2041/6/6 2042/6/6 2045/6/6
f 2045/6/6 2042/6/6 2046/6/6
f 2043/13/6 2044/13/6 2051/13/6
f 2051/13/6 2044/13/6 2052/13/6
f 2047/13/6 2048/13/6 2053/13/6
f 2053/13/6 2048/13/6 2054/13/6
f 2049/13/6 2050/13/6 2055/13/6
f 2050/11/6 2051/11/6 2056/11/6
f 2055/13/6 2050/13/6 2056/13/6
f 2056/11/6 2051/11/6 2057/11/6
f 2057/12/6 2058/12/6 2059/12/6
f 2059/12/6 2058/12/6 2060/12/6
f 2061/11/6 2062/11/6 2064/11/6
f 2062/12/6 2063/12/6 2065/12/6
f 2064/11/6 2062/11/6 2065/11/6
f 2065/12/6 2063/12/6 2066/12/6
f 2064/12/6 2065/12/6 2067/12/6
f 2065/11/6 2066/11/6 2068/11/6
f 2067/12/6 2065/12/6 2068/12/6
f 2068/11/6 2066/11/6 2069/11/6
f 2070/12/6 2071/12/6 2072/12/6
f 2072/12/6 2071/12/6 2073/12/6
f 2072/11/6 2073/11/6 2074/11/6
f 2074/11/6 2073/11/6 2075/11/6
f 2076/12/6 2077/12/6 2079/12/6
f 2078/13/6 2079/13/6 2080/13/6
f 2079/12/6 2077/12/6 2081/12/6
f 2080/13/6 2079/13/6 2081/13/6
f 2081/12/6 2077/12/6 2082/12/6
f 2082/11/6 2083/11/6 2085/11/6
f 2083/13/6 2084/13/6 2086/13/6
f 2085/11/6 2083/11/6 2086/11/6
f 2086/13/6 2084/13/6 2087/13/6
f 2085/12/6 2086/12/6 2092/12/6
f 2092/12/6 2086/12/6 2093/12/6
f 2087/11/6 2088/11/6 2094/11/6
f 2089/12/6 2090/12/6 2095/12/6
f 2095/12/6 2090/12/6 2096/12/6
f 2091/11/6 2092/11/6 2097/11/6
f 2097/11/6 2092/11/6 2098/11/6
f 2093/12/6 2094/12/6 2099/12/6
f 2094/11/6 2088/11/6 2100/11/6
f 2099/12/6 2094/12/6 2100/12/6
f 2100/11/6 2088/11/6 2101/11/6
f 2097/12/6 2098/12/6 2102/12/6
f 2096/12/6 2097/12/6 2102/12/6
f 2102/12/6 2098/12/6 2103/12/6
f 2098/6/6 2099/6/6 2104/6/6
f 2103/12/6 2098/12/6 2104/12/6
f 2099/13/6 2100/13/6 2105/13/6
f 2104/6/6 2099/6/6 2105/6/6
f 2105/13/6 2100/13/6 2106/13/6
f 2103/11/6 2104/11/6 2107/11/6
f 2104/12/6 2105/12/6 2108/12/6
f 2107/11/6 2104/11/6 2108/11/6
f 2108/12/6 2105/12/6 2109/12/6
f 2110/13/6 2111/13/6 2114/13/6
f 2114/13/6 2111/13/6 2115/13/6
f 2111/12/6 2112/12/6 2116/12/6
f 2115/13/6 2111/13/6 2116/13/6
f 2116/12/6 2112/12/6 2117/12/6
f 2113/11/6 2114/11/6 2120/11/6
f 2114/13/6 2115/13/6 2121/13/6
f 2120/11/6 2114/11/6 2121/11/6
f 2115/12/6 2116/12/6 2122/12/6
f 2121/13/6 2115/13/6 2122/13/6
f 2116/13/6 2117/13/6 2123/13/6
f 2122/12/6 2116/12/6 2123/12/6
f 2123/13/6 2117/13/6 2124/13/6
f 2118/13/6 2119/13/6 2125/13/6
f 2125/13/6 2119/13/6 2126/13/6
f 2122/11/6 2123/11/6 2127/11/6
f 2127/11/6 2123/11/6 2128/11/6
f 2124/12/6 2125/12/6 2129/12/6
f 2129/12/6 2125/12/6 2130/12/6
