# MagicaVoxel @ Ephtracy

# group
o 

# material
mtllib spaceship_inside-9.mtl
usemtl palette

# normals
vn -1 0 0
vn 1 0 0
vn 0 0 1
vn 0 0 -1
vn 0 -1 0
vn 0 1 0

# texcoords
vt 0.732422 0.5
vt 0.869141 0.5
vt 0.962891 0.5
vt 0.978516 0.5

# verts
v -0.1 -0.45 1.05
v -0.1 -0.45 -1.05
v -0.1 -0.35 0.95
v -0.1 -0.35 -0.95
v -0.1 -0.25 0.65
v -0.1 -0.25 0.55
v -0.1 -0.25 0.45
v -0.1 -0.25 0.35
v -0.1 -0.25 -0.35
v -0.1 -0.25 -0.45
v -0.1 -0.25 -0.55
v -0.1 -0.25 -0.65
v -0.1 -0.15 0.85
v -0.1 -0.15 0.75
v -0.1 -0.15 0.65
v -0.1 -0.15 0.55
v -0.1 -0.15 0.45
v -0.1 -0.15 0.35
v -0.1 -0.15 0.25
v -0.1 -0.15 0.15
v -0.1 -0.15 0.05
v -0.1 -0.15 -0.0500001
v -0.1 -0.15 -0.15
v -0.1 -0.15 -0.25
v -0.1 -0.15 -0.35
v -0.1 -0.15 -0.45
v -0.1 -0.15 -0.55
v -0.1 -0.15 -0.65
v -0.1 -0.15 -0.75
v -0.1 -0.15 -0.85
v -0.1 -0.05 0.85
v -0.1 -0.05 0.75
v -0.1 -0.05 0.65
v -0.1 -0.05 0.55
v -0.1 -0.05 0.45
v -0.1 -0.05 0.35
v -0.1 -0.05 0.25
v -0.1 -0.05 0.15
v -0.1 -0.05 0.05
v -0.1 -0.05 -0.0500001
v -0.1 -0.05 -0.15
v -0.1 -0.05 -0.25
v -0.1 -0.05 -0.75
v -0.1 -0.05 -0.85
v -0.1 0.05 0.85
v -0.1 0.05 0.75
v -0.1 0.05 0.45
v -0.1 0.05 0.35
v -0.1 0.05 0.25
v -0.1 0.05 0.15
v -0.1 0.05 -0.35
v -0.1 0.05 -0.45
v -0.1 0.05 -0.55
v -0.1 0.05 -0.65
v -0.1 0.05 -0.75
v -0.1 0.05 -0.85
v -0.1 0.15 0.85
v -0.1 0.15 0.75
v -0.1 0.15 0.65
v -0.1 0.15 0.55
v -0.1 0.15 0.45
v -0.1 0.15 0.35
v -0.1 0.15 0.25
v -0.1 0.15 0.15
v -0.1 0.15 0.05
v -0.1 0.15 -0.0500001
v -0.1 0.15 -0.15
v -0.1 0.15 -0.25
v -0.1 0.15 -0.35
v -0.1 0.15 -0.45
v -0.1 0.15 -0.55
v -0.1 0.15 -0.65
v -0.1 0.15 -0.75
v -0.1 0.15 -0.85
v -0.1 0.25 0.65
v -0.1 0.25 0.55
v -0.1 0.25 0.05
v -0.1 0.25 -0.0500001
v -0.1 0.25 -0.15
v -0.1 0.25 -0.25
v -0.1 0.35 0.95
v -0.1 0.35 -0.95
v -0.1 0.45 1.05
v -0.1 0.45 -1.05
v 0 -0.45 1.05
v 0 -0.45 -1.05
v 0 -0.35 0.95
v 0 -0.35 -0.95
v 0 -0.25 0.85
v 0 -0.25 0.75
v 0 -0.25 0.65
v 0 -0.25 0.55
v 0 -0.25 0.45
v 0 -0.25 0.35
v 0 -0.25 0.25
v 0 -0.25 0.15
v 0 -0.25 0.05
v 0 -0.25 -0.0500001
v 0 -0.25 -0.15
v 0 -0.25 -0.25
v 0 -0.25 -0.35
v 0 -0.25 -0.45
v 0 -0.25 -0.55
v 0 -0.25 -0.65
v 0 -0.25 -0.75
v 0 -0.25 -0.85
v 0 -0.15 0.85
v 0 -0.15 0.75
v 0 -0.15 0.65
v 0 -0.15 0.55
v 0 -0.15 0.45
v 0 -0.15 0.35
v 0 -0.15 0.25
v 0 -0.15 0.15
v 0 -0.15 0.05
v 0 -0.15 -0.0500001
v 0 -0.15 -0.15
v 0 -0.15 -0.25
v 0 -0.15 -0.35
v 0 -0.15 -0.45
v 0 -0.15 -0.55
v 0 -0.15 -0.65
v 0 -0.15 -0.75
v 0 -0.15 -0.85
v 0 -0.05 0.85
v 0 -0.05 0.75
v 0 -0.05 0.65
v 0 -0.05 0.55
v 0 -0.05 0.45
v 0 -0.05 0.35
v 0 -0.05 0.25
v 0 -0.05 0.15
v 0 -0.05 0.05
v 0 -0.05 -0.0500001
v 0 -0.05 -0.15
v 0 -0.05 -0.25
v 0 -0.05 -0.35
v 0 -0.05 -0.45
v 0 -0.05 -0.55
v 0 -0.05 -0.65
v 0 -0.05 -0.75
v 0 -0.05 -0.85
v 0 0.05 0.85
v 0 0.05 0.75
v 0 0.05 0.65
v 0 0.05 0.55
v 0 0.05 0.45
v 0 0.05 0.35
v 0 0.05 0.25
v 0 0.05 0.15
v 0 0.05 0.05
v 0 0.05 -0.0500001
v 0 0.05 -0.15
v 0 0.05 -0.25
v 0 0.05 -0.35
v 0 0.05 -0.45
v 0 0.05 -0.55
v 0 0.05 -0.65
v 0 0.05 -0.75
v 0 0.05 -0.85
v 0 0.15 0.85
v 0 0.15 0.75
v 0 0.15 0.65
v 0 0.15 0.55
v 0 0.15 0.45
v 0 0.15 0.35
v 0 0.15 0.25
v 0 0.15 0.15
v 0 0.15 0.05
v 0 0.15 -0.0500001
v 0 0.15 -0.15
v 0 0.15 -0.25
v 0 0.15 -0.35
v 0 0.15 -0.45
v 0 0.15 -0.55
v 0 0.15 -0.65
v 0 0.15 -0.75
v 0 0.15 -0.85
v 0 0.25 0.85
v 0 0.25 0.75
v 0 0.25 0.65
v 0 0.25 0.55
v 0 0.25 0.45
v 0 0.25 0.35
v 0 0.25 0.25
v 0 0.25 0.15
v 0 0.25 0.05
v 0 0.25 -0.0500001
v 0 0.25 -0.15
v 0 0.25 -0.25
v 0 0.25 -0.35
v 0 0.25 -0.45
v 0 0.25 -0.55
v 0 0.25 -0.65
v 0 0.25 -0.75
v 0 0.25 -0.85
v 0 0.35 0.95
v 0 0.35 -0.95
v 0 0.45 1.05
v 0 0.45 -1.05
v 0.1 -0.25 0.85
v 0.1 -0.25 0.75
v 0.1 -0.25 0.45
v 0.1 -0.25 0.35
v 0.1 -0.25 0.25
v 0.1 -0.25 0.15
v 0.1 -0.25 0.05
v 0.1 -0.25 -0.0500001
v 0.1 -0.25 -0.15
v 0.1 -0.25 -0.25
v 0.1 -0.25 -0.75
v 0.1 -0.25 -0.85
v 0.1 -0.15 0.85
v 0.1 -0.15 0.75
v 0.1 -0.15 0.65
v 0.1 -0.15 0.55
v 0.1 -0.15 0.45
v 0.1 -0.15 0.35
v 0.1 -0.15 0.25
v 0.1 -0.15 0.15
v 0.1 -0.15 0.05
v 0.1 -0.15 -0.0500001
v 0.1 -0.15 -0.15
v 0.1 -0.15 -0.25
v 0.1 -0.15 -0.35
v 0.1 -0.15 -0.45
v 0.1 -0.15 -0.55
v 0.1 -0.15 -0.65
v 0.1 -0.15 -0.75
v 0.1 -0.15 -0.85
v 0.1 -0.05 0.65
v 0.1 -0.05 0.55
v 0.1 -0.05 -0.35
v 0.1 -0.05 -0.45
v 0.1 -0.05 -0.55
v 0.1 -0.05 -0.65
v 0.1 0.05 0.65
v 0.1 0.05 0.55
v 0.1 0.05 0.05
v 0.1 0.05 -0.0500001
v 0.1 0.05 -0.15
v 0.1 0.05 -0.25
v 0.1 0.15 0.85
v 0.1 0.15 0.75
v 0.1 0.15 0.65
v 0.1 0.15 0.55
v 0.1 0.15 0.45
v 0.1 0.15 0.35
v 0.1 0.15 0.25
v 0.1 0.15 0.15
v 0.1 0.15 0.05
v 0.1 0.15 -0.0500001
v 0.1 0.15 -0.15
v 0.1 0.15 -0.25
v 0.1 0.15 -0.35
v 0.1 0.15 -0.45
v 0.1 0.15 -0.55
v 0.1 0.15 -0.65
v 0.1 0.15 -0.75
v 0.1 0.15 -0.85
v 0.1 0.25 0.85
v 0.1 0.25 0.75
v 0.1 0.25 0.45
v 0.1 0.25 0.35
v 0.1 0.25 0.25
v 0.1 0.25 0.15
v 0.1 0.25 -0.35
v 0.1 0.25 -0.45
v 0.1 0.25 -0.55
v 0.1 0.25 -0.65
v 0.1 0.25 -0.75
v 0.1 0.25 -0.85
v -0.1 -0.45 1.05
v -0.1 0.45 1.05
v 0 -0.45 1.05
v 0 0.45 1.05
v 0 -0.25 0.85
v 0 -0.15 0.85
v 0 0.15 0.85
v 0 0.25 0.85
v 0.1 -0.25 0.85
v 0.1 -0.15 0.85
v 0.1 0.15 0.85
v 0.1 0.25 0.85
v 0 -0.15 0.65
v 0 -0.05 0.65
v 0 0.05 0.65
v 0 0.15 0.65
v 0.1 -0.15 0.65
v 0.1 -0.05 0.65
v 0.1 0.05 0.65
v 0.1 0.15 0.65
v 0 -0.25 0.45
v 0 -0.15 0.45
v 0 0.15 0.45
v 0 0.25 0.45
v 0.1 -0.25 0.45
v 0.1 -0.15 0.45
v 0.1 0.15 0.45
v 0.1 0.25 0.45
v 0 -0.25 0.25
v 0 -0.15 0.25
v 0 0.15 0.25
v 0 0.25 0.25
v 0.1 -0.25 0.25
v 0.1 -0.15 0.25
v 0.1 0.15 0.25
v 0.1 0.25 0.25
v 0 -0.25 0.05
v 0 -0.15 0.05
v 0 0.05 0.05
v 0 0.15 0.05
v 0.1 -0.25 0.05
v 0.1 -0.15 0.05
v 0.1 0.05 0.05
v 0.1 0.15 0.05
v 0 -0.25 -0.15
v 0 -0.15 -0.15
v 0 0.05 -0.15
v 0 0.15 -0.15
v 0.1 -0.25 -0.15
v 0.1 -0.15 -0.15
v 0.1 0.05 -0.15
v 0.1 0.15 -0.15
v 0 -0.15 -0.35
v 0 -0.05 -0.35
v 0 0.15 -0.35
v 0 0.25 -0.35
v 0.1 -0.15 -0.35
v 0.1 -0.05 -0.35
v 0.1 0.15 -0.35
v 0.1 0.25 -0.35
v 0 -0.15 -0.55
v 0 -0.05 -0.55
v 0 0.15 -0.55
v 0 0.25 -0.55
v 0.1 -0.15 -0.55
v 0.1 -0.05 -0.55
v 0.1 0.15 -0.55
v 0.1 0.25 -0.55
v 0 -0.25 -0.75
v 0 -0.15 -0.75
v 0 0.15 -0.75
v 0 0.25 -0.75
v 0.1 -0.25 -0.75
v 0.1 -0.15 -0.75
v 0.1 0.15 -0.75
v 0.1 0.25 -0.75
v 0 -0.25 0.75
v 0 -0.15 0.75
v 0 0.15 0.75
v 0 0.25 0.75
v 0.1 -0.25 0.75
v 0.1 -0.15 0.75
v 0.1 0.15 0.75
v 0.1 0.25 0.75
v 0 -0.15 0.55
v 0 -0.05 0.55
v 0 0.05 0.55
v 0 0.15 0.55
v 0.1 -0.15 0.55
v 0.1 -0.05 0.55
v 0.1 0.05 0.55
v 0.1 0.15 0.55
v 0 -0.25 0.35
v 0 -0.15 0.35
v 0 0.15 0.35
v 0 0.25 0.35
v 0.1 -0.25 0.35
v 0.1 -0.15 0.35
v 0.1 0.15 0.35
v 0.1 0.25 0.35
v 0 -0.25 0.15
v 0 -0.15 0.15
v 0 0.15 0.15
v 0 0.25 0.15
v 0.1 -0.25 0.15
v 0.1 -0.15 0.15
v 0.1 0.15 0.15
v 0.1 0.25 0.15
v 0 -0.25 -0.0500001
v 0 -0.15 -0.0500001
v 0 0.05 -0.0500001
v 0 0.15 -0.0500001
v 0.1 -0.25 -0.0500001
v 0.1 -0.15 -0.0500001
v 0.1 0.05 -0.0500001
v 0.1 0.15 -0.0500001
v 0 -0.25 -0.25
v 0 -0.15 -0.25
v 0 0.05 -0.25
v 0 0.15 -0.25
v 0.1 -0.25 -0.25
v 0.1 -0.15 -0.25
v 0.1 0.05 -0.25
v 0.1 0.15 -0.25
v 0 -0.15 -0.45
v 0 -0.05 -0.45
v 0 0.15 -0.45
v 0 0.25 -0.45
v 0.1 -0.15 -0.45
v 0.1 -0.05 -0.45
v 0.1 0.15 -0.45
v 0.1 0.25 -0.45
v 0 -0.15 -0.65
v 0 -0.05 -0.65
v 0 0.15 -0.65
v 0 0.25 -0.65
v 0.1 -0.15 -0.65
v 0.1 -0.05 -0.65
v 0.1 0.15 -0.65
v 0.1 0.25 -0.65
v 0 -0.25 -0.85
v 0 -0.15 -0.85
v 0 0.15 -0.85
v 0 0.25 -0.85
v 0.1 -0.25 -0.85
v 0.1 -0.15 -0.85
v 0.1 0.15 -0.85
v 0.1 0.25 -0.85
v -0.1 -0.45 -1.05
v -0.1 0.45 -1.05
v 0 -0.45 -1.05
v 0 0.45 -1.05
v -0.1 -0.45 1.05
v 0 -0.45 1.05
v -0.1 -0.45 -1.05
v 0 -0.45 -1.05
v 0 -0.25 0.85
v 0.1 -0.25 0.85
v 0 -0.25 0.75
v 0.1 -0.25 0.75
v 0 -0.25 0.45
v 0.1 -0.25 0.45
v 0 -0.25 0.35
v 0.1 -0.25 0.35
v 0 -0.25 0.25
v 0.1 -0.25 0.25
v 0 -0.25 0.15
v 0.1 -0.25 0.15
v 0 -0.25 0.05
v 0.1 -0.25 0.05
v 0 -0.25 -0.0500001
v 0.1 -0.25 -0.0500001
v 0 -0.25 -0.15
v 0.1 -0.25 -0.15
v 0 -0.25 -0.25
v 0.1 -0.25 -0.25
v 0 -0.25 -0.75
v 0.1 -0.25 -0.75
v 0 -0.25 -0.85
v 0.1 -0.25 -0.85
v 0 -0.15 0.65
v 0.1 -0.15 0.65
v 0 -0.15 0.55
v 0.1 -0.15 0.55
v 0 -0.15 -0.35
v 0.1 -0.15 -0.35
v 0 -0.15 -0.45
v 0.1 -0.15 -0.45
v 0 -0.15 -0.55
v 0.1 -0.15 -0.55
v 0 -0.15 -0.65
v 0.1 -0.15 -0.65
v 0 0.05 0.65
v 0.1 0.05 0.65
v 0 0.05 0.55
v 0.1 0.05 0.55
v 0 0.05 0.05
v 0.1 0.05 0.05
v 0 0.05 -0.0500001
v 0.1 0.05 -0.0500001
v 0 0.05 -0.15
v 0.1 0.05 -0.15
v 0 0.05 -0.25
v 0.1 0.05 -0.25
v 0 0.15 0.85
v 0.1 0.15 0.85
v 0 0.15 0.75
v 0.1 0.15 0.75
v 0 0.15 0.45
v 0.1 0.15 0.45
v 0 0.15 0.35
v 0.1 0.15 0.35
v 0 0.15 0.25
v 0.1 0.15 0.25
v 0 0.15 0.15
v 0.1 0.15 0.15
v 0 0.15 -0.35
v 0.1 0.15 -0.35
v 0 0.15 -0.45
v 0.1 0.15 -0.45
v 0 0.15 -0.55
v 0.1 0.15 -0.55
v 0 0.15 -0.65
v 0.1 0.15 -0.65
v 0 0.15 -0.75
v 0.1 0.15 -0.75
v 0 0.15 -0.85
v 0.1 0.15 -0.85
v 0 -0.15 0.85
v 0.1 -0.15 0.85
v 0 -0.15 0.75
v 0.1 -0.15 0.75
v 0 -0.15 0.45
v 0.1 -0.15 0.45
v 0 -0.15 0.35
v 0.1 -0.15 0.35
v 0 -0.15 0.25
v 0.1 -0.15 0.25
v 0 -0.15 0.15
v 0.1 -0.15 0.15
v 0 -0.15 0.05
v 0.1 -0.15 0.05
v 0 -0.15 -0.0500001
v 0.1 -0.15 -0.0500001
v 0 -0.15 -0.15
v 0.1 -0.15 -0.15
v 0 -0.15 -0.25
v 0.1 -0.15 -0.25
v 0 -0.15 -0.75
v 0.1 -0.15 -0.75
v 0 -0.15 -0.85
v 0.1 -0.15 -0.85
v 0 -0.05 0.65
v 0.1 -0.05 0.65
v 0 -0.05 0.55
v 0.1 -0.05 0.55
v 0 -0.05 -0.35
v 0.1 -0.05 -0.35
v 0 -0.05 -0.45
v 0.1 -0.05 -0.45
v 0 -0.05 -0.55
v 0.1 -0.05 -0.55
v 0 -0.05 -0.65
v 0.1 -0.05 -0.65
v 0 0.15 0.65
v 0.1 0.15 0.65
v 0 0.15 0.55
v 0.1 0.15 0.55
v 0 0.15 0.05
v 0.1 0.15 0.05
v 0 0.15 -0.0500001
v 0.1 0.15 -0.0500001
v 0 0.15 -0.15
v 0.1 0.15 -0.15
v 0 0.15 -0.25
v 0.1 0.15 -0.25
v 0 0.25 0.85
v 0.1 0.25 0.85
v 0 0.25 0.75
v 0.1 0.25 0.75
v 0 0.25 0.45
v 0.1 0.25 0.45
v 0 0.25 0.35
v 0.1 0.25 0.35
v 0 0.25 0.25
v 0.1 0.25 0.25
v 0 0.25 0.15
v 0.1 0.25 0.15
v 0 0.25 -0.35
v 0.1 0.25 -0.35
v 0 0.25 -0.45
v 0.1 0.25 -0.45
v 0 0.25 -0.55
v 0.1 0.25 -0.55
v 0 0.25 -0.65
v 0.1 0.25 -0.65
v 0 0.25 -0.75
v 0.1 0.25 -0.75
v 0 0.25 -0.85
v 0.1 0.25 -0.85
v -0.1 0.45 1.05
v 0 0.45 1.05
v -0.1 0.45 -1.05
v 0 0.45 -1.05

# faces
f 3/3/1 2/3/1 1/3/1
f 4/3/1 2/3/1 3/3/1
f 5/4/1 4/4/1 3/4/1
f 6/4/1 4/4/1 5/4/1
f 7/4/1 4/4/1 6/4/1
f 8/4/1 4/4/1 7/4/1
f 9/4/1 4/4/1 8/4/1
f 10/4/1 4/4/1 9/4/1
f 11/4/1 4/4/1 10/4/1
f 12/4/1 4/4/1 11/4/1
f 13/4/1 5/4/1 3/4/1
f 14/4/1 5/4/1 13/4/1
f 15/2/1 6/2/1 5/2/1
f 15/4/1 5/4/1 14/4/1
f 16/4/1 7/4/1 6/4/1
f 16/2/1 6/2/1 15/2/1
f 17/2/1 8/2/1 7/2/1
f 17/4/1 7/4/1 16/4/1
f 18/4/1 9/4/1 8/4/1
f 18/2/1 8/2/1 17/2/1
f 19/4/1 9/4/1 18/4/1
f 20/4/1 9/4/1 19/4/1
f 21/4/1 9/4/1 20/4/1
f 22/4/1 9/4/1 21/4/1
f 23/4/1 9/4/1 22/4/1
f 24/4/1 9/4/1 23/4/1
f 25/2/1 10/2/1 9/2/1
f 25/4/1 9/4/1 24/4/1
f 26/4/1 11/4/1 10/4/1
f 26/2/1 10/2/1 25/2/1
f 27/2/1 12/2/1 11/2/1
f 27/4/1 11/4/1 26/4/1
f 28/4/1 4/4/1 12/4/1
f 28/2/1 12/2/1 27/2/1
f 29/4/1 4/4/1 28/4/1
f 30/4/1 4/4/1 29/4/1
f 31/1/1 14/1/1 13/1/1
f 31/4/1 13/4/1 3/4/1
f 32/4/1 15/4/1 14/4/1
f 32/1/1 14/1/1 31/1/1
f 33/1/1 16/1/1 15/1/1
f 33/4/1 15/4/1 32/4/1
f 34/4/1 17/4/1 16/4/1
f 34/1/1 16/1/1 33/1/1
f 35/1/1 18/1/1 17/1/1
f 35/4/1 17/4/1 34/4/1
f 36/4/1 19/4/1 18/4/1
f 36/1/1 18/1/1 35/1/1
f 37/1/1 20/1/1 19/1/1
f 37/4/1 19/4/1 36/4/1
f 38/4/1 21/4/1 20/4/1
f 38/1/1 20/1/1 37/1/1
f 39/1/1 22/1/1 21/1/1
f 39/4/1 21/4/1 38/4/1
f 40/4/1 23/4/1 22/4/1
f 40/1/1 22/1/1 39/1/1
f 41/1/1 24/1/1 23/1/1
f 41/4/1 23/4/1 40/4/1
f 42/4/1 27/4/1 26/4/1
f 42/1/1 24/1/1 41/1/1
f 42/4/1 25/4/1 24/4/1
f 42/4/1 29/4/1 28/4/1
f 42/4/1 28/4/1 27/4/1
f 42/4/1 26/4/1 25/4/1
f 43/1/1 30/1/1 29/1/1
f 43/4/1 29/4/1 42/4/1
f 44/4/1 4/4/1 30/4/1
f 44/1/1 30/1/1 43/1/1
f 45/4/1 41/4/1 40/4/1
f 45/4/1 43/4/1 42/4/1
f 45/4/1 44/4/1 43/4/1
f 45/4/1 37/4/1 36/4/1
f 45/4/1 36/4/1 35/4/1
f 45/4/1 35/4/1 34/4/1
f 45/4/1 34/4/1 33/4/1
f 45/4/1 42/4/1 41/4/1
f 45/4/1 38/4/1 37/4/1
f 45/4/1 39/4/1 38/4/1
f 45/4/1 40/4/1 39/4/1
f 45/4/1 33/4/1 32/4/1
f 45/4/1 32/4/1 31/4/1
f 45/4/1 31/4/1 3/4/1
f 46/4/1 44/4/1 45/4/1
f 47/4/1 44/4/1 46/4/1
f 48/4/1 44/4/1 47/4/1
f 49/4/1 44/4/1 48/4/1
f 50/4/1 44/4/1 49/4/1
f 51/4/1 44/4/1 50/4/1
f 52/4/1 44/4/1 51/4/1
f 53/4/1 44/4/1 52/4/1
f 54/4/1 44/4/1 53/4/1
f 55/4/1 44/4/1 54/4/1
f 56/4/1 4/4/1 44/4/1
f 56/4/1 44/4/1 55/4/1
f 57/4/1 45/4/1 3/4/1
f 57/2/1 46/2/1 45/2/1
f 58/4/1 47/4/1 46/4/1
f 58/2/1 46/2/1 57/2/1
f 59/4/1 47/4/1 58/4/1
f 60/4/1 47/4/1 59/4/1
f 61/2/1 48/2/1 47/2/1
f 61/4/1 47/4/1 60/4/1
f 62/4/1 49/4/1 48/4/1
f 62/2/1 48/2/1 61/2/1
f 63/2/1 50/2/1 49/2/1
f 63/4/1 49/4/1 62/4/1
f 64/4/1 51/4/1 50/4/1
f 64/2/1 50/2/1 63/2/1
f 65/4/1 51/4/1 64/4/1
f 66/4/1 51/4/1 65/4/1
f 67/4/1 51/4/1 66/4/1
f 68/4/1 51/4/1 67/4/1
f 69/2/1 52/2/1 51/2/1
f 69/4/1 51/4/1 68/4/1
f 70/4/1 53/4/1 52/4/1
f 70/2/1 52/2/1 69/2/1
f 71/2/1 54/2/1 53/2/1
f 71/4/1 53/4/1 70/4/1
f 72/4/1 55/4/1 54/4/1
f 72/2/1 54/2/1 71/2/1
f 73/2/1 56/2/1 55/2/1
f 73/4/1 55/4/1 72/4/1
f 74/4/1 4/4/1 56/4/1
f 74/2/1 56/2/1 73/2/1
f 75/1/1 60/1/1 59/1/1
f 75/4/1 58/4/1 57/4/1
f 75/4/1 59/4/1 58/4/1
f 76/4/1 61/4/1 60/4/1
f 76/1/1 60/1/1 75/1/1
f 76/4/1 62/4/1 61/4/1
f 76/4/1 63/4/1 62/4/1
f 76/4/1 65/4/1 64/4/1
f 76/4/1 64/4/1 63/4/1
f 77/1/1 66/1/1 65/1/1
f 77/4/1 65/4/1 76/4/1
f 78/4/1 67/4/1 66/4/1
f 78/1/1 66/1/1 77/1/1
f 79/1/1 68/1/1 67/1/1
f 79/4/1 67/4/1 78/4/1
f 80/4/1 71/4/1 70/4/1
f 80/1/1 68/1/1 79/1/1
f 80/4/1 73/4/1 72/4/1
f 80/4/1 74/4/1 73/4/1
f 80/4/1 70/4/1 69/4/1
f 80/4/1 69/4/1 68/4/1
f 80/4/1 72/4/1 71/4/1
f 81/3/1 3/3/1 1/3/1
f 81/4/1 79/4/1 78/4/1
f 81/4/1 80/4/1 79/4/1
f 81/4/1 76/4/1 75/4/1
f 81/4/1 75/4/1 57/4/1
f 81/4/1 78/4/1 77/4/1
f 81/4/1 57/4/1 3/4/1
f 81/4/1 77/4/1 76/4/1
f 82/4/1 74/4/1 80/4/1
f 82/4/1 80/4/1 81/4/1
f 82/3/1 2/3/1 4/3/1
f 82/4/1 4/4/1 74/4/1
f 83/3/1 81/3/1 1/3/1
f 83/3/1 82/3/1 81/3/1
f 84/3/1 2/3/1 82/3/1
f 84/3/1 82/3/1 83/3/1
f 85/3/2 86/3/2 87/3/2
f 87/3/2 86/3/2 88/3/2
f 87/4/2 88/4/2 89/4/2
f 89/4/2 88/4/2 90/4/2
f 90/4/2 88/4/2 91/4/2
f 91/4/2 88/4/2 92/4/2
f 92/4/2 88/4/2 93/4/2
f 93/4/2 88/4/2 94/4/2
f 94/4/2 88/4/2 95/4/2
f 95/4/2 88/4/2 96/4/2
f 96/4/2 88/4/2 97/4/2
f 97/4/2 88/4/2 98/4/2
f 98/4/2 88/4/2 99/4/2
f 99/4/2 88/4/2 100/4/2
f 100/4/2 88/4/2 101/4/2
f 101/4/2 88/4/2 102/4/2
f 102/4/2 88/4/2 103/4/2
f 103/4/2 88/4/2 104/4/2
f 104/4/2 88/4/2 105/4/2
f 105/4/2 88/4/2 106/4/2
f 87/4/2 89/4/2 107/4/2
f 90/4/2 91/4/2 108/4/2
f 91/2/2 92/2/2 109/2/2
f 108/4/2 91/4/2 109/4/2
f 92/4/2 93/4/2 110/4/2
f 109/2/2 92/2/2 110/2/2
f 110/4/2 93/4/2 111/4/2
f 94/4/2 95/4/2 112/4/2
f 112/4/2 95/4/2 113/4/2
f 96/4/2 97/4/2 114/4/2
f 114/4/2 97/4/2 115/4/2
f 98/4/2 99/4/2 116/4/2
f 116/4/2 99/4/2 117/4/2
f 100/4/2 101/4/2 118/4/2
f 101/2/2 102/2/2 119/2/2
f 118/4/2 101/4/2 119/4/2
f 102/4/2 103/4/2 120/4/2
f 119/2/2 102/2/2 120/2/2
f 103/2/2 104/2/2 121/2/2
f 120/4/2 103/4/2 121/4/2
f 104/4/2 105/4/2 122/4/2
f 121/2/2 104/2/2 122/2/2
f 122/4/2 105/4/2 123/4/2
f 106/4/2 88/4/2 124/4/2
f 87/4/2 107/4/2 125/4/2
f 107/1/2 108/1/2 125/1/2
f 108/4/2 109/4/2 126/4/2
f 125/1/2 108/1/2 126/1/2
f 126/4/2 109/4/2 127/4/2
f 110/4/2 111/4/2 128/4/2
f 111/1/2 112/1/2 129/1/2
f 128/4/2 111/4/2 129/4/2
f 112/4/2 113/4/2 130/4/2
f 129/1/2 112/1/2 130/1/2
f 113/1/2 114/1/2 131/1/2
f 130/4/2 113/4/2 131/4/2
f 114/4/2 115/4/2 132/4/2
f 131/1/2 114/1/2 132/1/2
f 115/1/2 116/1/2 133/1/2
f 132/4/2 115/4/2 133/4/2
f 116/4/2 117/4/2 134/4/2
f 133/1/2 116/1/2 134/1/2
f 117/1/2 118/1/2 135/1/2
f 134/4/2 117/4/2 135/4/2
f 118/4/2 119/4/2 136/4/2
f 135/1/2 118/1/2 136/1/2
f 136/4/2 119/4/2 137/4/2
f 120/4/2 121/4/2 138/4/2
f 138/4/2 121/4/2 139/4/2
f 122/4/2 123/4/2 140/4/2
f 123/1/2 124/1/2 141/1/2
f 140/4/2 123/4/2 141/4/2
f 124/4/2 88/4/2 142/4/2
f 141/1/2 124/1/2 142/1/2
f 138/4/2 139/4/2 143/4/2
f 136/4/2 137/4/2 143/4/2
f 141/4/2 142/4/2 143/4/2
f 139/4/2 140/4/2 143/4/2
f 137/4/2 138/4/2 143/4/2
f 140/4/2 141/4/2 143/4/2
f 135/4/2 136/4/2 143/4/2
f 87/4/2 125/4/2 143/4/2
f 125/4/2 126/4/2 143/4/2
f 131/4/2 132/4/2 143/4/2
f 126/4/2 127/4/2 143/4/2
f 129/4/2 130/4/2 143/4/2
f 134/4/2 135/4/2 143/4/2
f 127/4/2 128/4/2 143/4/2
f 128/4/2 129/4/2 143/4/2
f 133/4/2 134/4/2 143/4/2
f 130/4/2 131/4/2 143/4/2
f 132/4/2 133/4/2 143/4/2
f 143/4/2 142/4/2 144/4/2
f 144/4/2 142/4/2 145/4/2
f 145/4/2 142/4/2 146/4/2
f 146/4/2 142/4/2 147/4/2
f 147/4/2 142/4/2 148/4/2
f 148/4/2 142/4/2 149/4/2
f 149/4/2 142/4/2 150/4/2
f 150/4/2 142/4/2 151/4/2
f 151/4/2 142/4/2 152/4/2
f 152/4/2 142/4/2 153/4/2
f 153/4/2 142/4/2 154/4/2
f 154/4/2 142/4/2 155/4/2
f 155/4/2 142/4/2 156/4/2
f 156/4/2 142/4/2 157/4/2
f 157/4/2 142/4/2 158/4/2
f 158/4/2 142/4/2 159/4/2
f 142/4/2 88/4/2 160/4/2
f 159/4/2 142/4/2 160/4/2
f 87/4/2 143/4/2 161/4/2
f 143/2/2 144/2/2 161/2/2
f 144/4/2 145/4/2 162/4/2
f 161/2/2 144/2/2 162/2/2
f 162/4/2 145/4/2 163/4/2
f 146/4/2 147/4/2 164/4/2
f 147/2/2 148/2/2 165/2/2
f 164/4/2 147/4/2 165/4/2
f 148/4/2 149/4/2 166/4/2
f 165/2/2 148/2/2 166/2/2
f 149/2/2 150/2/2 167/2/2
f 166/4/2 149/4/2 167/4/2
f 150/4/2 151/4/2 168/4/2
f 167/2/2 150/2/2 168/2/2
f 168/4/2 151/4/2 169/4/2
f 152/4/2 153/4/2 170/4/2
f 170/4/2 153/4/2 171/4/2
f 154/4/2 155/4/2 172/4/2
f 155/2/2 156/2/2 173/2/2
f 172/4/2 155/4/2 173/4/2
f 156/4/2 157/4/2 174/4/2
f 173/2/2 156/2/2 174/2/2
f 157/2/2 158/2/2 175/2/2
f 174/4/2 157/4/2 175/4/2
f 158/4/2 159/4/2 176/4/2
f 175/2/2 158/2/2 176/2/2
f 159/2/2 160/2/2 177/2/2
f 176/4/2 159/4/2 177/4/2
f 160/4/2 88/4/2 178/4/2
f 177/2/2 160/2/2 178/2/2
f 87/4/2 161/4/2 179/4/2
f 162/4/2 163/4/2 180/4/2
f 163/1/2 164/1/2 181/1/2
f 180/4/2 163/4/2 181/4/2
f 164/4/2 165/4/2 182/4/2
f 181/1/2 164/1/2 182/1/2
f 182/4/2 165/4/2 183/4/2
f 166/4/2 167/4/2 184/4/2
f 184/4/2 167/4/2 185/4/2
f 168/4/2 169/4/2 186/4/2
f 169/1/2 170/1/2 187/1/2
f 186/4/2 169/4/2 187/4/2
f 170/4/2 171/4/2 188/4/2
f 187/1/2 170/1/2 188/1/2
f 171/1/2 172/1/2 189/1/2
f 188/4/2 171/4/2 189/4/2
f 172/4/2 173/4/2 190/4/2
f 189/1/2 172/1/2 190/1/2
f 190/4/2 173/4/2 191/4/2
f 174/4/2 175/4/2 192/4/2
f 192/4/2 175/4/2 193/4/2
f 176/4/2 177/4/2 194/4/2
f 194/4/2 177/4/2 195/4/2
f 178/4/2 88/4/2 196/4/2
f 85/3/2 87/3/2 197/3/2
f 195/4/2 196/4/2 197/4/2
f 190/4/2 191/4/2 197/4/2
f 192/4/2 193/4/2 197/4/2
f 193/4/2 194/4/2 197/4/2
f 194/4/2 195/4/2 197/4/2
f 191/4/2 192/4/2 197/4/2
f 185/4/2 186/4/2 197/4/2
f 189/4/2 190/4/2 197/4/2
f 87/4/2 179/4/2 197/4/2
f 183/4/2 184/4/2 197/4/2
f 179/4/2 180/4/2 197/4/2
f 181/4/2 182/4/2 197/4/2
f 180/4/2 181/4/2 197/4/2
f 182/4/2 183/4/2 197/4/2
f 186/4/2 187/4/2 197/4/2
f 187/4/2 188/4/2 197/4/2
f 184/4/2 185/4/2 197/4/2
f 188/4/2 189/4/2 197/4/2
f 196/4/2 88/4/2 198/4/2
f 197/4/2 196/4/2 198/4/2
f 88/3/2 86/3/2 198/3/2
f 85/3/2 197/3/2 199/3/2
f 197/3/2 198/3/2 199/3/2
f 198/3/2 86/3/2 200/3/2
f 199/3/2 198/3/2 200/3/2
f 201/2/2 202/2/2 213/2/2
f 213/2/2 202/2/2 214/2/2
f 203/2/2 204/2/2 217/2/2
f 217/2/2 204/2/2 218/2/2
f 205/2/2 206/2/2 219/2/2
f 219/2/2 206/2/2 220/2/2
f 207/2/2 208/2/2 221/2/2
f 221/2/2 208/2/2 222/2/2
f 209/2/2 210/2/2 223/2/2
f 223/2/2 210/2/2 224/2/2
f 211/2/2 212/2/2 229/2/2
f 229/2/2 212/2/2 230/2/2
f 215/1/2 216/1/2 231/1/2
f 231/1/2 216/1/2 232/1/2
f 225/1/2 226/1/2 233/1/2
f 233/1/2 226/1/2 234/1/2
f 227/1/2 228/1/2 235/1/2
f 235/1/2 228/1/2 236/1/2
f 237/2/2 238/2/2 245/2/2
f 245/2/2 238/2/2 246/2/2
f 239/2/2 240/2/2 251/2/2
f 251/2/2 240/2/2 252/2/2
f 241/2/2 242/2/2 253/2/2
f 253/2/2 242/2/2 254/2/2
f 243/1/2 244/1/2 261/1/2
f 261/1/2 244/1/2 262/1/2
f 247/1/2 248/1/2 263/1/2
f 263/1/2 248/1/2 264/1/2
f 249/1/2 250/1/2 265/1/2
f 265/1/2 250/1/2 266/1/2
f 255/1/2 256/1/2 267/1/2
f 267/1/2 256/1/2 268/1/2
f 257/1/2 258/1/2 269/1/2
f 269/1/2 258/1/2 270/1/2
f 259/1/2 260/1/2 271/1/2
f 271/1/2 260/1/2 272/1/2
f 275/3/3 274/3/3 273/3/3
f 276/3/3 274/3/3 275/3/3
f 281/2/3 278/2/3 277/2/3
f 282/2/3 278/2/3 281/2/3
f 283/1/3 280/1/3 279/1/3
f 284/1/3 280/1/3 283/1/3
f 289/1/3 286/1/3 285/1/3
f 290/1/3 286/1/3 289/1/3
f 291/2/3 288/2/3 287/2/3
f 292/2/3 288/2/3 291/2/3
f 297/2/3 294/2/3 293/2/3
f 298/2/3 294/2/3 297/2/3
f 299/1/3 296/1/3 295/1/3
f 300/1/3 296/1/3 299/1/3
f 305/2/3 302/2/3 301/2/3
f 306/2/3 302/2/3 305/2/3
f 307/1/3 304/1/3 303/1/3
f 308/1/3 304/1/3 307/1/3
f 313/2/3 310/2/3 309/2/3
f 314/2/3 310/2/3 313/2/3
f 315/2/3 312/2/3 311/2/3
f 316/2/3 312/2/3 315/2/3
f 321/2/3 318/2/3 317/2/3
f 322/2/3 318/2/3 321/2/3
f 323/2/3 320/2/3 319/2/3
f 324/2/3 320/2/3 323/2/3
f 329/1/3 326/1/3 325/1/3
f 330/1/3 326/1/3 329/1/3
f 331/1/3 328/1/3 327/1/3
f 332/1/3 328/1/3 331/1/3
f 337/1/3 334/1/3 333/1/3
f 338/1/3 334/1/3 337/1/3
f 339/1/3 336/1/3 335/1/3
f 340/1/3 336/1/3 339/1/3
f 345/2/3 342/2/3 341/2/3
f 346/2/3 342/2/3 345/2/3
f 347/1/3 344/1/3 343/1/3
f 348/1/3 344/1/3 347/1/3
f 349/2/4 350/2/4 353/2/4
f 353/2/4 350/2/4 354/2/4
f 351/1/4 352/1/4 355/1/4
f 355/1/4 352/1/4 356/1/4
f 357/1/4 358/1/4 361/1/4
f 361/1/4 358/1/4 362/1/4
f 359/2/4 360/2/4 363/2/4
f 363/2/4 360/2/4 364/2/4
f 365/2/4 366/2/4 369/2/4
f 369/2/4 366/2/4 370/2/4
f 367/1/4 368/1/4 371/1/4
f 371/1/4 368/1/4 372/1/4
f 373/2/4 374/2/4 377/2/4
f 377/2/4 374/2/4 378/2/4
f 375/1/4 376/1/4 379/1/4
f 379/1/4 376/1/4 380/1/4
f 381/2/4 382/2/4 385/2/4
f 385/2/4 382/2/4 386/2/4
f 383/2/4 384/2/4 387/2/4
f 387/2/4 384/2/4 388/2/4
f 389/2/4 390/2/4 393/2/4
f 393/2/4 390/2/4 394/2/4
f 391/2/4 392/2/4 395/2/4
f 395/2/4 392/2/4 396/2/4
f 397/1/4 398/1/4 401/1/4
f 401/1/4 398/1/4 402/1/4
f 399/1/4 400/1/4 403/1/4
f 403/1/4 400/1/4 404/1/4
f 405/1/4 406/1/4 409/1/4
f 409/1/4 406/1/4 410/1/4
f 407/1/4 408/1/4 411/1/4
f 411/1/4 408/1/4 412/1/4
f 413/2/4 414/2/4 417/2/4
f 417/2/4 414/2/4 418/2/4
f 415/1/4 416/1/4 419/1/4
f 419/1/4 416/1/4 420/1/4
f 421/3/4 422/3/4 423/3/4
f 423/3/4 422/3/4 424/3/4
f 427/3/5 426/3/5 425/3/5
f 428/3/5 426/3/5 427/3/5
f 431/2/5 430/2/5 429/2/5
f 432/2/5 430/2/5 431/2/5
f 435/2/5 434/2/5 433/2/5
f 436/2/5 434/2/5 435/2/5
f 439/2/5 438/2/5 437/2/5
f 440/2/5 438/2/5 439/2/5
f 443/2/5 442/2/5 441/2/5
f 444/2/5 442/2/5 443/2/5
f 447/2/5 446/2/5 445/2/5
f 448/2/5 446/2/5 447/2/5
f 451/2/5 450/2/5 449/2/5
f 452/2/5 450/2/5 451/2/5
f 455/1/5 454/1/5 453/1/5
f 456/1/5 454/1/5 455/1/5
f 459/1/5 458/1/5 457/1/5
f 460/1/5 458/1/5 459/1/5
f 463/1/5 462/1/5 461/1/5
f 464/1/5 462/1/5 463/1/5
f 467/2/5 466/2/5 465/2/5
f 468/2/5 466/2/5 467/2/5
f 471/2/5 470/2/5 469/2/5
f 472/2/5 470/2/5 471/2/5
f 475/2/5 474/2/5 473/2/5
f 476/2/5 474/2/5 475/2/5
f 479/1/5 478/1/5 477/1/5
f 480/1/5 478/1/5 479/1/5
f 483/1/5 482/1/5 481/1/5
f 484/1/5 482/1/5 483/1/5
f 487/1/5 486/1/5 485/1/5
f 488/1/5 486/1/5 487/1/5
f 491/1/5 490/1/5 489/1/5
f 492/1/5 490/1/5 491/1/5
f 495/1/5 494/1/5 493/1/5
f 496/1/5 494/1/5 495/1/5
f 499/1/5 498/1/5 497/1/5
f 500/1/5 498/1/5 499/1/5
f 501/2/6 502/2/6 503/2/6
f 503/2/6 502/2/6 504/2/6
f 505/2/6 506/2/6 507/2/6
f 507/2/6 506/2/6 508/2/6
f 509/2/6 510/2/6 511/2/6
f 511/2/6 510/2/6 512/2/6
f 513/2/6 514/2/6 515/2/6
f 515/2/6 514/2/6 516/2/6
f 517/2/6 518/2/6 519/2/6
f 519/2/6 518/2/6 520/2/6
f 521/2/6 522/2/6 523/2/6
f 523/2/6 522/2/6 524/2/6
f 525/1/6 526/1/6 527/1/6
f 527/1/6 526/1/6 528/1/6
f 529/1/6 530/1/6 531/1/6
f 531/1/6 530/1/6 532/1/6
f 533/1/6 534/1/6 535/1/6
f 535/1/6 534/1/6 536/1/6
f 537/2/6 538/2/6 539/2/6
f 539/2/6 538/2/6 540/2/6
f 541/2/6 542/2/6 543/2/6
f 543/2/6 542/2/6 544/2/6
f 545/2/6 546/2/6 547/2/6
f 547/2/6 546/2/6 548/2/6
f 549/1/6 550/1/6 551/1/6
f 551/1/6 550/1/6 552/1/6
f 553/1/6 554/1/6 555/1/6
f 555/1/6 554/1/6 556/1/6
f 557/1/6 558/1/6 559/1/6
f 559/1/6 558/1/6 560/1/6
f 561/1/6 562/1/6 563/1/6
f 563/1/6 562/1/6 564/1/6
f 565/1/6 566/1/6 567/1/6
f 567/1/6 566/1/6 568/1/6
f 569/1/6 570/1/6 571/1/6
f 571/1/6 570/1/6 572/1/6
f 573/3/6 574/3/6 575/3/6
f 575/3/6 574/3/6 576/3/6
