# MagicaVoxel @ Ephtracy

# group
o 

# material
mtllib spaceship_inside-18.mtl
usemtl palette

# normals
vn -1 0 0
vn 1 0 0
vn 0 0 1
vn 0 0 -1
vn 0 -1 0
vn 0 1 0

# texcoords
vt 0.00195313 0.5
vt 0.0410156 0.5
vt 0.0449219 0.5
vt 0.0488281 0.5
vt 0.0527344 0.5
vt 0.0566406 0.5
vt 0.0605469 0.5
vt 0.818359 0.5
vt 0.876953 0.5
vt 0.880859 0.5
vt 0.884766 0.5
vt 0.888672 0.5
vt 0.892578 0.5
vt 0.904297 0.5
vt 0.908203 0.5
vt 0.912109 0.5
vt 0.986328 0.5
vt 0.994141 0.5

# verts
v -0.6 -0.95 0.3
v -0.6 -0.95 0.2
v -0.6 -0.95 0.1
v -0.6 -0.95 0
v -0.6 -0.95 -0.3
v -0.6 -0.85 0.3
v -0.6 -0.85 0.2
v -0.6 -0.85 0.1
v -0.6 -0.85 0
v -0.6 -0.85 -0.1
v -0.6 -0.85 -0.2
v -0.6 -0.85 -0.3
v -0.6 -0.75 0.3
v -0.6 -0.75 0.2
v -0.6 -0.75 0.1
v -0.6 -0.75 -0.1
v -0.6 -0.75 -0.2
v -0.6 -0.75 -0.3
v -0.6 -0.65 0.3
v -0.6 -0.65 0.2
v -0.6 -0.65 0
v -0.6 -0.65 -0.1
v -0.6 -0.65 -0.2
v -0.6 -0.65 -0.3
v -0.6 -0.55 0.3
v -0.6 -0.55 0.2
v -0.6 -0.55 0.1
v -0.6 -0.55 0
v -0.6 -0.55 -0.1
v -0.6 -0.55 -0.2
v -0.6 -0.55 -0.3
v -0.6 -0.45 0.3
v -0.6 -0.45 0.2
v -0.6 -0.45 0.1
v -0.6 -0.45 0
v -0.6 -0.45 -0.1
v -0.6 -0.45 -0.2
v -0.6 -0.45 -0.3
v -0.6 -0.35 0.3
v -0.6 -0.35 0.2
v -0.6 -0.35 0.1
v -0.6 -0.35 0
v -0.6 -0.35 -0.1
v -0.6 -0.35 -0.2
v -0.6 -0.35 -0.3
v -0.6 -0.25 0.3
v -0.6 -0.25 0.2
v -0.6 -0.25 0.1
v -0.6 -0.25 0
v -0.6 -0.25 -0.1
v -0.6 -0.25 -0.2
v -0.6 -0.25 -0.3
v -0.6 -0.15 0.3
v -0.6 -0.15 0.1
v -0.6 -0.15 0
v -0.6 -0.15 -0.1
v -0.6 -0.15 -0.2
v -0.6 -0.15 -0.3
v -0.5 -0.95 0.4
v -0.5 -0.95 0.3
v -0.5 -0.95 -0.3
v -0.5 -0.95 -0.4
v -0.5 -0.85 0.4
v -0.5 -0.85 0.3
v -0.5 -0.85 -0.3
v -0.5 -0.85 -0.4
v -0.5 -0.75 0.4
v -0.5 -0.75 0.3
v -0.5 -0.75 -0.3
v -0.5 -0.75 -0.4
v -0.5 -0.65 0.4
v -0.5 -0.65 0.3
v -0.5 -0.65 -0.3
v -0.5 -0.65 -0.4
v -0.5 -0.55 0.4
v -0.5 -0.55 0.3
v -0.5 -0.55 -0.3
v -0.5 -0.55 -0.4
v -0.5 -0.45 0.4
v -0.5 -0.45 0.3
v -0.5 -0.45 -0.3
v -0.5 -0.45 -0.4
v -0.5 -0.35 0.4
v -0.5 -0.35 0.3
v -0.5 -0.35 -0.3
v -0.5 -0.35 -0.4
v -0.5 -0.25 0.4
v -0.5 -0.25 0.3
v -0.5 -0.25 -0.3
v -0.5 -0.15 0.4
v -0.5 -0.15 0.3
v -0.5 -0.15 -0.3
v -0.5 -0.15 -0.4
v -0.4 -0.95 0.5
v -0.4 -0.95 0.4
v -0.4 -0.95 -0.4
v -0.4 -0.95 -0.5
v -0.4 -0.85 0.5
v -0.4 -0.85 0.4
v -0.4 -0.85 -0.4
v -0.4 -0.85 -0.5
v -0.4 -0.75 0.5
v -0.4 -0.75 0.4
v -0.4 -0.75 -0.4
v -0.4 -0.75 -0.5
v -0.4 -0.65 0.4
v -0.4 -0.65 -0.4
v -0.4 -0.55 0.5
v -0.4 -0.55 0.4
v -0.4 -0.55 -0.4
v -0.4 -0.55 -0.5
v -0.4 -0.45 0.5
v -0.4 -0.45 0.4
v -0.4 -0.45 -0.4
v -0.4 -0.45 -0.5
v -0.4 -0.35 0.5
v -0.4 -0.35 0.4
v -0.4 -0.35 -0.4
v -0.4 -0.35 -0.5
v -0.4 -0.25 0.5
v -0.4 -0.25 0.4
v -0.4 -0.25 -0.4
v -0.4 -0.25 -0.5
v -0.4 -0.15 0.5
v -0.4 -0.15 0.4
v -0.4 -0.15 -0.4
v -0.4 -0.15 -0.5
v -0.3 -0.95 0.6
v -0.3 -0.95 0.5
v -0.3 -0.95 -0.5
v -0.3 -0.95 -0.6
v -0.3 -0.85 0.6
v -0.3 -0.85 0.5
v -0.3 -0.85 -0.5
v -0.3 -0.75 0.6
v -0.3 -0.75 0.5
v -0.3 -0.75 -0.5
v -0.3 -0.65 0.6
v -0.3 -0.65 0.5
v -0.3 -0.65 -0.5
v -0.3 -0.65 -0.6
v -0.3 -0.55 0.6
v -0.3 -0.55 0.5
v -0.3 -0.55 -0.5
v -0.3 -0.55 -0.6
v -0.3 -0.45 0.6
v -0.3 -0.45 0.5
v -0.3 -0.45 -0.5
v -0.3 -0.45 -0.6
v -0.3 -0.35 0.6
v -0.3 -0.35 0.5
v -0.3 -0.35 -0.5
v -0.3 -0.25 0.6
v -0.3 -0.25 0.5
v -0.3 -0.25 -0.5
v -0.3 -0.25 -0.6
v -0.3 -0.15 0.6
v -0.3 -0.15 0.5
v -0.3 -0.15 -0.5
v -0.3 -0.15 -0.6
v -0.3 0.45 0.2
v -0.3 0.45 0.1
v -0.3 0.45 0
v -0.3 0.45 -0.1
v -0.3 0.55 0.3
v -0.3 0.55 0.2
v -0.3 0.55 0.1
v -0.3 0.55 0
v -0.3 0.55 -0.1
v -0.3 0.55 -0.2
v -0.3 0.65 0.3
v -0.3 0.65 0.2
v -0.3 0.65 0.1
v -0.3 0.65 0
v -0.3 0.65 -0.1
v -0.3 0.65 -0.2
v -0.3 0.75 0.3
v -0.3 0.75 0.2
v -0.3 0.75 0.1
v -0.3 0.75 0
v -0.3 0.75 -0.1
v -0.3 0.75 -0.2
v -0.3 0.85 0.3
v -0.3 0.85 0.2
v -0.3 0.85 0.1
v -0.3 0.85 0
v -0.3 0.85 -0.1
v -0.3 0.85 -0.2
v -0.3 0.95 0.2
v -0.3 0.95 0.1
v -0.3 0.95 0
v -0.3 0.95 -0.1
v -0.1 -0.35 0.1
v -0.1 -0.35 0
v -0.1 -0.15 0.1
v -0.1 -0.15 0
v -0.1 -0.0500001 0.4
v -0.1 -0.0500001 0.3
v -0.1 -0.0500001 0.1
v -0.1 -0.0500001 0
v -0.1 0.05 0.4
v -0.1 0.05 0.3
v -0.1 0.05 0.2
v -0.1 0.05 0.1
v -0.1 0.05 0
v -0.1 0.05 -0.1
v -0.1 0.15 0.3
v -0.1 0.15 0.2
v -0.1 0.15 0.1
v -0.1 0.15 0
v -0.1 0.15 -0.1
v -0.1 0.15 -0.2
v -0.1 0.25 0.2
v -0.1 0.25 0.1
v -0.1 0.25 0
v -0.1 0.25 -0.1
v -0.1 0.25 -0.2
v -0.1 0.25 -0.3
v -0.1 0.35 0.1
v -0.1 0.35 0
v -0.1 0.35 -0.2
v -0.1 0.35 -0.3
v -0.1 0.45 0.1
v -0.1 0.45 0
v -0.1 0.55 0.1
v -0.1 0.55 0
v 0.1 0.35 0.1
v 0.1 0.35 0
v 0.1 0.45 0.1
v 0.1 0.45 0
v 0.2 -0.35 0.5
v 0.2 -0.35 0.4
v 0.2 -0.35 -0.4
v 0.2 -0.35 -0.5
v 0.2 -0.25 0.5
v 0.2 -0.25 0.4
v 0.2 -0.25 -0.4
v 0.2 -0.25 -0.5
v 0.2 -0.15 0.5
v 0.2 -0.15 0.4
v 0.2 -0.15 -0.4
v 0.2 -0.15 -0.5
v 0.2 0.45 0.1
v 0.2 0.45 0
v 0.2 0.55 0.1
v 0.2 0.55 0
v 0.3 -0.35 0.4
v 0.3 -0.35 0.3
v 0.3 -0.35 -0.3
v 0.3 -0.35 -0.4
v 0.3 -0.25 0.4
v 0.3 -0.25 0.3
v 0.3 -0.25 -0.3
v 0.3 -0.25 -0.4
v 0.3 -0.15 0.4
v 0.3 -0.15 0.3
v 0.3 -0.15 -0.3
v 0.3 -0.15 -0.4
v 0.4 -0.35 0.3
v 0.4 -0.35 0.2
v 0.4 -0.35 -0.2
v 0.4 -0.35 -0.3
v 0.4 -0.25 0.3
v 0.4 -0.25 0.2
v 0.4 -0.25 -0.2
v 0.4 -0.25 -0.3
v 0.4 -0.15 0.3
v 0.4 -0.15 0.2
v 0.4 -0.15 -0.2
v 0.4 -0.15 -0.3
v 0.5 -0.35 0.2
v 0.5 -0.35 0.1
v 0.5 -0.35 0
v 0.5 -0.35 -0.1
v 0.5 -0.35 -0.2
v 0.5 -0.25 0.2
v 0.5 -0.25 0.1
v 0.5 -0.25 0
v 0.5 -0.25 -0.1
v 0.5 -0.25 -0.2
v 0.5 -0.15 0.2
v 0.5 -0.15 0.1
v 0.5 -0.15 0
v 0.5 -0.15 -0.1
v 0.5 -0.15 -0.2
v -0.5 -0.35 0.2
v -0.5 -0.35 0.1
v -0.5 -0.35 0
v -0.5 -0.35 -0.1
v -0.5 -0.35 -0.2
v -0.5 -0.25 0.2
v -0.5 -0.25 0.1
v -0.5 -0.25 0
v -0.5 -0.25 -0.1
v -0.5 -0.25 -0.2
v -0.5 -0.15 0.2
v -0.5 -0.15 0.1
v -0.5 -0.15 0
v -0.5 -0.15 -0.1
v -0.5 -0.15 -0.2
v -0.4 -0.35 0.3
v -0.4 -0.35 0.2
v -0.4 -0.35 -0.2
v -0.4 -0.35 -0.3
v -0.4 -0.25 0.3
v -0.4 -0.25 -0.2
v -0.4 -0.25 -0.3
v -0.4 -0.15 0.3
v -0.4 -0.15 0.2
v -0.4 -0.15 -0.2
v -0.4 -0.15 -0.3
v -0.3 -0.35 0.4
v -0.3 -0.35 0.3
v -0.3 -0.35 -0.3
v -0.3 -0.35 -0.4
v -0.3 -0.25 0.4
v -0.3 -0.25 0.3
v -0.3 -0.25 -0.3
v -0.3 -0.25 -0.4
v -0.3 -0.15 0.4
v -0.3 -0.15 0.3
v -0.3 -0.15 -0.3
v -0.3 -0.15 -0.4
v -0.2 -0.35 0.5
v -0.2 -0.35 0.4
v -0.2 -0.35 -0.4
v -0.2 -0.35 -0.5
v -0.2 -0.25 0.5
v -0.2 -0.25 -0.4
v -0.2 -0.25 -0.5
v -0.2 -0.15 0.5
v -0.2 -0.15 0.4
v -0.2 -0.15 -0.4
v -0.2 -0.15 -0.5
v -0.2 0.45 0.2
v -0.2 0.45 0.1
v -0.2 0.45 0
v -0.2 0.45 -0.1
v -0.2 0.55 0.3
v -0.2 0.55 0.2
v -0.2 0.55 0.1
v -0.2 0.55 0
v -0.2 0.55 -0.1
v -0.2 0.55 -0.2
v -0.2 0.65 0.3
v -0.2 0.65 0.2
v -0.2 0.65 -0.1
v -0.2 0.65 -0.2
v -0.2 0.75 0.3
v -0.2 0.75 0.2
v -0.2 0.75 0.1
v -0.2 0.75 0
v -0.2 0.75 -0.1
v -0.2 0.75 -0.2
v -0.2 0.85 0.3
v -0.2 0.85 0.2
v -0.2 0.85 0.1
v -0.2 0.85 0
v -0.2 0.85 -0.1
v -0.2 0.85 -0.2
v -0.2 0.95 0.2
v -0.2 0.95 0.1
v -0.2 0.95 0
v -0.2 0.95 -0.1
v -0.1 0.65 0.1
v -0.1 0.65 0
v -0.1 0.75 0.1
v -0.1 0.75 0
v 0 -0.35 0.1
v 0 -0.35 0
v 0 -0.15 0.1
v 0 -0.15 0
v 0 -0.0500001 0.4
v 0 -0.0500001 0.3
v 0 -0.0500001 0.1
v 0 -0.0500001 0
v 0 0.05 0.4
v 0 0.05 0.3
v 0 0.05 0.2
v 0 0.05 0.1
v 0 0.05 0
v 0 0.05 -0.1
v 0 0.15 0.3
v 0 0.15 0.2
v 0 0.15 0.1
v 0 0.15 0
v 0 0.15 -0.1
v 0 0.15 -0.2
v 0 0.25 0.2
v 0 0.25 0.1
v 0 0.25 0
v 0 0.25 -0.1
v 0 0.25 -0.2
v 0 0.25 -0.3
v 0 0.35 0.1
v 0 0.35 0
v 0 0.35 -0.2
v 0 0.35 -0.3
v 0 0.45 0.1
v 0 0.45 0
v 0 0.55 0.1
v 0 0.55 0
v 0 0.65 0.1
v 0 0.65 0
v 0.1 0.25 0.1
v 0.1 0.25 0
v 0.1 0.35 0.1
v 0.1 0.35 0
v 0.2 0.35 0.1
v 0.2 0.35 0
v 0.2 0.45 0.1
v 0.2 0.45 0
v 0.3 -0.95 0.6
v 0.3 -0.95 0.5
v 0.3 -0.95 -0.5
v 0.3 -0.95 -0.6
v 0.3 -0.85 0.6
v 0.3 -0.85 0.5
v 0.3 -0.85 -0.5
v 0.3 -0.85 -0.6
v 0.3 -0.75 0.6
v 0.3 -0.75 0.5
v 0.3 -0.75 -0.5
v 0.3 -0.65 0.6
v 0.3 -0.65 0.5
v 0.3 -0.65 -0.5
v 0.3 -0.65 -0.6
v 0.3 -0.55 0.6
v 0.3 -0.55 0.5
v 0.3 -0.55 -0.5
v 0.3 -0.55 -0.6
v 0.3 -0.45 0.6
v 0.3 -0.45 0.5
v 0.3 -0.45 -0.5
v 0.3 -0.35 0.6
v 0.3 -0.35 0.5
v 0.3 -0.35 -0.5
v 0.3 -0.35 -0.6
v 0.3 -0.25 0.6
v 0.3 -0.25 0.5
v 0.3 -0.15 0.6
v 0.3 -0.15 0.5
v 0.3 -0.15 -0.5
v 0.3 -0.15 -0.6
v 0.3 0.45 0.1
v 0.3 0.45 0
v 0.3 0.55 0.1
v 0.3 0.55 0
v 0.4 -0.95 0.5
v 0.4 -0.95 0.4
v 0.4 -0.95 -0.4
v 0.4 -0.95 -0.5
v 0.4 -0.85 0.5
v 0.4 -0.85 0.4
v 0.4 -0.85 -0.4
v 0.4 -0.75 0.5
v 0.4 -0.75 0.4
v 0.4 -0.75 -0.4
v 0.4 -0.75 -0.5
v 0.4 -0.65 0.5
v 0.4 -0.65 0.4
v 0.4 -0.65 -0.4
v 0.4 -0.65 -0.5
v 0.4 -0.55 0.5
v 0.4 -0.55 0.4
v 0.4 -0.55 -0.4
v 0.4 -0.45 0.5
v 0.4 -0.45 0.4
v 0.4 -0.45 -0.4
v 0.4 -0.45 -0.5
v 0.4 -0.35 0.5
v 0.4 -0.35 0.4
v 0.4 -0.35 -0.4
v 0.4 -0.35 -0.5
v 0.4 -0.25 0.4
v 0.4 -0.25 -0.4
v 0.4 -0.15 0.5
v 0.4 -0.15 0.4
v 0.4 -0.15 -0.4
v 0.4 -0.15 -0.5
v 0.5 -0.95 0.4
v 0.5 -0.95 0.3
v 0.5 -0.95 -0.3
v 0.5 -0.95 -0.4
v 0.5 -0.85 0.3
v 0.5 -0.85 -0.3
v 0.5 -0.85 -0.4
v 0.5 -0.75 0.4
v 0.5 -0.75 0.3
v 0.5 -0.75 -0.3
v 0.5 -0.75 -0.4
v 0.5 -0.65 0.4
v 0.5 -0.65 0.3
v 0.5 -0.65 -0.3
v 0.5 -0.65 -0.4
v 0.5 -0.55 0.4
v 0.5 -0.55 0.3
v 0.5 -0.55 -0.3
v 0.5 -0.55 -0.4
v 0.5 -0.45 0.4
v 0.5 -0.45 0.3
v 0.5 -0.45 -0.3
v 0.5 -0.45 -0.4
v 0.5 -0.35 0.4
v 0.5 -0.35 0.3
v 0.5 -0.35 -0.3
v 0.5 -0.35 -0.4
v 0.5 -0.25 0.4
v 0.5 -0.25 0.3
v 0.5 -0.25 -0.3
v 0.5 -0.25 -0.4
v 0.5 -0.15 0.4
v 0.5 -0.15 0.3
v 0.5 -0.15 -0.3
v 0.5 -0.15 -0.4
v 0.6 -0.95 0.3
v 0.6 -0.95 0.2
v 0.6 -0.95 0.1
v 0.6 -0.95 0
v 0.6 -0.95 -0.1
v 0.6 -0.95 -0.2
v 0.6 -0.95 -0.3
v 0.6 -0.85 0.3
v 0.6 -0.85 0.2
v 0.6 -0.85 0.1
v 0.6 -0.85 0
v 0.6 -0.85 -0.1
v 0.6 -0.85 -0.2
v 0.6 -0.85 -0.3
v 0.6 -0.75 0.3
v 0.6 -0.75 0.2
v 0.6 -0.75 0.1
v 0.6 -0.75 0
v 0.6 -0.75 -0.1
v 0.6 -0.75 -0.2
v 0.6 -0.65 0.3
v 0.6 -0.65 0.2
v 0.6 -0.65 0
v 0.6 -0.65 -0.1
v 0.6 -0.65 -0.2
v 0.6 -0.65 -0.3
v 0.6 -0.55 0.3
v 0.6 -0.55 0.2
v 0.6 -0.55 0.1
v 0.6 -0.55 0
v 0.6 -0.55 -0.1
v 0.6 -0.55 -0.2
v 0.6 -0.45 0.3
v 0.6 -0.45 0.2
v 0.6 -0.45 0.1
v 0.6 -0.45 0
v 0.6 -0.45 -0.1
v 0.6 -0.45 -0.3
v 0.6 -0.35 0.3
v 0.6 -0.35 0.2
v 0.6 -0.35 0.1
v 0.6 -0.35 0
v 0.6 -0.35 -0.1
v 0.6 -0.35 -0.2
v 0.6 -0.35 -0.3
v 0.6 -0.25 0.3
v 0.6 -0.25 0.2
v 0.6 -0.25 0.1
v 0.6 -0.25 0
v 0.6 -0.25 -0.1
v 0.6 -0.25 -0.2
v 0.6 -0.25 -0.3
v 0.6 -0.15 0.3
v 0.6 -0.15 0.2
v 0.6 -0.15 0.1
v 0.6 -0.15 0
v 0.6 -0.15 -0.1
v 0.6 -0.15 -0.3
v -0.3 -0.95 0.6
v -0.3 -0.85 0.6
v -0.3 -0.75 0.6
v -0.3 -0.65 0.6
v -0.3 -0.55 0.6
v -0.3 -0.45 0.6
v -0.3 -0.35 0.6
v -0.3 -0.25 0.6
v -0.3 -0.15 0.6
v -0.2 -0.95 0.6
v -0.2 -0.85 0.6
v -0.2 -0.75 0.6
v -0.2 -0.65 0.6
v -0.2 -0.55 0.6
v -0.2 -0.45 0.6
v -0.2 -0.35 0.6
v -0.2 -0.25 0.6
v -0.2 -0.15 0.6
v -0.1 -0.75 0.6
v -0.1 -0.65 0.6
v -0.1 -0.55 0.6
v -0.1 -0.45 0.6
v -0.1 -0.35 0.6
v -0.1 -0.25 0.6
v -0.1 -0.15 0.6
v 0 -0.95 0.6
v 0 -0.85 0.6
v 0 -0.75 0.6
v 0 -0.65 0.6
v 0 -0.45 0.6
v 0 -0.35 0.6
v 0 -0.25 0.6
v 0 -0.15 0.6
v 0.1 -0.95 0.6
v 0.1 -0.85 0.6
v 0.1 -0.75 0.6
v 0.1 -0.65 0.6
v 0.1 -0.55 0.6
v 0.1 -0.45 0.6
v 0.1 -0.35 0.6
v 0.1 -0.25 0.6
v 0.1 -0.15 0.6
v 0.2 -0.95 0.6
v 0.2 -0.85 0.6
v 0.2 -0.75 0.6
v 0.2 -0.65 0.6
v 0.2 -0.45 0.6
v 0.2 -0.35 0.6
v 0.2 -0.25 0.6
v 0.2 -0.15 0.6
v 0.3 -0.95 0.6
v 0.3 -0.85 0.6
v 0.3 -0.75 0.6
v 0.3 -0.65 0.6
v 0.3 -0.55 0.6
v 0.3 -0.45 0.6
v 0.3 -0.35 0.6
v 0.3 -0.25 0.6
v 0.3 -0.15 0.6
v -0.4 -0.95 0.5
v -0.4 -0.85 0.5
v -0.4 -0.75 0.5
v -0.4 -0.55 0.5
v -0.4 -0.45 0.5
v -0.4 -0.35 0.5
v -0.4 -0.25 0.5
v -0.4 -0.15 0.5
v -0.3 -0.95 0.5
v -0.3 -0.85 0.5
v -0.3 -0.75 0.5
v -0.3 -0.65 0.5
v -0.3 -0.55 0.5
v -0.3 -0.45 0.5
v -0.3 -0.35 0.5
v -0.3 -0.25 0.5
v -0.3 -0.15 0.5
v 0.3 -0.95 0.5
v 0.3 -0.85 0.5
v 0.3 -0.75 0.5
v 0.3 -0.65 0.5
v 0.3 -0.55 0.5
v 0.3 -0.45 0.5
v 0.3 -0.35 0.5
v 0.3 -0.25 0.5
v 0.3 -0.15 0.5
v 0.4 -0.95 0.5
v 0.4 -0.85 0.5
v 0.4 -0.75 0.5
v 0.4 -0.65 0.5
v 0.4 -0.55 0.5
v 0.4 -0.45 0.5
v 0.4 -0.35 0.5
v 0.4 -0.15 0.5
v -0.5 -0.95 0.4
v -0.5 -0.85 0.4
v -0.5 -0.75 0.4
v -0.5 -0.65 0.4
v -0.5 -0.55 0.4
v -0.5 -0.45 0.4
v -0.5 -0.35 0.4
v -0.5 -0.25 0.4
v -0.5 -0.15 0.4
v -0.4 -0.95 0.4
v -0.4 -0.85 0.4
v -0.4 -0.75 0.4
v -0.4 -0.65 0.4
v -0.4 -0.55 0.4
v -0.4 -0.45 0.4
v -0.4 -0.35 0.4
v -0.4 -0.25 0.4
v -0.4 -0.15 0.4
v -0.1 -0.0500001 0.4
v -0.1 0.05 0.4
v 0 -0.0500001 0.4
v 0 0.05 0.4
v 0.4 -0.95 0.4
v 0.4 -0.85 0.4
v 0.4 -0.75 0.4
v 0.4 -0.65 0.4
v 0.4 -0.55 0.4
v 0.4 -0.45 0.4
v 0.4 -0.35 0.4
v 0.4 -0.25 0.4
v 0.4 -0.15 0.4
v 0.5 -0.95 0.4
v 0.5 -0.75 0.4
v 0.5 -0.65 0.4
v 0.5 -0.55 0.4
v 0.5 -0.45 0.4
v 0.5 -0.35 0.4
v 0.5 -0.25 0.4
v 0.5 -0.15 0.4
v -0.6 -0.95 0.3
v -0.6 -0.85 0.3
v -0.6 -0.75 0.3
v -0.6 -0.65 0.3
v -0.6 -0.55 0.3
v -0.6 -0.45 0.3
v -0.6 -0.35 0.3
v -0.6 -0.25 0.3
v -0.6 -0.15 0.3
v -0.5 -0.95 0.3
v -0.5 -0.85 0.3
v -0.5 -0.75 0.3
v -0.5 -0.65 0.3
v -0.5 -0.55 0.3
v -0.5 -0.45 0.3
v -0.5 -0.35 0.3
v -0.5 -0.25 0.3
v -0.5 -0.15 0.3
v -0.3 0.55 0.3
v -0.3 0.65 0.3
v -0.3 0.75 0.3
v -0.3 0.85 0.3
v -0.2 0.55 0.3
v -0.2 0.65 0.3
v -0.2 0.75 0.3
v -0.2 0.85 0.3
v -0.1 0.05 0.3
v -0.1 0.15 0.3
v 0 0.05 0.3
v 0 0.15 0.3
v 0.5 -0.95 0.3
v 0.5 -0.85 0.3
v 0.5 -0.75 0.3
v 0.5 -0.65 0.3
v 0.5 -0.55 0.3
v 0.5 -0.45 0.3
v 0.5 -0.35 0.3
v 0.5 -0.25 0.3
v 0.5 -0.15 0.3
v 0.6 -0.95 0.3
v 0.6 -0.85 0.3
v 0.6 -0.75 0.3
v 0.6 -0.65 0.3
v 0.6 -0.55 0.3
v 0.6 -0.45 0.3
v 0.6 -0.35 0.3
v 0.6 -0.25 0.3
v 0.6 -0.15 0.3
v -0.3 0.45 0.2
v -0.3 0.55 0.2
v -0.3 0.85 0.2
v -0.3 0.95 0.2
v -0.2 0.45 0.2
v -0.2 0.55 0.2
v -0.2 0.85 0.2
v -0.2 0.95 0.2
v -0.1 0.15 0.2
v -0.1 0.25 0.2
v 0 0.15 0.2
v 0 0.25 0.2
v -0.2 0.55 0.1
v -0.2 0.75 0.1
v -0.1 -0.35 0.1
v -0.1 -0.15 0.1
v -0.1 -0.0500001 0.1
v -0.1 0.05 0.1
v -0.1 0.15 0.1
v -0.1 0.25 0.1
v -0.1 0.35 0.1
v -0.1 0.45 0.1
v -0.1 0.55 0.1
v -0.1 0.65 0.1
v -0.1 0.75 0.1
v 0 -0.35 0.1
v 0 -0.15 0.1
v 0 -0.0500001 0.1
v 0 0.05 0.1
v 0 0.15 0.1
v 0 0.25 0.1
v 0 0.35 0.1
v 0 0.45 0.1
v 0 0.55 0.1
v 0 0.65 0.1
v 0.1 0.25 0.1
v 0.1 0.35 0.1
v 0.1 0.45 0.1
v 0.2 0.35 0.1
v 0.2 0.45 0.1
v 0.2 0.55 0.1
v 0.3 0.45 0.1
v 0.3 0.55 0.1
v -0.1 0.15 -0.1
v -0.1 0.25 -0.1
v 0 0.15 -0.1
v 0 0.25 -0.1
v -0.5 -0.35 -0.2
v -0.5 -0.25 -0.2
v -0.5 -0.15 -0.2
v -0.4 -0.35 -0.2
v -0.4 -0.25 -0.2
v -0.4 -0.15 -0.2
v -0.1 0.25 -0.2
v -0.1 0.35 -0.2
v 0 0.25 -0.2
v 0 0.35 -0.2
v 0.4 -0.35 -0.2
v 0.4 -0.25 -0.2
v 0.4 -0.15 -0.2
v 0.5 -0.35 -0.2
v 0.5 -0.25 -0.2
v 0.5 -0.15 -0.2
v -0.4 -0.35 -0.3
v -0.4 -0.25 -0.3
v -0.4 -0.15 -0.3
v -0.3 -0.35 -0.3
v -0.3 -0.25 -0.3
v -0.3 -0.15 -0.3
v 0.3 -0.35 -0.3
v 0.3 -0.25 -0.3
v 0.3 -0.15 -0.3
v 0.4 -0.35 -0.3
v 0.4 -0.25 -0.3
v 0.4 -0.15 -0.3
v -0.3 -0.35 -0.4
v -0.3 -0.25 -0.4
v -0.3 -0.15 -0.4
v -0.2 -0.35 -0.4
v -0.2 -0.25 -0.4
v -0.2 -0.15 -0.4
v 0.2 -0.35 -0.4
v 0.2 -0.25 -0.4
v 0.2 -0.15 -0.4
v 0.3 -0.35 -0.4
v 0.3 -0.25 -0.4
v 0.3 -0.15 -0.4
v -0.2 -0.35 -0.5
v -0.2 -0.25 -0.5
v -0.2 -0.15 -0.5
v -0.1 -0.35 -0.5
v -0.1 -0.25 -0.5
v -0.1 -0.15 -0.5
v 0 -0.35 -0.5
v 0 -0.25 -0.5
v 0 -0.15 -0.5
v 0.1 -0.35 -0.5
v 0.1 -0.25 -0.5
v 0.1 -0.15 -0.5
v 0.2 -0.35 -0.5
v 0.2 -0.25 -0.5
v 0.2 -0.15 -0.5
v -0.2 -0.35 0.5
v -0.2 -0.25 0.5
v -0.2 -0.15 0.5
v -0.1 -0.35 0.5
v -0.1 -0.25 0.5
v -0.1 -0.15 0.5
v 0 -0.35 0.5
v 0 -0.25 0.5
v 0 -0.15 0.5
v 0.1 -0.35 0.5
v 0.1 -0.25 0.5
v 0.1 -0.15 0.5
v 0.2 -0.35 0.5
v 0.2 -0.25 0.5
v 0.2 -0.15 0.5
v -0.3 -0.35 0.4
v -0.3 -0.25 0.4
v -0.3 -0.15 0.4
v -0.2 -0.35 0.4
v -0.2 -0.15 0.4
v 0.2 -0.35 0.4
v 0.2 -0.25 0.4
v 0.2 -0.15 0.4
v 0.3 -0.35 0.4
v 0.3 -0.25 0.4
v 0.3 -0.15 0.4
v -0.4 -0.35 0.3
v -0.4 -0.25 0.3
v -0.4 -0.15 0.3
v -0.3 -0.35 0.3
v -0.3 -0.25 0.3
v -0.3 -0.15 0.3
v -0.1 -0.0500001 0.3
v -0.1 0.05 0.3
v 0 -0.0500001 0.3
v 0 0.05 0.3
v 0.3 -0.35 0.3
v 0.3 -0.25 0.3
v 0.3 -0.15 0.3
v 0.4 -0.35 0.3
v 0.4 -0.25 0.3
v 0.4 -0.15 0.3
v -0.5 -0.35 0.2
v -0.5 -0.25 0.2
v -0.5 -0.15 0.2
v -0.4 -0.35 0.2
v -0.4 -0.15 0.2
v -0.1 0.05 0.2
v -0.1 0.15 0.2
v 0 0.05 0.2
v 0 0.15 0.2
v 0.4 -0.35 0.2
v 0.4 -0.25 0.2
v 0.4 -0.15 0.2
v 0.5 -0.35 0.2
v 0.5 -0.25 0.2
v 0.5 -0.15 0.2
v -0.2 0.55 0
v -0.2 0.75 0
v -0.1 -0.35 0
v -0.1 -0.15 0
v -0.1 -0.0500001 0
v -0.1 0.05 0
v -0.1 0.15 0
v -0.1 0.25 0
v -0.1 0.35 0
v -0.1 0.45 0
v -0.1 0.55 0
v -0.1 0.65 0
v -0.1 0.75 0
v 0 -0.35 0
v 0 -0.15 0
v 0 -0.0500001 0
v 0 0.05 0
v 0 0.15 0
v 0 0.25 0
v 0 0.35 0
v 0 0.45 0
v 0 0.55 0
v 0 0.65 0
v 0.1 0.25 0
v 0.1 0.35 0
v 0.1 0.45 0
v 0.2 0.35 0
v 0.2 0.45 0
v 0.2 0.55 0
v 0.3 0.45 0
v 0.3 0.55 0
v -0.3 0.45 -0.1
v -0.3 0.55 -0.1
v -0.3 0.85 -0.1
v -0.3 0.95 -0.1
v -0.2 0.45 -0.1
v -0.2 0.55 -0.1
v -0.2 0.85 -0.1
v -0.2 0.95 -0.1
v -0.1 0.05 -0.1
v -0.1 0.15 -0.1
v 0 0.05 -0.1
v 0 0.15 -0.1
v -0.3 0.55 -0.2
v -0.3 0.65 -0.2
v -0.3 0.75 -0.2
v -0.3 0.85 -0.2
v -0.2 0.55 -0.2
v -0.2 0.65 -0.2
v -0.2 0.75 -0.2
v -0.2 0.85 -0.2
v -0.1 0.15 -0.2
v -0.1 0.25 -0.2
v 0 0.15 -0.2
v 0 0.25 -0.2
v -0.6 -0.95 -0.3
v -0.6 -0.85 -0.3
v -0.6 -0.75 -0.3
v -0.6 -0.65 -0.3
v -0.6 -0.55 -0.3
v -0.6 -0.45 -0.3
v -0.6 -0.35 -0.3
v -0.6 -0.25 -0.3
v -0.6 -0.15 -0.3
v -0.5 -0.95 -0.3
v -0.5 -0.85 -0.3
v -0.5 -0.75 -0.3
v -0.5 -0.65 -0.3
v -0.5 -0.55 -0.3
v -0.5 -0.45 -0.3
v -0.5 -0.35 -0.3
v -0.5 -0.25 -0.3
v -0.5 -0.15 -0.3
v -0.1 0.25 -0.3
v -0.1 0.35 -0.3
v 0 0.25 -0.3
v 0 0.35 -0.3
v 0.5 -0.95 -0.3
v 0.5 -0.85 -0.3
v 0.5 -0.75 -0.3
v 0.5 -0.65 -0.3
v 0.5 -0.55 -0.3
v 0.5 -0.45 -0.3
v 0.5 -0.35 -0.3
v 0.5 -0.25 -0.3
v 0.5 -0.15 -0.3
v 0.6 -0.95 -0.3
v 0.6 -0.85 -0.3
v 0.6 -0.65 -0.3
v 0.6 -0.45 -0.3
v 0.6 -0.35 -0.3
v 0.6 -0.25 -0.3
v 0.6 -0.15 -0.3
v -0.5 -0.95 -0.4
v -0.5 -0.85 -0.4
v -0.5 -0.75 -0.4
v -0.5 -0.65 -0.4
v -0.5 -0.55 -0.4
v -0.5 -0.45 -0.4
v -0.5 -0.35 -0.4
v -0.5 -0.15 -0.4
v -0.4 -0.95 -0.4
v -0.4 -0.85 -0.4
v -0.4 -0.75 -0.4
v -0.4 -0.65 -0.4
v -0.4 -0.55 -0.4
v -0.4 -0.45 -0.4
v -0.4 -0.35 -0.4
v -0.4 -0.25 -0.4
v -0.4 -0.15 -0.4
v 0.4 -0.95 -0.4
v 0.4 -0.85 -0.4
v 0.4 -0.75 -0.4
v 0.4 -0.65 -0.4
v 0.4 -0.55 -0.4
v 0.4 -0.45 -0.4
v 0.4 -0.35 -0.4
v 0.4 -0.25 -0.4
v 0.4 -0.15 -0.4
v 0.5 -0.95 -0.4
v 0.5 -0.85 -0.4
v 0.5 -0.75 -0.4
v 0.5 -0.65 -0.4
v 0.5 -0.55 -0.4
v 0.5 -0.45 -0.4
v 0.5 -0.35 -0.4
v 0.5 -0.25 -0.4
v 0.5 -0.15 -0.4
v -0.4 -0.95 -0.5
v -0.4 -0.85 -0.5
v -0.4 -0.75 -0.5
v -0.4 -0.55 -0.5
v -0.4 -0.45 -0.5
v -0.4 -0.35 -0.5
v -0.4 -0.25 -0.5
v -0.4 -0.15 -0.5
v -0.3 -0.95 -0.5
v -0.3 -0.85 -0.5
v -0.3 -0.75 -0.5
v -0.3 -0.65 -0.5
v -0.3 -0.55 -0.5
v -0.3 -0.45 -0.5
v -0.3 -0.35 -0.5
v -0.3 -0.25 -0.5
v -0.3 -0.15 -0.5
v 0.3 -0.95 -0.5
v 0.3 -0.85 -0.5
v 0.3 -0.75 -0.5
v 0.3 -0.65 -0.5
v 0.3 -0.55 -0.5
v 0.3 -0.45 -0.5
v 0.3 -0.35 -0.5
v 0.3 -0.15 -0.5
v 0.4 -0.95 -0.5
v 0.4 -0.75 -0.5
v 0.4 -0.65 -0.5
v 0.4 -0.45 -0.5
v 0.4 -0.35 -0.5
v 0.4 -0.15 -0.5
v -0.3 -0.95 -0.6
v -0.3 -0.65 -0.6
v -0.3 -0.55 -0.6
v -0.3 -0.45 -0.6
v -0.3 -0.25 -0.6
v -0.3 -0.15 -0.6
v -0.2 -0.95 -0.6
v -0.2 -0.85 -0.6
v -0.2 -0.75 -0.6
v -0.2 -0.65 -0.6
v -0.2 -0.55 -0.6
v -0.2 -0.45 -0.6
v -0.2 -0.35 -0.6
v -0.2 -0.25 -0.6
v -0.2 -0.15 -0.6
v -0.1 -0.85 -0.6
v -0.1 -0.75 -0.6
v -0.1 -0.65 -0.6
v -0.1 -0.55 -0.6
v -0.1 -0.35 -0.6
v -0.1 -0.25 -0.6
v -0.1 -0.15 -0.6
v 0 -0.75 -0.6
v 0 -0.65 -0.6
v 0 -0.55 -0.6
v 0 -0.45 -0.6
v 0 -0.35 -0.6
v 0 -0.25 -0.6
v 0 -0.15 -0.6
v 0.1 -0.95 -0.6
v 0.1 -0.85 -0.6
v 0.1 -0.75 -0.6
v 0.1 -0.65 -0.6
v 0.1 -0.55 -0.6
v 0.1 -0.45 -0.6
v 0.1 -0.35 -0.6
v 0.1 -0.25 -0.6
v 0.1 -0.15 -0.6
v 0.2 -0.95 -0.6
v 0.2 -0.85 -0.6
v 0.2 -0.75 -0.6
v 0.2 -0.65 -0.6
v 0.2 -0.55 -0.6
v 0.2 -0.45 -0.6
v 0.2 -0.35 -0.6
v 0.2 -0.25 -0.6
v 0.3 -0.95 -0.6
v 0.3 -0.85 -0.6
v 0.3 -0.65 -0.6
v 0.3 -0.55 -0.6
v 0.3 -0.35 -0.6
v 0.3 -0.15 -0.6
v -0.3 -0.95 0.6
v -0.2 -0.95 0.6
v 0 -0.95 0.6
v 0.1 -0.95 0.6
v 0.2 -0.95 0.6
v 0.3 -0.95 0.6
v -0.4 -0.95 0.5
v -0.3 -0.95 0.5
v -0.2 -0.95 0.5
v -0.1 -0.95 0.5
v 0.1 -0.95 0.5
v 0.2 -0.95 0.5
v 0.3 -0.95 0.5
v 0.4 -0.95 0.5
v -0.5 -0.95 0.4
v -0.4 -0.95 0.4
v -0.3 -0.95 0.4
v -0.2 -0.95 0.4
v -0.1 -0.95 0.4
v 0 -0.95 0.4
v 0.1 -0.95 0.4
v 0.2 -0.95 0.4
v 0.3 -0.95 0.4
v 0.4 -0.95 0.4
v 0.5 -0.95 0.4
v -0.6 -0.95 0.3
v -0.5 -0.95 0.3
v -0.4 -0.95 0.3
v -0.3 -0.95 0.3
v -0.2 -0.95 0.3
v -0.1 -0.95 0.3
v 0 -0.95 0.3
v 0.1 -0.95 0.3
v 0.2 -0.95 0.3
v 0.3 -0.95 0.3
v 0.5 -0.95 0.3
v 0.6 -0.95 0.3
v -0.6 -0.95 0.2
v -0.5 -0.95 0.2
v -0.4 -0.95 0.2
v -0.3 -0.95 0.2
v -0.2 -0.95 0.2
v -0.1 -0.95 0.2
v 0 -0.95 0.2
v 0.1 -0.95 0.2
v 0.2 -0.95 0.2
v 0.3 -0.95 0.2
v 0.4 -0.95 0.2
v 0.5 -0.95 0.2
v 0.6 -0.95 0.2
v -0.6 -0.95 0.1
v -0.5 -0.95 0.1
v -0.4 -0.95 0.1
v -0.3 -0.95 0.1
v -0.2 -0.95 0.1
v -0.1 -0.95 0.1
v 0 -0.95 0.1
v 0.1 -0.95 0.1
v 0.2 -0.95 0.1
v 0.4 -0.95 0.1
v 0.5 -0.95 0.1
v 0.6 -0.95 0.1
v -0.6 -0.95 0
v -0.5 -0.95 0
v -0.4 -0.95 0
v -0.2 -0.95 0
v -0.1 -0.95 0
v 0 -0.95 0
v 0.1 -0.95 0
v 0.2 -0.95 0
v 0.3 -0.95 0
v 0.4 -0.95 0
v 0.5 -0.95 0
v 0.6 -0.95 0
v -0.5 -0.95 -0.1
v -0.4 -0.95 -0.1
v -0.3 -0.95 -0.1
v -0.2 -0.95 -0.1
v -0.1 -0.95 -0.1
v 0 -0.95 -0.1
v 0.1 -0.95 -0.1
v 0.2 -0.95 -0.1
v 0.3 -0.95 -0.1
v 0.4 -0.95 -0.1
v 0.5 -0.95 -0.1
v 0.6 -0.95 -0.1
v -0.5 -0.95 -0.2
v -0.3 -0.95 -0.2
v -0.2 -0.95 -0.2
v -0.1 -0.95 -0.2
v 0 -0.95 -0.2
v 0.1 -0.95 -0.2
v 0.2 -0.95 -0.2
v 0.3 -0.95 -0.2
v 0.4 -0.95 -0.2
v 0.5 -0.95 -0.2
v 0.6 -0.95 -0.2
v -0.6 -0.95 -0.3
v -0.5 -0.95 -0.3
v -0.4 -0.95 -0.3
v -0.3 -0.95 -0.3
v -0.2 -0.95 -0.3
v -0.1 -0.95 -0.3
v 0 -0.95 -0.3
v 0.1 -0.95 -0.3
v 0.2 -0.95 -0.3
v 0.3 -0.95 -0.3
v 0.4 -0.95 -0.3
v 0.5 -0.95 -0.3
v 0.6 -0.95 -0.3
v -0.5 -0.95 -0.4
v -0.4 -0.95 -0.4
v -0.3 -0.95 -0.4
v -0.2 -0.95 -0.4
v -0.1 -0.95 -0.4
v 0 -0.95 -0.4
v 0.1 -0.95 -0.4
v 0.2 -0.95 -0.4
v 0.3 -0.95 -0.4
v 0.4 -0.95 -0.4
v 0.5 -0.95 -0.4
v -0.4 -0.95 -0.5
v -0.3 -0.95 -0.5
v -0.2 -0.95 -0.5
v -0.1 -0.95 -0.5
v 0.1 -0.95 -0.5
v 0.2 -0.95 -0.5
v 0.3 -0.95 -0.5
v 0.4 -0.95 -0.5
v -0.3 -0.95 -0.6
v -0.2 -0.95 -0.6
v 0.1 -0.95 -0.6
v 0.2 -0.95 -0.6
v 0.3 -0.95 -0.6
v -0.1 -0.0500001 0.4
v 0 -0.0500001 0.4
v -0.1 -0.0500001 0.3
v 0 -0.0500001 0.3
v -0.1 0.05 0.3
v 0 0.05 0.3
v -0.1 0.05 0.2
v 0 0.05 0.2
v -0.1 0.05 0
v 0 0.05 0
v -0.1 0.05 -0.1
v 0 0.05 -0.1
v -0.1 0.15 0.2
v 0 0.15 0.2
v -0.1 0.15 0.1
v 0 0.15 0.1
v -0.1 0.15 -0.1
v 0 0.15 -0.1
v -0.1 0.15 -0.2
v 0 0.15 -0.2
v 0 0.25 0.1
v 0.1 0.25 0.1
v 0 0.25 0
v 0.1 0.25 0
v -0.1 0.25 -0.2
v 0 0.25 -0.2
v -0.1 0.25 -0.3
v 0 0.25 -0.3
v 0.1 0.35 0.1
v 0.2 0.35 0.1
v 0.1 0.35 0
v 0.2 0.35 0
v -0.3 0.45 0.2
v -0.2 0.45 0.2
v -0.3 0.45 0.1
v -0.2 0.45 0.1
v 0.2 0.45 0.1
v 0.3 0.45 0.1
v -0.3 0.45 0
v -0.2 0.45 0
v 0.2 0.45 0
v 0.3 0.45 0
v -0.3 0.45 -0.1
v -0.2 0.45 -0.1
v -0.3 0.55 0.3
v -0.2 0.55 0.3
v -0.3 0.55 0.2
v -0.2 0.55 0.2
v -0.2 0.55 0.1
v -0.1 0.55 0.1
v -0.2 0.55 0
v -0.1 0.55 0
v -0.3 0.55 -0.1
v -0.2 0.55 -0.1
v -0.3 0.55 -0.2
v -0.2 0.55 -0.2
v -0.2 -0.35 0.5
v -0.1 -0.35 0.5
v 0 -0.35 0.5
v 0.1 -0.35 0.5
v 0.2 -0.35 0.5
v -0.3 -0.35 0.4
v -0.2 -0.35 0.4
v -0.1 -0.35 0.4
v 0 -0.35 0.4
v 0.1 -0.35 0.4
v 0.2 -0.35 0.4
v 0.3 -0.35 0.4
v -0.4 -0.35 0.3
v -0.3 -0.35 0.3
v -0.2 -0.35 0.3
v -0.1 -0.35 0.3
v 0.1 -0.35 0.3
v 0.2 -0.35 0.3
v 0.3 -0.35 0.3
v 0.4 -0.35 0.3
v -0.5 -0.35 0.2
v -0.4 -0.35 0.2
v -0.3 -0.35 0.2
v -0.2 -0.35 0.2
v -0.1 -0.35 0.2
v 0.1 -0.35 0.2
v 0.2 -0.35 0.2
v 0.3 -0.35 0.2
v 0.4 -0.35 0.2
v 0.5 -0.35 0.2
v -0.5 -0.35 0.1
v -0.4 -0.35 0.1
v -0.3 -0.35 0.1
v -0.2 -0.35 0.1
v -0.1 -0.35 0.1
v 0 -0.35 0.1
v 0.1 -0.35 0.1
v 0.2 -0.35 0.1
v 0.3 -0.35 0.1
v 0.4 -0.35 0.1
v 0.5 -0.35 0.1
v -0.5 -0.35 0
v -0.3 -0.35 0
v -0.2 -0.35 0
v -0.1 -0.35 0
v 0 -0.35 0
v 0.1 -0.35 0
v 0.2 -0.35 0
v 0.3 -0.35 0
v 0.4 -0.35 0
v 0.5 -0.35 0
v -0.5 -0.35 -0.1
v -0.4 -0.35 -0.1
v -0.3 -0.35 -0.1
v -0.2 -0.35 -0.1
v -0.1 -0.35 -0.1
v 0.1 -0.35 -0.1
v 0.2 -0.35 -0.1
v 0.3 -0.35 -0.1
v 0.4 -0.35 -0.1
v 0.5 -0.35 -0.1
v -0.5 -0.35 -0.2
v -0.4 -0.35 -0.2
v -0.3 -0.35 -0.2
v -0.2 -0.35 -0.2
v -0.1 -0.35 -0.2
v 0 -0.35 -0.2
v 0.1 -0.35 -0.2
v 0.2 -0.35 -0.2
v 0.3 -0.35 -0.2
v 0.4 -0.35 -0.2
v 0.5 -0.35 -0.2
v -0.4 -0.35 -0.3
v -0.3 -0.35 -0.3
v -0.1 -0.35 -0.3
v 0 -0.35 -0.3
v 0.1 -0.35 -0.3
v 0.2 -0.35 -0.3
v 0.3 -0.35 -0.3
v 0.4 -0.35 -0.3
v -0.3 -0.35 -0.4
v -0.2 -0.35 -0.4
v -0.1 -0.35 -0.4
v 0.1 -0.35 -0.4
v 0.2 -0.35 -0.4
v 0.3 -0.35 -0.4
v -0.2 -0.35 -0.5
v -0.1 -0.35 -0.5
v 0 -0.35 -0.5
v 0.1 -0.35 -0.5
v 0.2 -0.35 -0.5
v -0.3 -0.15 0.6
v -0.2 -0.15 0.6
v -0.1 -0.15 0.6
v 0 -0.15 0.6
v 0.1 -0.15 0.6
v 0.2 -0.15 0.6
v 0.3 -0.15 0.6
v -0.4 -0.15 0.5
v -0.3 -0.15 0.5
v -0.2 -0.15 0.5
v -0.1 -0.15 0.5
v 0 -0.15 0.5
v 0.1 -0.15 0.5
v 0.2 -0.15 0.5
v 0.3 -0.15 0.5
v 0.4 -0.15 0.5
v -0.5 -0.15 0.4
v -0.4 -0.15 0.4
v -0.3 -0.15 0.4
v -0.2 -0.15 0.4
v 0.2 -0.15 0.4
v 0.3 -0.15 0.4
v 0.4 -0.15 0.4
v 0.5 -0.15 0.4
v -0.6 -0.15 0.3
v -0.5 -0.15 0.3
v -0.4 -0.15 0.3
v -0.3 -0.15 0.3
v 0.3 -0.15 0.3
v 0.4 -0.15 0.3
v 0.5 -0.15 0.3
v 0.6 -0.15 0.3
v -0.5 -0.15 0.2
v -0.4 -0.15 0.2
v 0.4 -0.15 0.2
v 0.5 -0.15 0.2
v 0.6 -0.15 0.2
v -0.6 -0.15 0.1
v -0.5 -0.15 0.1
v 0.5 -0.15 0.1
v 0.6 -0.15 0.1
v -0.6 -0.15 0
v -0.5 -0.15 0
v 0.5 -0.15 0
v 0.6 -0.15 0
v -0.6 -0.15 -0.1
v -0.5 -0.15 -0.1
v 0.5 -0.15 -0.1
v 0.6 -0.15 -0.1
v -0.6 -0.15 -0.2
v -0.5 -0.15 -0.2
v -0.4 -0.15 -0.2
v 0.4 -0.15 -0.2
v 0.5 -0.15 -0.2
v -0.6 -0.15 -0.3
v -0.5 -0.15 -0.3
v -0.4 -0.15 -0.3
v -0.3 -0.15 -0.3
v 0.3 -0.15 -0.3
v 0.4 -0.15 -0.3
v 0.5 -0.15 -0.3
v 0.6 -0.15 -0.3
v -0.5 -0.15 -0.4
v -0.4 -0.15 -0.4
v -0.3 -0.15 -0.4
v -0.2 -0.15 -0.4
v 0.2 -0.15 -0.4
v 0.3 -0.15 -0.4
v 0.4 -0.15 -0.4
v 0.5 -0.15 -0.4
v -0.4 -0.15 -0.5
v -0.3 -0.15 -0.5
v -0.2 -0.15 -0.5
v -0.1 -0.15 -0.5
v 0 -0.15 -0.5
v 0.1 -0.15 -0.5
v 0.2 -0.15 -0.5
v 0.3 -0.15 -0.5
v 0.4 -0.15 -0.5
v -0.3 -0.15 -0.6
v -0.2 -0.15 -0.6
v -0.1 -0.15 -0.6
v 0 -0.15 -0.6
v 0.1 -0.15 -0.6
v 0.3 -0.15 -0.6
v -0.1 0.05 0.4
v 0 0.05 0.4
v -0.1 0.05 0.3
v 0 0.05 0.3
v -0.1 0.15 0.3
v 0 0.15 0.3
v -0.1 0.15 0.2
v 0 0.15 0.2
v -0.1 0.15 0
v 0 0.15 0
v -0.1 0.15 -0.1
v 0 0.15 -0.1
v -0.1 0.25 0.2
v 0 0.25 0.2
v -0.1 0.25 0.1
v 0 0.25 0.1
v -0.1 0.25 -0.1
v 0 0.25 -0.1
v -0.1 0.25 -0.2
v 0 0.25 -0.2
v 0 0.35 0.1
v 0.1 0.35 0.1
v 0 0.35 0
v 0.1 0.35 0
v -0.1 0.35 -0.2
v 0 0.35 -0.2
v -0.1 0.35 -0.3
v 0 0.35 -0.3
v 0.1 0.45 0.1
v 0.2 0.45 0.1
v 0.1 0.45 0
v 0.2 0.45 0
v 0.2 0.55 0.1
v 0.3 0.55 0.1
v 0.2 0.55 0
v 0.3 0.55 0
v -0.1 0.65 0.1
v 0 0.65 0.1
v -0.1 0.65 0
v 0 0.65 0
v -0.2 0.75 0.1
v -0.1 0.75 0.1
v -0.2 0.75 0
v -0.1 0.75 0
v -0.3 0.85 0.3
v -0.2 0.85 0.3
v -0.3 0.85 0.2
v -0.2 0.85 0.2
v -0.3 0.85 -0.1
v -0.2 0.85 -0.1
v -0.3 0.85 -0.2
v -0.2 0.85 -0.2
v -0.3 0.95 0.2
v -0.2 0.95 0.2
v -0.3 0.95 0.1
v -0.2 0.95 0.1
v -0.3 0.95 0
v -0.2 0.95 0
v -0.3 0.95 -0.1
v -0.2 0.95 -0.1

# faces
f 6/1/1 2/1/1 1/1/1
f 7/5/1 3/5/1 2/5/1
f 7/1/1 2/1/1 6/1/1
f 8/1/1 4/1/1 3/1/1
f 8/5/1 3/5/1 7/5/1
f 9/7/1 5/7/1 4/7/1
f 9/1/1 4/1/1 8/1/1
f 10/7/1 5/7/1 9/7/1
f 11/7/1 5/7/1 10/7/1
f 12/7/1 5/7/1 11/7/1
f 13/5/1 7/5/1 6/5/1
f 14/6/1 8/6/1 7/6/1
f 14/5/1 7/5/1 13/5/1
f 15/1/1 9/1/1 8/1/1
f 15/6/1 8/6/1 14/6/1
f 15/1/1 10/1/1 9/1/1
f 16/6/1 11/6/1 10/6/1
f 16/1/1 10/1/1 15/1/1
f 17/4/1 12/4/1 11/4/1
f 17/6/1 11/6/1 16/6/1
f 18/4/1 12/4/1 17/4/1
f 19/4/1 14/4/1 13/4/1
f 20/6/1 15/6/1 14/6/1
f 20/4/1 14/4/1 19/4/1
f 21/7/1 16/7/1 15/7/1
f 22/5/1 17/5/1 16/5/1
f 22/7/1 16/7/1 21/7/1
f 23/1/1 18/1/1 17/1/1
f 23/5/1 17/5/1 22/5/1
f 24/1/1 18/1/1 23/1/1
f 25/6/1 20/6/1 19/6/1
f 26/6/1 15/6/1 20/6/1
f 26/6/1 20/6/1 25/6/1
f 27/7/1 21/7/1 15/7/1
f 27/6/1 15/6/1 26/6/1
f 28/1/1 22/1/1 21/1/1
f 28/7/1 21/7/1 27/7/1
f 29/5/1 23/5/1 22/5/1
f 29/1/1 22/1/1 28/1/1
f 30/4/1 24/4/1 23/4/1
f 30/5/1 23/5/1 29/5/1
f 31/4/1 24/4/1 30/4/1
f 32/7/1 26/7/1 25/7/1
f 33/6/1 27/6/1 26/6/1
f 33/7/1 26/7/1 32/7/1
f 33/6/1 28/6/1 27/6/1
f 34/6/1 28/6/1 33/6/1
f 35/1/1 29/1/1 28/1/1
f 35/6/1 28/6/1 34/6/1
f 36/4/1 30/4/1 29/4/1
f 36/1/1 29/1/1 35/1/1
f 37/5/1 31/5/1 30/5/1
f 37/4/1 30/4/1 36/4/1
f 38/5/1 31/5/1 37/5/1
f 39/1/1 33/1/1 32/1/1
f 40/4/1 34/4/1 33/4/1
f 40/1/1 33/1/1 39/1/1
f 41/6/1 36/6/1 35/6/1
f 41/4/1 34/4/1 40/4/1
f 41/6/1 35/6/1 34/6/1
f 41/6/1 37/6/1 36/6/1
f 42/6/1 37/6/1 41/6/1
f 43/6/1 37/6/1 42/6/1
f 44/4/1 38/4/1 37/4/1
f 44/6/1 37/6/1 43/6/1
f 45/4/1 38/4/1 44/4/1
f 46/5/1 40/5/1 39/5/1
f 47/1/1 41/1/1 40/1/1
f 47/5/1 40/5/1 46/5/1
f 48/6/1 42/6/1 41/6/1
f 48/1/1 41/1/1 47/1/1
f 49/5/1 43/5/1 42/5/1
f 49/6/1 42/6/1 48/6/1
f 50/6/1 44/6/1 43/6/1
f 50/5/1 43/5/1 49/5/1
f 51/1/1 45/1/1 44/1/1
f 51/6/1 44/6/1 50/6/1
f 52/1/1 45/1/1 51/1/1
f 53/7/1 48/7/1 47/7/1
f 53/7/1 47/7/1 46/7/1
f 54/1/1 49/1/1 48/1/1
f 54/7/1 48/7/1 53/7/1
f 55/6/1 50/6/1 49/6/1
f 55/1/1 49/1/1 54/1/1
f 56/7/1 51/7/1 50/7/1
f 56/6/1 50/6/1 55/6/1
f 57/4/1 52/4/1 51/4/1
f 57/7/1 51/7/1 56/7/1
f 58/4/1 52/4/1 57/4/1
f 63/1/1 60/1/1 59/1/1
f 64/1/1 60/1/1 63/1/1
f 65/7/1 62/7/1 61/7/1
f 66/7/1 62/7/1 65/7/1
f 67/6/1 64/6/1 63/6/1
f 68/6/1 64/6/1 67/6/1
f 69/1/1 66/1/1 65/1/1
f 70/1/1 66/1/1 69/1/1
f 71/4/1 68/4/1 67/4/1
f 72/4/1 68/4/1 71/4/1
f 73/5/1 70/5/1 69/5/1
f 74/5/1 70/5/1 73/5/1
f 75/7/1 72/7/1 71/7/1
f 76/7/1 72/7/1 75/7/1
f 77/6/1 74/6/1 73/6/1
f 78/6/1 74/6/1 77/6/1
f 79/4/1 76/4/1 75/4/1
f 80/4/1 76/4/1 79/4/1
f 81/4/1 78/4/1 77/4/1
f 82/4/1 78/4/1 81/4/1
f 83/1/1 80/1/1 79/1/1
f 84/1/1 80/1/1 83/1/1
f 85/1/1 82/1/1 81/1/1
f 86/1/1 82/1/1 85/1/1
f 87/5/1 84/5/1 83/5/1
f 88/5/1 84/5/1 87/5/1
f 89/6/1 86/6/1 85/6/1
f 90/4/1 88/4/1 87/4/1
f 91/4/1 88/4/1 90/4/1
f 92/6/1 86/6/1 89/6/1
f 93/6/1 86/6/1 92/6/1
f 98/7/1 95/7/1 94/7/1
f 99/7/1 95/7/1 98/7/1
f 100/4/1 97/4/1 96/4/1
f 101/4/1 97/4/1 100/4/1
f 102/1/1 99/1/1 98/1/1
f 103/1/1 99/1/1 102/1/1
f 104/5/1 101/5/1 100/5/1
f 105/5/1 101/5/1 104/5/1
f 106/4/1 103/4/1 102/4/1
f 107/7/1 105/7/1 104/7/1
f 108/4/1 106/4/1 102/4/1
f 109/4/1 106/4/1 108/4/1
f 110/7/1 105/7/1 107/7/1
f 111/7/1 105/7/1 110/7/1
f 112/5/1 109/5/1 108/5/1
f 113/5/1 109/5/1 112/5/1
f 114/5/1 111/5/1 110/5/1
f 115/5/1 111/5/1 114/5/1
f 116/7/1 113/7/1 112/7/1
f 117/7/1 113/7/1 116/7/1
f 118/4/1 115/4/1 114/4/1
f 119/4/1 115/4/1 118/4/1
f 120/6/1 117/6/1 116/6/1
f 121/6/1 117/6/1 120/6/1
f 122/6/1 119/6/1 118/6/1
f 123/6/1 119/6/1 122/6/1
f 124/5/1 121/5/1 120/5/1
f 125/5/1 121/5/1 124/5/1
f 126/7/1 123/7/1 122/7/1
f 127/7/1 123/7/1 126/7/1
f 132/6/1 129/6/1 128/6/1
f 133/6/1 129/6/1 132/6/1
f 134/7/1 131/7/1 130/7/1
f 135/7/1 133/7/1 132/7/1
f 136/7/1 133/7/1 135/7/1
f 137/7/1 131/7/1 134/7/1
f 138/1/1 136/1/1 135/1/1
f 139/1/1 136/1/1 138/1/1
f 140/7/1 131/7/1 137/7/1
f 141/7/1 131/7/1 140/7/1
f 142/6/1 139/6/1 138/6/1
f 143/6/1 139/6/1 142/6/1
f 144/5/1 141/5/1 140/5/1
f 145/5/1 141/5/1 144/5/1
f 146/4/1 143/4/1 142/4/1
f 147/4/1 143/4/1 146/4/1
f 148/4/1 145/4/1 144/4/1
f 149/4/1 145/4/1 148/4/1
f 150/6/1 147/6/1 146/6/1
f 151/6/1 147/6/1 150/6/1
f 152/5/1 149/5/1 148/5/1
f 153/4/1 151/4/1 150/4/1
f 154/4/1 151/4/1 153/4/1
f 155/5/1 149/5/1 152/5/1
f 156/5/1 149/5/1 155/5/1
f 157/5/1 154/5/1 153/5/1
f 158/5/1 154/5/1 157/5/1
f 159/1/1 156/1/1 155/1/1
f 160/1/1 156/1/1 159/1/1
f 166/3/1 162/3/1 161/3/1
f 167/2/1 163/2/1 162/2/1
f 167/3/1 162/3/1 166/3/1
f 168/3/1 164/3/1 163/3/1
f 168/2/1 163/2/1 167/2/1
f 169/3/1 164/3/1 168/3/1
f 171/3/1 166/3/1 165/3/1
f 172/9/1 167/9/1 166/9/1
f 172/3/1 166/3/1 171/3/1
f 172/9/1 168/9/1 167/9/1
f 172/9/1 169/9/1 168/9/1
f 173/9/1 169/9/1 172/9/1
f 174/9/1 169/9/1 173/9/1
f 175/3/1 170/3/1 169/3/1
f 175/9/1 169/9/1 174/9/1
f 176/3/1 170/3/1 175/3/1
f 177/2/1 172/2/1 171/2/1
f 178/9/1 173/9/1 172/9/1
f 178/2/1 172/2/1 177/2/1
f 179/18/1 174/18/1 173/18/1
f 179/9/1 173/9/1 178/9/1
f 180/9/1 175/9/1 174/9/1
f 180/18/1 174/18/1 179/18/1
f 181/2/1 176/2/1 175/2/1
f 181/9/1 175/9/1 180/9/1
f 182/2/1 176/2/1 181/2/1
f 183/3/1 178/3/1 177/3/1
f 184/9/1 179/9/1 178/9/1
f 184/3/1 178/3/1 183/3/1
f 184/9/1 180/9/1 179/9/1
f 184/9/1 181/9/1 180/9/1
f 185/9/1 181/9/1 184/9/1
f 186/9/1 181/9/1 185/9/1
f 187/3/1 182/3/1 181/3/1
f 187/9/1 181/9/1 186/9/1
f 188/3/1 182/3/1 187/3/1
f 189/3/1 185/3/1 184/3/1
f 190/2/1 186/2/1 185/2/1
f 190/3/1 185/3/1 189/3/1
f 191/3/1 187/3/1 186/3/1
f 191/2/1 186/2/1 190/2/1
f 192/3/1 187/3/1 191/3/1
f 195/15/1 194/15/1 193/15/1
f 196/15/1 194/15/1 195/15/1
f 199/14/1 196/14/1 195/14/1
f 200/14/1 196/14/1 199/14/1
f 201/8/1 198/8/1 197/8/1
f 202/8/1 198/8/1 201/8/1
f 204/16/1 200/16/1 199/16/1
f 205/16/1 200/16/1 204/16/1
f 207/16/1 203/16/1 202/16/1
f 208/16/1 203/16/1 207/16/1
f 209/8/1 205/8/1 204/8/1
f 210/15/1 206/15/1 205/15/1
f 210/8/1 205/8/1 209/8/1
f 211/15/1 206/15/1 210/15/1
f 213/8/1 209/8/1 208/8/1
f 214/14/1 210/14/1 209/14/1
f 214/8/1 209/8/1 213/8/1
f 215/14/1 210/14/1 214/14/1
f 216/16/1 212/16/1 211/16/1
f 217/16/1 212/16/1 216/16/1
f 219/15/1 215/15/1 214/15/1
f 220/15/1 215/15/1 219/15/1
f 221/15/1 218/15/1 217/15/1
f 222/15/1 218/15/1 221/15/1
f 223/16/1 220/16/1 219/16/1
f 224/16/1 220/16/1 223/16/1
f 225/8/1 224/8/1 223/8/1
f 226/8/1 224/8/1 225/8/1
f 229/15/1 228/15/1 227/15/1
f 230/15/1 228/15/1 229/15/1
f 235/6/1 232/6/1 231/6/1
f 236/6/1 232/6/1 235/6/1
f 237/5/1 234/5/1 233/5/1
f 238/5/1 234/5/1 237/5/1
f 239/4/1 236/4/1 235/4/1
f 240/4/1 236/4/1 239/4/1
f 241/7/1 238/7/1 237/7/1
f 242/7/1 238/7/1 241/7/1
f 245/15/1 244/15/1 243/15/1
f 246/15/1 244/15/1 245/15/1
f 251/7/1 248/7/1 247/7/1
f 252/7/1 248/7/1 251/7/1
f 253/1/1 250/1/1 249/1/1
f 254/1/1 250/1/1 253/1/1
f 255/4/1 252/4/1 251/4/1
f 256/4/1 252/4/1 255/4/1
f 257/6/1 254/6/1 253/6/1
f 258/6/1 254/6/1 257/6/1
f 263/7/1 260/7/1 259/7/1
f 264/7/1 260/7/1 263/7/1
f 265/7/1 262/7/1 261/7/1
f 266/7/1 262/7/1 265/7/1
f 267/6/1 264/6/1 263/6/1
f 268/6/1 264/6/1 267/6/1
f 269/6/1 266/6/1 265/6/1
f 270/6/1 266/6/1 269/6/1
f 276/7/1 272/7/1 271/7/1
f 277/5/1 273/5/1 272/5/1
f 277/7/1 272/7/1 276/7/1
f 278/1/1 274/1/1 273/1/1
f 278/5/1 273/5/1 277/5/1
f 279/7/1 275/7/1 274/7/1
f 279/1/1 274/1/1 278/1/1
f 280/7/1 275/7/1 279/7/1
f 281/5/1 277/5/1 276/5/1
f 282/7/1 278/7/1 277/7/1
f 282/5/1 277/5/1 281/5/1
f 283/5/1 279/5/1 278/5/1
f 283/7/1 278/7/1 282/7/1
f 284/4/1 280/4/1 279/4/1
f 284/5/1 279/5/1 283/5/1
f 285/4/1 280/4/1 284/4/1
f 286/1/2 287/1/2 291/1/2
f 287/6/2 288/6/2 292/6/2
f 291/1/2 287/1/2 292/1/2
f 288/5/2 289/5/2 293/5/2
f 292/6/2 288/6/2 293/6/2
f 289/6/2 290/6/2 294/6/2
f 293/5/2 289/5/2 294/5/2
f 294/6/2 290/6/2 295/6/2
f 291/7/2 292/7/2 296/7/2
f 292/1/2 293/1/2 297/1/2
f 296/7/2 292/7/2 297/7/2
f 293/6/2 294/6/2 298/6/2
f 297/1/2 293/1/2 298/1/2
f 294/7/2 295/7/2 299/7/2
f 298/6/2 294/6/2 299/6/2
f 299/7/2 295/7/2 300/7/2
f 301/7/2 302/7/2 305/7/2
f 303/6/2 304/6/2 306/6/2
f 306/6/2 304/6/2 307/6/2
f 305/7/2 302/7/2 308/7/2
f 308/7/2 302/7/2 309/7/2
f 306/1/2 307/1/2 310/1/2
f 310/1/2 307/1/2 311/1/2
f 312/1/2 313/1/2 316/1/2
f 316/1/2 313/1/2 317/1/2
f 314/6/2 315/6/2 318/6/2
f 318/6/2 315/6/2 319/6/2
f 316/7/2 317/7/2 320/7/2
f 320/7/2 317/7/2 321/7/2
f 318/7/2 319/7/2 322/7/2
f 322/7/2 319/7/2 323/7/2
f 324/5/2 325/5/2 328/5/2
f 326/5/2 327/5/2 329/5/2
f 329/5/2 327/5/2 330/5/2
f 328/5/2 325/5/2 331/5/2
f 331/5/2 325/5/2 332/5/2
f 329/4/2 330/4/2 333/4/2
f 333/4/2 330/4/2 334/4/2
f 335/3/2 336/3/2 340/3/2
f 336/2/2 337/2/2 341/2/2
f 340/3/2 336/3/2 341/3/2
f 337/3/2 338/3/2 342/3/2
f 341/2/2 337/2/2 342/2/2
f 342/3/2 338/3/2 343/3/2
f 339/3/2 340/3/2 345/3/2
f 340/9/2 341/9/2 346/9/2
f 345/3/2 340/3/2 346/3/2
f 343/3/2 344/3/2 347/3/2
f 342/9/2 343/9/2 347/9/2
f 347/3/2 344/3/2 348/3/2
f 345/2/2 346/2/2 349/2/2
f 346/9/2 341/9/2 350/9/2
f 349/2/2 346/2/2 350/2/2
f 350/9/2 341/9/2 351/9/2
f 342/9/2 347/9/2 352/9/2
f 347/2/2 348/2/2 353/2/2
f 352/9/2 347/9/2 353/9/2
f 353/2/2 348/2/2 354/2/2
f 349/3/2 350/3/2 355/3/2
f 350/9/2 351/9/2 356/9/2
f 355/3/2 350/3/2 356/3/2
f 351/9/2 352/9/2 356/9/2
f 352/9/2 353/9/2 356/9/2
f 356/9/2 353/9/2 357/9/2
f 357/9/2 353/9/2 358/9/2
f 353/3/2 354/3/2 359/3/2
f 358/9/2 353/9/2 359/9/2
f 359/3/2 354/3/2 360/3/2
f 356/3/2 357/3/2 361/3/2
f 357/2/2 358/2/2 362/2/2
f 361/3/2 357/3/2 362/3/2
f 358/3/2 359/3/2 363/3/2
f 362/2/2 358/2/2 363/2/2
f 363/3/2 359/3/2 364/3/2
f 365/15/2 366/15/2 367/15/2
f 367/15/2 366/15/2 368/15/2
f 369/15/2 370/15/2 371/15/2
f 371/15/2 370/15/2 372/15/2
f 371/14/2 372/14/2 375/14/2
f 375/14/2 372/14/2 376/14/2
f 373/8/2 374/8/2 377/8/2
f 377/8/2 374/8/2 378/8/2
f 375/16/2 376/16/2 380/16/2
f 380/16/2 376/16/2 381/16/2
f 378/16/2 379/16/2 383/16/2
f 383/16/2 379/16/2 384/16/2
f 380/8/2 381/8/2 385/8/2
f 381/15/2 382/15/2 386/15/2
f 385/8/2 381/8/2 386/8/2
f 386/15/2 382/15/2 387/15/2
f 384/8/2 385/8/2 389/8/2
f 385/14/2 386/14/2 390/14/2
f 389/8/2 385/8/2 390/8/2
f 390/14/2 386/14/2 391/14/2
f 387/16/2 388/16/2 392/16/2
f 392/16/2 388/16/2 393/16/2
f 393/15/2 394/15/2 397/15/2
f 397/15/2 394/15/2 398/15/2
f 395/16/2 396/16/2 399/16/2
f 399/16/2 396/16/2 400/16/2
f 399/8/2 400/8/2 401/8/2
f 401/8/2 400/8/2 402/8/2
f 401/14/2 402/14/2 403/14/2
f 403/14/2 402/14/2 404/14/2
f 405/15/2 406/15/2 407/15/2
f 407/15/2 406/15/2 408/15/2
f 409/15/2 410/15/2 411/15/2
f 411/15/2 410/15/2 412/15/2
f 413/7/2 414/7/2 417/7/2
f 417/7/2 414/7/2 418/7/2
f 415/6/2 416/6/2 419/6/2
f 419/6/2 416/6/2 420/6/2
f 417/5/2 418/5/2 421/5/2
f 421/5/2 418/5/2 422/5/2
f 419/5/2 420/5/2 423/5/2
f 421/6/2 422/6/2 424/6/2
f 424/6/2 422/6/2 425/6/2
f 423/5/2 420/5/2 426/5/2
f 426/5/2 420/5/2 427/5/2
f 424/4/2 425/4/2 428/4/2
f 428/4/2 425/4/2 429/4/2
f 426/1/2 427/1/2 430/1/2
f 430/1/2 427/1/2 431/1/2
f 428/1/2 429/1/2 432/1/2
f 432/1/2 429/1/2 433/1/2
f 430/6/2 431/6/2 434/6/2
f 432/4/2 433/4/2 435/4/2
f 435/4/2 433/4/2 436/4/2
f 434/6/2 431/6/2 437/6/2
f 437/6/2 431/6/2 438/6/2
f 435/6/2 436/6/2 439/6/2
f 439/6/2 436/6/2 440/6/2
f 439/5/2 440/5/2 441/5/2
f 441/5/2 440/5/2 442/5/2
f 437/7/2 438/7/2 443/7/2
f 443/7/2 438/7/2 444/7/2
f 445/15/2 446/15/2 447/15/2
f 447/15/2 446/15/2 448/15/2
f 449/5/2 450/5/2 453/5/2
f 453/5/2 450/5/2 454/5/2
f 451/7/2 452/7/2 455/7/2
f 453/4/2 454/4/2 456/4/2
f 456/4/2 454/4/2 457/4/2
f 455/7/2 452/7/2 458/7/2
f 458/7/2 452/7/2 459/7/2
f 456/5/2 457/5/2 460/5/2
f 460/5/2 457/5/2 461/5/2
f 458/1/2 459/1/2 462/1/2
f 462/1/2 459/1/2 463/1/2
f 460/6/2 461/6/2 464/6/2
f 464/6/2 461/6/2 465/6/2
f 462/7/2 463/7/2 466/7/2
f 464/7/2 465/7/2 467/7/2
f 467/7/2 465/7/2 468/7/2
f 466/7/2 463/7/2 469/7/2
f 469/7/2 463/7/2 470/7/2
f 467/5/2 468/5/2 471/5/2
f 471/5/2 468/5/2 472/5/2
f 469/4/2 470/4/2 473/4/2
f 473/4/2 470/4/2 474/4/2
f 471/7/2 472/7/2 475/7/2
f 473/5/2 474/5/2 476/5/2
f 471/7/2 475/7/2 477/7/2
f 477/7/2 475/7/2 478/7/2
f 476/5/2 474/5/2 479/5/2
f 479/5/2 474/5/2 480/5/2
f 481/5/2 482/5/2 485/5/2
f 483/1/2 484/1/2 486/1/2
f 486/1/2 484/1/2 487/1/2
f 481/5/2 485/5/2 488/5/2
f 488/5/2 485/5/2 489/5/2
f 486/6/2 487/6/2 490/6/2
f 490/6/2 487/6/2 491/6/2
f 488/1/2 489/1/2 492/1/2
f 492/1/2 489/1/2 493/1/2
f 490/5/2 491/5/2 494/5/2
f 494/5/2 491/5/2 495/5/2
f 492/7/2 493/7/2 496/7/2
f 496/7/2 493/7/2 497/7/2
f 494/6/2 495/6/2 498/6/2
f 498/6/2 495/6/2 499/6/2
f 496/5/2 497/5/2 500/5/2
f 500/5/2 497/5/2 501/5/2
f 498/1/2 499/1/2 502/1/2
f 502/1/2 499/1/2 503/1/2
f 500/4/2 501/4/2 504/4/2
f 504/4/2 501/4/2 505/4/2
f 502/5/2 503/5/2 506/5/2
f 506/5/2 503/5/2 507/5/2
f 504/7/2 505/7/2 508/7/2
f 508/7/2 505/7/2 509/7/2
f 506/1/2 507/1/2 510/1/2
f 510/1/2 507/1/2 511/1/2
f 508/5/2 509/5/2 512/5/2
f 512/5/2 509/5/2 513/5/2
f 510/6/2 511/6/2 514/6/2
f 514/6/2 511/6/2 515/6/2
f 516/5/2 517/5/2 523/5/2
f 517/7/2 518/7/2 524/7/2
f 523/5/2 517/5/2 524/5/2
f 518/4/2 519/4/2 525/4/2
f 524/7/2 518/7/2 525/7/2
f 519/7/2 520/7/2 526/7/2
f 525/4/2 519/4/2 526/4/2
f 520/6/2 521/6/2 527/6/2
f 526/7/2 520/7/2 527/7/2
f 521/5/2 522/5/2 528/5/2
f 527/6/2 521/6/2 528/6/2
f 528/5/2 522/5/2 529/5/2
f 523/1/2 524/1/2 530/1/2
f 524/5/2 525/5/2 531/5/2
f 530/1/2 524/1/2 531/1/2
f 525/1/2 526/1/2 532/1/2
f 531/5/2 525/5/2 532/5/2
f 526/4/2 527/4/2 533/4/2
f 532/1/2 526/1/2 533/1/2
f 527/1/2 528/1/2 534/1/2
f 533/4/2 527/4/2 534/4/2
f 528/1/2 529/1/2 534/1/2
f 534/1/2 529/1/2 535/1/2
f 531/7/2 532/7/2 536/7/2
f 530/7/2 531/7/2 536/7/2
f 532/7/2 533/7/2 536/7/2
f 533/7/2 534/7/2 536/7/2
f 536/7/2 534/7/2 537/7/2
f 537/7/2 534/7/2 538/7/2
f 534/5/2 535/5/2 539/5/2
f 538/7/2 534/7/2 539/7/2
f 535/1/2 529/1/2 540/1/2
f 539/5/2 535/5/2 540/5/2
f 540/1/2 529/1/2 541/1/2
f 536/6/2 537/6/2 542/6/2
f 537/7/2 538/7/2 543/7/2
f 542/6/2 537/6/2 543/6/2
f 543/7/2 538/7/2 544/7/2
f 538/5/2 539/5/2 545/5/2
f 544/7/2 538/7/2 545/7/2
f 539/7/2 540/7/2 546/7/2
f 545/5/2 539/5/2 546/5/2
f 540/6/2 541/6/2 547/6/2
f 546/7/2 540/7/2 547/7/2
f 542/4/2 543/4/2 548/4/2
f 543/1/2 544/1/2 549/1/2
f 548/4/2 543/4/2 549/4/2
f 544/7/2 545/7/2 550/7/2
f 549/1/2 544/1/2 550/1/2
f 545/7/2 546/7/2 550/7/2
f 550/7/2 546/7/2 551/7/2
f 546/6/2 547/6/2 552/6/2
f 551/7/2 546/7/2 552/7/2
f 547/6/2 541/6/2 553/6/2
f 552/6/2 547/6/2 553/6/2
f 548/6/2 549/6/2 554/6/2
f 549/6/2 550/6/2 554/6/2
f 554/6/2 550/6/2 555/6/2
f 550/4/2 551/4/2 556/4/2
f 555/6/2 550/6/2 556/6/2
f 551/7/2 552/7/2 557/7/2
f 556/4/2 551/4/2 557/4/2
f 552/1/2 553/1/2 558/1/2
f 557/7/2 552/7/2 558/7/2
f 558/1/2 553/1/2 559/1/2
f 559/1/2 553/1/2 560/1/2
f 554/5/2 555/5/2 561/5/2
f 555/7/2 556/7/2 562/7/2
f 561/5/2 555/5/2 562/5/2
f 556/5/2 557/5/2 563/5/2
f 562/7/2 556/7/2 563/7/2
f 557/1/2 558/1/2 564/1/2
f 563/5/2 557/5/2 564/5/2
f 558/7/2 559/7/2 565/7/2
f 564/1/2 558/1/2 565/1/2
f 559/5/2 560/5/2 566/5/2
f 565/7/2 559/7/2 566/7/2
f 566/5/2 560/5/2 567/5/2
f 561/4/2 562/4/2 568/4/2
f 562/5/2 563/5/2 569/5/2
f 568/4/2 562/4/2 569/4/2
f 563/7/2 564/7/2 570/7/2
f 569/5/2 563/5/2 570/5/2
f 564/5/2 565/5/2 571/5/2
f 570/7/2 564/7/2 571/7/2
f 565/4/2 566/4/2 572/4/2
f 571/5/2 565/5/2 572/5/2
f 566/4/2 567/4/2 572/4/2
f 572/4/2 567/4/2 573/4/2
f 583/6/3 575/6/3 574/6/3
f 584/7/3 576/7/3 575/7/3
f 584/6/3 575/6/3 583/6/3
f 585/1/3 577/1/3 576/1/3
f 585/7/3 576/7/3 584/7/3
f 586/6/3 578/6/3 577/6/3
f 586/1/3 577/1/3 585/1/3
f 587/4/3 579/4/3 578/4/3
f 587/6/3 578/6/3 586/6/3
f 588/6/3 580/6/3 579/6/3
f 588/4/3 579/4/3 587/4/3
f 589/4/3 581/4/3 580/4/3
f 589/6/3 580/6/3 588/6/3
f 590/5/3 582/5/3 581/5/3
f 590/4/3 581/4/3 589/4/3
f 591/5/3 582/5/3 590/5/3
f 592/6/3 585/6/3 584/6/3
f 592/7/3 586/7/3 585/7/3
f 593/4/3 587/4/3 586/4/3
f 593/7/3 586/7/3 592/7/3
f 594/1/3 588/1/3 587/1/3
f 594/4/3 587/4/3 593/4/3
f 595/6/3 589/6/3 588/6/3
f 595/1/3 588/1/3 594/1/3
f 596/7/3 590/7/3 589/7/3
f 596/6/3 589/6/3 595/6/3
f 597/6/3 591/6/3 590/6/3
f 597/7/3 590/7/3 596/7/3
f 598/6/3 591/6/3 597/6/3
f 599/1/3 584/1/3 583/1/3
f 600/6/3 592/6/3 584/6/3
f 600/1/3 584/1/3 599/1/3
f 601/4/3 593/4/3 592/4/3
f 601/6/3 592/6/3 600/6/3
f 602/6/3 594/6/3 593/6/3
f 602/4/3 593/4/3 601/4/3
f 602/6/3 595/6/3 594/6/3
f 603/5/3 596/5/3 595/5/3
f 603/6/3 595/6/3 602/6/3
f 604/7/3 597/7/3 596/7/3
f 604/5/3 596/5/3 603/5/3
f 605/4/3 598/4/3 597/4/3
f 605/7/3 597/7/3 604/7/3
f 606/4/3 598/4/3 605/4/3
f 607/4/3 600/4/3 599/4/3
f 608/1/3 601/1/3 600/1/3
f 608/4/3 600/4/3 607/4/3
f 609/4/3 602/4/3 601/4/3
f 609/1/3 601/1/3 608/1/3
f 610/5/3 603/5/3 602/5/3
f 610/4/3 602/4/3 609/4/3
f 611/5/3 603/5/3 610/5/3
f 612/4/3 604/4/3 603/4/3
f 612/5/3 603/5/3 611/5/3
f 613/6/3 605/6/3 604/6/3
f 613/4/3 604/4/3 612/4/3
f 613/6/3 606/6/3 605/6/3
f 614/6/3 606/6/3 613/6/3
f 615/6/3 606/6/3 614/6/3
f 616/6/3 608/6/3 607/6/3
f 616/6/3 609/6/3 608/6/3
f 617/6/3 609/6/3 616/6/3
f 618/5/3 610/5/3 609/5/3
f 618/6/3 609/6/3 617/6/3
f 619/4/3 611/4/3 610/4/3
f 619/5/3 610/5/3 618/5/3
f 620/1/3 612/1/3 611/1/3
f 620/7/3 613/7/3 612/7/3
f 621/6/3 614/6/3 613/6/3
f 621/7/3 613/7/3 620/7/3
f 622/4/3 615/4/3 614/4/3
f 622/6/3 614/6/3 621/6/3
f 623/4/3 615/4/3 622/4/3
f 624/7/3 617/7/3 616/7/3
f 625/5/3 618/5/3 617/5/3
f 625/7/3 617/7/3 624/7/3
f 626/6/3 619/6/3 618/6/3
f 626/5/3 618/5/3 625/5/3
f 627/4/3 611/4/3 619/4/3
f 627/6/3 619/6/3 626/6/3
f 628/1/3 620/1/3 611/1/3
f 628/4/3 611/4/3 627/4/3
f 629/4/3 621/4/3 620/4/3
f 629/1/3 620/1/3 628/1/3
f 630/6/3 622/6/3 621/6/3
f 630/4/3 621/4/3 629/4/3
f 631/5/3 623/5/3 622/5/3
f 631/6/3 622/6/3 630/6/3
f 632/5/3 623/5/3 631/5/3
f 641/7/3 634/7/3 633/7/3
f 642/1/3 635/1/3 634/1/3
f 642/7/3 634/7/3 641/7/3
f 643/4/3 636/4/3 635/4/3
f 643/1/3 635/1/3 642/1/3
f 644/4/3 636/4/3 643/4/3
f 645/5/3 637/5/3 636/5/3
f 645/4/3 636/4/3 644/4/3
f 646/7/3 638/7/3 637/7/3
f 646/5/3 637/5/3 645/5/3
f 647/6/3 639/6/3 638/6/3
f 647/7/3 638/7/3 646/7/3
f 648/5/3 640/5/3 639/5/3
f 648/6/3 639/6/3 647/6/3
f 649/5/3 640/5/3 648/5/3
f 659/5/3 651/5/3 650/5/3
f 660/4/3 652/4/3 651/4/3
f 660/5/3 651/5/3 659/5/3
f 661/5/3 653/5/3 652/5/3
f 661/4/3 652/4/3 660/4/3
f 662/6/3 654/6/3 653/6/3
f 662/5/3 653/5/3 661/5/3
f 663/7/3 655/7/3 654/7/3
f 663/6/3 654/6/3 662/6/3
f 664/5/3 656/5/3 655/5/3
f 664/7/3 655/7/3 663/7/3
f 665/7/3 658/7/3 657/7/3
f 665/5/3 656/5/3 664/5/3
f 665/7/3 657/7/3 656/7/3
f 666/7/3 658/7/3 665/7/3
f 676/1/3 668/1/3 667/1/3
f 677/6/3 669/6/3 668/6/3
f 677/1/3 668/1/3 676/1/3
f 678/4/3 670/4/3 669/4/3
f 678/6/3 669/6/3 677/6/3
f 679/7/3 671/7/3 670/7/3
f 679/4/3 670/4/3 678/4/3
f 680/4/3 672/4/3 671/4/3
f 680/7/3 671/7/3 679/7/3
f 681/1/3 673/1/3 672/1/3
f 681/4/3 672/4/3 680/4/3
f 682/5/3 674/5/3 673/5/3
f 682/1/3 673/1/3 681/1/3
f 683/4/3 675/4/3 674/4/3
f 683/5/3 674/5/3 682/5/3
f 684/4/3 675/4/3 683/4/3
f 687/8/3 686/8/3 685/8/3
f 688/8/3 686/8/3 687/8/3
f 698/5/3 690/5/3 689/5/3
f 698/5/3 691/5/3 690/5/3
f 699/1/3 692/1/3 691/1/3
f 699/5/3 691/5/3 698/5/3
f 700/7/3 693/7/3 692/7/3
f 700/1/3 692/1/3 699/1/3
f 701/5/3 694/5/3 693/5/3
f 701/7/3 693/7/3 700/7/3
f 702/4/3 695/4/3 694/4/3
f 702/5/3 694/5/3 701/5/3
f 703/7/3 696/7/3 695/7/3
f 703/4/3 695/4/3 702/4/3
f 704/5/3 697/5/3 696/5/3
f 704/7/3 696/7/3 703/7/3
f 705/5/3 697/5/3 704/5/3
f 715/1/3 707/1/3 706/1/3
f 716/5/3 708/5/3 707/5/3
f 716/1/3 707/1/3 715/1/3
f 717/4/3 709/4/3 708/4/3
f 717/5/3 708/5/3 716/5/3
f 718/6/3 710/6/3 709/6/3
f 718/4/3 709/4/3 717/4/3
f 719/7/3 711/7/3 710/7/3
f 719/6/3 710/6/3 718/6/3
f 720/1/3 712/1/3 711/1/3
f 720/7/3 711/7/3 719/7/3
f 721/5/3 713/5/3 712/5/3
f 721/1/3 712/1/3 720/1/3
f 722/7/3 714/7/3 713/7/3
f 722/5/3 713/5/3 721/5/3
f 723/7/3 714/7/3 722/7/3
f 728/3/3 725/3/3 724/3/3
f 729/2/3 726/2/3 725/2/3
f 729/3/3 725/3/3 728/3/3
f 730/3/3 727/3/3 726/3/3
f 730/2/3 726/2/3 729/2/3
f 731/3/3 727/3/3 730/3/3
f 734/16/3 733/16/3 732/16/3
f 735/16/3 733/16/3 734/16/3
f 745/5/3 737/5/3 736/5/3
f 746/1/3 738/1/3 737/1/3
f 746/5/3 737/5/3 745/5/3
f 747/7/3 739/7/3 738/7/3
f 747/1/3 738/1/3 746/1/3
f 748/6/3 740/6/3 739/6/3
f 748/7/3 739/7/3 747/7/3
f 749/4/3 741/4/3 740/4/3
f 749/6/3 740/6/3 748/6/3
f 750/6/3 742/6/3 741/6/3
f 750/4/3 741/4/3 749/4/3
f 751/5/3 743/5/3 742/5/3
f 751/6/3 742/6/3 750/6/3
f 752/4/3 744/4/3 743/4/3
f 752/5/3 743/5/3 751/5/3
f 753/4/3 744/4/3 752/4/3
f 758/3/3 755/3/3 754/3/3
f 759/3/3 755/3/3 758/3/3
f 760/3/3 757/3/3 756/3/3
f 761/3/3 757/3/3 760/3/3
f 764/8/3 763/8/3 762/8/3
f 765/8/3 763/8/3 764/8/3
f 776/15/3 767/15/3 766/15/3
f 777/15/3 767/15/3 776/15/3
f 778/15/3 767/15/3 777/15/3
f 779/15/3 769/15/3 768/15/3
f 780/14/3 770/14/3 769/14/3
f 780/15/3 769/15/3 779/15/3
f 781/16/3 771/16/3 770/16/3
f 781/14/3 770/14/3 780/14/3
f 782/8/3 772/8/3 771/8/3
f 782/16/3 771/16/3 781/16/3
f 783/8/3 772/8/3 782/8/3
f 784/15/3 774/15/3 773/15/3
f 785/16/3 775/16/3 774/16/3
f 785/15/3 774/15/3 784/15/3
f 786/8/3 776/8/3 775/8/3
f 786/16/3 775/16/3 785/16/3
f 787/14/3 777/14/3 776/14/3
f 787/8/3 776/8/3 786/8/3
f 788/14/3 777/14/3 787/14/3
f 789/15/3 785/15/3 784/15/3
f 790/15/3 785/15/3 789/15/3
f 792/15/3 791/15/3 790/15/3
f 793/15/3 791/15/3 792/15/3
f 795/15/3 794/15/3 793/15/3
f 796/15/3 794/15/3 795/15/3
f 799/16/3 798/16/3 797/16/3
f 800/16/3 798/16/3 799/16/3
f 804/6/3 802/6/3 801/6/3
f 805/1/3 803/1/3 802/1/3
f 805/6/3 802/6/3 804/6/3
f 806/1/3 803/1/3 805/1/3
f 809/15/3 808/15/3 807/15/3
f 810/15/3 808/15/3 809/15/3
f 814/7/3 812/7/3 811/7/3
f 815/6/3 813/6/3 812/6/3
f 815/7/3 812/7/3 814/7/3
f 816/6/3 813/6/3 815/6/3
f 820/6/3 818/6/3 817/6/3
f 821/7/3 819/7/3 818/7/3
f 821/6/3 818/6/3 820/6/3
f 822/7/3 819/7/3 821/7/3
f 826/1/3 824/1/3 823/1/3
f 827/6/3 825/6/3 824/6/3
f 827/1/3 824/1/3 826/1/3
f 828/6/3 825/6/3 827/6/3
f 832/5/3 830/5/3 829/5/3
f 833/4/3 831/4/3 830/4/3
f 833/5/3 830/5/3 832/5/3
f 834/4/3 831/4/3 833/4/3
f 838/5/3 836/5/3 835/5/3
f 839/7/3 837/7/3 836/7/3
f 839/5/3 836/5/3 838/5/3
f 840/7/3 837/7/3 839/7/3
f 844/7/3 842/7/3 841/7/3
f 845/5/3 843/5/3 842/5/3
f 845/7/3 842/7/3 844/7/3
f 846/5/3 843/5/3 845/5/3
f 847/1/3 845/1/3 844/1/3
f 847/1/3 846/1/3 845/1/3
f 848/1/3 846/1/3 847/1/3
f 849/1/3 846/1/3 848/1/3
f 850/5/3 848/5/3 847/5/3
f 851/6/3 849/6/3 848/6/3
f 851/5/3 848/5/3 850/5/3
f 852/6/3 849/6/3 851/6/3
f 853/5/3 851/5/3 850/5/3
f 854/7/3 852/7/3 851/7/3
f 854/5/3 851/5/3 853/5/3
f 855/7/3 852/7/3 854/7/3
f 856/7/4 857/7/4 859/7/4
f 857/6/4 858/6/4 860/6/4
f 859/7/4 857/7/4 860/7/4
f 860/6/4 858/6/4 861/6/4
f 859/7/4 860/7/4 862/7/4
f 860/4/4 861/4/4 863/4/4
f 862/7/4 860/7/4 863/7/4
f 863/4/4 861/4/4 864/4/4
f 862/6/4 863/6/4 865/6/4
f 863/6/4 864/6/4 865/6/4
f 865/6/4 864/6/4 866/6/4
f 866/6/4 864/6/4 867/6/4
f 865/6/4 866/6/4 868/6/4
f 866/4/4 867/4/4 869/4/4
f 868/6/4 866/6/4 869/6/4
f 869/4/4 867/4/4 870/4/4
f 871/5/4 872/5/4 874/5/4
f 872/5/4 873/5/4 874/5/4
f 874/5/4 873/5/4 875/5/4
f 876/6/4 877/6/4 879/6/4
f 877/4/4 878/4/4 880/4/4
f 879/6/4 877/6/4 880/6/4
f 880/4/4 878/4/4 881/4/4
f 882/1/4 883/1/4 885/1/4
f 883/7/4 884/7/4 886/7/4
f 885/1/4 883/1/4 886/1/4
f 886/7/4 884/7/4 887/7/4
f 888/8/4 889/8/4 890/8/4
f 890/8/4 889/8/4 891/8/4
f 892/7/4 893/7/4 895/7/4
f 893/4/4 894/4/4 896/4/4
f 895/7/4 893/7/4 896/7/4
f 896/4/4 894/4/4 897/4/4
f 898/7/4 899/7/4 901/7/4
f 899/7/4 900/7/4 901/7/4
f 901/7/4 900/7/4 902/7/4
f 903/16/4 904/16/4 905/16/4
f 905/16/4 904/16/4 906/16/4
f 907/7/4 908/7/4 910/7/4
f 908/6/4 909/6/4 911/6/4
f 910/7/4 908/7/4 911/7/4
f 911/6/4 909/6/4 912/6/4
f 913/15/4 914/15/4 923/15/4
f 923/15/4 914/15/4 924/15/4
f 924/15/4 914/15/4 925/15/4
f 915/15/4 916/15/4 926/15/4
f 916/14/4 917/14/4 927/14/4
f 926/15/4 916/15/4 927/15/4
f 917/16/4 918/16/4 928/16/4
f 927/14/4 917/14/4 928/14/4
f 928/16/4 918/16/4 929/16/4
f 919/14/4 920/14/4 930/14/4
f 920/15/4 921/15/4 931/15/4
f 930/14/4 920/14/4 931/14/4
f 921/16/4 922/16/4 932/16/4
f 931/15/4 921/15/4 932/15/4
f 922/8/4 923/8/4 933/8/4
f 932/16/4 922/16/4 933/16/4
f 923/14/4 924/14/4 934/14/4
f 933/8/4 923/8/4 934/8/4
f 934/14/4 924/14/4 935/14/4
f 931/15/4 932/15/4 936/15/4
f 936/15/4 932/15/4 937/15/4
f 937/15/4 938/15/4 939/15/4
f 939/15/4 938/15/4 940/15/4
f 940/15/4 941/15/4 942/15/4
f 942/15/4 941/15/4 943/15/4
f 944/3/4 945/3/4 948/3/4
f 948/3/4 945/3/4 949/3/4
f 946/3/4 947/3/4 950/3/4
f 950/3/4 947/3/4 951/3/4
f 952/15/4 953/15/4 954/15/4
f 954/15/4 953/15/4 955/15/4
f 956/3/4 957/3/4 960/3/4
f 957/2/4 958/2/4 961/2/4
f 960/3/4 957/3/4 961/3/4
f 958/3/4 959/3/4 962/3/4
f 961/2/4 958/2/4 962/2/4
f 962/3/4 959/3/4 963/3/4
f 964/16/4 965/16/4 966/16/4
f 966/16/4 965/16/4 967/16/4
f 968/7/4 969/7/4 977/7/4
f 969/4/4 970/4/4 978/4/4
f 977/7/4 969/7/4 978/7/4
f 970/1/4 971/1/4 979/1/4
f 978/4/4 970/4/4 979/4/4
f 971/4/4 972/4/4 980/4/4
f 979/1/4 971/1/4 980/1/4
f 972/5/4 973/5/4 981/5/4
f 980/4/4 972/4/4 981/4/4
f 973/4/4 974/4/4 982/4/4
f 981/5/4 973/5/4 982/5/4
f 974/1/4 975/1/4 983/1/4
f 982/4/4 974/4/4 983/4/4
f 975/4/4 976/4/4 984/4/4
f 983/1/4 975/1/4 984/1/4
f 984/4/4 976/4/4 985/4/4
f 986/15/4 987/15/4 988/15/4
f 988/15/4 987/15/4 989/15/4
f 990/5/4 991/5/4 999/5/4
f 991/1/4 992/1/4 1000/1/4
f 999/5/4 991/5/4 1000/5/4
f 992/1/4 993/1/4 1000/1/4
f 993/6/4 994/6/4 1001/6/4
f 1000/1/4 993/1/4 1001/1/4
f 994/6/4 995/6/4 1001/6/4
f 995/1/4 996/1/4 1002/1/4
f 1001/6/4 995/6/4 1002/6/4
f 996/5/4 997/5/4 1003/5/4
f 1002/1/4 996/1/4 1003/1/4
f 997/4/4 998/4/4 1004/4/4
f 1003/5/4 997/5/4 1004/5/4
f 1004/4/4 998/4/4 1005/4/4
f 1006/7/4 1007/7/4 1014/7/4
f 1007/1/4 1008/1/4 1015/1/4
f 1014/7/4 1007/7/4 1015/7/4
f 1008/5/4 1009/5/4 1016/5/4
f 1015/1/4 1008/1/4 1016/1/4
f 1009/6/4 1010/6/4 1017/6/4
f 1016/5/4 1009/5/4 1017/5/4
f 1010/4/4 1011/4/4 1018/4/4
f 1017/6/4 1010/6/4 1018/6/4
f 1011/1/4 1012/1/4 1019/1/4
f 1018/4/4 1011/4/4 1019/4/4
f 1012/6/4 1013/6/4 1020/6/4
f 1019/1/4 1012/1/4 1020/1/4
f 1020/6/4 1013/6/4 1021/6/4
f 1021/6/4 1013/6/4 1022/6/4
f 1023/1/4 1024/1/4 1032/1/4
f 1024/6/4 1025/6/4 1033/6/4
f 1032/1/4 1024/1/4 1033/1/4
f 1025/5/4 1026/5/4 1034/5/4
f 1033/6/4 1025/6/4 1034/6/4
f 1026/6/4 1027/6/4 1035/6/4
f 1034/5/4 1026/5/4 1035/5/4
f 1027/1/4 1028/1/4 1036/1/4
f 1035/6/4 1027/6/4 1036/6/4
f 1028/5/4 1029/5/4 1037/5/4
f 1036/1/4 1028/1/4 1037/1/4
f 1029/1/4 1030/1/4 1038/1/4
f 1037/5/4 1029/5/4 1038/5/4
f 1030/6/4 1031/6/4 1039/6/4
f 1038/1/4 1030/1/4 1039/1/4
f 1039/6/4 1031/6/4 1040/6/4
f 1041/4/4 1042/4/4 1049/4/4
f 1042/5/4 1043/5/4 1050/5/4
f 1049/4/4 1042/4/4 1050/4/4
f 1043/7/4 1044/7/4 1051/7/4
f 1050/5/4 1043/5/4 1051/5/4
f 1051/7/4 1044/7/4 1052/7/4
f 1044/5/4 1045/5/4 1053/5/4
f 1052/7/4 1044/7/4 1053/7/4
f 1045/4/4 1046/4/4 1054/4/4
f 1053/5/4 1045/5/4 1054/5/4
f 1046/6/4 1047/6/4 1055/6/4
f 1054/4/4 1046/4/4 1055/4/4
f 1047/7/4 1048/7/4 1056/7/4
f 1055/6/4 1047/6/4 1056/6/4
f 1056/7/4 1048/7/4 1057/7/4
f 1058/7/4 1059/7/4 1066/7/4
f 1059/7/4 1060/7/4 1066/7/4
f 1060/1/4 1061/1/4 1067/1/4
f 1066/7/4 1060/7/4 1067/7/4
f 1061/7/4 1062/7/4 1068/7/4
f 1067/1/4 1061/1/4 1068/1/4
f 1062/7/4 1063/7/4 1068/7/4
f 1063/4/4 1064/4/4 1069/4/4
f 1068/7/4 1063/7/4 1069/7/4
f 1064/5/4 1065/5/4 1070/5/4
f 1069/4/4 1064/4/4 1070/4/4
f 1070/5/4 1065/5/4 1071/5/4
f 1072/7/4 1073/7/4 1078/7/4
f 1078/7/4 1073/7/4 1079/7/4
f 1079/7/4 1073/7/4 1080/7/4
f 1073/5/4 1074/5/4 1081/5/4
f 1080/7/4 1073/7/4 1081/7/4
f 1074/4/4 1075/4/4 1082/4/4
f 1081/5/4 1074/5/4 1082/5/4
f 1075/5/4 1076/5/4 1083/5/4
f 1082/4/4 1075/4/4 1083/4/4
f 1083/5/4 1076/5/4 1084/5/4
f 1076/1/4 1077/1/4 1085/1/4
f 1084/5/4 1076/5/4 1085/5/4
f 1085/1/4 1077/1/4 1086/1/4
f 1079/1/4 1080/1/4 1087/1/4
f 1078/5/4 1079/5/4 1087/5/4
f 1080/4/4 1081/4/4 1088/4/4
f 1087/1/4 1080/1/4 1088/1/4
f 1081/4/4 1082/4/4 1088/4/4
f 1088/4/4 1082/4/4 1089/4/4
f 1083/6/4 1084/6/4 1090/6/4
f 1089/4/4 1082/4/4 1090/4/4
f 1082/6/4 1083/6/4 1090/6/4
f 1084/7/4 1085/7/4 1091/7/4
f 1090/6/4 1084/6/4 1091/6/4
f 1085/5/4 1086/5/4 1092/5/4
f 1091/7/4 1085/7/4 1092/7/4
f 1092/5/4 1086/5/4 1093/5/4
f 1088/7/4 1089/7/4 1094/7/4
f 1087/6/4 1088/6/4 1094/6/4
f 1089/4/4 1090/4/4 1095/4/4
f 1094/7/4 1089/7/4 1095/7/4
f 1090/4/4 1091/4/4 1095/4/4
f 1095/4/4 1091/4/4 1096/4/4
f 1096/4/4 1091/4/4 1097/4/4
f 1091/1/4 1092/1/4 1098/1/4
f 1097/4/4 1091/4/4 1098/4/4
f 1092/1/4 1093/1/4 1098/1/4
f 1098/1/4 1093/1/4 1099/1/4
f 1099/1/4 1093/1/4 1100/1/4
f 1078/5/4 1087/5/4 1101/5/4
f 1087/6/4 1094/6/4 1102/6/4
f 1101/5/4 1087/5/4 1102/5/4
f 1094/6/4 1095/6/4 1102/6/4
f 1102/6/4 1095/6/4 1103/6/4
f 1095/5/4 1096/5/4 1104/5/4
f 1103/6/4 1095/6/4 1104/6/4
f 1096/7/4 1097/7/4 1105/7/4
f 1104/5/4 1096/5/4 1105/5/4
f 1097/5/4 1098/5/4 1106/5/4
f 1105/7/4 1097/7/4 1106/7/4
f 1098/5/4 1099/5/4 1106/5/4
f 1106/5/4 1099/5/4 1107/5/4
f 1099/6/4 1100/6/4 1108/6/4
f 1107/5/4 1099/5/4 1108/5/4
f 1108/6/4 1100/6/4 1109/6/4
f 1101/1/4 1102/1/4 1110/1/4
f 1102/5/4 1103/5/4 1111/5/4
f 1110/1/4 1102/1/4 1111/1/4
f 1103/7/4 1104/7/4 1112/7/4
f 1111/5/4 1103/5/4 1112/5/4
f 1104/6/4 1105/6/4 1113/6/4
f 1112/7/4 1104/7/4 1113/7/4
f 1105/5/4 1106/5/4 1114/5/4
f 1113/6/4 1105/6/4 1114/6/4
f 1106/4/4 1107/4/4 1115/4/4
f 1114/5/4 1106/5/4 1115/5/4
f 1107/5/4 1108/5/4 1116/5/4
f 1115/4/4 1107/4/4 1116/4/4
f 1108/7/4 1109/7/4 1117/7/4
f 1116/5/4 1108/5/4 1117/5/4
f 1110/6/4 1111/6/4 1118/6/4
f 1111/5/4 1112/5/4 1119/5/4
f 1118/6/4 1111/6/4 1119/6/4
f 1112/5/4 1113/5/4 1119/5/4
f 1113/1/4 1114/1/4 1120/1/4
f 1119/5/4 1113/5/4 1120/5/4
f 1114/6/4 1115/6/4 1121/6/4
f 1120/1/4 1114/1/4 1121/1/4
f 1115/6/4 1116/6/4 1121/6/4
f 1116/7/4 1117/7/4 1122/7/4
f 1121/6/4 1116/6/4 1122/6/4
f 1117/7/4 1109/7/4 1123/7/4
f 1122/7/4 1117/7/4 1123/7/4
f 1131/6/5 1125/6/5 1124/6/5
f 1132/1/5 1126/1/5 1125/1/5
f 1132/6/5 1125/6/5 1131/6/5
f 1133/1/5 1126/1/5 1132/1/5
f 1134/4/5 1127/4/5 1126/4/5
f 1134/6/5 1128/6/5 1127/6/5
f 1135/7/5 1129/7/5 1128/7/5
f 1135/6/5 1128/6/5 1134/6/5
f 1136/7/5 1129/7/5 1135/7/5
f 1139/7/5 1131/7/5 1130/7/5
f 1140/1/5 1132/1/5 1131/1/5
f 1140/7/5 1131/7/5 1139/7/5
f 1141/4/5 1133/4/5 1132/4/5
f 1141/1/5 1132/1/5 1140/1/5
f 1142/1/5 1126/1/5 1133/1/5
f 1142/4/5 1133/4/5 1141/4/5
f 1143/4/5 1134/4/5 1126/4/5
f 1143/1/5 1126/1/5 1142/1/5
f 1144/5/5 1135/5/5 1134/5/5
f 1144/4/5 1134/4/5 1143/4/5
f 1145/1/5 1136/1/5 1135/1/5
f 1145/5/5 1135/5/5 1144/5/5
f 1146/5/5 1137/5/5 1136/5/5
f 1146/1/5 1136/1/5 1145/1/5
f 1147/5/5 1137/5/5 1146/5/5
f 1150/1/5 1139/1/5 1138/1/5
f 1151/6/5 1140/6/5 1139/6/5
f 1151/1/5 1139/1/5 1150/1/5
f 1152/1/5 1142/1/5 1141/1/5
f 1152/6/5 1140/6/5 1151/6/5
f 1152/1/5 1141/1/5 1140/1/5
f 1153/1/5 1142/1/5 1152/1/5
f 1154/4/5 1143/4/5 1142/4/5
f 1154/1/5 1142/1/5 1153/1/5
f 1155/7/5 1144/7/5 1143/7/5
f 1155/4/5 1143/4/5 1154/4/5
f 1156/4/5 1145/4/5 1144/4/5
f 1156/7/5 1144/7/5 1155/7/5
f 1157/1/5 1146/1/5 1145/1/5
f 1157/4/5 1145/4/5 1156/4/5
f 1158/7/5 1147/7/5 1146/7/5
f 1158/1/5 1146/1/5 1157/1/5
f 1159/5/5 1148/5/5 1147/5/5
f 1161/1/5 1150/1/5 1149/1/5
f 1162/4/5 1151/4/5 1150/4/5
f 1162/1/5 1150/1/5 1161/1/5
f 1163/5/5 1152/5/5 1151/5/5
f 1163/4/5 1151/4/5 1162/4/5
f 1164/1/5 1153/1/5 1152/1/5
f 1164/5/5 1152/5/5 1163/5/5
f 1165/7/5 1154/7/5 1153/7/5
f 1165/1/5 1153/1/5 1164/1/5
f 1166/6/5 1155/6/5 1154/6/5
f 1166/7/5 1154/7/5 1165/7/5
f 1166/6/5 1156/6/5 1155/6/5
f 1167/6/5 1156/6/5 1166/6/5
f 1168/5/5 1157/5/5 1156/5/5
f 1168/6/5 1156/6/5 1167/6/5
f 1169/6/5 1158/6/5 1157/6/5
f 1169/5/5 1157/5/5 1168/5/5
f 1170/7/5 1147/7/5 1158/7/5
f 1170/6/5 1158/6/5 1169/6/5
f 1171/5/5 1160/5/5 1159/5/5
f 1171/7/5 1147/7/5 1170/7/5
f 1171/5/5 1159/5/5 1147/5/5
f 1172/5/5 1160/5/5 1171/5/5
f 1173/5/5 1160/5/5 1172/5/5
f 1174/5/5 1162/5/5 1161/5/5
f 1175/6/5 1163/6/5 1162/6/5
f 1175/5/5 1162/5/5 1174/5/5
f 1176/5/5 1165/5/5 1164/5/5
f 1176/6/5 1163/6/5 1175/6/5
f 1176/5/5 1164/5/5 1163/5/5
f 1177/5/5 1165/5/5 1176/5/5
f 1178/7/5 1166/7/5 1165/7/5
f 1178/5/5 1165/5/5 1177/5/5
f 1179/4/5 1167/4/5 1166/4/5
f 1179/7/5 1166/7/5 1178/7/5
f 1180/5/5 1168/5/5 1167/5/5
f 1180/4/5 1167/4/5 1179/4/5
f 1181/7/5 1169/7/5 1168/7/5
f 1181/5/5 1168/5/5 1180/5/5
f 1182/4/5 1170/4/5 1169/4/5
f 1182/7/5 1169/7/5 1181/7/5
f 1182/4/5 1171/4/5 1170/4/5
f 1183/5/5 1172/5/5 1171/5/5
f 1183/4/5 1171/4/5 1182/4/5
f 1184/7/5 1173/7/5 1172/7/5
f 1184/5/5 1172/5/5 1183/5/5
f 1185/7/5 1173/7/5 1184/7/5
f 1186/1/5 1175/1/5 1174/1/5
f 1187/7/5 1176/7/5 1175/7/5
f 1187/1/5 1175/1/5 1186/1/5
f 1188/6/5 1177/6/5 1176/6/5
f 1188/7/5 1176/7/5 1187/7/5
f 1189/7/5 1178/7/5 1177/7/5
f 1189/1/5 1179/1/5 1178/1/5
f 1190/6/5 1180/6/5 1179/6/5
f 1190/1/5 1179/1/5 1189/1/5
f 1191/7/5 1181/7/5 1180/7/5
f 1191/6/5 1180/6/5 1190/6/5
f 1192/1/5 1182/1/5 1181/1/5
f 1192/7/5 1181/7/5 1191/7/5
f 1193/4/5 1183/4/5 1182/4/5
f 1193/1/5 1182/1/5 1192/1/5
f 1194/4/5 1183/4/5 1193/4/5
f 1195/6/5 1184/6/5 1183/6/5
f 1195/4/5 1183/4/5 1194/4/5
f 1196/4/5 1185/4/5 1184/4/5
f 1196/6/5 1184/6/5 1195/6/5
f 1197/4/5 1185/4/5 1196/4/5
f 1198/7/5 1187/7/5 1186/7/5
f 1198/4/5 1188/4/5 1187/4/5
f 1199/6/5 1177/6/5 1188/6/5
f 1199/4/5 1188/4/5 1198/4/5
f 1200/7/5 1189/7/5 1177/7/5
f 1200/6/5 1177/6/5 1199/6/5
f 1201/5/5 1190/5/5 1189/5/5
f 1201/7/5 1189/7/5 1200/7/5
f 1202/7/5 1191/7/5 1190/7/5
f 1202/5/5 1190/5/5 1201/5/5
f 1203/1/5 1192/1/5 1191/1/5
f 1203/7/5 1191/7/5 1202/7/5
f 1203/1/5 1193/1/5 1192/1/5
f 1204/1/5 1193/1/5 1203/1/5
f 1205/5/5 1194/5/5 1193/5/5
f 1205/1/5 1193/1/5 1204/1/5
f 1206/4/5 1195/4/5 1194/4/5
f 1206/5/5 1194/5/5 1205/5/5
f 1207/1/5 1196/1/5 1195/1/5
f 1207/4/5 1195/4/5 1206/4/5
f 1208/7/5 1197/7/5 1196/7/5
f 1208/1/5 1196/1/5 1207/1/5
f 1209/7/5 1197/7/5 1208/7/5
f 1210/5/5 1200/5/5 1199/5/5
f 1210/5/5 1199/5/5 1198/5/5
f 1210/7/5 1198/7/5 1186/7/5
f 1211/6/5 1201/6/5 1200/6/5
f 1211/5/5 1200/5/5 1210/5/5
f 1212/7/5 1202/7/5 1201/7/5
f 1212/6/5 1201/6/5 1211/6/5
f 1213/6/5 1203/6/5 1202/6/5
f 1213/7/5 1202/7/5 1212/7/5
f 1214/4/5 1204/4/5 1203/4/5
f 1214/6/5 1203/6/5 1213/6/5
f 1215/1/5 1205/1/5 1204/1/5
f 1215/4/5 1204/4/5 1214/4/5
f 1216/6/5 1206/6/5 1205/6/5
f 1216/1/5 1205/1/5 1215/1/5
f 1217/1/5 1207/1/5 1206/1/5
f 1217/6/5 1206/6/5 1216/6/5
f 1218/5/5 1208/5/5 1207/5/5
f 1218/1/5 1207/1/5 1217/1/5
f 1219/6/5 1209/6/5 1208/6/5
f 1219/5/5 1208/5/5 1218/5/5
f 1220/6/5 1209/6/5 1219/6/5
f 1221/7/5 1210/7/5 1186/7/5
f 1222/4/5 1211/4/5 1210/4/5
f 1222/7/5 1210/7/5 1221/7/5
f 1223/4/5 1211/4/5 1222/4/5
f 1224/6/5 1213/6/5 1212/6/5
f 1224/4/5 1211/4/5 1223/4/5
f 1224/6/5 1212/6/5 1211/6/5
f 1225/6/5 1213/6/5 1224/6/5
f 1226/4/5 1214/4/5 1213/4/5
f 1226/6/5 1213/6/5 1225/6/5
f 1227/7/5 1215/7/5 1214/7/5
f 1227/4/5 1214/4/5 1226/4/5
f 1228/4/5 1216/4/5 1215/4/5
f 1228/7/5 1215/7/5 1227/7/5
f 1229/6/5 1217/6/5 1216/6/5
f 1229/4/5 1216/4/5 1228/4/5
f 1230/4/5 1218/4/5 1217/4/5
f 1230/6/5 1217/6/5 1229/6/5
f 1231/5/5 1219/5/5 1218/5/5
f 1231/4/5 1218/4/5 1230/4/5
f 1231/5/5 1220/5/5 1219/5/5
f 1232/5/5 1220/5/5 1231/5/5
f 1233/5/5 1220/5/5 1232/5/5
f 1234/7/5 1223/7/5 1222/7/5
f 1235/5/5 1224/5/5 1223/5/5
f 1235/7/5 1223/7/5 1234/7/5
f 1236/4/5 1225/4/5 1224/4/5
f 1236/5/5 1224/5/5 1235/5/5
f 1237/1/5 1226/1/5 1225/1/5
f 1237/4/5 1225/4/5 1236/4/5
f 1238/5/5 1227/5/5 1226/5/5
f 1238/1/5 1226/1/5 1237/1/5
f 1239/4/5 1229/4/5 1228/4/5
f 1239/5/5 1227/5/5 1238/5/5
f 1239/4/5 1228/4/5 1227/4/5
f 1240/4/5 1229/4/5 1239/4/5
f 1241/5/5 1231/5/5 1230/5/5
f 1241/4/5 1229/4/5 1240/4/5
f 1241/5/5 1230/5/5 1229/5/5
f 1242/5/5 1231/5/5 1241/5/5
f 1243/1/5 1232/1/5 1231/1/5
f 1243/5/5 1231/5/5 1242/5/5
f 1244/1/5 1232/1/5 1243/1/5
f 1245/4/5 1236/4/5 1235/4/5
f 1246/6/5 1237/6/5 1236/6/5
f 1246/4/5 1236/4/5 1245/4/5
f 1247/4/5 1238/4/5 1237/4/5
f 1247/6/5 1237/6/5 1246/6/5
f 1248/6/5 1240/6/5 1239/6/5
f 1248/4/5 1238/4/5 1247/4/5
f 1248/6/5 1239/6/5 1238/6/5
f 1249/7/5 1241/7/5 1240/7/5
f 1249/6/5 1240/6/5 1248/6/5
f 1250/5/5 1242/5/5 1241/5/5
f 1250/7/5 1241/7/5 1249/7/5
f 1251/7/5 1243/7/5 1242/7/5
f 1251/5/5 1242/5/5 1250/5/5
f 1252/7/5 1243/7/5 1251/7/5
f 1253/7/5 1247/7/5 1246/7/5
f 1254/5/5 1249/5/5 1248/5/5
f 1254/7/5 1247/7/5 1253/7/5
f 1254/5/5 1248/5/5 1247/5/5
f 1255/1/5 1250/1/5 1249/1/5
f 1255/5/5 1249/5/5 1254/5/5
f 1256/6/5 1251/6/5 1250/6/5
f 1256/1/5 1250/1/5 1255/1/5
f 1257/6/5 1251/6/5 1256/6/5
f 1260/8/5 1259/8/5 1258/8/5
f 1261/8/5 1259/8/5 1260/8/5
f 1264/16/5 1263/16/5 1262/16/5
f 1265/16/5 1263/16/5 1264/16/5
f 1268/15/5 1267/15/5 1266/15/5
f 1269/15/5 1267/15/5 1268/15/5
f 1272/8/5 1271/8/5 1270/8/5
f 1273/8/5 1271/8/5 1272/8/5
f 1276/16/5 1275/16/5 1274/16/5
f 1277/16/5 1275/16/5 1276/16/5
f 1280/15/5 1279/15/5 1278/15/5
f 1281/15/5 1279/15/5 1280/15/5
f 1284/15/5 1283/15/5 1282/15/5
f 1285/15/5 1283/15/5 1284/15/5
f 1288/15/5 1287/15/5 1286/15/5
f 1289/15/5 1287/15/5 1288/15/5
f 1292/3/5 1291/3/5 1290/3/5
f 1293/3/5 1291/3/5 1292/3/5
f 1296/2/5 1293/2/5 1292/2/5
f 1297/2/5 1293/2/5 1296/2/5
f 1298/15/5 1295/15/5 1294/15/5
f 1299/15/5 1295/15/5 1298/15/5
f 1300/3/5 1297/3/5 1296/3/5
f 1301/3/5 1297/3/5 1300/3/5
f 1304/3/5 1303/3/5 1302/3/5
f 1305/3/5 1303/3/5 1304/3/5
f 1308/15/5 1307/15/5 1306/15/5
f 1309/15/5 1307/15/5 1308/15/5
f 1312/3/5 1311/3/5 1310/3/5
f 1313/3/5 1311/3/5 1312/3/5
f 1314/11/6 1315/11/6 1320/11/6
f 1315/10/6 1316/10/6 1321/10/6
f 1320/11/6 1315/11/6 1321/11/6
f 1316/11/6 1317/11/6 1322/11/6
f 1321/10/6 1316/10/6 1322/10/6
f 1317/12/6 1318/12/6 1323/12/6
f 1322/11/6 1317/11/6 1323/11/6
f 1323/12/6 1318/12/6 1324/12/6
f 1319/10/6 1320/10/6 1327/10/6
f 1320/10/6 1321/10/6 1327/10/6
f 1327/10/6 1321/10/6 1328/10/6
f 1321/11/6 1322/11/6 1329/11/6
f 1328/10/6 1321/10/6 1329/10/6
f 1322/11/6 1323/11/6 1329/11/6
f 1323/10/6 1324/10/6 1330/10/6
f 1329/11/6 1323/11/6 1330/11/6
f 1324/13/6 1325/13/6 1331/13/6
f 1330/10/6 1324/10/6 1331/10/6
f 1331/13/6 1325/13/6 1332/13/6
f 1326/12/6 1327/12/6 1335/12/6
f 1327/17/6 1328/17/6 1336/17/6
f 1335/12/6 1327/12/6 1336/12/6
f 1328/13/6 1329/13/6 1337/13/6
f 1336/17/6 1328/17/6 1337/17/6
f 1329/12/6 1330/12/6 1338/12/6
f 1337/13/6 1329/13/6 1338/13/6
f 1330/11/6 1331/11/6 1339/11/6
f 1338/12/6 1330/12/6 1339/12/6
f 1332/10/6 1333/10/6 1340/10/6
f 1339/11/6 1331/11/6 1340/11/6
f 1331/10/6 1332/10/6 1340/10/6
f 1340/10/6 1333/10/6 1341/10/6
f 1341/10/6 1333/10/6 1342/10/6
f 1334/11/6 1335/11/6 1344/11/6
f 1336/13/6 1337/13/6 1345/13/6
f 1344/11/6 1335/11/6 1345/11/6
f 1335/13/6 1336/13/6 1345/13/6
f 1345/13/6 1337/13/6 1346/13/6
f 1338/12/6 1339/12/6 1347/12/6
f 1346/13/6 1337/13/6 1347/13/6
f 1337/12/6 1338/12/6 1347/12/6
f 1347/12/6 1339/12/6 1348/12/6
f 1348/12/6 1339/12/6 1349/12/6
f 1339/17/6 1340/17/6 1350/17/6
f 1349/12/6 1339/12/6 1350/12/6
f 1340/13/6 1341/13/6 1351/13/6
f 1350/17/6 1340/17/6 1351/17/6
f 1341/12/6 1342/12/6 1352/12/6
f 1351/13/6 1341/13/6 1352/13/6
f 1342/10/6 1343/10/6 1353/10/6
f 1352/12/6 1342/12/6 1353/12/6
f 1353/10/6 1343/10/6 1354/10/6
f 1344/10/6 1345/10/6 1355/10/6
f 1345/11/6 1346/11/6 1356/11/6
f 1346/10/6 1347/10/6 1356/10/6
f 1347/10/6 1348/10/6 1356/10/6
f 1356/10/6 1348/10/6 1357/10/6
f 1357/10/6 1348/10/6 1358/10/6
f 1349/11/6 1350/11/6 1359/11/6
f 1350/12/6 1351/12/6 1360/12/6
f 1359/11/6 1350/11/6 1360/11/6
f 1351/11/6 1352/11/6 1361/11/6
f 1360/12/6 1351/12/6 1361/12/6
f 1352/13/6 1353/13/6 1362/13/6
f 1361/11/6 1352/11/6 1362/11/6
f 1353/11/6 1354/11/6 1363/11/6
f 1362/13/6 1353/13/6 1363/13/6
f 1363/11/6 1354/11/6 1364/11/6
f 1355/10/6 1345/10/6 1365/10/6
f 1345/11/6 1356/11/6 1366/11/6
f 1365/10/6 1345/10/6 1366/10/6
f 1356/13/6 1357/13/6 1367/13/6
f 1366/11/6 1356/11/6 1367/11/6
f 1357/11/6 1358/11/6 1368/11/6
f 1367/13/6 1357/13/6 1368/13/6
f 1358/12/6 1359/12/6 1369/12/6
f 1368/11/6 1358/11/6 1369/11/6
f 1359/11/6 1360/11/6 1370/11/6
f 1360/10/6 1361/10/6 1370/10/6
f 1361/12/6 1362/12/6 1371/12/6
f 1370/10/6 1361/10/6 1371/10/6
f 1362/13/6 1363/13/6 1372/13/6
f 1371/12/6 1362/12/6 1372/12/6
f 1363/12/6 1364/12/6 1373/12/6
f 1372/13/6 1363/13/6 1373/13/6
f 1373/12/6 1364/12/6 1374/12/6
f 1365/10/6 1366/10/6 1375/10/6
f 1366/13/6 1367/13/6 1376/13/6
f 1375/10/6 1366/10/6 1376/10/6
f 1367/10/6 1368/10/6 1377/10/6
f 1376/13/6 1367/13/6 1377/13/6
f 1368/12/6 1369/12/6 1378/12/6
f 1377/10/6 1368/10/6 1378/10/6
f 1369/12/6 1359/12/6 1379/12/6
f 1378/12/6 1369/12/6 1379/12/6
f 1359/11/6 1370/11/6 1380/11/6
f 1379/12/6 1359/12/6 1380/12/6
f 1370/11/6 1371/11/6 1380/11/6
f 1380/11/6 1371/11/6 1381/11/6
f 1371/12/6 1372/12/6 1382/12/6
f 1381/11/6 1371/11/6 1382/11/6
f 1372/17/6 1373/17/6 1383/17/6
f 1382/12/6 1372/12/6 1383/12/6
f 1373/13/6 1374/13/6 1384/13/6
f 1383/17/6 1373/17/6 1384/17/6
f 1384/13/6 1374/13/6 1385/13/6
f 1376/10/6 1377/10/6 1386/10/6
f 1377/13/6 1378/13/6 1387/13/6
f 1386/10/6 1377/10/6 1387/10/6
f 1378/13/6 1379/13/6 1387/13/6
f 1379/17/6 1380/17/6 1388/17/6
f 1387/13/6 1379/13/6 1388/13/6
f 1380/12/6 1381/12/6 1389/12/6
f 1388/17/6 1380/17/6 1389/17/6
f 1381/11/6 1382/11/6 1390/11/6
f 1389/12/6 1381/12/6 1390/12/6
f 1382/13/6 1383/13/6 1391/13/6
f 1390/11/6 1382/11/6 1391/11/6
f 1383/10/6 1384/10/6 1392/10/6
f 1391/13/6 1383/13/6 1392/13/6
f 1392/10/6 1384/10/6 1393/10/6
f 1387/13/6 1388/13/6 1394/13/6
f 1394/13/6 1388/13/6 1395/13/6
f 1388/11/6 1389/11/6 1396/11/6
f 1395/13/6 1388/13/6 1396/13/6
f 1390/10/6 1391/10/6 1397/10/6
f 1389/10/6 1390/10/6 1397/10/6
f 1391/13/6 1392/13/6 1398/13/6
f 1397/10/6 1391/10/6 1398/10/6
f 1398/13/6 1392/13/6 1399/13/6
f 1395/10/6 1396/10/6 1400/10/6
f 1396/11/6 1389/11/6 1401/11/6
f 1400/10/6 1396/10/6 1401/10/6
f 1389/10/6 1397/10/6 1402/10/6
f 1401/11/6 1389/11/6 1402/11/6
f 1397/11/6 1398/11/6 1403/11/6
f 1402/10/6 1397/10/6 1403/10/6
f 1403/11/6 1398/11/6 1404/11/6
f 1405/5/6 1406/5/6 1413/5/6
f 1406/6/6 1407/6/6 1414/6/6
f 1413/5/6 1406/5/6 1414/5/6
f 1407/4/6 1408/4/6 1415/4/6
f 1414/6/6 1407/6/6 1415/6/6
f 1408/6/6 1409/6/6 1416/6/6
f 1415/4/6 1408/4/6 1416/4/6
f 1409/4/6 1410/4/6 1417/4/6
f 1416/6/6 1409/6/6 1417/6/6
f 1410/5/6 1411/5/6 1418/5/6
f 1417/4/6 1410/4/6 1418/4/6
f 1418/5/6 1411/5/6 1419/5/6
f 1412/5/6 1413/5/6 1422/5/6
f 1413/5/6 1414/5/6 1422/5/6
f 1422/5/6 1414/5/6 1423/5/6
f 1423/5/6 1414/5/6 1424/5/6
f 1418/4/6 1419/4/6 1425/4/6
f 1419/7/6 1420/7/6 1426/7/6
f 1425/4/6 1419/4/6 1426/4/6
f 1426/7/6 1420/7/6 1427/7/6
f 1421/4/6 1422/4/6 1430/4/6
f 1422/7/6 1423/7/6 1431/7/6
f 1430/4/6 1422/4/6 1431/4/6
f 1431/7/6 1423/7/6 1432/7/6
f 1426/4/6 1427/4/6 1433/4/6
f 1427/5/6 1428/5/6 1434/5/6
f 1433/4/6 1427/4/6 1434/4/6
f 1434/5/6 1428/5/6 1435/5/6
f 1429/7/6 1430/7/6 1437/7/6
f 1430/7/6 1431/7/6 1437/7/6
f 1437/7/6 1431/7/6 1438/7/6
f 1434/6/6 1435/6/6 1439/6/6
f 1435/4/6 1436/4/6 1440/4/6
f 1439/6/6 1435/6/6 1440/6/6
f 1440/4/6 1436/4/6 1441/4/6
f 1429/7/6 1437/7/6 1442/7/6
f 1442/7/6 1437/7/6 1443/7/6
f 1440/5/6 1441/5/6 1444/5/6
f 1444/5/6 1441/5/6 1445/5/6
f 1442/1/6 1443/1/6 1446/1/6
f 1446/1/6 1443/1/6 1447/1/6
f 1444/7/6 1445/7/6 1448/7/6
f 1448/7/6 1445/7/6 1449/7/6
f 1446/6/6 1447/6/6 1450/6/6
f 1450/6/6 1447/6/6 1451/6/6
f 1448/5/6 1449/5/6 1452/5/6
f 1452/5/6 1449/5/6 1453/5/6
f 1450/7/6 1451/7/6 1454/7/6
f 1454/7/6 1451/7/6 1455/7/6
f 1452/4/6 1453/4/6 1458/4/6
f 1454/4/6 1455/4/6 1459/4/6
f 1455/1/6 1456/1/6 1460/1/6
f 1459/4/6 1455/4/6 1460/4/6
f 1460/1/6 1456/1/6 1461/1/6
f 1457/6/6 1458/6/6 1464/6/6
f 1458/4/6 1453/4/6 1465/4/6
f 1464/6/6 1458/6/6 1465/6/6
f 1465/4/6 1453/4/6 1466/4/6
f 1460/6/6 1461/6/6 1467/6/6
f 1461/7/6 1462/7/6 1468/7/6
f 1467/6/6 1461/6/6 1468/6/6
f 1468/7/6 1462/7/6 1469/7/6
f 1463/6/6 1464/6/6 1472/6/6
f 1464/6/6 1465/6/6 1472/6/6
f 1472/6/6 1465/6/6 1473/6/6
f 1473/6/6 1465/6/6 1474/6/6
f 1468/7/6 1469/7/6 1475/7/6
f 1469/4/6 1470/4/6 1476/4/6
f 1475/7/6 1469/7/6 1476/7/6
f 1476/4/6 1470/4/6 1477/4/6
f 1471/7/6 1472/7/6 1481/7/6
f 1472/5/6 1473/5/6 1482/5/6
f 1481/7/6 1472/7/6 1482/7/6
f 1482/5/6 1473/5/6 1483/5/6
f 1476/1/6 1477/1/6 1484/1/6
f 1477/5/6 1478/5/6 1485/5/6
f 1484/1/6 1477/1/6 1485/1/6
f 1478/1/6 1479/1/6 1486/1/6
f 1485/5/6 1478/5/6 1486/5/6
f 1479/6/6 1480/6/6 1487/6/6
f 1486/1/6 1479/1/6 1487/1/6
f 1480/7/6 1481/7/6 1488/7/6
f 1487/6/6 1480/6/6 1488/6/6
f 1481/7/6 1482/7/6 1488/7/6
f 1488/7/6 1482/7/6 1489/7/6
f 1490/8/6 1491/8/6 1492/8/6
f 1492/8/6 1491/8/6 1493/8/6
f 1494/16/6 1495/16/6 1496/16/6
f 1496/16/6 1495/16/6 1497/16/6
f 1498/15/6 1499/15/6 1500/15/6
f 1500/15/6 1499/15/6 1501/15/6
f 1502/8/6 1503/8/6 1504/8/6
f 1504/8/6 1503/8/6 1505/8/6
f 1506/16/6 1507/16/6 1508/16/6
f 1508/16/6 1507/16/6 1509/16/6
f 1510/15/6 1511/15/6 1512/15/6
f 1512/15/6 1511/15/6 1513/15/6
f 1514/15/6 1515/15/6 1516/15/6
f 1516/15/6 1515/15/6 1517/15/6
f 1518/15/6 1519/15/6 1520/15/6
f 1520/15/6 1519/15/6 1521/15/6
f 1522/15/6 1523/15/6 1524/15/6
f 1524/15/6 1523/15/6 1525/15/6
f 1526/14/6 1527/14/6 1528/14/6
f 1528/14/6 1527/14/6 1529/14/6
f 1530/15/6 1531/15/6 1532/15/6
f 1532/15/6 1531/15/6 1533/15/6
f 1534/3/6 1535/3/6 1536/3/6
f 1536/3/6 1535/3/6 1537/3/6
f 1538/3/6 1539/3/6 1540/3/6
f 1540/3/6 1539/3/6 1541/3/6
f 1542/3/6 1543/3/6 1544/3/6
f 1544/3/6 1543/3/6 1545/3/6
f 1544/2/6 1545/2/6 1546/2/6
f 1546/2/6 1545/2/6 1547/2/6
f 1546/3/6 1547/3/6 1548/3/6
f 1548/3/6 1547/3/6 1549/3/6
