# MagicaVoxel @ Ephtracy

# group
o 

# material
mtllib spaceship_inside-3.mtl
usemtl palette

# normals
vn -1 0 0
vn 1 0 0
vn 0 0 1
vn 0 0 -1
vn 0 -1 0
vn 0 1 0

# texcoords
vt 0.505859 0.5
vt 0.716797 0.5
vt 0.841797 0.5
vt 0.943359 0.5
vt 0.962891 0.5

# verts
v -0.15 -0.95 1.85
v -0.15 -0.95 -1.85
v -0.15 0.85 1.85
v -0.15 0.85 -1.85
v -0.05 -0.95 1.95
v -0.05 -0.95 1.85
v -0.05 -0.95 -1.85
v -0.05 -0.95 -1.95
v -0.05 0.85 1.85
v -0.05 0.85 -1.85
v -0.05 0.95 1.95
v -0.05 0.95 -1.95
v 0.05 -0.65 1.75
v 0.05 -0.65 1.65
v 0.05 -0.55 1.75
v 0.05 -0.55 1.65
v 0.05 0.15 1.75
v 0.05 0.15 1.65
v 0.05 0.25 1.75
v 0.05 0.25 1.65
v -0.05 -0.65 1.75
v -0.05 -0.65 1.65
v -0.05 -0.55 1.75
v -0.05 -0.55 1.65
v -0.05 0.15 1.75
v -0.05 0.15 1.65
v -0.05 0.25 1.75
v -0.05 0.25 1.65
v 0.05 -0.95 1.95
v 0.05 -0.95 -1.95
v 0.05 -0.85 1.85
v 0.05 -0.85 -1.85
v 0.05 -0.65 1.75
v 0.05 -0.65 1.65
v 0.05 -0.65 1.55
v 0.05 -0.65 1.45
v 0.05 -0.65 1.35
v 0.05 -0.65 1.25
v 0.05 -0.65 1.15
v 0.05 -0.65 1.05
v 0.05 -0.65 0.95
v 0.05 -0.65 0.85
v 0.05 -0.65 0.75
v 0.05 -0.65 0.65
v 0.05 -0.65 0.55
v 0.05 -0.65 0.45
v 0.05 -0.65 0.35
v 0.05 -0.65 0.25
v 0.05 -0.65 0.15
v 0.05 -0.65 0.05
v 0.05 -0.65 -0.0500002
v 0.05 -0.65 -0.15
v 0.05 -0.65 -0.25
v 0.05 -0.65 -0.35
v 0.05 -0.65 -0.45
v 0.05 -0.65 -0.55
v 0.05 -0.65 -0.65
v 0.05 -0.65 -0.75
v 0.05 -0.65 -0.85
v 0.05 -0.65 -0.95
v 0.05 -0.65 -1.05
v 0.05 -0.65 -1.15
v 0.05 -0.65 -1.25
v 0.05 -0.65 -1.35
v 0.05 -0.65 -1.45
v 0.05 -0.65 -1.55
v 0.05 -0.65 -1.65
v 0.05 -0.65 -1.75
v 0.05 -0.55 1.75
v 0.05 -0.55 1.65
v 0.05 -0.55 1.55
v 0.05 -0.55 1.45
v 0.05 -0.55 1.35
v 0.05 -0.55 1.25
v 0.05 -0.55 1.15
v 0.05 -0.55 1.05
v 0.05 -0.55 0.95
v 0.05 -0.55 0.85
v 0.05 -0.55 0.75
v 0.05 -0.55 0.65
v 0.05 -0.55 0.55
v 0.05 -0.55 0.45
v 0.05 -0.55 0.35
v 0.05 -0.55 0.25
v 0.05 -0.55 0.15
v 0.05 -0.55 0.05
v 0.05 -0.55 -0.0500002
v 0.05 -0.55 -0.15
v 0.05 -0.55 -0.25
v 0.05 -0.55 -0.35
v 0.05 -0.55 -0.45
v 0.05 -0.55 -0.55
v 0.05 -0.55 -0.65
v 0.05 -0.55 -0.75
v 0.05 -0.55 -0.85
v 0.05 -0.55 -0.95
v 0.05 -0.55 -1.05
v 0.05 -0.55 -1.15
v 0.05 -0.55 -1.25
v 0.05 -0.55 -1.35
v 0.05 -0.55 -1.45
v 0.05 -0.55 -1.55
v 0.05 -0.55 -1.65
v 0.05 -0.55 -1.75
v 0.05 -0.45 1.75
v 0.05 -0.45 1.65
v 0.05 -0.45 1.55
v 0.05 -0.45 1.45
v 0.05 -0.45 1.35
v 0.05 -0.45 1.25
v 0.05 -0.45 1.15
v 0.05 -0.45 1.05
v 0.05 -0.45 0.95
v 0.05 -0.45 0.85
v 0.05 -0.45 0.75
v 0.05 -0.45 0.65
v 0.05 -0.45 0.55
v 0.05 -0.45 0.45
v 0.05 -0.45 0.35
v 0.05 -0.45 0.25
v 0.05 -0.45 0.15
v 0.05 -0.45 0.05
v 0.05 -0.45 -0.0500002
v 0.05 -0.45 -0.15
v 0.05 -0.45 -0.25
v 0.05 -0.45 -0.35
v 0.05 -0.45 -0.45
v 0.05 -0.45 -0.55
v 0.05 -0.45 -0.65
v 0.05 -0.45 -0.75
v 0.05 -0.45 -0.85
v 0.05 -0.45 -0.95
v 0.05 -0.45 -1.05
v 0.05 -0.45 -1.15
v 0.05 -0.45 -1.25
v 0.05 -0.45 -1.35
v 0.05 -0.45 -1.45
v 0.05 -0.45 -1.55
v 0.05 -0.45 -1.65
v 0.05 -0.45 -1.75
v 0.05 -0.25 1.75
v 0.05 -0.25 1.65
v 0.05 -0.25 1.55
v 0.05 -0.25 1.45
v 0.05 -0.25 1.35
v 0.05 -0.25 1.25
v 0.05 -0.25 1.15
v 0.05 -0.25 1.05
v 0.05 -0.25 0.95
v 0.05 -0.25 0.85
v 0.05 -0.25 0.75
v 0.05 -0.25 0.65
v 0.05 -0.25 0.55
v 0.05 -0.25 0.45
v 0.05 -0.25 0.35
v 0.05 -0.25 0.25
v 0.05 -0.25 0.15
v 0.05 -0.25 0.05
v 0.05 -0.25 -0.0500002
v 0.05 -0.25 -0.15
v 0.05 -0.25 -0.25
v 0.05 -0.25 -0.35
v 0.05 -0.25 -0.45
v 0.05 -0.25 -0.55
v 0.05 -0.25 -0.65
v 0.05 -0.25 -0.75
v 0.05 -0.25 -0.85
v 0.05 -0.25 -0.95
v 0.05 -0.25 -1.05
v 0.05 -0.25 -1.15
v 0.05 -0.25 -1.25
v 0.05 -0.25 -1.35
v 0.05 -0.25 -1.45
v 0.05 -0.25 -1.55
v 0.05 -0.25 -1.65
v 0.05 -0.25 -1.75
v 0.05 -0.15 1.75
v 0.05 -0.15 1.65
v 0.05 -0.15 1.55
v 0.05 -0.15 1.45
v 0.05 -0.15 1.35
v 0.05 -0.15 1.25
v 0.05 -0.15 1.15
v 0.05 -0.15 1.05
v 0.05 -0.15 0.95
v 0.05 -0.15 0.85
v 0.05 -0.15 0.75
v 0.05 -0.15 0.65
v 0.05 -0.15 0.55
v 0.05 -0.15 0.45
v 0.05 -0.15 0.35
v 0.05 -0.15 0.25
v 0.05 -0.15 0.15
v 0.05 -0.15 0.05
v 0.05 -0.15 -0.0500002
v 0.05 -0.15 -0.15
v 0.05 -0.15 -0.25
v 0.05 -0.15 -0.35
v 0.05 -0.15 -0.45
v 0.05 -0.15 -0.55
v 0.05 -0.15 -0.65
v 0.05 -0.15 -0.75
v 0.05 -0.15 -0.85
v 0.05 -0.15 -0.95
v 0.05 -0.15 -1.05
v 0.05 -0.15 -1.15
v 0.05 -0.15 -1.25
v 0.05 -0.15 -1.35
v 0.05 -0.15 -1.45
v 0.05 -0.15 -1.55
v 0.05 -0.15 -1.65
v 0.05 -0.15 -1.75
v 0.05 -0.0500001 1.75
v 0.05 -0.0500001 1.65
v 0.05 -0.0500001 1.55
v 0.05 -0.0500001 1.45
v 0.05 -0.0500001 1.35
v 0.05 -0.0500001 1.25
v 0.05 -0.0500001 1.15
v 0.05 -0.0500001 1.05
v 0.05 -0.0500001 0.95
v 0.05 -0.0500001 0.85
v 0.05 -0.0500001 0.75
v 0.05 -0.0500001 0.65
v 0.05 -0.0500001 0.55
v 0.05 -0.0500001 0.45
v 0.05 -0.0500001 0.35
v 0.05 -0.0500001 0.25
v 0.05 -0.0500001 0.15
v 0.05 -0.0500001 0.05
v 0.05 -0.0500001 -0.0500002
v 0.05 -0.0500001 -0.15
v 0.05 -0.0500001 -0.25
v 0.05 -0.0500001 -0.35
v 0.05 -0.0500001 -0.45
v 0.05 -0.0500001 -0.55
v 0.05 -0.0500001 -0.65
v 0.05 -0.0500001 -0.75
v 0.05 -0.0500001 -0.85
v 0.05 -0.0500001 -0.95
v 0.05 -0.0500001 -1.05
v 0.05 -0.0500001 -1.15
v 0.05 -0.0500001 -1.25
v 0.05 -0.0500001 -1.35
v 0.05 -0.0500001 -1.45
v 0.05 -0.0500001 -1.55
v 0.05 -0.0500001 -1.65
v 0.05 -0.0500001 -1.75
v 0.05 0.15 1.75
v 0.05 0.15 1.65
v 0.05 0.15 1.55
v 0.05 0.15 1.45
v 0.05 0.15 1.35
v 0.05 0.15 1.25
v 0.05 0.15 1.15
v 0.05 0.15 1.05
v 0.05 0.15 0.95
v 0.05 0.15 0.85
v 0.05 0.15 0.75
v 0.05 0.15 0.65
v 0.05 0.15 0.55
v 0.05 0.15 0.45
v 0.05 0.15 0.35
v 0.05 0.15 0.25
v 0.05 0.15 0.15
v 0.05 0.15 0.05
v 0.05 0.15 -0.0500002
v 0.05 0.15 -0.15
v 0.05 0.15 -0.25
v 0.05 0.15 -0.35
v 0.05 0.15 -0.45
v 0.05 0.15 -0.55
v 0.05 0.15 -0.65
v 0.05 0.15 -0.75
v 0.05 0.15 -0.85
v 0.05 0.15 -0.95
v 0.05 0.15 -1.05
v 0.05 0.15 -1.15
v 0.05 0.15 -1.25
v 0.05 0.15 -1.35
v 0.05 0.15 -1.45
v 0.05 0.15 -1.55
v 0.05 0.15 -1.65
v 0.05 0.15 -1.75
v 0.05 0.25 1.75
v 0.05 0.25 1.65
v 0.05 0.25 1.55
v 0.05 0.25 1.45
v 0.05 0.25 1.35
v 0.05 0.25 1.25
v 0.05 0.25 1.15
v 0.05 0.25 1.05
v 0.05 0.25 0.95
v 0.05 0.25 0.85
v 0.05 0.25 0.75
v 0.05 0.25 0.65
v 0.05 0.25 0.55
v 0.05 0.25 0.45
v 0.05 0.25 0.35
v 0.05 0.25 0.25
v 0.05 0.25 0.15
v 0.05 0.25 0.05
v 0.05 0.25 -0.0500002
v 0.05 0.25 -0.15
v 0.05 0.25 -0.25
v 0.05 0.25 -0.35
v 0.05 0.25 -0.45
v 0.05 0.25 -0.55
v 0.05 0.25 -0.65
v 0.05 0.25 -0.75
v 0.05 0.25 -0.85
v 0.05 0.25 -0.95
v 0.05 0.25 -1.05
v 0.05 0.25 -1.15
v 0.05 0.25 -1.25
v 0.05 0.25 -1.35
v 0.05 0.25 -1.45
v 0.05 0.25 -1.55
v 0.05 0.25 -1.65
v 0.05 0.25 -1.75
v 0.05 0.35 1.75
v 0.05 0.35 1.65
v 0.05 0.35 1.55
v 0.05 0.35 1.45
v 0.05 0.35 1.35
v 0.05 0.35 1.25
v 0.05 0.35 1.15
v 0.05 0.35 1.05
v 0.05 0.35 0.95
v 0.05 0.35 0.85
v 0.05 0.35 0.75
v 0.05 0.35 0.65
v 0.05 0.35 0.55
v 0.05 0.35 0.45
v 0.05 0.35 0.35
v 0.05 0.35 0.25
v 0.05 0.35 0.15
v 0.05 0.35 0.05
v 0.05 0.35 -0.0500002
v 0.05 0.35 -0.15
v 0.05 0.35 -0.25
v 0.05 0.35 -0.35
v 0.05 0.35 -0.45
v 0.05 0.35 -0.55
v 0.05 0.35 -0.65
v 0.05 0.35 -0.75
v 0.05 0.35 -0.85
v 0.05 0.35 -0.95
v 0.05 0.35 -1.05
v 0.05 0.35 -1.15
v 0.05 0.35 -1.25
v 0.05 0.35 -1.35
v 0.05 0.35 -1.45
v 0.05 0.35 -1.55
v 0.05 0.35 -1.65
v 0.05 0.35 -1.75
v 0.05 0.55 1.75
v 0.05 0.55 1.65
v 0.05 0.55 1.55
v 0.05 0.55 1.45
v 0.05 0.55 1.35
v 0.05 0.55 1.25
v 0.05 0.55 1.15
v 0.05 0.55 1.05
v 0.05 0.55 0.95
v 0.05 0.55 0.85
v 0.05 0.55 0.75
v 0.05 0.55 0.65
v 0.05 0.55 0.55
v 0.05 0.55 0.45
v 0.05 0.55 0.35
v 0.05 0.55 0.25
v 0.05 0.55 0.15
v 0.05 0.55 0.05
v 0.05 0.55 -0.0500002
v 0.05 0.55 -0.15
v 0.05 0.55 -0.25
v 0.05 0.55 -0.35
v 0.05 0.55 -0.45
v 0.05 0.55 -0.55
v 0.05 0.55 -0.65
v 0.05 0.55 -0.75
v 0.05 0.55 -0.85
v 0.05 0.55 -0.95
v 0.05 0.55 -1.05
v 0.05 0.55 -1.15
v 0.05 0.55 -1.25
v 0.05 0.55 -1.35
v 0.05 0.55 -1.45
v 0.05 0.55 -1.55
v 0.05 0.55 -1.65
v 0.05 0.55 -1.75
v 0.05 0.65 1.75
v 0.05 0.65 1.65
v 0.05 0.65 1.55
v 0.05 0.65 1.45
v 0.05 0.65 1.35
v 0.05 0.65 1.25
v 0.05 0.65 1.15
v 0.05 0.65 1.05
v 0.05 0.65 0.95
v 0.05 0.65 0.85
v 0.05 0.65 0.75
v 0.05 0.65 0.65
v 0.05 0.65 0.55
v 0.05 0.65 0.45
v 0.05 0.65 0.35
v 0.05 0.65 0.25
v 0.05 0.65 0.15
v 0.05 0.65 0.05
v 0.05 0.65 -0.0500002
v 0.05 0.65 -0.15
v 0.05 0.65 -0.25
v 0.05 0.65 -0.35
v 0.05 0.65 -0.45
v 0.05 0.65 -0.55
v 0.05 0.65 -0.65
v 0.05 0.65 -0.75
v 0.05 0.65 -0.85
v 0.05 0.65 -0.95
v 0.05 0.65 -1.05
v 0.05 0.65 -1.15
v 0.05 0.65 -1.25
v 0.05 0.65 -1.35
v 0.05 0.65 -1.45
v 0.05 0.65 -1.55
v 0.05 0.65 -1.65
v 0.05 0.65 -1.75
v 0.05 0.75 1.75
v 0.05 0.75 1.65
v 0.05 0.75 1.55
v 0.05 0.75 1.45
v 0.05 0.75 1.35
v 0.05 0.75 1.25
v 0.05 0.75 1.15
v 0.05 0.75 1.05
v 0.05 0.75 0.95
v 0.05 0.75 0.85
v 0.05 0.75 0.75
v 0.05 0.75 0.65
v 0.05 0.75 0.55
v 0.05 0.75 0.45
v 0.05 0.75 0.35
v 0.05 0.75 0.25
v 0.05 0.75 0.15
v 0.05 0.75 0.05
v 0.05 0.75 -0.0500002
v 0.05 0.75 -0.15
v 0.05 0.75 -0.25
v 0.05 0.75 -0.35
v 0.05 0.75 -0.45
v 0.05 0.75 -0.55
v 0.05 0.75 -0.65
v 0.05 0.75 -0.75
v 0.05 0.75 -0.85
v 0.05 0.75 -0.95
v 0.05 0.75 -1.05
v 0.05 0.75 -1.15
v 0.05 0.75 -1.25
v 0.05 0.75 -1.35
v 0.05 0.75 -1.45
v 0.05 0.75 -1.55
v 0.05 0.75 -1.65
v 0.05 0.75 -1.75
v 0.05 0.85 1.85
v 0.05 0.85 -1.85
v 0.05 0.95 1.95
v 0.05 0.95 -1.95
v 0.15 -0.65 1.75
v 0.15 -0.65 1.65
v 0.15 -0.65 0.95
v 0.15 -0.65 0.85
v 0.15 -0.65 0.15
v 0.15 -0.65 0.05
v 0.15 -0.65 -0.0500002
v 0.15 -0.65 -0.15
v 0.15 -0.65 -0.65
v 0.15 -0.65 -0.75
v 0.15 -0.65 -0.85
v 0.15 -0.65 -0.95
v 0.15 -0.65 -1.05
v 0.15 -0.65 -1.15
v 0.15 -0.65 -1.45
v 0.15 -0.65 -1.55
v 0.15 -0.55 1.75
v 0.15 -0.55 1.65
v 0.15 -0.55 1.55
v 0.15 -0.55 1.45
v 0.15 -0.55 1.35
v 0.15 -0.55 1.25
v 0.15 -0.55 1.15
v 0.15 -0.55 1.05
v 0.15 -0.55 0.95
v 0.15 -0.55 0.85
v 0.15 -0.55 0.75
v 0.15 -0.55 0.65
v 0.15 -0.55 0.55
v 0.15 -0.55 0.45
v 0.15 -0.55 0.35
v 0.15 -0.55 0.25
v 0.15 -0.55 0.15
v 0.15 -0.55 0.05
v 0.15 -0.55 -0.0500002
v 0.15 -0.55 -0.15
v 0.15 -0.55 -0.25
v 0.15 -0.55 -0.35
v 0.15 -0.55 -0.45
v 0.15 -0.55 -0.55
v 0.15 -0.55 -0.65
v 0.15 -0.55 -0.75
v 0.15 -0.55 -0.85
v 0.15 -0.55 -0.95
v 0.15 -0.55 -1.05
v 0.15 -0.55 -1.15
v 0.15 -0.55 -1.25
v 0.15 -0.55 -1.35
v 0.15 -0.55 -1.45
v 0.15 -0.55 -1.55
v 0.15 -0.55 -1.65
v 0.15 -0.55 -1.75
v 0.15 -0.45 1.55
v 0.15 -0.45 1.45
v 0.15 -0.45 1.35
v 0.15 -0.45 1.25
v 0.15 -0.45 1.15
v 0.15 -0.45 1.05
v 0.15 -0.45 0.75
v 0.15 -0.45 0.65
v 0.15 -0.45 0.55
v 0.15 -0.45 0.45
v 0.15 -0.45 0.35
v 0.15 -0.45 0.25
v 0.15 -0.45 -0.25
v 0.15 -0.45 -0.35
v 0.15 -0.45 -0.45
v 0.15 -0.45 -0.55
v 0.15 -0.45 -1.25
v 0.15 -0.45 -1.35
v 0.15 -0.45 -1.65
v 0.15 -0.45 -1.75
v 0.15 -0.25 1.15
v 0.15 -0.25 1.05
v 0.15 -0.25 -0.25
v 0.15 -0.25 -0.35
v 0.15 -0.25 -0.45
v 0.15 -0.25 -0.55
v 0.15 -0.15 1.75
v 0.15 -0.15 1.65
v 0.15 -0.15 1.55
v 0.15 -0.15 1.45
v 0.15 -0.15 1.35
v 0.15 -0.15 1.25
v 0.15 -0.15 1.15
v 0.15 -0.15 1.05
v 0.15 -0.15 0.95
v 0.15 -0.15 0.85
v 0.15 -0.15 0.75
v 0.15 -0.15 0.65
v 0.15 -0.15 0.55
v 0.15 -0.15 0.45
v 0.15 -0.15 0.35
v 0.15 -0.15 0.25
v 0.15 -0.15 0.15
v 0.15 -0.15 0.05
v 0.15 -0.15 -0.0500002
v 0.15 -0.15 -0.15
v 0.15 -0.15 -0.25
v 0.15 -0.15 -0.35
v 0.15 -0.15 -0.45
v 0.15 -0.15 -0.55
v 0.15 -0.15 -0.65
v 0.15 -0.15 -0.75
v 0.15 -0.15 -0.85
v 0.15 -0.15 -0.95
v 0.15 -0.15 -1.05
v 0.15 -0.15 -1.15
v 0.15 -0.15 -1.25
v 0.15 -0.15 -1.35
v 0.15 -0.15 -1.45
v 0.15 -0.15 -1.55
v 0.15 -0.15 -1.65
v 0.15 -0.15 -1.75
v 0.15 -0.0500001 1.75
v 0.15 -0.0500001 1.65
v 0.15 -0.0500001 1.55
v 0.15 -0.0500001 1.45
v 0.15 -0.0500001 1.35
v 0.15 -0.0500001 1.25
v 0.15 -0.0500001 0.95
v 0.15 -0.0500001 0.85
v 0.15 -0.0500001 0.75
v 0.15 -0.0500001 0.65
v 0.15 -0.0500001 0.55
v 0.15 -0.0500001 0.45
v 0.15 -0.0500001 0.35
v 0.15 -0.0500001 0.25
v 0.15 -0.0500001 0.15
v 0.15 -0.0500001 0.05
v 0.15 -0.0500001 -0.0500002
v 0.15 -0.0500001 -0.15
v 0.15 -0.0500001 -0.65
v 0.15 -0.0500001 -0.75
v 0.15 -0.0500001 -0.85
v 0.15 -0.0500001 -0.95
v 0.15 -0.0500001 -1.05
v 0.15 -0.0500001 -1.15
v 0.15 -0.0500001 -1.25
v 0.15 -0.0500001 -1.35
v 0.15 -0.0500001 -1.45
v 0.15 -0.0500001 -1.55
v 0.15 -0.0500001 -1.65
v 0.15 -0.0500001 -1.75
v 0.15 0.15 1.75
v 0.15 0.15 1.65
v 0.15 0.15 0.75
v 0.15 0.15 0.65
v 0.15 0.15 -0.65
v 0.15 0.15 -0.75
v 0.15 0.15 -1.45
v 0.15 0.15 -1.55
v 0.15 0.25 1.75
v 0.15 0.25 1.65
v 0.15 0.25 1.55
v 0.15 0.25 1.45
v 0.15 0.25 1.35
v 0.15 0.25 1.25
v 0.15 0.25 1.15
v 0.15 0.25 1.05
v 0.15 0.25 0.95
v 0.15 0.25 0.85
v 0.15 0.25 0.75
v 0.15 0.25 0.65
v 0.15 0.25 0.55
v 0.15 0.25 0.45
v 0.15 0.25 0.35
v 0.15 0.25 0.25
v 0.15 0.25 0.15
v 0.15 0.25 0.05
v 0.15 0.25 -0.0500002
v 0.15 0.25 -0.15
v 0.15 0.25 -0.25
v 0.15 0.25 -0.35
v 0.15 0.25 -0.45
v 0.15 0.25 -0.55
v 0.15 0.25 -0.65
v 0.15 0.25 -0.75
v 0.15 0.25 -0.85
v 0.15 0.25 -0.95
v 0.15 0.25 -1.05
v 0.15 0.25 -1.15
v 0.15 0.25 -1.25
v 0.15 0.25 -1.35
v 0.15 0.25 -1.45
v 0.15 0.25 -1.55
v 0.15 0.25 -1.65
v 0.15 0.25 -1.75
v 0.15 0.35 1.55
v 0.15 0.35 1.45
v 0.15 0.35 1.35
v 0.15 0.35 1.25
v 0.15 0.35 1.15
v 0.15 0.35 1.05
v 0.15 0.35 0.95
v 0.15 0.35 0.85
v 0.15 0.35 0.55
v 0.15 0.35 0.45
v 0.15 0.35 0.35
v 0.15 0.35 0.25
v 0.15 0.35 0.15
v 0.15 0.35 0.05
v 0.15 0.35 -0.0500002
v 0.15 0.35 -0.15
v 0.15 0.35 -0.25
v 0.15 0.35 -0.35
v 0.15 0.35 -0.45
v 0.15 0.35 -0.55
v 0.15 0.35 -0.85
v 0.15 0.35 -0.95
v 0.15 0.35 -1.05
v 0.15 0.35 -1.15
v 0.15 0.35 -1.25
v 0.15 0.35 -1.35
v 0.15 0.35 -1.65
v 0.15 0.35 -1.75
v 0.15 0.55 1.15
v 0.15 0.55 1.05
v 0.15 0.55 0.95
v 0.15 0.55 0.85
v 0.15 0.55 0.75
v 0.15 0.55 0.65
v 0.15 0.55 0.15
v 0.15 0.55 0.05
v 0.15 0.55 -0.0500002
v 0.15 0.55 -0.15
v 0.15 0.55 -0.65
v 0.15 0.55 -0.75
v 0.15 0.55 -1.25
v 0.15 0.55 -1.35
v 0.15 0.55 -1.45
v 0.15 0.55 -1.55
v 0.15 0.55 -1.65
v 0.15 0.55 -1.75
v 0.15 0.65 1.75
v 0.15 0.65 1.65
v 0.15 0.65 1.55
v 0.15 0.65 1.45
v 0.15 0.65 1.35
v 0.15 0.65 1.25
v 0.15 0.65 1.15
v 0.15 0.65 1.05
v 0.15 0.65 0.95
v 0.15 0.65 0.85
v 0.15 0.65 0.75
v 0.15 0.65 0.65
v 0.15 0.65 0.55
v 0.15 0.65 0.45
v 0.15 0.65 0.35
v 0.15 0.65 0.25
v 0.15 0.65 0.15
v 0.15 0.65 0.05
v 0.15 0.65 -0.0500002
v 0.15 0.65 -0.15
v 0.15 0.65 -0.25
v 0.15 0.65 -0.35
v 0.15 0.65 -0.45
v 0.15 0.65 -0.55
v 0.15 0.65 -0.65
v 0.15 0.65 -0.75
v 0.15 0.65 -0.85
v 0.15 0.65 -0.95
v 0.15 0.65 -1.05
v 0.15 0.65 -1.15
v 0.15 0.65 -1.25
v 0.15 0.65 -1.35
v 0.15 0.65 -1.45
v 0.15 0.65 -1.55
v 0.15 0.65 -1.65
v 0.15 0.65 -1.75
v 0.15 0.75 1.75
v 0.15 0.75 1.65
v 0.15 0.75 1.55
v 0.15 0.75 1.45
v 0.15 0.75 1.35
v 0.15 0.75 1.25
v 0.15 0.75 0.55
v 0.15 0.75 0.45
v 0.15 0.75 0.35
v 0.15 0.75 0.25
v 0.15 0.75 -0.25
v 0.15 0.75 -0.35
v 0.15 0.75 -0.45
v 0.15 0.75 -0.55
v 0.15 0.75 -0.85
v 0.15 0.75 -0.95
v 0.15 0.75 -1.05
v 0.15 0.75 -1.15
v -0.05 -0.95 1.95
v -0.05 0.95 1.95
v 0.05 -0.95 1.95
v 0.05 0.95 1.95
v -0.15 -0.95 1.85
v -0.15 0.85 1.85
v -0.05 -0.95 1.85
v -0.05 0.85 1.85
v 0.05 -0.65 1.75
v 0.05 -0.55 1.75
v 0.05 -0.15 1.75
v 0.05 -0.0500001 1.75
v 0.05 0.15 1.75
v 0.05 0.25 1.75
v 0.05 0.65 1.75
v 0.05 0.75 1.75
v 0.15 -0.65 1.75
v 0.15 -0.55 1.75
v 0.15 -0.15 1.75
v 0.15 -0.0500001 1.75
v 0.15 0.15 1.75
v 0.15 0.25 1.75
v 0.15 0.65 1.75
v 0.15 0.75 1.75
v -0.05 -0.65 1.65
v -0.05 -0.55 1.65
v -0.05 0.15 1.65
v -0.05 0.25 1.65
v 0.05 -0.65 1.65
v 0.05 -0.55 1.65
v 0.05 0.15 1.65
v 0.05 0.25 1.65
v 0.05 -0.55 1.55
v 0.05 -0.45 1.55
v 0.05 -0.15 1.55
v 0.05 -0.0500001 1.55
v 0.05 0.25 1.55
v 0.05 0.35 1.55
v 0.05 0.65 1.55
v 0.05 0.75 1.55
v 0.15 -0.55 1.55
v 0.15 -0.45 1.55
v 0.15 -0.15 1.55
v 0.15 -0.0500001 1.55
v 0.15 0.25 1.55
v 0.15 0.35 1.55
v 0.15 0.65 1.55
v 0.15 0.75 1.55
v 0.05 -0.55 1.35
v 0.05 -0.45 1.35
v 0.05 -0.15 1.35
v 0.05 -0.0500001 1.35
v 0.05 0.25 1.35
v 0.05 0.35 1.35
v 0.05 0.65 1.35
v 0.05 0.75 1.35
v 0.15 -0.55 1.35
v 0.15 -0.45 1.35
v 0.15 -0.15 1.35
v 0.15 -0.0500001 1.35
v 0.15 0.25 1.35
v 0.15 0.35 1.35
v 0.15 0.65 1.35
v 0.15 0.75 1.35
v 0.05 -0.55 1.15
v 0.05 -0.45 1.15
v 0.05 -0.25 1.15
v 0.05 -0.15 1.15
v 0.05 0.25 1.15
v 0.05 0.35 1.15
v 0.05 0.55 1.15
v 0.05 0.65 1.15
v 0.15 -0.55 1.15
v 0.15 -0.45 1.15
v 0.15 -0.25 1.15
v 0.15 -0.15 1.15
v 0.15 0.25 1.15
v 0.15 0.35 1.15
v 0.15 0.55 1.15
v 0.15 0.65 1.15
v 0.05 -0.65 0.95
v 0.05 -0.55 0.95
v 0.05 -0.15 0.95
v 0.05 -0.0500001 0.95
v 0.05 0.25 0.95
v 0.05 0.35 0.95
v 0.05 0.55 0.95
v 0.05 0.65 0.95
v 0.15 -0.65 0.95
v 0.15 -0.55 0.95
v 0.15 -0.15 0.95
v 0.15 -0.0500001 0.95
v 0.15 0.25 0.95
v 0.15 0.35 0.95
v 0.15 0.55 0.95
v 0.15 0.65 0.95
v 0.05 -0.55 0.75
v 0.05 -0.45 0.75
v 0.05 -0.15 0.75
v 0.05 -0.0500001 0.75
v 0.05 0.15 0.75
v 0.05 0.25 0.75
v 0.05 0.55 0.75
v 0.05 0.65 0.75
v 0.15 -0.55 0.75
v 0.15 -0.45 0.75
v 0.15 -0.15 0.75
v 0.15 -0.0500001 0.75
v 0.15 0.15 0.75
v 0.15 0.25 0.75
v 0.15 0.55 0.75
v 0.15 0.65 0.75
v 0.05 -0.55 0.55
v 0.05 -0.45 0.55
v 0.05 -0.15 0.55
v 0.05 -0.0500001 0.55
v 0.05 0.25 0.55
v 0.05 0.35 0.55
v 0.05 0.65 0.55
v 0.05 0.75 0.55
v 0.15 -0.55 0.55
v 0.15 -0.45 0.55
v 0.15 -0.15 0.55
v 0.15 -0.0500001 0.55
v 0.15 0.25 0.55
v 0.15 0.35 0.55
v 0.15 0.65 0.55
v 0.15 0.75 0.55
v 0.05 -0.55 0.35
v 0.05 -0.45 0.35
v 0.05 -0.15 0.35
v 0.05 -0.0500001 0.35
v 0.05 0.25 0.35
v 0.05 0.35 0.35
v 0.05 0.65 0.35
v 0.05 0.75 0.35
v 0.15 -0.55 0.35
v 0.15 -0.45 0.35
v 0.15 -0.15 0.35
v 0.15 -0.0500001 0.35
v 0.15 0.25 0.35
v 0.15 0.35 0.35
v 0.15 0.65 0.35
v 0.15 0.75 0.35
v 0.05 -0.65 0.15
v 0.05 -0.55 0.15
v 0.05 -0.15 0.15
v 0.05 -0.0500001 0.15
v 0.05 0.25 0.15
v 0.05 0.35 0.15
v 0.05 0.55 0.15
v 0.05 0.65 0.15
v 0.15 -0.65 0.15
v 0.15 -0.55 0.15
v 0.15 -0.15 0.15
v 0.15 -0.0500001 0.15
v 0.15 0.25 0.15
v 0.15 0.35 0.15
v 0.15 0.55 0.15
v 0.15 0.65 0.15
v 0.05 -0.65 -0.0500002
v 0.05 -0.55 -0.0500002
v 0.05 -0.15 -0.0500002
v 0.05 -0.0500001 -0.0500002
v 0.05 0.25 -0.0500002
v 0.05 0.35 -0.0500002
v 0.05 0.55 -0.0500002
v 0.05 0.65 -0.0500002
v 0.15 -0.65 -0.0500002
v 0.15 -0.55 -0.0500002
v 0.15 -0.15 -0.0500002
v 0.15 -0.0500001 -0.0500002
v 0.15 0.25 -0.0500002
v 0.15 0.35 -0.0500002
v 0.15 0.55 -0.0500002
v 0.15 0.65 -0.0500002
v 0.05 -0.55 -0.25
v 0.05 -0.45 -0.25
v 0.05 -0.25 -0.25
v 0.05 -0.15 -0.25
v 0.05 0.25 -0.25
v 0.05 0.35 -0.25
v 0.05 0.65 -0.25
v 0.05 0.75 -0.25
v 0.15 -0.55 -0.25
v 0.15 -0.45 -0.25
v 0.15 -0.25 -0.25
v 0.15 -0.15 -0.25
v 0.15 0.25 -0.25
v 0.15 0.35 -0.25
v 0.15 0.65 -0.25
v 0.15 0.75 -0.25
v 0.05 -0.55 -0.45
v 0.05 -0.45 -0.45
v 0.05 -0.25 -0.45
v 0.05 -0.15 -0.45
v 0.05 0.25 -0.45
v 0.05 0.35 -0.45
v 0.05 0.65 -0.45
v 0.05 0.75 -0.45
v 0.15 -0.55 -0.45
v 0.15 -0.45 -0.45
v 0.15 -0.25 -0.45
v 0.15 -0.15 -0.45
v 0.15 0.25 -0.45
v 0.15 0.35 -0.45
v 0.15 0.65 -0.45
v 0.15 0.75 -0.45
v 0.05 -0.65 -0.65
v 0.05 -0.55 -0.65
v 0.05 -0.15 -0.65
v 0.05 -0.0500001 -0.65
v 0.05 0.15 -0.65
v 0.05 0.25 -0.65
v 0.05 0.55 -0.65
v 0.05 0.65 -0.65
v 0.15 -0.65 -0.65
v 0.15 -0.55 -0.65
v 0.15 -0.15 -0.65
v 0.15 -0.0500001 -0.65
v 0.15 0.15 -0.65
v 0.15 0.25 -0.65
v 0.15 0.55 -0.65
v 0.15 0.65 -0.65
v 0.05 -0.65 -0.85
v 0.05 -0.55 -0.85
v 0.05 -0.15 -0.85
v 0.05 -0.0500001 -0.85
v 0.05 0.25 -0.85
v 0.05 0.35 -0.85
v 0.05 0.65 -0.85
v 0.05 0.75 -0.85
v 0.15 -0.65 -0.85
v 0.15 -0.55 -0.85
v 0.15 -0.15 -0.85
v 0.15 -0.0500001 -0.85
v 0.15 0.25 -0.85
v 0.15 0.35 -0.85
v 0.15 0.65 -0.85
v 0.15 0.75 -0.85
v 0.05 -0.65 -1.05
v 0.05 -0.55 -1.05
v 0.05 -0.15 -1.05
v 0.05 -0.0500001 -1.05
v 0.05 0.25 -1.05
v 0.05 0.35 -1.05
v 0.05 0.65 -1.05
v 0.05 0.75 -1.05
v 0.15 -0.65 -1.05
v 0.15 -0.55 -1.05
v 0.15 -0.15 -1.05
v 0.15 -0.0500001 -1.05
v 0.15 0.25 -1.05
v 0.15 0.35 -1.05
v 0.15 0.65 -1.05
v 0.15 0.75 -1.05
v 0.05 -0.55 -1.25
v 0.05 -0.45 -1.25
v 0.05 -0.15 -1.25
v 0.05 -0.0500001 -1.25
v 0.05 0.25 -1.25
v 0.05 0.35 -1.25
v 0.05 0.55 -1.25
v 0.05 0.65 -1.25
v 0.15 -0.55 -1.25
v 0.15 -0.45 -1.25
v 0.15 -0.15 -1.25
v 0.15 -0.0500001 -1.25
v 0.15 0.25 -1.25
v 0.15 0.35 -1.25
v 0.15 0.55 -1.25
v 0.15 0.65 -1.25
v 0.05 -0.65 -1.45
v 0.05 -0.55 -1.45
v 0.05 -0.15 -1.45
v 0.05 -0.0500001 -1.45
v 0.05 0.15 -1.45
v 0.05 0.25 -1.45
v 0.05 0.55 -1.45
v 0.05 0.65 -1.45
v 0.15 -0.65 -1.45
v 0.15 -0.55 -1.45
v 0.15 -0.15 -1.45
v 0.15 -0.0500001 -1.45
v 0.15 0.15 -1.45
v 0.15 0.25 -1.45
v 0.15 0.55 -1.45
v 0.15 0.65 -1.45
v 0.05 -0.55 -1.65
v 0.05 -0.45 -1.65
v 0.05 -0.15 -1.65
v 0.05 -0.0500001 -1.65
v 0.05 0.25 -1.65
v 0.05 0.35 -1.65
v 0.05 0.55 -1.65
v 0.05 0.65 -1.65
v 0.15 -0.55 -1.65
v 0.15 -0.45 -1.65
v 0.15 -0.15 -1.65
v 0.15 -0.0500001 -1.65
v 0.15 0.25 -1.65
v 0.15 0.35 -1.65
v 0.15 0.55 -1.65
v 0.15 0.65 -1.65
v -0.05 -0.65 1.75
v -0.05 -0.55 1.75
v -0.05 0.15 1.75
v -0.05 0.25 1.75
v 0.05 -0.65 1.75
v 0.05 -0.55 1.75
v 0.05 0.15 1.75
v 0.05 0.25 1.75
v 0.05 -0.65 1.65
v 0.05 -0.55 1.65
v 0.05 -0.15 1.65
v 0.05 -0.0500001 1.65
v 0.05 0.15 1.65
v 0.05 0.25 1.65
v 0.05 0.65 1.65
v 0.05 0.75 1.65
v 0.15 -0.65 1.65
v 0.15 -0.55 1.65
v 0.15 -0.15 1.65
v 0.15 -0.0500001 1.65
v 0.15 0.15 1.65
v 0.15 0.25 1.65
v 0.15 0.65 1.65
v 0.15 0.75 1.65
v 0.05 -0.55 1.45
v 0.05 -0.45 1.45
v 0.05 -0.15 1.45
v 0.05 -0.0500001 1.45
v 0.05 0.25 1.45
v 0.05 0.35 1.45
v 0.05 0.65 1.45
v 0.05 0.75 1.45
v 0.15 -0.55 1.45
v 0.15 -0.45 1.45
v 0.15 -0.15 1.45
v 0.15 -0.0500001 1.45
v 0.15 0.25 1.45
v 0.15 0.35 1.45
v 0.15 0.65 1.45
v 0.15 0.75 1.45
v 0.05 -0.55 1.25
v 0.05 -0.45 1.25
v 0.05 -0.15 1.25
v 0.05 -0.0500001 1.25
v 0.05 0.25 1.25
v 0.05 0.35 1.25
v 0.05 0.65 1.25
v 0.05 0.75 1.25
v 0.15 -0.55 1.25
v 0.15 -0.45 1.25
v 0.15 -0.15 1.25
v 0.15 -0.0500001 1.25
v 0.15 0.25 1.25
v 0.15 0.35 1.25
v 0.15 0.65 1.25
v 0.15 0.75 1.25
v 0.05 -0.55 1.05
v 0.05 -0.45 1.05
v 0.05 -0.25 1.05
v 0.05 -0.15 1.05
v 0.05 0.25 1.05
v 0.05 0.35 1.05
v 0.05 0.55 1.05
v 0.05 0.65 1.05
v 0.15 -0.55 1.05
v 0.15 -0.45 1.05
v 0.15 -0.25 1.05
v 0.15 -0.15 1.05
v 0.15 0.25 1.05
v 0.15 0.35 1.05
v 0.15 0.55 1.05
v 0.15 0.65 1.05
v 0.05 -0.65 0.85
v 0.05 -0.55 0.85
v 0.05 -0.15 0.85
v 0.05 -0.0500001 0.85
v 0.05 0.25 0.85
v 0.05 0.35 0.85
v 0.05 0.55 0.85
v 0.05 0.65 0.85
v 0.15 -0.65 0.85
v 0.15 -0.55 0.85
v 0.15 -0.15 0.85
v 0.15 -0.0500001 0.85
v 0.15 0.25 0.85
v 0.15 0.35 0.85
v 0.15 0.55 0.85
v 0.15 0.65 0.85
v 0.05 -0.55 0.65
v 0.05 -0.45 0.65
v 0.05 -0.15 0.65
v 0.05 -0.0500001 0.65
v 0.05 0.15 0.65
v 0.05 0.25 0.65
v 0.05 0.55 0.65
v 0.05 0.65 0.65
v 0.15 -0.55 0.65
v 0.15 -0.45 0.65
v 0.15 -0.15 0.65
v 0.15 -0.0500001 0.65
v 0.15 0.15 0.65
v 0.15 0.25 0.65
v 0.15 0.55 0.65
v 0.15 0.65 0.65
v 0.05 -0.55 0.45
v 0.05 -0.45 0.45
v 0.05 -0.15 0.45
v 0.05 -0.0500001 0.45
v 0.05 0.25 0.45
v 0.05 0.35 0.45
v 0.05 0.65 0.45
v 0.05 0.75 0.45
v 0.15 -0.55 0.45
v 0.15 -0.45 0.45
v 0.15 -0.15 0.45
v 0.15 -0.0500001 0.45
v 0.15 0.25 0.45
v 0.15 0.35 0.45
v 0.15 0.65 0.45
v 0.15 0.75 0.45
v 0.05 -0.55 0.25
v 0.05 -0.45 0.25
v 0.05 -0.15 0.25
v 0.05 -0.0500001 0.25
v 0.05 0.25 0.25
v 0.05 0.35 0.25
v 0.05 0.65 0.25
v 0.05 0.75 0.25
v 0.15 -0.55 0.25
v 0.15 -0.45 0.25
v 0.15 -0.15 0.25
v 0.15 -0.0500001 0.25
v 0.15 0.25 0.25
v 0.15 0.35 0.25
v 0.15 0.65 0.25
v 0.15 0.75 0.25
v 0.05 -0.65 0.05
v 0.05 -0.55 0.05
v 0.05 -0.15 0.05
v 0.05 -0.0500001 0.05
v 0.05 0.25 0.05
v 0.05 0.35 0.05
v 0.05 0.55 0.05
v 0.05 0.65 0.05
v 0.15 -0.65 0.05
v 0.15 -0.55 0.05
v 0.15 -0.15 0.05
v 0.15 -0.0500001 0.05
v 0.15 0.25 0.05
v 0.15 0.35 0.05
v 0.15 0.55 0.05
v 0.15 0.65 0.05
v 0.05 -0.65 -0.15
v 0.05 -0.55 -0.15
v 0.05 -0.15 -0.15
v 0.05 -0.0500001 -0.15
v 0.05 0.25 -0.15
v 0.05 0.35 -0.15
v 0.05 0.55 -0.15
v 0.05 0.65 -0.15
v 0.15 -0.65 -0.15
v 0.15 -0.55 -0.15
v 0.15 -0.15 -0.15
v 0.15 -0.0500001 -0.15
v 0.15 0.25 -0.15
v 0.15 0.35 -0.15
v 0.15 0.55 -0.15
v 0.15 0.65 -0.15
v 0.05 -0.55 -0.35
v 0.05 -0.45 -0.35
v 0.05 -0.25 -0.35
v 0.05 -0.15 -0.35
v 0.05 0.25 -0.35
v 0.05 0.35 -0.35
v 0.05 0.65 -0.35
v 0.05 0.75 -0.35
v 0.15 -0.55 -0.35
v 0.15 -0.45 -0.35
v 0.15 -0.25 -0.35
v 0.15 -0.15 -0.35
v 0.15 0.25 -0.35
v 0.15 0.35 -0.35
v 0.15 0.65 -0.35
v 0.15 0.75 -0.35
v 0.05 -0.55 -0.55
v 0.05 -0.45 -0.55
v 0.05 -0.25 -0.55
v 0.05 -0.15 -0.55
v 0.05 0.25 -0.55
v 0.05 0.35 -0.55
v 0.05 0.65 -0.55
v 0.05 0.75 -0.55
v 0.15 -0.55 -0.55
v 0.15 -0.45 -0.55
v 0.15 -0.25 -0.55
v 0.15 -0.15 -0.55
v 0.15 0.25 -0.55
v 0.15 0.35 -0.55
v 0.15 0.65 -0.55
v 0.15 0.75 -0.55
v 0.05 -0.65 -0.75
v 0.05 -0.55 -0.75
v 0.05 -0.15 -0.75
v 0.05 -0.0500001 -0.75
v 0.05 0.15 -0.75
v 0.05 0.25 -0.75
v 0.05 0.55 -0.75
v 0.05 0.65 -0.75
v 0.15 -0.65 -0.75
v 0.15 -0.55 -0.75
v 0.15 -0.15 -0.75
v 0.15 -0.0500001 -0.75
v 0.15 0.15 -0.75
v 0.15 0.25 -0.75
v 0.15 0.55 -0.75
v 0.15 0.65 -0.75
v 0.05 -0.65 -0.95
v 0.05 -0.55 -0.95
v 0.05 -0.15 -0.95
v 0.05 -0.0500001 -0.95
v 0.05 0.25 -0.95
v 0.05 0.35 -0.95
v 0.05 0.65 -0.95
v 0.05 0.75 -0.95
v 0.15 -0.65 -0.95
v 0.15 -0.55 -0.95
v 0.15 -0.15 -0.95
v 0.15 -0.0500001 -0.95
v 0.15 0.25 -0.95
v 0.15 0.35 -0.95
v 0.15 0.65 -0.95
v 0.15 0.75 -0.95
v 0.05 -0.65 -1.15
v 0.05 -0.55 -1.15
v 0.05 -0.15 -1.15
v 0.05 -0.0500001 -1.15
v 0.05 0.25 -1.15
v 0.05 0.35 -1.15
v 0.05 0.65 -1.15
v 0.05 0.75 -1.15
v 0.15 -0.65 -1.15
v 0.15 -0.55 -1.15
v 0.15 -0.15 -1.15
v 0.15 -0.0500001 -1.15
v 0.15 0.25 -1.15
v 0.15 0.35 -1.15
v 0.15 0.65 -1.15
v 0.15 0.75 -1.15
v 0.05 -0.55 -1.35
v 0.05 -0.45 -1.35
v 0.05 -0.15 -1.35
v 0.05 -0.0500001 -1.35
v 0.05 0.25 -1.35
v 0.05 0.35 -1.35
v 0.05 0.55 -1.35
v 0.05 0.65 -1.35
v 0.15 -0.55 -1.35
v 0.15 -0.45 -1.35
v 0.15 -0.15 -1.35
v 0.15 -0.0500001 -1.35
v 0.15 0.25 -1.35
v 0.15 0.35 -1.35
v 0.15 0.55 -1.35
v 0.15 0.65 -1.35
v 0.05 -0.65 -1.55
v 0.05 -0.55 -1.55
v 0.05 -0.15 -1.55
v 0.05 -0.0500001 -1.55
v 0.05 0.15 -1.55
v 0.05 0.25 -1.55
v 0.05 0.55 -1.55
v 0.05 0.65 -1.55
v 0.15 -0.65 -1.55
v 0.15 -0.55 -1.55
v 0.15 -0.15 -1.55
v 0.15 -0.0500001 -1.55
v 0.15 0.15 -1.55
v 0.15 0.25 -1.55
v 0.15 0.55 -1.55
v 0.15 0.65 -1.55
v 0.05 -0.55 -1.75
v 0.05 -0.45 -1.75
v 0.05 -0.15 -1.75
v 0.05 -0.0500001 -1.75
v 0.05 0.25 -1.75
v 0.05 0.35 -1.75
v 0.05 0.55 -1.75
v 0.05 0.65 -1.75
v 0.15 -0.55 -1.75
v 0.15 -0.45 -1.75
v 0.15 -0.15 -1.75
v 0.15 -0.0500001 -1.75
v 0.15 0.25 -1.75
v 0.15 0.35 -1.75
v 0.15 0.55 -1.75
v 0.15 0.65 -1.75
v -0.15 -0.95 -1.85
v -0.15 0.85 -1.85
v -0.05 -0.95 -1.85
v -0.05 0.85 -1.85
v -0.05 -0.95 -1.95
v -0.05 0.95 -1.95
v 0.05 -0.95 -1.95
v 0.05 0.95 -1.95
v -0.05 -0.95 1.95
v 0.05 -0.95 1.95
v -0.15 -0.95 1.85
v -0.05 -0.95 1.85
v -0.15 -0.95 -1.85
v -0.05 -0.95 -1.85
v -0.05 -0.95 -1.95
v 0.05 -0.95 -1.95
v 0.05 -0.65 1.75
v 0.15 -0.65 1.75
v 0.05 -0.65 1.65
v 0.15 -0.65 1.65
v 0.05 -0.65 0.95
v 0.15 -0.65 0.95
v 0.05 -0.65 0.85
v 0.15 -0.65 0.85
v 0.05 -0.65 0.15
v 0.15 -0.65 0.15
v 0.05 -0.65 0.05
v 0.15 -0.65 0.05
v 0.05 -0.65 -0.0500002
v 0.15 -0.65 -0.0500002
v 0.05 -0.65 -0.15
v 0.15 -0.65 -0.15
v 0.05 -0.65 -0.65
v 0.15 -0.65 -0.65
v 0.05 -0.65 -0.75
v 0.15 -0.65 -0.75
v 0.05 -0.65 -0.85
v 0.15 -0.65 -0.85
v 0.05 -0.65 -0.95
v 0.15 -0.65 -0.95
v 0.05 -0.65 -1.05
v 0.15 -0.65 -1.05
v 0.05 -0.65 -1.15
v 0.15 -0.65 -1.15
v 0.05 -0.65 -1.45
v 0.15 -0.65 -1.45
v 0.05 -0.65 -1.55
v 0.15 -0.65 -1.55
v -0.05 -0.55 1.75
v 0.05 -0.55 1.75
v -0.05 -0.55 1.65
v 0.05 -0.55 1.65
v 0.05 -0.55 1.55
v 0.15 -0.55 1.55
v 0.05 -0.55 1.45
v 0.15 -0.55 1.45
v 0.05 -0.55 1.35
v 0.15 -0.55 1.35
v 0.05 -0.55 1.25
v 0.15 -0.55 1.25
v 0.05 -0.55 1.15
v 0.15 -0.55 1.15
v 0.05 -0.55 1.05
v 0.15 -0.55 1.05
v 0.05 -0.55 0.75
v 0.15 -0.55 0.75
v 0.05 -0.55 0.65
v 0.15 -0.55 0.65
v 0.05 -0.55 0.55
v 0.15 -0.55 0.55
v 0.05 -0.55 0.45
v 0.15 -0.55 0.45
v 0.05 -0.55 0.35
v 0.15 -0.55 0.35
v 0.05 -0.55 0.25
v 0.15 -0.55 0.25
v 0.05 -0.55 -0.25
v 0.15 -0.55 -0.25
v 0.05 -0.55 -0.35
v 0.15 -0.55 -0.35
v 0.05 -0.55 -0.45
v 0.15 -0.55 -0.45
v 0.05 -0.55 -0.55
v 0.15 -0.55 -0.55
v 0.05 -0.55 -1.25
v 0.15 -0.55 -1.25
v 0.05 -0.55 -1.35
v 0.15 -0.55 -1.35
v 0.05 -0.55 -1.65
v 0.15 -0.55 -1.65
v 0.05 -0.55 -1.75
v 0.15 -0.55 -1.75
v 0.05 -0.25 1.15
v 0.15 -0.25 1.15
v 0.05 -0.25 1.05
v 0.15 -0.25 1.05
v 0.05 -0.25 -0.25
v 0.15 -0.25 -0.25
v 0.05 -0.25 -0.35
v 0.15 -0.25 -0.35
v 0.05 -0.25 -0.45
v 0.15 -0.25 -0.45
v 0.05 -0.25 -0.55
v 0.15 -0.25 -0.55
v 0.05 -0.15 1.75
v 0.15 -0.15 1.75
v 0.05 -0.15 1.65
v 0.15 -0.15 1.65
v 0.05 -0.15 1.55
v 0.15 -0.15 1.55
v 0.05 -0.15 1.45
v 0.15 -0.15 1.45
v 0.05 -0.15 1.35
v 0.15 -0.15 1.35
v 0.05 -0.15 1.25
v 0.15 -0.15 1.25
v 0.05 -0.15 0.95
v 0.15 -0.15 0.95
v 0.05 -0.15 0.85
v 0.15 -0.15 0.85
v 0.05 -0.15 0.75
v 0.15 -0.15 0.75
v 0.05 -0.15 0.65
v 0.15 -0.15 0.65
v 0.05 -0.15 0.55
v 0.15 -0.15 0.55
v 0.05 -0.15 0.45
v 0.15 -0.15 0.45
v 0.05 -0.15 0.35
v 0.15 -0.15 0.35
v 0.05 -0.15 0.25
v 0.15 -0.15 0.25
v 0.05 -0.15 0.15
v 0.15 -0.15 0.15
v 0.05 -0.15 0.05
v 0.15 -0.15 0.05
v 0.05 -0.15 -0.0500002
v 0.15 -0.15 -0.0500002
v 0.05 -0.15 -0.15
v 0.15 -0.15 -0.15
v 0.05 -0.15 -0.65
v 0.15 -0.15 -0.65
v 0.05 -0.15 -0.75
v 0.15 -0.15 -0.75
v 0.05 -0.15 -0.85
v 0.15 -0.15 -0.85
v 0.05 -0.15 -0.95
v 0.15 -0.15 -0.95
v 0.05 -0.15 -1.05
v 0.15 -0.15 -1.05
v 0.05 -0.15 -1.15
v 0.15 -0.15 -1.15
v 0.05 -0.15 -1.25
v 0.15 -0.15 -1.25
v 0.05 -0.15 -1.35
v 0.15 -0.15 -1.35
v 0.05 -0.15 -1.45
v 0.15 -0.15 -1.45
v 0.05 -0.15 -1.55
v 0.15 -0.15 -1.55
v 0.05 -0.15 -1.65
v 0.15 -0.15 -1.65
v 0.05 -0.15 -1.75
v 0.15 -0.15 -1.75
v 0.05 0.15 1.75
v 0.15 0.15 1.75
v 0.05 0.15 1.65
v 0.15 0.15 1.65
v 0.05 0.15 0.75
v 0.15 0.15 0.75
v 0.05 0.15 0.65
v 0.15 0.15 0.65
v 0.05 0.15 -0.65
v 0.15 0.15 -0.65
v 0.05 0.15 -0.75
v 0.15 0.15 -0.75
v 0.05 0.15 -1.45
v 0.15 0.15 -1.45
v 0.05 0.15 -1.55
v 0.15 0.15 -1.55
v -0.05 0.25 1.75
v 0.05 0.25 1.75
v -0.05 0.25 1.65
v 0.05 0.25 1.65
v 0.05 0.25 1.55
v 0.15 0.25 1.55
v 0.05 0.25 1.45
v 0.15 0.25 1.45
v 0.05 0.25 1.35
v 0.15 0.25 1.35
v 0.05 0.25 1.25
v 0.15 0.25 1.25
v 0.05 0.25 1.15
v 0.15 0.25 1.15
v 0.05 0.25 1.05
v 0.15 0.25 1.05
v 0.05 0.25 0.95
v 0.15 0.25 0.95
v 0.05 0.25 0.85
v 0.15 0.25 0.85
v 0.05 0.25 0.55
v 0.15 0.25 0.55
v 0.05 0.25 0.45
v 0.15 0.25 0.45
v 0.05 0.25 0.35
v 0.15 0.25 0.35
v 0.05 0.25 0.25
v 0.15 0.25 0.25
v 0.05 0.25 0.15
v 0.15 0.25 0.15
v 0.05 0.25 0.05
v 0.15 0.25 0.05
v 0.05 0.25 -0.0500002
v 0.15 0.25 -0.0500002
v 0.05 0.25 -0.15
v 0.15 0.25 -0.15
v 0.05 0.25 -0.25
v 0.15 0.25 -0.25
v 0.05 0.25 -0.35
v 0.15 0.25 -0.35
v 0.05 0.25 -0.45
v 0.15 0.25 -0.45
v 0.05 0.25 -0.55
v 0.15 0.25 -0.55
v 0.05 0.25 -0.85
v 0.15 0.25 -0.85
v 0.05 0.25 -0.95
v 0.15 0.25 -0.95
v 0.05 0.25 -1.05
v 0.15 0.25 -1.05
v 0.05 0.25 -1.15
v 0.15 0.25 -1.15
v 0.05 0.25 -1.25
v 0.15 0.25 -1.25
v 0.05 0.25 -1.35
v 0.15 0.25 -1.35
v 0.05 0.25 -1.65
v 0.15 0.25 -1.65
v 0.05 0.25 -1.75
v 0.15 0.25 -1.75
v 0.05 0.55 1.15
v 0.15 0.55 1.15
v 0.05 0.55 1.05
v 0.15 0.55 1.05
v 0.05 0.55 0.95
v 0.15 0.55 0.95
v 0.05 0.55 0.85
v 0.15 0.55 0.85
v 0.05 0.55 0.75
v 0.15 0.55 0.75
v 0.05 0.55 0.65
v 0.15 0.55 0.65
v 0.05 0.55 0.15
v 0.15 0.55 0.15
v 0.05 0.55 0.05
v 0.15 0.55 0.05
v 0.05 0.55 -0.0500002
v 0.15 0.55 -0.0500002
v 0.05 0.55 -0.15
v 0.15 0.55 -0.15
v 0.05 0.55 -0.65
v 0.15 0.55 -0.65
v 0.05 0.55 -0.75
v 0.15 0.55 -0.75
v 0.05 0.55 -1.25
v 0.15 0.55 -1.25
v 0.05 0.55 -1.35
v 0.15 0.55 -1.35
v 0.05 0.55 -1.45
v 0.15 0.55 -1.45
v 0.05 0.55 -1.55
v 0.15 0.55 -1.55
v 0.05 0.55 -1.65
v 0.15 0.55 -1.65
v 0.05 0.55 -1.75
v 0.15 0.55 -1.75
v 0.05 0.65 1.75
v 0.15 0.65 1.75
v 0.05 0.65 1.65
v 0.15 0.65 1.65
v 0.05 0.65 1.55
v 0.15 0.65 1.55
v 0.05 0.65 1.45
v 0.15 0.65 1.45
v 0.05 0.65 1.35
v 0.15 0.65 1.35
v 0.05 0.65 1.25
v 0.15 0.65 1.25
v 0.05 0.65 0.55
v 0.15 0.65 0.55
v 0.05 0.65 0.45
v 0.15 0.65 0.45
v 0.05 0.65 0.35
v 0.15 0.65 0.35
v 0.05 0.65 0.25
v 0.15 0.65 0.25
v 0.05 0.65 -0.25
v 0.15 0.65 -0.25
v 0.05 0.65 -0.35
v 0.15 0.65 -0.35
v 0.05 0.65 -0.45
v 0.15 0.65 -0.45
v 0.05 0.65 -0.55
v 0.15 0.65 -0.55
v 0.05 0.65 -0.85
v 0.15 0.65 -0.85
v 0.05 0.65 -0.95
v 0.15 0.65 -0.95
v 0.05 0.65 -1.05
v 0.15 0.65 -1.05
v 0.05 0.65 -1.15
v 0.15 0.65 -1.15
v -0.05 -0.65 1.75
v 0.05 -0.65 1.75
v -0.05 -0.65 1.65
v 0.05 -0.65 1.65
v 0.05 -0.55 1.75
v 0.15 -0.55 1.75
v 0.05 -0.55 1.65
v 0.15 -0.55 1.65
v 0.05 -0.55 0.95
v 0.15 -0.55 0.95
v 0.05 -0.55 0.85
v 0.15 -0.55 0.85
v 0.05 -0.55 0.15
v 0.15 -0.55 0.15
v 0.05 -0.55 0.05
v 0.15 -0.55 0.05
v 0.05 -0.55 -0.0500002
v 0.15 -0.55 -0.0500002
v 0.05 -0.55 -0.15
v 0.15 -0.55 -0.15
v 0.05 -0.55 -0.65
v 0.15 -0.55 -0.65
v 0.05 -0.55 -0.75
v 0.15 -0.55 -0.75
v 0.05 -0.55 -0.85
v 0.15 -0.55 -0.85
v 0.05 -0.55 -0.95
v 0.15 -0.55 -0.95
v 0.05 -0.55 -1.05
v 0.15 -0.55 -1.05
v 0.05 -0.55 -1.15
v 0.15 -0.55 -1.15
v 0.05 -0.55 -1.45
v 0.15 -0.55 -1.45
v 0.05 -0.55 -1.55
v 0.15 -0.55 -1.55
v 0.05 -0.45 1.55
v 0.15 -0.45 1.55
v 0.05 -0.45 1.45
v 0.15 -0.45 1.45
v 0.05 -0.45 1.35
v 0.15 -0.45 1.35
v 0.05 -0.45 1.25
v 0.15 -0.45 1.25
v 0.05 -0.45 1.15
v 0.15 -0.45 1.15
v 0.05 -0.45 1.05
v 0.15 -0.45 1.05
v 0.05 -0.45 0.75
v 0.15 -0.45 0.75
v 0.05 -0.45 0.65
v 0.15 -0.45 0.65
v 0.05 -0.45 0.55
v 0.15 -0.45 0.55
v 0.05 -0.45 0.45
v 0.15 -0.45 0.45
v 0.05 -0.45 0.35
v 0.15 -0.45 0.35
v 0.05 -0.45 0.25
v 0.15 -0.45 0.25
v 0.05 -0.45 -0.25
v 0.15 -0.45 -0.25
v 0.05 -0.45 -0.35
v 0.15 -0.45 -0.35
v 0.05 -0.45 -0.45
v 0.15 -0.45 -0.45
v 0.05 -0.45 -0.55
v 0.15 -0.45 -0.55
v 0.05 -0.45 -1.25
v 0.15 -0.45 -1.25
v 0.05 -0.45 -1.35
v 0.15 -0.45 -1.35
v 0.05 -0.45 -1.65
v 0.15 -0.45 -1.65
v 0.05 -0.45 -1.75
v 0.15 -0.45 -1.75
v 0.05 -0.15 1.15
v 0.15 -0.15 1.15
v 0.05 -0.15 1.05
v 0.15 -0.15 1.05
v 0.05 -0.15 -0.25
v 0.15 -0.15 -0.25
v 0.05 -0.15 -0.35
v 0.15 -0.15 -0.35
v 0.05 -0.15 -0.45
v 0.15 -0.15 -0.45
v 0.05 -0.15 -0.55
v 0.15 -0.15 -0.55
v 0.05 -0.0500001 1.75
v 0.15 -0.0500001 1.75
v 0.05 -0.0500001 1.65
v 0.15 -0.0500001 1.65
v 0.05 -0.0500001 1.55
v 0.15 -0.0500001 1.55
v 0.05 -0.0500001 1.45
v 0.15 -0.0500001 1.45
v 0.05 -0.0500001 1.35
v 0.15 -0.0500001 1.35
v 0.05 -0.0500001 1.25
v 0.15 -0.0500001 1.25
v 0.05 -0.0500001 0.95
v 0.15 -0.0500001 0.95
v 0.05 -0.0500001 0.85
v 0.15 -0.0500001 0.85
v 0.05 -0.0500001 0.75
v 0.15 -0.0500001 0.75
v 0.05 -0.0500001 0.65
v 0.15 -0.0500001 0.65
v 0.05 -0.0500001 0.55
v 0.15 -0.0500001 0.55
v 0.05 -0.0500001 0.45
v 0.15 -0.0500001 0.45
v 0.05 -0.0500001 0.35
v 0.15 -0.0500001 0.35
v 0.05 -0.0500001 0.25
v 0.15 -0.0500001 0.25
v 0.05 -0.0500001 0.15
v 0.15 -0.0500001 0.15
v 0.05 -0.0500001 0.05
v 0.15 -0.0500001 0.05
v 0.05 -0.0500001 -0.0500002
v 0.15 -0.0500001 -0.0500002
v 0.05 -0.0500001 -0.15
v 0.15 -0.0500001 -0.15
v 0.05 -0.0500001 -0.65
v 0.15 -0.0500001 -0.65
v 0.05 -0.0500001 -0.75
v 0.15 -0.0500001 -0.75
v 0.05 -0.0500001 -0.85
v 0.15 -0.0500001 -0.85
v 0.05 -0.0500001 -0.95
v 0.15 -0.0500001 -0.95
v 0.05 -0.0500001 -1.05
v 0.15 -0.0500001 -1.05
v 0.05 -0.0500001 -1.15
v 0.15 -0.0500001 -1.15
v 0.05 -0.0500001 -1.25
v 0.15 -0.0500001 -1.25
v 0.05 -0.0500001 -1.35
v 0.15 -0.0500001 -1.35
v 0.05 -0.0500001 -1.45
v 0.15 -0.0500001 -1.45
v 0.05 -0.0500001 -1.55
v 0.15 -0.0500001 -1.55
v 0.05 -0.0500001 -1.65
v 0.15 -0.0500001 -1.65
v 0.05 -0.0500001 -1.75
v 0.15 -0.0500001 -1.75
v -0.05 0.15 1.75
v 0.05 0.15 1.75
v -0.05 0.15 1.65
v 0.05 0.15 1.65
v 0.05 0.25 1.75
v 0.15 0.25 1.75
v 0.05 0.25 1.65
v 0.15 0.25 1.65
v 0.05 0.25 0.75
v 0.15 0.25 0.75
v 0.05 0.25 0.65
v 0.15 0.25 0.65
v 0.05 0.25 -0.65
v 0.15 0.25 -0.65
v 0.05 0.25 -0.75
v 0.15 0.25 -0.75
v 0.05 0.25 -1.45
v 0.15 0.25 -1.45
v 0.05 0.25 -1.55
v 0.15 0.25 -1.55
v 0.05 0.35 1.55
v 0.15 0.35 1.55
v 0.05 0.35 1.45
v 0.15 0.35 1.45
v 0.05 0.35 1.35
v 0.15 0.35 1.35
v 0.05 0.35 1.25
v 0.15 0.35 1.25
v 0.05 0.35 1.15
v 0.15 0.35 1.15
v 0.05 0.35 1.05
v 0.15 0.35 1.05
v 0.05 0.35 0.95
v 0.15 0.35 0.95
v 0.05 0.35 0.85
v 0.15 0.35 0.85
v 0.05 0.35 0.55
v 0.15 0.35 0.55
v 0.05 0.35 0.45
v 0.15 0.35 0.45
v 0.05 0.35 0.35
v 0.15 0.35 0.35
v 0.05 0.35 0.25
v 0.15 0.35 0.25
v 0.05 0.35 0.15
v 0.15 0.35 0.15
v 0.05 0.35 0.05
v 0.15 0.35 0.05
v 0.05 0.35 -0.0500002
v 0.15 0.35 -0.0500002
v 0.05 0.35 -0.15
v 0.15 0.35 -0.15
v 0.05 0.35 -0.25
v 0.15 0.35 -0.25
v 0.05 0.35 -0.35
v 0.15 0.35 -0.35
v 0.05 0.35 -0.45
v 0.15 0.35 -0.45
v 0.05 0.35 -0.55
v 0.15 0.35 -0.55
v 0.05 0.35 -0.85
v 0.15 0.35 -0.85
v 0.05 0.35 -0.95
v 0.15 0.35 -0.95
v 0.05 0.35 -1.05
v 0.15 0.35 -1.05
v 0.05 0.35 -1.15
v 0.15 0.35 -1.15
v 0.05 0.35 -1.25
v 0.15 0.35 -1.25
v 0.05 0.35 -1.35
v 0.15 0.35 -1.35
v 0.05 0.35 -1.65
v 0.15 0.35 -1.65
v 0.05 0.35 -1.75
v 0.15 0.35 -1.75
v 0.05 0.65 1.15
v 0.15 0.65 1.15
v 0.05 0.65 1.05
v 0.15 0.65 1.05
v 0.05 0.65 0.95
v 0.15 0.65 0.95
v 0.05 0.65 0.85
v 0.15 0.65 0.85
v 0.05 0.65 0.75
v 0.15 0.65 0.75
v 0.05 0.65 0.65
v 0.15 0.65 0.65
v 0.05 0.65 0.15
v 0.15 0.65 0.15
v 0.05 0.65 0.05
v 0.15 0.65 0.05
v 0.05 0.65 -0.0500002
v 0.15 0.65 -0.0500002
v 0.05 0.65 -0.15
v 0.15 0.65 -0.15
v 0.05 0.65 -0.65
v 0.15 0.65 -0.65
v 0.05 0.65 -0.75
v 0.15 0.65 -0.75
v 0.05 0.65 -1.25
v 0.15 0.65 -1.25
v 0.05 0.65 -1.35
v 0.15 0.65 -1.35
v 0.05 0.65 -1.45
v 0.15 0.65 -1.45
v 0.05 0.65 -1.55
v 0.15 0.65 -1.55
v 0.05 0.65 -1.65
v 0.15 0.65 -1.65
v 0.05 0.65 -1.75
v 0.15 0.65 -1.75
v 0.05 0.75 1.75
v 0.15 0.75 1.75
v 0.05 0.75 1.65
v 0.15 0.75 1.65
v 0.05 0.75 1.55
v 0.15 0.75 1.55
v 0.05 0.75 1.45
v 0.15 0.75 1.45
v 0.05 0.75 1.35
v 0.15 0.75 1.35
v 0.05 0.75 1.25
v 0.15 0.75 1.25
v 0.05 0.75 0.55
v 0.15 0.75 0.55
v 0.05 0.75 0.45
v 0.15 0.75 0.45
v 0.05 0.75 0.35
v 0.15 0.75 0.35
v 0.05 0.75 0.25
v 0.15 0.75 0.25
v 0.05 0.75 -0.25
v 0.15 0.75 -0.25
v 0.05 0.75 -0.35
v 0.15 0.75 -0.35
v 0.05 0.75 -0.45
v 0.15 0.75 -0.45
v 0.05 0.75 -0.55
v 0.15 0.75 -0.55
v 0.05 0.75 -0.85
v 0.15 0.75 -0.85
v 0.05 0.75 -0.95
v 0.15 0.75 -0.95
v 0.05 0.75 -1.05
v 0.15 0.75 -1.05
v 0.05 0.75 -1.15
v 0.15 0.75 -1.15
v -0.15 0.85 1.85
v -0.05 0.85 1.85
v -0.15 0.85 -1.85
v -0.05 0.85 -1.85
v -0.05 0.95 1.95
v 0.05 0.95 1.95
v -0.05 0.95 -1.95
v 0.05 0.95 -1.95

# faces
f 3/5/1 2/5/1 1/5/1
f 4/5/1 2/5/1 3/5/1
f 9/5/1 6/5/1 5/5/1
f 10/5/1 8/5/1 7/5/1
f 11/5/1 9/5/1 5/5/1
f 11/5/1 10/5/1 9/5/1
f 12/5/1 8/5/1 10/5/1
f 12/5/1 10/5/1 11/5/1
f 15/3/1 14/3/1 13/3/1
f 16/3/1 14/3/1 15/3/1
f 19/3/1 18/3/1 17/3/1
f 20/3/1 18/3/1 19/3/1
f 21/5/2 22/5/2 23/5/2
f 23/5/2 22/5/2 24/5/2
f 25/5/2 26/5/2 27/5/2
f 27/5/2 26/5/2 28/5/2
f 29/5/2 30/5/2 31/5/2
f 31/5/2 30/5/2 32/5/2
f 31/4/2 32/4/2 33/4/2
f 33/4/2 32/4/2 34/4/2
f 34/4/2 32/4/2 35/4/2
f 35/4/2 32/4/2 36/4/2
f 36/4/2 32/4/2 37/4/2
f 37/4/2 32/4/2 38/4/2
f 38/4/2 32/4/2 39/4/2
f 39/4/2 32/4/2 40/4/2
f 40/4/2 32/4/2 41/4/2
f 41/4/2 32/4/2 42/4/2
f 42/4/2 32/4/2 43/4/2
f 43/4/2 32/4/2 44/4/2
f 44/4/2 32/4/2 45/4/2
f 45/4/2 32/4/2 46/4/2
f 46/4/2 32/4/2 47/4/2
f 47/4/2 32/4/2 48/4/2
f 48/4/2 32/4/2 49/4/2
f 49/4/2 32/4/2 50/4/2
f 50/4/2 32/4/2 51/4/2
f 51/4/2 32/4/2 52/4/2
f 52/4/2 32/4/2 53/4/2
f 53/4/2 32/4/2 54/4/2
f 54/4/2 32/4/2 55/4/2
f 55/4/2 32/4/2 56/4/2
f 56/4/2 32/4/2 57/4/2
f 57/4/2 32/4/2 58/4/2
f 58/4/2 32/4/2 59/4/2
f 59/4/2 32/4/2 60/4/2
f 60/4/2 32/4/2 61/4/2
f 61/4/2 32/4/2 62/4/2
f 62/4/2 32/4/2 63/4/2
f 63/4/2 32/4/2 64/4/2
f 64/4/2 32/4/2 65/4/2
f 65/4/2 32/4/2 66/4/2
f 66/4/2 32/4/2 67/4/2
f 67/4/2 32/4/2 68/4/2
f 31/4/2 33/4/2 69/4/2
f 34/4/2 35/4/2 70/4/2
f 35/1/2 36/1/2 71/1/2
f 70/4/2 35/4/2 71/4/2
f 36/4/2 37/4/2 72/4/2
f 71/1/2 36/1/2 72/1/2
f 37/1/2 38/1/2 73/1/2
f 72/4/2 37/4/2 73/4/2
f 38/4/2 39/4/2 74/4/2
f 73/1/2 38/1/2 74/1/2
f 39/1/2 40/1/2 75/1/2
f 74/4/2 39/4/2 75/4/2
f 40/4/2 41/4/2 76/4/2
f 75/1/2 40/1/2 76/1/2
f 76/4/2 41/4/2 77/4/2
f 42/4/2 43/4/2 78/4/2
f 43/1/2 44/1/2 79/1/2
f 78/4/2 43/4/2 79/4/2
f 44/4/2 45/4/2 80/4/2
f 79/1/2 44/1/2 80/1/2
f 45/1/2 46/1/2 81/1/2
f 80/4/2 45/4/2 81/4/2
f 46/4/2 47/4/2 82/4/2
f 81/1/2 46/1/2 82/1/2
f 47/1/2 48/1/2 83/1/2
f 82/4/2 47/4/2 83/4/2
f 48/4/2 49/4/2 84/4/2
f 83/1/2 48/1/2 84/1/2
f 84/4/2 49/4/2 85/4/2
f 50/4/2 51/4/2 86/4/2
f 86/4/2 51/4/2 87/4/2
f 52/4/2 53/4/2 88/4/2
f 53/1/2 54/1/2 89/1/2
f 88/4/2 53/4/2 89/4/2
f 54/4/2 55/4/2 90/4/2
f 89/1/2 54/1/2 90/1/2
f 55/1/2 56/1/2 91/1/2
f 90/4/2 55/4/2 91/4/2
f 56/4/2 57/4/2 92/4/2
f 91/1/2 56/1/2 92/1/2
f 92/4/2 57/4/2 93/4/2
f 58/4/2 59/4/2 94/4/2
f 94/4/2 59/4/2 95/4/2
f 60/4/2 61/4/2 96/4/2
f 96/4/2 61/4/2 97/4/2
f 62/4/2 63/4/2 98/4/2
f 63/1/2 64/1/2 99/1/2
f 98/4/2 63/4/2 99/4/2
f 64/4/2 65/4/2 100/4/2
f 99/1/2 64/1/2 100/1/2
f 100/4/2 65/4/2 101/4/2
f 66/4/2 67/4/2 102/4/2
f 67/1/2 68/1/2 103/1/2
f 102/4/2 67/4/2 103/4/2
f 68/4/2 32/4/2 104/4/2
f 103/1/2 68/1/2 104/1/2
f 31/4/2 69/4/2 105/4/2
f 69/1/2 70/1/2 105/1/2
f 70/4/2 71/4/2 106/4/2
f 105/1/2 70/1/2 106/1/2
f 106/4/2 71/4/2 107/4/2
f 72/4/2 73/4/2 108/4/2
f 108/4/2 73/4/2 109/4/2
f 74/4/2 75/4/2 110/4/2
f 110/4/2 75/4/2 111/4/2
f 76/4/2 77/4/2 112/4/2
f 77/1/2 78/1/2 113/1/2
f 112/4/2 77/4/2 113/4/2
f 78/4/2 79/4/2 114/4/2
f 113/1/2 78/1/2 114/1/2
f 114/4/2 79/4/2 115/4/2
f 80/4/2 81/4/2 116/4/2
f 116/4/2 81/4/2 117/4/2
f 82/4/2 83/4/2 118/4/2
f 118/4/2 83/4/2 119/4/2
f 84/4/2 85/4/2 120/4/2
f 85/1/2 86/1/2 121/1/2
f 120/4/2 85/4/2 121/4/2
f 86/4/2 87/4/2 122/4/2
f 121/1/2 86/1/2 122/1/2
f 87/1/2 88/1/2 123/1/2
f 122/4/2 87/4/2 123/4/2
f 88/4/2 89/4/2 124/4/2
f 123/1/2 88/1/2 124/1/2
f 124/4/2 89/4/2 125/4/2
f 90/4/2 91/4/2 126/4/2
f 126/4/2 91/4/2 127/4/2
f 92/4/2 93/4/2 128/4/2
f 93/1/2 94/1/2 129/1/2
f 128/4/2 93/4/2 129/4/2
f 94/4/2 95/4/2 130/4/2
f 129/1/2 94/1/2 130/1/2
f 95/1/2 96/1/2 131/1/2
f 130/4/2 95/4/2 131/4/2
f 96/4/2 97/4/2 132/4/2
f 131/1/2 96/1/2 132/1/2
f 97/1/2 98/1/2 133/1/2
f 132/4/2 97/4/2 133/4/2
f 98/4/2 99/4/2 134/4/2
f 133/1/2 98/1/2 134/1/2
f 134/4/2 99/4/2 135/4/2
f 100/4/2 101/4/2 136/4/2
f 101/1/2 102/1/2 137/1/2
f 136/4/2 101/4/2 137/4/2
f 102/4/2 103/4/2 138/4/2
f 137/1/2 102/1/2 138/1/2
f 138/4/2 103/4/2 139/4/2
f 104/4/2 32/4/2 140/4/2
f 136/4/2 137/4/2 141/4/2
f 139/4/2 140/4/2 141/4/2
f 135/4/2 136/4/2 141/4/2
f 138/4/2 139/4/2 141/4/2
f 137/4/2 138/4/2 141/4/2
f 31/4/2 105/4/2 141/4/2
f 133/4/2 134/4/2 141/4/2
f 106/4/2 107/4/2 141/4/2
f 125/4/2 126/4/2 141/4/2
f 129/4/2 130/4/2 141/4/2
f 123/4/2 124/4/2 141/4/2
f 108/4/2 109/4/2 141/4/2
f 117/4/2 118/4/2 141/4/2
f 134/4/2 135/4/2 141/4/2
f 115/4/2 116/4/2 141/4/2
f 110/4/2 111/4/2 141/4/2
f 113/4/2 114/4/2 141/4/2
f 111/4/2 112/4/2 141/4/2
f 109/4/2 110/4/2 141/4/2
f 112/4/2 113/4/2 141/4/2
f 107/4/2 108/4/2 141/4/2
f 114/4/2 115/4/2 141/4/2
f 105/4/2 106/4/2 141/4/2
f 127/4/2 128/4/2 141/4/2
f 119/4/2 120/4/2 141/4/2
f 116/4/2 117/4/2 141/4/2
f 132/4/2 133/4/2 141/4/2
f 118/4/2 119/4/2 141/4/2
f 128/4/2 129/4/2 141/4/2
f 126/4/2 127/4/2 141/4/2
f 130/4/2 131/4/2 141/4/2
f 124/4/2 125/4/2 141/4/2
f 131/4/2 132/4/2 141/4/2
f 122/4/2 123/4/2 141/4/2
f 121/4/2 122/4/2 141/4/2
f 120/4/2 121/4/2 141/4/2
f 141/4/2 140/4/2 142/4/2
f 142/4/2 140/4/2 143/4/2
f 143/4/2 140/4/2 144/4/2
f 144/4/2 140/4/2 145/4/2
f 145/4/2 140/4/2 146/4/2
f 146/4/2 140/4/2 147/4/2
f 147/4/2 140/4/2 148/4/2
f 148/4/2 140/4/2 149/4/2
f 149/4/2 140/4/2 150/4/2
f 150/4/2 140/4/2 151/4/2
f 151/4/2 140/4/2 152/4/2
f 152/4/2 140/4/2 153/4/2
f 153/4/2 140/4/2 154/4/2
f 154/4/2 140/4/2 155/4/2
f 155/4/2 140/4/2 156/4/2
f 156/4/2 140/4/2 157/4/2
f 157/4/2 140/4/2 158/4/2
f 158/4/2 140/4/2 159/4/2
f 159/4/2 140/4/2 160/4/2
f 160/4/2 140/4/2 161/4/2
f 161/4/2 140/4/2 162/4/2
f 162/4/2 140/4/2 163/4/2
f 163/4/2 140/4/2 164/4/2
f 164/4/2 140/4/2 165/4/2
f 165/4/2 140/4/2 166/4/2
f 166/4/2 140/4/2 167/4/2
f 167/4/2 140/4/2 168/4/2
f 168/4/2 140/4/2 169/4/2
f 169/4/2 140/4/2 170/4/2
f 170/4/2 140/4/2 171/4/2
f 171/4/2 140/4/2 172/4/2
f 172/4/2 140/4/2 173/4/2
f 173/4/2 140/4/2 174/4/2
f 174/4/2 140/4/2 175/4/2
f 140/4/2 32/4/2 176/4/2
f 175/4/2 140/4/2 176/4/2
f 31/4/2 141/4/2 177/4/2
f 141/1/2 142/1/2 177/1/2
f 142/4/2 143/4/2 178/4/2
f 177/1/2 142/1/2 178/1/2
f 143/1/2 144/1/2 179/1/2
f 178/4/2 143/4/2 179/4/2
f 144/4/2 145/4/2 180/4/2
f 179/1/2 144/1/2 180/1/2
f 145/1/2 146/1/2 181/1/2
f 180/4/2 145/4/2 181/4/2
f 146/4/2 147/4/2 182/4/2
f 181/1/2 146/1/2 182/1/2
f 182/4/2 147/4/2 183/4/2
f 148/4/2 149/4/2 184/4/2
f 149/1/2 150/1/2 185/1/2
f 184/4/2 149/4/2 185/4/2
f 150/4/2 151/4/2 186/4/2
f 185/1/2 150/1/2 186/1/2
f 151/1/2 152/1/2 187/1/2
f 186/4/2 151/4/2 187/4/2
f 152/4/2 153/4/2 188/4/2
f 187/1/2 152/1/2 188/1/2
f 153/1/2 154/1/2 189/1/2
f 188/4/2 153/4/2 189/4/2
f 154/4/2 155/4/2 190/4/2
f 189/1/2 154/1/2 190/1/2
f 155/1/2 156/1/2 191/1/2
f 190/4/2 155/4/2 191/4/2
f 156/4/2 157/4/2 192/4/2
f 191/1/2 156/1/2 192/1/2
f 157/1/2 158/1/2 193/1/2
f 192/4/2 157/4/2 193/4/2
f 158/4/2 159/4/2 194/4/2
f 193/1/2 158/1/2 194/1/2
f 159/1/2 160/1/2 195/1/2
f 194/4/2 159/4/2 195/4/2
f 160/4/2 161/4/2 196/4/2
f 195/1/2 160/1/2 196/1/2
f 196/4/2 161/4/2 197/4/2
f 162/4/2 163/4/2 198/4/2
f 198/4/2 163/4/2 199/4/2
f 164/4/2 165/4/2 200/4/2
f 165/1/2 166/1/2 201/1/2
f 200/4/2 165/4/2 201/4/2
f 166/4/2 167/4/2 202/4/2
f 201/1/2 166/1/2 202/1/2
f 167/1/2 168/1/2 203/1/2
f 202/4/2 167/4/2 203/4/2
f 168/4/2 169/4/2 204/4/2
f 203/1/2 168/1/2 204/1/2
f 169/1/2 170/1/2 205/1/2
f 204/4/2 169/4/2 205/4/2
f 170/4/2 171/4/2 206/4/2
f 205/1/2 170/1/2 206/1/2
f 171/1/2 172/1/2 207/1/2
f 206/4/2 171/4/2 207/4/2
f 172/4/2 173/4/2 208/4/2
f 207/1/2 172/1/2 208/1/2
f 173/1/2 174/1/2 209/1/2
f 208/4/2 173/4/2 209/4/2
f 174/4/2 175/4/2 210/4/2
f 209/1/2 174/1/2 210/1/2
f 175/1/2 176/1/2 211/1/2
f 210/4/2 175/4/2 211/4/2
f 176/4/2 32/4/2 212/4/2
f 211/1/2 176/1/2 212/1/2
f 31/4/2 177/4/2 213/4/2
f 178/4/2 179/4/2 214/4/2
f 214/4/2 179/4/2 215/4/2
f 180/4/2 181/4/2 216/4/2
f 216/4/2 181/4/2 217/4/2
f 182/4/2 183/4/2 218/4/2
f 183/1/2 184/1/2 219/1/2
f 218/4/2 183/4/2 219/4/2
f 184/4/2 185/4/2 220/4/2
f 219/1/2 184/1/2 220/1/2
f 220/4/2 185/4/2 221/4/2
f 186/4/2 187/4/2 222/4/2
f 222/4/2 187/4/2 223/4/2
f 188/4/2 189/4/2 224/4/2
f 224/4/2 189/4/2 225/4/2
f 190/4/2 191/4/2 226/4/2
f 226/4/2 191/4/2 227/4/2
f 192/4/2 193/4/2 228/4/2
f 228/4/2 193/4/2 229/4/2
f 194/4/2 195/4/2 230/4/2
f 230/4/2 195/4/2 231/4/2
f 196/4/2 197/4/2 232/4/2
f 197/1/2 198/1/2 233/1/2
f 232/4/2 197/4/2 233/4/2
f 198/4/2 199/4/2 234/4/2
f 233/1/2 198/1/2 234/1/2
f 199/1/2 200/1/2 235/1/2
f 234/4/2 199/4/2 235/4/2
f 200/4/2 201/4/2 236/4/2
f 235/1/2 200/1/2 236/1/2
f 236/4/2 201/4/2 237/4/2
f 202/4/2 203/4/2 238/4/2
f 238/4/2 203/4/2 239/4/2
f 204/4/2 205/4/2 240/4/2
f 240/4/2 205/4/2 241/4/2
f 206/4/2 207/4/2 242/4/2
f 242/4/2 207/4/2 243/4/2
f 208/4/2 209/4/2 244/4/2
f 244/4/2 209/4/2 245/4/2
f 210/4/2 211/4/2 246/4/2
f 246/4/2 211/4/2 247/4/2
f 212/4/2 32/4/2 248/4/2
f 242/4/2 243/4/2 249/4/2
f 247/4/2 248/4/2 249/4/2
f 244/4/2 245/4/2 249/4/2
f 246/4/2 247/4/2 249/4/2
f 245/4/2 246/4/2 249/4/2
f 231/4/2 232/4/2 249/4/2
f 243/4/2 244/4/2 249/4/2
f 31/4/2 213/4/2 249/4/2
f 241/4/2 242/4/2 249/4/2
f 214/4/2 215/4/2 249/4/2
f 239/4/2 240/4/2 249/4/2
f 216/4/2 217/4/2 249/4/2
f 237/4/2 238/4/2 249/4/2
f 217/4/2 218/4/2 249/4/2
f 235/4/2 236/4/2 249/4/2
f 218/4/2 219/4/2 249/4/2
f 229/4/2 230/4/2 249/4/2
f 238/4/2 239/4/2 249/4/2
f 227/4/2 228/4/2 249/4/2
f 220/4/2 221/4/2 249/4/2
f 225/4/2 226/4/2 249/4/2
f 236/4/2 237/4/2 249/4/2
f 223/4/2 224/4/2 249/4/2
f 222/4/2 223/4/2 249/4/2
f 221/4/2 222/4/2 249/4/2
f 234/4/2 235/4/2 249/4/2
f 219/4/2 220/4/2 249/4/2
f 224/4/2 225/4/2 249/4/2
f 215/4/2 216/4/2 249/4/2
f 233/4/2 234/4/2 249/4/2
f 213/4/2 214/4/2 249/4/2
f 226/4/2 227/4/2 249/4/2
f 230/4/2 231/4/2 249/4/2
f 240/4/2 241/4/2 249/4/2
f 228/4/2 229/4/2 249/4/2
f 232/4/2 233/4/2 249/4/2
f 249/4/2 248/4/2 250/4/2
f 250/4/2 248/4/2 251/4/2
f 251/4/2 248/4/2 252/4/2
f 252/4/2 248/4/2 253/4/2
f 253/4/2 248/4/2 254/4/2
f 254/4/2 248/4/2 255/4/2
f 255/4/2 248/4/2 256/4/2
f 256/4/2 248/4/2 257/4/2
f 257/4/2 248/4/2 258/4/2
f 258/4/2 248/4/2 259/4/2
f 259/4/2 248/4/2 260/4/2
f 260/4/2 248/4/2 261/4/2
f 261/4/2 248/4/2 262/4/2
f 262/4/2 248/4/2 263/4/2
f 263/4/2 248/4/2 264/4/2
f 264/4/2 248/4/2 265/4/2
f 265/4/2 248/4/2 266/4/2
f 266/4/2 248/4/2 267/4/2
f 267/4/2 248/4/2 268/4/2
f 268/4/2 248/4/2 269/4/2
f 269/4/2 248/4/2 270/4/2
f 270/4/2 248/4/2 271/4/2
f 271/4/2 248/4/2 272/4/2
f 272/4/2 248/4/2 273/4/2
f 273/4/2 248/4/2 274/4/2
f 274/4/2 248/4/2 275/4/2
f 275/4/2 248/4/2 276/4/2
f 276/4/2 248/4/2 277/4/2
f 277/4/2 248/4/2 278/4/2
f 278/4/2 248/4/2 279/4/2
f 279/4/2 248/4/2 280/4/2
f 280/4/2 248/4/2 281/4/2
f 281/4/2 248/4/2 282/4/2
f 282/4/2 248/4/2 283/4/2
f 248/4/2 32/4/2 284/4/2
f 283/4/2 248/4/2 284/4/2
f 31/4/2 249/4/2 285/4/2
f 250/4/2 251/4/2 286/4/2
f 251/1/2 252/1/2 287/1/2
f 286/4/2 251/4/2 287/4/2
f 252/4/2 253/4/2 288/4/2
f 287/1/2 252/1/2 288/1/2
f 253/1/2 254/1/2 289/1/2
f 288/4/2 253/4/2 289/4/2
f 254/4/2 255/4/2 290/4/2
f 289/1/2 254/1/2 290/1/2
f 255/1/2 256/1/2 291/1/2
f 290/4/2 255/4/2 291/4/2
f 256/4/2 257/4/2 292/4/2
f 291/1/2 256/1/2 292/1/2
f 257/1/2 258/1/2 293/1/2
f 292/4/2 257/4/2 293/4/2
f 258/4/2 259/4/2 294/4/2
f 293/1/2 258/1/2 294/1/2
f 294/4/2 259/4/2 295/4/2
f 260/4/2 261/4/2 296/4/2
f 261/1/2 262/1/2 297/1/2
f 296/4/2 261/4/2 297/4/2
f 262/4/2 263/4/2 298/4/2
f 297/1/2 262/1/2 298/1/2
f 263/1/2 264/1/2 299/1/2
f 298/4/2 263/4/2 299/4/2
f 264/4/2 265/4/2 300/4/2
f 299/1/2 264/1/2 300/1/2
f 265/1/2 266/1/2 301/1/2
f 300/4/2 265/4/2 301/4/2
f 266/4/2 267/4/2 302/4/2
f 301/1/2 266/1/2 302/1/2
f 267/1/2 268/1/2 303/1/2
f 302/4/2 267/4/2 303/4/2
f 268/4/2 269/4/2 304/4/2
f 303/1/2 268/1/2 304/1/2
f 269/1/2 270/1/2 305/1/2
f 304/4/2 269/4/2 305/4/2
f 270/4/2 271/4/2 306/4/2
f 305/1/2 270/1/2 306/1/2
f 271/1/2 272/1/2 307/1/2
f 306/4/2 271/4/2 307/4/2
f 272/4/2 273/4/2 308/4/2
f 307/1/2 272/1/2 308/1/2
f 308/4/2 273/4/2 309/4/2
f 274/4/2 275/4/2 310/4/2
f 275/1/2 276/1/2 311/1/2
f 310/4/2 275/4/2 311/4/2
f 276/4/2 277/4/2 312/4/2
f 311/1/2 276/1/2 312/1/2
f 277/1/2 278/1/2 313/1/2
f 312/4/2 277/4/2 313/4/2
f 278/4/2 279/4/2 314/4/2
f 313/1/2 278/1/2 314/1/2
f 279/1/2 280/1/2 315/1/2
f 314/4/2 279/4/2 315/4/2
f 280/4/2 281/4/2 316/4/2
f 315/1/2 280/1/2 316/1/2
f 316/4/2 281/4/2 317/4/2
f 282/4/2 283/4/2 318/4/2
f 283/1/2 284/1/2 319/1/2
f 318/4/2 283/4/2 319/4/2
f 284/4/2 32/4/2 320/4/2
f 319/1/2 284/1/2 320/1/2
f 31/4/2 285/4/2 321/4/2
f 285/1/2 286/1/2 321/1/2
f 286/4/2 287/4/2 322/4/2
f 321/1/2 286/1/2 322/1/2
f 322/4/2 287/4/2 323/4/2
f 288/4/2 289/4/2 324/4/2
f 324/4/2 289/4/2 325/4/2
f 290/4/2 291/4/2 326/4/2
f 326/4/2 291/4/2 327/4/2
f 292/4/2 293/4/2 328/4/2
f 328/4/2 293/4/2 329/4/2
f 294/4/2 295/4/2 330/4/2
f 295/1/2 296/1/2 331/1/2
f 330/4/2 295/4/2 331/4/2
f 296/4/2 297/4/2 332/4/2
f 331/1/2 296/1/2 332/1/2
f 332/4/2 297/4/2 333/4/2
f 298/4/2 299/4/2 334/4/2
f 334/4/2 299/4/2 335/4/2
f 300/4/2 301/4/2 336/4/2
f 336/4/2 301/4/2 337/4/2
f 302/4/2 303/4/2 338/4/2
f 338/4/2 303/4/2 339/4/2
f 304/4/2 305/4/2 340/4/2
f 340/4/2 305/4/2 341/4/2
f 306/4/2 307/4/2 342/4/2
f 342/4/2 307/4/2 343/4/2
f 308/4/2 309/4/2 344/4/2
f 309/1/2 310/1/2 345/1/2
f 344/4/2 309/4/2 345/4/2
f 310/4/2 311/4/2 346/4/2
f 345/1/2 310/1/2 346/1/2
f 346/4/2 311/4/2 347/4/2
f 312/4/2 313/4/2 348/4/2
f 348/4/2 313/4/2 349/4/2
f 314/4/2 315/4/2 350/4/2
f 350/4/2 315/4/2 351/4/2
f 316/4/2 317/4/2 352/4/2
f 317/1/2 318/1/2 353/1/2
f 352/4/2 317/4/2 353/4/2
f 318/4/2 319/4/2 354/4/2
f 353/1/2 318/1/2 354/1/2
f 354/4/2 319/4/2 355/4/2
f 320/4/2 32/4/2 356/4/2
f 350/4/2 351/4/2 357/4/2
f 355/4/2 356/4/2 357/4/2
f 352/4/2 353/4/2 357/4/2
f 351/4/2 352/4/2 357/4/2
f 353/4/2 354/4/2 357/4/2
f 354/4/2 355/4/2 357/4/2
f 349/4/2 350/4/2 357/4/2
f 31/4/2 321/4/2 357/4/2
f 347/4/2 348/4/2 357/4/2
f 322/4/2 323/4/2 357/4/2
f 345/4/2 346/4/2 357/4/2
f 324/4/2 325/4/2 357/4/2
f 341/4/2 342/4/2 357/4/2
f 326/4/2 327/4/2 357/4/2
f 339/4/2 340/4/2 357/4/2
f 348/4/2 349/4/2 357/4/2
f 337/4/2 338/4/2 357/4/2
f 328/4/2 329/4/2 357/4/2
f 335/4/2 336/4/2 357/4/2
f 329/4/2 330/4/2 357/4/2
f 333/4/2 334/4/2 357/4/2
f 330/4/2 331/4/2 357/4/2
f 331/4/2 332/4/2 357/4/2
f 346/4/2 347/4/2 357/4/2
f 327/4/2 328/4/2 357/4/2
f 332/4/2 333/4/2 357/4/2
f 325/4/2 326/4/2 357/4/2
f 344/4/2 345/4/2 357/4/2
f 323/4/2 324/4/2 357/4/2
f 334/4/2 335/4/2 357/4/2
f 321/4/2 322/4/2 357/4/2
f 340/4/2 341/4/2 357/4/2
f 338/4/2 339/4/2 357/4/2
f 342/4/2 343/4/2 357/4/2
f 336/4/2 337/4/2 357/4/2
f 343/4/2 344/4/2 357/4/2
f 357/4/2 356/4/2 358/4/2
f 358/4/2 356/4/2 359/4/2
f 359/4/2 356/4/2 360/4/2
f 360/4/2 356/4/2 361/4/2
f 361/4/2 356/4/2 362/4/2
f 362/4/2 356/4/2 363/4/2
f 363/4/2 356/4/2 364/4/2
f 364/4/2 356/4/2 365/4/2
f 365/4/2 356/4/2 366/4/2
f 366/4/2 356/4/2 367/4/2
f 367/4/2 356/4/2 368/4/2
f 368/4/2 356/4/2 369/4/2
f 369/4/2 356/4/2 370/4/2
f 370/4/2 356/4/2 371/4/2
f 371/4/2 356/4/2 372/4/2
f 372/4/2 356/4/2 373/4/2
f 373/4/2 356/4/2 374/4/2
f 374/4/2 356/4/2 375/4/2
f 375/4/2 356/4/2 376/4/2
f 376/4/2 356/4/2 377/4/2
f 377/4/2 356/4/2 378/4/2
f 378/4/2 356/4/2 379/4/2
f 379/4/2 356/4/2 380/4/2
f 380/4/2 356/4/2 381/4/2
f 381/4/2 356/4/2 382/4/2
f 382/4/2 356/4/2 383/4/2
f 383/4/2 356/4/2 384/4/2
f 384/4/2 356/4/2 385/4/2
f 385/4/2 356/4/2 386/4/2
f 386/4/2 356/4/2 387/4/2
f 387/4/2 356/4/2 388/4/2
f 388/4/2 356/4/2 389/4/2
f 389/4/2 356/4/2 390/4/2
f 390/4/2 356/4/2 391/4/2
f 356/4/2 32/4/2 392/4/2
f 391/4/2 356/4/2 392/4/2
f 31/4/2 357/4/2 393/4/2
f 357/1/2 358/1/2 393/1/2
f 358/4/2 359/4/2 394/4/2
f 393/1/2 358/1/2 394/1/2
f 359/1/2 360/1/2 395/1/2
f 394/4/2 359/4/2 395/4/2
f 360/4/2 361/4/2 396/4/2
f 395/1/2 360/1/2 396/1/2
f 361/1/2 362/1/2 397/1/2
f 396/4/2 361/4/2 397/4/2
f 362/4/2 363/4/2 398/4/2
f 397/1/2 362/1/2 398/1/2
f 398/4/2 363/4/2 399/4/2
f 364/4/2 365/4/2 400/4/2
f 400/4/2 365/4/2 401/4/2
f 366/4/2 367/4/2 402/4/2
f 402/4/2 367/4/2 403/4/2
f 368/4/2 369/4/2 404/4/2
f 369/1/2 370/1/2 405/1/2
f 404/4/2 369/4/2 405/4/2
f 370/4/2 371/4/2 406/4/2
f 405/1/2 370/1/2 406/1/2
f 371/1/2 372/1/2 407/1/2
f 406/4/2 371/4/2 407/4/2
f 372/4/2 373/4/2 408/4/2
f 407/1/2 372/1/2 408/1/2
f 408/4/2 373/4/2 409/4/2
f 374/4/2 375/4/2 410/4/2
f 410/4/2 375/4/2 411/4/2
f 376/4/2 377/4/2 412/4/2
f 377/1/2 378/1/2 413/1/2
f 412/4/2 377/4/2 413/4/2
f 378/4/2 379/4/2 414/4/2
f 413/1/2 378/1/2 414/1/2
f 379/1/2 380/1/2 415/1/2
f 414/4/2 379/4/2 415/4/2
f 380/4/2 381/4/2 416/4/2
f 415/1/2 380/1/2 416/1/2
f 416/4/2 381/4/2 417/4/2
f 382/4/2 383/4/2 418/4/2
f 383/1/2 384/1/2 419/1/2
f 418/4/2 383/4/2 419/4/2
f 384/4/2 385/4/2 420/4/2
f 419/1/2 384/1/2 420/1/2
f 385/1/2 386/1/2 421/1/2
f 420/4/2 385/4/2 421/4/2
f 386/4/2 387/4/2 422/4/2
f 421/1/2 386/1/2 422/1/2
f 422/4/2 387/4/2 423/4/2
f 388/4/2 389/4/2 424/4/2
f 424/4/2 389/4/2 425/4/2
f 390/4/2 391/4/2 426/4/2
f 426/4/2 391/4/2 427/4/2
f 392/4/2 32/4/2 428/4/2
f 31/4/2 393/4/2 429/4/2
f 394/4/2 395/4/2 430/4/2
f 430/4/2 395/4/2 431/4/2
f 396/4/2 397/4/2 432/4/2
f 432/4/2 397/4/2 433/4/2
f 398/4/2 399/4/2 434/4/2
f 399/1/2 400/1/2 435/1/2
f 434/4/2 399/4/2 435/4/2
f 400/4/2 401/4/2 436/4/2
f 435/1/2 400/1/2 436/1/2
f 401/1/2 402/1/2 437/1/2
f 436/4/2 401/4/2 437/4/2
f 402/4/2 403/4/2 438/4/2
f 437/1/2 402/1/2 438/1/2
f 403/1/2 404/1/2 439/1/2
f 438/4/2 403/4/2 439/4/2
f 404/4/2 405/4/2 440/4/2
f 439/1/2 404/1/2 440/1/2
f 440/4/2 405/4/2 441/4/2
f 406/4/2 407/4/2 442/4/2
f 442/4/2 407/4/2 443/4/2
f 408/4/2 409/4/2 444/4/2
f 409/1/2 410/1/2 445/1/2
f 444/4/2 409/4/2 445/4/2
f 410/4/2 411/4/2 446/4/2
f 445/1/2 410/1/2 446/1/2
f 411/1/2 412/1/2 447/1/2
f 446/4/2 411/4/2 447/4/2
f 412/4/2 413/4/2 448/4/2
f 447/1/2 412/1/2 448/1/2
f 448/4/2 413/4/2 449/4/2
f 414/4/2 415/4/2 450/4/2
f 450/4/2 415/4/2 451/4/2
f 416/4/2 417/4/2 452/4/2
f 417/1/2 418/1/2 453/1/2
f 452/4/2 417/4/2 453/4/2
f 418/4/2 419/4/2 454/4/2
f 453/1/2 418/1/2 454/1/2
f 454/4/2 419/4/2 455/4/2
f 420/4/2 421/4/2 456/4/2
f 456/4/2 421/4/2 457/4/2
f 422/4/2 423/4/2 458/4/2
f 423/1/2 424/1/2 459/1/2
f 458/4/2 423/4/2 459/4/2
f 424/4/2 425/4/2 460/4/2
f 459/1/2 424/1/2 460/1/2
f 425/1/2 426/1/2 461/1/2
f 460/4/2 425/4/2 461/4/2
f 426/4/2 427/4/2 462/4/2
f 461/1/2 426/1/2 462/1/2
f 427/1/2 428/1/2 463/1/2
f 462/4/2 427/4/2 463/4/2
f 428/4/2 32/4/2 464/4/2
f 463/1/2 428/1/2 464/1/2
f 29/5/2 31/5/2 465/5/2
f 458/4/2 459/4/2 465/4/2
f 463/4/2 464/4/2 465/4/2
f 460/4/2 461/4/2 465/4/2
f 455/4/2 456/4/2 465/4/2
f 456/4/2 457/4/2 465/4/2
f 453/4/2 454/4/2 465/4/2
f 461/4/2 462/4/2 465/4/2
f 449/4/2 450/4/2 465/4/2
f 462/4/2 463/4/2 465/4/2
f 447/4/2 448/4/2 465/4/2
f 31/4/2 429/4/2 465/4/2
f 441/4/2 442/4/2 465/4/2
f 430/4/2 431/4/2 465/4/2
f 439/4/2 440/4/2 465/4/2
f 454/4/2 455/4/2 465/4/2
f 431/4/2 432/4/2 465/4/2
f 432/4/2 433/4/2 465/4/2
f 429/4/2 430/4/2 465/4/2
f 459/4/2 460/4/2 465/4/2
f 434/4/2 435/4/2 465/4/2
f 443/4/2 444/4/2 465/4/2
f 452/4/2 453/4/2 465/4/2
f 436/4/2 437/4/2 465/4/2
f 437/4/2 438/4/2 465/4/2
f 435/4/2 436/4/2 465/4/2
f 438/4/2 439/4/2 465/4/2
f 433/4/2 434/4/2 465/4/2
f 440/4/2 441/4/2 465/4/2
f 451/4/2 452/4/2 465/4/2
f 448/4/2 449/4/2 465/4/2
f 457/4/2 458/4/2 465/4/2
f 446/4/2 447/4/2 465/4/2
f 445/4/2 446/4/2 465/4/2
f 444/4/2 445/4/2 465/4/2
f 450/4/2 451/4/2 465/4/2
f 442/4/2 443/4/2 465/4/2
f 464/4/2 32/4/2 466/4/2
f 465/4/2 464/4/2 466/4/2
f 32/5/2 30/5/2 466/5/2
f 29/5/2 465/5/2 467/5/2
f 465/5/2 466/5/2 467/5/2
f 466/5/2 30/5/2 468/5/2
f 467/5/2 466/5/2 468/5/2
f 469/3/2 470/3/2 485/3/2
f 485/3/2 470/3/2 486/3/2
f 471/3/2 472/3/2 493/3/2
f 493/3/2 472/3/2 494/3/2
f 473/3/2 474/3/2 501/3/2
f 501/3/2 474/3/2 502/3/2
f 475/3/2 476/3/2 503/3/2
f 503/3/2 476/3/2 504/3/2
f 477/3/2 478/3/2 509/3/2
f 509/3/2 478/3/2 510/3/2
f 479/3/2 480/3/2 511/3/2
f 511/3/2 480/3/2 512/3/2
f 481/3/2 482/3/2 513/3/2
f 513/3/2 482/3/2 514/3/2
f 483/3/2 484/3/2 517/3/2
f 517/3/2 484/3/2 518/3/2
f 487/2/2 488/2/2 521/2/2
f 521/2/2 488/2/2 522/2/2
f 489/2/2 490/2/2 523/2/2
f 523/2/2 490/2/2 524/2/2
f 491/2/2 492/2/2 525/2/2
f 525/2/2 492/2/2 526/2/2
f 495/2/2 496/2/2 527/2/2
f 527/2/2 496/2/2 528/2/2
f 497/2/2 498/2/2 529/2/2
f 529/2/2 498/2/2 530/2/2
f 499/2/2 500/2/2 531/2/2
f 531/2/2 500/2/2 532/2/2
f 505/2/2 506/2/2 533/2/2
f 533/2/2 506/2/2 534/2/2
f 507/2/2 508/2/2 535/2/2
f 535/2/2 508/2/2 536/2/2
f 515/2/2 516/2/2 537/2/2
f 537/2/2 516/2/2 538/2/2
f 519/2/2 520/2/2 539/2/2
f 539/2/2 520/2/2 540/2/2
f 541/3/2 542/3/2 553/3/2
f 553/3/2 542/3/2 554/3/2
f 543/3/2 544/3/2 567/3/2
f 567/3/2 544/3/2 568/3/2
f 545/3/2 546/3/2 569/3/2
f 569/3/2 546/3/2 570/3/2
f 547/2/2 548/2/2 583/2/2
f 583/2/2 548/2/2 584/2/2
f 549/2/2 550/2/2 585/2/2
f 585/2/2 550/2/2 586/2/2
f 551/2/2 552/2/2 587/2/2
f 587/2/2 552/2/2 588/2/2
f 555/2/2 556/2/2 589/2/2
f 589/2/2 556/2/2 590/2/2
f 557/2/2 558/2/2 591/2/2
f 591/2/2 558/2/2 592/2/2
f 559/2/2 560/2/2 593/2/2
f 593/2/2 560/2/2 594/2/2
f 561/2/2 562/2/2 595/2/2
f 595/2/2 562/2/2 596/2/2
f 563/2/2 564/2/2 597/2/2
f 597/2/2 564/2/2 598/2/2
f 565/2/2 566/2/2 599/2/2
f 599/2/2 566/2/2 600/2/2
f 571/2/2 572/2/2 601/2/2
f 601/2/2 572/2/2 602/2/2
f 573/2/2 574/2/2 603/2/2
f 603/2/2 574/2/2 604/2/2
f 575/2/2 576/2/2 605/2/2
f 605/2/2 576/2/2 606/2/2
f 577/2/2 578/2/2 607/2/2
f 607/2/2 578/2/2 608/2/2
f 579/2/2 580/2/2 609/2/2
f 609/2/2 580/2/2 610/2/2
f 581/2/2 582/2/2 611/2/2
f 611/2/2 582/2/2 612/2/2
f 613/3/2 614/3/2 621/3/2
f 621/3/2 614/3/2 622/3/2
f 615/3/2 616/3/2 631/3/2
f 631/3/2 616/3/2 632/3/2
f 617/3/2 618/3/2 645/3/2
f 645/3/2 618/3/2 646/3/2
f 619/3/2 620/3/2 653/3/2
f 653/3/2 620/3/2 654/3/2
f 623/2/2 624/2/2 657/2/2
f 657/2/2 624/2/2 658/2/2
f 625/2/2 626/2/2 659/2/2
f 659/2/2 626/2/2 660/2/2
f 627/2/2 628/2/2 661/2/2
f 661/2/2 628/2/2 662/2/2
f 629/2/2 630/2/2 663/2/2
f 663/2/2 630/2/2 664/2/2
f 633/2/2 634/2/2 665/2/2
f 665/2/2 634/2/2 666/2/2
f 635/2/2 636/2/2 667/2/2
f 667/2/2 636/2/2 668/2/2
f 637/2/2 638/2/2 669/2/2
f 669/2/2 638/2/2 670/2/2
f 639/2/2 640/2/2 671/2/2
f 671/2/2 640/2/2 672/2/2
f 641/2/2 642/2/2 673/2/2
f 673/2/2 642/2/2 674/2/2
f 643/2/2 644/2/2 675/2/2
f 675/2/2 644/2/2 676/2/2
f 647/2/2 648/2/2 677/2/2
f 677/2/2 648/2/2 678/2/2
f 649/2/2 650/2/2 679/2/2
f 679/2/2 650/2/2 680/2/2
f 651/2/2 652/2/2 681/2/2
f 681/2/2 652/2/2 682/2/2
f 655/2/2 656/2/2 683/2/2
f 683/2/2 656/2/2 684/2/2
f 685/3/2 686/3/2 709/3/2
f 709/3/2 686/3/2 710/3/2
f 687/3/2 688/3/2 711/3/2
f 711/3/2 688/3/2 712/3/2
f 689/3/2 690/3/2 713/3/2
f 713/3/2 690/3/2 714/3/2
f 691/3/2 692/3/2 719/3/2
f 719/3/2 692/3/2 720/3/2
f 693/3/2 694/3/2 721/3/2
f 721/3/2 694/3/2 722/3/2
f 695/3/2 696/3/2 727/3/2
f 727/3/2 696/3/2 728/3/2
f 697/3/2 698/3/2 733/3/2
f 733/3/2 698/3/2 734/3/2
f 699/3/2 700/3/2 735/3/2
f 735/3/2 700/3/2 736/3/2
f 701/3/2 702/3/2 737/3/2
f 737/3/2 702/3/2 738/3/2
f 703/2/2 704/2/2 739/2/2
f 739/2/2 704/2/2 740/2/2
f 705/2/2 706/2/2 741/2/2
f 741/2/2 706/2/2 742/2/2
f 707/2/2 708/2/2 743/2/2
f 743/2/2 708/2/2 744/2/2
f 715/2/2 716/2/2 745/2/2
f 745/2/2 716/2/2 746/2/2
f 717/2/2 718/2/2 747/2/2
f 747/2/2 718/2/2 748/2/2
f 723/2/2 724/2/2 749/2/2
f 749/2/2 724/2/2 750/2/2
f 725/2/2 726/2/2 751/2/2
f 751/2/2 726/2/2 752/2/2
f 729/2/2 730/2/2 753/2/2
f 753/2/2 730/2/2 754/2/2
f 731/2/2 732/2/2 755/2/2
f 755/2/2 732/2/2 756/2/2
f 759/5/3 758/5/3 757/5/3
f 760/5/3 758/5/3 759/5/3
f 763/5/3 762/5/3 761/5/3
f 764/5/3 762/5/3 763/5/3
f 773/3/3 766/3/3 765/3/3
f 774/3/3 766/3/3 773/3/3
f 775/2/3 768/2/3 767/2/3
f 776/2/3 768/2/3 775/2/3
f 777/3/3 770/3/3 769/3/3
f 778/3/3 770/3/3 777/3/3
f 779/2/3 772/2/3 771/2/3
f 780/2/3 772/2/3 779/2/3
f 785/4/3 782/4/3 781/4/3
f 786/4/3 782/4/3 785/4/3
f 787/4/3 784/4/3 783/4/3
f 788/4/3 784/4/3 787/4/3
f 797/2/3 790/2/3 789/2/3
f 798/2/3 790/2/3 797/2/3
f 799/2/3 792/2/3 791/2/3
f 800/2/3 792/2/3 799/2/3
f 801/2/3 794/2/3 793/2/3
f 802/2/3 794/2/3 801/2/3
f 803/2/3 796/2/3 795/2/3
f 804/2/3 796/2/3 803/2/3
f 813/2/3 806/2/3 805/2/3
f 814/2/3 806/2/3 813/2/3
f 815/2/3 808/2/3 807/2/3
f 816/2/3 808/2/3 815/2/3
f 817/2/3 810/2/3 809/2/3
f 818/2/3 810/2/3 817/2/3
f 819/2/3 812/2/3 811/2/3
f 820/2/3 812/2/3 819/2/3
f 829/2/3 822/2/3 821/2/3
f 830/2/3 822/2/3 829/2/3
f 831/3/3 824/3/3 823/3/3
f 832/3/3 824/3/3 831/3/3
f 833/2/3 826/2/3 825/2/3
f 834/2/3 826/2/3 833/2/3
f 835/3/3 828/3/3 827/3/3
f 836/3/3 828/3/3 835/3/3
f 845/3/3 838/3/3 837/3/3
f 846/3/3 838/3/3 845/3/3
f 847/2/3 840/2/3 839/2/3
f 848/2/3 840/2/3 847/2/3
f 849/2/3 842/2/3 841/2/3
f 850/2/3 842/2/3 849/2/3
f 851/3/3 844/3/3 843/3/3
f 852/3/3 844/3/3 851/3/3
f 861/2/3 854/2/3 853/2/3
f 862/2/3 854/2/3 861/2/3
f 863/2/3 856/2/3 855/2/3
f 864/2/3 856/2/3 863/2/3
f 865/3/3 858/3/3 857/3/3
f 866/3/3 858/3/3 865/3/3
f 867/3/3 860/3/3 859/3/3
f 868/3/3 860/3/3 867/3/3
f 877/2/3 870/2/3 869/2/3
f 878/2/3 870/2/3 877/2/3
f 879/2/3 872/2/3 871/2/3
f 880/2/3 872/2/3 879/2/3
f 881/2/3 874/2/3 873/2/3
f 882/2/3 874/2/3 881/2/3
f 883/2/3 876/2/3 875/2/3
f 884/2/3 876/2/3 883/2/3
f 893/2/3 886/2/3 885/2/3
f 894/2/3 886/2/3 893/2/3
f 895/2/3 888/2/3 887/2/3
f 896/2/3 888/2/3 895/2/3
f 897/2/3 890/2/3 889/2/3
f 898/2/3 890/2/3 897/2/3
f 899/2/3 892/2/3 891/2/3
f 900/2/3 892/2/3 899/2/3
f 909/3/3 902/3/3 901/3/3
f 910/3/3 902/3/3 909/3/3
f 911/2/3 904/2/3 903/2/3
f 912/2/3 904/2/3 911/2/3
f 913/2/3 906/2/3 905/2/3
f 914/2/3 906/2/3 913/2/3
f 915/3/3 908/3/3 907/3/3
f 916/3/3 908/3/3 915/3/3
f 925/3/3 918/3/3 917/3/3
f 926/3/3 918/3/3 925/3/3
f 927/2/3 920/2/3 919/2/3
f 928/2/3 920/2/3 927/2/3
f 929/2/3 922/2/3 921/2/3
f 930/2/3 922/2/3 929/2/3
f 931/3/3 924/3/3 923/3/3
f 932/3/3 924/3/3 931/3/3
f 941/2/3 934/2/3 933/2/3
f 942/2/3 934/2/3 941/2/3
f 943/3/3 936/3/3 935/3/3
f 944/3/3 936/3/3 943/3/3
f 945/2/3 938/2/3 937/2/3
f 946/2/3 938/2/3 945/2/3
f 947/2/3 940/2/3 939/2/3
f 948/2/3 940/2/3 947/2/3
f 957/2/3 950/2/3 949/2/3
f 958/2/3 950/2/3 957/2/3
f 959/3/3 952/3/3 951/3/3
f 960/3/3 952/3/3 959/3/3
f 961/2/3 954/2/3 953/2/3
f 962/2/3 954/2/3 961/2/3
f 963/2/3 956/2/3 955/2/3
f 964/2/3 956/2/3 963/2/3
f 973/3/3 966/3/3 965/3/3
f 974/3/3 966/3/3 973/3/3
f 975/2/3 968/2/3 967/2/3
f 976/2/3 968/2/3 975/2/3
f 977/3/3 970/3/3 969/3/3
f 978/3/3 970/3/3 977/3/3
f 979/3/3 972/3/3 971/3/3
f 980/3/3 972/3/3 979/3/3
f 989/3/3 982/3/3 981/3/3
f 990/3/3 982/3/3 989/3/3
f 991/2/3 984/2/3 983/2/3
f 992/2/3 984/2/3 991/2/3
f 993/2/3 986/2/3 985/2/3
f 994/2/3 986/2/3 993/2/3
f 995/2/3 988/2/3 987/2/3
f 996/2/3 988/2/3 995/2/3
f 1005/3/3 998/3/3 997/3/3
f 1006/3/3 998/3/3 1005/3/3
f 1007/2/3 1000/2/3 999/2/3
f 1008/2/3 1000/2/3 1007/2/3
f 1009/2/3 1002/2/3 1001/2/3
f 1010/2/3 1002/2/3 1009/2/3
f 1011/2/3 1004/2/3 1003/2/3
f 1012/2/3 1004/2/3 1011/2/3
f 1021/2/3 1014/2/3 1013/2/3
f 1022/2/3 1014/2/3 1021/2/3
f 1023/2/3 1016/2/3 1015/2/3
f 1024/2/3 1016/2/3 1023/2/3
f 1025/2/3 1018/2/3 1017/2/3
f 1026/2/3 1018/2/3 1025/2/3
f 1027/3/3 1020/3/3 1019/3/3
f 1028/3/3 1020/3/3 1027/3/3
f 1037/3/3 1030/3/3 1029/3/3
f 1038/3/3 1030/3/3 1037/3/3
f 1039/2/3 1032/2/3 1031/2/3
f 1040/2/3 1032/2/3 1039/2/3
f 1041/3/3 1034/3/3 1033/3/3
f 1042/3/3 1034/3/3 1041/3/3
f 1043/3/3 1036/3/3 1035/3/3
f 1044/3/3 1036/3/3 1043/3/3
f 1053/2/3 1046/2/3 1045/2/3
f 1054/2/3 1046/2/3 1053/2/3
f 1055/2/3 1048/2/3 1047/2/3
f 1056/2/3 1048/2/3 1055/2/3
f 1057/2/3 1050/2/3 1049/2/3
f 1058/2/3 1050/2/3 1057/2/3
f 1059/3/3 1052/3/3 1051/3/3
f 1060/3/3 1052/3/3 1059/3/3
f 1061/4/4 1062/4/4 1065/4/4
f 1065/4/4 1062/4/4 1066/4/4
f 1063/4/4 1064/4/4 1067/4/4
f 1067/4/4 1064/4/4 1068/4/4
f 1069/3/4 1070/3/4 1077/3/4
f 1077/3/4 1070/3/4 1078/3/4
f 1071/2/4 1072/2/4 1079/2/4
f 1079/2/4 1072/2/4 1080/2/4
f 1073/3/4 1074/3/4 1081/3/4
f 1081/3/4 1074/3/4 1082/3/4
f 1075/2/4 1076/2/4 1083/2/4
f 1083/2/4 1076/2/4 1084/2/4
f 1085/2/4 1086/2/4 1093/2/4
f 1093/2/4 1086/2/4 1094/2/4
f 1087/2/4 1088/2/4 1095/2/4
f 1095/2/4 1088/2/4 1096/2/4
f 1089/2/4 1090/2/4 1097/2/4
f 1097/2/4 1090/2/4 1098/2/4
f 1091/2/4 1092/2/4 1099/2/4
f 1099/2/4 1092/2/4 1100/2/4
f 1101/2/4 1102/2/4 1109/2/4
f 1109/2/4 1102/2/4 1110/2/4
f 1103/2/4 1104/2/4 1111/2/4
f 1111/2/4 1104/2/4 1112/2/4
f 1105/2/4 1106/2/4 1113/2/4
f 1113/2/4 1106/2/4 1114/2/4
f 1107/2/4 1108/2/4 1115/2/4
f 1115/2/4 1108/2/4 1116/2/4
f 1117/2/4 1118/2/4 1125/2/4
f 1125/2/4 1118/2/4 1126/2/4
f 1119/3/4 1120/3/4 1127/3/4
f 1127/3/4 1120/3/4 1128/3/4
f 1121/2/4 1122/2/4 1129/2/4
f 1129/2/4 1122/2/4 1130/2/4
f 1123/3/4 1124/3/4 1131/3/4
f 1131/3/4 1124/3/4 1132/3/4
f 1133/3/4 1134/3/4 1141/3/4
f 1141/3/4 1134/3/4 1142/3/4
f 1135/2/4 1136/2/4 1143/2/4
f 1143/2/4 1136/2/4 1144/2/4
f 1137/2/4 1138/2/4 1145/2/4
f 1145/2/4 1138/2/4 1146/2/4
f 1139/3/4 1140/3/4 1147/3/4
f 1147/3/4 1140/3/4 1148/3/4
f 1149/2/4 1150/2/4 1157/2/4
f 1157/2/4 1150/2/4 1158/2/4
f 1151/2/4 1152/2/4 1159/2/4
f 1159/2/4 1152/2/4 1160/2/4
f 1153/3/4 1154/3/4 1161/3/4
f 1161/3/4 1154/3/4 1162/3/4
f 1155/3/4 1156/3/4 1163/3/4
f 1163/3/4 1156/3/4 1164/3/4
f 1165/2/4 1166/2/4 1173/2/4
f 1173/2/4 1166/2/4 1174/2/4
f 1167/2/4 1168/2/4 1175/2/4
f 1175/2/4 1168/2/4 1176/2/4
f 1169/2/4 1170/2/4 1177/2/4
f 1177/2/4 1170/2/4 1178/2/4
f 1171/2/4 1172/2/4 1179/2/4
f 1179/2/4 1172/2/4 1180/2/4
f 1181/2/4 1182/2/4 1189/2/4
f 1189/2/4 1182/2/4 1190/2/4
f 1183/2/4 1184/2/4 1191/2/4
f 1191/2/4 1184/2/4 1192/2/4
f 1185/2/4 1186/2/4 1193/2/4
f 1193/2/4 1186/2/4 1194/2/4
f 1187/2/4 1188/2/4 1195/2/4
f 1195/2/4 1188/2/4 1196/2/4
f 1197/3/4 1198/3/4 1205/3/4
f 1205/3/4 1198/3/4 1206/3/4
f 1199/2/4 1200/2/4 1207/2/4
f 1207/2/4 1200/2/4 1208/2/4
f 1201/2/4 1202/2/4 1209/2/4
f 1209/2/4 1202/2/4 1210/2/4
f 1203/3/4 1204/3/4 1211/3/4
f 1211/3/4 1204/3/4 1212/3/4
f 1213/3/4 1214/3/4 1221/3/4
f 1221/3/4 1214/3/4 1222/3/4
f 1215/2/4 1216/2/4 1223/2/4
f 1223/2/4 1216/2/4 1224/2/4
f 1217/2/4 1218/2/4 1225/2/4
f 1225/2/4 1218/2/4 1226/2/4
f 1219/3/4 1220/3/4 1227/3/4
f 1227/3/4 1220/3/4 1228/3/4
f 1229/2/4 1230/2/4 1237/2/4
f 1237/2/4 1230/2/4 1238/2/4
f 1231/3/4 1232/3/4 1239/3/4
f 1239/3/4 1232/3/4 1240/3/4
f 1233/2/4 1234/2/4 1241/2/4
f 1241/2/4 1234/2/4 1242/2/4
f 1235/2/4 1236/2/4 1243/2/4
f 1243/2/4 1236/2/4 1244/2/4
f 1245/2/4 1246/2/4 1253/2/4
f 1253/2/4 1246/2/4 1254/2/4
f 1247/3/4 1248/3/4 1255/3/4
f 1255/3/4 1248/3/4 1256/3/4
f 1249/2/4 1250/2/4 1257/2/4
f 1257/2/4 1250/2/4 1258/2/4
f 1251/2/4 1252/2/4 1259/2/4
f 1259/2/4 1252/2/4 1260/2/4
f 1261/3/4 1262/3/4 1269/3/4
f 1269/3/4 1262/3/4 1270/3/4
f 1263/2/4 1264/2/4 1271/2/4
f 1271/2/4 1264/2/4 1272/2/4
f 1265/3/4 1266/3/4 1273/3/4
f 1273/3/4 1266/3/4 1274/3/4
f 1267/3/4 1268/3/4 1275/3/4
f 1275/3/4 1268/3/4 1276/3/4
f 1277/3/4 1278/3/4 1285/3/4
f 1285/3/4 1278/3/4 1286/3/4
f 1279/2/4 1280/2/4 1287/2/4
f 1287/2/4 1280/2/4 1288/2/4
f 1281/2/4 1282/2/4 1289/2/4
f 1289/2/4 1282/2/4 1290/2/4
f 1283/2/4 1284/2/4 1291/2/4
f 1291/2/4 1284/2/4 1292/2/4
f 1293/3/4 1294/3/4 1301/3/4
f 1301/3/4 1294/3/4 1302/3/4
f 1295/2/4 1296/2/4 1303/2/4
f 1303/2/4 1296/2/4 1304/2/4
f 1297/2/4 1298/2/4 1305/2/4
f 1305/2/4 1298/2/4 1306/2/4
f 1299/2/4 1300/2/4 1307/2/4
f 1307/2/4 1300/2/4 1308/2/4
f 1309/2/4 1310/2/4 1317/2/4
f 1317/2/4 1310/2/4 1318/2/4
f 1311/2/4 1312/2/4 1319/2/4
f 1319/2/4 1312/2/4 1320/2/4
f 1313/2/4 1314/2/4 1321/2/4
f 1321/2/4 1314/2/4 1322/2/4
f 1315/3/4 1316/3/4 1323/3/4
f 1323/3/4 1316/3/4 1324/3/4
f 1325/3/4 1326/3/4 1333/3/4
f 1333/3/4 1326/3/4 1334/3/4
f 1327/2/4 1328/2/4 1335/2/4
f 1335/2/4 1328/2/4 1336/2/4
f 1329/3/4 1330/3/4 1337/3/4
f 1337/3/4 1330/3/4 1338/3/4
f 1331/3/4 1332/3/4 1339/3/4
f 1339/3/4 1332/3/4 1340/3/4
f 1341/2/4 1342/2/4 1349/2/4
f 1349/2/4 1342/2/4 1350/2/4
f 1343/2/4 1344/2/4 1351/2/4
f 1351/2/4 1344/2/4 1352/2/4
f 1345/2/4 1346/2/4 1353/2/4
f 1353/2/4 1346/2/4 1354/2/4
f 1347/3/4 1348/3/4 1355/3/4
f 1355/3/4 1348/3/4 1356/3/4
f 1357/5/4 1358/5/4 1359/5/4
f 1359/5/4 1358/5/4 1360/5/4
f 1361/5/4 1362/5/4 1363/5/4
f 1363/5/4 1362/5/4 1364/5/4
f 1368/5/5 1366/5/5 1365/5/5
f 1369/5/5 1368/5/5 1367/5/5
f 1370/5/5 1366/5/5 1368/5/5
f 1370/5/5 1368/5/5 1369/5/5
f 1371/5/5 1366/5/5 1370/5/5
f 1372/5/5 1366/5/5 1371/5/5
f 1375/3/5 1374/3/5 1373/3/5
f 1376/3/5 1374/3/5 1375/3/5
f 1379/3/5 1378/3/5 1377/3/5
f 1380/3/5 1378/3/5 1379/3/5
f 1383/3/5 1382/3/5 1381/3/5
f 1384/3/5 1382/3/5 1383/3/5
f 1387/3/5 1386/3/5 1385/3/5
f 1388/3/5 1386/3/5 1387/3/5
f 1391/3/5 1390/3/5 1389/3/5
f 1392/3/5 1390/3/5 1391/3/5
f 1395/3/5 1394/3/5 1393/3/5
f 1396/3/5 1394/3/5 1395/3/5
f 1399/3/5 1398/3/5 1397/3/5
f 1400/3/5 1398/3/5 1399/3/5
f 1403/3/5 1402/3/5 1401/3/5
f 1404/3/5 1402/3/5 1403/3/5
f 1407/1/5 1406/1/5 1405/1/5
f 1408/1/5 1406/1/5 1407/1/5
f 1411/2/5 1410/2/5 1409/2/5
f 1412/2/5 1410/2/5 1411/2/5
f 1415/2/5 1414/2/5 1413/2/5
f 1416/2/5 1414/2/5 1415/2/5
f 1419/2/5 1418/2/5 1417/2/5
f 1420/2/5 1418/2/5 1419/2/5
f 1423/2/5 1422/2/5 1421/2/5
f 1424/2/5 1422/2/5 1423/2/5
f 1427/2/5 1426/2/5 1425/2/5
f 1428/2/5 1426/2/5 1427/2/5
f 1431/2/5 1430/2/5 1429/2/5
f 1432/2/5 1430/2/5 1431/2/5
f 1435/2/5 1434/2/5 1433/2/5
f 1436/2/5 1434/2/5 1435/2/5
f 1439/2/5 1438/2/5 1437/2/5
f 1440/2/5 1438/2/5 1439/2/5
f 1443/2/5 1442/2/5 1441/2/5
f 1444/2/5 1442/2/5 1443/2/5
f 1447/2/5 1446/2/5 1445/2/5
f 1448/2/5 1446/2/5 1447/2/5
f 1451/3/5 1450/3/5 1449/3/5
f 1452/3/5 1450/3/5 1451/3/5
f 1455/3/5 1454/3/5 1453/3/5
f 1456/3/5 1454/3/5 1455/3/5
f 1459/3/5 1458/3/5 1457/3/5
f 1460/3/5 1458/3/5 1459/3/5
f 1463/2/5 1462/2/5 1461/2/5
f 1464/2/5 1462/2/5 1463/2/5
f 1467/2/5 1466/2/5 1465/2/5
f 1468/2/5 1466/2/5 1467/2/5
f 1471/2/5 1470/2/5 1469/2/5
f 1472/2/5 1470/2/5 1471/2/5
f 1475/2/5 1474/2/5 1473/2/5
f 1476/2/5 1474/2/5 1475/2/5
f 1479/2/5 1478/2/5 1477/2/5
f 1480/2/5 1478/2/5 1479/2/5
f 1483/2/5 1482/2/5 1481/2/5
f 1484/2/5 1482/2/5 1483/2/5
f 1487/2/5 1486/2/5 1485/2/5
f 1488/2/5 1486/2/5 1487/2/5
f 1491/2/5 1490/2/5 1489/2/5
f 1492/2/5 1490/2/5 1491/2/5
f 1495/2/5 1494/2/5 1493/2/5
f 1496/2/5 1494/2/5 1495/2/5
f 1499/2/5 1498/2/5 1497/2/5
f 1500/2/5 1498/2/5 1499/2/5
f 1503/2/5 1502/2/5 1501/2/5
f 1504/2/5 1502/2/5 1503/2/5
f 1507/2/5 1506/2/5 1505/2/5
f 1508/2/5 1506/2/5 1507/2/5
f 1511/2/5 1510/2/5 1509/2/5
f 1512/2/5 1510/2/5 1511/2/5
f 1515/2/5 1514/2/5 1513/2/5
f 1516/2/5 1514/2/5 1515/2/5
f 1519/2/5 1518/2/5 1517/2/5
f 1520/2/5 1518/2/5 1519/2/5
f 1523/3/5 1522/3/5 1521/3/5
f 1524/3/5 1522/3/5 1523/3/5
f 1527/3/5 1526/3/5 1525/3/5
f 1528/3/5 1526/3/5 1527/3/5
f 1531/3/5 1530/3/5 1529/3/5
f 1532/3/5 1530/3/5 1531/3/5
f 1535/3/5 1534/3/5 1533/3/5
f 1536/3/5 1534/3/5 1535/3/5
f 1539/1/5 1538/1/5 1537/1/5
f 1540/1/5 1538/1/5 1539/1/5
f 1543/2/5 1542/2/5 1541/2/5
f 1544/2/5 1542/2/5 1543/2/5
f 1547/2/5 1546/2/5 1545/2/5
f 1548/2/5 1546/2/5 1547/2/5
f 1551/2/5 1550/2/5 1549/2/5
f 1552/2/5 1550/2/5 1551/2/5
f 1555/2/5 1554/2/5 1553/2/5
f 1556/2/5 1554/2/5 1555/2/5
f 1559/2/5 1558/2/5 1557/2/5
f 1560/2/5 1558/2/5 1559/2/5
f 1563/2/5 1562/2/5 1561/2/5
f 1564/2/5 1562/2/5 1563/2/5
f 1567/2/5 1566/2/5 1565/2/5
f 1568/2/5 1566/2/5 1567/2/5
f 1571/2/5 1570/2/5 1569/2/5
f 1572/2/5 1570/2/5 1571/2/5
f 1575/2/5 1574/2/5 1573/2/5
f 1576/2/5 1574/2/5 1575/2/5
f 1579/2/5 1578/2/5 1577/2/5
f 1580/2/5 1578/2/5 1579/2/5
f 1583/2/5 1582/2/5 1581/2/5
f 1584/2/5 1582/2/5 1583/2/5
f 1587/2/5 1586/2/5 1585/2/5
f 1588/2/5 1586/2/5 1587/2/5
f 1591/2/5 1590/2/5 1589/2/5
f 1592/2/5 1590/2/5 1591/2/5
f 1595/2/5 1594/2/5 1593/2/5
f 1596/2/5 1594/2/5 1595/2/5
f 1599/3/5 1598/3/5 1597/3/5
f 1600/3/5 1598/3/5 1599/3/5
f 1603/3/5 1602/3/5 1601/3/5
f 1604/3/5 1602/3/5 1603/3/5
f 1607/3/5 1606/3/5 1605/3/5
f 1608/3/5 1606/3/5 1607/3/5
f 1611/3/5 1610/3/5 1609/3/5
f 1612/3/5 1610/3/5 1611/3/5
f 1615/3/5 1614/3/5 1613/3/5
f 1616/3/5 1614/3/5 1615/3/5
f 1619/3/5 1618/3/5 1617/3/5
f 1620/3/5 1618/3/5 1619/3/5
f 1623/3/5 1622/3/5 1621/3/5
f 1624/3/5 1622/3/5 1623/3/5
f 1627/3/5 1626/3/5 1625/3/5
f 1628/3/5 1626/3/5 1627/3/5
f 1631/3/5 1630/3/5 1629/3/5
f 1632/3/5 1630/3/5 1631/3/5
f 1635/2/5 1634/2/5 1633/2/5
f 1636/2/5 1634/2/5 1635/2/5
f 1639/2/5 1638/2/5 1637/2/5
f 1640/2/5 1638/2/5 1639/2/5
f 1643/2/5 1642/2/5 1641/2/5
f 1644/2/5 1642/2/5 1643/2/5
f 1647/2/5 1646/2/5 1645/2/5
f 1648/2/5 1646/2/5 1647/2/5
f 1651/2/5 1650/2/5 1649/2/5
f 1652/2/5 1650/2/5 1651/2/5
f 1655/2/5 1654/2/5 1653/2/5
f 1656/2/5 1654/2/5 1655/2/5
f 1659/2/5 1658/2/5 1657/2/5
f 1660/2/5 1658/2/5 1659/2/5
f 1663/2/5 1662/2/5 1661/2/5
f 1664/2/5 1662/2/5 1663/2/5
f 1667/2/5 1666/2/5 1665/2/5
f 1668/2/5 1666/2/5 1667/2/5
f 1669/4/6 1670/4/6 1671/4/6
f 1671/4/6 1670/4/6 1672/4/6
f 1673/3/6 1674/3/6 1675/3/6
f 1675/3/6 1674/3/6 1676/3/6
f 1677/3/6 1678/3/6 1679/3/6
f 1679/3/6 1678/3/6 1680/3/6
f 1681/3/6 1682/3/6 1683/3/6
f 1683/3/6 1682/3/6 1684/3/6
f 1685/3/6 1686/3/6 1687/3/6
f 1687/3/6 1686/3/6 1688/3/6
f 1689/3/6 1690/3/6 1691/3/6
f 1691/3/6 1690/3/6 1692/3/6
f 1693/3/6 1694/3/6 1695/3/6
f 1695/3/6 1694/3/6 1696/3/6
f 1697/3/6 1698/3/6 1699/3/6
f 1699/3/6 1698/3/6 1700/3/6
f 1701/3/6 1702/3/6 1703/3/6
f 1703/3/6 1702/3/6 1704/3/6
f 1705/2/6 1706/2/6 1707/2/6
f 1707/2/6 1706/2/6 1708/2/6
f 1709/2/6 1710/2/6 1711/2/6
f 1711/2/6 1710/2/6 1712/2/6
f 1713/2/6 1714/2/6 1715/2/6
f 1715/2/6 1714/2/6 1716/2/6
f 1717/2/6 1718/2/6 1719/2/6
f 1719/2/6 1718/2/6 1720/2/6
f 1721/2/6 1722/2/6 1723/2/6
f 1723/2/6 1722/2/6 1724/2/6
f 1725/2/6 1726/2/6 1727/2/6
f 1727/2/6 1726/2/6 1728/2/6
f 1729/2/6 1730/2/6 1731/2/6
f 1731/2/6 1730/2/6 1732/2/6
f 1733/2/6 1734/2/6 1735/2/6
f 1735/2/6 1734/2/6 1736/2/6
f 1737/2/6 1738/2/6 1739/2/6
f 1739/2/6 1738/2/6 1740/2/6
f 1741/2/6 1742/2/6 1743/2/6
f 1743/2/6 1742/2/6 1744/2/6
f 1745/3/6 1746/3/6 1747/3/6
f 1747/3/6 1746/3/6 1748/3/6
f 1749/3/6 1750/3/6 1751/3/6
f 1751/3/6 1750/3/6 1752/3/6
f 1753/3/6 1754/3/6 1755/3/6
f 1755/3/6 1754/3/6 1756/3/6
f 1757/2/6 1758/2/6 1759/2/6
f 1759/2/6 1758/2/6 1760/2/6
f 1761/2/6 1762/2/6 1763/2/6
f 1763/2/6 1762/2/6 1764/2/6
f 1765/2/6 1766/2/6 1767/2/6
f 1767/2/6 1766/2/6 1768/2/6
f 1769/2/6 1770/2/6 1771/2/6
f 1771/2/6 1770/2/6 1772/2/6
f 1773/2/6 1774/2/6 1775/2/6
f 1775/2/6 1774/2/6 1776/2/6
f 1777/2/6 1778/2/6 1779/2/6
f 1779/2/6 1778/2/6 1780/2/6
f 1781/2/6 1782/2/6 1783/2/6
f 1783/2/6 1782/2/6 1784/2/6
f 1785/2/6 1786/2/6 1787/2/6
f 1787/2/6 1786/2/6 1788/2/6
f 1789/2/6 1790/2/6 1791/2/6
f 1791/2/6 1790/2/6 1792/2/6
f 1793/2/6 1794/2/6 1795/2/6
f 1795/2/6 1794/2/6 1796/2/6
f 1797/2/6 1798/2/6 1799/2/6
f 1799/2/6 1798/2/6 1800/2/6
f 1801/2/6 1802/2/6 1803/2/6
f 1803/2/6 1802/2/6 1804/2/6
f 1805/2/6 1806/2/6 1807/2/6
f 1807/2/6 1806/2/6 1808/2/6
f 1809/2/6 1810/2/6 1811/2/6
f 1811/2/6 1810/2/6 1812/2/6
f 1813/2/6 1814/2/6 1815/2/6
f 1815/2/6 1814/2/6 1816/2/6
f 1817/4/6 1818/4/6 1819/4/6
f 1819/4/6 1818/4/6 1820/4/6
f 1821/3/6 1822/3/6 1823/3/6
f 1823/3/6 1822/3/6 1824/3/6
f 1825/3/6 1826/3/6 1827/3/6
f 1827/3/6 1826/3/6 1828/3/6
f 1829/3/6 1830/3/6 1831/3/6
f 1831/3/6 1830/3/6 1832/3/6
f 1833/3/6 1834/3/6 1835/3/6
f 1835/3/6 1834/3/6 1836/3/6
f 1837/2/6 1838/2/6 1839/2/6
f 1839/2/6 1838/2/6 1840/2/6
f 1841/2/6 1842/2/6 1843/2/6
f 1843/2/6 1842/2/6 1844/2/6
f 1845/2/6 1846/2/6 1847/2/6
f 1847/2/6 1846/2/6 1848/2/6
f 1849/2/6 1850/2/6 1851/2/6
f 1851/2/6 1850/2/6 1852/2/6
f 1853/2/6 1854/2/6 1855/2/6
f 1855/2/6 1854/2/6 1856/2/6
f 1857/2/6 1858/2/6 1859/2/6
f 1859/2/6 1858/2/6 1860/2/6
f 1861/2/6 1862/2/6 1863/2/6
f 1863/2/6 1862/2/6 1864/2/6
f 1865/2/6 1866/2/6 1867/2/6
f 1867/2/6 1866/2/6 1868/2/6
f 1869/2/6 1870/2/6 1871/2/6
f 1871/2/6 1870/2/6 1872/2/6
f 1873/2/6 1874/2/6 1875/2/6
f 1875/2/6 1874/2/6 1876/2/6
f 1877/2/6 1878/2/6 1879/2/6
f 1879/2/6 1878/2/6 1880/2/6
f 1881/2/6 1882/2/6 1883/2/6
f 1883/2/6 1882/2/6 1884/2/6
f 1885/2/6 1886/2/6 1887/2/6
f 1887/2/6 1886/2/6 1888/2/6
f 1889/2/6 1890/2/6 1891/2/6
f 1891/2/6 1890/2/6 1892/2/6
f 1893/3/6 1894/3/6 1895/3/6
f 1895/3/6 1894/3/6 1896/3/6
f 1897/3/6 1898/3/6 1899/3/6
f 1899/3/6 1898/3/6 1900/3/6
f 1901/3/6 1902/3/6 1903/3/6
f 1903/3/6 1902/3/6 1904/3/6
f 1905/3/6 1906/3/6 1907/3/6
f 1907/3/6 1906/3/6 1908/3/6
f 1909/3/6 1910/3/6 1911/3/6
f 1911/3/6 1910/3/6 1912/3/6
f 1913/3/6 1914/3/6 1915/3/6
f 1915/3/6 1914/3/6 1916/3/6
f 1917/3/6 1918/3/6 1919/3/6
f 1919/3/6 1918/3/6 1920/3/6
f 1921/3/6 1922/3/6 1923/3/6
f 1923/3/6 1922/3/6 1924/3/6
f 1925/3/6 1926/3/6 1927/3/6
f 1927/3/6 1926/3/6 1928/3/6
f 1929/2/6 1930/2/6 1931/2/6
f 1931/2/6 1930/2/6 1932/2/6
f 1933/2/6 1934/2/6 1935/2/6
f 1935/2/6 1934/2/6 1936/2/6
f 1937/2/6 1938/2/6 1939/2/6
f 1939/2/6 1938/2/6 1940/2/6
f 1941/2/6 1942/2/6 1943/2/6
f 1943/2/6 1942/2/6 1944/2/6
f 1945/2/6 1946/2/6 1947/2/6
f 1947/2/6 1946/2/6 1948/2/6
f 1949/2/6 1950/2/6 1951/2/6
f 1951/2/6 1950/2/6 1952/2/6
f 1953/2/6 1954/2/6 1955/2/6
f 1955/2/6 1954/2/6 1956/2/6
f 1957/2/6 1958/2/6 1959/2/6
f 1959/2/6 1958/2/6 1960/2/6
f 1961/2/6 1962/2/6 1963/2/6
f 1963/2/6 1962/2/6 1964/2/6
f 1965/5/6 1966/5/6 1967/5/6
f 1967/5/6 1966/5/6 1968/5/6
f 1969/5/6 1970/5/6 1971/5/6
f 1971/5/6 1970/5/6 1972/5/6
