# MagicaVoxel @ Ephtracy

# group
o 

# material
mtllib spaceship_inside-0.mtl
usemtl palette

# normals
vn -1 0 0
vn 1 0 0
vn 0 0 1
vn 0 0 -1
vn 0 -1 0
vn 0 1 0

# texcoords
vt 0.857422 0.5
vt 0.962891 0.5
vt 0.966797 0.5
vt 0.974609 0.5
vt 0.994141 0.5

# verts
v -0.25 -1.75 0.45
v -0.25 -1.75 -0.45
v -0.25 -1.65 0.35
v -0.25 -1.65 -0.35
v -0.25 -1.55 0.25
v -0.25 -1.55 0.15
v -0.25 -1.55 -0.15
v -0.25 -1.55 -0.25
v -0.25 1.55 0.25
v -0.25 1.55 0.15
v -0.25 1.55 -0.15
v -0.25 1.55 -0.25
v -0.25 1.65 0.35
v -0.25 1.65 -0.35
v -0.25 1.75 0.45
v -0.25 1.75 -0.45
v 0.05 1.05 0.35
v 0.05 1.05 -0.35
v 0.05 1.15 0.25
v 0.05 1.15 0.15
v 0.05 1.15 -0.15
v 0.05 1.15 -0.25
v 0.05 1.25 0.25
v 0.05 1.25 0.15
v 0.05 1.25 -0.15
v 0.05 1.25 -0.25
v 0.05 1.35 0.35
v 0.05 1.35 -0.35
v -0.15 -1.65 0.35
v -0.15 -1.65 -0.35
v -0.15 -1.55 0.25
v -0.15 -1.55 0.15
v -0.15 -1.55 -0.15
v -0.15 -1.55 -0.25
v -0.15 1.15 0.25
v -0.15 1.15 0.15
v -0.15 1.15 -0.15
v -0.15 1.15 -0.25
v -0.15 1.25 0.25
v -0.15 1.25 0.15
v -0.15 1.25 -0.15
v -0.15 1.25 -0.25
v -0.15 1.55 0.25
v -0.15 1.55 0.15
v -0.15 1.55 -0.15
v -0.15 1.55 -0.25
v -0.15 1.65 0.35
v -0.15 1.65 -0.35
v -0.05 -1.75 0.45
v -0.05 -1.75 -0.45
v -0.05 -1.65 0.35
v -0.05 -1.65 -0.35
v -0.05 1.65 0.35
v -0.05 1.65 -0.35
v -0.05 1.75 0.45
v -0.05 1.75 -0.45
v 0.15 1.05 0.35
v 0.15 1.05 -0.35
v 0.15 1.15 0.35
v 0.15 1.15 -0.35
v 0.15 1.25 0.35
v 0.15 1.25 -0.35
v 0.15 1.35 0.35
v 0.15 1.35 -0.35
v 0.25 1.15 0.35
v 0.25 1.15 -0.35
v 0.25 1.25 0.35
v 0.25 1.25 -0.35
v -0.25 -1.75 0.45
v -0.25 1.75 0.45
v -0.05 -1.75 0.45
v -0.05 1.75 0.45
v 0.05 1.05 0.35
v 0.05 1.35 0.35
v 0.15 1.05 0.35
v 0.15 1.15 0.35
v 0.15 1.25 0.35
v 0.15 1.35 0.35
v 0.25 1.15 0.35
v 0.25 1.25 0.35
v -0.15 1.15 0.25
v -0.15 1.25 0.25
v 0.05 1.15 0.25
v 0.05 1.25 0.25
v -0.15 1.15 -0.15
v -0.15 1.25 -0.15
v 0.05 1.15 -0.15
v 0.05 1.25 -0.15
v -0.15 -1.65 -0.35
v -0.15 1.65 -0.35
v -0.05 -1.65 -0.35
v -0.05 1.65 -0.35
v -0.15 -1.65 0.35
v -0.15 1.65 0.35
v -0.05 -1.65 0.35
v -0.05 1.65 0.35
v -0.15 1.15 0.15
v -0.15 1.25 0.15
v 0.05 1.15 0.15
v 0.05 1.25 0.15
v -0.15 1.15 -0.25
v -0.15 1.25 -0.25
v 0.05 1.15 -0.25
v 0.05 1.25 -0.25
v 0.05 1.05 -0.35
v 0.05 1.35 -0.35
v 0.15 1.05 -0.35
v 0.15 1.15 -0.35
v 0.15 1.25 -0.35
v 0.15 1.35 -0.35
v 0.25 1.15 -0.35
v 0.25 1.25 -0.35
v -0.25 -1.75 -0.45
v -0.25 1.75 -0.45
v -0.05 -1.75 -0.45
v -0.05 1.75 -0.45
v -0.25 -1.75 0.45
v -0.05 -1.75 0.45
v -0.25 -1.75 -0.45
v -0.05 -1.75 -0.45
v 0.05 1.05 0.35
v 0.15 1.05 0.35
v 0.05 1.05 -0.35
v 0.15 1.05 -0.35
v 0.15 1.15 0.35
v 0.25 1.15 0.35
v -0.15 1.15 0.25
v 0.05 1.15 0.25
v -0.15 1.15 0.15
v 0.05 1.15 0.15
v -0.15 1.15 -0.15
v 0.05 1.15 -0.15
v -0.15 1.15 -0.25
v 0.05 1.15 -0.25
v 0.15 1.15 -0.35
v 0.25 1.15 -0.35
v -0.15 1.65 0.35
v -0.05 1.65 0.35
v -0.15 1.65 -0.35
v -0.05 1.65 -0.35
v -0.15 -1.65 0.35
v -0.05 -1.65 0.35
v -0.15 -1.65 -0.35
v -0.05 -1.65 -0.35
v 0.15 1.25 0.35
v 0.25 1.25 0.35
v -0.15 1.25 0.25
v 0.05 1.25 0.25
v -0.15 1.25 0.15
v 0.05 1.25 0.15
v -0.15 1.25 -0.15
v 0.05 1.25 -0.15
v -0.15 1.25 -0.25
v 0.05 1.25 -0.25
v 0.15 1.25 -0.35
v 0.25 1.25 -0.35
v 0.05 1.35 0.35
v 0.15 1.35 0.35
v 0.05 1.35 -0.35
v 0.15 1.35 -0.35
v -0.25 1.75 0.45
v -0.05 1.75 0.45
v -0.25 1.75 -0.45
v -0.05 1.75 -0.45

# faces
f 3/2/1 2/2/1 1/2/1
f 4/2/1 2/2/1 3/2/1
f 5/4/1 4/4/1 3/4/1
f 6/4/1 4/4/1 5/4/1
f 7/4/1 4/4/1 6/4/1
f 8/4/1 4/4/1 7/4/1
f 9/4/1 5/4/1 3/4/1
f 9/5/1 6/5/1 5/5/1
f 10/4/1 7/4/1 6/4/1
f 10/5/1 6/5/1 9/5/1
f 11/5/1 8/5/1 7/5/1
f 11/4/1 7/4/1 10/4/1
f 12/4/1 4/4/1 8/4/1
f 12/5/1 8/5/1 11/5/1
f 13/2/1 3/2/1 1/2/1
f 13/4/1 11/4/1 10/4/1
f 13/4/1 12/4/1 11/4/1
f 13/4/1 9/4/1 3/4/1
f 13/4/1 10/4/1 9/4/1
f 14/4/1 4/4/1 12/4/1
f 14/4/1 12/4/1 13/4/1
f 14/2/1 2/2/1 4/2/1
f 15/2/1 13/2/1 1/2/1
f 15/2/1 14/2/1 13/2/1
f 16/2/1 2/2/1 14/2/1
f 16/2/1 14/2/1 15/2/1
f 19/1/1 18/1/1 17/1/1
f 20/1/1 18/1/1 19/1/1
f 21/1/1 18/1/1 20/1/1
f 22/1/1 18/1/1 21/1/1
f 23/1/1 19/1/1 17/1/1
f 24/1/1 21/1/1 20/1/1
f 25/1/1 21/1/1 24/1/1
f 26/1/1 18/1/1 22/1/1
f 27/1/1 25/1/1 24/1/1
f 27/1/1 26/1/1 25/1/1
f 27/1/1 23/1/1 17/1/1
f 27/1/1 24/1/1 23/1/1
f 28/1/1 18/1/1 26/1/1
f 28/1/1 26/1/1 27/1/1
f 29/4/2 30/4/2 31/4/2
f 31/4/2 30/4/2 32/4/2
f 32/4/2 30/4/2 33/4/2
f 33/4/2 30/4/2 34/4/2
f 29/4/2 31/4/2 35/4/2
f 31/5/2 32/5/2 35/5/2
f 32/4/2 33/4/2 36/4/2
f 35/5/2 32/5/2 36/5/2
f 33/5/2 34/5/2 37/5/2
f 36/4/2 33/4/2 37/4/2
f 34/4/2 30/4/2 38/4/2
f 37/5/2 34/5/2 38/5/2
f 29/4/2 35/4/2 39/4/2
f 36/4/2 37/4/2 40/4/2
f 40/4/2 37/4/2 41/4/2
f 38/4/2 30/4/2 42/4/2
f 29/4/2 39/4/2 43/4/2
f 39/5/2 40/5/2 43/5/2
f 40/4/2 41/4/2 44/4/2
f 43/5/2 40/5/2 44/5/2
f 41/5/2 42/5/2 45/5/2
f 44/4/2 41/4/2 45/4/2
f 42/4/2 30/4/2 46/4/2
f 45/5/2 42/5/2 46/5/2
f 43/4/2 44/4/2 47/4/2
f 29/4/2 43/4/2 47/4/2
f 45/4/2 46/4/2 47/4/2
f 44/4/2 45/4/2 47/4/2
f 46/4/2 30/4/2 48/4/2
f 47/4/2 46/4/2 48/4/2
f 49/2/2 50/2/2 51/2/2
f 51/2/2 50/2/2 52/2/2
f 49/2/2 51/2/2 53/2/2
f 52/2/2 50/2/2 54/2/2
f 49/2/2 53/2/2 55/2/2
f 53/2/2 54/2/2 55/2/2
f 54/2/2 50/2/2 56/2/2
f 55/2/2 54/2/2 56/2/2
f 57/1/2 58/1/2 59/1/2
f 59/1/2 58/1/2 60/1/2
f 61/1/2 62/1/2 63/1/2
f 63/1/2 62/1/2 64/1/2
f 65/1/2 66/1/2 67/1/2
f 67/1/2 66/1/2 68/1/2
f 71/2/3 70/2/3 69/2/3
f 72/2/3 70/2/3 71/2/3
f 75/1/3 74/1/3 73/1/3
f 76/1/3 74/1/3 75/1/3
f 77/1/3 74/1/3 76/1/3
f 78/1/3 74/1/3 77/1/3
f 79/1/3 77/1/3 76/1/3
f 80/1/3 77/1/3 79/1/3
f 83/3/3 82/3/3 81/3/3
f 84/3/3 82/3/3 83/3/3
f 87/3/3 86/3/3 85/3/3
f 88/3/3 86/3/3 87/3/3
f 91/2/3 90/2/3 89/2/3
f 92/2/3 90/2/3 91/2/3
f 93/2/4 94/2/4 95/2/4
f 95/2/4 94/2/4 96/2/4
f 97/3/4 98/3/4 99/3/4
f 99/3/4 98/3/4 100/3/4
f 101/3/4 102/3/4 103/3/4
f 103/3/4 102/3/4 104/3/4
f 105/1/4 106/1/4 107/1/4
f 107/1/4 106/1/4 108/1/4
f 108/1/4 106/1/4 109/1/4
f 109/1/4 106/1/4 110/1/4
f 108/1/4 109/1/4 111/1/4
f 111/1/4 109/1/4 112/1/4
f 113/2/4 114/2/4 115/2/4
f 115/2/4 114/2/4 116/2/4
f 119/2/5 118/2/5 117/2/5
f 120/2/5 118/2/5 119/2/5
f 123/1/5 122/1/5 121/1/5
f 124/1/5 122/1/5 123/1/5
f 129/3/5 128/3/5 127/3/5
f 130/3/5 128/3/5 129/3/5
f 133/3/5 132/3/5 131/3/5
f 134/3/5 132/3/5 133/3/5
f 135/1/5 126/1/5 125/1/5
f 136/1/5 126/1/5 135/1/5
f 139/2/5 138/2/5 137/2/5
f 140/2/5 138/2/5 139/2/5
f 141/2/6 142/2/6 143/2/6
f 143/2/6 142/2/6 144/2/6
f 147/3/6 148/3/6 149/3/6
f 149/3/6 148/3/6 150/3/6
f 151/3/6 152/3/6 153/3/6
f 153/3/6 152/3/6 154/3/6
f 145/1/6 146/1/6 155/1/6
f 155/1/6 146/1/6 156/1/6
f 157/1/6 158/1/6 159/1/6
f 159/1/6 158/1/6 160/1/6
f 161/2/6 162/2/6 163/2/6
f 163/2/6 162/2/6 164/2/6
