# MagicaVoxel @ Ephtracy

# group
o 

# material
mtllib spaceship_inside-26.mtl
usemtl palette

# normals
vn -1 0 0
vn 1 0 0
vn 0 0 1
vn 0 0 -1
vn 0 -1 0
vn 0 1 0

# texcoords
vt 0.728516 0.5
vt 0.837891 0.5
vt 0.845703 0.5
vt 0.853516 0.5
vt 0.857422 0.5
vt 0.861328 0.5
vt 0.865234 0.5
vt 0.958984 0.5
vt 0.962891 0.5
vt 0.966797 0.5
vt 0.970703 0.5
vt 0.994141 0.5

# verts
v -0.95 -0.3 0.8
v -0.95 -0.3 -0.2
v -0.95 -0.2 0.9
v -0.95 -0.2 0.8
v -0.95 -0.2 0.3
v -0.95 -0.2 -0.2
v -0.95 -0.2 -0.3
v -0.95 -0.1 0.9
v -0.95 -0.1 0.5
v -0.95 -0.1 0.3
v -0.95 -0.1 -0.3
v -0.95 0 0.9
v -0.95 0 0.5
v -0.85 -1.5 0.3
v -0.85 -1.5 -0.2
v -0.85 -1.4 0.3
v -0.85 -1.4 -0.2
v -0.85 -0.8 -0.3
v -0.85 -0.8 -0.6
v -0.85 -0.7 -0.1
v -0.85 -0.7 -0.3
v -0.85 -0.7 -0.4
v -0.85 -0.7 -0.6
v -0.85 -0.7 -0.7
v -0.85 -0.6 0.4
v -0.85 -0.6 -0.1
v -0.85 -0.5 0.7
v -0.85 -0.5 0.4
v -0.85 -0.4 0.9
v -0.85 -0.4 0.7
v -0.85 -0.4 -0.4
v -0.85 -0.4 -0.5
v -0.85 -0.3 0.8
v -0.85 -0.3 -0.2
v -0.85 -0.3 -0.3
v -0.85 -0.3 -0.5
v -0.85 -0.3 -0.6
v -0.85 -0.2 0.9
v -0.85 -0.2 0.8
v -0.85 -0.2 -0.2
v -0.85 -0.2 -0.3
v -0.85 -0.2 -0.6
v -0.85 -0.2 -0.7
v -0.85 -0.1 -0.3
v -0.85 -0.1 -0.6
v -0.85 -0.1 -0.7
v -0.85 0 -0.5
v -0.85 0 -0.6
v -0.85 0.3 -0.3
v -0.85 0.3 -0.4
v -0.85 0.7 -0.4
v -0.85 0.7 -0.5
v -0.85 0.7 -0.6
v -0.85 0.8 -0.6
v -0.85 0.8 -0.7
v -0.85 1 -0.6
v -0.85 1 -0.7
v -0.85 1.4 -0.5
v -0.85 1.4 -0.6
v -0.85 1.4 -0.7
v -0.75 -1.5 0.5
v -0.75 -1.5 0.3
v -0.75 -1.5 -0.2
v -0.75 -1.5 -0.4
v -0.75 -1.4 0.5
v -0.75 -1.4 0.3
v -0.75 -1.4 -0.2
v -0.75 -1.4 -0.4
v -0.75 -0.8 0.9
v -0.75 -0.8 -0.3
v -0.75 -0.8 -0.6
v -0.75 -0.8 -0.7
v -0.75 -0.7 0.9
v -0.75 -0.7 -0.1
v -0.75 -0.7 -0.3
v -0.75 -0.7 -0.6
v -0.75 -0.7 -0.7
v -0.75 -0.7 -0.8
v -0.75 -0.2 -0.7
v -0.75 -0.2 -0.8
v -0.75 -0.1 -0.7
v -0.75 -0.1 -0.8
v -0.75 0.8 -0.7
v -0.75 0.8 -0.8
v -0.75 1 -0.7
v -0.75 1 -0.8
v -0.75 1.4 -0.7
v -0.75 1.4 -0.8
v -0.65 -1.5 0.7
v -0.65 -1.5 0.5
v -0.65 -1.5 -0.4
v -0.65 -1.5 -0.6
v -0.65 -1.4 0.7
v -0.65 -1.4 0.5
v -0.65 -1.4 -0.4
v -0.65 -1.4 -0.6
v -0.65 -0.8 -0.7
v -0.65 -0.8 -0.8
v -0.65 -0.7 0.8
v -0.65 -0.7 -0.3
v -0.65 -0.7 -0.4
v -0.65 -0.7 -0.7
v -0.65 -0.7 -0.8
v -0.65 -0.6 0.8
v -0.65 -0.6 -0.4
v -0.65 0.2 -0.8
v -0.65 0.2 -0.9
v -0.65 0.7 -0.8
v -0.65 0.7 -0.9
v -0.65 1 -0.6
v -0.65 1 -0.7
v -0.65 1.1 -0.6
v -0.65 1.1 -0.7
v -0.65 1.2 -0.5
v -0.65 1.2 -0.6
v -0.65 1.3 -0.5
v -0.65 1.3 -0.6
v -0.65 1.4 -0.6
v -0.65 1.4 -0.7
v -0.65 1.4 -0.8
v -0.65 1.5 -0.6
v -0.65 1.5 -0.7
v -0.65 1.5 -0.8
v -0.55 -0.9 0.9
v -0.55 -0.9 0.8
v -0.55 -0.9 -0.7
v -0.55 -0.8 0.9
v -0.55 -0.8 0.8
v -0.55 -0.8 -0.7
v -0.55 -0.7 0.9
v -0.55 -0.7 0.8
v -0.55 -0.6 0.9
v -0.55 -0.6 0.8
v -0.55 0 -0.8
v -0.55 0 -0.9
v -0.55 0.2 -0.8
v -0.55 0.2 -0.9
v -0.55 0.7 -0.8
v -0.55 0.7 -0.9
v -0.55 0.8 -0.8
v -0.55 0.9 -0.8
v -0.55 0.9 -0.9
v -0.55 1.1 -0.5
v -0.55 1.1 -0.6
v -0.55 1.2 -0.5
v -0.55 1.2 -0.6
v -0.55 1.3 -0.5
v -0.55 1.3 -0.6
v -0.55 1.4 -0.5
v -0.55 1.4 -0.6
v -0.45 -1.5 0.8
v -0.45 -1.5 0.7
v -0.45 -1.5 -0.6
v -0.45 -1.5 -0.7
v -0.45 -1.4 0.8
v -0.45 -1.4 0.7
v -0.45 -1.4 -0.6
v -0.45 -1.4 -0.7
v -0.45 -0.1 -0.8
v -0.45 -0.1 -0.9
v -0.45 0 -0.8
v -0.45 0 -0.9
v -0.45 0.9 -0.8
v -0.45 0.9 -0.9
v -0.45 1 -0.8
v -0.45 1 -0.9
v -0.25 -1.5 0.9
v -0.25 -1.5 0.8
v -0.25 -1.5 -0.7
v -0.25 -1.5 -0.8
v -0.25 -1.4 0.9
v -0.25 -1.4 0.8
v -0.25 -1.4 0.2
v -0.25 -1.4 0.1
v -0.25 -1.4 0
v -0.25 -1.4 -0.1
v -0.25 -1.4 -0.7
v -0.25 -1.4 -0.8
v -0.25 -0.9 0.2
v -0.25 -0.9 0.1
v -0.25 -0.9 0
v -0.25 -0.9 -0.1
v -0.25 -0.2 -0.8
v -0.25 -0.2 -0.9
v -0.25 -0.1 -0.8
v -0.25 -0.1 -0.9
v -0.25 1 -0.8
v -0.25 1 -0.9
v -0.25 1.1 -0.8
v -0.25 1.1 -0.9
v -0.15 -1.4 0.3
v -0.15 -1.4 0.2
v -0.15 -1.4 -0.1
v -0.15 -1.4 -0.2
v -0.15 -0.8 0.3
v -0.15 -0.8 0.2
v -0.15 -0.8 -0.1
v -0.15 -0.8 -0.2
v 0.05 -0.7 0.8
v 0.05 -0.7 0.7
v 0.05 -0.6 0.8
v 0.05 -0.6 0.7
v 0.15 -1.4 0.2
v 0.15 -1.4 0.1
v 0.15 -1.4 0
v 0.15 -1.4 -0.1
v 0.15 -0.8 0.2
v 0.15 -0.8 0.1
v 0.15 -0.8 0
v 0.15 -0.8 -0.1
v 0.15 -0.7 0.9
v 0.15 -0.7 0.8
v 0.15 -0.6 0.9
v 0.15 -0.6 0.8
v 0.25 -0.9 0.9
v 0.25 -0.9 0.8
v 0.25 -0.9 0.2
v 0.25 -0.9 -0.1
v 0.25 -0.9 -0.7
v 0.25 -0.8 0.9
v 0.25 -0.8 0.8
v 0.25 -0.8 0.2
v 0.25 -0.8 -0.1
v 0.25 -0.8 -0.7
v 0.65 -0.3 0.8
v 0.65 -0.3 -0.3
v 0.65 -0.2 0.9
v 0.65 -0.2 0.8
v 0.65 -0.2 0.3
v 0.65 -0.2 -0.3
v 0.65 -0.1 0.9
v 0.65 -0.1 0.5
v 0.65 -0.1 0.3
v 0.65 -0.1 -0.3
v 0.65 0 0.9
v 0.65 0 0.5
v 0.75 -0.7 -0.1
v 0.75 -0.7 -0.3
v 0.75 -0.7 -0.4
v 0.75 -0.6 0.4
v 0.75 -0.6 -0.1
v 0.75 -0.5 0.7
v 0.75 -0.5 0.4
v 0.75 -0.5 -0.6
v 0.75 -0.5 -0.7
v 0.75 -0.4 0.9
v 0.75 -0.4 0.7
v 0.75 -0.4 -0.4
v 0.75 -0.4 -0.5
v 0.75 -0.4 -0.6
v 0.75 -0.3 0.8
v 0.75 -0.3 -0.3
v 0.75 -0.3 -0.5
v 0.75 -0.3 -0.6
v 0.75 -0.3 -0.7
v 0.75 -0.2 0.9
v 0.75 -0.2 0.8
v 0.75 -0.2 -0.3
v 0.75 -0.2 -0.6
v 0.75 -0.2 -0.7
v 0.75 -0.1 -0.3
v 0.75 -0.1 -0.6
v 0.75 -0.1 -0.7
v 0.75 0 -0.5
v 0.75 0 -0.6
v 0.75 0.3 -0.3
v 0.75 0.3 -0.4
v 0.75 0.7 -0.4
v 0.75 0.7 -0.5
v 0.75 0.7 -0.6
v 0.75 0.8 -0.6
v 0.75 0.8 -0.7
v 0.75 1 -0.6
v 0.75 1 -0.7
v 0.75 1.1 -0.6
v 0.75 1.1 -0.7
v 0.75 1.4 -0.5
v 0.75 1.4 -0.6
v -0.75 -0.7 -0.1
v -0.75 -0.7 -0.3
v -0.75 -0.7 -0.4
v -0.75 -0.6 0.4
v -0.75 -0.6 -0.1
v -0.75 -0.5 0.7
v -0.75 -0.5 0.4
v -0.75 -0.5 -0.6
v -0.75 -0.5 -0.7
v -0.75 -0.4 0.9
v -0.75 -0.4 0.7
v -0.75 -0.4 -0.4
v -0.75 -0.4 -0.5
v -0.75 -0.4 -0.6
v -0.75 -0.3 0.8
v -0.75 -0.3 -0.3
v -0.75 -0.3 -0.5
v -0.75 -0.3 -0.6
v -0.75 -0.3 -0.7
v -0.75 -0.2 0.9
v -0.75 -0.2 0.8
v -0.75 -0.2 -0.3
v -0.75 -0.2 -0.6
v -0.75 -0.2 -0.7
v -0.75 -0.1 -0.3
v -0.75 -0.1 -0.6
v -0.75 -0.1 -0.7
v -0.75 0 -0.5
v -0.75 0 -0.6
v -0.75 0.3 -0.3
v -0.75 0.3 -0.4
v -0.75 0.7 -0.4
v -0.75 0.7 -0.5
v -0.75 0.7 -0.6
v -0.75 0.8 -0.6
v -0.75 0.8 -0.7
v -0.75 1 -0.6
v -0.75 1 -0.7
v -0.75 1.1 -0.6
v -0.75 1.1 -0.7
v -0.75 1.4 -0.5
v -0.75 1.4 -0.6
v -0.65 -0.3 0.8
v -0.65 -0.3 -0.3
v -0.65 -0.2 0.9
v -0.65 -0.2 0.8
v -0.65 -0.2 0.3
v -0.65 -0.2 -0.3
v -0.65 -0.1 0.9
v -0.65 -0.1 0.5
v -0.65 -0.1 0.3
v -0.65 -0.1 -0.3
v -0.65 0 0.9
v -0.65 0 0.5
v -0.25 -0.9 0.9
v -0.25 -0.9 0.8
v -0.25 -0.9 0.2
v -0.25 -0.9 -0.1
v -0.25 -0.9 -0.7
v -0.25 -0.8 0.9
v -0.25 -0.8 0.8
v -0.25 -0.8 0.2
v -0.25 -0.8 -0.1
v -0.25 -0.8 -0.7
v -0.15 -1.4 0.2
v -0.15 -1.4 0.1
v -0.15 -1.4 0
v -0.15 -1.4 -0.1
v -0.15 -0.8 0.2
v -0.15 -0.8 0.1
v -0.15 -0.8 0
v -0.15 -0.8 -0.1
v -0.15 -0.7 0.9
v -0.15 -0.7 0.8
v -0.15 -0.6 0.9
v -0.15 -0.6 0.8
v -0.0500001 -0.7 0.8
v -0.0500001 -0.7 0.7
v -0.0500001 -0.6 0.8
v -0.0500001 -0.6 0.7
v 0.15 -1.4 0.3
v 0.15 -1.4 0.2
v 0.15 -1.4 -0.1
v 0.15 -1.4 -0.2
v 0.15 -0.8 0.3
v 0.15 -0.8 0.2
v 0.15 -0.8 -0.1
v 0.15 -0.8 -0.2
v 0.25 -1.5 0.9
v 0.25 -1.5 0.8
v 0.25 -1.5 -0.7
v 0.25 -1.5 -0.8
v 0.25 -1.4 0.9
v 0.25 -1.4 0.8
v 0.25 -1.4 0.2
v 0.25 -1.4 0.1
v 0.25 -1.4 0
v 0.25 -1.4 -0.1
v 0.25 -1.4 -0.7
v 0.25 -1.4 -0.8
v 0.25 -0.9 0.2
v 0.25 -0.9 0.1
v 0.25 -0.9 0
v 0.25 -0.9 -0.1
v 0.25 -0.2 -0.8
v 0.25 -0.2 -0.9
v 0.25 -0.1 -0.8
v 0.25 -0.1 -0.9
v 0.25 1 -0.8
v 0.25 1 -0.9
v 0.25 1.1 -0.8
v 0.25 1.1 -0.9
v 0.45 -1.5 0.8
v 0.45 -1.5 0.7
v 0.45 -1.5 -0.6
v 0.45 -1.5 -0.7
v 0.45 -1.4 0.8
v 0.45 -1.4 0.7
v 0.45 -1.4 -0.6
v 0.45 -1.4 -0.7
v 0.45 -0.1 -0.8
v 0.45 -0.1 -0.9
v 0.45 0 -0.8
v 0.45 0 -0.9
v 0.45 0.9 -0.8
v 0.45 0.9 -0.9
v 0.45 1 -0.8
v 0.45 1 -0.9
v 0.55 -0.9 0.9
v 0.55 -0.9 0.8
v 0.55 -0.9 -0.7
v 0.55 -0.8 0.9
v 0.55 -0.8 0.8
v 0.55 -0.8 -0.7
v 0.55 -0.7 0.9
v 0.55 -0.7 0.8
v 0.55 -0.6 0.9
v 0.55 -0.6 0.8
v 0.55 0 -0.8
v 0.55 0 -0.9
v 0.55 0.2 -0.8
v 0.55 0.2 -0.9
v 0.55 0.7 -0.8
v 0.55 0.7 -0.9
v 0.55 0.8 -0.8
v 0.55 0.9 -0.8
v 0.55 0.9 -0.9
v 0.55 1.1 -0.5
v 0.55 1.1 -0.6
v 0.55 1.2 -0.5
v 0.55 1.2 -0.6
v 0.55 1.3 -0.5
v 0.55 1.3 -0.6
v 0.55 1.4 -0.5
v 0.55 1.4 -0.6
v 0.65 -1.5 0.7
v 0.65 -1.5 0.5
v 0.65 -1.5 -0.4
v 0.65 -1.5 -0.6
v 0.65 -1.4 0.7
v 0.65 -1.4 0.5
v 0.65 -1.4 -0.4
v 0.65 -1.4 -0.6
v 0.65 -0.8 -0.7
v 0.65 -0.8 -0.8
v 0.65 -0.7 0.8
v 0.65 -0.7 -0.3
v 0.65 -0.7 -0.4
v 0.65 -0.7 -0.7
v 0.65 -0.7 -0.8
v 0.65 -0.6 0.8
v 0.65 -0.6 -0.4
v 0.65 0.2 -0.8
v 0.65 0.2 -0.9
v 0.65 0.7 -0.8
v 0.65 0.7 -0.9
v 0.65 1 -0.6
v 0.65 1 -0.7
v 0.65 1.1 -0.6
v 0.65 1.1 -0.7
v 0.65 1.2 -0.5
v 0.65 1.2 -0.6
v 0.65 1.3 -0.5
v 0.65 1.3 -0.6
v 0.65 1.4 -0.6
v 0.65 1.4 -0.7
v 0.65 1.4 -0.8
v 0.65 1.5 -0.6
v 0.65 1.5 -0.7
v 0.65 1.5 -0.8
v 0.75 -1.5 0.5
v 0.75 -1.5 0.3
v 0.75 -1.5 -0.2
v 0.75 -1.5 -0.4
v 0.75 -1.4 0.5
v 0.75 -1.4 0.3
v 0.75 -1.4 -0.2
v 0.75 -1.4 -0.4
v 0.75 -0.8 0.9
v 0.75 -0.8 -0.3
v 0.75 -0.8 -0.6
v 0.75 -0.8 -0.7
v 0.75 -0.7 0.9
v 0.75 -0.7 -0.1
v 0.75 -0.7 -0.3
v 0.75 -0.7 -0.6
v 0.75 -0.7 -0.7
v 0.75 -0.7 -0.8
v 0.75 -0.2 -0.7
v 0.75 -0.2 -0.8
v 0.75 -0.1 -0.7
v 0.75 -0.1 -0.8
v 0.75 0.8 -0.7
v 0.75 0.8 -0.8
v 0.75 1 -0.7
v 0.75 1 -0.8
v 0.75 1.4 -0.7
v 0.75 1.4 -0.8
v 0.85 -1.5 0.3
v 0.85 -1.5 -0.2
v 0.85 -1.4 0.3
v 0.85 -1.4 -0.2
v 0.85 -0.8 -0.3
v 0.85 -0.8 -0.6
v 0.85 -0.7 -0.1
v 0.85 -0.7 -0.3
v 0.85 -0.7 -0.4
v 0.85 -0.7 -0.6
v 0.85 -0.7 -0.7
v 0.85 -0.6 0.4
v 0.85 -0.6 -0.1
v 0.85 -0.5 0.7
v 0.85 -0.5 0.4
v 0.85 -0.4 0.9
v 0.85 -0.4 0.7
v 0.85 -0.4 -0.4
v 0.85 -0.4 -0.5
v 0.85 -0.3 0.8
v 0.85 -0.3 -0.2
v 0.85 -0.3 -0.3
v 0.85 -0.3 -0.5
v 0.85 -0.3 -0.6
v 0.85 -0.2 0.9
v 0.85 -0.2 0.8
v 0.85 -0.2 -0.2
v 0.85 -0.2 -0.3
v 0.85 -0.2 -0.6
v 0.85 -0.2 -0.7
v 0.85 -0.1 -0.3
v 0.85 -0.1 -0.6
v 0.85 -0.1 -0.7
v 0.85 0 -0.5
v 0.85 0 -0.6
v 0.85 0.3 -0.3
v 0.85 0.3 -0.4
v 0.85 0.7 -0.4
v 0.85 0.7 -0.5
v 0.85 0.7 -0.6
v 0.85 0.8 -0.6
v 0.85 0.8 -0.7
v 0.85 1 -0.6
v 0.85 1 -0.7
v 0.85 1.4 -0.5
v 0.85 1.4 -0.6
v 0.85 1.4 -0.7
v 0.95 -0.3 0.8
v 0.95 -0.3 -0.2
v 0.95 -0.2 0.9
v 0.95 -0.2 0.8
v 0.95 -0.2 0.3
v 0.95 -0.2 -0.2
v 0.95 -0.2 -0.3
v 0.95 -0.1 0.9
v 0.95 -0.1 0.5
v 0.95 -0.1 0.3
v 0.95 -0.1 -0.3
v 0.95 0 0.9
v 0.95 0 0.5
v -0.95 -0.2 0.9
v -0.95 -0.1 0.9
v -0.95 0 0.9
v -0.85 -0.4 0.9
v -0.85 -0.2 0.9
v -0.85 -0.1 0.9
v -0.75 -0.8 0.9
v -0.75 -0.7 0.9
v -0.75 -0.4 0.9
v -0.75 -0.2 0.9
v -0.75 -0.1 0.9
v -0.65 -0.2 0.9
v -0.65 -0.1 0.9
v -0.65 0 0.9
v -0.55 -0.9 0.9
v -0.55 -0.8 0.9
v -0.55 -0.7 0.9
v -0.55 -0.6 0.9
v -0.25 -1.5 0.9
v -0.25 -1.4 0.9
v -0.25 -0.9 0.9
v -0.25 -0.8 0.9
v -0.15 -0.7 0.9
v -0.15 -0.6 0.9
v 0.15 -0.7 0.9
v 0.15 -0.6 0.9
v 0.25 -1.5 0.9
v 0.25 -1.4 0.9
v 0.25 -0.9 0.9
v 0.25 -0.8 0.9
v 0.55 -0.9 0.9
v 0.55 -0.8 0.9
v 0.55 -0.7 0.9
v 0.55 -0.6 0.9
v 0.65 -0.2 0.9
v 0.65 -0.1 0.9
v 0.65 0 0.9
v 0.75 -0.8 0.9
v 0.75 -0.7 0.9
v 0.75 -0.4 0.9
v 0.75 -0.2 0.9
v 0.75 -0.1 0.9
v 0.85 -0.4 0.9
v 0.85 -0.2 0.9
v 0.85 -0.1 0.9
v 0.95 -0.2 0.9
v 0.95 -0.1 0.9
v 0.95 0 0.9
v -0.95 -0.3 0.8
v -0.95 -0.2 0.8
v -0.85 -0.3 0.8
v -0.85 -0.2 0.8
v -0.75 -0.3 0.8
v -0.75 -0.2 0.8
v -0.65 -0.7 0.8
v -0.65 -0.6 0.8
v -0.65 -0.3 0.8
v -0.65 -0.2 0.8
v -0.55 -0.7 0.8
v -0.55 -0.6 0.8
v -0.45 -1.5 0.8
v -0.45 -1.4 0.8
v -0.25 -1.5 0.8
v -0.25 -1.4 0.8
v -0.15 -0.7 0.8
v -0.15 -0.6 0.8
v -0.0500001 -0.7 0.8
v -0.0500001 -0.6 0.8
v 0.05 -0.7 0.8
v 0.05 -0.6 0.8
v 0.15 -0.7 0.8
v 0.15 -0.6 0.8
v 0.25 -1.5 0.8
v 0.25 -1.4 0.8
v 0.45 -1.5 0.8
v 0.45 -1.4 0.8
v 0.55 -0.7 0.8
v 0.55 -0.6 0.8
v 0.65 -0.7 0.8
v 0.65 -0.6 0.8
v 0.65 -0.3 0.8
v 0.65 -0.2 0.8
v 0.75 -0.3 0.8
v 0.75 -0.2 0.8
v 0.85 -0.3 0.8
v 0.85 -0.2 0.8
v 0.95 -0.3 0.8
v 0.95 -0.2 0.8
v -0.85 -0.5 0.7
v -0.85 -0.4 0.7
v -0.75 -0.5 0.7
v -0.75 -0.4 0.7
v -0.65 -1.5 0.7
v -0.65 -1.4 0.7
v -0.45 -1.5 0.7
v -0.45 -1.4 0.7
v -0.0500001 -0.7 0.7
v -0.0500001 -0.6 0.7
v 0.05 -0.7 0.7
v 0.05 -0.6 0.7
v 0.45 -1.5 0.7
v 0.45 -1.4 0.7
v 0.65 -1.5 0.7
v 0.65 -1.4 0.7
v 0.75 -0.5 0.7
v 0.75 -0.4 0.7
v 0.85 -0.5 0.7
v 0.85 -0.4 0.7
v -0.75 -1.5 0.5
v -0.75 -1.4 0.5
v -0.65 -1.5 0.5
v -0.65 -1.4 0.5
v 0.65 -1.5 0.5
v 0.65 -1.4 0.5
v 0.75 -1.5 0.5
v 0.75 -1.4 0.5
v -0.85 -0.6 0.4
v -0.85 -0.5 0.4
v -0.75 -0.6 0.4
v -0.75 -0.5 0.4
v 0.75 -0.6 0.4
v 0.75 -0.5 0.4
v 0.85 -0.6 0.4
v 0.85 -0.5 0.4
v -0.85 -1.5 0.3
v -0.85 -1.4 0.3
v -0.75 -1.5 0.3
v -0.75 -1.4 0.3
v -0.15 -1.4 0.3
v -0.15 -0.8 0.3
v -0.0500001 -1.4 0.3
v -0.0500001 -0.8 0.3
v 0.05 -1.4 0.3
v 0.05 -0.8 0.3
v 0.15 -1.4 0.3
v 0.15 -0.8 0.3
v 0.75 -1.5 0.3
v 0.75 -1.4 0.3
v 0.85 -1.5 0.3
v 0.85 -1.4 0.3
v -0.25 -1.4 0.2
v -0.25 -0.9 0.2
v -0.25 -0.8 0.2
v -0.15 -1.4 0.2
v -0.15 -0.8 0.2
v 0.15 -1.4 0.2
v 0.15 -0.8 0.2
v 0.25 -1.4 0.2
v 0.25 -0.9 0.2
v 0.25 -0.8 0.2
v -0.85 -0.7 -0.1
v -0.85 -0.6 -0.1
v -0.75 -0.7 -0.1
v -0.75 -0.6 -0.1
v -0.15 -1.4 -0.1
v -0.15 -0.8 -0.1
v -0.0500001 -1.4 -0.1
v -0.0500001 -0.8 -0.1
v 0.05 -1.4 -0.1
v 0.05 -0.8 -0.1
v 0.15 -1.4 -0.1
v 0.15 -0.8 -0.1
v 0.75 -0.7 -0.1
v 0.75 -0.6 -0.1
v 0.85 -0.7 -0.1
v 0.85 -0.6 -0.1
v -0.85 -0.8 -0.3
v -0.85 -0.7 -0.3
v -0.85 -0.1 -0.3
v -0.85 0.3 -0.3
v -0.75 -0.8 -0.3
v -0.75 -0.7 -0.3
v -0.75 -0.1 -0.3
v -0.75 0.3 -0.3
v 0.75 -0.8 -0.3
v 0.75 -0.7 -0.3
v 0.75 -0.1 -0.3
v 0.75 0.3 -0.3
v 0.85 -0.8 -0.3
v 0.85 -0.7 -0.3
v 0.85 -0.1 -0.3
v 0.85 0.3 -0.3
v -0.85 0.3 -0.4
v -0.85 0.7 -0.4
v -0.75 -0.7 -0.4
v -0.75 -0.4 -0.4
v -0.75 0.3 -0.4
v -0.75 0.7 -0.4
v -0.65 -0.7 -0.4
v -0.65 -0.6 -0.4
v 0.65 -0.7 -0.4
v 0.65 -0.6 -0.4
v 0.75 -0.7 -0.4
v 0.75 -0.4 -0.4
v 0.75 0.3 -0.4
v 0.75 0.7 -0.4
v 0.85 0.3 -0.4
v 0.85 0.7 -0.4
v -0.85 0.7 -0.5
v -0.85 1.4 -0.5
v -0.75 -0.4 -0.5
v -0.75 -0.3 -0.5
v -0.75 0 -0.5
v -0.75 0.7 -0.5
v -0.75 1.4 -0.5
v -0.65 1.2 -0.5
v -0.65 1.3 -0.5
v -0.55 1.1 -0.5
v -0.55 1.2 -0.5
v -0.55 1.3 -0.5
v -0.55 1.4 -0.5
v 0.55 1.1 -0.5
v 0.55 1.2 -0.5
v 0.55 1.3 -0.5
v 0.55 1.4 -0.5
v 0.65 1.2 -0.5
v 0.65 1.3 -0.5
v 0.75 -0.4 -0.5
v 0.75 -0.3 -0.5
v 0.75 0 -0.5
v 0.75 0.7 -0.5
v 0.75 1.4 -0.5
v 0.85 0.7 -0.5
v 0.85 1.4 -0.5
v -0.75 -0.3 -0.6
v -0.75 -0.2 -0.6
v -0.75 -0.1 -0.6
v -0.75 0 -0.6
v -0.75 0.7 -0.6
v -0.75 0.8 -0.6
v -0.75 1.1 -0.6
v -0.75 1.4 -0.6
v -0.65 1 -0.6
v -0.65 1.1 -0.6
v -0.65 1.2 -0.6
v -0.65 1.3 -0.6
v -0.65 1.4 -0.6
v -0.65 1.5 -0.6
v -0.55 1.1 -0.6
v -0.55 1.2 -0.6
v -0.55 1.3 -0.6
v -0.55 1.4 -0.6
v 0.55 1.1 -0.6
v 0.55 1.2 -0.6
v 0.55 1.3 -0.6
v 0.55 1.4 -0.6
v 0.65 1 -0.6
v 0.65 1.1 -0.6
v 0.65 1.2 -0.6
v 0.65 1.3 -0.6
v 0.65 1.4 -0.6
v 0.65 1.5 -0.6
v 0.75 -0.3 -0.6
v 0.75 -0.2 -0.6
v 0.75 -0.1 -0.6
v 0.75 0 -0.6
v 0.75 0.7 -0.6
v 0.75 0.8 -0.6
v 0.75 1.1 -0.6
v 0.75 1.4 -0.6
v -0.75 -0.5 -0.7
v -0.75 -0.3 -0.7
v -0.75 -0.2 -0.7
v -0.75 -0.1 -0.7
v -0.75 0.8 -0.7
v -0.75 1 -0.7
v -0.75 1.1 -0.7
v -0.65 1 -0.7
v -0.65 1.1 -0.7
v 0.65 1 -0.7
v 0.65 1.1 -0.7
v 0.75 -0.5 -0.7
v 0.75 -0.3 -0.7
v 0.75 -0.2 -0.7
v 0.75 -0.1 -0.7
v 0.75 0.8 -0.7
v 0.75 1 -0.7
v 0.75 1.1 -0.7
v -0.95 -0.1 0.5
v -0.95 0 0.5
v -0.85 -0.1 0.5
v -0.75 -0.1 0.5
v -0.65 -0.1 0.5
v -0.65 0 0.5
v 0.65 -0.1 0.5
v 0.65 0 0.5
v 0.75 -0.1 0.5
v 0.85 -0.1 0.5
v 0.95 -0.1 0.5
v 0.95 0 0.5
v -0.15 -1.4 0.2
v -0.15 -0.8 0.2
v -0.0500001 -1.4 0.2
v -0.0500001 -0.8 0.2
v 0.05 -1.4 0.2
v 0.05 -0.8 0.2
v 0.15 -1.4 0.2
v 0.15 -0.8 0.2
v -0.25 -1.4 -0.1
v -0.25 -0.9 -0.1
v -0.25 -0.8 -0.1
v -0.15 -1.4 -0.1
v -0.15 -0.8 -0.1
v 0.15 -1.4 -0.1
v 0.15 -0.8 -0.1
v 0.25 -1.4 -0.1
v 0.25 -0.9 -0.1
v 0.25 -0.8 -0.1
v -0.95 -0.3 -0.2
v -0.95 -0.2 -0.2
v -0.85 -1.5 -0.2
v -0.85 -1.4 -0.2
v -0.85 -0.3 -0.2
v -0.85 -0.2 -0.2
v -0.75 -1.5 -0.2
v -0.75 -1.4 -0.2
v -0.15 -1.4 -0.2
v -0.15 -0.8 -0.2
v -0.0500001 -1.4 -0.2
v -0.0500001 -0.8 -0.2
v 0.05 -1.4 -0.2
v 0.05 -0.8 -0.2
v 0.15 -1.4 -0.2
v 0.15 -0.8 -0.2
v 0.75 -1.5 -0.2
v 0.75 -1.4 -0.2
v 0.85 -1.5 -0.2
v 0.85 -1.4 -0.2
v 0.85 -0.3 -0.2
v 0.85 -0.2 -0.2
v 0.95 -0.3 -0.2
v 0.95 -0.2 -0.2
v -0.95 -0.2 -0.3
v -0.95 -0.1 -0.3
v -0.85 -0.2 -0.3
v -0.85 -0.1 -0.3
v -0.75 -0.3 -0.3
v -0.75 -0.2 -0.3
v -0.75 -0.1 -0.3
v -0.65 -0.3 -0.3
v -0.65 -0.2 -0.3
v -0.65 -0.1 -0.3
v 0.65 -0.3 -0.3
v 0.65 -0.2 -0.3
v 0.65 -0.1 -0.3
v 0.75 -0.3 -0.3
v 0.75 -0.2 -0.3
v 0.75 -0.1 -0.3
v 0.85 -0.2 -0.3
v 0.85 -0.1 -0.3
v 0.95 -0.2 -0.3
v 0.95 -0.1 -0.3
v -0.75 -1.5 -0.4
v -0.75 -1.4 -0.4
v -0.65 -1.5 -0.4
v -0.65 -1.4 -0.4
v 0.65 -1.5 -0.4
v 0.65 -1.4 -0.4
v 0.75 -1.5 -0.4
v 0.75 -1.4 -0.4
v -0.85 -0.8 -0.6
v -0.85 -0.7 -0.6
v -0.75 -0.8 -0.6
v -0.75 -0.7 -0.6
v -0.75 -0.5 -0.6
v -0.75 -0.4 -0.6
v -0.75 -0.3 -0.6
v -0.65 -1.5 -0.6
v -0.65 -1.4 -0.6
v -0.45 -1.5 -0.6
v -0.45 -1.4 -0.6
v 0.45 -1.5 -0.6
v 0.45 -1.4 -0.6
v 0.65 -1.5 -0.6
v 0.65 -1.4 -0.6
v 0.75 -0.8 -0.6
v 0.75 -0.7 -0.6
v 0.75 -0.5 -0.6
v 0.75 -0.4 -0.6
v 0.75 -0.3 -0.6
v 0.85 -0.8 -0.6
v 0.85 -0.7 -0.6
v -0.85 -0.7 -0.7
v -0.85 -0.2 -0.7
v -0.85 -0.1 -0.7
v -0.85 0.8 -0.7
v -0.85 1 -0.7
v -0.85 1.4 -0.7
v -0.75 -0.8 -0.7
v -0.75 -0.7 -0.7
v -0.75 -0.2 -0.7
v -0.75 -0.1 -0.7
v -0.75 0.8 -0.7
v -0.75 1 -0.7
v -0.75 1.4 -0.7
v -0.65 -0.8 -0.7
v -0.65 -0.7 -0.7
v -0.55 -0.9 -0.7
v -0.55 -0.8 -0.7
v -0.45 -1.5 -0.7
v -0.45 -1.4 -0.7
v -0.25 -1.5 -0.7
v -0.25 -1.4 -0.7
v -0.25 -0.9 -0.7
v -0.25 -0.8 -0.7
v 0.25 -1.5 -0.7
v 0.25 -1.4 -0.7
v 0.25 -0.9 -0.7
v 0.25 -0.8 -0.7
v 0.45 -1.5 -0.7
v 0.45 -1.4 -0.7
v 0.55 -0.9 -0.7
v 0.55 -0.8 -0.7
v 0.65 -0.8 -0.7
v 0.65 -0.7 -0.7
v 0.75 -0.8 -0.7
v 0.75 -0.7 -0.7
v 0.75 -0.2 -0.7
v 0.75 -0.1 -0.7
v 0.75 0.8 -0.7
v 0.75 1 -0.7
v 0.75 1.4 -0.7
v 0.85 -0.7 -0.7
v 0.85 -0.2 -0.7
v 0.85 -0.1 -0.7
v 0.85 0.8 -0.7
v 0.85 1 -0.7
v 0.85 1.4 -0.7
v -0.75 -0.7 -0.8
v -0.75 -0.2 -0.8
v -0.75 -0.1 -0.8
v -0.75 0.8 -0.8
v -0.75 1 -0.8
v -0.75 1.4 -0.8
v -0.65 -0.8 -0.8
v -0.65 -0.7 -0.8
v -0.65 0.2 -0.8
v -0.65 0.7 -0.8
v -0.65 1.4 -0.8
v -0.65 1.5 -0.8
v -0.55 0 -0.8
v -0.55 0.2 -0.8
v -0.55 0.7 -0.8
v -0.55 0.8 -0.8
v -0.55 0.9 -0.8
v -0.45 -0.1 -0.8
v -0.45 0 -0.8
v -0.45 0.9 -0.8
v -0.45 1 -0.8
v -0.25 -1.5 -0.8
v -0.25 -1.4 -0.8
v -0.25 -0.2 -0.8
v -0.25 -0.1 -0.8
v -0.25 1 -0.8
v -0.25 1.1 -0.8
v 0.25 -1.5 -0.8
v 0.25 -1.4 -0.8
v 0.25 -0.2 -0.8
v 0.25 -0.1 -0.8
v 0.25 1 -0.8
v 0.25 1.1 -0.8
v 0.45 -0.1 -0.8
v 0.45 0 -0.8
v 0.45 0.9 -0.8
v 0.45 1 -0.8
v 0.55 0 -0.8
v 0.55 0.2 -0.8
v 0.55 0.7 -0.8
v 0.55 0.8 -0.8
v 0.55 0.9 -0.8
v 0.65 -0.8 -0.8
v 0.65 -0.7 -0.8
v 0.65 0.2 -0.8
v 0.65 0.7 -0.8
v 0.65 1.4 -0.8
v 0.65 1.5 -0.8
v 0.75 -0.7 -0.8
v 0.75 -0.2 -0.8
v 0.75 -0.1 -0.8
v 0.75 0.8 -0.8
v 0.75 1 -0.8
v 0.75 1.4 -0.8
v -0.65 0.2 -0.9
v -0.65 0.7 -0.9
v -0.55 0 -0.9
v -0.55 0.2 -0.9
v -0.55 0.4 -0.9
v -0.55 0.6 -0.9
v -0.55 0.7 -0.9
v -0.55 0.9 -0.9
v -0.45 -0.1 -0.9
v -0.45 0 -0.9
v -0.45 0.1 -0.9
v -0.45 0.2 -0.9
v -0.45 0.4 -0.9
v -0.45 0.6 -0.9
v -0.45 0.9 -0.9
v -0.45 1 -0.9
v -0.35 0.1 -0.9
v -0.35 0.2 -0.9
v -0.35 0.5 -0.9
v -0.25 -0.2 -0.9
v -0.25 -0.1 -0.9
v -0.25 0 -0.9
v -0.25 0.2 -0.9
v -0.25 0.4 -0.9
v -0.25 0.5 -0.9
v -0.25 0.7 -0.9
v -0.25 1 -0.9
v -0.25 1.1 -0.9
v -0.15 0 -0.9
v -0.15 0.1 -0.9
v -0.15 0.4 -0.9
v -0.15 0.7 -0.9
v -0.15 0.9 -0.9
v -0.0500001 -0.1 -0.9
v -0.0500001 0.1 -0.9
v -0.0500001 0.2 -0.9
v -0.0500001 0.4 -0.9
v -0.0500001 0.6 -0.9
v -0.0500001 0.7 -0.9
v -0.0500001 0.9 -0.9
v -0.0500001 1 -0.9
v 0.05 -0.1 -0.9
v 0.05 0.1 -0.9
v 0.05 0.2 -0.9
v 0.05 0.4 -0.9
v 0.05 0.6 -0.9
v 0.05 0.7 -0.9
v 0.05 0.9 -0.9
v 0.05 1 -0.9
v 0.15 0 -0.9
v 0.15 0.1 -0.9
v 0.15 0.4 -0.9
v 0.15 0.7 -0.9
v 0.15 0.9 -0.9
v 0.25 -0.2 -0.9
v 0.25 -0.1 -0.9
v 0.25 0 -0.9
v 0.25 0.2 -0.9
v 0.25 0.4 -0.9
v 0.25 0.5 -0.9
v 0.25 0.7 -0.9
v 0.25 1 -0.9
v 0.25 1.1 -0.9
v 0.35 0.1 -0.9
v 0.35 0.2 -0.9
v 0.35 0.5 -0.9
v 0.45 -0.1 -0.9
v 0.45 0 -0.9
v 0.45 0.1 -0.9
v 0.45 0.2 -0.9
v 0.45 0.4 -0.9
v 0.45 0.6 -0.9
v 0.45 0.9 -0.9
v 0.45 1 -0.9
v 0.55 0 -0.9
v 0.55 0.2 -0.9
v 0.55 0.4 -0.9
v 0.55 0.6 -0.9
v 0.55 0.7 -0.9
v 0.55 0.9 -0.9
v 0.65 0.2 -0.9
v 0.65 0.7 -0.9
v -0.25 -1.5 0.9
v 0.25 -1.5 0.9
v -0.45 -1.5 0.8
v -0.25 -1.5 0.8
v 0.25 -1.5 0.8
v 0.45 -1.5 0.8
v -0.65 -1.5 0.7
v -0.45 -1.5 0.7
v -0.25 -1.5 0.7
v -0.0500001 -1.5 0.7
v 0.05 -1.5 0.7
v 0.25 -1.5 0.7
v 0.45 -1.5 0.7
v 0.65 -1.5 0.7
v -0.55 -1.5 0.6
v -0.45 -1.5 0.6
v -0.15 -1.5 0.6
v -0.0500001 -1.5 0.6
v 0.05 -1.5 0.6
v 0.15 -1.5 0.6
v 0.45 -1.5 0.6
v 0.55 -1.5 0.6
v -0.75 -1.5 0.5
v -0.65 -1.5 0.5
v -0.55 -1.5 0.5
v -0.35 -1.5 0.5
v -0.15 -1.5 0.5
v -0.0500001 -1.5 0.5
v 0.05 -1.5 0.5
v 0.15 -1.5 0.5
v 0.35 -1.5 0.5
v 0.55 -1.5 0.5
v 0.65 -1.5 0.5
v 0.75 -1.5 0.5
v -0.45 -1.5 0.4
v -0.35 -1.5 0.4
v -0.25 -1.5 0.4
v -0.0500001 -1.5 0.4
v 0.05 -1.5 0.4
v 0.25 -1.5 0.4
v 0.35 -1.5 0.4
v 0.45 -1.5 0.4
v -0.85 -1.5 0.3
v -0.75 -1.5 0.3
v -0.65 -1.5 0.3
v -0.35 -1.5 0.3
v -0.25 -1.5 0.3
v -0.15 -1.5 0.3
v 0.15 -1.5 0.3
v 0.25 -1.5 0.3
v 0.35 -1.5 0.3
v 0.65 -1.5 0.3
v 0.75 -1.5 0.3
v 0.85 -1.5 0.3
v -0.55 -1.5 0.2
v -0.45 -1.5 0.2
v -0.25 -1.5 0.2
v -0.15 -1.5 0.2
v 0.15 -1.5 0.2
v 0.25 -1.5 0.2
v 0.45 -1.5 0.2
v 0.55 -1.5 0.2
v -0.45 -1.5 0.1
v -0.35 -1.5 0.1
v 0.35 -1.5 0.1
v 0.45 -1.5 0.1
v -0.45 -1.5 0
v -0.35 -1.5 0
v 0.35 -1.5 0
v 0.45 -1.5 0
v -0.55 -1.5 -0.1
v -0.45 -1.5 -0.1
v -0.25 -1.5 -0.1
v -0.15 -1.5 -0.1
v 0.15 -1.5 -0.1
v 0.25 -1.5 -0.1
v 0.45 -1.5 -0.1
v 0.55 -1.5 -0.1
v -0.85 -1.5 -0.2
v -0.75 -1.5 -0.2
v -0.65 -1.5 -0.2
v -0.35 -1.5 -0.2
v -0.25 -1.5 -0.2
v -0.15 -1.5 -0.2
v 0.15 -1.5 -0.2
v 0.25 -1.5 -0.2
v 0.35 -1.5 -0.2
v 0.65 -1.5 -0.2
v 0.75 -1.5 -0.2
v 0.85 -1.5 -0.2
v -0.45 -1.5 -0.3
v -0.35 -1.5 -0.3
v -0.25 -1.5 -0.3
v -0.0500001 -1.5 -0.3
v 0.05 -1.5 -0.3
v 0.25 -1.5 -0.3
v 0.35 -1.5 -0.3
v 0.45 -1.5 -0.3
v -0.75 -1.5 -0.4
v -0.65 -1.5 -0.4
v -0.55 -1.5 -0.4
v -0.35 -1.5 -0.4
v -0.15 -1.5 -0.4
v -0.0500001 -1.5 -0.4
v 0.05 -1.5 -0.4
v 0.15 -1.5 -0.4
v 0.35 -1.5 -0.4
v 0.55 -1.5 -0.4
v 0.65 -1.5 -0.4
v 0.75 -1.5 -0.4
v -0.55 -1.5 -0.5
v -0.45 -1.5 -0.5
v -0.15 -1.5 -0.5
v -0.0500001 -1.5 -0.5
v 0.05 -1.5 -0.5
v 0.15 -1.5 -0.5
v 0.45 -1.5 -0.5
v 0.55 -1.5 -0.5
v -0.65 -1.5 -0.6
v -0.45 -1.5 -0.6
v -0.25 -1.5 -0.6
v -0.0500001 -1.5 -0.6
v 0.05 -1.5 -0.6
v 0.25 -1.5 -0.6
v 0.45 -1.5 -0.6
v 0.65 -1.5 -0.6
v -0.45 -1.5 -0.7
v -0.25 -1.5 -0.7
v 0.25 -1.5 -0.7
v 0.45 -1.5 -0.7
v -0.25 -1.5 -0.8
v 0.25 -1.5 -0.8
v -0.55 -0.9 0.9
v -0.25 -0.9 0.9
v 0.25 -0.9 0.9
v 0.55 -0.9 0.9
v -0.55 -0.9 0.8
v -0.25 -0.9 0.8
v 0.25 -0.9 0.8
v 0.55 -0.9 0.8
v -0.25 -0.9 0.2
v 0.25 -0.9 0.2
v -0.25 -0.9 0.1
v 0.25 -0.9 0.1
v -0.25 -0.9 0
v 0.25 -0.9 0
v -0.25 -0.9 -0.1
v 0.25 -0.9 -0.1
v -0.55 -0.9 -0.7
v -0.25 -0.9 -0.7
v 0.25 -0.9 -0.7
v 0.55 -0.9 -0.7
v -0.75 -0.8 0.9
v -0.55 -0.8 0.9
v -0.25 -0.8 0.9
v 0.25 -0.8 0.9
v 0.55 -0.8 0.9
v 0.75 -0.8 0.9
v -0.65 -0.8 0.8
v -0.55 -0.8 0.8
v -0.25 -0.8 0.8
v -0.0500001 -0.8 0.8
v 0.05 -0.8 0.8
v 0.25 -0.8 0.8
v 0.55 -0.8 0.8
v 0.65 -0.8 0.8
v -0.0500001 -0.8 0.7
v 0.05 -0.8 0.7
v -0.15 -0.8 0.3
v -0.0500001 -0.8 0.3
v 0.05 -0.8 0.3
v 0.15 -0.8 0.3
v -0.25 -0.8 0.2
v -0.15 -0.8 0.2
v -0.0500001 -0.8 0.2
v 0.05 -0.8 0.2
v 0.15 -0.8 0.2
v 0.25 -0.8 0.2
v -0.15 -0.8 0.1
v 0.15 -0.8 0.1
v -0.15 -0.8 0
v 0.15 -0.8 0
v -0.25 -0.8 -0.1
v -0.15 -0.8 -0.1
v -0.0500001 -0.8 -0.1
v 0.05 -0.8 -0.1
v 0.15 -0.8 -0.1
v 0.25 -0.8 -0.1
v -0.15 -0.8 -0.2
v -0.0500001 -0.8 -0.2
v 0.05 -0.8 -0.2
v 0.15 -0.8 -0.2
v -0.85 -0.8 -0.3
v -0.75 -0.8 -0.3
v -0.65 -0.8 -0.3
v 0.65 -0.8 -0.3
v 0.75 -0.8 -0.3
v 0.85 -0.8 -0.3
v -0.85 -0.8 -0.6
v -0.75 -0.8 -0.6
v 0.75 -0.8 -0.6
v 0.85 -0.8 -0.6
v -0.75 -0.8 -0.7
v -0.65 -0.8 -0.7
v -0.55 -0.8 -0.7
v -0.25 -0.8 -0.7
v 0.25 -0.8 -0.7
v 0.55 -0.8 -0.7
v 0.65 -0.8 -0.7
v 0.75 -0.8 -0.7
v -0.65 -0.8 -0.8
v 0.65 -0.8 -0.8
v -0.85 -0.7 -0.1
v -0.75 -0.7 -0.1
v 0.75 -0.7 -0.1
v 0.85 -0.7 -0.1
v -0.85 -0.7 -0.3
v -0.75 -0.7 -0.3
v 0.75 -0.7 -0.3
v 0.85 -0.7 -0.3
v -0.85 -0.7 -0.6
v -0.75 -0.7 -0.6
v 0.75 -0.7 -0.6
v 0.85 -0.7 -0.6
v -0.85 -0.7 -0.7
v -0.75 -0.7 -0.7
v -0.65 -0.7 -0.7
v 0.65 -0.7 -0.7
v 0.75 -0.7 -0.7
v 0.85 -0.7 -0.7
v -0.75 -0.7 -0.8
v -0.65 -0.7 -0.8
v 0.65 -0.7 -0.8
v 0.75 -0.7 -0.8
v -0.85 -0.6 0.4
v -0.75 -0.6 0.4
v 0.75 -0.6 0.4
v 0.85 -0.6 0.4
v -0.85 -0.6 -0.1
v -0.75 -0.6 -0.1
v 0.75 -0.6 -0.1
v 0.85 -0.6 -0.1
v -0.85 -0.5 0.7
v -0.75 -0.5 0.7
v 0.75 -0.5 0.7
v 0.85 -0.5 0.7
v -0.85 -0.5 0.4
v -0.75 -0.5 0.4
v 0.75 -0.5 0.4
v 0.85 -0.5 0.4
v -0.85 -0.4 0.9
v -0.75 -0.4 0.9
v 0.75 -0.4 0.9
v 0.85 -0.4 0.9
v -0.85 -0.4 0.7
v -0.75 -0.4 0.7
v 0.75 -0.4 0.7
v 0.85 -0.4 0.7
v -0.95 -0.3 0.8
v -0.85 -0.3 0.8
v -0.75 -0.3 0.8
v -0.65 -0.3 0.8
v 0.65 -0.3 0.8
v 0.75 -0.3 0.8
v 0.85 -0.3 0.8
v 0.95 -0.3 0.8
v -0.95 -0.3 -0.2
v -0.85 -0.3 -0.2
v 0.85 -0.3 -0.2
v 0.95 -0.3 -0.2
v -0.75 -0.3 -0.3
v -0.65 -0.3 -0.3
v 0.65 -0.3 -0.3
v 0.75 -0.3 -0.3
v -0.75 -0.3 -0.6
v 0.75 -0.3 -0.6
v -0.75 -0.3 -0.7
v 0.75 -0.3 -0.7
v -0.95 -0.2 0.9
v -0.85 -0.2 0.9
v -0.75 -0.2 0.9
v -0.65 -0.2 0.9
v 0.65 -0.2 0.9
v 0.75 -0.2 0.9
v 0.85 -0.2 0.9
v 0.95 -0.2 0.9
v -0.95 -0.2 0.8
v -0.85 -0.2 0.8
v -0.75 -0.2 0.8
v -0.65 -0.2 0.8
v 0.65 -0.2 0.8
v 0.75 -0.2 0.8
v 0.85 -0.2 0.8
v 0.95 -0.2 0.8
v -0.95 -0.2 -0.2
v -0.85 -0.2 -0.2
v 0.85 -0.2 -0.2
v 0.95 -0.2 -0.2
v -0.95 -0.2 -0.3
v -0.85 -0.2 -0.3
v 0.85 -0.2 -0.3
v 0.95 -0.2 -0.3
v -0.25 -0.2 -0.8
v 0.25 -0.2 -0.8
v -0.25 -0.2 -0.9
v 0.25 -0.2 -0.9
v -0.75 -0.1 -0.6
v 0.75 -0.1 -0.6
v -0.75 -0.1 -0.7
v 0.75 -0.1 -0.7
v -0.45 -0.1 -0.8
v -0.25 -0.1 -0.8
v 0.25 -0.1 -0.8
v 0.45 -0.1 -0.8
v -0.45 -0.1 -0.9
v -0.25 -0.1 -0.9
v 0.25 -0.1 -0.9
v 0.45 -0.1 -0.9
v -0.75 0 -0.5
v 0.75 0 -0.5
v -0.75 0 -0.6
v 0.75 0 -0.6
v -0.55 0 -0.8
v -0.45 0 -0.8
v 0.45 0 -0.8
v 0.55 0 -0.8
v -0.55 0 -0.9
v -0.45 0 -0.9
v 0.45 0 -0.9
v 0.55 0 -0.9
v -0.65 0.2 -0.8
v -0.55 0.2 -0.8
v 0.55 0.2 -0.8
v 0.65 0.2 -0.8
v -0.65 0.2 -0.9
v -0.55 0.2 -0.9
v 0.55 0.2 -0.9
v 0.65 0.2 -0.9
v -0.65 1 -0.6
v 0.65 1 -0.6
v -0.65 1 -0.7
v 0.65 1 -0.7
v -0.55 1.1 -0.5
v 0.55 1.1 -0.5
v -0.75 1.1 -0.6
v -0.65 1.1 -0.6
v -0.55 1.1 -0.6
v 0.55 1.1 -0.6
v 0.65 1.1 -0.6
v 0.75 1.1 -0.6
v -0.75 1.1 -0.7
v -0.65 1.1 -0.7
v 0.65 1.1 -0.7
v 0.75 1.1 -0.7
v -0.65 1.2 -0.5
v -0.55 1.2 -0.5
v 0.55 1.2 -0.5
v 0.65 1.2 -0.5
v -0.65 1.2 -0.6
v -0.55 1.2 -0.6
v 0.55 1.2 -0.6
v 0.65 1.2 -0.6
v -0.25 -1.4 0.9
v 0.25 -1.4 0.9
v -0.45 -1.4 0.8
v -0.25 -1.4 0.8
v 0.25 -1.4 0.8
v 0.45 -1.4 0.8
v -0.65 -1.4 0.7
v -0.45 -1.4 0.7
v -0.25 -1.4 0.7
v -0.0500001 -1.4 0.7
v 0.05 -1.4 0.7
v 0.25 -1.4 0.7
v 0.45 -1.4 0.7
v 0.65 -1.4 0.7
v -0.55 -1.4 0.6
v -0.45 -1.4 0.6
v -0.15 -1.4 0.6
v -0.0500001 -1.4 0.6
v 0.05 -1.4 0.6
v 0.15 -1.4 0.6
v 0.45 -1.4 0.6
v 0.55 -1.4 0.6
v -0.75 -1.4 0.5
v -0.65 -1.4 0.5
v -0.55 -1.4 0.5
v -0.35 -1.4 0.5
v -0.15 -1.4 0.5
v -0.0500001 -1.4 0.5
v 0.05 -1.4 0.5
v 0.15 -1.4 0.5
v 0.35 -1.4 0.5
v 0.55 -1.4 0.5
v 0.65 -1.4 0.5
v 0.75 -1.4 0.5
v -0.45 -1.4 0.4
v -0.35 -1.4 0.4
v -0.25 -1.4 0.4
v -0.0500001 -1.4 0.4
v 0.05 -1.4 0.4
v 0.25 -1.4 0.4
v 0.35 -1.4 0.4
v 0.45 -1.4 0.4
v -0.85 -1.4 0.3
v -0.75 -1.4 0.3
v -0.65 -1.4 0.3
v -0.35 -1.4 0.3
v -0.25 -1.4 0.3
v -0.15 -1.4 0.3
v -0.0500001 -1.4 0.3
v 0.05 -1.4 0.3
v 0.15 -1.4 0.3
v 0.25 -1.4 0.3
v 0.35 -1.4 0.3
v 0.65 -1.4 0.3
v 0.75 -1.4 0.3
v 0.85 -1.4 0.3
v -0.55 -1.4 0.2
v -0.45 -1.4 0.2
v -0.25 -1.4 0.2
v -0.15 -1.4 0.2
v -0.0500001 -1.4 0.2
v 0.05 -1.4 0.2
v 0.15 -1.4 0.2
v 0.25 -1.4 0.2
v 0.45 -1.4 0.2
v 0.55 -1.4 0.2
v -0.45 -1.4 0.1
v -0.35 -1.4 0.1
v -0.25 -1.4 0.1
v -0.15 -1.4 0.1
v 0.15 -1.4 0.1
v 0.25 -1.4 0.1
v 0.35 -1.4 0.1
v 0.45 -1.4 0.1
v -0.45 -1.4 0
v -0.35 -1.4 0
v -0.25 -1.4 0
v -0.15 -1.4 0
v 0.15 -1.4 0
v 0.25 -1.4 0
v 0.35 -1.4 0
v 0.45 -1.4 0
v -0.55 -1.4 -0.1
v -0.45 -1.4 -0.1
v -0.25 -1.4 -0.1
v -0.15 -1.4 -0.1
v -0.0500001 -1.4 -0.1
v 0.05 -1.4 -0.1
v 0.15 -1.4 -0.1
v 0.25 -1.4 -0.1
v 0.45 -1.4 -0.1
v 0.55 -1.4 -0.1
v -0.85 -1.4 -0.2
v -0.75 -1.4 -0.2
v -0.65 -1.4 -0.2
v -0.35 -1.4 -0.2
v -0.25 -1.4 -0.2
v -0.15 -1.4 -0.2
v -0.0500001 -1.4 -0.2
v 0.05 -1.4 -0.2
v 0.15 -1.4 -0.2
v 0.25 -1.4 -0.2
v 0.35 -1.4 -0.2
v 0.65 -1.4 -0.2
v 0.75 -1.4 -0.2
v 0.85 -1.4 -0.2
v -0.45 -1.4 -0.3
v -0.35 -1.4 -0.3
v -0.25 -1.4 -0.3
v -0.0500001 -1.4 -0.3
v 0.05 -1.4 -0.3
v 0.25 -1.4 -0.3
v 0.35 -1.4 -0.3
v 0.45 -1.4 -0.3
v -0.75 -1.4 -0.4
v -0.65 -1.4 -0.4
v -0.55 -1.4 -0.4
v -0.35 -1.4 -0.4
v -0.15 -1.4 -0.4
v -0.0500001 -1.4 -0.4
v 0.05 -1.4 -0.4
v 0.15 -1.4 -0.4
v 0.35 -1.4 -0.4
v 0.55 -1.4 -0.4
v 0.65 -1.4 -0.4
v 0.75 -1.4 -0.4
v -0.55 -1.4 -0.5
v -0.45 -1.4 -0.5
v -0.15 -1.4 -0.5
v -0.0500001 -1.4 -0.5
v 0.05 -1.4 -0.5
v 0.15 -1.4 -0.5
v 0.45 -1.4 -0.5
v 0.55 -1.4 -0.5
v -0.65 -1.4 -0.6
v -0.45 -1.4 -0.6
v -0.25 -1.4 -0.6
v -0.0500001 -1.4 -0.6
v 0.05 -1.4 -0.6
v 0.25 -1.4 -0.6
v 0.45 -1.4 -0.6
v 0.65 -1.4 -0.6
v -0.45 -1.4 -0.7
v -0.25 -1.4 -0.7
v 0.25 -1.4 -0.7
v 0.45 -1.4 -0.7
v -0.25 -1.4 -0.8
v 0.25 -1.4 -0.8
v -0.75 -0.7 0.9
v -0.55 -0.7 0.9
v -0.15 -0.7 0.9
v 0.15 -0.7 0.9
v 0.55 -0.7 0.9
v 0.75 -0.7 0.9
v -0.65 -0.7 0.8
v -0.55 -0.7 0.8
v -0.15 -0.7 0.8
v -0.0500001 -0.7 0.8
v 0.05 -0.7 0.8
v 0.15 -0.7 0.8
v 0.55 -0.7 0.8
v 0.65 -0.7 0.8
v -0.0500001 -0.7 0.7
v 0.05 -0.7 0.7
v -0.75 -0.7 -0.1
v 0.75 -0.7 -0.1
v -0.75 -0.7 -0.3
v -0.65 -0.7 -0.3
v 0.65 -0.7 -0.3
v 0.75 -0.7 -0.3
v -0.75 -0.7 -0.4
v -0.65 -0.7 -0.4
v 0.65 -0.7 -0.4
v 0.75 -0.7 -0.4
v -0.55 -0.6 0.9
v -0.15 -0.6 0.9
v 0.15 -0.6 0.9
v 0.55 -0.6 0.9
v -0.65 -0.6 0.8
v -0.55 -0.6 0.8
v -0.15 -0.6 0.8
v -0.0500001 -0.6 0.8
v 0.05 -0.6 0.8
v 0.15 -0.6 0.8
v 0.55 -0.6 0.8
v 0.65 -0.6 0.8
v -0.55 -0.6 0.7
v -0.15 -0.6 0.7
v -0.0500001 -0.6 0.7
v 0.05 -0.6 0.7
v 0.15 -0.6 0.7
v 0.55 -0.6 0.7
v -0.45 -0.6 0.6
v -0.25 -0.6 0.6
v 0.25 -0.6 0.6
v 0.45 -0.6 0.6
v -0.15 -0.6 0.5
v -0.0500001 -0.6 0.5
v 0.05 -0.6 0.5
v 0.15 -0.6 0.5
v -0.25 -0.6 0.4
v -0.15 -0.6 0.4
v 0.15 -0.6 0.4
v 0.25 -0.6 0.4
v -0.25 -0.6 0
v -0.15 -0.6 0
v 0.15 -0.6 0
v 0.25 -0.6 0
v -0.15 -0.6 -0.1
v -0.0500001 -0.6 -0.1
v 0.05 -0.6 -0.1
v 0.15 -0.6 -0.1
v -0.45 -0.6 -0.2
v -0.25 -0.6 -0.2
v 0.25 -0.6 -0.2
v 0.45 -0.6 -0.2
v -0.55 -0.6 -0.3
v -0.15 -0.6 -0.3
v 0.15 -0.6 -0.3
v 0.55 -0.6 -0.3
v -0.65 -0.6 -0.4
v 0.65 -0.6 -0.4
v -0.75 -0.5 -0.6
v 0.75 -0.5 -0.6
v -0.75 -0.5 -0.7
v 0.75 -0.5 -0.7
v -0.75 -0.4 -0.4
v 0.75 -0.4 -0.4
v -0.75 -0.4 -0.5
v 0.75 -0.4 -0.5
v -0.75 -0.3 -0.5
v 0.75 -0.3 -0.5
v -0.75 -0.3 -0.6
v 0.75 -0.3 -0.6
v -0.75 -0.2 -0.6
v 0.75 -0.2 -0.6
v -0.75 -0.2 -0.7
v 0.75 -0.2 -0.7
v -0.95 -0.1 0.5
v -0.85 -0.1 0.5
v -0.75 -0.1 0.5
v -0.65 -0.1 0.5
v 0.65 -0.1 0.5
v 0.75 -0.1 0.5
v 0.85 -0.1 0.5
v 0.95 -0.1 0.5
v -0.95 -0.1 0.3
v -0.85 -0.1 0.3
v -0.75 -0.1 0.3
v -0.65 -0.1 0.3
v 0.65 -0.1 0.3
v 0.75 -0.1 0.3
v 0.85 -0.1 0.3
v 0.95 -0.1 0.3
v -0.95 -0.1 -0.3
v -0.85 -0.1 -0.3
v -0.75 -0.1 -0.3
v -0.65 -0.1 -0.3
v 0.65 -0.1 -0.3
v 0.75 -0.1 -0.3
v 0.85 -0.1 -0.3
v 0.95 -0.1 -0.3
v -0.95 0 0.9
v -0.65 0 0.9
v 0.65 0 0.9
v 0.95 0 0.9
v -0.95 0 0.5
v -0.65 0 0.5
v 0.65 0 0.5
v 0.95 0 0.5
v -0.85 0.3 -0.3
v -0.75 0.3 -0.3
v 0.75 0.3 -0.3
v 0.85 0.3 -0.3
v -0.85 0.3 -0.4
v -0.75 0.3 -0.4
v 0.75 0.3 -0.4
v 0.85 0.3 -0.4
v -0.85 0.7 -0.4
v -0.75 0.7 -0.4
v 0.75 0.7 -0.4
v 0.85 0.7 -0.4
v -0.85 0.7 -0.5
v -0.75 0.7 -0.5
v 0.75 0.7 -0.5
v 0.85 0.7 -0.5
v -0.75 0.7 -0.6
v 0.75 0.7 -0.6
v -0.65 0.7 -0.8
v -0.55 0.7 -0.8
v 0.55 0.7 -0.8
v 0.65 0.7 -0.8
v -0.65 0.7 -0.9
v -0.55 0.7 -0.9
v 0.55 0.7 -0.9
v 0.65 0.7 -0.9
v -0.75 0.8 -0.6
v 0.75 0.8 -0.6
v -0.75 0.8 -0.7
v 0.75 0.8 -0.7
v -0.55 0.9 -0.8
v -0.45 0.9 -0.8
v 0.45 0.9 -0.8
v 0.55 0.9 -0.8
v -0.55 0.9 -0.9
v -0.45 0.9 -0.9
v 0.45 0.9 -0.9
v 0.55 0.9 -0.9
v -0.45 1 -0.8
v -0.25 1 -0.8
v 0.25 1 -0.8
v 0.45 1 -0.8
v -0.45 1 -0.9
v -0.25 1 -0.9
v 0.25 1 -0.9
v 0.45 1 -0.9
v -0.25 1.1 -0.8
v 0.25 1.1 -0.8
v -0.25 1.1 -0.9
v 0.25 1.1 -0.9
v -0.65 1.3 -0.5
v -0.55 1.3 -0.5
v 0.55 1.3 -0.5
v 0.65 1.3 -0.5
v -0.65 1.3 -0.6
v -0.55 1.3 -0.6
v 0.55 1.3 -0.6
v 0.65 1.3 -0.6
v -0.85 1.4 -0.5
v -0.75 1.4 -0.5
v -0.55 1.4 -0.5
v 0.55 1.4 -0.5
v 0.75 1.4 -0.5
v 0.85 1.4 -0.5
v -0.85 1.4 -0.6
v -0.75 1.4 -0.6
v -0.65 1.4 -0.6
v -0.55 1.4 -0.6
v 0.55 1.4 -0.6
v 0.65 1.4 -0.6
v 0.75 1.4 -0.6
v 0.85 1.4 -0.6
v -0.85 1.4 -0.7
v -0.75 1.4 -0.7
v -0.65 1.4 -0.7
v 0.65 1.4 -0.7
v 0.75 1.4 -0.7
v 0.85 1.4 -0.7
v -0.75 1.4 -0.8
v -0.65 1.4 -0.8
v 0.65 1.4 -0.8
v 0.75 1.4 -0.8
v -0.65 1.5 -0.6
v 0.65 1.5 -0.6
v -0.65 1.5 -0.7
v 0.65 1.5 -0.7
v -0.65 1.5 -0.8
v 0.65 1.5 -0.8

# faces
f 4/11/1 2/11/1 1/11/1
f 5/11/1 2/11/1 4/11/1
f 6/11/1 2/11/1 5/11/1
f 8/11/1 4/11/1 3/11/1
f 8/11/1 5/11/1 4/11/1
f 9/11/1 5/11/1 8/11/1
f 10/7/1 7/7/1 6/7/1
f 10/11/1 5/11/1 9/11/1
f 10/7/1 6/7/1 5/7/1
f 11/7/1 7/7/1 10/7/1
f 12/7/1 9/7/1 8/7/1
f 13/7/1 9/7/1 12/7/1
f 16/8/1 15/8/1 14/8/1
f 17/8/1 15/8/1 16/8/1
f 21/8/1 19/8/1 18/8/1
f 22/8/1 19/8/1 21/8/1
f 23/8/1 19/8/1 22/8/1
f 26/2/1 21/2/1 20/2/1
f 26/2/1 22/2/1 21/2/1
f 28/2/1 26/2/1 25/2/1
f 30/2/1 28/2/1 27/2/1
f 31/8/1 24/8/1 23/8/1
f 31/8/1 23/8/1 22/8/1
f 31/2/1 28/2/1 30/2/1
f 31/2/1 22/2/1 26/2/1
f 31/2/1 26/2/1 28/2/1
f 32/8/1 24/8/1 31/8/1
f 33/2/1 30/2/1 29/2/1
f 33/2/1 31/2/1 30/2/1
f 33/2/1 32/2/1 31/2/1
f 34/2/1 32/2/1 33/2/1
f 35/2/1 32/2/1 34/2/1
f 36/8/1 24/8/1 32/8/1
f 36/2/1 32/2/1 35/2/1
f 37/8/1 24/8/1 36/8/1
f 38/2/1 33/2/1 29/2/1
f 39/2/1 33/2/1 38/2/1
f 40/8/1 35/8/1 34/8/1
f 41/2/1 37/2/1 36/2/1
f 41/8/1 35/8/1 40/8/1
f 41/2/1 36/2/1 35/2/1
f 42/8/1 24/8/1 37/8/1
f 42/2/1 37/2/1 41/2/1
f 43/8/1 24/8/1 42/8/1
f 44/2/1 43/2/1 42/2/1
f 44/2/1 42/2/1 41/2/1
f 45/2/1 43/2/1 44/2/1
f 46/2/1 43/2/1 45/2/1
f 47/2/1 45/2/1 44/2/1
f 48/8/1 46/8/1 45/8/1
f 48/2/1 45/2/1 47/2/1
f 49/2/1 47/2/1 44/2/1
f 50/2/1 47/2/1 49/2/1
f 51/2/1 47/2/1 50/2/1
f 52/8/1 48/8/1 47/8/1
f 52/2/1 47/2/1 51/2/1
f 53/8/1 46/8/1 48/8/1
f 53/8/1 48/8/1 52/8/1
f 54/8/1 46/8/1 53/8/1
f 54/2/1 53/2/1 52/2/1
f 55/8/1 46/8/1 54/8/1
f 56/2/1 54/2/1 52/2/1
f 56/2/1 55/2/1 54/2/1
f 57/2/1 55/2/1 56/2/1
f 58/2/1 56/2/1 52/2/1
f 59/8/1 57/8/1 56/8/1
f 59/2/1 56/2/1 58/2/1
f 60/8/1 57/8/1 59/8/1
f 65/8/1 62/8/1 61/8/1
f 66/8/1 62/8/1 65/8/1
f 67/8/1 64/8/1 63/8/1
f 68/8/1 64/8/1 67/8/1
f 73/2/1 70/2/1 69/2/1
f 74/2/1 70/2/1 73/2/1
f 75/2/1 70/2/1 74/2/1
f 76/10/1 72/10/1 71/10/1
f 77/10/1 72/10/1 76/10/1
f 79/10/1 78/10/1 77/10/1
f 80/10/1 78/10/1 79/10/1
f 81/4/1 80/4/1 79/4/1
f 82/4/1 80/4/1 81/4/1
f 83/10/1 82/10/1 81/10/1
f 84/10/1 82/10/1 83/10/1
f 85/5/1 84/5/1 83/5/1
f 86/5/1 84/5/1 85/5/1
f 87/10/1 86/10/1 85/10/1
f 88/10/1 86/10/1 87/10/1
f 93/8/1 90/8/1 89/8/1
f 94/8/1 90/8/1 93/8/1
f 95/8/1 92/8/1 91/8/1
f 96/8/1 92/8/1 95/8/1
f 102/10/1 98/10/1 97/10/1
f 103/10/1 98/10/1 102/10/1
f 104/7/1 101/7/1 100/7/1
f 104/7/1 100/7/1 99/7/1
f 105/7/1 101/7/1 104/7/1
f 108/8/1 107/8/1 106/8/1
f 109/8/1 107/8/1 108/8/1
f 112/3/1 111/3/1 110/3/1
f 113/3/1 111/3/1 112/3/1
f 116/7/1 115/7/1 114/7/1
f 117/7/1 115/7/1 116/7/1
f 121/3/1 119/3/1 118/3/1
f 122/10/1 120/10/1 119/10/1
f 122/3/1 119/3/1 121/3/1
f 123/10/1 120/10/1 122/10/1
f 127/2/1 125/2/1 124/2/1
f 128/10/1 126/10/1 125/10/1
f 128/2/1 125/2/1 127/2/1
f 129/10/1 126/10/1 128/10/1
f 132/7/1 131/7/1 130/7/1
f 133/7/1 131/7/1 132/7/1
f 136/8/1 135/8/1 134/8/1
f 137/8/1 135/8/1 136/8/1
f 140/8/1 139/8/1 138/8/1
f 141/8/1 139/8/1 140/8/1
f 142/8/1 139/8/1 141/8/1
f 145/7/1 144/7/1 143/7/1
f 146/7/1 144/7/1 145/7/1
f 149/7/1 148/7/1 147/7/1
f 150/7/1 148/7/1 149/7/1
f 155/8/1 152/8/1 151/8/1
f 156/8/1 152/8/1 155/8/1
f 157/8/1 154/8/1 153/8/1
f 158/8/1 154/8/1 157/8/1
f 161/8/1 160/8/1 159/8/1
f 162/8/1 160/8/1 161/8/1
f 165/8/1 164/8/1 163/8/1
f 166/8/1 164/8/1 165/8/1
f 171/8/1 168/8/1 167/8/1
f 172/8/1 168/8/1 171/8/1
f 177/8/1 170/8/1 169/8/1
f 178/8/1 170/8/1 177/8/1
f 179/12/1 174/12/1 173/12/1
f 180/10/1 175/10/1 174/10/1
f 180/12/1 174/12/1 179/12/1
f 181/12/1 176/12/1 175/12/1
f 181/10/1 175/10/1 180/10/1
f 182/12/1 176/12/1 181/12/1
f 185/8/1 184/8/1 183/8/1
f 186/8/1 184/8/1 185/8/1
f 189/8/1 188/8/1 187/8/1
f 190/8/1 188/8/1 189/8/1
f 195/12/1 192/12/1 191/12/1
f 196/12/1 192/12/1 195/12/1
f 197/12/1 194/12/1 193/12/1
f 198/12/1 194/12/1 197/12/1
f 201/7/1 200/7/1 199/7/1
f 202/7/1 200/7/1 201/7/1
f 207/12/1 204/12/1 203/12/1
f 208/10/1 205/10/1 204/10/1
f 208/12/1 204/12/1 207/12/1
f 209/12/1 206/12/1 205/12/1
f 209/10/1 205/10/1 208/10/1
f 210/12/1 206/12/1 209/12/1
f 213/7/1 212/7/1 211/7/1
f 214/7/1 212/7/1 213/7/1
f 220/2/1 216/2/1 215/2/1
f 221/10/1 217/10/1 216/10/1
f 221/2/1 216/2/1 220/2/1
f 222/10/1 217/10/1 221/10/1
f 223/10/1 219/10/1 218/10/1
f 224/10/1 219/10/1 223/10/1
f 228/11/1 226/11/1 225/11/1
f 229/11/1 226/11/1 228/11/1
f 230/11/1 226/11/1 229/11/1
f 231/11/1 228/11/1 227/11/1
f 231/11/1 229/11/1 228/11/1
f 232/11/1 229/11/1 231/11/1
f 233/7/1 230/7/1 229/7/1
f 233/11/1 229/11/1 232/11/1
f 234/7/1 230/7/1 233/7/1
f 235/7/1 232/7/1 231/7/1
f 236/7/1 232/7/1 235/7/1
f 241/2/1 238/2/1 237/2/1
f 241/2/1 239/2/1 238/2/1
f 243/2/1 241/2/1 240/2/1
f 247/2/1 243/2/1 242/2/1
f 248/2/1 239/2/1 241/2/1
f 248/2/1 241/2/1 243/2/1
f 248/2/1 243/2/1 247/2/1
f 250/8/1 245/8/1 244/8/1
f 251/2/1 247/2/1 246/2/1
f 251/2/1 249/2/1 248/2/1
f 251/2/1 248/2/1 247/2/1
f 252/2/1 249/2/1 251/2/1
f 253/2/1 249/2/1 252/2/1
f 254/8/1 245/8/1 250/8/1
f 255/8/1 245/8/1 254/8/1
f 256/2/1 251/2/1 246/2/1
f 257/2/1 251/2/1 256/2/1
f 258/2/1 253/2/1 252/2/1
f 258/2/1 254/2/1 253/2/1
f 259/2/1 254/2/1 258/2/1
f 261/2/1 260/2/1 259/2/1
f 261/2/1 259/2/1 258/2/1
f 262/2/1 260/2/1 261/2/1
f 263/2/1 260/2/1 262/2/1
f 264/2/1 262/2/1 261/2/1
f 265/2/1 262/2/1 264/2/1
f 266/2/1 264/2/1 261/2/1
f 267/2/1 264/2/1 266/2/1
f 268/2/1 264/2/1 267/2/1
f 269/2/1 264/2/1 268/2/1
f 271/2/1 270/2/1 269/2/1
f 273/2/1 271/2/1 269/2/1
f 273/2/1 272/2/1 271/2/1
f 274/2/1 272/2/1 273/2/1
f 275/2/1 273/2/1 269/2/1
f 275/8/1 274/8/1 273/8/1
f 276/8/1 274/8/1 275/8/1
f 277/2/1 275/2/1 269/2/1
f 278/2/1 275/2/1 277/2/1
f 279/2/2 280/2/2 283/2/2
f 280/2/2 281/2/2 283/2/2
f 282/2/2 283/2/2 285/2/2
f 284/2/2 285/2/2 289/2/2
f 283/2/2 281/2/2 290/2/2
f 285/2/2 283/2/2 290/2/2
f 289/2/2 285/2/2 290/2/2
f 286/8/2 287/8/2 292/8/2
f 288/2/2 289/2/2 293/2/2
f 290/2/2 291/2/2 293/2/2
f 289/2/2 290/2/2 293/2/2
f 293/2/2 291/2/2 294/2/2
f 294/2/2 291/2/2 295/2/2
f 292/8/2 287/8/2 296/8/2
f 296/8/2 287/8/2 297/8/2
f 288/2/2 293/2/2 298/2/2
f 298/2/2 293/2/2 299/2/2
f 294/2/2 295/2/2 300/2/2
f 295/2/2 296/2/2 300/2/2
f 300/2/2 296/2/2 301/2/2
f 301/2/2 302/2/2 303/2/2
f 300/2/2 301/2/2 303/2/2
f 303/2/2 302/2/2 304/2/2
f 304/2/2 302/2/2 305/2/2
f 303/2/2 304/2/2 306/2/2
f 306/2/2 304/2/2 307/2/2
f 303/2/2 306/2/2 308/2/2
f 308/2/2 306/2/2 309/2/2
f 309/2/2 306/2/2 310/2/2
f 310/2/2 306/2/2 311/2/2
f 311/2/2 312/2/2 313/2/2
f 311/2/2 313/2/2 315/2/2
f 313/2/2 314/2/2 315/2/2
f 315/2/2 314/2/2 316/2/2
f 311/2/2 315/2/2 317/2/2
f 315/8/2 316/8/2 317/8/2
f 317/8/2 316/8/2 318/8/2
f 311/2/2 317/2/2 319/2/2
f 319/2/2 317/2/2 320/2/2
f 321/11/2 322/11/2 324/11/2
f 324/11/2 322/11/2 325/11/2
f 325/11/2 322/11/2 326/11/2
f 323/11/2 324/11/2 327/11/2
f 324/11/2 325/11/2 327/11/2
f 327/11/2 325/11/2 328/11/2
f 325/7/2 326/7/2 329/7/2
f 328/11/2 325/11/2 329/11/2
f 329/7/2 326/7/2 330/7/2
f 327/7/2 328/7/2 331/7/2
f 331/7/2 328/7/2 332/7/2
f 333/2/2 334/2/2 338/2/2
f 334/10/2 335/10/2 339/10/2
f 338/2/2 334/2/2 339/2/2
f 339/10/2 335/10/2 340/10/2
f 336/10/2 337/10/2 341/10/2
f 341/10/2 337/10/2 342/10/2
f 343/12/2 344/12/2 347/12/2
f 344/10/2 345/10/2 348/10/2
f 347/12/2 344/12/2 348/12/2
f 345/12/2 346/12/2 349/12/2
f 348/10/2 345/10/2 349/10/2
f 349/12/2 346/12/2 350/12/2
f 351/7/2 352/7/2 353/7/2
f 353/7/2 352/7/2 354/7/2
f 355/7/2 356/7/2 357/7/2
f 357/7/2 356/7/2 358/7/2
f 359/12/2 360/12/2 363/12/2
f 363/12/2 360/12/2 364/12/2
f 361/12/2 362/12/2 365/12/2
f 365/12/2 362/12/2 366/12/2
f 367/8/2 368/8/2 371/8/2
f 371/8/2 368/8/2 372/8/2
f 369/8/2 370/8/2 377/8/2
f 377/8/2 370/8/2 378/8/2
f 373/12/2 374/12/2 379/12/2
f 374/10/2 375/10/2 380/10/2
f 379/12/2 374/12/2 380/12/2
f 375/12/2 376/12/2 381/12/2
f 380/10/2 375/10/2 381/10/2
f 381/12/2 376/12/2 382/12/2
f 383/8/2 384/8/2 385/8/2
f 385/8/2 384/8/2 386/8/2
f 387/8/2 388/8/2 389/8/2
f 389/8/2 388/8/2 390/8/2
f 391/8/2 392/8/2 395/8/2
f 395/8/2 392/8/2 396/8/2
f 393/8/2 394/8/2 397/8/2
f 397/8/2 394/8/2 398/8/2
f 399/8/2 400/8/2 401/8/2
f 401/8/2 400/8/2 402/8/2
f 403/8/2 404/8/2 405/8/2
f 405/8/2 404/8/2 406/8/2
f 407/2/2 408/2/2 410/2/2
f 408/10/2 409/10/2 411/10/2
f 410/2/2 408/2/2 411/2/2
f 411/10/2 409/10/2 412/10/2
f 413/7/2 414/7/2 415/7/2
f 415/7/2 414/7/2 416/7/2
f 417/8/2 418/8/2 419/8/2
f 419/8/2 418/8/2 420/8/2
f 421/8/2 422/8/2 423/8/2
f 423/8/2 422/8/2 424/8/2
f 424/8/2 422/8/2 425/8/2
f 426/7/2 427/7/2 428/7/2
f 428/7/2 427/7/2 429/7/2
f 430/7/2 431/7/2 432/7/2
f 432/7/2 431/7/2 433/7/2
f 434/8/2 435/8/2 438/8/2
f 438/8/2 435/8/2 439/8/2
f 436/8/2 437/8/2 440/8/2
f 440/8/2 437/8/2 441/8/2
f 442/10/2 443/10/2 447/10/2
f 447/10/2 443/10/2 448/10/2
f 445/7/2 446/7/2 449/7/2
f 444/7/2 445/7/2 449/7/2
f 449/7/2 446/7/2 450/7/2
f 451/8/2 452/8/2 453/8/2
f 453/8/2 452/8/2 454/8/2
f 455/3/2 456/3/2 457/3/2
f 457/3/2 456/3/2 458/3/2
f 459/7/2 460/7/2 461/7/2
f 461/7/2 460/7/2 462/7/2
f 463/3/2 464/3/2 466/3/2
f 464/10/2 465/10/2 467/10/2
f 466/3/2 464/3/2 467/3/2
f 467/10/2 465/10/2 468/10/2
f 469/8/2 470/8/2 473/8/2
f 473/8/2 470/8/2 474/8/2
f 471/8/2 472/8/2 475/8/2
f 475/8/2 472/8/2 476/8/2
f 477/2/2 478/2/2 481/2/2
f 481/2/2 478/2/2 482/2/2
f 482/2/2 478/2/2 483/2/2
f 479/10/2 480/10/2 484/10/2
f 484/10/2 480/10/2 485/10/2
f 485/10/2 486/10/2 487/10/2
f 487/10/2 486/10/2 488/10/2
f 487/4/2 488/4/2 489/4/2
f 489/4/2 488/4/2 490/4/2
f 489/10/2 490/10/2 491/10/2
f 491/10/2 490/10/2 492/10/2
f 491/5/2 492/5/2 493/5/2
f 493/5/2 492/5/2 494/5/2
f 493/10/2 494/10/2 495/10/2
f 495/10/2 494/10/2 496/10/2
f 497/8/2 498/8/2 499/8/2
f 499/8/2 498/8/2 500/8/2
f 501/8/2 502/8/2 504/8/2
f 504/8/2 502/8/2 505/8/2
f 505/8/2 502/8/2 506/8/2
f 503/2/2 504/2/2 509/2/2
f 504/2/2 505/2/2 509/2/2
f 508/2/2 509/2/2 511/2/2
f 510/2/2 511/2/2 513/2/2
f 506/8/2 507/8/2 514/8/2
f 505/8/2 506/8/2 514/8/2
f 513/2/2 511/2/2 514/2/2
f 509/2/2 505/2/2 514/2/2
f 511/2/2 509/2/2 514/2/2
f 514/8/2 507/8/2 515/8/2
f 512/2/2 513/2/2 516/2/2
f 513/2/2 514/2/2 516/2/2
f 514/2/2 515/2/2 516/2/2
f 516/2/2 515/2/2 517/2/2
f 517/2/2 515/2/2 518/2/2
f 515/8/2 507/8/2 519/8/2
f 518/2/2 515/2/2 519/2/2
f 519/8/2 507/8/2 520/8/2
f 512/2/2 516/2/2 521/2/2
f 521/2/2 516/2/2 522/2/2
f 517/8/2 518/8/2 523/8/2
f 519/2/2 520/2/2 524/2/2
f 523/8/2 518/8/2 524/8/2
f 518/2/2 519/2/2 524/2/2
f 520/8/2 507/8/2 525/8/2
f 524/2/2 520/2/2 525/2/2
f 525/8/2 507/8/2 526/8/2
f 525/2/2 526/2/2 527/2/2
f 524/2/2 525/2/2 527/2/2
f 527/2/2 526/2/2 528/2/2
f 528/2/2 526/2/2 529/2/2
f 527/2/2 528/2/2 530/2/2
f 528/8/2 529/8/2 531/8/2
f 530/2/2 528/2/2 531/2/2
f 527/2/2 530/2/2 532/2/2
f 532/2/2 530/2/2 533/2/2
f 533/2/2 530/2/2 534/2/2
f 530/8/2 531/8/2 535/8/2
f 534/2/2 530/2/2 535/2/2
f 531/8/2 529/8/2 536/8/2
f 535/8/2 531/8/2 536/8/2
f 536/8/2 529/8/2 537/8/2
f 535/2/2 536/2/2 537/2/2
f 537/8/2 529/8/2 538/8/2
f 535/2/2 537/2/2 539/2/2
f 537/2/2 538/2/2 539/2/2
f 539/2/2 538/2/2 540/2/2
f 535/2/2 539/2/2 541/2/2
f 539/8/2 540/8/2 542/8/2
f 541/2/2 539/2/2 542/2/2
f 542/8/2 540/8/2 543/8/2
f 544/11/2 545/11/2 547/11/2
f 547/11/2 545/11/2 548/11/2
f 548/11/2 545/11/2 549/11/2
f 546/11/2 547/11/2 551/11/2
f 547/11/2 548/11/2 551/11/2
f 551/11/2 548/11/2 552/11/2
f 549/7/2 550/7/2 553/7/2
f 552/11/2 548/11/2 553/11/2
f 548/7/2 549/7/2 553/7/2
f 553/7/2 550/7/2 554/7/2
f 551/7/2 552/7/2 555/7/2
f 555/7/2 552/7/2 556/7/2
f 561/11/3 558/11/3 557/11/3
f 562/7/3 559/7/3 558/7/3
f 562/11/3 558/11/3 561/11/3
f 565/2/3 561/2/3 560/2/3
f 566/10/3 562/10/3 561/10/3
f 566/2/3 561/2/3 565/2/3
f 567/7/3 559/7/3 562/7/3
f 567/10/3 562/10/3 566/10/3
f 568/11/3 567/11/3 566/11/3
f 569/7/3 559/7/3 567/7/3
f 569/11/3 567/11/3 568/11/3
f 570/7/3 559/7/3 569/7/3
f 572/2/3 564/2/3 563/2/3
f 573/2/3 564/2/3 572/2/3
f 577/2/3 572/2/3 571/2/3
f 577/2/3 573/2/3 572/2/3
f 578/2/3 573/2/3 577/2/3
f 579/7/3 574/7/3 573/7/3
f 579/2/3 573/2/3 578/2/3
f 580/7/3 574/7/3 579/7/3
f 581/2/3 579/2/3 578/2/3
f 583/8/3 576/8/3 575/8/3
f 584/8/3 576/8/3 583/8/3
f 586/2/3 581/2/3 578/2/3
f 587/2/3 586/2/3 585/2/3
f 588/2/3 581/2/3 586/2/3
f 588/2/3 586/2/3 587/2/3
f 589/7/3 582/7/3 581/7/3
f 589/2/3 581/2/3 588/2/3
f 590/7/3 582/7/3 589/7/3
f 594/2/3 589/2/3 588/2/3
f 595/2/3 589/2/3 594/2/3
f 597/11/3 592/11/3 591/11/3
f 598/7/3 593/7/3 592/7/3
f 598/11/3 592/11/3 597/11/3
f 599/2/3 597/2/3 596/2/3
f 600/10/3 598/10/3 597/10/3
f 600/2/3 597/2/3 599/2/3
f 601/7/3 593/7/3 598/7/3
f 601/10/3 598/10/3 600/10/3
f 602/11/3 601/11/3 600/11/3
f 603/7/3 593/7/3 601/7/3
f 603/11/3 601/11/3 602/11/3
f 604/7/3 593/7/3 603/7/3
f 607/11/3 606/11/3 605/11/3
f 608/11/3 606/11/3 607/11/3
f 613/11/3 610/11/3 609/11/3
f 614/11/3 610/11/3 613/11/3
f 615/7/3 612/7/3 611/7/3
f 616/7/3 612/7/3 615/7/3
f 619/8/3 618/8/3 617/8/3
f 620/8/3 618/8/3 619/8/3
f 623/7/3 622/7/3 621/7/3
f 624/7/3 622/7/3 623/7/3
f 627/7/3 626/7/3 625/7/3
f 628/7/3 626/7/3 627/7/3
f 631/8/3 630/8/3 629/8/3
f 632/8/3 630/8/3 631/8/3
f 635/7/3 634/7/3 633/7/3
f 636/7/3 634/7/3 635/7/3
f 639/11/3 638/11/3 637/11/3
f 640/11/3 638/11/3 639/11/3
f 643/11/3 642/11/3 641/11/3
f 644/11/3 642/11/3 643/11/3
f 647/2/3 646/2/3 645/2/3
f 648/2/3 646/2/3 647/2/3
f 651/8/3 650/8/3 649/8/3
f 652/8/3 650/8/3 651/8/3
f 655/7/3 654/7/3 653/7/3
f 656/7/3 654/7/3 655/7/3
f 659/8/3 658/8/3 657/8/3
f 660/8/3 658/8/3 659/8/3
f 663/2/3 662/2/3 661/2/3
f 664/2/3 662/2/3 663/2/3
f 667/8/3 666/8/3 665/8/3
f 668/8/3 666/8/3 667/8/3
f 671/8/3 670/8/3 669/8/3
f 672/8/3 670/8/3 671/8/3
f 675/2/3 674/2/3 673/2/3
f 676/2/3 674/2/3 675/2/3
f 679/2/3 678/2/3 677/2/3
f 680/2/3 678/2/3 679/2/3
f 683/8/3 682/8/3 681/8/3
f 684/8/3 682/8/3 683/8/3
f 687/12/3 686/12/3 685/12/3
f 688/12/3 686/12/3 687/12/3
f 689/10/3 688/10/3 687/10/3
f 690/10/3 688/10/3 689/10/3
f 691/12/3 690/12/3 689/12/3
f 692/12/3 690/12/3 691/12/3
f 695/8/3 694/8/3 693/8/3
f 696/8/3 694/8/3 695/8/3
f 700/12/3 698/12/3 697/12/3
f 700/12/3 699/12/3 698/12/3
f 701/12/3 699/12/3 700/12/3
f 704/12/3 703/12/3 702/12/3
f 705/12/3 703/12/3 704/12/3
f 706/12/3 703/12/3 705/12/3
f 709/2/3 708/2/3 707/2/3
f 710/2/3 708/2/3 709/2/3
f 713/12/3 712/12/3 711/12/3
f 714/12/3 712/12/3 713/12/3
f 715/10/3 714/10/3 713/10/3
f 716/10/3 714/10/3 715/10/3
f 717/12/3 716/12/3 715/12/3
f 718/12/3 716/12/3 717/12/3
f 721/2/3 720/2/3 719/2/3
f 722/2/3 720/2/3 721/2/3
f 727/8/3 724/8/3 723/8/3
f 728/8/3 724/8/3 727/8/3
f 729/2/3 726/2/3 725/2/3
f 730/2/3 726/2/3 729/2/3
f 735/8/3 732/8/3 731/8/3
f 736/8/3 732/8/3 735/8/3
f 737/2/3 734/2/3 733/2/3
f 738/2/3 734/2/3 737/2/3
f 743/2/3 740/2/3 739/2/3
f 744/2/3 740/2/3 743/2/3
f 745/7/3 742/7/3 741/7/3
f 746/7/3 742/7/3 745/7/3
f 748/7/3 742/7/3 746/7/3
f 749/7/3 748/7/3 747/7/3
f 750/7/3 742/7/3 748/7/3
f 750/7/3 748/7/3 749/7/3
f 753/2/3 752/2/3 751/2/3
f 754/2/3 752/2/3 753/2/3
f 760/2/3 756/2/3 755/2/3
f 761/2/3 756/2/3 760/2/3
f 765/7/3 763/7/3 762/7/3
f 766/7/3 763/7/3 765/7/3
f 768/7/3 765/7/3 764/7/3
f 768/7/3 767/7/3 766/7/3
f 768/7/3 766/7/3 765/7/3
f 769/7/3 767/7/3 768/7/3
f 770/7/3 767/7/3 769/7/3
f 771/7/3 767/7/3 770/7/3
f 772/7/3 770/7/3 769/7/3
f 773/7/3 770/7/3 772/7/3
f 774/3/3 758/3/3 757/3/3
f 775/3/3 758/3/3 774/3/3
f 776/7/3 760/7/3 759/7/3
f 777/7/3 760/7/3 776/7/3
f 779/2/3 778/2/3 777/2/3
f 780/2/3 778/2/3 779/2/3
f 790/3/3 788/3/3 787/3/3
f 791/3/3 788/3/3 790/3/3
f 792/3/3 788/3/3 791/3/3
f 793/3/3 788/3/3 792/3/3
f 795/3/3 790/3/3 789/3/3
f 795/3/3 791/3/3 790/3/3
f 796/3/3 791/3/3 795/3/3
f 797/3/3 794/3/3 793/3/3
f 797/3/3 793/3/3 792/3/3
f 798/3/3 794/3/3 797/3/3
f 799/3/3 795/3/3 789/3/3
f 802/3/3 794/3/3 798/3/3
f 803/3/3 800/3/3 799/3/3
f 803/3/3 799/3/3 789/3/3
f 804/3/3 800/3/3 803/3/3
f 805/3/3 800/3/3 804/3/3
f 806/3/3 802/3/3 801/3/3
f 807/3/3 794/3/3 802/3/3
f 807/3/3 802/3/3 806/3/3
f 808/3/3 794/3/3 807/3/3
f 809/5/3 782/5/3 781/5/3
f 810/5/3 782/5/3 809/5/3
f 811/3/3 784/3/3 783/3/3
f 812/3/3 784/3/3 811/3/3
f 813/3/3 786/3/3 785/3/3
f 814/3/3 786/3/3 813/3/3
f 815/3/3 805/3/3 804/3/3
f 815/3/3 806/3/3 805/3/3
f 815/3/3 807/3/3 806/3/3
f 816/3/3 807/3/3 815/3/3
f 824/5/3 822/5/3 821/5/3
f 824/10/3 823/10/3 822/10/3
f 825/10/3 823/10/3 824/10/3
f 826/5/3 824/5/3 821/5/3
f 828/10/3 818/10/3 817/10/3
f 829/10/3 818/10/3 828/10/3
f 830/4/3 820/4/3 819/4/3
f 831/4/3 820/4/3 830/4/3
f 832/5/3 826/5/3 821/5/3
f 833/10/3 827/10/3 826/10/3
f 833/5/3 826/5/3 832/5/3
f 834/10/3 827/10/3 833/10/3
f 835/7/4 836/7/4 837/7/4
f 837/7/4 836/7/4 838/7/4
f 838/7/4 836/7/4 839/7/4
f 839/7/4 836/7/4 840/7/4
f 841/7/4 842/7/4 843/7/4
f 843/7/4 842/7/4 844/7/4
f 844/7/4 842/7/4 845/7/4
f 845/7/4 842/7/4 846/7/4
f 847/12/4 848/12/4 849/12/4
f 849/12/4 848/12/4 850/12/4
f 849/10/4 850/10/4 851/10/4
f 851/10/4 850/10/4 852/10/4
f 851/12/4 852/12/4 853/12/4
f 853/12/4 852/12/4 854/12/4
f 855/12/4 856/12/4 858/12/4
f 856/12/4 857/12/4 858/12/4
f 858/12/4 857/12/4 859/12/4
f 860/12/4 861/12/4 862/12/4
f 862/12/4 861/12/4 863/12/4
f 863/12/4 861/12/4 864/12/4
f 865/11/4 866/11/4 869/11/4
f 869/11/4 866/11/4 870/11/4
f 867/8/4 868/8/4 871/8/4
f 871/8/4 868/8/4 872/8/4
f 873/12/4 874/12/4 875/12/4
f 875/12/4 874/12/4 876/12/4
f 875/10/4 876/10/4 877/10/4
f 877/10/4 876/10/4 878/10/4
f 877/12/4 878/12/4 879/12/4
f 879/12/4 878/12/4 880/12/4
f 881/8/4 882/8/4 883/8/4
f 883/8/4 882/8/4 884/8/4
f 885/11/4 886/11/4 887/11/4
f 887/11/4 886/11/4 888/11/4
f 889/7/4 890/7/4 891/7/4
f 891/7/4 890/7/4 892/7/4
f 893/11/4 894/11/4 896/11/4
f 894/7/4 895/7/4 897/7/4
f 896/11/4 894/11/4 897/11/4
f 897/7/4 895/7/4 898/7/4
f 899/11/4 900/11/4 902/11/4
f 900/7/4 901/7/4 903/7/4
f 902/11/4 900/11/4 903/11/4
f 903/7/4 901/7/4 904/7/4
f 905/7/4 906/7/4 907/7/4
f 907/7/4 906/7/4 908/7/4
f 909/8/4 910/8/4 911/8/4
f 911/8/4 910/8/4 912/8/4
f 913/8/4 914/8/4 915/8/4
f 915/8/4 914/8/4 916/8/4
f 917/8/4 918/8/4 919/8/4
f 919/8/4 918/8/4 920/8/4
f 924/8/4 925/8/4 926/8/4
f 926/8/4 925/8/4 927/8/4
f 928/8/4 929/8/4 930/8/4
f 930/8/4 929/8/4 931/8/4
f 921/10/4 922/10/4 934/10/4
f 922/3/4 923/3/4 935/3/4
f 934/10/4 922/10/4 935/10/4
f 935/3/4 923/3/4 936/3/4
f 932/8/4 933/8/4 937/8/4
f 937/8/4 933/8/4 938/8/4
f 939/8/4 940/8/4 946/8/4
f 940/2/4 941/2/4 947/2/4
f 946/8/4 940/8/4 947/8/4
f 941/8/4 942/8/4 948/8/4
f 947/2/4 941/2/4 948/2/4
f 942/2/4 943/2/4 949/2/4
f 948/8/4 942/8/4 949/8/4
f 943/8/4 944/8/4 950/8/4
f 949/2/4 943/2/4 950/2/4
f 950/8/4 944/8/4 951/8/4
f 945/10/4 946/10/4 952/10/4
f 952/10/4 946/10/4 953/10/4
f 956/8/4 957/8/4 958/8/4
f 958/8/4 957/8/4 959/8/4
f 954/10/4 955/10/4 960/10/4
f 960/10/4 955/10/4 961/10/4
f 962/8/4 963/8/4 966/8/4
f 966/8/4 963/8/4 967/8/4
f 964/10/4 965/10/4 968/10/4
f 968/10/4 965/10/4 969/10/4
f 970/10/4 971/10/4 972/10/4
f 972/10/4 971/10/4 973/10/4
f 973/8/4 974/8/4 979/8/4
f 974/2/4 975/2/4 980/2/4
f 979/8/4 974/8/4 980/8/4
f 975/8/4 976/8/4 981/8/4
f 980/2/4 975/2/4 981/2/4
f 976/2/4 977/2/4 982/2/4
f 981/8/4 976/8/4 982/8/4
f 977/8/4 978/8/4 983/8/4
f 982/2/4 977/2/4 983/2/4
f 983/8/4 978/8/4 984/8/4
f 985/10/4 986/10/4 992/10/4
f 987/10/4 988/10/4 993/10/4
f 993/10/4 988/10/4 994/10/4
f 989/10/4 990/10/4 995/10/4
f 987/10/4 993/10/4 997/10/4
f 997/10/4 993/10/4 998/10/4
f 994/10/4 988/10/4 999/10/4
f 988/5/4 989/5/4 1000/5/4
f 999/10/4 988/10/4 1000/10/4
f 1000/5/4 989/5/4 1001/5/4
f 986/4/4 987/4/4 1002/4/4
f 987/10/4 997/10/4 1002/10/4
f 1002/10/4 997/10/4 1003/10/4
f 1001/5/4 989/5/4 1004/5/4
f 989/10/4 995/10/4 1005/10/4
f 1004/5/4 989/5/4 1005/5/4
f 995/10/4 996/10/4 1005/10/4
f 991/10/4 992/10/4 1008/10/4
f 992/10/4 986/10/4 1008/10/4
f 986/4/4 1002/4/4 1008/4/4
f 1008/4/4 1002/4/4 1009/4/4
f 1005/10/4 996/10/4 1010/10/4
f 1010/10/4 996/10/4 1011/10/4
f 1006/8/4 1007/8/4 1012/8/4
f 1012/8/4 1007/8/4 1013/8/4
f 991/10/4 1008/10/4 1014/10/4
f 1011/10/4 996/10/4 1017/10/4
f 1014/4/4 1015/4/4 1018/4/4
f 1016/10/4 1017/10/4 1021/10/4
f 1018/10/4 1019/10/4 1022/10/4
f 1020/5/4 1021/5/4 1026/5/4
f 991/10/4 1014/10/4 1027/10/4
f 1027/10/4 1014/10/4 1028/10/4
f 1022/10/4 1023/10/4 1029/10/4
f 1024/10/4 1025/10/4 1030/10/4
f 1017/10/4 996/10/4 1031/10/4
f 1021/10/4 1017/10/4 1031/10/4
f 1031/10/4 996/10/4 1032/10/4
f 1028/10/4 1014/10/4 1033/10/4
f 1014/4/4 1018/4/4 1034/4/4
f 1033/10/4 1014/10/4 1034/10/4
f 1022/10/4 1029/10/4 1035/10/4
f 1034/4/4 1018/4/4 1035/4/4
f 1029/10/4 1030/10/4 1035/10/4
f 1018/10/4 1022/10/4 1035/10/4
f 1025/5/4 1026/5/4 1036/5/4
f 1035/10/4 1030/10/4 1036/10/4
f 1030/10/4 1025/10/4 1036/10/4
f 1021/10/4 1031/10/4 1037/10/4
f 1036/5/4 1026/5/4 1037/5/4
f 1026/5/4 1021/5/4 1037/5/4
f 1037/10/4 1031/10/4 1038/10/4
f 1039/8/4 1040/8/4 1042/8/4
f 1042/8/4 1040/8/4 1043/8/4
f 1043/8/4 1040/8/4 1044/8/4
f 1044/8/4 1040/8/4 1045/8/4
f 1041/8/4 1042/8/4 1048/8/4
f 1042/8/4 1043/8/4 1048/8/4
f 1048/8/4 1043/8/4 1049/8/4
f 1049/8/4 1043/8/4 1050/8/4
f 1043/1/4 1044/1/4 1051/1/4
f 1050/8/4 1043/8/4 1051/8/4
f 1045/8/4 1046/8/4 1052/8/4
f 1051/1/4 1044/1/4 1052/1/4
f 1044/8/4 1045/8/4 1052/8/4
f 1052/8/4 1046/8/4 1053/8/4
f 1048/8/4 1049/8/4 1055/8/4
f 1049/1/4 1050/1/4 1055/1/4
f 1047/8/4 1048/8/4 1055/8/4
f 1050/8/4 1051/8/4 1056/8/4
f 1055/1/4 1050/1/4 1056/1/4
f 1053/8/4 1054/8/4 1056/8/4
f 1051/8/4 1052/8/4 1056/8/4
f 1052/8/4 1053/8/4 1056/8/4
f 1056/8/4 1054/8/4 1057/8/4
f 1047/8/4 1055/8/4 1059/8/4
f 1055/8/4 1056/8/4 1059/8/4
f 1059/8/4 1056/8/4 1060/8/4
f 1056/1/4 1057/1/4 1061/1/4
f 1060/8/4 1056/8/4 1061/8/4
f 1061/1/4 1057/1/4 1062/1/4
f 1057/8/4 1054/8/4 1063/8/4
f 1062/1/4 1057/1/4 1063/1/4
f 1063/8/4 1054/8/4 1064/8/4
f 1064/8/4 1054/8/4 1065/8/4
f 1059/8/4 1060/8/4 1067/8/4
f 1058/8/4 1059/8/4 1067/8/4
f 1060/1/4 1061/1/4 1067/1/4
f 1067/1/4 1061/1/4 1068/1/4
f 1061/8/4 1062/8/4 1069/8/4
f 1063/1/4 1064/1/4 1069/1/4
f 1062/1/4 1063/1/4 1069/1/4
f 1065/8/4 1066/8/4 1070/8/4
f 1069/1/4 1064/1/4 1070/1/4
f 1064/8/4 1065/8/4 1070/8/4
f 1070/8/4 1066/8/4 1071/8/4
f 1058/8/4 1067/8/4 1072/8/4
f 1067/8/4 1068/8/4 1072/8/4
f 1068/1/4 1061/1/4 1073/1/4
f 1072/8/4 1068/8/4 1073/8/4
f 1061/8/4 1069/8/4 1074/8/4
f 1073/1/4 1061/1/4 1074/1/4
f 1069/8/4 1070/8/4 1074/8/4
f 1074/8/4 1070/8/4 1075/8/4
f 1075/8/4 1070/8/4 1076/8/4
f 1070/1/4 1071/1/4 1077/1/4
f 1076/8/4 1070/8/4 1077/8/4
f 1071/8/4 1066/8/4 1078/8/4
f 1077/1/4 1071/1/4 1078/1/4
f 1078/8/4 1066/8/4 1079/8/4
f 1058/8/4 1072/8/4 1080/8/4
f 1072/1/4 1073/1/4 1080/1/4
f 1073/8/4 1074/8/4 1081/8/4
f 1080/1/4 1073/1/4 1081/1/4
f 1074/8/4 1075/8/4 1081/8/4
f 1081/8/4 1075/8/4 1082/8/4
f 1075/1/4 1076/1/4 1083/1/4
f 1082/8/4 1075/8/4 1083/8/4
f 1076/8/4 1077/8/4 1084/8/4
f 1083/1/4 1076/1/4 1084/1/4
f 1077/8/4 1078/8/4 1084/8/4
f 1084/8/4 1078/8/4 1085/8/4
f 1078/1/4 1079/1/4 1086/1/4
f 1085/8/4 1078/8/4 1086/8/4
f 1079/8/4 1066/8/4 1087/8/4
f 1086/1/4 1079/1/4 1087/1/4
f 1080/8/4 1081/8/4 1088/8/4
f 1081/1/4 1082/1/4 1089/1/4
f 1088/8/4 1081/8/4 1089/8/4
f 1084/8/4 1085/8/4 1090/8/4
f 1082/8/4 1083/8/4 1090/8/4
f 1083/8/4 1084/8/4 1090/8/4
f 1085/1/4 1086/1/4 1091/1/4
f 1090/8/4 1085/8/4 1091/8/4
f 1086/8/4 1087/8/4 1092/8/4
f 1091/1/4 1086/1/4 1092/1/4
f 1080/8/4 1088/8/4 1093/8/4
f 1058/8/4 1080/8/4 1093/8/4
f 1093/8/4 1088/8/4 1094/8/4
f 1088/1/4 1089/1/4 1095/1/4
f 1094/8/4 1088/8/4 1095/8/4
f 1082/8/4 1090/8/4 1096/8/4
f 1095/1/4 1089/1/4 1096/1/4
f 1089/1/4 1082/1/4 1096/1/4
f 1090/1/4 1091/1/4 1097/1/4
f 1096/8/4 1090/8/4 1097/8/4
f 1097/1/4 1091/1/4 1098/1/4
f 1091/8/4 1092/8/4 1099/8/4
f 1098/1/4 1091/1/4 1099/1/4
f 1092/8/4 1087/8/4 1100/8/4
f 1099/8/4 1092/8/4 1100/8/4
f 1087/8/4 1066/8/4 1100/8/4
f 1100/8/4 1066/8/4 1101/8/4
f 1094/8/4 1095/8/4 1102/8/4
f 1095/8/4 1096/8/4 1102/8/4
f 1097/1/4 1098/1/4 1103/1/4
f 1102/8/4 1096/8/4 1103/8/4
f 1096/1/4 1097/1/4 1103/1/4
f 1099/8/4 1100/8/4 1104/8/4
f 1103/1/4 1098/1/4 1104/1/4
f 1098/8/4 1099/8/4 1104/8/4
f 1094/8/4 1102/8/4 1105/8/4
f 1105/8/4 1102/8/4 1106/8/4
f 1102/1/4 1103/1/4 1107/1/4
f 1106/8/4 1102/8/4 1107/8/4
f 1103/8/4 1104/8/4 1108/8/4
f 1107/1/4 1103/1/4 1108/1/4
f 1108/8/4 1104/8/4 1109/8/4
f 1104/8/4 1100/8/4 1110/8/4
f 1109/8/4 1104/8/4 1110/8/4
f 1110/8/4 1100/8/4 1111/8/4
f 1111/8/4 1100/8/4 1112/8/4
f 1108/8/4 1109/8/4 1113/8/4
f 1106/8/4 1107/8/4 1113/8/4
f 1107/8/4 1108/8/4 1113/8/4
f 1113/8/4 1109/8/4 1114/8/4
f 1109/1/4 1110/1/4 1115/1/4
f 1114/8/4 1109/8/4 1115/8/4
f 1110/8/4 1111/8/4 1116/8/4
f 1115/1/4 1110/1/4 1116/1/4
f 1116/8/4 1111/8/4 1117/8/4
f 1117/8/4 1111/8/4 1118/8/4
f 1114/8/4 1115/8/4 1119/8/4
f 1116/8/4 1117/8/4 1119/8/4
f 1115/8/4 1116/8/4 1119/8/4
f 1119/8/4 1117/8/4 1120/8/4
f 1124/8/5 1122/8/5 1121/8/5
f 1125/8/5 1122/8/5 1124/8/5
f 1128/8/5 1124/8/5 1123/8/5
f 1129/9/5 1125/9/5 1124/9/5
f 1129/8/5 1124/8/5 1128/8/5
f 1130/9/5 1125/9/5 1129/9/5
f 1131/9/5 1125/9/5 1130/9/5
f 1132/8/5 1126/8/5 1125/8/5
f 1132/9/5 1125/9/5 1131/9/5
f 1133/8/5 1126/8/5 1132/8/5
f 1135/8/5 1128/8/5 1127/8/5
f 1136/9/5 1129/9/5 1128/9/5
f 1136/8/5 1128/8/5 1135/8/5
f 1136/9/5 1130/9/5 1129/9/5
f 1137/9/5 1130/9/5 1136/9/5
f 1138/10/5 1131/10/5 1130/10/5
f 1138/9/5 1130/9/5 1137/9/5
f 1139/9/5 1133/9/5 1132/9/5
f 1139/10/5 1131/10/5 1138/10/5
f 1139/9/5 1132/9/5 1131/9/5
f 1140/9/5 1133/9/5 1139/9/5
f 1141/8/5 1134/8/5 1133/8/5
f 1141/9/5 1133/9/5 1140/9/5
f 1142/8/5 1134/8/5 1141/8/5
f 1144/8/5 1135/8/5 1127/8/5
f 1145/9/5 1137/9/5 1136/9/5
f 1145/9/5 1136/9/5 1135/9/5
f 1145/8/5 1135/8/5 1144/8/5
f 1146/9/5 1137/9/5 1145/9/5
f 1147/10/5 1140/10/5 1139/10/5
f 1147/9/5 1137/9/5 1146/9/5
f 1147/10/5 1138/10/5 1137/10/5
f 1147/10/5 1139/10/5 1138/10/5
f 1148/10/5 1140/10/5 1147/10/5
f 1149/10/5 1140/10/5 1148/10/5
f 1150/9/5 1142/9/5 1141/9/5
f 1150/10/5 1140/10/5 1149/10/5
f 1150/9/5 1141/9/5 1140/9/5
f 1151/9/5 1142/9/5 1150/9/5
f 1152/8/5 1134/8/5 1142/8/5
f 1152/9/5 1142/9/5 1151/9/5
f 1153/8/5 1134/8/5 1152/8/5
f 1155/9/5 1146/9/5 1145/9/5
f 1155/9/5 1145/9/5 1144/9/5
f 1156/10/5 1148/10/5 1147/10/5
f 1156/9/5 1146/9/5 1155/9/5
f 1156/10/5 1147/10/5 1146/10/5
f 1157/10/5 1148/10/5 1156/10/5
f 1158/8/5 1149/8/5 1148/8/5
f 1158/10/5 1148/10/5 1157/10/5
f 1159/10/5 1151/10/5 1150/10/5
f 1159/8/5 1149/8/5 1158/8/5
f 1159/10/5 1150/10/5 1149/10/5
f 1160/10/5 1151/10/5 1159/10/5
f 1161/9/5 1153/9/5 1152/9/5
f 1161/10/5 1151/10/5 1160/10/5
f 1161/9/5 1152/9/5 1151/9/5
f 1162/9/5 1153/9/5 1161/9/5
f 1164/8/5 1144/8/5 1143/8/5
f 1165/9/5 1155/9/5 1144/9/5
f 1165/8/5 1144/8/5 1164/8/5
f 1166/10/5 1157/10/5 1156/10/5
f 1166/10/5 1156/10/5 1155/10/5
f 1167/8/5 1158/8/5 1157/8/5
f 1167/10/5 1157/10/5 1166/10/5
f 1167/8/5 1160/8/5 1159/8/5
f 1167/8/5 1159/8/5 1158/8/5
f 1168/8/5 1160/8/5 1167/8/5
f 1169/8/5 1160/8/5 1168/8/5
f 1170/10/5 1162/10/5 1161/10/5
f 1170/8/5 1160/8/5 1169/8/5
f 1170/10/5 1161/10/5 1160/10/5
f 1171/10/5 1162/10/5 1170/10/5
f 1172/9/5 1153/9/5 1162/9/5
f 1172/8/5 1154/8/5 1153/8/5
f 1173/8/5 1154/8/5 1172/8/5
f 1175/9/5 1155/9/5 1165/9/5
f 1175/9/5 1165/9/5 1164/9/5
f 1176/10/5 1166/10/5 1155/10/5
f 1176/9/5 1155/9/5 1175/9/5
f 1177/8/5 1168/8/5 1167/8/5
f 1177/8/5 1167/8/5 1166/8/5
f 1178/10/5 1169/10/5 1168/10/5
f 1178/8/5 1168/8/5 1177/8/5
f 1179/8/5 1171/8/5 1170/8/5
f 1179/10/5 1169/10/5 1178/10/5
f 1179/8/5 1170/8/5 1169/8/5
f 1180/8/5 1171/8/5 1179/8/5
f 1181/10/5 1162/10/5 1171/10/5
f 1181/9/5 1173/9/5 1172/9/5
f 1181/9/5 1172/9/5 1162/9/5
f 1182/9/5 1173/9/5 1181/9/5
f 1183/10/5 1166/10/5 1176/10/5
f 1183/10/5 1176/10/5 1175/10/5
f 1184/8/5 1177/8/5 1166/8/5
f 1184/10/5 1166/10/5 1183/10/5
f 1185/8/5 1171/8/5 1180/8/5
f 1185/10/5 1182/10/5 1181/10/5
f 1185/10/5 1181/10/5 1171/10/5
f 1186/10/5 1182/10/5 1185/10/5
f 1187/10/5 1183/10/5 1175/10/5
f 1187/8/5 1184/8/5 1183/8/5
f 1188/8/5 1177/8/5 1184/8/5
f 1188/8/5 1184/8/5 1187/8/5
f 1189/8/5 1186/8/5 1185/8/5
f 1189/8/5 1185/8/5 1180/8/5
f 1190/10/5 1182/10/5 1186/10/5
f 1190/8/5 1186/8/5 1189/8/5
f 1191/10/5 1187/10/5 1175/10/5
f 1191/9/5 1175/9/5 1164/9/5
f 1191/10/5 1188/10/5 1187/10/5
f 1192/10/5 1188/10/5 1191/10/5
f 1193/10/5 1178/10/5 1177/10/5
f 1193/10/5 1180/10/5 1179/10/5
f 1193/8/5 1177/8/5 1188/8/5
f 1193/10/5 1179/10/5 1178/10/5
f 1194/10/5 1180/10/5 1193/10/5
f 1195/10/5 1180/10/5 1194/10/5
f 1196/8/5 1189/8/5 1180/8/5
f 1196/10/5 1180/10/5 1195/10/5
f 1197/10/5 1182/10/5 1190/10/5
f 1197/10/5 1190/10/5 1189/10/5
f 1198/9/5 1173/9/5 1182/9/5
f 1198/10/5 1182/10/5 1197/10/5
f 1199/8/5 1164/8/5 1163/8/5
f 1200/9/5 1192/9/5 1191/9/5
f 1200/8/5 1164/8/5 1199/8/5
f 1200/9/5 1191/9/5 1164/9/5
f 1201/9/5 1192/9/5 1200/9/5
f 1202/10/5 1188/10/5 1192/10/5
f 1202/8/5 1193/8/5 1188/8/5
f 1202/8/5 1194/8/5 1193/8/5
f 1203/8/5 1194/8/5 1202/8/5
f 1204/10/5 1195/10/5 1194/10/5
f 1204/8/5 1194/8/5 1203/8/5
f 1205/8/5 1196/8/5 1195/8/5
f 1205/10/5 1195/10/5 1204/10/5
f 1206/8/5 1189/8/5 1196/8/5
f 1206/8/5 1196/8/5 1205/8/5
f 1207/10/5 1197/10/5 1189/10/5
f 1207/8/5 1189/8/5 1206/8/5
f 1208/9/5 1173/9/5 1198/9/5
f 1208/9/5 1198/9/5 1197/9/5
f 1209/8/5 1174/8/5 1173/8/5
f 1209/9/5 1173/9/5 1208/9/5
f 1210/8/5 1174/8/5 1209/8/5
f 1211/9/5 1192/9/5 1201/9/5
f 1211/10/5 1203/10/5 1202/10/5
f 1211/10/5 1202/10/5 1192/10/5
f 1212/10/5 1203/10/5 1211/10/5
f 1213/8/5 1205/8/5 1204/8/5
f 1213/10/5 1203/10/5 1212/10/5
f 1213/8/5 1204/8/5 1203/8/5
f 1213/8/5 1206/8/5 1205/8/5
f 1214/8/5 1206/8/5 1213/8/5
f 1215/8/5 1206/8/5 1214/8/5
f 1216/10/5 1207/10/5 1206/10/5
f 1216/8/5 1206/8/5 1215/8/5
f 1217/10/5 1197/10/5 1207/10/5
f 1217/10/5 1207/10/5 1216/10/5
f 1218/9/5 1208/9/5 1197/9/5
f 1218/10/5 1197/10/5 1217/10/5
f 1219/8/5 1201/8/5 1200/8/5
f 1220/9/5 1212/9/5 1211/9/5
f 1220/8/5 1201/8/5 1219/8/5
f 1220/9/5 1211/9/5 1201/9/5
f 1221/9/5 1212/9/5 1220/9/5
f 1222/10/5 1213/10/5 1212/10/5
f 1222/9/5 1212/9/5 1221/9/5
f 1222/10/5 1214/10/5 1213/10/5
f 1223/10/5 1214/10/5 1222/10/5
f 1224/8/5 1215/8/5 1214/8/5
f 1224/10/5 1214/10/5 1223/10/5
f 1225/10/5 1217/10/5 1216/10/5
f 1225/8/5 1215/8/5 1224/8/5
f 1225/10/5 1216/10/5 1215/10/5
f 1226/10/5 1217/10/5 1225/10/5
f 1227/9/5 1218/9/5 1217/9/5
f 1227/10/5 1217/10/5 1226/10/5
f 1228/9/5 1208/9/5 1218/9/5
f 1228/9/5 1218/9/5 1227/9/5
f 1229/8/5 1209/8/5 1208/8/5
f 1229/9/5 1208/9/5 1228/9/5
f 1230/8/5 1209/8/5 1229/8/5
f 1231/9/5 1222/9/5 1221/9/5
f 1231/9/5 1223/9/5 1222/9/5
f 1231/8/5 1221/8/5 1220/8/5
f 1232/9/5 1223/9/5 1231/9/5
f 1233/10/5 1226/10/5 1225/10/5
f 1233/9/5 1223/9/5 1232/9/5
f 1233/10/5 1224/10/5 1223/10/5
f 1233/10/5 1225/10/5 1224/10/5
f 1234/10/5 1226/10/5 1233/10/5
f 1235/10/5 1226/10/5 1234/10/5
f 1236/9/5 1228/9/5 1227/9/5
f 1236/10/5 1226/10/5 1235/10/5
f 1236/9/5 1227/9/5 1226/9/5
f 1237/9/5 1228/9/5 1236/9/5
f 1238/8/5 1229/8/5 1228/8/5
f 1238/9/5 1228/9/5 1237/9/5
f 1239/8/5 1232/8/5 1231/8/5
f 1239/8/5 1231/8/5 1220/8/5
f 1240/9/5 1234/9/5 1233/9/5
f 1240/8/5 1232/8/5 1239/8/5
f 1240/9/5 1233/9/5 1232/9/5
f 1241/9/5 1234/9/5 1240/9/5
f 1242/10/5 1235/10/5 1234/10/5
f 1242/9/5 1234/9/5 1241/9/5
f 1243/9/5 1237/9/5 1236/9/5
f 1243/10/5 1235/10/5 1242/10/5
f 1243/9/5 1236/9/5 1235/9/5
f 1244/9/5 1237/9/5 1243/9/5
f 1245/8/5 1238/8/5 1237/8/5
f 1245/9/5 1237/9/5 1244/9/5
f 1246/8/5 1229/8/5 1238/8/5
f 1246/8/5 1238/8/5 1245/8/5
f 1247/8/5 1241/8/5 1240/8/5
f 1248/9/5 1244/9/5 1243/9/5
f 1248/8/5 1241/8/5 1247/8/5
f 1248/9/5 1242/9/5 1241/9/5
f 1248/9/5 1243/9/5 1242/9/5
f 1249/8/5 1245/8/5 1244/8/5
f 1249/9/5 1244/9/5 1248/9/5
f 1250/8/5 1245/8/5 1249/8/5
f 1251/8/5 1249/8/5 1248/8/5
f 1252/8/5 1249/8/5 1251/8/5
f 1257/2/5 1254/2/5 1253/2/5
f 1258/2/5 1254/2/5 1257/2/5
f 1259/2/5 1256/2/5 1255/2/5
f 1260/2/5 1256/2/5 1259/2/5
f 1261/10/5 1258/10/5 1257/10/5
f 1262/10/5 1260/10/5 1259/10/5
f 1263/10/5 1261/10/5 1257/10/5
f 1264/10/5 1260/10/5 1262/10/5
f 1265/10/5 1263/10/5 1257/10/5
f 1266/10/5 1260/10/5 1264/10/5
f 1267/10/5 1265/10/5 1257/10/5
f 1268/10/5 1260/10/5 1266/10/5
f 1269/10/5 1267/10/5 1257/10/5
f 1270/10/5 1267/10/5 1269/10/5
f 1271/10/5 1260/10/5 1268/10/5
f 1272/10/5 1260/10/5 1271/10/5
f 1279/2/5 1274/2/5 1273/2/5
f 1280/2/5 1274/2/5 1279/2/5
f 1281/2/5 1276/2/5 1275/2/5
f 1282/2/5 1276/2/5 1281/2/5
f 1283/2/5 1276/2/5 1282/2/5
f 1284/2/5 1276/2/5 1283/2/5
f 1285/2/5 1278/2/5 1277/2/5
f 1286/2/5 1278/2/5 1285/2/5
f 1287/10/5 1282/10/5 1281/10/5
f 1287/2/5 1283/2/5 1282/2/5
f 1288/10/5 1284/10/5 1283/10/5
f 1288/2/5 1283/2/5 1287/2/5
f 1289/10/5 1287/10/5 1281/10/5
f 1289/10/5 1288/10/5 1287/10/5
f 1290/10/5 1288/10/5 1289/10/5
f 1291/10/5 1284/10/5 1288/10/5
f 1291/10/5 1288/10/5 1290/10/5
f 1292/10/5 1284/10/5 1291/10/5
f 1293/10/5 1289/10/5 1281/10/5
f 1294/10/5 1289/10/5 1293/10/5
f 1297/10/5 1284/10/5 1292/10/5
f 1298/10/5 1284/10/5 1297/10/5
f 1299/10/5 1296/10/5 1295/10/5
f 1299/10/5 1297/10/5 1296/10/5
f 1299/10/5 1295/10/5 1294/10/5
f 1300/10/5 1297/10/5 1299/10/5
f 1301/10/5 1300/10/5 1299/10/5
f 1302/10/5 1300/10/5 1301/10/5
f 1304/10/5 1302/10/5 1301/10/5
f 1305/10/5 1302/10/5 1304/10/5
f 1306/10/5 1302/10/5 1305/10/5
f 1307/10/5 1302/10/5 1306/10/5
f 1309/10/5 1304/10/5 1303/10/5
f 1312/10/5 1308/10/5 1307/10/5
f 1314/2/5 1279/2/5 1273/2/5
f 1315/10/5 1280/10/5 1279/10/5
f 1315/2/5 1279/2/5 1314/2/5
f 1316/2/5 1278/2/5 1286/2/5
f 1316/10/5 1286/10/5 1285/10/5
f 1317/2/5 1278/2/5 1316/2/5
f 1319/8/5 1314/8/5 1313/8/5
f 1320/10/5 1315/10/5 1314/10/5
f 1320/8/5 1314/8/5 1319/8/5
f 1321/8/5 1318/8/5 1317/8/5
f 1321/10/5 1317/10/5 1316/10/5
f 1322/8/5 1318/8/5 1321/8/5
f 1323/10/5 1315/10/5 1320/10/5
f 1324/10/5 1280/10/5 1315/10/5
f 1324/10/5 1315/10/5 1323/10/5
f 1325/10/5 1280/10/5 1324/10/5
f 1326/10/5 1312/10/5 1311/10/5
f 1326/10/5 1311/10/5 1310/10/5
f 1326/10/5 1309/10/5 1303/10/5
f 1326/10/5 1310/10/5 1309/10/5
f 1327/10/5 1308/10/5 1312/10/5
f 1327/10/5 1312/10/5 1326/10/5
f 1328/10/5 1321/10/5 1316/10/5
f 1328/10/5 1316/10/5 1285/10/5
f 1329/10/5 1321/10/5 1328/10/5
f 1330/10/5 1321/10/5 1329/10/5
f 1331/10/5 1325/10/5 1324/10/5
f 1331/10/5 1329/10/5 1328/10/5
f 1331/10/5 1328/10/5 1327/10/5
f 1331/10/5 1327/10/5 1326/10/5
f 1331/10/5 1326/10/5 1325/10/5
f 1332/10/5 1329/10/5 1331/10/5
f 1337/2/5 1334/2/5 1333/2/5
f 1338/2/5 1334/2/5 1337/2/5
f 1339/2/5 1336/2/5 1335/2/5
f 1340/2/5 1336/2/5 1339/2/5
f 1345/8/5 1342/8/5 1341/8/5
f 1346/8/5 1342/8/5 1345/8/5
f 1349/8/5 1344/8/5 1343/8/5
f 1350/8/5 1344/8/5 1349/8/5
f 1351/10/5 1347/10/5 1346/10/5
f 1352/10/5 1347/10/5 1351/10/5
f 1353/10/5 1349/10/5 1348/10/5
f 1354/10/5 1349/10/5 1353/10/5
f 1359/2/5 1356/2/5 1355/2/5
f 1360/2/5 1356/2/5 1359/2/5
f 1361/2/5 1358/2/5 1357/2/5
f 1362/2/5 1358/2/5 1361/2/5
f 1367/2/5 1364/2/5 1363/2/5
f 1368/2/5 1364/2/5 1367/2/5
f 1369/2/5 1366/2/5 1365/2/5
f 1370/2/5 1366/2/5 1369/2/5
f 1375/2/5 1372/2/5 1371/2/5
f 1376/2/5 1372/2/5 1375/2/5
f 1377/2/5 1374/2/5 1373/2/5
f 1378/2/5 1374/2/5 1377/2/5
f 1387/11/5 1380/11/5 1379/11/5
f 1388/11/5 1380/11/5 1387/11/5
f 1389/11/5 1386/11/5 1385/11/5
f 1390/11/5 1386/11/5 1389/11/5
f 1391/11/5 1382/11/5 1381/11/5
f 1392/11/5 1382/11/5 1391/11/5
f 1393/11/5 1384/11/5 1383/11/5
f 1394/11/5 1384/11/5 1393/11/5
f 1397/5/5 1396/5/5 1395/5/5
f 1398/5/5 1396/5/5 1397/5/5
f 1407/11/5 1400/11/5 1399/11/5
f 1408/11/5 1400/11/5 1407/11/5
f 1409/11/5 1402/11/5 1401/11/5
f 1410/11/5 1402/11/5 1409/11/5
f 1411/11/5 1404/11/5 1403/11/5
f 1412/11/5 1404/11/5 1411/11/5
f 1413/11/5 1406/11/5 1405/11/5
f 1414/11/5 1406/11/5 1413/11/5
f 1419/7/5 1416/7/5 1415/7/5
f 1420/7/5 1416/7/5 1419/7/5
f 1421/7/5 1418/7/5 1417/7/5
f 1422/7/5 1418/7/5 1421/7/5
f 1425/8/5 1424/8/5 1423/8/5
f 1426/8/5 1424/8/5 1425/8/5
f 1429/3/5 1428/3/5 1427/3/5
f 1430/3/5 1428/3/5 1429/3/5
f 1435/8/5 1432/8/5 1431/8/5
f 1436/8/5 1432/8/5 1435/8/5
f 1437/8/5 1434/8/5 1433/8/5
f 1438/8/5 1434/8/5 1437/8/5
f 1441/7/5 1440/7/5 1439/7/5
f 1442/7/5 1440/7/5 1441/7/5
f 1447/8/5 1444/8/5 1443/8/5
f 1448/8/5 1444/8/5 1447/8/5
f 1449/8/5 1446/8/5 1445/8/5
f 1450/8/5 1446/8/5 1449/8/5
f 1455/8/5 1452/8/5 1451/8/5
f 1456/8/5 1452/8/5 1455/8/5
f 1457/8/5 1454/8/5 1453/8/5
f 1458/8/5 1454/8/5 1457/8/5
f 1461/3/5 1460/3/5 1459/3/5
f 1462/3/5 1460/3/5 1461/3/5
f 1467/7/5 1464/7/5 1463/7/5
f 1468/7/5 1464/7/5 1467/7/5
f 1471/3/5 1466/3/5 1465/3/5
f 1472/3/5 1466/3/5 1471/3/5
f 1473/3/5 1470/3/5 1469/3/5
f 1474/3/5 1470/3/5 1473/3/5
f 1479/7/5 1476/7/5 1475/7/5
f 1480/7/5 1476/7/5 1479/7/5
f 1481/7/5 1478/7/5 1477/7/5
f 1482/7/5 1478/7/5 1481/7/5
f 1483/8/6 1484/8/6 1486/8/6
f 1486/8/6 1484/8/6 1487/8/6
f 1485/8/6 1486/8/6 1490/8/6
f 1486/9/6 1487/9/6 1491/9/6
f 1490/8/6 1486/8/6 1491/8/6
f 1491/9/6 1487/9/6 1492/9/6
f 1492/9/6 1487/9/6 1493/9/6
f 1487/8/6 1488/8/6 1494/8/6
f 1493/9/6 1487/9/6 1494/9/6
f 1494/8/6 1488/8/6 1495/8/6
f 1489/8/6 1490/8/6 1497/8/6
f 1490/9/6 1491/9/6 1498/9/6
f 1497/8/6 1490/8/6 1498/8/6
f 1491/9/6 1492/9/6 1498/9/6
f 1498/9/6 1492/9/6 1499/9/6
f 1492/10/6 1493/10/6 1500/10/6
f 1499/9/6 1492/9/6 1500/9/6
f 1494/9/6 1495/9/6 1501/9/6
f 1500/10/6 1493/10/6 1501/10/6
f 1493/9/6 1494/9/6 1501/9/6
f 1501/9/6 1495/9/6 1502/9/6
f 1495/8/6 1496/8/6 1503/8/6
f 1502/9/6 1495/9/6 1503/9/6
f 1503/8/6 1496/8/6 1504/8/6
f 1489/8/6 1497/8/6 1506/8/6
f 1498/9/6 1499/9/6 1507/9/6
f 1497/9/6 1498/9/6 1507/9/6
f 1506/8/6 1497/8/6 1507/8/6
f 1507/9/6 1499/9/6 1508/9/6
f 1501/10/6 1502/10/6 1509/10/6
f 1508/9/6 1499/9/6 1509/9/6
f 1499/10/6 1500/10/6 1509/10/6
f 1500/10/6 1501/10/6 1509/10/6
f 1509/10/6 1502/10/6 1510/10/6
f 1510/10/6 1502/10/6 1511/10/6
f 1503/9/6 1504/9/6 1512/9/6
f 1511/10/6 1502/10/6 1512/10/6
f 1502/9/6 1503/9/6 1512/9/6
f 1512/9/6 1504/9/6 1513/9/6
f 1504/8/6 1496/8/6 1514/8/6
f 1513/9/6 1504/9/6 1514/9/6
f 1514/8/6 1496/8/6 1515/8/6
f 1507/9/6 1508/9/6 1517/9/6
f 1506/9/6 1507/9/6 1517/9/6
f 1509/10/6 1510/10/6 1518/10/6
f 1517/9/6 1508/9/6 1518/9/6
f 1508/10/6 1509/10/6 1518/10/6
f 1518/10/6 1510/10/6 1519/10/6
f 1510/8/6 1511/8/6 1520/8/6
f 1519/10/6 1510/10/6 1520/10/6
f 1512/10/6 1513/10/6 1521/10/6
f 1520/8/6 1511/8/6 1521/8/6
f 1511/10/6 1512/10/6 1521/10/6
f 1521/10/6 1513/10/6 1522/10/6
f 1514/9/6 1515/9/6 1523/9/6
f 1522/10/6 1513/10/6 1523/10/6
f 1513/9/6 1514/9/6 1523/9/6
f 1523/9/6 1515/9/6 1524/9/6
f 1505/8/6 1506/8/6 1526/8/6
f 1506/9/6 1517/9/6 1527/9/6
f 1526/8/6 1506/8/6 1527/8/6
f 1518/10/6 1519/10/6 1528/10/6
f 1517/10/6 1518/10/6 1528/10/6
f 1519/8/6 1520/8/6 1529/8/6
f 1528/10/6 1519/10/6 1529/10/6
f 1521/8/6 1522/8/6 1529/8/6
f 1520/8/6 1521/8/6 1529/8/6
f 1529/8/6 1522/8/6 1530/8/6
f 1530/8/6 1522/8/6 1531/8/6
f 1531/8/6 1522/8/6 1532/8/6
f 1532/8/6 1522/8/6 1533/8/6
f 1523/10/6 1524/10/6 1534/10/6
f 1533/8/6 1522/8/6 1534/8/6
f 1522/10/6 1523/10/6 1534/10/6
f 1534/10/6 1524/10/6 1535/10/6
f 1524/9/6 1515/9/6 1536/9/6
f 1515/8/6 1516/8/6 1536/8/6
f 1536/8/6 1516/8/6 1537/8/6
f 1527/9/6 1517/9/6 1539/9/6
f 1526/9/6 1527/9/6 1539/9/6
f 1517/10/6 1528/10/6 1540/10/6
f 1539/9/6 1517/9/6 1540/9/6
f 1528/8/6 1529/8/6 1541/8/6
f 1529/8/6 1530/8/6 1541/8/6
f 1541/8/6 1530/8/6 1542/8/6
f 1534/8/6 1535/8/6 1545/8/6
f 1533/8/6 1534/8/6 1545/8/6
f 1545/8/6 1535/8/6 1546/8/6
f 1535/10/6 1524/10/6 1547/10/6
f 1536/9/6 1537/9/6 1547/9/6
f 1524/9/6 1536/9/6 1547/9/6
f 1547/9/6 1537/9/6 1548/9/6
f 1540/10/6 1528/10/6 1549/10/6
f 1539/10/6 1540/10/6 1549/10/6
f 1528/8/6 1541/8/6 1550/8/6
f 1549/10/6 1528/10/6 1550/10/6
f 1550/8/6 1541/8/6 1551/8/6
f 1543/10/6 1544/10/6 1552/10/6
f 1544/10/6 1545/10/6 1552/10/6
f 1542/10/6 1543/10/6 1552/10/6
f 1552/10/6 1545/10/6 1553/10/6
f 1546/8/6 1535/8/6 1554/8/6
f 1547/10/6 1548/10/6 1555/10/6
f 1554/8/6 1535/8/6 1555/8/6
f 1535/10/6 1547/10/6 1555/10/6
f 1555/10/6 1548/10/6 1556/10/6
f 1550/8/6 1551/8/6 1557/8/6
f 1549/8/6 1550/8/6 1557/8/6
f 1539/10/6 1549/10/6 1557/10/6
f 1557/8/6 1551/8/6 1558/8/6
f 1558/8/6 1551/8/6 1559/8/6
f 1552/10/6 1553/10/6 1560/10/6
f 1560/10/6 1553/10/6 1561/10/6
f 1555/8/6 1556/8/6 1562/8/6
f 1554/8/6 1555/8/6 1562/8/6
f 1562/8/6 1556/8/6 1563/8/6
f 1556/10/6 1548/10/6 1564/10/6
f 1563/8/6 1556/8/6 1564/8/6
f 1526/9/6 1539/9/6 1565/9/6
f 1539/10/6 1557/10/6 1565/10/6
f 1557/10/6 1558/10/6 1565/10/6
f 1565/10/6 1558/10/6 1566/10/6
f 1558/8/6 1559/8/6 1567/8/6
f 1560/10/6 1561/10/6 1568/10/6
f 1568/10/6 1561/10/6 1569/10/6
f 1569/10/6 1561/10/6 1570/10/6
f 1570/10/6 1561/10/6 1571/10/6
f 1562/8/6 1563/8/6 1572/8/6
f 1564/10/6 1548/10/6 1573/10/6
f 1563/10/6 1564/10/6 1573/10/6
f 1548/9/6 1537/9/6 1574/9/6
f 1573/10/6 1548/10/6 1574/10/6
f 1525/8/6 1526/8/6 1575/8/6
f 1526/9/6 1565/9/6 1576/9/6
f 1575/8/6 1526/8/6 1576/8/6
f 1565/9/6 1566/9/6 1576/9/6
f 1576/9/6 1566/9/6 1577/9/6
f 1566/10/6 1558/10/6 1578/10/6
f 1558/8/6 1567/8/6 1578/8/6
f 1567/8/6 1568/8/6 1578/8/6
f 1578/8/6 1568/8/6 1579/8/6
f 1579/8/6 1568/8/6 1580/8/6
f 1571/8/6 1572/8/6 1583/8/6
f 1572/8/6 1563/8/6 1584/8/6
f 1583/8/6 1572/8/6 1584/8/6
f 1563/10/6 1573/10/6 1585/10/6
f 1584/8/6 1563/8/6 1585/8/6
f 1574/9/6 1537/9/6 1586/9/6
f 1573/9/6 1574/9/6 1586/9/6
f 1537/8/6 1538/8/6 1587/8/6
f 1586/9/6 1537/9/6 1587/9/6
f 1587/8/6 1538/8/6 1588/8/6
f 1577/9/6 1566/9/6 1589/9/6
f 1566/10/6 1578/10/6 1589/10/6
f 1578/10/6 1579/10/6 1589/10/6
f 1589/10/6 1579/10/6 1590/10/6
f 1581/8/6 1582/8/6 1591/8/6
f 1590/10/6 1579/10/6 1591/10/6
f 1583/8/6 1584/8/6 1591/8/6
f 1582/8/6 1583/8/6 1591/8/6
f 1579/8/6 1580/8/6 1591/8/6
f 1580/8/6 1581/8/6 1591/8/6
f 1591/8/6 1584/8/6 1592/8/6
f 1592/8/6 1584/8/6 1593/8/6
f 1584/10/6 1585/10/6 1594/10/6
f 1593/8/6 1584/8/6 1594/8/6
f 1585/10/6 1573/10/6 1595/10/6
f 1594/10/6 1585/10/6 1595/10/6
f 1573/9/6 1586/9/6 1596/9/6
f 1595/10/6 1573/10/6 1596/10/6
f 1576/8/6 1577/8/6 1597/8/6
f 1589/9/6 1590/9/6 1598/9/6
f 1597/8/6 1577/8/6 1598/8/6
f 1577/9/6 1589/9/6 1598/9/6
f 1598/9/6 1590/9/6 1599/9/6
f 1590/10/6 1591/10/6 1600/10/6
f 1599/9/6 1590/9/6 1600/9/6
f 1591/10/6 1592/10/6 1600/10/6
f 1600/10/6 1592/10/6 1601/10/6
f 1592/8/6 1593/8/6 1602/8/6
f 1601/10/6 1592/10/6 1602/10/6
f 1593/10/6 1594/10/6 1603/10/6
f 1602/8/6 1593/8/6 1603/8/6
f 1594/10/6 1595/10/6 1603/10/6
f 1603/10/6 1595/10/6 1604/10/6
f 1595/9/6 1596/9/6 1605/9/6
f 1604/10/6 1595/10/6 1605/10/6
f 1596/9/6 1586/9/6 1606/9/6
f 1605/9/6 1596/9/6 1606/9/6
f 1586/8/6 1587/8/6 1607/8/6
f 1606/9/6 1586/9/6 1607/9/6
f 1607/8/6 1587/8/6 1608/8/6
f 1599/9/6 1600/9/6 1609/9/6
f 1600/9/6 1601/9/6 1609/9/6
f 1598/8/6 1599/8/6 1609/8/6
f 1609/9/6 1601/9/6 1610/9/6
f 1601/10/6 1602/10/6 1611/10/6
f 1610/9/6 1601/9/6 1611/9/6
f 1603/10/6 1604/10/6 1611/10/6
f 1602/10/6 1603/10/6 1611/10/6
f 1611/10/6 1604/10/6 1612/10/6
f 1612/10/6 1604/10/6 1613/10/6
f 1604/9/6 1605/9/6 1614/9/6
f 1613/10/6 1604/10/6 1614/10/6
f 1605/9/6 1606/9/6 1614/9/6
f 1614/9/6 1606/9/6 1615/9/6
f 1606/8/6 1607/8/6 1616/8/6
f 1615/9/6 1606/9/6 1616/9/6
f 1609/8/6 1610/8/6 1617/8/6
f 1598/8/6 1609/8/6 1617/8/6
f 1611/9/6 1612/9/6 1618/9/6
f 1617/8/6 1610/8/6 1618/8/6
f 1610/9/6 1611/9/6 1618/9/6
f 1618/9/6 1612/9/6 1619/9/6
f 1612/10/6 1613/10/6 1620/10/6
f 1619/9/6 1612/9/6 1620/9/6
f 1614/9/6 1615/9/6 1621/9/6
f 1620/10/6 1613/10/6 1621/10/6
f 1613/9/6 1614/9/6 1621/9/6
f 1621/9/6 1615/9/6 1622/9/6
f 1615/8/6 1616/8/6 1623/8/6
f 1622/9/6 1615/9/6 1623/9/6
f 1616/8/6 1607/8/6 1624/8/6
f 1623/8/6 1616/8/6 1624/8/6
f 1618/8/6 1619/8/6 1625/8/6
f 1619/9/6 1620/9/6 1626/9/6
f 1625/8/6 1619/8/6 1626/8/6
f 1621/9/6 1622/9/6 1626/9/6
f 1620/9/6 1621/9/6 1626/9/6
f 1622/8/6 1623/8/6 1627/8/6
f 1626/9/6 1622/9/6 1627/9/6
f 1627/8/6 1623/8/6 1628/8/6
f 1626/8/6 1627/8/6 1629/8/6
f 1629/8/6 1627/8/6 1630/8/6
f 1631/2/6 1632/2/6 1637/2/6
f 1637/2/6 1632/2/6 1638/2/6
f 1633/2/6 1634/2/6 1639/2/6
f 1639/2/6 1634/2/6 1640/2/6
f 1640/2/6 1634/2/6 1641/2/6
f 1641/2/6 1634/2/6 1642/2/6
f 1635/2/6 1636/2/6 1643/2/6
f 1643/2/6 1636/2/6 1644/2/6
f 1640/2/6 1641/2/6 1645/2/6
f 1645/2/6 1641/2/6 1646/2/6
f 1631/2/6 1637/2/6 1647/2/6
f 1644/2/6 1636/2/6 1648/2/6
f 1647/2/6 1637/2/6 1649/2/6
f 1649/2/6 1637/2/6 1650/2/6
f 1644/2/6 1648/2/6 1651/2/6
f 1651/2/6 1648/2/6 1652/2/6
f 1649/10/6 1650/10/6 1653/10/6
f 1653/10/6 1650/10/6 1654/10/6
f 1651/10/6 1652/10/6 1655/10/6
f 1655/10/6 1652/10/6 1656/10/6
f 1657/7/6 1658/7/6 1662/7/6
f 1662/7/6 1658/7/6 1663/7/6
f 1659/7/6 1660/7/6 1666/7/6
f 1666/7/6 1660/7/6 1667/7/6
f 1663/7/6 1664/7/6 1669/7/6
f 1661/7/6 1662/7/6 1669/7/6
f 1662/7/6 1663/7/6 1669/7/6
f 1669/7/6 1664/7/6 1670/7/6
f 1670/7/6 1664/7/6 1671/7/6
f 1667/7/6 1668/7/6 1672/7/6
f 1666/7/6 1667/7/6 1672/7/6
f 1665/7/6 1666/7/6 1672/7/6
f 1672/7/6 1668/7/6 1673/7/6
f 1673/7/6 1668/7/6 1674/7/6
f 1669/3/6 1670/3/6 1675/3/6
f 1675/3/6 1670/3/6 1676/3/6
f 1673/3/6 1674/3/6 1677/3/6
f 1677/3/6 1674/3/6 1678/3/6
f 1670/7/6 1671/7/6 1679/7/6
f 1671/7/6 1672/7/6 1679/7/6
f 1672/7/6 1673/7/6 1679/7/6
f 1676/3/6 1670/3/6 1679/3/6
f 1679/7/6 1673/7/6 1680/7/6
f 1680/7/6 1673/7/6 1681/7/6
f 1673/3/6 1677/3/6 1682/3/6
f 1681/7/6 1673/7/6 1682/7/6
f 1675/6/6 1676/6/6 1683/6/6
f 1676/3/6 1679/3/6 1683/3/6
f 1679/3/6 1680/3/6 1683/3/6
f 1683/3/6 1680/3/6 1684/3/6
f 1682/3/6 1677/3/6 1685/3/6
f 1681/3/6 1682/3/6 1685/3/6
f 1677/6/6 1678/6/6 1686/6/6
f 1685/3/6 1677/3/6 1686/3/6
f 1683/6/6 1684/6/6 1687/6/6
f 1675/6/6 1683/6/6 1687/6/6
f 1684/3/6 1680/3/6 1688/3/6
f 1687/6/6 1684/6/6 1688/6/6
f 1681/3/6 1685/3/6 1689/3/6
f 1685/6/6 1686/6/6 1689/6/6
f 1686/6/6 1678/6/6 1690/6/6
f 1689/6/6 1686/6/6 1690/6/6
f 1688/3/6 1680/3/6 1691/3/6
f 1687/3/6 1688/3/6 1691/3/6
f 1680/7/6 1681/7/6 1692/7/6
f 1691/3/6 1680/3/6 1692/3/6
f 1681/3/6 1689/3/6 1693/3/6
f 1692/7/6 1681/7/6 1693/7/6
f 1689/3/6 1690/3/6 1693/3/6
f 1693/3/6 1690/3/6 1694/3/6
f 1675/6/6 1687/6/6 1695/6/6
f 1669/3/6 1675/3/6 1695/3/6
f 1687/3/6 1691/3/6 1696/3/6
f 1695/6/6 1687/6/6 1696/6/6
f 1690/6/6 1678/6/6 1697/6/6
f 1694/3/6 1690/3/6 1697/3/6
f 1678/3/6 1674/3/6 1698/3/6
f 1697/6/6 1678/6/6 1698/6/6
f 1661/7/6 1669/7/6 1699/7/6
f 1669/3/6 1695/3/6 1699/3/6
f 1695/3/6 1696/3/6 1699/3/6
f 1696/3/6 1691/3/6 1700/3/6
f 1699/3/6 1696/3/6 1700/3/6
f 1692/7/6 1693/7/6 1700/7/6
f 1691/7/6 1692/7/6 1700/7/6
f 1693/7/6 1694/7/6 1700/7/6
f 1694/3/6 1697/3/6 1701/3/6
f 1700/7/6 1694/7/6 1701/7/6
f 1697/3/6 1698/3/6 1701/3/6
f 1674/7/6 1668/7/6 1702/7/6
f 1701/3/6 1698/3/6 1702/3/6
f 1698/3/6 1674/3/6 1702/3/6
f 1699/7/6 1700/7/6 1703/7/6
f 1700/7/6 1701/7/6 1703/7/6
f 1701/7/6 1702/7/6 1703/7/6
f 1661/7/6 1699/7/6 1703/7/6
f 1702/7/6 1668/7/6 1704/7/6
f 1703/7/6 1702/7/6 1704/7/6
f 1705/10/6 1706/10/6 1707/10/6
f 1707/10/6 1706/10/6 1708/10/6
f 1709/7/6 1710/7/6 1711/7/6
f 1711/7/6 1710/7/6 1712/7/6
f 1713/3/6 1714/3/6 1715/3/6
f 1715/3/6 1714/3/6 1716/3/6
f 1717/5/6 1718/5/6 1719/5/6
f 1719/5/6 1718/5/6 1720/5/6
f 1721/11/6 1722/11/6 1729/11/6
f 1722/10/6 1723/10/6 1730/10/6
f 1729/11/6 1722/11/6 1730/11/6
f 1723/11/6 1724/11/6 1731/11/6
f 1730/10/6 1723/10/6 1731/10/6
f 1731/11/6 1724/11/6 1732/11/6
f 1725/11/6 1726/11/6 1733/11/6
f 1726/10/6 1727/10/6 1734/10/6
f 1733/11/6 1726/11/6 1734/11/6
f 1727/11/6 1728/11/6 1735/11/6
f 1734/10/6 1727/10/6 1735/10/6
f 1735/11/6 1728/11/6 1736/11/6
f 1729/7/6 1730/7/6 1737/7/6
f 1731/7/6 1732/7/6 1737/7/6
f 1730/7/6 1731/7/6 1737/7/6
f 1737/7/6 1732/7/6 1738/7/6
f 1738/7/6 1732/7/6 1739/7/6
f 1739/7/6 1732/7/6 1740/7/6
f 1733/7/6 1734/7/6 1741/7/6
f 1735/7/6 1736/7/6 1741/7/6
f 1734/7/6 1735/7/6 1741/7/6
f 1741/7/6 1736/7/6 1742/7/6
f 1742/7/6 1736/7/6 1743/7/6
f 1743/7/6 1736/7/6 1744/7/6
f 1745/7/6 1746/7/6 1749/7/6
f 1749/7/6 1746/7/6 1750/7/6
f 1747/7/6 1748/7/6 1751/7/6
f 1751/7/6 1748/7/6 1752/7/6
f 1753/2/6 1754/2/6 1757/2/6
f 1757/2/6 1754/2/6 1758/2/6
f 1755/2/6 1756/2/6 1759/2/6
f 1759/2/6 1756/2/6 1760/2/6
f 1761/2/6 1762/2/6 1765/2/6
f 1765/2/6 1762/2/6 1766/2/6
f 1763/2/6 1764/2/6 1767/2/6
f 1767/2/6 1764/2/6 1768/2/6
f 1766/7/6 1767/7/6 1769/7/6
f 1769/7/6 1767/7/6 1770/7/6
f 1771/8/6 1772/8/6 1775/8/6
f 1775/8/6 1772/8/6 1776/8/6
f 1773/8/6 1774/8/6 1777/8/6
f 1777/8/6 1774/8/6 1778/8/6
f 1779/3/6 1780/3/6 1781/3/6
f 1781/3/6 1780/3/6 1782/3/6
f 1783/8/6 1784/8/6 1787/8/6
f 1787/8/6 1784/8/6 1788/8/6
f 1785/8/6 1786/8/6 1789/8/6
f 1789/8/6 1786/8/6 1790/8/6
f 1791/8/6 1792/8/6 1795/8/6
f 1795/8/6 1792/8/6 1796/8/6
f 1793/8/6 1794/8/6 1797/8/6
f 1797/8/6 1794/8/6 1798/8/6
f 1799/8/6 1800/8/6 1801/8/6
f 1801/8/6 1800/8/6 1802/8/6
f 1803/7/6 1804/7/6 1807/7/6
f 1807/7/6 1804/7/6 1808/7/6
f 1805/7/6 1806/7/6 1809/7/6
f 1809/7/6 1806/7/6 1810/7/6
f 1811/2/6 1812/2/6 1817/2/6
f 1817/2/6 1812/2/6 1818/2/6
f 1813/7/6 1814/7/6 1820/7/6
f 1820/7/6 1814/7/6 1821/7/6
f 1815/2/6 1816/2/6 1823/2/6
f 1823/2/6 1816/2/6 1824/2/6
f 1817/8/6 1818/8/6 1825/8/6
f 1818/3/6 1819/3/6 1826/3/6
f 1825/8/6 1818/8/6 1826/8/6
f 1826/3/6 1819/3/6 1827/3/6
f 1822/3/6 1823/3/6 1828/3/6
f 1823/8/6 1824/8/6 1829/8/6
f 1828/3/6 1823/3/6 1829/3/6
f 1829/8/6 1824/8/6 1830/8/6
f 1826/10/6 1827/10/6 1831/10/6
f 1831/10/6 1827/10/6 1832/10/6
f 1828/10/6 1829/10/6 1833/10/6
f 1833/10/6 1829/10/6 1834/10/6
f 1835/3/6 1836/3/6 1837/3/6
f 1837/3/6 1836/3/6 1838/3/6
f 1837/10/6 1838/10/6 1839/10/6
f 1839/10/6 1838/10/6 1840/10/6
