# MagicaVoxel @ Ephtracy

# group
o 

# material
mtllib cave_decorations-7.mtl
usemtl palette

# normals
vn -1 0 0
vn 1 0 0
vn 0 0 1
vn 0 0 -1
vn 0 -1 0
vn 0 1 0

# texcoords
vt 0.763672 0.5
vt 0.771484 0.5
vt 0.791016 0.5
vt 0.880859 0.5
vt 0.966797 0.5

# verts
v -1.85 -0.05 1.85
v -1.85 -0.05 -1.85
v -1.85 0.05 1.85
v -1.85 0.05 -1.85
v 1.85 -0.05 1.85
v 1.85 -0.05 -1.85
v 1.85 0.05 1.85
v 1.85 0.05 -1.85
v -1.85 -0.05 1.85
v -1.85 0.05 1.85
v 1.85 -0.05 1.85
v 1.85 0.05 1.85
v -1.85 -0.05 -1.85
v -1.85 0.05 -1.85
v 1.85 -0.05 -1.85
v 1.85 0.05 -1.85
v -1.85 -0.05 1.85
v 1.85 -0.05 1.85
v -1.75 -0.05 1.75
v 1.75 -0.05 1.75
v -1.65 -0.05 1.65
v -1.35 -0.05 1.65
v -1.15 -0.05 1.65
v -0.85 -0.05 1.65
v -0.65 -0.05 1.65
v -0.35 -0.05 1.65
v -0.15 -0.05 1.65
v 0.15 -0.05 1.65
v 0.35 -0.05 1.65
v 0.45 -0.05 1.65
v -1.65 -0.05 1.35
v -1.35 -0.05 1.35
v -1.15 -0.05 1.35
v -0.85 -0.05 1.35
v -0.65 -0.05 1.35
v -0.35 -0.05 1.35
v -0.15 -0.05 1.35
v 0.15 -0.05 1.35
v 0.35 -0.05 1.35
v 0.45 -0.05 1.35
v -1.65 -0.05 1.15
v -1.35 -0.05 1.15
v -1.15 -0.05 1.15
v -0.85 -0.05 1.15
v -0.65 -0.05 1.15
v -0.35 -0.05 1.15
v -0.15 -0.05 1.15
v 0.15 -0.05 1.15
v 0.35 -0.05 1.15
v 0.65 -0.05 1.15
v 0.85 -0.05 1.15
v 1.15 -0.05 1.15
v 1.35 -0.05 1.15
v 1.55 -0.05 1.15
v -1.65 -0.05 0.85
v -1.35 -0.05 0.85
v -1.15 -0.05 0.85
v -0.85 -0.05 0.85
v -0.65 -0.05 0.85
v -0.35 -0.05 0.85
v -0.15 -0.05 0.85
v 0.15 -0.05 0.85
v 0.35 -0.05 0.85
v 0.65 -0.05 0.85
v 0.85 -0.05 0.85
v 1.15 -0.05 0.85
v 1.35 -0.05 0.85
v 1.55 -0.05 0.85
v -1.65 -0.05 0.65
v -1.35 -0.05 0.65
v -1.15 -0.05 0.65
v -0.85 -0.05 0.65
v -0.65 -0.05 0.65
v -0.55 -0.05 0.65
v -1.65 -0.05 0.35
v -1.35 -0.05 0.35
v -1.15 -0.05 0.35
v -0.85 -0.05 0.35
v -0.65 -0.05 0.35
v -0.55 -0.05 0.35
v -1.65 -0.05 0.15
v -1.35 -0.05 0.15
v -1.15 -0.05 0.15
v -0.85 -0.05 0.15
v -0.65 -0.05 0.15
v -0.35 -0.05 0.15
v -0.15 -0.05 0.15
v 0.15 -0.05 0.15
v 0.35 -0.05 0.15
v 0.65 -0.05 0.15
v 0.85 -0.05 0.15
v 1.15 -0.05 0.15
v 1.35 -0.05 0.15
v 1.65 -0.05 0.15
v -1.65 -0.05 -0.15
v -1.35 -0.05 -0.15
v -1.15 -0.05 -0.15
v -0.85 -0.05 -0.15
v -0.65 -0.05 -0.15
v -0.35 -0.05 -0.15
v -0.15 -0.05 -0.15
v 0.15 -0.05 -0.15
v 0.35 -0.05 -0.15
v 0.65 -0.05 -0.15
v 0.85 -0.05 -0.15
v 1.15 -0.05 -0.15
v 1.35 -0.05 -0.15
v 1.65 -0.05 -0.15
v -1.65 -0.05 -0.35
v -1.35 -0.05 -0.35
v -1.15 -0.05 -0.35
v -0.85 -0.05 -0.35
v -0.65 -0.05 -0.35
v -0.35 -0.05 -0.35
v -0.15 -0.05 -0.35
v 0.15 -0.05 -0.35
v 0.35 -0.05 -0.35
v 0.65 -0.05 -0.35
v -1.65 -0.05 -0.65
v -1.35 -0.05 -0.65
v -1.15 -0.05 -0.65
v -0.85 -0.05 -0.65
v -0.65 -0.05 -0.65
v -0.35 -0.05 -0.65
v -0.15 -0.05 -0.65
v 0.15 -0.05 -0.65
v 0.35 -0.05 -0.65
v 0.65 -0.05 -0.65
v -1.65 -0.05 -0.85
v -1.35 -0.05 -0.85
v -1.15 -0.05 -0.85
v -0.85 -0.05 -0.85
v -0.65 -0.05 -0.85
v -0.35 -0.05 -0.85
v -0.15 -0.05 -0.85
v 0.15 -0.05 -0.85
v 0.35 -0.05 -0.85
v 0.65 -0.05 -0.85
v 0.85 -0.05 -0.85
v 1.05 -0.05 -0.85
v -1.65 -0.05 -1.15
v -1.35 -0.05 -1.15
v -1.15 -0.05 -1.15
v -0.85 -0.05 -1.15
v -0.65 -0.05 -1.15
v -0.35 -0.05 -1.15
v -0.15 -0.05 -1.15
v 0.15 -0.05 -1.15
v 0.35 -0.05 -1.15
v 0.65 -0.05 -1.15
v 0.85 -0.05 -1.15
v 1.05 -0.05 -1.15
v -1.65 -0.05 -1.35
v -1.35 -0.05 -1.35
v -1.15 -0.05 -1.35
v -0.85 -0.05 -1.35
v -0.65 -0.05 -1.35
v -0.35 -0.05 -1.35
v -0.15 -0.05 -1.35
v 0.15 -0.05 -1.35
v 0.35 -0.05 -1.35
v 0.65 -0.05 -1.35
v 0.85 -0.05 -1.35
v 1.15 -0.05 -1.35
v 1.35 -0.05 -1.35
v 1.65 -0.05 -1.35
v -1.65 -0.05 -1.65
v -1.35 -0.05 -1.65
v -1.15 -0.05 -1.65
v -0.85 -0.05 -1.65
v -0.65 -0.05 -1.65
v -0.35 -0.05 -1.65
v -0.15 -0.05 -1.65
v 0.15 -0.05 -1.65
v 0.35 -0.05 -1.65
v 0.65 -0.05 -1.65
v 0.85 -0.05 -1.65
v 1.15 -0.05 -1.65
v 1.35 -0.05 -1.65
v 1.65 -0.05 -1.65
v -1.75 -0.05 -1.75
v 1.75 -0.05 -1.75
v -1.85 -0.05 -1.85
v 1.85 -0.05 -1.85
v -1.85 0.05 1.85
v 1.85 0.05 1.85
v -1.75 0.05 1.75
v 1.75 0.05 1.75
v -1.65 0.05 1.65
v -1.35 0.05 1.65
v -1.15 0.05 1.65
v -0.85 0.05 1.65
v -0.65 0.05 1.65
v -0.35 0.05 1.65
v -0.15 0.05 1.65
v 0.15 0.05 1.65
v 0.35 0.05 1.65
v 0.45 0.05 1.65
v -1.65 0.05 1.35
v -1.35 0.05 1.35
v -1.15 0.05 1.35
v -0.85 0.05 1.35
v -0.65 0.05 1.35
v -0.35 0.05 1.35
v -0.15 0.05 1.35
v 0.15 0.05 1.35
v 0.35 0.05 1.35
v 0.45 0.05 1.35
v -1.65 0.05 1.15
v -1.35 0.05 1.15
v -1.15 0.05 1.15
v -0.85 0.05 1.15
v -0.65 0.05 1.15
v -0.35 0.05 1.15
v -0.15 0.05 1.15
v 0.15 0.05 1.15
v 0.35 0.05 1.15
v 0.65 0.05 1.15
v 0.85 0.05 1.15
v 1.15 0.05 1.15
v 1.35 0.05 1.15
v 1.55 0.05 1.15
v -1.65 0.05 0.85
v -1.35 0.05 0.85
v -1.15 0.05 0.85
v -0.85 0.05 0.85
v -0.65 0.05 0.85
v -0.35 0.05 0.85
v -0.15 0.05 0.85
v 0.15 0.05 0.85
v 0.35 0.05 0.85
v 0.65 0.05 0.85
v 0.85 0.05 0.85
v 1.15 0.05 0.85
v 1.35 0.05 0.85
v 1.55 0.05 0.85
v -1.65 0.05 0.65
v -1.35 0.05 0.65
v -1.15 0.05 0.65
v -0.85 0.05 0.65
v -0.65 0.05 0.65
v -0.55 0.05 0.65
v -1.65 0.05 0.35
v -1.35 0.05 0.35
v -1.15 0.05 0.35
v -0.85 0.05 0.35
v -0.65 0.05 0.35
v -0.55 0.05 0.35
v -1.65 0.05 0.15
v -1.35 0.05 0.15
v -1.15 0.05 0.15
v -0.85 0.05 0.15
v -0.65 0.05 0.15
v -0.35 0.05 0.15
v -0.15 0.05 0.15
v 0.15 0.05 0.15
v 0.35 0.05 0.15
v 0.65 0.05 0.15
v 0.85 0.05 0.15
v 1.15 0.05 0.15
v 1.35 0.05 0.15
v 1.65 0.05 0.15
v -1.65 0.05 -0.15
v -1.35 0.05 -0.15
v -1.15 0.05 -0.15
v -0.85 0.05 -0.15
v -0.65 0.05 -0.15
v -0.35 0.05 -0.15
v -0.15 0.05 -0.15
v 0.15 0.05 -0.15
v 0.35 0.05 -0.15
v 0.65 0.05 -0.15
v 0.85 0.05 -0.15
v 1.15 0.05 -0.15
v 1.35 0.05 -0.15
v 1.65 0.05 -0.15
v -1.65 0.05 -0.35
v -1.35 0.05 -0.35
v -1.15 0.05 -0.35
v -0.85 0.05 -0.35
v -0.65 0.05 -0.35
v -0.35 0.05 -0.35
v -0.15 0.05 -0.35
v 0.15 0.05 -0.35
v 0.35 0.05 -0.35
v 0.65 0.05 -0.35
v -1.65 0.05 -0.65
v -1.35 0.05 -0.65
v -1.15 0.05 -0.65
v -0.85 0.05 -0.65
v -0.65 0.05 -0.65
v -0.35 0.05 -0.65
v -0.15 0.05 -0.65
v 0.15 0.05 -0.65
v 0.35 0.05 -0.65
v 0.65 0.05 -0.65
v -1.65 0.05 -0.85
v -1.35 0.05 -0.85
v -1.15 0.05 -0.85
v -0.85 0.05 -0.85
v -0.65 0.05 -0.85
v -0.35 0.05 -0.85
v -0.15 0.05 -0.85
v 0.15 0.05 -0.85
v 0.35 0.05 -0.85
v 0.65 0.05 -0.85
v 0.85 0.05 -0.85
v 1.05 0.05 -0.85
v -1.65 0.05 -1.15
v -1.35 0.05 -1.15
v -1.15 0.05 -1.15
v -0.85 0.05 -1.15
v -0.65 0.05 -1.15
v -0.35 0.05 -1.15
v -0.15 0.05 -1.15
v 0.15 0.05 -1.15
v 0.35 0.05 -1.15
v 0.65 0.05 -1.15
v 0.85 0.05 -1.15
v 1.05 0.05 -1.15
v -1.65 0.05 -1.35
v -1.35 0.05 -1.35
v -1.15 0.05 -1.35
v -0.85 0.05 -1.35
v -0.65 0.05 -1.35
v -0.35 0.05 -1.35
v -0.15 0.05 -1.35
v 0.15 0.05 -1.35
v 0.35 0.05 -1.35
v 0.65 0.05 -1.35
v 0.85 0.05 -1.35
v 1.15 0.05 -1.35
v 1.35 0.05 -1.35
v 1.65 0.05 -1.35
v -1.65 0.05 -1.65
v -1.35 0.05 -1.65
v -1.15 0.05 -1.65
v -0.85 0.05 -1.65
v -0.65 0.05 -1.65
v -0.35 0.05 -1.65
v -0.15 0.05 -1.65
v 0.15 0.05 -1.65
v 0.35 0.05 -1.65
v 0.65 0.05 -1.65
v 0.85 0.05 -1.65
v 1.15 0.05 -1.65
v 1.35 0.05 -1.65
v 1.65 0.05 -1.65
v -1.75 0.05 -1.75
v 1.75 0.05 -1.75
v -1.85 0.05 -1.85
v 1.85 0.05 -1.85

# faces
f 3/5/1 2/5/1 1/5/1
f 4/5/1 2/5/1 3/5/1
f 5/5/2 6/5/2 7/5/2
f 7/5/2 6/5/2 8/5/2
f 11/5/3 10/5/3 9/5/3
f 12/5/3 10/5/3 11/5/3
f 13/5/4 14/5/4 15/5/4
f 15/5/4 14/5/4 16/5/4
f 19/5/5 18/5/5 17/5/5
f 20/5/5 18/5/5 19/5/5
f 21/4/5 20/4/5 19/4/5
f 22/4/5 20/4/5 21/4/5
f 23/4/5 20/4/5 22/4/5
f 24/4/5 20/4/5 23/4/5
f 25/4/5 20/4/5 24/4/5
f 26/4/5 20/4/5 25/4/5
f 27/4/5 20/4/5 26/4/5
f 28/4/5 20/4/5 27/4/5
f 29/4/5 20/4/5 28/4/5
f 30/4/5 20/4/5 29/4/5
f 31/4/5 21/4/5 19/4/5
f 31/1/5 22/1/5 21/1/5
f 32/4/5 23/4/5 22/4/5
f 32/1/5 22/1/5 31/1/5
f 33/1/5 24/1/5 23/1/5
f 33/4/5 23/4/5 32/4/5
f 34/4/5 25/4/5 24/4/5
f 34/1/5 24/1/5 33/1/5
f 35/1/5 26/1/5 25/1/5
f 35/4/5 25/4/5 34/4/5
f 36/4/5 27/4/5 26/4/5
f 36/1/5 26/1/5 35/1/5
f 37/1/5 28/1/5 27/1/5
f 37/4/5 27/4/5 36/4/5
f 38/4/5 29/4/5 28/4/5
f 38/1/5 28/1/5 37/1/5
f 39/1/5 30/1/5 29/1/5
f 39/4/5 29/4/5 38/4/5
f 40/4/5 20/4/5 30/4/5
f 40/1/5 30/1/5 39/1/5
f 41/4/5 39/4/5 38/4/5
f 41/4/5 38/4/5 37/4/5
f 41/4/5 40/4/5 39/4/5
f 41/4/5 37/4/5 36/4/5
f 41/4/5 36/4/5 35/4/5
f 41/4/5 35/4/5 34/4/5
f 41/4/5 34/4/5 33/4/5
f 41/4/5 33/4/5 32/4/5
f 41/4/5 32/4/5 31/4/5
f 41/4/5 31/4/5 19/4/5
f 42/4/5 40/4/5 41/4/5
f 43/4/5 40/4/5 42/4/5
f 44/4/5 40/4/5 43/4/5
f 45/4/5 40/4/5 44/4/5
f 46/4/5 40/4/5 45/4/5
f 47/4/5 40/4/5 46/4/5
f 48/4/5 40/4/5 47/4/5
f 49/4/5 40/4/5 48/4/5
f 50/4/5 20/4/5 40/4/5
f 50/4/5 40/4/5 49/4/5
f 51/4/5 20/4/5 50/4/5
f 52/4/5 20/4/5 51/4/5
f 53/4/5 20/4/5 52/4/5
f 54/4/5 20/4/5 53/4/5
f 55/4/5 41/4/5 19/4/5
f 55/3/5 42/3/5 41/3/5
f 56/4/5 43/4/5 42/4/5
f 56/3/5 42/3/5 55/3/5
f 57/3/5 44/3/5 43/3/5
f 57/4/5 43/4/5 56/4/5
f 58/4/5 45/4/5 44/4/5
f 58/3/5 44/3/5 57/3/5
f 59/3/5 46/3/5 45/3/5
f 59/4/5 45/4/5 58/4/5
f 60/4/5 47/4/5 46/4/5
f 60/3/5 46/3/5 59/3/5
f 61/3/5 48/3/5 47/3/5
f 61/4/5 47/4/5 60/4/5
f 62/4/5 49/4/5 48/4/5
f 62/3/5 48/3/5 61/3/5
f 63/3/5 50/3/5 49/3/5
f 63/4/5 49/4/5 62/4/5
f 64/4/5 51/4/5 50/4/5
f 64/3/5 50/3/5 63/3/5
f 65/3/5 52/3/5 51/3/5
f 65/4/5 51/4/5 64/4/5
f 66/4/5 53/4/5 52/4/5
f 66/3/5 52/3/5 65/3/5
f 67/3/5 54/3/5 53/3/5
f 67/4/5 53/4/5 66/4/5
f 68/4/5 20/4/5 54/4/5
f 68/3/5 54/3/5 67/3/5
f 69/4/5 61/4/5 60/4/5
f 69/4/5 67/4/5 66/4/5
f 69/4/5 68/4/5 67/4/5
f 69/4/5 65/4/5 64/4/5
f 69/4/5 64/4/5 63/4/5
f 69/4/5 63/4/5 62/4/5
f 69/4/5 62/4/5 61/4/5
f 69/4/5 60/4/5 59/4/5
f 69/4/5 59/4/5 58/4/5
f 69/4/5 58/4/5 57/4/5
f 69/4/5 57/4/5 56/4/5
f 69/4/5 56/4/5 55/4/5
f 69/4/5 55/4/5 19/4/5
f 69/4/5 66/4/5 65/4/5
f 70/4/5 68/4/5 69/4/5
f 71/4/5 68/4/5 70/4/5
f 72/4/5 68/4/5 71/4/5
f 73/4/5 68/4/5 72/4/5
f 74/4/5 68/4/5 73/4/5
f 75/4/5 69/4/5 19/4/5
f 75/2/5 70/2/5 69/2/5
f 76/4/5 71/4/5 70/4/5
f 76/2/5 70/2/5 75/2/5
f 77/2/5 72/2/5 71/2/5
f 77/4/5 71/4/5 76/4/5
f 78/4/5 73/4/5 72/4/5
f 78/2/5 72/2/5 77/2/5
f 79/2/5 74/2/5 73/2/5
f 79/4/5 73/4/5 78/4/5
f 80/4/5 68/4/5 74/4/5
f 80/2/5 74/2/5 79/2/5
f 81/4/5 79/4/5 78/4/5
f 81/4/5 78/4/5 77/4/5
f 81/4/5 80/4/5 79/4/5
f 81/4/5 77/4/5 76/4/5
f 81/4/5 76/4/5 75/4/5
f 81/4/5 75/4/5 19/4/5
f 82/4/5 80/4/5 81/4/5
f 83/4/5 80/4/5 82/4/5
f 84/4/5 80/4/5 83/4/5
f 85/4/5 80/4/5 84/4/5
f 86/4/5 68/4/5 80/4/5
f 86/4/5 80/4/5 85/4/5
f 87/4/5 68/4/5 86/4/5
f 88/4/5 68/4/5 87/4/5
f 89/4/5 68/4/5 88/4/5
f 90/4/5 68/4/5 89/4/5
f 91/4/5 68/4/5 90/4/5
f 92/4/5 68/4/5 91/4/5
f 93/4/5 68/4/5 92/4/5
f 94/4/5 20/4/5 68/4/5
f 94/4/5 68/4/5 93/4/5
f 95/4/5 81/4/5 19/4/5
f 95/2/5 82/2/5 81/2/5
f 96/4/5 83/4/5 82/4/5
f 96/2/5 82/2/5 95/2/5
f 97/2/5 84/2/5 83/2/5
f 97/4/5 83/4/5 96/4/5
f 98/4/5 85/4/5 84/4/5
f 98/2/5 84/2/5 97/2/5
f 99/2/5 86/2/5 85/2/5
f 99/4/5 85/4/5 98/4/5
f 100/4/5 87/4/5 86/4/5
f 100/2/5 86/2/5 99/2/5
f 101/2/5 88/2/5 87/2/5
f 101/4/5 87/4/5 100/4/5
f 102/4/5 89/4/5 88/4/5
f 102/2/5 88/2/5 101/2/5
f 103/2/5 90/2/5 89/2/5
f 103/4/5 89/4/5 102/4/5
f 104/4/5 91/4/5 90/4/5
f 104/2/5 90/2/5 103/2/5
f 105/2/5 92/2/5 91/2/5
f 105/4/5 91/4/5 104/4/5
f 106/4/5 93/4/5 92/4/5
f 106/2/5 92/2/5 105/2/5
f 107/2/5 94/2/5 93/2/5
f 107/4/5 93/4/5 106/4/5
f 108/4/5 20/4/5 94/4/5
f 108/2/5 94/2/5 107/2/5
f 109/4/5 105/4/5 104/4/5
f 109/4/5 97/4/5 96/4/5
f 109/4/5 108/4/5 107/4/5
f 109/4/5 104/4/5 103/4/5
f 109/4/5 103/4/5 102/4/5
f 109/4/5 102/4/5 101/4/5
f 109/4/5 101/4/5 100/4/5
f 109/4/5 100/4/5 99/4/5
f 109/4/5 99/4/5 98/4/5
f 109/4/5 98/4/5 97/4/5
f 109/4/5 96/4/5 95/4/5
f 109/4/5 95/4/5 19/4/5
f 109/4/5 106/4/5 105/4/5
f 109/4/5 107/4/5 106/4/5
f 110/4/5 108/4/5 109/4/5
f 111/4/5 108/4/5 110/4/5
f 112/4/5 108/4/5 111/4/5
f 113/4/5 108/4/5 112/4/5
f 114/4/5 108/4/5 113/4/5
f 115/4/5 108/4/5 114/4/5
f 116/4/5 108/4/5 115/4/5
f 117/4/5 108/4/5 116/4/5
f 118/4/5 108/4/5 117/4/5
f 119/4/5 109/4/5 19/4/5
f 119/3/5 110/3/5 109/3/5
f 120/4/5 111/4/5 110/4/5
f 120/3/5 110/3/5 119/3/5
f 121/3/5 112/3/5 111/3/5
f 121/4/5 111/4/5 120/4/5
f 122/4/5 113/4/5 112/4/5
f 122/3/5 112/3/5 121/3/5
f 123/3/5 114/3/5 113/3/5
f 123/4/5 113/4/5 122/4/5
f 124/4/5 115/4/5 114/4/5
f 124/3/5 114/3/5 123/3/5
f 125/3/5 116/3/5 115/3/5
f 125/4/5 115/4/5 124/4/5
f 126/4/5 117/4/5 116/4/5
f 126/3/5 116/3/5 125/3/5
f 127/3/5 118/3/5 117/3/5
f 127/4/5 117/4/5 126/4/5
f 128/4/5 108/4/5 118/4/5
f 128/3/5 118/3/5 127/3/5
f 129/4/5 127/4/5 126/4/5
f 129/4/5 126/4/5 125/4/5
f 129/4/5 128/4/5 127/4/5
f 129/4/5 125/4/5 124/4/5
f 129/4/5 124/4/5 123/4/5
f 129/4/5 123/4/5 122/4/5
f 129/4/5 122/4/5 121/4/5
f 129/4/5 121/4/5 120/4/5
f 129/4/5 120/4/5 119/4/5
f 129/4/5 119/4/5 19/4/5
f 130/4/5 128/4/5 129/4/5
f 131/4/5 128/4/5 130/4/5
f 132/4/5 128/4/5 131/4/5
f 133/4/5 128/4/5 132/4/5
f 134/4/5 128/4/5 133/4/5
f 135/4/5 128/4/5 134/4/5
f 136/4/5 128/4/5 135/4/5
f 137/4/5 128/4/5 136/4/5
f 138/4/5 108/4/5 128/4/5
f 138/4/5 128/4/5 137/4/5
f 139/4/5 108/4/5 138/4/5
f 140/4/5 108/4/5 139/4/5
f 141/4/5 129/4/5 19/4/5
f 141/1/5 130/1/5 129/1/5
f 142/4/5 131/4/5 130/4/5
f 142/1/5 130/1/5 141/1/5
f 143/1/5 132/1/5 131/1/5
f 143/4/5 131/4/5 142/4/5
f 144/4/5 133/4/5 132/4/5
f 144/1/5 132/1/5 143/1/5
f 145/1/5 134/1/5 133/1/5
f 145/4/5 133/4/5 144/4/5
f 146/4/5 135/4/5 134/4/5
f 146/1/5 134/1/5 145/1/5
f 147/1/5 136/1/5 135/1/5
f 147/4/5 135/4/5 146/4/5
f 148/4/5 137/4/5 136/4/5
f 148/1/5 136/1/5 147/1/5
f 149/1/5 138/1/5 137/1/5
f 149/4/5 137/4/5 148/4/5
f 150/4/5 139/4/5 138/4/5
f 150/1/5 138/1/5 149/1/5
f 151/1/5 140/1/5 139/1/5
f 151/4/5 139/4/5 150/4/5
f 152/4/5 108/4/5 140/4/5
f 152/1/5 140/1/5 151/1/5
f 153/4/5 147/4/5 146/4/5
f 153/4/5 151/4/5 150/4/5
f 153/4/5 152/4/5 151/4/5
f 153/4/5 149/4/5 148/4/5
f 153/4/5 148/4/5 147/4/5
f 153/4/5 146/4/5 145/4/5
f 153/4/5 145/4/5 144/4/5
f 153/4/5 144/4/5 143/4/5
f 153/4/5 143/4/5 142/4/5
f 153/4/5 142/4/5 141/4/5
f 153/4/5 141/4/5 19/4/5
f 153/4/5 150/4/5 149/4/5
f 154/4/5 152/4/5 153/4/5
f 155/4/5 152/4/5 154/4/5
f 156/4/5 152/4/5 155/4/5
f 157/4/5 152/4/5 156/4/5
f 158/4/5 152/4/5 157/4/5
f 159/4/5 152/4/5 158/4/5
f 160/4/5 152/4/5 159/4/5
f 161/4/5 152/4/5 160/4/5
f 162/4/5 152/4/5 161/4/5
f 163/4/5 152/4/5 162/4/5
f 164/4/5 108/4/5 152/4/5
f 164/4/5 152/4/5 163/4/5
f 165/4/5 108/4/5 164/4/5
f 166/4/5 20/4/5 108/4/5
f 166/4/5 108/4/5 165/4/5
f 167/4/5 153/4/5 19/4/5
f 167/3/5 154/3/5 153/3/5
f 168/4/5 155/4/5 154/4/5
f 168/3/5 154/3/5 167/3/5
f 169/3/5 156/3/5 155/3/5
f 169/4/5 155/4/5 168/4/5
f 170/4/5 157/4/5 156/4/5
f 170/3/5 156/3/5 169/3/5
f 171/3/5 158/3/5 157/3/5
f 171/4/5 157/4/5 170/4/5
f 172/4/5 159/4/5 158/4/5
f 172/3/5 158/3/5 171/3/5
f 173/3/5 160/3/5 159/3/5
f 173/4/5 159/4/5 172/4/5
f 174/4/5 161/4/5 160/4/5
f 174/3/5 160/3/5 173/3/5
f 175/3/5 162/3/5 161/3/5
f 175/4/5 161/4/5 174/4/5
f 176/4/5 163/4/5 162/4/5
f 176/3/5 162/3/5 175/3/5
f 177/3/5 164/3/5 163/3/5
f 177/4/5 163/4/5 176/4/5
f 178/4/5 165/4/5 164/4/5
f 178/3/5 164/3/5 177/3/5
f 179/3/5 166/3/5 165/3/5
f 179/4/5 165/4/5 178/4/5
f 180/4/5 20/4/5 166/4/5
f 180/3/5 166/3/5 179/3/5
f 181/5/5 19/5/5 17/5/5
f 181/4/5 177/4/5 176/4/5
f 181/4/5 180/4/5 179/4/5
f 181/4/5 176/4/5 175/4/5
f 181/4/5 174/4/5 173/4/5
f 181/4/5 173/4/5 172/4/5
f 181/4/5 172/4/5 171/4/5
f 181/4/5 171/4/5 170/4/5
f 181/4/5 170/4/5 169/4/5
f 181/4/5 169/4/5 168/4/5
f 181/4/5 168/4/5 167/4/5
f 181/4/5 167/4/5 19/4/5
f 181/4/5 178/4/5 177/4/5
f 181/4/5 179/4/5 178/4/5
f 181/4/5 175/4/5 174/4/5
f 182/4/5 20/4/5 180/4/5
f 182/4/5 180/4/5 181/4/5
f 182/5/5 18/5/5 20/5/5
f 183/5/5 181/5/5 17/5/5
f 183/5/5 182/5/5 181/5/5
f 184/5/5 18/5/5 182/5/5
f 184/5/5 182/5/5 183/5/5
f 185/5/6 186/5/6 187/5/6
f 187/5/6 186/5/6 188/5/6
f 187/4/6 188/4/6 189/4/6
f 189/4/6 188/4/6 190/4/6
f 190/4/6 188/4/6 191/4/6
f 191/4/6 188/4/6 192/4/6
f 192/4/6 188/4/6 193/4/6
f 193/4/6 188/4/6 194/4/6
f 194/4/6 188/4/6 195/4/6
f 195/4/6 188/4/6 196/4/6
f 196/4/6 188/4/6 197/4/6
f 197/4/6 188/4/6 198/4/6
f 187/4/6 189/4/6 199/4/6
f 189/1/6 190/1/6 199/1/6
f 190/4/6 191/4/6 200/4/6
f 199/1/6 190/1/6 200/1/6
f 191/1/6 192/1/6 201/1/6
f 200/4/6 191/4/6 201/4/6
f 192/4/6 193/4/6 202/4/6
f 201/1/6 192/1/6 202/1/6
f 193/1/6 194/1/6 203/1/6
f 202/4/6 193/4/6 203/4/6
f 194/4/6 195/4/6 204/4/6
f 203/1/6 194/1/6 204/1/6
f 195/1/6 196/1/6 205/1/6
f 204/4/6 195/4/6 205/4/6
f 196/4/6 197/4/6 206/4/6
f 205/1/6 196/1/6 206/1/6
f 197/1/6 198/1/6 207/1/6
f 206/4/6 197/4/6 207/4/6
f 198/4/6 188/4/6 208/4/6
f 207/1/6 198/1/6 208/1/6
f 206/4/6 207/4/6 209/4/6
f 205/4/6 206/4/6 209/4/6
f 207/4/6 208/4/6 209/4/6
f 204/4/6 205/4/6 209/4/6
f 203/4/6 204/4/6 209/4/6
f 202/4/6 203/4/6 209/4/6
f 201/4/6 202/4/6 209/4/6
f 200/4/6 201/4/6 209/4/6
f 199/4/6 200/4/6 209/4/6
f 187/4/6 199/4/6 209/4/6
f 209/4/6 208/4/6 210/4/6
f 210/4/6 208/4/6 211/4/6
f 211/4/6 208/4/6 212/4/6
f 212/4/6 208/4/6 213/4/6
f 213/4/6 208/4/6 214/4/6
f 214/4/6 208/4/6 215/4/6
f 215/4/6 208/4/6 216/4/6
f 216/4/6 208/4/6 217/4/6
f 208/4/6 188/4/6 218/4/6
f 217/4/6 208/4/6 218/4/6
f 218/4/6 188/4/6 219/4/6
f 219/4/6 188/4/6 220/4/6
f 220/4/6 188/4/6 221/4/6
f 221/4/6 188/4/6 222/4/6
f 187/4/6 209/4/6 223/4/6
f 209/3/6 210/3/6 223/3/6
f 210/4/6 211/4/6 224/4/6
f 223/3/6 210/3/6 224/3/6
f 211/3/6 212/3/6 225/3/6
f 224/4/6 211/4/6 225/4/6
f 212/4/6 213/4/6 226/4/6
f 225/3/6 212/3/6 226/3/6
f 213/3/6 214/3/6 227/3/6
f 226/4/6 213/4/6 227/4/6
f 214/4/6 215/4/6 228/4/6
f 227/3/6 214/3/6 228/3/6
f 215/3/6 216/3/6 229/3/6
f 228/4/6 215/4/6 229/4/6
f 216/4/6 217/4/6 230/4/6
f 229/3/6 216/3/6 230/3/6
f 217/3/6 218/3/6 231/3/6
f 230/4/6 217/4/6 231/4/6
f 218/4/6 219/4/6 232/4/6
f 231/3/6 218/3/6 232/3/6
f 219/3/6 220/3/6 233/3/6
f 232/4/6 219/4/6 233/4/6
f 220/4/6 221/4/6 234/4/6
f 233/3/6 220/3/6 234/3/6
f 221/3/6 222/3/6 235/3/6
f 234/4/6 221/4/6 235/4/6
f 222/4/6 188/4/6 236/4/6
f 235/3/6 222/3/6 236/3/6
f 228/4/6 229/4/6 237/4/6
f 234/4/6 235/4/6 237/4/6
f 235/4/6 236/4/6 237/4/6
f 232/4/6 233/4/6 237/4/6
f 231/4/6 232/4/6 237/4/6
f 230/4/6 231/4/6 237/4/6
f 229/4/6 230/4/6 237/4/6
f 227/4/6 228/4/6 237/4/6
f 226/4/6 227/4/6 237/4/6
f 225/4/6 226/4/6 237/4/6
f 224/4/6 225/4/6 237/4/6
f 223/4/6 224/4/6 237/4/6
f 187/4/6 223/4/6 237/4/6
f 233/4/6 234/4/6 237/4/6
f 237/4/6 236/4/6 238/4/6
f 238/4/6 236/4/6 239/4/6
f 239/4/6 236/4/6 240/4/6
f 240/4/6 236/4/6 241/4/6
f 241/4/6 236/4/6 242/4/6
f 187/4/6 237/4/6 243/4/6
f 237/2/6 238/2/6 243/2/6
f 238/4/6 239/4/6 244/4/6
f 243/2/6 238/2/6 244/2/6
f 239/2/6 240/2/6 245/2/6
f 244/4/6 239/4/6 245/4/6
f 240/4/6 241/4/6 246/4/6
f 245/2/6 240/2/6 246/2/6
f 241/2/6 242/2/6 247/2/6
f 246/4/6 241/4/6 247/4/6
f 242/4/6 236/4/6 248/4/6
f 247/2/6 242/2/6 248/2/6
f 246/4/6 247/4/6 249/4/6
f 245/4/6 246/4/6 249/4/6
f 247/4/6 248/4/6 249/4/6
f 244/4/6 245/4/6 249/4/6
f 243/4/6 244/4/6 249/4/6
f 187/4/6 243/4/6 249/4/6
f 249/4/6 248/4/6 250/4/6
f 250/4/6 248/4/6 251/4/6
f 251/4/6 248/4/6 252/4/6
f 252/4/6 248/4/6 253/4/6
f 248/4/6 236/4/6 254/4/6
f 253/4/6 248/4/6 254/4/6
f 254/4/6 236/4/6 255/4/6
f 255/4/6 236/4/6 256/4/6
f 256/4/6 236/4/6 257/4/6
f 257/4/6 236/4/6 258/4/6
f 258/4/6 236/4/6 259/4/6
f 259/4/6 236/4/6 260/4/6
f 260/4/6 236/4/6 261/4/6
f 236/4/6 188/4/6 262/4/6
f 261/4/6 236/4/6 262/4/6
f 187/4/6 249/4/6 263/4/6
f 249/2/6 250/2/6 263/2/6
f 250/4/6 251/4/6 264/4/6
f 263/2/6 250/2/6 264/2/6
f 251/2/6 252/2/6 265/2/6
f 264/4/6 251/4/6 265/4/6
f 252/4/6 253/4/6 266/4/6
f 265/2/6 252/2/6 266/2/6
f 253/2/6 254/2/6 267/2/6
f 266/4/6 253/4/6 267/4/6
f 254/4/6 255/4/6 268/4/6
f 267/2/6 254/2/6 268/2/6
f 255/2/6 256/2/6 269/2/6
f 268/4/6 255/4/6 269/4/6
f 256/4/6 257/4/6 270/4/6
f 269/2/6 256/2/6 270/2/6
f 257/2/6 258/2/6 271/2/6
f 270/4/6 257/4/6 271/4/6
f 258/4/6 259/4/6 272/4/6
f 271/2/6 258/2/6 272/2/6
f 259/2/6 260/2/6 273/2/6
f 272/4/6 259/4/6 273/4/6
f 260/4/6 261/4/6 274/4/6
f 273/2/6 260/2/6 274/2/6
f 261/2/6 262/2/6 275/2/6
f 274/4/6 261/4/6 275/4/6
f 262/4/6 188/4/6 276/4/6
f 275/2/6 262/2/6 276/2/6
f 272/4/6 273/4/6 277/4/6
f 264/4/6 265/4/6 277/4/6
f 275/4/6 276/4/6 277/4/6
f 271/4/6 272/4/6 277/4/6
f 270/4/6 271/4/6 277/4/6
f 269/4/6 270/4/6 277/4/6
f 268/4/6 269/4/6 277/4/6
f 267/4/6 268/4/6 277/4/6
f 266/4/6 267/4/6 277/4/6
f 265/4/6 266/4/6 277/4/6
f 263/4/6 264/4/6 277/4/6
f 187/4/6 263/4/6 277/4/6
f 273/4/6 274/4/6 277/4/6
f 274/4/6 275/4/6 277/4/6
f 277/4/6 276/4/6 278/4/6
f 278/4/6 276/4/6 279/4/6
f 279/4/6 276/4/6 280/4/6
f 280/4/6 276/4/6 281/4/6
f 281/4/6 276/4/6 282/4/6
f 282/4/6 276/4/6 283/4/6
f 283/4/6 276/4/6 284/4/6
f 284/4/6 276/4/6 285/4/6
f 285/4/6 276/4/6 286/4/6
f 187/4/6 277/4/6 287/4/6
f 277/3/6 278/3/6 287/3/6
f 278/4/6 279/4/6 288/4/6
f 287/3/6 278/3/6 288/3/6
f 279/3/6 280/3/6 289/3/6
f 288/4/6 279/4/6 289/4/6
f 280/4/6 281/4/6 290/4/6
f 289/3/6 280/3/6 290/3/6
f 281/3/6 282/3/6 291/3/6
f 290/4/6 281/4/6 291/4/6
f 282/4/6 283/4/6 292/4/6
f 291/3/6 282/3/6 292/3/6
f 283/3/6 284/3/6 293/3/6
f 292/4/6 283/4/6 293/4/6
f 284/4/6 285/4/6 294/4/6
f 293/3/6 284/3/6 294/3/6
f 285/3/6 286/3/6 295/3/6
f 294/4/6 285/4/6 295/4/6
f 286/4/6 276/4/6 296/4/6
f 295/3/6 286/3/6 296/3/6
f 294/4/6 295/4/6 297/4/6
f 293/4/6 294/4/6 297/4/6
f 295/4/6 296/4/6 297/4/6
f 292/4/6 293/4/6 297/4/6
f 291/4/6 292/4/6 297/4/6
f 290/4/6 291/4/6 297/4/6
f 289/4/6 290/4/6 297/4/6
f 288/4/6 289/4/6 297/4/6
f 287/4/6 288/4/6 297/4/6
f 187/4/6 287/4/6 297/4/6
f 297/4/6 296/4/6 298/4/6
f 298/4/6 296/4/6 299/4/6
f 299/4/6 296/4/6 300/4/6
f 300/4/6 296/4/6 301/4/6
f 301/4/6 296/4/6 302/4/6
f 302/4/6 296/4/6 303/4/6
f 303/4/6 296/4/6 304/4/6
f 304/4/6 296/4/6 305/4/6
f 296/4/6 276/4/6 306/4/6
f 305/4/6 296/4/6 306/4/6
f 306/4/6 276/4/6 307/4/6
f 307/4/6 276/4/6 308/4/6
f 187/4/6 297/4/6 309/4/6
f 297/1/6 298/1/6 309/1/6
f 298/4/6 299/4/6 310/4/6
f 309/1/6 298/1/6 310/1/6
f 299/1/6 300/1/6 311/1/6
f 310/4/6 299/4/6 311/4/6
f 300/4/6 301/4/6 312/4/6
f 311/1/6 300/1/6 312/1/6
f 301/1/6 302/1/6 313/1/6
f 312/4/6 301/4/6 313/4/6
f 302/4/6 303/4/6 314/4/6
f 313/1/6 302/1/6 314/1/6
f 303/1/6 304/1/6 315/1/6
f 314/4/6 303/4/6 315/4/6
f 304/4/6 305/4/6 316/4/6
f 315/1/6 304/1/6 316/1/6
f 305/1/6 306/1/6 317/1/6
f 316/4/6 305/4/6 317/4/6
f 306/4/6 307/4/6 318/4/6
f 317/1/6 306/1/6 318/1/6
f 307/1/6 308/1/6 319/1/6
f 318/4/6 307/4/6 319/4/6
f 308/4/6 276/4/6 320/4/6
f 319/1/6 308/1/6 320/1/6
f 314/4/6 315/4/6 321/4/6
f 318/4/6 319/4/6 321/4/6
f 319/4/6 320/4/6 321/4/6
f 316/4/6 317/4/6 321/4/6
f 315/4/6 316/4/6 321/4/6
f 313/4/6 314/4/6 321/4/6
f 312/4/6 313/4/6 321/4/6
f 311/4/6 312/4/6 321/4/6
f 310/4/6 311/4/6 321/4/6
f 309/4/6 310/4/6 321/4/6
f 187/4/6 309/4/6 321/4/6
f 317/4/6 318/4/6 321/4/6
f 321/4/6 320/4/6 322/4/6
f 322/4/6 320/4/6 323/4/6
f 323/4/6 320/4/6 324/4/6
f 324/4/6 320/4/6 325/4/6
f 325/4/6 320/4/6 326/4/6
f 326/4/6 320/4/6 327/4/6
f 327/4/6 320/4/6 328/4/6
f 328/4/6 320/4/6 329/4/6
f 329/4/6 320/4/6 330/4/6
f 330/4/6 320/4/6 331/4/6
f 320/4/6 276/4/6 332/4/6
f 331/4/6 320/4/6 332/4/6
f 332/4/6 276/4/6 333/4/6
f 276/4/6 188/4/6 334/4/6
f 333/4/6 276/4/6 334/4/6
f 187/4/6 321/4/6 335/4/6
f 321/3/6 322/3/6 335/3/6
f 322/4/6 323/4/6 336/4/6
f 335/3/6 322/3/6 336/3/6
f 323/3/6 324/3/6 337/3/6
f 336/4/6 323/4/6 337/4/6
f 324/4/6 325/4/6 338/4/6
f 337/3/6 324/3/6 338/3/6
f 325/3/6 326/3/6 339/3/6
f 338/4/6 325/4/6 339/4/6
f 326/4/6 327/4/6 340/4/6
f 339/3/6 326/3/6 340/3/6
f 327/3/6 328/3/6 341/3/6
f 340/4/6 327/4/6 341/4/6
f 328/4/6 329/4/6 342/4/6
f 341/3/6 328/3/6 342/3/6
f 329/3/6 330/3/6 343/3/6
f 342/4/6 329/4/6 343/4/6
f 330/4/6 331/4/6 344/4/6
f 343/3/6 330/3/6 344/3/6
f 331/3/6 332/3/6 345/3/6
f 344/4/6 331/4/6 345/4/6
f 332/4/6 333/4/6 346/4/6
f 345/3/6 332/3/6 346/3/6
f 333/3/6 334/3/6 347/3/6
f 346/4/6 333/4/6 347/4/6
f 334/4/6 188/4/6 348/4/6
f 347/3/6 334/3/6 348/3/6
f 185/5/6 187/5/6 349/5/6
f 344/4/6 345/4/6 349/4/6
f 347/4/6 348/4/6 349/4/6
f 343/4/6 344/4/6 349/4/6
f 341/4/6 342/4/6 349/4/6
f 340/4/6 341/4/6 349/4/6
f 339/4/6 340/4/6 349/4/6
f 338/4/6 339/4/6 349/4/6
f 337/4/6 338/4/6 349/4/6
f 336/4/6 337/4/6 349/4/6
f 335/4/6 336/4/6 349/4/6
f 187/4/6 335/4/6 349/4/6
f 345/4/6 346/4/6 349/4/6
f 346/4/6 347/4/6 349/4/6
f 342/4/6 343/4/6 349/4/6
f 348/4/6 188/4/6 350/4/6
f 349/4/6 348/4/6 350/4/6
f 188/5/6 186/5/6 350/5/6
f 185/5/6 349/5/6 351/5/6
f 349/5/6 350/5/6 351/5/6
f 350/5/6 186/5/6 352/5/6
f 351/5/6 350/5/6 352/5/6
