# MagicaVoxel @ Ephtracy

# group
o 

# material
mtllib cave_decorations-16.mtl
usemtl palette

# normals
vn -1 0 0
vn 1 0 0
vn 0 0 1
vn 0 0 -1
vn 0 -1 0
vn 0 1 0

# texcoords
vt 0.837891 0.5
vt 0.841797 0.5

# verts
v -0.5 0.5 0.2
v -0.5 0.5 0
v -0.5 0.5 -0.2
v -0.5 0.6 0.1
v -0.5 0.6 0
v -0.5 0.7 0
v -0.5 0.7 -0.1
v -0.5 0.8 0.1
v -0.5 0.8 0
v -0.5 1 -0.1
v -0.5 1 -0.2
v -0.5 1.2 -0.1
v -0.5 1.2 -0.2
v -0.5 1.4 -0.1
v -0.5 1.4 -0.2
v -0.5 1.5 0.2
v -0.5 1.5 0.1
v -0.5 1.5 -0.1
v -0.5 1.5 -0.2
v -0.5 1.6 0.1
v -0.5 1.6 0
v -0.5 1.6 -0.1
v -0.5 1.6 -0.2
v -0.5 1.7 0.2
v -0.5 1.7 0
v -0.5 1.7 -0.2
v -0.4 -2.9 0.2
v -0.4 -2.9 0.1
v -0.4 -2.9 -0.2
v -0.4 -2.8 0.2
v -0.4 -2.8 0.1
v -0.4 -2.5 0.2
v -0.4 -2.5 0.1
v -0.4 -2.5 -0.1
v -0.4 -2.5 -0.2
v -0.4 -2.4 0.2
v -0.4 -2.4 0.1
v -0.4 -2.4 0
v -0.4 -2.4 -0.1
v -0.4 -2.3 0.1
v -0.4 -2.3 0
v -0.4 -2.3 -0.1
v -0.4 -2.3 -0.2
v -0.4 -2.2 0.2
v -0.4 -2.2 0.1
v -0.4 -2.2 -0.1
v -0.4 -2.2 -0.2
v -0.4 -0.3 0.2
v -0.4 -0.3 0.1
v -0.4 -0.3 0
v -0.4 -0.3 -0.2
v -0.4 -0.2 0.1
v -0.4 -0.2 0
v -0.4 -0.0999999 0.1
v -0.4 -0.0999999 -0.1
v -0.4 0 0.2
v -0.4 0 0.1
v -0.4 0.1 0.2
v -0.4 0.1 0.1
v -0.4 0.2 0.2
v -0.4 0.2 0.1
v -0.4 0.5 0.4
v -0.4 0.5 0.2
v -0.4 0.5 0
v -0.4 0.5 -0.1
v -0.4 0.5 -0.2
v -0.4 0.5 -0.3
v -0.4 0.5 -0.4
v -0.4 0.6 0.4
v -0.4 0.6 0.3
v -0.4 0.6 -0.2
v -0.4 0.6 -0.3
v -0.4 0.7 0.4
v -0.4 0.7 0.3
v -0.4 0.8 0.4
v -0.4 0.8 0.2
v -0.4 0.9 0.4
v -0.4 0.9 0.2
v -0.4 0.9 -0.2
v -0.4 0.9 -0.3
v -0.4 1 -0.2
v -0.4 1.1 -0.3
v -0.4 1.1 -0.4
v -0.4 1.2 -0.2
v -0.4 1.2 -0.3
v -0.4 1.4 0.4
v -0.4 1.4 0.2
v -0.4 1.4 -0.2
v -0.4 1.4 -0.3
v -0.4 1.5 0.2
v -0.4 1.5 -0.2
v -0.4 1.5 -0.3
v -0.4 1.5 -0.4
v -0.4 1.6 0.4
v -0.4 1.6 0.3
v -0.4 1.6 -0.2
v -0.4 1.6 -0.3
v -0.4 1.7 0.4
v -0.4 1.7 0.3
v -0.4 1.7 0.2
v -0.4 1.7 0.1
v -0.4 1.7 0
v -0.4 1.7 -0.2
v -0.4 1.7 -0.4
v -0.4 1.8 0.2
v -0.4 1.8 0.1
v -0.4 1.9 0.1
v -0.4 1.9 0
v -0.4 2 0.1
v -0.4 2 0
v -0.4 2 -0.2
v -0.4 2.1 0.2
v -0.4 2.1 0.1
v -0.4 2.2 0.2
v -0.4 2.2 0.1
v -0.4 2.2 0
v -0.4 2.2 -0.2
v -0.3 -2.9 0.3
v -0.3 -2.9 0.2
v -0.3 -2.9 -0.2
v -0.3 -2.9 -0.3
v -0.3 -2.8 0.3
v -0.3 -2.8 0.2
v -0.3 -2.7 0.3
v -0.3 -2.7 0.2
v -0.3 -2.6 -0.2
v -0.3 -2.6 -0.3
v -0.3 -2.5 0.2
v -0.3 -2.5 -0.2
v -0.3 -2.5 -0.3
v -0.3 -2.4 0.2
v -0.3 -2.3 -0.2
v -0.3 -2.2 0.3
v -0.3 -2.2 0.2
v -0.3 -2.2 0.1
v -0.3 -2.2 0
v -0.3 -2.2 -0.1
v -0.3 -2.2 -0.2
v -0.3 -2.2 -0.3
v -0.3 -2.1 0.1
v -0.3 -2.1 0
v -0.3 -1.9 0.2
v -0.3 -1.9 0.1
v -0.3 -1.9 -0.1
v -0.3 -1.9 -0.2
v -0.3 -1.7 0.2
v -0.3 -1.7 0.1
v -0.3 -1.7 -0.1
v -0.3 -1.7 -0.2
v -0.3 -1.6 0.2
v -0.3 -1.6 0.1
v -0.3 -1.5 0.1
v -0.3 -1.5 -0.2
v -0.3 -1.4 0.2
v -0.3 -1.4 0.1
v -0.3 -1.4 -0.2
v -0.3 -1.3 0.2
v -0.3 -1.3 0.1
v -0.3 -1.3 -0.1
v -0.3 -1.3 -0.2
v -0.3 -1.2 0.2
v -0.3 -1.2 -0.1
v -0.3 -1.1 0.2
v -0.3 -1.1 0
v -0.3 -0.6 0.1
v -0.3 -0.6 0
v -0.3 -0.6 -0.1
v -0.3 -0.4 0.2
v -0.3 -0.4 0.1
v -0.3 -0.4 0
v -0.3 -0.3 0.3
v -0.3 -0.3 0.2
v -0.3 -0.3 0.1
v -0.3 -0.3 0
v -0.3 -0.3 -0.1
v -0.3 -0.3 -0.2
v -0.3 -0.3 -0.3
v -0.3 0 0.2
v -0.3 0.1 0.2
v -0.3 0.2 0.3
v -0.3 0.2 0.2
v -0.3 0.3 -0.2
v -0.3 0.3 -0.3
v -0.3 0.5 0.3
v -0.3 0.5 0.2
v -0.3 0.5 -0.2
v -0.3 0.5 -0.3
v -0.3 1.7 0.3
v -0.3 1.7 0.2
v -0.3 1.7 -0.2
v -0.3 1.7 -0.3
v -0.3 1.8 0.2
v -0.3 1.9 0.3
v -0.3 1.9 0.2
v -0.3 2 -0.2
v -0.3 2 -0.3
v -0.3 2.1 0.2
v -0.3 2.2 0.3
v -0.3 2.2 0.2
v -0.3 2.2 0.1
v -0.3 2.2 0
v -0.3 2.2 -0.1
v -0.3 2.2 -0.2
v -0.3 2.2 -0.3
v -0.3 2.4 -0.1
v -0.3 2.4 -0.2
v -0.3 2.6 0.2
v -0.3 2.6 -0.2
v -0.2 -2.9 0.4
v -0.2 -2.9 0.3
v -0.2 -2.9 -0.3
v -0.2 -2.9 -0.4
v -0.2 -2.8 0.3
v -0.2 -2.7 0.4
v -0.2 -2.7 0.3
v -0.2 -2.7 -0.3
v -0.2 -2.7 -0.4
v -0.2 -2.6 0.4
v -0.2 -2.6 0.3
v -0.2 -2.6 -0.3
v -0.2 -2.6 -0.4
v -0.2 -2.5 -0.3
v -0.2 -2.3 0.4
v -0.2 -2.3 0.3
v -0.2 -2.2 0.4
v -0.2 -2.2 0.3
v -0.2 -2.2 0.2
v -0.2 -2.2 -0.2
v -0.2 -2.2 -0.3
v -0.2 -2.2 -0.4
v -0.2 -2 -0.2
v -0.2 -2 -0.3
v -0.2 -1.9 0.2
v -0.2 -1.9 -0.2
v -0.2 -1.9 -0.3
v -0.2 -1.8 -0.2
v -0.2 -1.8 -0.3
v -0.2 -1.7 0.2
v -0.2 -1.7 -0.2
v -0.2 -1.6 0.2
v -0.2 -1.5 -0.2
v -0.2 -1.4 0.2
v -0.2 -1.4 -0.2
v -0.2 -1.3 0.2
v -0.2 -1.3 -0.2
v -0.2 -1.2 0.2
v -0.2 -1.2 -0.2
v -0.2 -1.2 -0.3
v -0.2 -1.1 0.3
v -0.2 -1.1 0.2
v -0.2 -0.9 -0.2
v -0.2 -0.9 -0.3
v -0.2 -0.8 -0.2
v -0.2 -0.8 -0.3
v -0.2 -0.7 -0.2
v -0.2 -0.7 -0.3
v -0.2 -0.4 0.2
v -0.2 -0.3 0.4
v -0.2 -0.3 0.3
v -0.2 -0.3 0.2
v -0.2 -0.3 -0.2
v -0.2 -0.3 -0.3
v -0.2 -0.3 -0.4
v -0.2 -0.2 0.4
v -0.2 -0.2 0.3
v -0.2 -0.2 -0.3
v -0.2 -0.2 -0.4
v -0.2 -0.0999999 0.4
v -0.2 -0.0999999 0.3
v -0.2 0 0.4
v -0.2 0 0.3
v -0.2 0.1 0.4
v -0.2 0.1 0.3
v -0.2 0.2 0.3
v -0.2 0.3 -0.3
v -0.2 0.5 0.5
v -0.2 0.5 0.4
v -0.2 0.5 0.3
v -0.2 0.5 -0.3
v -0.2 0.5 -0.4
v -0.2 0.5 -0.5
v -0.2 0.6 0.4
v -0.2 0.8 0.4
v -0.2 0.8 -0.4
v -0.2 0.8 -0.5
v -0.2 0.9 0.4
v -0.2 1 0.5
v -0.2 1 0.4
v -0.2 1 -0.4
v -0.2 1.2 -0.4
v -0.2 1.2 -0.5
v -0.2 1.3 -0.4
v -0.2 1.3 -0.5
v -0.2 1.4 -0.4
v -0.2 1.5 -0.4
v -0.2 1.5 -0.5
v -0.2 1.6 0.5
v -0.2 1.6 0.4
v -0.2 1.7 0.5
v -0.2 1.7 0.4
v -0.2 1.7 0.3
v -0.2 1.7 -0.3
v -0.2 1.7 -0.4
v -0.2 1.7 -0.5
v -0.2 1.8 0.4
v -0.2 1.8 0.3
v -0.2 1.8 -0.3
v -0.2 1.8 -0.4
v -0.2 1.9 0.4
v -0.2 1.9 0.3
v -0.2 1.9 -0.3
v -0.2 1.9 -0.4
v -0.2 2 -0.3
v -0.2 2.1 -0.3
v -0.2 2.1 -0.4
v -0.2 2.2 0.4
v -0.2 2.2 0.3
v -0.2 2.2 0.2
v -0.2 2.2 -0.2
v -0.2 2.2 -0.3
v -0.2 2.2 -0.4
v -0.2 2.4 -0.2
v -0.2 2.6 0.3
v -0.2 2.6 0.2
v -0.2 2.6 0.1
v -0.2 2.6 -0.1
v -0.2 2.6 -0.2
v -0.2 2.6 -0.3
v -0.2 2.8 0.1
v -0.2 2.8 -0.1
v -0.1 2.6 0.2
v -0.1 2.6 0.1
v -0.1 2.6 -0.1
v -0.1 2.6 -0.2
v -0.1 2.8 0.2
v -0.1 2.8 0.1
v -0.1 2.8 -0.1
v -0.1 2.8 -0.2
v -0.1 2.9 0.1
v -0.1 2.9 -0.1
v 0.1 2.6 0.2
v 0.1 2.6 0.1
v 0.1 2.6 -0.1
v 0.1 2.6 -0.2
v 0.1 2.7 -0.1
v 0.1 2.8 0.2
v 0.1 2.8 0.1
v 0.1 2.8 -0.1
v 0.1 2.8 -0.2
v 0.1 2.9 0.1
v 0.1 2.9 -0.1
v 0.2 -2.9 0.4
v 0.2 -2.9 0.3
v 0.2 -2.9 -0.3
v 0.2 -2.9 -0.4
v 0.2 -2.8 0.4
v 0.2 -2.8 0.3
v 0.2 -2.8 -0.3
v 0.2 -2.8 -0.4
v 0.2 -2.7 0.4
v 0.2 -2.7 0.3
v 0.2 -2.7 -0.3
v 0.2 -2.7 -0.4
v 0.2 -2.5 0.4
v 0.2 -2.5 0.3
v 0.2 -2.4 0.4
v 0.2 -2.4 0.3
v 0.2 -2.2 0.4
v 0.2 -2.2 0.3
v 0.2 -2.2 0.2
v 0.2 -2.2 -0.2
v 0.2 -2.2 -0.3
v 0.2 -2.2 -0.4
v 0.2 -2 0.3
v 0.2 -2 0.2
v 0.2 -2 -0.2
v 0.2 -1.9 -0.2
v 0.2 -1.9 -0.3
v 0.2 -1.8 0.3
v 0.2 -1.8 0.2
v 0.2 -1.8 -0.2
v 0.2 -1.8 -0.3
v 0.2 -1.7 0.2
v 0.2 -1.7 -0.2
v 0.2 -1.6 0.3
v 0.2 -1.6 0.2
v 0.2 -1.5 0.2
v 0.2 -1.4 0.3
v 0.2 -1.4 0.2
v 0.2 -1.3 0.3
v 0.2 -1.3 0.2
v 0.2 -1.2 0.2
v 0.2 -1.2 -0.2
v 0.2 -1.2 -0.3
v 0.2 -0.8 -0.2
v 0.2 -0.7 0.3
v 0.2 -0.7 0.2
v 0.2 -0.6 -0.2
v 0.2 -0.6 -0.3
v 0.2 -0.3 0.4
v 0.2 -0.3 0.3
v 0.2 -0.3 0.2
v 0.2 -0.3 -0.2
v 0.2 -0.3 -0.3
v 0.2 -0.3 -0.4
v 0.2 -0.2 0.4
v 0.2 -0.2 0.3
v 0.2 -0.2 -0.3
v 0.2 -0.0999999 0.3
v 0.2 -0.0999999 -0.3
v 0.2 -0.0999999 -0.4
v 0.2 0.4 -0.3
v 0.2 0.5 0.5
v 0.2 0.5 0.4
v 0.2 0.5 0.3
v 0.2 0.5 -0.3
v 0.2 0.5 -0.4
v 0.2 0.5 -0.5
v 0.2 0.6 0.5
v 0.2 0.6 0.4
v 0.2 0.7 0.4
v 0.2 0.8 -0.4
v 0.2 0.9 -0.4
v 0.2 0.9 -0.5
v 0.2 1 0.5
v 0.2 1 0.4
v 0.2 1.1 0.4
v 0.2 1.2 -0.4
v 0.2 1.2 -0.5
v 0.2 1.4 0.5
v 0.2 1.4 0.4
v 0.2 1.4 -0.4
v 0.2 1.5 -0.4
v 0.2 1.5 -0.5
v 0.2 1.6 0.5
v 0.2 1.6 0.4
v 0.2 1.7 0.5
v 0.2 1.7 0.4
v 0.2 1.7 0.3
v 0.2 1.7 -0.3
v 0.2 1.7 -0.4
v 0.2 1.7 -0.5
v 0.2 1.9 0.4
v 0.2 1.9 0.3
v 0.2 1.9 -0.3
v 0.2 1.9 -0.4
v 0.2 2 0.3
v 0.2 2.1 -0.3
v 0.2 2.1 -0.4
v 0.2 2.2 0.4
v 0.2 2.2 0.3
v 0.2 2.2 0.2
v 0.2 2.2 -0.2
v 0.2 2.2 -0.3
v 0.2 2.2 -0.4
v 0.2 2.3 0.3
v 0.2 2.3 0.2
v 0.2 2.3 -0.2
v 0.2 2.5 0.2
v 0.2 2.5 -0.2
v 0.2 2.5 -0.3
v 0.2 2.6 0.3
v 0.2 2.6 0.2
v 0.2 2.6 0.1
v 0.2 2.6 0
v 0.2 2.6 -0.1
v 0.2 2.6 -0.2
v 0.2 2.6 -0.3
v 0.2 2.7 0
v 0.2 2.7 -0.1
v 0.2 2.8 0.1
v 0.2 2.8 -0.1
v 0.3 -2.9 0.3
v 0.3 -2.9 0.2
v 0.3 -2.9 -0.2
v 0.3 -2.9 -0.3
v 0.3 -2.8 -0.2
v 0.3 -2.8 -0.3
v 0.3 -2.7 -0.2
v 0.3 -2.7 -0.3
v 0.3 -2.4 -0.2
v 0.3 -2.2 0.3
v 0.3 -2.2 0.2
v 0.3 -2.2 0.1
v 0.3 -2.2 -0.1
v 0.3 -2.2 -0.2
v 0.3 -2.2 -0.3
v 0.3 -2 0.2
v 0.3 -2 0.1
v 0.3 -2 -0.1
v 0.3 -2 -0.2
v 0.3 -1.9 0.1
v 0.3 -1.9 -0.1
v 0.3 -1.8 0
v 0.3 -1.8 -0.1
v 0.3 -1.7 0.2
v 0.3 -1.7 0.1
v 0.3 -1.7 0
v 0.3 -1.7 -0.1
v 0.3 -1.7 -0.2
v 0.3 -1.5 0.2
v 0.3 -1.5 0.1
v 0.3 -1.2 0.2
v 0.3 -1.2 0.1
v 0.3 -0.8 -0.1
v 0.3 -0.8 -0.2
v 0.3 -0.7 0.2
v 0.3 -0.7 0.1
v 0.3 -0.6 -0.1
v 0.3 -0.6 -0.2
v 0.3 -0.3 0.3
v 0.3 -0.3 0.2
v 0.3 -0.3 0.1
v 0.3 -0.3 -0.1
v 0.3 -0.3 -0.2
v 0.3 -0.3 -0.3
v 0.3 -0.2 0.2
v 0.3 -0.2 -0.2
v 0.3 -0.2 -0.3
v 0.3 -0.0999999 0.3
v 0.3 -0.0999999 0.2
v 0.3 0 0.2
v 0.3 0.3 -0.2
v 0.3 0.4 -0.2
v 0.3 0.4 -0.3
v 0.3 0.5 0.3
v 0.3 0.5 0.2
v 0.3 0.5 -0.2
v 0.3 0.5 -0.3
v 0.3 1.7 0.3
v 0.3 1.7 0.2
v 0.3 1.7 -0.2
v 0.3 1.7 -0.3
v 0.3 1.9 0.3
v 0.3 1.9 0.2
v 0.3 1.9 -0.2
v 0.3 1.9 -0.3
v 0.3 2 0.3
v 0.3 2 0.2
v 0.3 2.1 0.2
v 0.3 2.1 -0.2
v 0.3 2.1 -0.3
v 0.3 2.2 0.3
v 0.3 2.2 0.2
v 0.3 2.2 0.1
v 0.3 2.2 0
v 0.3 2.2 -0.2
v 0.3 2.2 -0.3
v 0.3 2.3 0.2
v 0.3 2.3 0.1
v 0.3 2.3 0
v 0.3 2.3 -0.2
v 0.3 2.5 0.2
v 0.3 2.5 0.1
v 0.3 2.6 0.2
v 0.3 2.6 -0.2
v 0.4 -2.9 0.2
v 0.4 -2.9 -0.1
v 0.4 -2.9 -0.2
v 0.4 -2.7 0.1
v 0.4 -2.7 0
v 0.4 -2.7 -0.1
v 0.4 -2.7 -0.2
v 0.4 -2.6 0.1
v 0.4 -2.6 0
v 0.4 -2.4 -0.1
v 0.4 -2.4 -0.2
v 0.4 -2.2 0.2
v 0.4 -2.2 -0.1
v 0.4 -2.2 -0.2
v 0.4 -0.3 0.2
v 0.4 -0.3 0.1
v 0.4 -0.3 -0.1
v 0.4 -0.3 -0.2
v 0.4 -0.2 0.2
v 0.4 -0.2 0.1
v 0.4 -0.2 -0.1
v 0.4 -0.2 -0.2
v 0.4 -0.0999999 0.2
v 0.4 -0.0999999 0
v 0.4 0 0.2
v 0.4 0 0.1
v 0.4 0 0
v 0.4 0 -0.1
v 0.4 0.1 0.1
v 0.4 0.1 0
v 0.4 0.3 -0.1
v 0.4 0.3 -0.2
v 0.4 0.5 0.4
v 0.4 0.5 0.2
v 0.4 0.5 0
v 0.4 0.5 -0.1
v 0.4 0.5 -0.2
v 0.4 0.5 -0.3
v 0.4 0.5 -0.4
v 0.4 0.6 0.4
v 0.4 0.6 0.3
v 0.4 0.6 0.2
v 0.4 0.6 -0.2
v 0.4 0.7 0.4
v 0.4 0.7 0.3
v 0.4 0.7 -0.3
v 0.4 0.7 -0.4
v 0.4 0.8 0.2
v 0.4 1 0.2
v 0.4 1.1 0.4
v 0.4 1.1 0.3
v 0.4 1.1 -0.2
v 0.4 1.1 -0.3
v 0.4 1.1 -0.4
v 0.4 1.2 0.4
v 0.4 1.2 0.3
v 0.4 1.2 -0.2
v 0.4 1.3 -0.3
v 0.4 1.3 -0.4
v 0.4 1.4 0.4
v 0.4 1.4 0.3
v 0.4 1.4 0.2
v 0.4 1.4 -0.2
v 0.4 1.6 0.2
v 0.4 1.6 -0.2
v 0.4 1.7 0.4
v 0.4 1.7 0.3
v 0.4 1.7 0.2
v 0.4 1.7 0.1
v 0.4 1.7 -0.2
v 0.4 1.7 -0.4
v 0.4 1.9 0
v 0.4 1.9 -0.2
v 0.4 2 0.2
v 0.4 2 0
v 0.4 2.1 0.2
v 0.4 2.1 0.1
v 0.4 2.2 0.2
v 0.4 2.2 0.1
v 0.4 2.2 -0.2
v 0.5 0.5 0.2
v 0.5 0.5 -0.1
v 0.5 0.5 -0.2
v 0.5 0.6 0.2
v 0.5 0.6 0.1
v 0.5 0.6 -0.1
v 0.5 0.6 -0.2
v 0.5 0.8 0.2
v 0.5 0.8 0.1
v 0.5 1 0.2
v 0.5 1 0.1
v 0.5 1.1 -0.1
v 0.5 1.1 -0.2
v 0.5 1.2 -0.1
v 0.5 1.2 -0.2
v 0.5 1.4 0.2
v 0.5 1.4 0.1
v 0.5 1.4 -0.1
v 0.5 1.4 -0.2
v 0.5 1.5 0
v 0.5 1.5 -0.1
v 0.5 1.6 0.2
v 0.5 1.6 0.1
v 0.5 1.6 0
v 0.5 1.6 -0.2
v 0.5 1.7 0.2
v 0.5 1.7 0.1
v 0.5 1.7 -0.2
v -0.2 0.5 0.5
v -0.2 1 0.5
v -0.2 1.6 0.5
v -0.2 1.7 0.5
v 0 0.6 0.5
v 0 0.9 0.5
v 0 1 0.5
v 0 1.2 0.5
v 0 1.6 0.5
v 0 1.7 0.5
v 0.1 0.9 0.5
v 0.1 1 0.5
v 0.1 1.2 0.5
v 0.1 1.4 0.5
v 0.1 1.6 0.5
v 0.1 1.7 0.5
v 0.2 0.5 0.5
v 0.2 0.6 0.5
v 0.2 1 0.5
v 0.2 1.4 0.5
v 0.2 1.6 0.5
v 0.2 1.7 0.5
v -0.4 0.5 0.4
v -0.4 0.6 0.4
v -0.4 0.7 0.4
v -0.4 0.8 0.4
v -0.4 0.9 0.4
v -0.4 1.4 0.4
v -0.4 1.6 0.4
v -0.4 1.7 0.4
v -0.3 0.5 0.4
v -0.3 0.6 0.4
v -0.3 0.7 0.4
v -0.3 1.4 0.4
v -0.3 1.6 0.4
v -0.3 1.7 0.4
v -0.2 -2.9 0.4
v -0.2 -2.7 0.4
v -0.2 -2.6 0.4
v -0.2 -2.3 0.4
v -0.2 -2.2 0.4
v -0.2 -0.3 0.4
v -0.2 -0.2 0.4
v -0.2 -0.0999999 0.4
v -0.2 0 0.4
v -0.2 0.1 0.4
v -0.2 0.5 0.4
v -0.2 0.6 0.4
v -0.2 0.8 0.4
v -0.2 0.9 0.4
v -0.2 1 0.4
v -0.2 1.6 0.4
v -0.2 1.7 0.4
v -0.2 1.8 0.4
v -0.2 1.9 0.4
v -0.2 2.2 0.4
v -0.1 -2.8 0.4
v -0.1 -2.7 0.4
v -0.1 -2.6 0.4
v -0.1 -2.4 0.4
v -0.1 -2.3 0.4
v -0.1 -2.2 0.4
v -0.1 -0.0999999 0.4
v -0.1 0 0.4
v -0.1 0.1 0.4
v -0.1 0.3 0.4
v -0.1 1.7 0.4
v -0.1 1.8 0.4
v -0.1 1.9 0.4
v -0.1 2.2 0.4
v 0 -2.5 0.4
v 0 -2.4 0.4
v 0 0.3 0.4
v 0 0.5 0.4
v 0 1.7 0.4
v 0 1.8 0.4
v 0 2.1 0.4
v 0.1 -2.4 0.4
v 0.1 -2.3 0.4
v 0.1 1.7 0.4
v 0.1 1.8 0.4
v 0.1 1.9 0.4
v 0.1 2.1 0.4
v 0.1 2.2 0.4
v 0.2 -2.9 0.4
v 0.2 -2.8 0.4
v 0.2 -2.7 0.4
v 0.2 -2.5 0.4
v 0.2 -2.4 0.4
v 0.2 -2.2 0.4
v 0.2 -0.3 0.4
v 0.2 -0.2 0.4
v 0.2 0.5 0.4
v 0.2 0.6 0.4
v 0.2 0.7 0.4
v 0.2 1 0.4
v 0.2 1.1 0.4
v 0.2 1.4 0.4
v 0.2 1.6 0.4
v 0.2 1.7 0.4
v 0.2 1.9 0.4
v 0.2 2.2 0.4
v 0.3 0.5 0.4
v 0.3 0.6 0.4
v 0.3 1 0.4
v 0.3 1.1 0.4
v 0.3 1.2 0.4
v 0.4 0.5 0.4
v 0.4 0.6 0.4
v 0.4 0.7 0.4
v 0.4 1.1 0.4
v 0.4 1.2 0.4
v 0.4 1.4 0.4
v 0.4 1.7 0.4
v -0.3 -2.9 0.3
v -0.3 -2.8 0.3
v -0.3 -2.7 0.3
v -0.3 -2.2 0.3
v -0.3 -0.3 0.3
v -0.3 0.2 0.3
v -0.3 0.5 0.3
v -0.3 1.7 0.3
v -0.3 1.9 0.3
v -0.3 2.2 0.3
v -0.2 -2.9 0.3
v -0.2 -2.8 0.3
v -0.2 -2.7 0.3
v -0.2 -2.6 0.3
v -0.2 -2.3 0.3
v -0.2 -2.2 0.3
v -0.2 -1.1 0.3
v -0.2 -0.3 0.3
v -0.2 -0.2 0.3
v -0.2 -0.0999999 0.3
v -0.2 0 0.3
v -0.2 0.1 0.3
v -0.2 0.2 0.3
v -0.2 0.5 0.3
v -0.2 1.7 0.3
v -0.2 1.8 0.3
v -0.2 1.9 0.3
v -0.2 2.2 0.3
v -0.2 2.6 0.3
v -0.1 -2.2 0.3
v -0.1 -2.1 0.3
v -0.1 -1.9 0.3
v -0.1 -1.6 0.3
v -0.1 -1.3 0.3
v -0.1 -1.2 0.3
v -0.1 -1.1 0.3
v -0.1 2.2 0.3
v -0.1 2.4 0.3
v -0.1 2.6 0.3
v 0 -1.9 0.3
v 0 -1.8 0.3
v 0 -1.4 0.3
v 0 -1.3 0.3
v 0 2.2 0.3
v 0 2.4 0.3
v 0 2.5 0.3
v 0.1 -2.1 0.3
v 0.1 -2 0.3
v 0.1 -1.3 0.3
v 0.1 -1.2 0.3
v 0.1 -0.7 0.3
v 0.1 -0.3 0.3
v 0.1 2.2 0.3
v 0.1 2.3 0.3
v 0.1 2.4 0.3
v 0.1 2.5 0.3
v 0.2 -2.9 0.3
v 0.2 -2.8 0.3
v 0.2 -2.7 0.3
v 0.2 -2.5 0.3
v 0.2 -2.4 0.3
v 0.2 -2.2 0.3
v 0.2 -2 0.3
v 0.2 -1.8 0.3
v 0.2 -1.6 0.3
v 0.2 -1.4 0.3
v 0.2 -1.3 0.3
v 0.2 -0.7 0.3
v 0.2 -0.3 0.3
v 0.2 -0.2 0.3
v 0.2 -0.0999999 0.3
v 0.2 0.5 0.3
v 0.2 1.7 0.3
v 0.2 1.9 0.3
v 0.2 2 0.3
v 0.2 2.2 0.3
v 0.2 2.3 0.3
v 0.2 2.6 0.3
v 0.3 -2.9 0.3
v 0.3 -2.2 0.3
v 0.3 -0.3 0.3
v 0.3 -0.0999999 0.3
v 0.3 0.5 0.3
v 0.3 1.7 0.3
v 0.3 1.9 0.3
v 0.3 2 0.3
v 0.3 2.2 0.3
v -0.5 0.5 0.2
v -0.5 1.5 0.2
v -0.5 1.7 0.2
v -0.4 -2.9 0.2
v -0.4 -2.8 0.2
v -0.4 -2.5 0.2
v -0.4 -2.4 0.2
v -0.4 -2.2 0.2
v -0.4 -0.3 0.2
v -0.4 0 0.2
v -0.4 0.1 0.2
v -0.4 0.2 0.2
v -0.4 0.5 0.2
v -0.4 0.8 0.2
v -0.4 0.9 0.2
v -0.4 1.4 0.2
v -0.4 1.5 0.2
v -0.4 1.7 0.2
v -0.4 1.8 0.2
v -0.4 2.1 0.2
v -0.4 2.2 0.2
v -0.3 -2.9 0.2
v -0.3 -2.8 0.2
v -0.3 -2.7 0.2
v -0.3 -2.5 0.2
v -0.3 -2.4 0.2
v -0.3 -2.2 0.2
v -0.3 -1.9 0.2
v -0.3 -1.7 0.2
v -0.3 -1.6 0.2
v -0.3 -1.4 0.2
v -0.3 -1.3 0.2
v -0.3 -1.2 0.2
v -0.3 -1.1 0.2
v -0.3 -0.4 0.2
v -0.3 -0.3 0.2
v -0.3 0 0.2
v -0.3 0.1 0.2
v -0.3 0.2 0.2
v -0.3 0.5 0.2
v -0.3 1.7 0.2
v -0.3 1.8 0.2
v -0.3 1.9 0.2
v -0.3 2.1 0.2
v -0.3 2.2 0.2
v -0.3 2.6 0.2
v -0.2 -2.2 0.2
v -0.2 -1.9 0.2
v -0.2 -1.7 0.2
v -0.2 -1.6 0.2
v -0.2 -1.4 0.2
v -0.2 -1.3 0.2
v -0.2 -1.2 0.2
v -0.2 -1.1 0.2
v -0.2 -0.4 0.2
v -0.2 -0.3 0.2
v -0.2 2.2 0.2
v -0.2 2.6 0.2
v -0.1 2.6 0.2
v -0.1 2.8 0.2
v 0.1 2.6 0.2
v 0.1 2.8 0.2
v 0.2 -2.2 0.2
v 0.2 -2 0.2
v 0.2 -1.8 0.2
v 0.2 -1.7 0.2
v 0.2 -1.6 0.2
v 0.2 -1.5 0.2
v 0.2 -1.4 0.2
v 0.2 -1.3 0.2
v 0.2 -1.2 0.2
v 0.2 -0.7 0.2
v 0.2 -0.3 0.2
v 0.2 2.2 0.2
v 0.2 2.3 0.2
v 0.2 2.5 0.2
v 0.2 2.6 0.2
v 0.3 -2.9 0.2
v 0.3 -2.2 0.2
v 0.3 -2 0.2
v 0.3 -1.7 0.2
v 0.3 -1.5 0.2
v 0.3 -1.2 0.2
v 0.3 -0.7 0.2
v 0.3 -0.3 0.2
v 0.3 -0.2 0.2
v 0.3 -0.0999999 0.2
v 0.3 0 0.2
v 0.3 0.5 0.2
v 0.3 1.7 0.2
v 0.3 1.9 0.2
v 0.3 2 0.2
v 0.3 2.1 0.2
v 0.3 2.2 0.2
v 0.3 2.3 0.2
v 0.3 2.5 0.2
v 0.3 2.6 0.2
v 0.4 -2.9 0.2
v 0.4 -2.2 0.2
v 0.4 -0.3 0.2
v 0.4 -0.2 0.2
v 0.4 -0.0999999 0.2
v 0.4 0 0.2
v 0.4 0.5 0.2
v 0.4 0.6 0.2
v 0.4 0.8 0.2
v 0.4 1 0.2
v 0.4 1.4 0.2
v 0.4 1.6 0.2
v 0.4 1.7 0.2
v 0.4 2 0.2
v 0.4 2.1 0.2
v 0.4 2.2 0.2
v 0.5 0.5 0.2
v 0.5 0.6 0.2
v 0.5 0.8 0.2
v 0.5 1 0.2
v 0.5 1.4 0.2
v 0.5 1.6 0.2
v 0.5 1.7 0.2
v -0.2 2.6 0.1
v -0.2 2.8 0.1
v -0.1 2.6 0.1
v -0.1 2.8 0.1
v -0.1 2.9 0.1
v 0.1 2.6 0.1
v 0.1 2.8 0.1
v 0.1 2.9 0.1
v 0.2 2.6 0.1
v 0.2 2.8 0.1
v -0.2 2.6 -0.1
v -0.2 2.8 -0.1
v -0.1 2.6 -0.1
v -0.1 2.8 -0.1
v -0.1 2.9 -0.1
v 0.1 2.6 -0.1
v 0.1 2.7 -0.1
v 0.1 2.8 -0.1
v 0.1 2.9 -0.1
v 0.2 2.6 -0.1
v 0.2 2.7 -0.1
v 0.2 2.8 -0.1
v -0.5 0.5 -0.2
v -0.5 1 -0.2
v -0.5 1.2 -0.2
v -0.5 1.4 -0.2
v -0.5 1.5 -0.2
v -0.5 1.6 -0.2
v -0.5 1.7 -0.2
v -0.4 -2.9 -0.2
v -0.4 -2.5 -0.2
v -0.4 -2.3 -0.2
v -0.4 -2.2 -0.2
v -0.4 -0.3 -0.2
v -0.4 0.5 -0.2
v -0.4 0.6 -0.2
v -0.4 0.9 -0.2
v -0.4 1 -0.2
v -0.4 1.2 -0.2
v -0.4 1.4 -0.2
v -0.4 1.5 -0.2
v -0.4 1.6 -0.2
v -0.4 1.7 -0.2
v -0.4 2 -0.2
v -0.4 2.2 -0.2
v -0.3 -2.9 -0.2
v -0.3 -2.6 -0.2
v -0.3 -2.5 -0.2
v -0.3 -2.3 -0.2
v -0.3 -2.2 -0.2
v -0.3 -1.9 -0.2
v -0.3 -1.7 -0.2
v -0.3 -1.5 -0.2
v -0.3 -1.4 -0.2
v -0.3 -1.3 -0.2
v -0.3 -0.3 -0.2
v -0.3 0.3 -0.2
v -0.3 0.5 -0.2
v -0.3 1.7 -0.2
v -0.3 2 -0.2
v -0.3 2.2 -0.2
v -0.3 2.4 -0.2
v -0.3 2.6 -0.2
v -0.2 -2.2 -0.2
v -0.2 -2 -0.2
v -0.2 -1.9 -0.2
v -0.2 -1.8 -0.2
v -0.2 -1.7 -0.2
v -0.2 -1.5 -0.2
v -0.2 -1.4 -0.2
v -0.2 -1.3 -0.2
v -0.2 -1.2 -0.2
v -0.2 -0.9 -0.2
v -0.2 -0.8 -0.2
v -0.2 -0.7 -0.2
v -0.2 -0.3 -0.2
v -0.2 2.2 -0.2
v -0.2 2.4 -0.2
v -0.2 2.6 -0.2
v -0.1 2.6 -0.2
v -0.1 2.8 -0.2
v 0 2.6 -0.2
v 0.1 2.6 -0.2
v 0.1 2.8 -0.2
v 0.2 -2.2 -0.2
v 0.2 -2 -0.2
v 0.2 -1.9 -0.2
v 0.2 -1.8 -0.2
v 0.2 -1.7 -0.2
v 0.2 -1.2 -0.2
v 0.2 -0.8 -0.2
v 0.2 -0.6 -0.2
v 0.2 -0.3 -0.2
v 0.2 2.2 -0.2
v 0.2 2.3 -0.2
v 0.2 2.5 -0.2
v 0.2 2.6 -0.2
v 0.3 -2.9 -0.2
v 0.3 -2.8 -0.2
v 0.3 -2.7 -0.2
v 0.3 -2.4 -0.2
v 0.3 -2.2 -0.2
v 0.3 -2 -0.2
v 0.3 -1.7 -0.2
v 0.3 -0.8 -0.2
v 0.3 -0.6 -0.2
v 0.3 -0.3 -0.2
v 0.3 -0.2 -0.2
v 0.3 0.3 -0.2
v 0.3 0.4 -0.2
v 0.3 0.5 -0.2
v 0.3 1.7 -0.2
v 0.3 1.9 -0.2
v 0.3 2.1 -0.2
v 0.3 2.2 -0.2
v 0.3 2.3 -0.2
v 0.3 2.6 -0.2
v 0.4 -2.9 -0.2
v 0.4 -2.7 -0.2
v 0.4 -2.4 -0.2
v 0.4 -2.2 -0.2
v 0.4 -0.3 -0.2
v 0.4 -0.2 -0.2
v 0.4 0.3 -0.2
v 0.4 0.5 -0.2
v 0.4 0.6 -0.2
v 0.4 1.1 -0.2
v 0.4 1.2 -0.2
v 0.4 1.4 -0.2
v 0.4 1.6 -0.2
v 0.4 1.7 -0.2
v 0.4 1.9 -0.2
v 0.4 2.2 -0.2
v 0.5 0.5 -0.2
v 0.5 0.6 -0.2
v 0.5 1.1 -0.2
v 0.5 1.2 -0.2
v 0.5 1.4 -0.2
v 0.5 1.6 -0.2
v 0.5 1.7 -0.2
v -0.3 -2.9 -0.3
v -0.3 -2.6 -0.3
v -0.3 -2.5 -0.3
v -0.3 -2.2 -0.3
v -0.3 -0.3 -0.3
v -0.3 0.3 -0.3
v -0.3 0.5 -0.3
v -0.3 1.7 -0.3
v -0.3 2 -0.3
v -0.3 2.2 -0.3
v -0.2 -2.9 -0.3
v -0.2 -2.7 -0.3
v -0.2 -2.6 -0.3
v -0.2 -2.5 -0.3
v -0.2 -2.2 -0.3
v -0.2 -2 -0.3
v -0.2 -1.9 -0.3
v -0.2 -1.8 -0.3
v -0.2 -1.2 -0.3
v -0.2 -0.9 -0.3
v -0.2 -0.8 -0.3
v -0.2 -0.7 -0.3
v -0.2 -0.3 -0.3
v -0.2 -0.2 -0.3
v -0.2 0.3 -0.3
v -0.2 0.5 -0.3
v -0.2 1.7 -0.3
v -0.2 1.8 -0.3
v -0.2 1.9 -0.3
v -0.2 2 -0.3
v -0.2 2.1 -0.3
v -0.2 2.2 -0.3
v -0.2 2.6 -0.3
v -0.1 -2.2 -0.3
v -0.1 -2 -0.3
v -0.1 -1.8 -0.3
v -0.1 -1.6 -0.3
v -0.1 -1.3 -0.3
v -0.1 -1.2 -0.3
v -0.1 -0.7 -0.3
v -0.1 -0.6 -0.3
v -0.1 -0.4 -0.3
v -0.1 -0.3 -0.3
v -0.1 2.2 -0.3
v -0.1 2.4 -0.3
v 0 -2.2 -0.3
v 0 -2.1 -0.3
v 0 -1.9 -0.3
v 0 -1.6 -0.3
v 0 -1.4 -0.3
v 0 -1.3 -0.3
v 0 -1.1 -0.3
v 0 -0.9 -0.3
v 0 -0.8 -0.3
v 0 -0.6 -0.3
v 0 -0.5 -0.3
v 0 -0.4 -0.3
v 0 2.2 -0.3
v 0 2.3 -0.3
v 0 2.4 -0.3
v 0 2.6 -0.3
v 0.1 -2.2 -0.3
v 0.1 -2.1 -0.3
v 0.1 -1.9 -0.3
v 0.1 -1.8 -0.3
v 0.1 -1.4 -0.3
v 0.1 -1.2 -0.3
v 0.1 -1.1 -0.3
v 0.1 -0.8 -0.3
v 0.1 -0.6 -0.3
v 0.1 -0.5 -0.3
v 0.1 2.3 -0.3
v 0.1 2.5 -0.3
v 0.2 -2.9 -0.3
v 0.2 -2.8 -0.3
v 0.2 -2.7 -0.3
v 0.2 -2.2 -0.3
v 0.2 -1.9 -0.3
v 0.2 -1.8 -0.3
v 0.2 -1.2 -0.3
v 0.2 -0.6 -0.3
v 0.2 -0.3 -0.3
v 0.2 -0.2 -0.3
v 0.2 -0.0999999 -0.3
v 0.2 0.4 -0.3
v 0.2 0.5 -0.3
v 0.2 1.7 -0.3
v 0.2 1.9 -0.3
v 0.2 2.1 -0.3
v 0.2 2.2 -0.3
v 0.2 2.5 -0.3
v 0.2 2.6 -0.3
v 0.3 -2.9 -0.3
v 0.3 -2.8 -0.3
v 0.3 -2.7 -0.3
v 0.3 -2.2 -0.3
v 0.3 -0.3 -0.3
v 0.3 -0.2 -0.3
v 0.3 0.4 -0.3
v 0.3 0.5 -0.3
v 0.3 1.7 -0.3
v 0.3 1.9 -0.3
v 0.3 2.1 -0.3
v 0.3 2.2 -0.3
v -0.4 0.5 -0.4
v -0.4 1.1 -0.4
v -0.4 1.5 -0.4
v -0.4 1.7 -0.4
v -0.3 1 -0.4
v -0.3 1.1 -0.4
v -0.3 1.4 -0.4
v -0.3 1.5 -0.4
v -0.2 -2.9 -0.4
v -0.2 -2.7 -0.4
v -0.2 -2.6 -0.4
v -0.2 -2.2 -0.4
v -0.2 -0.3 -0.4
v -0.2 -0.2 -0.4
v -0.2 0.5 -0.4
v -0.2 0.8 -0.4
v -0.2 1 -0.4
v -0.2 1.2 -0.4
v -0.2 1.3 -0.4
v -0.2 1.4 -0.4
v -0.2 1.5 -0.4
v -0.2 1.7 -0.4
v -0.2 1.8 -0.4
v -0.2 1.9 -0.4
v -0.2 2.1 -0.4
v -0.2 2.2 -0.4
v -0.1 -2.7 -0.4
v -0.1 -2.6 -0.4
v -0.1 1.7 -0.4
v -0.1 1.8 -0.4
v -0.1 1.9 -0.4
v -0.1 2.1 -0.4
v 0 -2.8 -0.4
v 0 -2.2 -0.4
v 0 1.7 -0.4
v 0 2 -0.4
v 0 2.1 -0.4
v 0 2.2 -0.4
v 0.1 -2.7 -0.4
v 0.1 -2.2 -0.4
v 0.1 -0.2 -0.4
v 0.1 -0.0999999 -0.4
v 0.1 0.5 -0.4
v 0.1 1.7 -0.4
v 0.1 1.9 -0.4
v 0.1 2 -0.4
v 0.2 -2.9 -0.4
v 0.2 -2.8 -0.4
v 0.2 -2.7 -0.4
v 0.2 -2.2 -0.4
v 0.2 -0.3 -0.4
v 0.2 -0.0999999 -0.4
v 0.2 0.5 -0.4
v 0.2 0.8 -0.4
v 0.2 0.9 -0.4
v 0.2 1.2 -0.4
v 0.2 1.4 -0.4
v 0.2 1.5 -0.4
v 0.2 1.7 -0.4
v 0.2 1.9 -0.4
v 0.2 2.1 -0.4
v 0.2 2.2 -0.4
v 0.3 0.7 -0.4
v 0.3 0.8 -0.4
v 0.3 1.1 -0.4
v 0.3 1.2 -0.4
v 0.3 1.3 -0.4
v 0.3 1.4 -0.4
v 0.4 0.5 -0.4
v 0.4 0.7 -0.4
v 0.4 1.1 -0.4
v 0.4 1.3 -0.4
v 0.4 1.7 -0.4
v -0.2 0.5 -0.5
v -0.2 0.8 -0.5
v -0.2 1.2 -0.5
v -0.2 1.3 -0.5
v -0.2 1.5 -0.5
v -0.2 1.7 -0.5
v -0.1 0.7 -0.5
v -0.1 0.8 -0.5
v -0.1 1.1 -0.5
v -0.1 1.2 -0.5
v -0.1 1.3 -0.5
v -0.1 1.5 -0.5
v -0.1 1.6 -0.5
v -0.1 1.7 -0.5
v 0 0.6 -0.5
v 0 0.7 -0.5
v 0 1 -0.5
v 0 1.1 -0.5
v 0 1.4 -0.5
v 0 1.6 -0.5
v 0.1 0.5 -0.5
v 0.1 0.6 -0.5
v 0.1 0.9 -0.5
v 0.1 1 -0.5
v 0.1 1.2 -0.5
v 0.1 1.4 -0.5
v 0.1 1.5 -0.5
v 0.1 1.7 -0.5
v 0.2 0.5 -0.5
v 0.2 0.9 -0.5
v 0.2 1.2 -0.5
v 0.2 1.5 -0.5
v 0.2 1.7 -0.5
v -0.2 -2.9 0.4
v 0.2 -2.9 0.4
v -0.3 -2.9 0.3
v -0.2 -2.9 0.3
v 0.2 -2.9 0.3
v 0.3 -2.9 0.3
v -0.4 -2.9 0.2
v -0.3 -2.9 0.2
v 0.3 -2.9 0.2
v 0.4 -2.9 0.2
v -0.4 -2.9 0.1
v -0.3 -2.9 0.1
v 0.3 -2.9 -0.1
v 0.4 -2.9 -0.1
v -0.4 -2.9 -0.2
v -0.3 -2.9 -0.2
v 0.3 -2.9 -0.2
v 0.4 -2.9 -0.2
v -0.3 -2.9 -0.3
v -0.2 -2.9 -0.3
v 0.2 -2.9 -0.3
v 0.3 -2.9 -0.3
v -0.2 -2.9 -0.4
v 0.2 -2.9 -0.4
v -0.2 -0.3 0.4
v 0.2 -0.3 0.4
v -0.3 -0.3 0.3
v -0.2 -0.3 0.3
v 0.1 -0.3 0.3
v 0.2 -0.3 0.3
v 0.3 -0.3 0.3
v -0.4 -0.3 0.2
v -0.3 -0.3 0.2
v -0.2 -0.3 0.2
v 0.2 -0.3 0.2
v 0.3 -0.3 0.2
v 0.4 -0.3 0.2
v -0.4 -0.3 0.1
v -0.3 -0.3 0.1
v 0.3 -0.3 0.1
v 0.4 -0.3 0.1
v -0.4 -0.3 0
v -0.3 -0.3 0
v -0.3 -0.3 -0.1
v 0.3 -0.3 -0.1
v 0.4 -0.3 -0.1
v -0.4 -0.3 -0.2
v -0.3 -0.3 -0.2
v -0.2 -0.3 -0.2
v 0.2 -0.3 -0.2
v 0.3 -0.3 -0.2
v 0.4 -0.3 -0.2
v -0.3 -0.3 -0.3
v -0.2 -0.3 -0.3
v -0.1 -0.3 -0.3
v 0.2 -0.3 -0.3
v 0.3 -0.3 -0.3
v -0.2 -0.3 -0.4
v 0.2 -0.3 -0.4
v -0.2 0.5 0.5
v 0.2 0.5 0.5
v -0.4 0.5 0.4
v -0.3 0.5 0.4
v -0.2 0.5 0.4
v 0 0.5 0.4
v 0.2 0.5 0.4
v 0.3 0.5 0.4
v 0.4 0.5 0.4
v -0.3 0.5 0.3
v -0.2 0.5 0.3
v 0.2 0.5 0.3
v 0.3 0.5 0.3
v -0.5 0.5 0.2
v -0.4 0.5 0.2
v -0.3 0.5 0.2
v 0.3 0.5 0.2
v 0.4 0.5 0.2
v 0.5 0.5 0.2
v -0.5 0.5 0
v -0.4 0.5 0
v 0.4 0.5 0
v -0.4 0.5 -0.1
v 0.4 0.5 -0.1
v 0.5 0.5 -0.1
v -0.5 0.5 -0.2
v -0.4 0.5 -0.2
v -0.3 0.5 -0.2
v 0.3 0.5 -0.2
v 0.4 0.5 -0.2
v 0.5 0.5 -0.2
v -0.4 0.5 -0.3
v -0.3 0.5 -0.3
v -0.2 0.5 -0.3
v 0.2 0.5 -0.3
v 0.3 0.5 -0.3
v 0.4 0.5 -0.3
v -0.4 0.5 -0.4
v -0.2 0.5 -0.4
v 0.1 0.5 -0.4
v 0.2 0.5 -0.4
v 0.4 0.5 -0.4
v -0.2 0.5 -0.5
v 0.1 0.5 -0.5
v 0.2 0.5 -0.5
v -0.2 -2.2 0.4
v -0.1 -2.2 0.4
v 0.2 -2.2 0.4
v -0.3 -2.2 0.3
v -0.2 -2.2 0.3
v -0.1 -2.2 0.3
v 0.2 -2.2 0.3
v 0.3 -2.2 0.3
v -0.4 -2.2 0.2
v -0.3 -2.2 0.2
v -0.2 -2.2 0.2
v 0.2 -2.2 0.2
v 0.3 -2.2 0.2
v 0.4 -2.2 0.2
v -0.4 -2.2 0.1
v -0.3 -2.2 0.1
v 0.3 -2.2 0.1
v -0.3 -2.2 0
v -0.4 -2.2 -0.1
v -0.3 -2.2 -0.1
v 0.3 -2.2 -0.1
v 0.4 -2.2 -0.1
v -0.4 -2.2 -0.2
v -0.3 -2.2 -0.2
v -0.2 -2.2 -0.2
v 0.2 -2.2 -0.2
v 0.3 -2.2 -0.2
v 0.4 -2.2 -0.2
v -0.3 -2.2 -0.3
v -0.2 -2.2 -0.3
v -0.1 -2.2 -0.3
v 0 -2.2 -0.3
v 0.1 -2.2 -0.3
v 0.2 -2.2 -0.3
v 0.3 -2.2 -0.3
v -0.2 -2.2 -0.4
v 0 -2.2 -0.4
v 0.1 -2.2 -0.4
v 0.2 -2.2 -0.4
v -0.2 1.7 0.5
v 0 1.7 0.5
v 0.1 1.7 0.5
v 0.2 1.7 0.5
v -0.4 1.7 0.4
v -0.3 1.7 0.4
v -0.2 1.7 0.4
v -0.1 1.7 0.4
v 0 1.7 0.4
v 0.1 1.7 0.4
v 0.2 1.7 0.4
v 0.4 1.7 0.4
v -0.4 1.7 0.3
v -0.3 1.7 0.3
v -0.2 1.7 0.3
v 0.2 1.7 0.3
v 0.3 1.7 0.3
v 0.4 1.7 0.3
v -0.5 1.7 0.2
v -0.4 1.7 0.2
v -0.3 1.7 0.2
v 0.3 1.7 0.2
v 0.4 1.7 0.2
v 0.5 1.7 0.2
v -0.4 1.7 0.1
v 0.4 1.7 0.1
v 0.5 1.7 0.1
v -0.5 1.7 0
v -0.4 1.7 0
v -0.5 1.7 -0.2
v -0.4 1.7 -0.2
v -0.3 1.7 -0.2
v 0.3 1.7 -0.2
v 0.4 1.7 -0.2
v 0.5 1.7 -0.2
v -0.3 1.7 -0.3
v -0.2 1.7 -0.3
v 0.2 1.7 -0.3
v 0.3 1.7 -0.3
v -0.4 1.7 -0.4
v -0.2 1.7 -0.4
v -0.1 1.7 -0.4
v 0 1.7 -0.4
v 0.1 1.7 -0.4
v 0.2 1.7 -0.4
v 0.4 1.7 -0.4
v -0.2 1.7 -0.5
v -0.1 1.7 -0.5
v 0.1 1.7 -0.5
v 0.2 1.7 -0.5
v -0.2 2.2 0.4
v -0.1 2.2 0.4
v 0.1 2.2 0.4
v 0.2 2.2 0.4
v -0.3 2.2 0.3
v -0.2 2.2 0.3
v -0.1 2.2 0.3
v 0 2.2 0.3
v 0.1 2.2 0.3
v 0.2 2.2 0.3
v 0.3 2.2 0.3
v -0.4 2.2 0.2
v -0.3 2.2 0.2
v -0.2 2.2 0.2
v 0.2 2.2 0.2
v 0.3 2.2 0.2
v 0.4 2.2 0.2
v -0.4 2.2 0.1
v -0.3 2.2 0.1
v 0.3 2.2 0.1
v 0.4 2.2 0.1
v -0.4 2.2 0
v -0.3 2.2 0
v 0.3 2.2 0
v -0.3 2.2 -0.1
v -0.4 2.2 -0.2
v -0.3 2.2 -0.2
v -0.2 2.2 -0.2
v 0.2 2.2 -0.2
v 0.3 2.2 -0.2
v 0.4 2.2 -0.2
v -0.3 2.2 -0.3
v -0.2 2.2 -0.3
v -0.1 2.2 -0.3
v 0 2.2 -0.3
v 0.2 2.2 -0.3
v 0.3 2.2 -0.3
v -0.2 2.2 -0.4
v 0 2.2 -0.4
v 0.2 2.2 -0.4
v -0.2 2.6 0.3
v -0.1 2.6 0.3
v 0.2 2.6 0.3
v -0.3 2.6 0.2
v -0.2 2.6 0.2
v -0.1 2.6 0.2
v 0.1 2.6 0.2
v 0.2 2.6 0.2
v 0.3 2.6 0.2
v -0.2 2.6 0.1
v -0.1 2.6 0.1
v 0.1 2.6 0.1
v 0.2 2.6 0.1
v 0.2 2.6 0
v -0.2 2.6 -0.1
v -0.1 2.6 -0.1
v 0.1 2.6 -0.1
v 0.2 2.6 -0.1
v -0.3 2.6 -0.2
v -0.2 2.6 -0.2
v -0.1 2.6 -0.2
v 0 2.6 -0.2
v 0.1 2.6 -0.2
v 0.2 2.6 -0.2
v 0.3 2.6 -0.2
v -0.2 2.6 -0.3
v 0 2.6 -0.3
v 0.2 2.6 -0.3
v -0.1 2.8 0.2
v 0.1 2.8 0.2
v -0.2 2.8 0.1
v -0.1 2.8 0.1
v 0.1 2.8 0.1
v 0.2 2.8 0.1
v -0.2 2.8 -0.1
v -0.1 2.8 -0.1
v 0.1 2.8 -0.1
v 0.2 2.8 -0.1
v -0.1 2.8 -0.2
v 0.1 2.8 -0.2
v -0.1 2.9 0.1
v 0.1 2.9 0.1
v -0.1 2.9 -0.1
v 0.1 2.9 -0.1

# faces
f 4/2/1 2/2/1 1/2/1
f 5/1/1 3/1/1 2/1/1
f 5/2/1 2/2/1 4/2/1
f 6/1/1 5/1/1 4/1/1
f 6/1/1 3/1/1 5/1/1
f 7/1/1 3/1/1 6/1/1
f 8/2/1 4/2/1 1/2/1
f 8/1/1 6/1/1 4/1/1
f 9/2/1 7/2/1 6/2/1
f 9/1/1 6/1/1 8/1/1
f 10/1/1 3/1/1 7/1/1
f 10/2/1 7/2/1 9/2/1
f 10/2/1 9/2/1 8/2/1
f 11/1/1 3/1/1 10/1/1
f 12/2/1 10/2/1 8/2/1
f 12/2/1 11/2/1 10/2/1
f 13/2/1 11/2/1 12/2/1
f 14/2/1 12/2/1 8/2/1
f 14/1/1 13/1/1 12/1/1
f 15/1/1 13/1/1 14/1/1
f 16/2/1 8/2/1 1/2/1
f 16/2/1 14/2/1 8/2/1
f 16/2/1 15/2/1 14/2/1
f 17/2/1 15/2/1 16/2/1
f 18/2/1 15/2/1 17/2/1
f 19/2/1 15/2/1 18/2/1
f 20/1/1 17/1/1 16/1/1
f 20/2/1 18/2/1 17/2/1
f 21/2/1 18/2/1 20/2/1
f 22/1/1 19/1/1 18/1/1
f 22/2/1 18/2/1 21/2/1
f 23/1/1 19/1/1 22/1/1
f 24/1/1 21/1/1 20/1/1
f 24/1/1 20/1/1 16/1/1
f 25/2/1 23/2/1 22/2/1
f 25/1/1 21/1/1 24/1/1
f 25/2/1 22/2/1 21/2/1
f 26/2/1 23/2/1 25/2/1
f 30/1/1 28/1/1 27/1/1
f 31/2/1 29/2/1 28/2/1
f 31/1/1 28/1/1 30/1/1
f 32/2/1 31/2/1 30/2/1
f 33/2/1 29/2/1 31/2/1
f 33/2/1 31/2/1 32/2/1
f 34/2/1 29/2/1 33/2/1
f 35/2/1 29/2/1 34/2/1
f 36/1/1 33/1/1 32/1/1
f 37/2/1 34/2/1 33/2/1
f 37/1/1 33/1/1 36/1/1
f 38/2/1 34/2/1 37/2/1
f 39/1/1 35/1/1 34/1/1
f 39/2/1 34/2/1 38/2/1
f 40/2/1 38/2/1 37/2/1
f 40/2/1 37/2/1 36/2/1
f 41/1/1 39/1/1 38/1/1
f 41/2/1 38/2/1 40/2/1
f 42/1/1 35/1/1 39/1/1
f 42/1/1 39/1/1 41/1/1
f 43/1/1 35/1/1 42/1/1
f 44/2/1 40/2/1 36/2/1
f 45/1/1 41/1/1 40/1/1
f 45/2/1 40/2/1 44/2/1
f 45/1/1 42/1/1 41/1/1
f 46/2/1 43/2/1 42/2/1
f 46/1/1 42/1/1 45/1/1
f 47/2/1 43/2/1 46/2/1
f 52/1/1 49/1/1 48/1/1
f 52/2/1 50/2/1 49/2/1
f 53/1/1 51/1/1 50/1/1
f 53/2/1 50/2/1 52/2/1
f 54/1/1 52/1/1 48/1/1
f 54/1/1 53/1/1 52/1/1
f 55/1/1 51/1/1 53/1/1
f 55/1/1 53/1/1 54/1/1
f 56/1/1 54/1/1 48/1/1
f 57/2/1 55/2/1 54/2/1
f 57/1/1 54/1/1 56/1/1
f 58/2/1 57/2/1 56/2/1
f 59/2/1 55/2/1 57/2/1
f 59/2/1 57/2/1 58/2/1
f 60/1/1 59/1/1 58/1/1
f 61/2/1 55/2/1 59/2/1
f 61/1/1 59/1/1 60/1/1
f 63/2/1 61/2/1 60/2/1
f 64/2/1 55/2/1 61/2/1
f 64/2/1 61/2/1 63/2/1
f 65/1/1 51/1/1 55/1/1
f 65/2/1 55/2/1 64/2/1
f 66/1/1 51/1/1 65/1/1
f 69/2/1 63/2/1 62/2/1
f 70/2/1 63/2/1 69/2/1
f 71/1/1 67/1/1 66/1/1
f 72/2/1 68/2/1 67/2/1
f 72/1/1 67/1/1 71/1/1
f 73/1/1 70/1/1 69/1/1
f 74/2/1 63/2/1 70/2/1
f 74/1/1 70/1/1 73/1/1
f 75/2/1 74/2/1 73/2/1
f 76/2/1 63/2/1 74/2/1
f 76/2/1 74/2/1 75/2/1
f 77/1/1 76/1/1 75/1/1
f 78/1/1 76/1/1 77/1/1
f 79/2/1 72/2/1 71/2/1
f 80/2/1 68/2/1 72/2/1
f 80/2/1 72/2/1 79/2/1
f 81/1/1 80/1/1 79/1/1
f 82/2/1 68/2/1 80/2/1
f 82/1/1 80/1/1 81/1/1
f 83/2/1 68/2/1 82/2/1
f 84/1/1 82/1/1 81/1/1
f 84/1/1 83/1/1 82/1/1
f 85/1/1 83/1/1 84/1/1
f 86/2/1 78/2/1 77/2/1
f 87/2/1 78/2/1 86/2/1
f 88/2/1 85/2/1 84/2/1
f 89/1/1 83/1/1 85/1/1
f 89/2/1 85/2/1 88/2/1
f 90/1/1 87/1/1 86/1/1
f 91/1/1 89/1/1 88/1/1
f 92/1/1 83/1/1 89/1/1
f 92/1/1 89/1/1 91/1/1
f 93/1/1 83/1/1 92/1/1
f 94/1/1 90/1/1 86/1/1
f 95/1/1 90/1/1 94/1/1
f 96/1/1 92/1/1 91/1/1
f 97/2/1 93/2/1 92/2/1
f 97/1/1 92/1/1 96/1/1
f 98/2/1 95/2/1 94/2/1
f 99/1/1 90/1/1 95/1/1
f 99/2/1 95/2/1 98/2/1
f 100/1/1 90/1/1 99/1/1
f 103/2/1 97/2/1 96/2/1
f 104/2/1 93/2/1 97/2/1
f 104/2/1 97/2/1 103/2/1
f 105/2/1 101/2/1 100/2/1
f 106/1/1 103/1/1 102/1/1
f 106/2/1 101/2/1 105/2/1
f 106/1/1 102/1/1 101/1/1
f 107/1/1 106/1/1 105/1/1
f 107/1/1 103/1/1 106/1/1
f 108/1/1 103/1/1 107/1/1
f 109/1/1 107/1/1 105/1/1
f 109/2/1 108/2/1 107/2/1
f 110/1/1 103/1/1 108/1/1
f 110/2/1 108/2/1 109/2/1
f 111/1/1 103/1/1 110/1/1
f 112/1/1 109/1/1 105/1/1
f 112/1/1 110/1/1 109/1/1
f 113/1/1 110/1/1 112/1/1
f 114/2/1 113/2/1 112/2/1
f 115/1/1 110/1/1 113/1/1
f 115/2/1 113/2/1 114/2/1
f 116/2/1 111/2/1 110/2/1
f 116/1/1 110/1/1 115/1/1
f 117/2/1 111/2/1 116/2/1
f 122/2/1 119/2/1 118/2/1
f 123/2/1 119/2/1 122/2/1
f 124/1/1 123/1/1 122/1/1
f 125/1/1 123/1/1 124/1/1
f 126/2/1 121/2/1 120/2/1
f 127/2/1 121/2/1 126/2/1
f 128/2/1 125/2/1 124/2/1
f 129/1/1 127/1/1 126/1/1
f 130/1/1 127/1/1 129/1/1
f 131/2/1 128/2/1 124/2/1
f 132/2/1 130/2/1 129/2/1
f 133/2/1 131/2/1 124/2/1
f 134/2/1 131/2/1 133/2/1
f 138/2/1 130/2/1 132/2/1
f 139/2/1 130/2/1 138/2/1
f 140/1/1 135/1/1 134/1/1
f 140/1/1 136/1/1 135/1/1
f 141/2/1 137/2/1 136/2/1
f 141/1/1 136/1/1 140/1/1
f 141/2/1 138/2/1 137/2/1
f 142/1/1 140/1/1 134/1/1
f 143/2/1 141/2/1 140/2/1
f 143/1/1 140/1/1 142/1/1
f 144/2/1 138/2/1 141/2/1
f 144/2/1 141/2/1 143/2/1
f 145/2/1 138/2/1 144/2/1
f 146/2/1 143/2/1 142/2/1
f 146/2/1 144/2/1 143/2/1
f 147/2/1 144/2/1 146/2/1
f 148/1/1 145/1/1 144/1/1
f 148/2/1 144/2/1 147/2/1
f 149/1/1 145/1/1 148/1/1
f 150/1/1 147/1/1 146/1/1
f 151/2/1 148/2/1 147/2/1
f 151/1/1 147/1/1 150/1/1
f 151/2/1 149/2/1 148/2/1
f 152/2/1 151/2/1 150/2/1
f 152/2/1 149/2/1 151/2/1
f 153/2/1 149/2/1 152/2/1
f 154/2/1 152/2/1 150/2/1
f 155/1/1 153/1/1 152/1/1
f 155/2/1 152/2/1 154/2/1
f 156/1/1 153/1/1 155/1/1
f 157/1/1 155/1/1 154/1/1
f 158/2/1 156/2/1 155/2/1
f 158/1/1 155/1/1 157/1/1
f 159/2/1 156/2/1 158/2/1
f 160/2/1 156/2/1 159/2/1
f 161/2/1 158/2/1 157/2/1
f 161/2/1 159/2/1 158/2/1
f 162/1/1 160/1/1 159/1/1
f 162/2/1 159/2/1 161/2/1
f 163/1/1 162/1/1 161/1/1
f 164/1/1 162/1/1 163/1/1
f 165/2/1 164/2/1 163/2/1
f 166/1/1 162/1/1 164/1/1
f 166/2/1 164/2/1 165/2/1
f 167/1/1 160/1/1 162/1/1
f 167/1/1 162/1/1 166/1/1
f 168/2/1 165/2/1 163/2/1
f 169/1/1 166/1/1 165/1/1
f 169/2/1 165/2/1 168/2/1
f 170/2/1 167/2/1 166/2/1
f 170/1/1 166/1/1 169/1/1
f 172/1/1 169/1/1 168/1/1
f 173/2/1 170/2/1 169/2/1
f 173/1/1 169/1/1 172/1/1
f 174/2/1 167/2/1 170/2/1
f 174/2/1 170/2/1 173/2/1
f 175/1/1 160/1/1 167/1/1
f 175/2/1 167/2/1 174/2/1
f 176/1/1 160/1/1 175/1/1
f 178/1/1 172/1/1 171/1/1
f 179/1/1 178/1/1 171/1/1
f 180/1/1 179/1/1 171/1/1
f 181/1/1 179/1/1 180/1/1
f 182/2/1 177/2/1 176/2/1
f 183/2/1 177/2/1 182/2/1
f 184/2/1 181/2/1 180/2/1
f 185/2/1 181/2/1 184/2/1
f 186/1/1 183/1/1 182/1/1
f 187/1/1 183/1/1 186/1/1
f 192/1/1 189/1/1 188/1/1
f 193/1/1 192/1/1 188/1/1
f 194/1/1 192/1/1 193/1/1
f 195/1/1 191/1/1 190/1/1
f 196/1/1 191/1/1 195/1/1
f 197/2/1 194/2/1 193/2/1
f 198/2/1 197/2/1 193/2/1
f 199/2/1 197/2/1 198/2/1
f 203/2/1 196/2/1 195/2/1
f 204/2/1 196/2/1 203/2/1
f 205/2/1 202/2/1 201/2/1
f 205/1/1 203/1/1 202/1/1
f 205/2/1 200/2/1 199/2/1
f 205/2/1 201/2/1 200/2/1
f 206/1/1 203/1/1 205/1/1
f 207/2/1 205/2/1 199/2/1
f 207/2/1 206/2/1 205/2/1
f 208/2/1 206/2/1 207/2/1
f 213/2/1 210/2/1 209/2/1
f 214/2/1 213/2/1 209/2/1
f 215/2/1 213/2/1 214/2/1
f 216/2/1 212/2/1 211/2/1
f 217/2/1 212/2/1 216/2/1
f 218/1/1 215/1/1 214/1/1
f 219/1/1 215/1/1 218/1/1
f 220/1/1 217/1/1 216/1/1
f 221/1/1 217/1/1 220/1/1
f 222/2/1 221/2/1 220/2/1
f 223/2/1 219/2/1 218/2/1
f 224/2/1 219/2/1 223/2/1
f 225/1/1 224/1/1 223/1/1
f 226/1/1 224/1/1 225/1/1
f 229/2/1 221/2/1 222/2/1
f 230/2/1 221/2/1 229/2/1
f 231/2/1 229/2/1 228/2/1
f 232/2/1 229/2/1 231/2/1
f 233/1/1 227/1/1 226/1/1
f 234/1/1 232/1/1 231/1/1
f 235/1/1 232/1/1 234/1/1
f 236/2/1 235/2/1 234/2/1
f 237/2/1 235/2/1 236/2/1
f 238/1/1 233/1/1 226/1/1
f 239/1/1 237/1/1 236/1/1
f 240/1/1 238/1/1 226/1/1
f 241/1/1 237/1/1 239/1/1
f 242/1/1 240/1/1 226/1/1
f 243/1/1 237/1/1 241/1/1
f 244/1/1 242/1/1 226/1/1
f 245/1/1 237/1/1 243/1/1
f 246/1/1 244/1/1 226/1/1
f 247/1/1 237/1/1 245/1/1
f 248/1/1 237/1/1 247/1/1
f 249/1/1 246/1/1 226/1/1
f 250/1/1 246/1/1 249/1/1
f 251/2/1 248/2/1 247/2/1
f 252/2/1 248/2/1 251/2/1
f 253/1/1 252/1/1 251/1/1
f 254/1/1 252/1/1 253/1/1
f 255/2/1 254/2/1 253/2/1
f 256/2/1 254/2/1 255/2/1
f 257/2/1 250/2/1 249/2/1
f 259/2/1 257/2/1 249/2/1
f 260/2/1 257/2/1 259/2/1
f 261/1/1 256/1/1 255/1/1
f 262/1/1 256/1/1 261/1/1
f 264/1/1 259/1/1 258/1/1
f 265/1/1 259/1/1 264/1/1
f 266/1/1 263/1/1 262/1/1
f 267/1/1 263/1/1 266/1/1
f 268/2/1 265/2/1 264/2/1
f 269/2/1 265/2/1 268/2/1
f 270/1/1 269/1/1 268/1/1
f 271/1/1 269/1/1 270/1/1
f 272/2/1 271/2/1 270/2/1
f 273/2/1 271/2/1 272/2/1
f 274/1/1 273/1/1 272/1/1
f 275/2/1 267/2/1 266/2/1
f 277/1/1 274/1/1 272/1/1
f 278/1/1 274/1/1 277/1/1
f 279/2/1 267/2/1 275/2/1
f 280/2/1 267/2/1 279/2/1
f 282/1/1 277/1/1 276/1/1
f 283/1/1 282/1/1 276/1/1
f 284/2/1 281/2/1 280/2/1
f 285/2/1 281/2/1 284/2/1
f 286/1/1 283/1/1 276/1/1
f 287/1/1 286/1/1 276/1/1
f 288/1/1 286/1/1 287/1/1
f 289/1/1 285/1/1 284/1/1
f 290/1/1 285/1/1 289/1/1
f 291/1/1 285/1/1 290/1/1
f 292/2/1 291/2/1 290/2/1
f 293/2/1 291/2/1 292/2/1
f 294/1/1 293/1/1 292/1/1
f 295/1/1 293/1/1 294/1/1
f 296/1/1 293/1/1 295/1/1
f 297/2/1 288/2/1 287/2/1
f 298/2/1 288/2/1 297/2/1
f 299/1/1 298/1/1 297/1/1
f 300/1/1 298/1/1 299/1/1
f 303/2/1 296/2/1 295/2/1
f 304/2/1 296/2/1 303/2/1
f 305/2/1 301/2/1 300/2/1
f 306/2/1 301/2/1 305/2/1
f 307/2/1 303/2/1 302/2/1
f 308/2/1 303/2/1 307/2/1
f 309/1/1 306/1/1 305/1/1
f 310/1/1 306/1/1 309/1/1
f 311/1/1 308/1/1 307/1/1
f 312/1/1 308/1/1 311/1/1
f 313/2/1 312/2/1 311/2/1
f 314/2/1 312/2/1 313/2/1
f 315/2/1 312/2/1 314/2/1
f 316/2/1 310/2/1 309/2/1
f 317/2/1 310/2/1 316/2/1
f 320/1/1 315/1/1 314/1/1
f 321/1/1 315/1/1 320/1/1
f 322/2/1 320/2/1 319/2/1
f 323/2/1 318/2/1 317/2/1
f 324/2/1 318/2/1 323/2/1
f 327/2/1 320/2/1 322/2/1
f 328/2/1 320/2/1 327/2/1
f 329/2/1 326/2/1 325/2/1
f 330/2/1 326/2/1 329/2/1
f 335/2/1 332/2/1 331/2/1
f 336/2/1 332/2/1 335/2/1
f 337/2/1 334/2/1 333/2/1
f 338/2/1 334/2/1 337/2/1
f 339/2/1 337/2/1 336/2/1
f 340/2/1 337/2/1 339/2/1
f 343/2/2 344/2/2 345/2/2
f 341/2/2 342/2/2 346/2/2
f 346/2/2 342/2/2 347/2/2
f 345/2/2 344/2/2 348/2/2
f 348/2/2 344/2/2 349/2/2
f 347/2/2 348/2/2 350/2/2
f 350/2/2 348/2/2 351/2/2
f 352/2/2 353/2/2 356/2/2
f 356/2/2 353/2/2 357/2/2
f 354/2/2 355/2/2 358/2/2
f 358/2/2 355/2/2 359/2/2
f 356/1/2 357/1/2 360/1/2
f 360/1/2 357/1/2 361/1/2
f 358/1/2 359/1/2 362/1/2
f 362/1/2 359/1/2 363/1/2
f 360/2/2 361/2/2 364/2/2
f 364/2/2 361/2/2 365/2/2
f 364/1/2 365/1/2 366/1/2
f 366/1/2 365/1/2 367/1/2
f 366/2/2 367/2/2 368/2/2
f 368/2/2 367/2/2 369/2/2
f 362/2/2 363/2/2 372/2/2
f 372/2/2 363/2/2 373/2/2
f 369/1/2 370/1/2 374/1/2
f 374/1/2 370/1/2 375/1/2
f 371/2/2 372/2/2 376/2/2
f 376/2/2 372/2/2 377/2/2
f 377/2/2 372/2/2 378/2/2
f 374/2/2 375/2/2 379/2/2
f 379/2/2 375/2/2 380/2/2
f 377/1/2 378/1/2 381/1/2
f 381/1/2 378/1/2 382/1/2
f 379/1/2 380/1/2 383/1/2
f 381/2/2 382/2/2 384/2/2
f 379/1/2 383/1/2 385/1/2
f 385/1/2 383/1/2 386/1/2
f 385/2/2 386/2/2 387/2/2
f 385/2/2 387/2/2 388/2/2
f 388/2/2 387/2/2 389/2/2
f 388/1/2 389/1/2 390/1/2
f 390/1/2 389/1/2 391/1/2
f 390/2/2 391/2/2 392/2/2
f 384/2/2 382/2/2 393/2/2
f 393/2/2 382/2/2 394/2/2
f 393/1/2 394/1/2 395/1/2
f 390/2/2 392/2/2 396/2/2
f 396/2/2 392/2/2 397/2/2
f 395/1/2 394/1/2 398/1/2
f 398/1/2 394/1/2 399/1/2
f 396/1/2 397/1/2 401/1/2
f 401/1/2 397/1/2 402/1/2
f 398/2/2 399/2/2 403/2/2
f 403/2/2 399/2/2 404/2/2
f 400/1/2 401/1/2 406/1/2
f 406/1/2 401/1/2 407/1/2
f 404/1/2 405/1/2 408/1/2
f 406/2/2 407/2/2 409/2/2
f 408/1/2 405/1/2 410/1/2
f 410/1/2 405/1/2 411/1/2
f 410/2/2 411/2/2 412/2/2
f 406/2/2 409/2/2 414/2/2
f 414/2/2 409/2/2 415/2/2
f 412/2/2 411/2/2 416/2/2
f 416/2/2 411/2/2 417/2/2
f 413/1/2 414/1/2 419/1/2
f 419/1/2 414/1/2 420/1/2
f 419/2/2 420/2/2 421/2/2
f 417/1/2 418/1/2 422/1/2
f 422/1/2 418/1/2 423/1/2
f 423/1/2 418/1/2 424/1/2
f 419/2/2 421/2/2 425/2/2
f 425/2/2 421/2/2 426/2/2
f 425/1/2 426/1/2 427/1/2
f 423/2/2 424/2/2 428/2/2
f 428/2/2 424/2/2 429/2/2
f 425/1/2 427/1/2 430/1/2
f 430/1/2 427/1/2 431/1/2
f 428/1/2 429/1/2 432/1/2
f 432/1/2 429/1/2 433/1/2
f 433/1/2 429/1/2 434/1/2
f 430/2/2 431/2/2 435/2/2
f 435/2/2 431/2/2 436/2/2
f 435/1/2 436/1/2 437/1/2
f 437/1/2 436/1/2 438/1/2
f 433/2/2 434/2/2 441/2/2
f 441/2/2 434/2/2 442/2/2
f 438/1/2 439/1/2 443/1/2
f 443/1/2 439/1/2 444/1/2
f 440/2/2 441/2/2 445/2/2
f 445/2/2 441/2/2 446/2/2
f 443/2/2 444/2/2 447/2/2
f 445/1/2 446/1/2 448/1/2
f 448/1/2 446/1/2 449/1/2
f 443/2/2 447/2/2 450/2/2
f 450/2/2 447/2/2 451/2/2
f 448/2/2 449/2/2 454/2/2
f 454/2/2 449/2/2 455/2/2
f 451/2/2 452/2/2 456/2/2
f 456/2/2 452/2/2 457/2/2
f 453/2/2 454/2/2 458/2/2
f 456/1/2 457/1/2 459/1/2
f 458/2/2 454/2/2 460/2/2
f 460/2/2 454/2/2 461/2/2
f 456/1/2 459/1/2 462/1/2
f 462/1/2 459/1/2 463/1/2
f 460/1/2 461/1/2 467/1/2
f 467/1/2 461/1/2 468/1/2
f 465/1/2 466/1/2 469/1/2
f 464/2/2 465/2/2 469/2/2
f 469/1/2 466/1/2 470/1/2
f 464/2/2 469/2/2 471/2/2
f 469/2/2 470/2/2 471/2/2
f 471/2/2 470/2/2 472/2/2
f 475/2/2 476/2/2 477/2/2
f 477/2/2 476/2/2 478/2/2
f 477/1/2 478/1/2 479/1/2
f 479/1/2 478/1/2 480/1/2
f 479/2/2 480/2/2 481/2/2
f 473/2/2 474/2/2 482/2/2
f 482/2/2 474/2/2 483/2/2
f 481/2/2 480/2/2 486/2/2
f 486/2/2 480/2/2 487/2/2
f 483/1/2 484/1/2 488/1/2
f 484/2/2 485/2/2 489/2/2
f 488/1/2 484/1/2 489/1/2
f 485/2/2 486/2/2 489/2/2
f 489/2/2 486/2/2 490/2/2
f 490/2/2 486/2/2 491/2/2
f 488/2/2 489/2/2 492/2/2
f 489/2/2 490/2/2 492/2/2
f 490/1/2 491/1/2 493/1/2
f 492/2/2 490/2/2 493/2/2
f 492/1/2 493/1/2 494/1/2
f 493/1/2 491/1/2 495/1/2
f 494/1/2 493/1/2 495/1/2
f 488/2/2 492/2/2 496/2/2
f 492/1/2 494/1/2 497/1/2
f 496/2/2 492/2/2 497/2/2
f 494/2/2 495/2/2 498/2/2
f 497/1/2 494/1/2 498/1/2
f 495/1/2 491/1/2 499/1/2
f 498/2/2 495/2/2 499/2/2
f 499/1/2 491/1/2 500/1/2
f 496/1/2 497/1/2 501/1/2
f 497/2/2 498/2/2 502/2/2
f 501/1/2 497/1/2 502/1/2
f 498/2/2 499/2/2 502/2/2
f 499/2/2 500/2/2 502/2/2
f 501/2/2 502/2/2 503/2/2
f 502/2/2 500/2/2 504/2/2
f 503/2/2 502/2/2 504/2/2
f 504/2/2 500/2/2 505/2/2
f 505/2/2 500/2/2 506/2/2
f 503/1/2 504/1/2 507/1/2
f 504/2/2 505/2/2 508/2/2
f 507/1/2 504/1/2 508/1/2
f 505/1/2 506/1/2 509/1/2
f 508/2/2 505/2/2 509/2/2
f 507/2/2 508/2/2 509/2/2
f 509/1/2 506/1/2 510/1/2
f 507/2/2 509/2/2 512/2/2
f 509/2/2 510/2/2 512/2/2
f 512/2/2 510/2/2 513/2/2
f 513/2/2 510/2/2 514/2/2
f 514/2/2 510/2/2 515/2/2
f 511/1/2 512/1/2 517/1/2
f 515/1/2 516/1/2 518/1/2
f 518/1/2 516/1/2 519/1/2
f 511/1/2 517/1/2 520/1/2
f 520/1/2 517/1/2 521/1/2
f 520/2/2 521/2/2 522/2/2
f 518/2/2 519/2/2 523/2/2
f 523/2/2 519/2/2 524/2/2
f 524/2/2 519/2/2 525/2/2
f 520/2/2 522/2/2 526/2/2
f 526/2/2 522/2/2 527/2/2
f 524/1/2 525/1/2 528/1/2
f 528/1/2 525/1/2 529/1/2
f 530/2/2 531/2/2 534/2/2
f 534/2/2 531/2/2 535/2/2
f 532/2/2 533/2/2 536/2/2
f 536/2/2 533/2/2 537/2/2
f 534/1/2 535/1/2 538/1/2
f 538/1/2 535/1/2 539/1/2
f 538/2/2 539/2/2 540/2/2
f 536/1/2 537/1/2 541/1/2
f 541/1/2 537/1/2 542/1/2
f 538/2/2 540/2/2 543/2/2
f 543/2/2 540/2/2 544/2/2
f 541/2/2 542/2/2 547/2/2
f 547/2/2 542/2/2 548/2/2
f 545/2/2 546/2/2 549/2/2
f 544/2/2 545/2/2 549/2/2
f 549/2/2 546/2/2 550/2/2
f 546/1/2 547/1/2 551/1/2
f 550/2/2 546/2/2 551/2/2
f 551/1/2 547/1/2 552/1/2
f 549/1/2 550/1/2 553/1/2
f 550/2/2 551/2/2 554/2/2
f 553/1/2 550/1/2 554/1/2
f 551/2/2 552/2/2 554/2/2
f 553/2/2 554/2/2 555/2/2
f 554/2/2 552/2/2 556/2/2
f 555/2/2 554/2/2 556/2/2
f 557/2/2 558/2/2 560/2/2
f 560/2/2 558/2/2 561/2/2
f 558/1/2 559/1/2 562/1/2
f 561/2/2 558/2/2 562/2/2
f 562/1/2 559/1/2 563/1/2
f 560/1/2 561/1/2 564/1/2
f 557/2/2 560/2/2 564/2/2
f 562/2/2 563/2/2 565/2/2
f 564/1/2 561/1/2 565/1/2
f 561/2/2 562/2/2 565/2/2
f 564/2/2 565/2/2 566/2/2
f 565/2/2 563/2/2 566/2/2
f 566/2/2 563/2/2 567/2/2
f 557/2/2 564/2/2 568/2/2
f 564/2/2 566/2/2 568/2/2
f 566/1/2 567/1/2 569/1/2
f 568/2/2 566/2/2 569/2/2
f 569/1/2 567/1/2 570/1/2
f 571/1/2 572/1/2 575/1/2
f 572/2/2 573/2/2 576/2/2
f 575/1/2 572/1/2 576/1/2
f 573/1/2 574/1/2 577/1/2
f 576/2/2 573/2/2 577/2/2
f 577/1/2 574/1/2 578/1/2
f 575/2/2 576/2/2 579/2/2
f 576/2/2 577/2/2 579/2/2
f 577/2/2 578/2/2 579/2/2
f 579/2/2 578/2/2 580/2/2
f 579/1/2 580/1/2 581/1/2
f 581/1/2 580/1/2 582/1/2
f 580/2/2 578/2/2 583/2/2
f 582/1/2 580/1/2 583/1/2
f 583/2/2 578/2/2 584/2/2
f 581/2/2 582/2/2 585/2/2
f 582/1/2 583/1/2 585/1/2
f 583/1/2 584/1/2 585/1/2
f 585/1/2 584/1/2 586/1/2
f 584/2/2 578/2/2 587/2/2
f 586/1/2 584/1/2 587/1/2
f 587/2/2 578/2/2 588/2/2
f 585/2/2 586/2/2 590/2/2
f 581/2/2 585/2/2 590/2/2
f 587/1/2 588/1/2 591/1/2
f 586/1/2 587/1/2 591/1/2
f 590/2/2 586/2/2 591/2/2
f 591/1/2 588/1/2 592/1/2
f 592/1/2 588/1/2 593/1/2
f 589/2/2 590/2/2 596/2/2
f 596/2/2 590/2/2 597/2/2
f 597/2/2 590/2/2 598/2/2
f 593/2/2 594/2/2 599/2/2
f 596/1/2 597/1/2 600/1/2
f 597/2/2 598/2/2 601/2/2
f 600/1/2 597/1/2 601/1/2
f 594/1/2 595/1/2 602/1/2
f 599/2/2 594/2/2 602/2/2
f 602/1/2 595/1/2 603/1/2
f 601/2/2 598/2/2 604/2/2
f 600/2/2 601/2/2 604/2/2
f 600/2/2 604/2/2 605/2/2
f 600/2/2 605/2/2 606/2/2
f 606/2/2 605/2/2 607/2/2
f 602/2/2 603/2/2 608/2/2
f 599/2/2 602/2/2 608/2/2
f 608/2/2 603/2/2 609/2/2
f 609/2/2 603/2/2 610/2/2
f 606/1/2 607/1/2 611/1/2
f 607/2/2 605/2/2 612/2/2
f 611/1/2 607/1/2 612/1/2
f 608/2/2 609/2/2 613/2/2
f 609/1/2 610/1/2 614/1/2
f 613/2/2 609/2/2 614/2/2
f 614/1/2 610/1/2 615/1/2
f 611/2/2 612/2/2 616/2/2
f 612/2/2 605/2/2 617/2/2
f 616/2/2 612/2/2 617/2/2
f 617/2/2 605/2/2 618/2/2
f 613/2/2 614/2/2 619/2/2
f 614/2/2 615/2/2 619/2/2
f 617/2/2 618/2/2 620/2/2
f 619/2/2 615/2/2 621/2/2
f 616/1/2 617/1/2 622/1/2
f 617/2/2 620/2/2 623/2/2
f 622/1/2 617/1/2 623/1/2
f 623/2/2 620/2/2 624/2/2
f 621/2/2 615/2/2 626/2/2
f 626/2/2 615/2/2 627/2/2
f 624/2/2 625/2/2 628/2/2
f 625/2/2 626/2/2 628/2/2
f 628/2/2 626/2/2 629/2/2
f 624/2/2 628/2/2 630/2/2
f 628/1/2 629/1/2 631/1/2
f 630/2/2 628/2/2 631/2/2
f 630/1/2 631/1/2 632/1/2
f 632/1/2 631/1/2 633/1/2
f 632/2/2 633/2/2 634/2/2
f 633/1/2 631/1/2 635/1/2
f 634/2/2 633/2/2 635/2/2
f 631/1/2 629/1/2 636/1/2
f 635/1/2 631/1/2 636/1/2
f 637/2/2 638/2/2 640/2/2
f 640/2/2 638/2/2 641/2/2
f 638/1/2 639/1/2 642/1/2
f 641/2/2 638/2/2 642/2/2
f 642/1/2 639/1/2 643/1/2
f 640/1/2 641/1/2 644/1/2
f 641/2/2 642/2/2 645/2/2
f 644/1/2 641/1/2 645/1/2
f 642/2/2 643/2/2 645/2/2
f 644/2/2 645/2/2 646/2/2
f 645/2/2 643/2/2 647/2/2
f 646/2/2 645/2/2 647/2/2
f 647/2/2 643/2/2 648/2/2
f 648/2/2 643/2/2 649/2/2
f 647/2/2 648/2/2 650/2/2
f 648/1/2 649/1/2 650/1/2
f 650/1/2 649/1/2 651/1/2
f 646/1/2 647/1/2 652/1/2
f 647/2/2 650/2/2 653/2/2
f 652/1/2 647/1/2 653/1/2
f 650/2/2 651/2/2 653/2/2
f 653/2/2 651/2/2 654/2/2
f 654/2/2 651/2/2 655/2/2
f 652/2/2 653/2/2 656/2/2
f 653/2/2 654/2/2 656/2/2
f 654/1/2 655/1/2 657/1/2
f 656/2/2 654/2/2 657/2/2
f 652/2/2 656/2/2 658/2/2
f 658/2/2 656/2/2 659/2/2
f 656/1/2 657/1/2 660/1/2
f 659/2/2 656/2/2 660/2/2
f 657/1/2 655/1/2 661/1/2
f 660/1/2 657/1/2 661/1/2
f 658/1/2 659/1/2 662/1/2
f 659/2/2 660/2/2 663/2/2
f 662/1/2 659/1/2 663/1/2
f 660/2/2 661/2/2 663/2/2
f 663/2/2 661/2/2 664/2/2
f 669/1/3 666/1/3 665/1/3
f 670/1/3 666/1/3 669/1/3
f 671/2/3 667/2/3 666/2/3
f 671/1/3 666/1/3 670/1/3
f 672/2/3 667/2/3 671/2/3
f 673/1/3 668/1/3 667/1/3
f 673/2/3 667/2/3 672/2/3
f 674/1/3 668/1/3 673/1/3
f 675/1/3 672/1/3 671/1/3
f 675/2/3 670/2/3 669/2/3
f 675/1/3 671/1/3 670/1/3
f 676/1/3 672/1/3 675/1/3
f 677/2/3 674/2/3 673/2/3
f 677/1/3 672/1/3 676/1/3
f 677/2/3 673/2/3 672/2/3
f 678/2/3 674/2/3 677/2/3
f 679/2/3 674/2/3 678/2/3
f 680/2/3 674/2/3 679/2/3
f 681/1/3 669/1/3 665/1/3
f 682/2/3 676/2/3 675/2/3
f 682/1/3 669/1/3 681/1/3
f 682/2/3 675/2/3 669/2/3
f 683/1/3 677/1/3 676/1/3
f 683/2/3 676/2/3 682/2/3
f 683/1/3 678/1/3 677/1/3
f 684/2/3 679/2/3 678/2/3
f 684/1/3 678/1/3 683/1/3
f 685/1/3 680/1/3 679/1/3
f 685/2/3 679/2/3 684/2/3
f 686/1/3 680/1/3 685/1/3
f 695/2/3 688/2/3 687/2/3
f 696/1/3 689/1/3 688/1/3
f 696/2/3 688/2/3 695/2/3
f 697/2/3 690/2/3 689/2/3
f 697/1/3 689/1/3 696/1/3
f 698/2/3 692/2/3 691/2/3
f 698/1/3 693/1/3 692/1/3
f 699/2/3 694/2/3 693/2/3
f 699/1/3 693/1/3 698/1/3
f 700/2/3 694/2/3 699/2/3
f 711/1/3 696/1/3 695/1/3
f 712/2/3 697/2/3 696/2/3
f 712/1/3 696/1/3 711/1/3
f 713/1/3 691/1/3 690/1/3
f 713/2/3 697/2/3 712/2/3
f 713/2/3 690/2/3 697/2/3
f 714/2/3 698/2/3 691/2/3
f 714/1/3 691/1/3 713/1/3
f 714/2/3 699/2/3 698/2/3
f 715/2/3 699/2/3 714/2/3
f 716/1/3 700/1/3 699/1/3
f 716/2/3 699/2/3 715/2/3
f 717/1/3 700/1/3 716/1/3
f 721/2/3 702/2/3 701/2/3
f 722/1/3 703/1/3 702/1/3
f 722/2/3 702/2/3 721/2/3
f 723/2/3 704/2/3 703/2/3
f 723/1/3 703/1/3 722/1/3
f 724/2/3 704/2/3 723/2/3
f 725/1/3 705/1/3 704/1/3
f 725/2/3 704/2/3 724/2/3
f 726/1/3 705/1/3 725/1/3
f 727/1/3 709/1/3 708/1/3
f 727/2/3 708/2/3 707/2/3
f 728/2/3 710/2/3 709/2/3
f 728/1/3 709/1/3 727/1/3
f 729/1/3 711/1/3 710/1/3
f 729/2/3 710/2/3 728/2/3
f 730/1/3 711/1/3 729/1/3
f 731/2/3 718/2/3 717/2/3
f 732/1/3 719/1/3 718/1/3
f 732/2/3 718/2/3 731/2/3
f 733/2/3 720/2/3 719/2/3
f 733/1/3 719/1/3 732/1/3
f 734/2/3 720/2/3 733/2/3
f 735/2/3 724/2/3 723/2/3
f 735/2/3 723/2/3 722/2/3
f 736/1/3 725/1/3 724/1/3
f 736/2/3 724/2/3 735/2/3
f 737/2/3 728/2/3 727/2/3
f 737/1/3 711/1/3 730/1/3
f 737/2/3 729/2/3 728/2/3
f 737/2/3 730/2/3 729/2/3
f 738/1/3 711/1/3 737/1/3
f 739/1/3 732/1/3 731/1/3
f 739/1/3 734/1/3 733/1/3
f 739/1/3 733/1/3 732/1/3
f 740/1/3 734/1/3 739/1/3
f 741/1/3 734/1/3 740/1/3
f 742/1/3 725/1/3 736/1/3
f 742/1/3 736/1/3 735/1/3
f 743/2/3 726/2/3 725/2/3
f 743/1/3 725/1/3 742/1/3
f 744/1/3 740/1/3 739/1/3
f 745/2/3 741/2/3 740/2/3
f 745/1/3 740/1/3 744/1/3
f 746/2/3 741/2/3 745/2/3
f 747/1/3 734/1/3 741/1/3
f 747/2/3 741/2/3 746/2/3
f 748/1/3 734/1/3 747/1/3
f 749/2/3 721/2/3 701/2/3
f 750/1/3 722/1/3 721/1/3
f 750/2/3 721/2/3 749/2/3
f 751/2/3 735/2/3 722/2/3
f 751/1/3 722/1/3 750/1/3
f 752/1/3 742/1/3 735/1/3
f 752/2/3 735/2/3 751/2/3
f 753/2/3 743/2/3 742/2/3
f 753/1/3 742/1/3 752/1/3
f 754/2/3 726/2/3 743/2/3
f 754/2/3 743/2/3 753/2/3
f 755/1/3 707/1/3 706/1/3
f 756/2/3 738/2/3 737/2/3
f 756/1/3 707/1/3 755/1/3
f 756/2/3 727/2/3 707/2/3
f 756/2/3 737/2/3 727/2/3
f 757/2/3 738/2/3 756/2/3
f 764/1/3 746/1/3 745/1/3
f 764/1/3 745/1/3 744/1/3
f 765/2/3 748/2/3 747/2/3
f 765/2/3 747/2/3 746/2/3
f 765/1/3 746/1/3 764/1/3
f 766/2/3 748/2/3 765/2/3
f 767/1/3 759/1/3 758/1/3
f 767/1/3 758/1/3 757/1/3
f 768/1/3 759/1/3 767/1/3
f 769/1/3 761/1/3 760/1/3
f 769/2/3 760/2/3 759/2/3
f 770/2/3 762/2/3 761/2/3
f 770/1/3 761/1/3 769/1/3
f 771/2/3 762/2/3 770/2/3
f 772/2/3 768/2/3 767/2/3
f 773/1/3 759/1/3 768/1/3
f 773/2/3 768/2/3 772/2/3
f 774/2/3 769/2/3 759/2/3
f 774/1/3 759/1/3 773/1/3
f 774/2/3 770/2/3 769/2/3
f 775/1/3 771/1/3 770/1/3
f 775/2/3 770/2/3 774/2/3
f 776/2/3 762/2/3 771/2/3
f 776/1/3 771/1/3 775/1/3
f 777/1/3 764/1/3 763/1/3
f 777/2/3 762/2/3 776/2/3
f 777/1/3 763/1/3 762/1/3
f 778/1/3 764/1/3 777/1/3
f 789/2/3 780/2/3 779/2/3
f 790/1/3 781/1/3 780/1/3
f 790/2/3 780/2/3 789/2/3
f 791/2/3 782/2/3 781/2/3
f 791/1/3 781/1/3 790/1/3
f 792/2/3 782/2/3 791/2/3
f 793/2/3 782/2/3 792/2/3
f 794/2/3 782/2/3 793/2/3
f 796/1/3 784/1/3 783/1/3
f 797/1/3 784/1/3 796/1/3
f 798/1/3 784/1/3 797/1/3
f 799/1/3 784/1/3 798/1/3
f 800/1/3 784/1/3 799/1/3
f 801/2/3 785/2/3 784/2/3
f 801/1/3 784/1/3 800/1/3
f 802/2/3 785/2/3 801/2/3
f 803/1/3 787/1/3 786/1/3
f 804/1/3 787/1/3 803/1/3
f 805/2/3 788/2/3 787/2/3
f 805/1/3 787/1/3 804/1/3
f 806/2/3 788/2/3 805/2/3
f 808/1/3 795/1/3 794/1/3
f 809/1/3 795/1/3 808/1/3
f 810/1/3 795/1/3 809/1/3
f 811/1/3 795/1/3 810/1/3
f 812/1/3 795/1/3 811/1/3
f 813/1/3 795/1/3 812/1/3
f 814/2/3 796/2/3 795/2/3
f 814/1/3 795/1/3 813/1/3
f 815/2/3 807/2/3 806/2/3
f 816/2/3 807/2/3 815/2/3
f 817/2/3 807/2/3 816/2/3
f 818/2/3 810/2/3 809/2/3
f 818/1/3 811/1/3 810/1/3
f 819/1/3 811/1/3 818/1/3
f 820/2/3 812/2/3 811/2/3
f 821/1/3 813/1/3 812/1/3
f 821/2/3 812/2/3 820/2/3
f 822/2/3 816/2/3 815/2/3
f 823/1/3 817/1/3 816/1/3
f 823/2/3 816/2/3 822/2/3
f 824/1/3 817/1/3 823/1/3
f 825/1/3 809/1/3 808/1/3
f 825/2/3 818/2/3 809/2/3
f 825/2/3 819/2/3 818/2/3
f 826/2/3 819/2/3 825/2/3
f 827/1/3 813/1/3 821/1/3
f 827/1/3 821/1/3 820/1/3
f 828/2/3 814/2/3 813/2/3
f 828/1/3 813/1/3 827/1/3
f 829/2/3 796/2/3 814/2/3
f 829/2/3 814/2/3 828/2/3
f 830/2/3 796/2/3 829/2/3
f 831/1/3 823/1/3 822/1/3
f 832/1/3 823/1/3 831/1/3
f 833/2/3 824/2/3 823/2/3
f 833/1/3 823/1/3 832/1/3
f 834/1/3 817/1/3 824/1/3
f 834/2/3 824/2/3 833/2/3
f 840/1/3 826/1/3 825/1/3
f 840/1/3 825/1/3 808/1/3
f 841/2/3 819/2/3 826/2/3
f 841/1/3 826/1/3 840/1/3
f 842/1/3 811/1/3 819/1/3
f 842/2/3 819/2/3 841/2/3
f 843/2/3 820/2/3 811/2/3
f 843/1/3 811/1/3 842/1/3
f 844/1/3 827/1/3 820/1/3
f 844/2/3 820/2/3 843/2/3
f 845/2/3 828/2/3 827/2/3
f 845/1/3 827/1/3 844/1/3
f 845/2/3 829/2/3 828/2/3
f 846/1/3 830/1/3 829/1/3
f 846/2/3 829/2/3 845/2/3
f 847/1/3 830/1/3 846/1/3
f 854/2/3 832/2/3 831/2/3
f 855/1/3 833/1/3 832/1/3
f 855/1/3 834/1/3 833/1/3
f 855/2/3 832/2/3 854/2/3
f 856/1/3 817/1/3 834/1/3
f 856/1/3 834/1/3 855/1/3
f 857/2/3 840/2/3 839/2/3
f 857/2/3 837/2/3 836/2/3
f 857/2/3 836/2/3 835/2/3
f 857/2/3 839/2/3 838/2/3
f 857/2/3 838/2/3 837/2/3
f 858/2/3 840/2/3 857/2/3
f 859/1/3 849/1/3 848/1/3
f 859/1/3 848/1/3 847/1/3
f 860/2/3 850/2/3 849/2/3
f 860/1/3 849/1/3 859/1/3
f 861/2/3 850/2/3 860/2/3
f 862/2/3 852/2/3 851/2/3
f 863/1/3 853/1/3 852/1/3
f 863/2/3 852/2/3 862/2/3
f 864/2/3 854/2/3 853/2/3
f 864/1/3 853/1/3 863/1/3
f 865/2/3 854/2/3 864/2/3
f 878/2/3 867/2/3 866/2/3
f 879/2/3 867/2/3 878/2/3
f 880/2/3 867/2/3 879/2/3
f 881/2/3 867/2/3 880/2/3
f 882/1/3 868/1/3 867/1/3
f 882/2/3 867/2/3 881/2/3
f 883/1/3 868/1/3 882/1/3
f 887/1/3 870/1/3 869/1/3
f 888/2/3 871/2/3 870/2/3
f 888/1/3 870/1/3 887/1/3
f 889/2/3 871/2/3 888/2/3
f 890/1/3 872/1/3 871/1/3
f 890/2/3 871/2/3 889/2/3
f 891/2/3 873/2/3 872/2/3
f 891/1/3 872/1/3 890/1/3
f 892/2/3 873/2/3 891/2/3
f 901/1/3 875/1/3 874/1/3
f 902/2/3 876/2/3 875/2/3
f 902/1/3 875/1/3 901/1/3
f 903/1/3 877/1/3 876/1/3
f 903/2/3 876/2/3 902/2/3
f 904/2/3 878/2/3 877/2/3
f 904/1/3 877/1/3 903/1/3
f 905/2/3 878/2/3 904/2/3
f 906/2/3 884/2/3 883/2/3
f 907/1/3 885/1/3 884/1/3
f 907/2/3 884/2/3 906/2/3
f 908/1/3 885/1/3 907/1/3
f 909/2/3 886/2/3 885/2/3
f 909/1/3 885/1/3 908/1/3
f 910/2/3 886/2/3 909/2/3
f 912/1/3 893/1/3 892/1/3
f 913/2/3 894/2/3 893/2/3
f 913/1/3 893/1/3 912/1/3
f 914/1/3 895/1/3 894/1/3
f 914/2/3 894/2/3 913/2/3
f 915/2/3 896/2/3 895/2/3
f 915/1/3 895/1/3 914/1/3
f 916/1/3 897/1/3 896/1/3
f 916/2/3 896/2/3 915/2/3
f 917/2/3 898/2/3 897/2/3
f 917/1/3 897/1/3 916/1/3
f 918/1/3 899/1/3 898/1/3
f 918/2/3 898/2/3 917/2/3
f 919/2/3 900/2/3 899/2/3
f 919/1/3 899/1/3 918/1/3
f 920/1/3 901/1/3 900/1/3
f 920/2/3 900/2/3 919/2/3
f 921/1/3 901/1/3 920/1/3
f 922/2/3 911/2/3 910/2/3
f 923/2/3 911/2/3 922/2/3
f 926/2/3 925/2/3 924/2/3
f 927/2/3 925/2/3 926/2/3
f 944/1/3 929/1/3 928/1/3
f 945/2/3 930/2/3 929/2/3
f 945/2/3 931/2/3 930/2/3
f 945/1/3 929/1/3 944/1/3
f 946/1/3 932/1/3 931/1/3
f 946/2/3 931/2/3 945/2/3
f 946/1/3 933/1/3 932/1/3
f 947/2/3 934/2/3 933/2/3
f 947/1/3 933/1/3 946/1/3
f 947/2/3 935/2/3 934/2/3
f 947/2/3 936/2/3 935/2/3
f 948/1/3 937/1/3 936/1/3
f 948/2/3 936/2/3 947/2/3
f 949/2/3 938/2/3 937/2/3
f 949/1/3 937/1/3 948/1/3
f 950/2/3 938/2/3 949/2/3
f 959/2/3 940/2/3 939/2/3
f 960/1/3 941/1/3 940/1/3
f 960/2/3 940/2/3 959/2/3
f 961/2/3 942/2/3 941/2/3
f 961/1/3 941/1/3 960/1/3
f 962/2/3 942/2/3 961/2/3
f 963/2/3 944/2/3 943/2/3
f 964/2/3 944/2/3 963/2/3
f 965/1/3 951/1/3 950/1/3
f 966/2/3 952/2/3 951/2/3
f 966/1/3 951/1/3 965/1/3
f 967/1/3 953/1/3 952/1/3
f 967/2/3 952/2/3 966/2/3
f 968/2/3 954/2/3 953/2/3
f 968/1/3 953/1/3 967/1/3
f 969/2/3 954/2/3 968/2/3
f 975/2/3 957/2/3 956/2/3
f 975/2/3 956/2/3 955/2/3
f 976/1/3 958/1/3 957/1/3
f 976/2/3 957/2/3 975/2/3
f 977/2/3 959/2/3 958/2/3
f 977/1/3 958/1/3 976/1/3
f 978/2/3 959/2/3 977/2/3
f 979/2/3 970/2/3 969/2/3
f 980/1/3 971/1/3 970/1/3
f 980/2/3 970/2/3 979/2/3
f 981/2/3 972/2/3 971/2/3
f 981/1/3 971/1/3 980/1/3
f 982/1/3 973/1/3 972/1/3
f 982/2/3 972/2/3 981/2/3
f 983/2/3 974/2/3 973/2/3
f 983/1/3 973/1/3 982/1/3
f 984/1/3 975/1/3 974/1/3
f 984/2/3 974/2/3 983/2/3
f 985/1/3 975/1/3 984/1/3
f 988/2/3 987/2/3 986/2/3
f 989/2/3 987/2/3 988/2/3
f 992/2/3 990/2/3 989/2/3
f 993/2/3 990/2/3 992/2/3
f 994/2/3 992/2/3 991/2/3
f 995/2/3 992/2/3 994/2/3
f 996/2/4 997/2/4 998/2/4
f 998/2/4 997/2/4 999/2/4
f 999/2/4 1000/2/4 1003/2/4
f 1003/2/4 1000/2/4 1004/2/4
f 1001/1/4 1002/1/4 1005/1/4
f 1002/2/4 1003/2/4 1006/2/4
f 1005/1/4 1002/1/4 1006/1/4
f 1006/2/4 1003/2/4 1007/2/4
f 1008/1/4 1009/1/4 1020/1/4
f 1020/1/4 1009/1/4 1021/1/4
f 1021/1/4 1009/1/4 1022/1/4
f 1009/2/4 1010/2/4 1023/2/4
f 1022/1/4 1009/1/4 1023/1/4
f 1010/1/4 1011/1/4 1024/1/4
f 1023/2/4 1010/2/4 1024/2/4
f 1011/2/4 1012/2/4 1025/2/4
f 1024/1/4 1011/1/4 1025/1/4
f 1012/1/4 1013/1/4 1026/1/4
f 1025/2/4 1012/2/4 1026/2/4
f 1013/2/4 1014/2/4 1027/2/4
f 1026/1/4 1013/1/4 1027/1/4
f 1027/2/4 1014/2/4 1028/2/4
f 1015/2/4 1016/2/4 1031/2/4
f 1031/2/4 1016/2/4 1032/2/4
f 1016/1/4 1017/1/4 1033/1/4
f 1032/2/4 1016/2/4 1033/2/4
f 1017/2/4 1018/2/4 1034/2/4
f 1033/1/4 1017/1/4 1034/1/4
f 1034/2/4 1018/2/4 1035/2/4
f 1019/1/4 1020/1/4 1041/1/4
f 1041/1/4 1020/1/4 1042/1/4
f 1042/1/4 1020/1/4 1043/1/4
f 1028/1/4 1029/1/4 1044/1/4
f 1029/2/4 1030/2/4 1045/2/4
f 1044/1/4 1029/1/4 1045/1/4
f 1045/2/4 1030/2/4 1046/2/4
f 1035/2/4 1036/2/4 1049/2/4
f 1049/2/4 1036/2/4 1050/2/4
f 1036/1/4 1037/1/4 1051/1/4
f 1050/2/4 1036/2/4 1051/2/4
f 1051/1/4 1037/1/4 1052/1/4
f 1037/2/4 1038/2/4 1053/2/4
f 1052/1/4 1037/1/4 1053/1/4
f 1038/1/4 1039/1/4 1054/1/4
f 1053/2/4 1038/2/4 1054/2/4
f 1039/2/4 1040/2/4 1055/2/4
f 1054/1/4 1039/1/4 1055/1/4
f 1040/1/4 1041/1/4 1056/1/4
f 1055/2/4 1040/2/4 1056/2/4
f 1056/1/4 1041/1/4 1057/1/4
f 1057/1/4 1041/1/4 1058/1/4
f 1058/1/4 1041/1/4 1059/1/4
f 1059/1/4 1041/1/4 1060/1/4
f 1060/1/4 1041/1/4 1061/1/4
f 1046/1/4 1047/1/4 1062/1/4
f 1047/2/4 1048/2/4 1063/2/4
f 1062/1/4 1047/1/4 1063/1/4
f 1063/2/4 1048/2/4 1064/2/4
f 1065/2/4 1066/2/4 1067/2/4
f 1067/2/4 1066/2/4 1068/2/4
f 1068/2/4 1066/2/4 1069/2/4
f 1070/2/4 1071/2/4 1087/2/4
f 1071/1/4 1072/1/4 1088/1/4
f 1072/1/4 1073/1/4 1088/1/4
f 1087/2/4 1071/2/4 1088/2/4
f 1073/1/4 1074/1/4 1088/1/4
f 1074/2/4 1075/2/4 1089/2/4
f 1088/1/4 1074/1/4 1089/1/4
f 1075/2/4 1076/2/4 1089/2/4
f 1076/1/4 1077/1/4 1090/1/4
f 1089/2/4 1076/2/4 1090/2/4
f 1077/2/4 1078/2/4 1091/2/4
f 1090/1/4 1077/1/4 1091/1/4
f 1091/2/4 1078/2/4 1092/2/4
f 1079/1/4 1080/1/4 1100/1/4
f 1080/2/4 1081/2/4 1101/2/4
f 1081/2/4 1082/2/4 1101/2/4
f 1100/1/4 1080/1/4 1101/1/4
f 1101/2/4 1082/2/4 1102/2/4
f 1084/1/4 1085/1/4 1103/1/4
f 1083/1/4 1084/1/4 1103/1/4
f 1085/2/4 1086/2/4 1104/2/4
f 1103/1/4 1085/1/4 1104/1/4
f 1086/1/4 1087/1/4 1105/1/4
f 1104/2/4 1086/2/4 1105/2/4
f 1105/1/4 1087/1/4 1106/1/4
f 1092/1/4 1093/1/4 1107/1/4
f 1093/2/4 1094/2/4 1108/2/4
f 1107/1/4 1093/1/4 1108/1/4
f 1095/1/4 1096/1/4 1109/1/4
f 1108/2/4 1094/2/4 1109/2/4
f 1094/1/4 1095/1/4 1109/1/4
f 1109/1/4 1096/1/4 1110/1/4
f 1097/2/4 1098/2/4 1116/2/4
f 1098/1/4 1099/1/4 1117/1/4
f 1099/1/4 1100/1/4 1117/1/4
f 1116/2/4 1098/2/4 1117/2/4
f 1117/1/4 1100/1/4 1118/1/4
f 1110/1/4 1111/1/4 1119/1/4
f 1111/2/4 1112/2/4 1120/2/4
f 1119/1/4 1111/1/4 1120/1/4
f 1112/1/4 1113/1/4 1121/1/4
f 1120/2/4 1112/2/4 1121/2/4
f 1113/2/4 1114/2/4 1122/2/4
f 1121/1/4 1113/1/4 1122/1/4
f 1114/1/4 1115/1/4 1123/1/4
f 1122/2/4 1114/2/4 1123/2/4
f 1115/2/4 1116/2/4 1124/2/4
f 1123/1/4 1115/1/4 1124/1/4
f 1124/2/4 1116/2/4 1125/2/4
f 1126/2/4 1127/2/4 1136/2/4
f 1136/2/4 1127/2/4 1137/2/4
f 1127/1/4 1128/1/4 1138/1/4
f 1137/2/4 1127/2/4 1138/2/4
f 1128/2/4 1129/2/4 1139/2/4
f 1138/1/4 1128/1/4 1139/1/4
f 1139/2/4 1129/2/4 1140/2/4
f 1130/2/4 1131/2/4 1148/2/4
f 1148/2/4 1131/2/4 1149/2/4
f 1131/1/4 1132/1/4 1150/1/4
f 1149/2/4 1131/2/4 1150/2/4
f 1150/1/4 1132/1/4 1151/1/4
f 1133/1/4 1134/1/4 1152/1/4
f 1152/1/4 1134/1/4 1153/1/4
f 1153/1/4 1134/1/4 1154/1/4
f 1134/2/4 1135/2/4 1155/2/4
f 1154/1/4 1134/1/4 1155/1/4
f 1155/2/4 1135/2/4 1156/2/4
f 1156/2/4 1135/2/4 1157/2/4
f 1140/2/4 1141/2/4 1159/2/4
f 1141/1/4 1142/1/4 1160/1/4
f 1159/2/4 1141/2/4 1160/2/4
f 1143/1/4 1144/1/4 1161/1/4
f 1142/2/4 1143/2/4 1161/2/4
f 1161/1/4 1144/1/4 1162/1/4
f 1162/1/4 1144/1/4 1163/1/4
f 1144/2/4 1145/2/4 1164/2/4
f 1163/1/4 1144/1/4 1164/1/4
f 1147/1/4 1148/1/4 1165/1/4
f 1146/2/4 1147/2/4 1165/2/4
f 1165/1/4 1148/1/4 1166/1/4
f 1166/1/4 1148/1/4 1167/1/4
f 1167/1/4 1148/1/4 1168/1/4
f 1157/2/4 1158/2/4 1169/2/4
f 1169/2/4 1158/2/4 1170/2/4
f 1159/1/4 1160/1/4 1171/1/4
f 1171/1/4 1160/1/4 1172/1/4
f 1160/1/4 1142/1/4 1173/1/4
f 1172/1/4 1160/1/4 1173/1/4
f 1142/2/4 1161/2/4 1173/2/4
f 1161/2/4 1162/2/4 1173/2/4
f 1162/1/4 1163/1/4 1174/1/4
f 1173/2/4 1162/2/4 1174/2/4
f 1174/1/4 1163/1/4 1175/1/4
f 1163/2/4 1164/2/4 1176/2/4
f 1175/1/4 1163/1/4 1176/1/4
f 1164/2/4 1145/2/4 1177/2/4
f 1176/2/4 1164/2/4 1177/2/4
f 1145/1/4 1146/1/4 1178/1/4
f 1177/2/4 1145/2/4 1178/2/4
f 1146/2/4 1165/2/4 1179/2/4
f 1178/1/4 1146/1/4 1179/1/4
f 1165/2/4 1166/2/4 1179/2/4
f 1166/1/4 1167/1/4 1180/1/4
f 1179/2/4 1166/2/4 1180/2/4
f 1180/1/4 1167/1/4 1181/1/4
f 1167/2/4 1168/2/4 1182/2/4
f 1181/1/4 1167/1/4 1182/1/4
f 1169/1/4 1170/1/4 1183/1/4
f 1183/1/4 1170/1/4 1184/1/4
f 1170/2/4 1158/2/4 1185/2/4
f 1184/1/4 1170/1/4 1185/1/4
f 1185/2/4 1158/2/4 1186/2/4
f 1171/1/4 1172/1/4 1187/1/4
f 1174/2/4 1175/2/4 1188/2/4
f 1187/1/4 1172/1/4 1188/1/4
f 1172/2/4 1173/2/4 1188/2/4
f 1173/2/4 1174/2/4 1188/2/4
f 1188/2/4 1175/2/4 1189/2/4
f 1189/2/4 1175/2/4 1190/2/4
f 1175/1/4 1176/1/4 1191/1/4
f 1190/2/4 1175/2/4 1191/2/4
f 1176/1/4 1177/1/4 1191/1/4
f 1191/1/4 1177/1/4 1192/1/4
f 1177/2/4 1178/2/4 1193/2/4
f 1192/1/4 1177/1/4 1193/1/4
f 1178/2/4 1179/2/4 1193/2/4
f 1180/1/4 1181/1/4 1194/1/4
f 1193/2/4 1179/2/4 1194/2/4
f 1179/1/4 1180/1/4 1194/1/4
f 1194/1/4 1181/1/4 1195/1/4
f 1181/2/4 1182/2/4 1196/2/4
f 1195/1/4 1181/1/4 1196/1/4
f 1185/1/4 1186/1/4 1197/1/4
f 1183/2/4 1184/2/4 1197/2/4
f 1184/1/4 1185/1/4 1197/1/4
f 1197/1/4 1186/1/4 1198/1/4
f 1188/2/4 1189/2/4 1202/2/4
f 1187/2/4 1188/2/4 1202/2/4
f 1189/1/4 1190/1/4 1203/1/4
f 1202/2/4 1189/2/4 1203/2/4
f 1191/2/4 1192/2/4 1204/2/4
f 1203/1/4 1190/1/4 1204/1/4
f 1190/2/4 1191/2/4 1204/2/4
f 1192/1/4 1193/1/4 1205/1/4
f 1204/2/4 1192/2/4 1205/2/4
f 1193/1/4 1194/1/4 1205/1/4
f 1194/1/4 1195/1/4 1205/1/4
f 1195/2/4 1196/2/4 1206/2/4
f 1205/1/4 1195/1/4 1206/1/4
f 1196/2/4 1182/2/4 1207/2/4
f 1206/2/4 1196/2/4 1207/2/4
f 1182/2/4 1168/2/4 1207/2/4
f 1183/2/4 1197/2/4 1215/2/4
f 1197/2/4 1198/2/4 1215/2/4
f 1198/1/4 1186/1/4 1216/1/4
f 1215/2/4 1198/2/4 1216/2/4
f 1216/1/4 1186/1/4 1217/1/4
f 1199/2/4 1200/2/4 1218/2/4
f 1200/1/4 1201/1/4 1219/1/4
f 1218/2/4 1200/2/4 1219/2/4
f 1201/2/4 1202/2/4 1220/2/4
f 1219/1/4 1201/1/4 1220/1/4
f 1220/2/4 1202/2/4 1221/2/4
f 1207/1/4 1208/1/4 1222/1/4
f 1209/2/4 1210/2/4 1223/2/4
f 1222/1/4 1208/1/4 1223/1/4
f 1208/2/4 1209/2/4 1223/2/4
f 1210/1/4 1211/1/4 1224/1/4
f 1223/2/4 1210/2/4 1224/2/4
f 1224/1/4 1211/1/4 1225/1/4
f 1212/2/4 1213/2/4 1226/2/4
f 1213/1/4 1214/1/4 1227/1/4
f 1226/2/4 1213/2/4 1227/2/4
f 1214/2/4 1215/2/4 1228/2/4
f 1227/1/4 1214/1/4 1228/1/4
f 1228/2/4 1215/2/4 1229/2/4
f 1230/2/4 1231/2/4 1234/2/4
f 1231/1/4 1232/1/4 1235/1/4
f 1234/2/4 1231/2/4 1235/2/4
f 1235/1/4 1232/1/4 1236/1/4
f 1232/2/4 1233/2/4 1237/2/4
f 1236/1/4 1232/1/4 1237/1/4
f 1230/2/4 1234/2/4 1244/2/4
f 1244/2/4 1234/2/4 1245/2/4
f 1235/1/4 1236/1/4 1246/1/4
f 1245/2/4 1234/2/4 1246/2/4
f 1234/1/4 1235/1/4 1246/1/4
f 1246/1/4 1236/1/4 1247/1/4
f 1247/1/4 1236/1/4 1248/1/4
f 1236/2/4 1237/2/4 1249/2/4
f 1248/1/4 1236/1/4 1249/1/4
f 1237/2/4 1233/2/4 1250/2/4
f 1249/2/4 1237/2/4 1250/2/4
f 1250/2/4 1233/2/4 1251/2/4
f 1238/2/4 1239/2/4 1256/2/4
f 1239/1/4 1240/1/4 1256/1/4
f 1240/2/4 1241/2/4 1257/2/4
f 1256/1/4 1240/1/4 1257/1/4
f 1251/2/4 1252/2/4 1258/2/4
f 1252/1/4 1253/1/4 1259/1/4
f 1258/2/4 1252/2/4 1259/2/4
f 1253/2/4 1254/2/4 1260/2/4
f 1259/1/4 1253/1/4 1260/1/4
f 1254/1/4 1255/1/4 1261/1/4
f 1260/2/4 1254/2/4 1261/2/4
f 1238/2/4 1256/2/4 1262/2/4
f 1256/2/4 1257/2/4 1262/2/4
f 1257/2/4 1241/2/4 1263/2/4
f 1262/2/4 1257/2/4 1263/2/4
f 1259/1/4 1260/1/4 1264/1/4
f 1258/1/4 1259/1/4 1264/1/4
f 1260/1/4 1261/1/4 1264/1/4
f 1264/1/4 1261/1/4 1265/1/4
f 1261/1/4 1255/1/4 1266/1/4
f 1265/1/4 1261/1/4 1266/1/4
f 1266/1/4 1255/1/4 1267/1/4
f 1262/1/4 1263/1/4 1268/1/4
f 1268/1/4 1263/1/4 1269/1/4
f 1242/1/4 1243/1/4 1270/1/4
f 1243/2/4 1244/2/4 1270/2/4
f 1270/2/4 1244/2/4 1271/2/4
f 1271/2/4 1244/2/4 1272/2/4
f 1264/2/4 1265/2/4 1273/2/4
f 1273/2/4 1265/2/4 1274/2/4
f 1265/1/4 1266/1/4 1275/1/4
f 1274/2/4 1265/2/4 1275/2/4
f 1238/2/4 1262/2/4 1276/2/4
f 1262/1/4 1268/1/4 1277/1/4
f 1276/2/4 1262/2/4 1277/2/4
f 1268/2/4 1269/2/4 1278/2/4
f 1277/1/4 1268/1/4 1278/1/4
f 1278/2/4 1269/2/4 1279/2/4
f 1242/1/4 1270/1/4 1280/1/4
f 1270/1/4 1271/1/4 1280/1/4
f 1271/2/4 1272/2/4 1281/2/4
f 1280/1/4 1271/1/4 1281/1/4
f 1281/2/4 1272/2/4 1282/2/4
f 1273/2/4 1274/2/4 1288/2/4
f 1274/1/4 1275/1/4 1289/1/4
f 1288/2/4 1274/2/4 1289/2/4
f 1275/1/4 1266/1/4 1290/1/4
f 1289/1/4 1275/1/4 1290/1/4
f 1266/2/4 1267/2/4 1290/2/4
f 1290/2/4 1267/2/4 1291/2/4
f 1282/1/4 1283/1/4 1292/1/4
f 1284/2/4 1285/2/4 1293/2/4
f 1292/1/4 1283/1/4 1293/1/4
f 1283/2/4 1284/2/4 1293/2/4
f 1293/2/4 1285/2/4 1294/2/4
f 1285/1/4 1286/1/4 1295/1/4
f 1294/2/4 1285/2/4 1295/2/4
f 1295/1/4 1286/1/4 1296/1/4
f 1286/2/4 1287/2/4 1297/2/4
f 1296/1/4 1286/1/4 1297/1/4
f 1287/2/4 1288/2/4 1297/2/4
f 1282/1/4 1292/1/4 1298/1/4
f 1293/2/4 1294/2/4 1299/2/4
f 1298/1/4 1292/1/4 1299/1/4
f 1292/2/4 1293/2/4 1299/2/4
f 1295/1/4 1296/1/4 1300/1/4
f 1299/2/4 1294/2/4 1300/2/4
f 1294/1/4 1295/1/4 1300/1/4
f 1296/2/4 1297/2/4 1301/2/4
f 1300/1/4 1296/1/4 1301/1/4
f 1297/2/4 1288/2/4 1302/2/4
f 1301/2/4 1297/2/4 1302/2/4
f 1303/2/4 1304/2/4 1309/2/4
f 1304/1/4 1305/1/4 1310/1/4
f 1309/2/4 1304/2/4 1310/2/4
f 1310/1/4 1305/1/4 1311/1/4
f 1305/2/4 1306/2/4 1312/2/4
f 1311/1/4 1305/1/4 1312/1/4
f 1306/1/4 1307/1/4 1313/1/4
f 1312/2/4 1306/2/4 1313/2/4
f 1307/2/4 1308/2/4 1314/2/4
f 1313/1/4 1307/1/4 1314/1/4
f 1314/2/4 1308/2/4 1315/2/4
f 1315/2/4 1308/2/4 1316/2/4
f 1303/2/4 1309/2/4 1317/2/4
f 1310/1/4 1311/1/4 1318/1/4
f 1317/2/4 1309/2/4 1318/2/4
f 1309/1/4 1310/1/4 1318/1/4
f 1318/1/4 1311/1/4 1319/1/4
f 1312/2/4 1313/2/4 1320/2/4
f 1319/1/4 1311/1/4 1320/1/4
f 1311/2/4 1312/2/4 1320/2/4
f 1313/2/4 1314/2/4 1320/2/4
f 1314/2/4 1315/2/4 1320/2/4
f 1320/2/4 1315/2/4 1321/2/4
f 1315/1/4 1316/1/4 1322/1/4
f 1321/2/4 1315/2/4 1322/2/4
f 1303/2/4 1317/2/4 1323/2/4
f 1318/1/4 1319/1/4 1324/1/4
f 1323/2/4 1317/2/4 1324/2/4
f 1317/1/4 1318/1/4 1324/1/4
f 1324/1/4 1319/1/4 1325/1/4
f 1320/2/4 1321/2/4 1326/2/4
f 1325/1/4 1319/1/4 1326/1/4
f 1319/2/4 1320/2/4 1326/2/4
f 1326/2/4 1321/2/4 1327/2/4
f 1321/1/4 1322/1/4 1328/1/4
f 1327/2/4 1321/2/4 1328/2/4
f 1328/1/4 1322/1/4 1329/1/4
f 1322/1/4 1316/1/4 1330/1/4
f 1329/1/4 1322/1/4 1330/1/4
f 1324/1/4 1325/1/4 1331/1/4
f 1323/1/4 1324/1/4 1331/1/4
f 1326/2/4 1327/2/4 1332/2/4
f 1331/1/4 1325/1/4 1332/1/4
f 1325/2/4 1326/2/4 1332/2/4
f 1328/1/4 1329/1/4 1333/1/4
f 1332/2/4 1327/2/4 1333/2/4
f 1327/1/4 1328/1/4 1333/1/4
f 1329/2/4 1330/2/4 1334/2/4
f 1333/1/4 1329/1/4 1334/1/4
f 1334/2/4 1330/2/4 1335/2/4
f 1339/2/5 1337/2/5 1336/2/5
f 1340/2/5 1337/2/5 1339/2/5
f 1343/2/5 1339/2/5 1338/2/5
f 1343/2/5 1341/2/5 1340/2/5
f 1343/2/5 1340/2/5 1339/2/5
f 1344/2/5 1341/2/5 1343/2/5
f 1346/1/5 1343/1/5 1342/1/5
f 1347/2/5 1345/2/5 1344/2/5
f 1347/1/5 1343/1/5 1346/1/5
f 1347/2/5 1344/2/5 1343/2/5
f 1348/2/5 1347/2/5 1346/2/5
f 1348/2/5 1345/2/5 1347/2/5
f 1349/2/5 1345/2/5 1348/2/5
f 1350/2/5 1348/2/5 1346/2/5
f 1351/2/5 1348/2/5 1350/2/5
f 1352/1/5 1349/1/5 1348/1/5
f 1352/2/5 1348/2/5 1351/2/5
f 1353/1/5 1349/1/5 1352/1/5
f 1354/2/5 1352/2/5 1351/2/5
f 1355/2/5 1352/2/5 1354/2/5
f 1356/2/5 1352/2/5 1355/2/5
f 1357/2/5 1352/2/5 1356/2/5
f 1358/2/5 1356/2/5 1355/2/5
f 1359/2/5 1356/2/5 1358/2/5
f 1363/1/5 1361/1/5 1360/1/5
f 1364/1/5 1361/1/5 1363/1/5
f 1365/1/5 1361/1/5 1364/1/5
f 1368/1/5 1363/1/5 1362/1/5
f 1369/1/5 1363/1/5 1368/1/5
f 1370/1/5 1366/1/5 1365/1/5
f 1371/1/5 1366/1/5 1370/1/5
f 1373/1/5 1368/1/5 1367/1/5
f 1374/1/5 1368/1/5 1373/1/5
f 1375/1/5 1372/1/5 1371/1/5
f 1376/1/5 1372/1/5 1375/1/5
f 1377/2/5 1374/2/5 1373/2/5
f 1378/2/5 1374/2/5 1377/2/5
f 1379/1/5 1378/1/5 1377/1/5
f 1380/2/5 1376/2/5 1375/2/5
f 1381/2/5 1376/2/5 1380/2/5
f 1382/1/5 1379/1/5 1377/1/5
f 1383/1/5 1379/1/5 1382/1/5
f 1386/1/5 1381/1/5 1380/1/5
f 1387/1/5 1381/1/5 1386/1/5
f 1388/2/5 1384/2/5 1383/2/5
f 1389/2/5 1384/2/5 1388/2/5
f 1391/1/5 1386/1/5 1385/1/5
f 1392/1/5 1386/1/5 1391/1/5
f 1393/1/5 1390/1/5 1389/1/5
f 1393/1/5 1391/1/5 1390/1/5
f 1394/1/5 1391/1/5 1393/1/5
f 1399/1/5 1396/1/5 1395/1/5
f 1400/1/5 1396/1/5 1399/1/5
f 1401/1/5 1396/1/5 1400/1/5
f 1404/2/5 1398/2/5 1397/2/5
f 1404/1/5 1399/1/5 1398/1/5
f 1405/1/5 1399/1/5 1404/1/5
f 1406/1/5 1402/1/5 1401/1/5
f 1407/2/5 1403/2/5 1402/2/5
f 1407/1/5 1402/1/5 1406/1/5
f 1409/2/5 1404/2/5 1397/2/5
f 1410/2/5 1404/2/5 1409/2/5
f 1411/2/5 1403/2/5 1407/2/5
f 1412/2/5 1403/2/5 1411/2/5
f 1414/2/5 1409/2/5 1408/2/5
f 1415/2/5 1409/2/5 1414/2/5
f 1416/2/5 1413/2/5 1412/2/5
f 1417/1/5 1415/1/5 1414/1/5
f 1418/2/5 1413/2/5 1416/2/5
f 1419/2/5 1413/2/5 1418/2/5
f 1420/1/5 1417/1/5 1414/1/5
f 1421/1/5 1417/1/5 1420/1/5
f 1424/1/5 1419/1/5 1418/1/5
f 1425/1/5 1419/1/5 1424/1/5
f 1426/1/5 1422/1/5 1421/1/5
f 1427/1/5 1422/1/5 1426/1/5
f 1430/2/5 1424/2/5 1423/2/5
f 1431/2/5 1424/2/5 1430/2/5
f 1432/2/5 1428/2/5 1427/2/5
f 1432/2/5 1427/2/5 1426/2/5
f 1433/2/5 1428/2/5 1432/2/5
f 1435/1/5 1431/1/5 1430/1/5
f 1435/1/5 1430/1/5 1429/1/5
f 1436/1/5 1431/1/5 1435/1/5
f 1437/2/5 1434/2/5 1433/2/5
f 1438/1/5 1435/1/5 1434/1/5
f 1438/2/5 1434/2/5 1437/2/5
f 1439/1/5 1435/1/5 1438/1/5
f 1440/1/6 1441/1/6 1444/1/6
f 1441/2/6 1442/2/6 1445/2/6
f 1444/1/6 1441/1/6 1445/1/6
f 1445/2/6 1442/2/6 1446/2/6
f 1443/2/6 1444/2/6 1449/2/6
f 1449/2/6 1444/2/6 1450/2/6
f 1446/2/6 1447/2/6 1451/2/6
f 1451/2/6 1447/2/6 1452/2/6
f 1448/2/6 1449/2/6 1454/2/6
f 1454/2/6 1449/2/6 1455/2/6
f 1452/2/6 1453/2/6 1456/2/6
f 1454/1/6 1455/1/6 1457/1/6
f 1454/1/6 1457/1/6 1458/1/6
f 1458/1/6 1457/1/6 1459/1/6
f 1456/2/6 1453/2/6 1460/2/6
f 1460/2/6 1453/2/6 1461/2/6
f 1458/2/6 1459/2/6 1462/2/6
f 1462/2/6 1459/2/6 1463/2/6
f 1460/1/6 1461/1/6 1466/1/6
f 1466/1/6 1461/1/6 1467/1/6
f 1463/2/6 1464/2/6 1468/2/6
f 1468/2/6 1464/2/6 1469/2/6
f 1465/2/6 1466/2/6 1473/2/6
f 1473/2/6 1466/2/6 1474/2/6
f 1469/2/6 1470/2/6 1475/2/6
f 1470/2/6 1471/2/6 1475/2/6
f 1471/1/6 1472/1/6 1476/1/6
f 1475/2/6 1471/2/6 1476/2/6
f 1472/2/6 1473/2/6 1477/2/6
f 1476/1/6 1472/1/6 1477/1/6
f 1477/2/6 1473/2/6 1478/2/6
f 1479/1/6 1480/1/6 1485/1/6
f 1485/1/6 1480/1/6 1486/1/6
f 1480/2/6 1481/2/6 1487/2/6
f 1486/1/6 1480/1/6 1487/1/6
f 1481/1/6 1482/1/6 1488/1/6
f 1487/2/6 1481/2/6 1488/2/6
f 1488/1/6 1482/1/6 1489/1/6
f 1483/2/6 1484/2/6 1491/2/6
f 1484/1/6 1485/1/6 1492/1/6
f 1491/2/6 1484/2/6 1492/2/6
f 1492/1/6 1485/1/6 1493/1/6
f 1489/1/6 1490/1/6 1494/1/6
f 1494/1/6 1490/1/6 1495/1/6
f 1495/1/6 1490/1/6 1496/1/6
f 1491/1/6 1492/1/6 1498/1/6
f 1498/1/6 1492/1/6 1499/1/6
f 1495/2/6 1496/2/6 1500/2/6
f 1500/2/6 1496/2/6 1501/2/6
f 1497/1/6 1498/1/6 1503/1/6
f 1501/1/6 1502/1/6 1504/1/6
f 1504/1/6 1502/1/6 1505/1/6
f 1497/1/6 1503/1/6 1506/1/6
f 1506/1/6 1503/1/6 1507/1/6
f 1506/2/6 1507/2/6 1508/2/6
f 1508/2/6 1507/2/6 1509/2/6
f 1504/2/6 1505/2/6 1512/2/6
f 1512/2/6 1505/2/6 1513/2/6
f 1509/2/6 1510/2/6 1514/2/6
f 1511/2/6 1512/2/6 1517/2/6
f 1514/2/6 1515/2/6 1518/2/6
f 1509/2/6 1514/2/6 1518/2/6
f 1518/2/6 1515/2/6 1519/2/6
f 1516/2/6 1517/2/6 1523/2/6
f 1517/2/6 1512/2/6 1524/2/6
f 1523/2/6 1517/2/6 1524/2/6
f 1519/2/6 1520/2/6 1525/2/6
f 1521/1/6 1522/1/6 1526/1/6
f 1525/2/6 1520/2/6 1526/2/6
f 1520/1/6 1521/1/6 1526/1/6
f 1522/2/6 1523/2/6 1527/2/6
f 1526/1/6 1522/1/6 1527/1/6
f 1527/2/6 1523/2/6 1528/2/6
f 1529/2/6 1530/2/6 1534/2/6
f 1530/1/6 1531/1/6 1535/1/6
f 1534/2/6 1530/2/6 1535/2/6
f 1535/1/6 1531/1/6 1536/1/6
f 1531/2/6 1532/2/6 1537/2/6
f 1536/1/6 1531/1/6 1537/1/6
f 1537/2/6 1532/2/6 1538/2/6
f 1533/2/6 1534/2/6 1541/2/6
f 1541/2/6 1534/2/6 1542/2/6
f 1538/2/6 1539/2/6 1543/2/6
f 1543/2/6 1539/2/6 1544/2/6
f 1540/2/6 1541/2/6 1546/2/6
f 1546/2/6 1541/2/6 1547/2/6
f 1544/2/6 1545/2/6 1548/2/6
f 1548/2/6 1545/2/6 1549/2/6
f 1546/1/6 1547/1/6 1550/1/6
f 1550/1/6 1547/1/6 1551/1/6
f 1548/1/6 1549/1/6 1552/1/6
f 1550/2/6 1551/2/6 1553/2/6
f 1550/2/6 1553/2/6 1554/2/6
f 1554/2/6 1553/2/6 1555/2/6
f 1552/1/6 1549/1/6 1558/1/6
f 1558/1/6 1549/1/6 1559/1/6
f 1555/2/6 1556/2/6 1560/2/6
f 1560/2/6 1556/2/6 1561/2/6
f 1557/2/6 1558/2/6 1564/2/6
f 1564/2/6 1558/2/6 1565/2/6
f 1562/1/6 1563/1/6 1566/1/6
f 1561/1/6 1562/1/6 1566/1/6
f 1563/2/6 1564/2/6 1567/2/6
f 1566/1/6 1563/1/6 1567/1/6
f 1567/2/6 1564/2/6 1568/2/6
f 1569/2/6 1570/2/6 1573/2/6
f 1570/1/6 1571/1/6 1574/1/6
f 1573/2/6 1570/2/6 1574/2/6
f 1574/1/6 1571/1/6 1575/1/6
f 1575/1/6 1571/1/6 1576/1/6
f 1572/2/6 1573/2/6 1578/2/6
f 1573/2/6 1574/2/6 1578/2/6
f 1578/2/6 1574/2/6 1579/2/6
f 1576/2/6 1577/2/6 1580/2/6
f 1575/2/6 1576/2/6 1580/2/6
f 1580/2/6 1577/2/6 1581/2/6
f 1581/2/6 1577/2/6 1582/2/6
f 1572/2/6 1578/2/6 1583/2/6
f 1582/2/6 1577/2/6 1586/2/6
f 1583/2/6 1584/2/6 1587/2/6
f 1572/2/6 1583/2/6 1587/2/6
f 1587/2/6 1584/2/6 1588/2/6
f 1588/2/6 1584/2/6 1589/2/6
f 1585/2/6 1586/2/6 1591/2/6
f 1586/2/6 1577/2/6 1592/2/6
f 1591/2/6 1586/2/6 1592/2/6
f 1592/2/6 1577/2/6 1593/2/6
f 1589/2/6 1590/2/6 1594/2/6
f 1588/2/6 1589/2/6 1594/2/6
f 1590/1/6 1591/1/6 1595/1/6
f 1594/2/6 1590/2/6 1595/2/6
f 1591/1/6 1592/1/6 1595/1/6
f 1595/1/6 1592/1/6 1596/1/6
f 1597/2/6 1598/2/6 1600/2/6
f 1600/2/6 1598/2/6 1601/2/6
f 1599/2/6 1600/2/6 1603/2/6
f 1603/2/6 1600/2/6 1604/2/6
f 1601/2/6 1602/2/6 1605/2/6
f 1605/2/6 1602/2/6 1606/2/6
f 1604/2/6 1605/2/6 1607/2/6
f 1607/2/6 1605/2/6 1608/2/6
f 1609/2/6 1610/2/6 1611/2/6
f 1611/2/6 1610/2/6 1612/2/6
