# MagicaVoxel @ Ephtracy

# group
o 

# material
mtllib spaceship_inside-14.mtl
usemtl palette

# normals
vn -1 0 0
vn 1 0 0
vn 0 0 1
vn 0 0 -1
vn 0 -1 0
vn 0 1 0

# texcoords
vt 0.958984 0.5
vt 0.970703 0.5
vt 0.978516 0.5
vt 0.986328 0.5
vt 0.994141 0.5

# verts
v -1.95 -0.65 1.9
v -1.95 -0.65 1.8
v -1.95 -0.65 -1.8
v -1.95 -0.65 -1.9
v -1.95 -0.45 1.9
v -1.95 -0.45 1.8
v -1.95 -0.45 -1.8
v -1.95 -0.45 -1.9
v -1.85 -0.45 1.9
v -1.85 -0.45 1.8
v -1.85 -0.45 -1.8
v -1.85 -0.45 -1.9
v -1.85 -0.35 1.9
v -1.85 -0.35 1.8
v -1.85 -0.35 -1.8
v -1.85 -0.35 -1.9
v -1.75 -0.35 1.9
v -1.75 -0.35 1.8
v -1.75 -0.35 -1.8
v -1.75 -0.35 -1.9
v -1.75 -0.15 1.9
v -1.75 -0.15 1.8
v -1.75 -0.15 -1.8
v -1.75 -0.15 -1.9
v -1.65 -0.15 1.9
v -1.65 -0.15 1.8
v -1.65 -0.15 -1.8
v -1.65 -0.15 -1.9
v -1.65 0.05 1.9
v -1.65 0.05 1.8
v -1.65 0.05 -1.8
v -1.65 0.05 -1.9
v -1.55 0.05 1.9
v -1.55 0.05 1.8
v -1.55 0.05 -1.8
v -1.55 0.05 -1.9
v -1.55 0.15 1.9
v -1.55 0.15 1.8
v -1.55 0.15 -1.8
v -1.55 0.15 -1.9
v -1.45 0.15 1.9
v -1.45 0.15 1.8
v -1.45 0.15 -1.8
v -1.45 0.15 -1.9
v -1.45 0.25 1.9
v -1.45 0.25 1.8
v -1.45 0.25 -1.8
v -1.45 0.25 -1.9
v -1.35 0.25 1.9
v -1.35 0.25 1.8
v -1.35 0.25 -1.8
v -1.35 0.25 -1.9
v -1.35 0.35 1.9
v -1.35 0.35 1.8
v -1.35 0.35 -1.8
v -1.35 0.35 -1.9
v -1.25 0.35 1.9
v -1.25 0.35 1.8
v -1.25 0.35 -1.8
v -1.25 0.35 -1.9
v -1.25 0.45 1.9
v -1.25 0.45 1.8
v -1.25 0.45 -1.8
v -1.25 0.45 -1.9
v -0.05 0.25 1.9
v -0.05 0.25 1.8
v -0.05 0.25 -1.8
v -0.05 0.25 -1.9
v -0.05 0.35 1.9
v -0.05 0.35 1.8
v -0.05 0.35 -1.8
v -0.05 0.35 -1.9
v 1.65 -0.15 0.4
v 1.65 -0.15 0.3
v 1.65 -0.15 -0.3
v 1.65 -0.15 -0.4
v 1.65 0.15 0.4
v 1.65 0.15 0.3
v 1.65 0.15 -0.3
v 1.65 0.15 -0.4
v 1.75 -0.05 0.3
v 1.75 -0.05 0.2
v 1.75 -0.05 -0.2
v 1.75 -0.05 -0.3
v 1.75 0.05 0.3
v 1.75 0.05 0.2
v 1.75 0.05 -0.2
v 1.75 0.05 -0.3
v 1.85 -0.55 1.6
v 1.85 -0.55 0.6
v 1.85 -0.55 -0.6
v 1.85 -0.55 -1.6
v 1.85 -0.45 1.7
v 1.85 -0.45 1.6
v 1.85 -0.45 0.6
v 1.85 -0.45 0.5
v 1.85 -0.45 -0.5
v 1.85 -0.45 -0.6
v 1.85 -0.45 -1.6
v 1.85 -0.45 -1.7
v 1.85 -0.35 0.6
v 1.85 -0.35 0.5
v 1.85 -0.35 0.4
v 1.85 -0.35 -0.4
v 1.85 -0.35 -0.5
v 1.85 -0.35 -0.6
v 1.85 -0.25 1.8
v 1.85 -0.25 1.7
v 1.85 -0.25 1.6
v 1.85 -0.25 0.5
v 1.85 -0.25 0.4
v 1.85 -0.25 0.3
v 1.85 -0.25 -0.3
v 1.85 -0.25 -0.4
v 1.85 -0.25 -0.5
v 1.85 -0.25 -1.6
v 1.85 -0.25 -1.7
v 1.85 -0.25 -1.8
v 1.85 -0.15 0.4
v 1.85 -0.15 0.3
v 1.85 -0.15 0.2
v 1.85 -0.15 -0.2
v 1.85 -0.15 -0.3
v 1.85 -0.15 -0.4
v 1.85 -0.05 0.3
v 1.85 -0.05 0.2
v 1.85 -0.05 -0.2
v 1.85 -0.05 -0.3
v 1.85 0.05 0.3
v 1.85 0.05 0.2
v 1.85 0.05 -0.2
v 1.85 0.05 -0.3
v 1.85 0.15 1.9
v 1.85 0.15 1.8
v 1.85 0.15 -1.8
v 1.85 0.15 -1.9
v 1.85 0.25 1.9
v 1.85 0.25 1.8
v 1.85 0.25 0.1
v 1.85 0.25 -0.1
v 1.85 0.25 -1.8
v 1.85 0.25 -1.9
v 1.85 0.35 1.8
v 1.85 0.35 0.4
v 1.85 0.35 0.3
v 1.85 0.35 0.2
v 1.85 0.35 0.1
v 1.85 0.35 -0.1
v 1.85 0.35 -0.2
v 1.85 0.35 -0.3
v 1.85 0.35 -0.4
v 1.85 0.35 -1.8
v 1.85 0.45 1.8
v 1.85 0.45 1.7
v 1.85 0.45 1.6
v 1.85 0.45 0.3
v 1.85 0.45 0.2
v 1.85 0.45 -0.2
v 1.85 0.45 -0.3
v 1.85 0.45 -1.6
v 1.85 0.45 -1.7
v 1.85 0.45 -1.8
v 1.85 0.55 1.8
v 1.85 0.55 1.6
v 1.85 0.55 0.4
v 1.85 0.55 0.3
v 1.85 0.55 0.1
v 1.85 0.55 -0.1
v 1.85 0.55 -0.3
v 1.85 0.55 -0.4
v 1.85 0.55 -1.6
v 1.85 0.55 -1.8
v 1.85 0.65 1.6
v 1.85 0.65 0.4
v 1.85 0.65 0.1
v 1.85 0.65 -0.1
v 1.85 0.65 -0.4
v 1.85 0.65 -1.6
v -1.75 -0.65 1.9
v -1.75 -0.65 1.8
v -1.75 -0.65 -1.8
v -1.75 -0.65 -1.9
v -1.75 -0.45 1.9
v -1.75 -0.45 1.8
v -1.75 -0.45 -1.8
v -1.75 -0.45 -1.9
v -1.65 -0.45 1.9
v -1.65 -0.45 1.8
v -1.65 -0.45 -1.8
v -1.65 -0.45 -1.9
v -1.65 -0.25 1.9
v -1.65 -0.25 1.8
v -1.65 -0.25 -1.8
v -1.65 -0.25 -1.9
v -1.55 -0.25 1.9
v -1.55 -0.25 1.8
v -1.55 -0.25 -1.8
v -1.55 -0.25 -1.9
v -1.55 -0.05 1.9
v -1.55 -0.05 1.8
v -1.55 -0.05 -1.8
v -1.55 -0.05 -1.9
v -1.45 -0.05 1.9
v -1.45 -0.05 1.8
v -1.45 -0.05 -1.8
v -1.45 -0.05 -1.9
v -1.45 0.05 1.9
v -1.45 0.05 1.8
v -1.45 0.05 -1.8
v -1.45 0.05 -1.9
v -1.35 0.05 1.9
v -1.35 0.05 1.8
v -1.35 0.05 -1.8
v -1.35 0.05 -1.9
v -1.35 0.15 1.9
v -1.35 0.15 1.8
v -1.35 0.15 -1.8
v -1.35 0.15 -1.9
v -1.25 0.15 1.9
v -1.25 0.15 1.8
v -1.25 0.15 -1.8
v -1.25 0.15 -1.9
v -1.25 0.25 1.9
v -1.25 0.25 1.8
v -1.25 0.25 -1.8
v -1.25 0.25 -1.9
v -1.15 0.25 1.9
v -1.15 0.25 1.8
v -1.15 0.25 -1.8
v -1.15 0.25 -1.9
v -1.15 0.35 1.9
v -1.15 0.35 1.8
v -1.15 0.35 -1.8
v -1.15 0.35 -1.9
v 1.75 -0.15 0.4
v 1.75 -0.15 0.3
v 1.75 -0.15 -0.3
v 1.75 -0.15 -0.4
v 1.75 -0.05 0.3
v 1.75 -0.05 -0.3
v 1.75 0.05 0.3
v 1.75 0.05 -0.3
v 1.75 0.15 0.4
v 1.75 0.15 0.3
v 1.75 0.15 -0.3
v 1.75 0.15 -0.4
v 1.95 -0.55 1.6
v 1.95 -0.55 0.6
v 1.95 -0.55 -0.6
v 1.95 -0.55 -1.6
v 1.95 -0.45 1.7
v 1.95 -0.45 1.6
v 1.95 -0.45 0.6
v 1.95 -0.45 0.5
v 1.95 -0.45 -0.5
v 1.95 -0.45 -0.6
v 1.95 -0.45 -1.6
v 1.95 -0.45 -1.7
v 1.95 -0.35 0.6
v 1.95 -0.35 0.5
v 1.95 -0.35 0.4
v 1.95 -0.35 -0.4
v 1.95 -0.35 -0.5
v 1.95 -0.35 -0.6
v 1.95 -0.25 1.8
v 1.95 -0.25 1.7
v 1.95 -0.25 1.6
v 1.95 -0.25 0.5
v 1.95 -0.25 0.4
v 1.95 -0.25 0.3
v 1.95 -0.25 -0.3
v 1.95 -0.25 -0.4
v 1.95 -0.25 -0.5
v 1.95 -0.25 -1.6
v 1.95 -0.25 -1.7
v 1.95 -0.25 -1.8
v 1.95 -0.15 0.4
v 1.95 -0.15 0.3
v 1.95 -0.15 0.2
v 1.95 -0.15 -0.2
v 1.95 -0.15 -0.3
v 1.95 -0.15 -0.4
v 1.95 0.15 1.9
v 1.95 0.15 1.8
v 1.95 0.15 -1.8
v 1.95 0.15 -1.9
v 1.95 0.25 0.1
v 1.95 0.25 -0.1
v 1.95 0.35 0.4
v 1.95 0.35 0.3
v 1.95 0.35 0.2
v 1.95 0.35 0.1
v 1.95 0.35 -0.1
v 1.95 0.35 -0.2
v 1.95 0.35 -0.3
v 1.95 0.35 -0.4
v 1.95 0.45 1.9
v 1.95 0.45 1.8
v 1.95 0.45 1.7
v 1.95 0.45 1.6
v 1.95 0.45 0.3
v 1.95 0.45 0.2
v 1.95 0.45 -0.2
v 1.95 0.45 -0.3
v 1.95 0.45 -1.6
v 1.95 0.45 -1.7
v 1.95 0.45 -1.8
v 1.95 0.45 -1.9
v 1.95 0.55 1.8
v 1.95 0.55 1.6
v 1.95 0.55 0.4
v 1.95 0.55 0.3
v 1.95 0.55 0.1
v 1.95 0.55 -0.1
v 1.95 0.55 -0.3
v 1.95 0.55 -0.4
v 1.95 0.55 -1.6
v 1.95 0.55 -1.8
v 1.95 0.65 1.6
v 1.95 0.65 0.4
v 1.95 0.65 0.1
v 1.95 0.65 -0.1
v 1.95 0.65 -0.4
v 1.95 0.65 -1.6
v -1.95 -0.65 1.9
v -1.95 -0.45 1.9
v -1.85 -0.45 1.9
v -1.85 -0.35 1.9
v -1.75 -0.65 1.9
v -1.75 -0.45 1.9
v -1.75 -0.35 1.9
v -1.75 -0.15 1.9
v -1.65 -0.45 1.9
v -1.65 -0.25 1.9
v -1.65 -0.15 1.9
v -1.65 0.05 1.9
v -1.55 -0.25 1.9
v -1.55 -0.05 1.9
v -1.55 0.05 1.9
v -1.55 0.15 1.9
v -1.45 -0.05 1.9
v -1.45 0.05 1.9
v -1.45 0.15 1.9
v -1.45 0.25 1.9
v -1.35 0.05 1.9
v -1.35 0.15 1.9
v -1.35 0.25 1.9
v -1.35 0.35 1.9
v -1.25 0.15 1.9
v -1.25 0.25 1.9
v -1.25 0.35 1.9
v -1.25 0.45 1.9
v -1.15 0.25 1.9
v -1.15 0.35 1.9
v -1.05 0.35 1.9
v -1.05 0.45 1.9
v -0.05 0.25 1.9
v -0.05 0.35 1.9
v 0.0500002 0.25 1.9
v 0.0500002 0.35 1.9
v 1.75 0.25 1.9
v 1.75 0.35 1.9
v 1.85 0.15 1.9
v 1.85 0.25 1.9
v 1.85 0.35 1.9
v 1.95 0.15 1.9
v 1.95 0.45 1.9
v 1.85 -0.25 1.8
v 1.85 0.15 1.8
v 1.85 0.45 1.8
v 1.85 0.55 1.8
v 1.95 -0.25 1.8
v 1.95 0.15 1.8
v 1.95 0.45 1.8
v 1.95 0.55 1.8
v 1.85 -0.45 1.7
v 1.85 -0.25 1.7
v 1.95 -0.45 1.7
v 1.95 -0.25 1.7
v 1.85 -0.55 1.6
v 1.85 -0.45 1.6
v 1.85 0.55 1.6
v 1.85 0.65 1.6
v 1.95 -0.55 1.6
v 1.95 -0.45 1.6
v 1.95 0.55 1.6
v 1.95 0.65 1.6
v 1.85 -0.45 0.6
v 1.85 -0.35 0.6
v 1.95 -0.45 0.6
v 1.95 -0.35 0.6
v 1.85 -0.35 0.5
v 1.85 -0.25 0.5
v 1.95 -0.35 0.5
v 1.95 -0.25 0.5
v 1.65 -0.15 0.4
v 1.65 0.15 0.4
v 1.75 -0.15 0.4
v 1.75 0.15 0.4
v 1.85 -0.25 0.4
v 1.85 -0.15 0.4
v 1.85 0.35 0.4
v 1.85 0.55 0.4
v 1.95 -0.25 0.4
v 1.95 -0.15 0.4
v 1.95 0.35 0.4
v 1.95 0.55 0.4
v 1.75 -0.05 0.3
v 1.75 0.05 0.3
v 1.85 -0.15 0.3
v 1.85 -0.05 0.3
v 1.85 0.05 0.3
v 1.85 0.35 0.3
v 1.95 -0.15 0.3
v 1.95 0.35 0.3
v 1.85 0.25 0.1
v 1.85 0.35 0.1
v 1.85 0.55 0.1
v 1.85 0.65 0.1
v 1.95 0.25 0.1
v 1.95 0.35 0.1
v 1.95 0.55 0.1
v 1.95 0.65 0.1
v 1.75 -0.05 -0.2
v 1.75 0.05 -0.2
v 1.85 -0.15 -0.2
v 1.85 -0.05 -0.2
v 1.85 0.05 -0.2
v 1.85 0.35 -0.2
v 1.95 -0.15 -0.2
v 1.95 0.35 -0.2
v 1.65 -0.15 -0.3
v 1.65 0.15 -0.3
v 1.75 -0.15 -0.3
v 1.75 -0.05 -0.3
v 1.75 0.05 -0.3
v 1.75 0.15 -0.3
v 1.85 -0.25 -0.3
v 1.85 -0.15 -0.3
v 1.95 -0.25 -0.3
v 1.95 -0.15 -0.3
v 1.85 -0.35 -0.4
v 1.85 -0.25 -0.4
v 1.85 0.55 -0.4
v 1.85 0.65 -0.4
v 1.95 -0.35 -0.4
v 1.95 -0.25 -0.4
v 1.95 0.55 -0.4
v 1.95 0.65 -0.4
v 1.85 -0.45 -0.5
v 1.85 -0.35 -0.5
v 1.95 -0.45 -0.5
v 1.95 -0.35 -0.5
v 1.85 -0.55 -0.6
v 1.85 -0.45 -0.6
v 1.95 -0.55 -0.6
v 1.95 -0.45 -0.6
v 1.85 -0.45 -1.6
v 1.85 -0.25 -1.6
v 1.85 0.45 -1.6
v 1.85 0.55 -1.6
v 1.95 -0.45 -1.6
v 1.95 -0.25 -1.6
v 1.95 0.45 -1.6
v 1.95 0.55 -1.6
v 1.85 -0.25 -1.7
v 1.85 0.45 -1.7
v 1.95 -0.25 -1.7
v 1.95 0.45 -1.7
v -1.95 -0.65 -1.8
v -1.95 -0.45 -1.8
v -1.85 -0.45 -1.8
v -1.85 -0.35 -1.8
v -1.75 -0.65 -1.8
v -1.75 -0.45 -1.8
v -1.75 -0.35 -1.8
v -1.75 -0.15 -1.8
v -1.65 -0.45 -1.8
v -1.65 -0.25 -1.8
v -1.65 -0.15 -1.8
v -1.65 0.05 -1.8
v -1.55 -0.25 -1.8
v -1.55 -0.05 -1.8
v -1.55 0.05 -1.8
v -1.55 0.15 -1.8
v -1.45 -0.05 -1.8
v -1.45 0.05 -1.8
v -1.45 0.15 -1.8
v -1.45 0.25 -1.8
v -1.35 0.05 -1.8
v -1.35 0.15 -1.8
v -1.35 0.25 -1.8
v -1.35 0.35 -1.8
v -1.25 0.15 -1.8
v -1.25 0.25 -1.8
v -1.25 0.35 -1.8
v -1.25 0.45 -1.8
v -1.15 0.25 -1.8
v -1.15 0.35 -1.8
v -1.05 0.35 -1.8
v -1.05 0.45 -1.8
v -0.05 0.25 -1.8
v -0.05 0.35 -1.8
v 0.0500002 0.25 -1.8
v 0.0500002 0.35 -1.8
v 1.75 0.25 -1.8
v 1.75 0.35 -1.8
v 1.85 0.25 -1.8
v 1.85 0.35 -1.8
v 1.85 0.45 -1.8
v -1.95 -0.65 1.8
v -1.95 -0.45 1.8
v -1.85 -0.45 1.8
v -1.85 -0.35 1.8
v -1.75 -0.65 1.8
v -1.75 -0.45 1.8
v -1.75 -0.35 1.8
v -1.75 -0.15 1.8
v -1.65 -0.45 1.8
v -1.65 -0.25 1.8
v -1.65 -0.15 1.8
v -1.65 0.05 1.8
v -1.55 -0.25 1.8
v -1.55 -0.05 1.8
v -1.55 0.05 1.8
v -1.55 0.15 1.8
v -1.45 -0.05 1.8
v -1.45 0.05 1.8
v -1.45 0.15 1.8
v -1.45 0.25 1.8
v -1.35 0.05 1.8
v -1.35 0.15 1.8
v -1.35 0.25 1.8
v -1.35 0.35 1.8
v -1.25 0.15 1.8
v -1.25 0.25 1.8
v -1.25 0.35 1.8
v -1.25 0.45 1.8
v -1.15 0.25 1.8
v -1.15 0.35 1.8
v -1.05 0.35 1.8
v -1.05 0.45 1.8
v -0.05 0.25 1.8
v -0.05 0.35 1.8
v 0.0500002 0.25 1.8
v 0.0500002 0.35 1.8
v 1.75 0.25 1.8
v 1.75 0.35 1.8
v 1.85 0.25 1.8
v 1.85 0.35 1.8
v 1.85 0.45 1.8
v 1.85 -0.25 1.7
v 1.85 0.45 1.7
v 1.95 -0.25 1.7
v 1.95 0.45 1.7
v 1.85 -0.45 1.6
v 1.85 -0.25 1.6
v 1.85 0.45 1.6
v 1.85 0.55 1.6
v 1.95 -0.45 1.6
v 1.95 -0.25 1.6
v 1.95 0.45 1.6
v 1.95 0.55 1.6
v 1.85 -0.55 0.6
v 1.85 -0.45 0.6
v 1.95 -0.55 0.6
v 1.95 -0.45 0.6
v 1.85 -0.45 0.5
v 1.85 -0.35 0.5
v 1.95 -0.45 0.5
v 1.95 -0.35 0.5
v 1.85 -0.35 0.4
v 1.85 -0.25 0.4
v 1.85 0.55 0.4
v 1.85 0.65 0.4
v 1.95 -0.35 0.4
v 1.95 -0.25 0.4
v 1.95 0.55 0.4
v 1.95 0.65 0.4
v 1.65 -0.15 0.3
v 1.65 0.15 0.3
v 1.75 -0.15 0.3
v 1.75 -0.05 0.3
v 1.75 0.05 0.3
v 1.75 0.15 0.3
v 1.85 -0.25 0.3
v 1.85 -0.15 0.3
v 1.95 -0.25 0.3
v 1.95 -0.15 0.3
v 1.75 -0.05 0.2
v 1.75 0.05 0.2
v 1.85 -0.15 0.2
v 1.85 -0.05 0.2
v 1.85 0.05 0.2
v 1.85 0.35 0.2
v 1.95 -0.15 0.2
v 1.95 0.35 0.2
v 1.85 0.25 -0.1
v 1.85 0.35 -0.1
v 1.85 0.55 -0.1
v 1.85 0.65 -0.1
v 1.95 0.25 -0.1
v 1.95 0.35 -0.1
v 1.95 0.55 -0.1
v 1.95 0.65 -0.1
v 1.75 -0.05 -0.3
v 1.75 0.05 -0.3
v 1.85 -0.15 -0.3
v 1.85 -0.05 -0.3
v 1.85 0.05 -0.3
v 1.85 0.35 -0.3
v 1.95 -0.15 -0.3
v 1.95 0.35 -0.3
v 1.65 -0.15 -0.4
v 1.65 0.15 -0.4
v 1.75 -0.15 -0.4
v 1.75 0.15 -0.4
v 1.85 -0.25 -0.4
v 1.85 -0.15 -0.4
v 1.85 0.35 -0.4
v 1.85 0.55 -0.4
v 1.95 -0.25 -0.4
v 1.95 -0.15 -0.4
v 1.95 0.35 -0.4
v 1.95 0.55 -0.4
v 1.85 -0.35 -0.5
v 1.85 -0.25 -0.5
v 1.95 -0.35 -0.5
v 1.95 -0.25 -0.5
v 1.85 -0.45 -0.6
v 1.85 -0.35 -0.6
v 1.95 -0.45 -0.6
v 1.95 -0.35 -0.6
v 1.85 -0.55 -1.6
v 1.85 -0.45 -1.6
v 1.85 0.55 -1.6
v 1.85 0.65 -1.6
v 1.95 -0.55 -1.6
v 1.95 -0.45 -1.6
v 1.95 0.55 -1.6
v 1.95 0.65 -1.6
v 1.85 -0.45 -1.7
v 1.85 -0.25 -1.7
v 1.95 -0.45 -1.7
v 1.95 -0.25 -1.7
v 1.85 -0.25 -1.8
v 1.85 0.15 -1.8
v 1.85 0.45 -1.8
v 1.85 0.55 -1.8
v 1.95 -0.25 -1.8
v 1.95 0.15 -1.8
v 1.95 0.45 -1.8
v 1.95 0.55 -1.8
v -1.95 -0.65 -1.9
v -1.95 -0.45 -1.9
v -1.85 -0.45 -1.9
v -1.85 -0.35 -1.9
v -1.75 -0.65 -1.9
v -1.75 -0.45 -1.9
v -1.75 -0.35 -1.9
v -1.75 -0.15 -1.9
v -1.65 -0.45 -1.9
v -1.65 -0.25 -1.9
v -1.65 -0.15 -1.9
v -1.65 0.05 -1.9
v -1.55 -0.25 -1.9
v -1.55 -0.05 -1.9
v -1.55 0.05 -1.9
v -1.55 0.15 -1.9
v -1.45 -0.05 -1.9
v -1.45 0.05 -1.9
v -1.45 0.15 -1.9
v -1.45 0.25 -1.9
v -1.35 0.05 -1.9
v -1.35 0.15 -1.9
v -1.35 0.25 -1.9
v -1.35 0.35 -1.9
v -1.25 0.15 -1.9
v -1.25 0.25 -1.9
v -1.25 0.35 -1.9
v -1.25 0.45 -1.9
v -1.15 0.25 -1.9
v -1.15 0.35 -1.9
v -1.05 0.35 -1.9
v -1.05 0.45 -1.9
v -0.05 0.25 -1.9
v -0.05 0.35 -1.9
v 0.0500002 0.25 -1.9
v 0.0500002 0.35 -1.9
v 1.75 0.25 -1.9
v 1.75 0.35 -1.9
v 1.85 0.15 -1.9
v 1.85 0.25 -1.9
v 1.85 0.35 -1.9
v 1.95 0.15 -1.9
v 1.95 0.45 -1.9
v -1.95 -0.65 1.9
v -1.75 -0.65 1.9
v -1.95 -0.65 1.8
v -1.75 -0.65 1.8
v -1.95 -0.65 -1.8
v -1.75 -0.65 -1.8
v -1.95 -0.65 -1.9
v -1.75 -0.65 -1.9
v 1.85 -0.55 1.6
v 1.95 -0.55 1.6
v 1.85 -0.55 0.6
v 1.95 -0.55 0.6
v 1.85 -0.55 -0.6
v 1.95 -0.55 -0.6
v 1.85 -0.55 -1.6
v 1.95 -0.55 -1.6
v -1.75 -0.45 1.9
v -1.65 -0.45 1.9
v -1.75 -0.45 1.8
v -1.65 -0.45 1.8
v 1.85 -0.45 1.7
v 1.95 -0.45 1.7
v 1.85 -0.45 1.6
v 1.95 -0.45 1.6
v 1.85 -0.45 0.6
v 1.95 -0.45 0.6
v 1.85 -0.45 0.5
v 1.95 -0.45 0.5
v 1.85 -0.45 -0.5
v 1.95 -0.45 -0.5
v 1.85 -0.45 -0.6
v 1.95 -0.45 -0.6
v 1.85 -0.45 -1.6
v 1.95 -0.45 -1.6
v 1.85 -0.45 -1.7
v 1.95 -0.45 -1.7
v -1.75 -0.45 -1.8
v -1.65 -0.45 -1.8
v -1.75 -0.45 -1.9
v -1.65 -0.45 -1.9
v 1.85 -0.35 0.5
v 1.95 -0.35 0.5
v 1.85 -0.35 0.4
v 1.95 -0.35 0.4
v 1.85 -0.35 -0.4
v 1.95 -0.35 -0.4
v 1.85 -0.35 -0.5
v 1.95 -0.35 -0.5
v -1.65 -0.25 1.9
v -1.55 -0.25 1.9
v -1.65 -0.25 1.8
v -1.55 -0.25 1.8
v 1.85 -0.25 1.8
v 1.95 -0.25 1.8
v 1.85 -0.25 1.7
v 1.95 -0.25 1.7
v 1.85 -0.25 0.4
v 1.95 -0.25 0.4
v 1.85 -0.25 0.3
v 1.95 -0.25 0.3
v 1.85 -0.25 -0.3
v 1.95 -0.25 -0.3
v 1.85 -0.25 -0.4
v 1.95 -0.25 -0.4
v 1.85 -0.25 -1.7
v 1.95 -0.25 -1.7
v -1.65 -0.25 -1.8
v -1.55 -0.25 -1.8
v 1.85 -0.25 -1.8
v 1.95 -0.25 -1.8
v -1.65 -0.25 -1.9
v -1.55 -0.25 -1.9
v 1.65 -0.15 0.4
v 1.75 -0.15 0.4
v 1.65 -0.15 0.3
v 1.75 -0.15 0.3
v 1.85 -0.15 0.3
v 1.95 -0.15 0.3
v 1.85 -0.15 0.2
v 1.95 -0.15 0.2
v 1.85 -0.15 -0.2
v 1.95 -0.15 -0.2
v 1.65 -0.15 -0.3
v 1.75 -0.15 -0.3
v 1.85 -0.15 -0.3
v 1.95 -0.15 -0.3
v 1.65 -0.15 -0.4
v 1.75 -0.15 -0.4
v -1.55 -0.05 1.9
v -1.45 -0.05 1.9
v -1.55 -0.05 1.8
v -1.45 -0.05 1.8
v 1.75 -0.05 0.3
v 1.85 -0.05 0.3
v 1.75 -0.05 0.2
v 1.85 -0.05 0.2
v 1.75 -0.05 -0.2
v 1.85 -0.05 -0.2
v 1.75 -0.05 -0.3
v 1.85 -0.05 -0.3
v -1.55 -0.05 -1.8
v -1.45 -0.05 -1.8
v -1.55 -0.05 -1.9
v -1.45 -0.05 -1.9
v -1.45 0.05 1.9
v -1.35 0.05 1.9
v -1.45 0.05 1.8
v -1.35 0.05 1.8
v -1.45 0.05 -1.8
v -1.35 0.05 -1.8
v -1.45 0.05 -1.9
v -1.35 0.05 -1.9
v -1.35 0.15 1.9
v -1.25 0.15 1.9
v 1.85 0.15 1.9
v 1.95 0.15 1.9
v -1.35 0.15 1.8
v -1.25 0.15 1.8
v 1.85 0.15 1.8
v 1.95 0.15 1.8
v -1.35 0.15 -1.8
v -1.25 0.15 -1.8
v 1.85 0.15 -1.8
v 1.95 0.15 -1.8
v -1.35 0.15 -1.9
v -1.25 0.15 -1.9
v 1.85 0.15 -1.9
v 1.95 0.15 -1.9
v -1.25 0.25 1.9
v -1.15 0.25 1.9
v -0.05 0.25 1.9
v 0.0500002 0.25 1.9
v 1.75 0.25 1.9
v 1.85 0.25 1.9
v -1.25 0.25 1.8
v -1.15 0.25 1.8
v -0.05 0.25 1.8
v 0.0500002 0.25 1.8
v 1.75 0.25 1.8
v 1.85 0.25 1.8
v 1.85 0.25 0.1
v 1.95 0.25 0.1
v 1.85 0.25 -0.1
v 1.95 0.25 -0.1
v -1.25 0.25 -1.8
v -1.15 0.25 -1.8
v -0.05 0.25 -1.8
v 0.0500002 0.25 -1.8
v 1.75 0.25 -1.8
v 1.85 0.25 -1.8
v -1.25 0.25 -1.9
v -1.15 0.25 -1.9
v -0.05 0.25 -1.9
v 0.0500002 0.25 -1.9
v 1.75 0.25 -1.9
v 1.85 0.25 -1.9
v -1.15 0.35 1.9
v -1.05 0.35 1.9
v -0.05 0.35 1.9
v -1.15 0.35 1.8
v -1.05 0.35 1.8
v -0.05 0.35 1.8
v 1.85 0.35 0.4
v 1.95 0.35 0.4
v 1.85 0.35 0.3
v 1.95 0.35 0.3
v 1.85 0.35 0.2
v 1.95 0.35 0.2
v 1.85 0.35 0.1
v 1.95 0.35 0.1
v 1.85 0.35 -0.1
v 1.95 0.35 -0.1
v 1.85 0.35 -0.2
v 1.95 0.35 -0.2
v 1.85 0.35 -0.3
v 1.95 0.35 -0.3
v 1.85 0.35 -0.4
v 1.95 0.35 -0.4
v -1.15 0.35 -1.8
v -1.05 0.35 -1.8
v -0.05 0.35 -1.8
v -1.15 0.35 -1.9
v -1.05 0.35 -1.9
v -0.05 0.35 -1.9
v 1.85 0.45 1.7
v 1.95 0.45 1.7
v 1.85 0.45 1.6
v 1.95 0.45 1.6
v 1.85 0.45 -1.6
v 1.95 0.45 -1.6
v 1.85 0.45 -1.7
v 1.95 0.45 -1.7
v 1.85 0.55 1.6
v 1.95 0.55 1.6
v 1.85 0.55 0.4
v 1.95 0.55 0.4
v 1.85 0.55 -0.4
v 1.95 0.55 -0.4
v 1.85 0.55 -1.6
v 1.95 0.55 -1.6
v -1.95 -0.45 1.9
v -1.85 -0.45 1.9
v -1.95 -0.45 1.8
v -1.85 -0.45 1.8
v 1.85 -0.45 1.6
v 1.95 -0.45 1.6
v 1.85 -0.45 0.6
v 1.95 -0.45 0.6
v 1.85 -0.45 -0.6
v 1.95 -0.45 -0.6
v 1.85 -0.45 -1.6
v 1.95 -0.45 -1.6
v -1.95 -0.45 -1.8
v -1.85 -0.45 -1.8
v -1.95 -0.45 -1.9
v -1.85 -0.45 -1.9
v -1.85 -0.35 1.9
v -1.75 -0.35 1.9
v -1.85 -0.35 1.8
v -1.75 -0.35 1.8
v 1.85 -0.35 0.6
v 1.95 -0.35 0.6
v 1.85 -0.35 0.5
v 1.95 -0.35 0.5
v 1.85 -0.35 -0.5
v 1.95 -0.35 -0.5
v 1.85 -0.35 -0.6
v 1.95 -0.35 -0.6
v -1.85 -0.35 -1.8
v -1.75 -0.35 -1.8
v -1.85 -0.35 -1.9
v -1.75 -0.35 -1.9
v 1.85 -0.25 1.7
v 1.95 -0.25 1.7
v 1.85 -0.25 1.6
v 1.95 -0.25 1.6
v 1.85 -0.25 0.5
v 1.95 -0.25 0.5
v 1.85 -0.25 0.4
v 1.95 -0.25 0.4
v 1.85 -0.25 -0.4
v 1.95 -0.25 -0.4
v 1.85 -0.25 -0.5
v 1.95 -0.25 -0.5
v 1.85 -0.25 -1.6
v 1.95 -0.25 -1.6
v 1.85 -0.25 -1.7
v 1.95 -0.25 -1.7
v -1.75 -0.15 1.9
v -1.65 -0.15 1.9
v -1.75 -0.15 1.8
v -1.65 -0.15 1.8
v 1.85 -0.15 0.4
v 1.95 -0.15 0.4
v 1.85 -0.15 0.3
v 1.95 -0.15 0.3
v 1.85 -0.15 -0.3
v 1.95 -0.15 -0.3
v 1.85 -0.15 -0.4
v 1.95 -0.15 -0.4
v -1.75 -0.15 -1.8
v -1.65 -0.15 -1.8
v -1.75 -0.15 -1.9
v -1.65 -0.15 -1.9
v -1.65 0.05 1.9
v -1.55 0.05 1.9
v -1.65 0.05 1.8
v -1.55 0.05 1.8
v 1.75 0.05 0.3
v 1.85 0.05 0.3
v 1.75 0.05 0.2
v 1.85 0.05 0.2
v 1.75 0.05 -0.2
v 1.85 0.05 -0.2
v 1.75 0.05 -0.3
v 1.85 0.05 -0.3
v -1.65 0.05 -1.8
v -1.55 0.05 -1.8
v -1.65 0.05 -1.9
v -1.55 0.05 -1.9
v -1.55 0.15 1.9
v -1.45 0.15 1.9
v -1.55 0.15 1.8
v -1.45 0.15 1.8
v 1.65 0.15 0.4
v 1.75 0.15 0.4
v 1.65 0.15 0.3
v 1.75 0.15 0.3
v 1.65 0.15 -0.3
v 1.75 0.15 -0.3
v 1.65 0.15 -0.4
v 1.75 0.15 -0.4
v -1.55 0.15 -1.8
v -1.45 0.15 -1.8
v -1.55 0.15 -1.9
v -1.45 0.15 -1.9
v -1.45 0.25 1.9
v -1.35 0.25 1.9
v -1.45 0.25 1.8
v -1.35 0.25 1.8
v -1.45 0.25 -1.8
v -1.35 0.25 -1.8
v -1.45 0.25 -1.9
v -1.35 0.25 -1.9
v -1.35 0.35 1.9
v -1.25 0.35 1.9
v -1.35 0.35 1.8
v -1.25 0.35 1.8
v -1.35 0.35 -1.8
v -1.25 0.35 -1.8
v -1.35 0.35 -1.9
v -1.25 0.35 -1.9
v -1.25 0.45 1.9
v -1.05 0.45 1.9
v 1.95 0.45 1.9
v -1.25 0.45 1.8
v -1.05 0.45 1.8
v 1.85 0.45 1.8
v 1.95 0.45 1.8
v -1.25 0.45 -1.8
v -1.05 0.45 -1.8
v 1.85 0.45 -1.8
v 1.95 0.45 -1.8
v -1.25 0.45 -1.9
v -1.05 0.45 -1.9
v 1.95 0.45 -1.9
v 1.85 0.55 1.8
v 1.95 0.55 1.8
v 1.85 0.55 1.6
v 1.95 0.55 1.6
v 1.85 0.55 0.4
v 1.95 0.55 0.4
v 1.85 0.55 0.3
v 1.95 0.55 0.3
v 1.85 0.55 0.1
v 1.95 0.55 0.1
v 1.85 0.55 -0.1
v 1.95 0.55 -0.1
v 1.85 0.55 -0.3
v 1.95 0.55 -0.3
v 1.85 0.55 -0.4
v 1.95 0.55 -0.4
v 1.85 0.55 -1.6
v 1.95 0.55 -1.6
v 1.85 0.55 -1.8
v 1.95 0.55 -1.8
v 1.85 0.65 1.6
v 1.95 0.65 1.6
v 1.85 0.65 0.4
v 1.95 0.65 0.4
v 1.85 0.65 0.1
v 1.95 0.65 0.1
v 1.85 0.65 -0.1
v 1.95 0.65 -0.1
v 1.85 0.65 -0.4
v 1.95 0.65 -0.4
v 1.85 0.65 -1.6
v 1.95 0.65 -1.6

# faces
f 5/1/1 2/1/1 1/1/1
f 6/1/1 2/1/1 5/1/1
f 7/1/1 4/1/1 3/1/1
f 8/1/1 4/1/1 7/1/1
f 13/1/1 10/1/1 9/1/1
f 14/1/1 10/1/1 13/1/1
f 15/1/1 12/1/1 11/1/1
f 16/1/1 12/1/1 15/1/1
f 21/1/1 18/1/1 17/1/1
f 22/1/1 18/1/1 21/1/1
f 23/1/1 20/1/1 19/1/1
f 24/1/1 20/1/1 23/1/1
f 29/1/1 26/1/1 25/1/1
f 30/1/1 26/1/1 29/1/1
f 31/1/1 28/1/1 27/1/1
f 32/1/1 28/1/1 31/1/1
f 37/1/1 34/1/1 33/1/1
f 38/1/1 34/1/1 37/1/1
f 39/1/1 36/1/1 35/1/1
f 40/1/1 36/1/1 39/1/1
f 45/1/1 42/1/1 41/1/1
f 46/1/1 42/1/1 45/1/1
f 47/1/1 44/1/1 43/1/1
f 48/1/1 44/1/1 47/1/1
f 53/1/1 50/1/1 49/1/1
f 54/1/1 50/1/1 53/1/1
f 55/1/1 52/1/1 51/1/1
f 56/1/1 52/1/1 55/1/1
f 61/1/1 58/1/1 57/1/1
f 62/1/1 58/1/1 61/1/1
f 63/1/1 60/1/1 59/1/1
f 64/1/1 60/1/1 63/1/1
f 69/5/1 66/5/1 65/5/1
f 70/5/1 66/5/1 69/5/1
f 71/5/1 68/5/1 67/5/1
f 72/5/1 68/5/1 71/5/1
f 77/2/1 74/2/1 73/2/1
f 78/2/1 74/2/1 77/2/1
f 79/2/1 76/2/1 75/2/1
f 80/2/1 76/2/1 79/2/1
f 85/5/1 82/5/1 81/5/1
f 86/5/1 82/5/1 85/5/1
f 87/5/1 84/5/1 83/5/1
f 88/5/1 84/5/1 87/5/1
f 94/3/1 90/3/1 89/3/1
f 95/3/1 90/3/1 94/3/1
f 98/3/1 92/3/1 91/3/1
f 99/3/1 92/3/1 98/3/1
f 101/3/1 96/3/1 95/3/1
f 102/3/1 96/3/1 101/3/1
f 105/3/1 98/3/1 97/3/1
f 106/3/1 98/3/1 105/3/1
f 108/3/1 94/3/1 93/3/1
f 109/3/1 94/3/1 108/3/1
f 110/3/1 103/3/1 102/3/1
f 111/3/1 103/3/1 110/3/1
f 114/3/1 105/3/1 104/3/1
f 115/3/1 105/3/1 114/3/1
f 116/3/1 100/3/1 99/3/1
f 117/3/1 100/3/1 116/3/1
f 119/3/1 112/3/1 111/3/1
f 120/3/1 112/3/1 119/3/1
f 123/3/1 114/3/1 113/3/1
f 124/3/1 114/3/1 123/3/1
f 125/3/1 121/3/1 120/3/1
f 126/3/1 121/3/1 125/3/1
f 127/3/1 123/3/1 122/3/1
f 128/3/1 123/3/1 127/3/1
f 134/3/1 108/3/1 107/3/1
f 135/3/1 118/3/1 117/3/1
f 137/4/1 134/4/1 133/4/1
f 138/3/1 108/3/1 134/3/1
f 138/4/1 134/4/1 137/4/1
f 141/4/1 136/4/1 135/4/1
f 141/3/1 135/3/1 117/3/1
f 142/4/1 136/4/1 141/4/1
f 143/3/1 108/3/1 138/3/1
f 145/3/1 130/3/1 129/3/1
f 146/3/1 130/3/1 145/3/1
f 147/4/1 140/4/1 139/4/1
f 148/4/1 140/4/1 147/4/1
f 149/3/1 132/3/1 131/3/1
f 150/3/1 132/3/1 149/3/1
f 152/3/1 141/3/1 117/3/1
f 153/3/1 108/3/1 143/3/1
f 154/3/1 108/3/1 153/3/1
f 156/3/1 146/3/1 145/3/1
f 156/3/1 145/3/1 144/3/1
f 157/4/1 148/4/1 147/4/1
f 157/3/1 146/3/1 156/3/1
f 157/4/1 147/4/1 146/4/1
f 157/4/1 149/4/1 148/4/1
f 158/3/1 151/3/1 150/3/1
f 158/4/1 149/4/1 157/4/1
f 158/3/1 150/3/1 149/3/1
f 159/3/1 151/3/1 158/3/1
f 161/3/1 152/3/1 117/3/1
f 162/3/1 152/3/1 161/3/1
f 163/3/1 155/3/1 154/3/1
f 163/3/1 154/3/1 153/3/1
f 164/3/1 155/3/1 163/3/1
f 165/3/1 156/3/1 144/3/1
f 166/4/1 157/4/1 156/4/1
f 166/4/1 158/4/1 157/4/1
f 166/3/1 156/3/1 165/3/1
f 166/4/1 159/4/1 158/4/1
f 167/4/1 159/4/1 166/4/1
f 168/4/1 159/4/1 167/4/1
f 169/3/1 151/3/1 159/3/1
f 169/4/1 159/4/1 168/4/1
f 170/3/1 151/3/1 169/3/1
f 171/3/1 162/3/1 161/3/1
f 171/3/1 161/3/1 160/3/1
f 172/3/1 162/3/1 171/3/1
f 173/3/1 165/3/1 164/3/1
f 174/3/1 165/3/1 173/3/1
f 175/4/1 168/4/1 167/4/1
f 176/4/1 168/4/1 175/4/1
f 177/3/1 171/3/1 170/3/1
f 178/3/1 171/3/1 177/3/1
f 179/1/2 180/1/2 183/1/2
f 183/1/2 180/1/2 184/1/2
f 181/1/2 182/1/2 185/1/2
f 185/1/2 182/1/2 186/1/2
f 187/1/2 188/1/2 191/1/2
f 191/1/2 188/1/2 192/1/2
f 189/1/2 190/1/2 193/1/2
f 193/1/2 190/1/2 194/1/2
f 195/1/2 196/1/2 199/1/2
f 199/1/2 196/1/2 200/1/2
f 197/1/2 198/1/2 201/1/2
f 201/1/2 198/1/2 202/1/2
f 203/1/2 204/1/2 207/1/2
f 207/1/2 204/1/2 208/1/2
f 205/1/2 206/1/2 209/1/2
f 209/1/2 206/1/2 210/1/2
f 211/1/2 212/1/2 215/1/2
f 215/1/2 212/1/2 216/1/2
f 213/1/2 214/1/2 217/1/2
f 217/1/2 214/1/2 218/1/2
f 219/1/2 220/1/2 223/1/2
f 223/1/2 220/1/2 224/1/2
f 221/1/2 222/1/2 225/1/2
f 225/1/2 222/1/2 226/1/2
f 227/1/2 228/1/2 231/1/2
f 231/1/2 228/1/2 232/1/2
f 229/1/2 230/1/2 233/1/2
f 233/1/2 230/1/2 234/1/2
f 235/2/2 236/2/2 239/2/2
f 237/2/2 238/2/2 240/2/2
f 235/2/2 239/2/2 241/2/2
f 240/2/2 238/2/2 242/2/2
f 235/2/2 241/2/2 243/2/2
f 243/2/2 241/2/2 244/2/2
f 242/2/2 238/2/2 245/2/2
f 245/2/2 238/2/2 246/2/2
f 247/3/2 248/3/2 252/3/2
f 252/3/2 248/3/2 253/3/2
f 249/3/2 250/3/2 256/3/2
f 256/3/2 250/3/2 257/3/2
f 253/3/2 254/3/2 259/3/2
f 259/3/2 254/3/2 260/3/2
f 255/3/2 256/3/2 263/3/2
f 263/3/2 256/3/2 264/3/2
f 251/3/2 252/3/2 266/3/2
f 266/3/2 252/3/2 267/3/2
f 260/3/2 261/3/2 268/3/2
f 268/3/2 261/3/2 269/3/2
f 262/3/2 263/3/2 272/3/2
f 272/3/2 263/3/2 273/3/2
f 257/3/2 258/3/2 274/3/2
f 274/3/2 258/3/2 275/3/2
f 269/3/2 270/3/2 277/3/2
f 277/3/2 270/3/2 278/3/2
f 271/3/2 272/3/2 281/3/2
f 281/3/2 272/3/2 282/3/2
f 265/3/2 266/3/2 284/3/2
f 275/3/2 276/3/2 285/3/2
f 278/3/2 279/3/2 290/3/2
f 290/3/2 279/3/2 291/3/2
f 287/4/2 288/4/2 292/4/2
f 292/4/2 288/4/2 293/4/2
f 280/3/2 281/3/2 294/3/2
f 294/3/2 281/3/2 295/3/2
f 283/4/2 284/4/2 297/4/2
f 284/3/2 266/3/2 298/3/2
f 297/4/2 284/4/2 298/4/2
f 298/3/2 266/3/2 299/3/2
f 290/3/2 291/3/2 301/3/2
f 289/3/2 290/3/2 301/3/2
f 292/4/2 293/4/2 302/4/2
f 301/3/2 291/3/2 302/3/2
f 291/4/2 292/4/2 302/4/2
f 293/4/2 294/4/2 302/4/2
f 295/3/2 296/3/2 303/3/2
f 302/4/2 294/4/2 303/4/2
f 294/3/2 295/3/2 303/3/2
f 303/3/2 296/3/2 304/3/2
f 275/3/2 285/3/2 306/3/2
f 285/4/2 286/4/2 307/4/2
f 306/3/2 285/3/2 307/3/2
f 307/4/2 286/4/2 308/4/2
f 299/3/2 300/3/2 309/3/2
f 298/3/2 299/3/2 309/3/2
f 309/3/2 300/3/2 310/3/2
f 289/3/2 301/3/2 311/3/2
f 301/4/2 302/4/2 312/4/2
f 302/4/2 303/4/2 312/4/2
f 311/3/2 301/3/2 312/3/2
f 303/4/2 304/4/2 312/4/2
f 312/4/2 304/4/2 313/4/2
f 313/4/2 304/4/2 314/4/2
f 304/3/2 296/3/2 315/3/2
f 314/4/2 304/4/2 315/4/2
f 315/3/2 296/3/2 316/3/2
f 305/3/2 306/3/2 317/3/2
f 306/3/2 307/3/2 317/3/2
f 317/3/2 307/3/2 318/3/2
f 310/3/2 311/3/2 319/3/2
f 319/3/2 311/3/2 320/3/2
f 313/4/2 314/4/2 321/4/2
f 321/4/2 314/4/2 322/4/2
f 316/3/2 317/3/2 323/3/2
f 323/3/2 317/3/2 324/3/2
f 327/1/3 326/1/3 325/1/3
f 329/1/3 327/1/3 325/1/3
f 329/1/3 328/1/3 327/1/3
f 330/1/3 328/1/3 329/1/3
f 331/1/3 328/1/3 330/1/3
f 333/1/3 332/1/3 331/1/3
f 333/1/3 331/1/3 330/1/3
f 334/1/3 332/1/3 333/1/3
f 335/1/3 332/1/3 334/1/3
f 337/1/3 336/1/3 335/1/3
f 337/1/3 335/1/3 334/1/3
f 338/1/3 336/1/3 337/1/3
f 339/1/3 336/1/3 338/1/3
f 341/1/3 340/1/3 339/1/3
f 341/1/3 339/1/3 338/1/3
f 342/1/3 340/1/3 341/1/3
f 343/1/3 340/1/3 342/1/3
f 345/1/3 344/1/3 343/1/3
f 345/1/3 343/1/3 342/1/3
f 346/1/3 344/1/3 345/1/3
f 347/1/3 344/1/3 346/1/3
f 349/1/3 348/1/3 347/1/3
f 349/1/3 347/1/3 346/1/3
f 350/1/3 348/1/3 349/1/3
f 351/1/3 348/1/3 350/1/3
f 353/1/3 352/1/3 351/1/3
f 353/1/3 351/1/3 350/1/3
f 354/1/3 352/1/3 353/1/3
f 355/1/3 352/1/3 354/1/3
f 356/1/3 352/1/3 355/1/3
f 358/4/3 356/4/3 355/4/3
f 359/5/3 358/5/3 357/5/3
f 360/4/3 356/4/3 358/4/3
f 360/5/3 358/5/3 359/5/3
f 361/1/3 360/1/3 359/1/3
f 362/4/3 356/4/3 360/4/3
f 362/1/3 360/1/3 361/1/3
f 364/5/3 362/5/3 361/5/3
f 365/4/3 356/4/3 362/4/3
f 365/5/3 362/5/3 364/5/3
f 366/4/3 364/4/3 363/4/3
f 366/4/3 365/4/3 364/4/3
f 367/4/3 356/4/3 365/4/3
f 367/4/3 365/4/3 366/4/3
f 372/3/3 369/3/3 368/3/3
f 373/3/3 369/3/3 372/3/3
f 374/3/3 371/3/3 370/3/3
f 375/3/3 371/3/3 374/3/3
f 378/3/3 377/3/3 376/3/3
f 379/3/3 377/3/3 378/3/3
f 384/3/3 381/3/3 380/3/3
f 385/3/3 381/3/3 384/3/3
f 386/3/3 383/3/3 382/3/3
f 387/3/3 383/3/3 386/3/3
f 390/3/3 389/3/3 388/3/3
f 391/3/3 389/3/3 390/3/3
f 394/3/3 393/3/3 392/3/3
f 395/3/3 393/3/3 394/3/3
f 398/2/3 397/2/3 396/2/3
f 399/2/3 397/2/3 398/2/3
f 404/3/3 401/3/3 400/3/3
f 405/3/3 401/3/3 404/3/3
f 406/3/3 403/3/3 402/3/3
f 407/3/3 403/3/3 406/3/3
f 411/5/3 409/5/3 408/5/3
f 412/5/3 409/5/3 411/5/3
f 414/3/3 411/3/3 410/3/3
f 414/3/3 413/3/3 412/3/3
f 414/3/3 412/3/3 411/3/3
f 415/3/3 413/3/3 414/3/3
f 420/4/3 417/4/3 416/4/3
f 421/4/3 417/4/3 420/4/3
f 422/4/3 419/4/3 418/4/3
f 423/4/3 419/4/3 422/4/3
f 427/5/3 425/5/3 424/5/3
f 428/5/3 425/5/3 427/5/3
f 430/3/3 427/3/3 426/3/3
f 430/3/3 429/3/3 428/3/3
f 430/3/3 428/3/3 427/3/3
f 431/3/3 429/3/3 430/3/3
f 434/2/3 433/2/3 432/2/3
f 435/2/3 433/2/3 434/2/3
f 436/2/3 433/2/3 435/2/3
f 437/2/3 433/2/3 436/2/3
f 440/3/3 439/3/3 438/3/3
f 441/3/3 439/3/3 440/3/3
f 446/3/3 443/3/3 442/3/3
f 447/3/3 443/3/3 446/3/3
f 448/3/3 445/3/3 444/3/3
f 449/3/3 445/3/3 448/3/3
f 452/3/3 451/3/3 450/3/3
f 453/3/3 451/3/3 452/3/3
f 456/3/3 455/3/3 454/3/3
f 457/3/3 455/3/3 456/3/3
f 462/3/3 459/3/3 458/3/3
f 463/3/3 459/3/3 462/3/3
f 464/3/3 461/3/3 460/3/3
f 465/3/3 461/3/3 464/3/3
f 468/3/3 467/3/3 466/3/3
f 469/3/3 467/3/3 468/3/3
f 472/1/3 471/1/3 470/1/3
f 474/1/3 472/1/3 470/1/3
f 474/1/3 473/1/3 472/1/3
f 475/1/3 473/1/3 474/1/3
f 476/1/3 473/1/3 475/1/3
f 478/1/3 477/1/3 476/1/3
f 478/1/3 476/1/3 475/1/3
f 479/1/3 477/1/3 478/1/3
f 480/1/3 477/1/3 479/1/3
f 482/1/3 481/1/3 480/1/3
f 482/1/3 480/1/3 479/1/3
f 483/1/3 481/1/3 482/1/3
f 484/1/3 481/1/3 483/1/3
f 486/1/3 485/1/3 484/1/3
f 486/1/3 484/1/3 483/1/3
f 487/1/3 485/1/3 486/1/3
f 488/1/3 485/1/3 487/1/3
f 490/1/3 489/1/3 488/1/3
f 490/1/3 488/1/3 487/1/3
f 491/1/3 489/1/3 490/1/3
f 492/1/3 489/1/3 491/1/3
f 494/1/3 493/1/3 492/1/3
f 494/1/3 492/1/3 491/1/3
f 495/1/3 493/1/3 494/1/3
f 496/1/3 493/1/3 495/1/3
f 498/1/3 497/1/3 496/1/3
f 498/1/3 496/1/3 495/1/3
f 499/1/3 497/1/3 498/1/3
f 500/1/3 497/1/3 499/1/3
f 501/1/3 497/1/3 500/1/3
f 503/4/3 501/4/3 500/4/3
f 504/5/3 503/5/3 502/5/3
f 505/4/3 501/4/3 503/4/3
f 505/5/3 503/5/3 504/5/3
f 506/1/3 505/1/3 504/1/3
f 507/4/3 501/4/3 505/4/3
f 507/1/3 505/1/3 506/1/3
f 508/5/3 507/5/3 506/5/3
f 509/4/3 501/4/3 507/4/3
f 509/5/3 507/5/3 508/5/3
f 510/4/3 501/4/3 509/4/3
f 511/1/4 512/1/4 513/1/4
f 511/1/4 513/1/4 515/1/4
f 513/1/4 514/1/4 515/1/4
f 515/1/4 514/1/4 516/1/4
f 516/1/4 514/1/4 517/1/4
f 517/1/4 518/1/4 519/1/4
f 516/1/4 517/1/4 519/1/4
f 519/1/4 518/1/4 520/1/4
f 520/1/4 518/1/4 521/1/4
f 521/1/4 522/1/4 523/1/4
f 520/1/4 521/1/4 523/1/4
f 523/1/4 522/1/4 524/1/4
f 524/1/4 522/1/4 525/1/4
f 525/1/4 526/1/4 527/1/4
f 524/1/4 525/1/4 527/1/4
f 527/1/4 526/1/4 528/1/4
f 528/1/4 526/1/4 529/1/4
f 529/1/4 530/1/4 531/1/4
f 528/1/4 529/1/4 531/1/4
f 531/1/4 530/1/4 532/1/4
f 532/1/4 530/1/4 533/1/4
f 533/1/4 534/1/4 535/1/4
f 532/1/4 533/1/4 535/1/4
f 535/1/4 534/1/4 536/1/4
f 536/1/4 534/1/4 537/1/4
f 537/1/4 538/1/4 539/1/4
f 536/1/4 537/1/4 539/1/4
f 539/1/4 538/1/4 540/1/4
f 540/1/4 538/1/4 541/1/4
f 541/1/4 538/1/4 542/1/4
f 541/4/4 542/4/4 544/4/4
f 543/5/4 544/5/4 545/5/4
f 544/4/4 542/4/4 546/4/4
f 545/5/4 544/5/4 546/5/4
f 545/1/4 546/1/4 547/1/4
f 546/4/4 542/4/4 548/4/4
f 547/1/4 546/1/4 548/1/4
f 547/5/4 548/5/4 549/5/4
f 548/4/4 542/4/4 550/4/4
f 549/5/4 548/5/4 550/5/4
f 550/4/4 542/4/4 551/4/4
f 552/3/4 553/3/4 554/3/4
f 554/3/4 553/3/4 555/3/4
f 556/3/4 557/3/4 560/3/4
f 560/3/4 557/3/4 561/3/4
f 558/3/4 559/3/4 562/3/4
f 562/3/4 559/3/4 563/3/4
f 564/3/4 565/3/4 566/3/4
f 566/3/4 565/3/4 567/3/4
f 568/3/4 569/3/4 570/3/4
f 570/3/4 569/3/4 571/3/4
f 572/3/4 573/3/4 576/3/4
f 576/3/4 573/3/4 577/3/4
f 574/3/4 575/3/4 578/3/4
f 578/3/4 575/3/4 579/3/4
f 580/2/4 581/2/4 582/2/4
f 582/2/4 581/2/4 583/2/4
f 583/2/4 581/2/4 584/2/4
f 584/2/4 581/2/4 585/2/4
f 586/3/4 587/3/4 588/3/4
f 588/3/4 587/3/4 589/3/4
f 590/5/4 591/5/4 593/5/4
f 593/5/4 591/5/4 594/5/4
f 592/3/4 593/3/4 596/3/4
f 594/3/4 595/3/4 596/3/4
f 593/3/4 594/3/4 596/3/4
f 596/3/4 595/3/4 597/3/4
f 598/4/4 599/4/4 602/4/4
f 602/4/4 599/4/4 603/4/4
f 600/4/4 601/4/4 604/4/4
f 604/4/4 601/4/4 605/4/4
f 606/5/4 607/5/4 609/5/4
f 609/5/4 607/5/4 610/5/4
f 608/3/4 609/3/4 612/3/4
f 610/3/4 611/3/4 612/3/4
f 609/3/4 610/3/4 612/3/4
f 612/3/4 611/3/4 613/3/4
f 614/2/4 615/2/4 616/2/4
f 616/2/4 615/2/4 617/2/4
f 618/3/4 619/3/4 622/3/4
f 622/3/4 619/3/4 623/3/4
f 620/3/4 621/3/4 624/3/4
f 624/3/4 621/3/4 625/3/4
f 626/3/4 627/3/4 628/3/4
f 628/3/4 627/3/4 629/3/4
f 630/3/4 631/3/4 632/3/4
f 632/3/4 631/3/4 633/3/4
f 634/3/4 635/3/4 638/3/4
f 638/3/4 635/3/4 639/3/4
f 636/3/4 637/3/4 640/3/4
f 640/3/4 637/3/4 641/3/4
f 642/3/4 643/3/4 644/3/4
f 644/3/4 643/3/4 645/3/4
f 646/3/4 647/3/4 650/3/4
f 650/3/4 647/3/4 651/3/4
f 648/3/4 649/3/4 652/3/4
f 652/3/4 649/3/4 653/3/4
f 654/1/4 655/1/4 656/1/4
f 654/1/4 656/1/4 658/1/4
f 656/1/4 657/1/4 658/1/4
f 658/1/4 657/1/4 659/1/4
f 659/1/4 657/1/4 660/1/4
f 660/1/4 661/1/4 662/1/4
f 659/1/4 660/1/4 662/1/4
f 662/1/4 661/1/4 663/1/4
f 663/1/4 661/1/4 664/1/4
f 664/1/4 665/1/4 666/1/4
f 663/1/4 664/1/4 666/1/4
f 666/1/4 665/1/4 667/1/4
f 667/1/4 665/1/4 668/1/4
f 668/1/4 669/1/4 670/1/4
f 667/1/4 668/1/4 670/1/4
f 670/1/4 669/1/4 671/1/4
f 671/1/4 669/1/4 672/1/4
f 672/1/4 673/1/4 674/1/4
f 671/1/4 672/1/4 674/1/4
f 674/1/4 673/1/4 675/1/4
f 675/1/4 673/1/4 676/1/4
f 676/1/4 677/1/4 678/1/4
f 675/1/4 676/1/4 678/1/4
f 678/1/4 677/1/4 679/1/4
f 679/1/4 677/1/4 680/1/4
f 680/1/4 681/1/4 682/1/4
f 679/1/4 680/1/4 682/1/4
f 682/1/4 681/1/4 683/1/4
f 683/1/4 681/1/4 684/1/4
f 684/1/4 681/1/4 685/1/4
f 684/4/4 685/4/4 687/4/4
f 686/5/4 687/5/4 688/5/4
f 687/4/4 685/4/4 689/4/4
f 688/5/4 687/5/4 689/5/4
f 688/1/4 689/1/4 690/1/4
f 689/4/4 685/4/4 691/4/4
f 690/1/4 689/1/4 691/1/4
f 690/5/4 691/5/4 693/5/4
f 691/4/4 685/4/4 694/4/4
f 693/5/4 691/5/4 694/5/4
f 692/4/4 693/4/4 695/4/4
f 693/4/4 694/4/4 695/4/4
f 694/4/4 685/4/4 696/4/4
f 695/4/4 694/4/4 696/4/4
f 699/1/5 698/1/5 697/1/5
f 700/1/5 698/1/5 699/1/5
f 703/1/5 702/1/5 701/1/5
f 704/1/5 702/1/5 703/1/5
f 707/3/5 706/3/5 705/3/5
f 708/3/5 706/3/5 707/3/5
f 711/3/5 710/3/5 709/3/5
f 712/3/5 710/3/5 711/3/5
f 715/1/5 714/1/5 713/1/5
f 716/1/5 714/1/5 715/1/5
f 719/3/5 718/3/5 717/3/5
f 720/3/5 718/3/5 719/3/5
f 723/3/5 722/3/5 721/3/5
f 724/3/5 722/3/5 723/3/5
f 727/3/5 726/3/5 725/3/5
f 728/3/5 726/3/5 727/3/5
f 731/3/5 730/3/5 729/3/5
f 732/3/5 730/3/5 731/3/5
f 735/1/5 734/1/5 733/1/5
f 736/1/5 734/1/5 735/1/5
f 739/3/5 738/3/5 737/3/5
f 740/3/5 738/3/5 739/3/5
f 743/3/5 742/3/5 741/3/5
f 744/3/5 742/3/5 743/3/5
f 747/1/5 746/1/5 745/1/5
f 748/1/5 746/1/5 747/1/5
f 751/3/5 750/3/5 749/3/5
f 752/3/5 750/3/5 751/3/5
f 755/3/5 754/3/5 753/3/5
f 756/3/5 754/3/5 755/3/5
f 759/3/5 758/3/5 757/3/5
f 760/3/5 758/3/5 759/3/5
f 765/3/5 762/3/5 761/3/5
f 766/3/5 762/3/5 765/3/5
f 767/1/5 764/1/5 763/1/5
f 768/1/5 764/1/5 767/1/5
f 771/2/5 770/2/5 769/2/5
f 772/2/5 770/2/5 771/2/5
f 775/3/5 774/3/5 773/3/5
f 776/3/5 774/3/5 775/3/5
f 781/3/5 778/3/5 777/3/5
f 782/3/5 778/3/5 781/3/5
f 783/2/5 780/2/5 779/2/5
f 784/2/5 780/2/5 783/2/5
f 787/1/5 786/1/5 785/1/5
f 788/1/5 786/1/5 787/1/5
f 791/5/5 790/5/5 789/5/5
f 792/5/5 790/5/5 791/5/5
f 795/5/5 794/5/5 793/5/5
f 796/5/5 794/5/5 795/5/5
f 799/1/5 798/1/5 797/1/5
f 800/1/5 798/1/5 799/1/5
f 803/1/5 802/1/5 801/1/5
f 804/1/5 802/1/5 803/1/5
f 807/1/5 806/1/5 805/1/5
f 808/1/5 806/1/5 807/1/5
f 813/1/5 810/1/5 809/1/5
f 814/1/5 810/1/5 813/1/5
f 815/4/5 812/4/5 811/4/5
f 816/4/5 812/4/5 815/4/5
f 821/1/5 818/1/5 817/1/5
f 822/1/5 818/1/5 821/1/5
f 823/4/5 820/4/5 819/4/5
f 824/4/5 820/4/5 823/4/5
f 831/1/5 826/1/5 825/1/5
f 832/1/5 826/1/5 831/1/5
f 833/5/5 828/5/5 827/5/5
f 834/1/5 829/1/5 828/1/5
f 834/5/5 828/5/5 833/5/5
f 835/5/5 830/5/5 829/5/5
f 835/1/5 829/1/5 834/1/5
f 836/5/5 830/5/5 835/5/5
f 839/4/5 838/4/5 837/4/5
f 840/4/5 838/4/5 839/4/5
f 847/1/5 842/1/5 841/1/5
f 848/1/5 842/1/5 847/1/5
f 849/5/5 844/5/5 843/5/5
f 850/1/5 845/1/5 844/1/5
f 850/5/5 844/5/5 849/5/5
f 851/5/5 846/5/5 845/5/5
f 851/1/5 845/1/5 850/1/5
f 852/5/5 846/5/5 851/5/5
f 856/1/5 854/1/5 853/1/5
f 857/4/5 855/4/5 854/4/5
f 857/1/5 854/1/5 856/1/5
f 858/4/5 855/4/5 857/4/5
f 861/3/5 860/3/5 859/3/5
f 862/3/5 860/3/5 861/3/5
f 865/4/5 864/4/5 863/4/5
f 866/4/5 864/4/5 865/4/5
f 869/4/5 868/4/5 867/4/5
f 870/4/5 868/4/5 869/4/5
f 873/3/5 872/3/5 871/3/5
f 874/3/5 872/3/5 873/3/5
f 878/1/5 876/1/5 875/1/5
f 879/4/5 877/4/5 876/4/5
f 879/1/5 876/1/5 878/1/5
f 880/4/5 877/4/5 879/4/5
f 883/3/5 882/3/5 881/3/5
f 884/3/5 882/3/5 883/3/5
f 887/3/5 886/3/5 885/3/5
f 888/3/5 886/3/5 887/3/5
f 891/3/5 890/3/5 889/3/5
f 892/3/5 890/3/5 891/3/5
f 895/3/5 894/3/5 893/3/5
f 896/3/5 894/3/5 895/3/5
f 897/1/6 898/1/6 899/1/6
f 899/1/6 898/1/6 900/1/6
f 901/3/6 902/3/6 903/3/6
f 903/3/6 902/3/6 904/3/6
f 905/3/6 906/3/6 907/3/6
f 907/3/6 906/3/6 908/3/6
f 909/1/6 910/1/6 911/1/6
f 911/1/6 910/1/6 912/1/6
f 913/1/6 914/1/6 915/1/6
f 915/1/6 914/1/6 916/1/6
f 917/3/6 918/3/6 919/3/6
f 919/3/6 918/3/6 920/3/6
f 921/3/6 922/3/6 923/3/6
f 923/3/6 922/3/6 924/3/6
f 925/1/6 926/1/6 927/1/6
f 927/1/6 926/1/6 928/1/6
f 929/3/6 930/3/6 931/3/6
f 931/3/6 930/3/6 932/3/6
f 933/3/6 934/3/6 935/3/6
f 935/3/6 934/3/6 936/3/6
f 937/3/6 938/3/6 939/3/6
f 939/3/6 938/3/6 940/3/6
f 941/3/6 942/3/6 943/3/6
f 943/3/6 942/3/6 944/3/6
f 945/1/6 946/1/6 947/1/6
f 947/1/6 946/1/6 948/1/6
f 949/3/6 950/3/6 951/3/6
f 951/3/6 950/3/6 952/3/6
f 953/3/6 954/3/6 955/3/6
f 955/3/6 954/3/6 956/3/6
f 957/1/6 958/1/6 959/1/6
f 959/1/6 958/1/6 960/1/6
f 961/1/6 962/1/6 963/1/6
f 963/1/6 962/1/6 964/1/6
f 965/5/6 966/5/6 967/5/6
f 967/5/6 966/5/6 968/5/6
f 969/5/6 970/5/6 971/5/6
f 971/5/6 970/5/6 972/5/6
f 973/1/6 974/1/6 975/1/6
f 975/1/6 974/1/6 976/1/6
f 977/1/6 978/1/6 979/1/6
f 979/1/6 978/1/6 980/1/6
f 981/2/6 982/2/6 983/2/6
f 983/2/6 982/2/6 984/2/6
f 985/2/6 986/2/6 987/2/6
f 987/2/6 986/2/6 988/2/6
f 989/1/6 990/1/6 991/1/6
f 991/1/6 990/1/6 992/1/6
f 993/1/6 994/1/6 995/1/6
f 995/1/6 994/1/6 996/1/6
f 997/1/6 998/1/6 999/1/6
f 999/1/6 998/1/6 1000/1/6
f 1001/1/6 1002/1/6 1003/1/6
f 1003/1/6 1002/1/6 1004/1/6
f 1005/1/6 1006/1/6 1007/1/6
f 1007/1/6 1006/1/6 1008/1/6
f 1009/1/6 1010/1/6 1012/1/6
f 1010/4/6 1011/4/6 1013/4/6
f 1012/1/6 1010/1/6 1013/1/6
f 1013/4/6 1011/4/6 1014/4/6
f 1014/4/6 1011/4/6 1015/4/6
f 1016/1/6 1017/1/6 1020/1/6
f 1018/4/6 1019/4/6 1021/4/6
f 1020/1/6 1017/1/6 1021/1/6
f 1017/4/6 1018/4/6 1021/4/6
f 1021/4/6 1019/4/6 1022/4/6
f 1023/3/6 1024/3/6 1025/3/6
f 1025/3/6 1024/3/6 1026/3/6
f 1027/3/6 1028/3/6 1029/3/6
f 1029/3/6 1028/3/6 1030/3/6
f 1029/4/6 1030/4/6 1031/4/6
f 1031/4/6 1030/4/6 1032/4/6
f 1033/4/6 1034/4/6 1035/4/6
f 1035/4/6 1034/4/6 1036/4/6
f 1035/3/6 1036/3/6 1037/3/6
f 1037/3/6 1036/3/6 1038/3/6
f 1039/3/6 1040/3/6 1041/3/6
f 1041/3/6 1040/3/6 1042/3/6
f 1043/3/6 1044/3/6 1045/3/6
f 1045/3/6 1044/3/6 1046/3/6
f 1047/4/6 1048/4/6 1049/4/6
f 1049/4/6 1048/4/6 1050/4/6
f 1051/3/6 1052/3/6 1053/3/6
f 1053/3/6 1052/3/6 1054/3/6
