# MagicaVoxel @ Ephtracy

# group
o 

# material
mtllib spaceship_inside-12.mtl
usemtl palette

# normals
vn -1 0 0
vn 1 0 0
vn 0 0 1
vn 0 0 -1
vn 0 -1 0
vn 0 1 0

# texcoords
vt 0.142578 0.5
vt 0.958984 0.5
vt 0.970703 0.5

# verts
v -1.5 1.1 1.5
v -1.5 1.1 -1.5
v -1.5 1.2 1.5
v -1.5 1.2 -1.5
v -1.5 1.3 1.5
v -1.5 1.3 -1.5
v -1.5 1.4 1.5
v -1.5 1.4 -1.5
v -1.4 -1.4 1.4
v -1.4 -1.4 1.2
v -1.4 -1.4 -1.2
v -1.4 -1.4 -1.4
v -1.4 1.1 1.4
v -1.4 1.1 1.2
v -1.4 1.1 -1.2
v -1.4 1.1 -1.4
v 1.2 -1.4 1.4
v 1.2 -1.4 1.2
v 1.2 -1.4 -1.2
v 1.2 -1.4 -1.4
v 1.2 1.1 1.4
v 1.2 1.1 1.2
v 1.2 1.1 -1.2
v 1.2 1.1 -1.4
v -1.2 -1.4 1.4
v -1.2 -1.4 1.2
v -1.2 -1.4 -1.2
v -1.2 -1.4 -1.4
v -1.2 1.1 1.4
v -1.2 1.1 1.2
v -1.2 1.1 -1.2
v -1.2 1.1 -1.4
v 1.4 -1.4 1.4
v 1.4 -1.4 1.2
v 1.4 -1.4 -1.2
v 1.4 -1.4 -1.4
v 1.4 1.1 1.4
v 1.4 1.1 1.2
v 1.4 1.1 -1.2
v 1.4 1.1 -1.4
v 1.5 1.1 1.5
v 1.5 1.1 -1.5
v 1.5 1.2 1.5
v 1.5 1.2 -1.5
v 1.5 1.3 1.5
v 1.5 1.3 -1.5
v 1.5 1.4 1.5
v 1.5 1.4 -1.5
v -1.5 1.1 1.5
v -1.5 1.2 1.5
v -1.5 1.3 1.5
v -1.5 1.4 1.5
v 1.5 1.1 1.5
v 1.5 1.2 1.5
v 1.5 1.3 1.5
v 1.5 1.4 1.5
v -1.4 -1.4 1.4
v -1.4 1.1 1.4
v -1.2 -1.4 1.4
v -1.2 1.1 1.4
v 1.2 -1.4 1.4
v 1.2 1.1 1.4
v 1.4 -1.4 1.4
v 1.4 1.1 1.4
v -1.4 -1.4 -1.2
v -1.4 1.1 -1.2
v -1.2 -1.4 -1.2
v -1.2 1.1 -1.2
v 1.2 -1.4 -1.2
v 1.2 1.1 -1.2
v 1.4 -1.4 -1.2
v 1.4 1.1 -1.2
v -1.4 -1.4 1.2
v -1.4 1.1 1.2
v -1.2 -1.4 1.2
v -1.2 1.1 1.2
v 1.2 -1.4 1.2
v 1.2 1.1 1.2
v 1.4 -1.4 1.2
v 1.4 1.1 1.2
v -1.4 -1.4 -1.4
v -1.4 1.1 -1.4
v -1.2 -1.4 -1.4
v -1.2 1.1 -1.4
v 1.2 -1.4 -1.4
v 1.2 1.1 -1.4
v 1.4 -1.4 -1.4
v 1.4 1.1 -1.4
v -1.5 1.1 -1.5
v -1.5 1.2 -1.5
v -1.5 1.3 -1.5
v -1.5 1.4 -1.5
v 1.5 1.1 -1.5
v 1.5 1.2 -1.5
v 1.5 1.3 -1.5
v 1.5 1.4 -1.5
v -1.4 -1.4 1.4
v -1.2 -1.4 1.4
v 1.2 -1.4 1.4
v 1.4 -1.4 1.4
v -1.4 -1.4 1.2
v -1.2 -1.4 1.2
v 1.2 -1.4 1.2
v 1.4 -1.4 1.2
v -1.4 -1.4 -1.2
v -1.2 -1.4 -1.2
v 1.2 -1.4 -1.2
v 1.4 -1.4 -1.2
v -1.4 -1.4 -1.4
v -1.2 -1.4 -1.4
v 1.2 -1.4 -1.4
v 1.4 -1.4 -1.4
v -1.5 1.1 1.5
v 1.5 1.1 1.5
v -1.4 1.1 1.4
v -1.2 1.1 1.4
v 1.2 1.1 1.4
v 1.4 1.1 1.4
v -1.4 1.1 1.2
v -1.2 1.1 1.2
v 1.2 1.1 1.2
v 1.4 1.1 1.2
v -1.4 1.1 -1.2
v -1.2 1.1 -1.2
v 1.2 1.1 -1.2
v 1.4 1.1 -1.2
v -1.4 1.1 -1.4
v -1.2 1.1 -1.4
v 1.2 1.1 -1.4
v 1.4 1.1 -1.4
v -1.5 1.1 -1.5
v 1.5 1.1 -1.5
v -1.5 1.4 1.5
v 1.5 1.4 1.5
v -1.4 1.4 1.4
v 1.4 1.4 1.4
v -1.4 1.4 -1.4
v 1.4 1.4 -1.4
v -1.5 1.4 -1.5
v 1.5 1.4 -1.5

# faces
f 3/3/1 2/3/1 1/3/1
f 4/3/1 2/3/1 3/3/1
f 5/1/1 4/1/1 3/1/1
f 6/1/1 4/1/1 5/1/1
f 7/3/1 6/3/1 5/3/1
f 8/3/1 6/3/1 7/3/1
f 13/2/1 10/2/1 9/2/1
f 14/2/1 10/2/1 13/2/1
f 15/2/1 12/2/1 11/2/1
f 16/2/1 12/2/1 15/2/1
f 21/2/1 18/2/1 17/2/1
f 22/2/1 18/2/1 21/2/1
f 23/2/1 20/2/1 19/2/1
f 24/2/1 20/2/1 23/2/1
f 25/2/2 26/2/2 29/2/2
f 29/2/2 26/2/2 30/2/2
f 27/2/2 28/2/2 31/2/2
f 31/2/2 28/2/2 32/2/2
f 33/2/2 34/2/2 37/2/2
f 37/2/2 34/2/2 38/2/2
f 35/2/2 36/2/2 39/2/2
f 39/2/2 36/2/2 40/2/2
f 41/3/2 42/3/2 43/3/2
f 43/3/2 42/3/2 44/3/2
f 43/1/2 44/1/2 45/1/2
f 45/1/2 44/1/2 46/1/2
f 45/3/2 46/3/2 47/3/2
f 47/3/2 46/3/2 48/3/2
f 53/3/3 50/3/3 49/3/3
f 54/1/3 51/1/3 50/1/3
f 54/3/3 50/3/3 53/3/3
f 55/3/3 52/3/3 51/3/3
f 55/1/3 51/1/3 54/1/3
f 56/3/3 52/3/3 55/3/3
f 59/2/3 58/2/3 57/2/3
f 60/2/3 58/2/3 59/2/3
f 63/2/3 62/2/3 61/2/3
f 64/2/3 62/2/3 63/2/3
f 67/2/3 66/2/3 65/2/3
f 68/2/3 66/2/3 67/2/3
f 71/2/3 70/2/3 69/2/3
f 72/2/3 70/2/3 71/2/3
f 73/2/4 74/2/4 75/2/4
f 75/2/4 74/2/4 76/2/4
f 77/2/4 78/2/4 79/2/4
f 79/2/4 78/2/4 80/2/4
f 81/2/4 82/2/4 83/2/4
f 83/2/4 82/2/4 84/2/4
f 85/2/4 86/2/4 87/2/4
f 87/2/4 86/2/4 88/2/4
f 89/3/4 90/3/4 93/3/4
f 90/1/4 91/1/4 94/1/4
f 93/3/4 90/3/4 94/3/4
f 91/3/4 92/3/4 95/3/4
f 94/1/4 91/1/4 95/1/4
f 95/3/4 92/3/4 96/3/4
f 101/2/5 98/2/5 97/2/5
f 102/2/5 98/2/5 101/2/5
f 103/2/5 100/2/5 99/2/5
f 104/2/5 100/2/5 103/2/5
f 109/2/5 106/2/5 105/2/5
f 110/2/5 106/2/5 109/2/5
f 111/2/5 108/2/5 107/2/5
f 112/2/5 108/2/5 111/2/5
f 115/3/5 114/3/5 113/3/5
f 116/3/5 114/3/5 115/3/5
f 117/3/5 114/3/5 116/3/5
f 118/3/5 114/3/5 117/3/5
f 119/3/5 115/3/5 113/3/5
f 120/3/5 117/3/5 116/3/5
f 121/3/5 117/3/5 120/3/5
f 122/3/5 114/3/5 118/3/5
f 123/3/5 121/3/5 120/3/5
f 123/3/5 122/3/5 121/3/5
f 123/3/5 119/3/5 113/3/5
f 123/3/5 120/3/5 119/3/5
f 124/3/5 122/3/5 123/3/5
f 125/3/5 122/3/5 124/3/5
f 126/3/5 114/3/5 122/3/5
f 126/3/5 122/3/5 125/3/5
f 127/3/5 123/3/5 113/3/5
f 128/3/5 125/3/5 124/3/5
f 129/3/5 125/3/5 128/3/5
f 130/3/5 114/3/5 126/3/5
f 131/3/5 127/3/5 113/3/5
f 131/3/5 130/3/5 129/3/5
f 131/3/5 129/3/5 128/3/5
f 131/3/5 128/3/5 127/3/5
f 132/3/5 114/3/5 130/3/5
f 132/3/5 130/3/5 131/3/5
f 133/3/6 134/3/6 135/3/6
f 135/3/6 134/3/6 136/3/6
f 133/3/6 135/3/6 137/3/6
f 135/2/6 136/2/6 137/2/6
f 136/3/6 134/3/6 138/3/6
f 137/2/6 136/2/6 138/2/6
f 133/3/6 137/3/6 139/3/6
f 137/3/6 138/3/6 139/3/6
f 138/3/6 134/3/6 140/3/6
f 139/3/6 138/3/6 140/3/6
