# MagicaVoxel @ Ephtracy

# group
o 

# material
mtllib lab_decorations-0.mtl
usemtl palette

# normals
vn -1 0 0
vn 1 0 0
vn 0 0 1
vn 0 0 -1
vn 0 -1 0
vn 0 1 0

# texcoords
vt 0.955078 0.5
vt 0.962891 0.5

# verts
v -0.5 -0.2 0.65
v -0.5 -0.2 -0.75
v -0.5 -0.1 0.75
v -0.5 -0.1 0.65
v -0.5 -0.1 -0.55
v -0.5 0.1 0.75
v -0.5 0.1 0.65
v -0.5 0.1 -0.55
v -0.5 0.2 0.65
v -0.5 0.2 -0.75
v -0.4 -0.2 0.75
v -0.4 -0.2 0.65
v -0.4 -0.1 0.75
v -0.4 -0.1 0.65
v -0.4 -0.1 -0.55
v -0.4 0.1 0.75
v -0.4 0.1 0.65
v -0.4 0.1 -0.55
v -0.4 0.2 0.75
v -0.4 0.2 0.65
v 0.2 0 0.05
v 0.2 0 -0.05
v 0.2 0.1 0.05
v 0.2 0.1 -0.05
v 0.3 -0.1 -0.55
v 0.3 -0.1 -0.65
v 0.3 0.1 0.05
v 0.3 0.1 -0.05
v 0.3 0.1 -0.55
v 0.3 0.1 -0.65
v 0.3 0.2 0.05
v 0.3 0.2 -0.05
v 0.4 -0.2 -0.65
v 0.4 -0.2 -0.75
v 0.4 0.2 -0.65
v 0.4 0.2 -0.75
v -0.4 -0.2 -0.65
v -0.4 -0.2 -0.75
v -0.4 -0.1 0.75
v -0.4 -0.1 0.65
v -0.4 0.1 0.75
v -0.4 0.1 0.65
v -0.4 0.2 -0.65
v -0.4 0.2 -0.75
v -0.3 -0.1 -0.55
v -0.3 -0.1 -0.65
v -0.3 0.1 0.75
v -0.3 0.1 0.65
v -0.3 0.1 -0.55
v -0.3 0.1 -0.65
v -0.3 0.2 0.75
v -0.3 0.2 0.65
v -0.2 -0.2 0.75
v -0.2 -0.2 0.65
v -0.2 -0.1 0.75
v -0.2 -0.1 0.65
v -0.2 -0.1 0.55
v -0.2 0.1 0.55
v -0.2 0.1 0.25
v -0.2 0.2 0.65
v -0.2 0.2 0.25
v -0.1 -0.2 0.65
v -0.1 -0.2 0.55
v -0.1 -0.1 0.65
v -0.1 -0.1 0.55
v -0.1 -0.1 0.45
v -0.1 0 0.45
v -0.1 0 0.25
v -0.1 0.1 0.55
v -0.1 0.1 0.25
v -0.1 0.1 0.15
v -0.1 0.2 0.25
v -0.1 0.2 0.15
v 0 -0.2 0.55
v 0 -0.2 0.35
v 0 -0.1 0.55
v 0 -0.1 0.45
v 0 0 0.45
v 0 0 0.35
v 0 0 0.25
v 0 0 0.15
v 0 0.1 0.25
v 0 0.1 0.15
v 0 0.1 -0.05
v 0 0.2 0.15
v 0 0.2 -0.05
v 0.1 -0.2 0.35
v 0.1 -0.2 0.25
v 0.1 0 0.35
v 0.1 0 0.25
v 0.1 0 0.05
v 0.1 0 -0.05
v 0.1 0.1 0.05
v 0.1 0.1 -0.05
v 0.2 -0.1 0.25
v 0.2 -0.1 0.15
v 0.2 0 0.25
v 0.2 0 0.15
v 0.3 -0.2 0.25
v 0.3 -0.2 0.15
v 0.3 -0.1 0.25
v 0.3 -0.1 0.15
v 0.3 -0.1 0.05
v 0.3 0 0.15
v 0.3 0 0.05
v 0.4 -0.1 0.05
v 0.4 -0.1 -0.55
v 0.4 0 0.15
v 0.4 0 0.05
v 0.4 0.1 0.15
v 0.4 0.1 0.05
v 0.4 0.1 -0.15
v 0.4 0.1 -0.55
v 0.4 0.2 0.05
v 0.4 0.2 -0.15
v 0.5 -0.2 0.15
v 0.5 -0.2 -0.75
v 0.5 -0.1 0.15
v 0.5 -0.1 -0.55
v 0.5 0.1 -0.15
v 0.5 0.1 -0.55
v 0.5 0.2 -0.15
v 0.5 0.2 -0.75
v -0.5 -0.1 0.75
v -0.5 0.1 0.75
v -0.4 -0.2 0.75
v -0.4 -0.1 0.75
v -0.4 0.1 0.75
v -0.4 0.2 0.75
v -0.3 0.1 0.75
v -0.3 0.2 0.75
v -0.2 -0.2 0.75
v -0.2 -0.1 0.75
v -0.5 -0.2 0.65
v -0.5 -0.1 0.65
v -0.5 0.1 0.65
v -0.5 0.2 0.65
v -0.4 -0.2 0.65
v -0.4 -0.1 0.65
v -0.4 0.1 0.65
v -0.4 0.2 0.65
v -0.3 0.1 0.65
v -0.3 0.2 0.65
v -0.2 -0.2 0.65
v -0.2 -0.1 0.65
v -0.2 0.2 0.65
v -0.1 -0.2 0.65
v -0.1 -0.1 0.65
v -0.2 -0.1 0.55
v -0.2 0.1 0.55
v -0.1 -0.2 0.55
v -0.1 -0.1 0.55
v -0.1 0.1 0.55
v 0 -0.2 0.55
v 0 -0.1 0.55
v -0.1 -0.1 0.45
v -0.1 0 0.45
v 0 -0.1 0.45
v 0 0 0.45
v 0 -0.2 0.35
v 0 0 0.35
v 0.1 -0.2 0.35
v 0.1 0 0.35
v -0.2 0.1 0.25
v -0.2 0.2 0.25
v -0.1 0 0.25
v -0.1 0.1 0.25
v -0.1 0.2 0.25
v 0 0 0.25
v 0 0.1 0.25
v 0.1 -0.2 0.25
v 0.1 0 0.25
v 0.2 -0.1 0.25
v 0.2 0 0.25
v 0.3 -0.2 0.25
v 0.3 -0.1 0.25
v -0.1 0.1 0.15
v -0.1 0.2 0.15
v 0 0 0.15
v 0 0.1 0.15
v 0 0.2 0.15
v 0.2 -0.1 0.15
v 0.2 0 0.15
v 0.3 -0.2 0.15
v 0.3 -0.1 0.15
v 0.3 0 0.15
v 0.4 -0.2 0.15
v 0.4 -0.1 0.15
v 0.4 0 0.15
v 0.4 0.1 0.15
v 0.5 -0.2 0.15
v 0.5 -0.1 0.15
v 0.3 -0.1 0.05
v 0.3 0 0.05
v 0.3 0.1 0.05
v 0.3 0.2 0.05
v 0.4 -0.1 0.05
v 0.4 0 0.05
v 0.4 0.1 0.05
v 0.4 0.2 0.05
v 0 0.1 -0.05
v 0 0.2 -0.05
v 0.1 0 -0.05
v 0.1 0.1 -0.05
v 0.2 0 -0.05
v 0.2 0.1 -0.05
v 0.3 0.1 -0.05
v 0.3 0.2 -0.05
v 0.4 0.1 -0.15
v 0.4 0.2 -0.15
v 0.5 0.1 -0.15
v 0.5 0.2 -0.15
v -0.5 -0.1 -0.55
v -0.5 0.1 -0.55
v -0.4 -0.1 -0.55
v -0.4 0.1 -0.55
v 0.4 -0.1 -0.55
v 0.4 0.1 -0.55
v 0.5 -0.1 -0.55
v 0.5 0.1 -0.55
v -0.5 -0.1 0.65
v -0.5 0.1 0.65
v -0.4 -0.1 0.65
v -0.4 0.1 0.65
v 0.1 0 0.05
v 0.1 0.1 0.05
v 0.2 0 0.05
v 0.2 0.1 0.05
v -0.3 -0.1 -0.55
v -0.3 0.1 -0.55
v 0.3 -0.1 -0.55
v 0.3 0.1 -0.55
v -0.4 -0.2 -0.65
v -0.4 0.2 -0.65
v -0.3 -0.1 -0.65
v -0.3 0.1 -0.65
v 0.3 -0.1 -0.65
v 0.3 0.1 -0.65
v 0.4 -0.2 -0.65
v 0.4 0.2 -0.65
v -0.5 -0.2 -0.75
v -0.5 0.2 -0.75
v -0.4 -0.2 -0.75
v -0.4 0.2 -0.75
v 0.4 -0.2 -0.75
v 0.4 0.2 -0.75
v 0.5 -0.2 -0.75
v 0.5 0.2 -0.75
v -0.4 -0.2 0.75
v -0.2 -0.2 0.75
v -0.5 -0.2 0.65
v -0.4 -0.2 0.65
v -0.2 -0.2 0.65
v -0.1 -0.2 0.65
v -0.1 -0.2 0.55
v 0 -0.2 0.55
v 0 -0.2 0.35
v 0.1 -0.2 0.35
v 0.1 -0.2 0.25
v 0.3 -0.2 0.25
v 0.3 -0.2 0.15
v 0.4 -0.2 0.15
v 0.5 -0.2 0.15
v -0.4 -0.2 -0.55
v 0.4 -0.2 -0.55
v -0.4 -0.2 -0.65
v 0.4 -0.2 -0.65
v -0.5 -0.2 -0.75
v -0.4 -0.2 -0.75
v 0.4 -0.2 -0.75
v 0.5 -0.2 -0.75
v -0.5 -0.1 0.75
v -0.4 -0.1 0.75
v -0.5 -0.1 0.65
v -0.4 -0.1 0.65
v 0.3 0 0.15
v 0.4 0 0.15
v 0.3 0 0.05
v 0.4 0 0.05
v -0.4 0.1 0.75
v -0.3 0.1 0.75
v -0.5 0.1 0.65
v -0.4 0.1 0.65
v -0.3 0.1 0.65
v 0.4 0.1 -0.15
v 0.5 0.1 -0.15
v -0.5 0.1 -0.55
v -0.4 0.1 -0.55
v -0.3 0.1 -0.55
v 0.3 0.1 -0.55
v 0.4 0.1 -0.55
v 0.5 0.1 -0.55
v -0.3 0.1 -0.65
v 0.3 0.1 -0.65
v -0.4 -0.1 0.75
v -0.2 -0.1 0.75
v -0.5 -0.1 0.65
v -0.4 -0.1 0.65
v -0.2 -0.1 0.65
v -0.1 -0.1 0.65
v -0.2 -0.1 0.55
v -0.1 -0.1 0.55
v 0 -0.1 0.55
v -0.1 -0.1 0.45
v 0 -0.1 0.45
v 0.2 -0.1 0.25
v 0.3 -0.1 0.25
v 0.2 -0.1 0.15
v 0.3 -0.1 0.15
v 0.4 -0.1 0.15
v 0.5 -0.1 0.15
v 0.3 -0.1 0.05
v 0.4 -0.1 0.05
v -0.5 -0.1 -0.55
v -0.4 -0.1 -0.55
v -0.3 -0.1 -0.55
v 0.3 -0.1 -0.55
v 0.4 -0.1 -0.55
v 0.5 -0.1 -0.55
v -0.3 -0.1 -0.65
v 0.3 -0.1 -0.65
v -0.1 0 0.45
v 0 0 0.45
v 0 0 0.35
v 0.1 0 0.35
v -0.1 0 0.25
v 0 0 0.25
v 0.1 0 0.25
v 0.2 0 0.25
v 0 0 0.15
v 0.2 0 0.15
v 0.1 0 0.05
v 0.2 0 0.05
v 0.1 0 -0.05
v 0.2 0 -0.05
v -0.5 0.1 0.75
v -0.4 0.1 0.75
v -0.5 0.1 0.65
v -0.4 0.1 0.65
v -0.2 0.1 0.55
v -0.1 0.1 0.55
v -0.2 0.1 0.25
v -0.1 0.1 0.25
v 0 0.1 0.25
v -0.1 0.1 0.15
v 0 0.1 0.15
v 0.4 0.1 0.15
v 0.1 0.1 0.05
v 0.2 0.1 0.05
v 0.3 0.1 0.05
v 0.4 0.1 0.05
v 0 0.1 -0.05
v 0.1 0.1 -0.05
v 0.2 0.1 -0.05
v 0.3 0.1 -0.05
v -0.4 0.2 0.75
v -0.3 0.2 0.75
v -0.5 0.2 0.65
v -0.4 0.2 0.65
v -0.3 0.2 0.65
v -0.2 0.2 0.65
v -0.2 0.2 0.25
v -0.1 0.2 0.25
v -0.1 0.2 0.15
v 0 0.2 0.15
v 0.3 0.2 0.05
v 0.4 0.2 0.05
v 0 0.2 -0.05
v 0.3 0.2 -0.05
v 0.4 0.2 -0.15
v 0.5 0.2 -0.15
v -0.4 0.2 -0.55
v 0.4 0.2 -0.55
v -0.4 0.2 -0.65
v 0.4 0.2 -0.65
v -0.5 0.2 -0.75
v -0.4 0.2 -0.75
v 0.4 0.2 -0.75
v 0.5 0.2 -0.75

# faces
f 4/2/1 2/2/1 1/2/1
f 5/2/1 2/2/1 4/2/1
f 6/2/1 4/2/1 3/2/1
f 7/2/1 4/2/1 6/2/1
f 8/2/1 2/2/1 5/2/1
f 9/2/1 8/2/1 7/2/1
f 10/2/1 2/2/1 8/2/1
f 10/2/1 8/2/1 9/2/1
f 13/2/1 12/2/1 11/2/1
f 14/2/1 12/2/1 13/2/1
f 17/1/1 15/1/1 14/1/1
f 18/1/1 15/1/1 17/1/1
f 19/2/1 17/2/1 16/2/1
f 20/2/1 17/2/1 19/2/1
f 23/1/1 22/1/1 21/1/1
f 24/1/1 22/1/1 23/1/1
f 29/2/1 26/2/1 25/2/1
f 30/2/1 26/2/1 29/2/1
f 31/1/1 28/1/1 27/1/1
f 32/1/1 28/1/1 31/1/1
f 35/2/1 34/2/1 33/2/1
f 36/2/1 34/2/1 35/2/1
f 39/2/2 40/2/2 41/2/2
f 41/2/2 40/2/2 42/2/2
f 37/2/2 38/2/2 43/2/2
f 43/2/2 38/2/2 44/2/2
f 45/2/2 46/2/2 49/2/2
f 49/2/2 46/2/2 50/2/2
f 47/2/2 48/2/2 51/2/2
f 51/2/2 48/2/2 52/2/2
f 53/2/2 54/2/2 55/2/2
f 55/2/2 54/2/2 56/2/2
f 56/1/2 57/1/2 58/1/2
f 56/1/2 58/1/2 60/1/2
f 58/1/2 59/1/2 60/1/2
f 60/1/2 59/1/2 61/1/2
f 62/1/2 63/1/2 64/1/2
f 64/1/2 63/1/2 65/1/2
f 65/1/2 66/1/2 67/1/2
f 65/1/2 67/1/2 69/1/2
f 67/1/2 68/1/2 69/1/2
f 69/1/2 68/1/2 70/1/2
f 70/1/2 71/1/2 72/1/2
f 72/1/2 71/1/2 73/1/2
f 74/1/2 75/1/2 76/1/2
f 76/1/2 75/1/2 77/1/2
f 77/1/2 75/1/2 78/1/2
f 78/1/2 75/1/2 79/1/2
f 80/1/2 81/1/2 82/1/2
f 82/1/2 81/1/2 83/1/2
f 83/1/2 84/1/2 85/1/2
f 85/1/2 84/1/2 86/1/2
f 87/1/2 88/1/2 89/1/2
f 89/1/2 88/1/2 90/1/2
f 91/1/2 92/1/2 93/1/2
f 93/1/2 92/1/2 94/1/2
f 95/1/2 96/1/2 97/1/2
f 97/1/2 96/1/2 98/1/2
f 99/1/2 100/1/2 101/1/2
f 101/1/2 100/1/2 102/1/2
f 102/1/2 103/1/2 104/1/2
f 104/1/2 103/1/2 105/1/2
f 106/1/2 107/1/2 109/1/2
f 108/1/2 109/1/2 110/1/2
f 109/1/2 107/1/2 111/1/2
f 110/1/2 109/1/2 111/1/2
f 111/1/2 107/1/2 112/1/2
f 112/1/2 107/1/2 113/1/2
f 111/1/2 112/1/2 114/1/2
f 114/1/2 112/1/2 115/1/2
f 116/2/2 117/2/2 118/2/2
f 118/2/2 117/2/2 119/2/2
f 119/2/2 117/2/2 121/2/2
f 120/2/2 121/2/2 122/2/2
f 121/2/2 117/2/2 123/2/2
f 122/2/2 121/2/2 123/2/2
f 127/2/3 125/2/3 124/2/3
f 128/2/3 125/2/3 127/2/3
f 130/2/3 129/2/3 128/2/3
f 131/2/3 129/2/3 130/2/3
f 132/2/3 127/2/3 126/2/3
f 133/2/3 127/2/3 132/2/3
f 138/2/3 135/2/3 134/2/3
f 139/2/3 135/2/3 138/2/3
f 140/2/3 137/2/3 136/2/3
f 141/2/3 137/2/3 140/2/3
f 142/1/3 140/1/3 139/1/3
f 145/1/3 142/1/3 139/1/3
f 145/1/3 143/1/3 142/1/3
f 146/1/3 143/1/3 145/1/3
f 147/1/3 145/1/3 144/1/3
f 148/1/3 145/1/3 147/1/3
f 152/1/3 150/1/3 149/1/3
f 153/1/3 150/1/3 152/1/3
f 154/1/3 152/1/3 151/1/3
f 155/1/3 152/1/3 154/1/3
f 158/1/3 157/1/3 156/1/3
f 159/1/3 157/1/3 158/1/3
f 162/1/3 161/1/3 160/1/3
f 163/1/3 161/1/3 162/1/3
f 167/1/3 165/1/3 164/1/3
f 168/1/3 165/1/3 167/1/3
f 169/1/3 167/1/3 166/1/3
f 170/1/3 167/1/3 169/1/3
f 173/1/3 172/1/3 171/1/3
f 174/1/3 172/1/3 173/1/3
f 175/1/3 173/1/3 171/1/3
f 176/1/3 173/1/3 175/1/3
f 180/1/3 178/1/3 177/1/3
f 181/1/3 178/1/3 180/1/3
f 183/1/3 180/1/3 179/1/3
f 185/1/3 183/1/3 182/1/3
f 186/1/3 180/1/3 183/1/3
f 186/1/3 183/1/3 185/1/3
f 187/1/3 185/1/3 184/1/3
f 188/1/3 185/1/3 187/1/3
f 189/1/3 180/1/3 186/1/3
f 190/1/3 180/1/3 189/1/3
f 191/2/3 188/2/3 187/2/3
f 192/2/3 188/2/3 191/2/3
f 197/1/3 194/1/3 193/1/3
f 198/1/3 194/1/3 197/1/3
f 199/1/3 196/1/3 195/1/3
f 200/1/3 196/1/3 199/1/3
f 204/1/3 202/1/3 201/1/3
f 205/1/3 204/1/3 203/1/3
f 206/1/3 202/1/3 204/1/3
f 206/1/3 204/1/3 205/1/3
f 207/1/3 202/1/3 206/1/3
f 208/1/3 202/1/3 207/1/3
f 211/2/3 210/2/3 209/2/3
f 212/2/3 210/2/3 211/2/3
f 215/2/3 214/2/3 213/2/3
f 216/2/3 214/2/3 215/2/3
f 219/2/3 218/2/3 217/2/3
f 220/2/3 218/2/3 219/2/3
f 221/2/4 222/2/4 223/2/4
f 223/2/4 222/2/4 224/2/4
f 225/1/4 226/1/4 227/1/4
f 227/1/4 226/1/4 228/1/4
f 229/1/4 230/1/4 231/1/4
f 231/1/4 230/1/4 232/1/4
f 233/2/4 234/2/4 235/2/4
f 235/2/4 234/2/4 236/2/4
f 233/2/4 235/2/4 237/2/4
f 236/2/4 234/2/4 238/2/4
f 233/2/4 237/2/4 239/2/4
f 237/2/4 238/2/4 239/2/4
f 238/2/4 234/2/4 240/2/4
f 239/2/4 238/2/4 240/2/4
f 241/2/4 242/2/4 243/2/4
f 243/2/4 242/2/4 244/2/4
f 245/2/4 246/2/4 247/2/4
f 247/2/4 246/2/4 248/2/4
f 252/2/5 250/2/5 249/2/5
f 253/2/5 250/2/5 252/2/5
f 255/1/5 253/1/5 252/1/5
f 255/1/5 254/1/5 253/1/5
f 257/1/5 256/1/5 255/1/5
f 259/1/5 258/1/5 257/1/5
f 261/1/5 260/1/5 259/1/5
f 264/2/5 252/2/5 251/2/5
f 264/1/5 255/1/5 252/1/5
f 264/1/5 262/1/5 261/1/5
f 264/1/5 261/1/5 259/1/5
f 264/1/5 259/1/5 257/1/5
f 264/1/5 257/1/5 255/1/5
f 265/2/5 263/2/5 262/2/5
f 265/1/5 262/1/5 264/1/5
f 266/2/5 264/2/5 251/2/5
f 266/2/5 265/2/5 264/2/5
f 267/2/5 263/2/5 265/2/5
f 267/2/5 265/2/5 266/2/5
f 268/2/5 266/2/5 251/2/5
f 269/2/5 266/2/5 268/2/5
f 270/2/5 263/2/5 267/2/5
f 271/2/5 263/2/5 270/2/5
f 274/2/5 273/2/5 272/2/5
f 275/2/5 273/2/5 274/2/5
f 278/1/5 277/1/5 276/1/5
f 279/1/5 277/1/5 278/1/5
f 283/2/5 281/2/5 280/2/5
f 284/2/5 281/2/5 283/2/5
f 287/2/5 283/2/5 282/2/5
f 288/2/5 283/2/5 287/2/5
f 291/2/5 286/2/5 285/2/5
f 292/2/5 286/2/5 291/2/5
f 293/2/5 290/2/5 289/2/5
f 294/2/5 290/2/5 293/2/5
f 295/2/6 296/2/6 298/2/6
f 298/2/6 296/2/6 299/2/6
f 299/1/6 300/1/6 301/1/6
f 301/1/6 300/1/6 302/1/6
f 302/1/6 303/1/6 304/1/6
f 304/1/6 303/1/6 305/1/6
f 306/1/6 307/1/6 308/1/6
f 308/1/6 307/1/6 309/1/6
f 309/1/6 310/1/6 312/1/6
f 310/2/6 311/2/6 313/2/6
f 312/1/6 310/1/6 313/1/6
f 297/2/6 298/2/6 314/2/6
f 314/2/6 298/2/6 315/2/6
f 313/2/6 311/2/6 318/2/6
f 318/2/6 311/2/6 319/2/6
f 316/2/6 317/2/6 320/2/6
f 320/2/6 317/2/6 321/2/6
f 322/1/6 323/1/6 324/1/6
f 322/1/6 324/1/6 326/1/6
f 324/1/6 325/1/6 326/1/6
f 326/1/6 325/1/6 327/1/6
f 327/1/6 325/1/6 328/1/6
f 328/1/6 329/1/6 330/1/6
f 327/1/6 328/1/6 330/1/6
f 330/1/6 329/1/6 331/1/6
f 332/1/6 333/1/6 334/1/6
f 334/1/6 333/1/6 335/1/6
f 336/2/6 337/2/6 338/2/6
f 338/2/6 337/2/6 339/2/6
f 340/1/6 341/1/6 342/1/6
f 342/1/6 341/1/6 343/1/6
f 343/1/6 344/1/6 345/1/6
f 345/1/6 344/1/6 346/1/6
f 346/1/6 347/1/6 348/1/6
f 348/1/6 347/1/6 349/1/6
f 349/1/6 347/1/6 350/1/6
f 350/1/6 347/1/6 351/1/6
f 346/1/6 348/1/6 352/1/6
f 352/1/6 348/1/6 353/1/6
f 349/1/6 350/1/6 354/1/6
f 354/1/6 350/1/6 355/1/6
f 356/2/6 357/2/6 359/2/6
f 359/2/6 357/2/6 360/2/6
f 359/1/6 360/1/6 362/1/6
f 360/1/6 361/1/6 362/1/6
f 362/1/6 363/1/6 364/1/6
f 364/1/6 365/1/6 368/1/6
f 366/1/6 367/1/6 369/1/6
f 369/1/6 367/1/6 370/1/6
f 368/1/6 369/1/6 370/1/6
f 358/2/6 359/2/6 372/2/6
f 359/1/6 362/1/6 372/1/6
f 368/1/6 370/1/6 372/1/6
f 362/1/6 364/1/6 372/1/6
f 364/1/6 368/1/6 372/1/6
f 370/2/6 371/2/6 373/2/6
f 372/1/6 370/1/6 373/1/6
f 358/2/6 372/2/6 374/2/6
f 372/2/6 373/2/6 374/2/6
f 373/2/6 371/2/6 375/2/6
f 374/2/6 373/2/6 375/2/6
f 358/2/6 374/2/6 376/2/6
f 376/2/6 374/2/6 377/2/6
f 375/2/6 371/2/6 378/2/6
f 378/2/6 371/2/6 379/2/6
