# MagicaVoxel @ Ephtracy

# group
o 

# material
mtllib lab_decorations-7.mtl
usemtl palette

# normals
vn -1 0 0
vn 1 0 0
vn 0 0 1
vn 0 0 -1
vn 0 -1 0
vn 0 1 0

# texcoords
vt 0.955078 0.5
vt 0.962891 0.5

# verts
v -1.2 -0.6 0.1
v -1.2 -0.6 -0.1
v -1.2 0 0.1
v -1.2 0 -0.1
v -1.2 0.3 0.1
v -1.2 0.3 -0.1
v -1.2 0.6 0.1
v -1.2 0.6 -0.1
v -1.1 -0.7 0.1
v -1.1 -0.7 -0.1
v -1.1 -0.6 0.1
v -1.1 -0.6 -0.1
v -1.1 0.2 0.1
v -1.1 0.2 0
v -1.1 0.3 0.1
v -1.1 0.3 0
v -1.1 0.6 0.1
v -1.1 0.6 -0.1
v -1.1 0.7 0.1
v -1.1 0.7 -0.1
v -1 0.2 0
v -1 0.2 -0.1
v -1 0.3 0
v -1 0.3 -0.1
v -0.9 -0.1 0
v -0.9 -0.1 -0.1
v -0.9 0 0
v -0.9 0 -0.1
v -0.9 0.1 0.1
v -0.9 0.1 0
v -0.9 0.2 0.1
v -0.9 0.2 0
v -0.8 0 0.1
v -0.8 0 0
v -0.8 0.1 0.1
v -0.8 0.1 0
v -0.8 0.1 -0.1
v -0.8 0.2 0
v -0.8 0.2 -0.1
v -0.7 0 0
v -0.7 0 -0.1
v -0.7 0.1 0
v -0.7 0.1 -0.1
v -1 -0.1 0
v -1 -0.1 -0.1
v -1 0 0
v -1 0 -0.1
v 0.9 -0.7 0.1
v 0.9 -0.7 -0.1
v 0.9 -0.6 0.1
v 0.9 -0.6 0
v 0.9 -0.6 -0.1
v 0.9 -0.5 0
v 0.9 -0.5 -0.1
v 1 -0.6 0.1
v 1 -0.6 0
v 1 -0.5 0.1
v 1 -0.5 0
v 1 -0.5 -0.1
v 1 -0.4 0
v 1 -0.4 -0.1
v 1.1 -0.5 0.1
v 1.1 -0.5 0
v 1.1 -0.4 0.1
v 1.1 -0.4 0
v 1.1 0.6 0.1
v 1.1 0.6 -0.1
v 1.1 0.7 0.1
v 1.1 0.7 -0.1
v 1.2 -0.4 0.1
v 1.2 -0.4 -0.1
v 1.2 0.6 0.1
v 1.2 0.6 -0.1
v -1.2 -0.6 0.1
v -1.2 0 0.1
v -1.2 0.3 0.1
v -1.2 0.6 0.1
v -1.1 -0.7 0.1
v -1.1 -0.6 0.1
v -1.1 0.2 0.1
v -1.1 0.3 0.1
v -1.1 0.6 0.1
v -1.1 0.7 0.1
v -0.9 0.1 0.1
v -0.9 0.2 0.1
v -0.8 0 0.1
v -0.8 0.1 0.1
v 0.9 -0.7 0.1
v 0.9 -0.6 0.1
v 1 -0.6 0.1
v 1 -0.5 0.1
v 1.1 -0.5 0.1
v 1.1 -0.4 0.1
v 1.1 0.6 0.1
v 1.1 0.7 0.1
v 1.2 -0.4 0.1
v 1.2 0.6 0.1
v -1.1 0.2 0
v -1.1 0.3 0
v -1 -0.1 0
v -1 0 0
v -1 0.2 0
v -1 0.3 0
v -0.9 -0.1 0
v -0.9 0 0
v -0.9 0.1 0
v -0.9 0.2 0
v -0.8 0 0
v -0.8 0.1 0
v -0.8 0.2 0
v -0.7 0 0
v -0.7 0.1 0
v 0.9 -0.6 0
v 0.9 -0.5 0
v 1 -0.6 0
v 1 -0.5 0
v 1 -0.4 0
v 1.1 -0.5 0
v 1.1 -0.4 0
v -1.2 -0.6 -0.1
v -1.2 0 -0.1
v -1.2 0.3 -0.1
v -1.2 0.6 -0.1
v -1.1 -0.7 -0.1
v -1.1 -0.6 -0.1
v -1.1 0 -0.1
v -1.1 0.3 -0.1
v -1.1 0.6 -0.1
v -1.1 0.7 -0.1
v -1 -0.1 -0.1
v -1 0 -0.1
v -1 0.2 -0.1
v -1 0.3 -0.1
v -0.9 -0.1 -0.1
v -0.9 0 -0.1
v -0.8 0.1 -0.1
v -0.8 0.2 -0.1
v -0.7 0 -0.1
v -0.7 0.1 -0.1
v 0.9 -0.7 -0.1
v 0.9 -0.6 -0.1
v 0.9 -0.5 -0.1
v 1 -0.5 -0.1
v 1 -0.4 -0.1
v 1.1 -0.4 -0.1
v 1.1 0.6 -0.1
v 1.1 0.7 -0.1
v 1.2 -0.4 -0.1
v 1.2 0.6 -0.1
v -1.1 -0.7 0.1
v 0.9 -0.7 0.1
v -1.1 -0.7 -0.1
v 0.9 -0.7 -0.1
v -1.2 -0.6 0.1
v -1.1 -0.6 0.1
v 0.9 -0.6 0.1
v 1 -0.6 0.1
v 0.9 -0.6 0
v 1 -0.6 0
v -1.2 -0.6 -0.1
v -1.1 -0.6 -0.1
v 1 -0.5 0.1
v 1.1 -0.5 0.1
v 0.9 -0.5 0
v 1 -0.5 0
v 1.1 -0.5 0
v 0.9 -0.5 -0.1
v 1 -0.5 -0.1
v 1.1 -0.4 0.1
v 1.2 -0.4 0.1
v 1 -0.4 0
v 1.1 -0.4 0
v 1 -0.4 -0.1
v 1.1 -0.4 -0.1
v 1.2 -0.4 -0.1
v -0.9 0.1 0.1
v -0.8 0.1 0.1
v -0.9 0.1 0
v -0.8 0.1 0
v -0.7 0.1 0
v -0.8 0.1 -0.1
v -0.7 0.1 -0.1
v -1.1 0.2 0.1
v -0.9 0.2 0.1
v -1.1 0.2 0
v -1 0.2 0
v -0.9 0.2 0
v -0.8 0.2 0
v -1 0.2 -0.1
v -0.8 0.2 -0.1
v -1.2 0.3 0.1
v -1.1 0.3 0.1
v -1.1 0.3 0
v -1 0.3 0
v -1.2 0.3 -0.1
v -1.1 0.3 -0.1
v -1 0.3 -0.1
v -1 -0.1 0
v -0.9 -0.1 0
v -1 -0.1 -0.1
v -0.9 -0.1 -0.1
v -1.2 0 0.1
v -0.8 0 0.1
v -1.1 0 0
v -1 0 0
v -0.9 0 0
v -0.8 0 0
v -0.7 0 0
v -1.2 0 -0.1
v -1.1 0 -0.1
v -1 0 -0.1
v -0.9 0 -0.1
v -0.7 0 -0.1
v -1.2 0.6 0.1
v -1.1 0.6 0.1
v 1.1 0.6 0.1
v 1.2 0.6 0.1
v -1.2 0.6 -0.1
v -1.1 0.6 -0.1
v 1.1 0.6 -0.1
v 1.2 0.6 -0.1
v -1.1 0.7 0.1
v 1.1 0.7 0.1
v -1.1 0.7 -0.1
v 1.1 0.7 -0.1

# faces
f 3/2/1 2/2/1 1/2/1
f 4/2/1 2/2/1 3/2/1
f 7/2/1 6/2/1 5/2/1
f 8/2/1 6/2/1 7/2/1
f 11/2/1 10/2/1 9/2/1
f 12/2/1 10/2/1 11/2/1
f 15/2/1 14/2/1 13/2/1
f 16/2/1 14/2/1 15/2/1
f 19/2/1 18/2/1 17/2/1
f 20/2/1 18/2/1 19/2/1
f 23/1/1 22/1/1 21/1/1
f 24/1/1 22/1/1 23/1/1
f 27/1/1 26/1/1 25/1/1
f 28/1/1 26/1/1 27/1/1
f 31/2/1 30/2/1 29/2/1
f 32/2/1 30/2/1 31/2/1
f 35/2/1 34/2/1 33/2/1
f 36/2/1 34/2/1 35/2/1
f 38/1/1 37/1/1 36/1/1
f 39/1/1 37/1/1 38/1/1
f 42/1/1 41/1/1 40/1/1
f 43/1/1 41/1/1 42/1/1
f 44/1/2 45/1/2 46/1/2
f 46/1/2 45/1/2 47/1/2
f 48/2/2 49/2/2 50/2/2
f 50/2/2 49/2/2 51/2/2
f 51/2/2 49/2/2 52/2/2
f 51/1/2 52/1/2 53/1/2
f 53/1/2 52/1/2 54/1/2
f 55/2/2 56/2/2 57/2/2
f 57/2/2 56/2/2 58/2/2
f 58/1/2 59/1/2 60/1/2
f 60/1/2 59/1/2 61/1/2
f 62/2/2 63/2/2 64/2/2
f 64/2/2 63/2/2 65/2/2
f 66/2/2 67/2/2 68/2/2
f 68/2/2 67/2/2 69/2/2
f 70/2/2 71/2/2 72/2/2
f 72/2/2 71/2/2 73/2/2
f 79/2/3 75/2/3 74/2/3
f 81/2/3 77/2/3 76/2/3
f 82/2/3 77/2/3 81/2/3
f 85/2/3 81/2/3 80/2/3
f 85/2/3 83/2/3 82/2/3
f 85/2/3 82/2/3 81/2/3
f 86/2/3 79/2/3 78/2/3
f 86/2/3 75/2/3 79/2/3
f 87/2/3 85/2/3 84/2/3
f 88/2/3 86/2/3 78/2/3
f 88/2/3 87/2/3 86/2/3
f 89/2/3 87/2/3 88/2/3
f 90/2/3 87/2/3 89/2/3
f 91/2/3 87/2/3 90/2/3
f 92/2/3 87/2/3 91/2/3
f 93/2/3 87/2/3 92/2/3
f 94/2/3 85/2/3 87/2/3
f 94/2/3 87/2/3 93/2/3
f 94/2/3 83/2/3 85/2/3
f 95/2/3 83/2/3 94/2/3
f 96/2/3 94/2/3 93/2/3
f 97/2/3 94/2/3 96/2/3
f 98/2/4 99/2/4 102/2/4
f 102/2/4 99/2/4 103/2/4
f 100/2/4 101/2/4 104/2/4
f 104/2/4 101/2/4 105/2/4
f 106/2/4 107/2/4 109/2/4
f 109/2/4 107/2/4 110/2/4
f 108/2/4 109/2/4 111/2/4
f 111/2/4 109/2/4 112/2/4
f 113/2/4 114/2/4 115/2/4
f 115/2/4 114/2/4 116/2/4
f 116/2/4 117/2/4 118/2/4
f 118/2/4 117/2/4 119/2/4
f 120/2/4 121/2/4 125/2/4
f 125/2/4 121/2/4 126/2/4
f 122/2/4 123/2/4 127/2/4
f 127/2/4 123/2/4 128/2/4
f 125/1/4 126/1/4 130/1/4
f 130/1/4 126/1/4 131/1/4
f 127/1/4 128/1/4 133/1/4
f 125/1/4 130/1/4 134/1/4
f 132/1/4 133/1/4 137/1/4
f 134/1/4 135/1/4 138/1/4
f 136/1/4 137/1/4 139/1/4
f 124/2/4 125/2/4 140/2/4
f 138/1/4 139/1/4 141/1/4
f 140/2/4 125/2/4 141/2/4
f 134/1/4 138/1/4 141/1/4
f 125/1/4 134/1/4 141/1/4
f 141/1/4 139/1/4 142/1/4
f 142/1/4 139/1/4 143/1/4
f 143/1/4 139/1/4 144/1/4
f 144/1/4 139/1/4 145/1/4
f 128/2/4 129/2/4 146/2/4
f 145/1/4 139/1/4 146/1/4
f 139/1/4 137/1/4 146/1/4
f 133/1/4 128/1/4 146/1/4
f 137/1/4 133/1/4 146/1/4
f 146/2/4 129/2/4 147/2/4
f 145/2/4 146/2/4 148/2/4
f 148/2/4 146/2/4 149/2/4
f 152/2/5 151/2/5 150/2/5
f 153/2/5 151/2/5 152/2/5
f 158/2/5 157/2/5 156/2/5
f 159/2/5 157/2/5 158/2/5
f 160/2/5 155/2/5 154/2/5
f 161/2/5 155/2/5 160/2/5
f 165/2/5 163/2/5 162/2/5
f 166/2/5 163/2/5 165/2/5
f 167/1/5 165/1/5 164/1/5
f 168/1/5 165/1/5 167/1/5
f 172/2/5 170/2/5 169/2/5
f 173/1/5 172/1/5 171/1/5
f 174/2/5 170/2/5 172/2/5
f 174/1/5 172/1/5 173/1/5
f 175/2/5 170/2/5 174/2/5
f 178/2/5 177/2/5 176/2/5
f 179/2/5 177/2/5 178/2/5
f 181/1/5 180/1/5 179/1/5
f 182/1/5 180/1/5 181/1/5
f 185/2/5 184/2/5 183/2/5
f 186/2/5 184/2/5 185/2/5
f 187/2/5 184/2/5 186/2/5
f 189/1/5 188/1/5 187/1/5
f 189/1/5 187/1/5 186/1/5
f 190/1/5 188/1/5 189/1/5
f 193/2/5 192/2/5 191/2/5
f 195/2/5 193/2/5 191/2/5
f 196/1/5 194/1/5 193/1/5
f 196/2/5 193/2/5 195/2/5
f 197/1/5 194/1/5 196/1/5
f 198/1/6 199/1/6 200/1/6
f 200/1/6 199/1/6 201/1/6
f 202/2/6 203/2/6 204/2/6
f 204/2/6 203/2/6 205/2/6
f 205/2/6 203/2/6 206/2/6
f 206/2/6 203/2/6 207/2/6
f 202/2/6 204/2/6 209/2/6
f 204/1/6 205/1/6 210/1/6
f 209/2/6 204/2/6 210/2/6
f 210/1/6 205/1/6 211/1/6
f 207/1/6 208/1/6 212/1/6
f 206/1/6 207/1/6 212/1/6
f 212/1/6 208/1/6 213/1/6
f 214/2/6 215/2/6 218/2/6
f 218/2/6 215/2/6 219/2/6
f 216/2/6 217/2/6 220/2/6
f 220/2/6 217/2/6 221/2/6
f 222/2/6 223/2/6 224/2/6
f 224/2/6 223/2/6 225/2/6
