# MagicaVoxel @ Ephtracy

# group
o 

# material
mtllib surface-1.mtl
usemtl palette

# normals
vn -1 0 0
vn 1 0 0
vn 0 0 1
vn 0 0 -1
vn 0 -1 0
vn 0 1 0

# texcoords
vt 0.0175781 0.5
vt 0.0214844 0.5
vt 0.0253906 0.5
vt 0.0292969 0.5
vt 0.958984 0.5

# verts
v -0.25 -0.8 0.05
v -0.25 -0.8 -0.05
v -0.25 -0.7 0.05
v -0.25 -0.7 -0.05
v -0.15 -0.7 0.05
v -0.15 -0.7 -0.05
v -0.15 -0.6 0.05
v -0.15 -0.6 -0.05
v -0.05 -0.8 0.25
v -0.05 -0.8 0.15
v -0.05 -0.8 -0.15
v -0.05 -0.8 -0.25
v -0.05 -0.7 0.25
v -0.05 -0.7 0.15
v -0.05 -0.7 0.05
v -0.05 -0.7 -0.05
v -0.05 -0.7 -0.15
v -0.05 -0.7 -0.25
v -0.05 -0.6 0.15
v -0.05 -0.6 0.05
v -0.05 -0.6 -0.05
v -0.05 -0.6 -0.15
v -0.05 -0.5 0.05
v -0.05 -0.5 -0.05
v -0.05 -0.4 0.05
v -0.05 -0.4 -0.05
v -0.05 -0.2 0.05
v -0.05 -0.2 -0.05
v -0.05 -0.1 0.05
v -0.05 -0.1 -0.05
v -0.05 0 0.05
v -0.05 0 -0.05
v -0.05 0.2 0.05
v -0.05 0.2 -0.05
v -0.05 0.4 0.05
v -0.05 0.4 -0.05
v -0.05 0.5 0.05
v -0.05 0.5 -0.05
v -0.05 0.7 0.05
v -0.05 0.7 -0.05
v -0.05 0.8 0.05
v -0.05 0.8 -0.05
v 0.15 -0.8 0.05
v 0.15 -0.8 -0.05
v 0.15 -0.7 0.05
v 0.15 -0.7 -0.05
v -0.15 -0.8 0.05
v -0.15 -0.8 -0.05
v -0.15 -0.7 0.05
v -0.15 -0.7 -0.05
v 0.05 -0.8 0.25
v 0.05 -0.8 0.15
v 0.05 -0.8 -0.15
v 0.05 -0.8 -0.25
v 0.05 -0.7 0.25
v 0.05 -0.7 0.15
v 0.05 -0.7 0.05
v 0.05 -0.7 -0.05
v 0.05 -0.7 -0.15
v 0.05 -0.7 -0.25
v 0.05 -0.6 0.15
v 0.05 -0.6 0.05
v 0.05 -0.6 -0.05
v 0.05 -0.6 -0.15
v 0.05 -0.5 0.05
v 0.05 -0.5 -0.05
v 0.05 -0.4 0.05
v 0.05 -0.4 -0.05
v 0.05 -0.2 0.05
v 0.05 -0.2 -0.05
v 0.05 -0.1 0.05
v 0.05 -0.1 -0.05
v 0.05 0 0.05
v 0.05 0 -0.05
v 0.05 0.2 0.05
v 0.05 0.2 -0.05
v 0.05 0.4 0.05
v 0.05 0.4 -0.05
v 0.05 0.5 0.05
v 0.05 0.5 -0.05
v 0.05 0.7 0.05
v 0.05 0.7 -0.05
v 0.05 0.8 0.05
v 0.05 0.8 -0.05
v 0.15 -0.7 0.05
v 0.15 -0.7 -0.05
v 0.15 -0.6 0.05
v 0.15 -0.6 -0.05
v 0.25 -0.8 0.05
v 0.25 -0.8 -0.05
v 0.25 -0.7 0.05
v 0.25 -0.7 -0.05
v -0.05 -0.8 0.25
v -0.05 -0.7 0.25
v 0.05 -0.8 0.25
v 0.05 -0.7 0.25
v -0.05 -0.7 0.15
v -0.05 -0.6 0.15
v 0.05 -0.7 0.15
v 0.05 -0.6 0.15
v -0.25 -0.8 0.05
v -0.25 -0.7 0.05
v -0.15 -0.8 0.05
v -0.15 -0.7 0.05
v -0.15 -0.6 0.05
v -0.05 -0.7 0.05
v -0.05 -0.6 0.05
v -0.05 -0.5 0.05
v -0.05 -0.4 0.05
v -0.05 -0.2 0.05
v -0.05 -0.1 0.05
v -0.05 0 0.05
v -0.05 0.2 0.05
v -0.05 0.4 0.05
v -0.05 0.5 0.05
v -0.05 0.7 0.05
v -0.05 0.8 0.05
v 0.05 -0.7 0.05
v 0.05 -0.6 0.05
v 0.05 -0.5 0.05
v 0.05 -0.4 0.05
v 0.05 -0.2 0.05
v 0.05 -0.1 0.05
v 0.05 0 0.05
v 0.05 0.2 0.05
v 0.05 0.4 0.05
v 0.05 0.5 0.05
v 0.05 0.7 0.05
v 0.05 0.8 0.05
v 0.15 -0.8 0.05
v 0.15 -0.7 0.05
v 0.15 -0.6 0.05
v 0.25 -0.8 0.05
v 0.25 -0.7 0.05
v -0.05 -0.8 -0.15
v -0.05 -0.7 -0.15
v 0.05 -0.8 -0.15
v 0.05 -0.7 -0.15
v -0.05 -0.8 0.15
v -0.05 -0.7 0.15
v 0.05 -0.8 0.15
v 0.05 -0.7 0.15
v -0.25 -0.8 -0.05
v -0.25 -0.7 -0.05
v -0.15 -0.8 -0.05
v -0.15 -0.7 -0.05
v -0.15 -0.6 -0.05
v -0.05 -0.7 -0.05
v -0.05 -0.6 -0.05
v -0.05 -0.5 -0.05
v -0.05 -0.4 -0.05
v -0.05 -0.2 -0.05
v -0.05 -0.1 -0.05
v -0.05 0 -0.05
v -0.05 0.2 -0.05
v -0.05 0.4 -0.05
v -0.05 0.5 -0.05
v -0.05 0.7 -0.05
v -0.05 0.8 -0.05
v 0.05 -0.7 -0.05
v 0.05 -0.6 -0.05
v 0.05 -0.5 -0.05
v 0.05 -0.4 -0.05
v 0.05 -0.2 -0.05
v 0.05 -0.1 -0.05
v 0.05 0 -0.05
v 0.05 0.2 -0.05
v 0.05 0.4 -0.05
v 0.05 0.5 -0.05
v 0.05 0.7 -0.05
v 0.05 0.8 -0.05
v 0.15 -0.8 -0.05
v 0.15 -0.7 -0.05
v 0.15 -0.6 -0.05
v 0.25 -0.8 -0.05
v 0.25 -0.7 -0.05
v -0.05 -0.7 -0.15
v -0.05 -0.6 -0.15
v 0.05 -0.7 -0.15
v 0.05 -0.6 -0.15
v -0.05 -0.8 -0.25
v -0.05 -0.7 -0.25
v 0.05 -0.8 -0.25
v 0.05 -0.7 -0.25
v -0.05 -0.8 0.25
v 0.05 -0.8 0.25
v -0.05 -0.8 0.15
v 0.05 -0.8 0.15
v -0.25 -0.8 0.05
v -0.15 -0.8 0.05
v 0.15 -0.8 0.05
v 0.25 -0.8 0.05
v -0.25 -0.8 -0.05
v -0.15 -0.8 -0.05
v 0.15 -0.8 -0.05
v 0.25 -0.8 -0.05
v -0.05 -0.8 -0.15
v 0.05 -0.8 -0.15
v -0.05 -0.8 -0.25
v 0.05 -0.8 -0.25
v -0.05 -0.7 0.15
v 0.05 -0.7 0.15
v -0.15 -0.7 0.05
v -0.05 -0.7 0.05
v 0.05 -0.7 0.05
v 0.15 -0.7 0.05
v -0.15 -0.7 -0.05
v -0.05 -0.7 -0.05
v 0.05 -0.7 -0.05
v 0.15 -0.7 -0.05
v -0.05 -0.7 -0.15
v 0.05 -0.7 -0.15
v -0.05 -0.7 0.25
v 0.05 -0.7 0.25
v -0.05 -0.7 0.15
v 0.05 -0.7 0.15
v -0.25 -0.7 0.05
v -0.15 -0.7 0.05
v 0.15 -0.7 0.05
v 0.25 -0.7 0.05
v -0.25 -0.7 -0.05
v -0.15 -0.7 -0.05
v 0.15 -0.7 -0.05
v 0.25 -0.7 -0.05
v -0.05 -0.7 -0.15
v 0.05 -0.7 -0.15
v -0.05 -0.7 -0.25
v 0.05 -0.7 -0.25
v -0.05 -0.6 0.15
v 0.05 -0.6 0.15
v -0.15 -0.6 0.05
v -0.05 -0.6 0.05
v 0.05 -0.6 0.05
v 0.15 -0.6 0.05
v -0.15 -0.6 -0.05
v -0.05 -0.6 -0.05
v 0.05 -0.6 -0.05
v 0.15 -0.6 -0.05
v -0.05 -0.6 -0.15
v 0.05 -0.6 -0.15
v -0.05 0.8 0.05
v 0.05 0.8 0.05
v -0.05 0.8 -0.05
v 0.05 0.8 -0.05

# faces
f 3/1/1 2/1/1 1/1/1
f 4/1/1 2/1/1 3/1/1
f 7/4/1 6/4/1 5/4/1
f 8/4/1 6/4/1 7/4/1
f 13/3/1 10/3/1 9/3/1
f 14/3/1 10/3/1 13/3/1
f 17/4/1 12/4/1 11/4/1
f 18/4/1 12/4/1 17/4/1
f 19/4/1 15/4/1 14/4/1
f 20/4/1 15/4/1 19/4/1
f 21/1/1 17/1/1 16/1/1
f 22/1/1 17/1/1 21/1/1
f 23/2/1 21/2/1 20/2/1
f 24/2/1 21/2/1 23/2/1
f 25/1/1 24/1/1 23/1/1
f 26/1/1 24/1/1 25/1/1
f 27/4/1 26/4/1 25/4/1
f 28/4/1 26/4/1 27/4/1
f 29/2/1 28/2/1 27/2/1
f 30/2/1 28/2/1 29/2/1
f 31/1/1 30/1/1 29/1/1
f 32/1/1 30/1/1 31/1/1
f 33/4/1 32/4/1 31/4/1
f 34/4/1 32/4/1 33/4/1
f 35/3/1 34/3/1 33/3/1
f 36/3/1 34/3/1 35/3/1
f 37/4/1 36/4/1 35/4/1
f 38/4/1 36/4/1 37/4/1
f 39/1/1 38/1/1 37/1/1
f 40/1/1 38/1/1 39/1/1
f 41/5/1 40/5/1 39/5/1
f 42/5/1 40/5/1 41/5/1
f 45/1/1 44/1/1 43/1/1
f 46/1/1 44/1/1 45/1/1
f 47/1/2 48/1/2 49/1/2
f 49/1/2 48/1/2 50/1/2
f 51/3/2 52/3/2 55/3/2
f 55/3/2 52/3/2 56/3/2
f 53/4/2 54/4/2 59/4/2
f 59/4/2 54/4/2 60/4/2
f 56/4/2 57/4/2 61/4/2
f 61/4/2 57/4/2 62/4/2
f 58/1/2 59/1/2 63/1/2
f 63/1/2 59/1/2 64/1/2
f 62/2/2 63/2/2 65/2/2
f 65/2/2 63/2/2 66/2/2
f 65/1/2 66/1/2 67/1/2
f 67/1/2 66/1/2 68/1/2
f 67/4/2 68/4/2 69/4/2
f 69/4/2 68/4/2 70/4/2
f 69/2/2 70/2/2 71/2/2
f 71/2/2 70/2/2 72/2/2
f 71/1/2 72/1/2 73/1/2
f 73/1/2 72/1/2 74/1/2
f 73/4/2 74/4/2 75/4/2
f 75/4/2 74/4/2 76/4/2
f 75/3/2 76/3/2 77/3/2
f 77/3/2 76/3/2 78/3/2
f 77/4/2 78/4/2 79/4/2
f 79/4/2 78/4/2 80/4/2
f 79/1/2 80/1/2 81/1/2
f 81/1/2 80/1/2 82/1/2
f 81/5/2 82/5/2 83/5/2
f 83/5/2 82/5/2 84/5/2
f 85/4/2 86/4/2 87/4/2
f 87/4/2 86/4/2 88/4/2
f 89/1/2 90/1/2 91/1/2
f 91/1/2 90/1/2 92/1/2
f 95/3/3 94/3/3 93/3/3
f 96/3/3 94/3/3 95/3/3
f 99/4/3 98/4/3 97/4/3
f 100/4/3 98/4/3 99/4/3
f 103/1/3 102/1/3 101/1/3
f 104/1/3 102/1/3 103/1/3
f 106/4/3 105/4/3 104/4/3
f 107/4/3 105/4/3 106/4/3
f 119/2/3 108/2/3 107/2/3
f 120/1/3 109/1/3 108/1/3
f 120/2/3 108/2/3 119/2/3
f 121/4/3 110/4/3 109/4/3
f 121/1/3 109/1/3 120/1/3
f 122/2/3 111/2/3 110/2/3
f 122/4/3 110/4/3 121/4/3
f 123/1/3 112/1/3 111/1/3
f 123/2/3 111/2/3 122/2/3
f 124/4/3 113/4/3 112/4/3
f 124/1/3 112/1/3 123/1/3
f 125/3/3 114/3/3 113/3/3
f 125/4/3 113/4/3 124/4/3
f 126/4/3 115/4/3 114/4/3
f 126/3/3 114/3/3 125/3/3
f 127/1/3 116/1/3 115/1/3
f 127/4/3 115/4/3 126/4/3
f 128/5/3 117/5/3 116/5/3
f 128/1/3 116/1/3 127/1/3
f 129/5/3 117/5/3 128/5/3
f 131/4/3 119/4/3 118/4/3
f 132/4/3 119/4/3 131/4/3
f 133/1/3 131/1/3 130/1/3
f 134/1/3 131/1/3 133/1/3
f 137/4/3 136/4/3 135/4/3
f 138/4/3 136/4/3 137/4/3
f 139/3/4 140/3/4 141/3/4
f 141/3/4 140/3/4 142/3/4
f 143/1/4 144/1/4 145/1/4
f 145/1/4 144/1/4 146/1/4
f 146/4/4 147/4/4 148/4/4
f 148/4/4 147/4/4 149/4/4
f 149/2/4 150/2/4 161/2/4
f 150/1/4 151/1/4 162/1/4
f 161/2/4 150/2/4 162/2/4
f 151/4/4 152/4/4 163/4/4
f 162/1/4 151/1/4 163/1/4
f 152/2/4 153/2/4 164/2/4
f 163/4/4 152/4/4 164/4/4
f 153/1/4 154/1/4 165/1/4
f 164/2/4 153/2/4 165/2/4
f 154/4/4 155/4/4 166/4/4
f 165/1/4 154/1/4 166/1/4
f 155/3/4 156/3/4 167/3/4
f 166/4/4 155/4/4 167/4/4
f 156/4/4 157/4/4 168/4/4
f 167/3/4 156/3/4 168/3/4
f 157/1/4 158/1/4 169/1/4
f 168/4/4 157/4/4 169/4/4
f 158/5/4 159/5/4 170/5/4
f 169/1/4 158/1/4 170/1/4
f 170/5/4 159/5/4 171/5/4
f 160/4/4 161/4/4 173/4/4
f 173/4/4 161/4/4 174/4/4
f 172/1/4 173/1/4 175/1/4
f 175/1/4 173/1/4 176/1/4
f 177/1/4 178/1/4 179/1/4
f 179/1/4 178/1/4 180/1/4
f 181/4/4 182/4/4 183/4/4
f 183/4/4 182/4/4 184/4/4
f 187/3/5 186/3/5 185/3/5
f 188/3/5 186/3/5 187/3/5
f 193/1/5 190/1/5 189/1/5
f 194/1/5 190/1/5 193/1/5
f 195/1/5 192/1/5 191/1/5
f 196/1/5 192/1/5 195/1/5
f 199/4/5 198/4/5 197/4/5
f 200/4/5 198/4/5 199/4/5
f 204/4/5 202/4/5 201/4/5
f 205/4/5 202/4/5 204/4/5
f 207/4/5 204/4/5 203/4/5
f 208/3/5 205/3/5 204/3/5
f 208/4/5 204/4/5 207/4/5
f 209/4/5 206/4/5 205/4/5
f 209/3/5 205/3/5 208/3/5
f 210/4/5 206/4/5 209/4/5
f 211/1/5 209/1/5 208/1/5
f 212/1/5 209/1/5 211/1/5
f 213/3/6 214/3/6 215/3/6
f 215/3/6 214/3/6 216/3/6
f 217/1/6 218/1/6 221/1/6
f 221/1/6 218/1/6 222/1/6
f 219/1/6 220/1/6 223/1/6
f 223/1/6 220/1/6 224/1/6
f 225/4/6 226/4/6 227/4/6
f 227/4/6 226/4/6 228/4/6
f 229/4/6 230/4/6 232/4/6
f 232/4/6 230/4/6 233/4/6
f 231/4/6 232/4/6 235/4/6
f 235/4/6 232/4/6 236/4/6
f 233/4/6 234/4/6 237/4/6
f 237/4/6 234/4/6 238/4/6
f 236/1/6 237/1/6 239/1/6
f 239/1/6 237/1/6 240/1/6
f 241/5/6 242/5/6 243/5/6
f 243/5/6 242/5/6 244/5/6
