# MagicaVoxel @ Ephtracy

# group
o 

# material
mtllib lab_decorations-15.mtl
usemtl palette

# normals
vn -1 0 0
vn 1 0 0
vn 0 0 1
vn 0 0 -1
vn 0 -1 0
vn 0 1 0

# texcoords
vt 0.869141 0.5
vt 0.873047 0.5
vt 0.876953 0.5

# verts
v -0.75 -0.05 0.15
v -0.75 -0.05 0.05
v -0.75 0.05 0.15
v -0.75 0.05 0.05
v -0.75 0.35 0.55
v -0.75 0.35 0.35
v -0.75 0.45 0.55
v -0.75 0.45 0.35
v -0.65 -0.15 0.05
v -0.65 -0.15 -0.05
v -0.65 -0.05 0.05
v -0.65 0.05 0.25
v -0.65 0.05 0.15
v -0.65 0.05 0.05
v -0.65 0.05 -0.05
v -0.65 0.25 0.65
v -0.65 0.25 0.45
v -0.65 0.25 0.15
v -0.65 0.25 0.05
v -0.65 0.35 0.65
v -0.65 0.35 0.55
v -0.65 0.35 0.45
v -0.65 0.35 0.35
v -0.65 0.35 0.25
v -0.65 0.35 0.15
v -0.65 0.45 0.55
v -0.65 0.45 0.45
v -0.65 0.45 0.35
v -0.65 0.45 0.15
v -0.65 0.55 0.55
v -0.65 0.55 0.45
v -0.55 0.15 0.75
v -0.55 0.15 0.55
v -0.55 0.25 0.75
v -0.55 0.25 0.65
v -0.55 0.25 0.55
v -0.55 0.25 0.45
v -0.55 0.25 0.25
v -0.55 0.25 0.15
v -0.55 0.25 0.05
v -0.55 0.35 0.65
v -0.55 0.35 0.55
v -0.55 0.35 0.45
v -0.55 0.35 0.35
v -0.55 0.35 0.25
v -0.55 0.35 0.15
v -0.55 0.35 0.05
v -0.55 0.45 0.65
v -0.55 0.45 0.55
v -0.55 0.45 0.45
v -0.55 0.45 0.35
v -0.55 0.45 0.25
v -0.55 0.45 0.15
v -0.55 0.45 0.05
v -0.55 0.55 0.45
v -0.55 0.55 0.25
v -0.45 0.25 0.25
v -0.45 0.25 0.15
v -0.45 0.35 0.25
v -0.45 0.35 0.15
v -0.45 0.35 0.05
v -0.45 0.35 -0.05
v -0.45 0.45 0.65
v -0.45 0.45 0.55
v -0.45 0.45 0.25
v -0.45 0.45 0.15
v -0.45 0.45 0.05
v -0.45 0.45 -0.05
v -0.45 0.55 0.55
v -0.45 0.55 0.25
v -0.45 0.55 0.15
v -0.45 0.65 0.65
v -0.45 0.65 0.55
v -0.45 0.65 0.25
v -0.35 0.25 0.15
v -0.35 0.25 0.05
v -0.35 0.35 0.15
v -0.35 0.35 0.05
v -0.35 0.35 -0.05
v -0.35 0.35 -0.15
v -0.35 0.45 0.15
v -0.35 0.45 0.05
v -0.35 0.45 -0.05
v -0.35 0.45 -0.15
v -0.35 0.55 0.25
v -0.35 0.55 0.15
v -0.35 0.55 0.05
v -0.35 0.65 0.45
v -0.35 0.65 0.35
v -0.35 0.65 0.25
v -0.35 0.65 0.15
v -0.35 0.75 0.45
v -0.35 0.75 0.35
v -0.25 -0.75 -0.65
v -0.25 -0.75 -0.75
v -0.25 -0.55 -0.55
v -0.25 -0.55 -0.65
v -0.25 -0.35 -0.65
v -0.25 -0.35 -0.75
v -0.25 -0.25 -0.55
v -0.25 -0.25 -0.65
v -0.25 0.25 0.05
v -0.25 0.25 -0.05
v -0.25 0.35 0.05
v -0.25 0.35 -0.05
v -0.25 0.35 -0.15
v -0.25 0.35 -0.25
v -0.25 0.45 0.05
v -0.25 0.45 -0.05
v -0.25 0.45 -0.15
v -0.25 0.45 -0.25
v -0.25 0.55 0.15
v -0.25 0.55 0.05
v -0.25 0.55 -0.05
v -0.25 0.65 0.35
v -0.25 0.65 0.25
v -0.25 0.65 0.15
v -0.25 0.65 0.05
v -0.25 0.75 0.35
v -0.25 0.75 0.25
v -0.15 -0.35 -0.65
v -0.15 -0.35 -0.75
v -0.15 -0.25 -0.45
v -0.15 -0.25 -0.55
v -0.15 -0.25 -0.65
v -0.15 -0.25 -0.75
v -0.15 -0.05 -0.55
v -0.15 -0.05 -0.65
v -0.15 0.05 -0.45
v -0.15 0.05 -0.55
v -0.15 0.15 0.15
v -0.15 0.15 0.05
v -0.15 0.25 0.15
v -0.15 0.25 0.05
v -0.15 0.25 -0.05
v -0.15 0.25 -0.15
v -0.15 0.35 -0.05
v -0.15 0.35 -0.15
v -0.15 0.35 -0.25
v -0.15 0.35 -0.35
v -0.15 0.45 -0.05
v -0.15 0.45 -0.15
v -0.15 0.45 -0.25
v -0.15 0.45 -0.35
v -0.15 0.55 0.05
v -0.15 0.55 -0.05
v -0.15 0.55 -0.15
v -0.15 0.65 0.25
v -0.15 0.65 0.15
v -0.15 0.65 0.05
v -0.15 0.65 -0.05
v -0.15 0.75 0.25
v -0.15 0.75 0.15
v -0.05 -0.05 -0.55
v -0.05 -0.05 -0.65
v -0.05 0.05 -0.35
v -0.05 0.05 -0.45
v -0.05 0.05 -0.55
v -0.05 0.05 -0.65
v -0.05 0.15 0.05
v -0.05 0.15 -0.05
v -0.05 0.25 0.05
v -0.05 0.25 -0.05
v -0.05 0.25 -0.15
v -0.05 0.25 -0.25
v -0.05 0.25 -0.45
v -0.05 0.25 -0.55
v -0.05 0.35 -0.15
v -0.05 0.35 -0.25
v -0.05 0.35 -0.35
v -0.05 0.35 -0.45
v -0.05 0.45 -0.15
v -0.05 0.45 -0.25
v -0.05 0.45 -0.35
v -0.05 0.45 -0.45
v -0.05 0.55 -0.05
v -0.05 0.55 -0.15
v -0.05 0.55 -0.25
v -0.05 0.65 0.15
v -0.05 0.65 0.05
v -0.05 0.65 -0.05
v -0.05 0.65 -0.15
v -0.05 0.75 0.15
v -0.05 0.75 0.05
v 0.05 0.15 -0.05
v 0.05 0.15 -0.15
v 0.05 0.25 -0.05
v 0.05 0.25 -0.15
v 0.05 0.25 -0.25
v 0.05 0.25 -0.35
v 0.05 0.25 -0.45
v 0.05 0.25 -0.55
v 0.05 0.35 -0.25
v 0.05 0.35 -0.35
v 0.05 0.35 -0.45
v 0.05 0.35 -0.55
v 0.05 0.45 -0.25
v 0.05 0.45 -0.35
v 0.05 0.45 -0.45
v 0.05 0.45 -0.55
v 0.05 0.55 -0.25
v 0.05 0.55 -0.35
v 0.05 0.65 0.05
v 0.05 0.65 -0.05
v 0.05 0.75 0.05
v 0.05 0.75 -0.05
v 0.15 0.15 -0.15
v 0.15 0.15 -0.25
v 0.15 0.25 -0.15
v 0.15 0.25 -0.25
v 0.15 0.25 -0.35
v 0.15 0.25 -0.45
v 0.15 0.35 -0.35
v 0.15 0.35 -0.45
v 0.15 0.45 -0.35
v 0.15 0.45 -0.45
v 0.15 0.55 -0.35
v 0.15 0.55 -0.45
v 0.25 0.15 -0.25
v 0.25 0.15 -0.35
v 0.25 0.25 -0.25
v 0.25 0.25 -0.35
v 0.25 0.35 -0.55
v 0.25 0.35 -0.65
v 0.25 0.45 -0.55
v 0.25 0.45 -0.65
v 0.35 0.25 -0.45
v 0.35 0.25 -0.55
v 0.35 0.35 -0.45
v 0.35 0.35 -0.55
v 0.35 0.45 -0.45
v 0.35 0.45 -0.55
v 0.35 0.55 -0.45
v 0.35 0.55 -0.55
v 0.45 0.15 -0.35
v 0.45 0.15 -0.45
v 0.45 0.25 -0.35
v 0.45 0.25 -0.45
v 0.45 0.35 -0.65
v 0.45 0.35 -0.75
v 0.45 0.45 -0.65
v 0.45 0.45 -0.75
v 0.55 0.25 -0.55
v 0.55 0.25 -0.65
v 0.55 0.35 -0.55
v 0.55 0.35 -0.65
v 0.55 0.45 -0.55
v 0.55 0.45 -0.65
v 0.55 0.55 -0.55
v 0.55 0.55 -0.65
v 0.65 0.15 -0.45
v 0.65 0.15 -0.55
v 0.65 0.25 -0.45
v 0.65 0.25 -0.55
v -0.65 -0.05 0.15
v -0.65 -0.05 0.05
v -0.65 0.05 0.15
v -0.65 0.05 0.05
v -0.55 -0.15 0.05
v -0.55 -0.15 -0.05
v -0.55 0.05 0.25
v -0.55 0.05 0.15
v -0.55 0.05 0.05
v -0.55 0.05 -0.05
v -0.55 0.25 0.25
v -0.55 0.35 0.25
v -0.55 0.35 0.15
v -0.45 0.05 0.15
v -0.45 0.05 0.05
v -0.45 0.15 0.75
v -0.45 0.15 0.55
v -0.45 0.25 0.75
v -0.45 0.25 0.65
v -0.45 0.25 0.55
v -0.45 0.25 0.35
v -0.45 0.25 0.15
v -0.45 0.35 0.65
v -0.45 0.35 0.35
v -0.45 0.35 0.15
v -0.45 0.35 0.05
v -0.35 0.25 0.35
v -0.35 0.25 0.25
v -0.35 0.35 0.65
v -0.35 0.35 0.35
v -0.35 0.45 0.65
v -0.35 0.45 0.25
v -0.35 0.55 0.65
v -0.35 0.55 0.55
v -0.35 0.55 0.45
v -0.35 0.65 0.65
v -0.35 0.65 0.55
v -0.35 0.65 0.45
v -0.25 0.25 0.25
v -0.25 0.25 0.15
v -0.25 0.35 0.25
v -0.25 0.35 0.15
v -0.25 0.45 0.65
v -0.25 0.45 0.35
v -0.25 0.55 0.65
v -0.25 0.55 0.45
v -0.25 0.75 0.45
v -0.25 0.75 0.35
v -0.15 -0.75 -0.65
v -0.15 -0.75 -0.75
v -0.15 -0.55 -0.55
v -0.15 -0.55 -0.65
v -0.15 -0.55 -0.75
v -0.15 -0.25 -0.55
v -0.15 -0.25 -0.65
v -0.15 0.45 0.35
v -0.15 0.45 0.25
v -0.15 0.45 0.15
v -0.15 0.55 0.25
v -0.15 0.55 0.15
v -0.15 0.75 0.35
v -0.15 0.75 0.25
v -0.05 -0.55 -0.65
v -0.05 -0.55 -0.75
v -0.05 -0.25 -0.45
v -0.05 -0.25 -0.55
v -0.05 -0.25 -0.65
v -0.05 -0.25 -0.75
v -0.05 0.05 -0.45
v -0.05 0.05 -0.55
v -0.05 0.35 0.25
v -0.05 0.35 0.15
v -0.05 0.45 0.25
v -0.05 0.45 0.15
v -0.05 0.45 0.05
v -0.05 0.45 -0.05
v -0.05 0.55 0.25
v -0.05 0.55 0.15
v -0.05 0.55 0.05
v -0.05 0.55 -0.05
v -0.05 0.65 0.25
v -0.05 0.65 0.15
v 0.05 -0.25 -0.55
v 0.05 -0.25 -0.65
v 0.05 0.05 -0.35
v 0.05 0.05 -0.45
v 0.05 0.05 -0.55
v 0.05 0.05 -0.65
v 0.05 0.15 0.15
v 0.05 0.15 0.05
v 0.05 0.15 -0.05
v 0.05 0.25 0.05
v 0.05 0.25 -0.05
v 0.05 0.25 -0.35
v 0.05 0.35 -0.05
v 0.05 0.35 -0.25
v 0.05 0.35 -0.35
v 0.05 0.35 -0.45
v 0.05 0.45 0.05
v 0.05 0.45 -0.05
v 0.05 0.45 -0.15
v 0.05 0.45 -0.25
v 0.05 0.55 0.05
v 0.05 0.55 -0.05
v 0.05 0.55 -0.15
v 0.05 0.65 0.25
v 0.05 0.65 0.15
v 0.05 0.75 0.25
v 0.05 0.75 0.05
v 0.15 0.05 -0.45
v 0.15 0.05 -0.55
v 0.15 0.15 -0.05
v 0.15 0.15 -0.15
v 0.15 0.25 -0.05
v 0.15 0.25 -0.15
v 0.15 0.25 -0.25
v 0.15 0.25 -0.45
v 0.15 0.35 -0.05
v 0.15 0.35 -0.25
v 0.15 0.35 -0.45
v 0.15 0.35 -0.55
v 0.15 0.45 -0.15
v 0.15 0.45 -0.25
v 0.15 0.55 0.05
v 0.15 0.55 -0.05
v 0.15 0.55 -0.15
v 0.15 0.55 -0.25
v 0.15 0.65 -0.05
v 0.15 0.65 -0.15
v 0.15 0.75 0.05
v 0.15 0.75 -0.05
v 0.25 0.15 -0.15
v 0.25 0.15 -0.25
v 0.25 0.25 -0.15
v 0.25 0.25 -0.25
v 0.25 0.25 -0.35
v 0.25 0.55 -0.25
v 0.25 0.55 -0.35
v 0.35 0.35 -0.35
v 0.35 0.35 -0.45
v 0.35 0.55 -0.35
v 0.35 0.55 -0.45
v 0.65 0.15 -0.25
v 0.65 0.15 -0.35
v 0.65 0.25 -0.25
v 0.65 0.25 -0.35
v 0.65 0.25 -0.45
v 0.65 0.25 -0.55
v 0.65 0.25 -0.65
v 0.65 0.35 -0.45
v 0.65 0.35 -0.65
v 0.65 0.35 -0.75
v 0.65 0.45 -0.65
v 0.65 0.45 -0.75
v 0.65 0.55 -0.45
v 0.65 0.55 -0.65
v 0.75 0.15 -0.35
v 0.75 0.15 -0.45
v 0.75 0.15 -0.55
v 0.75 0.25 -0.45
v 0.75 0.25 -0.55
v 0.75 0.35 -0.35
v 0.75 0.35 -0.45
v -0.55 0.15 0.75
v -0.55 0.25 0.75
v -0.45 0.15 0.75
v -0.45 0.25 0.75
v -0.65 0.25 0.65
v -0.65 0.35 0.65
v -0.55 0.25 0.65
v -0.55 0.35 0.65
v -0.55 0.45 0.65
v -0.45 0.25 0.65
v -0.45 0.35 0.65
v -0.45 0.45 0.65
v -0.45 0.65 0.65
v -0.35 0.35 0.65
v -0.35 0.45 0.65
v -0.35 0.55 0.65
v -0.35 0.65 0.65
v -0.25 0.45 0.65
v -0.25 0.55 0.65
v -0.75 0.35 0.55
v -0.75 0.45 0.55
v -0.65 0.35 0.55
v -0.65 0.45 0.55
v -0.65 0.55 0.55
v -0.55 0.35 0.55
v -0.55 0.45 0.55
v -0.45 0.45 0.55
v -0.45 0.55 0.55
v -0.35 0.55 0.45
v -0.35 0.65 0.45
v -0.35 0.75 0.45
v -0.25 0.55 0.45
v -0.25 0.75 0.45
v -0.45 0.25 0.35
v -0.45 0.35 0.35
v -0.35 0.25 0.35
v -0.35 0.35 0.35
v -0.25 0.45 0.35
v -0.25 0.75 0.35
v -0.15 0.45 0.35
v -0.15 0.75 0.35
v -0.65 0.05 0.25
v -0.65 0.35 0.25
v -0.55 0.05 0.25
v -0.55 0.25 0.25
v -0.55 0.35 0.25
v -0.35 0.25 0.25
v -0.35 0.45 0.25
v -0.25 0.25 0.25
v -0.25 0.35 0.25
v -0.15 0.45 0.25
v -0.15 0.55 0.25
v -0.15 0.75 0.25
v -0.05 0.35 0.25
v -0.05 0.45 0.25
v -0.05 0.55 0.25
v -0.05 0.65 0.25
v 0.05 0.65 0.25
v 0.05 0.75 0.25
v -0.75 -0.05 0.15
v -0.75 0.05 0.15
v -0.65 -0.05 0.15
v -0.65 0.05 0.15
v -0.55 0.05 0.15
v -0.55 0.35 0.15
v -0.45 0.05 0.15
v -0.45 0.25 0.15
v -0.45 0.35 0.15
v -0.25 0.25 0.15
v -0.25 0.35 0.15
v -0.15 0.15 0.15
v -0.15 0.25 0.15
v -0.15 0.45 0.15
v -0.15 0.55 0.15
v -0.05 0.15 0.15
v -0.05 0.25 0.15
v -0.05 0.35 0.15
v -0.05 0.45 0.15
v -0.05 0.55 0.15
v -0.05 0.65 0.15
v 0.05 0.15 0.15
v 0.05 0.65 0.15
v -0.65 -0.15 0.05
v -0.65 -0.05 0.05
v -0.65 0.05 0.05
v -0.55 -0.15 0.05
v -0.55 0.05 0.05
v 0.05 0.55 0.05
v 0.05 0.75 0.05
v 0.15 0.55 0.05
v 0.15 0.75 0.05
v -0.05 0.45 -0.05
v -0.05 0.55 -0.05
v 0.05 0.15 -0.05
v 0.05 0.25 -0.05
v 0.05 0.35 -0.05
v 0.05 0.45 -0.05
v 0.05 0.55 -0.05
v 0.15 0.15 -0.05
v 0.15 0.25 -0.05
v 0.15 0.35 -0.05
v 0.05 0.45 -0.15
v 0.05 0.55 -0.15
v 0.15 0.15 -0.15
v 0.15 0.25 -0.15
v 0.15 0.45 -0.15
v 0.15 0.55 -0.15
v 0.25 0.15 -0.15
v 0.25 0.25 -0.15
v 0.05 0.35 -0.25
v 0.05 0.45 -0.25
v 0.15 0.25 -0.25
v 0.15 0.35 -0.25
v 0.15 0.45 -0.25
v 0.15 0.55 -0.25
v 0.25 0.15 -0.25
v 0.25 0.25 -0.25
v 0.25 0.55 -0.25
v 0.45 0.15 -0.25
v 0.45 0.25 -0.25
v 0.65 0.15 -0.25
v 0.65 0.25 -0.25
v -0.05 0.05 -0.35
v -0.05 0.35 -0.35
v 0.05 0.05 -0.35
v 0.05 0.25 -0.35
v 0.05 0.35 -0.35
v 0.25 0.25 -0.35
v 0.25 0.55 -0.35
v 0.35 0.35 -0.35
v 0.35 0.55 -0.35
v 0.45 0.25 -0.35
v 0.65 0.15 -0.35
v 0.65 0.25 -0.35
v 0.75 0.15 -0.35
v 0.75 0.35 -0.35
v -0.15 -0.25 -0.45
v -0.15 0.05 -0.45
v -0.05 -0.25 -0.45
v -0.05 0.05 -0.45
v 0.05 0.05 -0.45
v 0.05 0.35 -0.45
v 0.15 0.05 -0.45
v 0.15 0.25 -0.45
v 0.15 0.35 -0.45
v 0.35 0.35 -0.45
v 0.35 0.55 -0.45
v 0.65 0.35 -0.45
v 0.65 0.55 -0.45
v -0.25 -0.55 -0.55
v -0.25 -0.25 -0.55
v -0.15 -0.55 -0.55
v -0.15 -0.25 -0.55
v -0.05 -0.25 -0.55
v -0.05 0.05 -0.55
v 0.05 -0.25 -0.55
v 0.05 0.05 -0.55
v -0.25 -0.75 -0.65
v -0.25 -0.55 -0.65
v -0.15 -0.75 -0.65
v -0.15 -0.55 -0.65
v -0.15 -0.25 -0.65
v -0.05 -0.55 -0.65
v -0.05 -0.25 -0.65
v -0.55 0.15 0.55
v -0.55 0.25 0.55
v -0.45 0.15 0.55
v -0.45 0.25 0.55
v -0.65 0.25 0.45
v -0.65 0.35 0.45
v -0.65 0.45 0.45
v -0.65 0.55 0.45
v -0.55 0.25 0.45
v -0.55 0.35 0.45
v -0.55 0.45 0.45
v -0.55 0.55 0.45
v -0.75 0.35 0.35
v -0.75 0.45 0.35
v -0.65 0.35 0.35
v -0.65 0.45 0.35
v -0.35 0.65 0.35
v -0.35 0.75 0.35
v -0.25 0.65 0.35
v -0.25 0.75 0.35
v -0.55 0.25 0.25
v -0.55 0.35 0.25
v -0.55 0.45 0.25
v -0.55 0.55 0.25
v -0.45 0.25 0.25
v -0.45 0.35 0.25
v -0.45 0.45 0.25
v -0.45 0.55 0.25
v -0.45 0.65 0.25
v -0.35 0.55 0.25
v -0.35 0.65 0.25
v -0.25 0.65 0.25
v -0.25 0.75 0.25
v -0.15 0.65 0.25
v -0.15 0.75 0.25
v -0.65 0.25 0.15
v -0.65 0.35 0.15
v -0.65 0.45 0.15
v -0.55 0.25 0.15
v -0.55 0.35 0.15
v -0.55 0.45 0.15
v -0.45 0.25 0.15
v -0.45 0.35 0.15
v -0.45 0.45 0.15
v -0.45 0.55 0.15
v -0.35 0.25 0.15
v -0.35 0.35 0.15
v -0.35 0.45 0.15
v -0.35 0.55 0.15
v -0.35 0.65 0.15
v -0.25 0.55 0.15
v -0.25 0.65 0.15
v -0.15 0.65 0.15
v -0.15 0.75 0.15
v -0.05 0.65 0.15
v -0.05 0.75 0.15
v -0.75 -0.05 0.05
v -0.75 0.05 0.05
v -0.65 -0.05 0.05
v -0.65 0.05 0.05
v -0.65 0.25 0.05
v -0.55 0.05 0.05
v -0.55 0.25 0.05
v -0.55 0.35 0.05
v -0.55 0.45 0.05
v -0.45 0.05 0.05
v -0.45 0.35 0.05
v -0.45 0.45 0.05
v -0.35 0.25 0.05
v -0.35 0.35 0.05
v -0.35 0.45 0.05
v -0.35 0.55 0.05
v -0.25 0.25 0.05
v -0.25 0.35 0.05
v -0.25 0.45 0.05
v -0.25 0.55 0.05
v -0.25 0.65 0.05
v -0.15 0.15 0.05
v -0.15 0.25 0.05
v -0.15 0.55 0.05
v -0.15 0.65 0.05
v -0.05 0.15 0.05
v -0.05 0.25 0.05
v -0.05 0.45 0.05
v -0.05 0.55 0.05
v -0.05 0.65 0.05
v -0.05 0.75 0.05
v 0.05 0.45 0.05
v 0.05 0.55 0.05
v 0.05 0.65 0.05
v 0.05 0.75 0.05
v -0.65 -0.15 -0.05
v -0.65 0.05 -0.05
v -0.55 -0.15 -0.05
v -0.55 0.05 -0.05
v -0.45 0.35 -0.05
v -0.45 0.45 -0.05
v -0.35 0.35 -0.05
v -0.35 0.45 -0.05
v -0.25 0.25 -0.05
v -0.25 0.35 -0.05
v -0.25 0.45 -0.05
v -0.25 0.55 -0.05
v -0.15 0.25 -0.05
v -0.15 0.35 -0.05
v -0.15 0.45 -0.05
v -0.15 0.55 -0.05
v -0.15 0.65 -0.05
v -0.05 0.15 -0.05
v -0.05 0.25 -0.05
v -0.05 0.55 -0.05
v -0.05 0.65 -0.05
v 0.05 0.15 -0.05
v 0.05 0.25 -0.05
v 0.05 0.65 -0.05
v 0.05 0.75 -0.05
v 0.15 0.65 -0.05
v 0.15 0.75 -0.05
v -0.35 0.35 -0.15
v -0.35 0.45 -0.15
v -0.25 0.35 -0.15
v -0.25 0.45 -0.15
v -0.15 0.25 -0.15
v -0.15 0.35 -0.15
v -0.15 0.45 -0.15
v -0.15 0.55 -0.15
v -0.05 0.25 -0.15
v -0.05 0.35 -0.15
v -0.05 0.45 -0.15
v -0.05 0.55 -0.15
v -0.05 0.65 -0.15
v 0.05 0.15 -0.15
v 0.05 0.25 -0.15
v 0.15 0.15 -0.15
v 0.15 0.25 -0.15
v 0.15 0.55 -0.15
v 0.15 0.65 -0.15
v -0.25 0.35 -0.25
v -0.25 0.45 -0.25
v -0.15 0.35 -0.25
v -0.15 0.45 -0.25
v -0.05 0.25 -0.25
v -0.05 0.35 -0.25
v -0.05 0.45 -0.25
v -0.05 0.55 -0.25
v 0.05 0.25 -0.25
v 0.05 0.35 -0.25
v 0.05 0.45 -0.25
v 0.05 0.55 -0.25
v 0.15 0.15 -0.25
v 0.15 0.25 -0.25
v 0.25 0.15 -0.25
v 0.25 0.25 -0.25
v -0.15 0.35 -0.35
v -0.15 0.45 -0.35
v -0.05 0.35 -0.35
v -0.05 0.45 -0.35
v 0.05 0.25 -0.35
v 0.05 0.35 -0.35
v 0.05 0.45 -0.35
v 0.05 0.55 -0.35
v 0.15 0.25 -0.35
v 0.15 0.35 -0.35
v 0.15 0.45 -0.35
v 0.15 0.55 -0.35
v 0.25 0.15 -0.35
v 0.25 0.25 -0.35
v 0.45 0.15 -0.35
v 0.45 0.25 -0.35
v -0.05 0.25 -0.45
v -0.05 0.35 -0.45
v -0.05 0.45 -0.45
v 0.05 0.25 -0.45
v 0.05 0.35 -0.45
v 0.05 0.45 -0.45
v 0.15 0.25 -0.45
v 0.15 0.35 -0.45
v 0.15 0.45 -0.45
v 0.15 0.55 -0.45
v 0.25 0.35 -0.45
v 0.25 0.45 -0.45
v 0.35 0.25 -0.45
v 0.35 0.35 -0.45
v 0.35 0.45 -0.45
v 0.35 0.55 -0.45
v 0.45 0.15 -0.45
v 0.45 0.25 -0.45
v 0.65 0.15 -0.45
v 0.65 0.25 -0.45
v 0.65 0.35 -0.45
v 0.75 0.25 -0.45
v 0.75 0.35 -0.45
v -0.15 -0.05 -0.55
v -0.15 0.05 -0.55
v -0.05 -0.05 -0.55
v -0.05 0.05 -0.55
v -0.05 0.25 -0.55
v 0.05 0.05 -0.55
v 0.05 0.25 -0.55
v 0.05 0.35 -0.55
v 0.05 0.45 -0.55
v 0.15 0.05 -0.55
v 0.15 0.35 -0.55
v 0.25 0.35 -0.55
v 0.25 0.45 -0.55
v 0.35 0.25 -0.55
v 0.35 0.35 -0.55
v 0.35 0.45 -0.55
v 0.35 0.55 -0.55
v 0.45 0.35 -0.55
v 0.45 0.45 -0.55
v 0.55 0.25 -0.55
v 0.55 0.35 -0.55
v 0.55 0.45 -0.55
v 0.55 0.55 -0.55
v 0.65 0.15 -0.55
v 0.65 0.25 -0.55
v 0.75 0.15 -0.55
v 0.75 0.25 -0.55
v -0.25 -0.35 -0.65
v -0.25 -0.25 -0.65
v -0.15 -0.35 -0.65
v -0.15 -0.25 -0.65
v -0.15 -0.05 -0.65
v -0.05 -0.25 -0.65
v -0.05 -0.05 -0.65
v -0.05 0.05 -0.65
v 0.05 -0.25 -0.65
v 0.05 0.05 -0.65
v 0.25 0.35 -0.65
v 0.25 0.45 -0.65
v 0.45 0.35 -0.65
v 0.45 0.45 -0.65
v 0.55 0.25 -0.65
v 0.55 0.35 -0.65
v 0.55 0.45 -0.65
v 0.55 0.55 -0.65
v 0.65 0.25 -0.65
v 0.65 0.35 -0.65
v 0.65 0.45 -0.65
v 0.65 0.55 -0.65
v -0.25 -0.75 -0.75
v -0.25 -0.35 -0.75
v -0.15 -0.75 -0.75
v -0.15 -0.55 -0.75
v -0.15 -0.35 -0.75
v -0.15 -0.25 -0.75
v -0.05 -0.55 -0.75
v -0.05 -0.25 -0.75
v 0.45 0.35 -0.75
v 0.45 0.45 -0.75
v 0.65 0.35 -0.75
v 0.65 0.45 -0.75
v -0.25 -0.75 -0.65
v -0.15 -0.75 -0.65
v -0.25 -0.75 -0.75
v -0.15 -0.75 -0.75
v -0.25 -0.55 -0.55
v -0.15 -0.55 -0.55
v -0.25 -0.55 -0.65
v -0.15 -0.55 -0.65
v -0.05 -0.55 -0.65
v -0.15 -0.55 -0.75
v -0.05 -0.55 -0.75
v -0.15 -0.25 -0.45
v -0.05 -0.25 -0.45
v -0.15 -0.25 -0.55
v -0.05 -0.25 -0.55
v 0.05 -0.25 -0.55
v -0.15 -0.25 -0.65
v -0.05 -0.25 -0.65
v 0.05 -0.25 -0.65
v -0.65 -0.15 0.05
v -0.55 -0.15 0.05
v -0.65 -0.15 -0.05
v -0.55 -0.15 -0.05
v -0.75 -0.05 0.15
v -0.65 -0.05 0.15
v -0.75 -0.05 0.05
v -0.65 -0.05 0.05
v -0.65 0.05 0.25
v -0.55 0.05 0.25
v -0.65 0.05 0.15
v -0.55 0.05 0.15
v -0.45 0.05 0.15
v -0.65 0.05 0.05
v -0.55 0.05 0.05
v -0.45 0.05 0.05
v -0.05 0.05 -0.35
v 0.05 0.05 -0.35
v -0.05 0.05 -0.45
v 0.05 0.05 -0.45
v 0.15 0.05 -0.45
v -0.05 0.05 -0.55
v 0.05 0.05 -0.55
v 0.15 0.05 -0.55
v -0.55 0.15 0.75
v -0.45 0.15 0.75
v -0.55 0.15 0.55
v -0.45 0.15 0.55
v -0.15 0.15 0.15
v -0.05 0.15 0.15
v 0.05 0.15 0.15
v -0.15 0.15 0.05
v -0.05 0.15 0.05
v 0.05 0.15 0.05
v -0.05 0.15 -0.05
v 0.05 0.15 -0.05
v 0.15 0.15 -0.05
v 0.05 0.15 -0.15
v 0.15 0.15 -0.15
v 0.25 0.15 -0.15
v 0.15 0.15 -0.25
v 0.25 0.15 -0.25
v 0.45 0.15 -0.25
v 0.65 0.15 -0.25
v 0.25 0.15 -0.35
v 0.45 0.15 -0.35
v 0.65 0.15 -0.35
v 0.75 0.15 -0.35
v 0.45 0.15 -0.45
v 0.65 0.15 -0.45
v 0.75 0.15 -0.45
v 0.65 0.15 -0.55
v 0.75 0.15 -0.55
v -0.65 0.25 0.65
v -0.55 0.25 0.65
v -0.55 0.25 0.55
v -0.45 0.25 0.55
v -0.65 0.25 0.45
v -0.55 0.25 0.45
v -0.45 0.25 0.35
v -0.35 0.25 0.35
v -0.55 0.25 0.25
v -0.45 0.25 0.25
v -0.35 0.25 0.25
v -0.25 0.25 0.25
v -0.45 0.25 0.15
v -0.35 0.25 0.15
v -0.25 0.25 0.15
v -0.15 0.25 0.15
v -0.35 0.25 0.05
v -0.25 0.25 0.05
v -0.15 0.25 0.05
v -0.05 0.25 0.05
v -0.25 0.25 -0.05
v -0.15 0.25 -0.05
v -0.05 0.25 -0.05
v 0.05 0.25 -0.05
v -0.15 0.25 -0.15
v -0.05 0.25 -0.15
v 0.05 0.25 -0.15
v 0.15 0.25 -0.15
v -0.05 0.25 -0.25
v 0.05 0.25 -0.25
v 0.15 0.25 -0.25
v 0.25 0.25 -0.25
v 0.05 0.25 -0.35
v 0.15 0.25 -0.35
v 0.25 0.25 -0.35
v 0.45 0.25 -0.35
v 0.15 0.25 -0.45
v 0.35 0.25 -0.45
v 0.45 0.25 -0.45
v 0.65 0.25 -0.45
v 0.35 0.25 -0.55
v 0.55 0.25 -0.55
v 0.65 0.25 -0.55
v 0.55 0.25 -0.65
v 0.65 0.25 -0.65
v -0.45 0.35 0.65
v -0.35 0.35 0.65
v -0.75 0.35 0.55
v -0.65 0.35 0.55
v -0.65 0.35 0.45
v -0.55 0.35 0.45
v -0.75 0.35 0.35
v -0.65 0.35 0.35
v -0.55 0.35 0.35
v -0.45 0.35 0.35
v -0.35 0.35 0.35
v -0.65 0.35 0.25
v -0.55 0.35 0.25
v -0.45 0.35 0.25
v -0.25 0.35 0.25
v -0.05 0.35 0.25
v -0.55 0.35 0.15
v -0.45 0.35 0.15
v -0.35 0.35 0.15
v -0.25 0.35 0.15
v -0.05 0.35 0.15
v -0.45 0.35 0.05
v -0.35 0.35 0.05
v -0.25 0.35 0.05
v -0.45 0.35 -0.05
v -0.35 0.35 -0.05
v -0.25 0.35 -0.05
v -0.15 0.35 -0.05
v -0.35 0.35 -0.15
v -0.25 0.35 -0.15
v -0.15 0.35 -0.15
v -0.05 0.35 -0.15
v -0.25 0.35 -0.25
v -0.15 0.35 -0.25
v -0.05 0.35 -0.25
v 0.05 0.35 -0.25
v -0.15 0.35 -0.35
v -0.05 0.35 -0.35
v 0.05 0.35 -0.35
v 0.15 0.35 -0.35
v 0.05 0.35 -0.45
v 0.15 0.35 -0.45
v 0.25 0.35 -0.45
v 0.35 0.35 -0.45
v 0.15 0.35 -0.55
v 0.25 0.35 -0.55
v 0.35 0.35 -0.55
v 0.45 0.35 -0.55
v 0.55 0.35 -0.55
v 0.25 0.35 -0.65
v 0.45 0.35 -0.65
v 0.55 0.35 -0.65
v 0.65 0.35 -0.65
v 0.45 0.35 -0.75
v 0.65 0.35 -0.75
v -0.35 0.45 0.65
v -0.25 0.45 0.65
v -0.25 0.45 0.35
v -0.15 0.45 0.35
v -0.35 0.45 0.25
v -0.15 0.45 0.25
v 0.05 0.45 -0.15
v 0.15 0.45 -0.15
v 0.05 0.45 -0.25
v 0.15 0.45 -0.25
v -0.15 0.55 0.25
v -0.05 0.55 0.25
v -0.15 0.55 0.15
v -0.05 0.55 0.15
v -0.05 0.55 0.05
v 0.05 0.55 0.05
v 0.15 0.55 0.05
v -0.05 0.55 -0.05
v 0.05 0.55 -0.05
v 0.15 0.55 -0.05
v 0.05 0.55 -0.15
v 0.15 0.55 -0.15
v -0.05 0.65 0.25
v 0.05 0.65 0.25
v -0.05 0.65 0.15
v 0.05 0.65 0.15
v -0.25 -0.35 -0.65
v -0.15 -0.35 -0.65
v -0.25 -0.35 -0.75
v -0.15 -0.35 -0.75
v -0.25 -0.25 -0.55
v -0.15 -0.25 -0.55
v -0.25 -0.25 -0.65
v -0.15 -0.25 -0.65
v -0.05 -0.25 -0.65
v -0.15 -0.25 -0.75
v -0.05 -0.25 -0.75
v -0.15 -0.05 -0.55
v -0.05 -0.05 -0.55
v -0.15 -0.05 -0.65
v -0.05 -0.05 -0.65
v -0.75 0.05 0.15
v -0.65 0.05 0.15
v -0.75 0.05 0.05
v -0.65 0.05 0.05
v -0.55 0.05 0.05
v -0.65 0.05 -0.05
v -0.55 0.05 -0.05
v -0.15 0.05 -0.45
v -0.05 0.05 -0.45
v -0.15 0.05 -0.55
v -0.05 0.05 -0.55
v 0.05 0.05 -0.55
v -0.05 0.05 -0.65
v 0.05 0.05 -0.65
v -0.55 0.25 0.75
v -0.45 0.25 0.75
v -0.55 0.25 0.65
v -0.45 0.25 0.65
v -0.65 0.25 0.15
v -0.55 0.25 0.15
v -0.65 0.25 0.05
v -0.55 0.25 0.05
v 0.15 0.25 -0.15
v 0.25 0.25 -0.15
v 0.15 0.25 -0.25
v 0.25 0.25 -0.25
v 0.45 0.25 -0.25
v 0.65 0.25 -0.25
v 0.25 0.25 -0.35
v 0.45 0.25 -0.35
v 0.65 0.25 -0.35
v -0.05 0.25 -0.45
v 0.05 0.25 -0.45
v 0.65 0.25 -0.45
v 0.75 0.25 -0.45
v -0.05 0.25 -0.55
v 0.05 0.25 -0.55
v 0.65 0.25 -0.55
v 0.75 0.25 -0.55
v -0.65 0.35 0.65
v -0.55 0.35 0.65
v -0.65 0.35 0.55
v -0.55 0.35 0.55
v 0.05 0.35 -0.05
v 0.15 0.35 -0.05
v 0.05 0.35 -0.25
v 0.15 0.35 -0.25
v 0.35 0.35 -0.35
v 0.75 0.35 -0.35
v 0.35 0.35 -0.45
v 0.65 0.35 -0.45
v 0.75 0.35 -0.45
v -0.55 0.45 0.65
v -0.45 0.45 0.65
v -0.75 0.45 0.55
v -0.65 0.45 0.55
v -0.55 0.45 0.55
v -0.45 0.45 0.55
v -0.65 0.45 0.45
v -0.55 0.45 0.45
v -0.75 0.45 0.35
v -0.65 0.45 0.35
v -0.55 0.45 0.35
v -0.55 0.45 0.25
v -0.45 0.45 0.25
v -0.15 0.45 0.25
v -0.05 0.45 0.25
v -0.65 0.45 0.15
v -0.55 0.45 0.15
v -0.45 0.45 0.15
v -0.35 0.45 0.15
v -0.15 0.45 0.15
v -0.05 0.45 0.15
v -0.55 0.45 0.05
v -0.45 0.45 0.05
v -0.35 0.45 0.05
v -0.25 0.45 0.05
v -0.05 0.45 0.05
v 0.05 0.45 0.05
v -0.45 0.45 -0.05
v -0.35 0.45 -0.05
v -0.25 0.45 -0.05
v -0.15 0.45 -0.05
v -0.05 0.45 -0.05
v 0.05 0.45 -0.05
v -0.35 0.45 -0.15
v -0.25 0.45 -0.15
v -0.15 0.45 -0.15
v -0.05 0.45 -0.15
v -0.25 0.45 -0.25
v -0.15 0.45 -0.25
v -0.05 0.45 -0.25
v 0.05 0.45 -0.25
v -0.15 0.45 -0.35
v -0.05 0.45 -0.35
v 0.05 0.45 -0.35
v 0.15 0.45 -0.35
v -0.05 0.45 -0.45
v 0.05 0.45 -0.45
v 0.15 0.45 -0.45
v 0.25 0.45 -0.45
v 0.35 0.45 -0.45
v 0.05 0.45 -0.55
v 0.25 0.45 -0.55
v 0.35 0.45 -0.55
v 0.45 0.45 -0.55
v 0.55 0.45 -0.55
v 0.25 0.45 -0.65
v 0.45 0.45 -0.65
v 0.55 0.45 -0.65
v 0.65 0.45 -0.65
v 0.45 0.45 -0.75
v 0.65 0.45 -0.75
v -0.35 0.55 0.65
v -0.25 0.55 0.65
v -0.65 0.55 0.55
v -0.45 0.55 0.55
v -0.35 0.55 0.55
v -0.65 0.55 0.45
v -0.55 0.55 0.45
v -0.35 0.55 0.45
v -0.25 0.55 0.45
v -0.55 0.55 0.25
v -0.45 0.55 0.25
v -0.35 0.55 0.25
v -0.45 0.55 0.15
v -0.35 0.55 0.15
v -0.25 0.55 0.15
v -0.35 0.55 0.05
v -0.25 0.55 0.05
v -0.15 0.55 0.05
v -0.25 0.55 -0.05
v -0.15 0.55 -0.05
v -0.05 0.55 -0.05
v -0.15 0.55 -0.15
v -0.05 0.55 -0.15
v 0.15 0.55 -0.15
v -0.05 0.55 -0.25
v 0.05 0.55 -0.25
v 0.15 0.55 -0.25
v 0.25 0.55 -0.25
v 0.05 0.55 -0.35
v 0.15 0.55 -0.35
v 0.25 0.55 -0.35
v 0.35 0.55 -0.35
v 0.15 0.55 -0.45
v 0.35 0.55 -0.45
v 0.65 0.55 -0.45
v 0.35 0.55 -0.55
v 0.55 0.55 -0.55
v 0.55 0.55 -0.65
v 0.65 0.55 -0.65
v -0.45 0.65 0.65
v -0.35 0.65 0.65
v -0.45 0.65 0.55
v -0.35 0.65 0.55
v -0.35 0.65 0.45
v -0.35 0.65 0.35
v -0.25 0.65 0.35
v -0.45 0.65 0.25
v -0.35 0.65 0.25
v -0.25 0.65 0.25
v -0.15 0.65 0.25
v -0.35 0.65 0.15
v -0.25 0.65 0.15
v -0.15 0.65 0.15
v -0.05 0.65 0.15
v -0.25 0.65 0.05
v -0.15 0.65 0.05
v -0.05 0.65 0.05
v 0.05 0.65 0.05
v -0.15 0.65 -0.05
v -0.05 0.65 -0.05
v 0.05 0.65 -0.05
v 0.15 0.65 -0.05
v -0.05 0.65 -0.15
v 0.15 0.65 -0.15
v -0.35 0.75 0.45
v -0.25 0.75 0.45
v -0.35 0.75 0.35
v -0.25 0.75 0.35
v -0.15 0.75 0.35
v -0.25 0.75 0.25
v -0.15 0.75 0.25
v 0.05 0.75 0.25
v -0.15 0.75 0.15
v -0.05 0.75 0.15
v -0.05 0.75 0.05
v 0.05 0.75 0.05
v 0.15 0.75 0.05
v 0.05 0.75 -0.05
v 0.15 0.75 -0.05

# faces
f 3/2/1 2/2/1 1/2/1
f 4/2/1 2/2/1 3/2/1
f 7/3/1 6/3/1 5/3/1
f 8/3/1 6/3/1 7/3/1
f 11/2/1 10/2/1 9/2/1
f 14/2/1 10/2/1 11/2/1
f 15/2/1 10/2/1 14/2/1
f 18/2/1 13/2/1 12/2/1
f 18/2/1 14/2/1 13/2/1
f 19/2/1 14/2/1 18/2/1
f 20/1/1 17/1/1 16/1/1
f 21/1/1 17/1/1 20/1/1
f 22/1/1 17/1/1 21/1/1
f 24/2/1 18/2/1 12/2/1
f 25/2/1 18/2/1 24/2/1
f 28/3/1 25/3/1 24/3/1
f 28/3/1 24/3/1 23/3/1
f 29/3/1 25/3/1 28/3/1
f 30/1/1 27/1/1 26/1/1
f 31/1/1 27/1/1 30/1/1
f 34/3/1 33/3/1 32/3/1
f 35/3/1 33/3/1 34/3/1
f 36/3/1 33/3/1 35/3/1
f 43/1/1 38/1/1 37/1/1
f 44/1/1 38/1/1 43/1/1
f 45/1/1 38/1/1 44/1/1
f 46/2/1 40/2/1 39/2/1
f 47/2/1 40/2/1 46/2/1
f 48/1/1 42/1/1 41/1/1
f 49/1/1 42/1/1 48/1/1
f 53/3/1 47/3/1 46/3/1
f 54/3/1 47/3/1 53/3/1
f 55/1/1 52/1/1 51/1/1
f 55/1/1 51/1/1 50/1/1
f 56/1/1 52/1/1 55/1/1
f 59/1/1 58/1/1 57/1/1
f 60/1/1 58/1/1 59/1/1
f 67/3/1 62/3/1 61/3/1
f 68/3/1 62/3/1 67/3/1
f 69/1/1 64/1/1 63/1/1
f 70/1/1 66/1/1 65/1/1
f 71/1/1 66/1/1 70/1/1
f 72/1/1 69/1/1 63/1/1
f 73/3/1 70/3/1 69/3/1
f 73/1/1 69/1/1 72/1/1
f 74/3/1 70/3/1 73/3/1
f 77/1/1 76/1/1 75/1/1
f 78/1/1 76/1/1 77/1/1
f 83/3/1 80/3/1 79/3/1
f 84/3/1 80/3/1 83/3/1
f 86/1/1 82/1/1 81/1/1
f 87/1/1 82/1/1 86/1/1
f 90/3/1 86/3/1 85/3/1
f 91/3/1 86/3/1 90/3/1
f 92/1/1 89/1/1 88/1/1
f 93/1/1 89/1/1 92/1/1
f 97/2/1 95/2/1 94/2/1
f 98/2/1 95/2/1 97/2/1
f 98/2/1 97/2/1 96/2/1
f 99/2/1 95/2/1 98/2/1
f 100/2/1 98/2/1 96/2/1
f 101/2/1 98/2/1 100/2/1
f 104/1/1 103/1/1 102/1/1
f 105/1/1 103/1/1 104/1/1
f 110/3/1 107/3/1 106/3/1
f 111/3/1 107/3/1 110/3/1
f 113/1/1 109/1/1 108/1/1
f 114/1/1 109/1/1 113/1/1
f 117/3/1 113/3/1 112/3/1
f 118/3/1 113/3/1 117/3/1
f 119/1/1 116/1/1 115/1/1
f 120/1/1 116/1/1 119/1/1
f 125/2/1 122/2/1 121/2/1
f 126/2/1 122/2/1 125/2/1
f 127/2/1 124/2/1 123/2/1
f 127/2/1 125/2/1 124/2/1
f 128/2/1 125/2/1 127/2/1
f 129/2/1 127/2/1 123/2/1
f 130/2/1 127/2/1 129/2/1
f 133/3/1 132/3/1 131/3/1
f 134/3/1 132/3/1 133/3/1
f 137/1/1 136/1/1 135/1/1
f 138/1/1 136/1/1 137/1/1
f 143/3/1 140/3/1 139/3/1
f 144/3/1 140/3/1 143/3/1
f 146/1/1 142/1/1 141/1/1
f 147/1/1 142/1/1 146/1/1
f 150/3/1 146/3/1 145/3/1
f 151/3/1 146/3/1 150/3/1
f 152/1/1 149/1/1 148/1/1
f 153/1/1 149/1/1 152/1/1
f 158/2/1 155/2/1 154/2/1
f 159/2/1 155/2/1 158/2/1
f 162/3/1 161/3/1 160/3/1
f 163/3/1 161/3/1 162/3/1
f 166/2/1 157/2/1 156/2/1
f 166/2/1 158/2/1 157/2/1
f 167/2/1 158/2/1 166/2/1
f 168/1/1 165/1/1 164/1/1
f 169/1/1 165/1/1 168/1/1
f 170/2/1 166/2/1 156/2/1
f 171/2/1 166/2/1 170/2/1
f 174/3/1 171/3/1 170/3/1
f 175/3/1 171/3/1 174/3/1
f 177/1/1 173/1/1 172/1/1
f 178/1/1 173/1/1 177/1/1
f 181/3/1 177/3/1 176/3/1
f 182/3/1 177/3/1 181/3/1
f 183/1/1 180/1/1 179/1/1
f 184/1/1 180/1/1 183/1/1
f 187/3/1 186/3/1 185/3/1
f 188/3/1 186/3/1 187/3/1
f 193/1/1 190/1/1 189/1/1
f 194/1/1 190/1/1 193/1/1
f 195/2/1 192/2/1 191/2/1
f 196/2/1 192/2/1 195/2/1
f 199/3/1 196/3/1 195/3/1
f 200/3/1 196/3/1 199/3/1
f 201/1/1 198/1/1 197/1/1
f 202/1/1 198/1/1 201/1/1
f 205/1/1 204/1/1 203/1/1
f 206/1/1 204/1/1 205/1/1
f 209/3/1 208/3/1 207/3/1
f 210/3/1 208/3/1 209/3/1
f 213/1/1 212/1/1 211/1/1
f 214/1/1 212/1/1 213/1/1
f 217/1/1 216/1/1 215/1/1
f 218/1/1 216/1/1 217/1/1
f 221/3/1 220/3/1 219/3/1
f 222/3/1 220/3/1 221/3/1
f 225/3/1 224/3/1 223/3/1
f 226/3/1 224/3/1 225/3/1
f 229/1/1 228/1/1 227/1/1
f 230/1/1 228/1/1 229/1/1
f 233/1/1 232/1/1 231/1/1
f 234/1/1 232/1/1 233/1/1
f 237/3/1 236/3/1 235/3/1
f 238/3/1 236/3/1 237/3/1
f 241/3/1 240/3/1 239/3/1
f 242/3/1 240/3/1 241/3/1
f 245/1/1 244/1/1 243/1/1
f 246/1/1 244/1/1 245/1/1
f 249/1/1 248/1/1 247/1/1
f 250/1/1 248/1/1 249/1/1
f 253/3/1 252/3/1 251/3/1
f 254/3/1 252/3/1 253/3/1
f 255/2/2 256/2/2 257/2/2
f 257/2/2 256/2/2 258/2/2
f 259/2/2 260/2/2 263/2/2
f 263/2/2 260/2/2 264/2/2
f 261/2/2 262/2/2 265/2/2
f 265/2/2 262/2/2 266/2/2
f 266/2/2 262/2/2 267/2/2
f 270/3/2 271/3/2 272/3/2
f 272/3/2 271/3/2 273/3/2
f 273/3/2 271/3/2 274/3/2
f 268/2/2 269/2/2 276/2/2
f 274/1/2 275/1/2 277/1/2
f 273/1/2 274/1/2 277/1/2
f 277/1/2 275/1/2 278/1/2
f 276/2/2 269/2/2 279/2/2
f 279/2/2 269/2/2 280/2/2
f 281/1/2 282/1/2 284/1/2
f 283/1/2 284/1/2 285/1/2
f 284/1/2 282/1/2 286/1/2
f 285/1/2 284/1/2 286/1/2
f 287/1/2 288/1/2 290/1/2
f 288/3/2 289/3/2 291/3/2
f 290/1/2 288/1/2 291/1/2
f 291/3/2 289/3/2 292/3/2
f 293/1/2 294/1/2 295/1/2
f 295/1/2 294/1/2 296/1/2
f 297/1/2 298/1/2 299/1/2
f 299/1/2 298/1/2 300/1/2
f 300/1/2 298/1/2 301/1/2
f 301/1/2 298/1/2 302/1/2
f 303/2/2 304/2/2 306/2/2
f 306/2/2 304/2/2 307/2/2
f 305/2/2 306/2/2 308/2/2
f 308/2/2 306/2/2 309/2/2
f 310/1/2 311/1/2 313/1/2
f 311/1/2 312/1/2 313/1/2
f 313/1/2 312/1/2 314/1/2
f 310/1/2 313/1/2 315/1/2
f 315/1/2 313/1/2 316/1/2
f 317/2/2 318/2/2 321/2/2
f 321/2/2 318/2/2 322/2/2
f 319/2/2 320/2/2 323/2/2
f 323/2/2 320/2/2 324/2/2
f 325/1/2 326/1/2 327/1/2
f 327/1/2 326/1/2 328/1/2
f 329/1/2 330/1/2 333/1/2
f 333/1/2 330/1/2 334/1/2
f 331/1/2 332/1/2 335/1/2
f 335/1/2 332/1/2 336/1/2
f 337/2/2 338/2/2 341/2/2
f 341/2/2 338/2/2 342/2/2
f 343/1/2 344/1/2 346/1/2
f 344/3/2 345/3/2 346/3/2
f 346/3/2 345/3/2 347/3/2
f 339/2/2 340/2/2 348/2/2
f 346/1/2 347/1/2 349/1/2
f 348/2/2 340/2/2 351/2/2
f 351/2/2 340/2/2 352/2/2
f 349/1/2 350/1/2 353/1/2
f 343/1/2 346/1/2 353/1/2
f 346/1/2 349/1/2 353/1/2
f 353/1/2 350/1/2 354/1/2
f 354/1/2 350/1/2 355/1/2
f 355/1/2 350/1/2 356/1/2
f 343/1/2 353/1/2 357/1/2
f 354/1/2 355/1/2 358/1/2
f 358/1/2 355/1/2 359/1/2
f 343/1/2 357/1/2 361/1/2
f 360/1/2 361/1/2 362/1/2
f 361/1/2 357/1/2 363/1/2
f 362/1/2 361/1/2 363/1/2
f 366/3/2 367/3/2 368/3/2
f 368/3/2 367/3/2 369/3/2
f 364/2/2 365/2/2 371/2/2
f 369/1/2 370/1/2 372/1/2
f 368/1/2 369/1/2 372/1/2
f 372/1/2 370/1/2 373/1/2
f 371/2/2 365/2/2 374/2/2
f 374/2/2 365/2/2 375/2/2
f 376/1/2 377/1/2 380/1/2
f 380/1/2 377/1/2 381/1/2
f 378/1/2 379/1/2 382/1/2
f 379/3/2 380/3/2 382/3/2
f 382/3/2 380/3/2 383/3/2
f 378/1/2 382/1/2 384/1/2
f 384/1/2 382/1/2 385/1/2
f 386/3/2 387/3/2 388/3/2
f 388/3/2 387/3/2 389/3/2
f 389/1/2 390/1/2 391/1/2
f 391/1/2 390/1/2 392/1/2
f 393/1/2 394/1/2 395/1/2
f 395/1/2 394/1/2 396/1/2
f 397/1/2 398/1/2 399/1/2
f 399/1/2 398/1/2 400/1/2
f 402/1/2 403/1/2 404/1/2
f 401/1/2 402/1/2 404/1/2
f 404/1/2 403/1/2 405/1/2
f 404/1/2 405/1/2 407/1/2
f 405/3/2 406/3/2 407/3/2
f 407/3/2 406/3/2 408/3/2
f 404/1/2 407/1/2 409/1/2
f 409/1/2 407/1/2 410/1/2
f 411/1/2 412/1/2 414/1/2
f 412/3/2 413/3/2 414/3/2
f 414/3/2 413/3/2 415/3/2
f 411/1/2 414/1/2 416/1/2
f 416/1/2 414/1/2 417/1/2
f 420/3/3 419/3/3 418/3/3
f 421/3/3 419/3/3 420/3/3
f 424/1/3 423/1/3 422/1/3
f 425/1/3 423/1/3 424/1/3
f 427/1/3 425/1/3 424/1/3
f 427/1/3 426/1/3 425/1/3
f 428/1/3 426/1/3 427/1/3
f 429/1/3 426/1/3 428/1/3
f 431/1/3 430/1/3 429/1/3
f 431/1/3 429/1/3 428/1/3
f 432/1/3 430/1/3 431/1/3
f 433/1/3 430/1/3 432/1/3
f 434/1/3 430/1/3 433/1/3
f 435/1/3 433/1/3 432/1/3
f 436/1/3 433/1/3 435/1/3
f 439/3/3 438/3/3 437/3/3
f 440/3/3 438/3/3 439/3/3
f 442/1/3 440/1/3 439/1/3
f 442/1/3 441/1/3 440/1/3
f 443/1/3 441/1/3 442/1/3
f 444/1/3 441/1/3 443/1/3
f 445/1/3 441/1/3 444/1/3
f 449/1/3 447/1/3 446/1/3
f 449/1/3 448/1/3 447/1/3
f 450/1/3 448/1/3 449/1/3
f 453/1/3 452/1/3 451/1/3
f 454/1/3 452/1/3 453/1/3
f 457/1/3 456/1/3 455/1/3
f 458/1/3 456/1/3 457/1/3
f 461/2/3 460/2/3 459/2/3
f 462/2/3 460/2/3 461/2/3
f 463/2/3 460/2/3 462/2/3
f 466/1/3 465/1/3 464/1/3
f 467/1/3 465/1/3 466/1/3
f 468/1/3 465/1/3 467/1/3
f 471/1/3 468/1/3 467/1/3
f 472/1/3 468/1/3 471/1/3
f 473/1/3 470/1/3 469/1/3
f 474/1/3 470/1/3 473/1/3
f 475/1/3 470/1/3 474/1/3
f 476/1/3 470/1/3 475/1/3
f 479/2/3 478/2/3 477/2/3
f 480/2/3 478/2/3 479/2/3
f 483/2/3 482/2/3 481/2/3
f 484/2/3 482/2/3 483/2/3
f 485/2/3 482/2/3 484/2/3
f 489/1/3 487/1/3 486/1/3
f 492/3/3 489/3/3 488/3/3
f 493/1/3 487/1/3 489/1/3
f 493/3/3 489/3/3 492/3/3
f 494/1/3 487/1/3 493/1/3
f 495/1/3 491/1/3 490/1/3
f 496/1/3 491/1/3 495/1/3
f 498/1/3 494/1/3 493/1/3
f 498/1/3 497/1/3 496/1/3
f 498/1/3 496/1/3 495/1/3
f 498/1/3 495/1/3 494/1/3
f 498/1/3 493/1/3 492/1/3
f 499/1/3 497/1/3 498/1/3
f 503/2/3 501/2/3 500/2/3
f 503/2/3 502/2/3 501/2/3
f 504/2/3 502/2/3 503/2/3
f 507/1/3 506/1/3 505/1/3
f 508/1/3 506/1/3 507/1/3
f 514/1/3 510/1/3 509/1/3
f 515/1/3 510/1/3 514/1/3
f 516/3/3 512/3/3 511/3/3
f 517/1/3 513/1/3 512/1/3
f 517/3/3 512/3/3 516/3/3
f 518/1/3 513/1/3 517/1/3
f 523/1/3 520/1/3 519/1/3
f 524/1/3 520/1/3 523/1/3
f 525/3/3 522/3/3 521/3/3
f 526/3/3 522/3/3 525/3/3
f 530/1/3 528/1/3 527/1/3
f 531/1/3 528/1/3 530/1/3
f 534/1/3 530/1/3 529/1/3
f 534/1/3 532/1/3 531/1/3
f 534/1/3 531/1/3 530/1/3
f 535/1/3 532/1/3 534/1/3
f 536/3/3 534/3/3 533/3/3
f 537/3/3 534/3/3 536/3/3
f 538/1/3 537/1/3 536/1/3
f 539/1/3 537/1/3 538/1/3
f 542/2/3 541/2/3 540/2/3
f 543/2/3 541/2/3 542/2/3
f 544/2/3 541/2/3 543/2/3
f 547/1/3 546/1/3 545/1/3
f 548/1/3 546/1/3 547/1/3
f 549/1/3 547/1/3 545/1/3
f 551/1/3 547/1/3 549/1/3
f 552/1/3 551/1/3 550/1/3
f 553/1/3 547/1/3 551/1/3
f 553/1/3 551/1/3 552/1/3
f 556/2/3 555/2/3 554/2/3
f 557/2/3 555/2/3 556/2/3
f 560/2/3 559/2/3 558/2/3
f 561/2/3 559/2/3 560/2/3
f 562/2/3 559/2/3 561/2/3
f 565/1/3 564/1/3 563/1/3
f 566/1/3 564/1/3 565/1/3
f 569/2/3 568/2/3 567/2/3
f 570/2/3 568/2/3 569/2/3
f 573/2/3 572/2/3 571/2/3
f 574/2/3 572/2/3 573/2/3
f 577/2/3 576/2/3 575/2/3
f 578/2/3 576/2/3 577/2/3
f 580/2/3 579/2/3 578/2/3
f 581/2/3 579/2/3 580/2/3
f 582/3/4 583/3/4 584/3/4
f 584/3/4 583/3/4 585/3/4
f 586/1/4 587/1/4 590/1/4
f 590/1/4 587/1/4 591/1/4
f 588/1/4 589/1/4 592/1/4
f 592/1/4 589/1/4 593/1/4
f 594/3/4 595/3/4 596/3/4
f 596/3/4 595/3/4 597/3/4
f 598/1/4 599/1/4 600/1/4
f 600/1/4 599/1/4 601/1/4
f 602/1/4 603/1/4 606/1/4
f 606/1/4 603/1/4 607/1/4
f 604/1/4 605/1/4 608/1/4
f 608/1/4 605/1/4 609/1/4
f 609/3/4 610/3/4 611/3/4
f 611/3/4 610/3/4 612/3/4
f 613/1/4 614/1/4 615/1/4
f 615/1/4 614/1/4 616/1/4
f 617/2/4 618/2/4 620/2/4
f 618/3/4 619/3/4 621/3/4
f 620/2/4 618/2/4 621/2/4
f 621/3/4 619/3/4 622/3/4
f 623/1/4 624/1/4 627/1/4
f 627/1/4 624/1/4 628/1/4
f 625/1/4 626/1/4 629/1/4
f 629/1/4 626/1/4 630/1/4
f 630/3/4 631/3/4 632/3/4
f 632/3/4 631/3/4 633/3/4
f 634/1/4 635/1/4 636/1/4
f 636/1/4 635/1/4 637/1/4
f 638/2/4 639/2/4 640/2/4
f 640/2/4 639/2/4 641/2/4
f 641/2/4 642/2/4 643/2/4
f 643/2/4 642/2/4 644/2/4
f 643/2/4 644/2/4 647/2/4
f 644/2/4 645/2/4 647/2/4
f 645/3/4 646/3/4 648/3/4
f 647/2/4 645/2/4 648/2/4
f 648/3/4 646/3/4 649/3/4
f 650/1/4 651/1/4 654/1/4
f 654/1/4 651/1/4 655/1/4
f 652/1/4 653/1/4 656/1/4
f 656/1/4 653/1/4 657/1/4
f 657/3/4 658/3/4 661/3/4
f 661/3/4 658/3/4 662/3/4
f 659/3/4 660/3/4 663/3/4
f 663/3/4 660/3/4 664/3/4
f 665/1/4 666/1/4 669/1/4
f 669/1/4 666/1/4 670/1/4
f 667/1/4 668/1/4 671/1/4
f 671/1/4 668/1/4 672/1/4
f 673/2/4 674/2/4 675/2/4
f 675/2/4 674/2/4 676/2/4
f 677/3/4 678/3/4 679/3/4
f 679/3/4 678/3/4 680/3/4
f 681/1/4 682/1/4 685/1/4
f 685/1/4 682/1/4 686/1/4
f 683/1/4 684/1/4 687/1/4
f 687/1/4 684/1/4 688/1/4
f 688/3/4 689/3/4 692/3/4
f 692/3/4 689/3/4 693/3/4
f 690/3/4 691/3/4 694/3/4
f 694/3/4 691/3/4 695/3/4
f 696/1/4 697/1/4 698/1/4
f 698/1/4 697/1/4 699/1/4
f 700/3/4 701/3/4 702/3/4
f 702/3/4 701/3/4 703/3/4
f 704/1/4 705/1/4 708/1/4
f 708/1/4 705/1/4 709/1/4
f 706/1/4 707/1/4 710/1/4
f 710/1/4 707/1/4 711/1/4
f 713/3/4 714/3/4 715/3/4
f 715/3/4 714/3/4 716/3/4
f 711/3/4 712/3/4 717/3/4
f 717/3/4 712/3/4 718/3/4
f 719/3/4 720/3/4 721/3/4
f 721/3/4 720/3/4 722/3/4
f 723/1/4 724/1/4 727/1/4
f 727/1/4 724/1/4 728/1/4
f 725/1/4 726/1/4 729/1/4
f 729/1/4 726/1/4 730/1/4
f 731/3/4 732/3/4 733/3/4
f 733/3/4 732/3/4 734/3/4
f 735/3/4 736/3/4 737/3/4
f 737/3/4 736/3/4 738/3/4
f 739/1/4 740/1/4 743/1/4
f 743/1/4 740/1/4 744/1/4
f 741/1/4 742/1/4 745/1/4
f 745/1/4 742/1/4 746/1/4
f 747/3/4 748/3/4 749/3/4
f 749/3/4 748/3/4 750/3/4
f 751/2/4 752/2/4 754/2/4
f 752/3/4 753/3/4 755/3/4
f 754/2/4 752/2/4 755/2/4
f 755/3/4 753/3/4 756/3/4
f 757/1/4 758/1/4 761/1/4
f 759/1/4 760/1/4 762/1/4
f 757/1/4 761/1/4 763/1/4
f 763/1/4 761/1/4 764/1/4
f 762/1/4 760/1/4 765/1/4
f 765/1/4 760/1/4 766/1/4
f 767/3/4 768/3/4 769/3/4
f 769/3/4 768/3/4 770/3/4
f 770/1/4 771/1/4 772/1/4
f 772/1/4 771/1/4 773/1/4
f 774/2/4 775/2/4 776/2/4
f 776/2/4 775/2/4 777/2/4
f 777/2/4 778/2/4 779/2/4
f 779/2/4 778/2/4 780/2/4
f 779/2/4 780/2/4 783/2/4
f 780/2/4 781/2/4 783/2/4
f 781/3/4 782/3/4 784/3/4
f 783/2/4 781/2/4 784/2/4
f 784/3/4 782/3/4 785/3/4
f 785/3/4 782/3/4 786/3/4
f 787/1/4 788/1/4 791/1/4
f 789/1/4 790/1/4 792/1/4
f 787/1/4 791/1/4 793/1/4
f 793/1/4 791/1/4 794/1/4
f 792/1/4 790/1/4 795/1/4
f 795/1/4 790/1/4 796/1/4
f 797/3/4 798/3/4 799/3/4
f 799/3/4 798/3/4 800/3/4
f 801/2/4 802/2/4 803/2/4
f 803/2/4 802/2/4 804/2/4
f 804/2/4 805/2/4 806/2/4
f 806/2/4 805/2/4 807/2/4
f 806/2/4 807/2/4 809/2/4
f 807/2/4 808/2/4 809/2/4
f 809/2/4 808/2/4 810/2/4
f 811/3/4 812/3/4 813/3/4
f 813/3/4 812/3/4 814/3/4
f 815/1/4 816/1/4 819/1/4
f 819/1/4 816/1/4 820/1/4
f 817/1/4 818/1/4 821/1/4
f 821/1/4 818/1/4 822/1/4
f 823/2/4 824/2/4 825/2/4
f 825/2/4 824/2/4 826/2/4
f 826/2/4 824/2/4 827/2/4
f 827/2/4 828/2/4 829/2/4
f 826/2/4 827/2/4 829/2/4
f 829/2/4 828/2/4 830/2/4
f 831/3/4 832/3/4 833/3/4
f 833/3/4 832/3/4 834/3/4
f 837/2/5 836/2/5 835/2/5
f 838/2/5 836/2/5 837/2/5
f 841/2/5 840/2/5 839/2/5
f 842/2/5 840/2/5 841/2/5
f 844/2/5 843/2/5 842/2/5
f 845/2/5 843/2/5 844/2/5
f 848/2/5 847/2/5 846/2/5
f 849/2/5 847/2/5 848/2/5
f 851/2/5 849/2/5 848/2/5
f 851/2/5 850/2/5 849/2/5
f 852/2/5 850/2/5 851/2/5
f 853/2/5 850/2/5 852/2/5
f 856/2/5 855/2/5 854/2/5
f 857/2/5 855/2/5 856/2/5
f 860/2/5 859/2/5 858/2/5
f 861/2/5 859/2/5 860/2/5
f 864/2/5 863/2/5 862/2/5
f 865/2/5 863/2/5 864/2/5
f 867/2/5 865/2/5 864/2/5
f 867/2/5 866/2/5 865/2/5
f 868/2/5 866/2/5 867/2/5
f 869/2/5 866/2/5 868/2/5
f 872/2/5 871/2/5 870/2/5
f 873/2/5 871/2/5 872/2/5
f 875/2/5 873/2/5 872/2/5
f 875/2/5 874/2/5 873/2/5
f 876/2/5 874/2/5 875/2/5
f 877/2/5 874/2/5 876/2/5
f 880/3/5 879/3/5 878/3/5
f 881/3/5 879/3/5 880/3/5
f 885/3/5 883/3/5 882/3/5
f 886/1/5 884/1/5 883/1/5
f 886/3/5 883/3/5 885/3/5
f 887/1/5 884/1/5 886/1/5
f 888/3/5 887/3/5 886/3/5
f 889/3/5 887/3/5 888/3/5
f 891/3/5 890/3/5 889/3/5
f 892/3/5 890/3/5 891/3/5
f 894/3/5 893/3/5 892/3/5
f 895/3/5 893/3/5 894/3/5
f 898/3/5 896/3/5 895/3/5
f 899/1/5 897/1/5 896/1/5
f 899/3/5 896/3/5 898/3/5
f 900/1/5 897/1/5 899/1/5
f 902/3/5 900/3/5 899/3/5
f 903/1/5 901/1/5 900/1/5
f 903/3/5 900/3/5 902/3/5
f 904/1/5 901/1/5 903/1/5
f 905/3/5 904/3/5 903/3/5
f 906/3/5 904/3/5 905/3/5
f 909/1/5 908/1/5 907/1/5
f 911/1/5 909/1/5 907/1/5
f 911/1/5 910/1/5 909/1/5
f 912/1/5 910/1/5 911/1/5
f 913/1/5 910/1/5 912/1/5
f 915/1/5 913/1/5 912/1/5
f 915/1/5 914/1/5 913/1/5
f 916/1/5 914/1/5 915/1/5
f 917/1/5 914/1/5 916/1/5
f 919/1/5 918/1/5 917/1/5
f 919/1/5 917/1/5 916/1/5
f 920/1/5 918/1/5 919/1/5
f 921/1/5 918/1/5 920/1/5
f 923/1/5 922/1/5 921/1/5
f 923/1/5 921/1/5 920/1/5
f 924/1/5 922/1/5 923/1/5
f 925/1/5 922/1/5 924/1/5
f 927/1/5 926/1/5 925/1/5
f 927/1/5 925/1/5 924/1/5
f 928/1/5 926/1/5 927/1/5
f 929/1/5 926/1/5 928/1/5
f 931/1/5 930/1/5 929/1/5
f 931/1/5 929/1/5 928/1/5
f 932/1/5 930/1/5 931/1/5
f 933/1/5 930/1/5 932/1/5
f 935/1/5 934/1/5 933/1/5
f 935/1/5 933/1/5 932/1/5
f 936/1/5 934/1/5 935/1/5
f 937/1/5 934/1/5 936/1/5
f 939/1/5 938/1/5 937/1/5
f 939/1/5 937/1/5 936/1/5
f 940/1/5 938/1/5 939/1/5
f 941/1/5 938/1/5 940/1/5
f 943/1/5 942/1/5 941/1/5
f 943/1/5 941/1/5 940/1/5
f 944/1/5 942/1/5 943/1/5
f 945/1/5 942/1/5 944/1/5
f 947/1/5 946/1/5 945/1/5
f 947/1/5 945/1/5 944/1/5
f 948/1/5 946/1/5 947/1/5
f 949/1/5 946/1/5 948/1/5
f 950/1/5 949/1/5 948/1/5
f 951/1/5 949/1/5 950/1/5
f 956/3/5 955/3/5 954/3/5
f 958/3/5 956/3/5 954/3/5
f 959/1/5 957/1/5 956/1/5
f 959/3/5 956/3/5 958/3/5
f 960/1/5 957/1/5 959/1/5
f 961/1/5 953/1/5 952/1/5
f 962/1/5 953/1/5 961/1/5
f 963/3/5 960/3/5 959/3/5
f 964/3/5 960/3/5 963/3/5
f 968/1/5 965/1/5 964/1/5
f 969/1/5 965/1/5 968/1/5
f 971/1/5 967/1/5 966/1/5
f 972/1/5 967/1/5 971/1/5
f 973/1/5 970/1/5 969/1/5
f 974/1/5 970/1/5 973/1/5
f 976/3/5 974/3/5 973/3/5
f 977/1/5 975/1/5 974/1/5
f 977/3/5 974/3/5 976/3/5
f 978/1/5 975/1/5 977/1/5
f 980/3/5 978/3/5 977/3/5
f 981/1/5 979/1/5 978/1/5
f 981/3/5 978/3/5 980/3/5
f 982/1/5 979/1/5 981/1/5
f 984/3/5 982/3/5 981/3/5
f 985/1/5 983/1/5 982/1/5
f 985/3/5 982/3/5 984/3/5
f 986/1/5 983/1/5 985/1/5
f 988/3/5 986/3/5 985/3/5
f 989/1/5 987/1/5 986/1/5
f 989/3/5 986/3/5 988/3/5
f 990/1/5 987/1/5 989/1/5
f 992/1/5 991/1/5 990/1/5
f 993/1/5 991/1/5 992/1/5
f 996/3/5 994/3/5 993/3/5
f 997/1/5 995/1/5 994/1/5
f 997/3/5 994/3/5 996/3/5
f 998/1/5 995/1/5 997/1/5
f 1001/3/5 998/3/5 997/3/5
f 1001/3/5 999/3/5 998/3/5
f 1002/1/5 1000/1/5 999/1/5
f 1002/3/5 999/3/5 1001/3/5
f 1003/1/5 1000/1/5 1002/1/5
f 1005/3/5 1004/3/5 1003/3/5
f 1005/3/5 1003/3/5 1002/3/5
f 1006/3/5 1004/3/5 1005/3/5
f 1009/1/5 1008/1/5 1007/1/5
f 1011/1/5 1009/1/5 1007/1/5
f 1011/1/5 1010/1/5 1009/1/5
f 1012/1/5 1010/1/5 1011/1/5
f 1015/1/5 1014/1/5 1013/1/5
f 1016/1/5 1014/1/5 1015/1/5
f 1019/1/5 1018/1/5 1017/1/5
f 1020/1/5 1018/1/5 1019/1/5
f 1024/1/5 1022/1/5 1021/1/5
f 1024/1/5 1023/1/5 1022/1/5
f 1025/1/5 1023/1/5 1024/1/5
f 1026/1/5 1023/1/5 1025/1/5
f 1027/3/5 1026/3/5 1025/3/5
f 1028/3/5 1026/3/5 1027/3/5
f 1031/1/5 1030/1/5 1029/1/5
f 1032/1/5 1030/1/5 1031/1/5
f 1033/2/6 1034/2/6 1035/2/6
f 1035/2/6 1034/2/6 1036/2/6
f 1037/2/6 1038/2/6 1039/2/6
f 1039/2/6 1038/2/6 1040/2/6
f 1040/2/6 1041/2/6 1042/2/6
f 1042/2/6 1041/2/6 1043/2/6
f 1044/2/6 1045/2/6 1046/2/6
f 1046/2/6 1045/2/6 1047/2/6
f 1048/2/6 1049/2/6 1050/2/6
f 1050/2/6 1049/2/6 1051/2/6
f 1051/2/6 1052/2/6 1053/2/6
f 1053/2/6 1052/2/6 1054/2/6
f 1055/2/6 1056/2/6 1057/2/6
f 1057/2/6 1056/2/6 1058/2/6
f 1058/2/6 1059/2/6 1060/2/6
f 1060/2/6 1059/2/6 1061/2/6
f 1062/3/6 1063/3/6 1064/3/6
f 1064/3/6 1063/3/6 1065/3/6
f 1066/2/6 1067/2/6 1068/2/6
f 1068/2/6 1067/2/6 1069/2/6
f 1070/3/6 1071/3/6 1072/3/6
f 1072/3/6 1071/3/6 1073/3/6
f 1073/3/6 1074/3/6 1076/3/6
f 1074/1/6 1075/1/6 1077/1/6
f 1076/3/6 1074/3/6 1077/3/6
f 1077/1/6 1075/1/6 1078/1/6
f 1079/2/6 1080/2/6 1083/2/6
f 1083/2/6 1080/2/6 1084/2/6
f 1081/3/6 1082/3/6 1085/3/6
f 1085/3/6 1082/3/6 1086/3/6
f 1087/1/6 1088/1/6 1089/1/6
f 1089/1/6 1088/1/6 1090/1/6
f 1091/1/6 1092/1/6 1093/1/6
f 1093/1/6 1092/1/6 1094/1/6
f 1095/1/6 1096/1/6 1097/1/6
f 1097/1/6 1096/1/6 1098/1/6
f 1098/1/6 1096/1/6 1099/1/6
f 1100/1/6 1101/1/6 1104/1/6
f 1104/1/6 1101/1/6 1105/1/6
f 1102/3/6 1103/3/6 1106/3/6
f 1102/3/6 1106/3/6 1108/3/6
f 1106/1/6 1107/1/6 1109/1/6
f 1108/3/6 1106/3/6 1109/3/6
f 1109/1/6 1107/1/6 1110/1/6
f 1109/3/6 1110/3/6 1111/3/6
f 1109/3/6 1111/3/6 1115/3/6
f 1111/1/6 1112/1/6 1116/1/6
f 1115/3/6 1111/3/6 1116/3/6
f 1116/1/6 1112/1/6 1117/1/6
f 1113/1/6 1114/1/6 1119/1/6
f 1119/1/6 1114/1/6 1120/1/6
f 1116/3/6 1117/3/6 1121/3/6
f 1117/1/6 1118/1/6 1122/1/6
f 1121/3/6 1117/3/6 1122/3/6
f 1122/1/6 1118/1/6 1123/1/6
f 1122/3/6 1123/3/6 1127/3/6
f 1123/1/6 1124/1/6 1128/1/6
f 1127/3/6 1123/3/6 1128/3/6
f 1128/1/6 1124/1/6 1129/1/6
f 1125/1/6 1126/1/6 1131/1/6
f 1131/1/6 1126/1/6 1132/1/6
f 1128/3/6 1129/3/6 1133/3/6
f 1129/1/6 1130/1/6 1134/1/6
f 1133/3/6 1129/3/6 1134/3/6
f 1134/1/6 1130/1/6 1135/1/6
f 1134/3/6 1135/3/6 1137/3/6
f 1135/1/6 1136/1/6 1138/1/6
f 1137/3/6 1135/3/6 1138/3/6
f 1138/1/6 1136/1/6 1139/1/6
f 1138/3/6 1139/3/6 1141/3/6
f 1139/1/6 1140/1/6 1142/1/6
f 1141/3/6 1139/3/6 1142/3/6
f 1142/1/6 1140/1/6 1143/1/6
f 1142/3/6 1143/3/6 1145/3/6
f 1143/1/6 1144/1/6 1146/1/6
f 1145/3/6 1143/3/6 1146/3/6
f 1146/1/6 1144/1/6 1147/1/6
f 1146/3/6 1147/3/6 1150/3/6
f 1147/3/6 1148/3/6 1150/3/6
f 1148/1/6 1149/1/6 1151/1/6
f 1150/3/6 1148/3/6 1151/3/6
f 1151/1/6 1149/1/6 1152/1/6
f 1151/3/6 1152/3/6 1155/3/6
f 1152/3/6 1153/3/6 1155/3/6
f 1153/1/6 1154/1/6 1156/1/6
f 1155/3/6 1153/3/6 1156/3/6
f 1156/1/6 1154/1/6 1157/1/6
f 1157/3/6 1158/3/6 1159/3/6
f 1156/3/6 1157/3/6 1159/3/6
f 1159/3/6 1158/3/6 1160/3/6
f 1161/1/6 1162/1/6 1165/1/6
f 1163/1/6 1164/1/6 1166/1/6
f 1166/1/6 1164/1/6 1167/1/6
f 1165/1/6 1162/1/6 1168/1/6
f 1168/1/6 1162/1/6 1169/1/6
f 1167/1/6 1164/1/6 1170/1/6
f 1170/1/6 1164/1/6 1171/1/6
f 1171/1/6 1172/1/6 1173/1/6
f 1173/1/6 1172/1/6 1174/1/6
f 1174/1/6 1175/1/6 1176/1/6
f 1176/1/6 1175/1/6 1177/1/6
f 1177/1/6 1178/1/6 1179/1/6
f 1179/1/6 1178/1/6 1180/1/6
f 1180/1/6 1181/1/6 1182/1/6
f 1182/1/6 1181/1/6 1183/1/6
f 1183/1/6 1184/1/6 1185/1/6
f 1185/1/6 1184/1/6 1186/1/6
f 1186/1/6 1184/1/6 1187/1/6
f 1187/1/6 1188/1/6 1189/1/6
f 1186/1/6 1187/1/6 1189/1/6
f 1189/1/6 1188/1/6 1190/1/6
f 1190/1/6 1188/1/6 1191/1/6
f 1191/1/6 1192/1/6 1193/1/6
f 1190/1/6 1191/1/6 1193/1/6
f 1193/1/6 1192/1/6 1194/1/6
f 1194/1/6 1195/1/6 1196/1/6
f 1196/1/6 1195/1/6 1197/1/6
f 1197/1/6 1195/1/6 1198/1/6
f 1198/1/6 1195/1/6 1199/1/6
f 1200/1/6 1201/1/6 1202/1/6
f 1202/1/6 1201/1/6 1203/1/6
f 1202/3/6 1203/3/6 1204/3/6
f 1202/3/6 1204/3/6 1205/3/6
f 1202/3/6 1205/3/6 1207/3/6
f 1205/1/6 1206/1/6 1208/1/6
f 1207/3/6 1205/3/6 1208/3/6
f 1208/1/6 1206/1/6 1209/1/6
f 1208/3/6 1209/3/6 1211/3/6
f 1209/1/6 1210/1/6 1212/1/6
f 1211/3/6 1209/3/6 1212/3/6
f 1212/1/6 1210/1/6 1213/1/6
f 1212/3/6 1213/3/6 1215/3/6
f 1213/1/6 1214/1/6 1216/1/6
f 1215/3/6 1213/3/6 1216/3/6
f 1216/1/6 1214/1/6 1217/1/6
f 1216/3/6 1217/3/6 1219/3/6
f 1217/1/6 1218/1/6 1220/1/6
f 1219/3/6 1217/3/6 1220/3/6
f 1220/1/6 1218/1/6 1221/1/6
f 1221/3/6 1222/3/6 1223/3/6
f 1220/3/6 1221/3/6 1223/3/6
f 1223/3/6 1222/3/6 1224/3/6
f 1225/1/6 1226/1/6 1227/1/6
f 1227/1/6 1226/1/6 1228/1/6
f 1228/1/6 1229/1/6 1230/1/6
f 1230/1/6 1229/1/6 1231/1/6
f 1231/1/6 1232/1/6 1233/1/6
f 1233/1/6 1232/1/6 1234/1/6
f 1234/1/6 1232/1/6 1235/1/6
f 1235/1/6 1232/1/6 1236/1/6
f 1236/1/6 1237/1/6 1238/1/6
f 1238/1/6 1237/1/6 1239/1/6
