# MagicaVoxel @ Ephtracy

# group
o 

# material
mtllib lab_decorations-19.mtl
usemtl palette

# normals
vn -1 0 0
vn 1 0 0
vn 0 0 1
vn 0 0 -1
vn 0 -1 0
vn 0 1 0

# texcoords
vt 0.982422 0.5
vt 0.986328 0.5

# verts
v -0.15 -1.3 0.05
v -0.15 -1.3 -0.05
v -0.15 -0.8 0.05
v -0.15 -0.8 -0.05
v -0.15 -0.7 0.05
v -0.15 -0.7 -0.05
v -0.15 -0.2 0.05
v -0.15 -0.2 -0.05
v -0.15 -0.0999999 0.05
v -0.15 -0.0999999 -0.05
v -0.15 0.4 0.05
v -0.15 0.4 -0.05
v -0.15 0.5 0.05
v -0.15 0.5 -0.05
v -0.15 1 0.05
v -0.15 1 -0.05
v -0.05 -1 0.15
v -0.05 -1 0.05
v -0.05 -1 -0.05
v -0.05 -1 -0.15
v -0.05 -0.8 0.05
v -0.05 -0.8 -0.05
v -0.05 -0.7 0.05
v -0.05 -0.7 -0.05
v -0.05 -0.5 0.15
v -0.05 -0.5 0.05
v -0.05 -0.5 -0.05
v -0.05 -0.5 -0.15
v -0.05 -0.4 0.15
v -0.05 -0.4 0.05
v -0.05 -0.4 -0.05
v -0.05 -0.4 -0.15
v -0.05 -0.2 0.05
v -0.05 -0.2 -0.05
v -0.05 -0.0999999 0.05
v -0.05 -0.0999999 -0.05
v -0.05 0.1 0.15
v -0.05 0.1 0.05
v -0.05 0.1 -0.05
v -0.05 0.1 -0.15
v -0.05 0.2 0.15
v -0.05 0.2 0.05
v -0.05 0.2 -0.05
v -0.05 0.2 -0.15
v -0.05 0.4 0.05
v -0.05 0.4 -0.05
v -0.05 0.5 0.05
v -0.05 0.5 -0.05
v -0.05 0.7 0.15
v -0.05 0.7 0.05
v -0.05 0.7 -0.05
v -0.05 0.7 -0.15
v -0.05 0.8 0.15
v -0.05 0.8 0.05
v -0.05 0.8 -0.05
v -0.05 0.8 -0.15
v -0.05 1 0.05
v -0.05 1 -0.05
v -0.05 1.2 0.05
v -0.05 1.2 -0.05
v -0.05 1.3 0.15
v -0.05 1.3 -0.15
v 0.05 -1.2 0.05
v 0.05 -1.2 -0.05
v 0.05 -1 0.05
v 0.05 -1 -0.05
v 0.05 -0.5 0.05
v 0.05 -0.5 -0.05
v 0.05 -0.4 0.05
v 0.05 -0.4 -0.05
v 0.05 0.1 0.05
v 0.05 0.1 -0.05
v 0.05 0.2 0.05
v 0.05 0.2 -0.05
v 0.05 0.7 0.05
v 0.05 0.7 -0.05
v 0.05 0.8 0.05
v 0.05 0.8 -0.05
v -0.05 -1.2 0.05
v -0.05 -1.2 -0.05
v -0.05 -1 0.05
v -0.05 -1 -0.05
v -0.05 -0.5 0.05
v -0.05 -0.5 -0.05
v -0.05 -0.4 0.05
v -0.05 -0.4 -0.05
v -0.05 0.1 0.05
v -0.05 0.1 -0.05
v -0.05 0.2 0.05
v -0.05 0.2 -0.05
v -0.05 0.7 0.05
v -0.05 0.7 -0.05
v -0.05 0.8 0.05
v -0.05 0.8 -0.05
v 0.05 -1 0.15
v 0.05 -1 0.05
v 0.05 -1 -0.05
v 0.05 -1 -0.15
v 0.05 -0.8 0.05
v 0.05 -0.8 -0.05
v 0.05 -0.7 0.05
v 0.05 -0.7 -0.05
v 0.05 -0.5 0.15
v 0.05 -0.5 0.05
v 0.05 -0.5 -0.05
v 0.05 -0.5 -0.15
v 0.05 -0.4 0.15
v 0.05 -0.4 0.05
v 0.05 -0.4 -0.05
v 0.05 -0.4 -0.15
v 0.05 -0.2 0.05
v 0.05 -0.2 -0.05
v 0.05 -0.0999999 0.05
v 0.05 -0.0999999 -0.05
v 0.05 0.1 0.15
v 0.05 0.1 0.05
v 0.05 0.1 -0.05
v 0.05 0.1 -0.15
v 0.05 0.2 0.15
v 0.05 0.2 0.05
v 0.05 0.2 -0.05
v 0.05 0.2 -0.15
v 0.05 0.4 0.05
v 0.05 0.4 -0.05
v 0.05 0.5 0.05
v 0.05 0.5 -0.05
v 0.05 0.7 0.15
v 0.05 0.7 0.05
v 0.05 0.7 -0.05
v 0.05 0.7 -0.15
v 0.05 0.8 0.15
v 0.05 0.8 0.05
v 0.05 0.8 -0.05
v 0.05 0.8 -0.15
v 0.05 1 0.05
v 0.05 1 -0.05
v 0.05 1.2 0.05
v 0.05 1.2 -0.05
v 0.05 1.3 0.15
v 0.05 1.3 -0.15
v 0.15 -1.3 0.05
v 0.15 -1.3 -0.05
v 0.15 -0.8 0.05
v 0.15 -0.8 -0.05
v 0.15 -0.7 0.05
v 0.15 -0.7 -0.05
v 0.15 -0.2 0.05
v 0.15 -0.2 -0.05
v 0.15 -0.0999999 0.05
v 0.15 -0.0999999 -0.05
v 0.15 0.4 0.05
v 0.15 0.4 -0.05
v 0.15 0.5 0.05
v 0.15 0.5 -0.05
v 0.15 1 0.05
v 0.15 1 -0.05
v -0.05 -1 0.15
v -0.05 -0.5 0.15
v -0.05 -0.4 0.15
v -0.05 0.1 0.15
v -0.05 0.2 0.15
v -0.05 0.7 0.15
v -0.05 0.8 0.15
v -0.05 1.3 0.15
v 0.05 -1 0.15
v 0.05 -0.5 0.15
v 0.05 -0.4 0.15
v 0.05 0.1 0.15
v 0.05 0.2 0.15
v 0.05 0.7 0.15
v 0.05 0.8 0.15
v 0.05 1.3 0.15
v -0.15 -1.3 0.05
v -0.15 -0.8 0.05
v -0.15 -0.7 0.05
v -0.15 -0.2 0.05
v -0.15 -0.0999999 0.05
v -0.15 0.4 0.05
v -0.15 0.5 0.05
v -0.15 1 0.05
v -0.05 -1.2 0.05
v -0.05 -1 0.05
v -0.05 -0.8 0.05
v -0.05 -0.7 0.05
v -0.05 -0.5 0.05
v -0.05 -0.4 0.05
v -0.05 -0.2 0.05
v -0.05 -0.0999999 0.05
v -0.05 0.1 0.05
v -0.05 0.2 0.05
v -0.05 0.4 0.05
v -0.05 0.5 0.05
v -0.05 0.7 0.05
v -0.05 0.8 0.05
v -0.05 1 0.05
v 0.05 -1.2 0.05
v 0.05 -1 0.05
v 0.05 -0.8 0.05
v 0.05 -0.7 0.05
v 0.05 -0.5 0.05
v 0.05 -0.4 0.05
v 0.05 -0.2 0.05
v 0.05 -0.0999999 0.05
v 0.05 0.1 0.05
v 0.05 0.2 0.05
v 0.05 0.4 0.05
v 0.05 0.5 0.05
v 0.05 0.7 0.05
v 0.05 0.8 0.05
v 0.05 1 0.05
v 0.15 -1.3 0.05
v 0.15 -0.8 0.05
v 0.15 -0.7 0.05
v 0.15 -0.2 0.05
v 0.15 -0.0999999 0.05
v 0.15 0.4 0.05
v 0.15 0.5 0.05
v 0.15 1 0.05
v -0.05 -0.8 -0.05
v -0.05 -0.7 -0.05
v -0.05 -0.2 -0.05
v -0.05 -0.0999999 -0.05
v -0.05 0.4 -0.05
v -0.05 0.5 -0.05
v -0.05 1 -0.05
v -0.05 1.2 -0.05
v 0.05 -0.8 -0.05
v 0.05 -0.7 -0.05
v 0.05 -0.2 -0.05
v 0.05 -0.0999999 -0.05
v 0.05 0.4 -0.05
v 0.05 0.5 -0.05
v 0.05 1 -0.05
v 0.05 1.2 -0.05
v -0.05 -0.8 0.05
v -0.05 -0.7 0.05
v -0.05 -0.2 0.05
v -0.05 -0.0999999 0.05
v -0.05 0.4 0.05
v -0.05 0.5 0.05
v -0.05 1 0.05
v -0.05 1.2 0.05
v 0.05 -0.8 0.05
v 0.05 -0.7 0.05
v 0.05 -0.2 0.05
v 0.05 -0.0999999 0.05
v 0.05 0.4 0.05
v 0.05 0.5 0.05
v 0.05 1 0.05
v 0.05 1.2 0.05
v -0.15 -1.3 -0.05
v -0.15 -0.8 -0.05
v -0.15 -0.7 -0.05
v -0.15 -0.2 -0.05
v -0.15 -0.0999999 -0.05
v -0.15 0.4 -0.05
v -0.15 0.5 -0.05
v -0.15 1 -0.05
v -0.05 -1.2 -0.05
v -0.05 -1 -0.05
v -0.05 -0.8 -0.05
v -0.05 -0.7 -0.05
v -0.05 -0.5 -0.05
v -0.05 -0.4 -0.05
v -0.05 -0.2 -0.05
v -0.05 -0.0999999 -0.05
v -0.05 0.1 -0.05
v -0.05 0.2 -0.05
v -0.05 0.4 -0.05
v -0.05 0.5 -0.05
v -0.05 0.7 -0.05
v -0.05 0.8 -0.05
v -0.05 1 -0.05
v 0.05 -1.2 -0.05
v 0.05 -1 -0.05
v 0.05 -0.8 -0.05
v 0.05 -0.7 -0.05
v 0.05 -0.5 -0.05
v 0.05 -0.4 -0.05
v 0.05 -0.2 -0.05
v 0.05 -0.0999999 -0.05
v 0.05 0.1 -0.05
v 0.05 0.2 -0.05
v 0.05 0.4 -0.05
v 0.05 0.5 -0.05
v 0.05 0.7 -0.05
v 0.05 0.8 -0.05
v 0.05 1 -0.05
v 0.15 -1.3 -0.05
v 0.15 -0.8 -0.05
v 0.15 -0.7 -0.05
v 0.15 -0.2 -0.05
v 0.15 -0.0999999 -0.05
v 0.15 0.4 -0.05
v 0.15 0.5 -0.05
v 0.15 1 -0.05
v -0.05 -1 -0.15
v -0.05 -0.5 -0.15
v -0.05 -0.4 -0.15
v -0.05 0.1 -0.15
v -0.05 0.2 -0.15
v -0.05 0.7 -0.15
v -0.05 0.8 -0.15
v -0.05 1.3 -0.15
v 0.05 -1 -0.15
v 0.05 -0.5 -0.15
v 0.05 -0.4 -0.15
v 0.05 0.1 -0.15
v 0.05 0.2 -0.15
v 0.05 0.7 -0.15
v 0.05 0.8 -0.15
v 0.05 1.3 -0.15
v -0.15 -1.3 0.05
v 0.15 -1.3 0.05
v -0.15 -1.3 -0.05
v 0.15 -1.3 -0.05
v -0.05 -1 0.15
v 0.05 -1 0.15
v -0.05 -1 0.05
v 0.05 -1 0.05
v -0.05 -1 -0.05
v 0.05 -1 -0.05
v -0.05 -1 -0.15
v 0.05 -1 -0.15
v -0.15 -0.7 0.05
v -0.05 -0.7 0.05
v 0.05 -0.7 0.05
v 0.15 -0.7 0.05
v -0.15 -0.7 -0.05
v -0.05 -0.7 -0.05
v 0.05 -0.7 -0.05
v 0.15 -0.7 -0.05
v -0.05 -0.4 0.15
v 0.05 -0.4 0.15
v -0.05 -0.4 0.05
v 0.05 -0.4 0.05
v -0.05 -0.4 -0.05
v 0.05 -0.4 -0.05
v -0.05 -0.4 -0.15
v 0.05 -0.4 -0.15
v -0.15 -0.0999999 0.05
v -0.05 -0.0999999 0.05
v 0.05 -0.0999999 0.05
v 0.15 -0.0999999 0.05
v -0.15 -0.0999999 -0.05
v -0.05 -0.0999999 -0.05
v 0.05 -0.0999999 -0.05
v 0.15 -0.0999999 -0.05
v -0.05 0.2 0.15
v 0.05 0.2 0.15
v -0.05 0.2 0.05
v 0.05 0.2 0.05
v -0.05 0.2 -0.05
v 0.05 0.2 -0.05
v -0.05 0.2 -0.15
v 0.05 0.2 -0.15
v -0.15 0.5 0.05
v -0.05 0.5 0.05
v 0.05 0.5 0.05
v 0.15 0.5 0.05
v -0.15 0.5 -0.05
v -0.05 0.5 -0.05
v 0.05 0.5 -0.05
v 0.15 0.5 -0.05
v -0.05 0.8 0.15
v 0.05 0.8 0.15
v -0.05 0.8 0.05
v 0.05 0.8 0.05
v -0.05 0.8 -0.05
v 0.05 0.8 -0.05
v -0.05 0.8 -0.15
v 0.05 0.8 -0.15
v -0.05 1.2 0.05
v 0.05 1.2 0.05
v -0.05 1.2 -0.05
v 0.05 1.2 -0.05
v -0.05 -1.2 0.05
v 0.05 -1.2 0.05
v -0.05 -1.2 -0.05
v 0.05 -1.2 -0.05
v -0.15 -0.8 0.05
v -0.05 -0.8 0.05
v 0.05 -0.8 0.05
v 0.15 -0.8 0.05
v -0.15 -0.8 -0.05
v -0.05 -0.8 -0.05
v 0.05 -0.8 -0.05
v 0.15 -0.8 -0.05
v -0.05 -0.5 0.15
v 0.05 -0.5 0.15
v -0.05 -0.5 0.05
v 0.05 -0.5 0.05
v -0.05 -0.5 -0.05
v 0.05 -0.5 -0.05
v -0.05 -0.5 -0.15
v 0.05 -0.5 -0.15
v -0.15 -0.2 0.05
v -0.05 -0.2 0.05
v 0.05 -0.2 0.05
v 0.15 -0.2 0.05
v -0.15 -0.2 -0.05
v -0.05 -0.2 -0.05
v 0.05 -0.2 -0.05
v 0.15 -0.2 -0.05
v -0.05 0.1 0.15
v 0.05 0.1 0.15
v -0.05 0.1 0.05
v 0.05 0.1 0.05
v -0.05 0.1 -0.05
v 0.05 0.1 -0.05
v -0.05 0.1 -0.15
v 0.05 0.1 -0.15
v -0.15 0.4 0.05
v -0.05 0.4 0.05
v 0.05 0.4 0.05
v 0.15 0.4 0.05
v -0.15 0.4 -0.05
v -0.05 0.4 -0.05
v 0.05 0.4 -0.05
v 0.15 0.4 -0.05
v -0.05 0.7 0.15
v 0.05 0.7 0.15
v -0.05 0.7 0.05
v 0.05 0.7 0.05
v -0.05 0.7 -0.05
v 0.05 0.7 -0.05
v -0.05 0.7 -0.15
v 0.05 0.7 -0.15
v -0.15 1 0.05
v -0.05 1 0.05
v 0.05 1 0.05
v 0.15 1 0.05
v -0.15 1 -0.05
v -0.05 1 -0.05
v 0.05 1 -0.05
v 0.15 1 -0.05
v -0.05 1.3 0.15
v 0.05 1.3 0.15
v -0.05 1.3 -0.15
v 0.05 1.3 -0.15

# faces
f 3/2/1 2/2/1 1/2/1
f 4/2/1 2/2/1 3/2/1
f 7/2/1 6/2/1 5/2/1
f 8/2/1 6/2/1 7/2/1
f 11/2/1 10/2/1 9/2/1
f 12/2/1 10/2/1 11/2/1
f 15/2/1 14/2/1 13/2/1
f 16/2/1 14/2/1 15/2/1
f 21/1/1 18/1/1 17/1/1
f 22/1/1 20/1/1 19/1/1
f 23/1/1 21/1/1 17/1/1
f 24/1/1 20/1/1 22/1/1
f 25/1/1 23/1/1 17/1/1
f 26/1/1 23/1/1 25/1/1
f 27/1/1 20/1/1 24/1/1
f 28/1/1 20/1/1 27/1/1
f 33/1/1 30/1/1 29/1/1
f 34/1/1 32/1/1 31/1/1
f 35/1/1 33/1/1 29/1/1
f 36/1/1 32/1/1 34/1/1
f 37/1/1 35/1/1 29/1/1
f 38/1/1 35/1/1 37/1/1
f 39/1/1 32/1/1 36/1/1
f 40/1/1 32/1/1 39/1/1
f 45/1/1 42/1/1 41/1/1
f 46/1/1 44/1/1 43/1/1
f 47/1/1 45/1/1 41/1/1
f 48/1/1 44/1/1 46/1/1
f 49/1/1 47/1/1 41/1/1
f 50/1/1 47/1/1 49/1/1
f 51/1/1 44/1/1 48/1/1
f 52/1/1 44/1/1 51/1/1
f 57/1/1 54/1/1 53/1/1
f 58/1/1 56/1/1 55/1/1
f 59/1/1 57/1/1 53/1/1
f 60/1/1 56/1/1 58/1/1
f 61/1/1 59/1/1 53/1/1
f 61/1/1 60/1/1 59/1/1
f 62/1/1 56/1/1 60/1/1
f 62/1/1 60/1/1 61/1/1
f 65/2/1 64/2/1 63/2/1
f 66/2/1 64/2/1 65/2/1
f 69/2/1 68/2/1 67/2/1
f 70/2/1 68/2/1 69/2/1
f 73/2/1 72/2/1 71/2/1
f 74/2/1 72/2/1 73/2/1
f 77/2/1 76/2/1 75/2/1
f 78/2/1 76/2/1 77/2/1
f 79/2/2 80/2/2 81/2/2
f 81/2/2 80/2/2 82/2/2
f 83/2/2 84/2/2 85/2/2
f 85/2/2 84/2/2 86/2/2
f 87/2/2 88/2/2 89/2/2
f 89/2/2 88/2/2 90/2/2
f 91/2/2 92/2/2 93/2/2
f 93/2/2 92/2/2 94/2/2
f 95/1/2 96/1/2 99/1/2
f 97/1/2 98/1/2 100/1/2
f 95/1/2 99/1/2 101/1/2
f 100/1/2 98/1/2 102/1/2
f 95/1/2 101/1/2 103/1/2
f 103/1/2 101/1/2 104/1/2
f 102/1/2 98/1/2 105/1/2
f 105/1/2 98/1/2 106/1/2
f 107/1/2 108/1/2 111/1/2
f 109/1/2 110/1/2 112/1/2
f 107/1/2 111/1/2 113/1/2
f 112/1/2 110/1/2 114/1/2
f 107/1/2 113/1/2 115/1/2
f 115/1/2 113/1/2 116/1/2
f 114/1/2 110/1/2 117/1/2
f 117/1/2 110/1/2 118/1/2
f 119/1/2 120/1/2 123/1/2
f 121/1/2 122/1/2 124/1/2
f 119/1/2 123/1/2 125/1/2
f 124/1/2 122/1/2 126/1/2
f 119/1/2 125/1/2 127/1/2
f 127/1/2 125/1/2 128/1/2
f 126/1/2 122/1/2 129/1/2
f 129/1/2 122/1/2 130/1/2
f 131/1/2 132/1/2 135/1/2
f 133/1/2 134/1/2 136/1/2
f 131/1/2 135/1/2 137/1/2
f 136/1/2 134/1/2 138/1/2
f 131/1/2 137/1/2 139/1/2
f 137/1/2 138/1/2 139/1/2
f 138/1/2 134/1/2 140/1/2
f 139/1/2 138/1/2 140/1/2
f 141/2/2 142/2/2 143/2/2
f 143/2/2 142/2/2 144/2/2
f 145/2/2 146/2/2 147/2/2
f 147/2/2 146/2/2 148/2/2
f 149/2/2 150/2/2 151/2/2
f 151/2/2 150/2/2 152/2/2
f 153/2/2 154/2/2 155/2/2
f 155/2/2 154/2/2 156/2/2
f 165/1/3 158/1/3 157/1/3
f 166/1/3 158/1/3 165/1/3
f 167/1/3 160/1/3 159/1/3
f 168/1/3 160/1/3 167/1/3
f 169/1/3 162/1/3 161/1/3
f 170/1/3 162/1/3 169/1/3
f 171/1/3 164/1/3 163/1/3
f 172/1/3 164/1/3 171/1/3
f 181/2/3 174/2/3 173/2/3
f 182/2/3 174/2/3 181/2/3
f 183/2/3 174/2/3 182/2/3
f 184/2/3 176/2/3 175/2/3
f 185/2/3 176/2/3 184/2/3
f 186/2/3 176/2/3 185/2/3
f 187/2/3 176/2/3 186/2/3
f 188/2/3 178/2/3 177/2/3
f 189/2/3 178/2/3 188/2/3
f 190/2/3 178/2/3 189/2/3
f 191/2/3 178/2/3 190/2/3
f 192/2/3 180/2/3 179/2/3
f 193/2/3 180/2/3 192/2/3
f 194/2/3 180/2/3 193/2/3
f 195/2/3 180/2/3 194/2/3
f 196/2/3 181/2/3 173/2/3
f 211/2/3 196/2/3 173/2/3
f 211/2/3 197/2/3 196/2/3
f 211/2/3 198/2/3 197/2/3
f 212/2/3 198/2/3 211/2/3
f 213/2/3 200/2/3 199/2/3
f 213/2/3 201/2/3 200/2/3
f 213/2/3 202/2/3 201/2/3
f 214/2/3 202/2/3 213/2/3
f 215/2/3 206/2/3 205/2/3
f 215/2/3 204/2/3 203/2/3
f 215/2/3 205/2/3 204/2/3
f 216/2/3 206/2/3 215/2/3
f 217/2/3 210/2/3 209/2/3
f 217/2/3 209/2/3 208/2/3
f 217/2/3 208/2/3 207/2/3
f 218/2/3 210/2/3 217/2/3
f 227/1/3 220/1/3 219/1/3
f 228/1/3 220/1/3 227/1/3
f 229/1/3 222/1/3 221/1/3
f 230/1/3 222/1/3 229/1/3
f 231/1/3 224/1/3 223/1/3
f 232/1/3 224/1/3 231/1/3
f 233/1/3 226/1/3 225/1/3
f 234/1/3 226/1/3 233/1/3
f 235/1/4 236/1/4 243/1/4
f 243/1/4 236/1/4 244/1/4
f 237/1/4 238/1/4 245/1/4
f 245/1/4 238/1/4 246/1/4
f 239/1/4 240/1/4 247/1/4
f 247/1/4 240/1/4 248/1/4
f 241/1/4 242/1/4 249/1/4
f 249/1/4 242/1/4 250/1/4
f 251/2/4 252/2/4 259/2/4
f 259/2/4 252/2/4 260/2/4
f 260/2/4 252/2/4 261/2/4
f 253/2/4 254/2/4 262/2/4
f 262/2/4 254/2/4 263/2/4
f 263/2/4 254/2/4 264/2/4
f 264/2/4 254/2/4 265/2/4
f 255/2/4 256/2/4 266/2/4
f 266/2/4 256/2/4 267/2/4
f 267/2/4 256/2/4 268/2/4
f 268/2/4 256/2/4 269/2/4
f 257/2/4 258/2/4 270/2/4
f 270/2/4 258/2/4 271/2/4
f 271/2/4 258/2/4 272/2/4
f 272/2/4 258/2/4 273/2/4
f 251/2/4 259/2/4 274/2/4
f 251/2/4 274/2/4 289/2/4
f 274/2/4 275/2/4 289/2/4
f 275/2/4 276/2/4 289/2/4
f 289/2/4 276/2/4 290/2/4
f 277/2/4 278/2/4 291/2/4
f 278/2/4 279/2/4 291/2/4
f 279/2/4 280/2/4 291/2/4
f 291/2/4 280/2/4 292/2/4
f 283/2/4 284/2/4 293/2/4
f 281/2/4 282/2/4 293/2/4
f 282/2/4 283/2/4 293/2/4
f 293/2/4 284/2/4 294/2/4
f 287/2/4 288/2/4 295/2/4
f 286/2/4 287/2/4 295/2/4
f 285/2/4 286/2/4 295/2/4
f 295/2/4 288/2/4 296/2/4
f 297/1/4 298/1/4 305/1/4
f 305/1/4 298/1/4 306/1/4
f 299/1/4 300/1/4 307/1/4
f 307/1/4 300/1/4 308/1/4
f 301/1/4 302/1/4 309/1/4
f 309/1/4 302/1/4 310/1/4
f 303/1/4 304/1/4 311/1/4
f 311/1/4 304/1/4 312/1/4
f 315/2/5 314/2/5 313/2/5
f 316/2/5 314/2/5 315/2/5
f 319/1/5 318/1/5 317/1/5
f 320/1/5 318/1/5 319/1/5
f 321/1/5 320/1/5 319/1/5
f 322/1/5 320/1/5 321/1/5
f 323/1/5 322/1/5 321/1/5
f 324/1/5 322/1/5 323/1/5
f 329/2/5 326/2/5 325/2/5
f 329/2/5 328/2/5 327/2/5
f 329/2/5 327/2/5 326/2/5
f 330/2/5 328/2/5 329/2/5
f 331/2/5 328/2/5 330/2/5
f 332/2/5 328/2/5 331/2/5
f 335/1/5 334/1/5 333/1/5
f 336/1/5 334/1/5 335/1/5
f 337/1/5 336/1/5 335/1/5
f 338/1/5 336/1/5 337/1/5
f 339/1/5 338/1/5 337/1/5
f 340/1/5 338/1/5 339/1/5
f 345/2/5 342/2/5 341/2/5
f 345/2/5 344/2/5 343/2/5
f 345/2/5 343/2/5 342/2/5
f 346/2/5 344/2/5 345/2/5
f 347/2/5 344/2/5 346/2/5
f 348/2/5 344/2/5 347/2/5
f 351/1/5 350/1/5 349/1/5
f 352/1/5 350/1/5 351/1/5
f 353/1/5 352/1/5 351/1/5
f 354/1/5 352/1/5 353/1/5
f 355/1/5 354/1/5 353/1/5
f 356/1/5 354/1/5 355/1/5
f 361/2/5 358/2/5 357/2/5
f 361/2/5 360/2/5 359/2/5
f 361/2/5 359/2/5 358/2/5
f 362/2/5 360/2/5 361/2/5
f 363/2/5 360/2/5 362/2/5
f 364/2/5 360/2/5 363/2/5
f 367/1/5 366/1/5 365/1/5
f 368/1/5 366/1/5 367/1/5
f 369/1/5 368/1/5 367/1/5
f 370/1/5 368/1/5 369/1/5
f 371/1/5 370/1/5 369/1/5
f 372/1/5 370/1/5 371/1/5
f 375/1/5 374/1/5 373/1/5
f 376/1/5 374/1/5 375/1/5
f 377/2/6 378/2/6 379/2/6
f 379/2/6 378/2/6 380/2/6
f 381/2/6 382/2/6 385/2/6
f 383/2/6 384/2/6 385/2/6
f 382/2/6 383/2/6 385/2/6
f 385/2/6 384/2/6 386/2/6
f 386/2/6 384/2/6 387/2/6
f 387/2/6 384/2/6 388/2/6
f 389/1/6 390/1/6 391/1/6
f 391/1/6 390/1/6 392/1/6
f 391/1/6 392/1/6 393/1/6
f 393/1/6 392/1/6 394/1/6
f 393/1/6 394/1/6 395/1/6
f 395/1/6 394/1/6 396/1/6
f 397/2/6 398/2/6 401/2/6
f 399/2/6 400/2/6 401/2/6
f 398/2/6 399/2/6 401/2/6
f 401/2/6 400/2/6 402/2/6
f 402/2/6 400/2/6 403/2/6
f 403/2/6 400/2/6 404/2/6
f 405/1/6 406/1/6 407/1/6
f 407/1/6 406/1/6 408/1/6
f 407/1/6 408/1/6 409/1/6
f 409/1/6 408/1/6 410/1/6
f 409/1/6 410/1/6 411/1/6
f 411/1/6 410/1/6 412/1/6
f 413/2/6 414/2/6 417/2/6
f 415/2/6 416/2/6 417/2/6
f 414/2/6 415/2/6 417/2/6
f 417/2/6 416/2/6 418/2/6
f 418/2/6 416/2/6 419/2/6
f 419/2/6 416/2/6 420/2/6
f 421/1/6 422/1/6 423/1/6
f 423/1/6 422/1/6 424/1/6
f 423/1/6 424/1/6 425/1/6
f 425/1/6 424/1/6 426/1/6
f 425/1/6 426/1/6 427/1/6
f 427/1/6 426/1/6 428/1/6
f 429/2/6 430/2/6 433/2/6
f 431/2/6 432/2/6 433/2/6
f 430/2/6 431/2/6 433/2/6
f 433/2/6 432/2/6 434/2/6
f 434/2/6 432/2/6 435/2/6
f 435/2/6 432/2/6 436/2/6
f 437/1/6 438/1/6 439/1/6
f 439/1/6 438/1/6 440/1/6
