# MagicaVoxel @ Ephtracy

# group
o 

# material
mtllib lab_decorations-4.mtl
usemtl palette

# normals
vn -1 0 0
vn 1 0 0
vn 0 0 1
vn 0 0 -1
vn 0 -1 0
vn 0 1 0

# texcoords
vt 0.705078 0.5
vt 0.708984 0.5
vt 0.751953 0.5
vt 0.755859 0.5
vt 0.775391 0.5
vt 0.845703 0.5
vt 0.849609 0.5
vt 0.861328 0.5
vt 0.982422 0.5

# verts
v -0.5 -0.2 0.65
v -0.5 -0.2 -0.75
v -0.5 -0.1 0.75
v -0.5 -0.1 0.65
v -0.5 -0.1 -0.55
v -0.5 0.1 0.75
v -0.5 0.1 0.65
v -0.5 0.1 -0.55
v -0.5 0.2 0.65
v -0.5 0.2 -0.75
v -0.4 -0.2 0.75
v -0.4 -0.2 0.65
v -0.4 -0.1 0.75
v -0.4 -0.1 0.65
v -0.4 -0.1 0.55
v -0.4 -0.1 0.25
v -0.4 -0.1 0.15
v -0.4 -0.1 -0.05
v -0.4 -0.1 -0.15
v -0.4 -0.1 -0.35
v -0.4 -0.1 -0.45
v -0.4 -0.1 -0.55
v -0.4 0 0.55
v -0.4 0 0.45
v -0.4 0 0.05
v -0.4 0 -0.05
v -0.4 0.1 0.75
v -0.4 0.1 0.65
v -0.4 0.1 0.45
v -0.4 0.1 0.25
v -0.4 0.1 0.15
v -0.4 0.1 0.05
v -0.4 0.1 -0.05
v -0.4 0.1 -0.15
v -0.4 0.1 -0.35
v -0.4 0.1 -0.45
v -0.4 0.1 -0.55
v -0.4 0.2 0.75
v -0.4 0.2 0.65
v 0.3 -0.1 -0.55
v 0.3 -0.1 -0.65
v 0.3 0.1 -0.55
v 0.3 0.1 -0.65
v 0.4 -0.2 -0.65
v 0.4 -0.2 -0.75
v 0.4 -0.1 0.75
v 0.4 -0.1 0.65
v 0.4 0 0.65
v 0.4 0.1 0.75
v 0.4 0.1 0.65
v 0.4 0.2 -0.65
v 0.4 0.2 -0.75
v -0.4 -0.2 -0.65
v -0.4 -0.2 -0.75
v -0.4 -0.1 0.75
v -0.4 -0.1 0.65
v -0.4 0.1 0.75
v -0.4 0.1 0.65
v -0.4 0.2 -0.65
v -0.4 0.2 -0.75
v -0.3 -0.1 -0.55
v -0.3 -0.1 -0.65
v -0.3 0 -0.55
v -0.3 0.1 -0.55
v -0.3 0.1 -0.65
v 0.4 -0.2 0.75
v 0.4 -0.2 0.65
v 0.4 -0.1 0.75
v 0.4 -0.1 0.65
v 0.4 -0.1 0.55
v 0.4 -0.1 0.45
v 0.4 -0.1 0.35
v 0.4 -0.1 0.25
v 0.4 -0.1 -0.05
v 0.4 -0.1 -0.15
v 0.4 -0.1 -0.25
v 0.4 -0.1 -0.35
v 0.4 -0.1 -0.45
v 0.4 -0.1 -0.55
v 0.4 0 0.65
v 0.4 0 0.55
v 0.4 0 0.45
v 0.4 0 0.35
v 0.4 0 0.25
v 0.4 0 0.05
v 0.4 0 -0.05
v 0.4 0 -0.15
v 0.4 0.1 0.75
v 0.4 0.1 0.65
v 0.4 0.1 0.55
v 0.4 0.1 0.45
v 0.4 0.1 0.35
v 0.4 0.1 0.25
v 0.4 0.1 0.05
v 0.4 0.1 -0.15
v 0.4 0.1 -0.25
v 0.4 0.1 -0.35
v 0.4 0.1 -0.45
v 0.4 0.1 -0.55
v 0.4 0.2 0.75
v 0.4 0.2 0.65
v 0.5 -0.2 0.65
v 0.5 -0.2 -0.75
v 0.5 -0.1 0.75
v 0.5 -0.1 0.65
v 0.5 -0.1 -0.55
v 0.5 0.1 0.75
v 0.5 0.1 0.65
v 0.5 0.1 -0.55
v 0.5 0.2 0.65
v 0.5 0.2 -0.75
v -0.5 -0.1 0.75
v -0.5 0.1 0.75
v -0.4 -0.2 0.75
v -0.4 -0.1 0.75
v -0.4 0.1 0.75
v -0.4 0.2 0.75
v 0.4 -0.2 0.75
v 0.4 -0.1 0.75
v 0.4 0.1 0.75
v 0.4 0.2 0.75
v 0.5 -0.1 0.75
v 0.5 0.1 0.75
v -0.5 -0.2 0.65
v -0.5 -0.1 0.65
v -0.5 0.1 0.65
v -0.5 0.2 0.65
v -0.4 -0.2 0.65
v -0.4 -0.1 0.65
v -0.4 0.1 0.65
v -0.4 0.2 0.65
v -0.3 -0.1 0.65
v -0.3 0.1 0.65
v -0.2 -0.1 0.65
v -0.2 0 0.65
v -0.2 0.1 0.65
v -0.1 -0.1 0.65
v -0.1 0 0.65
v -0.1 0.1 0.65
v 0 -0.1 0.65
v 0 0 0.65
v 0 0.1 0.65
v 0.1 -0.1 0.65
v 0.1 0.1 0.65
v 0.2 -0.1 0.65
v 0.2 0.1 0.65
v 0.3 -0.1 0.65
v 0.3 0 0.65
v 0.3 0.1 0.65
v 0.4 -0.2 0.65
v 0.4 -0.1 0.65
v 0.4 0 0.65
v 0.4 0.1 0.65
v 0.4 0.2 0.65
v 0.5 -0.2 0.65
v 0.5 -0.1 0.65
v 0.5 0.1 0.65
v 0.5 0.2 0.65
v -0.5 -0.1 -0.55
v -0.5 0.1 -0.55
v -0.4 -0.1 -0.55
v -0.4 0.1 -0.55
v 0.4 -0.1 -0.55
v 0.4 0.1 -0.55
v 0.5 -0.1 -0.55
v 0.5 0.1 -0.55
v -0.5 -0.1 0.65
v -0.5 0.1 0.65
v -0.4 -0.1 0.65
v -0.4 0.1 0.65
v 0.4 -0.1 0.65
v 0.4 0 0.65
v 0.4 0.1 0.65
v 0.5 -0.1 0.65
v 0.5 0.1 0.65
v -0.3 -0.1 -0.55
v -0.3 0 -0.55
v -0.3 0.1 -0.55
v -0.2 -0.1 -0.55
v -0.2 0 -0.55
v -0.2 0.1 -0.55
v -0.1 -0.1 -0.55
v -0.1 0 -0.55
v -0.1 0.1 -0.55
v 0 -0.1 -0.55
v 0 0 -0.55
v 0 0.1 -0.55
v 0.1 -0.1 -0.55
v 0.1 0.1 -0.55
v 0.2 -0.1 -0.55
v 0.2 0.1 -0.55
v 0.3 -0.1 -0.55
v 0.3 0.1 -0.55
v -0.4 -0.2 -0.65
v -0.4 0.2 -0.65
v -0.3 -0.1 -0.65
v -0.3 0.1 -0.65
v 0.3 -0.1 -0.65
v 0.3 0.1 -0.65
v 0.4 -0.2 -0.65
v 0.4 0.2 -0.65
v -0.5 -0.2 -0.75
v -0.5 0.2 -0.75
v -0.4 -0.2 -0.75
v -0.4 0.2 -0.75
v 0.4 -0.2 -0.75
v 0.4 0.2 -0.75
v 0.5 -0.2 -0.75
v 0.5 0.2 -0.75
v -0.4 -0.2 0.75
v 0.4 -0.2 0.75
v -0.5 -0.2 0.65
v -0.4 -0.2 0.65
v 0.4 -0.2 0.65
v 0.5 -0.2 0.65
v -0.4 -0.2 -0.55
v 0.4 -0.2 -0.55
v -0.4 -0.2 -0.65
v 0.4 -0.2 -0.65
v -0.5 -0.2 -0.75
v -0.4 -0.2 -0.75
v 0.4 -0.2 -0.75
v 0.5 -0.2 -0.75
v -0.5 -0.1 0.75
v -0.4 -0.1 0.75
v 0.4 -0.1 0.75
v 0.5 -0.1 0.75
v -0.5 -0.1 0.65
v -0.4 -0.1 0.65
v 0.4 -0.1 0.65
v 0.5 -0.1 0.65
v -0.4 0.1 0.75
v 0.4 0.1 0.75
v -0.5 0.1 0.65
v -0.4 0.1 0.65
v -0.3 0.1 0.65
v -0.2 0.1 0.65
v -0.1 0.1 0.65
v 0 0.1 0.65
v 0.1 0.1 0.65
v 0.2 0.1 0.65
v 0.3 0.1 0.65
v 0.4 0.1 0.65
v 0.5 0.1 0.65
v 0.4 0.1 0.55
v -0.4 0.1 0.45
v 0.4 0.1 0.45
v 0.4 0.1 0.35
v -0.4 0.1 0.25
v 0.4 0.1 0.25
v -0.4 0.1 0.15
v -0.4 0.1 0.05
v 0.4 0.1 0.05
v -0.4 0.1 -0.05
v -0.4 0.1 -0.15
v 0.4 0.1 -0.15
v 0.4 0.1 -0.25
v -0.4 0.1 -0.35
v 0.4 0.1 -0.35
v -0.4 0.1 -0.45
v 0.4 0.1 -0.45
v -0.5 0.1 -0.55
v -0.4 0.1 -0.55
v -0.3 0.1 -0.55
v -0.2 0.1 -0.55
v -0.1 0.1 -0.55
v 0 0.1 -0.55
v 0.1 0.1 -0.55
v 0.2 0.1 -0.55
v 0.3 0.1 -0.55
v 0.4 0.1 -0.55
v 0.5 0.1 -0.55
v -0.3 0.1 -0.65
v 0.3 0.1 -0.65
v -0.4 -0.1 0.75
v 0.4 -0.1 0.75
v -0.5 -0.1 0.65
v -0.4 -0.1 0.65
v -0.3 -0.1 0.65
v -0.2 -0.1 0.65
v -0.1 -0.1 0.65
v 0 -0.1 0.65
v 0.1 -0.1 0.65
v 0.2 -0.1 0.65
v 0.3 -0.1 0.65
v 0.4 -0.1 0.65
v 0.5 -0.1 0.65
v -0.4 -0.1 0.55
v 0.4 -0.1 0.55
v 0.4 -0.1 0.45
v 0.4 -0.1 0.35
v -0.4 -0.1 0.25
v 0.4 -0.1 0.25
v -0.4 -0.1 0.15
v -0.4 -0.1 -0.05
v 0.4 -0.1 -0.05
v -0.4 -0.1 -0.15
v 0.4 -0.1 -0.15
v 0.4 -0.1 -0.25
v -0.4 -0.1 -0.35
v 0.4 -0.1 -0.35
v -0.4 -0.1 -0.45
v 0.4 -0.1 -0.45
v -0.5 -0.1 -0.55
v -0.4 -0.1 -0.55
v -0.3 -0.1 -0.55
v -0.2 -0.1 -0.55
v -0.1 -0.1 -0.55
v 0 -0.1 -0.55
v 0.1 -0.1 -0.55
v 0.2 -0.1 -0.55
v 0.3 -0.1 -0.55
v 0.4 -0.1 -0.55
v 0.5 -0.1 -0.55
v -0.3 -0.1 -0.65
v 0.3 -0.1 -0.65
v -0.5 0.1 0.75
v -0.4 0.1 0.75
v 0.4 0.1 0.75
v 0.5 0.1 0.75
v -0.5 0.1 0.65
v -0.4 0.1 0.65
v 0.4 0.1 0.65
v 0.5 0.1 0.65
v -0.4 0.2 0.75
v 0.4 0.2 0.75
v -0.5 0.2 0.65
v -0.4 0.2 0.65
v -0.2 0.2 0.65
v -0.1 0.2 0.65
v 0.2 0.2 0.65
v 0.3 0.2 0.65
v 0.4 0.2 0.65
v 0.5 0.2 0.65
v -0.3 0.2 0.55
v -0.2 0.2 0.55
v -0.1 0.2 0.55
v 0 0.2 0.55
v 0.1 0.2 0.55
v -0.4 0.2 0.45
v -0.3 0.2 0.45
v -0.2 0.2 0.45
v -0.1 0.2 0.45
v 0 0.2 0.45
v 0.1 0.2 0.45
v 0.2 0.2 0.45
v 0.3 0.2 0.45
v -0.4 0.2 0.35
v -0.3 0.2 0.35
v -0.1 0.2 0.35
v 0 0.2 0.35
v 0.3 0.2 0.35
v 0.4 0.2 0.35
v -0.2 0.2 0.25
v -0.1 0.2 0.25
v 0.1 0.2 0.25
v 0.2 0.2 0.25
v 0.3 0.2 0.25
v -0.3 0.2 0.15
v -0.2 0.2 0.15
v -0.3 0.2 0.05
v -0.2 0.2 0.05
v -0.1 0.2 0.05
v 0 0.2 0.05
v 0.1 0.2 0.05
v 0.3 0.2 0.05
v 0.4 0.2 0.05
v -0.4 0.2 -0.05
v -0.3 0.2 -0.05
v -0.4 0.2 -0.15
v -0.3 0.2 -0.15
v 0.1 0.2 -0.15
v 0.2 0.2 -0.15
v -0.1 0.2 -0.25
v 0 0.2 -0.25
v 0.1 0.2 -0.25
v 0.2 0.2 -0.25
v -0.1 0.2 -0.35
v 0 0.2 -0.35
v 0.1 0.2 -0.35
v 0.2 0.2 -0.35
v 0.3 0.2 -0.35
v 0.4 0.2 -0.35
v -0.4 0.2 -0.45
v -0.3 0.2 -0.45
v -0.2 0.2 -0.45
v -0.1 0.2 -0.45
v 0 0.2 -0.45
v 0.2 0.2 -0.45
v 0.3 0.2 -0.45
v 0.4 0.2 -0.45
v -0.4 0.2 -0.55
v -0.3 0.2 -0.55
v -0.1 0.2 -0.55
v 0 0.2 -0.55
v 0.1 0.2 -0.55
v 0.2 0.2 -0.55
v 0.4 0.2 -0.55
v -0.4 0.2 -0.65
v 0.4 0.2 -0.65
v -0.5 0.2 -0.75
v -0.4 0.2 -0.75
v 0.4 0.2 -0.75
v 0.5 0.2 -0.75

# faces
f 4/9/1 2/9/1 1/9/1
f 5/9/1 2/9/1 4/9/1
f 6/9/1 4/9/1 3/9/1
f 7/9/1 4/9/1 6/9/1
f 8/9/1 2/9/1 5/9/1
f 9/9/1 8/9/1 7/9/1
f 10/9/1 2/9/1 8/9/1
f 10/9/1 8/9/1 9/9/1
f 13/9/1 12/9/1 11/9/1
f 14/9/1 12/9/1 13/9/1
f 23/1/1 15/1/1 14/1/1
f 23/2/1 16/2/1 15/2/1
f 24/2/1 16/2/1 23/2/1
f 25/2/1 18/2/1 17/2/1
f 26/3/1 19/3/1 18/3/1
f 26/2/1 18/2/1 25/2/1
f 28/1/1 23/1/1 14/1/1
f 28/1/1 24/1/1 23/1/1
f 29/2/1 16/2/1 24/2/1
f 29/1/1 24/1/1 28/1/1
f 30/4/1 17/4/1 16/4/1
f 30/2/1 16/2/1 29/2/1
f 31/2/1 25/2/1 17/2/1
f 31/4/1 17/4/1 30/4/1
f 32/1/1 26/1/1 25/1/1
f 32/2/1 25/2/1 31/2/1
f 33/3/1 19/3/1 26/3/1
f 33/1/1 26/1/1 32/1/1
f 34/2/1 20/2/1 19/2/1
f 34/3/1 19/3/1 33/3/1
f 35/1/1 21/1/1 20/1/1
f 35/2/1 20/2/1 34/2/1
f 36/2/1 22/2/1 21/2/1
f 36/1/1 21/1/1 35/1/1
f 37/2/1 22/2/1 36/2/1
f 38/9/1 28/9/1 27/9/1
f 39/9/1 28/9/1 38/9/1
f 42/9/1 41/9/1 40/9/1
f 43/9/1 41/9/1 42/9/1
f 48/9/1 47/9/1 46/9/1
f 49/9/1 48/9/1 46/9/1
f 50/9/1 48/9/1 49/9/1
f 51/9/1 45/9/1 44/9/1
f 52/9/1 45/9/1 51/9/1
f 55/9/2 56/9/2 57/9/2
f 57/9/2 56/9/2 58/9/2
f 53/9/2 54/9/2 59/9/2
f 59/9/2 54/9/2 60/9/2
f 61/9/2 62/9/2 63/9/2
f 63/9/2 62/9/2 64/9/2
f 64/9/2 62/9/2 65/9/2
f 66/9/2 67/9/2 68/9/2
f 68/9/2 67/9/2 69/9/2
f 69/1/2 70/1/2 80/1/2
f 70/8/2 71/8/2 81/8/2
f 80/1/2 70/1/2 81/1/2
f 71/1/2 72/1/2 82/1/2
f 81/8/2 71/8/2 82/8/2
f 72/4/2 73/4/2 83/4/2
f 82/1/2 72/1/2 83/1/2
f 73/2/2 74/2/2 84/2/2
f 83/4/2 73/4/2 84/4/2
f 84/2/2 74/2/2 85/2/2
f 74/1/2 75/1/2 86/1/2
f 85/2/2 74/2/2 86/2/2
f 75/5/2 76/5/2 87/5/2
f 86/1/2 75/1/2 87/1/2
f 80/2/2 81/2/2 89/2/2
f 81/8/2 82/8/2 90/8/2
f 89/2/2 81/2/2 90/2/2
f 82/2/2 83/2/2 91/2/2
f 90/8/2 82/8/2 91/8/2
f 83/4/2 84/4/2 92/4/2
f 91/2/2 83/2/2 92/2/2
f 84/1/2 85/1/2 93/1/2
f 92/4/2 84/4/2 93/4/2
f 85/2/2 86/2/2 94/2/2
f 93/1/2 85/1/2 94/1/2
f 86/2/2 87/2/2 94/2/2
f 87/5/2 76/5/2 95/5/2
f 94/2/2 87/2/2 95/2/2
f 76/2/2 77/2/2 96/2/2
f 95/5/2 76/5/2 96/5/2
f 77/6/2 78/6/2 97/6/2
f 96/2/2 77/2/2 97/2/2
f 78/2/2 79/2/2 98/2/2
f 97/6/2 78/6/2 98/6/2
f 98/2/2 79/2/2 99/2/2
f 88/9/2 89/9/2 100/9/2
f 100/9/2 89/9/2 101/9/2
f 102/9/2 103/9/2 105/9/2
f 105/9/2 103/9/2 106/9/2
f 104/9/2 105/9/2 107/9/2
f 107/9/2 105/9/2 108/9/2
f 106/9/2 103/9/2 109/9/2
f 108/9/2 109/9/2 110/9/2
f 109/9/2 103/9/2 111/9/2
f 110/9/2 109/9/2 111/9/2
f 115/9/3 113/9/3 112/9/3
f 116/9/3 113/9/3 115/9/3
f 118/9/3 115/9/3 114/9/3
f 119/9/3 115/9/3 118/9/3
f 120/9/3 117/9/3 116/9/3
f 121/9/3 117/9/3 120/9/3
f 122/9/3 120/9/3 119/9/3
f 123/9/3 120/9/3 122/9/3
f 128/9/3 125/9/3 124/9/3
f 129/9/3 125/9/3 128/9/3
f 130/9/3 127/9/3 126/9/3
f 131/9/3 127/9/3 130/9/3
f 132/1/3 130/1/3 129/1/3
f 133/1/3 130/1/3 132/1/3
f 134/6/3 133/6/3 132/6/3
f 135/6/3 133/6/3 134/6/3
f 136/6/3 133/6/3 135/6/3
f 137/1/3 135/1/3 134/1/3
f 138/2/3 136/2/3 135/2/3
f 138/1/3 135/1/3 137/1/3
f 139/2/3 136/2/3 138/2/3
f 140/2/3 138/2/3 137/2/3
f 141/1/3 139/1/3 138/1/3
f 141/2/3 138/2/3 140/2/3
f 142/1/3 139/1/3 141/1/3
f 143/5/3 141/5/3 140/5/3
f 143/5/3 142/5/3 141/5/3
f 144/5/3 142/5/3 143/5/3
f 145/2/3 144/2/3 143/2/3
f 146/2/3 144/2/3 145/2/3
f 147/7/3 146/7/3 145/7/3
f 148/7/3 146/7/3 147/7/3
f 149/7/3 146/7/3 148/7/3
f 151/1/3 148/1/3 147/1/3
f 152/2/3 149/2/3 148/2/3
f 152/1/3 148/1/3 151/1/3
f 153/2/3 149/2/3 152/2/3
f 155/9/3 151/9/3 150/9/3
f 156/9/3 151/9/3 155/9/3
f 157/9/3 154/9/3 153/9/3
f 158/9/3 154/9/3 157/9/3
f 161/9/3 160/9/3 159/9/3
f 162/9/3 160/9/3 161/9/3
f 165/9/3 164/9/3 163/9/3
f 166/9/3 164/9/3 165/9/3
f 167/9/4 168/9/4 169/9/4
f 169/9/4 168/9/4 170/9/4
f 171/9/4 172/9/4 174/9/4
f 172/9/4 173/9/4 174/9/4
f 174/9/4 173/9/4 175/9/4
f 176/1/4 177/1/4 179/1/4
f 177/2/4 178/2/4 180/2/4
f 179/1/4 177/1/4 180/1/4
f 180/2/4 178/2/4 181/2/4
f 179/7/4 180/7/4 182/7/4
f 180/7/4 181/7/4 182/7/4
f 182/7/4 181/7/4 183/7/4
f 183/7/4 181/7/4 184/7/4
f 182/2/4 183/2/4 185/2/4
f 183/1/4 184/1/4 186/1/4
f 185/2/4 183/2/4 186/2/4
f 186/1/4 184/1/4 187/1/4
f 185/6/4 186/6/4 188/6/4
f 186/6/4 187/6/4 188/6/4
f 188/6/4 187/6/4 189/6/4
f 188/1/4 189/1/4 190/1/4
f 190/1/4 189/1/4 191/1/4
f 190/2/4 191/2/4 192/2/4
f 192/2/4 191/2/4 193/2/4
f 194/9/4 195/9/4 196/9/4
f 196/9/4 195/9/4 197/9/4
f 194/9/4 196/9/4 198/9/4
f 197/9/4 195/9/4 199/9/4
f 194/9/4 198/9/4 200/9/4
f 198/9/4 199/9/4 200/9/4
f 199/9/4 195/9/4 201/9/4
f 200/9/4 199/9/4 201/9/4
f 202/9/4 203/9/4 204/9/4
f 204/9/4 203/9/4 205/9/4
f 206/9/4 207/9/4 208/9/4
f 208/9/4 207/9/4 209/9/4
f 213/9/5 211/9/5 210/9/5
f 214/9/5 211/9/5 213/9/5
f 216/9/5 213/9/5 212/9/5
f 216/2/5 214/2/5 213/2/5
f 217/9/5 215/9/5 214/9/5
f 217/2/5 214/2/5 216/2/5
f 218/9/5 216/9/5 212/9/5
f 218/9/5 217/9/5 216/9/5
f 219/9/5 215/9/5 217/9/5
f 219/9/5 217/9/5 218/9/5
f 220/9/5 218/9/5 212/9/5
f 221/9/5 218/9/5 220/9/5
f 222/9/5 215/9/5 219/9/5
f 223/9/5 215/9/5 222/9/5
f 228/9/5 225/9/5 224/9/5
f 229/9/5 225/9/5 228/9/5
f 230/9/5 227/9/5 226/9/5
f 231/9/5 227/9/5 230/9/5
f 235/9/5 233/9/5 232/9/5
f 236/9/5 233/9/5 235/9/5
f 237/9/5 233/9/5 236/9/5
f 238/9/5 233/9/5 237/9/5
f 239/9/5 233/9/5 238/9/5
f 240/9/5 233/9/5 239/9/5
f 241/9/5 233/9/5 240/9/5
f 242/9/5 233/9/5 241/9/5
f 243/9/5 233/9/5 242/9/5
f 245/9/5 244/9/5 243/9/5
f 246/9/5 235/9/5 234/9/5
f 247/9/5 244/9/5 245/9/5
f 248/9/5 244/9/5 247/9/5
f 249/9/5 246/9/5 234/9/5
f 250/9/5 244/9/5 248/9/5
f 251/9/5 249/9/5 234/9/5
f 252/9/5 251/9/5 234/9/5
f 253/9/5 244/9/5 250/9/5
f 254/9/5 252/9/5 234/9/5
f 255/9/5 254/9/5 234/9/5
f 256/9/5 244/9/5 253/9/5
f 257/9/5 244/9/5 256/9/5
f 258/9/5 255/9/5 234/9/5
f 259/9/5 244/9/5 257/9/5
f 260/9/5 258/9/5 234/9/5
f 261/9/5 244/9/5 259/9/5
f 262/9/5 260/9/5 234/9/5
f 263/9/5 260/9/5 262/9/5
f 271/9/5 244/9/5 261/9/5
f 272/9/5 244/9/5 271/9/5
f 273/9/5 270/9/5 269/9/5
f 273/9/5 265/9/5 264/9/5
f 273/9/5 269/9/5 268/9/5
f 273/9/5 268/9/5 267/9/5
f 273/9/5 267/9/5 266/9/5
f 273/9/5 266/9/5 265/9/5
f 274/9/5 270/9/5 273/9/5
f 275/9/6 276/9/6 278/9/6
f 278/9/6 276/9/6 279/9/6
f 279/9/6 276/9/6 280/9/6
f 280/9/6 276/9/6 281/9/6
f 281/9/6 276/9/6 282/9/6
f 282/9/6 276/9/6 283/9/6
f 283/9/6 276/9/6 284/9/6
f 284/9/6 276/9/6 285/9/6
f 285/9/6 276/9/6 286/9/6
f 277/9/6 278/9/6 288/9/6
f 286/9/6 287/9/6 289/9/6
f 289/9/6 287/9/6 290/9/6
f 290/9/6 287/9/6 291/9/6
f 277/9/6 288/9/6 292/9/6
f 291/9/6 287/9/6 293/9/6
f 277/9/6 292/9/6 294/9/6
f 277/9/6 294/9/6 295/9/6
f 293/9/6 287/9/6 296/9/6
f 277/9/6 295/9/6 297/9/6
f 296/9/6 287/9/6 298/9/6
f 298/9/6 287/9/6 299/9/6
f 277/9/6 297/9/6 300/9/6
f 299/9/6 287/9/6 301/9/6
f 277/9/6 300/9/6 302/9/6
f 301/9/6 287/9/6 303/9/6
f 277/9/6 302/9/6 304/9/6
f 304/9/6 302/9/6 305/9/6
f 303/9/6 287/9/6 313/9/6
f 313/9/6 287/9/6 314/9/6
f 311/9/6 312/9/6 315/9/6
f 306/9/6 307/9/6 315/9/6
f 310/9/6 311/9/6 315/9/6
f 309/9/6 310/9/6 315/9/6
f 308/9/6 309/9/6 315/9/6
f 307/9/6 308/9/6 315/9/6
f 315/9/6 312/9/6 316/9/6
f 317/9/6 318/9/6 321/9/6
f 321/9/6 318/9/6 322/9/6
f 319/9/6 320/9/6 323/9/6
f 323/9/6 320/9/6 324/9/6
f 325/9/6 326/9/6 328/9/6
f 328/9/6 326/9/6 329/9/6
f 329/9/6 326/9/6 330/9/6
f 330/9/6 326/9/6 331/9/6
f 331/9/6 326/9/6 332/9/6
f 332/9/6 326/9/6 333/9/6
f 328/1/6 329/1/6 335/1/6
f 329/2/6 330/2/6 336/2/6
f 335/1/6 329/1/6 336/1/6
f 330/1/6 331/1/6 337/1/6
f 336/2/6 330/2/6 337/2/6
f 337/1/6 331/1/6 338/1/6
f 338/1/6 331/1/6 339/1/6
f 327/9/6 328/9/6 340/9/6
f 328/1/6 335/1/6 340/1/6
f 335/8/6 336/8/6 341/8/6
f 340/1/6 335/1/6 341/1/6
f 336/2/6 337/2/6 342/2/6
f 341/8/6 336/8/6 342/8/6
f 337/2/6 338/2/6 342/2/6
f 342/2/6 338/2/6 343/2/6
f 338/5/6 339/5/6 344/5/6
f 343/2/6 338/2/6 344/2/6
f 339/1/6 331/1/6 345/1/6
f 344/5/6 339/5/6 345/5/6
f 331/7/6 332/7/6 346/7/6
f 345/1/6 331/1/6 346/1/6
f 332/1/6 333/1/6 347/1/6
f 346/7/6 332/7/6 347/7/6
f 327/9/6 340/9/6 348/9/6
f 340/2/6 341/2/6 348/2/6
f 341/8/6 342/8/6 349/8/6
f 348/2/6 341/2/6 349/2/6
f 343/1/6 344/1/6 350/1/6
f 342/6/6 343/6/6 350/6/6
f 344/5/6 345/5/6 351/5/6
f 350/1/6 344/1/6 351/1/6
f 347/1/6 333/1/6 352/1/6
f 345/2/6 346/2/6 352/2/6
f 346/2/6 347/2/6 352/2/6
f 333/9/6 334/9/6 353/9/6
f 352/1/6 333/1/6 353/1/6
f 349/8/6 342/8/6 354/8/6
f 342/6/6 350/6/6 354/6/6
f 350/2/6 351/2/6 355/2/6
f 354/6/6 350/6/6 355/6/6
f 345/2/6 352/2/6 356/2/6
f 351/5/6 345/5/6 356/5/6
f 352/2/6 353/2/6 356/2/6
f 356/2/6 353/2/6 357/2/6
f 357/2/6 353/2/6 358/2/6
f 348/1/6 349/1/6 359/1/6
f 349/8/6 354/8/6 359/8/6
f 354/2/6 355/2/6 360/2/6
f 359/8/6 354/8/6 360/8/6
f 348/1/6 359/1/6 361/1/6
f 359/1/6 360/1/6 361/1/6
f 360/2/6 355/2/6 362/2/6
f 361/1/6 360/1/6 362/1/6
f 355/2/6 351/2/6 363/2/6
f 362/2/6 355/2/6 363/2/6
f 351/5/6 356/5/6 364/5/6
f 363/2/6 351/2/6 364/2/6
f 356/1/6 357/1/6 365/1/6
f 364/5/6 356/5/6 365/5/6
f 358/2/6 353/2/6 366/2/6
f 357/8/6 358/8/6 366/8/6
f 353/9/6 334/9/6 367/9/6
f 366/2/6 353/2/6 367/2/6
f 348/1/6 361/1/6 368/1/6
f 327/9/6 348/9/6 368/9/6
f 361/2/6 362/2/6 369/2/6
f 368/1/6 361/1/6 369/1/6
f 327/9/6 368/9/6 370/9/6
f 368/2/6 369/2/6 370/2/6
f 369/2/6 362/2/6 371/2/6
f 370/2/6 369/2/6 371/2/6
f 365/1/6 357/1/6 372/1/6
f 364/4/6 365/4/6 372/4/6
f 357/8/6 366/8/6 373/8/6
f 372/1/6 357/1/6 373/1/6
f 362/7/6 363/7/6 374/7/6
f 363/2/6 364/2/6 374/2/6
f 364/4/6 372/4/6 375/4/6
f 374/2/6 364/2/6 375/2/6
f 372/2/6 373/2/6 376/2/6
f 375/4/6 372/4/6 376/4/6
f 373/8/6 366/8/6 377/8/6
f 376/2/6 373/2/6 377/2/6
f 362/7/6 374/7/6 378/7/6
f 375/1/6 376/1/6 378/1/6
f 376/1/6 377/1/6 378/1/6
f 374/1/6 375/1/6 378/1/6
f 378/1/6 377/1/6 379/1/6
f 379/1/6 377/1/6 380/1/6
f 377/8/6 366/8/6 381/8/6
f 380/1/6 377/1/6 381/1/6
f 366/1/6 367/1/6 382/1/6
f 381/8/6 366/8/6 382/8/6
f 367/9/6 334/9/6 383/9/6
f 382/1/6 367/1/6 383/1/6
f 327/9/6 370/9/6 384/9/6
f 370/3/6 371/3/6 384/3/6
f 371/2/6 362/2/6 385/2/6
f 384/3/6 371/3/6 385/3/6
f 362/7/6 378/7/6 386/7/6
f 385/2/6 362/2/6 386/2/6
f 378/2/6 379/2/6 387/2/6
f 386/7/6 378/7/6 387/7/6
f 379/6/6 380/6/6 388/6/6
f 387/2/6 379/2/6 388/2/6
f 381/8/6 382/8/6 389/8/6
f 380/2/6 381/2/6 389/2/6
f 382/2/6 383/2/6 390/2/6
f 389/8/6 382/8/6 390/8/6
f 383/9/6 334/9/6 391/9/6
f 390/2/6 383/2/6 391/2/6
f 327/9/6 384/9/6 392/9/6
f 384/1/6 385/1/6 392/1/6
f 386/2/6 387/2/6 393/2/6
f 392/1/6 385/1/6 393/1/6
f 385/2/6 386/2/6 393/2/6
f 387/1/6 388/1/6 394/1/6
f 393/2/6 387/2/6 394/2/6
f 388/6/6 380/6/6 395/6/6
f 394/1/6 388/1/6 395/1/6
f 380/2/6 389/2/6 396/2/6
f 395/6/6 380/6/6 396/6/6
f 389/1/6 390/1/6 397/1/6
f 396/2/6 389/2/6 397/2/6
f 390/1/6 391/1/6 397/1/6
f 391/9/6 334/9/6 398/9/6
f 397/1/6 391/1/6 398/1/6
f 327/9/6 392/9/6 399/9/6
f 395/9/6 396/9/6 399/9/6
f 397/9/6 398/9/6 399/9/6
f 394/9/6 395/9/6 399/9/6
f 392/9/6 393/9/6 399/9/6
f 393/9/6 394/9/6 399/9/6
f 396/9/6 397/9/6 399/9/6
f 398/9/6 334/9/6 400/9/6
f 399/9/6 398/9/6 400/9/6
f 327/9/6 399/9/6 401/9/6
f 401/9/6 399/9/6 402/9/6
f 400/9/6 334/9/6 403/9/6
f 403/9/6 334/9/6 404/9/6
