# MagicaVoxel @ Ephtracy

# group
o 

# material
mtllib lab_decorations-8.mtl
usemtl palette

# normals
vn -1 0 0
vn 1 0 0
vn 0 0 1
vn 0 0 -1
vn 0 -1 0
vn 0 1 0

# texcoords
vt 0.142578 0.5
vt 0.423828 0.5
vt 0.427734 0.5
vt 0.732422 0.5
vt 0.751953 0.5
vt 0.755859 0.5
vt 0.802734 0.5
vt 0.830078 0.5
vt 0.962891 0.5
vt 0.966797 0.5
vt 0.978516 0.5
vt 0.986328 0.5
vt 0.990234 0.5

# verts
v -1.6 -0.7 0.45
v -1.6 -0.7 -0.45
v -1.6 -0.6 0.45
v -1.6 -0.6 -0.45
v -1.5 -0.6 0.35
v -1.5 -0.6 -0.35
v -1.5 -0.4 0.35
v -1.5 -0.4 0.25
v -1.5 -0.4 -0.25
v -1.5 -0.4 -0.35
v -1.5 0 0.25
v -1.5 0 -0.25
v -1.4 -0.4 0.35
v -1.4 -0.4 0.25
v -1.4 -0.4 -0.25
v -1.4 -0.4 -0.35
v -1.4 0 0.25
v -1.4 0 -0.25
v -1.4 0.1 0.35
v -1.4 0.1 0.25
v -1.4 0.1 -0.25
v -1.4 0.1 -0.35
v -1.4 0.2 0.25
v -1.4 0.2 -0.25
v -1.3 0.1 0.35
v -1.3 0.1 0.25
v -1.3 0.1 -0.25
v -1.3 0.1 -0.35
v -1.3 0.2 0.35
v -1.3 0.2 0.25
v -1.3 0.2 0.15
v -1.3 0.2 -0.15
v -1.3 0.2 -0.25
v -1.3 0.2 -0.35
v -1.3 0.3 0.15
v -1.3 0.3 -0.15
v -1.2 0.2 0.25
v -1.2 0.2 0.15
v -1.2 0.2 -0.15
v -1.2 0.2 -0.25
v -1.2 0.3 0.25
v -1.2 0.3 0.15
v -1.2 0.3 -0.15
v -1.2 0.3 -0.25
v -1.2 0.4 0.15
v -1.2 0.4 -0.15
v -1.1 0.3 0.25
v -1.1 0.3 0.15
v -1.1 0.3 -0.15
v -1.1 0.3 -0.25
v -1.1 0.4 0.25
v -1.1 0.4 0.15
v -1.1 0.4 -0.15
v -1.1 0.4 -0.25
v -1.1 0.5 0.15
v -1.1 0.5 -0.15
v -1 0.4 0.25
v -1 0.4 0.15
v -1 0.4 -0.15
v -1 0.4 -0.25
v -1 0.5 0.25
v -1 0.5 0.15
v -1 0.5 -0.15
v -1 0.5 -0.25
v -1 0.6 0.15
v -1 0.6 -0.15
v -0.9 0.5 0.25
v -0.9 0.5 0.15
v -0.9 0.5 -0.15
v -0.9 0.5 -0.25
v -0.9 0.6 0.25
v -0.9 0.6 0.15
v -0.9 0.6 0.05
v -0.9 0.6 -0.05
v -0.9 0.6 -0.15
v -0.9 0.6 -0.25
v -0.9 0.7 0.05
v -0.9 0.7 -0.05
v -0.5 -0.6 0.75
v -0.5 -0.6 0.45
v -0.5 -0.6 -0.45
v -0.5 -0.6 -0.75
v -0.5 -0.5 0.75
v -0.5 -0.5 -0.75
v -0.5 0.5 0.25
v -0.5 0.5 0.15
v -0.5 0.5 -0.15
v -0.5 0.5 -0.25
v -0.5 0.6 0.25
v -0.5 0.6 0.15
v -0.5 0.6 -0.15
v -0.5 0.6 -0.25
v -0.3 0.5 0.25
v -0.3 0.5 0.15
v -0.3 0.5 -0.15
v -0.3 0.5 -0.25
v -0.3 0.6 0.25
v -0.3 0.6 0.15
v -0.3 0.6 -0.15
v -0.3 0.6 -0.25
v -0.1 0.5 0.25
v -0.1 0.5 0.15
v -0.1 0.5 -0.15
v -0.1 0.5 -0.25
v -0.1 0.6 0.25
v -0.1 0.6 0.15
v -0.1 0.6 -0.15
v -0.1 0.6 -0.25
v 0 0.3 0.25
v 0 0.3 -0.25
v 0 0.4 0.25
v 0 0.4 -0.25
v 0.1 0.2 0.15
v 0.1 0.2 -0.15
v 0.1 0.3 0.35
v 0.1 0.3 0.25
v 0.1 0.3 0.15
v 0.1 0.3 -0.15
v 0.1 0.3 -0.25
v 0.1 0.3 -0.35
v 0.1 0.4 0.35
v 0.1 0.4 0.25
v 0.1 0.4 -0.25
v 0.1 0.4 -0.35
v 0.1 0.5 0.35
v 0.1 0.5 0.25
v 0.1 0.5 -0.25
v 0.1 0.5 -0.35
v 0.2 0.1 0.15
v 0.2 0.1 -0.15
v 0.2 0.2 0.25
v 0.2 0.2 0.15
v 0.2 0.2 -0.15
v 0.2 0.2 -0.25
v 0.2 0.3 0.45
v 0.2 0.3 0.35
v 0.2 0.3 0.25
v 0.2 0.3 0.15
v 0.2 0.3 -0.15
v 0.2 0.3 -0.25
v 0.2 0.3 -0.35
v 0.2 0.3 -0.45
v 0.2 0.4 0.45
v 0.2 0.4 0.35
v 0.2 0.4 -0.35
v 0.2 0.4 -0.45
v 0.2 0.5 0.45
v 0.2 0.5 0.35
v 0.2 0.5 0.25
v 0.2 0.5 0.15
v 0.2 0.5 -0.15
v 0.2 0.5 -0.25
v 0.2 0.5 -0.35
v 0.2 0.5 -0.45
v 0.2 0.6 0.25
v 0.2 0.6 0.15
v 0.2 0.6 0.05
v 0.2 0.6 -0.05
v 0.2 0.6 -0.15
v 0.2 0.6 -0.25
v 0.2 0.7 0.05
v 0.2 0.7 -0.05
v 0.3 0 0.15
v 0.3 0 -0.15
v 0.3 0.1 0.25
v 0.3 0.1 0.15
v 0.3 0.1 -0.15
v 0.3 0.1 -0.25
v 0.3 0.2 0.35
v 0.3 0.2 0.25
v 0.3 0.2 0.15
v 0.3 0.2 -0.15
v 0.3 0.2 -0.25
v 0.3 0.2 -0.35
v 0.3 0.3 0.35
v 0.3 0.3 0.25
v 0.3 0.3 -0.25
v 0.3 0.3 -0.35
v 0.3 0.5 0.35
v 0.3 0.5 0.25
v 0.3 0.5 -0.25
v 0.3 0.5 -0.35
v 0.3 0.6 0.35
v 0.3 0.6 0.25
v 0.3 0.6 0.15
v 0.3 0.6 0.05
v 0.3 0.6 -0.05
v 0.3 0.6 -0.15
v 0.3 0.6 -0.25
v 0.3 0.6 -0.35
v 0.3 0.7 0.15
v 0.3 0.7 0.05
v 0.3 0.7 -0.05
v 0.3 0.7 -0.15
v 0.4 -0.1 0.05
v 0.4 -0.1 -0.05
v 0.4 0 0.05
v 0.4 0 -0.05
v 0.4 0.6 0.25
v 0.4 0.6 0.15
v 0.4 0.6 -0.15
v 0.4 0.6 -0.25
v 0.4 0.7 0.25
v 0.4 0.7 0.15
v 0.4 0.7 -0.15
v 0.4 0.7 -0.25
v 0.5 0 0.05
v 0.5 0 -0.05
v 0.5 0.1 0.05
v 0.5 0.1 -0.05
v 0.5 0.2 0.05
v 0.5 0.2 -0.05
v 0.5 0.3 0.05
v 0.5 0.3 -0.05
v 0.5 0.5 0.25
v 0.5 0.5 0.15
v 0.5 0.5 -0.15
v 0.5 0.5 -0.25
v 0.5 0.6 0.25
v 0.5 0.6 0.15
v 0.5 0.6 0.05
v 0.5 0.6 -0.05
v 0.5 0.6 -0.15
v 0.5 0.6 -0.25
v 0.5 0.7 0.15
v 0.5 0.7 0.05
v 0.5 0.7 -0.05
v 0.5 0.7 -0.15
v 0.6 0.3 0.25
v 0.6 0.3 0.15
v 0.6 0.3 -0.15
v 0.6 0.3 -0.25
v 0.6 0.4 0.25
v 0.6 0.4 0.15
v 0.6 0.4 -0.15
v 0.6 0.4 -0.25
v 0.6 0.5 0.25
v 0.6 0.5 0.15
v 0.6 0.5 0.05
v 0.6 0.5 -0.05
v 0.6 0.5 -0.15
v 0.6 0.5 -0.25
v 0.6 0.6 0.15
v 0.6 0.6 0.05
v 0.6 0.6 -0.05
v 0.6 0.6 -0.15
v 0.6 0.7 0.05
v 0.6 0.7 -0.05
v 0.7 0.3 0.15
v 0.7 0.3 -0.15
v 0.7 0.4 0.15
v 0.7 0.4 -0.15
v 0.7 0.5 0.15
v 0.7 0.5 0.05
v 0.7 0.5 -0.05
v 0.7 0.5 -0.15
v 0.7 0.6 0.05
v 0.7 0.6 -0.05
v -0.9 -0.4 0.35
v -0.9 -0.4 0.25
v -0.9 -0.4 -0.25
v -0.9 -0.4 -0.35
v -0.9 0.2 0.35
v -0.9 0.2 0.25
v -0.9 0.2 0.15
v -0.9 0.2 -0.15
v -0.9 0.2 -0.25
v -0.9 0.2 -0.35
v -0.9 0.3 0.25
v -0.9 0.3 0.15
v -0.9 0.3 -0.15
v -0.9 0.3 -0.25
v -0.8 -0.6 0.35
v -0.8 -0.6 -0.35
v -0.8 -0.4 0.35
v -0.8 -0.4 0.25
v -0.8 -0.4 -0.25
v -0.8 -0.4 -0.35
v -0.8 0.2 0.25
v -0.8 0.2 0.15
v -0.8 0.2 -0.15
v -0.8 0.2 -0.25
v -0.8 0.3 0.25
v -0.8 0.3 0.15
v -0.8 0.3 -0.15
v -0.8 0.3 -0.25
v -0.8 0.4 0.25
v -0.8 0.4 0.15
v -0.8 0.4 -0.15
v -0.8 0.4 -0.25
v -0.7 0.3 0.15
v -0.7 0.3 -0.15
v -0.7 0.4 0.15
v -0.7 0.4 -0.15
v -0.6 0.5 0.25
v -0.6 0.5 0.15
v -0.6 0.5 -0.15
v -0.6 0.5 -0.25
v -0.6 0.6 0.25
v -0.6 0.6 0.15
v -0.6 0.6 -0.15
v -0.6 0.6 -0.25
v -0.4 0.5 0.25
v -0.4 0.5 0.15
v -0.4 0.5 -0.15
v -0.4 0.5 -0.25
v -0.4 0.6 0.25
v -0.4 0.6 0.15
v -0.4 0.6 -0.15
v -0.4 0.6 -0.25
v -0.2 0.5 0.25
v -0.2 0.5 0.15
v -0.2 0.5 -0.15
v -0.2 0.5 -0.25
v -0.2 0.6 0.25
v -0.2 0.6 0.15
v -0.2 0.6 -0.15
v -0.2 0.6 -0.25
v 0 0.5 0.25
v 0 0.5 0.15
v 0 0.5 -0.15
v 0 0.5 -0.25
v 0 0.6 0.25
v 0 0.6 0.15
v 0 0.6 0.05
v 0 0.6 -0.05
v 0 0.6 -0.15
v 0 0.6 -0.25
v 0 0.7 0.05
v 0 0.7 -0.05
v 0.2 0.3 0.15
v 0.2 0.3 -0.15
v 0.2 0.4 0.15
v 0.2 0.4 -0.15
v 0.2 0.5 0.15
v 0.2 0.5 0.05
v 0.2 0.5 -0.05
v 0.2 0.5 -0.15
v 0.2 0.6 0.05
v 0.2 0.6 -0.05
v 0.3 0.3 0.25
v 0.3 0.3 0.15
v 0.3 0.3 -0.15
v 0.3 0.3 -0.25
v 0.3 0.4 0.25
v 0.3 0.4 0.15
v 0.3 0.4 -0.15
v 0.3 0.4 -0.25
v 0.3 0.5 0.25
v 0.3 0.5 0.15
v 0.3 0.5 0.05
v 0.3 0.5 -0.05
v 0.3 0.5 -0.15
v 0.3 0.5 -0.25
v 0.3 0.6 0.15
v 0.3 0.6 0.05
v 0.3 0.6 -0.05
v 0.3 0.6 -0.15
v 0.3 0.7 0.05
v 0.3 0.7 -0.05
v 0.4 0 0.05
v 0.4 0 -0.05
v 0.4 0.1 0.05
v 0.4 0.1 -0.05
v 0.4 0.2 0.05
v 0.4 0.2 -0.05
v 0.4 0.3 0.05
v 0.4 0.3 -0.05
v 0.4 0.5 0.25
v 0.4 0.5 0.15
v 0.4 0.5 -0.15
v 0.4 0.5 -0.25
v 0.4 0.6 0.25
v 0.4 0.6 0.15
v 0.4 0.6 0.05
v 0.4 0.6 -0.05
v 0.4 0.6 -0.15
v 0.4 0.6 -0.25
v 0.4 0.7 0.15
v 0.4 0.7 0.05
v 0.4 0.7 -0.05
v 0.4 0.7 -0.15
v 0.5 -0.1 0.05
v 0.5 -0.1 -0.05
v 0.5 0 0.05
v 0.5 0 -0.05
v 0.5 0.6 0.25
v 0.5 0.6 0.15
v 0.5 0.6 -0.15
v 0.5 0.6 -0.25
v 0.5 0.7 0.25
v 0.5 0.7 0.15
v 0.5 0.7 -0.15
v 0.5 0.7 -0.25
v 0.6 0 0.15
v 0.6 0 -0.15
v 0.6 0.1 0.25
v 0.6 0.1 0.15
v 0.6 0.1 -0.15
v 0.6 0.1 -0.25
v 0.6 0.2 0.35
v 0.6 0.2 0.25
v 0.6 0.2 0.15
v 0.6 0.2 -0.15
v 0.6 0.2 -0.25
v 0.6 0.2 -0.35
v 0.6 0.3 0.35
v 0.6 0.3 0.25
v 0.6 0.3 -0.25
v 0.6 0.3 -0.35
v 0.6 0.5 0.35
v 0.6 0.5 0.25
v 0.6 0.5 -0.25
v 0.6 0.5 -0.35
v 0.6 0.6 0.35
v 0.6 0.6 0.25
v 0.6 0.6 0.15
v 0.6 0.6 0.05
v 0.6 0.6 -0.05
v 0.6 0.6 -0.15
v 0.6 0.6 -0.25
v 0.6 0.6 -0.35
v 0.6 0.7 0.15
v 0.6 0.7 0.05
v 0.6 0.7 -0.05
v 0.6 0.7 -0.15
v 0.7 0.1 0.15
v 0.7 0.1 -0.15
v 0.7 0.2 0.25
v 0.7 0.2 0.15
v 0.7 0.2 -0.15
v 0.7 0.2 -0.25
v 0.7 0.3 0.45
v 0.7 0.3 0.35
v 0.7 0.3 0.25
v 0.7 0.3 0.15
v 0.7 0.3 -0.15
v 0.7 0.3 -0.25
v 0.7 0.3 -0.35
v 0.7 0.3 -0.45
v 0.7 0.4 0.45
v 0.7 0.4 0.35
v 0.7 0.4 -0.35
v 0.7 0.4 -0.45
v 0.7 0.5 0.45
v 0.7 0.5 0.35
v 0.7 0.5 0.25
v 0.7 0.5 0.15
v 0.7 0.5 -0.15
v 0.7 0.5 -0.25
v 0.7 0.5 -0.35
v 0.7 0.5 -0.45
v 0.7 0.6 0.25
v 0.7 0.6 0.15
v 0.7 0.6 0.05
v 0.7 0.6 -0.05
v 0.7 0.6 -0.15
v 0.7 0.6 -0.25
v 0.7 0.7 0.05
v 0.7 0.7 -0.05
v 0.8 0.2 0.15
v 0.8 0.2 -0.15
v 0.8 0.3 0.35
v 0.8 0.3 0.25
v 0.8 0.3 0.15
v 0.8 0.3 -0.15
v 0.8 0.3 -0.25
v 0.8 0.3 -0.35
v 0.8 0.4 0.35
v 0.8 0.4 0.25
v 0.8 0.4 -0.25
v 0.8 0.4 -0.35
v 0.8 0.5 0.35
v 0.8 0.5 0.25
v 0.8 0.5 0.15
v 0.8 0.5 -0.15
v 0.8 0.5 -0.25
v 0.8 0.5 -0.35
v 0.8 0.6 0.15
v 0.8 0.6 -0.15
v 0.9 0.3 0.25
v 0.9 0.3 -0.25
v 0.9 0.4 0.25
v 0.9 0.4 -0.25
v 0.9 0.5 0.25
v 0.9 0.5 -0.25
v 1.1 -0.6 0.75
v 1.1 -0.6 0.45
v 1.1 -0.6 -0.45
v 1.1 -0.6 -0.75
v 1.1 -0.5 0.75
v 1.1 -0.5 -0.75
v 1.6 -0.7 0.45
v 1.6 -0.7 -0.45
v 1.6 -0.6 0.45
v 1.6 -0.6 -0.45
v -0.5 -0.6 0.75
v -0.5 -0.5 0.75
v 1.1 -0.6 0.75
v 1.1 -0.5 0.75
v -1.6 -0.7 0.45
v -1.6 -0.6 0.45
v -0.5 -0.6 0.45
v 0.2 0.3 0.45
v 0.2 0.4 0.45
v 0.2 0.5 0.45
v 0.7 0.3 0.45
v 0.7 0.4 0.45
v 0.7 0.5 0.45
v 1.1 -0.6 0.45
v 1.6 -0.7 0.45
v 1.6 -0.6 0.45
v -1.5 -0.6 0.35
v -1.5 -0.4 0.35
v -1.4 -0.4 0.35
v -1.4 0.1 0.35
v -1.3 0.1 0.35
v -1.3 0.2 0.35
v -0.9 -0.4 0.35
v -0.9 0.2 0.35
v -0.8 -0.6 0.35
v -0.8 -0.4 0.35
v 0.1 0.3 0.35
v 0.1 0.4 0.35
v 0.1 0.5 0.35
v 0.2 0.3 0.35
v 0.2 0.4 0.35
v 0.2 0.5 0.35
v 0.3 0.2 0.35
v 0.3 0.3 0.35
v 0.3 0.5 0.35
v 0.3 0.6 0.35
v 0.6 0.2 0.35
v 0.6 0.3 0.35
v 0.6 0.5 0.35
v 0.6 0.6 0.35
v 0.7 0.3 0.35
v 0.7 0.4 0.35
v 0.7 0.5 0.35
v 0.8 0.3 0.35
v 0.8 0.4 0.35
v 0.8 0.5 0.35
v -1.5 -0.4 0.25
v -1.5 0 0.25
v -1.4 -0.4 0.25
v -1.4 0 0.25
v -1.4 0.1 0.25
v -1.4 0.2 0.25
v -1.3 0.1 0.25
v -1.3 0.2 0.25
v -1.2 0.2 0.25
v -1.2 0.3 0.25
v -1.1 0.3 0.25
v -1.1 0.4 0.25
v -1 0.4 0.25
v -1 0.5 0.25
v -0.9 -0.4 0.25
v -0.9 0.2 0.25
v -0.9 0.3 0.25
v -0.9 0.5 0.25
v -0.9 0.6 0.25
v -0.8 -0.4 0.25
v -0.8 0.2 0.25
v -0.8 0.3 0.25
v -0.8 0.4 0.25
v -0.6 0.5 0.25
v -0.6 0.6 0.25
v -0.5 0.5 0.25
v -0.5 0.6 0.25
v -0.4 0.5 0.25
v -0.4 0.6 0.25
v -0.3 0.5 0.25
v -0.3 0.6 0.25
v -0.2 0.5 0.25
v -0.2 0.6 0.25
v -0.1 0.5 0.25
v -0.1 0.6 0.25
v 0 0.3 0.25
v 0 0.4 0.25
v 0 0.5 0.25
v 0 0.6 0.25
v 0.1 0.3 0.25
v 0.1 0.4 0.25
v 0.1 0.5 0.25
v 0.2 0.2 0.25
v 0.2 0.3 0.25
v 0.2 0.5 0.25
v 0.2 0.6 0.25
v 0.3 0.1 0.25
v 0.3 0.2 0.25
v 0.3 0.3 0.25
v 0.3 0.5 0.25
v 0.3 0.6 0.25
v 0.4 0.6 0.25
v 0.4 0.7 0.25
v 0.5 0.6 0.25
v 0.5 0.7 0.25
v 0.6 0.1 0.25
v 0.6 0.2 0.25
v 0.6 0.3 0.25
v 0.6 0.5 0.25
v 0.6 0.6 0.25
v 0.7 0.2 0.25
v 0.7 0.3 0.25
v 0.7 0.5 0.25
v 0.7 0.6 0.25
v 0.8 0.3 0.25
v 0.8 0.4 0.25
v 0.8 0.5 0.25
v 0.9 0.3 0.25
v 0.9 0.4 0.25
v 0.9 0.5 0.25
v -1.3 0.2 0.15
v -1.3 0.3 0.15
v -1.2 0.2 0.15
v -1.2 0.3 0.15
v -1.2 0.4 0.15
v -1.1 0.3 0.15
v -1.1 0.4 0.15
v -1.1 0.5 0.15
v -1 0.4 0.15
v -1 0.5 0.15
v -1 0.6 0.15
v -0.9 0.2 0.15
v -0.9 0.3 0.15
v -0.9 0.5 0.15
v -0.9 0.6 0.15
v -0.8 0.2 0.15
v -0.8 0.3 0.15
v -0.8 0.4 0.15
v -0.7 0.3 0.15
v -0.7 0.4 0.15
v -0.6 0.5 0.15
v -0.6 0.6 0.15
v -0.5 0.5 0.15
v -0.5 0.6 0.15
v -0.4 0.5 0.15
v -0.4 0.6 0.15
v -0.3 0.5 0.15
v -0.3 0.6 0.15
v -0.2 0.5 0.15
v -0.2 0.6 0.15
v -0.1 0.5 0.15
v -0.1 0.6 0.15
v 0 0.5 0.15
v 0 0.6 0.15
v 0.1 0.2 0.15
v 0.1 0.3 0.15
v 0.1 0.5 0.15
v 0.1 0.6 0.15
v 0.2 0.1 0.15
v 0.2 0.2 0.15
v 0.2 0.3 0.15
v 0.2 0.5 0.15
v 0.2 0.6 0.15
v 0.3 0 0.15
v 0.3 0.1 0.15
v 0.3 0.2 0.15
v 0.3 0.6 0.15
v 0.3 0.7 0.15
v 0.4 0.6 0.15
v 0.4 0.7 0.15
v 0.5 0.6 0.15
v 0.5 0.7 0.15
v 0.6 0 0.15
v 0.6 0.1 0.15
v 0.6 0.2 0.15
v 0.6 0.6 0.15
v 0.6 0.7 0.15
v 0.7 0.1 0.15
v 0.7 0.2 0.15
v 0.7 0.3 0.15
v 0.7 0.5 0.15
v 0.7 0.6 0.15
v 0.8 0.2 0.15
v 0.8 0.3 0.15
v 0.8 0.5 0.15
v 0.8 0.6 0.15
v -0.9 0.6 0.05
v -0.9 0.7 0.05
v 0 0.6 0.05
v 0 0.7 0.05
v 0.2 0.6 0.05
v 0.2 0.7 0.05
v 0.3 0.6 0.05
v 0.3 0.7 0.05
v 0.4 -0.1 0.05
v 0.4 0 0.05
v 0.5 -0.1 0.05
v 0.5 0 0.05
v 0.6 0.6 0.05
v 0.6 0.7 0.05
v 0.7 0.6 0.05
v 0.7 0.7 0.05
v 0.2 0.5 -0.05
v 0.2 0.6 -0.05
v 0.3 0.5 -0.05
v 0.3 0.6 -0.05
v 0.3 0.7 -0.05
v 0.4 0 -0.05
v 0.4 0.1 -0.05
v 0.4 0.2 -0.05
v 0.4 0.3 -0.05
v 0.4 0.6 -0.05
v 0.4 0.7 -0.05
v 0.5 0 -0.05
v 0.5 0.1 -0.05
v 0.5 0.2 -0.05
v 0.5 0.3 -0.05
v 0.5 0.6 -0.05
v 0.5 0.7 -0.05
v 0.6 0.5 -0.05
v 0.6 0.6 -0.05
v 0.6 0.7 -0.05
v 0.7 0.5 -0.05
v 0.7 0.6 -0.05
v 0.2 0.3 -0.15
v 0.2 0.4 -0.15
v 0.2 0.5 -0.15
v 0.3 0.3 -0.15
v 0.3 0.4 -0.15
v 0.3 0.5 -0.15
v 0.3 0.6 -0.15
v 0.4 0.5 -0.15
v 0.4 0.6 -0.15
v 0.4 0.7 -0.15
v 0.5 0.5 -0.15
v 0.5 0.6 -0.15
v 0.5 0.7 -0.15
v 0.6 0.3 -0.15
v 0.6 0.4 -0.15
v 0.6 0.5 -0.15
v 0.6 0.6 -0.15
v 0.7 0.3 -0.15
v 0.7 0.4 -0.15
v 0.7 0.5 -0.15
v 0.3 0.3 -0.25
v 0.3 0.4 -0.25
v 0.3 0.5 -0.25
v 0.4 0.5 -0.25
v 0.4 0.6 -0.25
v 0.5 0.5 -0.25
v 0.5 0.6 -0.25
v 0.6 0.3 -0.25
v 0.6 0.4 -0.25
v 0.6 0.5 -0.25
v 0.3 0.3 0.25
v 0.3 0.4 0.25
v 0.3 0.5 0.25
v 0.4 0.5 0.25
v 0.4 0.6 0.25
v 0.5 0.5 0.25
v 0.5 0.6 0.25
v 0.6 0.3 0.25
v 0.6 0.4 0.25
v 0.6 0.5 0.25
v 0.2 0.3 0.15
v 0.2 0.4 0.15
v 0.2 0.5 0.15
v 0.3 0.3 0.15
v 0.3 0.4 0.15
v 0.3 0.5 0.15
v 0.3 0.6 0.15
v 0.4 0.5 0.15
v 0.4 0.6 0.15
v 0.4 0.7 0.15
v 0.5 0.5 0.15
v 0.5 0.6 0.15
v 0.5 0.7 0.15
v 0.6 0.3 0.15
v 0.6 0.4 0.15
v 0.6 0.5 0.15
v 0.6 0.6 0.15
v 0.7 0.3 0.15
v 0.7 0.4 0.15
v 0.7 0.5 0.15
v 0.2 0.5 0.05
v 0.2 0.6 0.05
v 0.3 0.5 0.05
v 0.3 0.6 0.05
v 0.3 0.7 0.05
v 0.4 0 0.05
v 0.4 0.1 0.05
v 0.4 0.2 0.05
v 0.4 0.3 0.05
v 0.4 0.6 0.05
v 0.4 0.7 0.05
v 0.5 0 0.05
v 0.5 0.1 0.05
v 0.5 0.2 0.05
v 0.5 0.3 0.05
v 0.5 0.6 0.05
v 0.5 0.7 0.05
v 0.6 0.5 0.05
v 0.6 0.6 0.05
v 0.6 0.7 0.05
v 0.7 0.5 0.05
v 0.7 0.6 0.05
v -0.9 0.6 -0.05
v -0.9 0.7 -0.05
v 0 0.6 -0.05
v 0 0.7 -0.05
v 0.2 0.6 -0.05
v 0.2 0.7 -0.05
v 0.3 0.6 -0.05
v 0.3 0.7 -0.05
v 0.4 -0.1 -0.05
v 0.4 0 -0.05
v 0.5 -0.1 -0.05
v 0.5 0 -0.05
v 0.6 0.6 -0.05
v 0.6 0.7 -0.05
v 0.7 0.6 -0.05
v 0.7 0.7 -0.05
v -1.3 0.2 -0.15
v -1.3 0.3 -0.15
v -1.2 0.2 -0.15
v -1.2 0.3 -0.15
v -1.2 0.4 -0.15
v -1.1 0.3 -0.15
v -1.1 0.4 -0.15
v -1.1 0.5 -0.15
v -1 0.4 -0.15
v -1 0.5 -0.15
v -1 0.6 -0.15
v -0.9 0.2 -0.15
v -0.9 0.3 -0.15
v -0.9 0.5 -0.15
v -0.9 0.6 -0.15
v -0.8 0.2 -0.15
v -0.8 0.3 -0.15
v -0.8 0.4 -0.15
v -0.7 0.3 -0.15
v -0.7 0.4 -0.15
v -0.6 0.5 -0.15
v -0.6 0.6 -0.15
v -0.5 0.5 -0.15
v -0.5 0.6 -0.15
v -0.4 0.5 -0.15
v -0.4 0.6 -0.15
v -0.3 0.5 -0.15
v -0.3 0.6 -0.15
v -0.2 0.5 -0.15
v -0.2 0.6 -0.15
v -0.1 0.5 -0.15
v -0.1 0.6 -0.15
v 0 0.5 -0.15
v 0 0.6 -0.15
v 0.1 0.2 -0.15
v 0.1 0.3 -0.15
v 0.1 0.5 -0.15
v 0.1 0.6 -0.15
v 0.2 0.1 -0.15
v 0.2 0.2 -0.15
v 0.2 0.3 -0.15
v 0.2 0.5 -0.15
v 0.2 0.6 -0.15
v 0.3 0 -0.15
v 0.3 0.1 -0.15
v 0.3 0.2 -0.15
v 0.3 0.6 -0.15
v 0.3 0.7 -0.15
v 0.4 0.6 -0.15
v 0.4 0.7 -0.15
v 0.5 0.6 -0.15
v 0.5 0.7 -0.15
v 0.6 0 -0.15
v 0.6 0.1 -0.15
v 0.6 0.2 -0.15
v 0.6 0.6 -0.15
v 0.6 0.7 -0.15
v 0.7 0.1 -0.15
v 0.7 0.2 -0.15
v 0.7 0.3 -0.15
v 0.7 0.5 -0.15
v 0.7 0.6 -0.15
v 0.8 0.2 -0.15
v 0.8 0.3 -0.15
v 0.8 0.5 -0.15
v 0.8 0.6 -0.15
v -1.5 -0.4 -0.25
v -1.5 0 -0.25
v -1.4 -0.4 -0.25
v -1.4 0 -0.25
v -1.4 0.1 -0.25
v -1.4 0.2 -0.25
v -1.3 0.1 -0.25
v -1.3 0.2 -0.25
v -1.2 0.2 -0.25
v -1.2 0.3 -0.25
v -1.1 0.3 -0.25
v -1.1 0.4 -0.25
v -1 0.4 -0.25
v -1 0.5 -0.25
v -0.9 -0.4 -0.25
v -0.9 0.2 -0.25
v -0.9 0.3 -0.25
v -0.9 0.5 -0.25
v -0.9 0.6 -0.25
v -0.8 -0.4 -0.25
v -0.8 0.2 -0.25
v -0.8 0.3 -0.25
v -0.8 0.4 -0.25
v -0.6 0.5 -0.25
v -0.6 0.6 -0.25
v -0.5 0.5 -0.25
v -0.5 0.6 -0.25
v -0.4 0.5 -0.25
v -0.4 0.6 -0.25
v -0.3 0.5 -0.25
v -0.3 0.6 -0.25
v -0.2 0.5 -0.25
v -0.2 0.6 -0.25
v -0.1 0.5 -0.25
v -0.1 0.6 -0.25
v 0 0.3 -0.25
v 0 0.4 -0.25
v 0 0.5 -0.25
v 0 0.6 -0.25
v 0.1 0.3 -0.25
v 0.1 0.4 -0.25
v 0.1 0.5 -0.25
v 0.2 0.2 -0.25
v 0.2 0.3 -0.25
v 0.2 0.5 -0.25
v 0.2 0.6 -0.25
v 0.3 0.1 -0.25
v 0.3 0.2 -0.25
v 0.3 0.3 -0.25
v 0.3 0.5 -0.25
v 0.3 0.6 -0.25
v 0.4 0.6 -0.25
v 0.4 0.7 -0.25
v 0.5 0.6 -0.25
v 0.5 0.7 -0.25
v 0.6 0.1 -0.25
v 0.6 0.2 -0.25
v 0.6 0.3 -0.25
v 0.6 0.5 -0.25
v 0.6 0.6 -0.25
v 0.7 0.2 -0.25
v 0.7 0.3 -0.25
v 0.7 0.5 -0.25
v 0.7 0.6 -0.25
v 0.8 0.3 -0.25
v 0.8 0.4 -0.25
v 0.8 0.5 -0.25
v 0.9 0.3 -0.25
v 0.9 0.4 -0.25
v 0.9 0.5 -0.25
v -1.5 -0.6 -0.35
v -1.5 -0.4 -0.35
v -1.4 -0.4 -0.35
v -1.4 0.1 -0.35
v -1.3 0.1 -0.35
v -1.3 0.2 -0.35
v -0.9 -0.4 -0.35
v -0.9 0.2 -0.35
v -0.8 -0.6 -0.35
v -0.8 -0.4 -0.35
v 0.1 0.3 -0.35
v 0.1 0.4 -0.35
v 0.1 0.5 -0.35
v 0.2 0.3 -0.35
v 0.2 0.4 -0.35
v 0.2 0.5 -0.35
v 0.3 0.2 -0.35
v 0.3 0.3 -0.35
v 0.3 0.5 -0.35
v 0.3 0.6 -0.35
v 0.6 0.2 -0.35
v 0.6 0.3 -0.35
v 0.6 0.5 -0.35
v 0.6 0.6 -0.35
v 0.7 0.3 -0.35
v 0.7 0.4 -0.35
v 0.7 0.5 -0.35
v 0.8 0.3 -0.35
v 0.8 0.4 -0.35
v 0.8 0.5 -0.35
v -1.6 -0.7 -0.45
v -1.6 -0.6 -0.45
v -0.5 -0.6 -0.45
v 0.2 0.3 -0.45
v 0.2 0.4 -0.45
v 0.2 0.5 -0.45
v 0.7 0.3 -0.45
v 0.7 0.4 -0.45
v 0.7 0.5 -0.45
v 1.1 -0.6 -0.45
v 1.6 -0.7 -0.45
v 1.6 -0.6 -0.45
v -0.5 -0.6 -0.75
v -0.5 -0.5 -0.75
v 1.1 -0.6 -0.75
v 1.1 -0.5 -0.75
v -1.6 -0.7 0.45
v 1.6 -0.7 0.45
v -1.6 -0.7 -0.45
v 1.6 -0.7 -0.45
v -0.5 -0.6 0.75
v 1.1 -0.6 0.75
v -0.5 -0.6 0.45
v 1.1 -0.6 0.45
v -0.5 -0.6 -0.45
v 1.1 -0.6 -0.45
v -0.5 -0.6 -0.75
v 1.1 -0.6 -0.75
v 0.4 -0.1 0.05
v 0.5 -0.1 0.05
v 0.4 -0.1 -0.05
v 0.5 -0.1 -0.05
v 0.3 0 0.15
v 0.6 0 0.15
v 0.4 0 0.05
v 0.5 0 0.05
v 0.4 0 -0.05
v 0.5 0 -0.05
v 0.3 0 -0.15
v 0.6 0 -0.15
v 0.3 0.1 0.25
v 0.6 0.1 0.25
v 0.2 0.1 0.15
v 0.3 0.1 0.15
v 0.6 0.1 0.15
v 0.7 0.1 0.15
v 0.2 0.1 -0.15
v 0.3 0.1 -0.15
v 0.6 0.1 -0.15
v 0.7 0.1 -0.15
v 0.3 0.1 -0.25
v 0.6 0.1 -0.25
v 0.3 0.2 0.35
v 0.6 0.2 0.35
v 0.2 0.2 0.25
v 0.3 0.2 0.25
v 0.6 0.2 0.25
v 0.7 0.2 0.25
v 0.1 0.2 0.15
v 0.2 0.2 0.15
v 0.3 0.2 0.15
v 0.6 0.2 0.15
v 0.7 0.2 0.15
v 0.8 0.2 0.15
v 0.1 0.2 -0.15
v 0.2 0.2 -0.15
v 0.3 0.2 -0.15
v 0.6 0.2 -0.15
v 0.7 0.2 -0.15
v 0.8 0.2 -0.15
v 0.2 0.2 -0.25
v 0.3 0.2 -0.25
v 0.6 0.2 -0.25
v 0.7 0.2 -0.25
v 0.3 0.2 -0.35
v 0.6 0.2 -0.35
v 0.2 0.3 0.45
v 0.7 0.3 0.45
v 0.1 0.3 0.35
v 0.2 0.3 0.35
v 0.3 0.3 0.35
v 0.6 0.3 0.35
v 0.7 0.3 0.35
v 0.8 0.3 0.35
v -0.9 0.3 0.25
v -0.8 0.3 0.25
v 0 0.3 0.25
v 0.1 0.3 0.25
v 0.2 0.3 0.25
v 0.3 0.3 0.25
v 0.6 0.3 0.25
v 0.7 0.3 0.25
v 0.8 0.3 0.25
v 0.9 0.3 0.25
v -0.9 0.3 0.15
v -0.8 0.3 0.15
v -0.7 0.3 0.15
v 0.1 0.3 0.15
v 0.2 0.3 0.15
v 0.7 0.3 0.15
v 0.8 0.3 0.15
v -0.9 0.3 -0.15
v -0.8 0.3 -0.15
v -0.7 0.3 -0.15
v 0.1 0.3 -0.15
v 0.2 0.3 -0.15
v 0.7 0.3 -0.15
v 0.8 0.3 -0.15
v -0.9 0.3 -0.25
v -0.8 0.3 -0.25
v 0 0.3 -0.25
v 0.1 0.3 -0.25
v 0.2 0.3 -0.25
v 0.3 0.3 -0.25
v 0.6 0.3 -0.25
v 0.7 0.3 -0.25
v 0.8 0.3 -0.25
v 0.9 0.3 -0.25
v 0.1 0.3 -0.35
v 0.2 0.3 -0.35
v 0.3 0.3 -0.35
v 0.6 0.3 -0.35
v 0.7 0.3 -0.35
v 0.8 0.3 -0.35
v 0.2 0.3 -0.45
v 0.7 0.3 -0.45
v -0.8 0.4 0.25
v 0 0.4 0.25
v -0.8 0.4 0.15
v -0.7 0.4 0.15
v -0.8 0.4 -0.15
v -0.7 0.4 -0.15
v -0.8 0.4 -0.25
v 0 0.4 -0.25
v 0.3 0.5 0.25
v 0.4 0.5 0.25
v 0.5 0.5 0.25
v 0.6 0.5 0.25
v 0.2 0.5 0.15
v 0.3 0.5 0.15
v 0.4 0.5 0.15
v 0.5 0.5 0.15
v 0.6 0.5 0.15
v 0.7 0.5 0.15
v 0.2 0.5 0.05
v 0.3 0.5 0.05
v 0.6 0.5 0.05
v 0.7 0.5 0.05
v 0.2 0.5 -0.05
v 0.3 0.5 -0.05
v 0.6 0.5 -0.05
v 0.7 0.5 -0.05
v 0.2 0.5 -0.15
v 0.3 0.5 -0.15
v 0.4 0.5 -0.15
v 0.5 0.5 -0.15
v 0.6 0.5 -0.15
v 0.7 0.5 -0.15
v 0.3 0.5 -0.25
v 0.4 0.5 -0.25
v 0.5 0.5 -0.25
v 0.6 0.5 -0.25
v 0.4 0.6 0.25
v 0.5 0.6 0.25
v 0.3 0.6 0.15
v 0.4 0.6 0.15
v 0.5 0.6 0.15
v 0.6 0.6 0.15
v 0.2 0.6 0.05
v 0.3 0.6 0.05
v 0.4 0.6 0.05
v 0.5 0.6 0.05
v 0.6 0.6 0.05
v 0.7 0.6 0.05
v 0.2 0.6 -0.05
v 0.3 0.6 -0.05
v 0.4 0.6 -0.05
v 0.5 0.6 -0.05
v 0.6 0.6 -0.05
v 0.7 0.6 -0.05
v 0.3 0.6 -0.15
v 0.4 0.6 -0.15
v 0.5 0.6 -0.15
v 0.6 0.6 -0.15
v 0.4 0.6 -0.25
v 0.5 0.6 -0.25
v -1.6 -0.6 0.45
v -0.5 -0.6 0.45
v 1.1 -0.6 0.45
v 1.6 -0.6 0.45
v -1.5 -0.6 0.35
v -0.8 -0.6 0.35
v -1.5 -0.6 -0.35
v -0.8 -0.6 -0.35
v -1.6 -0.6 -0.45
v -0.5 -0.6 -0.45
v 1.1 -0.6 -0.45
v 1.6 -0.6 -0.45
v -0.5 -0.5 0.75
v 1.1 -0.5 0.75
v -0.5 -0.5 -0.75
v 1.1 -0.5 -0.75
v -1.5 -0.4 0.35
v -1.4 -0.4 0.35
v -0.9 -0.4 0.35
v -0.8 -0.4 0.35
v -1.5 -0.4 0.25
v -1.4 -0.4 0.25
v -0.9 -0.4 0.25
v -0.8 -0.4 0.25
v -1.5 -0.4 -0.25
v -1.4 -0.4 -0.25
v -0.9 -0.4 -0.25
v -0.8 -0.4 -0.25
v -1.5 -0.4 -0.35
v -1.4 -0.4 -0.35
v -0.9 -0.4 -0.35
v -0.8 -0.4 -0.35
v -1.5 0 0.25
v -1.4 0 0.25
v 0.4 0 0.05
v 0.5 0 0.05
v 0.4 0 -0.05
v 0.5 0 -0.05
v -1.5 0 -0.25
v -1.4 0 -0.25
v -1.4 0.1 0.35
v -1.3 0.1 0.35
v -1.4 0.1 0.25
v -1.3 0.1 0.25
v -1.4 0.1 -0.25
v -1.3 0.1 -0.25
v -1.4 0.1 -0.35
v -1.3 0.1 -0.35
v -1.3 0.2 0.35
v -0.9 0.2 0.35
v -1.4 0.2 0.25
v -1.3 0.2 0.25
v -1.2 0.2 0.25
v -0.9 0.2 0.25
v -0.8 0.2 0.25
v -1.3 0.2 0.15
v -1.2 0.2 0.15
v -0.9 0.2 0.15
v -0.8 0.2 0.15
v -1.3 0.2 -0.15
v -1.2 0.2 -0.15
v -0.9 0.2 -0.15
v -0.8 0.2 -0.15
v -1.4 0.2 -0.25
v -1.3 0.2 -0.25
v -1.2 0.2 -0.25
v -0.9 0.2 -0.25
v -0.8 0.2 -0.25
v -1.3 0.2 -0.35
v -0.9 0.2 -0.35
v -1.2 0.3 0.25
v -1.1 0.3 0.25
v 0.3 0.3 0.25
v 0.6 0.3 0.25
v -1.3 0.3 0.15
v -1.2 0.3 0.15
v -1.1 0.3 0.15
v 0.2 0.3 0.15
v 0.3 0.3 0.15
v 0.4 0.3 0.15
v 0.5 0.3 0.15
v 0.6 0.3 0.15
v 0.7 0.3 0.15
v 0.3 0.3 0.05
v 0.4 0.3 0.05
v 0.5 0.3 0.05
v 0.6 0.3 0.05
v 0.3 0.3 -0.05
v 0.4 0.3 -0.05
v 0.5 0.3 -0.05
v 0.6 0.3 -0.05
v -1.3 0.3 -0.15
v -1.2 0.3 -0.15
v -1.1 0.3 -0.15
v 0.2 0.3 -0.15
v 0.3 0.3 -0.15
v 0.4 0.3 -0.15
v 0.5 0.3 -0.15
v 0.6 0.3 -0.15
v 0.7 0.3 -0.15
v -1.2 0.3 -0.25
v -1.1 0.3 -0.25
v 0.3 0.3 -0.25
v 0.6 0.3 -0.25
v -1.1 0.4 0.25
v -1 0.4 0.25
v -1.2 0.4 0.15
v -1.1 0.4 0.15
v -1 0.4 0.15
v -1.2 0.4 -0.15
v -1.1 0.4 -0.15
v -1 0.4 -0.15
v -1.1 0.4 -0.25
v -1 0.4 -0.25
v 0.2 0.5 0.45
v 0.7 0.5 0.45
v 0.1 0.5 0.35
v 0.2 0.5 0.35
v 0.3 0.5 0.35
v 0.6 0.5 0.35
v 0.7 0.5 0.35
v 0.8 0.5 0.35
v -1 0.5 0.25
v -0.9 0.5 0.25
v -0.6 0.5 0.25
v -0.5 0.5 0.25
v -0.4 0.5 0.25
v -0.3 0.5 0.25
v -0.2 0.5 0.25
v -0.1 0.5 0.25
v 0 0.5 0.25
v 0.1 0.5 0.25
v 0.2 0.5 0.25
v 0.3 0.5 0.25
v 0.6 0.5 0.25
v 0.7 0.5 0.25
v 0.8 0.5 0.25
v 0.9 0.5 0.25
v -1.1 0.5 0.15
v -1 0.5 0.15
v -0.9 0.5 0.15
v -0.6 0.5 0.15
v -0.5 0.5 0.15
v -0.4 0.5 0.15
v -0.3 0.5 0.15
v -0.2 0.5 0.15
v -0.1 0.5 0.15
v 0 0.5 0.15
v 0.1 0.5 0.15
v 0.2 0.5 0.15
v 0.7 0.5 0.15
v 0.8 0.5 0.15
v -1.1 0.5 -0.15
v -1 0.5 -0.15
v -0.9 0.5 -0.15
v -0.6 0.5 -0.15
v -0.5 0.5 -0.15
v -0.4 0.5 -0.15
v -0.3 0.5 -0.15
v -0.2 0.5 -0.15
v -0.1 0.5 -0.15
v 0 0.5 -0.15
v 0.1 0.5 -0.15
v 0.2 0.5 -0.15
v 0.7 0.5 -0.15
v 0.8 0.5 -0.15
v -1 0.5 -0.25
v -0.9 0.5 -0.25
v -0.6 0.5 -0.25
v -0.5 0.5 -0.25
v -0.4 0.5 -0.25
v -0.3 0.5 -0.25
v -0.2 0.5 -0.25
v -0.1 0.5 -0.25
v 0 0.5 -0.25
v 0.1 0.5 -0.25
v 0.2 0.5 -0.25
v 0.3 0.5 -0.25
v 0.6 0.5 -0.25
v 0.7 0.5 -0.25
v 0.8 0.5 -0.25
v 0.9 0.5 -0.25
v 0.1 0.5 -0.35
v 0.2 0.5 -0.35
v 0.3 0.5 -0.35
v 0.6 0.5 -0.35
v 0.7 0.5 -0.35
v 0.8 0.5 -0.35
v 0.2 0.5 -0.45
v 0.7 0.5 -0.45
v 0.3 0.6 0.35
v 0.6 0.6 0.35
v -0.9 0.6 0.25
v -0.6 0.6 0.25
v -0.5 0.6 0.25
v -0.4 0.6 0.25
v -0.3 0.6 0.25
v -0.2 0.6 0.25
v -0.1 0.6 0.25
v 0 0.6 0.25
v 0.2 0.6 0.25
v 0.3 0.6 0.25
v 0.4 0.6 0.25
v 0.5 0.6 0.25
v 0.6 0.6 0.25
v 0.7 0.6 0.25
v -1 0.6 0.15
v -0.9 0.6 0.15
v -0.6 0.6 0.15
v -0.5 0.6 0.15
v -0.4 0.6 0.15
v -0.3 0.6 0.15
v -0.2 0.6 0.15
v -0.1 0.6 0.15
v 0 0.6 0.15
v 0.1 0.6 0.15
v 0.2 0.6 0.15
v 0.3 0.6 0.15
v 0.4 0.6 0.15
v 0.5 0.6 0.15
v 0.6 0.6 0.15
v 0.7 0.6 0.15
v 0.8 0.6 0.15
v -0.9 0.6 0.05
v 0 0.6 0.05
v 0.2 0.6 0.05
v 0.3 0.6 0.05
v 0.6 0.6 0.05
v 0.7 0.6 0.05
v -0.9 0.6 -0.05
v 0 0.6 -0.05
v 0.2 0.6 -0.05
v 0.3 0.6 -0.05
v 0.6 0.6 -0.05
v 0.7 0.6 -0.05
v -1 0.6 -0.15
v -0.9 0.6 -0.15
v -0.6 0.6 -0.15
v -0.5 0.6 -0.15
v -0.4 0.6 -0.15
v -0.3 0.6 -0.15
v -0.2 0.6 -0.15
v -0.1 0.6 -0.15
v 0 0.6 -0.15
v 0.1 0.6 -0.15
v 0.2 0.6 -0.15
v 0.3 0.6 -0.15
v 0.4 0.6 -0.15
v 0.5 0.6 -0.15
v 0.6 0.6 -0.15
v 0.7 0.6 -0.15
v 0.8 0.6 -0.15
v -0.9 0.6 -0.25
v -0.6 0.6 -0.25
v -0.5 0.6 -0.25
v -0.4 0.6 -0.25
v -0.3 0.6 -0.25
v -0.2 0.6 -0.25
v -0.1 0.6 -0.25
v 0 0.6 -0.25
v 0.2 0.6 -0.25
v 0.3 0.6 -0.25
v 0.4 0.6 -0.25
v 0.5 0.6 -0.25
v 0.6 0.6 -0.25
v 0.7 0.6 -0.25
v 0.3 0.6 -0.35
v 0.6 0.6 -0.35
v 0.4 0.7 0.25
v 0.5 0.7 0.25
v 0.3 0.7 0.15
v 0.4 0.7 0.15
v 0.5 0.7 0.15
v 0.6 0.7 0.15
v -0.9 0.7 0.05
v 0 0.7 0.05
v 0.2 0.7 0.05
v 0.3 0.7 0.05
v 0.4 0.7 0.05
v 0.5 0.7 0.05
v 0.6 0.7 0.05
v 0.7 0.7 0.05
v -0.9 0.7 -0.05
v 0 0.7 -0.05
v 0.2 0.7 -0.05
v 0.3 0.7 -0.05
v 0.4 0.7 -0.05
v 0.5 0.7 -0.05
v 0.6 0.7 -0.05
v 0.7 0.7 -0.05
v 0.3 0.7 -0.15
v 0.4 0.7 -0.15
v 0.5 0.7 -0.15
v 0.6 0.7 -0.15
v 0.4 0.7 -0.25
v 0.5 0.7 -0.25

# faces
f 3/3/1 2/3/1 1/3/1
f 4/3/1 2/3/1 3/3/1
f 7/10/1 6/10/1 5/10/1
f 8/10/1 6/10/1 7/10/1
f 9/10/1 6/10/1 8/10/1
f 10/10/1 6/10/1 9/10/1
f 11/10/1 9/10/1 8/10/1
f 12/10/1 9/10/1 11/10/1
f 17/10/1 14/10/1 13/10/1
f 18/10/1 16/10/1 15/10/1
f 19/10/1 17/10/1 13/10/1
f 19/10/1 18/10/1 17/10/1
f 20/10/1 18/10/1 19/10/1
f 21/10/1 16/10/1 18/10/1
f 21/10/1 18/10/1 20/10/1
f 22/10/1 16/10/1 21/10/1
f 23/10/1 21/10/1 20/10/1
f 24/10/1 21/10/1 23/10/1
f 29/10/1 26/10/1 25/10/1
f 30/10/1 26/10/1 29/10/1
f 33/10/1 28/10/1 27/10/1
f 34/10/1 28/10/1 33/10/1
f 35/10/1 32/10/1 31/10/1
f 36/10/1 32/10/1 35/10/1
f 41/10/1 38/10/1 37/10/1
f 42/10/1 38/10/1 41/10/1
f 43/10/1 40/10/1 39/10/1
f 44/10/1 40/10/1 43/10/1
f 45/10/1 43/10/1 42/10/1
f 46/10/1 43/10/1 45/10/1
f 51/10/1 48/10/1 47/10/1
f 52/10/1 48/10/1 51/10/1
f 53/10/1 50/10/1 49/10/1
f 54/10/1 50/10/1 53/10/1
f 55/10/1 53/10/1 52/10/1
f 56/10/1 53/10/1 55/10/1
f 61/10/1 58/10/1 57/10/1
f 62/10/1 58/10/1 61/10/1
f 63/10/1 60/10/1 59/10/1
f 64/10/1 60/10/1 63/10/1
f 65/10/1 63/10/1 62/10/1
f 66/10/1 63/10/1 65/10/1
f 71/10/1 68/10/1 67/10/1
f 72/10/1 68/10/1 71/10/1
f 75/10/1 70/10/1 69/10/1
f 76/10/1 70/10/1 75/10/1
f 77/10/1 74/10/1 73/10/1
f 78/10/1 74/10/1 77/10/1
f 83/9/1 80/9/1 79/9/1
f 83/9/1 82/9/1 81/9/1
f 83/9/1 81/9/1 80/9/1
f 84/9/1 82/9/1 83/9/1
f 89/10/1 86/10/1 85/10/1
f 90/10/1 86/10/1 89/10/1
f 91/10/1 88/10/1 87/10/1
f 92/10/1 88/10/1 91/10/1
f 97/10/1 94/10/1 93/10/1
f 98/10/1 94/10/1 97/10/1
f 99/10/1 96/10/1 95/10/1
f 100/10/1 96/10/1 99/10/1
f 105/10/1 102/10/1 101/10/1
f 106/10/1 102/10/1 105/10/1
f 107/10/1 104/10/1 103/10/1
f 108/10/1 104/10/1 107/10/1
f 111/10/1 110/10/1 109/10/1
f 112/10/1 110/10/1 111/10/1
f 117/5/1 114/5/1 113/5/1
f 118/5/1 114/5/1 117/5/1
f 121/10/1 116/10/1 115/10/1
f 122/10/1 116/10/1 121/10/1
f 123/10/1 120/10/1 119/10/1
f 124/10/1 120/10/1 123/10/1
f 125/11/1 122/11/1 121/11/1
f 126/11/1 122/11/1 125/11/1
f 127/11/1 124/11/1 123/11/1
f 128/11/1 124/11/1 127/11/1
f 132/4/1 130/4/1 129/4/1
f 133/4/1 130/4/1 132/4/1
f 137/5/1 132/5/1 131/5/1
f 138/5/1 132/5/1 137/5/1
f 139/5/1 134/5/1 133/5/1
f 140/5/1 134/5/1 139/5/1
f 143/10/1 136/10/1 135/10/1
f 144/10/1 136/10/1 143/10/1
f 145/10/1 142/10/1 141/10/1
f 146/10/1 142/10/1 145/10/1
f 147/11/1 144/11/1 143/11/1
f 148/11/1 144/11/1 147/11/1
f 153/11/1 146/11/1 145/11/1
f 154/11/1 146/11/1 153/11/1
f 155/12/1 150/12/1 149/12/1
f 156/12/1 150/12/1 155/12/1
f 159/12/1 152/12/1 151/12/1
f 160/12/1 152/12/1 159/12/1
f 161/13/1 158/13/1 157/13/1
f 162/13/1 158/13/1 161/13/1
f 166/2/1 164/2/1 163/2/1
f 167/2/1 164/2/1 166/2/1
f 170/4/1 166/4/1 165/4/1
f 171/4/1 166/4/1 170/4/1
f 172/4/1 168/4/1 167/4/1
f 173/4/1 168/4/1 172/4/1
f 175/5/1 170/5/1 169/5/1
f 176/5/1 170/5/1 175/5/1
f 177/5/1 174/5/1 173/5/1
f 178/5/1 174/5/1 177/5/1
f 183/12/1 180/12/1 179/12/1
f 184/12/1 180/12/1 183/12/1
f 189/12/1 182/12/1 181/12/1
f 190/12/1 182/12/1 189/12/1
f 191/13/1 186/13/1 185/13/1
f 192/13/1 186/13/1 191/13/1
f 193/13/1 188/13/1 187/13/1
f 194/13/1 188/13/1 193/13/1
f 197/1/1 196/1/1 195/1/1
f 198/1/1 196/1/1 197/1/1
f 203/13/1 200/13/1 199/13/1
f 204/13/1 200/13/1 203/13/1
f 205/13/1 202/13/1 201/13/1
f 206/13/1 202/13/1 205/13/1
f 209/2/1 208/2/1 207/2/1
f 210/2/1 208/2/1 209/2/1
f 211/4/1 210/4/1 209/4/1
f 212/4/1 210/4/1 211/4/1
f 213/6/1 212/6/1 211/6/1
f 214/6/1 212/6/1 213/6/1
f 219/12/1 216/12/1 215/12/1
f 220/12/1 216/12/1 219/12/1
f 223/12/1 218/12/1 217/12/1
f 224/12/1 218/12/1 223/12/1
f 225/13/1 221/13/1 220/13/1
f 226/13/1 221/13/1 225/13/1
f 227/13/1 223/13/1 222/13/1
f 228/13/1 223/13/1 227/13/1
f 233/7/1 230/7/1 229/7/1
f 234/7/1 230/7/1 233/7/1
f 235/7/1 232/7/1 231/7/1
f 236/7/1 232/7/1 235/7/1
f 237/8/1 234/8/1 233/8/1
f 238/8/1 234/8/1 237/8/1
f 241/8/1 236/8/1 235/8/1
f 242/8/1 236/8/1 241/8/1
f 243/12/1 239/12/1 238/12/1
f 244/12/1 239/12/1 243/12/1
f 245/12/1 241/12/1 240/12/1
f 246/12/1 241/12/1 245/12/1
f 247/13/1 245/13/1 244/13/1
f 248/13/1 245/13/1 247/13/1
f 251/7/1 250/7/1 249/7/1
f 252/7/1 250/7/1 251/7/1
f 253/8/1 252/8/1 251/8/1
f 254/8/1 252/8/1 253/8/1
f 255/8/1 252/8/1 254/8/1
f 256/8/1 252/8/1 255/8/1
f 257/12/1 255/12/1 254/12/1
f 258/12/1 255/12/1 257/12/1
f 259/10/2 260/10/2 263/10/2
f 263/10/2 260/10/2 264/10/2
f 261/10/2 262/10/2 267/10/2
f 267/10/2 262/10/2 268/10/2
f 264/10/2 265/10/2 269/10/2
f 269/10/2 265/10/2 270/10/2
f 266/10/2 267/10/2 271/10/2
f 271/10/2 267/10/2 272/10/2
f 273/10/2 274/10/2 275/10/2
f 275/10/2 274/10/2 276/10/2
f 276/10/2 274/10/2 277/10/2
f 277/10/2 274/10/2 278/10/2
f 276/10/2 277/10/2 279/10/2
f 279/10/2 277/10/2 280/10/2
f 280/10/2 277/10/2 281/10/2
f 281/10/2 277/10/2 282/10/2
f 280/10/2 281/10/2 284/10/2
f 284/10/2 281/10/2 285/10/2
f 283/10/2 284/10/2 287/10/2
f 287/10/2 284/10/2 288/10/2
f 285/10/2 286/10/2 289/10/2
f 289/10/2 286/10/2 290/10/2
f 291/10/2 292/10/2 293/10/2
f 293/10/2 292/10/2 294/10/2
f 295/10/2 296/10/2 299/10/2
f 299/10/2 296/10/2 300/10/2
f 297/10/2 298/10/2 301/10/2
f 301/10/2 298/10/2 302/10/2
f 303/10/2 304/10/2 307/10/2
f 307/10/2 304/10/2 308/10/2
f 305/10/2 306/10/2 309/10/2
f 309/10/2 306/10/2 310/10/2
f 311/10/2 312/10/2 315/10/2
f 315/10/2 312/10/2 316/10/2
f 313/10/2 314/10/2 317/10/2
f 317/10/2 314/10/2 318/10/2
f 319/10/2 320/10/2 323/10/2
f 323/10/2 320/10/2 324/10/2
f 321/10/2 322/10/2 327/10/2
f 327/10/2 322/10/2 328/10/2
f 325/10/2 326/10/2 329/10/2
f 329/10/2 326/10/2 330/10/2
f 331/7/2 332/7/2 333/7/2
f 333/7/2 332/7/2 334/7/2
f 333/8/2 334/8/2 335/8/2
f 335/8/2 334/8/2 336/8/2
f 336/8/2 334/8/2 337/8/2
f 337/8/2 334/8/2 338/8/2
f 336/12/2 337/12/2 339/12/2
f 339/12/2 337/12/2 340/12/2
f 341/7/2 342/7/2 345/7/2
f 345/7/2 342/7/2 346/7/2
f 343/7/2 344/7/2 347/7/2
f 347/7/2 344/7/2 348/7/2
f 345/8/2 346/8/2 349/8/2
f 349/8/2 346/8/2 350/8/2
f 347/8/2 348/8/2 353/8/2
f 353/8/2 348/8/2 354/8/2
f 350/12/2 351/12/2 355/12/2
f 355/12/2 351/12/2 356/12/2
f 352/12/2 353/12/2 357/12/2
f 357/12/2 353/12/2 358/12/2
f 356/13/2 357/13/2 359/13/2
f 359/13/2 357/13/2 360/13/2
f 361/2/2 362/2/2 363/2/2
f 363/2/2 362/2/2 364/2/2
f 363/4/2 364/4/2 365/4/2
f 365/4/2 364/4/2 366/4/2
f 365/6/2 366/6/2 367/6/2
f 367/6/2 366/6/2 368/6/2
f 369/12/2 370/12/2 373/12/2
f 373/12/2 370/12/2 374/12/2
f 371/12/2 372/12/2 377/12/2
f 377/12/2 372/12/2 378/12/2
f 374/13/2 375/13/2 379/13/2
f 379/13/2 375/13/2 380/13/2
f 376/13/2 377/13/2 381/13/2
f 381/13/2 377/13/2 382/13/2
f 383/1/2 384/1/2 385/1/2
f 385/1/2 384/1/2 386/1/2
f 387/13/2 388/13/2 391/13/2
f 391/13/2 388/13/2 392/13/2
f 389/13/2 390/13/2 393/13/2
f 393/13/2 390/13/2 394/13/2
f 395/2/2 396/2/2 398/2/2
f 398/2/2 396/2/2 399/2/2
f 397/4/2 398/4/2 402/4/2
f 402/4/2 398/4/2 403/4/2
f 399/4/2 400/4/2 404/4/2
f 404/4/2 400/4/2 405/4/2
f 401/5/2 402/5/2 407/5/2
f 407/5/2 402/5/2 408/5/2
f 405/5/2 406/5/2 409/5/2
f 409/5/2 406/5/2 410/5/2
f 411/12/2 412/12/2 415/12/2
f 415/12/2 412/12/2 416/12/2
f 413/12/2 414/12/2 421/12/2
f 421/12/2 414/12/2 422/12/2
f 417/13/2 418/13/2 423/13/2
f 423/13/2 418/13/2 424/13/2
f 419/13/2 420/13/2 425/13/2
f 425/13/2 420/13/2 426/13/2
f 427/4/2 428/4/2 430/4/2
f 430/4/2 428/4/2 431/4/2
f 429/5/2 430/5/2 435/5/2
f 435/5/2 430/5/2 436/5/2
f 431/5/2 432/5/2 437/5/2
f 437/5/2 432/5/2 438/5/2
f 433/10/2 434/10/2 441/10/2
f 441/10/2 434/10/2 442/10/2
f 439/10/2 440/10/2 443/10/2
f 443/10/2 440/10/2 444/10/2
f 441/11/2 442/11/2 445/11/2
f 445/11/2 442/11/2 446/11/2
f 443/11/2 444/11/2 451/11/2
f 451/11/2 444/11/2 452/11/2
f 447/12/2 448/12/2 453/12/2
f 453/12/2 448/12/2 454/12/2
f 449/12/2 450/12/2 457/12/2
f 457/12/2 450/12/2 458/12/2
f 455/13/2 456/13/2 459/13/2
f 459/13/2 456/13/2 460/13/2
f 461/5/2 462/5/2 465/5/2
f 465/5/2 462/5/2 466/5/2
f 463/10/2 464/10/2 469/10/2
f 469/10/2 464/10/2 470/10/2
f 467/10/2 468/10/2 471/10/2
f 471/10/2 468/10/2 472/10/2
f 469/11/2 470/11/2 473/11/2
f 473/11/2 470/11/2 474/11/2
f 471/11/2 472/11/2 477/11/2
f 477/11/2 472/11/2 478/11/2
f 475/12/2 476/12/2 479/12/2
f 479/12/2 476/12/2 480/12/2
f 481/10/2 482/10/2 483/10/2
f 483/10/2 482/10/2 484/10/2
f 483/11/2 484/11/2 485/11/2
f 485/11/2 484/11/2 486/11/2
f 487/9/2 488/9/2 491/9/2
f 489/9/2 490/9/2 491/9/2
f 488/9/2 489/9/2 491/9/2
f 491/9/2 490/9/2 492/9/2
f 493/3/2 494/3/2 495/3/2
f 495/3/2 494/3/2 496/3/2
f 499/9/3 498/9/3 497/9/3
f 500/9/3 498/9/3 499/9/3
f 503/3/3 502/3/3 501/3/3
f 507/10/3 505/10/3 504/10/3
f 508/11/3 506/11/3 505/11/3
f 508/10/3 505/10/3 507/10/3
f 509/11/3 506/11/3 508/11/3
f 510/3/3 503/3/3 501/3/3
f 511/3/3 510/3/3 501/3/3
f 512/3/3 510/3/3 511/3/3
f 515/10/3 514/10/3 513/10/3
f 517/10/3 516/10/3 515/10/3
f 519/10/3 515/10/3 513/10/3
f 519/10/3 518/10/3 517/10/3
f 519/10/3 517/10/3 515/10/3
f 520/10/3 518/10/3 519/10/3
f 521/10/3 519/10/3 513/10/3
f 522/10/3 519/10/3 521/10/3
f 526/10/3 524/10/3 523/10/3
f 527/11/3 525/11/3 524/11/3
f 527/10/3 524/10/3 526/10/3
f 528/11/3 525/11/3 527/11/3
f 533/5/3 530/5/3 529/5/3
f 534/5/3 530/5/3 533/5/3
f 535/12/3 532/12/3 531/12/3
f 536/12/3 532/12/3 535/12/3
f 540/10/3 538/10/3 537/10/3
f 541/11/3 539/11/3 538/11/3
f 541/10/3 538/10/3 540/10/3
f 542/11/3 539/11/3 541/11/3
f 545/10/3 544/10/3 543/10/3
f 546/10/3 544/10/3 545/10/3
f 549/10/3 548/10/3 547/10/3
f 550/10/3 548/10/3 549/10/3
f 553/10/3 552/10/3 551/10/3
f 555/10/3 554/10/3 553/10/3
f 558/10/3 553/10/3 551/10/3
f 558/10/3 556/10/3 555/10/3
f 558/10/3 555/10/3 553/10/3
f 559/10/3 556/10/3 558/10/3
f 560/10/3 556/10/3 559/10/3
f 562/10/3 558/10/3 557/10/3
f 563/10/3 558/10/3 562/10/3
f 564/10/3 561/10/3 560/10/3
f 564/10/3 560/10/3 559/10/3
f 565/10/3 561/10/3 564/10/3
f 566/10/3 561/10/3 565/10/3
f 567/10/3 561/10/3 566/10/3
f 568/10/3 566/10/3 565/10/3
f 570/10/3 568/10/3 565/10/3
f 570/10/3 569/10/3 568/10/3
f 571/10/3 569/10/3 570/10/3
f 572/10/3 570/10/3 565/10/3
f 574/10/3 572/10/3 565/10/3
f 574/10/3 573/10/3 572/10/3
f 575/10/3 573/10/3 574/10/3
f 576/10/3 574/10/3 565/10/3
f 579/10/3 576/10/3 565/10/3
f 579/10/3 577/10/3 576/10/3
f 580/10/3 577/10/3 579/10/3
f 581/10/3 577/10/3 580/10/3
f 582/10/3 579/10/3 578/10/3
f 583/11/3 580/11/3 579/11/3
f 583/10/3 579/10/3 582/10/3
f 584/11/3 580/11/3 583/11/3
f 590/5/3 586/5/3 585/5/3
f 591/5/3 586/5/3 590/5/3
f 592/12/3 588/12/3 587/12/3
f 593/12/3 588/12/3 592/12/3
f 596/13/3 595/13/3 594/13/3
f 597/13/3 595/13/3 596/13/3
f 598/4/3 590/4/3 589/4/3
f 599/4/3 590/4/3 598/4/3
f 603/5/3 600/5/3 599/5/3
f 604/5/3 600/5/3 603/5/3
f 605/12/3 602/12/3 601/12/3
f 606/12/3 602/12/3 605/12/3
f 610/10/3 608/10/3 607/10/3
f 611/11/3 609/11/3 608/11/3
f 611/10/3 608/10/3 610/10/3
f 612/11/3 609/11/3 611/11/3
f 615/10/3 614/10/3 613/10/3
f 616/10/3 614/10/3 615/10/3
f 618/10/3 617/10/3 616/10/3
f 619/10/3 617/10/3 618/10/3
f 621/10/3 620/10/3 619/10/3
f 622/10/3 620/10/3 621/10/3
f 626/10/3 623/10/3 622/10/3
f 627/10/3 623/10/3 626/10/3
f 628/10/3 625/10/3 624/10/3
f 629/10/3 625/10/3 628/10/3
f 631/10/3 630/10/3 629/10/3
f 632/10/3 630/10/3 631/10/3
f 635/10/3 634/10/3 633/10/3
f 636/10/3 634/10/3 635/10/3
f 639/10/3 638/10/3 637/10/3
f 640/10/3 638/10/3 639/10/3
f 643/10/3 642/10/3 641/10/3
f 644/10/3 642/10/3 643/10/3
f 649/10/3 646/10/3 645/10/3
f 650/10/3 646/10/3 649/10/3
f 652/5/3 648/5/3 647/5/3
f 653/5/3 648/5/3 652/5/3
f 654/12/3 650/12/3 649/12/3
f 655/12/3 650/12/3 654/12/3
f 657/4/3 652/4/3 651/4/3
f 658/4/3 652/4/3 657/4/3
f 661/13/3 660/13/3 659/13/3
f 662/13/3 660/13/3 661/13/3
f 665/2/3 657/2/3 656/2/3
f 666/2/3 657/2/3 665/2/3
f 668/13/3 664/13/3 663/13/3
f 669/13/3 664/13/3 668/13/3
f 670/4/3 667/4/3 666/4/3
f 671/4/3 667/4/3 670/4/3
f 675/5/3 672/5/3 671/5/3
f 676/5/3 672/5/3 675/5/3
f 677/12/3 674/12/3 673/12/3
f 678/12/3 674/12/3 677/12/3
f 681/10/3 680/10/3 679/10/3
f 682/10/3 680/10/3 681/10/3
f 685/13/3 684/13/3 683/13/3
f 686/13/3 684/13/3 685/13/3
f 689/1/3 688/1/3 687/1/3
f 690/1/3 688/1/3 689/1/3
f 693/13/3 692/13/3 691/13/3
f 694/13/3 692/13/3 693/13/3
f 697/12/3 696/12/3 695/12/3
f 698/12/3 696/12/3 697/12/3
f 704/13/3 699/13/3 698/13/3
f 705/13/3 699/13/3 704/13/3
f 706/2/3 701/2/3 700/2/3
f 707/4/3 702/4/3 701/4/3
f 707/2/3 701/2/3 706/2/3
f 708/6/3 703/6/3 702/6/3
f 708/4/3 702/4/3 707/4/3
f 709/6/3 703/6/3 708/6/3
f 713/13/3 711/13/3 710/13/3
f 714/13/3 711/13/3 713/13/3
f 715/12/3 713/12/3 712/12/3
f 716/12/3 713/12/3 715/12/3
f 720/7/3 718/7/3 717/7/3
f 721/8/3 719/8/3 718/8/3
f 721/7/3 718/7/3 720/7/3
f 722/8/3 719/8/3 721/8/3
f 724/12/3 723/12/3 722/12/3
f 725/12/3 723/12/3 724/12/3
f 728/13/3 726/13/3 725/13/3
f 729/13/3 726/13/3 728/13/3
f 732/12/3 728/12/3 727/12/3
f 733/12/3 728/12/3 732/12/3
f 734/7/3 731/7/3 730/7/3
f 735/8/3 732/8/3 731/8/3
f 735/7/3 731/7/3 734/7/3
f 736/8/3 732/8/3 735/8/3
f 740/8/3 739/8/3 738/8/3
f 742/8/3 740/8/3 738/8/3
f 742/12/3 741/12/3 740/12/3
f 743/12/3 741/12/3 742/12/3
f 744/7/3 738/7/3 737/7/3
f 745/8/3 742/8/3 738/8/3
f 745/7/3 738/7/3 744/7/3
f 746/8/3 742/8/3 745/8/3
f 748/8/4 749/8/4 750/8/4
f 748/8/4 750/8/4 752/8/4
f 750/12/4 751/12/4 752/12/4
f 752/12/4 751/12/4 753/12/4
f 747/7/4 748/7/4 754/7/4
f 748/8/4 752/8/4 755/8/4
f 754/7/4 748/7/4 755/7/4
f 755/8/4 752/8/4 756/8/4
f 757/7/4 758/7/4 760/7/4
f 758/8/4 759/8/4 761/8/4
f 760/7/4 758/7/4 761/7/4
f 761/8/4 759/8/4 762/8/4
f 762/12/4 763/12/4 764/12/4
f 764/12/4 763/12/4 765/12/4
f 765/13/4 766/13/4 768/13/4
f 768/13/4 766/13/4 769/13/4
f 767/12/4 768/12/4 772/12/4
f 772/12/4 768/12/4 773/12/4
f 770/7/4 771/7/4 774/7/4
f 771/8/4 772/8/4 775/8/4
f 774/7/4 771/7/4 775/7/4
f 775/8/4 772/8/4 776/8/4
f 777/12/4 778/12/4 779/12/4
f 779/12/4 778/12/4 780/12/4
f 780/13/4 781/13/4 786/13/4
f 786/13/4 781/13/4 787/13/4
f 782/2/4 783/2/4 788/2/4
f 783/4/4 784/4/4 789/4/4
f 788/2/4 783/2/4 789/2/4
f 784/6/4 785/6/4 790/6/4
f 789/4/4 784/4/4 790/4/4
f 790/6/4 785/6/4 791/6/4
f 792/13/4 793/13/4 795/13/4
f 795/13/4 793/13/4 796/13/4
f 794/12/4 795/12/4 797/12/4
f 797/12/4 795/12/4 798/12/4
f 799/10/4 800/10/4 801/10/4
f 801/10/4 800/10/4 802/10/4
f 803/13/4 804/13/4 805/13/4
f 805/13/4 804/13/4 806/13/4
f 807/1/4 808/1/4 809/1/4
f 809/1/4 808/1/4 810/1/4
f 811/13/4 812/13/4 813/13/4
f 813/13/4 812/13/4 814/13/4
f 815/10/4 816/10/4 817/10/4
f 817/10/4 816/10/4 818/10/4
f 818/10/4 819/10/4 820/10/4
f 820/10/4 819/10/4 821/10/4
f 821/10/4 822/10/4 823/10/4
f 823/10/4 822/10/4 824/10/4
f 824/10/4 825/10/4 828/10/4
f 828/10/4 825/10/4 829/10/4
f 826/10/4 827/10/4 830/10/4
f 830/10/4 827/10/4 831/10/4
f 831/10/4 832/10/4 833/10/4
f 833/10/4 832/10/4 834/10/4
f 835/10/4 836/10/4 837/10/4
f 837/10/4 836/10/4 838/10/4
f 839/10/4 840/10/4 841/10/4
f 841/10/4 840/10/4 842/10/4
f 843/10/4 844/10/4 845/10/4
f 845/10/4 844/10/4 846/10/4
f 847/10/4 848/10/4 851/10/4
f 851/10/4 848/10/4 852/10/4
f 849/5/4 850/5/4 854/5/4
f 854/5/4 850/5/4 855/5/4
f 851/12/4 852/12/4 856/12/4
f 856/12/4 852/12/4 857/12/4
f 853/4/4 854/4/4 859/4/4
f 859/4/4 854/4/4 860/4/4
f 861/13/4 862/13/4 863/13/4
f 863/13/4 862/13/4 864/13/4
f 858/2/4 859/2/4 867/2/4
f 867/2/4 859/2/4 868/2/4
f 865/13/4 866/13/4 870/13/4
f 870/13/4 866/13/4 871/13/4
f 868/4/4 869/4/4 872/4/4
f 872/4/4 869/4/4 873/4/4
f 873/5/4 874/5/4 877/5/4
f 877/5/4 874/5/4 878/5/4
f 875/12/4 876/12/4 879/12/4
f 879/12/4 876/12/4 880/12/4
f 881/10/4 882/10/4 883/10/4
f 883/10/4 882/10/4 884/10/4
f 885/10/4 886/10/4 887/10/4
f 887/10/4 886/10/4 888/10/4
f 889/10/4 890/10/4 891/10/4
f 891/10/4 892/10/4 893/10/4
f 889/10/4 891/10/4 896/10/4
f 893/10/4 894/10/4 896/10/4
f 891/10/4 893/10/4 896/10/4
f 896/10/4 894/10/4 897/10/4
f 897/10/4 894/10/4 898/10/4
f 895/10/4 896/10/4 900/10/4
f 900/10/4 896/10/4 901/10/4
f 898/10/4 899/10/4 902/10/4
f 897/10/4 898/10/4 902/10/4
f 902/10/4 899/10/4 903/10/4
f 903/10/4 899/10/4 904/10/4
f 904/10/4 899/10/4 905/10/4
f 903/10/4 904/10/4 906/10/4
f 903/10/4 906/10/4 908/10/4
f 906/10/4 907/10/4 908/10/4
f 908/10/4 907/10/4 909/10/4
f 903/10/4 908/10/4 910/10/4
f 903/10/4 910/10/4 912/10/4
f 910/10/4 911/10/4 912/10/4
f 912/10/4 911/10/4 913/10/4
f 903/10/4 912/10/4 914/10/4
f 903/10/4 914/10/4 917/10/4
f 914/10/4 915/10/4 917/10/4
f 917/10/4 915/10/4 918/10/4
f 918/10/4 915/10/4 919/10/4
f 916/10/4 917/10/4 920/10/4
f 917/11/4 918/11/4 921/11/4
f 920/10/4 917/10/4 921/10/4
f 921/11/4 918/11/4 922/11/4
f 923/5/4 924/5/4 928/5/4
f 928/5/4 924/5/4 929/5/4
f 925/12/4 926/12/4 930/12/4
f 930/12/4 926/12/4 931/12/4
f 932/13/4 933/13/4 934/13/4
f 934/13/4 933/13/4 935/13/4
f 927/4/4 928/4/4 936/4/4
f 936/4/4 928/4/4 937/4/4
f 937/5/4 938/5/4 941/5/4
f 941/5/4 938/5/4 942/5/4
f 939/12/4 940/12/4 943/12/4
f 943/12/4 940/12/4 944/12/4
f 945/10/4 946/10/4 948/10/4
f 946/11/4 947/11/4 949/11/4
f 948/10/4 946/10/4 949/10/4
f 949/11/4 947/11/4 950/11/4
f 951/10/4 952/10/4 953/10/4
f 953/10/4 954/10/4 955/10/4
f 951/10/4 953/10/4 957/10/4
f 955/10/4 956/10/4 957/10/4
f 953/10/4 955/10/4 957/10/4
f 957/10/4 956/10/4 958/10/4
f 951/10/4 957/10/4 959/10/4
f 959/10/4 957/10/4 960/10/4
f 961/10/4 962/10/4 964/10/4
f 962/11/4 963/11/4 965/11/4
f 964/10/4 962/10/4 965/10/4
f 965/11/4 963/11/4 966/11/4
f 967/5/4 968/5/4 971/5/4
f 971/5/4 968/5/4 972/5/4
f 969/12/4 970/12/4 973/12/4
f 973/12/4 970/12/4 974/12/4
f 975/10/4 976/10/4 978/10/4
f 976/11/4 977/11/4 979/11/4
f 978/10/4 976/10/4 979/10/4
f 979/11/4 977/11/4 980/11/4
f 981/3/4 982/3/4 983/3/4
f 984/10/4 985/10/4 987/10/4
f 985/11/4 986/11/4 988/11/4
f 987/10/4 985/10/4 988/10/4
f 988/11/4 986/11/4 989/11/4
f 981/3/4 983/3/4 990/3/4
f 981/3/4 990/3/4 991/3/4
f 991/3/4 990/3/4 992/3/4
f 993/9/4 994/9/4 995/9/4
f 995/9/4 994/9/4 996/9/4
f 999/3/5 998/3/5 997/3/5
f 1000/3/5 998/3/5 999/3/5
f 1003/9/5 1002/9/5 1001/9/5
f 1004/9/5 1002/9/5 1003/9/5
f 1007/9/5 1006/9/5 1005/9/5
f 1008/9/5 1006/9/5 1007/9/5
f 1011/1/5 1010/1/5 1009/1/5
f 1012/1/5 1010/1/5 1011/1/5
f 1015/2/5 1014/2/5 1013/2/5
f 1016/2/5 1014/2/5 1015/2/5
f 1017/2/5 1015/2/5 1013/2/5
f 1018/2/5 1014/2/5 1016/2/5
f 1019/2/5 1017/2/5 1013/2/5
f 1019/2/5 1018/2/5 1017/2/5
f 1020/2/5 1014/2/5 1018/2/5
f 1020/2/5 1018/2/5 1019/2/5
f 1024/4/5 1022/4/5 1021/4/5
f 1025/4/5 1022/4/5 1024/4/5
f 1027/4/5 1024/4/5 1023/4/5
f 1028/4/5 1024/4/5 1027/4/5
f 1029/4/5 1026/4/5 1025/4/5
f 1030/4/5 1026/4/5 1029/4/5
f 1031/4/5 1029/4/5 1028/4/5
f 1032/4/5 1029/4/5 1031/4/5
f 1036/5/5 1034/5/5 1033/5/5
f 1037/5/5 1034/5/5 1036/5/5
f 1040/5/5 1036/5/5 1035/5/5
f 1041/5/5 1036/5/5 1040/5/5
f 1042/5/5 1038/5/5 1037/5/5
f 1043/5/5 1038/5/5 1042/5/5
f 1045/5/5 1040/5/5 1039/5/5
f 1046/5/5 1040/5/5 1045/5/5
f 1049/5/5 1044/5/5 1043/5/5
f 1050/5/5 1044/5/5 1049/5/5
f 1051/5/5 1047/5/5 1046/5/5
f 1052/5/5 1047/5/5 1051/5/5
f 1053/5/5 1049/5/5 1048/5/5
f 1054/5/5 1049/5/5 1053/5/5
f 1055/5/5 1053/5/5 1052/5/5
f 1056/5/5 1053/5/5 1055/5/5
f 1060/10/5 1058/10/5 1057/10/5
f 1061/10/5 1058/10/5 1060/10/5
f 1062/10/5 1058/10/5 1061/10/5
f 1063/10/5 1058/10/5 1062/10/5
f 1068/10/5 1060/10/5 1059/10/5
f 1068/10/5 1061/10/5 1060/10/5
f 1069/10/5 1061/10/5 1068/10/5
f 1070/10/5 1061/10/5 1069/10/5
f 1071/10/5 1063/10/5 1062/10/5
f 1071/10/5 1064/10/5 1063/10/5
f 1072/10/5 1064/10/5 1071/10/5
f 1073/10/5 1064/10/5 1072/10/5
f 1075/10/5 1066/10/5 1065/10/5
f 1076/10/5 1066/10/5 1075/10/5
f 1078/10/5 1069/10/5 1068/10/5
f 1078/10/5 1068/10/5 1067/10/5
f 1079/10/5 1069/10/5 1078/10/5
f 1080/10/5 1074/10/5 1073/10/5
f 1080/10/5 1073/10/5 1072/10/5
f 1081/10/5 1074/10/5 1080/10/5
f 1083/10/5 1077/10/5 1076/10/5
f 1084/10/5 1077/10/5 1083/10/5
f 1085/10/5 1078/10/5 1067/10/5
f 1088/10/5 1074/10/5 1081/10/5
f 1089/10/5 1083/10/5 1082/10/5
f 1090/10/5 1083/10/5 1089/10/5
f 1091/10/5 1086/10/5 1085/10/5
f 1091/10/5 1085/10/5 1067/10/5
f 1092/10/5 1086/10/5 1091/10/5
f 1093/10/5 1086/10/5 1092/10/5
f 1096/10/5 1088/10/5 1087/10/5
f 1097/10/5 1074/10/5 1088/10/5
f 1097/10/5 1088/10/5 1096/10/5
f 1098/10/5 1074/10/5 1097/10/5
f 1099/10/5 1094/10/5 1093/10/5
f 1099/10/5 1093/10/5 1092/10/5
f 1100/10/5 1094/10/5 1099/10/5
f 1101/10/5 1094/10/5 1100/10/5
f 1102/10/5 1097/10/5 1096/10/5
f 1102/10/5 1096/10/5 1095/10/5
f 1103/10/5 1097/10/5 1102/10/5
f 1104/10/5 1097/10/5 1103/10/5
f 1105/10/5 1101/10/5 1100/10/5
f 1105/10/5 1103/10/5 1102/10/5
f 1105/10/5 1102/10/5 1101/10/5
f 1106/10/5 1103/10/5 1105/10/5
f 1109/10/5 1108/10/5 1107/10/5
f 1110/10/5 1108/10/5 1109/10/5
f 1112/10/5 1108/10/5 1110/10/5
f 1113/10/5 1112/10/5 1111/10/5
f 1114/10/5 1108/10/5 1112/10/5
f 1114/10/5 1112/10/5 1113/10/5
f 1120/12/5 1116/12/5 1115/12/5
f 1121/12/5 1116/12/5 1120/12/5
f 1122/12/5 1118/12/5 1117/12/5
f 1123/12/5 1118/12/5 1122/12/5
f 1125/12/5 1120/12/5 1119/12/5
f 1126/12/5 1120/12/5 1125/12/5
f 1127/12/5 1124/12/5 1123/12/5
f 1128/12/5 1124/12/5 1127/12/5
f 1133/12/5 1130/12/5 1129/12/5
f 1134/12/5 1130/12/5 1133/12/5
f 1137/12/5 1132/12/5 1131/12/5
f 1138/12/5 1132/12/5 1137/12/5
f 1139/12/5 1135/12/5 1134/12/5
f 1140/12/5 1135/12/5 1139/12/5
f 1141/12/5 1137/12/5 1136/12/5
f 1142/12/5 1137/12/5 1141/12/5
f 1146/13/5 1144/13/5 1143/13/5
f 1147/13/5 1144/13/5 1146/13/5
f 1150/13/5 1146/13/5 1145/13/5
f 1151/13/5 1146/13/5 1150/13/5
f 1152/13/5 1148/13/5 1147/13/5
f 1153/13/5 1148/13/5 1152/13/5
f 1155/13/5 1150/13/5 1149/13/5
f 1156/13/5 1150/13/5 1155/13/5
f 1159/13/5 1154/13/5 1153/13/5
f 1160/13/5 1154/13/5 1159/13/5
f 1161/13/5 1157/13/5 1156/13/5
f 1162/13/5 1157/13/5 1161/13/5
f 1163/13/5 1159/13/5 1158/13/5
f 1164/13/5 1159/13/5 1163/13/5
f 1165/13/5 1163/13/5 1162/13/5
f 1166/13/5 1163/13/5 1165/13/5
f 1167/3/6 1168/3/6 1171/3/6
f 1171/3/6 1168/3/6 1172/3/6
f 1167/3/6 1171/3/6 1173/3/6
f 1172/3/6 1168/3/6 1174/3/6
f 1167/3/6 1173/3/6 1175/3/6
f 1173/3/6 1174/3/6 1175/3/6
f 1174/3/6 1168/3/6 1176/3/6
f 1175/3/6 1174/3/6 1176/3/6
f 1169/3/6 1170/3/6 1177/3/6
f 1177/3/6 1170/3/6 1178/3/6
f 1179/9/6 1180/9/6 1181/9/6
f 1181/9/6 1180/9/6 1182/9/6
f 1183/10/6 1184/10/6 1187/10/6
f 1187/10/6 1184/10/6 1188/10/6
f 1185/10/6 1186/10/6 1189/10/6
f 1189/10/6 1186/10/6 1190/10/6
f 1191/10/6 1192/10/6 1195/10/6
f 1195/10/6 1192/10/6 1196/10/6
f 1193/10/6 1194/10/6 1197/10/6
f 1197/10/6 1194/10/6 1198/10/6
f 1201/1/6 1202/1/6 1203/1/6
f 1203/1/6 1202/1/6 1204/1/6
f 1199/10/6 1200/10/6 1205/10/6
f 1205/10/6 1200/10/6 1206/10/6
f 1207/10/6 1208/10/6 1209/10/6
f 1209/10/6 1208/10/6 1210/10/6
f 1211/10/6 1212/10/6 1213/10/6
f 1213/10/6 1212/10/6 1214/10/6
f 1215/10/6 1216/10/6 1218/10/6
f 1218/10/6 1216/10/6 1219/10/6
f 1219/10/6 1216/10/6 1220/10/6
f 1217/10/6 1218/10/6 1222/10/6
f 1218/10/6 1219/10/6 1222/10/6
f 1222/10/6 1219/10/6 1223/10/6
f 1220/10/6 1221/10/6 1224/10/6
f 1224/10/6 1221/10/6 1225/10/6
f 1217/10/6 1222/10/6 1226/10/6
f 1217/10/6 1226/10/6 1230/10/6
f 1226/10/6 1227/10/6 1230/10/6
f 1230/10/6 1227/10/6 1231/10/6
f 1231/10/6 1227/10/6 1232/10/6
f 1228/10/6 1229/10/6 1233/10/6
f 1233/10/6 1229/10/6 1234/10/6
f 1231/10/6 1232/10/6 1235/10/6
f 1232/10/6 1233/10/6 1235/10/6
f 1235/10/6 1233/10/6 1236/10/6
f 1237/10/6 1238/10/6 1242/10/6
f 1242/10/6 1238/10/6 1243/10/6
f 1239/5/6 1240/5/6 1245/5/6
f 1245/5/6 1240/5/6 1246/5/6
f 1246/5/6 1240/5/6 1247/5/6
f 1247/5/6 1240/5/6 1248/5/6
f 1244/5/6 1245/5/6 1250/5/6
f 1245/5/6 1246/5/6 1250/5/6
f 1246/6/6 1247/6/6 1251/6/6
f 1250/5/6 1246/5/6 1251/5/6
f 1248/5/6 1249/5/6 1252/5/6
f 1251/6/6 1247/6/6 1252/6/6
f 1247/5/6 1248/5/6 1252/5/6
f 1252/5/6 1249/5/6 1253/5/6
f 1250/6/6 1251/6/6 1254/6/6
f 1244/5/6 1250/5/6 1254/5/6
f 1254/6/6 1251/6/6 1255/6/6
f 1252/6/6 1253/6/6 1256/6/6
f 1253/5/6 1249/5/6 1257/5/6
f 1256/6/6 1253/6/6 1257/6/6
f 1241/10/6 1242/10/6 1258/10/6
f 1258/10/6 1242/10/6 1259/10/6
f 1254/5/6 1255/5/6 1261/5/6
f 1244/5/6 1254/5/6 1261/5/6
f 1261/5/6 1255/5/6 1262/5/6
f 1255/6/6 1256/6/6 1263/6/6
f 1262/5/6 1255/5/6 1263/5/6
f 1256/5/6 1257/5/6 1264/5/6
f 1263/6/6 1256/6/6 1264/6/6
f 1257/5/6 1249/5/6 1265/5/6
f 1264/5/6 1257/5/6 1265/5/6
f 1265/5/6 1249/5/6 1266/5/6
f 1259/10/6 1260/10/6 1267/10/6
f 1267/10/6 1260/10/6 1268/10/6
f 1263/5/6 1264/5/6 1269/5/6
f 1264/5/6 1265/5/6 1269/5/6
f 1262/5/6 1263/5/6 1269/5/6
f 1269/5/6 1265/5/6 1270/5/6
f 1271/10/6 1272/10/6 1274/10/6
f 1274/10/6 1272/10/6 1275/10/6
f 1273/10/6 1274/10/6 1276/10/6
f 1276/10/6 1274/10/6 1277/10/6
f 1277/10/6 1278/10/6 1279/10/6
f 1279/10/6 1278/10/6 1280/10/6
f 1281/11/6 1282/11/6 1284/11/6
f 1284/11/6 1282/11/6 1285/11/6
f 1285/11/6 1282/11/6 1286/11/6
f 1286/11/6 1282/11/6 1287/11/6
f 1283/11/6 1284/11/6 1298/11/6
f 1284/11/6 1285/11/6 1298/11/6
f 1298/11/6 1285/11/6 1299/11/6
f 1299/11/6 1285/11/6 1300/11/6
f 1287/11/6 1288/11/6 1301/11/6
f 1286/11/6 1287/11/6 1301/11/6
f 1301/11/6 1288/11/6 1302/11/6
f 1302/11/6 1288/11/6 1303/11/6
f 1289/10/6 1290/10/6 1306/10/6
f 1306/10/6 1290/10/6 1307/10/6
f 1291/10/6 1292/10/6 1308/10/6
f 1308/10/6 1292/10/6 1309/10/6
f 1293/10/6 1294/10/6 1310/10/6
f 1310/10/6 1294/10/6 1311/10/6
f 1295/10/6 1296/10/6 1312/10/6
f 1312/10/6 1296/10/6 1313/10/6
f 1298/11/6 1299/11/6 1314/11/6
f 1297/11/6 1298/11/6 1314/11/6
f 1314/11/6 1299/11/6 1315/11/6
f 1315/11/6 1299/11/6 1316/11/6
f 1303/11/6 1304/11/6 1317/11/6
f 1302/11/6 1303/11/6 1317/11/6
f 1317/11/6 1304/11/6 1318/11/6
f 1305/10/6 1306/10/6 1319/10/6
f 1319/10/6 1306/10/6 1320/10/6
f 1318/11/6 1304/11/6 1332/11/6
f 1320/10/6 1321/10/6 1333/10/6
f 1333/10/6 1321/10/6 1334/10/6
f 1322/10/6 1323/10/6 1335/10/6
f 1335/10/6 1323/10/6 1336/10/6
f 1324/10/6 1325/10/6 1337/10/6
f 1337/10/6 1325/10/6 1338/10/6
f 1326/10/6 1327/10/6 1339/10/6
f 1339/10/6 1327/10/6 1340/10/6
f 1329/11/6 1330/11/6 1341/11/6
f 1328/11/6 1329/11/6 1341/11/6
f 1341/11/6 1330/11/6 1342/11/6
f 1342/11/6 1330/11/6 1343/11/6
f 1331/11/6 1332/11/6 1346/11/6
f 1332/11/6 1304/11/6 1347/11/6
f 1346/11/6 1332/11/6 1347/11/6
f 1347/11/6 1304/11/6 1348/11/6
f 1343/11/6 1344/11/6 1349/11/6
f 1342/11/6 1343/11/6 1349/11/6
f 1349/11/6 1344/11/6 1350/11/6
f 1350/11/6 1344/11/6 1351/11/6
f 1346/11/6 1347/11/6 1352/11/6
f 1345/11/6 1346/11/6 1352/11/6
f 1352/11/6 1347/11/6 1353/11/6
f 1353/11/6 1347/11/6 1354/11/6
f 1350/11/6 1351/11/6 1355/11/6
f 1352/11/6 1353/11/6 1355/11/6
f 1351/11/6 1352/11/6 1355/11/6
f 1355/11/6 1353/11/6 1356/11/6
f 1357/12/6 1358/12/6 1368/12/6
f 1368/12/6 1358/12/6 1369/12/6
f 1369/12/6 1358/12/6 1370/12/6
f 1370/12/6 1358/12/6 1371/12/6
f 1359/10/6 1360/10/6 1374/10/6
f 1374/10/6 1360/10/6 1375/10/6
f 1361/10/6 1362/10/6 1376/10/6
f 1376/10/6 1362/10/6 1377/10/6
f 1363/10/6 1364/10/6 1378/10/6
f 1378/10/6 1364/10/6 1379/10/6
f 1365/10/6 1366/10/6 1380/10/6
f 1380/10/6 1366/10/6 1381/10/6
f 1367/12/6 1368/12/6 1383/12/6
f 1368/12/6 1369/12/6 1383/12/6
f 1383/12/6 1369/12/6 1384/12/6
f 1384/12/6 1369/12/6 1385/12/6
f 1370/12/6 1371/12/6 1386/12/6
f 1371/12/6 1372/12/6 1386/12/6
f 1386/12/6 1372/12/6 1387/12/6
f 1387/12/6 1372/12/6 1388/12/6
f 1378/10/6 1379/10/6 1390/10/6
f 1374/10/6 1375/10/6 1390/10/6
f 1376/10/6 1377/10/6 1390/10/6
f 1381/10/6 1382/10/6 1390/10/6
f 1380/10/6 1381/10/6 1390/10/6
f 1379/10/6 1380/10/6 1390/10/6
f 1373/10/6 1374/10/6 1390/10/6
f 1377/10/6 1378/10/6 1390/10/6
f 1375/10/6 1376/10/6 1390/10/6
f 1390/10/6 1382/10/6 1391/10/6
f 1382/12/6 1383/12/6 1392/12/6
f 1383/12/6 1384/12/6 1392/12/6
f 1392/12/6 1384/12/6 1393/12/6
f 1388/12/6 1389/12/6 1394/12/6
f 1387/12/6 1388/12/6 1394/12/6
f 1394/12/6 1389/12/6 1395/12/6
f 1373/10/6 1390/10/6 1396/10/6
f 1391/10/6 1382/10/6 1397/10/6
f 1382/12/6 1392/12/6 1398/12/6
f 1395/12/6 1389/12/6 1401/12/6
f 1396/10/6 1397/10/6 1402/10/6
f 1373/10/6 1396/10/6 1402/10/6
f 1402/10/6 1397/10/6 1403/10/6
f 1403/10/6 1397/10/6 1404/10/6
f 1404/10/6 1397/10/6 1405/10/6
f 1405/10/6 1397/10/6 1406/10/6
f 1406/10/6 1397/10/6 1407/10/6
f 1407/10/6 1397/10/6 1408/10/6
f 1408/10/6 1397/10/6 1409/10/6
f 1397/10/6 1382/10/6 1410/10/6
f 1409/10/6 1397/10/6 1410/10/6
f 1398/12/6 1399/12/6 1411/12/6
f 1410/10/6 1382/10/6 1411/10/6
f 1382/12/6 1398/12/6 1411/12/6
f 1411/12/6 1399/12/6 1412/12/6
f 1412/12/6 1399/12/6 1413/12/6
f 1400/12/6 1401/12/6 1416/12/6
f 1401/12/6 1389/12/6 1417/12/6
f 1416/12/6 1401/12/6 1417/12/6
f 1417/12/6 1389/12/6 1418/12/6
f 1403/10/6 1404/10/6 1419/10/6
f 1419/10/6 1404/10/6 1420/10/6
f 1405/10/6 1406/10/6 1421/10/6
f 1421/10/6 1406/10/6 1422/10/6
f 1407/10/6 1408/10/6 1423/10/6
f 1423/10/6 1408/10/6 1424/10/6
f 1409/10/6 1410/10/6 1425/10/6
f 1425/10/6 1410/10/6 1426/10/6
f 1413/12/6 1414/12/6 1427/12/6
f 1412/12/6 1413/12/6 1427/12/6
f 1427/12/6 1414/12/6 1428/12/6
f 1428/12/6 1414/12/6 1429/12/6
f 1415/12/6 1416/12/6 1430/12/6
f 1416/12/6 1417/12/6 1430/12/6
f 1430/12/6 1417/12/6 1431/12/6
f 1431/12/6 1417/12/6 1432/12/6
f 1430/12/6 1431/12/6 1433/12/6
f 1429/12/6 1430/12/6 1433/12/6
f 1428/12/6 1429/12/6 1433/12/6
f 1433/12/6 1431/12/6 1434/12/6
f 1435/13/6 1436/13/6 1438/13/6
f 1438/13/6 1436/13/6 1439/13/6
f 1437/13/6 1438/13/6 1444/13/6
f 1444/13/6 1438/13/6 1445/13/6
f 1439/13/6 1440/13/6 1446/13/6
f 1446/13/6 1440/13/6 1447/13/6
f 1441/10/6 1442/10/6 1449/10/6
f 1449/10/6 1442/10/6 1450/10/6
f 1443/13/6 1444/13/6 1451/13/6
f 1451/13/6 1444/13/6 1452/13/6
f 1447/13/6 1448/13/6 1455/13/6
f 1455/13/6 1448/13/6 1456/13/6
f 1452/13/6 1453/13/6 1457/13/6
f 1457/13/6 1453/13/6 1458/13/6
f 1454/13/6 1455/13/6 1459/13/6
f 1459/13/6 1455/13/6 1460/13/6
f 1458/13/6 1459/13/6 1461/13/6
f 1461/13/6 1459/13/6 1462/13/6
