# MagicaVoxel @ Ephtracy

# group
o 

# material
mtllib lab_decorations-2.mtl
usemtl palette

# normals
vn -1 0 0
vn 1 0 0
vn 0 0 1
vn 0 0 -1
vn 0 -1 0
vn 0 1 0

# texcoords
vt 0.306641 0.5
vt 0.451172 0.5
vt 0.591797 0.5
vt 0.962891 0.5

# verts
v -1.2 -0.75 -0.95
v -1.2 -0.75 -1.15
v -1.2 0.45 -0.95
v -1.2 0.45 -1.15
v -1.1 -0.85 -0.95
v -1.1 -0.85 -1.15
v -1.1 -0.75 -0.95
v -1.1 -0.75 -1.15
v -1.1 0.45 -0.95
v -1.1 0.45 -1.15
v -1.1 0.55 -0.95
v -1.1 0.55 -1.15
v -0.3 -0.25 -0.65
v -0.3 -0.25 -0.95
v -0.3 -0.15 -0.35
v -0.3 -0.15 -0.65
v -0.3 -0.05 -0.0500001
v -0.3 -0.05 -0.35
v -0.3 0.05 0.25
v -0.3 0.05 -0.0500001
v -0.3 0.05 -0.65
v -0.3 0.05 -0.95
v -0.3 0.15 0.55
v -0.3 0.15 0.25
v -0.3 0.15 -0.35
v -0.3 0.15 -0.65
v -0.3 0.25 0.85
v -0.3 0.25 0.55
v -0.3 0.25 -0.0500001
v -0.3 0.25 -0.35
v -0.3 0.35 1.15
v -0.3 0.35 0.85
v -0.3 0.35 0.25
v -0.3 0.35 -0.0500001
v -0.3 0.45 0.55
v -0.3 0.45 0.25
v -0.3 0.55 0.85
v -0.3 0.55 0.55
v -0.3 0.65 1.15
v -0.3 0.65 0.85
v -0.2 -0.35 -0.65
v -0.2 -0.35 -0.95
v -0.2 -0.25 -0.35
v -0.2 -0.25 -0.65
v -0.2 -0.25 -0.95
v -0.2 -0.15 -0.0500001
v -0.2 -0.15 -0.35
v -0.2 -0.15 -0.65
v -0.2 -0.05 0.25
v -0.2 -0.05 -0.0500001
v -0.2 -0.05 -0.35
v -0.2 0.05 0.55
v -0.2 0.05 0.25
v -0.2 0.05 -0.0500001
v -0.2 0.05 -0.65
v -0.2 0.05 -0.95
v -0.2 0.15 0.85
v -0.2 0.15 0.55
v -0.2 0.15 0.25
v -0.2 0.15 -0.35
v -0.2 0.15 -0.65
v -0.2 0.15 -0.95
v -0.2 0.25 1.15
v -0.2 0.25 0.85
v -0.2 0.25 0.55
v -0.2 0.25 -0.0500001
v -0.2 0.25 -0.35
v -0.2 0.25 -0.65
v -0.2 0.35 1.15
v -0.2 0.35 0.85
v -0.2 0.35 0.25
v -0.2 0.35 -0.0500001
v -0.2 0.35 -0.35
v -0.2 0.45 0.55
v -0.2 0.45 0.25
v -0.2 0.45 -0.0500001
v -0.2 0.55 0.85
v -0.2 0.55 0.55
v -0.2 0.55 0.25
v -0.2 0.65 1.15
v -0.2 0.65 0.85
v -0.2 0.65 0.55
v -0.2 0.75 1.15
v -0.2 0.75 0.85
v -0.1 -0.45 -0.65
v -0.1 -0.45 -0.95
v -0.1 -0.35 -0.35
v -0.1 -0.35 -0.65
v -0.1 -0.35 -0.95
v -0.1 -0.25 -0.0500001
v -0.1 -0.25 -0.35
v -0.1 -0.25 -0.65
v -0.1 -0.15 0.25
v -0.1 -0.15 -0.0500001
v -0.1 -0.15 -0.35
v -0.1 -0.05 0.55
v -0.1 -0.05 0.25
v -0.1 -0.05 -0.0500001
v -0.1 0.05 0.85
v -0.1 0.05 0.55
v -0.1 0.05 0.25
v -0.1 0.15 1.15
v -0.1 0.15 0.85
v -0.1 0.15 0.55
v -0.1 0.15 -0.65
v -0.1 0.15 -0.95
v -0.1 0.25 1.15
v -0.1 0.25 0.85
v -0.1 0.25 -0.35
v -0.1 0.25 -0.65
v -0.1 0.25 -0.95
v -0.1 0.35 -0.0500001
v -0.1 0.35 -0.35
v -0.1 0.35 -0.65
v -0.1 0.45 0.25
v -0.1 0.45 -0.0500001
v -0.1 0.45 -0.35
v -0.1 0.55 0.55
v -0.1 0.55 0.25
v -0.1 0.55 -0.0500001
v -0.1 0.65 0.85
v -0.1 0.65 0.55
v -0.1 0.65 0.25
v -0.1 0.75 1.15
v -0.1 0.75 0.85
v -0.1 0.75 0.55
v -0.1 0.85 1.15
v -0.1 0.85 0.85
v 0.2 -0.45 -0.65
v 0.2 -0.45 -0.95
v 0.2 -0.35 -0.35
v 0.2 -0.35 -0.65
v 0.2 -0.35 -0.95
v 0.2 -0.25 -0.0500001
v 0.2 -0.25 -0.35
v 0.2 -0.25 -0.65
v 0.2 -0.15 0.25
v 0.2 -0.15 -0.0500001
v 0.2 -0.15 -0.35
v 0.2 -0.05 0.55
v 0.2 -0.05 0.25
v 0.2 -0.05 -0.0500001
v 0.2 0.05 0.85
v 0.2 0.05 0.55
v 0.2 0.05 0.25
v 0.2 0.15 1.15
v 0.2 0.15 0.85
v 0.2 0.15 0.55
v 0.2 0.15 -0.65
v 0.2 0.15 -0.95
v 0.2 0.25 1.15
v 0.2 0.25 0.85
v 0.2 0.25 -0.35
v 0.2 0.25 -0.65
v 0.2 0.25 -0.95
v 0.2 0.35 -0.0500001
v 0.2 0.35 -0.35
v 0.2 0.35 -0.65
v 0.2 0.45 0.25
v 0.2 0.45 -0.0500001
v 0.2 0.45 -0.35
v 0.2 0.55 0.55
v 0.2 0.55 0.25
v 0.2 0.55 -0.0500001
v 0.2 0.65 0.85
v 0.2 0.65 0.55
v 0.2 0.65 0.25
v 0.2 0.75 1.15
v 0.2 0.75 0.85
v 0.2 0.75 0.55
v 0.2 0.85 1.15
v 0.2 0.85 0.85
v 0.3 -0.35 -0.65
v 0.3 -0.35 -0.95
v 0.3 -0.25 -0.35
v 0.3 -0.25 -0.65
v 0.3 -0.25 -0.95
v 0.3 -0.15 -0.0500001
v 0.3 -0.15 -0.35
v 0.3 -0.15 -0.65
v 0.3 -0.05 0.25
v 0.3 -0.05 -0.0500001
v 0.3 -0.05 -0.35
v 0.3 0.05 0.55
v 0.3 0.05 0.25
v 0.3 0.05 -0.0500001
v 0.3 0.05 -0.65
v 0.3 0.05 -0.95
v 0.3 0.15 0.85
v 0.3 0.15 0.55
v 0.3 0.15 0.25
v 0.3 0.15 -0.35
v 0.3 0.15 -0.65
v 0.3 0.15 -0.95
v 0.3 0.25 1.15
v 0.3 0.25 0.85
v 0.3 0.25 0.55
v 0.3 0.25 -0.0500001
v 0.3 0.25 -0.35
v 0.3 0.25 -0.65
v 0.3 0.35 1.15
v 0.3 0.35 0.85
v 0.3 0.35 0.25
v 0.3 0.35 -0.0500001
v 0.3 0.35 -0.35
v 0.3 0.45 0.55
v 0.3 0.45 0.25
v 0.3 0.45 -0.0500001
v 0.3 0.55 0.85
v 0.3 0.55 0.55
v 0.3 0.55 0.25
v 0.3 0.65 1.15
v 0.3 0.65 0.85
v 0.3 0.65 0.55
v 0.3 0.75 1.15
v 0.3 0.75 0.85
v 0.4 -0.25 -0.65
v 0.4 -0.25 -0.95
v 0.4 -0.15 -0.35
v 0.4 -0.15 -0.65
v 0.4 -0.05 -0.0500001
v 0.4 -0.05 -0.35
v 0.4 0.05 0.25
v 0.4 0.05 -0.0500001
v 0.4 0.05 -0.65
v 0.4 0.05 -0.95
v 0.4 0.15 0.55
v 0.4 0.15 0.25
v 0.4 0.15 -0.35
v 0.4 0.15 -0.65
v 0.4 0.25 0.85
v 0.4 0.25 0.55
v 0.4 0.25 -0.0500001
v 0.4 0.25 -0.35
v 0.4 0.35 1.15
v 0.4 0.35 0.85
v 0.4 0.35 0.25
v 0.4 0.35 -0.0500001
v 0.4 0.45 0.55
v 0.4 0.45 0.25
v 0.4 0.55 0.85
v 0.4 0.55 0.55
v 0.4 0.65 1.15
v 0.4 0.65 0.85
v 1.1 -0.85 -0.95
v 1.1 -0.85 -1.15
v 1.1 -0.75 -0.95
v 1.1 -0.75 -1.15
v 1.1 0.45 -0.95
v 1.1 0.45 -1.15
v 1.1 0.55 -0.95
v 1.1 0.55 -1.15
v 1.2 -0.75 -0.95
v 1.2 -0.75 -1.15
v 1.2 0.45 -0.95
v 1.2 0.45 -1.15
v -0.3 0.35 1.15
v -0.3 0.65 1.15
v -0.2 0.25 1.15
v -0.2 0.35 1.15
v -0.2 0.65 1.15
v -0.2 0.75 1.15
v -0.1 0.15 1.15
v -0.1 0.25 1.15
v -0.1 0.75 1.15
v -0.1 0.85 1.15
v 0.2 0.15 1.15
v 0.2 0.25 1.15
v 0.2 0.75 1.15
v 0.2 0.85 1.15
v 0.3 0.25 1.15
v 0.3 0.35 1.15
v 0.3 0.65 1.15
v 0.3 0.75 1.15
v 0.4 0.35 1.15
v 0.4 0.65 1.15
v -0.3 0.25 0.85
v -0.3 0.35 0.85
v -0.2 0.15 0.85
v -0.2 0.25 0.85
v -0.2 0.35 0.85
v -0.1 0.05 0.85
v -0.1 0.15 0.85
v -0.1 0.25 0.85
v 0.2 0.05 0.85
v 0.2 0.15 0.85
v 0.2 0.25 0.85
v 0.3 0.15 0.85
v 0.3 0.25 0.85
v 0.3 0.35 0.85
v 0.4 0.25 0.85
v 0.4 0.35 0.85
v -0.3 0.15 0.55
v -0.3 0.25 0.55
v -0.2 0.05 0.55
v -0.2 0.15 0.55
v -0.2 0.25 0.55
v -0.1 -0.05 0.55
v -0.1 0.05 0.55
v -0.1 0.15 0.55
v 0.2 -0.05 0.55
v 0.2 0.05 0.55
v 0.2 0.15 0.55
v 0.3 0.05 0.55
v 0.3 0.15 0.55
v 0.3 0.25 0.55
v 0.4 0.15 0.55
v 0.4 0.25 0.55
v -0.3 0.05 0.25
v -0.3 0.15 0.25
v -0.2 -0.05 0.25
v -0.2 0.05 0.25
v -0.2 0.15 0.25
v -0.1 -0.15 0.25
v -0.1 -0.05 0.25
v -0.1 0.05 0.25
v 0.2 -0.15 0.25
v 0.2 -0.05 0.25
v 0.2 0.05 0.25
v 0.3 -0.05 0.25
v 0.3 0.05 0.25
v 0.3 0.15 0.25
v 0.4 0.05 0.25
v 0.4 0.15 0.25
v -0.3 -0.05 -0.0500001
v -0.3 0.05 -0.0500001
v -0.2 -0.15 -0.0500001
v -0.2 -0.05 -0.0500001
v -0.2 0.05 -0.0500001
v -0.1 -0.25 -0.0500001
v -0.1 -0.15 -0.0500001
v -0.1 -0.05 -0.0500001
v 0.2 -0.25 -0.0500001
v 0.2 -0.15 -0.0500001
v 0.2 -0.05 -0.0500001
v 0.3 -0.15 -0.0500001
v 0.3 -0.05 -0.0500001
v 0.3 0.05 -0.0500001
v 0.4 -0.05 -0.0500001
v 0.4 0.05 -0.0500001
v -0.3 -0.15 -0.35
v -0.3 -0.05 -0.35
v -0.2 -0.25 -0.35
v -0.2 -0.15 -0.35
v -0.2 -0.05 -0.35
v -0.1 -0.35 -0.35
v -0.1 -0.25 -0.35
v -0.1 -0.15 -0.35
v 0.2 -0.35 -0.35
v 0.2 -0.25 -0.35
v 0.2 -0.15 -0.35
v 0.3 -0.25 -0.35
v 0.3 -0.15 -0.35
v 0.3 -0.05 -0.35
v 0.4 -0.15 -0.35
v 0.4 -0.05 -0.35
v -0.3 -0.25 -0.65
v -0.3 -0.15 -0.65
v -0.2 -0.35 -0.65
v -0.2 -0.25 -0.65
v -0.2 -0.15 -0.65
v -0.1 -0.45 -0.65
v -0.1 -0.35 -0.65
v -0.1 -0.25 -0.65
v 0.2 -0.45 -0.65
v 0.2 -0.35 -0.65
v 0.2 -0.25 -0.65
v 0.3 -0.35 -0.65
v 0.3 -0.25 -0.65
v 0.3 -0.15 -0.65
v 0.4 -0.25 -0.65
v 0.4 -0.15 -0.65
v -1.2 -0.75 -0.95
v -1.2 0.45 -0.95
v -1.1 -0.85 -0.95
v -1.1 -0.75 -0.95
v -1.1 0.45 -0.95
v -1.1 0.55 -0.95
v -0.3 -0.25 -0.95
v -0.3 0.05 -0.95
v -0.2 -0.35 -0.95
v -0.2 -0.25 -0.95
v -0.2 0.05 -0.95
v -0.2 0.15 -0.95
v -0.1 -0.45 -0.95
v -0.1 -0.35 -0.95
v -0.1 0.15 -0.95
v -0.1 0.25 -0.95
v 0.2 -0.45 -0.95
v 0.2 -0.35 -0.95
v 0.2 0.15 -0.95
v 0.2 0.25 -0.95
v 0.3 -0.35 -0.95
v 0.3 -0.25 -0.95
v 0.3 0.05 -0.95
v 0.3 0.15 -0.95
v 0.4 -0.25 -0.95
v 0.4 0.05 -0.95
v 1.1 -0.85 -0.95
v 1.1 -0.75 -0.95
v 1.1 0.45 -0.95
v 1.1 0.55 -0.95
v 1.2 -0.75 -0.95
v 1.2 0.45 -0.95
v -0.3 0.55 0.85
v -0.3 0.65 0.85
v -0.2 0.55 0.85
v -0.2 0.65 0.85
v -0.2 0.75 0.85
v -0.1 0.65 0.85
v -0.1 0.75 0.85
v -0.1 0.85 0.85
v 0.2 0.65 0.85
v 0.2 0.75 0.85
v 0.2 0.85 0.85
v 0.3 0.55 0.85
v 0.3 0.65 0.85
v 0.3 0.75 0.85
v 0.4 0.55 0.85
v 0.4 0.65 0.85
v -0.3 0.45 0.55
v -0.3 0.55 0.55
v -0.2 0.45 0.55
v -0.2 0.55 0.55
v -0.2 0.65 0.55
v -0.1 0.55 0.55
v -0.1 0.65 0.55
v -0.1 0.75 0.55
v 0.2 0.55 0.55
v 0.2 0.65 0.55
v 0.2 0.75 0.55
v 0.3 0.45 0.55
v 0.3 0.55 0.55
v 0.3 0.65 0.55
v 0.4 0.45 0.55
v 0.4 0.55 0.55
v -0.3 0.35 0.25
v -0.3 0.45 0.25
v -0.2 0.35 0.25
v -0.2 0.45 0.25
v -0.2 0.55 0.25
v -0.1 0.45 0.25
v -0.1 0.55 0.25
v -0.1 0.65 0.25
v 0.2 0.45 0.25
v 0.2 0.55 0.25
v 0.2 0.65 0.25
v 0.3 0.35 0.25
v 0.3 0.45 0.25
v 0.3 0.55 0.25
v 0.4 0.35 0.25
v 0.4 0.45 0.25
v -0.3 0.25 -0.0500001
v -0.3 0.35 -0.0500001
v -0.2 0.25 -0.0500001
v -0.2 0.35 -0.0500001
v -0.2 0.45 -0.0500001
v -0.1 0.35 -0.0500001
v -0.1 0.45 -0.0500001
v -0.1 0.55 -0.0500001
v 0.2 0.35 -0.0500001
v 0.2 0.45 -0.0500001
v 0.2 0.55 -0.0500001
v 0.3 0.25 -0.0500001
v 0.3 0.35 -0.0500001
v 0.3 0.45 -0.0500001
v 0.4 0.25 -0.0500001
v 0.4 0.35 -0.0500001
v -0.3 0.15 -0.35
v -0.3 0.25 -0.35
v -0.2 0.15 -0.35
v -0.2 0.25 -0.35
v -0.2 0.35 -0.35
v -0.1 0.25 -0.35
v -0.1 0.35 -0.35
v -0.1 0.45 -0.35
v 0.2 0.25 -0.35
v 0.2 0.35 -0.35
v 0.2 0.45 -0.35
v 0.3 0.15 -0.35
v 0.3 0.25 -0.35
v 0.3 0.35 -0.35
v 0.4 0.15 -0.35
v 0.4 0.25 -0.35
v -0.3 0.05 -0.65
v -0.3 0.15 -0.65
v -0.2 0.05 -0.65
v -0.2 0.15 -0.65
v -0.2 0.25 -0.65
v -0.1 0.15 -0.65
v -0.1 0.25 -0.65
v -0.1 0.35 -0.65
v 0.2 0.15 -0.65
v 0.2 0.25 -0.65
v 0.2 0.35 -0.65
v 0.3 0.05 -0.65
v 0.3 0.15 -0.65
v 0.3 0.25 -0.65
v 0.4 0.05 -0.65
v 0.4 0.15 -0.65
v -1.2 -0.75 -1.15
v -1.2 0.45 -1.15
v -1.1 -0.85 -1.15
v -1.1 -0.75 -1.15
v -1.1 -0.65 -1.15
v -1.1 -0.55 -1.15
v -1.1 -0.25 -1.15
v -1.1 0.15 -1.15
v -1.1 0.35 -1.15
v -1.1 0.45 -1.15
v -1.1 0.55 -1.15
v -1 -0.65 -1.15
v -1 -0.55 -1.15
v -1 -0.45 -1.15
v -1 -0.35 -1.15
v -1 -0.25 -1.15
v -1 -0.15 -1.15
v -1 -0.05 -1.15
v -1 0.15 -1.15
v -1 0.25 -1.15
v -1 0.35 -1.15
v -1 0.45 -1.15
v -0.9 -0.55 -1.15
v -0.9 -0.45 -1.15
v -0.9 -0.35 -1.15
v -0.9 -0.15 -1.15
v -0.9 -0.05 -1.15
v -0.9 0.05 -1.15
v -0.9 0.25 -1.15
v -0.9 0.35 -1.15
v -0.8 -0.75 -1.15
v -0.8 -0.65 -1.15
v -0.8 -0.45 -1.15
v -0.8 -0.35 -1.15
v -0.8 -0.15 -1.15
v -0.8 -0.05 -1.15
v -0.8 0.05 -1.15
v -0.8 0.15 -1.15
v -0.8 0.25 -1.15
v -0.7 -0.75 -1.15
v -0.7 -0.65 -1.15
v -0.7 -0.55 -1.15
v -0.7 -0.35 -1.15
v -0.7 -0.15 -1.15
v -0.7 -0.05 -1.15
v -0.7 0.05 -1.15
v -0.7 0.15 -1.15
v -0.7 0.25 -1.15
v -0.7 0.35 -1.15
v -0.6 -0.75 -1.15
v -0.6 -0.65 -1.15
v -0.6 -0.55 -1.15
v -0.6 -0.35 -1.15
v -0.6 -0.25 -1.15
v -0.6 -0.15 -1.15
v -0.6 -0.05 -1.15
v -0.5 -0.65 -1.15
v -0.5 -0.55 -1.15
v -0.5 -0.45 -1.15
v -0.5 -0.35 -1.15
v -0.5 -0.25 -1.15
v -0.5 -0.15 -1.15
v -0.5 -0.05 -1.15
v -0.5 0.05 -1.15
v -0.5 0.25 -1.15
v -0.5 0.45 -1.15
v -0.4 -0.45 -1.15
v -0.4 -0.35 -1.15
v -0.4 -0.25 -1.15
v -0.4 -0.15 -1.15
v -0.4 0.05 -1.15
v -0.4 0.25 -1.15
v -0.4 0.45 -1.15
v -0.3 -0.75 -1.15
v -0.3 -0.65 -1.15
v -0.3 -0.35 -1.15
v -0.3 -0.25 -1.15
v -0.3 -0.15 -1.15
v -0.3 -0.05 -1.15
v -0.3 0.05 -1.15
v -0.3 0.15 -1.15
v -0.3 0.25 -1.15
v -0.3 0.35 -1.15
v -0.2 -0.75 -1.15
v -0.2 -0.65 -1.15
v -0.2 -0.55 -1.15
v -0.2 -0.45 -1.15
v -0.2 -0.35 -1.15
v -0.2 0.15 -1.15
v -0.2 0.25 -1.15
v -0.2 0.35 -1.15
v -0.1 -0.65 -1.15
v -0.1 -0.45 -1.15
v -0.1 -0.05 -1.15
v -0.1 0.25 -1.15
v -0.1 0.35 -1.15
v 0 -0.55 -1.15
v 0 -0.45 -1.15
v 0 -0.25 -1.15
v 0 -0.15 -1.15
v 0 -0.05 -1.15
v 0 0.35 -1.15
v 0 0.45 -1.15
v 0.0999999 -0.75 -1.15
v 0.0999999 -0.55 -1.15
v 0.0999999 -0.45 -1.15
v 0.0999999 -0.35 -1.15
v 0.0999999 -0.15 -1.15
v 0.0999999 -0.05 -1.15
v 0.0999999 0.05 -1.15
v 0.0999999 0.15 -1.15
v 0.0999999 0.25 -1.15
v 0.2 -0.45 -1.15
v 0.2 -0.35 -1.15
v 0.2 -0.25 -1.15
v 0.2 -0.05 -1.15
v 0.2 0.05 -1.15
v 0.2 0.15 -1.15
v 0.2 0.35 -1.15
v 0.3 -0.45 -1.15
v 0.3 -0.35 -1.15
v 0.3 -0.05 -1.15
v 0.3 0.05 -1.15
v 0.3 0.15 -1.15
v 0.3 0.35 -1.15
v 0.4 -0.75 -1.15
v 0.4 -0.45 -1.15
v 0.4 -0.35 -1.15
v 0.4 -0.25 -1.15
v 0.4 -0.05 -1.15
v 0.4 0.05 -1.15
v 0.4 0.15 -1.15
v 0.4 0.25 -1.15
v 0.4 0.35 -1.15
v 0.5 -0.65 -1.15
v 0.5 -0.55 -1.15
v 0.5 -0.25 -1.15
v 0.5 -0.15 -1.15
v 0.5 0.25 -1.15
v 0.5 0.35 -1.15
v 0.6 -0.75 -1.15
v 0.6 -0.65 -1.15
v 0.6 -0.55 -1.15
v 0.6 -0.45 -1.15
v 0.6 -0.15 -1.15
v 0.6 -0.05 -1.15
v 0.6 0.15 -1.15
v 0.6 0.45 -1.15
v 0.7 -0.75 -1.15
v 0.7 -0.55 -1.15
v 0.7 -0.45 -1.15
v 0.7 -0.35 -1.15
v 0.7 -0.05 -1.15
v 0.7 0.05 -1.15
v 0.7 0.15 -1.15
v 0.7 0.45 -1.15
v 0.8 -0.75 -1.15
v 0.8 -0.65 -1.15
v 0.8 -0.25 -1.15
v 0.8 -0.15 -1.15
v 0.8 0.15 -1.15
v 0.8 0.25 -1.15
v 0.8 0.35 -1.15
v 0.8 0.45 -1.15
v 0.9 -0.75 -1.15
v 0.9 -0.65 -1.15
v 0.9 -0.55 -1.15
v 0.9 -0.45 -1.15
v 0.9 -0.15 -1.15
v 0.9 -0.05 -1.15
v 0.9 0.05 -1.15
v 0.9 0.15 -1.15
v 0.9 0.25 -1.15
v 0.9 0.35 -1.15
v 0.9 0.45 -1.15
v 1 -0.35 -1.15
v 1 -0.25 -1.15
v 1 -0.15 -1.15
v 1 -0.05 -1.15
v 1 0.15 -1.15
v 1 0.35 -1.15
v 1 0.45 -1.15
v 1.1 -0.85 -1.15
v 1.1 -0.75 -1.15
v 1.1 -0.25 -1.15
v 1.1 -0.15 -1.15
v 1.1 -0.05 -1.15
v 1.1 0.45 -1.15
v 1.1 0.55 -1.15
v 1.2 -0.75 -1.15
v 1.2 0.45 -1.15
v -1.1 -0.85 -0.95
v 1.1 -0.85 -0.95
v -1.1 -0.85 -1.15
v 1.1 -0.85 -1.15
v -1.2 -0.75 -0.95
v -1.1 -0.75 -0.95
v 1.1 -0.75 -0.95
v 1.2 -0.75 -0.95
v -1.2 -0.75 -1.15
v -1.1 -0.75 -1.15
v 1.1 -0.75 -1.15
v 1.2 -0.75 -1.15
v -0.1 -0.45 -0.65
v 0.2 -0.45 -0.65
v -0.1 -0.45 -0.95
v 0.2 -0.45 -0.95
v -0.1 -0.35 -0.35
v 0.2 -0.35 -0.35
v -0.2 -0.35 -0.65
v -0.1 -0.35 -0.65
v 0.2 -0.35 -0.65
v 0.3 -0.35 -0.65
v -0.2 -0.35 -0.95
v -0.1 -0.35 -0.95
v 0.2 -0.35 -0.95
v 0.3 -0.35 -0.95
v -0.1 -0.25 -0.0500001
v 0.2 -0.25 -0.0500001
v -0.2 -0.25 -0.35
v -0.1 -0.25 -0.35
v 0.2 -0.25 -0.35
v 0.3 -0.25 -0.35
v -0.3 -0.25 -0.65
v -0.2 -0.25 -0.65
v -0.1 -0.25 -0.65
v 0.2 -0.25 -0.65
v 0.3 -0.25 -0.65
v 0.4 -0.25 -0.65
v -0.3 -0.25 -0.95
v -0.2 -0.25 -0.95
v 0.3 -0.25 -0.95
v 0.4 -0.25 -0.95
v -0.1 -0.15 0.25
v 0.2 -0.15 0.25
v -0.2 -0.15 -0.0500001
v -0.1 -0.15 -0.0500001
v 0.2 -0.15 -0.0500001
v 0.3 -0.15 -0.0500001
v -0.3 -0.15 -0.35
v -0.2 -0.15 -0.35
v -0.1 -0.15 -0.35
v 0.2 -0.15 -0.35
v 0.3 -0.15 -0.35
v 0.4 -0.15 -0.35
v -0.3 -0.15 -0.65
v -0.2 -0.15 -0.65
v 0.3 -0.15 -0.65
v 0.4 -0.15 -0.65
v -0.1 -0.05 0.55
v 0.2 -0.05 0.55
v -0.2 -0.05 0.25
v -0.1 -0.05 0.25
v 0.2 -0.05 0.25
v 0.3 -0.05 0.25
v -0.3 -0.05 -0.0500001
v -0.2 -0.05 -0.0500001
v -0.1 -0.05 -0.0500001
v 0.2 -0.05 -0.0500001
v 0.3 -0.05 -0.0500001
v 0.4 -0.05 -0.0500001
v -0.3 -0.05 -0.35
v -0.2 -0.05 -0.35
v 0.3 -0.05 -0.35
v 0.4 -0.05 -0.35
v -0.1 0.05 0.85
v 0.2 0.05 0.85
v -0.2 0.05 0.55
v -0.1 0.05 0.55
v 0.2 0.05 0.55
v 0.3 0.05 0.55
v -0.3 0.05 0.25
v -0.2 0.05 0.25
v -0.1 0.05 0.25
v 0.2 0.05 0.25
v 0.3 0.05 0.25
v 0.4 0.05 0.25
v -0.3 0.05 -0.0500001
v -0.2 0.05 -0.0500001
v 0.3 0.05 -0.0500001
v 0.4 0.05 -0.0500001
v -0.1 0.15 1.15
v 0.2 0.15 1.15
v -0.2 0.15 0.85
v -0.1 0.15 0.85
v 0.2 0.15 0.85
v 0.3 0.15 0.85
v -0.3 0.15 0.55
v -0.2 0.15 0.55
v -0.1 0.15 0.55
v 0.2 0.15 0.55
v 0.3 0.15 0.55
v 0.4 0.15 0.55
v -0.3 0.15 0.25
v -0.2 0.15 0.25
v 0.3 0.15 0.25
v 0.4 0.15 0.25
v -0.2 0.25 1.15
v -0.1 0.25 1.15
v 0.2 0.25 1.15
v 0.3 0.25 1.15
v -0.3 0.25 0.85
v -0.2 0.25 0.85
v -0.1 0.25 0.85
v 0.2 0.25 0.85
v 0.3 0.25 0.85
v 0.4 0.25 0.85
v -0.3 0.25 0.55
v -0.2 0.25 0.55
v 0.3 0.25 0.55
v 0.4 0.25 0.55
v -0.3 0.35 1.15
v -0.2 0.35 1.15
v 0.3 0.35 1.15
v 0.4 0.35 1.15
v -0.3 0.35 0.85
v -0.2 0.35 0.85
v 0.3 0.35 0.85
v 0.4 0.35 0.85
v -0.3 0.05 -0.65
v -0.2 0.05 -0.65
v 0.3 0.05 -0.65
v 0.4 0.05 -0.65
v -0.3 0.05 -0.95
v -0.2 0.05 -0.95
v 0.3 0.05 -0.95
v 0.4 0.05 -0.95
v -0.3 0.15 -0.35
v -0.2 0.15 -0.35
v 0.3 0.15 -0.35
v 0.4 0.15 -0.35
v -0.3 0.15 -0.65
v -0.2 0.15 -0.65
v -0.1 0.15 -0.65
v 0.2 0.15 -0.65
v 0.3 0.15 -0.65
v 0.4 0.15 -0.65
v -0.2 0.15 -0.95
v -0.1 0.15 -0.95
v 0.2 0.15 -0.95
v 0.3 0.15 -0.95
v -0.3 0.25 -0.0500001
v -0.2 0.25 -0.0500001
v 0.3 0.25 -0.0500001
v 0.4 0.25 -0.0500001
v -0.3 0.25 -0.35
v -0.2 0.25 -0.35
v -0.1 0.25 -0.35
v 0.2 0.25 -0.35
v 0.3 0.25 -0.35
v 0.4 0.25 -0.35
v -0.2 0.25 -0.65
v -0.1 0.25 -0.65
v 0.2 0.25 -0.65
v 0.3 0.25 -0.65
v -0.1 0.25 -0.95
v 0.2 0.25 -0.95
v -0.3 0.35 0.25
v -0.2 0.35 0.25
v 0.3 0.35 0.25
v 0.4 0.35 0.25
v -0.3 0.35 -0.0500001
v -0.2 0.35 -0.0500001
v -0.1 0.35 -0.0500001
v 0.2 0.35 -0.0500001
v 0.3 0.35 -0.0500001
v 0.4 0.35 -0.0500001
v -0.2 0.35 -0.35
v -0.1 0.35 -0.35
v 0.2 0.35 -0.35
v 0.3 0.35 -0.35
v -0.1 0.35 -0.65
v 0.2 0.35 -0.65
v -0.3 0.45 0.55
v -0.2 0.45 0.55
v 0.3 0.45 0.55
v 0.4 0.45 0.55
v -0.3 0.45 0.25
v -0.2 0.45 0.25
v -0.1 0.45 0.25
v 0.2 0.45 0.25
v 0.3 0.45 0.25
v 0.4 0.45 0.25
v -0.2 0.45 -0.0500001
v -0.1 0.45 -0.0500001
v 0.2 0.45 -0.0500001
v 0.3 0.45 -0.0500001
v -0.1 0.45 -0.35
v 0.2 0.45 -0.35
v -1.2 0.45 -0.95
v -1.1 0.45 -0.95
v 1.1 0.45 -0.95
v 1.2 0.45 -0.95
v -1.2 0.45 -1.15
v -1.1 0.45 -1.15
v 1.1 0.45 -1.15
v 1.2 0.45 -1.15
v -0.3 0.55 0.85
v -0.2 0.55 0.85
v 0.3 0.55 0.85
v 0.4 0.55 0.85
v -0.3 0.55 0.55
v -0.2 0.55 0.55
v -0.1 0.55 0.55
v 0.2 0.55 0.55
v 0.3 0.55 0.55
v 0.4 0.55 0.55
v -0.2 0.55 0.25
v -0.1 0.55 0.25
v 0.2 0.55 0.25
v 0.3 0.55 0.25
v -0.1 0.55 -0.0500001
v 0.2 0.55 -0.0500001
v -1.1 0.55 -0.95
v 1.1 0.55 -0.95
v -1.1 0.55 -1.15
v 1.1 0.55 -1.15
v -0.3 0.65 1.15
v -0.2 0.65 1.15
v 0.3 0.65 1.15
v 0.4 0.65 1.15
v -0.3 0.65 0.85
v -0.2 0.65 0.85
v -0.1 0.65 0.85
v 0.2 0.65 0.85
v 0.3 0.65 0.85
v 0.4 0.65 0.85
v -0.2 0.65 0.55
v -0.1 0.65 0.55
v 0.2 0.65 0.55
v 0.3 0.65 0.55
v -0.1 0.65 0.25
v 0.2 0.65 0.25
v -0.2 0.75 1.15
v -0.1 0.75 1.15
v 0.2 0.75 1.15
v 0.3 0.75 1.15
v -0.2 0.75 0.85
v -0.1 0.75 0.85
v 0.2 0.75 0.85
v 0.3 0.75 0.85
v -0.1 0.75 0.55
v 0.2 0.75 0.55
v -0.1 0.85 1.15
v 0.2 0.85 1.15
v -0.1 0.85 0.85
v 0.2 0.85 0.85

# faces
f 3/4/1 2/4/1 1/4/1
f 4/4/1 2/4/1 3/4/1
f 7/4/1 6/4/1 5/4/1
f 8/4/1 6/4/1 7/4/1
f 11/4/1 10/4/1 9/4/1
f 12/4/1 10/4/1 11/4/1
f 16/1/1 14/1/1 13/1/1
f 18/1/1 16/1/1 15/1/1
f 20/1/1 18/1/1 17/1/1
f 21/1/1 14/1/1 16/1/1
f 21/1/1 16/1/1 18/1/1
f 21/1/1 18/1/1 20/1/1
f 22/1/1 14/1/1 21/1/1
f 24/1/1 20/1/1 19/1/1
f 24/1/1 21/1/1 20/1/1
f 25/1/1 21/1/1 24/1/1
f 26/1/1 21/1/1 25/1/1
f 28/1/1 24/1/1 23/1/1
f 28/1/1 25/1/1 24/1/1
f 29/1/1 25/1/1 28/1/1
f 30/1/1 25/1/1 29/1/1
f 32/1/1 28/1/1 27/1/1
f 32/1/1 29/1/1 28/1/1
f 33/1/1 29/1/1 32/1/1
f 34/1/1 29/1/1 33/1/1
f 35/1/1 32/1/1 31/1/1
f 35/1/1 33/1/1 32/1/1
f 36/1/1 33/1/1 35/1/1
f 37/1/1 35/1/1 31/1/1
f 38/1/1 35/1/1 37/1/1
f 39/1/1 37/1/1 31/1/1
f 40/1/1 37/1/1 39/1/1
f 44/1/1 42/1/1 41/1/1
f 45/1/1 42/1/1 44/1/1
f 47/1/1 44/1/1 43/1/1
f 48/1/1 44/1/1 47/1/1
f 50/1/1 47/1/1 46/1/1
f 51/1/1 47/1/1 50/1/1
f 53/1/1 50/1/1 49/1/1
f 54/1/1 50/1/1 53/1/1
f 58/1/1 53/1/1 52/1/1
f 59/1/1 53/1/1 58/1/1
f 61/1/1 56/1/1 55/1/1
f 62/1/1 56/1/1 61/1/1
f 64/1/1 58/1/1 57/1/1
f 65/1/1 58/1/1 64/1/1
f 67/1/1 61/1/1 60/1/1
f 68/1/1 61/1/1 67/1/1
f 69/1/1 64/1/1 63/1/1
f 70/1/1 64/1/1 69/1/1
f 72/1/1 67/1/1 66/1/1
f 73/1/1 67/1/1 72/1/1
f 75/1/1 72/1/1 71/1/1
f 76/1/1 72/1/1 75/1/1
f 78/1/1 75/1/1 74/1/1
f 79/1/1 75/1/1 78/1/1
f 81/1/1 78/1/1 77/1/1
f 82/1/1 78/1/1 81/1/1
f 83/1/1 81/1/1 80/1/1
f 84/1/1 81/1/1 83/1/1
f 88/1/1 86/1/1 85/1/1
f 89/1/1 86/1/1 88/1/1
f 91/1/1 88/1/1 87/1/1
f 92/1/1 88/1/1 91/1/1
f 94/1/1 91/1/1 90/1/1
f 95/1/1 91/1/1 94/1/1
f 97/1/1 94/1/1 93/1/1
f 98/1/1 94/1/1 97/1/1
f 100/1/1 97/1/1 96/1/1
f 101/1/1 97/1/1 100/1/1
f 103/1/1 100/1/1 99/1/1
f 104/1/1 100/1/1 103/1/1
f 107/1/1 103/1/1 102/1/1
f 108/1/1 103/1/1 107/1/1
f 110/1/1 106/1/1 105/1/1
f 111/1/1 106/1/1 110/1/1
f 113/1/1 110/1/1 109/1/1
f 114/1/1 110/1/1 113/1/1
f 116/1/1 113/1/1 112/1/1
f 117/1/1 113/1/1 116/1/1
f 119/1/1 116/1/1 115/1/1
f 120/1/1 116/1/1 119/1/1
f 122/1/1 119/1/1 118/1/1
f 123/1/1 119/1/1 122/1/1
f 125/1/1 122/1/1 121/1/1
f 126/1/1 122/1/1 125/1/1
f 127/1/1 125/1/1 124/1/1
f 128/1/1 125/1/1 127/1/1
f 129/1/2 130/1/2 132/1/2
f 132/1/2 130/1/2 133/1/2
f 131/1/2 132/1/2 135/1/2
f 135/1/2 132/1/2 136/1/2
f 134/1/2 135/1/2 138/1/2
f 138/1/2 135/1/2 139/1/2
f 137/1/2 138/1/2 141/1/2
f 141/1/2 138/1/2 142/1/2
f 140/1/2 141/1/2 144/1/2
f 144/1/2 141/1/2 145/1/2
f 143/1/2 144/1/2 147/1/2
f 147/1/2 144/1/2 148/1/2
f 146/1/2 147/1/2 151/1/2
f 151/1/2 147/1/2 152/1/2
f 149/1/2 150/1/2 154/1/2
f 154/1/2 150/1/2 155/1/2
f 153/1/2 154/1/2 157/1/2
f 157/1/2 154/1/2 158/1/2
f 156/1/2 157/1/2 160/1/2
f 160/1/2 157/1/2 161/1/2
f 159/1/2 160/1/2 163/1/2
f 163/1/2 160/1/2 164/1/2
f 162/1/2 163/1/2 166/1/2
f 166/1/2 163/1/2 167/1/2
f 165/1/2 166/1/2 169/1/2
f 169/1/2 166/1/2 170/1/2
f 168/1/2 169/1/2 171/1/2
f 171/1/2 169/1/2 172/1/2
f 173/1/2 174/1/2 176/1/2
f 176/1/2 174/1/2 177/1/2
f 175/1/2 176/1/2 179/1/2
f 179/1/2 176/1/2 180/1/2
f 178/1/2 179/1/2 182/1/2
f 182/1/2 179/1/2 183/1/2
f 181/1/2 182/1/2 185/1/2
f 185/1/2 182/1/2 186/1/2
f 184/1/2 185/1/2 190/1/2
f 190/1/2 185/1/2 191/1/2
f 187/1/2 188/1/2 193/1/2
f 193/1/2 188/1/2 194/1/2
f 189/1/2 190/1/2 196/1/2
f 196/1/2 190/1/2 197/1/2
f 192/1/2 193/1/2 199/1/2
f 199/1/2 193/1/2 200/1/2
f 195/1/2 196/1/2 201/1/2
f 201/1/2 196/1/2 202/1/2
f 198/1/2 199/1/2 204/1/2
f 204/1/2 199/1/2 205/1/2
f 203/1/2 204/1/2 207/1/2
f 207/1/2 204/1/2 208/1/2
f 206/1/2 207/1/2 210/1/2
f 210/1/2 207/1/2 211/1/2
f 209/1/2 210/1/2 213/1/2
f 213/1/2 210/1/2 214/1/2
f 212/1/2 213/1/2 215/1/2
f 215/1/2 213/1/2 216/1/2
f 217/1/2 218/1/2 220/1/2
f 219/1/2 220/1/2 222/1/2
f 221/1/2 222/1/2 224/1/2
f 220/1/2 218/1/2 225/1/2
f 222/1/2 220/1/2 225/1/2
f 224/1/2 222/1/2 225/1/2
f 225/1/2 218/1/2 226/1/2
f 223/1/2 224/1/2 228/1/2
f 224/1/2 225/1/2 228/1/2
f 228/1/2 225/1/2 229/1/2
f 229/1/2 225/1/2 230/1/2
f 227/1/2 228/1/2 232/1/2
f 228/1/2 229/1/2 232/1/2
f 232/1/2 229/1/2 233/1/2
f 233/1/2 229/1/2 234/1/2
f 231/1/2 232/1/2 236/1/2
f 232/1/2 233/1/2 236/1/2
f 236/1/2 233/1/2 237/1/2
f 237/1/2 233/1/2 238/1/2
f 235/1/2 236/1/2 239/1/2
f 236/1/2 237/1/2 239/1/2
f 239/1/2 237/1/2 240/1/2
f 235/1/2 239/1/2 241/1/2
f 241/1/2 239/1/2 242/1/2
f 235/1/2 241/1/2 243/1/2
f 243/1/2 241/1/2 244/1/2
f 245/4/2 246/4/2 247/4/2
f 247/4/2 246/4/2 248/4/2
f 249/4/2 250/4/2 251/4/2
f 251/4/2 250/4/2 252/4/2
f 253/4/2 254/4/2 255/4/2
f 255/4/2 254/4/2 256/4/2
f 260/1/3 258/1/3 257/1/3
f 261/1/3 258/1/3 260/1/3
f 264/1/3 260/1/3 259/1/3
f 264/1/3 262/1/3 261/1/3
f 264/1/3 261/1/3 260/1/3
f 265/1/3 262/1/3 264/1/3
f 267/1/3 264/1/3 263/1/3
f 267/1/3 266/1/3 265/1/3
f 267/1/3 265/1/3 264/1/3
f 268/1/3 266/1/3 267/1/3
f 269/1/3 266/1/3 268/1/3
f 270/1/3 266/1/3 269/1/3
f 271/1/3 269/1/3 268/1/3
f 272/1/3 269/1/3 271/1/3
f 273/1/3 269/1/3 272/1/3
f 274/1/3 269/1/3 273/1/3
f 275/1/3 273/1/3 272/1/3
f 276/1/3 273/1/3 275/1/3
f 280/1/3 278/1/3 277/1/3
f 281/1/3 278/1/3 280/1/3
f 283/1/3 280/1/3 279/1/3
f 284/1/3 280/1/3 283/1/3
f 285/1/3 283/1/3 282/1/3
f 286/1/3 283/1/3 285/1/3
f 288/1/3 287/1/3 286/1/3
f 289/1/3 287/1/3 288/1/3
f 291/1/3 290/1/3 289/1/3
f 292/1/3 290/1/3 291/1/3
f 296/1/3 294/1/3 293/1/3
f 297/1/3 294/1/3 296/1/3
f 299/1/3 296/1/3 295/1/3
f 300/1/3 296/1/3 299/1/3
f 301/1/3 299/1/3 298/1/3
f 302/1/3 299/1/3 301/1/3
f 304/1/3 303/1/3 302/1/3
f 305/1/3 303/1/3 304/1/3
f 307/1/3 306/1/3 305/1/3
f 308/1/3 306/1/3 307/1/3
f 312/1/3 310/1/3 309/1/3
f 313/1/3 310/1/3 312/1/3
f 315/1/3 312/1/3 311/1/3
f 316/1/3 312/1/3 315/1/3
f 317/1/3 315/1/3 314/1/3
f 318/1/3 315/1/3 317/1/3
f 320/1/3 319/1/3 318/1/3
f 321/1/3 319/1/3 320/1/3
f 323/1/3 322/1/3 321/1/3
f 324/1/3 322/1/3 323/1/3
f 328/1/3 326/1/3 325/1/3
f 329/1/3 326/1/3 328/1/3
f 331/1/3 328/1/3 327/1/3
f 332/1/3 328/1/3 331/1/3
f 333/1/3 331/1/3 330/1/3
f 334/1/3 331/1/3 333/1/3
f 336/1/3 335/1/3 334/1/3
f 337/1/3 335/1/3 336/1/3
f 339/1/3 338/1/3 337/1/3
f 340/1/3 338/1/3 339/1/3
f 344/1/3 342/1/3 341/1/3
f 345/1/3 342/1/3 344/1/3
f 347/1/3 344/1/3 343/1/3
f 348/1/3 344/1/3 347/1/3
f 349/1/3 347/1/3 346/1/3
f 350/1/3 347/1/3 349/1/3
f 352/1/3 351/1/3 350/1/3
f 353/1/3 351/1/3 352/1/3
f 355/1/3 354/1/3 353/1/3
f 356/1/3 354/1/3 355/1/3
f 360/1/3 358/1/3 357/1/3
f 361/1/3 358/1/3 360/1/3
f 363/1/3 360/1/3 359/1/3
f 364/1/3 360/1/3 363/1/3
f 365/1/3 363/1/3 362/1/3
f 366/1/3 363/1/3 365/1/3
f 368/1/3 367/1/3 366/1/3
f 369/1/3 367/1/3 368/1/3
f 371/1/3 370/1/3 369/1/3
f 372/1/3 370/1/3 371/1/3
f 376/4/3 374/4/3 373/4/3
f 377/4/3 374/4/3 376/4/3
f 379/4/3 376/4/3 375/4/3
f 379/4/3 378/4/3 377/4/3
f 379/4/3 377/4/3 376/4/3
f 380/4/3 378/4/3 379/4/3
f 381/4/3 379/4/3 375/4/3
f 382/4/3 379/4/3 381/4/3
f 383/4/3 378/4/3 380/4/3
f 384/4/3 378/4/3 383/4/3
f 385/4/3 381/4/3 375/4/3
f 386/4/3 381/4/3 385/4/3
f 387/4/3 378/4/3 384/4/3
f 388/4/3 378/4/3 387/4/3
f 389/4/3 385/4/3 375/4/3
f 392/4/3 378/4/3 388/4/3
f 393/4/3 390/4/3 389/4/3
f 396/4/3 392/4/3 391/4/3
f 397/4/3 394/4/3 393/4/3
f 398/4/3 396/4/3 395/4/3
f 399/4/3 397/4/3 393/4/3
f 399/4/3 398/4/3 397/4/3
f 399/4/3 389/4/3 375/4/3
f 399/4/3 393/4/3 389/4/3
f 400/4/3 398/4/3 399/4/3
f 401/4/3 396/4/3 398/4/3
f 401/4/3 398/4/3 400/4/3
f 401/4/3 378/4/3 392/4/3
f 401/4/3 392/4/3 396/4/3
f 402/4/3 378/4/3 401/4/3
f 403/4/3 401/4/3 400/4/3
f 404/4/3 401/4/3 403/4/3
f 405/1/4 406/1/4 407/1/4
f 407/1/4 406/1/4 408/1/4
f 408/1/4 409/1/4 410/1/4
f 410/1/4 409/1/4 411/1/4
f 411/1/4 412/1/4 414/1/4
f 414/1/4 412/1/4 415/1/4
f 413/1/4 414/1/4 417/1/4
f 417/1/4 414/1/4 418/1/4
f 416/1/4 417/1/4 419/1/4
f 419/1/4 417/1/4 420/1/4
f 421/1/4 422/1/4 423/1/4
f 423/1/4 422/1/4 424/1/4
f 424/1/4 425/1/4 426/1/4
f 426/1/4 425/1/4 427/1/4
f 427/1/4 428/1/4 430/1/4
f 430/1/4 428/1/4 431/1/4
f 429/1/4 430/1/4 433/1/4
f 433/1/4 430/1/4 434/1/4
f 432/1/4 433/1/4 435/1/4
f 435/1/4 433/1/4 436/1/4
f 437/1/4 438/1/4 439/1/4
f 439/1/4 438/1/4 440/1/4
f 440/1/4 441/1/4 442/1/4
f 442/1/4 441/1/4 443/1/4
f 443/1/4 444/1/4 446/1/4
f 446/1/4 444/1/4 447/1/4
f 445/1/4 446/1/4 449/1/4
f 449/1/4 446/1/4 450/1/4
f 448/1/4 449/1/4 451/1/4
f 451/1/4 449/1/4 452/1/4
f 453/1/4 454/1/4 455/1/4
f 455/1/4 454/1/4 456/1/4
f 456/1/4 457/1/4 458/1/4
f 458/1/4 457/1/4 459/1/4
f 459/1/4 460/1/4 462/1/4
f 462/1/4 460/1/4 463/1/4
f 461/1/4 462/1/4 465/1/4
f 465/1/4 462/1/4 466/1/4
f 464/1/4 465/1/4 467/1/4
f 467/1/4 465/1/4 468/1/4
f 469/1/4 470/1/4 471/1/4
f 471/1/4 470/1/4 472/1/4
f 472/1/4 473/1/4 474/1/4
f 474/1/4 473/1/4 475/1/4
f 475/1/4 476/1/4 478/1/4
f 478/1/4 476/1/4 479/1/4
f 477/1/4 478/1/4 481/1/4
f 481/1/4 478/1/4 482/1/4
f 480/1/4 481/1/4 483/1/4
f 483/1/4 481/1/4 484/1/4
f 485/1/4 486/1/4 487/1/4
f 487/1/4 486/1/4 488/1/4
f 488/1/4 489/1/4 490/1/4
f 490/1/4 489/1/4 491/1/4
f 491/1/4 492/1/4 494/1/4
f 494/1/4 492/1/4 495/1/4
f 493/1/4 494/1/4 497/1/4
f 497/1/4 494/1/4 498/1/4
f 496/1/4 497/1/4 499/1/4
f 499/1/4 497/1/4 500/1/4
f 501/4/4 502/4/4 504/4/4
f 504/4/4 502/4/4 505/4/4
f 505/4/4 502/4/4 506/4/4
f 506/4/4 502/4/4 507/4/4
f 507/4/4 502/4/4 508/4/4
f 508/4/4 502/4/4 509/4/4
f 509/4/4 502/4/4 510/4/4
f 504/2/4 505/2/4 512/2/4
f 505/3/4 506/3/4 512/3/4
f 506/2/4 507/2/4 513/2/4
f 512/3/4 506/3/4 513/3/4
f 513/2/4 507/2/4 514/2/4
f 514/2/4 507/2/4 515/2/4
f 507/3/4 508/3/4 516/3/4
f 515/2/4 507/2/4 516/2/4
f 516/3/4 508/3/4 517/3/4
f 517/3/4 508/3/4 518/3/4
f 508/2/4 509/2/4 519/2/4
f 518/3/4 508/3/4 519/3/4
f 519/2/4 509/2/4 520/2/4
f 509/3/4 510/3/4 521/3/4
f 520/2/4 509/2/4 521/2/4
f 510/4/4 511/4/4 522/4/4
f 521/3/4 510/3/4 522/3/4
f 512/2/4 513/2/4 523/2/4
f 513/2/4 514/2/4 523/2/4
f 514/3/4 515/3/4 524/3/4
f 523/2/4 514/2/4 524/2/4
f 515/2/4 516/2/4 525/2/4
f 524/3/4 515/3/4 525/3/4
f 516/2/4 517/2/4 525/2/4
f 517/3/4 518/3/4 526/3/4
f 525/2/4 517/2/4 526/2/4
f 518/2/4 519/2/4 527/2/4
f 526/3/4 518/3/4 527/3/4
f 527/2/4 519/2/4 528/2/4
f 520/2/4 521/2/4 529/2/4
f 519/3/4 520/3/4 529/3/4
f 521/2/4 522/2/4 529/2/4
f 529/2/4 522/2/4 530/2/4
f 503/4/4 504/4/4 531/4/4
f 504/2/4 512/2/4 531/2/4
f 512/2/4 523/2/4 531/2/4
f 531/2/4 523/2/4 532/2/4
f 524/2/4 525/2/4 533/2/4
f 523/3/4 524/3/4 533/3/4
f 527/3/4 528/3/4 534/3/4
f 533/2/4 525/2/4 534/2/4
f 526/3/4 527/3/4 534/3/4
f 525/3/4 526/3/4 534/3/4
f 534/3/4 528/3/4 535/3/4
f 535/3/4 528/3/4 536/3/4
f 528/2/4 519/2/4 537/2/4
f 536/3/4 528/3/4 537/3/4
f 529/3/4 530/3/4 538/3/4
f 537/2/4 519/2/4 538/2/4
f 519/3/4 529/3/4 538/3/4
f 538/3/4 530/3/4 539/3/4
f 503/4/4 531/4/4 540/4/4
f 531/3/4 532/3/4 540/3/4
f 532/2/4 523/2/4 541/2/4
f 540/3/4 532/3/4 541/3/4
f 523/3/4 533/3/4 542/3/4
f 541/2/4 523/2/4 542/2/4
f 533/3/4 534/3/4 542/3/4
f 534/2/4 535/2/4 543/2/4
f 542/3/4 534/3/4 543/3/4
f 535/3/4 536/3/4 544/3/4
f 543/2/4 535/2/4 544/2/4
f 536/2/4 537/2/4 545/2/4
f 544/3/4 536/3/4 545/3/4
f 537/3/4 538/3/4 546/3/4
f 545/2/4 537/2/4 546/2/4
f 538/2/4 539/2/4 547/2/4
f 546/3/4 538/3/4 547/3/4
f 539/3/4 530/3/4 548/3/4
f 547/2/4 539/2/4 548/2/4
f 530/2/4 522/2/4 549/2/4
f 548/3/4 530/3/4 549/3/4
f 540/2/4 541/2/4 550/2/4
f 503/4/4 540/4/4 550/4/4
f 541/3/4 542/3/4 551/3/4
f 550/2/4 541/2/4 551/2/4
f 542/2/4 543/2/4 552/2/4
f 551/3/4 542/3/4 552/3/4
f 543/3/4 544/3/4 553/3/4
f 552/2/4 543/2/4 553/2/4
f 545/3/4 546/3/4 553/3/4
f 544/3/4 545/3/4 553/3/4
f 553/3/4 546/3/4 554/3/4
f 554/3/4 546/3/4 555/3/4
f 555/3/4 546/3/4 556/3/4
f 550/3/4 551/3/4 557/3/4
f 551/2/4 552/2/4 557/2/4
f 552/2/4 553/2/4 557/2/4
f 553/2/4 554/2/4 557/2/4
f 557/2/4 554/2/4 558/2/4
f 558/2/4 554/2/4 559/2/4
f 559/2/4 554/2/4 560/2/4
f 554/3/4 555/3/4 561/3/4
f 560/2/4 554/2/4 561/2/4
f 555/2/4 556/2/4 562/2/4
f 561/3/4 555/3/4 562/3/4
f 556/3/4 546/3/4 563/3/4
f 562/2/4 556/2/4 563/2/4
f 547/2/4 548/2/4 564/2/4
f 563/3/4 546/3/4 564/3/4
f 548/2/4 549/2/4 564/2/4
f 546/2/4 547/2/4 564/2/4
f 564/2/4 549/2/4 565/2/4
f 549/2/4 522/2/4 566/2/4
f 565/2/4 549/2/4 566/2/4
f 522/4/4 511/4/4 566/4/4
f 558/2/4 559/2/4 567/2/4
f 559/3/4 560/3/4 567/3/4
f 561/2/4 562/2/4 568/2/4
f 567/3/4 560/3/4 568/3/4
f 560/2/4 561/2/4 568/2/4
f 568/2/4 562/2/4 569/2/4
f 562/3/4 563/3/4 570/3/4
f 569/2/4 562/2/4 570/2/4
f 564/2/4 565/2/4 571/2/4
f 563/2/4 564/2/4 571/2/4
f 565/3/4 566/3/4 572/3/4
f 571/2/4 565/2/4 572/2/4
f 566/4/4 511/4/4 573/4/4
f 572/3/4 566/3/4 573/3/4
f 550/3/4 557/3/4 574/3/4
f 503/4/4 550/4/4 574/4/4
f 557/3/4 558/3/4 574/3/4
f 574/3/4 558/3/4 575/3/4
f 568/2/4 569/2/4 576/2/4
f 567/2/4 568/2/4 576/2/4
f 569/3/4 570/3/4 577/3/4
f 576/2/4 569/2/4 577/2/4
f 570/3/4 563/3/4 578/3/4
f 577/3/4 570/3/4 578/3/4
f 563/2/4 571/2/4 579/2/4
f 578/3/4 563/3/4 579/3/4
f 571/3/4 572/3/4 580/3/4
f 579/2/4 571/2/4 580/2/4
f 580/3/4 572/3/4 581/3/4
f 572/2/4 573/2/4 582/2/4
f 581/3/4 572/3/4 582/3/4
f 582/2/4 573/2/4 583/2/4
f 574/2/4 575/2/4 584/2/4
f 503/4/4 574/4/4 584/4/4
f 575/3/4 558/3/4 585/3/4
f 584/2/4 575/2/4 585/2/4
f 558/2/4 567/2/4 586/2/4
f 585/3/4 558/3/4 586/3/4
f 567/2/4 576/2/4 586/2/4
f 586/2/4 576/2/4 587/2/4
f 576/3/4 577/3/4 588/3/4
f 587/2/4 576/2/4 588/2/4
f 577/3/4 578/3/4 588/3/4
f 580/3/4 581/3/4 589/3/4
f 581/2/4 582/2/4 589/2/4
f 579/3/4 580/3/4 589/3/4
f 582/3/4 583/3/4 590/3/4
f 589/2/4 582/2/4 590/2/4
f 583/2/4 573/2/4 591/2/4
f 590/3/4 583/3/4 591/3/4
f 584/3/4 585/3/4 592/3/4
f 586/2/4 587/2/4 592/2/4
f 585/2/4 586/2/4 592/2/4
f 587/3/4 588/3/4 593/3/4
f 592/2/4 587/2/4 593/2/4
f 578/2/4 579/2/4 594/2/4
f 589/3/4 590/3/4 594/3/4
f 579/3/4 589/3/4 594/3/4
f 590/2/4 591/2/4 595/2/4
f 594/3/4 590/3/4 595/3/4
f 591/2/4 573/2/4 596/2/4
f 595/2/4 591/2/4 596/2/4
f 592/3/4 593/3/4 597/3/4
f 593/3/4 588/3/4 598/3/4
f 597/3/4 593/3/4 598/3/4
f 588/3/4 578/3/4 599/3/4
f 598/3/4 588/3/4 599/3/4
f 594/2/4 595/2/4 600/2/4
f 599/3/4 578/3/4 600/3/4
f 578/2/4 594/2/4 600/2/4
f 600/2/4 595/2/4 601/2/4
f 595/3/4 596/3/4 602/3/4
f 596/2/4 573/2/4 602/2/4
f 573/4/4 511/4/4 603/4/4
f 602/2/4 573/2/4 603/2/4
f 503/4/4 584/4/4 604/4/4
f 592/3/4 597/3/4 604/3/4
f 584/3/4 592/3/4 604/3/4
f 597/2/4 598/2/4 605/2/4
f 604/3/4 597/3/4 605/3/4
f 598/3/4 599/3/4 606/3/4
f 605/2/4 598/2/4 606/2/4
f 606/3/4 599/3/4 607/3/4
f 599/2/4 600/2/4 608/2/4
f 600/3/4 601/3/4 608/3/4
f 601/2/4 595/2/4 609/2/4
f 608/3/4 601/3/4 609/3/4
f 609/2/4 595/2/4 610/2/4
f 610/2/4 595/2/4 611/2/4
f 595/3/4 602/3/4 612/3/4
f 611/2/4 595/2/4 612/2/4
f 602/3/4 603/3/4 612/3/4
f 604/2/4 605/2/4 613/2/4
f 606/2/4 607/2/4 613/2/4
f 605/2/4 606/2/4 613/2/4
f 607/3/4 599/3/4 614/3/4
f 613/2/4 607/2/4 614/2/4
f 599/2/4 608/2/4 615/2/4
f 614/3/4 599/3/4 615/3/4
f 608/2/4 609/2/4 615/2/4
f 609/3/4 610/3/4 616/3/4
f 615/2/4 609/2/4 616/2/4
f 610/2/4 611/2/4 617/2/4
f 616/3/4 610/3/4 617/3/4
f 611/3/4 612/3/4 618/3/4
f 617/2/4 611/2/4 618/2/4
f 612/3/4 603/3/4 619/3/4
f 618/3/4 612/3/4 619/3/4
f 613/3/4 614/3/4 620/3/4
f 604/2/4 613/2/4 620/2/4
f 614/2/4 615/2/4 621/2/4
f 620/3/4 614/3/4 621/3/4
f 615/3/4 616/3/4 622/3/4
f 616/2/4 617/2/4 622/2/4
f 617/3/4 618/3/4 623/3/4
f 622/2/4 617/2/4 623/2/4
f 618/2/4 619/2/4 624/2/4
f 623/3/4 618/3/4 624/3/4
f 619/3/4 603/3/4 625/3/4
f 624/2/4 619/2/4 625/2/4
f 503/4/4 604/4/4 626/4/4
f 604/2/4 620/2/4 626/2/4
f 620/2/4 621/2/4 626/2/4
f 626/2/4 621/2/4 627/2/4
f 621/2/4 615/2/4 628/2/4
f 627/2/4 621/2/4 628/2/4
f 615/3/4 622/3/4 629/3/4
f 628/2/4 615/2/4 629/2/4
f 622/3/4 623/3/4 629/3/4
f 629/3/4 623/3/4 630/3/4
f 623/2/4 624/2/4 631/2/4
f 630/3/4 623/3/4 631/3/4
f 624/3/4 625/3/4 632/3/4
f 631/2/4 624/2/4 632/2/4
f 632/3/4 625/3/4 633/3/4
f 625/3/4 603/3/4 634/3/4
f 633/3/4 625/3/4 634/3/4
f 626/3/4 627/3/4 635/3/4
f 635/3/4 627/3/4 636/3/4
f 629/2/4 630/2/4 637/2/4
f 628/3/4 629/3/4 637/3/4
f 637/2/4 630/2/4 638/2/4
f 632/3/4 633/3/4 639/3/4
f 630/3/4 631/3/4 639/3/4
f 631/3/4 632/3/4 639/3/4
f 633/2/4 634/2/4 639/2/4
f 634/3/4 603/3/4 640/3/4
f 639/2/4 634/2/4 640/2/4
f 503/4/4 626/4/4 641/4/4
f 626/3/4 635/3/4 641/3/4
f 635/2/4 636/2/4 642/2/4
f 641/3/4 635/3/4 642/3/4
f 636/3/4 627/3/4 643/3/4
f 642/2/4 636/2/4 643/2/4
f 627/2/4 628/2/4 644/2/4
f 643/3/4 627/3/4 644/3/4
f 638/2/4 630/2/4 645/2/4
f 637/3/4 638/3/4 645/3/4
f 630/3/4 639/3/4 646/3/4
f 645/2/4 630/2/4 646/2/4
f 639/3/4 640/3/4 646/3/4
f 646/3/4 640/3/4 647/3/4
f 603/4/4 511/4/4 648/4/4
f 647/3/4 640/3/4 648/3/4
f 640/3/4 603/3/4 648/3/4
f 642/2/4 643/2/4 649/2/4
f 641/2/4 642/2/4 649/2/4
f 643/2/4 644/2/4 649/2/4
f 503/4/4 641/4/4 649/4/4
f 649/2/4 644/2/4 650/2/4
f 644/2/4 628/2/4 651/2/4
f 650/2/4 644/2/4 651/2/4
f 646/3/4 647/3/4 652/3/4
f 651/2/4 628/2/4 652/2/4
f 637/3/4 645/3/4 652/3/4
f 628/3/4 637/3/4 652/3/4
f 645/3/4 646/3/4 652/3/4
f 652/3/4 647/3/4 653/3/4
f 653/3/4 647/3/4 654/3/4
f 647/2/4 648/2/4 655/2/4
f 654/3/4 647/3/4 655/3/4
f 648/4/4 511/4/4 656/4/4
f 655/2/4 648/2/4 656/2/4
f 503/4/4 649/4/4 657/4/4
f 649/3/4 650/3/4 657/3/4
f 657/3/4 650/3/4 658/3/4
f 652/2/4 653/2/4 659/2/4
f 659/2/4 653/2/4 660/2/4
f 654/2/4 655/2/4 661/2/4
f 655/3/4 656/3/4 661/3/4
f 661/3/4 656/3/4 662/3/4
f 662/3/4 656/3/4 663/3/4
f 656/4/4 511/4/4 664/4/4
f 663/3/4 656/3/4 664/3/4
f 503/4/4 657/4/4 665/4/4
f 657/2/4 658/2/4 665/2/4
f 658/3/4 650/3/4 666/3/4
f 665/2/4 658/2/4 666/2/4
f 650/2/4 651/2/4 667/2/4
f 666/3/4 650/3/4 667/3/4
f 651/3/4 652/3/4 668/3/4
f 667/2/4 651/2/4 668/2/4
f 660/2/4 653/2/4 669/2/4
f 659/3/4 660/3/4 669/3/4
f 653/3/4 654/3/4 670/3/4
f 669/2/4 653/2/4 670/2/4
f 654/2/4 661/2/4 671/2/4
f 670/3/4 654/3/4 671/3/4
f 661/2/4 662/2/4 671/2/4
f 671/2/4 662/2/4 672/2/4
f 662/3/4 663/3/4 673/3/4
f 672/2/4 662/2/4 673/2/4
f 663/2/4 664/2/4 674/2/4
f 673/3/4 663/3/4 674/3/4
f 664/4/4 511/4/4 675/4/4
f 674/2/4 664/2/4 675/2/4
f 665/3/4 666/3/4 676/3/4
f 668/3/4 652/3/4 676/3/4
f 667/3/4 668/3/4 676/3/4
f 666/3/4 667/3/4 676/3/4
f 652/2/4 659/2/4 676/2/4
f 659/3/4 669/3/4 677/3/4
f 676/2/4 659/2/4 677/2/4
f 671/3/4 672/3/4 677/3/4
f 670/3/4 671/3/4 677/3/4
f 669/3/4 670/3/4 677/3/4
f 677/3/4 672/3/4 678/3/4
f 678/3/4 672/3/4 679/3/4
f 672/2/4 673/2/4 680/2/4
f 679/3/4 672/3/4 680/3/4
f 673/2/4 674/2/4 680/2/4
f 674/3/4 675/3/4 681/3/4
f 680/2/4 674/2/4 681/2/4
f 675/4/4 511/4/4 682/4/4
f 681/3/4 675/3/4 682/3/4
f 503/4/4 665/4/4 683/4/4
f 665/3/4 676/3/4 684/3/4
f 683/4/4 665/4/4 684/4/4
f 676/3/4 677/3/4 684/3/4
f 677/2/4 678/2/4 685/2/4
f 684/3/4 677/3/4 685/3/4
f 678/3/4 679/3/4 686/3/4
f 685/2/4 678/2/4 686/2/4
f 680/2/4 681/2/4 687/2/4
f 686/3/4 679/3/4 687/3/4
f 679/2/4 680/2/4 687/2/4
f 681/2/4 682/2/4 687/2/4
f 682/4/4 511/4/4 688/4/4
f 687/2/4 682/2/4 688/2/4
f 688/4/4 511/4/4 689/4/4
f 685/4/4 686/4/4 690/4/4
f 686/4/4 687/4/4 690/4/4
f 687/4/4 688/4/4 690/4/4
f 684/4/4 685/4/4 690/4/4
f 690/4/4 688/4/4 691/4/4
f 694/4/5 693/4/5 692/4/5
f 695/4/5 693/4/5 694/4/5
f 700/4/5 697/4/5 696/4/5
f 701/4/5 697/4/5 700/4/5
f 702/4/5 699/4/5 698/4/5
f 703/4/5 699/4/5 702/4/5
f 706/1/5 705/1/5 704/1/5
f 707/1/5 705/1/5 706/1/5
f 711/1/5 709/1/5 708/1/5
f 712/1/5 709/1/5 711/1/5
f 714/1/5 711/1/5 710/1/5
f 715/1/5 711/1/5 714/1/5
f 716/1/5 713/1/5 712/1/5
f 717/1/5 713/1/5 716/1/5
f 721/1/5 719/1/5 718/1/5
f 722/1/5 719/1/5 721/1/5
f 725/1/5 721/1/5 720/1/5
f 726/1/5 721/1/5 725/1/5
f 727/1/5 723/1/5 722/1/5
f 728/1/5 723/1/5 727/1/5
f 730/1/5 725/1/5 724/1/5
f 731/1/5 725/1/5 730/1/5
f 732/1/5 729/1/5 728/1/5
f 733/1/5 729/1/5 732/1/5
f 737/1/5 735/1/5 734/1/5
f 738/1/5 735/1/5 737/1/5
f 741/1/5 737/1/5 736/1/5
f 742/1/5 737/1/5 741/1/5
f 743/1/5 739/1/5 738/1/5
f 744/1/5 739/1/5 743/1/5
f 746/1/5 741/1/5 740/1/5
f 747/1/5 741/1/5 746/1/5
f 748/1/5 745/1/5 744/1/5
f 749/1/5 745/1/5 748/1/5
f 753/1/5 751/1/5 750/1/5
f 754/1/5 751/1/5 753/1/5
f 757/1/5 753/1/5 752/1/5
f 758/1/5 753/1/5 757/1/5
f 759/1/5 755/1/5 754/1/5
f 760/1/5 755/1/5 759/1/5
f 762/1/5 757/1/5 756/1/5
f 763/1/5 757/1/5 762/1/5
f 764/1/5 761/1/5 760/1/5
f 765/1/5 761/1/5 764/1/5
f 769/1/5 767/1/5 766/1/5
f 770/1/5 767/1/5 769/1/5
f 773/1/5 769/1/5 768/1/5
f 774/1/5 769/1/5 773/1/5
f 775/1/5 771/1/5 770/1/5
f 776/1/5 771/1/5 775/1/5
f 778/1/5 773/1/5 772/1/5
f 779/1/5 773/1/5 778/1/5
f 780/1/5 777/1/5 776/1/5
f 781/1/5 777/1/5 780/1/5
f 785/1/5 783/1/5 782/1/5
f 786/1/5 783/1/5 785/1/5
f 789/1/5 785/1/5 784/1/5
f 790/1/5 785/1/5 789/1/5
f 791/1/5 787/1/5 786/1/5
f 792/1/5 787/1/5 791/1/5
f 794/1/5 789/1/5 788/1/5
f 795/1/5 789/1/5 794/1/5
f 796/1/5 793/1/5 792/1/5
f 797/1/5 793/1/5 796/1/5
f 803/1/5 799/1/5 798/1/5
f 804/1/5 799/1/5 803/1/5
f 805/1/5 801/1/5 800/1/5
f 806/1/5 801/1/5 805/1/5
f 808/1/5 803/1/5 802/1/5
f 809/1/5 803/1/5 808/1/5
f 810/1/5 807/1/5 806/1/5
f 811/1/5 807/1/5 810/1/5
f 816/1/5 813/1/5 812/1/5
f 817/1/5 813/1/5 816/1/5
f 818/1/5 815/1/5 814/1/5
f 819/1/5 815/1/5 818/1/5
f 820/1/6 821/1/6 824/1/6
f 824/1/6 821/1/6 825/1/6
f 822/1/6 823/1/6 826/1/6
f 826/1/6 823/1/6 827/1/6
f 828/1/6 829/1/6 832/1/6
f 832/1/6 829/1/6 833/1/6
f 830/1/6 831/1/6 836/1/6
f 836/1/6 831/1/6 837/1/6
f 833/1/6 834/1/6 838/1/6
f 838/1/6 834/1/6 839/1/6
f 835/1/6 836/1/6 840/1/6
f 840/1/6 836/1/6 841/1/6
f 842/1/6 843/1/6 846/1/6
f 846/1/6 843/1/6 847/1/6
f 844/1/6 845/1/6 850/1/6
f 850/1/6 845/1/6 851/1/6
f 847/1/6 848/1/6 852/1/6
f 852/1/6 848/1/6 853/1/6
f 849/1/6 850/1/6 854/1/6
f 854/1/6 850/1/6 855/1/6
f 853/1/6 854/1/6 856/1/6
f 856/1/6 854/1/6 857/1/6
f 858/1/6 859/1/6 862/1/6
f 862/1/6 859/1/6 863/1/6
f 860/1/6 861/1/6 866/1/6
f 866/1/6 861/1/6 867/1/6
f 863/1/6 864/1/6 868/1/6
f 868/1/6 864/1/6 869/1/6
f 865/1/6 866/1/6 870/1/6
f 870/1/6 866/1/6 871/1/6
f 869/1/6 870/1/6 872/1/6
f 872/1/6 870/1/6 873/1/6
f 874/1/6 875/1/6 878/1/6
f 878/1/6 875/1/6 879/1/6
f 876/1/6 877/1/6 882/1/6
f 882/1/6 877/1/6 883/1/6
f 879/1/6 880/1/6 884/1/6
f 884/1/6 880/1/6 885/1/6
f 881/1/6 882/1/6 886/1/6
f 886/1/6 882/1/6 887/1/6
f 885/1/6 886/1/6 888/1/6
f 888/1/6 886/1/6 889/1/6
f 890/4/6 891/4/6 894/4/6
f 894/4/6 891/4/6 895/4/6
f 892/4/6 893/4/6 896/4/6
f 896/4/6 893/4/6 897/4/6
f 898/1/6 899/1/6 902/1/6
f 902/1/6 899/1/6 903/1/6
f 900/1/6 901/1/6 906/1/6
f 906/1/6 901/1/6 907/1/6
f 903/1/6 904/1/6 908/1/6
f 908/1/6 904/1/6 909/1/6
f 905/1/6 906/1/6 910/1/6
f 910/1/6 906/1/6 911/1/6
f 909/1/6 910/1/6 912/1/6
f 912/1/6 910/1/6 913/1/6
f 914/4/6 915/4/6 916/4/6
f 916/4/6 915/4/6 917/4/6
f 918/1/6 919/1/6 922/1/6
f 922/1/6 919/1/6 923/1/6
f 920/1/6 921/1/6 926/1/6
f 926/1/6 921/1/6 927/1/6
f 923/1/6 924/1/6 928/1/6
f 928/1/6 924/1/6 929/1/6
f 925/1/6 926/1/6 930/1/6
f 930/1/6 926/1/6 931/1/6
f 929/1/6 930/1/6 932/1/6
f 932/1/6 930/1/6 933/1/6
f 934/1/6 935/1/6 938/1/6
f 938/1/6 935/1/6 939/1/6
f 936/1/6 937/1/6 940/1/6
f 940/1/6 937/1/6 941/1/6
f 939/1/6 940/1/6 942/1/6
f 942/1/6 940/1/6 943/1/6
f 944/1/6 945/1/6 946/1/6
f 946/1/6 945/1/6 947/1/6
