# MagicaVoxel @ Ephtracy

# group
o 

# material
mtllib lab_decorations-18.mtl
usemtl palette

# normals
vn -1 0 0
vn 1 0 0
vn 0 0 1
vn 0 0 -1
vn 0 -1 0
vn 0 1 0

# texcoords
vt 0.423828 0.5
vt 0.966797 0.5
vt 0.974609 0.5

# verts
v -0.35 -1.15 1.8
v -0.35 -1.15 1.7
v -0.35 -1.15 -1.7
v -0.35 -1.15 -1.8
v -0.35 -0.55 1.8
v -0.35 -0.55 1.7
v -0.35 -0.55 -1.7
v -0.35 -0.55 -1.8
v -0.35 0.55 1.8
v -0.35 0.55 1.7
v -0.35 0.55 -1.7
v -0.35 0.55 -1.8
v -0.35 1.15 1.8
v -0.35 1.15 1.7
v -0.35 1.15 -1.7
v -0.35 1.15 -1.8
v -0.25 -1.35 1.8
v -0.25 -1.35 -1.8
v -0.25 -1.25 1.7
v -0.25 -1.25 -1.7
v -0.25 -1.15 1.9
v -0.25 -1.15 1.8
v -0.25 -1.15 1.7
v -0.25 -1.15 -1.7
v -0.25 -1.15 -1.8
v -0.25 -1.15 -1.9
v -0.25 -0.55 1.9
v -0.25 -0.55 1.8
v -0.25 -0.55 1.7
v -0.25 -0.55 -1.7
v -0.25 -0.55 -1.8
v -0.25 -0.55 -1.9
v -0.25 0.55 1.9
v -0.25 0.55 1.8
v -0.25 0.55 1.7
v -0.25 0.55 -1.7
v -0.25 0.55 -1.8
v -0.25 0.55 -1.9
v -0.25 1.15 1.9
v -0.25 1.15 1.8
v -0.25 1.15 1.7
v -0.25 1.15 -1.7
v -0.25 1.15 -1.8
v -0.25 1.15 -1.9
v -0.25 1.25 1.7
v -0.25 1.25 -1.7
v -0.25 1.35 1.8
v -0.25 1.35 -1.8
v -0.15 -1.35 1.8
v -0.15 -1.35 -1.8
v -0.15 -1.25 1.7
v -0.15 -1.25 -1.7
v -0.15 -1.15 1.9
v -0.15 -1.15 1.8
v -0.15 -1.15 1.7
v -0.15 -1.15 -1.7
v -0.15 -1.15 -1.8
v -0.15 -1.15 -1.9
v -0.15 -0.55 1.9
v -0.15 -0.55 1.8
v -0.15 -0.55 1.7
v -0.15 -0.55 -1.7
v -0.15 -0.55 -1.8
v -0.15 -0.55 -1.9
v -0.15 0.55 1.9
v -0.15 0.55 1.8
v -0.15 0.55 1.7
v -0.15 0.55 -1.7
v -0.15 0.55 -1.8
v -0.15 0.55 -1.9
v -0.15 1.15 1.9
v -0.15 1.15 1.8
v -0.15 1.15 1.7
v -0.15 1.15 -1.7
v -0.15 1.15 -1.8
v -0.15 1.15 -1.9
v -0.15 1.25 1.7
v -0.15 1.25 -1.7
v -0.15 1.35 1.8
v -0.15 1.35 -1.8
v 0.35 -1.15 1.8
v 0.35 -1.15 1.7
v 0.35 -1.15 -1.7
v 0.35 -1.15 -1.8
v 0.35 -0.55 1.8
v 0.35 -0.55 1.7
v 0.35 -0.55 -1.7
v 0.35 -0.55 -1.8
v 0.35 0.55 1.8
v 0.35 0.55 1.7
v 0.35 0.55 -1.7
v 0.35 0.55 -1.8
v 0.35 1.15 1.8
v 0.35 1.15 1.7
v 0.35 1.15 -1.7
v 0.35 1.15 -1.8
v -0.25 -1.15 1.9
v -0.25 -0.55 1.9
v -0.25 0.55 1.9
v -0.25 1.15 1.9
v -0.15 -1.15 1.9
v -0.15 -0.55 1.9
v -0.15 0.55 1.9
v -0.15 1.15 1.9
v -0.35 -1.15 1.8
v -0.35 -0.55 1.8
v -0.35 0.55 1.8
v -0.35 1.15 1.8
v -0.25 -1.35 1.8
v -0.25 -1.15 1.8
v -0.25 -0.55 1.8
v -0.25 0.55 1.8
v -0.25 1.15 1.8
v -0.25 1.35 1.8
v -0.15 -1.35 1.8
v -0.15 -1.15 1.8
v -0.15 -0.55 1.8
v -0.15 0.55 1.8
v -0.15 1.15 1.8
v -0.15 1.35 1.8
v 0.35 -1.15 1.8
v 0.35 -0.55 1.8
v 0.35 0.55 1.8
v 0.35 1.15 1.8
v -0.35 -1.15 -1.7
v -0.35 -0.55 -1.7
v -0.35 0.55 -1.7
v -0.35 1.15 -1.7
v -0.25 -1.15 -1.7
v -0.25 -0.55 -1.7
v -0.25 0.55 -1.7
v -0.25 1.15 -1.7
v -0.15 -1.15 -1.7
v -0.15 -0.55 -1.7
v -0.15 0.55 -1.7
v -0.15 1.15 -1.7
v 0.35 -1.15 -1.7
v 0.35 -0.55 -1.7
v 0.35 0.55 -1.7
v 0.35 1.15 -1.7
v -0.35 -1.15 1.7
v -0.35 -0.55 1.7
v -0.35 0.55 1.7
v -0.35 1.15 1.7
v -0.25 -1.15 1.7
v -0.25 -0.55 1.7
v -0.25 0.55 1.7
v -0.25 1.15 1.7
v -0.15 -1.15 1.7
v -0.15 -0.55 1.7
v -0.15 0.55 1.7
v -0.15 1.15 1.7
v 0.35 -1.15 1.7
v 0.35 -0.55 1.7
v 0.35 0.55 1.7
v 0.35 1.15 1.7
v -0.35 -1.15 -1.8
v -0.35 -0.55 -1.8
v -0.35 0.55 -1.8
v -0.35 1.15 -1.8
v -0.25 -1.35 -1.8
v -0.25 -1.15 -1.8
v -0.25 -0.55 -1.8
v -0.25 0.55 -1.8
v -0.25 1.15 -1.8
v -0.25 1.35 -1.8
v -0.15 -1.35 -1.8
v -0.15 -1.15 -1.8
v -0.15 -0.55 -1.8
v -0.15 0.55 -1.8
v -0.15 1.15 -1.8
v -0.15 1.35 -1.8
v 0.35 -1.15 -1.8
v 0.35 -0.55 -1.8
v 0.35 0.55 -1.8
v 0.35 1.15 -1.8
v -0.25 -1.15 -1.9
v -0.25 -0.55 -1.9
v -0.25 0.55 -1.9
v -0.25 1.15 -1.9
v -0.15 -1.15 -1.9
v -0.15 -0.55 -1.9
v -0.15 0.55 -1.9
v -0.15 1.15 -1.9
v -0.25 -1.35 1.8
v -0.15 -1.35 1.8
v -0.25 -1.35 -1.8
v -0.15 -1.35 -1.8
v -0.25 -1.15 1.9
v -0.15 -1.15 1.9
v -0.35 -1.15 1.8
v -0.25 -1.15 1.8
v -0.15 -1.15 1.8
v 0.35 -1.15 1.8
v -0.35 -1.15 1.7
v -0.25 -1.15 1.7
v -0.15 -1.15 1.7
v 0.35 -1.15 1.7
v -0.35 -1.15 -1.7
v -0.25 -1.15 -1.7
v -0.15 -1.15 -1.7
v 0.35 -1.15 -1.7
v -0.35 -1.15 -1.8
v -0.25 -1.15 -1.8
v -0.15 -1.15 -1.8
v 0.35 -1.15 -1.8
v -0.25 -1.15 -1.9
v -0.15 -1.15 -1.9
v -0.25 0.55 1.9
v -0.15 0.55 1.9
v -0.35 0.55 1.8
v -0.25 0.55 1.8
v -0.15 0.55 1.8
v 0.35 0.55 1.8
v -0.35 0.55 1.7
v -0.25 0.55 1.7
v -0.15 0.55 1.7
v 0.35 0.55 1.7
v -0.35 0.55 -1.7
v -0.25 0.55 -1.7
v -0.15 0.55 -1.7
v 0.35 0.55 -1.7
v -0.35 0.55 -1.8
v -0.25 0.55 -1.8
v -0.15 0.55 -1.8
v 0.35 0.55 -1.8
v -0.25 0.55 -1.9
v -0.15 0.55 -1.9
v -0.25 -0.55 1.9
v -0.15 -0.55 1.9
v -0.35 -0.55 1.8
v -0.25 -0.55 1.8
v -0.15 -0.55 1.8
v 0.35 -0.55 1.8
v -0.35 -0.55 1.7
v -0.25 -0.55 1.7
v -0.15 -0.55 1.7
v 0.35 -0.55 1.7
v -0.35 -0.55 -1.7
v -0.25 -0.55 -1.7
v -0.15 -0.55 -1.7
v 0.35 -0.55 -1.7
v -0.35 -0.55 -1.8
v -0.25 -0.55 -1.8
v -0.15 -0.55 -1.8
v 0.35 -0.55 -1.8
v -0.25 -0.55 -1.9
v -0.15 -0.55 -1.9
v -0.25 1.15 1.9
v -0.15 1.15 1.9
v -0.35 1.15 1.8
v -0.25 1.15 1.8
v -0.15 1.15 1.8
v 0.35 1.15 1.8
v -0.35 1.15 1.7
v -0.25 1.15 1.7
v -0.15 1.15 1.7
v 0.35 1.15 1.7
v -0.35 1.15 -1.7
v -0.25 1.15 -1.7
v -0.15 1.15 -1.7
v 0.35 1.15 -1.7
v -0.35 1.15 -1.8
v -0.25 1.15 -1.8
v -0.15 1.15 -1.8
v 0.35 1.15 -1.8
v -0.25 1.15 -1.9
v -0.15 1.15 -1.9
v -0.25 1.35 1.8
v -0.15 1.35 1.8
v -0.25 1.35 -1.8
v -0.15 1.35 -1.8

# faces
f 5/3/1 2/3/1 1/3/1
f 6/3/1 2/3/1 5/3/1
f 7/3/1 4/3/1 3/3/1
f 8/3/1 4/3/1 7/3/1
f 13/3/1 10/3/1 9/3/1
f 14/3/1 10/3/1 13/3/1
f 15/3/1 12/3/1 11/3/1
f 16/3/1 12/3/1 15/3/1
f 19/2/1 18/2/1 17/2/1
f 20/2/1 18/2/1 19/2/1
f 22/2/1 19/2/1 17/2/1
f 23/1/1 20/1/1 19/1/1
f 23/2/1 19/2/1 22/2/1
f 24/2/1 18/2/1 20/2/1
f 24/1/1 20/1/1 23/1/1
f 25/2/1 18/2/1 24/2/1
f 27/3/1 22/3/1 21/3/1
f 28/3/1 22/3/1 27/3/1
f 29/1/1 24/1/1 23/1/1
f 30/1/1 24/1/1 29/1/1
f 31/3/1 26/3/1 25/3/1
f 32/3/1 26/3/1 31/3/1
f 34/2/1 29/2/1 28/2/1
f 35/1/1 30/1/1 29/1/1
f 35/2/1 29/2/1 34/2/1
f 36/2/1 31/2/1 30/2/1
f 36/1/1 30/1/1 35/1/1
f 37/2/1 31/2/1 36/2/1
f 39/3/1 34/3/1 33/3/1
f 40/3/1 34/3/1 39/3/1
f 41/1/1 36/1/1 35/1/1
f 42/1/1 36/1/1 41/1/1
f 43/3/1 38/3/1 37/3/1
f 44/3/1 38/3/1 43/3/1
f 45/1/1 42/1/1 41/1/1
f 45/2/1 41/2/1 40/2/1
f 46/2/1 43/2/1 42/2/1
f 46/1/1 42/1/1 45/1/1
f 47/2/1 45/2/1 40/2/1
f 47/2/1 46/2/1 45/2/1
f 48/2/1 43/2/1 46/2/1
f 48/2/1 46/2/1 47/2/1
f 49/2/2 50/2/2 51/2/2
f 51/2/2 50/2/2 52/2/2
f 49/2/2 51/2/2 54/2/2
f 51/1/2 52/1/2 55/1/2
f 54/2/2 51/2/2 55/2/2
f 52/2/2 50/2/2 56/2/2
f 55/1/2 52/1/2 56/1/2
f 56/2/2 50/2/2 57/2/2
f 53/3/2 54/3/2 59/3/2
f 59/3/2 54/3/2 60/3/2
f 55/1/2 56/1/2 61/1/2
f 61/1/2 56/1/2 62/1/2
f 57/3/2 58/3/2 63/3/2
f 63/3/2 58/3/2 64/3/2
f 60/2/2 61/2/2 66/2/2
f 61/1/2 62/1/2 67/1/2
f 66/2/2 61/2/2 67/2/2
f 62/2/2 63/2/2 68/2/2
f 67/1/2 62/1/2 68/1/2
f 68/2/2 63/2/2 69/2/2
f 65/3/2 66/3/2 71/3/2
f 71/3/2 66/3/2 72/3/2
f 67/1/2 68/1/2 73/1/2
f 73/1/2 68/1/2 74/1/2
f 69/3/2 70/3/2 75/3/2
f 75/3/2 70/3/2 76/3/2
f 73/1/2 74/1/2 77/1/2
f 72/2/2 73/2/2 77/2/2
f 74/2/2 75/2/2 78/2/2
f 77/1/2 74/1/2 78/1/2
f 72/2/2 77/2/2 79/2/2
f 77/2/2 78/2/2 79/2/2
f 78/2/2 75/2/2 80/2/2
f 79/2/2 78/2/2 80/2/2
f 81/3/2 82/3/2 85/3/2
f 85/3/2 82/3/2 86/3/2
f 83/3/2 84/3/2 87/3/2
f 87/3/2 84/3/2 88/3/2
f 89/3/2 90/3/2 93/3/2
f 93/3/2 90/3/2 94/3/2
f 91/3/2 92/3/2 95/3/2
f 95/3/2 92/3/2 96/3/2
f 101/3/3 98/3/3 97/3/3
f 102/3/3 98/3/3 101/3/3
f 103/3/3 100/3/3 99/3/3
f 104/3/3 100/3/3 103/3/3
f 110/3/3 106/3/3 105/3/3
f 111/3/3 106/3/3 110/3/3
f 112/3/3 108/3/3 107/3/3
f 113/3/3 108/3/3 112/3/3
f 115/2/3 110/2/3 109/2/3
f 116/2/3 110/2/3 115/2/3
f 117/2/3 112/2/3 111/2/3
f 118/2/3 112/2/3 117/2/3
f 119/2/3 114/2/3 113/2/3
f 120/2/3 114/2/3 119/2/3
f 121/3/3 117/3/3 116/3/3
f 122/3/3 117/3/3 121/3/3
f 123/3/3 119/3/3 118/3/3
f 124/3/3 119/3/3 123/3/3
f 129/3/3 126/3/3 125/3/3
f 130/3/3 126/3/3 129/3/3
f 131/3/3 128/3/3 127/3/3
f 132/3/3 128/3/3 131/3/3
f 137/3/3 134/3/3 133/3/3
f 138/3/3 134/3/3 137/3/3
f 139/3/3 136/3/3 135/3/3
f 140/3/3 136/3/3 139/3/3
f 141/3/4 142/3/4 145/3/4
f 145/3/4 142/3/4 146/3/4
f 143/3/4 144/3/4 147/3/4
f 147/3/4 144/3/4 148/3/4
f 149/3/4 150/3/4 153/3/4
f 153/3/4 150/3/4 154/3/4
f 151/3/4 152/3/4 155/3/4
f 155/3/4 152/3/4 156/3/4
f 157/3/4 158/3/4 162/3/4
f 162/3/4 158/3/4 163/3/4
f 159/3/4 160/3/4 164/3/4
f 164/3/4 160/3/4 165/3/4
f 161/2/4 162/2/4 167/2/4
f 167/2/4 162/2/4 168/2/4
f 163/2/4 164/2/4 169/2/4
f 169/2/4 164/2/4 170/2/4
f 165/2/4 166/2/4 171/2/4
f 171/2/4 166/2/4 172/2/4
f 168/3/4 169/3/4 173/3/4
f 173/3/4 169/3/4 174/3/4
f 170/3/4 171/3/4 175/3/4
f 175/3/4 171/3/4 176/3/4
f 177/3/4 178/3/4 181/3/4
f 181/3/4 178/3/4 182/3/4
f 179/3/4 180/3/4 183/3/4
f 183/3/4 180/3/4 184/3/4
f 187/2/5 186/2/5 185/2/5
f 188/2/5 186/2/5 187/2/5
f 192/3/5 190/3/5 189/3/5
f 193/3/5 190/3/5 192/3/5
f 195/3/5 192/3/5 191/3/5
f 196/3/5 192/3/5 195/3/5
f 197/3/5 194/3/5 193/3/5
f 198/3/5 194/3/5 197/3/5
f 203/3/5 200/3/5 199/3/5
f 204/3/5 200/3/5 203/3/5
f 205/3/5 202/3/5 201/3/5
f 206/3/5 202/3/5 205/3/5
f 207/3/5 205/3/5 204/3/5
f 208/3/5 205/3/5 207/3/5
f 212/3/5 210/3/5 209/3/5
f 213/3/5 210/3/5 212/3/5
f 215/3/5 212/3/5 211/3/5
f 216/3/5 212/3/5 215/3/5
f 217/3/5 214/3/5 213/3/5
f 218/3/5 214/3/5 217/3/5
f 223/3/5 220/3/5 219/3/5
f 224/3/5 220/3/5 223/3/5
f 225/3/5 222/3/5 221/3/5
f 226/3/5 222/3/5 225/3/5
f 227/3/5 225/3/5 224/3/5
f 228/3/5 225/3/5 227/3/5
f 229/3/6 230/3/6 232/3/6
f 232/3/6 230/3/6 233/3/6
f 231/3/6 232/3/6 235/3/6
f 235/3/6 232/3/6 236/3/6
f 233/3/6 234/3/6 237/3/6
f 237/3/6 234/3/6 238/3/6
f 239/3/6 240/3/6 243/3/6
f 243/3/6 240/3/6 244/3/6
f 241/3/6 242/3/6 245/3/6
f 245/3/6 242/3/6 246/3/6
f 244/3/6 245/3/6 247/3/6
f 247/3/6 245/3/6 248/3/6
f 249/3/6 250/3/6 252/3/6
f 252/3/6 250/3/6 253/3/6
f 251/3/6 252/3/6 255/3/6
f 255/3/6 252/3/6 256/3/6
f 253/3/6 254/3/6 257/3/6
f 257/3/6 254/3/6 258/3/6
f 259/3/6 260/3/6 263/3/6
f 263/3/6 260/3/6 264/3/6
f 261/3/6 262/3/6 265/3/6
f 265/3/6 262/3/6 266/3/6
f 264/3/6 265/3/6 267/3/6
f 267/3/6 265/3/6 268/3/6
f 269/2/6 270/2/6 271/2/6
f 271/2/6 270/2/6 272/2/6
