# MagicaVoxel @ Ephtracy

# group
o 

# material
mtllib Astronauta.mtl
usemtl palette

# normals
vn -1 0 0
vn 1 0 0
vn 0 0 1
vn 0 0 -1
vn 0 -1 0
vn 0 1 0

# texcoords
vt 0.0605469 0.5
vt 0.162109 0.5
vt 0.232422 0.5
vt 0.724609 0.5
vt 0.810547 0.5
vt 0.841797 0.5
vt 0.958984 0.5
vt 0.962891 0.5
vt 0.966797 0.5
vt 0.970703 0.5
vt 0.978516 0.5
vt 0.994141 0.5

# verts
v -1.1 1.5 -0.2
v -1.1 1.5 -0.5
v -1.1 1.7 -0.2
v -1.1 1.7 -0.5
v -1 1.3 -0.2
v -1 1.3 -0.5
v -1 1.5 -0.2
v -1 1.5 -0.5
v -1 1.7 -0.2
v -1 1.7 -0.5
v -1 1.8 -0.2
v -1 1.8 -0.5
v -1 1.9 -0.1
v -1 1.9 -0.2
v -1 1.9 -0.5
v -1 1.9 -0.6
v -1 2.6 -0.1
v -1 2.6 -0.6
v -0.9 2.6 -0.1
v -0.9 2.6 -0.6
v -0.9 2.7 -0.1
v -0.9 2.7 -0.6
v -0.8 0 0.5
v -0.8 0 -0.7
v -0.8 0.2 0.5
v -0.8 0.2 -0.7
v -0.8 2.7 -0.2
v -0.8 2.7 -0.5
v -0.8 2.8 -0.2
v -0.8 2.8 -0.5
v -0.7 0.2 0.4
v -0.7 0.2 -0.6
v -0.7 0.5 0.4
v -0.7 0.5 -0.1
v -0.7 0.6 -0.1
v -0.7 0.6 -0.6
v -0.7 1.2 -0.1
v -0.7 1.2 -0.2
v -0.7 1.3 -0.2
v -0.7 1.3 -0.5
v -0.7 1.3 -0.6
v -0.6 0.8 0
v -0.6 0.8 -0.1
v -0.6 1.2 0
v -0.6 1.2 -0.1
v -0.6 1.2 -0.2
v -0.6 1.3 -0.2
v -0.6 1.3 -0.6
v -0.6 1.4 -0.1
v -0.6 1.4 -0.2
v -0.6 1.9 -0.2
v -0.6 1.9 -0.5
v -0.6 2.4 -0.5
v -0.6 2.4 -0.6
v -0.5 1.4 -0.1
v -0.5 1.4 -0.2
v -0.5 2.4 -0.1
v -0.5 2.4 -0.2
v -0.4 1.6 0
v -0.4 1.6 -0.1
v -0.4 1.6 -0.6
v -0.4 1.6 -0.7
v -0.4 1.6 -0.8
v -0.4 1.6 -1
v -0.4 1.7 -1
v -0.4 1.7 -1.1
v -0.4 2.5 0
v -0.4 2.5 -0.1
v -0.4 2.6 -1
v -0.4 2.6 -1.1
v -0.4 2.7 -0.1
v -0.4 2.7 -0.2
v -0.4 2.7 -0.5
v -0.4 2.7 -0.6
v -0.4 2.7 -0.7
v -0.4 2.7 -0.8
v -0.4 2.7 -1
v -0.4 2.8 -0.1
v -0.4 2.8 -0.2
v -0.4 2.8 -0.5
v -0.4 2.8 -0.6
v -0.3 1.6 -0.7
v -0.3 1.6 -0.8
v -0.3 1.6 -1
v -0.3 1.6 -1.1
v -0.3 1.7 -1
v -0.3 1.7 -1.1
v -0.3 2.5 0
v -0.3 2.5 -0.1
v -0.3 2.6 0
v -0.3 2.6 -0.1
v -0.3 2.6 -0.7
v -0.3 2.6 -0.8
v -0.3 2.6 -1
v -0.3 2.6 -1.1
v -0.3 2.7 -1
v -0.3 2.7 -1.1
v -0.3 2.8 0
v -0.3 2.8 -0.1
v -0.3 2.8 -0.6
v -0.3 2.9 -0.6
v -0.3 2.9 -0.7
v -0.3 3.3 -0.6
v -0.3 3.3 -0.7
v -0.3 3.4 0
v -0.3 3.4 -0.4
v -0.3 3.4 -0.5
v -0.3 3.4 -0.6
v -0.3 3.6 -0.4
v -0.3 3.6 -0.5
v -0.2 2.7 -0.9
v -0.2 2.7 -1
v -0.2 2.8 -0.6
v -0.2 2.8 -0.7
v -0.2 2.9 -0.6
v -0.2 2.9 -0.7
v -0.2 2.9 -0.9
v -0.2 2.9 -1
v -0.2 3.3 -0.6
v -0.2 3.3 -0.7
v -0.2 3.4 -0.6
v -0.2 3.4 -0.7
v 0.1 0 0.5
v 0.1 0 -0.7
v 0.1 0.2 0.5
v 0.1 0.2 -0.7
v 0.1 2.7 -0.9
v 0.1 2.7 -1
v 0.1 2.8 -0.9
v 0.1 2.8 -1
v 0.2 0.2 0.4
v 0.2 0.2 -0.6
v 0.2 0.5 0.4
v 0.2 0.5 -0.1
v 0.2 0.6 -0.1
v 0.2 0.6 -0.6
v 0.2 1.3 -0.1
v 0.2 1.3 -0.6
v 0.2 2.9 0
v 0.2 2.9 -0.1
v 0.2 3.3 0
v 0.2 3.3 -0.1
v 0.3 0.8 0
v 0.3 0.8 -0.1
v 0.3 1.2 0
v 0.3 1.2 -0.1
v 0.6 1.9 -0.1
v 0.6 1.9 -0.2
v 0.6 2.4 -0.1
v 0.6 2.4 -0.2
v 0.7 1.3 -0.2
v 0.7 1.3 -0.5
v 0.7 1.8 -0.2
v 0.7 1.8 -0.5
v 0.7 1.9 -0.2
v 0.7 1.9 -0.5
v 0.7 1.9 -0.6
v 0.7 2.4 -0.5
v 0.7 2.4 -0.6
v -0.7 1.3 -0.2
v -0.7 1.3 -0.5
v -0.7 1.8 -0.2
v -0.7 1.8 -0.5
v -0.7 1.9 -0.2
v -0.7 1.9 -0.5
v -0.7 1.9 -0.6
v -0.7 2.4 -0.5
v -0.7 2.4 -0.6
v -0.6 1.9 -0.1
v -0.6 1.9 -0.2
v -0.6 2.4 -0.1
v -0.6 2.4 -0.2
v -0.3 0.8 0
v -0.3 0.8 -0.1
v -0.3 1.2 0
v -0.3 1.2 -0.1
v -0.2 0.2 0.4
v -0.2 0.2 -0.6
v -0.2 0.5 0.4
v -0.2 0.5 -0.1
v -0.2 0.6 -0.1
v -0.2 0.6 -0.6
v -0.2 1.3 -0.1
v -0.2 1.3 -0.6
v -0.2 2.9 0
v -0.2 2.9 -0.1
v -0.2 3.3 0
v -0.2 3.3 -0.1
v -0.2 3.4 -0.4
v -0.2 3.4 -0.5
v -0.2 3.6 -0.4
v -0.2 3.6 -0.5
v -0.1 0 0.5
v -0.1 0 -0.7
v -0.1 0.2 0.5
v -0.1 0.2 -0.7
v -0.1 2.7 -0.9
v -0.1 2.7 -1
v -0.1 2.8 -0.9
v -0.1 2.8 -1
v 0.2 2.7 -0.9
v 0.2 2.7 -1
v 0.2 2.8 -0.6
v 0.2 2.8 -0.7
v 0.2 2.9 -0.6
v 0.2 2.9 -0.7
v 0.2 2.9 -0.9
v 0.2 2.9 -1
v 0.2 3.3 -0.6
v 0.2 3.3 -0.7
v 0.2 3.4 -0.6
v 0.2 3.4 -0.7
v 0.3 1.6 -0.7
v 0.3 1.6 -0.8
v 0.3 1.6 -1
v 0.3 1.6 -1.1
v 0.3 1.7 -1
v 0.3 1.7 -1.1
v 0.3 2.5 0
v 0.3 2.5 -0.1
v 0.3 2.6 0
v 0.3 2.6 -0.1
v 0.3 2.6 -0.7
v 0.3 2.6 -0.8
v 0.3 2.6 -1
v 0.3 2.6 -1.1
v 0.3 2.7 -1
v 0.3 2.7 -1.1
v 0.3 2.8 0
v 0.3 2.8 -0.1
v 0.3 2.8 -0.6
v 0.3 2.9 -0.6
v 0.3 2.9 -0.7
v 0.3 3.3 -0.6
v 0.3 3.3 -0.7
v 0.3 3.4 0
v 0.3 3.4 -0.6
v 0.4 1.6 0
v 0.4 1.6 -0.1
v 0.4 1.6 -0.6
v 0.4 1.6 -0.7
v 0.4 1.6 -0.8
v 0.4 1.6 -1
v 0.4 1.7 -1
v 0.4 1.7 -1.1
v 0.4 2.5 0
v 0.4 2.5 -0.1
v 0.4 2.6 -1
v 0.4 2.6 -1.1
v 0.4 2.7 -0.1
v 0.4 2.7 -0.2
v 0.4 2.7 -0.5
v 0.4 2.7 -0.6
v 0.4 2.7 -0.7
v 0.4 2.7 -0.8
v 0.4 2.7 -1
v 0.4 2.8 -0.1
v 0.4 2.8 -0.2
v 0.4 2.8 -0.5
v 0.4 2.8 -0.6
v 0.5 1.4 -0.1
v 0.5 1.4 -0.2
v 0.5 2.4 -0.1
v 0.5 2.4 -0.2
v 0.6 0.8 0
v 0.6 0.8 -0.1
v 0.6 1.2 0
v 0.6 1.2 -0.1
v 0.6 1.2 -0.2
v 0.6 1.3 -0.2
v 0.6 1.3 -0.6
v 0.6 1.4 -0.1
v 0.6 1.4 -0.2
v 0.6 1.9 -0.2
v 0.6 1.9 -0.5
v 0.6 2.4 -0.5
v 0.6 2.4 -0.6
v 0.7 0.2 0.4
v 0.7 0.2 -0.6
v 0.7 0.5 0.4
v 0.7 0.5 -0.1
v 0.7 0.6 -0.1
v 0.7 0.6 -0.6
v 0.7 1.2 -0.1
v 0.7 1.2 -0.2
v 0.7 1.3 -0.2
v 0.7 1.3 -0.5
v 0.7 1.3 -0.6
v 0.8 0 0.5
v 0.8 0 -0.7
v 0.8 0.2 0.5
v 0.8 0.2 -0.7
v 0.8 2.7 -0.2
v 0.8 2.7 -0.5
v 0.8 2.8 -0.2
v 0.8 2.8 -0.5
v 0.9 2.6 -0.1
v 0.9 2.6 -0.6
v 0.9 2.7 -0.1
v 0.9 2.7 -0.6
v 1 1.3 -0.2
v 1 1.3 -0.5
v 1 1.5 -0.2
v 1 1.5 -0.5
v 1 1.7 -0.2
v 1 1.7 -0.5
v 1 1.8 -0.2
v 1 1.8 -0.5
v 1 1.9 -0.1
v 1 1.9 -0.2
v 1 1.9 -0.5
v 1 1.9 -0.6
v 1 2.6 -0.1
v 1 2.6 -0.6
v 1.1 1.5 -0.2
v 1.1 1.5 -0.5
v 1.1 1.7 -0.2
v 1.1 1.7 -0.5
v -0.8 0 0.5
v -0.8 0.2 0.5
v -0.1 0 0.5
v -0.1 0.2 0.5
v 0.1 0 0.5
v 0.1 0.2 0.5
v 0.8 0 0.5
v 0.8 0.2 0.5
v -0.7 0.2 0.4
v -0.7 0.5 0.4
v -0.2 0.2 0.4
v -0.2 0.5 0.4
v 0.2 0.2 0.4
v 0.2 0.5 0.4
v 0.7 0.2 0.4
v 0.7 0.5 0.4
v -0.6 0.8 0
v -0.6 1.2 0
v -0.4 1.6 0
v -0.4 2.5 0
v -0.3 0.8 0
v -0.3 1.2 0
v -0.3 2.5 0
v -0.3 2.6 0
v -0.3 2.8 0
v -0.3 3.4 0
v -0.2 2.3 0
v -0.2 2.4 0
v -0.2 2.9 0
v -0.2 3.3 0
v -0.1 2.3 0
v -0.1 2.4 0
v 0.1 2.3 0
v 0.1 2.4 0
v 0.2 2.3 0
v 0.2 2.4 0
v 0.2 2.9 0
v 0.2 3.3 0
v 0.3 0.8 0
v 0.3 1.2 0
v 0.3 2.5 0
v 0.3 2.6 0
v 0.3 2.8 0
v 0.3 3.4 0
v 0.4 1.6 0
v 0.4 2.5 0
v 0.6 0.8 0
v 0.6 1.2 0
v -1 1.9 -0.1
v -1 2.6 -0.1
v -0.9 2.6 -0.1
v -0.9 2.7 -0.1
v -0.7 0.5 -0.1
v -0.7 0.6 -0.1
v -0.7 1.2 -0.1
v -0.6 0.8 -0.1
v -0.6 1.2 -0.1
v -0.6 1.4 -0.1
v -0.6 1.9 -0.1
v -0.6 2.4 -0.1
v -0.5 1.4 -0.1
v -0.5 2.4 -0.1
v -0.4 1.6 -0.1
v -0.4 2.5 -0.1
v -0.4 2.7 -0.1
v -0.4 2.8 -0.1
v -0.3 0.8 -0.1
v -0.3 1.2 -0.1
v -0.3 2.5 -0.1
v -0.3 2.6 -0.1
v -0.3 2.8 -0.1
v -0.2 0.5 -0.1
v -0.2 0.6 -0.1
v -0.2 1.3 -0.1
v -0.2 2.9 -0.1
v -0.2 3.3 -0.1
v 0.2 0.5 -0.1
v 0.2 0.6 -0.1
v 0.2 1.3 -0.1
v 0.2 2.9 -0.1
v 0.2 3.3 -0.1
v 0.3 0.8 -0.1
v 0.3 1.2 -0.1
v 0.3 2.5 -0.1
v 0.3 2.6 -0.1
v 0.3 2.8 -0.1
v 0.4 1.6 -0.1
v 0.4 2.5 -0.1
v 0.4 2.7 -0.1
v 0.4 2.8 -0.1
v 0.5 1.4 -0.1
v 0.5 2.4 -0.1
v 0.6 0.8 -0.1
v 0.6 1.2 -0.1
v 0.6 1.4 -0.1
v 0.6 1.9 -0.1
v 0.6 2.4 -0.1
v 0.7 0.5 -0.1
v 0.7 0.6 -0.1
v 0.7 1.2 -0.1
v 0.9 2.6 -0.1
v 0.9 2.7 -0.1
v 1 1.9 -0.1
v 1 2.6 -0.1
v -1.1 1.5 -0.2
v -1.1 1.7 -0.2
v -1 1.3 -0.2
v -1 1.5 -0.2
v -1 1.7 -0.2
v -1 1.8 -0.2
v -1 1.9 -0.2
v -0.8 2.7 -0.2
v -0.8 2.8 -0.2
v -0.7 1.2 -0.2
v -0.7 1.3 -0.2
v -0.7 1.8 -0.2
v -0.7 1.9 -0.2
v -0.6 1.2 -0.2
v -0.6 1.3 -0.2
v -0.6 1.4 -0.2
v -0.6 1.9 -0.2
v -0.6 2.4 -0.2
v -0.5 1.4 -0.2
v -0.5 2.4 -0.2
v -0.4 2.7 -0.2
v -0.4 2.8 -0.2
v 0.4 2.7 -0.2
v 0.4 2.8 -0.2
v 0.5 1.4 -0.2
v 0.5 2.4 -0.2
v 0.6 1.2 -0.2
v 0.6 1.3 -0.2
v 0.6 1.4 -0.2
v 0.6 1.9 -0.2
v 0.6 2.4 -0.2
v 0.7 1.2 -0.2
v 0.7 1.3 -0.2
v 0.7 1.8 -0.2
v 0.7 1.9 -0.2
v 0.8 2.7 -0.2
v 0.8 2.8 -0.2
v 1 1.3 -0.2
v 1 1.5 -0.2
v 1 1.7 -0.2
v 1 1.8 -0.2
v 1 1.9 -0.2
v 1.1 1.5 -0.2
v 1.1 1.7 -0.2
v -0.3 3.4 -0.4
v -0.3 3.6 -0.4
v -0.2 3.4 -0.4
v -0.2 3.6 -0.4
v -0.4 1.6 -0.8
v -0.4 2.7 -0.8
v -0.3 1.6 -0.8
v -0.3 2.6 -0.8
v 0.3 1.6 -0.8
v 0.3 2.6 -0.8
v 0.4 1.6 -0.8
v 0.4 2.7 -0.8
v -0.2 2.7 -0.9
v -0.2 2.9 -0.9
v -0.1 2.7 -0.9
v -0.1 2.8 -0.9
v 0.1 2.7 -0.9
v 0.1 2.8 -0.9
v 0.2 2.7 -0.9
v 0.2 2.9 -0.9
v -1.1 1.5 -0.5
v -1.1 1.7 -0.5
v -1 1.3 -0.5
v -1 1.5 -0.5
v -1 1.7 -0.5
v -1 1.8 -0.5
v -1 1.9 -0.5
v -0.8 2.7 -0.5
v -0.8 2.8 -0.5
v -0.7 1.3 -0.5
v -0.7 1.8 -0.5
v -0.7 1.9 -0.5
v -0.7 2.4 -0.5
v -0.6 1.9 -0.5
v -0.6 2.4 -0.5
v -0.4 2.7 -0.5
v -0.4 2.8 -0.5
v -0.3 3.4 -0.5
v -0.3 3.6 -0.5
v -0.2 3.4 -0.5
v -0.2 3.6 -0.5
v 0.4 2.7 -0.5
v 0.4 2.8 -0.5
v 0.6 1.9 -0.5
v 0.6 2.4 -0.5
v 0.7 1.3 -0.5
v 0.7 1.8 -0.5
v 0.7 1.9 -0.5
v 0.7 2.4 -0.5
v 0.8 2.7 -0.5
v 0.8 2.8 -0.5
v 1 1.3 -0.5
v 1 1.5 -0.5
v 1 1.7 -0.5
v 1 1.8 -0.5
v 1 1.9 -0.5
v 1.1 1.5 -0.5
v 1.1 1.7 -0.5
v -1 1.9 -0.6
v -1 2.6 -0.6
v -0.9 2.6 -0.6
v -0.9 2.7 -0.6
v -0.7 0.2 -0.6
v -0.7 0.6 -0.6
v -0.7 1.3 -0.6
v -0.7 1.9 -0.6
v -0.7 2.4 -0.6
v -0.6 1.3 -0.6
v -0.6 2.4 -0.6
v -0.4 1.6 -0.6
v -0.4 2.7 -0.6
v -0.4 2.8 -0.6
v -0.3 2.8 -0.6
v -0.3 2.9 -0.6
v -0.3 3.3 -0.6
v -0.3 3.4 -0.6
v -0.2 0.2 -0.6
v -0.2 0.6 -0.6
v -0.2 1.3 -0.6
v -0.2 2.8 -0.6
v -0.2 2.9 -0.6
v -0.2 3.3 -0.6
v -0.2 3.4 -0.6
v 0.2 0.2 -0.6
v 0.2 0.6 -0.6
v 0.2 1.3 -0.6
v 0.2 2.8 -0.6
v 0.2 2.9 -0.6
v 0.2 3.3 -0.6
v 0.2 3.4 -0.6
v 0.3 2.8 -0.6
v 0.3 2.9 -0.6
v 0.3 3.3 -0.6
v 0.3 3.4 -0.6
v 0.4 1.6 -0.6
v 0.4 2.7 -0.6
v 0.4 2.8 -0.6
v 0.6 1.3 -0.6
v 0.6 2.4 -0.6
v 0.7 0.2 -0.6
v 0.7 0.6 -0.6
v 0.7 1.3 -0.6
v 0.7 1.9 -0.6
v 0.7 2.4 -0.6
v 0.9 2.6 -0.6
v 0.9 2.7 -0.6
v 1 1.9 -0.6
v 1 2.6 -0.6
v -0.8 0 -0.7
v -0.8 0.2 -0.7
v -0.4 1.6 -0.7
v -0.4 2.7 -0.7
v -0.3 1.6 -0.7
v -0.3 2.6 -0.7
v -0.3 2.9 -0.7
v -0.3 3.3 -0.7
v -0.2 2.8 -0.7
v -0.2 2.9 -0.7
v -0.2 3.3 -0.7
v -0.2 3.4 -0.7
v -0.1 0 -0.7
v -0.1 0.2 -0.7
v 0.1 0 -0.7
v 0.1 0.2 -0.7
v 0.2 2.8 -0.7
v 0.2 2.9 -0.7
v 0.2 3.3 -0.7
v 0.2 3.4 -0.7
v 0.3 1.6 -0.7
v 0.3 2.6 -0.7
v 0.3 2.9 -0.7
v 0.3 3.3 -0.7
v 0.4 1.6 -0.7
v 0.4 2.7 -0.7
v 0.8 0 -0.7
v 0.8 0.2 -0.7
v -0.4 1.6 -1
v -0.4 1.7 -1
v -0.4 2.6 -1
v -0.4 2.7 -1
v -0.3 1.6 -1
v -0.3 1.7 -1
v -0.3 2.6 -1
v -0.3 2.7 -1
v -0.2 2.7 -1
v -0.2 2.9 -1
v -0.1 2.7 -1
v -0.1 2.8 -1
v 0.1 2.7 -1
v 0.1 2.8 -1
v 0.2 2.7 -1
v 0.2 2.9 -1
v 0.3 1.6 -1
v 0.3 1.7 -1
v 0.3 2.6 -1
v 0.3 2.7 -1
v 0.4 1.6 -1
v 0.4 1.7 -1
v 0.4 2.6 -1
v 0.4 2.7 -1
v -0.4 1.7 -1.1
v -0.4 2.6 -1.1
v -0.3 1.6 -1.1
v -0.3 1.7 -1.1
v -0.3 2.6 -1.1
v -0.3 2.7 -1.1
v 0.3 1.6 -1.1
v 0.3 1.7 -1.1
v 0.3 2.6 -1.1
v 0.3 2.7 -1.1
v 0.4 1.7 -1.1
v 0.4 2.6 -1.1
v -0.8 0 0.5
v -0.1 0 0.5
v 0.1 0 0.5
v 0.8 0 0.5
v -0.8 0 -0.7
v -0.1 0 -0.7
v 0.1 0 -0.7
v 0.8 0 -0.7
v -0.6 0.8 0
v -0.3 0.8 0
v 0.3 0.8 0
v 0.6 0.8 0
v -0.6 0.8 -0.1
v -0.3 0.8 -0.1
v 0.3 0.8 -0.1
v 0.6 0.8 -0.1
v -0.2 1.3 -0.1
v 0.2 1.3 -0.1
v -1 1.3 -0.2
v -0.7 1.3 -0.2
v 0.7 1.3 -0.2
v 1 1.3 -0.2
v -1 1.3 -0.5
v -0.7 1.3 -0.5
v 0.7 1.3 -0.5
v 1 1.3 -0.5
v -0.2 1.3 -0.6
v 0.2 1.3 -0.6
v -1.1 1.5 -0.2
v -1 1.5 -0.2
v 1 1.5 -0.2
v 1.1 1.5 -0.2
v -1.1 1.5 -0.5
v -1 1.5 -0.5
v 1 1.5 -0.5
v 1.1 1.5 -0.5
v -0.4 1.6 0
v 0.4 1.6 0
v -0.4 1.6 -0.1
v 0.4 1.6 -0.1
v -0.4 1.6 -0.6
v 0.4 1.6 -0.6
v -0.4 1.6 -0.7
v -0.3 1.6 -0.7
v 0.3 1.6 -0.7
v 0.4 1.6 -0.7
v -0.4 1.6 -0.8
v -0.3 1.6 -0.8
v 0.3 1.6 -0.8
v 0.4 1.6 -0.8
v -0.4 1.6 -1
v -0.3 1.6 -1
v 0.3 1.6 -1
v 0.4 1.6 -1
v -0.3 1.6 -1.1
v 0.3 1.6 -1.1
v -0.4 1.7 -1
v -0.3 1.7 -1
v 0.3 1.7 -1
v 0.4 1.7 -1
v -0.4 1.7 -1.1
v -0.3 1.7 -1.1
v 0.3 1.7 -1.1
v 0.4 1.7 -1.1
v -1 1.9 -0.1
v -0.6 1.9 -0.1
v 0.6 1.9 -0.1
v 1 1.9 -0.1
v -1 1.9 -0.2
v -0.7 1.9 -0.2
v -0.6 1.9 -0.2
v 0.6 1.9 -0.2
v 0.7 1.9 -0.2
v 1 1.9 -0.2
v -1 1.9 -0.5
v -0.7 1.9 -0.5
v -0.6 1.9 -0.5
v 0.6 1.9 -0.5
v 0.7 1.9 -0.5
v 1 1.9 -0.5
v -1 1.9 -0.6
v -0.7 1.9 -0.6
v 0.7 1.9 -0.6
v 1 1.9 -0.6
v -0.6 2.4 -0.1
v -0.5 2.4 -0.1
v 0.5 2.4 -0.1
v 0.6 2.4 -0.1
v -0.6 2.4 -0.2
v -0.5 2.4 -0.2
v 0.5 2.4 -0.2
v 0.6 2.4 -0.2
v -0.7 2.4 -0.5
v -0.6 2.4 -0.5
v 0.6 2.4 -0.5
v 0.7 2.4 -0.5
v -0.7 2.4 -0.6
v -0.6 2.4 -0.6
v 0.6 2.4 -0.6
v 0.7 2.4 -0.6
v -0.3 2.8 0
v 0.3 2.8 0
v -0.3 2.8 -0.1
v 0.3 2.8 -0.1
v -0.2 2.8 -0.6
v 0.2 2.8 -0.6
v -0.2 2.8 -0.7
v 0.2 2.8 -0.7
v -0.1 2.8 -0.9
v 0.1 2.8 -0.9
v -0.1 2.8 -1
v 0.1 2.8 -1
v -0.3 2.9 -0.6
v -0.2 2.9 -0.6
v 0.2 2.9 -0.6
v 0.3 2.9 -0.6
v -0.3 2.9 -0.7
v -0.2 2.9 -0.7
v 0.2 2.9 -0.7
v 0.3 2.9 -0.7
v -0.2 3.3 0
v 0.2 3.3 0
v -0.2 3.3 -0.1
v 0.2 3.3 -0.1
v -0.8 0.2 0.5
v -0.1 0.2 0.5
v 0.1 0.2 0.5
v 0.8 0.2 0.5
v -0.7 0.2 0.4
v -0.2 0.2 0.4
v 0.2 0.2 0.4
v 0.7 0.2 0.4
v -0.7 0.2 -0.6
v -0.2 0.2 -0.6
v 0.2 0.2 -0.6
v 0.7 0.2 -0.6
v -0.8 0.2 -0.7
v -0.1 0.2 -0.7
v 0.1 0.2 -0.7
v 0.8 0.2 -0.7
v -0.7 0.5 0.4
v -0.2 0.5 0.4
v 0.2 0.5 0.4
v 0.7 0.5 0.4
v -0.7 0.5 -0.1
v -0.2 0.5 -0.1
v 0.2 0.5 -0.1
v 0.7 0.5 -0.1
v -0.6 1.2 0
v -0.3 1.2 0
v 0.3 1.2 0
v 0.6 1.2 0
v -0.7 1.2 -0.1
v -0.6 1.2 -0.1
v -0.3 1.2 -0.1
v 0.3 1.2 -0.1
v 0.6 1.2 -0.1
v 0.7 1.2 -0.1
v -0.7 1.2 -0.2
v -0.6 1.2 -0.2
v 0.6 1.2 -0.2
v 0.7 1.2 -0.2
v -0.7 1.3 -0.2
v -0.6 1.3 -0.2
v 0.6 1.3 -0.2
v 0.7 1.3 -0.2
v -0.7 1.3 -0.5
v 0.7 1.3 -0.5
v -0.7 1.3 -0.6
v -0.6 1.3 -0.6
v 0.6 1.3 -0.6
v 0.7 1.3 -0.6
v -0.6 1.4 -0.1
v -0.5 1.4 -0.1
v 0.5 1.4 -0.1
v 0.6 1.4 -0.1
v -0.6 1.4 -0.2
v -0.5 1.4 -0.2
v 0.5 1.4 -0.2
v 0.6 1.4 -0.2
v -1.1 1.7 -0.2
v -1 1.7 -0.2
v 1 1.7 -0.2
v 1.1 1.7 -0.2
v -1.1 1.7 -0.5
v -1 1.7 -0.5
v 1 1.7 -0.5
v 1.1 1.7 -0.5
v -0.4 2.5 0
v -0.3 2.5 0
v 0.3 2.5 0
v 0.4 2.5 0
v -0.4 2.5 -0.1
v -0.3 2.5 -0.1
v 0.3 2.5 -0.1
v 0.4 2.5 -0.1
v -0.3 2.6 0
v 0.3 2.6 0
v -1 2.6 -0.1
v -0.9 2.6 -0.1
v -0.3 2.6 -0.1
v 0.3 2.6 -0.1
v 0.9 2.6 -0.1
v 1 2.6 -0.1
v -1 2.6 -0.6
v -0.9 2.6 -0.6
v 0.9 2.6 -0.6
v 1 2.6 -0.6
v -0.3 2.6 -0.7
v 0.3 2.6 -0.7
v -0.3 2.6 -0.8
v 0.3 2.6 -0.8
v -0.4 2.6 -1
v -0.3 2.6 -1
v 0.3 2.6 -1
v 0.4 2.6 -1
v -0.4 2.6 -1.1
v -0.3 2.6 -1.1
v 0.3 2.6 -1.1
v 0.4 2.6 -1.1
v -0.9 2.7 -0.1
v -0.4 2.7 -0.1
v 0.4 2.7 -0.1
v 0.9 2.7 -0.1
v -0.8 2.7 -0.2
v -0.4 2.7 -0.2
v 0.4 2.7 -0.2
v 0.8 2.7 -0.2
v -0.8 2.7 -0.5
v -0.4 2.7 -0.5
v 0.4 2.7 -0.5
v 0.8 2.7 -0.5
v -0.9 2.7 -0.6
v -0.4 2.7 -0.6
v 0.4 2.7 -0.6
v 0.9 2.7 -0.6
v -0.4 2.7 -0.7
v 0.4 2.7 -0.7
v -0.4 2.7 -0.8
v 0.4 2.7 -0.8
v -0.2 2.7 -0.9
v -0.1 2.7 -0.9
v 0.1 2.7 -0.9
v 0.2 2.7 -0.9
v -0.4 2.7 -1
v -0.3 2.7 -1
v -0.2 2.7 -1
v -0.1 2.7 -1
v 0.1 2.7 -1
v 0.2 2.7 -1
v 0.3 2.7 -1
v 0.4 2.7 -1
v -0.3 2.7 -1.1
v 0.3 2.7 -1.1
v -0.4 2.8 -0.1
v -0.3 2.8 -0.1
v 0.3 2.8 -0.1
v 0.4 2.8 -0.1
v -0.8 2.8 -0.2
v -0.4 2.8 -0.2
v 0.4 2.8 -0.2
v 0.8 2.8 -0.2
v -0.8 2.8 -0.5
v -0.4 2.8 -0.5
v 0.4 2.8 -0.5
v 0.8 2.8 -0.5
v -0.4 2.8 -0.6
v -0.3 2.8 -0.6
v 0.3 2.8 -0.6
v 0.4 2.8 -0.6
v -0.2 2.9 0
v 0.2 2.9 0
v -0.2 2.9 -0.1
v 0.2 2.9 -0.1
v -0.2 2.9 -0.9
v 0.2 2.9 -0.9
v -0.2 2.9 -1
v 0.2 2.9 -1
v -0.3 3.3 -0.6
v -0.2 3.3 -0.6
v 0.2 3.3 -0.6
v 0.3 3.3 -0.6
v -0.3 3.3 -0.7
v -0.2 3.3 -0.7
v 0.2 3.3 -0.7
v 0.3 3.3 -0.7
v -0.3 3.4 0
v 0.3 3.4 0
v -0.3 3.4 -0.4
v -0.2 3.4 -0.4
v -0.3 3.4 -0.5
v -0.2 3.4 -0.5
v -0.3 3.4 -0.6
v -0.2 3.4 -0.6
v 0.2 3.4 -0.6
v 0.3 3.4 -0.6
v -0.2 3.4 -0.7
v 0.2 3.4 -0.7
v -0.3 3.6 -0.4
v -0.2 3.6 -0.4
v -0.3 3.6 -0.5
v -0.2 3.6 -0.5

# faces
f 3/3/1 2/3/1 1/3/1
f 4/3/1 2/3/1 3/3/1
f 7/3/1 6/3/1 5/3/1
f 8/3/1 6/3/1 7/3/1
f 11/3/1 10/3/1 9/3/1
f 12/3/1 10/3/1 11/3/1
f 14/9/1 12/9/1 11/9/1
f 15/9/1 12/9/1 14/9/1
f 17/9/1 15/9/1 14/9/1
f 17/9/1 16/9/1 15/9/1
f 17/9/1 14/9/1 13/9/1
f 18/9/1 16/9/1 17/9/1
f 21/9/1 20/9/1 19/9/1
f 22/9/1 20/9/1 21/9/1
f 25/3/1 24/3/1 23/3/1
f 26/3/1 24/3/1 25/3/1
f 29/11/1 28/11/1 27/11/1
f 30/11/1 28/11/1 29/11/1
f 33/8/1 32/8/1 31/8/1
f 34/8/1 32/8/1 33/8/1
f 35/8/1 32/8/1 34/8/1
f 36/8/1 32/8/1 35/8/1
f 37/9/1 36/9/1 35/9/1
f 38/9/1 36/9/1 37/9/1
f 39/9/1 36/9/1 38/9/1
f 40/9/1 36/9/1 39/9/1
f 41/9/1 36/9/1 40/9/1
f 44/9/1 43/9/1 42/9/1
f 45/9/1 43/9/1 44/9/1
f 47/9/1 46/9/1 45/9/1
f 49/9/1 47/9/1 45/9/1
f 49/9/1 48/9/1 47/9/1
f 50/9/1 48/9/1 49/9/1
f 51/9/1 48/9/1 50/9/1
f 52/9/1 48/9/1 51/9/1
f 53/9/1 48/9/1 52/9/1
f 54/9/1 48/9/1 53/9/1
f 57/9/1 56/9/1 55/9/1
f 58/9/1 56/9/1 57/9/1
f 65/5/1 64/5/1 63/5/1
f 67/10/1 60/10/1 59/10/1
f 68/10/1 60/10/1 67/10/1
f 69/5/1 66/5/1 65/5/1
f 69/5/1 65/5/1 63/5/1
f 70/5/1 66/5/1 69/5/1
f 74/5/1 62/5/1 61/5/1
f 75/5/1 62/5/1 74/5/1
f 76/5/1 69/5/1 63/5/1
f 77/5/1 69/5/1 76/5/1
f 78/9/1 72/9/1 71/9/1
f 79/9/1 72/9/1 78/9/1
f 80/9/1 74/9/1 73/9/1
f 81/9/1 74/9/1 80/9/1
f 86/5/1 85/5/1 84/5/1
f 87/5/1 85/5/1 86/5/1
f 90/10/1 89/10/1 88/10/1
f 91/10/1 89/10/1 90/10/1
f 92/5/1 83/5/1 82/5/1
f 93/5/1 83/5/1 92/5/1
f 96/5/1 95/5/1 94/5/1
f 97/5/1 95/5/1 96/5/1
f 101/7/1 99/7/1 98/7/1
f 101/7/1 100/7/1 99/7/1
f 103/7/1 101/7/1 98/7/1
f 103/7/1 102/7/1 101/7/1
f 104/7/1 102/7/1 103/7/1
f 105/7/1 103/7/1 98/7/1
f 106/7/1 103/7/1 105/7/1
f 107/7/1 103/7/1 106/7/1
f 108/7/1 103/7/1 107/7/1
f 109/6/1 107/6/1 106/6/1
f 110/6/1 107/6/1 109/6/1
f 115/7/1 114/7/1 113/7/1
f 116/7/1 114/7/1 115/7/1
f 117/12/1 112/12/1 111/12/1
f 118/12/1 112/12/1 117/12/1
f 121/7/1 120/7/1 119/7/1
f 122/7/1 120/7/1 121/7/1
f 125/3/1 124/3/1 123/3/1
f 126/3/1 124/3/1 125/3/1
f 129/12/1 128/12/1 127/12/1
f 130/12/1 128/12/1 129/12/1
f 133/8/1 132/8/1 131/8/1
f 134/8/1 132/8/1 133/8/1
f 135/8/1 132/8/1 134/8/1
f 136/8/1 132/8/1 135/8/1
f 137/9/1 136/9/1 135/9/1
f 138/9/1 136/9/1 137/9/1
f 141/7/1 140/7/1 139/7/1
f 142/7/1 140/7/1 141/7/1
f 145/9/1 144/9/1 143/9/1
f 146/9/1 144/9/1 145/9/1
f 149/9/1 148/9/1 147/9/1
f 150/9/1 148/9/1 149/9/1
f 153/3/1 152/3/1 151/3/1
f 154/3/1 152/3/1 153/3/1
f 155/9/1 154/9/1 153/9/1
f 156/9/1 154/9/1 155/9/1
f 158/9/1 157/9/1 156/9/1
f 159/9/1 157/9/1 158/9/1
f 160/3/2 161/3/2 162/3/2
f 162/3/2 161/3/2 163/3/2
f 162/9/2 163/9/2 164/9/2
f 164/9/2 163/9/2 165/9/2
f 165/9/2 166/9/2 167/9/2
f 167/9/2 166/9/2 168/9/2
f 169/9/2 170/9/2 171/9/2
f 171/9/2 170/9/2 172/9/2
f 173/9/2 174/9/2 175/9/2
f 175/9/2 174/9/2 176/9/2
f 177/8/2 178/8/2 179/8/2
f 179/8/2 178/8/2 180/8/2
f 180/8/2 178/8/2 181/8/2
f 181/8/2 178/8/2 182/8/2
f 181/9/2 182/9/2 183/9/2
f 183/9/2 182/9/2 184/9/2
f 185/7/2 186/7/2 187/7/2
f 187/7/2 186/7/2 188/7/2
f 189/6/2 190/6/2 191/6/2
f 191/6/2 190/6/2 192/6/2
f 193/3/2 194/3/2 195/3/2
f 195/3/2 194/3/2 196/3/2
f 197/12/2 198/12/2 199/12/2
f 199/12/2 198/12/2 200/12/2
f 203/7/2 204/7/2 205/7/2
f 205/7/2 204/7/2 206/7/2
f 201/12/2 202/12/2 207/12/2
f 207/12/2 202/12/2 208/12/2
f 209/7/2 210/7/2 211/7/2
f 211/7/2 210/7/2 212/7/2
f 215/5/2 216/5/2 217/5/2
f 217/5/2 216/5/2 218/5/2
f 219/10/2 220/10/2 221/10/2
f 221/10/2 220/10/2 222/10/2
f 213/5/2 214/5/2 223/5/2
f 223/5/2 214/5/2 224/5/2
f 225/5/2 226/5/2 227/5/2
f 227/5/2 226/5/2 228/5/2
f 229/7/2 230/7/2 232/7/2
f 230/7/2 231/7/2 232/7/2
f 229/7/2 232/7/2 234/7/2
f 232/7/2 233/7/2 234/7/2
f 234/7/2 233/7/2 235/7/2
f 229/7/2 234/7/2 236/7/2
f 236/7/2 234/7/2 237/7/2
f 242/5/2 243/5/2 244/5/2
f 238/10/2 239/10/2 246/10/2
f 246/10/2 239/10/2 247/10/2
f 244/5/2 245/5/2 248/5/2
f 242/5/2 244/5/2 248/5/2
f 248/5/2 245/5/2 249/5/2
f 240/5/2 241/5/2 253/5/2
f 253/5/2 241/5/2 254/5/2
f 242/5/2 248/5/2 255/5/2
f 255/5/2 248/5/2 256/5/2
f 250/9/2 251/9/2 257/9/2
f 257/9/2 251/9/2 258/9/2
f 252/9/2 253/9/2 259/9/2
f 259/9/2 253/9/2 260/9/2
f 261/9/2 262/9/2 263/9/2
f 263/9/2 262/9/2 264/9/2
f 265/9/2 266/9/2 267/9/2
f 267/9/2 266/9/2 268/9/2
f 268/9/2 269/9/2 270/9/2
f 268/9/2 270/9/2 272/9/2
f 270/9/2 271/9/2 272/9/2
f 272/9/2 271/9/2 273/9/2
f 273/9/2 271/9/2 274/9/2
f 274/9/2 271/9/2 275/9/2
f 275/9/2 271/9/2 276/9/2
f 276/9/2 271/9/2 277/9/2
f 278/8/2 279/8/2 280/8/2
f 280/8/2 279/8/2 281/8/2
f 281/8/2 279/8/2 282/8/2
f 282/8/2 279/8/2 283/8/2
f 282/9/2 283/9/2 284/9/2
f 284/9/2 283/9/2 285/9/2
f 285/9/2 283/9/2 286/9/2
f 286/9/2 283/9/2 287/9/2
f 287/9/2 283/9/2 288/9/2
f 289/3/2 290/3/2 291/3/2
f 291/3/2 290/3/2 292/3/2
f 293/11/2 294/11/2 295/11/2
f 295/11/2 294/11/2 296/11/2
f 297/9/2 298/9/2 299/9/2
f 299/9/2 298/9/2 300/9/2
f 301/3/2 302/3/2 303/3/2
f 303/3/2 302/3/2 304/3/2
f 305/3/2 306/3/2 307/3/2
f 307/3/2 306/3/2 308/3/2
f 307/9/2 308/9/2 310/9/2
f 310/9/2 308/9/2 311/9/2
f 310/9/2 311/9/2 313/9/2
f 311/9/2 312/9/2 313/9/2
f 309/9/2 310/9/2 313/9/2
f 313/9/2 312/9/2 314/9/2
f 315/3/2 316/3/2 317/3/2
f 317/3/2 316/3/2 318/3/2
f 321/3/3 320/3/3 319/3/3
f 322/3/3 320/3/3 321/3/3
f 325/3/3 324/3/3 323/3/3
f 326/3/3 324/3/3 325/3/3
f 329/8/3 328/8/3 327/8/3
f 330/8/3 328/8/3 329/8/3
f 333/8/3 332/8/3 331/8/3
f 334/8/3 332/8/3 333/8/3
f 339/9/3 336/9/3 335/9/3
f 340/9/3 336/9/3 339/9/3
f 341/10/3 338/10/3 337/10/3
f 345/10/3 341/10/3 337/10/3
f 345/10/3 342/10/3 341/10/3
f 346/10/3 342/10/3 345/10/3
f 347/7/3 344/7/3 343/7/3
f 348/7/3 344/7/3 347/7/3
f 349/10/3 345/10/3 337/10/3
f 349/4/3 346/4/3 345/4/3
f 350/10/3 342/10/3 346/10/3
f 350/4/3 346/4/3 349/4/3
f 351/10/3 349/10/3 337/10/3
f 351/10/3 350/10/3 349/10/3
f 352/10/3 342/10/3 350/10/3
f 352/10/3 350/10/3 351/10/3
f 353/10/3 351/10/3 337/10/3
f 353/2/3 352/2/3 351/2/3
f 354/10/3 342/10/3 352/10/3
f 354/2/3 352/2/3 353/2/3
f 355/7/3 347/7/3 343/7/3
f 356/7/3 344/7/3 348/7/3
f 359/10/3 342/10/3 354/10/3
f 359/10/3 354/10/3 353/10/3
f 360/10/3 342/10/3 359/10/3
f 361/7/3 355/7/3 343/7/3
f 361/7/3 356/7/3 355/7/3
f 362/7/3 344/7/3 356/7/3
f 362/7/3 356/7/3 361/7/3
f 363/10/3 353/10/3 337/10/3
f 363/10/3 359/10/3 353/10/3
f 364/10/3 359/10/3 363/10/3
f 365/9/3 358/9/3 357/9/3
f 366/9/3 358/9/3 365/9/3
f 369/9/3 368/9/3 367/9/3
f 374/9/3 373/9/3 372/9/3
f 375/9/3 373/9/3 374/9/3
f 377/9/3 369/9/3 367/9/3
f 377/9/3 370/9/3 369/9/3
f 378/9/3 370/9/3 377/9/3
f 379/9/3 376/9/3 375/9/3
f 380/9/3 370/9/3 378/9/3
f 381/9/3 380/9/3 379/9/3
f 382/9/3 370/9/3 380/9/3
f 382/9/3 380/9/3 381/9/3
f 383/9/3 370/9/3 382/9/3
f 385/9/3 374/9/3 372/9/3
f 386/9/3 379/9/3 375/9/3
f 386/9/3 381/9/3 379/9/3
f 387/9/3 384/9/3 383/9/3
f 387/9/3 383/9/3 382/9/3
f 388/9/3 384/9/3 387/9/3
f 389/9/3 384/9/3 388/9/3
f 390/8/3 372/8/3 371/8/3
f 391/9/3 385/9/3 372/9/3
f 391/8/3 372/8/3 390/8/3
f 391/9/3 386/9/3 385/9/3
f 392/9/3 381/9/3 386/9/3
f 392/9/3 386/9/3 391/9/3
f 397/9/3 381/9/3 392/9/3
f 398/1/3 394/1/3 393/1/3
f 399/1/3 394/1/3 398/1/3
f 400/9/3 397/9/3 396/9/3
f 401/9/3 397/9/3 400/9/3
f 403/9/3 389/9/3 388/9/3
f 404/9/3 389/9/3 403/9/3
f 405/9/3 397/9/3 401/9/3
f 405/9/3 381/9/3 397/9/3
f 406/9/3 404/9/3 403/9/3
f 406/9/3 403/9/3 402/9/3
f 407/9/3 404/9/3 406/9/3
f 408/9/3 404/9/3 407/9/3
f 409/9/3 405/9/3 401/9/3
f 409/9/3 406/9/3 405/9/3
f 409/9/3 407/9/3 406/9/3
f 410/9/3 407/9/3 409/9/3
f 411/9/3 400/9/3 396/9/3
f 412/9/3 409/9/3 401/9/3
f 413/9/3 409/9/3 412/9/3
f 415/9/3 407/9/3 410/9/3
f 416/8/3 396/8/3 395/8/3
f 417/9/3 411/9/3 396/9/3
f 417/8/3 396/8/3 416/8/3
f 417/9/3 412/9/3 411/9/3
f 418/9/3 412/9/3 417/9/3
f 419/9/3 415/9/3 414/9/3
f 419/9/3 407/9/3 415/9/3
f 420/9/3 407/9/3 419/9/3
f 421/9/3 419/9/3 414/9/3
f 422/9/3 419/9/3 421/9/3
f 426/3/3 424/3/3 423/3/3
f 427/3/3 424/3/3 426/3/3
f 433/3/3 426/3/3 425/3/3
f 433/3/3 427/3/3 426/3/3
f 433/3/3 428/3/3 427/3/3
f 434/9/3 429/9/3 428/9/3
f 434/3/3 428/3/3 433/3/3
f 435/9/3 429/9/3 434/9/3
f 436/9/3 433/9/3 432/9/3
f 437/9/3 433/9/3 436/9/3
f 441/9/3 439/9/3 438/9/3
f 441/9/3 440/9/3 439/9/3
f 442/9/3 440/9/3 441/9/3
f 443/11/3 431/11/3 430/11/3
f 444/11/3 431/11/3 443/11/3
f 451/9/3 448/9/3 447/9/3
f 452/9/3 448/9/3 451/9/3
f 453/9/3 448/9/3 452/9/3
f 454/9/3 450/9/3 449/9/3
f 455/9/3 450/9/3 454/9/3
f 458/11/3 446/11/3 445/11/3
f 459/11/3 446/11/3 458/11/3
f 460/3/3 456/3/3 455/3/3
f 461/3/3 456/3/3 460/3/3
f 462/3/3 456/3/3 461/3/3
f 463/9/3 457/9/3 456/9/3
f 463/3/3 456/3/3 462/3/3
f 464/9/3 457/9/3 463/9/3
f 465/3/3 462/3/3 461/3/3
f 466/3/3 462/3/3 465/3/3
f 469/6/3 468/6/3 467/6/3
f 470/6/3 468/6/3 469/6/3
f 473/5/3 472/5/3 471/5/3
f 474/5/3 472/5/3 473/5/3
f 476/5/3 472/5/3 474/5/3
f 477/5/3 476/5/3 475/5/3
f 478/5/3 472/5/3 476/5/3
f 478/5/3 476/5/3 477/5/3
f 481/12/3 480/12/3 479/12/3
f 482/12/3 480/12/3 481/12/3
f 484/12/3 480/12/3 482/12/3
f 485/12/3 484/12/3 483/12/3
f 486/12/3 480/12/3 484/12/3
f 486/12/3 484/12/3 485/12/3
f 487/3/4 488/3/4 490/3/4
f 490/3/4 488/3/4 491/3/4
f 489/3/4 490/3/4 496/3/4
f 490/3/4 491/3/4 496/3/4
f 491/3/4 492/3/4 496/3/4
f 492/9/4 493/9/4 497/9/4
f 496/3/4 492/3/4 497/3/4
f 497/9/4 493/9/4 498/9/4
f 498/9/4 499/9/4 500/9/4
f 500/9/4 499/9/4 501/9/4
f 494/11/4 495/11/4 502/11/4
f 502/11/4 495/11/4 503/11/4
f 504/6/4 505/6/4 506/6/4
f 506/6/4 505/6/4 507/6/4
f 510/9/4 511/9/4 514/9/4
f 514/9/4 511/9/4 515/9/4
f 508/11/4 509/11/4 516/11/4
f 516/11/4 509/11/4 517/11/4
f 512/3/4 513/3/4 518/3/4
f 518/3/4 513/3/4 519/3/4
f 519/3/4 513/3/4 520/3/4
f 513/9/4 514/9/4 521/9/4
f 520/3/4 513/3/4 521/3/4
f 521/9/4 514/9/4 522/9/4
f 519/3/4 520/3/4 523/3/4
f 523/3/4 520/3/4 524/3/4
f 525/9/4 526/9/4 527/9/4
f 525/9/4 527/9/4 532/9/4
f 527/9/4 528/9/4 532/9/4
f 532/9/4 528/9/4 533/9/4
f 530/9/4 531/9/4 534/9/4
f 533/9/4 528/9/4 535/9/4
f 534/9/4 535/9/4 536/9/4
f 535/9/4 528/9/4 537/9/4
f 536/9/4 535/9/4 537/9/4
f 537/9/4 538/9/4 539/9/4
f 529/8/4 530/8/4 543/8/4
f 530/9/4 534/9/4 544/9/4
f 543/8/4 530/8/4 544/8/4
f 534/9/4 536/9/4 544/9/4
f 544/9/4 536/9/4 545/9/4
f 539/7/4 540/7/4 546/7/4
f 537/9/4 539/9/4 546/9/4
f 546/7/4 540/7/4 547/7/4
f 541/7/4 542/7/4 548/7/4
f 548/7/4 542/7/4 549/7/4
f 545/9/4 536/9/4 552/9/4
f 537/9/4 546/9/4 553/9/4
f 537/9/4 553/9/4 557/9/4
f 553/7/4 554/7/4 557/7/4
f 557/7/4 554/7/4 558/7/4
f 555/7/4 556/7/4 559/7/4
f 559/7/4 556/7/4 560/7/4
f 551/9/4 552/9/4 561/9/4
f 552/9/4 536/9/4 561/9/4
f 537/9/4 557/9/4 562/9/4
f 562/9/4 557/9/4 563/9/4
f 551/9/4 561/9/4 564/9/4
f 561/9/4 562/9/4 564/9/4
f 564/9/4 562/9/4 565/9/4
f 550/8/4 551/8/4 566/8/4
f 551/9/4 564/9/4 567/9/4
f 566/8/4 551/8/4 567/8/4
f 567/9/4 564/9/4 568/9/4
f 565/9/4 562/9/4 570/9/4
f 569/9/4 570/9/4 571/9/4
f 570/9/4 562/9/4 571/9/4
f 571/9/4 562/9/4 572/9/4
f 569/9/4 571/9/4 573/9/4
f 573/9/4 571/9/4 574/9/4
f 577/5/4 578/5/4 579/5/4
f 579/5/4 578/5/4 580/5/4
f 581/7/4 582/7/4 584/7/4
f 584/7/4 582/7/4 585/7/4
f 575/3/4 576/3/4 587/3/4
f 587/3/4 576/3/4 588/3/4
f 585/7/4 586/7/4 591/7/4
f 583/7/4 584/7/4 591/7/4
f 584/7/4 585/7/4 591/7/4
f 591/7/4 586/7/4 592/7/4
f 592/7/4 586/7/4 593/7/4
f 593/7/4 586/7/4 594/7/4
f 580/5/4 578/5/4 596/5/4
f 592/7/4 593/7/4 597/7/4
f 597/7/4 593/7/4 598/7/4
f 595/5/4 596/5/4 599/5/4
f 596/5/4 578/5/4 600/5/4
f 599/5/4 596/5/4 600/5/4
f 589/3/4 590/3/4 601/3/4
f 601/3/4 590/3/4 602/3/4
f 603/5/4 604/5/4 607/5/4
f 607/5/4 604/5/4 608/5/4
f 605/5/4 606/5/4 609/5/4
f 609/5/4 606/5/4 610/5/4
f 611/12/4 612/12/4 613/12/4
f 613/12/4 612/12/4 614/12/4
f 614/12/4 612/12/4 616/12/4
f 615/12/4 616/12/4 617/12/4
f 616/12/4 612/12/4 618/12/4
f 617/12/4 616/12/4 618/12/4
f 619/5/4 620/5/4 623/5/4
f 623/5/4 620/5/4 624/5/4
f 621/5/4 622/5/4 625/5/4
f 625/5/4 622/5/4 626/5/4
f 627/5/4 628/5/4 630/5/4
f 630/5/4 628/5/4 631/5/4
f 629/5/4 630/5/4 633/5/4
f 631/5/4 632/5/4 633/5/4
f 630/5/4 631/5/4 633/5/4
f 633/5/4 632/5/4 634/5/4
f 634/5/4 632/5/4 635/5/4
f 635/5/4 632/5/4 636/5/4
f 634/5/4 635/5/4 637/5/4
f 637/5/4 635/5/4 638/5/4
f 643/3/5 640/3/5 639/3/5
f 644/3/5 640/3/5 643/3/5
f 645/3/5 642/3/5 641/3/5
f 646/3/5 642/3/5 645/3/5
f 651/9/5 648/9/5 647/9/5
f 652/9/5 648/9/5 651/9/5
f 653/9/5 650/9/5 649/9/5
f 654/9/5 650/9/5 653/9/5
f 661/3/5 658/3/5 657/3/5
f 662/3/5 658/3/5 661/3/5
f 663/3/5 660/3/5 659/3/5
f 664/3/5 660/3/5 663/3/5
f 665/9/5 656/9/5 655/9/5
f 666/9/5 656/9/5 665/9/5
f 671/3/5 668/3/5 667/3/5
f 672/3/5 668/3/5 671/3/5
f 673/3/5 670/3/5 669/3/5
f 674/3/5 670/3/5 673/3/5
f 677/10/5 676/10/5 675/10/5
f 678/10/5 676/10/5 677/10/5
f 681/5/5 680/5/5 679/5/5
f 682/5/5 680/5/5 681/5/5
f 683/5/5 680/5/5 682/5/5
f 684/5/5 680/5/5 683/5/5
f 686/5/5 683/5/5 682/5/5
f 687/5/5 683/5/5 686/5/5
f 689/5/5 686/5/5 685/5/5
f 689/5/5 688/5/5 687/5/5
f 689/5/5 687/5/5 686/5/5
f 690/5/5 688/5/5 689/5/5
f 691/5/5 688/5/5 690/5/5
f 692/5/5 688/5/5 691/5/5
f 693/5/5 691/5/5 690/5/5
f 694/5/5 691/5/5 693/5/5
f 699/5/5 696/5/5 695/5/5
f 700/5/5 696/5/5 699/5/5
f 701/5/5 698/5/5 697/5/5
f 702/5/5 698/5/5 701/5/5
f 707/9/5 704/9/5 703/9/5
f 708/9/5 704/9/5 707/9/5
f 709/9/5 704/9/5 708/9/5
f 710/9/5 706/9/5 705/9/5
f 711/9/5 706/9/5 710/9/5
f 712/9/5 706/9/5 711/9/5
f 714/9/5 709/9/5 708/9/5
f 715/9/5 709/9/5 714/9/5
f 716/9/5 711/9/5 710/9/5
f 717/9/5 711/9/5 716/9/5
f 719/9/5 714/9/5 713/9/5
f 720/9/5 714/9/5 719/9/5
f 721/9/5 718/9/5 717/9/5
f 722/9/5 718/9/5 721/9/5
f 727/9/5 724/9/5 723/9/5
f 728/9/5 724/9/5 727/9/5
f 729/9/5 726/9/5 725/9/5
f 730/9/5 726/9/5 729/9/5
f 735/9/5 732/9/5 731/9/5
f 736/9/5 732/9/5 735/9/5
f 737/9/5 734/9/5 733/9/5
f 738/9/5 734/9/5 737/9/5
f 741/7/5 740/7/5 739/7/5
f 742/7/5 740/7/5 741/7/5
f 745/7/5 744/7/5 743/7/5
f 746/7/5 744/7/5 745/7/5
f 749/12/5 748/12/5 747/12/5
f 750/12/5 748/12/5 749/12/5
f 755/7/5 752/7/5 751/7/5
f 756/7/5 752/7/5 755/7/5
f 757/7/5 754/7/5 753/7/5
f 758/7/5 754/7/5 757/7/5
f 761/7/5 760/7/5 759/7/5
f 762/7/5 760/7/5 761/7/5
f 763/3/6 764/3/6 767/3/6
f 767/3/6 764/3/6 768/3/6
f 765/3/6 766/3/6 769/3/6
f 769/3/6 766/3/6 770/3/6
f 763/3/6 767/3/6 771/3/6
f 768/3/6 764/3/6 772/3/6
f 765/3/6 769/3/6 773/3/6
f 770/3/6 766/3/6 774/3/6
f 763/3/6 771/3/6 775/3/6
f 771/3/6 772/3/6 775/3/6
f 772/3/6 764/3/6 776/3/6
f 775/3/6 772/3/6 776/3/6
f 773/3/6 774/3/6 777/3/6
f 765/3/6 773/3/6 777/3/6
f 774/3/6 766/3/6 778/3/6
f 777/3/6 774/3/6 778/3/6
f 779/8/6 780/8/6 783/8/6
f 783/8/6 780/8/6 784/8/6
f 781/8/6 782/8/6 785/8/6
f 785/8/6 782/8/6 786/8/6
f 787/9/6 788/9/6 792/9/6
f 792/9/6 788/9/6 793/9/6
f 789/9/6 790/9/6 794/9/6
f 794/9/6 790/9/6 795/9/6
f 791/9/6 792/9/6 797/9/6
f 797/9/6 792/9/6 798/9/6
f 795/9/6 796/9/6 799/9/6
f 799/9/6 796/9/6 800/9/6
f 801/9/6 802/9/6 805/9/6
f 803/9/6 804/9/6 806/9/6
f 805/9/6 802/9/6 807/9/6
f 807/9/6 802/9/6 808/9/6
f 803/9/6 806/9/6 809/9/6
f 809/9/6 806/9/6 810/9/6
f 811/9/6 812/9/6 815/9/6
f 815/9/6 812/9/6 816/9/6
f 813/9/6 814/9/6 817/9/6
f 817/9/6 814/9/6 818/9/6
f 819/3/6 820/3/6 823/3/6
f 823/3/6 820/3/6 824/3/6
f 821/3/6 822/3/6 825/3/6
f 825/3/6 822/3/6 826/3/6
f 827/10/6 828/10/6 831/10/6
f 831/10/6 828/10/6 832/10/6
f 829/10/6 830/10/6 833/10/6
f 833/10/6 830/10/6 834/10/6
f 835/10/6 836/10/6 839/10/6
f 839/10/6 836/10/6 840/10/6
f 837/9/6 838/9/6 843/9/6
f 843/9/6 838/9/6 844/9/6
f 841/9/6 842/9/6 845/9/6
f 845/9/6 842/9/6 846/9/6
f 847/5/6 848/5/6 849/5/6
f 849/5/6 848/5/6 850/5/6
f 851/5/6 852/5/6 855/5/6
f 855/5/6 852/5/6 856/5/6
f 853/5/6 854/5/6 857/5/6
f 857/5/6 854/5/6 858/5/6
f 859/9/6 860/9/6 863/9/6
f 863/9/6 860/9/6 864/9/6
f 861/9/6 862/9/6 865/9/6
f 865/9/6 862/9/6 866/9/6
f 859/9/6 863/9/6 867/9/6
f 866/9/6 862/9/6 870/9/6
f 867/9/6 868/9/6 871/9/6
f 859/9/6 867/9/6 871/9/6
f 871/9/6 868/9/6 872/9/6
f 869/9/6 870/9/6 873/9/6
f 870/9/6 862/9/6 874/9/6
f 873/9/6 870/9/6 874/9/6
f 872/5/6 873/5/6 875/5/6
f 875/5/6 873/5/6 876/5/6
f 877/5/6 878/5/6 879/5/6
f 879/5/6 878/5/6 880/5/6
f 880/5/6 878/5/6 881/5/6
f 881/5/6 878/5/6 882/5/6
f 877/5/6 879/5/6 883/5/6
f 883/5/6 879/5/6 884/5/6
f 884/5/6 879/5/6 885/5/6
f 880/5/6 881/5/6 886/5/6
f 886/5/6 881/5/6 887/5/6
f 882/5/6 878/5/6 888/5/6
f 888/5/6 878/5/6 889/5/6
f 889/5/6 878/5/6 890/5/6
f 886/5/6 887/5/6 891/5/6
f 884/5/6 885/5/6 891/5/6
f 888/5/6 889/5/6 891/5/6
f 887/5/6 888/5/6 891/5/6
f 885/5/6 886/5/6 891/5/6
f 891/5/6 889/5/6 892/5/6
f 893/9/6 894/9/6 898/9/6
f 895/9/6 896/9/6 899/9/6
f 897/11/6 898/11/6 901/11/6
f 898/9/6 894/9/6 902/9/6
f 901/11/6 898/11/6 902/11/6
f 899/11/6 900/11/6 903/11/6
f 895/9/6 899/9/6 903/9/6
f 903/11/6 900/11/6 904/11/6
f 902/9/6 894/9/6 905/9/6
f 905/9/6 894/9/6 906/9/6
f 895/9/6 903/9/6 907/9/6
f 907/9/6 903/9/6 908/9/6
f 909/7/6 910/7/6 911/7/6
f 911/7/6 910/7/6 912/7/6
f 913/12/6 914/12/6 915/12/6
f 915/12/6 914/12/6 916/12/6
f 917/7/6 918/7/6 921/7/6
f 921/7/6 918/7/6 922/7/6
f 919/7/6 920/7/6 923/7/6
f 923/7/6 920/7/6 924/7/6
f 925/7/6 926/7/6 927/7/6
f 927/7/6 926/7/6 928/7/6
f 928/7/6 926/7/6 930/7/6
f 929/7/6 930/7/6 931/7/6
f 930/7/6 926/7/6 932/7/6
f 931/7/6 930/7/6 932/7/6
f 932/7/6 926/7/6 933/7/6
f 933/7/6 926/7/6 934/7/6
f 932/7/6 933/7/6 935/7/6
f 935/7/6 933/7/6 936/7/6
f 937/6/6 938/6/6 939/6/6
f 939/6/6 938/6/6 940/6/6
