# MagicaVoxel @ Ephtracy

# group
o 

# material
mtllib povann-6.mtl
usemtl palette

# normals
vn -1 0 0
vn 1 0 0
vn 0 0 1
vn 0 0 -1
vn 0 -1 0
vn 0 1 0

# texcoords
vt 0.0214844 0.5
vt 0.0253906 0.5
vt 0.0292969 0.5

# verts
v -0.3 -0.15 0.9
v -0.3 -0.15 0.8
v -0.3 -0.15 0.7
v -0.3 -0.15 0.6
v -0.3 -0.15 0.5
v -0.3 -0.15 0.3
v -0.3 -0.15 0.2
v -0.3 -0.15 0
v -0.3 -0.15 -0.1
v -0.3 -0.15 -0.2
v -0.3 -0.15 -0.3
v -0.3 -0.15 -0.4
v -0.3 -0.15 -0.5
v -0.3 -0.15 -0.6
v -0.3 -0.15 -0.7
v -0.3 -0.15 -0.8
v -0.3 -0.05 1
v -0.3 -0.05 0.9
v -0.3 -0.05 0.8
v -0.3 -0.05 0.7
v -0.3 -0.05 0.6
v -0.3 -0.05 0.5
v -0.3 -0.05 0.3
v -0.3 -0.05 0.2
v -0.3 -0.05 0.1
v -0.3 -0.05 0
v -0.3 -0.05 -0.1
v -0.3 -0.05 -0.2
v -0.3 -0.05 -0.3
v -0.3 -0.05 -0.4
v -0.3 -0.05 -0.5
v -0.3 -0.05 -0.6
v -0.3 -0.05 -0.7
v -0.3 -0.05 -0.8
v -0.3 -0.05 -0.9
v -0.3 -0.05 -1
v -0.3 0.05 1
v -0.3 0.05 0.9
v -0.3 0.05 0.8
v -0.3 0.05 0.7
v -0.3 0.05 0.5
v -0.3 0.05 0.3
v -0.3 0.05 0.2
v -0.3 0.05 0.1
v -0.3 0.05 -0.2
v -0.3 0.05 -0.3
v -0.3 0.05 -0.4
v -0.3 0.05 -0.7
v -0.3 0.05 -0.8
v -0.3 0.05 -0.9
v -0.3 0.05 -1
v -0.3 0.15 0.9
v -0.3 0.15 0.8
v -0.3 0.15 0.7
v -0.3 0.15 0.5
v -0.3 0.15 0.3
v -0.3 0.15 0.1
v -0.3 0.15 0
v -0.3 0.15 -0.2
v -0.3 0.15 -0.3
v -0.3 0.15 -0.4
v -0.3 0.15 -0.6
v -0.3 0.15 -0.7
v -0.3 0.15 -0.8
v -0.2 -0.15 0.9
v -0.2 -0.15 0.8
v -0.2 -0.15 -0.6
v -0.2 -0.15 -0.7
v -0.2 -0.15 -0.8
v -0.2 -0.05 1
v -0.2 -0.05 0.9
v -0.2 -0.05 0.8
v -0.2 -0.05 -0.6
v -0.2 -0.05 -0.7
v -0.2 -0.05 -0.8
v -0.2 -0.05 -0.9
v -0.2 -0.05 -1
v -0.2 0.05 1
v -0.2 0.05 0.9
v -0.2 0.05 0.8
v -0.2 0.05 -0.6
v -0.2 0.05 -0.7
v -0.2 0.05 -0.8
v -0.2 0.05 -0.9
v -0.2 0.05 -1
v -0.2 0.15 0.9
v -0.2 0.15 0.8
v -0.2 0.15 -0.6
v -0.2 0.15 -0.7
v -0.2 0.15 -0.8
v -0.1 -0.15 0.8
v -0.1 -0.15 0.7
v -0.1 -0.15 -0.4
v -0.1 -0.15 -0.5
v -0.1 -0.15 -0.6
v -0.1 -0.05 0.9
v -0.1 -0.05 0.8
v -0.1 -0.05 0.7
v -0.1 -0.05 -0.4
v -0.1 -0.05 -0.5
v -0.1 -0.05 -0.6
v -0.1 -0.05 -0.8
v -0.1 0.05 0.9
v -0.1 0.05 0.8
v -0.1 0.05 0.7
v -0.1 0.05 -0.4
v -0.1 0.05 -0.6
v -0.1 0.05 -0.8
v -0.1 0.15 0.8
v -0.1 0.15 0.7
v -0.1 0.15 -0.4
v -0.1 0.15 -0.6
v 0 -0.15 0.7
v 0 -0.15 0.6
v 0 -0.15 -0.2
v 0 -0.15 -0.4
v 0 -0.05 0.8
v 0 -0.05 0.7
v 0 -0.05 0.6
v 0 -0.05 -0.2
v 0 -0.05 -0.3
v 0 -0.05 -0.4
v 0 -0.05 -0.6
v 0 0.05 0.8
v 0 0.05 0.7
v 0 0.05 0.6
v 0 0.05 -0.2
v 0 0.05 -0.3
v 0 0.05 -0.4
v 0 0.05 -0.6
v 0 0.15 0.7
v 0 0.15 0.6
v 0 0.15 -0.2
v 0 0.15 -0.3
v 0 0.15 -0.4
v 0.1 -0.15 0.6
v 0.1 -0.15 0.3
v 0.1 -0.15 -0.1
v 0.1 -0.15 -0.2
v 0.1 -0.05 0.7
v 0.1 -0.05 0.6
v 0.1 -0.05 0.4
v 0.1 -0.05 0.3
v 0.1 -0.05 -0.1
v 0.1 -0.05 -0.2
v 0.1 -0.05 -0.3
v 0.1 -0.05 -0.4
v 0.1 0.05 0.7
v 0.1 0.05 0.6
v 0.1 0.05 0.5
v 0.1 0.05 0.4
v 0.1 0.05 0.3
v 0.1 0.05 -0.1
v 0.1 0.05 -0.2
v 0.1 0.05 -0.3
v 0.1 0.05 -0.4
v 0.1 0.15 0.6
v 0.1 0.15 0.5
v 0.1 0.15 0.4
v 0.1 0.15 0.3
v 0.1 0.15 -0.1
v 0.1 0.15 -0.2
v 0.2 -0.15 0.3
v 0.2 -0.15 0.2
v 0.2 -0.15 0.1
v 0.2 -0.15 0
v 0.2 -0.15 -0.1
v 0.2 -0.05 0.6
v 0.2 -0.05 0.4
v 0.2 -0.05 0.3
v 0.2 -0.05 0.2
v 0.2 -0.05 0.1
v 0.2 -0.05 0
v 0.2 -0.05 -0.1
v 0.2 -0.05 -0.2
v 0.2 0.05 0.6
v 0.2 0.05 0.4
v 0.2 0.05 0.3
v 0.2 0.05 0.2
v 0.2 0.05 0.1
v 0.2 0.05 0
v 0.2 0.05 -0.1
v 0.2 0.05 -0.2
v 0.2 0.15 0.3
v 0.2 0.15 0.2
v 0.2 0.15 0.1
v 0.2 0.15 0
v 0.2 0.15 -0.1
v 0.3 -0.05 0.3
v 0.3 -0.05 0.2
v 0.3 -0.05 0.1
v 0.3 -0.05 -0.1
v 0.3 0.05 0.3
v 0.3 0.05 0.2
v 0.3 0.05 0.1
v 0.3 0.05 -0.1
v -0.3 -0.05 1
v -0.3 0.05 1
v -0.2 -0.05 1
v -0.2 0.05 1
v -0.3 -0.15 0.9
v -0.3 -0.05 0.9
v -0.3 0.05 0.9
v -0.3 0.15 0.9
v -0.2 -0.15 0.9
v -0.2 -0.05 0.9
v -0.2 0.05 0.9
v -0.2 0.15 0.9
v -0.1 -0.05 0.9
v -0.1 0.05 0.9
v -0.2 -0.15 0.8
v -0.2 -0.05 0.8
v -0.2 0.05 0.8
v -0.2 0.15 0.8
v -0.1 -0.15 0.8
v -0.1 -0.05 0.8
v -0.1 0.05 0.8
v -0.1 0.15 0.8
v 0 -0.05 0.8
v 0 0.05 0.8
v -0.1 -0.15 0.7
v -0.1 -0.05 0.7
v -0.1 0.05 0.7
v -0.1 0.15 0.7
v 0 -0.15 0.7
v 0 -0.05 0.7
v 0 0.05 0.7
v 0 0.15 0.7
v 0.1 -0.05 0.7
v 0.1 0.05 0.7
v 0 -0.15 0.6
v 0 -0.05 0.6
v 0 0.05 0.6
v 0 0.15 0.6
v 0.1 -0.15 0.6
v 0.1 -0.05 0.6
v 0.1 0.05 0.6
v 0.1 0.15 0.6
v 0.2 -0.05 0.6
v 0.2 0.05 0.6
v 0.1 -0.15 0.3
v 0.1 -0.05 0.3
v 0.1 0.05 0.3
v 0.1 0.15 0.3
v 0.2 -0.15 0.3
v 0.2 -0.05 0.3
v 0.2 0.05 0.3
v 0.2 0.15 0.3
v 0.3 -0.05 0.3
v 0.3 0.05 0.3
v 0.1 -0.15 -0.1
v 0.1 -0.05 -0.1
v 0.1 0.05 -0.1
v 0.1 0.15 -0.1
v 0.2 -0.15 -0.1
v 0.2 -0.05 -0.1
v 0.2 0.05 -0.1
v 0.2 0.15 -0.1
v 0.3 -0.05 -0.1
v 0.3 0.05 -0.1
v 0 -0.15 -0.2
v 0 -0.05 -0.2
v 0 0.05 -0.2
v 0 0.15 -0.2
v 0.1 -0.15 -0.2
v 0.1 -0.05 -0.2
v 0.1 0.05 -0.2
v 0.1 0.15 -0.2
v 0.2 -0.05 -0.2
v 0.2 0.05 -0.2
v -0.1 -0.15 -0.4
v -0.1 -0.05 -0.4
v -0.1 0.05 -0.4
v -0.1 0.15 -0.4
v 0 -0.15 -0.4
v 0 -0.05 -0.4
v 0 0.05 -0.4
v 0 0.15 -0.4
v 0.1 -0.05 -0.4
v 0.1 0.05 -0.4
v -0.2 -0.15 -0.6
v -0.2 -0.05 -0.6
v -0.2 0.05 -0.6
v -0.2 0.15 -0.6
v -0.1 -0.15 -0.6
v -0.1 -0.05 -0.6
v -0.1 0.05 -0.6
v -0.1 0.15 -0.6
v 0 -0.05 -0.6
v 0 0.05 -0.6
v -0.3 -0.15 -0.8
v -0.3 -0.05 -0.8
v -0.3 0.05 -0.8
v -0.3 0.15 -0.8
v -0.2 -0.15 -0.8
v -0.2 -0.05 -0.8
v -0.2 0.05 -0.8
v -0.2 0.15 -0.8
v -0.1 -0.05 -0.8
v -0.1 0.05 -0.8
v -0.3 -0.05 -1
v -0.3 0.05 -1
v -0.2 -0.05 -1
v -0.2 0.05 -1
v -0.3 -0.15 0.9
v -0.2 -0.15 0.9
v -0.3 -0.15 0.8
v -0.2 -0.15 0.8
v -0.1 -0.15 0.8
v -0.3 -0.15 0.7
v -0.2 -0.15 0.7
v -0.1 -0.15 0.7
v 0 -0.15 0.7
v -0.3 -0.15 0.6
v -0.2 -0.15 0.6
v -0.1 -0.15 0.6
v 0 -0.15 0.6
v 0.1 -0.15 0.6
v -0.3 -0.15 0.5
v -0.2 -0.15 0.5
v -0.1 -0.15 0.5
v 0 -0.15 0.5
v -0.1 -0.15 0.4
v 0 -0.15 0.4
v -0.3 -0.15 0.3
v -0.2 -0.15 0.3
v -0.1 -0.15 0.3
v 0 -0.15 0.3
v 0.1 -0.15 0.3
v 0.2 -0.15 0.3
v -0.3 -0.15 0.2
v -0.1 -0.15 0.2
v 0 -0.15 0.2
v 0.1 -0.15 0.2
v 0.2 -0.15 0.2
v -0.2 -0.15 0.1
v -0.1 -0.15 0.1
v 0 -0.15 0.1
v 0.1 -0.15 0.1
v 0.2 -0.15 0.1
v -0.3 -0.15 0
v -0.2 -0.15 0
v -0.1 -0.15 0
v 0.1 -0.15 0
v 0.2 -0.15 0
v -0.3 -0.15 -0.1
v -0.1 -0.15 -0.1
v 0 -0.15 -0.1
v 0.1 -0.15 -0.1
v 0.2 -0.15 -0.1
v -0.3 -0.15 -0.2
v -0.2 -0.15 -0.2
v -0.1 -0.15 -0.2
v 0 -0.15 -0.2
v 0.1 -0.15 -0.2
v -0.3 -0.15 -0.3
v -0.2 -0.15 -0.3
v -0.1 -0.15 -0.3
v -0.3 -0.15 -0.4
v -0.2 -0.15 -0.4
v -0.1 -0.15 -0.4
v 0 -0.15 -0.4
v -0.3 -0.15 -0.5
v -0.2 -0.15 -0.5
v -0.1 -0.15 -0.5
v -0.3 -0.15 -0.6
v -0.2 -0.15 -0.6
v -0.1 -0.15 -0.6
v -0.3 -0.15 -0.7
v -0.2 -0.15 -0.7
v -0.3 -0.15 -0.8
v -0.2 -0.15 -0.8
v -0.3 -0.05 1
v -0.2 -0.05 1
v -0.3 -0.05 0.9
v -0.2 -0.05 0.9
v -0.1 -0.05 0.9
v -0.2 -0.05 0.8
v -0.1 -0.05 0.8
v 0 -0.05 0.8
v -0.1 -0.05 0.7
v 0 -0.05 0.7
v 0.1 -0.05 0.7
v 0 -0.05 0.6
v 0.1 -0.05 0.6
v 0.2 -0.05 0.6
v 0.1 -0.05 0.4
v 0.2 -0.05 0.4
v 0.1 -0.05 0.3
v 0.2 -0.05 0.3
v 0.3 -0.05 0.3
v 0.2 -0.05 0.2
v 0.3 -0.05 0.2
v 0.2 -0.05 0.1
v 0.3 -0.05 0.1
v 0.2 -0.05 0
v 0.1 -0.05 -0.1
v 0.2 -0.05 -0.1
v 0.3 -0.05 -0.1
v 0 -0.05 -0.2
v 0.1 -0.05 -0.2
v 0.2 -0.05 -0.2
v 0 -0.05 -0.3
v 0.1 -0.05 -0.3
v -0.1 -0.05 -0.4
v 0 -0.05 -0.4
v 0.1 -0.05 -0.4
v -0.1 -0.05 -0.5
v -0.2 -0.05 -0.6
v -0.1 -0.05 -0.6
v 0 -0.05 -0.6
v -0.2 -0.05 -0.7
v -0.3 -0.05 -0.8
v -0.2 -0.05 -0.8
v -0.1 -0.05 -0.8
v -0.3 -0.05 -0.9
v -0.2 -0.05 -0.9
v -0.3 -0.05 -1
v -0.2 -0.05 -1
v -0.3 0.05 1
v -0.2 0.05 1
v -0.3 0.05 0.9
v -0.2 0.05 0.9
v -0.1 0.05 0.9
v -0.2 0.05 0.8
v -0.1 0.05 0.8
v 0 0.05 0.8
v -0.1 0.05 0.7
v 0 0.05 0.7
v 0.1 0.05 0.7
v 0 0.05 0.6
v 0.1 0.05 0.6
v 0.2 0.05 0.6
v 0.1 0.05 0.5
v 0.1 0.05 0.4
v 0.2 0.05 0.4
v 0.1 0.05 0.3
v 0.2 0.05 0.3
v 0.3 0.05 0.3
v 0.2 0.05 0.2
v 0.3 0.05 0.2
v 0.2 0.05 0.1
v 0.3 0.05 0.1
v 0.2 0.05 0
v 0.1 0.05 -0.1
v 0.2 0.05 -0.1
v 0.3 0.05 -0.1
v 0 0.05 -0.2
v 0.1 0.05 -0.2
v 0.2 0.05 -0.2
v 0 0.05 -0.3
v 0.1 0.05 -0.3
v -0.1 0.05 -0.4
v 0 0.05 -0.4
v 0.1 0.05 -0.4
v -0.2 0.05 -0.6
v -0.1 0.05 -0.6
v 0 0.05 -0.6
v -0.2 0.05 -0.7
v -0.3 0.05 -0.8
v -0.2 0.05 -0.8
v -0.1 0.05 -0.8
v -0.3 0.05 -0.9
v -0.2 0.05 -0.9
v -0.3 0.05 -1
v -0.2 0.05 -1
v -0.3 0.15 0.9
v -0.2 0.15 0.9
v -0.3 0.15 0.8
v -0.2 0.15 0.8
v -0.1 0.15 0.8
v -0.3 0.15 0.7
v -0.2 0.15 0.7
v -0.1 0.15 0.7
v 0 0.15 0.7
v -0.2 0.15 0.6
v -0.1 0.15 0.6
v 0 0.15 0.6
v 0.1 0.15 0.6
v -0.3 0.15 0.5
v -0.2 0.15 0.5
v -0.1 0.15 0.5
v 0 0.15 0.5
v 0.1 0.15 0.5
v -0.2 0.15 0.4
v -0.1 0.15 0.4
v 0 0.15 0.4
v 0.1 0.15 0.4
v -0.3 0.15 0.3
v -0.2 0.15 0.3
v -0.1 0.15 0.3
v 0 0.15 0.3
v 0.1 0.15 0.3
v 0.2 0.15 0.3
v -0.2 0.15 0.2
v -0.1 0.15 0.2
v 0 0.15 0.2
v 0.1 0.15 0.2
v 0.2 0.15 0.2
v -0.3 0.15 0.1
v -0.1 0.15 0.1
v 0 0.15 0.1
v 0.1 0.15 0.1
v 0.2 0.15 0.1
v -0.3 0.15 0
v -0.2 0.15 0
v 0.1 0.15 0
v 0.2 0.15 0
v -0.2 0.15 -0.1
v -0.1 0.15 -0.1
v 0.1 0.15 -0.1
v 0.2 0.15 -0.1
v -0.3 0.15 -0.2
v -0.2 0.15 -0.2
v -0.1 0.15 -0.2
v 0 0.15 -0.2
v 0.1 0.15 -0.2
v -0.3 0.15 -0.3
v -0.2 0.15 -0.3
v -0.1 0.15 -0.3
v 0 0.15 -0.3
v -0.3 0.15 -0.4
v -0.2 0.15 -0.4
v -0.1 0.15 -0.4
v 0 0.15 -0.4
v -0.3 0.15 -0.6
v -0.2 0.15 -0.6
v -0.1 0.15 -0.6
v -0.3 0.15 -0.7
v -0.2 0.15 -0.7
v -0.3 0.15 -0.8
v -0.2 0.15 -0.8

# faces
f 18/1/1 2/1/1 1/1/1
f 19/2/1 3/2/1 2/2/1
f 19/1/1 2/1/1 18/1/1
f 20/1/1 4/1/1 3/1/1
f 20/2/1 3/2/1 19/2/1
f 21/3/1 5/3/1 4/3/1
f 21/1/1 4/1/1 20/1/1
f 22/2/1 6/2/1 5/2/1
f 22/3/1 5/3/1 21/3/1
f 23/1/1 7/1/1 6/1/1
f 23/2/1 6/2/1 22/2/1
f 24/2/1 8/2/1 7/2/1
f 24/1/1 7/1/1 23/1/1
f 25/2/1 8/2/1 24/2/1
f 26/1/1 9/1/1 8/1/1
f 26/2/1 8/2/1 25/2/1
f 27/2/1 10/2/1 9/2/1
f 27/1/1 9/1/1 26/1/1
f 28/3/1 11/3/1 10/3/1
f 28/2/1 10/2/1 27/2/1
f 29/2/1 12/2/1 11/2/1
f 29/3/1 11/3/1 28/3/1
f 30/3/1 13/3/1 12/3/1
f 30/2/1 12/2/1 29/2/1
f 31/2/1 14/2/1 13/2/1
f 31/3/1 13/3/1 30/3/1
f 32/3/1 15/3/1 14/3/1
f 32/2/1 14/2/1 31/2/1
f 33/2/1 16/2/1 15/2/1
f 33/3/1 15/3/1 32/3/1
f 34/2/1 16/2/1 33/2/1
f 37/1/1 18/1/1 17/1/1
f 38/2/1 19/2/1 18/2/1
f 38/1/1 18/1/1 37/1/1
f 39/1/1 20/1/1 19/1/1
f 39/2/1 19/2/1 38/2/1
f 39/1/1 21/1/1 20/1/1
f 39/1/1 22/1/1 21/1/1
f 40/1/1 22/1/1 39/1/1
f 41/3/1 23/3/1 22/3/1
f 41/1/1 22/1/1 40/1/1
f 42/2/1 24/2/1 23/2/1
f 42/3/1 23/3/1 41/3/1
f 43/1/1 25/1/1 24/1/1
f 43/2/1 24/2/1 42/2/1
f 44/2/1 26/2/1 25/2/1
f 44/1/1 25/1/1 43/1/1
f 45/3/1 27/3/1 26/3/1
f 45/3/1 28/3/1 27/3/1
f 45/1/1 29/1/1 28/1/1
f 46/2/1 30/2/1 29/2/1
f 46/1/1 29/1/1 45/1/1
f 47/1/1 32/1/1 31/1/1
f 47/2/1 30/2/1 46/2/1
f 47/1/1 31/1/1 30/1/1
f 48/1/1 34/1/1 33/1/1
f 48/3/1 33/3/1 32/3/1
f 49/3/1 35/3/1 34/3/1
f 49/1/1 34/1/1 48/1/1
f 50/2/1 36/2/1 35/2/1
f 50/3/1 35/3/1 49/3/1
f 51/2/1 36/2/1 50/2/1
f 52/3/1 39/3/1 38/3/1
f 53/1/1 40/1/1 39/1/1
f 53/3/1 39/3/1 52/3/1
f 54/3/1 41/3/1 40/3/1
f 54/1/1 40/1/1 53/1/1
f 55/2/1 42/2/1 41/2/1
f 55/3/1 41/3/1 54/3/1
f 56/3/1 43/3/1 42/3/1
f 56/2/1 42/2/1 55/2/1
f 56/3/1 44/3/1 43/3/1
f 57/2/1 26/2/1 44/2/1
f 57/3/1 44/3/1 56/3/1
f 58/3/1 45/3/1 26/3/1
f 58/2/1 26/2/1 57/2/1
f 59/2/1 46/2/1 45/2/1
f 59/3/1 45/3/1 58/3/1
f 60/3/1 47/3/1 46/3/1
f 60/2/1 46/2/1 59/2/1
f 61/1/1 32/1/1 47/1/1
f 61/3/1 47/3/1 60/3/1
f 62/3/1 48/3/1 32/3/1
f 62/1/1 32/1/1 61/1/1
f 63/2/1 49/2/1 48/2/1
f 63/3/1 48/3/1 62/3/1
f 64/2/1 49/2/1 63/2/1
f 65/1/2 66/1/2 71/1/2
f 71/1/2 66/1/2 72/1/2
f 67/3/2 68/3/2 73/3/2
f 68/2/2 69/2/2 74/2/2
f 73/3/2 68/3/2 74/3/2
f 74/2/2 69/2/2 75/2/2
f 70/1/2 71/1/2 78/1/2
f 78/1/2 71/1/2 79/1/2
f 75/3/2 76/3/2 83/3/2
f 76/2/2 77/2/2 84/2/2
f 83/3/2 76/3/2 84/3/2
f 84/2/2 77/2/2 85/2/2
f 79/3/2 80/3/2 86/3/2
f 86/3/2 80/3/2 87/3/2
f 81/3/2 82/3/2 88/3/2
f 82/2/2 83/2/2 89/2/2
f 88/3/2 82/3/2 89/3/2
f 89/2/2 83/2/2 90/2/2
f 91/1/2 92/1/2 97/1/2
f 97/1/2 92/1/2 98/1/2
f 93/1/2 94/1/2 99/1/2
f 94/2/2 95/2/2 100/2/2
f 99/1/2 94/1/2 100/1/2
f 100/2/2 95/2/2 101/2/2
f 96/3/2 97/3/2 103/3/2
f 103/3/2 97/3/2 104/3/2
f 101/3/2 102/3/2 107/3/2
f 107/3/2 102/3/2 108/3/2
f 104/2/2 105/2/2 109/2/2
f 109/2/2 105/2/2 110/2/2
f 106/2/2 107/2/2 111/2/2
f 111/2/2 107/2/2 112/2/2
f 113/1/2 114/1/2 118/1/2
f 118/1/2 114/1/2 119/1/2
f 115/1/2 116/1/2 120/1/2
f 120/1/2 116/1/2 121/1/2
f 121/1/2 116/1/2 122/1/2
f 117/3/2 118/3/2 124/3/2
f 124/3/2 118/3/2 125/3/2
f 122/1/2 123/1/2 129/1/2
f 129/1/2 123/1/2 130/1/2
f 125/2/2 126/2/2 131/2/2
f 131/2/2 126/2/2 132/2/2
f 127/1/2 128/1/2 133/1/2
f 128/2/2 129/2/2 134/2/2
f 133/1/2 128/1/2 134/1/2
f 134/2/2 129/2/2 135/2/2
f 136/3/2 137/3/2 141/3/2
f 141/3/2 137/3/2 142/3/2
f 142/3/2 137/3/2 143/3/2
f 138/1/2 139/1/2 144/1/2
f 144/1/2 139/1/2 145/1/2
f 140/2/2 141/2/2 148/2/2
f 148/2/2 141/2/2 149/2/2
f 145/3/2 146/3/2 154/3/2
f 146/2/2 147/2/2 155/2/2
f 154/3/2 146/3/2 155/3/2
f 155/2/2 147/2/2 156/2/2
f 149/1/2 150/1/2 157/1/2
f 150/3/2 151/3/2 158/3/2
f 157/1/2 150/1/2 158/1/2
f 151/2/2 152/2/2 159/2/2
f 158/3/2 151/3/2 159/3/2
f 159/2/2 152/2/2 160/2/2
f 153/3/2 154/3/2 161/3/2
f 161/3/2 154/3/2 162/3/2
f 163/3/2 164/3/2 170/3/2
f 164/1/2 165/1/2 171/1/2
f 170/3/2 164/3/2 171/3/2
f 165/2/2 166/2/2 172/2/2
f 171/1/2 165/1/2 172/1/2
f 166/1/2 167/1/2 173/1/2
f 172/2/2 166/2/2 173/2/2
f 173/1/2 167/1/2 174/1/2
f 168/1/2 169/1/2 176/1/2
f 169/2/2 170/2/2 177/2/2
f 176/1/2 169/1/2 177/1/2
f 177/2/2 170/2/2 178/2/2
f 174/1/2 175/1/2 182/1/2
f 182/1/2 175/1/2 183/1/2
f 178/2/2 179/2/2 184/2/2
f 179/3/2 180/3/2 185/3/2
f 184/2/2 179/2/2 185/2/2
f 180/1/2 181/1/2 186/1/2
f 185/3/2 180/3/2 186/3/2
f 181/2/2 182/2/2 187/2/2
f 186/1/2 181/1/2 187/1/2
f 187/2/2 182/2/2 188/2/2
f 189/3/2 190/3/2 193/3/2
f 190/2/2 191/2/2 194/2/2
f 193/3/2 190/3/2 194/3/2
f 191/1/2 192/1/2 195/1/2
f 194/2/2 191/2/2 195/2/2
f 195/1/2 192/1/2 196/1/2
f 199/1/3 198/1/3 197/1/3
f 200/1/3 198/1/3 199/1/3
f 205/1/3 202/1/3 201/1/3
f 206/1/3 202/1/3 205/1/3
f 207/3/3 204/3/3 203/3/3
f 208/3/3 204/3/3 207/3/3
f 209/3/3 207/3/3 206/3/3
f 210/3/3 207/3/3 209/3/3
f 215/1/3 212/1/3 211/1/3
f 216/1/3 212/1/3 215/1/3
f 217/2/3 214/2/3 213/2/3
f 218/2/3 214/2/3 217/2/3
f 219/3/3 217/3/3 216/3/3
f 220/3/3 217/3/3 219/3/3
f 225/1/3 222/1/3 221/1/3
f 226/1/3 222/1/3 225/1/3
f 227/2/3 224/2/3 223/2/3
f 228/2/3 224/2/3 227/2/3
f 229/2/3 227/2/3 226/2/3
f 230/2/3 227/2/3 229/2/3
f 235/3/3 232/3/3 231/3/3
f 236/3/3 232/3/3 235/3/3
f 237/1/3 234/1/3 233/1/3
f 238/1/3 234/1/3 237/1/3
f 239/1/3 237/1/3 236/1/3
f 240/1/3 237/1/3 239/1/3
f 245/3/3 242/3/3 241/3/3
f 246/3/3 242/3/3 245/3/3
f 247/2/3 244/2/3 243/2/3
f 248/2/3 244/2/3 247/2/3
f 249/3/3 247/3/3 246/3/3
f 250/3/3 247/3/3 249/3/3
f 251/1/4 252/1/4 255/1/4
f 255/1/4 252/1/4 256/1/4
f 253/2/4 254/2/4 257/2/4
f 257/2/4 254/2/4 258/2/4
f 256/1/4 257/1/4 259/1/4
f 259/1/4 257/1/4 260/1/4
f 261/1/4 262/1/4 265/1/4
f 265/1/4 262/1/4 266/1/4
f 263/3/4 264/3/4 267/3/4
f 267/3/4 264/3/4 268/3/4
f 266/1/4 267/1/4 269/1/4
f 269/1/4 267/1/4 270/1/4
f 271/1/4 272/1/4 275/1/4
f 275/1/4 272/1/4 276/1/4
f 273/2/4 274/2/4 277/2/4
f 277/2/4 274/2/4 278/2/4
f 276/2/4 277/2/4 279/2/4
f 279/2/4 277/2/4 280/2/4
f 281/2/4 282/2/4 285/2/4
f 285/2/4 282/2/4 286/2/4
f 283/2/4 284/2/4 287/2/4
f 287/2/4 284/2/4 288/2/4
f 286/1/4 287/1/4 289/1/4
f 289/1/4 287/1/4 290/1/4
f 291/2/4 292/2/4 295/2/4
f 295/2/4 292/2/4 296/2/4
f 293/2/4 294/2/4 297/2/4
f 297/2/4 294/2/4 298/2/4
f 296/3/4 297/3/4 299/3/4
f 299/3/4 297/3/4 300/3/4
f 301/2/4 302/2/4 303/2/4
f 303/2/4 302/2/4 304/2/4
f 307/1/5 306/1/5 305/1/5
f 308/1/5 306/1/5 307/1/5
f 310/2/5 308/2/5 307/2/5
f 311/1/5 309/1/5 308/1/5
f 311/2/5 308/2/5 310/2/5
f 312/1/5 309/1/5 311/1/5
f 314/1/5 311/1/5 310/1/5
f 315/2/5 312/2/5 311/2/5
f 315/1/5 311/1/5 314/1/5
f 316/1/5 313/1/5 312/1/5
f 316/2/5 312/2/5 315/2/5
f 317/1/5 313/1/5 316/1/5
f 319/3/5 315/3/5 314/3/5
f 320/1/5 316/1/5 315/1/5
f 320/3/5 315/3/5 319/3/5
f 321/2/5 317/2/5 316/2/5
f 321/1/5 316/1/5 320/1/5
f 322/3/5 318/3/5 317/3/5
f 322/2/5 317/2/5 321/2/5
f 323/3/5 321/3/5 320/3/5
f 323/1/5 322/1/5 321/1/5
f 324/3/5 318/3/5 322/3/5
f 324/1/5 322/1/5 323/1/5
f 325/2/5 320/2/5 319/2/5
f 326/3/5 323/3/5 320/3/5
f 326/2/5 320/2/5 325/2/5
f 327/2/5 324/2/5 323/2/5
f 327/3/5 323/3/5 326/3/5
f 328/3/5 318/3/5 324/3/5
f 328/2/5 324/2/5 327/2/5
f 329/3/5 318/3/5 328/3/5
f 331/1/5 327/1/5 326/1/5
f 331/1/5 326/1/5 325/1/5
f 332/3/5 328/3/5 327/3/5
f 332/1/5 327/1/5 331/1/5
f 333/1/5 329/1/5 328/1/5
f 333/3/5 328/3/5 332/3/5
f 334/3/5 330/3/5 329/3/5
f 334/1/5 329/1/5 333/1/5
f 335/3/5 330/3/5 334/3/5
f 336/2/5 332/2/5 331/2/5
f 337/3/5 333/3/5 332/3/5
f 337/2/5 332/2/5 336/2/5
f 338/2/5 334/2/5 333/2/5
f 338/3/5 333/3/5 337/3/5
f 339/1/5 335/1/5 334/1/5
f 339/2/5 334/2/5 338/2/5
f 340/1/5 335/1/5 339/1/5
f 341/2/5 336/2/5 331/2/5
f 342/1/5 337/1/5 336/1/5
f 342/2/5 336/2/5 341/2/5
f 343/3/5 338/3/5 337/3/5
f 343/1/5 337/1/5 342/1/5
f 343/3/5 339/3/5 338/3/5
f 344/2/5 340/2/5 339/2/5
f 344/3/5 339/3/5 343/3/5
f 345/2/5 340/2/5 344/2/5
f 346/1/5 342/1/5 341/1/5
f 346/1/5 343/1/5 342/1/5
f 347/2/5 344/2/5 343/2/5
f 347/1/5 343/1/5 346/1/5
f 348/2/5 344/2/5 347/2/5
f 349/1/5 345/1/5 344/1/5
f 349/2/5 344/2/5 348/2/5
f 350/1/5 345/1/5 349/1/5
f 351/2/5 348/2/5 347/2/5
f 351/2/5 347/2/5 346/2/5
f 352/2/5 348/2/5 351/2/5
f 353/2/5 348/2/5 352/2/5
f 354/1/5 349/1/5 348/1/5
f 354/2/5 348/2/5 353/2/5
f 355/1/5 349/1/5 354/1/5
f 356/3/5 352/3/5 351/3/5
f 357/2/5 353/2/5 352/2/5
f 357/3/5 352/3/5 356/3/5
f 358/1/5 354/1/5 353/1/5
f 358/2/5 353/2/5 357/2/5
f 359/2/5 357/2/5 356/2/5
f 360/3/5 358/3/5 357/3/5
f 360/2/5 357/2/5 359/2/5
f 361/1/5 354/1/5 358/1/5
f 361/3/5 358/3/5 360/3/5
f 362/1/5 354/1/5 361/1/5
f 363/3/5 360/3/5 359/3/5
f 364/1/5 361/1/5 360/1/5
f 364/3/5 360/3/5 363/3/5
f 365/1/5 361/1/5 364/1/5
f 366/2/5 364/2/5 363/2/5
f 366/2/5 365/2/5 364/2/5
f 367/2/5 365/2/5 366/2/5
f 368/2/5 365/2/5 367/2/5
f 369/3/5 367/3/5 366/3/5
f 370/3/5 367/3/5 369/3/5
f 371/2/5 370/2/5 369/2/5
f 372/2/5 370/2/5 371/2/5
f 375/1/5 374/1/5 373/1/5
f 376/1/5 374/1/5 375/1/5
f 378/3/5 377/3/5 376/3/5
f 379/3/5 377/3/5 378/3/5
f 381/3/5 380/3/5 379/3/5
f 382/3/5 380/3/5 381/3/5
f 384/2/5 383/2/5 382/2/5
f 385/2/5 383/2/5 384/2/5
f 387/1/5 386/1/5 385/1/5
f 388/1/5 386/1/5 387/1/5
f 389/2/5 388/2/5 387/2/5
f 390/2/5 388/2/5 389/2/5
f 392/3/5 391/3/5 390/3/5
f 393/3/5 391/3/5 392/3/5
f 394/2/5 393/2/5 392/2/5
f 395/2/5 393/2/5 394/2/5
f 396/1/5 395/1/5 394/1/5
f 398/1/5 395/1/5 396/1/5
f 399/1/5 395/1/5 398/1/5
f 401/1/5 398/1/5 397/1/5
f 402/1/5 398/1/5 401/1/5
f 403/3/5 401/3/5 400/3/5
f 404/3/5 401/3/5 403/3/5
f 406/2/5 404/2/5 403/2/5
f 407/2/5 404/2/5 406/2/5
f 408/1/5 406/1/5 405/1/5
f 410/1/5 406/1/5 408/1/5
f 411/1/5 406/1/5 410/1/5
f 412/3/5 410/3/5 409/3/5
f 414/3/5 410/3/5 412/3/5
f 415/3/5 410/3/5 414/3/5
f 416/3/5 414/3/5 413/3/5
f 417/3/5 414/3/5 416/3/5
f 418/2/5 417/2/5 416/2/5
f 419/2/5 417/2/5 418/2/5
f 420/1/6 421/1/6 422/1/6
f 422/1/6 421/1/6 423/1/6
f 423/3/6 424/3/6 425/3/6
f 425/3/6 424/3/6 426/3/6
f 426/3/6 427/3/6 428/3/6
f 428/3/6 427/3/6 429/3/6
f 429/2/6 430/2/6 431/2/6
f 431/2/6 430/2/6 432/2/6
f 432/1/6 433/1/6 434/1/6
f 434/1/6 433/1/6 435/1/6
f 435/1/6 433/1/6 436/1/6
f 435/2/6 436/2/6 437/2/6
f 437/2/6 436/2/6 438/2/6
f 438/3/6 439/3/6 440/3/6
f 440/3/6 439/3/6 441/3/6
f 440/2/6 441/2/6 442/2/6
f 442/2/6 441/2/6 443/2/6
f 442/1/6 443/1/6 444/1/6
f 444/1/6 443/1/6 446/1/6
f 446/1/6 443/1/6 447/1/6
f 445/1/6 446/1/6 449/1/6
f 449/1/6 446/1/6 450/1/6
f 448/3/6 449/3/6 451/3/6
f 451/3/6 449/3/6 452/3/6
f 451/2/6 452/2/6 454/2/6
f 454/2/6 452/2/6 455/2/6
f 453/1/6 454/1/6 457/1/6
f 457/1/6 454/1/6 458/1/6
f 456/3/6 457/3/6 459/3/6
f 459/3/6 457/3/6 461/3/6
f 461/3/6 457/3/6 462/3/6
f 460/3/6 461/3/6 463/3/6
f 463/3/6 461/3/6 464/3/6
f 463/2/6 464/2/6 465/2/6
f 465/2/6 464/2/6 466/2/6
f 467/3/6 468/3/6 469/3/6
f 469/3/6 468/3/6 470/3/6
f 469/1/6 470/1/6 472/1/6
f 470/2/6 471/2/6 473/2/6
f 472/1/6 470/1/6 473/1/6
f 473/2/6 471/2/6 474/2/6
f 472/3/6 473/3/6 476/3/6
f 474/2/6 475/2/6 476/2/6
f 473/2/6 474/2/6 476/2/6
f 476/2/6 475/2/6 477/2/6
f 477/2/6 475/2/6 478/2/6
f 472/3/6 476/3/6 480/3/6
f 476/3/6 477/3/6 480/3/6
f 480/3/6 477/3/6 481/3/6
f 477/2/6 478/2/6 482/2/6
f 481/3/6 477/3/6 482/3/6
f 478/1/6 479/1/6 483/1/6
f 482/2/6 478/2/6 483/2/6
f 483/1/6 479/1/6 484/1/6
f 481/3/6 482/3/6 485/3/6
f 480/2/6 481/2/6 485/2/6
f 483/3/6 484/3/6 485/3/6
f 482/3/6 483/3/6 485/3/6
f 485/3/6 484/3/6 486/3/6
f 486/3/6 484/3/6 487/3/6
f 487/3/6 484/3/6 488/3/6
f 480/2/6 485/2/6 489/2/6
f 485/1/6 486/1/6 490/1/6
f 489/2/6 485/2/6 490/2/6
f 486/3/6 487/3/6 491/3/6
f 490/1/6 486/1/6 491/1/6
f 487/2/6 488/2/6 492/2/6
f 491/3/6 487/3/6 492/3/6
f 492/2/6 488/2/6 493/2/6
f 489/3/6 490/3/6 495/3/6
f 490/2/6 491/2/6 495/2/6
f 491/1/6 492/1/6 496/1/6
f 495/2/6 491/2/6 496/2/6
f 492/2/6 493/2/6 497/2/6
f 496/1/6 492/1/6 497/1/6
f 493/2/6 494/2/6 497/2/6
f 497/2/6 494/2/6 498/2/6
f 498/2/6 494/2/6 499/2/6
f 495/3/6 496/3/6 500/3/6
f 489/3/6 495/3/6 500/3/6
f 496/3/6 497/3/6 500/3/6
f 500/3/6 497/3/6 501/3/6
f 497/2/6 498/2/6 502/2/6
f 501/3/6 497/3/6 502/3/6
f 498/3/6 499/3/6 503/3/6
f 502/2/6 498/2/6 503/2/6
f 503/3/6 499/3/6 504/3/6
f 500/2/6 501/2/6 505/2/6
f 505/2/6 501/2/6 506/2/6
f 502/3/6 503/3/6 507/3/6
f 503/1/6 504/1/6 507/1/6
f 507/1/6 504/1/6 508/1/6
f 506/2/6 501/2/6 509/2/6
f 505/3/6 506/3/6 509/3/6
f 501/1/6 502/1/6 510/1/6
f 509/2/6 501/2/6 510/2/6
f 507/2/6 508/2/6 511/2/6
f 502/3/6 507/3/6 511/3/6
f 511/2/6 508/2/6 512/2/6
f 505/3/6 509/3/6 513/3/6
f 509/1/6 510/1/6 514/1/6
f 513/3/6 509/3/6 514/3/6
f 510/1/6 502/1/6 515/1/6
f 514/1/6 510/1/6 515/1/6
f 502/3/6 511/3/6 516/3/6
f 515/1/6 502/1/6 516/1/6
f 516/3/6 511/3/6 517/3/6
f 513/2/6 514/2/6 518/2/6
f 514/2/6 515/2/6 518/2/6
f 518/2/6 515/2/6 519/2/6
f 515/1/6 516/1/6 520/1/6
f 519/2/6 515/2/6 520/2/6
f 520/1/6 516/1/6 521/1/6
f 518/3/6 519/3/6 522/3/6
f 519/2/6 520/2/6 523/2/6
f 522/3/6 519/3/6 523/3/6
f 520/2/6 521/2/6 523/2/6
f 523/2/6 521/2/6 524/2/6
f 524/2/6 521/2/6 525/2/6
f 522/1/6 523/1/6 526/1/6
f 523/2/6 524/2/6 527/2/6
f 526/1/6 523/1/6 527/1/6
f 527/2/6 524/2/6 528/2/6
f 526/3/6 527/3/6 529/3/6
f 529/3/6 527/3/6 530/3/6
f 529/2/6 530/2/6 531/2/6
f 531/2/6 530/2/6 532/2/6
