# MagicaVoxel @ Ephtracy

# group
o 

# material
mtllib lab_decorations-17.mtl
usemtl palette

# normals
vn -1 0 0
vn 1 0 0
vn 0 0 1
vn 0 0 -1
vn 0 -1 0
vn 0 1 0

# texcoords
vt 0.958984 0.5
vt 0.962891 0.5
vt 0.966797 0.5
vt 0.978516 0.5
vt 0.982422 0.5
vt 0.990234 0.5

# verts
v -1.35 0.1 1.8
v -1.35 0.1 -1.8
v -1.35 0.2 1.8
v -1.35 0.2 -1.8
v -1.35 0.4 1.8
v -1.35 0.4 -1.8
v -1.15 -0.4 1.8
v -1.15 -0.4 1.7
v -1.15 -0.4 -1.7
v -1.15 -0.4 -1.8
v -1.15 0.1 1.9
v -1.15 0.1 1.8
v -1.15 0.1 1.7
v -1.15 0.1 -1.7
v -1.15 0.1 -1.8
v -1.15 0.1 -1.9
v -1.15 0.2 1.9
v -1.15 0.2 1.8
v -1.15 0.2 -1.8
v -1.15 0.2 -1.9
v 0.55 -0.4 1.8
v 0.55 -0.4 1.7
v 0.55 -0.4 -1.7
v 0.55 -0.4 -1.8
v 0.55 0.1 1.9
v 0.55 0.1 1.8
v 0.55 0.1 1.7
v 0.55 0.1 -1.7
v 0.55 0.1 -1.8
v 0.55 0.1 -1.9
v 0.55 0.2 1.9
v 0.55 0.2 1.8
v 0.55 0.2 -1.8
v 0.55 0.2 -1.9
v 1.15 0.3 1.6
v 1.15 0.3 -1.6
v 1.15 0.4 1.6
v 1.15 0.4 -1.6
v 1.25 0.2 1.7
v 1.25 0.2 -1.7
v 1.25 0.3 1.7
v 1.25 0.3 -1.7
v -1.25 0.2 1.7
v -1.25 0.2 -1.7
v -1.25 0.3 1.7
v -1.25 0.3 -1.7
v -1.15 0.3 1.6
v -1.15 0.3 -1.6
v -1.15 0.4 1.6
v -1.15 0.4 -1.6
v -0.55 -0.4 1.8
v -0.55 -0.4 1.7
v -0.55 -0.4 -1.7
v -0.55 -0.4 -1.8
v -0.55 0.1 1.9
v -0.55 0.1 1.8
v -0.55 0.1 1.7
v -0.55 0.1 -1.7
v -0.55 0.1 -1.8
v -0.55 0.1 -1.9
v -0.55 0.2 1.9
v -0.55 0.2 1.8
v -0.55 0.2 -1.8
v -0.55 0.2 -1.9
v 1.15 -0.4 1.8
v 1.15 -0.4 1.7
v 1.15 -0.4 -1.7
v 1.15 -0.4 -1.8
v 1.15 0.1 1.9
v 1.15 0.1 1.8
v 1.15 0.1 1.7
v 1.15 0.1 -1.7
v 1.15 0.1 -1.8
v 1.15 0.1 -1.9
v 1.15 0.2 1.9
v 1.15 0.2 1.8
v 1.15 0.2 -1.8
v 1.15 0.2 -1.9
v 1.35 0.1 1.8
v 1.35 0.1 -1.8
v 1.35 0.2 1.8
v 1.35 0.2 -1.8
v 1.35 0.4 1.8
v 1.35 0.4 -1.8
v -1.15 0.1 1.9
v -1.15 0.2 1.9
v -0.55 0.1 1.9
v -0.55 0.2 1.9
v 0.55 0.1 1.9
v 0.55 0.2 1.9
v 1.15 0.1 1.9
v 1.15 0.2 1.9
v -1.35 0.1 1.8
v -1.35 0.2 1.8
v -1.35 0.4 1.8
v -1.15 -0.4 1.8
v -1.15 0.1 1.8
v -1.15 0.2 1.8
v -0.55 -0.4 1.8
v -0.55 0.1 1.8
v -0.55 0.2 1.8
v 0.55 -0.4 1.8
v 0.55 0.1 1.8
v 0.55 0.2 1.8
v 1.15 -0.4 1.8
v 1.15 0.1 1.8
v 1.15 0.2 1.8
v 1.35 0.1 1.8
v 1.35 0.2 1.8
v 1.35 0.4 1.8
v -1.15 0.3 -1.6
v -1.15 0.4 -1.6
v 1.15 0.3 -1.6
v 1.15 0.4 -1.6
v -1.25 0.2 -1.7
v -1.25 0.3 -1.7
v -1.15 -0.4 -1.7
v -1.15 0.1 -1.7
v -0.55 -0.4 -1.7
v -0.55 0.1 -1.7
v 0.55 -0.4 -1.7
v 0.55 0.1 -1.7
v 1.15 -0.4 -1.7
v 1.15 0.1 -1.7
v 1.25 0.2 -1.7
v 1.25 0.3 -1.7
v -1.25 0.2 1.7
v -1.25 0.3 1.7
v -1.15 -0.4 1.7
v -1.15 0.1 1.7
v -0.55 -0.4 1.7
v -0.55 0.1 1.7
v 0.55 -0.4 1.7
v 0.55 0.1 1.7
v 1.15 -0.4 1.7
v 1.15 0.1 1.7
v 1.25 0.2 1.7
v 1.25 0.3 1.7
v -1.15 0.3 1.6
v -1.15 0.4 1.6
v 1.15 0.3 1.6
v 1.15 0.4 1.6
v -1.35 0.1 -1.8
v -1.35 0.2 -1.8
v -1.35 0.4 -1.8
v -1.15 -0.4 -1.8
v -1.15 0.1 -1.8
v -1.15 0.2 -1.8
v -0.55 -0.4 -1.8
v -0.55 0.1 -1.8
v -0.55 0.2 -1.8
v 0.55 -0.4 -1.8
v 0.55 0.1 -1.8
v 0.55 0.2 -1.8
v 1.15 -0.4 -1.8
v 1.15 0.1 -1.8
v 1.15 0.2 -1.8
v 1.35 0.1 -1.8
v 1.35 0.2 -1.8
v 1.35 0.4 -1.8
v -1.15 0.1 -1.9
v -1.15 0.2 -1.9
v -0.55 0.1 -1.9
v -0.55 0.2 -1.9
v 0.55 0.1 -1.9
v 0.55 0.2 -1.9
v 1.15 0.1 -1.9
v 1.15 0.2 -1.9
v -1.15 -0.4 1.8
v -0.55 -0.4 1.8
v 0.55 -0.4 1.8
v 1.15 -0.4 1.8
v -1.15 -0.4 1.7
v -0.55 -0.4 1.7
v 0.55 -0.4 1.7
v 1.15 -0.4 1.7
v -1.15 -0.4 -1.7
v -0.55 -0.4 -1.7
v 0.55 -0.4 -1.7
v 1.15 -0.4 -1.7
v -1.15 -0.4 -1.8
v -0.55 -0.4 -1.8
v 0.55 -0.4 -1.8
v 1.15 -0.4 -1.8
v -1.15 0.1 1.9
v -0.55 0.1 1.9
v 0.55 0.1 1.9
v 1.15 0.1 1.9
v -1.35 0.1 1.8
v -1.15 0.1 1.8
v -0.55 0.1 1.8
v 0.55 0.1 1.8
v 1.15 0.1 1.8
v 1.35 0.1 1.8
v -1.25 0.1 1.7
v -1.15 0.1 1.7
v -0.55 0.1 1.7
v 0.55 0.1 1.7
v 1.15 0.1 1.7
v 1.25 0.1 1.7
v -1.05 0.1 1.5
v 1.05 0.1 1.5
v -1.05 0.1 -1.5
v 1.05 0.1 -1.5
v -1.25 0.1 -1.7
v -1.15 0.1 -1.7
v -0.55 0.1 -1.7
v 0.55 0.1 -1.7
v 1.15 0.1 -1.7
v 1.25 0.1 -1.7
v -1.35 0.1 -1.8
v -1.15 0.1 -1.8
v -0.55 0.1 -1.8
v 0.55 0.1 -1.8
v 1.15 0.1 -1.8
v 1.35 0.1 -1.8
v -1.15 0.1 -1.9
v -0.55 0.1 -1.9
v 0.55 0.1 -1.9
v 1.15 0.1 -1.9
v -1.25 0.3 1.7
v 1.25 0.3 1.7
v -1.15 0.3 1.6
v 1.15 0.3 1.6
v -1.15 0.3 -1.6
v 1.15 0.3 -1.6
v -1.25 0.3 -1.7
v 1.25 0.3 -1.7
v -1.15 0.2 1.9
v -0.55 0.2 1.9
v 0.55 0.2 1.9
v 1.15 0.2 1.9
v -1.15 0.2 1.8
v -0.55 0.2 1.8
v 0.55 0.2 1.8
v 1.15 0.2 1.8
v -1.25 0.2 1.7
v 1.25 0.2 1.7
v -1.05 0.2 1.5
v 1.05 0.2 1.5
v -1.05 0.2 -1.5
v 1.05 0.2 -1.5
v -1.25 0.2 -1.7
v 1.25 0.2 -1.7
v -1.15 0.2 -1.8
v -0.55 0.2 -1.8
v 0.55 0.2 -1.8
v 1.15 0.2 -1.8
v -1.15 0.2 -1.9
v -0.55 0.2 -1.9
v 0.55 0.2 -1.9
v 1.15 0.2 -1.9
v -1.35 0.4 1.8
v 1.35 0.4 1.8
v -1.25 0.4 1.7
v 1.25 0.4 1.7
v -1.15 0.4 1.6
v 1.15 0.4 1.6
v -1.15 0.4 -1.6
v 1.15 0.4 -1.6
v -1.25 0.4 -1.7
v 1.25 0.4 -1.7
v -1.35 0.4 -1.8
v 1.35 0.4 -1.8

# faces
f 3/5/1 2/5/1 1/5/1
f 4/5/1 2/5/1 3/5/1
f 5/4/1 4/4/1 3/4/1
f 6/4/1 4/4/1 5/4/1
f 12/4/1 8/4/1 7/4/1
f 13/4/1 8/4/1 12/4/1
f 14/4/1 10/4/1 9/4/1
f 15/4/1 10/4/1 14/4/1
f 17/5/1 12/5/1 11/5/1
f 18/5/1 12/5/1 17/5/1
f 19/5/1 16/5/1 15/5/1
f 20/5/1 16/5/1 19/5/1
f 26/4/1 22/4/1 21/4/1
f 27/4/1 22/4/1 26/4/1
f 28/4/1 24/4/1 23/4/1
f 29/4/1 24/4/1 28/4/1
f 31/5/1 26/5/1 25/5/1
f 32/5/1 26/5/1 31/5/1
f 33/5/1 30/5/1 29/5/1
f 34/5/1 30/5/1 33/5/1
f 37/6/1 36/6/1 35/6/1
f 38/6/1 36/6/1 37/6/1
f 41/4/1 40/4/1 39/4/1
f 42/4/1 40/4/1 41/4/1
f 43/4/2 44/4/2 45/4/2
f 45/4/2 44/4/2 46/4/2
f 47/6/2 48/6/2 49/6/2
f 49/6/2 48/6/2 50/6/2
f 51/4/2 52/4/2 56/4/2
f 56/4/2 52/4/2 57/4/2
f 53/4/2 54/4/2 58/4/2
f 58/4/2 54/4/2 59/4/2
f 55/5/2 56/5/2 61/5/2
f 61/5/2 56/5/2 62/5/2
f 59/5/2 60/5/2 63/5/2
f 63/5/2 60/5/2 64/5/2
f 65/4/2 66/4/2 70/4/2
f 70/4/2 66/4/2 71/4/2
f 67/4/2 68/4/2 72/4/2
f 72/4/2 68/4/2 73/4/2
f 69/5/2 70/5/2 75/5/2
f 75/5/2 70/5/2 76/5/2
f 73/5/2 74/5/2 77/5/2
f 77/5/2 74/5/2 78/5/2
f 79/5/2 80/5/2 81/5/2
f 81/5/2 80/5/2 82/5/2
f 81/4/2 82/4/2 83/4/2
f 83/4/2 82/4/2 84/4/2
f 87/5/3 86/5/3 85/5/3
f 88/5/3 86/5/3 87/5/3
f 91/5/3 90/5/3 89/5/3
f 92/5/3 90/5/3 91/5/3
f 97/5/3 94/5/3 93/5/3
f 98/4/3 95/4/3 94/4/3
f 98/5/3 94/5/3 97/5/3
f 99/4/3 97/4/3 96/4/3
f 100/4/3 97/4/3 99/4/3
f 101/4/3 95/4/3 98/4/3
f 103/5/3 101/5/3 100/5/3
f 104/4/3 95/4/3 101/4/3
f 104/5/3 101/5/3 103/5/3
f 105/4/3 103/4/3 102/4/3
f 106/4/3 103/4/3 105/4/3
f 107/4/3 95/4/3 104/4/3
f 108/5/3 107/5/3 106/5/3
f 109/4/3 95/4/3 107/4/3
f 109/5/3 107/5/3 108/5/3
f 110/4/3 95/4/3 109/4/3
f 113/6/3 112/6/3 111/6/3
f 114/6/3 112/6/3 113/6/3
f 119/4/3 118/4/3 117/4/3
f 120/4/3 118/4/3 119/4/3
f 123/4/3 122/4/3 121/4/3
f 124/4/3 122/4/3 123/4/3
f 125/4/3 116/4/3 115/4/3
f 126/4/3 116/4/3 125/4/3
f 129/4/4 130/4/4 131/4/4
f 131/4/4 130/4/4 132/4/4
f 133/4/4 134/4/4 135/4/4
f 135/4/4 134/4/4 136/4/4
f 127/4/4 128/4/4 137/4/4
f 137/4/4 128/4/4 138/4/4
f 139/6/4 140/6/4 141/6/4
f 141/6/4 140/6/4 142/6/4
f 143/5/4 144/5/4 147/5/4
f 144/4/4 145/4/4 148/4/4
f 147/5/4 144/5/4 148/5/4
f 146/4/4 147/4/4 149/4/4
f 149/4/4 147/4/4 150/4/4
f 148/4/4 145/4/4 151/4/4
f 150/5/4 151/5/4 153/5/4
f 151/4/4 145/4/4 154/4/4
f 153/5/4 151/5/4 154/5/4
f 152/4/4 153/4/4 155/4/4
f 155/4/4 153/4/4 156/4/4
f 154/4/4 145/4/4 157/4/4
f 156/5/4 157/5/4 158/5/4
f 157/4/4 145/4/4 159/4/4
f 158/5/4 157/5/4 159/5/4
f 159/4/4 145/4/4 160/4/4
f 161/5/4 162/5/4 163/5/4
f 163/5/4 162/5/4 164/5/4
f 165/5/4 166/5/4 167/5/4
f 167/5/4 166/5/4 168/5/4
f 173/4/5 170/4/5 169/4/5
f 174/4/5 170/4/5 173/4/5
f 175/4/5 172/4/5 171/4/5
f 176/4/5 172/4/5 175/4/5
f 181/4/5 178/4/5 177/4/5
f 182/4/5 178/4/5 181/4/5
f 183/4/5 180/4/5 179/4/5
f 184/4/5 180/4/5 183/4/5
f 190/5/5 186/5/5 185/5/5
f 191/5/5 186/5/5 190/5/5
f 192/5/5 188/5/5 187/5/5
f 193/5/5 188/5/5 192/5/5
f 195/5/5 190/5/5 189/5/5
f 196/5/5 190/5/5 195/5/5
f 197/5/5 192/5/5 191/5/5
f 198/5/5 192/5/5 197/5/5
f 199/5/5 194/5/5 193/5/5
f 200/5/5 194/5/5 199/5/5
f 201/2/5 198/2/5 197/2/5
f 201/2/5 196/2/5 195/2/5
f 201/2/5 200/2/5 199/2/5
f 201/2/5 199/2/5 198/2/5
f 201/2/5 197/2/5 196/2/5
f 202/2/5 200/2/5 201/2/5
f 203/2/5 201/2/5 195/2/5
f 203/1/5 202/1/5 201/1/5
f 204/2/5 200/2/5 202/2/5
f 204/1/5 202/1/5 203/1/5
f 205/5/5 195/5/5 189/5/5
f 205/2/5 203/2/5 195/2/5
f 205/2/5 204/2/5 203/2/5
f 206/2/5 204/2/5 205/2/5
f 207/2/5 204/2/5 206/2/5
f 208/2/5 204/2/5 207/2/5
f 209/2/5 200/2/5 204/2/5
f 209/2/5 204/2/5 208/2/5
f 210/5/5 194/5/5 200/5/5
f 210/2/5 200/2/5 209/2/5
f 211/5/5 205/5/5 189/5/5
f 211/5/5 206/5/5 205/5/5
f 212/5/5 206/5/5 211/5/5
f 213/5/5 208/5/5 207/5/5
f 214/5/5 208/5/5 213/5/5
f 215/5/5 210/5/5 209/5/5
f 216/5/5 194/5/5 210/5/5
f 216/5/5 210/5/5 215/5/5
f 217/5/5 213/5/5 212/5/5
f 218/5/5 213/5/5 217/5/5
f 219/5/5 215/5/5 214/5/5
f 220/5/5 215/5/5 219/5/5
f 223/6/5 222/6/5 221/6/5
f 224/6/5 222/6/5 223/6/5
f 225/6/5 223/6/5 221/6/5
f 226/6/5 222/6/5 224/6/5
f 227/6/5 225/6/5 221/6/5
f 227/6/5 226/6/5 225/6/5
f 228/6/5 222/6/5 226/6/5
f 228/6/5 226/6/5 227/6/5
f 229/5/6 230/5/6 233/5/6
f 233/5/6 230/5/6 234/5/6
f 231/5/6 232/5/6 235/5/6
f 235/5/6 232/5/6 236/5/6
f 237/2/6 238/2/6 239/2/6
f 239/2/6 238/2/6 240/2/6
f 237/2/6 239/2/6 241/2/6
f 239/1/6 240/1/6 241/1/6
f 240/2/6 238/2/6 242/2/6
f 241/1/6 240/1/6 242/1/6
f 237/2/6 241/2/6 243/2/6
f 241/2/6 242/2/6 243/2/6
f 242/2/6 238/2/6 244/2/6
f 243/2/6 242/2/6 244/2/6
f 245/5/6 246/5/6 249/5/6
f 249/5/6 246/5/6 250/5/6
f 247/5/6 248/5/6 251/5/6
f 251/5/6 248/5/6 252/5/6
f 253/4/6 254/4/6 255/4/6
f 255/4/6 254/4/6 256/4/6
f 255/6/6 256/6/6 257/6/6
f 257/6/6 256/6/6 258/6/6
f 255/6/6 257/6/6 259/6/6
f 258/6/6 256/6/6 260/6/6
f 253/4/6 255/4/6 261/4/6
f 259/6/6 260/6/6 261/6/6
f 255/6/6 259/6/6 261/6/6
f 260/6/6 256/6/6 262/6/6
f 261/6/6 260/6/6 262/6/6
f 256/4/6 254/4/6 262/4/6
f 253/4/6 261/4/6 263/4/6
f 261/4/6 262/4/6 263/4/6
f 262/4/6 254/4/6 264/4/6
f 263/4/6 262/4/6 264/4/6
