# MagicaVoxel @ Ephtracy

# group
o 

# material
mtllib lab_decorations-12.mtl
usemtl palette

# normals
vn -1 0 0
vn 1 0 0
vn 0 0 1
vn 0 0 -1
vn 0 -1 0
vn 0 1 0

# texcoords
vt 0.705078 0.5
vt 0.708984 0.5
vt 0.962891 0.5

# verts
v -0.5 -0.2 0.65
v -0.5 -0.2 -0.75
v -0.5 -0.1 0.75
v -0.5 -0.1 0.65
v -0.5 -0.1 -0.55
v -0.5 0.1 0.75
v -0.5 0.1 0.65
v -0.5 0.1 -0.55
v -0.5 0.2 0.65
v -0.5 0.2 -0.75
v -0.4 -0.2 0.75
v -0.4 -0.2 0.65
v -0.4 -0.1 0.75
v -0.4 -0.1 0.65
v -0.4 -0.1 0.55
v -0.4 -0.1 0.25
v -0.4 -0.1 0.15
v -0.4 -0.1 -0.35
v -0.4 -0.1 -0.45
v -0.4 -0.1 -0.55
v -0.4 0 0.55
v -0.4 0 0.45
v -0.4 0 0.25
v -0.4 0 0.15
v -0.4 0 0.05
v -0.4 0 -0.15
v -0.4 0 -0.35
v -0.4 0 -0.45
v -0.4 0.1 0.75
v -0.4 0.1 0.65
v -0.4 0.1 0.45
v -0.4 0.1 0.05
v -0.4 0.1 -0.15
v -0.4 0.1 -0.55
v -0.4 0.2 0.75
v -0.4 0.2 0.65
v 0.3 -0.1 -0.55
v 0.3 -0.1 -0.65
v 0.3 0.1 -0.55
v 0.3 0.1 -0.65
v 0.4 -0.2 -0.65
v 0.4 -0.2 -0.75
v 0.4 -0.1 0.75
v 0.4 -0.1 0.65
v 0.4 0 0.65
v 0.4 0.1 0.75
v 0.4 0.1 0.65
v 0.4 0.2 -0.65
v 0.4 0.2 -0.75
v -0.4 -0.2 -0.65
v -0.4 -0.2 -0.75
v -0.4 -0.1 0.75
v -0.4 -0.1 0.65
v -0.4 0.1 0.75
v -0.4 0.1 0.65
v -0.4 0.2 -0.65
v -0.4 0.2 -0.75
v -0.3 -0.1 -0.55
v -0.3 -0.1 -0.65
v -0.3 0 -0.55
v -0.3 0.1 -0.55
v -0.3 0.1 -0.65
v 0.4 -0.2 0.75
v 0.4 -0.2 0.65
v 0.4 -0.1 0.75
v 0.4 -0.1 0.65
v 0.4 -0.1 0.55
v 0.4 -0.1 0.45
v 0.4 -0.1 0.35
v 0.4 -0.1 -0.05
v 0.4 -0.1 -0.25
v 0.4 -0.1 -0.35
v 0.4 -0.1 -0.45
v 0.4 -0.1 -0.55
v 0.4 0 0.65
v 0.4 0 0.55
v 0.4 0 0.45
v 0.4 0 0.35
v 0.4 0 0.05
v 0.4 0 -0.05
v 0.4 0 -0.25
v 0.4 0.1 0.75
v 0.4 0.1 0.65
v 0.4 0.1 0.35
v 0.4 0.1 0.05
v 0.4 0.1 -0.35
v 0.4 0.1 -0.45
v 0.4 0.1 -0.55
v 0.4 0.2 0.75
v 0.4 0.2 0.65
v 0.5 -0.2 0.65
v 0.5 -0.2 -0.75
v 0.5 -0.1 0.75
v 0.5 -0.1 0.65
v 0.5 -0.1 -0.55
v 0.5 0.1 0.75
v 0.5 0.1 0.65
v 0.5 0.1 -0.55
v 0.5 0.2 0.65
v 0.5 0.2 -0.75
v -0.5 -0.1 0.75
v -0.5 0.1 0.75
v -0.4 -0.2 0.75
v -0.4 -0.1 0.75
v -0.4 0.1 0.75
v -0.4 0.2 0.75
v 0.4 -0.2 0.75
v 0.4 -0.1 0.75
v 0.4 0.1 0.75
v 0.4 0.2 0.75
v 0.5 -0.1 0.75
v 0.5 0.1 0.75
v -0.5 -0.2 0.65
v -0.5 -0.1 0.65
v -0.5 0.1 0.65
v -0.5 0.2 0.65
v -0.4 -0.2 0.65
v -0.4 -0.1 0.65
v -0.4 0.1 0.65
v -0.4 0.2 0.65
v -0.3 -0.1 0.65
v -0.3 0.1 0.65
v -0.2 -0.1 0.65
v -0.2 0 0.65
v -0.1 -0.1 0.65
v -0.1 0 0.65
v -0.1 0.1 0.65
v 0.1 0 0.65
v 0.1 0.1 0.65
v 0.2 -0.1 0.65
v 0.2 0 0.65
v 0.4 -0.2 0.65
v 0.4 -0.1 0.65
v 0.4 0 0.65
v 0.4 0.1 0.65
v 0.4 0.2 0.65
v 0.5 -0.2 0.65
v 0.5 -0.1 0.65
v 0.5 0.1 0.65
v 0.5 0.2 0.65
v -0.5 -0.1 -0.55
v -0.5 0.1 -0.55
v -0.4 -0.1 -0.55
v -0.4 0.1 -0.55
v 0.4 -0.1 -0.55
v 0.4 0.1 -0.55
v 0.5 -0.1 -0.55
v 0.5 0.1 -0.55
v -0.5 -0.1 0.65
v -0.5 0.1 0.65
v -0.4 -0.1 0.65
v -0.4 0.1 0.65
v 0.4 -0.1 0.65
v 0.4 0 0.65
v 0.4 0.1 0.65
v 0.5 -0.1 0.65
v 0.5 0.1 0.65
v -0.3 -0.1 -0.55
v -0.3 0 -0.55
v -0.3 0.1 -0.55
v -0.2 -0.1 -0.55
v -0.2 0 -0.55
v -0.2 0.1 -0.55
v 0 0 -0.55
v 0 0.1 -0.55
v 0.1 -0.1 -0.55
v 0.1 0.1 -0.55
v 0.2 -0.1 -0.55
v 0.2 0.1 -0.55
v 0.3 -0.1 -0.55
v 0.3 0.1 -0.55
v -0.4 -0.2 -0.65
v -0.4 0.2 -0.65
v -0.3 -0.1 -0.65
v -0.3 0.1 -0.65
v 0.3 -0.1 -0.65
v 0.3 0.1 -0.65
v 0.4 -0.2 -0.65
v 0.4 0.2 -0.65
v -0.5 -0.2 -0.75
v -0.5 0.2 -0.75
v -0.4 -0.2 -0.75
v -0.4 0.2 -0.75
v 0.4 -0.2 -0.75
v 0.4 0.2 -0.75
v 0.5 -0.2 -0.75
v 0.5 0.2 -0.75
v -0.4 -0.2 0.75
v 0.4 -0.2 0.75
v -0.5 -0.2 0.65
v -0.4 -0.2 0.65
v 0.4 -0.2 0.65
v 0.5 -0.2 0.65
v -0.4 -0.2 -0.55
v 0.4 -0.2 -0.55
v -0.4 -0.2 -0.65
v 0.4 -0.2 -0.65
v -0.5 -0.2 -0.75
v -0.4 -0.2 -0.75
v 0.4 -0.2 -0.75
v 0.5 -0.2 -0.75
v -0.5 -0.1 0.75
v -0.4 -0.1 0.75
v 0.4 -0.1 0.75
v 0.5 -0.1 0.75
v -0.5 -0.1 0.65
v -0.4 -0.1 0.65
v 0.4 -0.1 0.65
v 0.5 -0.1 0.65
v -0.4 0.1 0.75
v 0.4 0.1 0.75
v -0.5 0.1 0.65
v -0.4 0.1 0.65
v -0.3 0.1 0.65
v -0.1 0.1 0.65
v 0.1 0.1 0.65
v 0.4 0.1 0.65
v 0.5 0.1 0.65
v -0.4 0.1 0.45
v 0.4 0.1 0.35
v -0.4 0.1 0.05
v 0.4 0.1 0.05
v -0.4 0.1 -0.15
v 0.4 0.1 -0.35
v 0.4 0.1 -0.45
v -0.5 0.1 -0.55
v -0.4 0.1 -0.55
v -0.3 0.1 -0.55
v -0.2 0.1 -0.55
v 0 0.1 -0.55
v 0.1 0.1 -0.55
v 0.2 0.1 -0.55
v 0.3 0.1 -0.55
v 0.4 0.1 -0.55
v 0.5 0.1 -0.55
v -0.3 0.1 -0.65
v 0.3 0.1 -0.65
v -0.4 -0.1 0.75
v 0.4 -0.1 0.75
v -0.5 -0.1 0.65
v -0.4 -0.1 0.65
v -0.3 -0.1 0.65
v -0.2 -0.1 0.65
v -0.1 -0.1 0.65
v 0.2 -0.1 0.65
v 0.4 -0.1 0.65
v 0.5 -0.1 0.65
v -0.4 -0.1 0.55
v 0.4 -0.1 0.55
v 0.4 -0.1 0.45
v 0.4 -0.1 0.35
v -0.4 -0.1 0.25
v -0.4 -0.1 0.15
v 0.4 -0.1 -0.05
v 0.4 -0.1 -0.25
v -0.4 -0.1 -0.35
v 0.4 -0.1 -0.35
v -0.4 -0.1 -0.45
v 0.4 -0.1 -0.45
v -0.5 -0.1 -0.55
v -0.4 -0.1 -0.55
v -0.3 -0.1 -0.55
v -0.2 -0.1 -0.55
v 0.1 -0.1 -0.55
v 0.2 -0.1 -0.55
v 0.3 -0.1 -0.55
v 0.4 -0.1 -0.55
v 0.5 -0.1 -0.55
v -0.3 -0.1 -0.65
v 0.3 -0.1 -0.65
v -0.5 0.1 0.75
v -0.4 0.1 0.75
v 0.4 0.1 0.75
v 0.5 0.1 0.75
v -0.5 0.1 0.65
v -0.4 0.1 0.65
v 0.4 0.1 0.65
v 0.5 0.1 0.65
v -0.4 0.2 0.75
v 0.4 0.2 0.75
v -0.5 0.2 0.65
v -0.4 0.2 0.65
v -0.2 0.2 0.65
v -0.1 0.2 0.65
v 0.4 0.2 0.65
v 0.5 0.2 0.65
v -0.3 0.2 0.55
v -0.2 0.2 0.55
v -0.1 0.2 0.55
v 0.1 0.2 0.55
v 0.2 0.2 0.55
v 0.3 0.2 0.55
v -0.4 0.2 0.45
v -0.3 0.2 0.45
v -0.2 0.2 0.45
v 0 0.2 0.45
v 0.1 0.2 0.45
v 0.2 0.2 0.45
v -0.4 0.2 0.35
v -0.3 0.2 0.35
v -0.2 0.2 0.35
v 0 0.2 0.35
v 0.3 0.2 0.35
v 0.4 0.2 0.35
v -0.3 0.2 0.25
v -0.2 0.2 0.25
v 0 0.2 0.25
v 0.2 0.2 0.25
v 0 0.2 0.15
v 0.1 0.2 0.15
v -0.3 0.2 0.05
v -0.2 0.2 0.05
v -0.1 0.2 0.05
v 0 0.2 0.05
v 0.1 0.2 0.05
v 0.3 0.2 0.05
v 0.4 0.2 0.05
v -0.4 0.2 -0.05
v -0.3 0.2 -0.05
v -0.2 0.2 -0.05
v -0.1 0.2 -0.05
v 0 0.2 -0.05
v 0.2 0.2 -0.05
v -0.4 0.2 -0.15
v -0.3 0.2 -0.15
v -0.2 0.2 -0.15
v -0.1 0.2 -0.15
v -0.2 0.2 -0.25
v -0.1 0.2 -0.25
v 0.2 0.2 -0.25
v -0.1 0.2 -0.35
v 0.2 0.2 -0.35
v 0.3 0.2 -0.35
v 0.4 0.2 -0.35
v -0.1 0.2 -0.45
v 0.1 0.2 -0.45
v 0.2 0.2 -0.45
v 0.4 0.2 -0.45
v -0.4 0.2 -0.55
v -0.3 0.2 -0.55
v -0.1 0.2 -0.55
v 0.1 0.2 -0.55
v 0.2 0.2 -0.55
v 0.4 0.2 -0.55
v -0.4 0.2 -0.65
v 0.4 0.2 -0.65
v -0.5 0.2 -0.75
v -0.4 0.2 -0.75
v 0.4 0.2 -0.75
v 0.5 0.2 -0.75

# faces
f 4/3/1 2/3/1 1/3/1
f 5/3/1 2/3/1 4/3/1
f 6/3/1 4/3/1 3/3/1
f 7/3/1 4/3/1 6/3/1
f 8/3/1 2/3/1 5/3/1
f 9/3/1 8/3/1 7/3/1
f 10/3/1 2/3/1 8/3/1
f 10/3/1 8/3/1 9/3/1
f 13/3/1 12/3/1 11/3/1
f 14/3/1 12/3/1 13/3/1
f 21/1/1 15/1/1 14/1/1
f 21/2/1 16/2/1 15/2/1
f 22/2/1 16/2/1 21/2/1
f 23/1/1 17/1/1 16/1/1
f 23/2/1 16/2/1 22/2/1
f 24/2/1 18/2/1 17/2/1
f 24/1/1 17/1/1 23/1/1
f 25/2/1 18/2/1 24/2/1
f 26/2/1 18/2/1 25/2/1
f 27/1/1 19/1/1 18/1/1
f 27/2/1 18/2/1 26/2/1
f 28/2/1 20/2/1 19/2/1
f 28/1/1 19/1/1 27/1/1
f 30/1/1 22/1/1 21/1/1
f 30/1/1 21/1/1 14/1/1
f 31/2/1 23/2/1 22/2/1
f 31/2/1 24/2/1 23/2/1
f 31/1/1 22/1/1 30/1/1
f 31/2/1 25/2/1 24/2/1
f 32/1/1 26/1/1 25/1/1
f 32/2/1 25/2/1 31/2/1
f 33/2/1 27/2/1 26/2/1
f 33/1/1 26/1/1 32/1/1
f 33/2/1 28/2/1 27/2/1
f 34/2/1 20/2/1 28/2/1
f 34/2/1 28/2/1 33/2/1
f 35/3/1 30/3/1 29/3/1
f 36/3/1 30/3/1 35/3/1
f 39/3/1 38/3/1 37/3/1
f 40/3/1 38/3/1 39/3/1
f 45/3/1 44/3/1 43/3/1
f 46/3/1 45/3/1 43/3/1
f 47/3/1 45/3/1 46/3/1
f 48/3/1 42/3/1 41/3/1
f 49/3/1 42/3/1 48/3/1
f 52/3/2 53/3/2 54/3/2
f 54/3/2 53/3/2 55/3/2
f 50/3/2 51/3/2 56/3/2
f 56/3/2 51/3/2 57/3/2
f 58/3/2 59/3/2 60/3/2
f 60/3/2 59/3/2 61/3/2
f 61/3/2 59/3/2 62/3/2
f 63/3/2 64/3/2 65/3/2
f 65/3/2 64/3/2 66/3/2
f 66/1/2 67/1/2 75/1/2
f 67/2/2 68/2/2 76/2/2
f 75/1/2 67/1/2 76/1/2
f 68/1/2 69/1/2 77/1/2
f 76/2/2 68/2/2 77/2/2
f 69/2/2 70/2/2 78/2/2
f 77/1/2 69/1/2 78/1/2
f 78/2/2 70/2/2 79/2/2
f 70/1/2 71/1/2 80/1/2
f 79/2/2 70/2/2 80/2/2
f 71/2/2 72/2/2 81/2/2
f 80/1/2 71/1/2 81/1/2
f 75/2/2 76/2/2 83/2/2
f 76/2/2 77/2/2 83/2/2
f 77/2/2 78/2/2 83/2/2
f 78/1/2 79/1/2 84/1/2
f 83/2/2 78/2/2 84/2/2
f 80/2/2 81/2/2 85/2/2
f 84/1/2 79/1/2 85/1/2
f 79/2/2 80/2/2 85/2/2
f 72/1/2 73/1/2 86/1/2
f 85/2/2 81/2/2 86/2/2
f 81/2/2 72/2/2 86/2/2
f 73/2/2 74/2/2 87/2/2
f 86/1/2 73/1/2 87/1/2
f 87/2/2 74/2/2 88/2/2
f 82/3/2 83/3/2 89/3/2
f 89/3/2 83/3/2 90/3/2
f 91/3/2 92/3/2 94/3/2
f 94/3/2 92/3/2 95/3/2
f 93/3/2 94/3/2 96/3/2
f 96/3/2 94/3/2 97/3/2
f 95/3/2 92/3/2 98/3/2
f 97/3/2 98/3/2 99/3/2
f 98/3/2 92/3/2 100/3/2
f 99/3/2 98/3/2 100/3/2
f 104/3/3 102/3/3 101/3/3
f 105/3/3 102/3/3 104/3/3
f 107/3/3 104/3/3 103/3/3
f 108/3/3 104/3/3 107/3/3
f 109/3/3 106/3/3 105/3/3
f 110/3/3 106/3/3 109/3/3
f 111/3/3 109/3/3 108/3/3
f 112/3/3 109/3/3 111/3/3
f 117/3/3 114/3/3 113/3/3
f 118/3/3 114/3/3 117/3/3
f 119/3/3 116/3/3 115/3/3
f 120/3/3 116/3/3 119/3/3
f 121/1/3 119/1/3 118/1/3
f 122/1/3 119/1/3 121/1/3
f 123/2/3 122/2/3 121/2/3
f 124/2/3 122/2/3 123/2/3
f 125/1/3 124/1/3 123/1/3
f 126/2/3 122/2/3 124/2/3
f 126/1/3 124/1/3 125/1/3
f 127/2/3 122/2/3 126/2/3
f 128/2/3 126/2/3 125/2/3
f 128/1/3 127/1/3 126/1/3
f 129/1/3 127/1/3 128/1/3
f 130/2/3 128/2/3 125/2/3
f 130/2/3 129/2/3 128/2/3
f 131/2/3 129/2/3 130/2/3
f 133/1/3 131/1/3 130/1/3
f 134/2/3 129/2/3 131/2/3
f 134/1/3 131/1/3 133/1/3
f 135/2/3 129/2/3 134/2/3
f 137/3/3 133/3/3 132/3/3
f 138/3/3 133/3/3 137/3/3
f 139/3/3 136/3/3 135/3/3
f 140/3/3 136/3/3 139/3/3
f 143/3/3 142/3/3 141/3/3
f 144/3/3 142/3/3 143/3/3
f 147/3/3 146/3/3 145/3/3
f 148/3/3 146/3/3 147/3/3
f 149/3/4 150/3/4 151/3/4
f 151/3/4 150/3/4 152/3/4
f 153/3/4 154/3/4 156/3/4
f 154/3/4 155/3/4 156/3/4
f 156/3/4 155/3/4 157/3/4
f 158/1/4 159/1/4 161/1/4
f 159/2/4 160/2/4 162/2/4
f 161/1/4 159/1/4 162/1/4
f 162/2/4 160/2/4 163/2/4
f 161/2/4 162/2/4 164/2/4
f 162/1/4 163/1/4 164/1/4
f 164/1/4 163/1/4 165/1/4
f 161/2/4 164/2/4 166/2/4
f 164/2/4 165/2/4 166/2/4
f 166/2/4 165/2/4 167/2/4
f 166/1/4 167/1/4 168/1/4
f 168/1/4 167/1/4 169/1/4
f 168/2/4 169/2/4 170/2/4
f 170/2/4 169/2/4 171/2/4
f 172/3/4 173/3/4 174/3/4
f 174/3/4 173/3/4 175/3/4
f 172/3/4 174/3/4 176/3/4
f 175/3/4 173/3/4 177/3/4
f 172/3/4 176/3/4 178/3/4
f 176/3/4 177/3/4 178/3/4
f 177/3/4 173/3/4 179/3/4
f 178/3/4 177/3/4 179/3/4
f 180/3/4 181/3/4 182/3/4
f 182/3/4 181/3/4 183/3/4
f 184/3/4 185/3/4 186/3/4
f 186/3/4 185/3/4 187/3/4
f 191/3/5 189/3/5 188/3/5
f 192/3/5 189/3/5 191/3/5
f 194/3/5 191/3/5 190/3/5
f 194/2/5 192/2/5 191/2/5
f 195/3/5 193/3/5 192/3/5
f 195/2/5 192/2/5 194/2/5
f 196/3/5 194/3/5 190/3/5
f 196/3/5 195/3/5 194/3/5
f 197/3/5 193/3/5 195/3/5
f 197/3/5 195/3/5 196/3/5
f 198/3/5 196/3/5 190/3/5
f 199/3/5 196/3/5 198/3/5
f 200/3/5 193/3/5 197/3/5
f 201/3/5 193/3/5 200/3/5
f 206/3/5 203/3/5 202/3/5
f 207/3/5 203/3/5 206/3/5
f 208/3/5 205/3/5 204/3/5
f 209/3/5 205/3/5 208/3/5
f 213/3/5 211/3/5 210/3/5
f 214/3/5 211/3/5 213/3/5
f 215/3/5 211/3/5 214/3/5
f 216/3/5 211/3/5 215/3/5
f 217/3/5 211/3/5 216/3/5
f 219/3/5 213/3/5 212/3/5
f 220/3/5 218/3/5 217/3/5
f 221/3/5 219/3/5 212/3/5
f 222/3/5 218/3/5 220/3/5
f 223/3/5 221/3/5 212/3/5
f 224/3/5 218/3/5 222/3/5
f 225/3/5 218/3/5 224/3/5
f 226/3/5 223/3/5 212/3/5
f 227/3/5 223/3/5 226/3/5
f 234/3/5 218/3/5 225/3/5
f 235/3/5 218/3/5 234/3/5
f 236/3/5 233/3/5 232/3/5
f 236/3/5 229/3/5 228/3/5
f 236/3/5 232/3/5 231/3/5
f 236/3/5 231/3/5 230/3/5
f 236/3/5 230/3/5 229/3/5
f 237/3/5 233/3/5 236/3/5
f 238/3/6 239/3/6 241/3/6
f 241/3/6 239/3/6 242/3/6
f 242/3/6 239/3/6 243/3/6
f 243/3/6 239/3/6 244/3/6
f 244/3/6 239/3/6 245/3/6
f 245/3/6 239/3/6 246/3/6
f 240/3/6 241/3/6 248/3/6
f 246/3/6 247/3/6 249/3/6
f 249/3/6 247/3/6 250/3/6
f 250/3/6 247/3/6 251/3/6
f 240/3/6 248/3/6 252/3/6
f 240/3/6 252/3/6 253/3/6
f 251/3/6 247/3/6 254/3/6
f 254/3/6 247/3/6 255/3/6
f 240/3/6 253/3/6 256/3/6
f 255/3/6 247/3/6 257/3/6
f 240/3/6 256/3/6 258/3/6
f 257/3/6 247/3/6 259/3/6
f 240/3/6 258/3/6 260/3/6
f 260/3/6 258/3/6 261/3/6
f 259/3/6 247/3/6 267/3/6
f 267/3/6 247/3/6 268/3/6
f 265/3/6 266/3/6 269/3/6
f 262/3/6 263/3/6 269/3/6
f 264/3/6 265/3/6 269/3/6
f 263/3/6 264/3/6 269/3/6
f 269/3/6 266/3/6 270/3/6
f 271/3/6 272/3/6 275/3/6
f 275/3/6 272/3/6 276/3/6
f 273/3/6 274/3/6 277/3/6
f 277/3/6 274/3/6 278/3/6
f 279/3/6 280/3/6 282/3/6
f 282/3/6 280/3/6 283/3/6
f 283/3/6 280/3/6 284/3/6
f 284/3/6 280/3/6 285/3/6
f 282/1/6 283/1/6 287/1/6
f 283/2/6 284/2/6 288/2/6
f 287/1/6 283/1/6 288/1/6
f 284/1/6 285/1/6 289/1/6
f 288/2/6 284/2/6 289/2/6
f 289/1/6 285/1/6 290/1/6
f 290/1/6 285/1/6 291/1/6
f 291/1/6 285/1/6 292/1/6
f 281/3/6 282/3/6 293/3/6
f 282/1/6 287/1/6 293/1/6
f 287/2/6 288/2/6 294/2/6
f 293/1/6 287/1/6 294/1/6
f 288/2/6 289/2/6 294/2/6
f 289/2/6 290/2/6 294/2/6
f 294/2/6 290/2/6 295/2/6
f 295/2/6 290/2/6 296/2/6
f 290/1/6 291/1/6 297/1/6
f 296/2/6 290/2/6 297/2/6
f 291/2/6 292/2/6 298/2/6
f 297/1/6 291/1/6 298/1/6
f 281/3/6 293/3/6 299/3/6
f 293/2/6 294/2/6 299/2/6
f 294/2/6 295/2/6 299/2/6
f 299/2/6 295/2/6 300/2/6
f 295/1/6 296/1/6 301/1/6
f 300/2/6 295/2/6 301/2/6
f 296/2/6 297/2/6 302/2/6
f 301/1/6 296/1/6 302/1/6
f 297/2/6 298/2/6 302/2/6
f 292/1/6 285/1/6 303/1/6
f 302/2/6 298/2/6 303/2/6
f 298/2/6 292/2/6 303/2/6
f 285/3/6 286/3/6 304/3/6
f 303/1/6 285/1/6 304/1/6
f 301/2/6 302/2/6 305/2/6
f 302/2/6 303/2/6 305/2/6
f 303/2/6 304/2/6 305/2/6
f 299/1/6 300/1/6 305/1/6
f 300/2/6 301/2/6 305/2/6
f 305/2/6 304/2/6 306/2/6
f 306/2/6 304/2/6 307/2/6
f 307/2/6 304/2/6 308/2/6
f 306/2/6 307/2/6 309/2/6
f 307/1/6 308/1/6 309/1/6
f 309/1/6 308/1/6 310/1/6
f 299/1/6 305/1/6 311/1/6
f 305/1/6 306/1/6 311/1/6
f 309/2/6 310/2/6 312/2/6
f 311/1/6 306/1/6 312/1/6
f 306/2/6 309/2/6 312/2/6
f 312/2/6 310/2/6 313/2/6
f 313/2/6 310/2/6 314/2/6
f 310/1/6 308/1/6 315/1/6
f 314/2/6 310/2/6 315/2/6
f 308/2/6 304/2/6 316/2/6
f 304/3/6 286/3/6 317/3/6
f 316/2/6 304/2/6 317/2/6
f 281/3/6 299/3/6 318/3/6
f 299/1/6 311/1/6 318/1/6
f 311/2/6 312/2/6 319/2/6
f 318/1/6 311/1/6 319/1/6
f 312/1/6 313/1/6 320/1/6
f 319/2/6 312/2/6 320/2/6
f 313/2/6 314/2/6 321/2/6
f 320/1/6 313/1/6 321/1/6
f 314/1/6 315/1/6 322/1/6
f 321/2/6 314/2/6 322/2/6
f 308/2/6 316/2/6 323/2/6
f 322/1/6 315/1/6 323/1/6
f 315/1/6 308/1/6 323/1/6
f 321/2/6 322/2/6 324/2/6
f 319/2/6 320/2/6 324/2/6
f 322/2/6 323/2/6 324/2/6
f 318/2/6 319/2/6 324/2/6
f 281/3/6 318/3/6 324/3/6
f 320/2/6 321/2/6 324/2/6
f 324/2/6 323/2/6 325/2/6
f 325/2/6 323/2/6 326/2/6
f 326/2/6 323/2/6 327/2/6
f 325/2/6 326/2/6 328/2/6
f 326/1/6 327/1/6 328/1/6
f 327/2/6 323/2/6 329/2/6
f 328/1/6 327/1/6 329/1/6
f 323/2/6 316/2/6 330/2/6
f 329/2/6 323/2/6 330/2/6
f 328/2/6 329/2/6 331/2/6
f 329/1/6 330/1/6 331/1/6
f 330/2/6 316/2/6 332/2/6
f 331/1/6 330/1/6 332/1/6
f 316/1/6 317/1/6 333/1/6
f 332/2/6 316/2/6 333/2/6
f 317/3/6 286/3/6 334/3/6
f 333/1/6 317/1/6 334/1/6
f 328/2/6 331/2/6 335/2/6
f 332/2/6 333/2/6 335/2/6
f 333/2/6 334/2/6 335/2/6
f 331/2/6 332/2/6 335/2/6
f 335/2/6 334/2/6 336/2/6
f 336/2/6 334/2/6 337/2/6
f 334/3/6 286/3/6 338/3/6
f 337/2/6 334/2/6 338/2/6
f 324/1/6 325/1/6 339/1/6
f 281/3/6 324/3/6 339/3/6
f 325/2/6 328/2/6 340/2/6
f 339/1/6 325/1/6 340/1/6
f 328/2/6 335/2/6 340/2/6
f 335/1/6 336/1/6 341/1/6
f 340/2/6 335/2/6 341/2/6
f 336/2/6 337/2/6 342/2/6
f 341/1/6 336/1/6 342/1/6
f 337/1/6 338/1/6 343/1/6
f 342/2/6 337/2/6 343/2/6
f 338/3/6 286/3/6 344/3/6
f 343/1/6 338/1/6 344/1/6
f 340/3/6 341/3/6 345/3/6
f 281/3/6 339/3/6 345/3/6
f 343/3/6 344/3/6 345/3/6
f 339/3/6 340/3/6 345/3/6
f 341/3/6 342/3/6 345/3/6
f 342/3/6 343/3/6 345/3/6
f 344/3/6 286/3/6 346/3/6
f 345/3/6 344/3/6 346/3/6
f 281/3/6 345/3/6 347/3/6
f 347/3/6 345/3/6 348/3/6
f 346/3/6 286/3/6 349/3/6
f 349/3/6 286/3/6 350/3/6
