# MagicaVoxel @ Ephtracy

# group
o 

# material
mtllib lab_decorations-5.mtl
usemtl palette

# normals
vn -1 0 0
vn 1 0 0
vn 0 0 1
vn 0 0 -1
vn 0 -1 0
vn 0 1 0

# texcoords
vt 0.705078 0.5
vt 0.708984 0.5
vt 0.751953 0.5
vt 0.755859 0.5
vt 0.775391 0.5
vt 0.779297 0.5
vt 0.798828 0.5
vt 0.806641 0.5
vt 0.833984 0.5
vt 0.837891 0.5
vt 0.939453 0.5
vt 0.962891 0.5

# verts
v -0.5 -0.2 0.65
v -0.5 -0.2 -0.75
v -0.5 -0.1 0.75
v -0.5 -0.1 0.65
v -0.5 -0.1 -0.55
v -0.5 0.1 0.75
v -0.5 0.1 0.65
v -0.5 0.1 -0.55
v -0.5 0.2 0.65
v -0.5 0.2 -0.75
v -0.4 -0.2 0.75
v -0.4 -0.2 0.65
v -0.4 -0.1 0.75
v -0.4 -0.1 0.65
v -0.4 -0.1 0.55
v -0.4 -0.1 0.25
v -0.4 -0.1 0.15
v -0.4 -0.1 -0.05
v -0.4 -0.1 -0.15
v -0.4 -0.1 -0.35
v -0.4 -0.1 -0.45
v -0.4 -0.1 -0.55
v -0.4 0 0.55
v -0.4 0 0.45
v -0.4 0 0.05
v -0.4 0 -0.05
v -0.4 0.1 0.75
v -0.4 0.1 0.65
v -0.4 0.1 0.45
v -0.4 0.1 0.25
v -0.4 0.1 0.15
v -0.4 0.1 0.05
v -0.4 0.1 -0.05
v -0.4 0.1 -0.15
v -0.4 0.1 -0.35
v -0.4 0.1 -0.45
v -0.4 0.1 -0.55
v -0.4 0.2 0.75
v -0.4 0.2 0.65
v 0.3 -0.1 -0.55
v 0.3 -0.1 -0.65
v 0.3 0.1 -0.55
v 0.3 0.1 -0.65
v 0.4 -0.2 -0.65
v 0.4 -0.2 -0.75
v 0.4 -0.1 0.75
v 0.4 -0.1 0.65
v 0.4 0 0.65
v 0.4 0.1 0.75
v 0.4 0.1 0.65
v 0.4 0.2 -0.65
v 0.4 0.2 -0.75
v -0.4 -0.2 -0.65
v -0.4 -0.2 -0.75
v -0.4 -0.1 0.75
v -0.4 -0.1 0.65
v -0.4 0.1 0.75
v -0.4 0.1 0.65
v -0.4 0.2 -0.65
v -0.4 0.2 -0.75
v -0.3 -0.1 -0.55
v -0.3 -0.1 -0.65
v -0.3 0 -0.55
v -0.3 0.1 -0.55
v -0.3 0.1 -0.65
v 0.4 -0.2 0.75
v 0.4 -0.2 0.65
v 0.4 -0.1 0.75
v 0.4 -0.1 0.65
v 0.4 -0.1 0.55
v 0.4 -0.1 0.45
v 0.4 -0.1 0.35
v 0.4 -0.1 0.25
v 0.4 -0.1 -0.05
v 0.4 -0.1 -0.15
v 0.4 -0.1 -0.25
v 0.4 -0.1 -0.35
v 0.4 -0.1 -0.45
v 0.4 -0.1 -0.55
v 0.4 0 0.65
v 0.4 0 0.55
v 0.4 0 0.45
v 0.4 0 0.35
v 0.4 0 0.25
v 0.4 0 0.05
v 0.4 0 -0.05
v 0.4 0 -0.15
v 0.4 0.1 0.75
v 0.4 0.1 0.65
v 0.4 0.1 0.55
v 0.4 0.1 0.45
v 0.4 0.1 0.35
v 0.4 0.1 0.25
v 0.4 0.1 0.05
v 0.4 0.1 -0.15
v 0.4 0.1 -0.25
v 0.4 0.1 -0.35
v 0.4 0.1 -0.45
v 0.4 0.1 -0.55
v 0.4 0.2 0.75
v 0.4 0.2 0.65
v 0.5 -0.2 0.65
v 0.5 -0.2 -0.75
v 0.5 -0.1 0.75
v 0.5 -0.1 0.65
v 0.5 -0.1 -0.55
v 0.5 0.1 0.75
v 0.5 0.1 0.65
v 0.5 0.1 -0.55
v 0.5 0.2 0.65
v 0.5 0.2 -0.75
v -0.5 -0.1 0.75
v -0.5 0.1 0.75
v -0.4 -0.2 0.75
v -0.4 -0.1 0.75
v -0.4 0.1 0.75
v -0.4 0.2 0.75
v 0.4 -0.2 0.75
v 0.4 -0.1 0.75
v 0.4 0.1 0.75
v 0.4 0.2 0.75
v 0.5 -0.1 0.75
v 0.5 0.1 0.75
v -0.5 -0.2 0.65
v -0.5 -0.1 0.65
v -0.5 0.1 0.65
v -0.5 0.2 0.65
v -0.4 -0.2 0.65
v -0.4 -0.1 0.65
v -0.4 0.1 0.65
v -0.4 0.2 0.65
v -0.3 -0.1 0.65
v -0.3 0.1 0.65
v -0.2 -0.1 0.65
v -0.2 0 0.65
v -0.2 0.1 0.65
v -0.1 -0.1 0.65
v -0.1 0 0.65
v -0.1 0.1 0.65
v 0 -0.1 0.65
v 0 0 0.65
v 0 0.1 0.65
v 0.1 -0.1 0.65
v 0.1 0.1 0.65
v 0.2 -0.1 0.65
v 0.2 0.1 0.65
v 0.3 -0.1 0.65
v 0.3 0 0.65
v 0.3 0.1 0.65
v 0.4 -0.2 0.65
v 0.4 -0.1 0.65
v 0.4 0 0.65
v 0.4 0.1 0.65
v 0.4 0.2 0.65
v 0.5 -0.2 0.65
v 0.5 -0.1 0.65
v 0.5 0.1 0.65
v 0.5 0.2 0.65
v -0.5 -0.1 -0.55
v -0.5 0.1 -0.55
v -0.4 -0.1 -0.55
v -0.4 0.1 -0.55
v 0.4 -0.1 -0.55
v 0.4 0.1 -0.55
v 0.5 -0.1 -0.55
v 0.5 0.1 -0.55
v -0.5 -0.1 0.65
v -0.5 0.1 0.65
v -0.4 -0.1 0.65
v -0.4 0.1 0.65
v 0.4 -0.1 0.65
v 0.4 0 0.65
v 0.4 0.1 0.65
v 0.5 -0.1 0.65
v 0.5 0.1 0.65
v -0.3 -0.1 -0.55
v -0.3 0 -0.55
v -0.3 0.1 -0.55
v -0.2 -0.1 -0.55
v -0.2 0 -0.55
v -0.2 0.1 -0.55
v -0.1 -0.1 -0.55
v -0.1 0 -0.55
v -0.1 0.1 -0.55
v 0 -0.1 -0.55
v 0 0 -0.55
v 0 0.1 -0.55
v 0.1 -0.1 -0.55
v 0.1 0.1 -0.55
v 0.2 -0.1 -0.55
v 0.2 0.1 -0.55
v 0.3 -0.1 -0.55
v 0.3 0.1 -0.55
v -0.4 -0.2 -0.65
v -0.4 0.2 -0.65
v -0.3 -0.1 -0.65
v -0.3 0.1 -0.65
v 0.3 -0.1 -0.65
v 0.3 0.1 -0.65
v 0.4 -0.2 -0.65
v 0.4 0.2 -0.65
v -0.5 -0.2 -0.75
v -0.5 0.2 -0.75
v -0.4 -0.2 -0.75
v -0.4 0.2 -0.75
v 0.4 -0.2 -0.75
v 0.4 0.2 -0.75
v 0.5 -0.2 -0.75
v 0.5 0.2 -0.75
v -0.4 -0.2 0.75
v 0.4 -0.2 0.75
v -0.5 -0.2 0.65
v -0.4 -0.2 0.65
v 0.4 -0.2 0.65
v 0.5 -0.2 0.65
v -0.4 -0.2 -0.55
v 0.4 -0.2 -0.55
v -0.4 -0.2 -0.65
v 0.4 -0.2 -0.65
v -0.5 -0.2 -0.75
v -0.4 -0.2 -0.75
v 0.4 -0.2 -0.75
v 0.5 -0.2 -0.75
v -0.5 -0.1 0.75
v -0.4 -0.1 0.75
v 0.4 -0.1 0.75
v 0.5 -0.1 0.75
v -0.5 -0.1 0.65
v -0.4 -0.1 0.65
v 0.4 -0.1 0.65
v 0.5 -0.1 0.65
v -0.4 0.1 0.75
v 0.4 0.1 0.75
v -0.5 0.1 0.65
v -0.4 0.1 0.65
v -0.3 0.1 0.65
v -0.2 0.1 0.65
v -0.1 0.1 0.65
v 0 0.1 0.65
v 0.1 0.1 0.65
v 0.2 0.1 0.65
v 0.3 0.1 0.65
v 0.4 0.1 0.65
v 0.5 0.1 0.65
v 0.4 0.1 0.55
v -0.4 0.1 0.45
v 0.4 0.1 0.45
v 0.4 0.1 0.35
v -0.4 0.1 0.25
v 0.4 0.1 0.25
v -0.4 0.1 0.15
v -0.4 0.1 0.05
v 0.4 0.1 0.05
v -0.4 0.1 -0.05
v -0.4 0.1 -0.15
v 0.4 0.1 -0.15
v 0.4 0.1 -0.25
v -0.4 0.1 -0.35
v 0.4 0.1 -0.35
v -0.4 0.1 -0.45
v 0.4 0.1 -0.45
v -0.5 0.1 -0.55
v -0.4 0.1 -0.55
v -0.3 0.1 -0.55
v -0.2 0.1 -0.55
v -0.1 0.1 -0.55
v 0 0.1 -0.55
v 0.1 0.1 -0.55
v 0.2 0.1 -0.55
v 0.3 0.1 -0.55
v 0.4 0.1 -0.55
v 0.5 0.1 -0.55
v -0.3 0.1 -0.65
v 0.3 0.1 -0.65
v -0.4 -0.1 0.75
v 0.4 -0.1 0.75
v -0.5 -0.1 0.65
v -0.4 -0.1 0.65
v -0.3 -0.1 0.65
v -0.2 -0.1 0.65
v -0.1 -0.1 0.65
v 0 -0.1 0.65
v 0.1 -0.1 0.65
v 0.2 -0.1 0.65
v 0.3 -0.1 0.65
v 0.4 -0.1 0.65
v 0.5 -0.1 0.65
v -0.4 -0.1 0.55
v 0.4 -0.1 0.55
v 0.4 -0.1 0.45
v 0.4 -0.1 0.35
v -0.4 -0.1 0.25
v 0.4 -0.1 0.25
v -0.4 -0.1 0.15
v -0.4 -0.1 -0.05
v 0.4 -0.1 -0.05
v -0.4 -0.1 -0.15
v 0.4 -0.1 -0.15
v 0.4 -0.1 -0.25
v -0.4 -0.1 -0.35
v 0.4 -0.1 -0.35
v -0.4 -0.1 -0.45
v 0.4 -0.1 -0.45
v -0.5 -0.1 -0.55
v -0.4 -0.1 -0.55
v -0.3 -0.1 -0.55
v -0.2 -0.1 -0.55
v -0.1 -0.1 -0.55
v 0 -0.1 -0.55
v 0.1 -0.1 -0.55
v 0.2 -0.1 -0.55
v 0.3 -0.1 -0.55
v 0.4 -0.1 -0.55
v 0.5 -0.1 -0.55
v -0.3 -0.1 -0.65
v 0.3 -0.1 -0.65
v -0.5 0.1 0.75
v -0.4 0.1 0.75
v 0.4 0.1 0.75
v 0.5 0.1 0.75
v -0.5 0.1 0.65
v -0.4 0.1 0.65
v 0.4 0.1 0.65
v 0.5 0.1 0.65
v -0.4 0.2 0.75
v 0.4 0.2 0.75
v -0.5 0.2 0.65
v -0.4 0.2 0.65
v -0.2 0.2 0.65
v -0.1 0.2 0.65
v 0.2 0.2 0.65
v 0.3 0.2 0.65
v 0.4 0.2 0.65
v 0.5 0.2 0.65
v -0.4 0.2 0.55
v -0.3 0.2 0.55
v -0.2 0.2 0.55
v -0.1 0.2 0.55
v 0 0.2 0.55
v 0.1 0.2 0.55
v -0.4 0.2 0.45
v -0.3 0.2 0.45
v -0.2 0.2 0.45
v -0.1 0.2 0.45
v 0 0.2 0.45
v 0.1 0.2 0.45
v 0.2 0.2 0.45
v 0.3 0.2 0.45
v -0.4 0.2 0.35
v -0.3 0.2 0.35
v -0.1 0.2 0.35
v 0 0.2 0.35
v 0.3 0.2 0.35
v 0.4 0.2 0.35
v -0.2 0.2 0.25
v -0.1 0.2 0.25
v 0.1 0.2 0.25
v 0.2 0.2 0.25
v 0.3 0.2 0.25
v -0.3 0.2 0.15
v -0.2 0.2 0.15
v -0.3 0.2 0.05
v -0.2 0.2 0.05
v -0.1 0.2 0.05
v 0 0.2 0.05
v 0.1 0.2 0.05
v 0.2 0.2 0.05
v 0.3 0.2 0.05
v 0.4 0.2 0.05
v -0.4 0.2 -0.05
v -0.3 0.2 -0.05
v -0.4 0.2 -0.15
v -0.3 0.2 -0.15
v 0.1 0.2 -0.15
v 0.2 0.2 -0.15
v -0.1 0.2 -0.25
v 0 0.2 -0.25
v 0.1 0.2 -0.25
v 0.2 0.2 -0.25
v -0.1 0.2 -0.35
v 0 0.2 -0.35
v 0.1 0.2 -0.35
v 0.2 0.2 -0.35
v 0.3 0.2 -0.35
v 0.4 0.2 -0.35
v -0.4 0.2 -0.45
v -0.3 0.2 -0.45
v -0.2 0.2 -0.45
v -0.1 0.2 -0.45
v 0 0.2 -0.45
v 0.2 0.2 -0.45
v 0.3 0.2 -0.45
v 0.4 0.2 -0.45
v -0.4 0.2 -0.55
v -0.3 0.2 -0.55
v -0.1 0.2 -0.55
v 0 0.2 -0.55
v 0.1 0.2 -0.55
v 0.2 0.2 -0.55
v 0.4 0.2 -0.55
v -0.4 0.2 -0.65
v 0.4 0.2 -0.65
v -0.5 0.2 -0.75
v -0.4 0.2 -0.75
v 0.4 0.2 -0.75
v 0.5 0.2 -0.75

# faces
f 4/12/1 2/12/1 1/12/1
f 5/12/1 2/12/1 4/12/1
f 6/12/1 4/12/1 3/12/1
f 7/12/1 4/12/1 6/12/1
f 8/12/1 2/12/1 5/12/1
f 9/12/1 8/12/1 7/12/1
f 10/12/1 2/12/1 8/12/1
f 10/12/1 8/12/1 9/12/1
f 13/12/1 12/12/1 11/12/1
f 14/12/1 12/12/1 13/12/1
f 23/1/1 15/1/1 14/1/1
f 23/2/1 16/2/1 15/2/1
f 24/2/1 16/2/1 23/2/1
f 25/2/1 18/2/1 17/2/1
f 26/3/1 19/3/1 18/3/1
f 26/2/1 18/2/1 25/2/1
f 28/1/1 23/1/1 14/1/1
f 28/1/1 24/1/1 23/1/1
f 29/2/1 16/2/1 24/2/1
f 29/1/1 24/1/1 28/1/1
f 30/4/1 17/4/1 16/4/1
f 30/2/1 16/2/1 29/2/1
f 31/2/1 25/2/1 17/2/1
f 31/4/1 17/4/1 30/4/1
f 32/1/1 26/1/1 25/1/1
f 32/2/1 25/2/1 31/2/1
f 33/3/1 19/3/1 26/3/1
f 33/1/1 26/1/1 32/1/1
f 34/2/1 20/2/1 19/2/1
f 34/3/1 19/3/1 33/3/1
f 35/11/1 21/11/1 20/11/1
f 35/2/1 20/2/1 34/2/1
f 36/2/1 22/2/1 21/2/1
f 36/11/1 21/11/1 35/11/1
f 37/2/1 22/2/1 36/2/1
f 38/12/1 28/12/1 27/12/1
f 39/12/1 28/12/1 38/12/1
f 42/12/1 41/12/1 40/12/1
f 43/12/1 41/12/1 42/12/1
f 48/12/1 47/12/1 46/12/1
f 49/12/1 48/12/1 46/12/1
f 50/12/1 48/12/1 49/12/1
f 51/12/1 45/12/1 44/12/1
f 52/12/1 45/12/1 51/12/1
f 55/12/2 56/12/2 57/12/2
f 57/12/2 56/12/2 58/12/2
f 53/12/2 54/12/2 59/12/2
f 59/12/2 54/12/2 60/12/2
f 61/12/2 62/12/2 63/12/2
f 63/12/2 62/12/2 64/12/2
f 64/12/2 62/12/2 65/12/2
f 66/12/2 67/12/2 68/12/2
f 68/12/2 67/12/2 69/12/2
f 69/1/2 70/1/2 80/1/2
f 70/6/2 71/6/2 81/6/2
f 80/1/2 70/1/2 81/1/2
f 71/1/2 72/1/2 82/1/2
f 81/6/2 71/6/2 82/6/2
f 72/4/2 73/4/2 83/4/2
f 82/1/2 72/1/2 83/1/2
f 73/2/2 74/2/2 84/2/2
f 83/4/2 73/4/2 84/4/2
f 84/2/2 74/2/2 85/2/2
f 74/1/2 75/1/2 86/1/2
f 85/2/2 74/2/2 86/2/2
f 75/5/2 76/5/2 87/5/2
f 86/1/2 75/1/2 87/1/2
f 80/2/2 81/2/2 89/2/2
f 81/6/2 82/6/2 90/6/2
f 89/2/2 81/2/2 90/2/2
f 82/2/2 83/2/2 91/2/2
f 90/6/2 82/6/2 91/6/2
f 83/4/2 84/4/2 92/4/2
f 91/2/2 83/2/2 92/2/2
f 84/1/2 85/1/2 93/1/2
f 92/4/2 84/4/2 93/4/2
f 85/2/2 86/2/2 94/2/2
f 93/1/2 85/1/2 94/1/2
f 86/2/2 87/2/2 94/2/2
f 87/5/2 76/5/2 95/5/2
f 94/2/2 87/2/2 95/2/2
f 76/2/2 77/2/2 96/2/2
f 95/5/2 76/5/2 96/5/2
f 77/10/2 78/10/2 97/10/2
f 96/2/2 77/2/2 97/2/2
f 78/2/2 79/2/2 98/2/2
f 97/10/2 78/10/2 98/10/2
f 98/2/2 79/2/2 99/2/2
f 88/12/2 89/12/2 100/12/2
f 100/12/2 89/12/2 101/12/2
f 102/12/2 103/12/2 105/12/2
f 105/12/2 103/12/2 106/12/2
f 104/12/2 105/12/2 107/12/2
f 107/12/2 105/12/2 108/12/2
f 106/12/2 103/12/2 109/12/2
f 108/12/2 109/12/2 110/12/2
f 109/12/2 103/12/2 111/12/2
f 110/12/2 109/12/2 111/12/2
f 115/12/3 113/12/3 112/12/3
f 116/12/3 113/12/3 115/12/3
f 118/12/3 115/12/3 114/12/3
f 119/12/3 115/12/3 118/12/3
f 120/12/3 117/12/3 116/12/3
f 121/12/3 117/12/3 120/12/3
f 122/12/3 120/12/3 119/12/3
f 123/12/3 120/12/3 122/12/3
f 128/12/3 125/12/3 124/12/3
f 129/12/3 125/12/3 128/12/3
f 130/12/3 127/12/3 126/12/3
f 131/12/3 127/12/3 130/12/3
f 132/1/3 130/1/3 129/1/3
f 133/1/3 130/1/3 132/1/3
f 134/9/3 133/9/3 132/9/3
f 135/9/3 133/9/3 134/9/3
f 136/9/3 133/9/3 135/9/3
f 137/1/3 135/1/3 134/1/3
f 138/2/3 136/2/3 135/2/3
f 138/1/3 135/1/3 137/1/3
f 139/2/3 136/2/3 138/2/3
f 140/2/3 138/2/3 137/2/3
f 141/1/3 139/1/3 138/1/3
f 141/2/3 138/2/3 140/2/3
f 142/1/3 139/1/3 141/1/3
f 143/5/3 141/5/3 140/5/3
f 143/5/3 142/5/3 141/5/3
f 144/5/3 142/5/3 143/5/3
f 145/2/3 144/2/3 143/2/3
f 146/2/3 144/2/3 145/2/3
f 147/7/3 146/7/3 145/7/3
f 148/7/3 146/7/3 147/7/3
f 149/7/3 146/7/3 148/7/3
f 151/1/3 148/1/3 147/1/3
f 152/2/3 149/2/3 148/2/3
f 152/1/3 148/1/3 151/1/3
f 153/2/3 149/2/3 152/2/3
f 155/12/3 151/12/3 150/12/3
f 156/12/3 151/12/3 155/12/3
f 157/12/3 154/12/3 153/12/3
f 158/12/3 154/12/3 157/12/3
f 161/12/3 160/12/3 159/12/3
f 162/12/3 160/12/3 161/12/3
f 165/12/3 164/12/3 163/12/3
f 166/12/3 164/12/3 165/12/3
f 167/12/4 168/12/4 169/12/4
f 169/12/4 168/12/4 170/12/4
f 171/12/4 172/12/4 174/12/4
f 172/12/4 173/12/4 174/12/4
f 174/12/4 173/12/4 175/12/4
f 176/1/4 177/1/4 179/1/4
f 177/2/4 178/2/4 180/2/4
f 179/1/4 177/1/4 180/1/4
f 180/2/4 178/2/4 181/2/4
f 179/8/4 180/8/4 182/8/4
f 180/8/4 181/8/4 182/8/4
f 182/8/4 181/8/4 183/8/4
f 183/8/4 181/8/4 184/8/4
f 182/2/4 183/2/4 185/2/4
f 183/1/4 184/1/4 186/1/4
f 185/2/4 183/2/4 186/2/4
f 186/1/4 184/1/4 187/1/4
f 185/10/4 186/10/4 188/10/4
f 186/10/4 187/10/4 188/10/4
f 188/10/4 187/10/4 189/10/4
f 188/1/4 189/1/4 190/1/4
f 190/1/4 189/1/4 191/1/4
f 190/2/4 191/2/4 192/2/4
f 192/2/4 191/2/4 193/2/4
f 194/12/4 195/12/4 196/12/4
f 196/12/4 195/12/4 197/12/4
f 194/12/4 196/12/4 198/12/4
f 197/12/4 195/12/4 199/12/4
f 194/12/4 198/12/4 200/12/4
f 198/12/4 199/12/4 200/12/4
f 199/12/4 195/12/4 201/12/4
f 200/12/4 199/12/4 201/12/4
f 202/12/4 203/12/4 204/12/4
f 204/12/4 203/12/4 205/12/4
f 206/12/4 207/12/4 208/12/4
f 208/12/4 207/12/4 209/12/4
f 213/12/5 211/12/5 210/12/5
f 214/12/5 211/12/5 213/12/5
f 216/12/5 213/12/5 212/12/5
f 216/2/5 214/2/5 213/2/5
f 217/12/5 215/12/5 214/12/5
f 217/2/5 214/2/5 216/2/5
f 218/12/5 216/12/5 212/12/5
f 218/12/5 217/12/5 216/12/5
f 219/12/5 215/12/5 217/12/5
f 219/12/5 217/12/5 218/12/5
f 220/12/5 218/12/5 212/12/5
f 221/12/5 218/12/5 220/12/5
f 222/12/5 215/12/5 219/12/5
f 223/12/5 215/12/5 222/12/5
f 228/12/5 225/12/5 224/12/5
f 229/12/5 225/12/5 228/12/5
f 230/12/5 227/12/5 226/12/5
f 231/12/5 227/12/5 230/12/5
f 235/12/5 233/12/5 232/12/5
f 236/12/5 233/12/5 235/12/5
f 237/12/5 233/12/5 236/12/5
f 238/12/5 233/12/5 237/12/5
f 239/12/5 233/12/5 238/12/5
f 240/12/5 233/12/5 239/12/5
f 241/12/5 233/12/5 240/12/5
f 242/12/5 233/12/5 241/12/5
f 243/12/5 233/12/5 242/12/5
f 245/12/5 244/12/5 243/12/5
f 246/12/5 235/12/5 234/12/5
f 247/12/5 244/12/5 245/12/5
f 248/12/5 244/12/5 247/12/5
f 249/12/5 246/12/5 234/12/5
f 250/12/5 244/12/5 248/12/5
f 251/12/5 249/12/5 234/12/5
f 252/12/5 251/12/5 234/12/5
f 253/12/5 244/12/5 250/12/5
f 254/12/5 252/12/5 234/12/5
f 255/12/5 254/12/5 234/12/5
f 256/12/5 244/12/5 253/12/5
f 257/12/5 244/12/5 256/12/5
f 258/12/5 255/12/5 234/12/5
f 259/12/5 244/12/5 257/12/5
f 260/12/5 258/12/5 234/12/5
f 261/12/5 244/12/5 259/12/5
f 262/12/5 260/12/5 234/12/5
f 263/12/5 260/12/5 262/12/5
f 271/12/5 244/12/5 261/12/5
f 272/12/5 244/12/5 271/12/5
f 273/12/5 270/12/5 269/12/5
f 273/12/5 265/12/5 264/12/5
f 273/12/5 269/12/5 268/12/5
f 273/12/5 268/12/5 267/12/5
f 273/12/5 267/12/5 266/12/5
f 273/12/5 266/12/5 265/12/5
f 274/12/5 270/12/5 273/12/5
f 275/12/6 276/12/6 278/12/6
f 278/12/6 276/12/6 279/12/6
f 279/12/6 276/12/6 280/12/6
f 280/12/6 276/12/6 281/12/6
f 281/12/6 276/12/6 282/12/6
f 282/12/6 276/12/6 283/12/6
f 283/12/6 276/12/6 284/12/6
f 284/12/6 276/12/6 285/12/6
f 285/12/6 276/12/6 286/12/6
f 277/12/6 278/12/6 288/12/6
f 286/12/6 287/12/6 289/12/6
f 289/12/6 287/12/6 290/12/6
f 290/12/6 287/12/6 291/12/6
f 277/12/6 288/12/6 292/12/6
f 291/12/6 287/12/6 293/12/6
f 277/12/6 292/12/6 294/12/6
f 277/12/6 294/12/6 295/12/6
f 293/12/6 287/12/6 296/12/6
f 277/12/6 295/12/6 297/12/6
f 296/12/6 287/12/6 298/12/6
f 298/12/6 287/12/6 299/12/6
f 277/12/6 297/12/6 300/12/6
f 299/12/6 287/12/6 301/12/6
f 277/12/6 300/12/6 302/12/6
f 301/12/6 287/12/6 303/12/6
f 277/12/6 302/12/6 304/12/6
f 304/12/6 302/12/6 305/12/6
f 303/12/6 287/12/6 313/12/6
f 313/12/6 287/12/6 314/12/6
f 311/12/6 312/12/6 315/12/6
f 306/12/6 307/12/6 315/12/6
f 310/12/6 311/12/6 315/12/6
f 309/12/6 310/12/6 315/12/6
f 308/12/6 309/12/6 315/12/6
f 307/12/6 308/12/6 315/12/6
f 315/12/6 312/12/6 316/12/6
f 317/12/6 318/12/6 321/12/6
f 321/12/6 318/12/6 322/12/6
f 319/12/6 320/12/6 323/12/6
f 323/12/6 320/12/6 324/12/6
f 325/12/6 326/12/6 328/12/6
f 328/12/6 326/12/6 329/12/6
f 329/12/6 326/12/6 330/12/6
f 330/12/6 326/12/6 331/12/6
f 331/12/6 326/12/6 332/12/6
f 332/12/6 326/12/6 333/12/6
f 327/12/6 328/12/6 335/12/6
f 328/1/6 329/1/6 335/1/6
f 335/1/6 329/1/6 336/1/6
f 329/2/6 330/2/6 337/2/6
f 336/1/6 329/1/6 337/1/6
f 330/1/6 331/1/6 338/1/6
f 337/2/6 330/2/6 338/2/6
f 338/1/6 331/1/6 339/1/6
f 339/1/6 331/1/6 340/1/6
f 335/9/6 336/9/6 341/9/6
f 327/12/6 335/12/6 341/12/6
f 336/6/6 337/6/6 342/6/6
f 341/9/6 336/9/6 342/9/6
f 337/2/6 338/2/6 343/2/6
f 342/6/6 337/6/6 343/6/6
f 338/2/6 339/2/6 343/2/6
f 343/2/6 339/2/6 344/2/6
f 339/5/6 340/5/6 345/5/6
f 344/2/6 339/2/6 345/2/6
f 340/1/6 331/1/6 346/1/6
f 345/5/6 340/5/6 346/5/6
f 331/7/6 332/7/6 347/7/6
f 346/1/6 331/1/6 347/1/6
f 332/1/6 333/1/6 348/1/6
f 347/7/6 332/7/6 348/7/6
f 327/12/6 341/12/6 349/12/6
f 341/2/6 342/2/6 349/2/6
f 342/6/6 343/6/6 350/6/6
f 349/2/6 342/2/6 350/2/6
f 344/1/6 345/1/6 351/1/6
f 343/9/6 344/9/6 351/9/6
f 345/5/6 346/5/6 352/5/6
f 351/1/6 345/1/6 352/1/6
f 346/2/6 347/2/6 353/2/6
f 348/1/6 333/1/6 353/1/6
f 347/2/6 348/2/6 353/2/6
f 333/12/6 334/12/6 354/12/6
f 353/1/6 333/1/6 354/1/6
f 350/6/6 343/6/6 355/6/6
f 343/9/6 351/9/6 355/9/6
f 351/2/6 352/2/6 356/2/6
f 355/9/6 351/9/6 356/9/6
f 346/2/6 353/2/6 357/2/6
f 352/5/6 346/5/6 357/5/6
f 353/2/6 354/2/6 357/2/6
f 357/2/6 354/2/6 358/2/6
f 358/2/6 354/2/6 359/2/6
f 350/6/6 355/6/6 360/6/6
f 349/1/6 350/1/6 360/1/6
f 355/2/6 356/2/6 361/2/6
f 360/6/6 355/6/6 361/6/6
f 349/1/6 360/1/6 362/1/6
f 360/1/6 361/1/6 362/1/6
f 361/2/6 356/2/6 363/2/6
f 362/1/6 361/1/6 363/1/6
f 356/2/6 352/2/6 364/2/6
f 363/2/6 356/2/6 364/2/6
f 352/5/6 357/5/6 365/5/6
f 364/2/6 352/2/6 365/2/6
f 357/1/6 358/1/6 366/1/6
f 365/5/6 357/5/6 366/5/6
f 358/6/6 359/6/6 367/6/6
f 366/1/6 358/1/6 367/1/6
f 359/2/6 354/2/6 368/2/6
f 367/6/6 359/6/6 368/6/6
f 354/12/6 334/12/6 369/12/6
f 368/2/6 354/2/6 369/2/6
f 349/1/6 362/1/6 370/1/6
f 327/12/6 349/12/6 370/12/6
f 362/2/6 363/2/6 371/2/6
f 370/1/6 362/1/6 371/1/6
f 327/12/6 370/12/6 372/12/6
f 370/2/6 371/2/6 372/2/6
f 371/2/6 363/2/6 373/2/6
f 372/2/6 371/2/6 373/2/6
f 366/11/6 367/11/6 374/11/6
f 365/4/6 366/4/6 374/4/6
f 367/6/6 368/6/6 375/6/6
f 374/11/6 367/11/6 375/11/6
f 363/8/6 364/8/6 376/8/6
f 364/2/6 365/2/6 376/2/6
f 365/4/6 374/4/6 377/4/6
f 376/2/6 365/2/6 377/2/6
f 374/2/6 375/2/6 378/2/6
f 377/4/6 374/4/6 378/4/6
f 375/6/6 368/6/6 379/6/6
f 378/2/6 375/2/6 379/2/6
f 363/8/6 376/8/6 380/8/6
f 377/1/6 378/1/6 380/1/6
f 378/1/6 379/1/6 380/1/6
f 376/1/6 377/1/6 380/1/6
f 380/1/6 379/1/6 381/1/6
f 381/1/6 379/1/6 382/1/6
f 379/6/6 368/6/6 383/6/6
f 382/1/6 379/1/6 383/1/6
f 368/1/6 369/1/6 384/1/6
f 383/6/6 368/6/6 384/6/6
f 369/12/6 334/12/6 385/12/6
f 384/1/6 369/1/6 385/1/6
f 327/12/6 372/12/6 386/12/6
f 372/3/6 373/3/6 386/3/6
f 373/2/6 363/2/6 387/2/6
f 386/3/6 373/3/6 387/3/6
f 363/8/6 380/8/6 388/8/6
f 387/2/6 363/2/6 388/2/6
f 380/2/6 381/2/6 389/2/6
f 388/8/6 380/8/6 389/8/6
f 381/10/6 382/10/6 390/10/6
f 389/2/6 381/2/6 390/2/6
f 383/6/6 384/6/6 391/6/6
f 382/2/6 383/2/6 391/2/6
f 384/2/6 385/2/6 392/2/6
f 391/6/6 384/6/6 392/6/6
f 385/12/6 334/12/6 393/12/6
f 392/2/6 385/2/6 393/2/6
f 327/12/6 386/12/6 394/12/6
f 386/1/6 387/1/6 394/1/6
f 388/2/6 389/2/6 395/2/6
f 394/1/6 387/1/6 395/1/6
f 387/2/6 388/2/6 395/2/6
f 389/1/6 390/1/6 396/1/6
f 395/2/6 389/2/6 396/2/6
f 390/10/6 382/10/6 397/10/6
f 396/1/6 390/1/6 397/1/6
f 382/2/6 391/2/6 398/2/6
f 397/10/6 382/10/6 398/10/6
f 391/1/6 392/1/6 399/1/6
f 398/2/6 391/2/6 399/2/6
f 392/1/6 393/1/6 399/1/6
f 393/12/6 334/12/6 400/12/6
f 399/1/6 393/1/6 400/1/6
f 397/12/6 398/12/6 401/12/6
f 395/12/6 396/12/6 401/12/6
f 399/12/6 400/12/6 401/12/6
f 396/12/6 397/12/6 401/12/6
f 394/12/6 395/12/6 401/12/6
f 398/12/6 399/12/6 401/12/6
f 327/12/6 394/12/6 401/12/6
f 400/12/6 334/12/6 402/12/6
f 401/12/6 400/12/6 402/12/6
f 327/12/6 401/12/6 403/12/6
f 403/12/6 401/12/6 404/12/6
f 402/12/6 334/12/6 405/12/6
f 405/12/6 334/12/6 406/12/6
