# MagicaVoxel @ Ephtracy

# group
o 

# material
mtllib lab_decorations-9.mtl
usemtl palette

# normals
vn -1 0 0
vn 1 0 0
vn 0 0 1
vn 0 0 -1
vn 0 -1 0
vn 0 1 0

# texcoords
vt 0.142578 0.5
vt 0.423828 0.5
vt 0.427734 0.5
vt 0.732422 0.5
vt 0.751953 0.5
vt 0.755859 0.5
vt 0.802734 0.5
vt 0.830078 0.5
vt 0.962891 0.5
vt 0.966797 0.5
vt 0.978516 0.5
vt 0.986328 0.5
vt 0.990234 0.5

# verts
v -1.6 -1.1 0.45
v -1.6 -1.1 -0.45
v -1.6 -1 0.45
v -1.6 -1 -0.45
v -1.5 -1 0.35
v -1.5 -1 -0.35
v -1.5 -0.8 0.35
v -1.5 -0.8 0.25
v -1.5 -0.8 -0.25
v -1.5 -0.8 -0.35
v -1.5 -0.4 0.25
v -1.5 -0.4 -0.25
v -1.4 -0.8 0.35
v -1.4 -0.8 0.25
v -1.4 -0.8 -0.25
v -1.4 -0.8 -0.35
v -1.4 -0.4 0.25
v -1.4 -0.4 -0.25
v -1.4 -0.3 0.35
v -1.4 -0.3 0.25
v -1.4 -0.3 -0.25
v -1.4 -0.3 -0.35
v -1.4 -0.2 0.25
v -1.4 -0.2 -0.25
v -1.3 -0.3 0.35
v -1.3 -0.3 0.25
v -1.3 -0.3 -0.25
v -1.3 -0.3 -0.35
v -1.3 -0.2 0.35
v -1.3 -0.2 0.25
v -1.3 -0.2 0.15
v -1.3 -0.2 -0.15
v -1.3 -0.2 -0.25
v -1.3 -0.2 -0.35
v -1.3 -0.1 0.15
v -1.3 -0.1 -0.15
v -1.2 -0.2 0.25
v -1.2 -0.2 0.15
v -1.2 -0.2 -0.15
v -1.2 -0.2 -0.25
v -1.2 -0.1 0.25
v -1.2 -0.1 0.15
v -1.2 -0.1 -0.15
v -1.2 -0.1 -0.25
v -1.2 0 0.15
v -1.2 0 -0.15
v -1.1 -0.1 0.25
v -1.1 -0.1 0.15
v -1.1 -0.1 -0.15
v -1.1 -0.1 -0.25
v -1.1 0 0.25
v -1.1 0 0.15
v -1.1 0 -0.15
v -1.1 0 -0.25
v -1.1 0.1 0.15
v -1.1 0.1 -0.15
v -1 0 0.25
v -1 0 0.15
v -1 0 -0.15
v -1 0 -0.25
v -1 0.1 0.25
v -1 0.1 0.15
v -1 0.1 -0.15
v -1 0.1 -0.25
v -1 0.2 0.15
v -1 0.2 -0.15
v -0.9 0.1 0.25
v -0.9 0.1 0.15
v -0.9 0.1 -0.15
v -0.9 0.1 -0.25
v -0.9 0.2 0.25
v -0.9 0.2 0.15
v -0.9 0.2 -0.15
v -0.9 0.2 -0.25
v -0.9 0.3 0.15
v -0.9 0.3 -0.15
v -0.8 0.2 0.25
v -0.8 0.2 0.15
v -0.8 0.2 -0.15
v -0.8 0.2 -0.25
v -0.8 0.3 0.25
v -0.8 0.3 0.15
v -0.8 0.3 -0.15
v -0.8 0.3 -0.25
v -0.8 0.4 0.15
v -0.8 0.4 -0.15
v -0.7 0.3 0.25
v -0.7 0.3 0.15
v -0.7 0.3 -0.15
v -0.7 0.3 -0.25
v -0.7 0.4 0.25
v -0.7 0.4 0.15
v -0.7 0.4 -0.15
v -0.7 0.4 -0.25
v -0.7 0.5 0.15
v -0.7 0.5 -0.15
v -0.6 0.4 0.25
v -0.6 0.4 0.15
v -0.6 0.4 -0.15
v -0.6 0.4 -0.25
v -0.6 0.5 0.25
v -0.6 0.5 0.15
v -0.6 0.5 -0.15
v -0.6 0.5 -0.25
v -0.6 0.6 0.15
v -0.6 0.6 -0.15
v -0.5 -1 0.75
v -0.5 -1 0.45
v -0.5 -1 -0.45
v -0.5 -1 -0.75
v -0.5 -0.9 0.75
v -0.5 -0.9 -0.75
v -0.5 0.5 0.25
v -0.5 0.5 0.15
v -0.5 0.5 -0.15
v -0.5 0.5 -0.25
v -0.5 0.6 0.25
v -0.5 0.6 0.15
v -0.5 0.6 -0.15
v -0.5 0.6 -0.25
v -0.5 0.7 0.15
v -0.5 0.7 -0.15
v -0.4 0.6 0.25
v -0.4 0.6 0.15
v -0.4 0.6 -0.15
v -0.4 0.6 -0.25
v -0.4 0.7 0.25
v -0.4 0.7 0.15
v -0.4 0.7 -0.15
v -0.4 0.7 -0.25
v -0.4 0.8 0.15
v -0.4 0.8 -0.15
v -0.3 0.7 0.25
v -0.3 0.7 0.15
v -0.3 0.7 -0.15
v -0.3 0.7 -0.25
v -0.3 0.8 0.25
v -0.3 0.8 0.15
v -0.3 0.8 -0.15
v -0.3 0.8 -0.25
v -0.3 0.9 0.15
v -0.3 0.9 -0.15
v -0.2 0.8 0.25
v -0.2 0.8 0.15
v -0.2 0.8 -0.15
v -0.2 0.8 -0.25
v -0.2 0.9 0.25
v -0.2 0.9 0.15
v -0.2 0.9 -0.15
v -0.2 0.9 -0.25
v 0 0.8 0.25
v 0 0.8 0.15
v 0 0.8 -0.15
v 0 0.8 -0.25
v 0 0.9 0.25
v 0 0.9 0.15
v 0 0.9 -0.15
v 0 0.9 -0.25
v 0.1 0.6 0.15
v 0.1 0.6 -0.15
v 0.1 0.7 0.35
v 0.1 0.7 0.25
v 0.1 0.7 0.15
v 0.1 0.7 -0.15
v 0.1 0.7 -0.25
v 0.1 0.7 -0.35
v 0.1 0.8 0.35
v 0.1 0.8 0.25
v 0.1 0.8 -0.25
v 0.1 0.8 -0.35
v 0.1 0.9 0.35
v 0.1 0.9 0.25
v 0.1 0.9 0.15
v 0.1 0.9 -0.15
v 0.1 0.9 -0.25
v 0.1 0.9 -0.35
v 0.1 1 0.15
v 0.1 1 -0.15
v 0.2 0.5 0.15
v 0.2 0.5 -0.15
v 0.2 0.6 0.25
v 0.2 0.6 0.15
v 0.2 0.6 -0.15
v 0.2 0.6 -0.25
v 0.2 0.7 0.45
v 0.2 0.7 0.35
v 0.2 0.7 0.25
v 0.2 0.7 0.15
v 0.2 0.7 -0.15
v 0.2 0.7 -0.25
v 0.2 0.7 -0.35
v 0.2 0.7 -0.45
v 0.2 0.8 0.45
v 0.2 0.8 0.35
v 0.2 0.8 -0.35
v 0.2 0.8 -0.45
v 0.2 0.9 0.45
v 0.2 0.9 0.35
v 0.2 0.9 0.25
v 0.2 0.9 0.15
v 0.2 0.9 -0.15
v 0.2 0.9 -0.25
v 0.2 0.9 -0.35
v 0.2 0.9 -0.45
v 0.2 1 0.25
v 0.2 1 0.15
v 0.2 1 0.05
v 0.2 1 -0.05
v 0.2 1 -0.15
v 0.2 1 -0.25
v 0.2 1.1 0.05
v 0.2 1.1 -0.05
v 0.3 0.4 0.15
v 0.3 0.4 -0.15
v 0.3 0.5 0.25
v 0.3 0.5 0.15
v 0.3 0.5 -0.15
v 0.3 0.5 -0.25
v 0.3 0.6 0.35
v 0.3 0.6 0.25
v 0.3 0.6 0.15
v 0.3 0.6 -0.15
v 0.3 0.6 -0.25
v 0.3 0.6 -0.35
v 0.3 0.7 0.35
v 0.3 0.7 0.25
v 0.3 0.7 -0.25
v 0.3 0.7 -0.35
v 0.3 0.9 0.35
v 0.3 0.9 0.25
v 0.3 0.9 -0.25
v 0.3 0.9 -0.35
v 0.3 1 0.35
v 0.3 1 0.25
v 0.3 1 0.15
v 0.3 1 0.05
v 0.3 1 -0.05
v 0.3 1 -0.15
v 0.3 1 -0.25
v 0.3 1 -0.35
v 0.3 1.1 0.15
v 0.3 1.1 0.05
v 0.3 1.1 -0.05
v 0.3 1.1 -0.15
v 0.4 0.3 0.05
v 0.4 0.3 -0.05
v 0.4 0.4 0.05
v 0.4 0.4 -0.05
v 0.4 1 0.25
v 0.4 1 0.15
v 0.4 1 -0.15
v 0.4 1 -0.25
v 0.4 1.1 0.25
v 0.4 1.1 0.15
v 0.4 1.1 -0.15
v 0.4 1.1 -0.25
v 0.5 0.4 0.05
v 0.5 0.4 -0.05
v 0.5 0.5 0.05
v 0.5 0.5 -0.05
v 0.5 0.6 0.05
v 0.5 0.6 -0.05
v 0.5 0.7 0.05
v 0.5 0.7 -0.05
v 0.5 0.9 0.25
v 0.5 0.9 0.15
v 0.5 0.9 -0.15
v 0.5 0.9 -0.25
v 0.5 1 0.25
v 0.5 1 0.15
v 0.5 1 0.05
v 0.5 1 -0.05
v 0.5 1 -0.15
v 0.5 1 -0.25
v 0.5 1.1 0.15
v 0.5 1.1 0.05
v 0.5 1.1 -0.05
v 0.5 1.1 -0.15
v 0.6 0.7 0.25
v 0.6 0.7 0.15
v 0.6 0.7 -0.15
v 0.6 0.7 -0.25
v 0.6 0.8 0.25
v 0.6 0.8 0.15
v 0.6 0.8 -0.15
v 0.6 0.8 -0.25
v 0.6 0.9 0.25
v 0.6 0.9 0.15
v 0.6 0.9 0.05
v 0.6 0.9 -0.05
v 0.6 0.9 -0.15
v 0.6 0.9 -0.25
v 0.6 1 0.15
v 0.6 1 0.05
v 0.6 1 -0.05
v 0.6 1 -0.15
v 0.6 1.1 0.05
v 0.6 1.1 -0.05
v 0.7 0.7 0.15
v 0.7 0.7 -0.15
v 0.7 0.8 0.15
v 0.7 0.8 -0.15
v 0.7 0.9 0.15
v 0.7 0.9 0.05
v 0.7 0.9 -0.05
v 0.7 0.9 -0.15
v 0.7 1 0.05
v 0.7 1 -0.05
v -0.9 -0.8 0.35
v -0.9 -0.8 0.25
v -0.9 -0.8 -0.25
v -0.9 -0.8 -0.35
v -0.9 -0.2 0.35
v -0.9 -0.2 0.25
v -0.9 -0.2 0.15
v -0.9 -0.2 -0.15
v -0.9 -0.2 -0.25
v -0.9 -0.2 -0.35
v -0.9 -0.1 0.25
v -0.9 -0.1 0.15
v -0.9 -0.1 -0.15
v -0.9 -0.1 -0.25
v -0.8 -1 0.35
v -0.8 -1 -0.35
v -0.8 -0.8 0.35
v -0.8 -0.8 0.25
v -0.8 -0.8 -0.25
v -0.8 -0.8 -0.35
v -0.8 -0.2 0.25
v -0.8 -0.2 0.15
v -0.8 -0.2 -0.15
v -0.8 -0.2 -0.25
v -0.8 -0.1 0.25
v -0.8 -0.1 0.15
v -0.8 -0.1 -0.15
v -0.8 -0.1 -0.25
v -0.8 0 0.25
v -0.8 0 0.15
v -0.8 0 -0.15
v -0.8 0 -0.25
v -0.7 -0.1 0.15
v -0.7 -0.1 -0.15
v -0.7 0 0.25
v -0.7 0 0.15
v -0.7 0 -0.15
v -0.7 0 -0.25
v -0.7 0.1 0.25
v -0.7 0.1 0.15
v -0.7 0.1 -0.15
v -0.7 0.1 -0.25
v -0.6 0 0.15
v -0.6 0 -0.15
v -0.6 0.1 0.25
v -0.6 0.1 0.15
v -0.6 0.1 -0.15
v -0.6 0.1 -0.25
v -0.6 0.2 0.25
v -0.6 0.2 0.15
v -0.6 0.2 -0.15
v -0.6 0.2 -0.25
v -0.5 0.1 0.15
v -0.5 0.1 -0.15
v -0.5 0.2 0.25
v -0.5 0.2 0.15
v -0.5 0.2 -0.15
v -0.5 0.2 -0.25
v -0.5 0.3 0.25
v -0.5 0.3 0.15
v -0.5 0.3 -0.15
v -0.5 0.3 -0.25
v -0.4 0.2 0.15
v -0.4 0.2 -0.15
v -0.4 0.3 0.25
v -0.4 0.3 0.15
v -0.4 0.3 -0.15
v -0.4 0.3 -0.25
v -0.4 0.4 0.25
v -0.4 0.4 0.15
v -0.4 0.4 -0.15
v -0.4 0.4 -0.25
v -0.3 0.3 0.15
v -0.3 0.3 -0.15
v -0.3 0.4 0.25
v -0.3 0.4 0.15
v -0.3 0.4 -0.15
v -0.3 0.4 -0.25
v -0.3 0.5 0.25
v -0.3 0.5 0.15
v -0.3 0.5 -0.15
v -0.3 0.5 -0.25
v -0.2 0.4 0.15
v -0.2 0.4 -0.15
v -0.2 0.5 0.25
v -0.2 0.5 0.15
v -0.2 0.5 -0.15
v -0.2 0.5 -0.25
v -0.2 0.6 0.25
v -0.2 0.6 0.15
v -0.2 0.6 -0.15
v -0.2 0.6 -0.25
v -0.1 0.5 0.15
v -0.1 0.5 -0.15
v -0.1 0.6 0.25
v -0.1 0.6 0.15
v -0.1 0.6 -0.15
v -0.1 0.6 -0.25
v -0.1 0.7 0.25
v -0.1 0.7 0.15
v -0.1 0.7 -0.15
v -0.1 0.7 -0.25
v -0.1 0.8 0.25
v -0.1 0.8 0.15
v -0.1 0.8 -0.15
v -0.1 0.8 -0.25
v -0.1 0.9 0.25
v -0.1 0.9 0.15
v -0.1 0.9 -0.15
v -0.1 0.9 -0.25
v 0 0.6 0.15
v 0 0.6 -0.15
v 0 0.7 0.15
v 0 0.7 -0.15
v 0.2 0.7 0.15
v 0.2 0.7 -0.15
v 0.2 0.8 0.15
v 0.2 0.8 -0.15
v 0.2 0.9 0.15
v 0.2 0.9 0.05
v 0.2 0.9 -0.05
v 0.2 0.9 -0.15
v 0.2 1 0.05
v 0.2 1 -0.05
v 0.3 0.7 0.25
v 0.3 0.7 0.15
v 0.3 0.7 -0.15
v 0.3 0.7 -0.25
v 0.3 0.8 0.25
v 0.3 0.8 0.15
v 0.3 0.8 -0.15
v 0.3 0.8 -0.25
v 0.3 0.9 0.25
v 0.3 0.9 0.15
v 0.3 0.9 0.05
v 0.3 0.9 -0.05
v 0.3 0.9 -0.15
v 0.3 0.9 -0.25
v 0.3 1 0.15
v 0.3 1 0.05
v 0.3 1 -0.05
v 0.3 1 -0.15
v 0.3 1.1 0.05
v 0.3 1.1 -0.05
v 0.4 0.4 0.05
v 0.4 0.4 -0.05
v 0.4 0.5 0.05
v 0.4 0.5 -0.05
v 0.4 0.6 0.05
v 0.4 0.6 -0.05
v 0.4 0.7 0.05
v 0.4 0.7 -0.05
v 0.4 0.9 0.25
v 0.4 0.9 0.15
v 0.4 0.9 -0.15
v 0.4 0.9 -0.25
v 0.4 1 0.25
v 0.4 1 0.15
v 0.4 1 0.05
v 0.4 1 -0.05
v 0.4 1 -0.15
v 0.4 1 -0.25
v 0.4 1.1 0.15
v 0.4 1.1 0.05
v 0.4 1.1 -0.05
v 0.4 1.1 -0.15
v 0.5 0.3 0.05
v 0.5 0.3 -0.05
v 0.5 0.4 0.05
v 0.5 0.4 -0.05
v 0.5 1 0.25
v 0.5 1 0.15
v 0.5 1 -0.15
v 0.5 1 -0.25
v 0.5 1.1 0.25
v 0.5 1.1 0.15
v 0.5 1.1 -0.15
v 0.5 1.1 -0.25
v 0.6 0.4 0.15
v 0.6 0.4 -0.15
v 0.6 0.5 0.25
v 0.6 0.5 0.15
v 0.6 0.5 -0.15
v 0.6 0.5 -0.25
v 0.6 0.6 0.35
v 0.6 0.6 0.25
v 0.6 0.6 0.15
v 0.6 0.6 -0.15
v 0.6 0.6 -0.25
v 0.6 0.6 -0.35
v 0.6 0.7 0.35
v 0.6 0.7 0.25
v 0.6 0.7 -0.25
v 0.6 0.7 -0.35
v 0.6 0.9 0.35
v 0.6 0.9 0.25
v 0.6 0.9 -0.25
v 0.6 0.9 -0.35
v 0.6 1 0.35
v 0.6 1 0.25
v 0.6 1 0.15
v 0.6 1 0.05
v 0.6 1 -0.05
v 0.6 1 -0.15
v 0.6 1 -0.25
v 0.6 1 -0.35
v 0.6 1.1 0.15
v 0.6 1.1 0.05
v 0.6 1.1 -0.05
v 0.6 1.1 -0.15
v 0.7 0.5 0.15
v 0.7 0.5 -0.15
v 0.7 0.6 0.25
v 0.7 0.6 0.15
v 0.7 0.6 -0.15
v 0.7 0.6 -0.25
v 0.7 0.7 0.45
v 0.7 0.7 0.35
v 0.7 0.7 0.25
v 0.7 0.7 0.15
v 0.7 0.7 -0.15
v 0.7 0.7 -0.25
v 0.7 0.7 -0.35
v 0.7 0.7 -0.45
v 0.7 0.8 0.45
v 0.7 0.8 0.35
v 0.7 0.8 -0.35
v 0.7 0.8 -0.45
v 0.7 0.9 0.45
v 0.7 0.9 0.35
v 0.7 0.9 0.25
v 0.7 0.9 0.15
v 0.7 0.9 -0.15
v 0.7 0.9 -0.25
v 0.7 0.9 -0.35
v 0.7 0.9 -0.45
v 0.7 1 0.25
v 0.7 1 0.15
v 0.7 1 0.05
v 0.7 1 -0.05
v 0.7 1 -0.15
v 0.7 1 -0.25
v 0.7 1.1 0.05
v 0.7 1.1 -0.05
v 0.8 0.6 0.15
v 0.8 0.6 -0.15
v 0.8 0.7 0.35
v 0.8 0.7 0.25
v 0.8 0.7 0.15
v 0.8 0.7 -0.15
v 0.8 0.7 -0.25
v 0.8 0.7 -0.35
v 0.8 0.8 0.35
v 0.8 0.8 0.25
v 0.8 0.8 -0.25
v 0.8 0.8 -0.35
v 0.8 0.9 0.35
v 0.8 0.9 0.25
v 0.8 0.9 0.15
v 0.8 0.9 -0.15
v 0.8 0.9 -0.25
v 0.8 0.9 -0.35
v 0.8 1 0.15
v 0.8 1 -0.15
v 0.9 0.7 0.25
v 0.9 0.7 -0.25
v 0.9 0.8 0.25
v 0.9 0.8 -0.25
v 0.9 0.9 0.25
v 0.9 0.9 -0.25
v 1.1 -1 0.75
v 1.1 -1 0.45
v 1.1 -1 -0.45
v 1.1 -1 -0.75
v 1.1 -0.9 0.75
v 1.1 -0.9 -0.75
v 1.6 -1.1 0.45
v 1.6 -1.1 -0.45
v 1.6 -1 0.45
v 1.6 -1 -0.45
v -0.5 -1 0.75
v -0.5 -0.9 0.75
v 1.1 -1 0.75
v 1.1 -0.9 0.75
v -1.6 -1.1 0.45
v -1.6 -1 0.45
v -0.5 -1 0.45
v 0.2 0.7 0.45
v 0.2 0.8 0.45
v 0.2 0.9 0.45
v 0.7 0.7 0.45
v 0.7 0.8 0.45
v 0.7 0.9 0.45
v 1.1 -1 0.45
v 1.6 -1.1 0.45
v 1.6 -1 0.45
v -1.5 -1 0.35
v -1.5 -0.8 0.35
v -1.4 -0.8 0.35
v -1.4 -0.3 0.35
v -1.3 -0.3 0.35
v -1.3 -0.2 0.35
v -0.9 -0.8 0.35
v -0.9 -0.2 0.35
v -0.8 -1 0.35
v -0.8 -0.8 0.35
v 0.1 0.7 0.35
v 0.1 0.8 0.35
v 0.1 0.9 0.35
v 0.2 0.7 0.35
v 0.2 0.8 0.35
v 0.2 0.9 0.35
v 0.3 0.6 0.35
v 0.3 0.7 0.35
v 0.3 0.9 0.35
v 0.3 1 0.35
v 0.6 0.6 0.35
v 0.6 0.7 0.35
v 0.6 0.9 0.35
v 0.6 1 0.35
v 0.7 0.7 0.35
v 0.7 0.8 0.35
v 0.7 0.9 0.35
v 0.8 0.7 0.35
v 0.8 0.8 0.35
v 0.8 0.9 0.35
v -1.5 -0.8 0.25
v -1.5 -0.4 0.25
v -1.4 -0.8 0.25
v -1.4 -0.4 0.25
v -1.4 -0.3 0.25
v -1.4 -0.2 0.25
v -1.3 -0.3 0.25
v -1.3 -0.2 0.25
v -1.2 -0.2 0.25
v -1.2 -0.1 0.25
v -1.1 -0.1 0.25
v -1.1 0 0.25
v -1 0 0.25
v -1 0.1 0.25
v -0.9 -0.8 0.25
v -0.9 -0.2 0.25
v -0.9 -0.1 0.25
v -0.9 0.1 0.25
v -0.9 0.2 0.25
v -0.8 -0.8 0.25
v -0.8 -0.2 0.25
v -0.8 -0.1 0.25
v -0.8 0 0.25
v -0.8 0.2 0.25
v -0.8 0.3 0.25
v -0.7 0 0.25
v -0.7 0.1 0.25
v -0.7 0.3 0.25
v -0.7 0.4 0.25
v -0.6 0.1 0.25
v -0.6 0.2 0.25
v -0.6 0.4 0.25
v -0.6 0.5 0.25
v -0.5 0.2 0.25
v -0.5 0.3 0.25
v -0.5 0.5 0.25
v -0.5 0.6 0.25
v -0.4 0.3 0.25
v -0.4 0.4 0.25
v -0.4 0.6 0.25
v -0.4 0.7 0.25
v -0.3 0.4 0.25
v -0.3 0.5 0.25
v -0.3 0.7 0.25
v -0.3 0.8 0.25
v -0.2 0.5 0.25
v -0.2 0.6 0.25
v -0.2 0.8 0.25
v -0.2 0.9 0.25
v -0.1 0.6 0.25
v -0.1 0.7 0.25
v -0.1 0.8 0.25
v -0.1 0.9 0.25
v 0 0.8 0.25
v 0 0.9 0.25
v 0.1 0.7 0.25
v 0.1 0.8 0.25
v 0.1 0.9 0.25
v 0.2 0.6 0.25
v 0.2 0.7 0.25
v 0.2 0.9 0.25
v 0.2 1 0.25
v 0.3 0.5 0.25
v 0.3 0.6 0.25
v 0.3 0.7 0.25
v 0.3 0.9 0.25
v 0.3 1 0.25
v 0.4 1 0.25
v 0.4 1.1 0.25
v 0.5 1 0.25
v 0.5 1.1 0.25
v 0.6 0.5 0.25
v 0.6 0.6 0.25
v 0.6 0.7 0.25
v 0.6 0.9 0.25
v 0.6 1 0.25
v 0.7 0.6 0.25
v 0.7 0.7 0.25
v 0.7 0.9 0.25
v 0.7 1 0.25
v 0.8 0.7 0.25
v 0.8 0.8 0.25
v 0.8 0.9 0.25
v 0.9 0.7 0.25
v 0.9 0.8 0.25
v 0.9 0.9 0.25
v -1.3 -0.2 0.15
v -1.3 -0.1 0.15
v -1.2 -0.2 0.15
v -1.2 -0.1 0.15
v -1.2 0 0.15
v -1.1 -0.1 0.15
v -1.1 0 0.15
v -1.1 0.1 0.15
v -1 0 0.15
v -1 0.1 0.15
v -1 0.2 0.15
v -0.9 -0.2 0.15
v -0.9 -0.1 0.15
v -0.9 0.1 0.15
v -0.9 0.2 0.15
v -0.9 0.3 0.15
v -0.8 -0.2 0.15
v -0.8 -0.1 0.15
v -0.8 0 0.15
v -0.8 0.2 0.15
v -0.8 0.3 0.15
v -0.8 0.4 0.15
v -0.7 -0.1 0.15
v -0.7 0 0.15
v -0.7 0.1 0.15
v -0.7 0.3 0.15
v -0.7 0.4 0.15
v -0.7 0.5 0.15
v -0.6 0 0.15
v -0.6 0.1 0.15
v -0.6 0.2 0.15
v -0.6 0.4 0.15
v -0.6 0.5 0.15
v -0.6 0.6 0.15
v -0.5 0.1 0.15
v -0.5 0.2 0.15
v -0.5 0.3 0.15
v -0.5 0.5 0.15
v -0.5 0.6 0.15
v -0.5 0.7 0.15
v -0.4 0.2 0.15
v -0.4 0.3 0.15
v -0.4 0.4 0.15
v -0.4 0.6 0.15
v -0.4 0.7 0.15
v -0.4 0.8 0.15
v -0.3 0.3 0.15
v -0.3 0.4 0.15
v -0.3 0.5 0.15
v -0.3 0.7 0.15
v -0.3 0.8 0.15
v -0.3 0.9 0.15
v -0.2 0.4 0.15
v -0.2 0.5 0.15
v -0.2 0.6 0.15
v -0.2 0.8 0.15
v -0.2 0.9 0.15
v -0.1 0.5 0.15
v -0.1 0.6 0.15
v -0.1 0.7 0.15
v -0.1 0.8 0.15
v -0.1 0.9 0.15
v 0 0.6 0.15
v 0 0.7 0.15
v 0 0.8 0.15
v 0 0.9 0.15
v 0.1 0.6 0.15
v 0.1 0.7 0.15
v 0.1 0.9 0.15
v 0.1 1 0.15
v 0.2 0.5 0.15
v 0.2 0.6 0.15
v 0.2 0.7 0.15
v 0.2 0.9 0.15
v 0.2 1 0.15
v 0.3 0.4 0.15
v 0.3 0.5 0.15
v 0.3 0.6 0.15
v 0.3 1 0.15
v 0.3 1.1 0.15
v 0.4 1 0.15
v 0.4 1.1 0.15
v 0.5 1 0.15
v 0.5 1.1 0.15
v 0.6 0.4 0.15
v 0.6 0.5 0.15
v 0.6 0.6 0.15
v 0.6 1 0.15
v 0.6 1.1 0.15
v 0.7 0.5 0.15
v 0.7 0.6 0.15
v 0.7 0.7 0.15
v 0.7 0.9 0.15
v 0.7 1 0.15
v 0.8 0.6 0.15
v 0.8 0.7 0.15
v 0.8 0.9 0.15
v 0.8 1 0.15
v 0.2 1 0.05
v 0.2 1.1 0.05
v 0.3 1 0.05
v 0.3 1.1 0.05
v 0.4 0.3 0.05
v 0.4 0.4 0.05
v 0.5 0.3 0.05
v 0.5 0.4 0.05
v 0.6 1 0.05
v 0.6 1.1 0.05
v 0.7 1 0.05
v 0.7 1.1 0.05
v 0.2 0.9 -0.05
v 0.2 1 -0.05
v 0.3 0.9 -0.05
v 0.3 1 -0.05
v 0.3 1.1 -0.05
v 0.4 0.4 -0.05
v 0.4 0.5 -0.05
v 0.4 0.6 -0.05
v 0.4 0.7 -0.05
v 0.4 1 -0.05
v 0.4 1.1 -0.05
v 0.5 0.4 -0.05
v 0.5 0.5 -0.05
v 0.5 0.6 -0.05
v 0.5 0.7 -0.05
v 0.5 1 -0.05
v 0.5 1.1 -0.05
v 0.6 0.9 -0.05
v 0.6 1 -0.05
v 0.6 1.1 -0.05
v 0.7 0.9 -0.05
v 0.7 1 -0.05
v 0.2 0.7 -0.15
v 0.2 0.8 -0.15
v 0.2 0.9 -0.15
v 0.3 0.7 -0.15
v 0.3 0.8 -0.15
v 0.3 0.9 -0.15
v 0.3 1 -0.15
v 0.4 0.9 -0.15
v 0.4 1 -0.15
v 0.4 1.1 -0.15
v 0.5 0.9 -0.15
v 0.5 1 -0.15
v 0.5 1.1 -0.15
v 0.6 0.7 -0.15
v 0.6 0.8 -0.15
v 0.6 0.9 -0.15
v 0.6 1 -0.15
v 0.7 0.7 -0.15
v 0.7 0.8 -0.15
v 0.7 0.9 -0.15
v 0.3 0.7 -0.25
v 0.3 0.8 -0.25
v 0.3 0.9 -0.25
v 0.4 0.9 -0.25
v 0.4 1 -0.25
v 0.5 0.9 -0.25
v 0.5 1 -0.25
v 0.6 0.7 -0.25
v 0.6 0.8 -0.25
v 0.6 0.9 -0.25
v 0.3 0.7 0.25
v 0.3 0.8 0.25
v 0.3 0.9 0.25
v 0.4 0.9 0.25
v 0.4 1 0.25
v 0.5 0.9 0.25
v 0.5 1 0.25
v 0.6 0.7 0.25
v 0.6 0.8 0.25
v 0.6 0.9 0.25
v 0.2 0.7 0.15
v 0.2 0.8 0.15
v 0.2 0.9 0.15
v 0.3 0.7 0.15
v 0.3 0.8 0.15
v 0.3 0.9 0.15
v 0.3 1 0.15
v 0.4 0.9 0.15
v 0.4 1 0.15
v 0.4 1.1 0.15
v 0.5 0.9 0.15
v 0.5 1 0.15
v 0.5 1.1 0.15
v 0.6 0.7 0.15
v 0.6 0.8 0.15
v 0.6 0.9 0.15
v 0.6 1 0.15
v 0.7 0.7 0.15
v 0.7 0.8 0.15
v 0.7 0.9 0.15
v 0.2 0.9 0.05
v 0.2 1 0.05
v 0.3 0.9 0.05
v 0.3 1 0.05
v 0.3 1.1 0.05
v 0.4 0.4 0.05
v 0.4 0.5 0.05
v 0.4 0.6 0.05
v 0.4 0.7 0.05
v 0.4 1 0.05
v 0.4 1.1 0.05
v 0.5 0.4 0.05
v 0.5 0.5 0.05
v 0.5 0.6 0.05
v 0.5 0.7 0.05
v 0.5 1 0.05
v 0.5 1.1 0.05
v 0.6 0.9 0.05
v 0.6 1 0.05
v 0.6 1.1 0.05
v 0.7 0.9 0.05
v 0.7 1 0.05
v 0.2 1 -0.05
v 0.2 1.1 -0.05
v 0.3 1 -0.05
v 0.3 1.1 -0.05
v 0.4 0.3 -0.05
v 0.4 0.4 -0.05
v 0.5 0.3 -0.05
v 0.5 0.4 -0.05
v 0.6 1 -0.05
v 0.6 1.1 -0.05
v 0.7 1 -0.05
v 0.7 1.1 -0.05
v -1.3 -0.2 -0.15
v -1.3 -0.1 -0.15
v -1.2 -0.2 -0.15
v -1.2 -0.1 -0.15
v -1.2 0 -0.15
v -1.1 -0.1 -0.15
v -1.1 0 -0.15
v -1.1 0.1 -0.15
v -1 0 -0.15
v -1 0.1 -0.15
v -1 0.2 -0.15
v -0.9 -0.2 -0.15
v -0.9 -0.1 -0.15
v -0.9 0.1 -0.15
v -0.9 0.2 -0.15
v -0.9 0.3 -0.15
v -0.8 -0.2 -0.15
v -0.8 -0.1 -0.15
v -0.8 0 -0.15
v -0.8 0.2 -0.15
v -0.8 0.3 -0.15
v -0.8 0.4 -0.15
v -0.7 -0.1 -0.15
v -0.7 0 -0.15
v -0.7 0.1 -0.15
v -0.7 0.3 -0.15
v -0.7 0.4 -0.15
v -0.7 0.5 -0.15
v -0.6 0 -0.15
v -0.6 0.1 -0.15
v -0.6 0.2 -0.15
v -0.6 0.4 -0.15
v -0.6 0.5 -0.15
v -0.6 0.6 -0.15
v -0.5 0.1 -0.15
v -0.5 0.2 -0.15
v -0.5 0.3 -0.15
v -0.5 0.5 -0.15
v -0.5 0.6 -0.15
v -0.5 0.7 -0.15
v -0.4 0.2 -0.15
v -0.4 0.3 -0.15
v -0.4 0.4 -0.15
v -0.4 0.6 -0.15
v -0.4 0.7 -0.15
v -0.4 0.8 -0.15
v -0.3 0.3 -0.15
v -0.3 0.4 -0.15
v -0.3 0.5 -0.15
v -0.3 0.7 -0.15
v -0.3 0.8 -0.15
v -0.3 0.9 -0.15
v -0.2 0.4 -0.15
v -0.2 0.5 -0.15
v -0.2 0.6 -0.15
v -0.2 0.8 -0.15
v -0.2 0.9 -0.15
v -0.1 0.5 -0.15
v -0.1 0.6 -0.15
v -0.1 0.7 -0.15
v -0.1 0.8 -0.15
v -0.1 0.9 -0.15
v 0 0.6 -0.15
v 0 0.7 -0.15
v 0 0.8 -0.15
v 0 0.9 -0.15
v 0.1 0.6 -0.15
v 0.1 0.7 -0.15
v 0.1 0.9 -0.15
v 0.1 1 -0.15
v 0.2 0.5 -0.15
v 0.2 0.6 -0.15
v 0.2 0.7 -0.15
v 0.2 0.9 -0.15
v 0.2 1 -0.15
v 0.3 0.4 -0.15
v 0.3 0.5 -0.15
v 0.3 0.6 -0.15
v 0.3 1 -0.15
v 0.3 1.1 -0.15
v 0.4 1 -0.15
v 0.4 1.1 -0.15
v 0.5 1 -0.15
v 0.5 1.1 -0.15
v 0.6 0.4 -0.15
v 0.6 0.5 -0.15
v 0.6 0.6 -0.15
v 0.6 1 -0.15
v 0.6 1.1 -0.15
v 0.7 0.5 -0.15
v 0.7 0.6 -0.15
v 0.7 0.7 -0.15
v 0.7 0.9 -0.15
v 0.7 1 -0.15
v 0.8 0.6 -0.15
v 0.8 0.7 -0.15
v 0.8 0.9 -0.15
v 0.8 1 -0.15
v -1.5 -0.8 -0.25
v -1.5 -0.4 -0.25
v -1.4 -0.8 -0.25
v -1.4 -0.4 -0.25
v -1.4 -0.3 -0.25
v -1.4 -0.2 -0.25
v -1.3 -0.3 -0.25
v -1.3 -0.2 -0.25
v -1.2 -0.2 -0.25
v -1.2 -0.1 -0.25
v -1.1 -0.1 -0.25
v -1.1 0 -0.25
v -1 0 -0.25
v -1 0.1 -0.25
v -0.9 -0.8 -0.25
v -0.9 -0.2 -0.25
v -0.9 -0.1 -0.25
v -0.9 0.1 -0.25
v -0.9 0.2 -0.25
v -0.8 -0.8 -0.25
v -0.8 -0.2 -0.25
v -0.8 -0.1 -0.25
v -0.8 0 -0.25
v -0.8 0.2 -0.25
v -0.8 0.3 -0.25
v -0.7 0 -0.25
v -0.7 0.1 -0.25
v -0.7 0.3 -0.25
v -0.7 0.4 -0.25
v -0.6 0.1 -0.25
v -0.6 0.2 -0.25
v -0.6 0.4 -0.25
v -0.6 0.5 -0.25
v -0.5 0.2 -0.25
v -0.5 0.3 -0.25
v -0.5 0.5 -0.25
v -0.5 0.6 -0.25
v -0.4 0.3 -0.25
v -0.4 0.4 -0.25
v -0.4 0.6 -0.25
v -0.4 0.7 -0.25
v -0.3 0.4 -0.25
v -0.3 0.5 -0.25
v -0.3 0.7 -0.25
v -0.3 0.8 -0.25
v -0.2 0.5 -0.25
v -0.2 0.6 -0.25
v -0.2 0.8 -0.25
v -0.2 0.9 -0.25
v -0.1 0.6 -0.25
v -0.1 0.7 -0.25
v -0.1 0.8 -0.25
v -0.1 0.9 -0.25
v 0 0.8 -0.25
v 0 0.9 -0.25
v 0.1 0.7 -0.25
v 0.1 0.8 -0.25
v 0.1 0.9 -0.25
v 0.2 0.6 -0.25
v 0.2 0.7 -0.25
v 0.2 0.9 -0.25
v 0.2 1 -0.25
v 0.3 0.5 -0.25
v 0.3 0.6 -0.25
v 0.3 0.7 -0.25
v 0.3 0.9 -0.25
v 0.3 1 -0.25
v 0.4 1 -0.25
v 0.4 1.1 -0.25
v 0.5 1 -0.25
v 0.5 1.1 -0.25
v 0.6 0.5 -0.25
v 0.6 0.6 -0.25
v 0.6 0.7 -0.25
v 0.6 0.9 -0.25
v 0.6 1 -0.25
v 0.7 0.6 -0.25
v 0.7 0.7 -0.25
v 0.7 0.9 -0.25
v 0.7 1 -0.25
v 0.8 0.7 -0.25
v 0.8 0.8 -0.25
v 0.8 0.9 -0.25
v 0.9 0.7 -0.25
v 0.9 0.8 -0.25
v 0.9 0.9 -0.25
v -1.5 -1 -0.35
v -1.5 -0.8 -0.35
v -1.4 -0.8 -0.35
v -1.4 -0.3 -0.35
v -1.3 -0.3 -0.35
v -1.3 -0.2 -0.35
v -0.9 -0.8 -0.35
v -0.9 -0.2 -0.35
v -0.8 -1 -0.35
v -0.8 -0.8 -0.35
v 0.1 0.7 -0.35
v 0.1 0.8 -0.35
v 0.1 0.9 -0.35
v 0.2 0.7 -0.35
v 0.2 0.8 -0.35
v 0.2 0.9 -0.35
v 0.3 0.6 -0.35
v 0.3 0.7 -0.35
v 0.3 0.9 -0.35
v 0.3 1 -0.35
v 0.6 0.6 -0.35
v 0.6 0.7 -0.35
v 0.6 0.9 -0.35
v 0.6 1 -0.35
v 0.7 0.7 -0.35
v 0.7 0.8 -0.35
v 0.7 0.9 -0.35
v 0.8 0.7 -0.35
v 0.8 0.8 -0.35
v 0.8 0.9 -0.35
v -1.6 -1.1 -0.45
v -1.6 -1 -0.45
v -0.5 -1 -0.45
v 0.2 0.7 -0.45
v 0.2 0.8 -0.45
v 0.2 0.9 -0.45
v 0.7 0.7 -0.45
v 0.7 0.8 -0.45
v 0.7 0.9 -0.45
v 1.1 -1 -0.45
v 1.6 -1.1 -0.45
v 1.6 -1 -0.45
v -0.5 -1 -0.75
v -0.5 -0.9 -0.75
v 1.1 -1 -0.75
v 1.1 -0.9 -0.75
v -1.6 -1.1 0.45
v 1.6 -1.1 0.45
v -1.6 -1.1 -0.45
v 1.6 -1.1 -0.45
v -0.5 -1 0.75
v 1.1 -1 0.75
v -0.5 -1 0.45
v 1.1 -1 0.45
v -0.5 -1 -0.45
v 1.1 -1 -0.45
v -0.5 -1 -0.75
v 1.1 -1 -0.75
v -0.9 -0.1 0.25
v -0.8 -0.1 0.25
v -0.9 -0.1 0.15
v -0.8 -0.1 0.15
v -0.7 -0.1 0.15
v -0.9 -0.1 -0.15
v -0.8 -0.1 -0.15
v -0.7 -0.1 -0.15
v -0.9 -0.1 -0.25
v -0.8 -0.1 -0.25
v -0.8 0 0.25
v -0.7 0 0.25
v -0.8 0 0.15
v -0.7 0 0.15
v -0.6 0 0.15
v -0.8 0 -0.15
v -0.7 0 -0.15
v -0.6 0 -0.15
v -0.8 0 -0.25
v -0.7 0 -0.25
v -0.7 0.1 0.25
v -0.6 0.1 0.25
v -0.7 0.1 0.15
v -0.6 0.1 0.15
v -0.5 0.1 0.15
v -0.7 0.1 -0.15
v -0.6 0.1 -0.15
v -0.5 0.1 -0.15
v -0.7 0.1 -0.25
v -0.6 0.1 -0.25
v -0.6 0.2 0.25
v -0.5 0.2 0.25
v -0.6 0.2 0.15
v -0.5 0.2 0.15
v -0.4 0.2 0.15
v -0.6 0.2 -0.15
v -0.5 0.2 -0.15
v -0.4 0.2 -0.15
v -0.6 0.2 -0.25
v -0.5 0.2 -0.25
v -0.5 0.3 0.25
v -0.4 0.3 0.25
v -0.5 0.3 0.15
v -0.4 0.3 0.15
v -0.3 0.3 0.15
v 0.4 0.3 0.05
v 0.5 0.3 0.05
v 0.4 0.3 -0.05
v 0.5 0.3 -0.05
v -0.5 0.3 -0.15
v -0.4 0.3 -0.15
v -0.3 0.3 -0.15
v -0.5 0.3 -0.25
v -0.4 0.3 -0.25
v -0.4 0.4 0.25
v -0.3 0.4 0.25
v -0.4 0.4 0.15
v -0.3 0.4 0.15
v -0.2 0.4 0.15
v 0.3 0.4 0.15
v 0.6 0.4 0.15
v 0.4 0.4 0.05
v 0.5 0.4 0.05
v 0.4 0.4 -0.05
v 0.5 0.4 -0.05
v -0.4 0.4 -0.15
v -0.3 0.4 -0.15
v -0.2 0.4 -0.15
v 0.3 0.4 -0.15
v 0.6 0.4 -0.15
v -0.4 0.4 -0.25
v -0.3 0.4 -0.25
v -0.3 0.5 0.25
v -0.2 0.5 0.25
v 0.3 0.5 0.25
v 0.6 0.5 0.25
v -0.3 0.5 0.15
v -0.2 0.5 0.15
v -0.1 0.5 0.15
v 0.2 0.5 0.15
v 0.3 0.5 0.15
v 0.6 0.5 0.15
v 0.7 0.5 0.15
v -0.3 0.5 -0.15
v -0.2 0.5 -0.15
v -0.1 0.5 -0.15
v 0.2 0.5 -0.15
v 0.3 0.5 -0.15
v 0.6 0.5 -0.15
v 0.7 0.5 -0.15
v -0.3 0.5 -0.25
v -0.2 0.5 -0.25
v 0.3 0.5 -0.25
v 0.6 0.5 -0.25
v 0.3 0.6 0.35
v 0.6 0.6 0.35
v -0.2 0.6 0.25
v -0.1 0.6 0.25
v 0.2 0.6 0.25
v 0.3 0.6 0.25
v 0.6 0.6 0.25
v 0.7 0.6 0.25
v -0.2 0.6 0.15
v -0.1 0.6 0.15
v 0 0.6 0.15
v 0.1 0.6 0.15
v 0.2 0.6 0.15
v 0.3 0.6 0.15
v 0.6 0.6 0.15
v 0.7 0.6 0.15
v 0.8 0.6 0.15
v -0.2 0.6 -0.15
v -0.1 0.6 -0.15
v 0 0.6 -0.15
v 0.1 0.6 -0.15
v 0.2 0.6 -0.15
v 0.3 0.6 -0.15
v 0.6 0.6 -0.15
v 0.7 0.6 -0.15
v 0.8 0.6 -0.15
v -0.2 0.6 -0.25
v -0.1 0.6 -0.25
v 0.2 0.6 -0.25
v 0.3 0.6 -0.25
v 0.6 0.6 -0.25
v 0.7 0.6 -0.25
v 0.3 0.6 -0.35
v 0.6 0.6 -0.35
v 0.2 0.7 0.45
v 0.7 0.7 0.45
v 0.1 0.7 0.35
v 0.2 0.7 0.35
v 0.3 0.7 0.35
v 0.6 0.7 0.35
v 0.7 0.7 0.35
v 0.8 0.7 0.35
v -0.1 0.7 0.25
v 0.1 0.7 0.25
v 0.2 0.7 0.25
v 0.3 0.7 0.25
v 0.6 0.7 0.25
v 0.7 0.7 0.25
v 0.8 0.7 0.25
v 0.9 0.7 0.25
v -0.1 0.7 0.15
v 0 0.7 0.15
v 0.1 0.7 0.15
v 0.2 0.7 0.15
v 0.7 0.7 0.15
v 0.8 0.7 0.15
v -0.1 0.7 -0.15
v 0 0.7 -0.15
v 0.1 0.7 -0.15
v 0.2 0.7 -0.15
v 0.7 0.7 -0.15
v 0.8 0.7 -0.15
v -0.1 0.7 -0.25
v 0.1 0.7 -0.25
v 0.2 0.7 -0.25
v 0.3 0.7 -0.25
v 0.6 0.7 -0.25
v 0.7 0.7 -0.25
v 0.8 0.7 -0.25
v 0.9 0.7 -0.25
v 0.1 0.7 -0.35
v 0.2 0.7 -0.35
v 0.3 0.7 -0.35
v 0.6 0.7 -0.35
v 0.7 0.7 -0.35
v 0.8 0.7 -0.35
v 0.2 0.7 -0.45
v 0.7 0.7 -0.45
v 0.3 0.9 0.25
v 0.4 0.9 0.25
v 0.5 0.9 0.25
v 0.6 0.9 0.25
v 0.2 0.9 0.15
v 0.3 0.9 0.15
v 0.4 0.9 0.15
v 0.5 0.9 0.15
v 0.6 0.9 0.15
v 0.7 0.9 0.15
v 0.2 0.9 0.05
v 0.3 0.9 0.05
v 0.6 0.9 0.05
v 0.7 0.9 0.05
v 0.2 0.9 -0.05
v 0.3 0.9 -0.05
v 0.6 0.9 -0.05
v 0.7 0.9 -0.05
v 0.2 0.9 -0.15
v 0.3 0.9 -0.15
v 0.4 0.9 -0.15
v 0.5 0.9 -0.15
v 0.6 0.9 -0.15
v 0.7 0.9 -0.15
v 0.3 0.9 -0.25
v 0.4 0.9 -0.25
v 0.5 0.9 -0.25
v 0.6 0.9 -0.25
v 0.4 1 0.25
v 0.5 1 0.25
v 0.3 1 0.15
v 0.4 1 0.15
v 0.5 1 0.15
v 0.6 1 0.15
v 0.2 1 0.05
v 0.3 1 0.05
v 0.4 1 0.05
v 0.5 1 0.05
v 0.6 1 0.05
v 0.7 1 0.05
v 0.2 1 -0.05
v 0.3 1 -0.05
v 0.4 1 -0.05
v 0.5 1 -0.05
v 0.6 1 -0.05
v 0.7 1 -0.05
v 0.3 1 -0.15
v 0.4 1 -0.15
v 0.5 1 -0.15
v 0.6 1 -0.15
v 0.4 1 -0.25
v 0.5 1 -0.25
v -1.6 -1 0.45
v -0.5 -1 0.45
v 1.1 -1 0.45
v 1.6 -1 0.45
v -1.5 -1 0.35
v -0.8 -1 0.35
v -1.5 -1 -0.35
v -0.8 -1 -0.35
v -1.6 -1 -0.45
v -0.5 -1 -0.45
v 1.1 -1 -0.45
v 1.6 -1 -0.45
v -0.5 -0.9 0.75
v 1.1 -0.9 0.75
v -0.5 -0.9 -0.75
v 1.1 -0.9 -0.75
v -1.5 -0.8 0.35
v -1.4 -0.8 0.35
v -0.9 -0.8 0.35
v -0.8 -0.8 0.35
v -1.5 -0.8 0.25
v -1.4 -0.8 0.25
v -0.9 -0.8 0.25
v -0.8 -0.8 0.25
v -1.5 -0.8 -0.25
v -1.4 -0.8 -0.25
v -0.9 -0.8 -0.25
v -0.8 -0.8 -0.25
v -1.5 -0.8 -0.35
v -1.4 -0.8 -0.35
v -0.9 -0.8 -0.35
v -0.8 -0.8 -0.35
v -1.5 -0.4 0.25
v -1.4 -0.4 0.25
v -1.5 -0.4 -0.25
v -1.4 -0.4 -0.25
v -1.4 -0.3 0.35
v -1.3 -0.3 0.35
v -1.4 -0.3 0.25
v -1.3 -0.3 0.25
v -1.4 -0.3 -0.25
v -1.3 -0.3 -0.25
v -1.4 -0.3 -0.35
v -1.3 -0.3 -0.35
v -1.3 -0.2 0.35
v -0.9 -0.2 0.35
v -1.4 -0.2 0.25
v -1.3 -0.2 0.25
v -1.2 -0.2 0.25
v -0.9 -0.2 0.25
v -0.8 -0.2 0.25
v -1.3 -0.2 0.15
v -1.2 -0.2 0.15
v -0.9 -0.2 0.15
v -0.8 -0.2 0.15
v -1.3 -0.2 -0.15
v -1.2 -0.2 -0.15
v -0.9 -0.2 -0.15
v -0.8 -0.2 -0.15
v -1.4 -0.2 -0.25
v -1.3 -0.2 -0.25
v -1.2 -0.2 -0.25
v -0.9 -0.2 -0.25
v -0.8 -0.2 -0.25
v -1.3 -0.2 -0.35
v -0.9 -0.2 -0.35
v -1.2 -0.1 0.25
v -1.1 -0.1 0.25
v -1.3 -0.1 0.15
v -1.2 -0.1 0.15
v -1.1 -0.1 0.15
v -1.3 -0.1 -0.15
v -1.2 -0.1 -0.15
v -1.1 -0.1 -0.15
v -1.2 -0.1 -0.25
v -1.1 -0.1 -0.25
v -1.1 0 0.25
v -1 0 0.25
v -1.2 0 0.15
v -1.1 0 0.15
v -1 0 0.15
v -1.2 0 -0.15
v -1.1 0 -0.15
v -1 0 -0.15
v -1.1 0 -0.25
v -1 0 -0.25
v -1 0.1 0.25
v -0.9 0.1 0.25
v -1.1 0.1 0.15
v -1 0.1 0.15
v -0.9 0.1 0.15
v -1.1 0.1 -0.15
v -1 0.1 -0.15
v -0.9 0.1 -0.15
v -1 0.1 -0.25
v -0.9 0.1 -0.25
v -0.9 0.2 0.25
v -0.8 0.2 0.25
v -1 0.2 0.15
v -0.9 0.2 0.15
v -0.8 0.2 0.15
v -1 0.2 -0.15
v -0.9 0.2 -0.15
v -0.8 0.2 -0.15
v -0.9 0.2 -0.25
v -0.8 0.2 -0.25
v -0.8 0.3 0.25
v -0.7 0.3 0.25
v -0.9 0.3 0.15
v -0.8 0.3 0.15
v -0.7 0.3 0.15
v -0.9 0.3 -0.15
v -0.8 0.3 -0.15
v -0.7 0.3 -0.15
v -0.8 0.3 -0.25
v -0.7 0.3 -0.25
v -0.7 0.4 0.25
v -0.6 0.4 0.25
v -0.8 0.4 0.15
v -0.7 0.4 0.15
v -0.6 0.4 0.15
v 0.4 0.4 0.05
v 0.5 0.4 0.05
v 0.4 0.4 -0.05
v 0.5 0.4 -0.05
v -0.8 0.4 -0.15
v -0.7 0.4 -0.15
v -0.6 0.4 -0.15
v -0.7 0.4 -0.25
v -0.6 0.4 -0.25
v -0.6 0.5 0.25
v -0.5 0.5 0.25
v -0.7 0.5 0.15
v -0.6 0.5 0.15
v -0.5 0.5 0.15
v -0.7 0.5 -0.15
v -0.6 0.5 -0.15
v -0.5 0.5 -0.15
v -0.6 0.5 -0.25
v -0.5 0.5 -0.25
v -0.5 0.6 0.25
v -0.4 0.6 0.25
v -0.6 0.6 0.15
v -0.5 0.6 0.15
v -0.4 0.6 0.15
v -0.6 0.6 -0.15
v -0.5 0.6 -0.15
v -0.4 0.6 -0.15
v -0.5 0.6 -0.25
v -0.4 0.6 -0.25
v -0.4 0.7 0.25
v -0.3 0.7 0.25
v 0.3 0.7 0.25
v 0.6 0.7 0.25
v -0.5 0.7 0.15
v -0.4 0.7 0.15
v -0.3 0.7 0.15
v 0.2 0.7 0.15
v 0.3 0.7 0.15
v 0.4 0.7 0.15
v 0.5 0.7 0.15
v 0.6 0.7 0.15
v 0.7 0.7 0.15
v 0.3 0.7 0.05
v 0.4 0.7 0.05
v 0.5 0.7 0.05
v 0.6 0.7 0.05
v 0.3 0.7 -0.05
v 0.4 0.7 -0.05
v 0.5 0.7 -0.05
v 0.6 0.7 -0.05
v -0.5 0.7 -0.15
v -0.4 0.7 -0.15
v -0.3 0.7 -0.15
v 0.2 0.7 -0.15
v 0.3 0.7 -0.15
v 0.4 0.7 -0.15
v 0.5 0.7 -0.15
v 0.6 0.7 -0.15
v 0.7 0.7 -0.15
v -0.4 0.7 -0.25
v -0.3 0.7 -0.25
v 0.3 0.7 -0.25
v 0.6 0.7 -0.25
v -0.3 0.8 0.25
v -0.2 0.8 0.25
v -0.1 0.8 0.25
v 0 0.8 0.25
v -0.4 0.8 0.15
v -0.3 0.8 0.15
v -0.2 0.8 0.15
v -0.1 0.8 0.15
v 0 0.8 0.15
v -0.4 0.8 -0.15
v -0.3 0.8 -0.15
v -0.2 0.8 -0.15
v -0.1 0.8 -0.15
v 0 0.8 -0.15
v -0.3 0.8 -0.25
v -0.2 0.8 -0.25
v -0.1 0.8 -0.25
v 0 0.8 -0.25
v 0.2 0.9 0.45
v 0.7 0.9 0.45
v 0.1 0.9 0.35
v 0.2 0.9 0.35
v 0.3 0.9 0.35
v 0.6 0.9 0.35
v 0.7 0.9 0.35
v 0.8 0.9 0.35
v -0.2 0.9 0.25
v -0.1 0.9 0.25
v 0 0.9 0.25
v 0.1 0.9 0.25
v 0.2 0.9 0.25
v 0.3 0.9 0.25
v 0.6 0.9 0.25
v 0.7 0.9 0.25
v 0.8 0.9 0.25
v 0.9 0.9 0.25
v -0.3 0.9 0.15
v -0.2 0.9 0.15
v -0.1 0.9 0.15
v 0 0.9 0.15
v 0.1 0.9 0.15
v 0.2 0.9 0.15
v 0.7 0.9 0.15
v 0.8 0.9 0.15
v -0.3 0.9 -0.15
v -0.2 0.9 -0.15
v -0.1 0.9 -0.15
v 0 0.9 -0.15
v 0.1 0.9 -0.15
v 0.2 0.9 -0.15
v 0.7 0.9 -0.15
v 0.8 0.9 -0.15
v -0.2 0.9 -0.25
v -0.1 0.9 -0.25
v 0 0.9 -0.25
v 0.1 0.9 -0.25
v 0.2 0.9 -0.25
v 0.3 0.9 -0.25
v 0.6 0.9 -0.25
v 0.7 0.9 -0.25
v 0.8 0.9 -0.25
v 0.9 0.9 -0.25
v 0.1 0.9 -0.35
v 0.2 0.9 -0.35
v 0.3 0.9 -0.35
v 0.6 0.9 -0.35
v 0.7 0.9 -0.35
v 0.8 0.9 -0.35
v 0.2 0.9 -0.45
v 0.7 0.9 -0.45
v 0.3 1 0.35
v 0.6 1 0.35
v 0.2 1 0.25
v 0.3 1 0.25
v 0.4 1 0.25
v 0.5 1 0.25
v 0.6 1 0.25
v 0.7 1 0.25
v 0.1 1 0.15
v 0.2 1 0.15
v 0.3 1 0.15
v 0.4 1 0.15
v 0.5 1 0.15
v 0.6 1 0.15
v 0.7 1 0.15
v 0.8 1 0.15
v 0.2 1 0.05
v 0.3 1 0.05
v 0.6 1 0.05
v 0.7 1 0.05
v 0.2 1 -0.05
v 0.3 1 -0.05
v 0.6 1 -0.05
v 0.7 1 -0.05
v 0.1 1 -0.15
v 0.2 1 -0.15
v 0.3 1 -0.15
v 0.4 1 -0.15
v 0.5 1 -0.15
v 0.6 1 -0.15
v 0.7 1 -0.15
v 0.8 1 -0.15
v 0.2 1 -0.25
v 0.3 1 -0.25
v 0.4 1 -0.25
v 0.5 1 -0.25
v 0.6 1 -0.25
v 0.7 1 -0.25
v 0.3 1 -0.35
v 0.6 1 -0.35
v 0.4 1.1 0.25
v 0.5 1.1 0.25
v 0.3 1.1 0.15
v 0.4 1.1 0.15
v 0.5 1.1 0.15
v 0.6 1.1 0.15
v 0.2 1.1 0.05
v 0.3 1.1 0.05
v 0.4 1.1 0.05
v 0.5 1.1 0.05
v 0.6 1.1 0.05
v 0.7 1.1 0.05
v 0.2 1.1 -0.05
v 0.3 1.1 -0.05
v 0.4 1.1 -0.05
v 0.5 1.1 -0.05
v 0.6 1.1 -0.05
v 0.7 1.1 -0.05
v 0.3 1.1 -0.15
v 0.4 1.1 -0.15
v 0.5 1.1 -0.15
v 0.6 1.1 -0.15
v 0.4 1.1 -0.25
v 0.5 1.1 -0.25

# faces
f 3/3/1 2/3/1 1/3/1
f 4/3/1 2/3/1 3/3/1
f 7/10/1 6/10/1 5/10/1
f 8/10/1 6/10/1 7/10/1
f 9/10/1 6/10/1 8/10/1
f 10/10/1 6/10/1 9/10/1
f 11/10/1 9/10/1 8/10/1
f 12/10/1 9/10/1 11/10/1
f 17/10/1 14/10/1 13/10/1
f 18/10/1 16/10/1 15/10/1
f 19/10/1 17/10/1 13/10/1
f 19/10/1 18/10/1 17/10/1
f 20/10/1 18/10/1 19/10/1
f 21/10/1 16/10/1 18/10/1
f 21/10/1 18/10/1 20/10/1
f 22/10/1 16/10/1 21/10/1
f 23/10/1 21/10/1 20/10/1
f 24/10/1 21/10/1 23/10/1
f 29/10/1 26/10/1 25/10/1
f 30/10/1 26/10/1 29/10/1
f 33/10/1 28/10/1 27/10/1
f 34/10/1 28/10/1 33/10/1
f 35/10/1 32/10/1 31/10/1
f 36/10/1 32/10/1 35/10/1
f 41/10/1 38/10/1 37/10/1
f 42/10/1 38/10/1 41/10/1
f 43/10/1 40/10/1 39/10/1
f 44/10/1 40/10/1 43/10/1
f 45/10/1 43/10/1 42/10/1
f 46/10/1 43/10/1 45/10/1
f 51/10/1 48/10/1 47/10/1
f 52/10/1 48/10/1 51/10/1
f 53/10/1 50/10/1 49/10/1
f 54/10/1 50/10/1 53/10/1
f 55/10/1 53/10/1 52/10/1
f 56/10/1 53/10/1 55/10/1
f 61/10/1 58/10/1 57/10/1
f 62/10/1 58/10/1 61/10/1
f 63/10/1 60/10/1 59/10/1
f 64/10/1 60/10/1 63/10/1
f 65/10/1 63/10/1 62/10/1
f 66/10/1 63/10/1 65/10/1
f 71/10/1 68/10/1 67/10/1
f 72/10/1 68/10/1 71/10/1
f 73/10/1 70/10/1 69/10/1
f 74/10/1 70/10/1 73/10/1
f 75/10/1 73/10/1 72/10/1
f 76/10/1 73/10/1 75/10/1
f 81/10/1 78/10/1 77/10/1
f 82/10/1 78/10/1 81/10/1
f 83/10/1 80/10/1 79/10/1
f 84/10/1 80/10/1 83/10/1
f 85/10/1 83/10/1 82/10/1
f 86/10/1 83/10/1 85/10/1
f 91/10/1 88/10/1 87/10/1
f 92/10/1 88/10/1 91/10/1
f 93/10/1 90/10/1 89/10/1
f 94/10/1 90/10/1 93/10/1
f 95/10/1 93/10/1 92/10/1
f 96/10/1 93/10/1 95/10/1
f 101/10/1 98/10/1 97/10/1
f 102/10/1 98/10/1 101/10/1
f 103/10/1 100/10/1 99/10/1
f 104/10/1 100/10/1 103/10/1
f 105/10/1 103/10/1 102/10/1
f 106/10/1 103/10/1 105/10/1
f 111/9/1 108/9/1 107/9/1
f 111/9/1 110/9/1 109/9/1
f 111/9/1 109/9/1 108/9/1
f 112/9/1 110/9/1 111/9/1
f 117/10/1 114/10/1 113/10/1
f 118/10/1 114/10/1 117/10/1
f 119/10/1 116/10/1 115/10/1
f 120/10/1 116/10/1 119/10/1
f 121/10/1 119/10/1 118/10/1
f 122/10/1 119/10/1 121/10/1
f 127/10/1 124/10/1 123/10/1
f 128/10/1 124/10/1 127/10/1
f 129/10/1 126/10/1 125/10/1
f 130/10/1 126/10/1 129/10/1
f 131/10/1 129/10/1 128/10/1
f 132/10/1 129/10/1 131/10/1
f 137/10/1 134/10/1 133/10/1
f 138/10/1 134/10/1 137/10/1
f 139/10/1 136/10/1 135/10/1
f 140/10/1 136/10/1 139/10/1
f 141/10/1 139/10/1 138/10/1
f 142/10/1 139/10/1 141/10/1
f 147/10/1 144/10/1 143/10/1
f 148/10/1 144/10/1 147/10/1
f 149/10/1 146/10/1 145/10/1
f 150/10/1 146/10/1 149/10/1
f 155/11/1 152/11/1 151/11/1
f 156/11/1 152/11/1 155/11/1
f 157/11/1 154/11/1 153/11/1
f 158/11/1 154/11/1 157/11/1
f 163/5/1 160/5/1 159/5/1
f 164/5/1 160/5/1 163/5/1
f 167/10/1 162/10/1 161/10/1
f 168/10/1 162/10/1 167/10/1
f 169/10/1 166/10/1 165/10/1
f 170/10/1 166/10/1 169/10/1
f 171/11/1 168/11/1 167/11/1
f 172/11/1 168/11/1 171/11/1
f 175/11/1 170/11/1 169/11/1
f 176/11/1 170/11/1 175/11/1
f 177/12/1 174/12/1 173/12/1
f 178/12/1 174/12/1 177/12/1
f 182/4/1 180/4/1 179/4/1
f 183/4/1 180/4/1 182/4/1
f 187/5/1 182/5/1 181/5/1
f 188/5/1 182/5/1 187/5/1
f 189/5/1 184/5/1 183/5/1
f 190/5/1 184/5/1 189/5/1
f 193/10/1 186/10/1 185/10/1
f 194/10/1 186/10/1 193/10/1
f 195/10/1 192/10/1 191/10/1
f 196/10/1 192/10/1 195/10/1
f 197/11/1 194/11/1 193/11/1
f 198/11/1 194/11/1 197/11/1
f 203/11/1 196/11/1 195/11/1
f 204/11/1 196/11/1 203/11/1
f 205/12/1 200/12/1 199/12/1
f 206/12/1 200/12/1 205/12/1
f 209/12/1 202/12/1 201/12/1
f 210/12/1 202/12/1 209/12/1
f 211/13/1 208/13/1 207/13/1
f 212/13/1 208/13/1 211/13/1
f 216/2/1 214/2/1 213/2/1
f 217/2/1 214/2/1 216/2/1
f 220/4/1 216/4/1 215/4/1
f 221/4/1 216/4/1 220/4/1
f 222/4/1 218/4/1 217/4/1
f 223/4/1 218/4/1 222/4/1
f 225/5/1 220/5/1 219/5/1
f 226/5/1 220/5/1 225/5/1
f 227/5/1 224/5/1 223/5/1
f 228/5/1 224/5/1 227/5/1
f 233/12/1 230/12/1 229/12/1
f 234/12/1 230/12/1 233/12/1
f 239/12/1 232/12/1 231/12/1
f 240/12/1 232/12/1 239/12/1
f 241/13/1 236/13/1 235/13/1
f 242/13/1 236/13/1 241/13/1
f 243/13/1 238/13/1 237/13/1
f 244/13/1 238/13/1 243/13/1
f 247/1/1 246/1/1 245/1/1
f 248/1/1 246/1/1 247/1/1
f 253/13/1 250/13/1 249/13/1
f 254/13/1 250/13/1 253/13/1
f 255/13/1 252/13/1 251/13/1
f 256/13/1 252/13/1 255/13/1
f 259/2/1 258/2/1 257/2/1
f 260/2/1 258/2/1 259/2/1
f 261/4/1 260/4/1 259/4/1
f 262/4/1 260/4/1 261/4/1
f 263/6/1 262/6/1 261/6/1
f 264/6/1 262/6/1 263/6/1
f 269/12/1 266/12/1 265/12/1
f 270/12/1 266/12/1 269/12/1
f 273/12/1 268/12/1 267/12/1
f 274/12/1 268/12/1 273/12/1
f 275/13/1 271/13/1 270/13/1
f 276/13/1 271/13/1 275/13/1
f 277/13/1 273/13/1 272/13/1
f 278/13/1 273/13/1 277/13/1
f 283/7/1 280/7/1 279/7/1
f 284/7/1 280/7/1 283/7/1
f 285/7/1 282/7/1 281/7/1
f 286/7/1 282/7/1 285/7/1
f 287/8/1 284/8/1 283/8/1
f 288/8/1 284/8/1 287/8/1
f 291/8/1 286/8/1 285/8/1
f 292/8/1 286/8/1 291/8/1
f 293/12/1 289/12/1 288/12/1
f 294/12/1 289/12/1 293/12/1
f 295/12/1 291/12/1 290/12/1
f 296/12/1 291/12/1 295/12/1
f 297/13/1 295/13/1 294/13/1
f 298/13/1 295/13/1 297/13/1
f 301/7/1 300/7/1 299/7/1
f 302/7/1 300/7/1 301/7/1
f 303/8/1 302/8/1 301/8/1
f 304/8/1 302/8/1 303/8/1
f 305/8/1 302/8/1 304/8/1
f 306/8/1 302/8/1 305/8/1
f 307/12/1 305/12/1 304/12/1
f 308/12/1 305/12/1 307/12/1
f 309/10/2 310/10/2 313/10/2
f 313/10/2 310/10/2 314/10/2
f 311/10/2 312/10/2 317/10/2
f 317/10/2 312/10/2 318/10/2
f 314/10/2 315/10/2 319/10/2
f 319/10/2 315/10/2 320/10/2
f 316/10/2 317/10/2 321/10/2
f 321/10/2 317/10/2 322/10/2
f 323/10/2 324/10/2 325/10/2
f 325/10/2 324/10/2 326/10/2
f 326/10/2 324/10/2 327/10/2
f 327/10/2 324/10/2 328/10/2
f 326/10/2 327/10/2 329/10/2
f 329/10/2 327/10/2 330/10/2
f 330/10/2 327/10/2 331/10/2
f 331/10/2 327/10/2 332/10/2
f 330/10/2 331/10/2 334/10/2
f 334/10/2 331/10/2 335/10/2
f 333/10/2 334/10/2 337/10/2
f 337/10/2 334/10/2 338/10/2
f 335/10/2 336/10/2 339/10/2
f 339/10/2 336/10/2 340/10/2
f 341/10/2 342/10/2 344/10/2
f 344/10/2 342/10/2 345/10/2
f 343/10/2 344/10/2 347/10/2
f 347/10/2 344/10/2 348/10/2
f 345/10/2 346/10/2 349/10/2
f 349/10/2 346/10/2 350/10/2
f 351/10/2 352/10/2 354/10/2
f 354/10/2 352/10/2 355/10/2
f 353/10/2 354/10/2 357/10/2
f 357/10/2 354/10/2 358/10/2
f 355/10/2 356/10/2 359/10/2
f 359/10/2 356/10/2 360/10/2
f 361/10/2 362/10/2 364/10/2
f 364/10/2 362/10/2 365/10/2
f 363/10/2 364/10/2 367/10/2
f 367/10/2 364/10/2 368/10/2
f 365/10/2 366/10/2 369/10/2
f 369/10/2 366/10/2 370/10/2
f 371/10/2 372/10/2 374/10/2
f 374/10/2 372/10/2 375/10/2
f 373/10/2 374/10/2 377/10/2
f 377/10/2 374/10/2 378/10/2
f 375/10/2 376/10/2 379/10/2
f 379/10/2 376/10/2 380/10/2
f 381/10/2 382/10/2 384/10/2
f 384/10/2 382/10/2 385/10/2
f 383/10/2 384/10/2 387/10/2
f 387/10/2 384/10/2 388/10/2
f 385/10/2 386/10/2 389/10/2
f 389/10/2 386/10/2 390/10/2
f 391/10/2 392/10/2 394/10/2
f 394/10/2 392/10/2 395/10/2
f 393/10/2 394/10/2 397/10/2
f 397/10/2 394/10/2 398/10/2
f 395/10/2 396/10/2 399/10/2
f 399/10/2 396/10/2 400/10/2
f 401/10/2 402/10/2 404/10/2
f 404/10/2 402/10/2 405/10/2
f 403/10/2 404/10/2 407/10/2
f 407/10/2 404/10/2 408/10/2
f 405/10/2 406/10/2 409/10/2
f 409/10/2 406/10/2 410/10/2
f 411/10/2 412/10/2 415/10/2
f 415/10/2 412/10/2 416/10/2
f 413/10/2 414/10/2 417/10/2
f 417/10/2 414/10/2 418/10/2
f 419/10/2 420/10/2 421/10/2
f 421/10/2 420/10/2 422/10/2
f 423/7/2 424/7/2 425/7/2
f 425/7/2 424/7/2 426/7/2
f 425/8/2 426/8/2 427/8/2
f 427/8/2 426/8/2 428/8/2
f 428/8/2 426/8/2 429/8/2
f 429/8/2 426/8/2 430/8/2
f 428/12/2 429/12/2 431/12/2
f 431/12/2 429/12/2 432/12/2
f 433/7/2 434/7/2 437/7/2
f 437/7/2 434/7/2 438/7/2
f 435/7/2 436/7/2 439/7/2
f 439/7/2 436/7/2 440/7/2
f 437/8/2 438/8/2 441/8/2
f 441/8/2 438/8/2 442/8/2
f 439/8/2 440/8/2 445/8/2
f 445/8/2 440/8/2 446/8/2
f 442/12/2 443/12/2 447/12/2
f 447/12/2 443/12/2 448/12/2
f 444/12/2 445/12/2 449/12/2
f 449/12/2 445/12/2 450/12/2
f 448/13/2 449/13/2 451/13/2
f 451/13/2 449/13/2 452/13/2
f 453/2/2 454/2/2 455/2/2
f 455/2/2 454/2/2 456/2/2
f 455/4/2 456/4/2 457/4/2
f 457/4/2 456/4/2 458/4/2
f 457/6/2 458/6/2 459/6/2
f 459/6/2 458/6/2 460/6/2
f 461/12/2 462/12/2 465/12/2
f 465/12/2 462/12/2 466/12/2
f 463/12/2 464/12/2 469/12/2
f 469/12/2 464/12/2 470/12/2
f 466/13/2 467/13/2 471/13/2
f 471/13/2 467/13/2 472/13/2
f 468/13/2 469/13/2 473/13/2
f 473/13/2 469/13/2 474/13/2
f 475/1/2 476/1/2 477/1/2
f 477/1/2 476/1/2 478/1/2
f 479/13/2 480/13/2 483/13/2
f 483/13/2 480/13/2 484/13/2
f 481/13/2 482/13/2 485/13/2
f 485/13/2 482/13/2 486/13/2
f 487/2/2 488/2/2 490/2/2
f 490/2/2 488/2/2 491/2/2
f 489/4/2 490/4/2 494/4/2
f 494/4/2 490/4/2 495/4/2
f 491/4/2 492/4/2 496/4/2
f 496/4/2 492/4/2 497/4/2
f 493/5/2 494/5/2 499/5/2
f 499/5/2 494/5/2 500/5/2
f 497/5/2 498/5/2 501/5/2
f 501/5/2 498/5/2 502/5/2
f 503/12/2 504/12/2 507/12/2
f 507/12/2 504/12/2 508/12/2
f 505/12/2 506/12/2 513/12/2
f 513/12/2 506/12/2 514/12/2
f 509/13/2 510/13/2 515/13/2
f 515/13/2 510/13/2 516/13/2
f 511/13/2 512/13/2 517/13/2
f 517/13/2 512/13/2 518/13/2
f 519/4/2 520/4/2 522/4/2
f 522/4/2 520/4/2 523/4/2
f 521/5/2 522/5/2 527/5/2
f 527/5/2 522/5/2 528/5/2
f 523/5/2 524/5/2 529/5/2
f 529/5/2 524/5/2 530/5/2
f 525/10/2 526/10/2 533/10/2
f 533/10/2 526/10/2 534/10/2
f 531/10/2 532/10/2 535/10/2
f 535/10/2 532/10/2 536/10/2
f 533/11/2 534/11/2 537/11/2
f 537/11/2 534/11/2 538/11/2
f 535/11/2 536/11/2 543/11/2
f 543/11/2 536/11/2 544/11/2
f 539/12/2 540/12/2 545/12/2
f 545/12/2 540/12/2 546/12/2
f 541/12/2 542/12/2 549/12/2
f 549/12/2 542/12/2 550/12/2
f 547/13/2 548/13/2 551/13/2
f 551/13/2 548/13/2 552/13/2
f 553/5/2 554/5/2 557/5/2
f 557/5/2 554/5/2 558/5/2
f 555/10/2 556/10/2 561/10/2
f 561/10/2 556/10/2 562/10/2
f 559/10/2 560/10/2 563/10/2
f 563/10/2 560/10/2 564/10/2
f 561/11/2 562/11/2 565/11/2
f 565/11/2 562/11/2 566/11/2
f 563/11/2 564/11/2 569/11/2
f 569/11/2 564/11/2 570/11/2
f 567/12/2 568/12/2 571/12/2
f 571/12/2 568/12/2 572/12/2
f 573/10/2 574/10/2 575/10/2
f 575/10/2 574/10/2 576/10/2
f 575/11/2 576/11/2 577/11/2
f 577/11/2 576/11/2 578/11/2
f 579/9/2 580/9/2 583/9/2
f 581/9/2 582/9/2 583/9/2
f 580/9/2 581/9/2 583/9/2
f 583/9/2 582/9/2 584/9/2
f 585/3/2 586/3/2 587/3/2
f 587/3/2 586/3/2 588/3/2
f 591/9/3 590/9/3 589/9/3
f 592/9/3 590/9/3 591/9/3
f 595/3/3 594/3/3 593/3/3
f 599/10/3 597/10/3 596/10/3
f 600/11/3 598/11/3 597/11/3
f 600/10/3 597/10/3 599/10/3
f 601/11/3 598/11/3 600/11/3
f 602/3/3 595/3/3 593/3/3
f 603/3/3 602/3/3 593/3/3
f 604/3/3 602/3/3 603/3/3
f 607/10/3 606/10/3 605/10/3
f 609/10/3 608/10/3 607/10/3
f 611/10/3 607/10/3 605/10/3
f 611/10/3 610/10/3 609/10/3
f 611/10/3 609/10/3 607/10/3
f 612/10/3 610/10/3 611/10/3
f 613/10/3 611/10/3 605/10/3
f 614/10/3 611/10/3 613/10/3
f 618/10/3 616/10/3 615/10/3
f 619/11/3 617/11/3 616/11/3
f 619/10/3 616/10/3 618/10/3
f 620/11/3 617/11/3 619/11/3
f 625/5/3 622/5/3 621/5/3
f 626/5/3 622/5/3 625/5/3
f 627/12/3 624/12/3 623/12/3
f 628/12/3 624/12/3 627/12/3
f 632/10/3 630/10/3 629/10/3
f 633/11/3 631/11/3 630/11/3
f 633/10/3 630/10/3 632/10/3
f 634/11/3 631/11/3 633/11/3
f 637/10/3 636/10/3 635/10/3
f 638/10/3 636/10/3 637/10/3
f 641/10/3 640/10/3 639/10/3
f 642/10/3 640/10/3 641/10/3
f 645/10/3 644/10/3 643/10/3
f 647/10/3 646/10/3 645/10/3
f 650/10/3 645/10/3 643/10/3
f 650/10/3 648/10/3 647/10/3
f 650/10/3 647/10/3 645/10/3
f 651/10/3 648/10/3 650/10/3
f 652/10/3 648/10/3 651/10/3
f 654/10/3 650/10/3 649/10/3
f 655/10/3 650/10/3 654/10/3
f 656/10/3 653/10/3 652/10/3
f 656/10/3 652/10/3 651/10/3
f 657/10/3 653/10/3 656/10/3
f 658/10/3 653/10/3 657/10/3
f 660/10/3 659/10/3 658/10/3
f 660/10/3 658/10/3 657/10/3
f 661/10/3 659/10/3 660/10/3
f 662/10/3 659/10/3 661/10/3
f 664/10/3 663/10/3 662/10/3
f 664/10/3 662/10/3 661/10/3
f 665/10/3 663/10/3 664/10/3
f 666/10/3 663/10/3 665/10/3
f 668/10/3 667/10/3 666/10/3
f 668/10/3 666/10/3 665/10/3
f 669/10/3 667/10/3 668/10/3
f 670/10/3 667/10/3 669/10/3
f 672/10/3 671/10/3 670/10/3
f 672/10/3 670/10/3 669/10/3
f 673/10/3 671/10/3 672/10/3
f 674/10/3 671/10/3 673/10/3
f 676/10/3 675/10/3 674/10/3
f 676/10/3 674/10/3 673/10/3
f 677/10/3 675/10/3 676/10/3
f 678/10/3 675/10/3 677/10/3
f 680/10/3 679/10/3 678/10/3
f 680/10/3 678/10/3 677/10/3
f 681/10/3 679/10/3 680/10/3
f 682/10/3 679/10/3 681/10/3
f 684/10/3 683/10/3 682/10/3
f 684/10/3 682/10/3 681/10/3
f 685/10/3 683/10/3 684/10/3
f 686/10/3 683/10/3 685/10/3
f 687/10/3 683/10/3 686/10/3
f 688/10/3 686/10/3 685/10/3
f 690/10/3 688/10/3 685/10/3
f 691/11/3 689/11/3 688/11/3
f 691/10/3 688/10/3 690/10/3
f 692/11/3 689/11/3 691/11/3
f 698/5/3 694/5/3 693/5/3
f 699/5/3 694/5/3 698/5/3
f 700/12/3 696/12/3 695/12/3
f 701/12/3 696/12/3 700/12/3
f 704/13/3 703/13/3 702/13/3
f 705/13/3 703/13/3 704/13/3
f 706/4/3 698/4/3 697/4/3
f 707/4/3 698/4/3 706/4/3
f 711/5/3 708/5/3 707/5/3
f 712/5/3 708/5/3 711/5/3
f 713/12/3 710/12/3 709/12/3
f 714/12/3 710/12/3 713/12/3
f 718/10/3 716/10/3 715/10/3
f 719/11/3 717/11/3 716/11/3
f 719/10/3 716/10/3 718/10/3
f 720/11/3 717/11/3 719/11/3
f 723/10/3 722/10/3 721/10/3
f 724/10/3 722/10/3 723/10/3
f 726/10/3 725/10/3 724/10/3
f 727/10/3 725/10/3 726/10/3
f 729/10/3 728/10/3 727/10/3
f 730/10/3 728/10/3 729/10/3
f 734/10/3 731/10/3 730/10/3
f 735/10/3 731/10/3 734/10/3
f 737/10/3 733/10/3 732/10/3
f 738/10/3 733/10/3 737/10/3
f 740/10/3 736/10/3 735/10/3
f 741/10/3 736/10/3 740/10/3
f 743/10/3 739/10/3 738/10/3
f 744/10/3 739/10/3 743/10/3
f 746/10/3 742/10/3 741/10/3
f 747/10/3 742/10/3 746/10/3
f 749/10/3 745/10/3 744/10/3
f 750/10/3 745/10/3 749/10/3
f 752/10/3 748/10/3 747/10/3
f 753/10/3 748/10/3 752/10/3
f 755/10/3 751/10/3 750/10/3
f 756/10/3 751/10/3 755/10/3
f 758/10/3 754/10/3 753/10/3
f 759/10/3 754/10/3 758/10/3
f 761/10/3 757/10/3 756/10/3
f 762/10/3 757/10/3 761/10/3
f 764/10/3 760/10/3 759/10/3
f 765/10/3 760/10/3 764/10/3
f 767/10/3 763/10/3 762/10/3
f 768/10/3 763/10/3 767/10/3
f 770/10/3 766/10/3 765/10/3
f 771/10/3 766/10/3 770/10/3
f 773/10/3 769/10/3 768/10/3
f 774/10/3 769/10/3 773/10/3
f 776/10/3 772/10/3 771/10/3
f 777/10/3 772/10/3 776/10/3
f 778/10/3 775/10/3 774/10/3
f 779/10/3 775/10/3 778/10/3
f 783/10/3 780/10/3 779/10/3
f 784/10/3 780/10/3 783/10/3
f 785/10/3 782/10/3 781/10/3
f 786/10/3 782/10/3 785/10/3
f 792/5/3 788/5/3 787/5/3
f 793/5/3 788/5/3 792/5/3
f 794/12/3 790/12/3 789/12/3
f 795/12/3 790/12/3 794/12/3
f 797/4/3 792/4/3 791/4/3
f 798/4/3 792/4/3 797/4/3
f 801/13/3 800/13/3 799/13/3
f 802/13/3 800/13/3 801/13/3
f 805/2/3 797/2/3 796/2/3
f 806/2/3 797/2/3 805/2/3
f 808/13/3 804/13/3 803/13/3
f 809/13/3 804/13/3 808/13/3
f 810/4/3 807/4/3 806/4/3
f 811/4/3 807/4/3 810/4/3
f 815/5/3 812/5/3 811/5/3
f 816/5/3 812/5/3 815/5/3
f 817/12/3 814/12/3 813/12/3
f 818/12/3 814/12/3 817/12/3
f 821/13/3 820/13/3 819/13/3
f 822/13/3 820/13/3 821/13/3
f 825/1/3 824/1/3 823/1/3
f 826/1/3 824/1/3 825/1/3
f 829/13/3 828/13/3 827/13/3
f 830/13/3 828/13/3 829/13/3
f 833/12/3 832/12/3 831/12/3
f 834/12/3 832/12/3 833/12/3
f 840/13/3 835/13/3 834/13/3
f 841/13/3 835/13/3 840/13/3
f 842/2/3 837/2/3 836/2/3
f 843/4/3 838/4/3 837/4/3
f 843/2/3 837/2/3 842/2/3
f 844/6/3 839/6/3 838/6/3
f 844/4/3 838/4/3 843/4/3
f 845/6/3 839/6/3 844/6/3
f 849/13/3 847/13/3 846/13/3
f 850/13/3 847/13/3 849/13/3
f 851/12/3 849/12/3 848/12/3
f 852/12/3 849/12/3 851/12/3
f 856/7/3 854/7/3 853/7/3
f 857/8/3 855/8/3 854/8/3
f 857/7/3 854/7/3 856/7/3
f 858/8/3 855/8/3 857/8/3
f 860/12/3 859/12/3 858/12/3
f 861/12/3 859/12/3 860/12/3
f 864/13/3 862/13/3 861/13/3
f 865/13/3 862/13/3 864/13/3
f 868/12/3 864/12/3 863/12/3
f 869/12/3 864/12/3 868/12/3
f 870/7/3 867/7/3 866/7/3
f 871/8/3 868/8/3 867/8/3
f 871/7/3 867/7/3 870/7/3
f 872/8/3 868/8/3 871/8/3
f 876/8/3 875/8/3 874/8/3
f 878/8/3 876/8/3 874/8/3
f 878/12/3 877/12/3 876/12/3
f 879/12/3 877/12/3 878/12/3
f 880/7/3 874/7/3 873/7/3
f 881/8/3 878/8/3 874/8/3
f 881/7/3 874/7/3 880/7/3
f 882/8/3 878/8/3 881/8/3
f 884/8/4 885/8/4 886/8/4
f 884/8/4 886/8/4 888/8/4
f 886/12/4 887/12/4 888/12/4
f 888/12/4 887/12/4 889/12/4
f 883/7/4 884/7/4 890/7/4
f 884/8/4 888/8/4 891/8/4
f 890/7/4 884/7/4 891/7/4
f 891/8/4 888/8/4 892/8/4
f 893/7/4 894/7/4 896/7/4
f 894/8/4 895/8/4 897/8/4
f 896/7/4 894/7/4 897/7/4
f 897/8/4 895/8/4 898/8/4
f 898/12/4 899/12/4 900/12/4
f 900/12/4 899/12/4 901/12/4
f 901/13/4 902/13/4 904/13/4
f 904/13/4 902/13/4 905/13/4
f 903/12/4 904/12/4 908/12/4
f 908/12/4 904/12/4 909/12/4
f 906/7/4 907/7/4 910/7/4
f 907/8/4 908/8/4 911/8/4
f 910/7/4 907/7/4 911/7/4
f 911/8/4 908/8/4 912/8/4
f 913/12/4 914/12/4 915/12/4
f 915/12/4 914/12/4 916/12/4
f 916/13/4 917/13/4 922/13/4
f 922/13/4 917/13/4 923/13/4
f 918/2/4 919/2/4 924/2/4
f 919/4/4 920/4/4 925/4/4
f 924/2/4 919/2/4 925/2/4
f 920/6/4 921/6/4 926/6/4
f 925/4/4 920/4/4 926/4/4
f 926/6/4 921/6/4 927/6/4
f 928/13/4 929/13/4 931/13/4
f 931/13/4 929/13/4 932/13/4
f 930/12/4 931/12/4 933/12/4
f 933/12/4 931/12/4 934/12/4
f 935/13/4 936/13/4 937/13/4
f 937/13/4 936/13/4 938/13/4
f 939/1/4 940/1/4 941/1/4
f 941/1/4 940/1/4 942/1/4
f 943/13/4 944/13/4 945/13/4
f 945/13/4 944/13/4 946/13/4
f 947/10/4 948/10/4 949/10/4
f 949/10/4 948/10/4 950/10/4
f 950/10/4 951/10/4 952/10/4
f 952/10/4 951/10/4 953/10/4
f 953/10/4 954/10/4 955/10/4
f 955/10/4 954/10/4 956/10/4
f 956/10/4 957/10/4 960/10/4
f 960/10/4 957/10/4 961/10/4
f 958/10/4 959/10/4 963/10/4
f 963/10/4 959/10/4 964/10/4
f 961/10/4 962/10/4 966/10/4
f 966/10/4 962/10/4 967/10/4
f 964/10/4 965/10/4 969/10/4
f 969/10/4 965/10/4 970/10/4
f 967/10/4 968/10/4 972/10/4
f 972/10/4 968/10/4 973/10/4
f 970/10/4 971/10/4 975/10/4
f 975/10/4 971/10/4 976/10/4
f 973/10/4 974/10/4 978/10/4
f 978/10/4 974/10/4 979/10/4
f 976/10/4 977/10/4 981/10/4
f 981/10/4 977/10/4 982/10/4
f 979/10/4 980/10/4 984/10/4
f 984/10/4 980/10/4 985/10/4
f 982/10/4 983/10/4 987/10/4
f 987/10/4 983/10/4 988/10/4
f 985/10/4 986/10/4 990/10/4
f 990/10/4 986/10/4 991/10/4
f 988/10/4 989/10/4 993/10/4
f 993/10/4 989/10/4 994/10/4
f 991/10/4 992/10/4 996/10/4
f 996/10/4 992/10/4 997/10/4
f 994/10/4 995/10/4 999/10/4
f 999/10/4 995/10/4 1000/10/4
f 997/10/4 998/10/4 1002/10/4
f 1002/10/4 998/10/4 1003/10/4
f 1000/10/4 1001/10/4 1004/10/4
f 1004/10/4 1001/10/4 1005/10/4
f 1005/10/4 1006/10/4 1009/10/4
f 1009/10/4 1006/10/4 1010/10/4
f 1007/10/4 1008/10/4 1011/10/4
f 1011/10/4 1008/10/4 1012/10/4
f 1013/5/4 1014/5/4 1018/5/4
f 1018/5/4 1014/5/4 1019/5/4
f 1015/12/4 1016/12/4 1020/12/4
f 1020/12/4 1016/12/4 1021/12/4
f 1017/4/4 1018/4/4 1023/4/4
f 1023/4/4 1018/4/4 1024/4/4
f 1025/13/4 1026/13/4 1027/13/4
f 1027/13/4 1026/13/4 1028/13/4
f 1022/2/4 1023/2/4 1031/2/4
f 1031/2/4 1023/2/4 1032/2/4
f 1029/13/4 1030/13/4 1034/13/4
f 1034/13/4 1030/13/4 1035/13/4
f 1032/4/4 1033/4/4 1036/4/4
f 1036/4/4 1033/4/4 1037/4/4
f 1037/5/4 1038/5/4 1041/5/4
f 1041/5/4 1038/5/4 1042/5/4
f 1039/12/4 1040/12/4 1043/12/4
f 1043/12/4 1040/12/4 1044/12/4
f 1045/10/4 1046/10/4 1047/10/4
f 1047/10/4 1046/10/4 1048/10/4
f 1049/10/4 1050/10/4 1051/10/4
f 1051/10/4 1050/10/4 1052/10/4
f 1053/10/4 1054/10/4 1055/10/4
f 1055/10/4 1056/10/4 1057/10/4
f 1053/10/4 1055/10/4 1060/10/4
f 1057/10/4 1058/10/4 1060/10/4
f 1055/10/4 1057/10/4 1060/10/4
f 1060/10/4 1058/10/4 1061/10/4
f 1061/10/4 1058/10/4 1062/10/4
f 1059/10/4 1060/10/4 1064/10/4
f 1064/10/4 1060/10/4 1065/10/4
f 1062/10/4 1063/10/4 1066/10/4
f 1061/10/4 1062/10/4 1066/10/4
f 1066/10/4 1063/10/4 1067/10/4
f 1067/10/4 1063/10/4 1068/10/4
f 1068/10/4 1069/10/4 1070/10/4
f 1067/10/4 1068/10/4 1070/10/4
f 1070/10/4 1069/10/4 1071/10/4
f 1071/10/4 1069/10/4 1072/10/4
f 1072/10/4 1073/10/4 1074/10/4
f 1071/10/4 1072/10/4 1074/10/4
f 1074/10/4 1073/10/4 1075/10/4
f 1075/10/4 1073/10/4 1076/10/4
f 1076/10/4 1077/10/4 1078/10/4
f 1075/10/4 1076/10/4 1078/10/4
f 1078/10/4 1077/10/4 1079/10/4
f 1079/10/4 1077/10/4 1080/10/4
f 1080/10/4 1081/10/4 1082/10/4
f 1079/10/4 1080/10/4 1082/10/4
f 1082/10/4 1081/10/4 1083/10/4
f 1083/10/4 1081/10/4 1084/10/4
f 1084/10/4 1085/10/4 1086/10/4
f 1083/10/4 1084/10/4 1086/10/4
f 1086/10/4 1085/10/4 1087/10/4
f 1087/10/4 1085/10/4 1088/10/4
f 1088/10/4 1089/10/4 1090/10/4
f 1087/10/4 1088/10/4 1090/10/4
f 1090/10/4 1089/10/4 1091/10/4
f 1091/10/4 1089/10/4 1092/10/4
f 1092/10/4 1093/10/4 1094/10/4
f 1091/10/4 1092/10/4 1094/10/4
f 1094/10/4 1093/10/4 1095/10/4
f 1095/10/4 1093/10/4 1096/10/4
f 1096/10/4 1093/10/4 1097/10/4
f 1095/10/4 1096/10/4 1098/10/4
f 1095/10/4 1098/10/4 1100/10/4
f 1098/11/4 1099/11/4 1101/11/4
f 1100/10/4 1098/10/4 1101/10/4
f 1101/11/4 1099/11/4 1102/11/4
f 1103/5/4 1104/5/4 1108/5/4
f 1108/5/4 1104/5/4 1109/5/4
f 1105/12/4 1106/12/4 1110/12/4
f 1110/12/4 1106/12/4 1111/12/4
f 1112/13/4 1113/13/4 1114/13/4
f 1114/13/4 1113/13/4 1115/13/4
f 1107/4/4 1108/4/4 1116/4/4
f 1116/4/4 1108/4/4 1117/4/4
f 1117/5/4 1118/5/4 1121/5/4
f 1121/5/4 1118/5/4 1122/5/4
f 1119/12/4 1120/12/4 1123/12/4
f 1123/12/4 1120/12/4 1124/12/4
f 1125/10/4 1126/10/4 1128/10/4
f 1126/11/4 1127/11/4 1129/11/4
f 1128/10/4 1126/10/4 1129/10/4
f 1129/11/4 1127/11/4 1130/11/4
f 1131/10/4 1132/10/4 1133/10/4
f 1133/10/4 1134/10/4 1135/10/4
f 1131/10/4 1133/10/4 1137/10/4
f 1135/10/4 1136/10/4 1137/10/4
f 1133/10/4 1135/10/4 1137/10/4
f 1137/10/4 1136/10/4 1138/10/4
f 1131/10/4 1137/10/4 1139/10/4
f 1139/10/4 1137/10/4 1140/10/4
f 1141/10/4 1142/10/4 1144/10/4
f 1142/11/4 1143/11/4 1145/11/4
f 1144/10/4 1142/10/4 1145/10/4
f 1145/11/4 1143/11/4 1146/11/4
f 1147/5/4 1148/5/4 1151/5/4
f 1151/5/4 1148/5/4 1152/5/4
f 1149/12/4 1150/12/4 1153/12/4
f 1153/12/4 1150/12/4 1154/12/4
f 1155/10/4 1156/10/4 1158/10/4
f 1156/11/4 1157/11/4 1159/11/4
f 1158/10/4 1156/10/4 1159/10/4
f 1159/11/4 1157/11/4 1160/11/4
f 1161/3/4 1162/3/4 1163/3/4
f 1164/10/4 1165/10/4 1167/10/4
f 1165/11/4 1166/11/4 1168/11/4
f 1167/10/4 1165/10/4 1168/10/4
f 1168/11/4 1166/11/4 1169/11/4
f 1161/3/4 1163/3/4 1170/3/4
f 1161/3/4 1170/3/4 1171/3/4
f 1171/3/4 1170/3/4 1172/3/4
f 1173/9/4 1174/9/4 1175/9/4
f 1175/9/4 1174/9/4 1176/9/4
f 1179/3/5 1178/3/5 1177/3/5
f 1180/3/5 1178/3/5 1179/3/5
f 1183/9/5 1182/9/5 1181/9/5
f 1184/9/5 1182/9/5 1183/9/5
f 1187/9/5 1186/9/5 1185/9/5
f 1188/9/5 1186/9/5 1187/9/5
f 1191/10/5 1190/10/5 1189/10/5
f 1192/10/5 1190/10/5 1191/10/5
f 1195/10/5 1193/10/5 1192/10/5
f 1196/10/5 1193/10/5 1195/10/5
f 1197/10/5 1195/10/5 1194/10/5
f 1198/10/5 1195/10/5 1197/10/5
f 1201/10/5 1200/10/5 1199/10/5
f 1202/10/5 1200/10/5 1201/10/5
f 1205/10/5 1203/10/5 1202/10/5
f 1206/10/5 1203/10/5 1205/10/5
f 1207/10/5 1205/10/5 1204/10/5
f 1208/10/5 1205/10/5 1207/10/5
f 1211/10/5 1210/10/5 1209/10/5
f 1212/10/5 1210/10/5 1211/10/5
f 1215/10/5 1213/10/5 1212/10/5
f 1216/10/5 1213/10/5 1215/10/5
f 1217/10/5 1215/10/5 1214/10/5
f 1218/10/5 1215/10/5 1217/10/5
f 1221/10/5 1220/10/5 1219/10/5
f 1222/10/5 1220/10/5 1221/10/5
f 1225/10/5 1223/10/5 1222/10/5
f 1226/10/5 1223/10/5 1225/10/5
f 1227/10/5 1225/10/5 1224/10/5
f 1228/10/5 1225/10/5 1227/10/5
f 1231/10/5 1230/10/5 1229/10/5
f 1232/10/5 1230/10/5 1231/10/5
f 1236/1/5 1235/1/5 1234/1/5
f 1237/1/5 1235/1/5 1236/1/5
f 1239/10/5 1233/10/5 1232/10/5
f 1240/10/5 1233/10/5 1239/10/5
f 1241/10/5 1239/10/5 1238/10/5
f 1242/10/5 1239/10/5 1241/10/5
f 1245/10/5 1244/10/5 1243/10/5
f 1246/10/5 1244/10/5 1245/10/5
f 1250/2/5 1249/2/5 1248/2/5
f 1251/2/5 1249/2/5 1250/2/5
f 1252/2/5 1250/2/5 1248/2/5
f 1253/2/5 1249/2/5 1251/2/5
f 1255/10/5 1247/10/5 1246/10/5
f 1256/10/5 1247/10/5 1255/10/5
f 1257/2/5 1253/2/5 1252/2/5
f 1257/2/5 1252/2/5 1248/2/5
f 1258/2/5 1249/2/5 1253/2/5
f 1258/2/5 1253/2/5 1257/2/5
f 1259/10/5 1255/10/5 1254/10/5
f 1260/10/5 1255/10/5 1259/10/5
f 1265/10/5 1262/10/5 1261/10/5
f 1266/10/5 1262/10/5 1265/10/5
f 1269/4/5 1264/4/5 1263/4/5
f 1270/4/5 1264/4/5 1269/4/5
f 1273/10/5 1267/10/5 1266/10/5
f 1274/10/5 1267/10/5 1273/10/5
f 1275/4/5 1269/4/5 1268/4/5
f 1276/4/5 1269/4/5 1275/4/5
f 1277/4/5 1271/4/5 1270/4/5
f 1278/4/5 1271/4/5 1277/4/5
f 1279/10/5 1273/10/5 1272/10/5
f 1280/10/5 1273/10/5 1279/10/5
f 1281/4/5 1277/4/5 1276/4/5
f 1282/4/5 1277/4/5 1281/4/5
f 1288/5/5 1284/5/5 1283/5/5
f 1289/5/5 1284/5/5 1288/5/5
f 1291/10/5 1286/10/5 1285/10/5
f 1292/10/5 1286/10/5 1291/10/5
f 1295/5/5 1288/5/5 1287/5/5
f 1296/5/5 1288/5/5 1295/5/5
f 1297/5/5 1290/5/5 1289/5/5
f 1298/5/5 1290/5/5 1297/5/5
f 1301/10/5 1293/10/5 1292/10/5
f 1302/10/5 1293/10/5 1301/10/5
f 1303/5/5 1295/5/5 1294/5/5
f 1304/5/5 1295/5/5 1303/5/5
f 1307/5/5 1299/5/5 1298/5/5
f 1308/5/5 1299/5/5 1307/5/5
f 1309/10/5 1301/10/5 1300/10/5
f 1310/10/5 1301/10/5 1309/10/5
f 1311/5/5 1305/5/5 1304/5/5
f 1312/5/5 1305/5/5 1311/5/5
f 1313/5/5 1307/5/5 1306/5/5
f 1314/5/5 1307/5/5 1313/5/5
f 1315/5/5 1313/5/5 1312/5/5
f 1316/5/5 1313/5/5 1315/5/5
f 1320/10/5 1318/10/5 1317/10/5
f 1321/10/5 1318/10/5 1320/10/5
f 1322/10/5 1318/10/5 1321/10/5
f 1323/10/5 1318/10/5 1322/10/5
f 1326/10/5 1320/10/5 1319/10/5
f 1326/10/5 1321/10/5 1320/10/5
f 1327/10/5 1321/10/5 1326/10/5
f 1328/10/5 1321/10/5 1327/10/5
f 1329/10/5 1323/10/5 1322/10/5
f 1329/10/5 1324/10/5 1323/10/5
f 1330/10/5 1324/10/5 1329/10/5
f 1331/10/5 1324/10/5 1330/10/5
f 1333/10/5 1327/10/5 1326/10/5
f 1333/10/5 1326/10/5 1325/10/5
f 1334/10/5 1327/10/5 1333/10/5
f 1335/10/5 1327/10/5 1334/10/5
f 1336/10/5 1327/10/5 1335/10/5
f 1337/10/5 1332/10/5 1331/10/5
f 1337/10/5 1331/10/5 1330/10/5
f 1338/10/5 1332/10/5 1337/10/5
f 1340/10/5 1335/10/5 1334/10/5
f 1341/10/5 1335/10/5 1340/10/5
f 1344/10/5 1332/10/5 1338/10/5
f 1345/10/5 1342/10/5 1341/10/5
f 1345/10/5 1340/10/5 1339/10/5
f 1345/10/5 1341/10/5 1340/10/5
f 1346/10/5 1342/10/5 1345/10/5
f 1347/10/5 1342/10/5 1346/10/5
f 1350/10/5 1344/10/5 1343/10/5
f 1351/10/5 1332/10/5 1344/10/5
f 1351/10/5 1344/10/5 1350/10/5
f 1352/10/5 1332/10/5 1351/10/5
f 1353/10/5 1348/10/5 1347/10/5
f 1353/10/5 1347/10/5 1346/10/5
f 1354/10/5 1348/10/5 1353/10/5
f 1355/10/5 1348/10/5 1354/10/5
f 1356/10/5 1350/10/5 1349/10/5
f 1356/10/5 1351/10/5 1350/10/5
f 1357/10/5 1351/10/5 1356/10/5
f 1358/10/5 1351/10/5 1357/10/5
f 1359/10/5 1355/10/5 1354/10/5
f 1359/10/5 1357/10/5 1356/10/5
f 1359/10/5 1356/10/5 1355/10/5
f 1360/10/5 1357/10/5 1359/10/5
f 1366/12/5 1362/12/5 1361/12/5
f 1367/12/5 1362/12/5 1366/12/5
f 1368/12/5 1364/12/5 1363/12/5
f 1369/12/5 1364/12/5 1368/12/5
f 1371/12/5 1366/12/5 1365/12/5
f 1372/12/5 1366/12/5 1371/12/5
f 1373/12/5 1370/12/5 1369/12/5
f 1374/12/5 1370/12/5 1373/12/5
f 1379/12/5 1376/12/5 1375/12/5
f 1380/12/5 1376/12/5 1379/12/5
f 1383/12/5 1378/12/5 1377/12/5
f 1384/12/5 1378/12/5 1383/12/5
f 1385/12/5 1381/12/5 1380/12/5
f 1386/12/5 1381/12/5 1385/12/5
f 1387/12/5 1383/12/5 1382/12/5
f 1388/12/5 1383/12/5 1387/12/5
f 1392/13/5 1390/13/5 1389/13/5
f 1393/13/5 1390/13/5 1392/13/5
f 1396/13/5 1392/13/5 1391/13/5
f 1397/13/5 1392/13/5 1396/13/5
f 1398/13/5 1394/13/5 1393/13/5
f 1399/13/5 1394/13/5 1398/13/5
f 1401/13/5 1396/13/5 1395/13/5
f 1402/13/5 1396/13/5 1401/13/5
f 1405/13/5 1400/13/5 1399/13/5
f 1406/13/5 1400/13/5 1405/13/5
f 1407/13/5 1403/13/5 1402/13/5
f 1408/13/5 1403/13/5 1407/13/5
f 1409/13/5 1405/13/5 1404/13/5
f 1410/13/5 1405/13/5 1409/13/5
f 1411/13/5 1409/13/5 1408/13/5
f 1412/13/5 1409/13/5 1411/13/5
f 1413/3/6 1414/3/6 1417/3/6
f 1417/3/6 1414/3/6 1418/3/6
f 1413/3/6 1417/3/6 1419/3/6
f 1418/3/6 1414/3/6 1420/3/6
f 1413/3/6 1419/3/6 1421/3/6
f 1419/3/6 1420/3/6 1421/3/6
f 1420/3/6 1414/3/6 1422/3/6
f 1421/3/6 1420/3/6 1422/3/6
f 1415/3/6 1416/3/6 1423/3/6
f 1423/3/6 1416/3/6 1424/3/6
f 1425/9/6 1426/9/6 1427/9/6
f 1427/9/6 1426/9/6 1428/9/6
f 1429/10/6 1430/10/6 1433/10/6
f 1433/10/6 1430/10/6 1434/10/6
f 1431/10/6 1432/10/6 1435/10/6
f 1435/10/6 1432/10/6 1436/10/6
f 1437/10/6 1438/10/6 1441/10/6
f 1441/10/6 1438/10/6 1442/10/6
f 1439/10/6 1440/10/6 1443/10/6
f 1443/10/6 1440/10/6 1444/10/6
f 1445/10/6 1446/10/6 1447/10/6
f 1447/10/6 1446/10/6 1448/10/6
f 1449/10/6 1450/10/6 1451/10/6
f 1451/10/6 1450/10/6 1452/10/6
f 1453/10/6 1454/10/6 1455/10/6
f 1455/10/6 1454/10/6 1456/10/6
f 1457/10/6 1458/10/6 1460/10/6
f 1460/10/6 1458/10/6 1461/10/6
f 1461/10/6 1458/10/6 1462/10/6
f 1459/10/6 1460/10/6 1464/10/6
f 1460/10/6 1461/10/6 1464/10/6
f 1464/10/6 1461/10/6 1465/10/6
f 1462/10/6 1463/10/6 1466/10/6
f 1466/10/6 1463/10/6 1467/10/6
f 1459/10/6 1464/10/6 1468/10/6
f 1459/10/6 1468/10/6 1472/10/6
f 1468/10/6 1469/10/6 1472/10/6
f 1472/10/6 1469/10/6 1473/10/6
f 1473/10/6 1469/10/6 1474/10/6
f 1470/10/6 1471/10/6 1475/10/6
f 1475/10/6 1471/10/6 1476/10/6
f 1473/10/6 1474/10/6 1477/10/6
f 1474/10/6 1475/10/6 1477/10/6
f 1477/10/6 1475/10/6 1478/10/6
f 1479/10/6 1480/10/6 1482/10/6
f 1482/10/6 1480/10/6 1483/10/6
f 1481/10/6 1482/10/6 1484/10/6
f 1484/10/6 1482/10/6 1485/10/6
f 1485/10/6 1486/10/6 1487/10/6
f 1487/10/6 1486/10/6 1488/10/6
f 1489/10/6 1490/10/6 1492/10/6
f 1492/10/6 1490/10/6 1493/10/6
f 1491/10/6 1492/10/6 1494/10/6
f 1494/10/6 1492/10/6 1495/10/6
f 1495/10/6 1496/10/6 1497/10/6
f 1497/10/6 1496/10/6 1498/10/6
f 1499/10/6 1500/10/6 1502/10/6
f 1502/10/6 1500/10/6 1503/10/6
f 1501/10/6 1502/10/6 1504/10/6
f 1504/10/6 1502/10/6 1505/10/6
f 1505/10/6 1506/10/6 1507/10/6
f 1507/10/6 1506/10/6 1508/10/6
f 1509/10/6 1510/10/6 1512/10/6
f 1512/10/6 1510/10/6 1513/10/6
f 1511/10/6 1512/10/6 1514/10/6
f 1514/10/6 1512/10/6 1515/10/6
f 1515/10/6 1516/10/6 1517/10/6
f 1517/10/6 1516/10/6 1518/10/6
f 1519/10/6 1520/10/6 1522/10/6
f 1522/10/6 1520/10/6 1523/10/6
f 1521/10/6 1522/10/6 1524/10/6
f 1524/10/6 1522/10/6 1525/10/6
f 1525/10/6 1526/10/6 1527/10/6
f 1527/10/6 1526/10/6 1528/10/6
f 1529/10/6 1530/10/6 1532/10/6
f 1532/10/6 1530/10/6 1533/10/6
f 1534/1/6 1535/1/6 1536/1/6
f 1536/1/6 1535/1/6 1537/1/6
f 1531/10/6 1532/10/6 1538/10/6
f 1538/10/6 1532/10/6 1539/10/6
f 1539/10/6 1540/10/6 1541/10/6
f 1541/10/6 1540/10/6 1542/10/6
f 1543/10/6 1544/10/6 1546/10/6
f 1546/10/6 1544/10/6 1547/10/6
f 1545/10/6 1546/10/6 1548/10/6
f 1548/10/6 1546/10/6 1549/10/6
f 1549/10/6 1550/10/6 1551/10/6
f 1551/10/6 1550/10/6 1552/10/6
f 1553/10/6 1554/10/6 1556/10/6
f 1556/10/6 1554/10/6 1557/10/6
f 1555/10/6 1556/10/6 1558/10/6
f 1558/10/6 1556/10/6 1559/10/6
f 1559/10/6 1560/10/6 1561/10/6
f 1561/10/6 1560/10/6 1562/10/6
f 1563/10/6 1564/10/6 1568/10/6
f 1568/10/6 1564/10/6 1569/10/6
f 1565/5/6 1566/5/6 1571/5/6
f 1571/5/6 1566/5/6 1572/5/6
f 1572/5/6 1566/5/6 1573/5/6
f 1573/5/6 1566/5/6 1574/5/6
f 1570/5/6 1571/5/6 1576/5/6
f 1571/5/6 1572/5/6 1576/5/6
f 1572/6/6 1573/6/6 1577/6/6
f 1576/5/6 1572/5/6 1577/5/6
f 1574/5/6 1575/5/6 1578/5/6
f 1577/6/6 1573/6/6 1578/6/6
f 1573/5/6 1574/5/6 1578/5/6
f 1578/5/6 1575/5/6 1579/5/6
f 1576/6/6 1577/6/6 1580/6/6
f 1570/5/6 1576/5/6 1580/5/6
f 1580/6/6 1577/6/6 1581/6/6
f 1578/6/6 1579/6/6 1582/6/6
f 1579/5/6 1575/5/6 1583/5/6
f 1582/6/6 1579/6/6 1583/6/6
f 1567/10/6 1568/10/6 1584/10/6
f 1584/10/6 1568/10/6 1585/10/6
f 1580/5/6 1581/5/6 1587/5/6
f 1570/5/6 1580/5/6 1587/5/6
f 1587/5/6 1581/5/6 1588/5/6
f 1581/6/6 1582/6/6 1589/6/6
f 1588/5/6 1581/5/6 1589/5/6
f 1582/5/6 1583/5/6 1590/5/6
f 1589/6/6 1582/6/6 1590/6/6
f 1583/5/6 1575/5/6 1591/5/6
f 1590/5/6 1583/5/6 1591/5/6
f 1591/5/6 1575/5/6 1592/5/6
f 1585/10/6 1586/10/6 1593/10/6
f 1593/10/6 1586/10/6 1594/10/6
f 1589/5/6 1590/5/6 1595/5/6
f 1590/5/6 1591/5/6 1595/5/6
f 1588/5/6 1589/5/6 1595/5/6
f 1595/5/6 1591/5/6 1596/5/6
f 1597/10/6 1598/10/6 1602/10/6
f 1602/10/6 1598/10/6 1603/10/6
f 1599/10/6 1600/10/6 1604/10/6
f 1604/10/6 1600/10/6 1605/10/6
f 1601/10/6 1602/10/6 1606/10/6
f 1606/10/6 1602/10/6 1607/10/6
f 1607/10/6 1608/10/6 1611/10/6
f 1611/10/6 1608/10/6 1612/10/6
f 1609/10/6 1610/10/6 1613/10/6
f 1613/10/6 1610/10/6 1614/10/6
f 1615/11/6 1616/11/6 1618/11/6
f 1618/11/6 1616/11/6 1619/11/6
f 1619/11/6 1616/11/6 1620/11/6
f 1620/11/6 1616/11/6 1621/11/6
f 1617/11/6 1618/11/6 1626/11/6
f 1618/11/6 1619/11/6 1626/11/6
f 1626/11/6 1619/11/6 1627/11/6
f 1627/11/6 1619/11/6 1628/11/6
f 1620/11/6 1621/11/6 1629/11/6
f 1621/11/6 1622/11/6 1629/11/6
f 1629/11/6 1622/11/6 1630/11/6
f 1630/11/6 1622/11/6 1631/11/6
f 1623/10/6 1624/10/6 1634/10/6
f 1634/10/6 1624/10/6 1635/10/6
f 1626/11/6 1627/11/6 1636/11/6
f 1625/11/6 1626/11/6 1636/11/6
f 1636/11/6 1627/11/6 1637/11/6
f 1637/11/6 1627/11/6 1638/11/6
f 1630/11/6 1631/11/6 1639/11/6
f 1631/11/6 1632/11/6 1639/11/6
f 1639/11/6 1632/11/6 1640/11/6
f 1634/10/6 1635/10/6 1641/10/6
f 1633/10/6 1634/10/6 1641/10/6
f 1635/10/6 1636/10/6 1641/10/6
f 1641/10/6 1636/10/6 1642/10/6
f 1642/10/6 1636/10/6 1643/10/6
f 1636/11/6 1637/11/6 1644/11/6
f 1643/10/6 1636/10/6 1644/10/6
f 1644/11/6 1637/11/6 1645/11/6
f 1640/11/6 1632/11/6 1648/11/6
f 1642/10/6 1643/10/6 1649/10/6
f 1649/10/6 1643/10/6 1650/10/6
f 1645/11/6 1646/11/6 1651/11/6
f 1644/11/6 1645/11/6 1651/11/6
f 1651/11/6 1646/11/6 1652/11/6
f 1652/11/6 1646/11/6 1653/11/6
f 1647/11/6 1648/11/6 1656/11/6
f 1648/11/6 1632/11/6 1657/11/6
f 1656/11/6 1648/11/6 1657/11/6
f 1657/11/6 1632/11/6 1658/11/6
f 1653/11/6 1654/11/6 1659/11/6
f 1652/11/6 1653/11/6 1659/11/6
f 1659/11/6 1654/11/6 1660/11/6
f 1660/11/6 1654/11/6 1661/11/6
f 1656/11/6 1657/11/6 1662/11/6
f 1655/11/6 1656/11/6 1662/11/6
f 1662/11/6 1657/11/6 1663/11/6
f 1663/11/6 1657/11/6 1664/11/6
f 1660/11/6 1661/11/6 1665/11/6
f 1662/11/6 1663/11/6 1665/11/6
f 1661/11/6 1662/11/6 1665/11/6
f 1665/11/6 1663/11/6 1666/11/6
f 1667/12/6 1668/12/6 1670/12/6
f 1670/12/6 1668/12/6 1671/12/6
f 1671/12/6 1668/12/6 1672/12/6
f 1672/12/6 1668/12/6 1673/12/6
f 1669/12/6 1670/12/6 1676/12/6
f 1670/12/6 1671/12/6 1676/12/6
f 1676/12/6 1671/12/6 1677/12/6
f 1677/12/6 1671/12/6 1678/12/6
f 1672/12/6 1673/12/6 1679/12/6
f 1673/12/6 1674/12/6 1679/12/6
f 1679/12/6 1674/12/6 1680/12/6
f 1680/12/6 1674/12/6 1681/12/6
f 1676/12/6 1677/12/6 1683/12/6
f 1675/12/6 1676/12/6 1683/12/6
f 1683/12/6 1677/12/6 1684/12/6
f 1681/12/6 1682/12/6 1685/12/6
f 1680/12/6 1681/12/6 1685/12/6
f 1685/12/6 1682/12/6 1686/12/6
f 1675/12/6 1683/12/6 1687/12/6
f 1686/12/6 1682/12/6 1690/12/6
f 1687/12/6 1688/12/6 1691/12/6
f 1675/12/6 1687/12/6 1691/12/6
f 1691/12/6 1688/12/6 1692/12/6
f 1692/12/6 1688/12/6 1693/12/6
f 1689/12/6 1690/12/6 1696/12/6
f 1690/12/6 1682/12/6 1697/12/6
f 1696/12/6 1690/12/6 1697/12/6
f 1697/12/6 1682/12/6 1698/12/6
f 1693/12/6 1694/12/6 1699/12/6
f 1692/12/6 1693/12/6 1699/12/6
f 1699/12/6 1694/12/6 1700/12/6
f 1700/12/6 1694/12/6 1701/12/6
f 1695/12/6 1696/12/6 1702/12/6
f 1696/12/6 1697/12/6 1702/12/6
f 1702/12/6 1697/12/6 1703/12/6
f 1703/12/6 1697/12/6 1704/12/6
f 1700/12/6 1701/12/6 1705/12/6
f 1702/12/6 1703/12/6 1705/12/6
f 1701/12/6 1702/12/6 1705/12/6
f 1705/12/6 1703/12/6 1706/12/6
f 1707/13/6 1708/13/6 1710/13/6
f 1710/13/6 1708/13/6 1711/13/6
f 1709/13/6 1710/13/6 1714/13/6
f 1714/13/6 1710/13/6 1715/13/6
f 1711/13/6 1712/13/6 1716/13/6
f 1716/13/6 1712/13/6 1717/13/6
f 1713/13/6 1714/13/6 1719/13/6
f 1719/13/6 1714/13/6 1720/13/6
f 1717/13/6 1718/13/6 1723/13/6
f 1723/13/6 1718/13/6 1724/13/6
f 1720/13/6 1721/13/6 1725/13/6
f 1725/13/6 1721/13/6 1726/13/6
f 1722/13/6 1723/13/6 1727/13/6
f 1727/13/6 1723/13/6 1728/13/6
f 1726/13/6 1727/13/6 1729/13/6
f 1729/13/6 1727/13/6 1730/13/6
